<?xml version="1.0" encoding="utf-8"?>
<!-- Generator: Adobe Illustrator 15.0.0, SVG Export Plug-In . SVG Version: 6.00 Build 0)  -->
<svg version="1.2" baseProfile="tiny" id="Layer_1" xmlns="http://www.w3.org/2000/svg" xmlns:xlink="http://www.w3.org/1999/xlink"
	 x="0px" y="0px" width="200px" height="200px" viewBox="0 0 200 200" overflow="inherit" xml:space="preserve">
<g>
	<g id="Layer_2_5_">
		<path id="path5_6_" fill="#010101" d="M106.441,73.794c0.003,0.02,0.008,0.035,0.014,0.051c0.079,0.254,0.167,0.412,0.264,0.473
			c0.012-0.066,0.018-0.17,0.018-0.309C106.648,73.954,106.551,73.882,106.441,73.794z M106.264,73.703v-0.06
			c-0.021-0.018-0.043-0.037-0.067-0.059C106.221,73.624,106.243,73.663,106.264,73.703z M106.837,64.495
			c-0.006-0.009-0.014-0.019-0.022-0.027c-0.046-0.045-0.093-0.088-0.141-0.127c0.015,0.018,0.028,0.038,0.041,0.059
			c0.054,0.045,0.107,0.093,0.158,0.141c-0.003-0.006-0.008-0.012-0.014-0.018c-0.003-0.006-0.008-0.011-0.014-0.014L106.837,64.495
			z M105.941,63.34c0.033,0.066,0.061,0.138,0.081,0.213c0.185,0.115,0.341,0.236,0.47,0.365
			C106.361,63.708,106.178,63.516,105.941,63.34z M105.795,63.403c-0.062-0.082-0.135-0.156-0.214-0.223
			c-0.157-0.127-0.356-0.229-0.596-0.305c0.194,0.103,0.38,0.217,0.56,0.341C105.633,63.278,105.717,63.34,105.795,63.403z
			 M105.9,63.472c-0.006-0.012-0.013-0.026-0.019-0.041c-0.046-0.082-0.095-0.159-0.146-0.232c-0.077-0.051-0.161-0.097-0.245-0.137
			C105.654,63.184,105.791,63.32,105.9,63.472L105.9,63.472z M104.308,62.562c0.185,0.03,0.362,0.078,0.532,0.141
			c0.222,0.042,0.438,0.112,0.65,0.209c-0.442-0.433-1.058-0.651-1.843-0.651c-0.072,0-0.154,0.005-0.245,0.015
			C103.72,62.354,104.022,62.45,104.308,62.562z M107.901,65.751l-0.022,0.023c-0.318-0.44-0.566-0.762-0.741-0.964
			c-0.013-0.012-0.022-0.025-0.032-0.037c-0.006-0.006-0.012-0.011-0.019-0.014c0.146,0.164,0.274,0.342,0.388,0.537
			c0.033,0.058,0.062,0.117,0.09,0.177c0.209,0.322,0.336,0.591,0.378,0.81c0.282,0.492,0.423,0.875,0.423,1.147
			c0,0.048-0.006,0.07-0.018,0.063c-0.003,0-0.008-0.006-0.014-0.018c-0.112-0.371-0.264-0.731-0.455-1.083
			c0.059,0.261,0.093,0.542,0.105,0.841c0.042,0.177,0.062,0.337,0.062,0.482l-0.008,0.196l-0.046-0.005
			c-0.003-0.061-0.011-0.121-0.019-0.182c-0.013,0.094-0.032,0.212-0.059,0.355c0.023,0.073,0.049,0.148,0.077,0.227
			c0,0.055-0.017,0.127-0.046,0.218h-0.046c-0.015-0.052-0.03-0.1-0.046-0.146c-0.005,0.024-0.012,0.05-0.018,0.077
			c0.016,0.049,0.03,0.099,0.046,0.15c0.109,0.413,0.163,0.676,0.163,0.792c0,0.061-0.006,0.133-0.018,0.218
			c-0.016,0.113-0.035,0.181-0.059,0.205l-0.06-0.022c-0.033-0.298-0.087-0.615-0.159-0.951c-0.018,0.076-0.035,0.14-0.051,0.191
			c0.019,0.188,0.031,0.377,0.037,0.568c0.012,0.048,0.023,0.099,0.035,0.15c0.082,0.353,0.125,0.603,0.128,0.751
			c0,0.003,0,0.007,0,0.01c-0.024,0.321-0.038,0.559-0.046,0.713h-0.035c-0.013-0.242-0.033-0.483-0.064-0.723
			c-0.002-0.015-0.006-0.03-0.01-0.045c0,0.015,0,0.03,0,0.045c-0.002,0.066-0.008,0.15-0.018,0.25
			c0.021,0.125,0.033,0.199,0.037,0.223c-0.02-0.012-0.037-0.025-0.055-0.041c-0.004,0.048-0.008,0.1-0.014,0.154l-0.023-0.023
			c0-0.024-0.003-0.063-0.009-0.118c-0.009,0.034-0.02,0.067-0.032,0.1c0.039,0.082,0.074,0.171,0.105,0.268
			c0.084,0.274,0.139,0.577,0.163,0.911c-0.058-0.058-0.143-0.211-0.255-0.459c-0.006,0.109-0.022,0.233-0.05,0.373
			c-0.015,0.076-0.032,0.145-0.05,0.205c0,0.003,0,0.008,0,0.014l-0.01,0.096h-0.031c-0.024,0.063-0.053,0.113-0.082,0.15
			c-0.113-0.115-0.188-0.254-0.223-0.419v0.005c0.117,0.591,0.177,0.957,0.177,1.096c0,0.094-0.013,0.146-0.036,0.154l-0.032-0.018
			c-0.048-0.052-0.102-0.137-0.159-0.255c-0.003,0.069-0.01,0.134-0.022,0.19c-0.015,0.061-0.022,0.111-0.022,0.15
			c0.023,0.024,0.049,0.051,0.072,0.082c0.039,0.021,0.076,0.041,0.109,0.059l-0.045,0.046c-0.143-0.046-0.284-0.099-0.424-0.159
			c0.004,0.009,0.005,0.02,0.005,0.031c0.179,0.186,0.318,0.35,0.419,0.492c0.006,0.009,0.004,0.017-0.006,0.022
			c-0.023,0.015-0.082,0.022-0.177,0.022c-0.061,0-0.13-0.016-0.209-0.049c0.003,0.008,0.005,0.016,0.005,0.021
			c0.009,0.104,0.001,0.188-0.023,0.255c-0.051,0.148-0.195,0.243-0.432,0.282c0.061,0.098,0.123,0.197,0.187,0.301
			c0.324,0.54,0.603,1.065,0.837,1.578c-0.152-0.082-0.329-0.244-0.532-0.486c0.066,0.136,0.126,0.259,0.177,0.369
			c0.416,0.375,0.656,0.672,0.719,0.891c-0.008,0.013-0.021,0.024-0.035,0.037c0.136,0.148,0.229,0.275,0.281,0.381
			c0.034,0.067,0.05,0.125,0.05,0.174c0,0.094-0.007,0.139-0.022,0.137c-0.01-0.004-0.016-0.016-0.021-0.037
			c-0.132-0.092-0.259-0.182-0.383-0.273c-0.004-0.002-0.006-0.004-0.01-0.004v0.004c0.004,0.01,0.005,0.018,0.005,0.023h-0.082
			c0.386,0.465,0.822,0.903,1.31,1.319c0.75,0.638,1.348,1.339,1.793,2.106c0.916,1.537,1.225,3.333,0.924,5.387
			c-0.35,2.363-0.883,4.689-1.602,6.982c-0.291,0.938-0.562,1.883-0.814,2.835c0.064,0.067,0.141,0.161,0.232,0.282
			c0.139,0.185,0.243,0.333,0.309,0.445l0.023-0.023c0-0.09,0.015-0.158,0.045-0.204c0.031,0.091,0.045,0.204,0.045,0.342
			l-0.136,0.022c-0.061-0.063-0.188-0.221-0.382-0.469c-0.07-0.088-0.131-0.162-0.182-0.223c-0.024,0.091-0.049,0.182-0.074,0.273
			c0.121,0.163,0.197,0.265,0.229,0.305c-0.098-0.04-0.184-0.098-0.26-0.174c-0.021,0.092-0.044,0.182-0.067,0.273
			c0.032,0.052,0.065,0.109,0.099,0.173c0.15,0.349,0.256,0.591,0.319,0.728h-0.067c-0.155-0.239-0.293-0.457-0.41-0.654
			c-0.006,0.021-0.012,0.042-0.019,0.063h0.041c0,0.106,0.015,0.247,0.046,0.423c0.029,0.174,0.045,0.29,0.045,0.351l-0.091-0.022
			c-0.009-0.043-0.046-0.143-0.108-0.301c-0.01-0.021-0.018-0.041-0.023-0.06c-0.036,0.149-0.071,0.3-0.104,0.45
			c0.04,0.134,0.058,0.232,0.055,0.296l-0.091-0.022c0-0.021-0.004-0.047-0.01-0.077c-0.033,0.142-0.064,0.284-0.096,0.428
			c0.037,0.075,0.072,0.171,0.105,0.286v0.479h-0.068c-0.01-0.135-0.038-0.312-0.086-0.533c-0.086,0.392-0.166,0.786-0.242,1.184
			c0.013,0.012,0.023,0.021,0.033,0.031l-0.046,0.045h-0.005c-0.088,0.465-0.172,0.932-0.256,1.402
			c-0.068,0.406-0.123,0.81-0.163,1.21c-0.237,2.399,0.069,4.743,0.919,7.033c1.014,2.724,2.092,5.417,3.234,8.08
			c0.043,0.136,0.084,0.27,0.123,0.399c0.91,2.381,0.961,4.758,0.154,7.13c-0.049,0.13-0.1,0.263-0.154,0.396
			c-0.021,0.023-0.044,0.049-0.068,0.072c-0.018,0.076-0.042,0.145-0.072,0.205c-0.2,0.406-0.838,0.626-1.91,0.66
			c-4.529,2.896-7.271,3.108-8.227,0.637c-2.174-0.807-3.86-2.145-5.059-4.014c-0.577-0.902-0.974-1.743-1.192-2.52
			c-0.218-0.779-0.524-1.387-0.918-1.824c-0.392-0.442-0.657-1.114-0.797-2.016c-0.136-0.9-0.295-1.905-0.477-3.016
			c-0.179-1.107-0.273-2.109-0.282-3.008c-0.019-0.979,0.025-1.953,0.132-2.92c0.112-0.971,0.106-1.951-0.019-2.944
			c-0.06-0.5-0.107-1.004-0.141-1.51c-0.072-1.062-0.106-2.142-0.1-3.239c0-0.543,0.015-1.08,0.045-1.61
			c-0.03-0.364-0.078-0.721-0.141-1.069c-0.07-0.35-0.135-0.693-0.195-1.033c-0.058-0.424-0.086-0.79-0.086-1.096
			c0-0.16,0-0.315,0-0.464c-0.161-0.07-0.357-0.212-0.587-0.423c-0.088-0.076-0.167-0.155-0.237-0.236
			c-0.063,0.075-0.131,0.113-0.204,0.113c-0.133,0-0.234-0.145-0.301-0.433c0-0.118,0.047-0.208,0.141-0.269
			c0.013-0.006,0.021-0.012,0.028-0.018c-0.019-0.07-0.03-0.137-0.037-0.201c0-0.006-0.004-0.012-0.009-0.018
			c-0.041-0.212-0.06-0.466-0.06-0.76c0-0.35,0.12-0.729,0.36-1.143c0.527-0.701,1.042-1.408,1.542-2.124
			c0.363-0.618,0.703-1.201,1.019-1.747c-0.018,0.006-0.038,0.014-0.059,0.023c0.021-0.049,0.041-0.098,0.059-0.146
			c0.03-0.012,0.062-0.024,0.096-0.035c0.097-0.171,0.191-0.334,0.282-0.492c-0.036,0.012-0.071,0.025-0.104,0.041
			c-0.055,0.023-0.107,0.05-0.159,0.077c0.003-0.009,0.004-0.015,0.004-0.019c0.027-0.039,0.053-0.078,0.078-0.117
			c0.024-0.013,0.048-0.023,0.073-0.032c0.057-0.021,0.116-0.042,0.172-0.063c0.037-0.061,0.072-0.121,0.105-0.184
			c-0.007,0-0.011,0-0.014,0c-0.058,0-0.104-0.01-0.142-0.03c0.027-0.049,0.057-0.098,0.087-0.146
			c0.034,0.013,0.081,0.027,0.141,0.046c0.07-0.121,0.138-0.241,0.205-0.359c-0.085,0.033-0.159,0.064-0.223,0.096
			c0.021-0.037,0.042-0.072,0.063-0.109v-0.004c0.07-0.034,0.146-0.068,0.227-0.105c0.049-0.082,0.096-0.163,0.141-0.246
			c-0.073,0.031-0.148,0.062-0.227,0.096c0.024-0.043,0.047-0.085,0.068-0.127c0.082-0.036,0.161-0.072,0.236-0.105
			c0.121-0.218,0.236-0.427,0.346-0.627c-0.085,0.033-0.17,0.064-0.255,0.092c0.046-0.092,0.089-0.182,0.133-0.27
			c0.099-0.052,0.203-0.104,0.309-0.159c0.303-0.556,0.559-1.04,0.768-1.456c0.673-1.331,1.223-2.348,1.647-3.052l0.609-0.524
			c-0.042-0.6-0.313-1.115-0.813-1.547c-0.498-0.436-1.012-0.854-1.542-1.254c0.027,0.057,0.041,0.1,0.041,0.127
			c0,0.097-0.014,0.148-0.041,0.154c-0.019,0.006-0.066,0.008-0.141,0.004c-0.186-0.19-0.326-0.339-0.423-0.445
			c-0.955-0.045-1.915-0.093-2.875-0.141c-0.264-0.059-0.499-0.161-0.705-0.31c-0.543-0.399-0.974-0.901-1.292-1.501
			c-0.045-0.08-0.099-0.162-0.159-0.25c-0.3-0.459-0.451-0.697-0.451-0.715c0.07-0.167,0.144-0.309,0.224-0.428
			c-0.08-0.046-0.136-0.124-0.169-0.236c-0.024-0.213-0.037-0.324-0.037-0.337c0-0.261,0.047-0.429,0.141-0.505
			c0.119-0.436,0.44-0.875,0.965-1.314c0.676-0.479,1.014-0.766,1.014-0.86c0-0.037-0.014-0.111-0.041-0.223
			c-0.03-0.107-0.045-0.18-0.045-0.219c0-0.291,0.227-0.716,0.683-1.273c0.458-0.567,0.687-0.901,0.687-1
			c0-0.064-0.07-0.355-0.21-0.875c-0.342-0.054-0.514-0.272-0.514-0.654c0-0.18,0-0.273,0-0.283c0.019-0.118,0.078-0.23,0.178-0.336
			c0.088-0.1,0.303-0.203,0.646-0.31c0.124-0.037,0.227-0.07,0.309-0.1c0.482-0.173,0.907-0.433,1.273-0.783
			c0-0.005,0-0.012,0-0.018c0-0.176,0.02-0.324,0.059-0.445c0.043-0.124,0.107-0.23,0.191-0.319c0.279-0.449,0.816-0.839,1.61-1.169
			c0.386-0.161,0.79-0.291,1.21-0.391c0.409-0.201,0.842-0.293,1.297-0.278v0.014c-0.228,0.006-0.472,0.056-0.733,0.15
			c0.327-0.058,0.663-0.096,1.005-0.118c0.003,0,0.006,0,0.009,0c0.646-0.276,1.489-0.239,2.529,0.109
			c0.073,0.012,0.145,0.027,0.215,0.045c0.321-0.049,0.625-0.073,0.913-0.073c0.713,0.082,1.26,0.31,1.639,0.683
			c0.086,0.084,0.161,0.176,0.228,0.273c0.282,0.161,0.51,0.345,0.683,0.554c0.166,0.2,0.25,0.381,0.25,0.542
			c0,0.009,0,0.018,0,0.027c0.018,0.027,0.037,0.056,0.055,0.086c0.063,0.07,0.117,0.138,0.159,0.205
			c0.116,0.103,0.228,0.215,0.337,0.337C107.566,65.14,107.777,65.453,107.901,65.751L107.901,65.751z"/>
	</g>
	<g id="Layer_4_6_">
		<path id="path8_5_" fill="#010101" d="M84.38,129.229c0.04,0.015,0.081,0.03,0.123,0.046c-0.037-0.021-0.071-0.043-0.104-0.064
			C84.393,129.216,84.387,129.223,84.38,129.229z M85.996,127.636c-0.012-0.033-0.026-0.062-0.041-0.09
			c-0.006,0.006-0.014,0.014-0.022,0.021c0.021,0.037,0.042,0.067,0.063,0.092V127.636z M90.978,121.722l-0.005,0.01v0.022
			C90.976,121.741,90.978,121.731,90.978,121.722z M90.19,122.696c-0.024,0.026-0.05,0.057-0.078,0.09
			c0.019,0.082,0.038,0.15,0.059,0.205C90.178,122.913,90.184,122.813,90.19,122.696z M97.191,87.52
			c1.026-1.783,1.53-3.104,1.515-3.962c-0.233-1.219-0.063-2.251,0.51-3.094c0.495-0.736,1.21-1.23,2.148-1.479
			c0.888-0.237,1.697-0.184,2.424,0.159c0.783,0.376,1.232,0.991,1.348,1.847c0.026,0.166,0.026,0.363,0,0.587
			c-0.04,0.476-0.189,1.062-0.45,1.757c-0.301,0.809-0.633,1.52-0.997,2.129c-0.03,0.049-0.057,0.099-0.077,0.15
			c-0.288,0.539-0.422,1.236-0.4,2.092c0.021,1.18-0.066,2.325-0.265,3.435c-0.193,1.114-0.188,2.231,0.014,3.353
			c0.192,1.12,0.251,2.172,0.179,3.158c-0.07,0.985-0.392,2.014-0.966,3.084c-0.572,1.056-1.006,2.404-1.3,4.045
			c-0.292,1.646-0.858,3.064-1.702,4.254c-0.84,1.183-1.301,1.758-1.383,1.725c-0.085-0.043-0.169,0.047-0.254,0.268
			c0.042,0.952-0.457,1.711-1.497,2.275c-0.725,0.885-1.17,1.506-1.338,1.859c-0.913,1.951-1.595,3.351-2.047,4.199v0.051
			c-0.115,0.458-0.171,0.823-0.168,1.097l-0.092-0.022c0.03-0.265,0.057-0.528,0.078-0.792c-0.14,0.249-0.251,0.427-0.333,0.536
			c-0.076,0.1-0.155,0.203-0.236,0.311c-0.206,0.603-0.309,1.111-0.309,1.523l-0.091-0.023l-0.005-0.477
			c0.064-0.158,0.128-0.404,0.191-0.737c-0.033,0.039-0.066,0.08-0.1,0.122c-0.101,0.568-0.157,1.002-0.172,1.302h-0.069
			c-0.018-0.046-0.027-0.148-0.027-0.31c0-0.03,0.043-0.302,0.132-0.814c-0.1,0.124-0.201,0.25-0.301,0.378
			c-0.091,0.665-0.165,1.308-0.223,1.933l-0.045-0.045l-0.018-1.296l-0.023,0.046c-0.04,0.408-0.056,0.842-0.051,1.295l-0.09-0.018
			c-0.007-0.455-0.016-0.796-0.028-1.023c-0.002-0.094-0.009-0.185-0.017-0.272c-0.007,0.009-0.015,0.02-0.023,0.032
			c-0.004,0.066-0.009,0.139-0.018,0.218c-0.059,0.64-0.088,1.117-0.092,1.433h-0.068l-0.082-1.069
			c-0.045,0.2-0.082,0.438-0.109,0.71c-0.015,0.151-0.033,0.364-0.054,0.637l-0.05-0.045c-0.021-0.358-0.069-0.737-0.145-1.139
			c-0.031,0.037-0.061,0.074-0.091,0.115c-0.012,0.124-0.029,0.27-0.05,0.436c-0.042,0.344-0.067,0.617-0.074,0.819h-0.067
			c-0.034-0.182-0.051-0.341-0.051-0.478l-0.022,0.046c0.003,0.228-0.009,0.522-0.037,0.888l-0.091-0.019
			c0-0.138-0.007-0.206-0.022-0.206c-0.03,0.184-0.083,0.273-0.159,0.273l-0.096-0.714c-0.009-0.073-0.019-0.144-0.027-0.214
			c-0.061,0.07-0.123,0.141-0.188,0.214c0,0.013,0.001,0.024,0.005,0.036c-0.016,0.318-0.033,0.569-0.054,0.751l-0.097-0.022
			l-0.072-0.474h-0.023c-0.057,0.272-0.112,0.683-0.164,1.229h-0.068c-0.03-0.085-0.073-0.298-0.127-0.637
			c-0.009-0.052-0.02-0.101-0.032-0.146c-0.061,0.072-0.124,0.146-0.191,0.219l0.004,0.271c0.031,0.138,0.048,0.319,0.051,0.547
			l-0.137,0.027c-0.042-0.215-0.072-0.376-0.09-0.482c-0.009-0.045-0.019-0.09-0.028-0.133c-0.021,0.027-0.044,0.054-0.068,0.078
			c0.03,0.194,0.045,0.304,0.045,0.328c0.007,0.245-0.074,0.438-0.241,0.577c-0.039-0.058-0.101-0.181-0.186-0.368
			c-0.012-0.024-0.024-0.047-0.037-0.068c-0.03,0.033-0.061,0.068-0.091,0.104c0.019,0.108,0.035,0.231,0.051,0.369
			c0.045,0.37,0.076,0.607,0.091,0.714c-0.294,0.029-0.498-0.154-0.61-0.555c-0.037,0.039-0.073,0.08-0.109,0.123
			c0.103,0.475,0.155,0.729,0.155,0.76h-0.068c-0.058-0.086-0.144-0.25-0.259-0.496c-0.006-0.016-0.014-0.031-0.023-0.046
			c-0.045,0.048-0.091,0.099-0.136,0.149c0.015,0.046,0.032,0.094,0.05,0.146c0.112,0.291,0.168,0.443,0.168,0.459
			c0,0.094-0.001,0.143-0.005,0.146c-0.006,0-0.02,0.003-0.041,0.009c-0.088-0.13-0.205-0.319-0.351-0.568
			c-0.029,0.037-0.061,0.071-0.091,0.105c-0.051,0.057-0.104,0.113-0.159,0.168c0.067,0.182,0.1,0.308,0.1,0.377
			c0.003,0.076-0.026,0.103-0.086,0.078c-0.063-0.027-0.094-0.004-0.091,0.072c0,0.003,0.024,0.016,0.073,0.037
			c0.024,0.051-0.029,0.162-0.159,0.332c-0.088-0.061-0.198-0.178-0.332-0.352c-0.08,0.082-0.159,0.165-0.237,0.246
			c0.14,0.312,0.217,0.488,0.232,0.527l-0.023,0.105c-0.021,0-0.054-0.021-0.1-0.064c-0.039-0.032-0.066-0.041-0.082-0.027
			c0.018,0.116,0.027,0.184,0.027,0.201c0.003,0.076-0.02,0.138-0.068,0.187c-0.076-0.073-0.182-0.238-0.318-0.497
			c-0.009-0.015-0.018-0.029-0.027-0.045c-0.027,0.03-0.056,0.062-0.086,0.096c0.03,0.064,0.063,0.132,0.1,0.205
			c0.136,0.264,0.218,0.442,0.245,0.537c-0.03,0.048-0.091,0.088-0.182,0.117c-0.088-0.063-0.15-0.154-0.187-0.272l-0.096-0.3
			c-0.017-0.033-0.039-0.064-0.063-0.091c-0.063,0.066-0.129,0.134-0.195,0.2c0.236,0.166,0.356,0.283,0.36,0.35
			c0,0.076-0.032,0.098-0.096,0.063c-0.063-0.039-0.095-0.021-0.095,0.055c0,0.028,0.041,0.087,0.123,0.179
			c0.079,0.09,0.118,0.146,0.118,0.168c0,0.094-0.012,0.139-0.037,0.136c-0.009,0-0.02-0.009-0.032-0.027
			c-0.154,0-0.262-0.033-0.323-0.1c-0.094-0.106-0.164-0.17-0.209-0.19c-0.109-0.01-0.214-0.02-0.314-0.027
			c0.057,0.062,0.14,0.158,0.246,0.285l-0.063,0.242c-0.045,0.002-0.124,0.01-0.233,0.021c-0.012,0-0.024-0.001-0.036-0.004
			c0.045,0.434,0.016,0.984-0.087,1.651c-0.161,1.083-0.244,1.662-0.25,1.737c-0.097,1.269-0.159,1.987-0.187,2.157
			c-0.033,0.2-0.072,0.379-0.118,0.537c0.009,0.261,0.008,0.597-0.004,1.01c-0.04,0.644-0.053,1.046-0.041,1.21
			c0.018,0.273,0.062,0.672,0.132,1.197c0.034,0.258,0.026,0.531-0.022,0.822c0,0.021-0.003,0.051-0.009,0.087
			c0.003,0.118-0.001,0.212-0.014,0.282c-0.012,0.042-0.027,0.084-0.045,0.127c0.018,0.059,0.044,0.151,0.077,0.283
			c0.049,0.205,0.079,0.358,0.091,0.459c0.012,0.051,0.001,0.193-0.032,0.423c-0.024,0.236-0.032,0.376-0.022,0.419
			c0.003,0.039,0.022,0.1,0.059,0.182c0.042,0.084,0.066,0.145,0.073,0.177c0.003,0.013,0.025,0.183,0.068,0.51
			c-0.03,0.347-0.226,0.54-0.586,0.583c-0.204,0.033-0.348-0.051-0.432-0.25c-0.061-0.049-0.118-0.125-0.173-0.229
			c-0.055-0.115-0.091-0.247-0.109-0.396c-0.012-0.075-0.021-0.31-0.028-0.7c0.004-0.37,0.005-0.562,0.005-0.574
			c-0.028-0.182-0.042-0.412-0.046-0.691c-0.008-0.27-0.024-0.481-0.045-0.637c-0.054-0.121-0.109-0.246-0.164-0.373
			c-0.109-0.26-0.174-0.477-0.195-0.646c-0.015-0.218-0.026-0.404-0.032-0.559c-0.267-0.262-0.421-0.404-0.464-0.428
			c-0.019,0.018-0.059,0.084-0.122,0.2c-0.03,0.042-0.06,0.081-0.087,0.114c-0.012,0.012-0.019,0.023-0.019,0.036
			c0.052,0.418,0.076,0.709,0.074,0.874c-0.01,0.209-0.069,0.561-0.178,1.055c-0.006,0.012-0.106,0.352-0.3,1.019
			c-0.13,0.423-0.192,0.763-0.183,1.023c0.012,0.489-0.188,1.169-0.6,2.038c-0.055,0.113-0.136,0.29-0.246,0.532
			c-0.079,0.213-0.126,0.39-0.141,0.532c-0.042,0.35-0.066,0.542-0.073,0.578c-0.091,0.283-0.276,0.443-0.555,0.482
			c-0.373,0.051-0.589-0.148-0.65-0.6c-0.03-0.22-0.03-0.388,0-0.506c0.012-0.043,0.091-0.239,0.236-0.591
			c0.03-0.088,0.055-0.18,0.073-0.273c-0.012-0.046-0.021-0.088-0.027-0.128c-0.018-0.154,0.005-0.307,0.068-0.459
			c0.003-0.1,0.011-0.172,0.022-0.214c0.049-0.294,0.096-0.548,0.141-0.76c0.027-0.179,0.063-0.39,0.105-0.633
			c0-0.012,0-0.024,0-0.036c-0.004-0.27-0.019-0.502-0.046-0.695c-0.015-0.16,0.074-0.404,0.268-0.729
			c0.007-0.012,0.015-0.021,0.023-0.027c0-0.002,0-0.014,0-0.031c0.046-0.265,0.091-0.512,0.137-0.742
			c-0.018-0.033-0.03-0.07-0.036-0.113c0.042-0.619,0.055-1.003,0.036-1.151c-0.006-0.052-0.061-0.176-0.164-0.372
			c-0.097-0.195-0.162-0.307-0.195-0.338c-0.107,0.158-0.294,0.549-0.564,1.174c-0.091,0.385-0.232,0.874-0.423,1.466
			c-0.2,0.627-0.404,1.232-0.614,1.815c-0.021,0.33-0.105,0.678-0.25,1.041c-0.158,0.404-0.368,0.776-0.632,1.119
			c-0.113,0.137-0.202,0.519-0.269,1.146c-0.13,0.537-0.432,0.853-0.905,0.946c-0.051,0.013-0.106,0.026-0.164,0.041
			c-0.23,0.027-0.39-0.06-0.478-0.259c-0.021-0.055-0.048-0.215-0.082-0.479c-0.04-0.26,0.166-1.135,0.614-2.625
			c0.458-1.474,0.693-2.235,0.705-2.283c0.07-0.334,0.199-0.758,0.386-1.27c0.209-0.555,0.363-0.963,0.46-1.225
			c0.064-0.176,0.12-0.394,0.168-0.654c0.048-0.273,0.094-0.472,0.136-0.596c-0.097-0.122-0.273-0.193-0.528-0.215
			c-0.063-0.006-0.122-0.014-0.178-0.022c-0.006,0.021-0.015,0.041-0.027,0.06c0,0.018,0.005,0.036,0.014,0.055
			c0.024,0.188-0.218,0.662-0.728,1.424c-0.458,0.688-0.798,1.135-1.019,1.342c-0.127,0.115-0.238,0.329-0.332,0.641
			c-0.097,0.334-0.207,0.571-0.328,0.711c-0.049,0.055-0.189,0.297-0.423,0.728c-0.118,0.196-0.221,0.351-0.31,0.46
			c-0.014,0.115-0.033,0.244-0.054,0.387c-0.061,0.442-0.283,0.691-0.665,0.746c-0.094,0.009-0.17-0.013-0.228-0.064
			c-0.07-0.045-0.111-0.105-0.123-0.182c-0.042-0.35-0.036-0.667,0.018-0.955c0.1-0.379,0.182-0.743,0.247-1.092
			c0.036-0.249,0.179-0.606,0.427-1.074c0.291-0.582,0.463-0.939,0.514-1.073c0.103-0.271,0.273-0.628,0.509-1.074
			c0.322-0.608,0.508-0.966,0.56-1.069c0.331-0.475,0.651-0.871,0.96-1.187c-0.003-0.177-0.001-0.314,0.004-0.415
			c0.015-0.26,0.106-0.486,0.273-0.678c0.073-0.088,0.14-0.156,0.201-0.204c0.115-0.419,0.38-0.908,0.796-1.47
			c0.646-0.867,0.956-1.389,0.928-1.564c-0.006-0.067-0.071-0.147-0.196-0.242c-0.036-0.029-0.073-0.064-0.109-0.104
			c-0.285,0.075-0.61,0.293-0.974,0.65c-0.379,0.369-0.597,0.676-0.655,0.919c-0.012,0.058-0.077,0.316-0.195,0.778
			c-0.246,0.457-0.694,0.729-1.346,0.814c-0.237,0.033-0.371-0.072-0.401-0.314c-0.066-0.467,0.076-1.07,0.428-1.811
			c0.339-0.722,0.732-1.279,1.178-1.674c0.249-0.223,0.684-0.461,1.306-0.719c0.579-0.24,0.972-0.474,1.178-0.701
			c0.513-0.485,0.84-0.791,0.983-0.918c0.4-0.941,1.115-2.365,2.143-4.273c1.297-2.39,2.275-4.11,2.934-5.163
			c0.177-0.258,0.631-0.929,1.365-2.011c0.737-1.082,1.829-2.455,3.276-4.117c1.45-1.668,2.65-2.857,3.603-3.566
			c0.037-0.14,0.115-0.372,0.237-0.696c0.039-0.094,0.126-0.353,0.264-0.773c0.143-0.422,0.148-1.142,0.018-2.161
			s0.144-3.369,0.824-7.051c0.679-3.686,1.264-6.254,1.756-7.703c0.146-0.445,0.429-1.049,0.851-1.811
			C96.514,88.681,96.919,87.993,97.191,87.52L97.191,87.52z"/>
	</g>
	<g id="Layer_6_5_">
		<path id="path11_4_" fill="#010101" d="M87.27,173.513l0.059,0.022c0.078-0.033,0.157-0.063,0.236-0.091
			C87.475,173.462,87.375,173.485,87.27,173.513z M88.057,172.808c-0.095,0-0.142,0.006-0.142,0.018
			c0,0.006,0.004,0.023,0.013,0.051c0.092,0.091,0.137,0.159,0.137,0.205c0.125,0,0.24,0,0.346,0
			c0.106-0.046,0.21-0.092,0.313-0.137c-0.04-0.01-0.083-0.021-0.132-0.033C88.312,172.843,88.133,172.808,88.057,172.808z
			 M90.036,172.308c0.03-0.016,0.059-0.031,0.086-0.046c-0.091,0-0.185,0-0.282,0C89.855,172.274,89.92,172.289,90.036,172.308
			L90.036,172.308z M90.773,171.716l0.022,0.022c0.03,0.021,0.059,0.041,0.086,0.06c0.055-0.031,0.104-0.059,0.15-0.082
			C90.95,171.716,90.864,171.716,90.773,171.716z M94.663,167.922c0,0.012,0,0.025,0,0.04l0.009,0.006
			C94.669,167.949,94.665,167.934,94.663,167.922z M94.071,166.11h0.022c0-0.024-0.001-0.051-0.004-0.082
			c-0.018-0.045-0.038-0.089-0.059-0.131C94.042,165.973,94.056,166.044,94.071,166.11z M93.001,164.108v-0.021
			c-0.003-0.007-0.005-0.012-0.008-0.014C92.996,164.085,92.999,164.097,93.001,164.108z M99.398,160.36
			c0.006,0.046,0.011,0.093,0.014,0.141c0.019,0.043,0.037,0.087,0.055,0.133c0.118,0.306,0.221,0.586,0.305,0.842
			c0.063,0.015,0.123,0.064,0.177,0.149c0.061,0.101,0.103,0.154,0.127,0.163c-0.079-0.32-0.179-0.652-0.301-0.991l-0.086,0.014
			c-0.03-0.058-0.114-0.188-0.25-0.392C99.424,160.397,99.41,160.379,99.398,160.36z M92.638,163.653
			c-0.018-0.082-0.038-0.176-0.059-0.281c-0.027-0.045-0.056-0.093-0.086-0.141C92.541,163.397,92.589,163.538,92.638,163.653z
			 M92.183,163.29c-0.043-0.227-0.093-0.512-0.15-0.851c-0.115-0.203-0.228-0.403-0.336-0.601c0.146,0.473,0.308,0.972,0.487,1.496
			V163.29z M91.091,160.97c0-0.091-0.012-0.193-0.036-0.309c-0.021-0.04-0.042-0.078-0.064-0.114c0.019,0.106,0.052,0.255,0.1,0.446
			V160.97z M90.258,159.101c0.055,0.215,0.104,0.406,0.15,0.573v-0.022c0-0.064-0.012-0.171-0.036-0.319
			C90.335,159.253,90.298,159.176,90.258,159.101z M99.28,159.327c0.073,0.148,0.144,0.303,0.214,0.46
			c0.009,0.024,0.018,0.049,0.027,0.073c-0.124-0.48-0.217-0.832-0.277-1.056c0.003,0.085,0.004,0.167,0.004,0.245
			C99.26,159.142,99.271,159.233,99.28,159.327L99.28,159.327z M99.321,159.66c0.006,0.033,0.011,0.066,0.014,0.1
			c0.009,0.069,0.024,0.206,0.045,0.409l0.332,0.506l0.014-0.014c-0.106-0.304-0.23-0.615-0.373-0.934
			C99.344,159.707,99.333,159.685,99.321,159.66L99.321,159.66z M99.189,157.958c-0.006-0.015-0.014-0.028-0.022-0.041
			c0.009,0.055,0.017,0.109,0.022,0.164c0.052,0.131,0.1,0.266,0.146,0.404c0.03,0.098,0.062,0.199,0.091,0.306
			C99.359,158.515,99.28,158.237,99.189,157.958z M99.189,140.907v-0.432c-0.033,0.048-0.063,0.096-0.091,0.141
			C99.123,140.746,99.153,140.843,99.189,140.907z M99.849,139.697c-0.009,0.009-0.019,0.02-0.027,0.032
			c0.009,0.015,0.018,0.028,0.027,0.041C99.849,139.745,99.849,139.722,99.849,139.697z M100.281,139.019
			c0.003,0.201,0.026,0.352,0.068,0.455C100.349,139.308,100.326,139.155,100.281,139.019z M108.843,117.041
			c0.962,1.073,1.624,2.311,1.984,3.712c0.347,1.387,0.333,2.754-0.036,4.104c-0.219,0.4-0.443,0.855-0.674,1.365
			c-1.197,2.623-2.835,5.007-4.909,7.151c-1.492,1.547-2.828,3.009-4.008,4.386c0.024,0.213,0.036,0.359,0.036,0.441
			c0,0.233-0.03,0.43-0.091,0.592l-0.068-0.047c0-0.348-0.014-0.611-0.041-0.791c-0.015,0.021-0.031,0.043-0.05,0.064
			c-0.009,0.084-0.018,0.186-0.027,0.305c-0.021,0.199-0.05,0.363-0.086,0.491c-0.046-0.03-0.076-0.061-0.091-0.091
			c0.027,0.133,0.029,0.308,0.005,0.523c-0.034,0.285-0.05,0.459-0.05,0.523l-0.091-0.023c-0.015-0.139-0.053-0.355-0.114-0.646
			c-0.036-0.176-0.065-0.32-0.086-0.437c-0.014,0.021-0.032,0.042-0.05,0.063c0,0.088,0.012,0.307,0.036,0.655
			c0.018,0.376,0.014,0.657-0.014,0.842l-0.045-0.046c0-0.091-0.007-0.151-0.022-0.182c-0.009,0.024-0.02,0.058-0.032,0.1
			c-0.015,0.037-0.042,0.064-0.082,0.082c-0.04-0.049-0.071-0.121-0.096-0.218c-0.006-0.03-0.02-0.109-0.041-0.237l-0.023,0.047
			c0,0.454-0.023,0.773-0.068,0.955h-0.091c-0.058-0.113-0.103-0.272-0.137-0.479h-0.044c0.051,0.186,0.017,0.385-0.105,0.596
			c-0.097,0.167-0.229,0.317-0.396,0.451c-0.024-0.016-0.05-0.053-0.077-0.109c-0.024-0.049-0.044-0.073-0.059-0.073
			c0,0.024,0.004,0.079,0.014,0.163c-0.012,0.074-0.065,0.109-0.159,0.109c-0.152,0-0.202-0.006-0.151-0.022
			c0-0.017-0.012-0.042-0.035-0.071c-0.01-0.017-0.021-0.03-0.033-0.042c-0.018,0.033-0.061,0.188-0.127,0.469
			c-0.048,0.188-0.112,0.282-0.191,0.282c-0.097,0-0.167-0.014-0.209-0.041c-0.024-0.019-0.053-0.051-0.086-0.096
			c0.015-0.137-0.006-0.277-0.063-0.423c-0.024,0.027-0.051,0.055-0.077,0.082c-0.01,0.176-0.053,0.35-0.133,0.522
			c-0.091-0.009-0.171-0.035-0.241-0.077c-0.019-0.013-0.035-0.022-0.05-0.032c-0.018,0.016-0.035,0.032-0.05,0.051
			c-0.006,0.373-0.044,0.666-0.114,0.877l-0.159-0.021c-0.045-0.067-0.099-0.202-0.16-0.405c-0.005-0.019-0.012-0.034-0.018-0.05
			c-0.04,0.033-0.079,0.068-0.118,0.104v0.168c0.066,0.148,0.082,0.331,0.045,0.546h-0.159c-0.048-0.115-0.127-0.261-0.236-0.437
			c-0.124,0.091-0.246,0.177-0.364,0.259c-0.009,0.006-0.02,0.015-0.032,0.023c-0.021,0.015-0.044,0.029-0.068,0.045
			c-1.064,0.695-1.597,1.049-1.597,1.061c0,0.024-0.062,0.479-0.187,1.365c0.033,0.033,0.386,0.504,1.06,1.414
			c0.674,0.906,1.482,2.794,2.425,5.66c0.297,0.897,0.547,1.725,0.75,2.483c0.009,0.015,0.017,0.03,0.023,0.046
			c0.07,0.139,0.141,0.295,0.213,0.469c0.121,0.281,0.28,0.67,0.474,1.164c0.03,0.066,0.059,0.137,0.086,0.209h-0.068
			c-0.024-0.063-0.053-0.133-0.086-0.209c-0.118-0.281-0.277-0.631-0.478-1.046c0.045,0.173,0.086,0.344,0.124,0.514
			c0.076,0.161,0.148,0.339,0.218,0.532c0.036,0.1,0.073,0.205,0.109,0.314c0.364,1.095,0.545,2.061,0.545,2.898
			c0,0.1-0.001,0.152-0.003,0.158c0,0.004-0.002,0.006-0.005,0.01c0.021,0.13,0.042,0.265,0.063,0.404
			c0.192,0.549,0.325,1.086,0.401,1.61h-0.068c-0.009-0.032-0.074-0.147-0.195-0.341c-0.04-0.061-0.073-0.113-0.1-0.159
			c0.182,0.564,0.273,0.983,0.273,1.26c0,0.094-0.002,0.144-0.005,0.146c-0.006,0-0.02,0.002-0.041,0.006
			c-0.088-0.602-0.273-1.289-0.555-2.062c-0.015-0.042-0.03-0.083-0.045-0.122c0.015,0.154,0.032,0.324,0.05,0.51
			c0.054,0.134,0.106,0.274,0.154,0.423c0.118,0.364,0.266,0.947,0.442,1.752c-0.134-0.246-0.285-0.597-0.456-1.051
			c0.003,0.021,0.006,0.043,0.01,0.067c0.036,0.106,0.072,0.222,0.109,0.346c0.091,0.321,0.203,0.759,0.336,1.311
			c0.33,0.964,0.797,2.011,1.401,3.14c0.373,0.693,0.74,1.344,1.102,1.951c0.193,0.324,0.385,0.637,0.572,0.938l-0.009,0.081
			c0.131,0.171,0.243,0.436,0.337,0.796c0.137,0.508,0.077,1.038-0.177,1.593c-0.174,0.383-0.415,0.686-0.724,0.909
			c-0.226,0.161-0.486,0.283-0.783,0.365c-0.637,0.17-1.378,0.051-2.225-0.355c-0.403-0.006-0.896-0.018-1.479-0.037
			c-1.543-0.051-2.564,0.008-3.061,0.178l-1.92,0.523c-0.076,0.127-0.164,0.301-0.264,0.52c-0.112,0.172-0.292,0.314-0.542,0.427
			l-1.192,0.328c-1.355,0.445-2.488,0.519-3.398,0.218c-0.009,0-0.02-0.002-0.032-0.009c-0.867,0.555-1.804,0.982-2.807,1.282
			c-0.012,0.006-0.022,0.019-0.032,0.037c-0.2,0.312-0.387,0.646-0.56,1.001c-0.142,0.306-0.364,0.481-0.664,0.527
			c-0.052-0.006-0.107-0.006-0.168,0c-0.27,0.361-0.603,0.491-0.997,0.392c-0.042,0-0.08-0.016-0.11-0.045
			c-0.275-0.355-0.272-0.724,0.009-1.106c0.106-0.143,0.192-0.296,0.26-0.459c0.164-0.462,0.405-0.883,0.724-1.265
			c0.106-0.143,0.233-0.255,0.382-0.337c0.525-0.354,1.046-0.705,1.565-1.051c0.294-0.185,0.573-0.381,0.837-0.587
			c0.042-0.03,0.086-0.061,0.133-0.091l0.013-0.087c0.097-0.117,0.317-0.221,0.66-0.31h0.004c0.082-0.042,0.164-0.08,0.246-0.113
			c-0.015-0.019-0.023-0.036-0.023-0.055l0.023-0.136c0.03-0.007,0.128-0.034,0.296-0.082c0.036-0.013,0.077-0.025,0.123-0.037
			c0.258-0.075,0.414-0.127,0.468-0.154l-0.045-0.022c-0.115-0.027-0.185-0.077-0.209-0.15c-0.009-0.076-0.023-0.127-0.041-0.154
			l0.023-0.173c0.133-0.016,0.546-0.053,1.238-0.109c0.345-0.031,0.583-0.053,0.713-0.068c0.034-0.019,0.067-0.037,0.101-0.055
			c-0.055-0.105-0.081-0.188-0.078-0.246c0.018-0.039,0.028-0.062,0.028-0.067l0.646-0.027c0.133-0.086,0.26-0.162,0.378-0.233
			c-0.137-0.121-0.213-0.186-0.228-0.195c0.25-0.015,0.483-0.031,0.701-0.049c0.395-0.176,1.197-0.426,2.407-0.752
			c0.012-0.012,0.02-0.021,0.023-0.027c0.728-0.736,1.04-1.645,0.938-2.725c-0.028,0.019-0.057,0.035-0.087,0.051
			c-0.03-0.016-0.053-0.038-0.068-0.068c-0.094-0.392-0.34-1.078-0.737-2.061c-0.227-0.567-0.401-1.058-0.523-1.47
			c-0.057-0.097-0.116-0.193-0.173-0.286v0.1l-0.136,0.023c-0.067-0.134-0.106-0.217-0.118-0.247
			c-0.048-0.106-0.077-0.198-0.086-0.276c-0.009,0.023-0.018,0.056-0.027,0.095c-0.012,0.027-0.033,0.041-0.063,0.041
			c-0.098-0.106-0.173-0.244-0.228-0.413c-0.069-0.216-0.115-0.344-0.136-0.383c-0.015,0.045-0.027,0.097-0.037,0.154
			c-0.015,0.055-0.056,0.125-0.123,0.21c-0.067-0.161-0.228-0.567-0.482-1.22c-0.216-0.555-0.374-0.945-0.474-1.169
			c0,0.046,0.003,0.126,0.009,0.241c0.003,0.103,0,0.182-0.009,0.236c-0.345-0.445-0.701-1.143-1.064-2.088
			c-0.328-0.844-0.574-1.648-0.737-2.416c-0.024-0.066-0.05-0.131-0.077-0.191c-0.027,0.013-0.059,0.037-0.096,0.073
			c-0.045,0.042-0.085,0.06-0.118,0.05c-0.024-0.104-0.047-0.203-0.068-0.3c-0.131-0.595-0.239-1.093-0.324-1.492
			c-0.327-0.935-0.529-1.544-0.604-1.829c-0.343-1.28-0.785-3.041-1.324-5.282c-0.112-0.731-0.13-1.347-0.054-1.847
			c-0.055-0.112-0.086-0.189-0.091-0.232c-0.033-0.124-0.145-0.256-0.333-0.396c-0.23-0.167-0.358-0.271-0.382-0.31
			c-0.03-0.049-0.105-0.185-0.223-0.41c-0.112-0.224-0.17-0.35-0.173-0.377c-0.03-0.111-0.048-0.218-0.055-0.318
			c-0.024-0.049-0.039-0.092-0.045-0.127c0-0.007-0.003-0.012-0.009-0.014c-0.012-0.049-0.024-0.098-0.036-0.146
			c-0.009-0.045-0.014-0.092-0.014-0.141c0-0.094,0.008-0.182,0.023-0.264c0.018-0.094,0.048-0.18,0.091-0.255
			c0.039-0.091,0.086-0.177,0.141-0.259c0.037-0.046,0.071-0.09,0.105-0.133c-0.738-2.917,0.077-5.909,2.442-8.976
			c2.363-3.066,4.33-5.923,5.9-8.571c1.568-2.653,2.659-5.576,3.271-8.767c0.088-0.439,0.179-0.869,0.273-1.287
			c0.662-2.866,2.433-3.699,5.314-2.497C105.229,113.796,107.205,115.2,108.843,117.041L108.843,117.041z"/>
	</g>
	<g id="Layer_5_5_">
		<path id="path14_4_" fill="#010101" d="M116,175.442c0.002,0.002,0.006,0.004,0.009,0.004c0.021-0.006,0.04-0.012,0.06-0.018
			c-0.04-0.004-0.08-0.006-0.119-0.01C115.968,175.425,115.984,175.433,116,175.442L116,175.442z M116.269,169.113
			c0.002,0.003,0.005-0.04,0.005-0.128c0-0.002,0-0.006,0-0.008c-0.094-0.128-0.189-0.252-0.283-0.374
			c0.064,0.194,0.127,0.382,0.191,0.564l0.045-0.046C116.236,169.107,116.25,169.104,116.269,169.113z M123.884,169.556
			c0.034,0.004,0.059,0.004,0.077,0c-0.027-0.029-0.068-0.058-0.123-0.087C123.854,169.495,123.868,169.524,123.884,169.556z
			 M114.021,166.11v-0.022c-0.007-0.067-0.014-0.134-0.02-0.2c-0.057-0.082-0.112-0.159-0.163-0.232
			C113.908,165.856,113.969,166.007,114.021,166.11z M112.928,164.404c-0.017-0.063-0.035-0.126-0.054-0.187
			c-0.024-0.042-0.048-0.082-0.068-0.117c0.055,0.257,0.097,0.51,0.122,0.76V164.404L112.928,164.404z M110.018,159.72
			c-0.006-0.09-0.019-0.184-0.037-0.287c-0.051-0.095-0.104-0.188-0.158-0.283C109.895,159.38,109.959,159.569,110.018,159.72z
			 M109.357,158.694l0.022-0.022v-0.336c-0.112-0.206-0.229-0.419-0.35-0.638C109.212,158.227,109.32,158.559,109.357,158.694z
			 M122.887,166.598c0.008,0.009,0.013,0.019,0.019,0.027c0.116,0.202,0.218,0.395,0.306,0.573c0.011,0.016,0.025,0.031,0.041,0.05
			c0.082,0.106,0.157,0.208,0.227,0.305c-0.003-0.015-0.006-0.028-0.009-0.041c-0.151-0.306-0.355-0.644-0.609-1.01
			C122.869,166.535,122.878,166.567,122.887,166.598L122.887,166.598z M122.482,165.278v0.027c0.07,0.222,0.137,0.436,0.2,0.641
			c0.021,0.021,0.041,0.045,0.06,0.068c0.148,0.184,0.283,0.354,0.404,0.515c-0.061-0.143-0.131-0.292-0.209-0.446
			c0,0.043-0.002,0.066-0.005,0.068c-0.007,0-0.021,0.002-0.041,0.004c-0.055-0.176-0.142-0.381-0.259-0.617
			C122.581,165.446,122.531,165.36,122.482,165.278L122.482,165.278z M114.84,167.757v-0.522c-0.055-0.114-0.115-0.261-0.183-0.437
			c-0.088-0.121-0.175-0.24-0.259-0.355c0.018,0.141,0.059,0.307,0.122,0.502C114.592,167.155,114.697,167.427,114.84,167.757
			L114.84,167.757z M115.431,139.747l-0.022-0.068c-0.021-0.039-0.043-0.078-0.068-0.118c0,0.045,0,0.085,0,0.118
			C115.37,139.703,115.4,139.726,115.431,139.747z M113.247,149.073c0.112,0.151,0.337,0.424,0.673,0.818
			c-0.07-0.169-0.139-0.336-0.209-0.5c-0.154-0.369-0.308-0.727-0.46-1.068c-0.054,0.123-0.108,0.248-0.163,0.373L113.247,149.073z
			 M114.33,144.601c0,0.014-0.002,0.025-0.005,0.037c0.021,0.018,0.041,0.033,0.06,0.045
			C114.375,144.668,114.357,144.641,114.33,144.601z M114.545,133.082c-0.007-0.009-0.017-0.023-0.031-0.043
			c0.001,0.003,0,0.005-0.002,0.007C114.523,133.058,114.534,133.07,114.545,133.082z M114.625,131.436
			c-0.002,0.036-0.005,0.074-0.009,0.113c0.231,0.349,0.366,0.541,0.405,0.578C114.889,131.914,114.756,131.684,114.625,131.436z
			 M114.748,131.171c-0.023-0.078-0.051-0.158-0.081-0.236c-0.003,0.03-0.006,0.059-0.01,0.086c0.024,0.059,0.05,0.119,0.073,0.182
			c0.006,0.004,0.012,0.008,0.018,0.016V131.171z M114.722,130.267c-0.011,0.091-0.017,0.182-0.022,0.272
			c0.075,0.112,0.152,0.209,0.231,0.291C114.852,130.624,114.782,130.436,114.722,130.267z M114.871,129.997
			c-0.002-0.15-0.033-0.322-0.09-0.514c-0.004,0.066-0.008,0.133-0.014,0.201C114.807,129.79,114.842,129.895,114.871,129.997z
			 M115.112,126.963v-0.046c-0.03-0.09-0.061-0.158-0.091-0.204v-0.022c-0.012,0.027-0.011,0.066,0.004,0.117
			C115.041,126.868,115.07,126.921,115.112,126.963z M109.203,112.724c0.012,0.009,0.022,0.02,0.031,0.031
			c0.459,0.477,0.916,0.988,1.373,1.533c0.289,0.338,0.577,0.689,0.865,1.056c1.793,2.269,2.812,4.019,3.057,5.251
			c0.09,0.142,0.168,0.311,0.238,0.504c0.127,0.355,0.21,0.738,0.25,1.151c0.163,0.663,0.219,1.345,0.168,2.042
			c-0.055,0.719-0.109,1.436-0.164,2.148c0.03,0.075,0.061,0.158,0.091,0.25c0.121,0.339,0.183,0.578,0.183,0.714
			c0,0.095-0.025,0.165-0.073,0.214c-0.027,0.027-0.063,0.059-0.109,0.096c-0.058-0.027-0.116-0.079-0.177-0.154
			c-0.01,0.1-0.018,0.199-0.023,0.299c0.016,0.043,0.033,0.088,0.055,0.133c0.112,0.255,0.168,0.428,0.168,0.519
			c0,0.118-0.014,0.206-0.041,0.265c-0.029,0.063-0.084,0.111-0.163,0.145c-0.015-0.023-0.046-0.075-0.091-0.154
			c-0.004,0.033-0.006,0.068-0.01,0.105c0.092,0.172,0.155,0.317,0.191,0.436h-0.068c0-0.003-0.002-0.004-0.004-0.004l-0.019,0.117
			h-0.068c-0.006-0.008-0.013-0.016-0.019-0.021c0.101,0.318,0.16,0.591,0.178,0.818h-0.086c0.062,0.264,0.092,0.507,0.086,0.729
			c-0.104,0.018-0.193-0.013-0.273-0.092v0.046c0.021,0.069,0.062,0.183,0.119,0.341c0.042,0.141,0.063,0.254,0.063,0.342h-0.05
			c0.097,0.239,0.204,0.512,0.322,0.818c-0.127-0.084-0.246-0.191-0.359-0.322c0.115,0.26,0.235,0.55,0.359,0.868
			c-0.212-0.261-0.418-0.595-0.618-1.001c-0.006,0.063-0.013,0.129-0.019,0.196c0.155,0.297,0.307,0.626,0.455,0.987h-0.068
			c-0.049-0.104-0.115-0.232-0.199-0.387c0.108,0.221,0.197,0.441,0.268,0.659l-0.091-0.022c-0.112-0.23-0.243-0.484-0.392-0.765
			c0,0.021-0.001,0.042-0.004,0.063c0.225,0.371,0.363,0.697,0.418,0.982l-0.018,0.078c0.188,0.33,0.365,0.741,0.531,1.232
			c0.135,0.395,0.25,0.806,0.346,1.233c0.08,0.343,0.119,0.554,0.119,0.632c0,0.1-0.002,0.155-0.01,0.164
			c-0.006,0.01-0.025,0.022-0.059,0.041l-0.159-0.022c-0.063-0.134-0.116-0.247-0.159-0.341c-0.085-0.183-0.152-0.289-0.205-0.318
			l-0.023,0.068c0.019,0.1,0.088,0.237,0.211,0.413c0.139,0.21,0.213,0.321,0.223,0.337l-0.046,0.045
			c-0.052-0.057-0.161-0.2-0.327-0.428c-0.064-0.088-0.117-0.16-0.16-0.218c0.062,0.142,0.117,0.289,0.169,0.441
			c0.081,0.167,0.149,0.299,0.204,0.396l-0.021,0.104h-0.01c0.07,0.203,0.117,0.354,0.141,0.45c0.033,0.053,0.065,0.105,0.096,0.16
			c0.105,0.227,0.16,0.518,0.16,0.869c0,0.081-0.137,0.243-0.41,0.486c0,0.079,0.018,0.179,0.055,0.301
			c0.039,0.121,0.059,0.215,0.059,0.281c-0.078-0.055-0.185-0.156-0.318-0.305v0.014c0.146,0.397,0.229,0.631,0.25,0.701
			c-0.023,0.015-0.031,0.028-0.021,0.041c-0.007,0.002-0.057,0.004-0.146,0.004c-0.045,0-0.156-0.091-0.332-0.272
			c0.016,0.021,0.051,0.089,0.104,0.204c0.04,0.082,0.088,0.15,0.146,0.205c-0.029,0.045-0.09,0.076-0.182,0.091
			c-0.027-0.019-0.063-0.056-0.109-0.114c-0.058-0.069-0.09-0.107-0.096-0.113l-0.022,0.068c0.021,0.07,0.074,0.173,0.159,0.309
			c0.082,0.137,0.135,0.238,0.16,0.306v0.478l-0.092,0.045c-0.158-0.145-0.249-0.229-0.273-0.25v0.046
			c0.076,0.228,0.092,0.387,0.046,0.478h-0.091l-0.113-0.205l-0.023,0.045c0.03,0.092,0.082,0.267,0.154,0.523
			c0.061,0.207,0.107,0.351,0.141,0.434l-0.113,0.045c-0.039-0.016-0.078-0.04-0.117-0.072c-0.027-0.027-0.049-0.042-0.064-0.042
			c0.027,0.085,0.102,0.251,0.223,0.496c0.094,0.188,0.141,0.329,0.141,0.423c0,0.095-0.015,0.137-0.045,0.128
			c-0.016-0.006-0.03-0.021-0.045-0.046c-0.194-0.085-0.352-0.214-0.473-0.387c-0.013,0.125-0.026,0.248-0.041,0.373
			c0.078,0.201,0.157,0.411,0.236,0.633c0.088,0.252,0.248,0.734,0.482,1.451l-0.115,0.045c-0.078-0.084-0.242-0.318-0.49-0.7
			c-0.091-0.14-0.184-0.259-0.277-0.359c-0.016,0.088-0.031,0.177-0.051,0.269c0.062,0.117,0.119,0.236,0.174,0.355
			c0.072,0.163,0.189,0.43,0.35,0.799l-0.023,0.138c-0.023,0-0.072-0.022-0.145-0.067c-0.072-0.047-0.115-0.07-0.127-0.07
			c0.078,0.24,0.108,0.445,0.09,0.615c-0.172-0.07-0.303-0.189-0.391-0.359c-0.07-0.176-0.121-0.291-0.154-0.346v0.046
			c0.015,0.069,0.089,0.31,0.223,0.718c0.123,0.404,0.187,0.664,0.187,0.783c0,0.094-0.018,0.147-0.05,0.16
			c-0.021,0.008-0.065,0.016-0.133,0.021c-0.14-0.125-0.327-0.346-0.563-0.664c-0.024,0.079-0.052,0.158-0.082,0.236
			c0.038,0.085,0.077,0.172,0.114,0.26c0.117,0.295,0.287,0.736,0.51,1.328c-0.016,0.046-0.068,0.076-0.16,0.092
			c-0.006-0.007-0.246-0.344-0.719-1.011c-0.012,0.03-0.024,0.062-0.036,0.096c0.148,0.345,0.318,0.749,0.509,1.21
			c0.098,0.23,0.199,0.477,0.306,0.738c0.007,0.008,0.013,0.016,0.019,0.021c0.469,0.531,1.524,1.738,3.166,3.621
			c1.639,1.875,3.1,4.879,4.386,9.014c0.179,0.575,0.345,1.113,0.5,1.614c0.058,0.134,0.116,0.276,0.173,0.428
			c0.152,0.242,0.32,0.534,0.505,0.873c0.213,0.386,0.378,0.7,0.497,0.946c0.002,0.459,0.127,0.887,0.372,1.283
			c0.154,0.242,0.241,0.383,0.26,0.423c0.078,0.158,0.118,0.315,0.118,0.474c-0.07-0.106-0.161-0.24-0.273-0.4
			c-0.024-0.016-0.047-0.033-0.068-0.055c-0.003-0.021-0.008-0.041-0.014-0.06c-0.072-0.106-0.156-0.223-0.25-0.351
			c0.039,0.125,0.064,0.24,0.072,0.346c0.23,0.229,0.379,0.363,0.442,0.406c-0.136-0.055-0.28-0.145-0.433-0.27
			c0,0.119-0.006,0.197-0.018,0.237c-0.004,0.009-0.008,0.02-0.014,0.032c0.121,0.369,0.199,0.593,0.231,0.668
			c0.013,0.024,0.024,0.051,0.036,0.078c0.08,0.042,0.152,0.083,0.219,0.122c0.037,0.062,0.08,0.129,0.132,0.204
			c0.103,0.152,0.204,0.262,0.305,0.328c-0.069,0.013-0.151,0.023-0.245,0.032c0.006,0.009,0.012,0.019,0.018,0.027
			c0.073,0.073,0.117,0.132,0.133,0.177c-0.007-0.002-0.013-0.006-0.02-0.008c0.016,0.021,0.031,0.043,0.046,0.067
			c0.063,0.058,0.13,0.121,0.2,0.19l-0.031,0.046c0.182,0.246,0.389,0.518,0.618,0.814c0.276,0.353,0.518,0.671,0.724,0.956
			c0.254,0.088,0.514,0.16,0.777,0.219c0.262,0.061,0.453,0.137,0.574,0.231c0.16,0.146,0.322,0.411,0.486,0.796
			c0.219,0.477,0.242,1.004,0.072,1.584c-0.188,0.7-0.612,1.197-1.273,1.492c-0.601,0.272-1.353,0.278-2.256,0.018
			c-0.395,0.049-0.881,0.111-1.461,0.187c-1.537,0.188-2.537,0.405-2.998,0.655l-2.783,1.414c-0.102,0.07-0.223,0.132-0.365,0.187
			l-1.219,0.196c-0.343,0.076-0.667,0.129-0.975,0.159c-0.163,0.115-0.404,0.173-0.723,0.173c-0.279,0-0.497-0.047-0.654-0.141
			c-0.42-0.07-0.791-0.189-1.115-0.359c-0.137-0.066-0.255-0.139-0.354-0.215c-0.188,0.052-0.437,0.096-0.741,0.132
			c-0.225,0.024-0.887,0.013-1.984-0.036c-0.015,0-0.034,0-0.059,0c-0.105,0.073-0.24,0.109-0.4,0.109
			c-0.158,0-0.302-0.057-0.432-0.168c-0.131,0.027-0.35,0.105-0.656,0.236c-0.482,0.2-0.812,0.283-0.991,0.25
			c-0.058,0.006-0.115-0.023-0.173-0.091c-0.086-0.058-0.134-0.093-0.146-0.104c-0.04-0.006-0.131-0.003-0.273,0.01
			c-0.14,0.023-0.229,0.029-0.272,0.018c-0.27-0.055-0.438-0.164-0.506-0.328c-0.036-0.072-0.042-0.182-0.018-0.327
			c0.03-0.212,0.116-0.353,0.26-0.419c0.3-0.105,0.615-0.244,0.945-0.414c0.201-0.137,0.424-0.261,0.669-0.373
			c0.491-0.215,0.884-0.3,1.179-0.254l0.469,0.113l0.551-0.023c0.746-0.236,1.412-0.396,1.996-0.477
			c0.413-0.072,0.761-0.072,1.043,0c0.703-0.174,1.347-0.342,1.928-0.506v-0.09c0.307-0.113,0.596-0.223,0.869-0.328
			c0.2-0.104,0.385-0.193,0.551-0.269c-0.061-0.036-0.114-0.067-0.16-0.091c-0.011-0.006-0.023-0.014-0.035-0.023
			c0.021-0.002,0.041-0.008,0.059-0.014c0.062,0.033,0.122,0.068,0.183,0.105c0.036-0.016,0.071-0.031,0.104-0.046
			c-0.045-0.036-0.085-0.068-0.118-0.095c0.03-0.01,0.062-0.02,0.095-0.027c0.037,0.023,0.076,0.051,0.119,0.081
			c0.036-0.019,0.069-0.033,0.1-0.046c-0.058-0.015-0.129-0.027-0.213-0.035c0.166-0.049,0.342-0.106,0.526-0.174
			c0.028-0.009,0.054-0.018,0.078-0.027c0.049,0,0.095,0.002,0.136,0.004c-0.023-0.009-0.049-0.018-0.076-0.025
			c0.123-0.046,0.236-0.086,0.336-0.119c0.104,0.018,0.214,0.039,0.332,0.064c0.139-0.031,0.291-0.061,0.455-0.088
			c-0.024-0.006-0.049-0.012-0.072-0.018c-0.125-0.024-0.245-0.051-0.359-0.078c0.154-0.045,0.267-0.07,0.336-0.076
			c0-0.01,0.008-0.029,0.023-0.06c0.166,0.027,0.326,0.058,0.482,0.091c0.248-0.115,0.516-0.234,0.805-0.359
			c0.148-0.1,0.288-0.194,0.418-0.282c0.101-0.143,0.174-0.244,0.219-0.305c0.018-0.015,0.03-0.028,0.036-0.041
			c0.112-0.19,0.104-0.19-0.027,0c0.036-0.382-0.233-1.038-0.81-1.97c-0.076-0.094-0.125-0.15-0.146-0.168v0.305
			c-0.027-0.033-0.058-0.068-0.091-0.104v-0.405c-0.01-0.016-0.018-0.03-0.027-0.045c-0.055-0.082-0.111-0.166-0.169-0.25
			c-0.03-0.049-0.062-0.096-0.095-0.142c0.016,0.101,0.034,0.247,0.059,0.44c0.01,0.07,0.021,0.133,0.036,0.188
			c-0.045-0.049-0.088-0.094-0.128-0.137c-0.006-0.049-0.01-0.099-0.014-0.15c-0.018-0.367-0.117-0.615-0.299-0.746
			c-0.04,0.076-0.062,0.113-0.068,0.113c-0.027,0.104-0.035,0.223-0.023,0.36c-0.029-0.034-0.059-0.063-0.086-0.091l0.023-0.1
			c0.026-0.138,0.04-0.254,0.04-0.352c0-0.088-0.025-0.182-0.077-0.281c-0.058-0.079-0.117-0.16-0.178-0.242
			c-0.006,0.146-0.002,0.334,0.01,0.564c0.003,0.061,0.008,0.133,0.014,0.219c-0.086-0.121-0.166-0.219-0.241-0.291
			c-0.019-0.154-0.028-0.281-0.028-0.377c-0.039,0.006-0.076,0.01-0.112,0.014c0.002-0.01,0.007-0.021,0.013-0.033
			c0.01-0.018,0.02-0.026,0.031-0.026c0.007,0.009,0.014,0.009,0.023,0c0.016-0.019,0.022-0.074,0.022-0.169
			c0-0.088-0.013-0.191-0.036-0.309c-0.021-0.031-0.043-0.06-0.063-0.087c-0.124-0.163-0.245-0.325-0.364-0.483
			c0.006,0.115,0.018,0.219,0.032,0.31c0.058,0.374,0.168,0.639,0.332,0.798c-0.258,0.012-0.405-0.102-0.442-0.338
			c0.013-0.346-0.004-0.58-0.049-0.701c-0.477-0.143-0.787-0.463-0.933-0.964c-0.046-0.151-0.088-0.379-0.128-0.683
			c0-0.006-0.002-0.011-0.004-0.014c-0.023-0.033-0.049-0.066-0.073-0.1c0.003,0.023,0.009,0.051,0.014,0.082
			c0.058,0.334,0.091,0.579,0.101,0.736l-0.022,0.1h-0.16c-0.054-0.193-0.094-0.34-0.118-0.44c-0.043-0.182-0.063-0.331-0.063-0.446
			l-0.022,0.046c0,0.091-0.006,0.155-0.019,0.195c-0.019,0.062-0.058,0.102-0.118,0.122l-0.047-0.021
			c-0.196-0.428-0.734-1.295-1.613-2.602c-0.492-0.732-0.848-1.338-1.069-1.82c-0.108-0.246-0.185-0.458-0.228-0.638
			c0,0.013,0.006,0.078,0.018,0.196c0.006,0.07,0,0.118-0.018,0.146l-0.137,0.022c-0.304-0.691-0.635-1.506-0.992-2.443
			c-0.015-0.039-0.029-0.078-0.045-0.117c-0.166-0.299-0.35-0.627-0.551-0.988c0.058,0.289,0.086,0.459,0.086,0.51
			c0,0.115-0.006,0.188-0.018,0.215s-0.052,0.051-0.118,0.072l-0.046-0.022c-0.191-0.553-0.303-0.883-0.336-0.993
			c-0.102-0.339-0.16-0.637-0.182-0.896c-0.01-0.021-0.02-0.04-0.028-0.055c-0.003,0.183-0.018,0.307-0.046,0.374
			c-0.185-0.268-0.551-1.033-1.1-2.299c-0.076-0.172-0.147-0.334-0.215-0.486c-0.051-0.079-0.107-0.158-0.168-0.236
			c-0.75-1.031-1.339-1.912-1.77-2.643c-0.194-0.338-0.451-0.891-0.77-1.661c-0.074-0.104-0.146-0.202-0.214-0.296
			c-0.006-0.009-0.012-0.018-0.018-0.023c-0.625-0.648-0.938-1.285-0.938-1.91c0-0.091,0.006-0.174,0.019-0.25l0.036-0.187
			c-1.299-1.302-2.118-3.122-2.462-5.464c-0.333-2.342-0.596-4.827-0.786-7.457c-0.183-2.629-0.441-5.183-0.779-7.66
			c-0.282-2.105-0.944-4.055-1.988-5.847c-0.419-0.725-0.817-1.465-1.197-2.22c-0.612-1.244-0.385-2.311,0.683-3.199
			c1.11-0.931,2.39-1.555,3.84-1.873c0.46-0.107,0.922-0.186,1.382-0.236c0.203-0.155,0.438-0.317,0.701-0.488
			C104.797,113.716,106.637,113.142,109.203,112.724L109.203,112.724z"/>
	</g>
	<g id="Layer_7_5_">
		<path id="path17_6_" fill="#010101" d="M111.195,82.542c0.104,0.137,0.198,0.273,0.287,0.41c-0.18-0.367-0.518-0.799-1.015-1.297
			c-0.273-0.275-0.562-0.538-0.864-0.787c0.012,0.016,0.024,0.031,0.035,0.046c0.109,0.154,0.219,0.31,0.328,0.464
			c0.049,0.043,0.094,0.082,0.137,0.119c0.021-0.004,0.044-0.008,0.068-0.014C110.512,81.729,110.853,82.081,111.195,82.542z
			 M111.582,82.961l-0.063,0.042c0.173,0.272,0.311,0.533,0.413,0.781l-0.067,0.047c-0.082-0.088-0.365-0.459-0.851-1.111
			c-0.207-0.272-0.414-0.514-0.624-0.723c0.063,0.09,0.126,0.18,0.188,0.269c0.13,0.134,0.272,0.294,0.427,0.481
			c0.282,0.338,0.523,0.66,0.724,0.969c-0.112-0.1-0.222-0.204-0.327-0.313c0.239,0.389,0.406,0.646,0.5,0.769
			c-0.085-0.078-0.184-0.184-0.295-0.318c1.03,1.647,1.92,3.26,2.67,4.836c1.195,2.496,2.625,5.186,4.29,8.066
			c1.269,2.188,2.266,4.224,2.993,6.109c0.109,0.121,0.211,0.24,0.305,0.355l-0.045,0.041c-0.045-0.061-0.109-0.132-0.191-0.213
			c0.088,0.221,0.17,0.441,0.246,0.663c0.069,0.091,0.124,0.171,0.163,0.237l-0.046,0.045c-0.006-0.006-0.016-0.017-0.031-0.031
			c0.027,0.082,0.055,0.164,0.082,0.25c0.382,0.494,0.614,0.911,0.696,1.251l-0.092-0.022c-0.063-0.092-0.185-0.25-0.364-0.474
			c0.061,0.188,0.117,0.37,0.169,0.546c0.367,0.363,0.549,0.613,0.546,0.75c0,0.102-0.003,0.156-0.01,0.164
			c-0.018,0.007-0.037,0.02-0.059,0.041c-0.069-0.075-0.16-0.172-0.272-0.287c0.433,1.438,0.685,2.413,0.755,2.926
			c-0.009,0.127-0.025,0.246-0.05,0.355c0.485,1.076,0.676,1.721,0.573,1.934c-0.101,0.199,0.064,0.982,0.496,2.348
			c0.16,0.19,0.277,0.324,0.35,0.4c-0.105-0.088-0.205-0.17-0.295-0.246c0.002,0.01,0.006,0.018,0.009,0.027
			c0.048,0.151,0.095,0.305,0.141,0.459c0.286,0.322,0.479,0.608,0.583,0.859c-0.082-0.072-0.235-0.215-0.46-0.427
			c0.101,0.36,0.188,0.728,0.265,1.101c0.188,0.221,0.353,0.441,0.495,0.66c0.176,0.27,0.263,0.457,0.26,0.564
			c-0.003,0.1-0.024,0.176-0.064,0.227c-0.021,0.027-0.062,0.057-0.122,0.087l-0.068-0.046c0-0.267-0.129-0.564-0.387-0.892
			c0.021,0.109,0.039,0.224,0.055,0.341c0.104,0.14,0.154,0.227,0.154,0.26c0,0.094-0.008,0.14-0.022,0.137
			c-0.009,0-0.017-0.011-0.022-0.031c-0.019-0.004-0.039-0.01-0.06-0.019c0.009,0.069,0.019,0.14,0.027,0.209
			c0.468,0.435,0.699,0.726,0.696,0.874c-0.004,0.088-0.018,0.148-0.041,0.182c-0.021,0.029-0.033,0.049-0.033,0.059
			c-0.139-0.131-0.283-0.264-0.432-0.4c0.198,0.41,0.383,0.84,0.556,1.292c-0.194-0.103-0.402-0.31-0.624-0.618
			c0.01,0.14,0.019,0.288,0.027,0.445c0.268,0.528,0.401,0.845,0.401,0.951c-0.004,0.094-0.013,0.139-0.028,0.137
			c-0.009,0-0.014-0.012-0.018-0.032c-0.021-0.024-0.046-0.05-0.073-0.077c0.121,0.215,0.263,0.471,0.423,0.764h-0.067
			c-0.082-0.1-0.241-0.334-0.478-0.704c0.002,0.021,0.006,0.04,0.008,0.058h-0.067c-0.009-0.023-0.021-0.058-0.032-0.104
			c0,0.057,0.004,0.115,0.01,0.172c0.111,0.204,0.347,0.641,0.705,1.311c-0.07-0.051-0.174-0.156-0.314-0.312
			c0.07,0.145,0.141,0.301,0.21,0.467c0.039,0.074,0.08,0.154,0.122,0.242c0.102,0.127,0.152,0.192,0.154,0.195l-0.045,0.046
			c-0.291-0.233-0.546-0.501-0.764-0.801c0.006,0.14,0.014,0.282,0.021,0.427c0.007,0.01,0.014,0.021,0.023,0.032
			c0.203,0.304,0.357,0.564,0.46,0.782c0.3,0.393,0.491,0.703,0.573,0.933c0.112,0.091,0.193,0.152,0.246,0.183
			c-0.067-0.036-0.145-0.082-0.232-0.137c0.024,0.07,0.035,0.133,0.031,0.188c0,0.094-0.007,0.139-0.021,0.136
			c-0.01,0-0.018-0.011-0.023-0.032c-0.066-0.057-0.142-0.135-0.223-0.231l-0.114,0.046c-0.278-0.338-0.481-0.609-0.61-0.814
			c-0.014-0.012-0.031-0.025-0.049-0.041c0.006,0.105,0.011,0.212,0.013,0.318c0.021,0.023,0.042,0.049,0.06,0.072
			c0.295,0.398,0.488,0.643,0.582,0.737c-0.091,0-0.188-0.028-0.291-0.087c0.112,0.174,0.191,0.33,0.236,0.473
			c-0.042-0.023-0.084-0.049-0.127-0.076l-0.01,0.004c-0.015-0.012-0.027-0.025-0.04-0.041c-0.013-0.009-0.026-0.017-0.041-0.022
			c0.151,0.142,0.253,0.249,0.305,0.319h-0.091c-0.009-0.013-0.186-0.157-0.527-0.434c0.005,0.064,0.009,0.128,0.009,0.191
			c0.081,0.063,0.151,0.125,0.209,0.183c0.112,0.019,0.216,0.038,0.31,0.06c0.51,0.1,0.791,0.164,0.842,0.195l-0.209,0.131
			c-0.453-0.062-0.828-0.117-1.129-0.163c0.006,0.101,0.013,0.202,0.019,0.305c0.126-0.019,0.258-0.038,0.392-0.06
			c0.133-0.023,0.219-0.025,0.254-0.004c0.036,0.021,0.054,0.088,0.051,0.2c0,0.095-0.016,0.137-0.045,0.127
			c-0.017-0.009-0.031-0.025-0.046-0.05c-0.031-0.006-0.142,0.01-0.333,0.046c0.059,0.058,0.121,0.118,0.191,0.182
			c-0.078-0.03-0.176-0.083-0.291-0.159h-0.005c-0.048,0.012-0.095,0.021-0.141,0.027c0.251,0.146,0.421,0.246,0.505,0.301
			c0.33,0.094,0.496,0.184,0.496,0.271c-0.004,0.09-0.018,0.144-0.041,0.165c-0.021,0.017-0.032,0.032-0.032,0.041
			c-0.052,0.006-0.097,0.012-0.136,0.019c-0.121,0.211-0.316,0.465-0.587,0.76c-0.046,0.051-0.093,0.103-0.142,0.154
			c0.006,0.117,0.011,0.238,0.014,0.359c0.066-0.055,0.129-0.115,0.187-0.183c0.118-0.148,0.204-0.259,0.26-0.331
			c0.101-0.123,0.194-0.217,0.282-0.283l0.068,0.027c-0.004,0.1-0.034,0.221-0.092,0.364l0.019-0.027
			c0.009,0,0.019,0.003,0.027,0.009c0.151-0.09,0.294-0.152,0.427-0.182c-0.137,0.279-0.354,0.576-0.654,0.893
			c-0.091,0.184-0.156,0.312-0.196,0.386c-0.103,0.176-0.206,0.318-0.31,0.427c0.004,0.064,0.004,0.129,0,0.192
			c0.064-0.085,0.137-0.183,0.219-0.292c0.223-0.3,0.379-0.504,0.474-0.613l0.067,0.026c-0.039,0.265-0.136,0.513-0.29,0.746
			c-0.132,0.192-0.287,0.342-0.47,0.45c0.004,0.161,0.004,0.326,0,0.496c0.101-0.14,0.193-0.289,0.279-0.45
			c0.188-0.394,0.322-0.665,0.404-0.814l0.068,0.027c-0.013,0.209-0.053,0.413-0.119,0.61h0.019
			c-0.069,0.287-0.183,0.57-0.342,0.846c-0.094,0.167-0.196,0.313-0.31,0.441c0,0.191-0.001,0.385-0.004,0.582
			c0.045-0.07,0.091-0.146,0.137-0.227c0.194-0.361,0.338-0.561,0.432-0.597c0,0.015,0.008,0.022,0.023,0.022l0.009-0.014
			c0.009,0.012,0.013,0.065,0.009,0.16c0,0.1-0.096,0.311-0.285,0.632c-0.104,0.176-0.21,0.312-0.32,0.409
			c0.067,0.076,0.123,0.162,0.165,0.26c0.06,0.148,0.115,0.314,0.163,0.5c0.021-0.023,0.04-0.048,0.055-0.072
			c0.119-0.155,0.23-0.263,0.337-0.323l0.091,0.022c0.003-0.021,0.006-0.033,0.009-0.036c0.009-0.003,0.014,0.042,0.014,0.136
			c-0.003,0.076-0.066,0.197-0.19,0.365c-0.073,0.1-0.152,0.178-0.236,0.236c0.042,0.215,0.08,0.451,0.113,0.709
			c0.021-0.006,0.041-0.012,0.059-0.018c0.137-0.045,0.229-0.057,0.277-0.031c-0.042,0.029-0.078,0.113-0.108,0.25
			c-0.036,0.062-0.099,0.108-0.187,0.136c0.115,0.997,0.185,1.536,0.209,1.615c0.148,0.81,0.252,1.39,0.309,1.737
			c0.123,0.158,0.203,0.404,0.242,0.737c0.035,0.392,0.004,0.781-0.096,1.17c-0.04,0.124-0.365,0.905-0.979,2.343
			c-0.388,0.912-0.712,1.68-0.974,2.302c-0.13,0.37-0.308,0.851-0.532,1.442c-0.006,0.018-0.093,0.365-0.26,1.041
			c-0.188,0.522-0.438,0.787-0.75,0.797c-0.045,0.055-0.085,0.113-0.118,0.177c-0.091,0.138-0.231,0.39-0.423,0.76
			c-0.072,0.124-0.142,0.237-0.205,0.337c-0.288,0.191-0.582,0.404-0.883,0.643c-0.193,0.097-0.414,0.186-0.659,0.268
			c-0.246,0.094-0.419,0.223-0.519,0.387c-0.164-0.004-0.33-0.031-0.501-0.082c-0.148-0.043-0.263-0.109-0.341-0.2
			c-0.006,0-0.012,0-0.018,0c-0.262-0.069-0.418-0.236-0.47-0.501c-0.033-0.163-0.026-0.328,0.019-0.495
			c0.073-0.261,0.191-0.437,0.355-0.528c-0.086-0.1-0.152-0.23-0.2-0.391c-0.088-0.295-0.102-0.546-0.041-0.756
			c0.052-0.193,0.25-0.367,0.595-0.518c0.319-0.148,0.668-0.23,1.047-0.246c0.155-0.01,0.29-0.011,0.405-0.004
			c0.154-0.529,0.45-1.486,0.888-2.877c-0.838-1.012-1.009-2.395-0.516-4.145c0.502-1.74,0.192-2.848-0.927-3.32
			c-1.005,0.124-1.627,0.397-1.87,0.818c-0.255,0.449-0.385,0.805-0.392,1.065c0.007,0.058,0.015,0.323,0.023,0.796
			c-0.118,0.498-0.478,0.877-1.078,1.138c-0.226,0.091-0.389,0.019-0.493-0.218c-0.178-0.416-0.195-1.031-0.049-1.844
			c0.148-0.791,0.381-1.433,0.696-1.924c0.179-0.275,0.541-0.627,1.087-1.056c0.485-0.366,0.799-0.69,0.941-0.969
			c0.364-0.606,0.604-0.983,0.719-1.134c0.043-0.314,0.102-0.684,0.178-1.105c-0.205-0.648-0.561-1.825-1.064-3.529
			c-0.498-1.714-0.758-2.922-0.782-3.621c-0.015-0.71-0.099-1.544-0.251-2.502c-0.139-0.963-0.252-2.998-0.336-6.111
			c-0.079-3.113-0.988-5.698-2.729-7.752c-1.886-2.217-3.474-4.581-4.764-7.092c-1.288-2.509-2.817-5.232-4.585-8.17
			c-1.764-2.934-3.125-5.966-4.086-9.096c-0.161-0.5-0.051-0.957,0.332-1.369c2.633-2.871,4.868-3.198,6.705-0.978
			c0.52,0.261,0.979,0.6,1.379,1.019C111.152,81.985,111.452,82.474,111.582,82.961L111.582,82.961z M125.891,130.093
			c0.048-0.076,0.096-0.152,0.145-0.231c-0.049,0.042-0.098,0.081-0.15,0.118C125.889,130.016,125.891,130.054,125.891,130.093
			L125.891,130.093z"/>
	</g>
	<g id="Layer_3_6_">
		<path id="path20_4_" fill="#010101" d="M93.033,173.263c0.125-0.258,0.266-0.449,0.423-0.574c0.267-0.166,1.043-1.441,2.329-3.825
			c2.415,2.06,2.621,3.607,0.619,4.645l0.005,0.082c-0.458,0.358-0.808,0.659-1.047,0.905c-0.361,0.364-0.586,0.566-0.677,0.605
			c-0.286,0.13-0.505,0.332-0.661,0.605c-0.264,0.457-0.401,0.691-0.414,0.699c-0.07,0.092-0.3,0.332-0.691,0.724
			c-0.334,0.341-0.513,0.536-0.537,0.587c0,0.006-0.017,0.117-0.05,0.332c-0.041,0.23-0.071,0.367-0.092,0.41
			c-0.005,0.006-0.105,0.158-0.3,0.459c-0.285,0.258-0.653,0.273-1.105,0.045c-0.676-0.33-0.926-0.679-0.751-1.046
			c0.152-0.306,0.35-0.608,0.596-0.905c0.249-0.3,0.376-0.46,0.382-0.477c0.395-0.795,0.747-1.354,1.056-1.675
			c0.322-0.322,0.581-0.685,0.778-1.088C92.961,173.483,93.006,173.313,93.033,173.263z"/>
	</g>
	<g id="Layer_8_4_">
		<path id="path23_5_" fill="#010101" d="M111.787,177.857c0.559-0.14,1.09-0.252,1.597-0.337c0.503-0.085,0.766-0.133,0.787-0.146
			c0.428-0.173,0.817-0.315,1.169-0.428c0.264-0.106,0.5-0.185,0.709-0.236c0.101-0.021,0.195-0.04,0.283-0.055
			c0.457-0.048,0.879-0.167,1.264-0.354c0.037-0.025,0.073-0.048,0.109-0.068l0.496-0.178c0.273-0.106,0.764-0.417,1.469-0.933
			c0.07-0.067,0.144-0.137,0.22-0.209c0.418-0.483,0.917-1.077,1.497-1.784c1.974,2.484,1.88,4.042-0.283,4.672l-0.009,0.083
			c-0.522,0.267-0.922,0.499-1.2,0.696c-0.004,0-0.006,0.001-0.006,0.004c-0.076,0.043-0.148,0.082-0.219,0.118
			c-0.378,0.125-0.618,0.187-0.718,0.187c-0.37-0.006-0.678,0.084-0.923,0.269c-0.086,0.061-0.16,0.116-0.224,0.169
			c-0.063,0.045-0.122,0.088-0.173,0.127c-0.016,0.012-0.031,0.023-0.051,0.036c-0.015-0.015-0.028-0.028-0.04-0.041
			c-0.058,0.088-0.185,0.14-0.378,0.155c-0.191,0.012-0.434,0.013-0.728,0.004c-0.291-0.008-0.583-0.066-0.874-0.173
			c-0.079-0.03-0.153-0.048-0.223-0.055c-0.228-0.024-0.408,0.022-0.541,0.142c-0.2,0.17-0.328,0.266-0.382,0.287
			c-0.017,0.002-0.243,0.066-0.683,0.19c-1.469-0.143-2.299-0.501-2.494-1.073C111.05,178.351,111.231,177.994,111.787,177.857
			L111.787,177.857z"/>
	</g>
</g>
</svg>
