<?xml version="1.0" encoding="utf-8"?>
<!-- Generator: Adobe Illustrator 15.0.0, SVG Export Plug-In . SVG Version: 6.00 Build 0)  -->
<svg version="1.2" baseProfile="tiny" id="Layer_1" xmlns="http://www.w3.org/2000/svg" xmlns:xlink="http://www.w3.org/1999/xlink"
	 x="0px" y="0px" width="200px" height="200px" viewBox="0 0 200 200" overflow="inherit" xml:space="preserve">
<g>
	<g id="Layer_2_4_">
		<path id="path4" fill="#020202" d="M114.737,110.08c-0.043-0.044-0.087-0.092-0.131-0.142c0.027,0.048,0.053,0.094,0.075,0.142
			H114.737z M114.354,107.716c-0.098-0.06-0.208-0.14-0.332-0.237c0.002,0.021,0.008,0.039,0.015,0.057
			c0.097,0.281,0.202,0.457,0.312,0.523C114.359,107.984,114.362,107.871,114.354,107.716z M113.821,107.379v-0.066
			c-0.028-0.02-0.055-0.041-0.081-0.064C113.771,107.291,113.798,107.335,113.821,107.379z M114.108,97.512l-0.012-0.015
			c-0.006-0.007-0.014-0.015-0.024-0.024c-0.054-0.041-0.106-0.08-0.161-0.116c0.018,0.017,0.031,0.034,0.045,0.055
			c0.064,0.041,0.125,0.083,0.182,0.126c-0.004-0.002-0.008-0.008-0.015-0.015C114.12,97.516,114.114,97.512,114.108,97.512z
			 M113.165,96.625c0.209,0.107,0.385,0.221,0.53,0.338c-0.151-0.191-0.362-0.369-0.631-0.534
			C113.104,96.492,113.139,96.559,113.165,96.625z M113.024,96.549c-0.007-0.009-0.014-0.021-0.02-0.033
			c-0.055-0.078-0.111-0.15-0.172-0.218c-0.088-0.047-0.18-0.089-0.277-0.126C112.741,96.285,112.896,96.412,113.024,96.549
			L113.024,96.549z M112.661,96.283c-0.178-0.118-0.4-0.213-0.67-0.282c0.218,0.098,0.429,0.202,0.63,0.317
			c0.102,0.053,0.197,0.11,0.288,0.171C112.835,96.412,112.752,96.344,112.661,96.283z M110.489,95.436
			c-0.08,0-0.17,0.004-0.271,0.011c0.355,0.073,0.693,0.163,1.013,0.267c0.205,0.027,0.403,0.07,0.595,0.132
			c0.245,0.036,0.486,0.101,0.726,0.191C112.047,95.636,111.36,95.436,110.489,95.436z M102.865,97.16
			c0.045-0.115,0.107-0.213,0.191-0.293c0.285-0.413,0.833-0.771,1.644-1.078c0.393-0.15,0.805-0.272,1.234-0.363
			c0.416-0.184,0.856-0.27,1.32-0.256v0.014c-0.232,0.004-0.48,0.049-0.746,0.137c0.289-0.047,0.585-0.08,0.888-0.102l-0.005-0.13
			c0.506-0.092,1.107-0.048,1.809,0.134c0.07,0.017,0.144,0.036,0.217,0.058c0.04,0.01,0.08,0.02,0.121,0.03
			c0.08,0.014,0.158,0.029,0.236,0.045c0.011-0.002,0.021-0.003,0.03-0.006c0.345-0.043,0.672-0.064,0.981-0.064
			c0.794,0.077,1.404,0.289,1.835,0.635c0.098,0.077,0.186,0.162,0.263,0.252c0.318,0.148,0.577,0.317,0.775,0.51
			c0.191,0.184,0.291,0.353,0.297,0.503c0,0.007,0,0.016,0,0.025c0.021,0.022,0.041,0.049,0.062,0.075
			c0.073,0.068,0.136,0.131,0.187,0.191c0.131,0.094,0.258,0.199,0.383,0.312c0.34,0.303,0.583,0.592,0.73,0.867l-0.025,0.02
			c-0.365-0.406-0.65-0.701-0.852-0.887c-0.014-0.013-0.025-0.025-0.035-0.035c-0.006-0.007-0.014-0.012-0.021-0.016
			c0.165,0.152,0.312,0.318,0.444,0.5c0.039,0.054,0.075,0.107,0.105,0.161c0.218,0.269,0.36,0.499,0.429,0.69
			c0.009,0.023,0.016,0.047,0.019,0.07c0.334,0.543,0.504,0.967,0.515,1.27c0.003,0.054-0.003,0.078-0.021,0.07
			c-0.002,0-0.008-0.006-0.014-0.02c-0.139-0.41-0.32-0.81-0.544-1.199c0.073,0.289,0.122,0.6,0.146,0.932
			c0.054,0.195,0.084,0.373,0.09,0.535v0.216l-0.049-0.005c-0.007-0.067-0.018-0.135-0.031-0.201
			c-0.01,0.104-0.027,0.234-0.05,0.393c0.029,0.08,0.062,0.164,0.095,0.252c0.004,0.061-0.01,0.142-0.041,0.242h-0.049
			c-0.02-0.058-0.039-0.111-0.057-0.162c-0.006,0.027-0.013,0.056-0.02,0.086c0.02,0.055,0.039,0.109,0.057,0.166
			c0.137,0.457,0.208,0.75,0.216,0.877c0,0.067-0.005,0.148-0.015,0.242c-0.012,0.124-0.029,0.199-0.057,0.227l-0.064-0.025
			c-0.051-0.328-0.123-0.68-0.217-1.053c-0.016,0.084-0.031,0.154-0.046,0.211c0.027,0.209,0.048,0.419,0.061,0.631
			c0.017,0.053,0.034,0.109,0.051,0.166c0.104,0.39,0.161,0.667,0.171,0.832c0,0.003,0,0.006,0,0.01
			c-0.017,0.355-0.025,0.619-0.025,0.791h-0.04c-0.022-0.269-0.055-0.536-0.096-0.801c-0.007-0.018-0.011-0.034-0.015-0.051
			c0,0.017,0.002,0.033,0.005,0.051c-0.003,0.074-0.007,0.166-0.01,0.276c0.027,0.138,0.042,0.22,0.046,0.247
			c-0.021-0.014-0.041-0.028-0.062-0.045c0,0.054-0.003,0.11-0.01,0.17l-0.025-0.024c0-0.026-0.005-0.07-0.015-0.13
			c-0.012,0.036-0.021,0.072-0.031,0.109c0.048,0.092,0.09,0.19,0.127,0.298c0.104,0.302,0.177,0.638,0.215,1.008
			c-0.062-0.063-0.162-0.233-0.296-0.509c-0.003,0.121-0.017,0.258-0.04,0.413c-0.014,0.083-0.031,0.159-0.051,0.227
			c0,0.003,0,0.009,0,0.016l-0.004,0.104h-0.037c-0.022,0.071-0.052,0.127-0.084,0.168c-0.129-0.129-0.216-0.283-0.264-0.465v0.006
			c0.155,0.654,0.236,1.06,0.242,1.214c0.004,0.104-0.009,0.161-0.035,0.172l-0.035-0.021c-0.057-0.057-0.12-0.151-0.187-0.282
			c0,0.077-0.007,0.147-0.021,0.212c-0.014,0.066-0.019,0.123-0.016,0.166c0.027,0.027,0.055,0.057,0.082,0.091
			c0.043,0.023,0.085,0.046,0.125,0.065l-0.05,0.051c-0.161-0.051-0.319-0.109-0.474-0.178c0.003,0.012,0.005,0.022,0.005,0.036
			c0.205,0.204,0.366,0.386,0.483,0.544c0.008,0.01,0.006,0.019-0.005,0.025c-0.027,0.018-0.093,0.025-0.196,0.025
			c-0.067,0-0.145-0.019-0.231-0.056c0.003,0.011,0.005,0.019,0.005,0.024c0.014,0.115,0.008,0.209-0.016,0.283
			c-0.05,0.164-0.207,0.27-0.469,0.312c0.075,0.107,0.148,0.219,0.223,0.332c0.281,0.447,0.537,0.885,0.766,1.316
			c0.008,0.01,0.014,0.021,0.021,0.035h0.05c0.01,0.016,0.021,0.031,0.031,0.045c0.043,0.08,0.086,0.154,0.125,0.221
			c0.541,0.417,0.856,0.746,0.947,0.988c-0.01,0.014-0.025,0.027-0.045,0.04c0.008,0.007,0.014,0.015,0.023,0.021
			c0.111,0.061,0.248,0.156,0.418,0.29c0.379,0.3,0.83,0.772,1.353,1.413c0.39,0.477,0.817,1.048,1.284,1.713
			c0.195,0.166,0.383,0.334,0.562,0.504c0.106,0.101,0.209,0.201,0.31,0.303c0.954,0.954,1.698,1.997,2.232,3.129
			c0.235,0.555,0.489,1.554,0.765,2.999c0.408,2.153,0.611,4.36,0.611,6.621l-0.041,2.272c0.254,3.499,0.371,5.644,0.355,6.435
			c-0.016,0.79,0.123,2.233,0.416,4.331s0.233,4.912-0.177,8.442c-0.413,3.53-0.766,5.498-1.058,5.901
			c-0.297,0.399-0.491,0.947-0.585,1.643c-0.097,0.695-0.174,1.422-0.231,2.182c0,0.03,0.027,0.269,0.08,0.715
			c0.051,0.491,0.076,0.863,0.076,1.119c0,0.061-0.009,0.21-0.025,0.448c-0.017,0.263-0.035,0.476-0.057,0.64
			c-0.105,0.834-0.32,1.665-0.645,2.495c-0.06,0.144-0.124,0.29-0.19,0.438c-0.027,0.027-0.056,0.054-0.086,0.08
			c-0.024,0.085-0.056,0.16-0.097,0.228c-0.248,0.45-1.047,0.694-2.397,0.729c-1.458,0.824-2.769,1.45-3.931,1.881h-0.389
			c-2.979,1.252-4.861,0.861-5.648-1.174c-2.408-0.895-4.275-2.375-5.604-4.445c-0.639-1.002-1.078-1.932-1.32-2.791
			c-0.034-0.124-0.07-0.246-0.111-0.363c-0.043-0.692-0.194-1.244-0.452-1.657c-0.297-0.491-0.385-1.235-0.268-2.232
			c0.124-0.997,0.255-2.111,0.394-3.341c0.14-1.227,0.342-2.336,0.604-3.332c0.282-1.084,0.63-2.162,1.043-3.234
			c0.289-0.738,0.517-1.482,0.686-2.232c0.053-3.625,0.1-7.092,0.141-10.4c-1.535-2.149-2.078-4.76-1.628-7.83
			c0.205-0.686,0.396-1.33,0.574-1.936c-0.016,0.007-0.037,0.016-0.06,0.025c0.01-0.054,0.017-0.107,0.02-0.16
			c0.03-0.015,0.062-0.027,0.096-0.041c0.054-0.188,0.105-0.369,0.157-0.544c-0.038,0.013-0.071,0.028-0.102,0.045
			c-0.054,0.026-0.104,0.056-0.151,0.085c0-0.01-0.001-0.016-0.005-0.019c0.021-0.044,0.037-0.088,0.05-0.132
			c0.023-0.014,0.048-0.025,0.071-0.035c0.057-0.023,0.114-0.047,0.171-0.07c0.02-0.067,0.041-0.135,0.061-0.201
			c-0.007,0-0.011,0-0.015,0c-0.064,0-0.12-0.012-0.166-0.035c0.013-0.055,0.028-0.108,0.044-0.162
			c0.045,0.014,0.102,0.03,0.172,0.051c0.041-0.135,0.079-0.268,0.116-0.398c-0.084,0.037-0.156,0.072-0.217,0.106
			c0.011-0.041,0.021-0.081,0.035-0.122v-0.005c0.063-0.036,0.137-0.075,0.218-0.115c0.025-0.091,0.053-0.182,0.08-0.272
			c-0.074,0.033-0.148,0.068-0.223,0.105c0.015-0.047,0.025-0.094,0.036-0.141c0.078-0.04,0.152-0.079,0.227-0.115
			c0.063-0.242,0.127-0.475,0.187-0.695c-0.084,0.036-0.17,0.07-0.257,0.1c0.023-0.1,0.043-0.199,0.061-0.297
			c0.097-0.057,0.195-0.115,0.292-0.176c0.161-0.615,0.292-1.152,0.394-1.613c0.325-1.475,0.611-2.602,0.855-3.381l0.312-0.353
			l0.264-0.228c-0.041-0.561-0.133-1.055-0.277-1.48c-0.878-0.145-1.321-0.222-1.331-0.232c-0.02-0.023-0.042-0.047-0.065-0.07
			c-1.979-0.604-3.099-1.045-3.362-1.32c0.01,0.064,0.01,0.111,0,0.141c-0.027,0.107-0.055,0.165-0.086,0.172
			c-0.022,0.007-0.072,0.008-0.146,0.005c-0.127-0.212-0.226-0.376-0.297-0.493c-0.961-0.051-1.923-0.104-2.887-0.156
			c-0.255-0.064-0.465-0.178-0.63-0.343c-0.43-0.443-0.719-0.997-0.867-1.663c-0.023-0.087-0.052-0.18-0.085-0.277
			c-0.171-0.507-0.254-0.771-0.247-0.791c0.118-0.185,0.235-0.342,0.353-0.473c-0.063-0.051-0.098-0.139-0.101-0.263
			c0.041-0.235,0.062-0.359,0.065-0.373c0.077-0.289,0.175-0.476,0.292-0.56c0.251-0.484,0.71-0.969,1.376-1.456
			c0.493-0.316,0.849-0.556,1.062-0.721c0.128-0.111,0.195-0.188,0.202-0.231c0.003-0.041,0.002-0.123-0.004-0.247
			c-0.018-0.118-0.023-0.198-0.016-0.241c0.047-0.323,0.344-0.793,0.891-1.412c0.558-0.627,0.845-0.997,0.863-1.107
			c0.007-0.071-0.019-0.394-0.077-0.968c-0.342-0.062-0.483-0.303-0.423-0.726c0.014-0.088,0.023-0.156,0.03-0.207
			c0.011-0.055,0.015-0.082,0.015-0.086c0.037-0.111,0.061-0.245,0.071-0.402c0.007-0.158,0.071-0.309,0.192-0.449
			c0.124-0.141,0.453-0.189,0.987-0.146c0.531,0.045,1.012-0.096,1.441-0.418c0-0.003,0.001-0.008,0.005-0.016
			c0.011-0.057,0.021-0.109,0.036-0.16C102.821,97.317,102.839,97.232,102.865,97.16L102.865,97.16z"/>
	</g>
	<g id="Layer_4_5_">
		<path id="path7" fill="#020202" d="M112.267,113.359c0.133-0.049,0.271-0.092,0.414-0.13c0.216-0.058,0.428-0.101,0.634-0.127
			h0.068c0.013-0.001,0.023-0.003,0.036-0.005c0.246-0.033,0.487-0.037,0.725-0.016v-0.002c0.057,0.004,0.113,0.011,0.17,0.018
			c0.367,0.047,0.718,0.149,1.053,0.307c0.766,0.368,1.242,0.941,1.432,1.722c0.042,0.062,0.082,0.124,0.121,0.188
			c0.164,0.262,0.314,0.551,0.455,0.861c0.281,0.629,0.497,1.322,0.648,2.082c0.102,0.507,0.151,0.871,0.151,1.094
			c0,0.188-0.108,0.59-0.328,1.204c-0.278,0.788-0.618,1.521-1.022,2.196c-0.153,0.256-0.312,0.496-0.476,0.721
			c0.009,0.085,0.013,0.143,0.013,0.172c0,0.632-0.289,2.588-0.867,5.87c-0.383,2.175-0.675,3.737-0.875,4.688
			c-0.072,0.625-0.236,1.265-0.488,1.92c-0.197,0.767-0.43,1.738-0.697,2.915c-0.367,1.609-0.669,2.77-0.907,3.483
			c-0.369,1.117-0.801,1.947-1.29,2.488c-0.066,0.072-0.134,0.141-0.202,0.204c-0.005,0.01-0.01,0.02-0.016,0.03
			c-0.226,0.445-0.482,0.867-0.766,1.268c-0.931,1.31-1.44,1.946-1.531,1.909c-0.095-0.047-0.188,0.052-0.282,0.298
			c-1.572,0.543-2.59,0.57-3.054,0.08c-1.159-0.523-1.952-0.823-2.379-0.896c-2.348-0.42-4.039-0.75-5.074-0.988l-0.055,0.01
			c-0.524,0.011-0.93,0.058-1.22,0.142l-0.004-0.11c0.292-0.041,0.581-0.088,0.866-0.143c-0.305-0.076-0.528-0.144-0.67-0.201
			c-0.124-0.05-0.255-0.104-0.394-0.161c-0.705-0.05-1.279-0.017-1.723,0.101v-0.101l0.509-0.141
			c0.188,0.021,0.47,0.019,0.847-0.005c-0.054-0.027-0.107-0.053-0.161-0.076c-0.635,0.057-1.115,0.121-1.441,0.191l-0.021-0.075
			c0.043-0.034,0.151-0.074,0.322-0.12c0.034-0.008,0.336-0.038,0.907-0.092c-0.157-0.066-0.32-0.138-0.488-0.211
			c-0.736,0.094-1.446,0.197-2.131,0.312l0.035-0.056l1.38-0.394l-0.05-0.01c-0.454,0.074-0.922,0.178-1.406,0.312l-0.005-0.101
			c0.484-0.136,0.847-0.241,1.089-0.322c0.101-0.03,0.196-0.062,0.288-0.097c-0.01-0.006-0.024-0.012-0.041-0.014
			c-0.07,0.017-0.149,0.031-0.236,0.045c-0.703,0.121-1.223,0.223-1.562,0.307l-0.021-0.07l1.119-0.388
			c-0.228,0.006-0.49,0.034-0.786,0.08c-0.168,0.03-0.401,0.072-0.7,0.126l0.035-0.065c0.376-0.128,0.768-0.288,1.175-0.483
			c-0.048-0.021-0.098-0.042-0.152-0.065c-0.135,0.023-0.292,0.046-0.474,0.07c-0.383,0.054-0.684,0.108-0.902,0.161l-0.015-0.075
			c0.184-0.088,0.349-0.149,0.494-0.187l-0.061-0.015c-0.239,0.071-0.558,0.143-0.957,0.216l-0.005-0.101
			c0.144-0.04,0.215-0.069,0.211-0.086c-0.201,0.021-0.312-0.01-0.333-0.091l0.731-0.307c0.077-0.03,0.153-0.061,0.227-0.091
			c-0.094-0.044-0.19-0.089-0.288-0.136c-0.013,0.003-0.026,0.006-0.04,0.01c-0.342,0.077-0.615,0.131-0.816,0.161v-0.11
			l0.483-0.217l-0.005-0.025c-0.309,0.02-0.763,0.08-1.36,0.182l-0.021-0.076c0.084-0.057,0.299-0.162,0.645-0.316
			c0.051-0.023,0.099-0.049,0.147-0.076c-0.098-0.044-0.195-0.091-0.292-0.141l-0.287,0.086c-0.138,0.066-0.33,0.135-0.575,0.206
			l-0.06-0.142c0.215-0.104,0.378-0.181,0.488-0.23c0.047-0.024,0.091-0.048,0.131-0.071c-0.037-0.013-0.071-0.028-0.101-0.046
			c-0.199,0.085-0.311,0.131-0.338,0.141c-0.262,0.074-0.492,0.043-0.69-0.095c0.054-0.058,0.168-0.157,0.343-0.302
			c0.02-0.021,0.041-0.039,0.06-0.056c-0.04-0.027-0.085-0.051-0.136-0.071c-0.111,0.051-0.236,0.103-0.378,0.156
			c-0.382,0.158-0.63,0.26-0.741,0.303c-0.118-0.303,0.022-0.57,0.418-0.807c-0.053-0.029-0.107-0.059-0.161-0.086
			c-0.48,0.25-0.737,0.379-0.771,0.389l-0.021-0.076c0.077-0.086,0.23-0.227,0.459-0.417c0.017-0.014,0.03-0.027,0.04-0.041
			c-0.064-0.033-0.129-0.069-0.196-0.105c-0.044,0.03-0.091,0.063-0.142,0.101c-0.278,0.205-0.427,0.309-0.443,0.312
			c-0.101,0.026-0.153,0.039-0.157,0.035c-0.003-0.006-0.012-0.02-0.024-0.04c0.117-0.131,0.287-0.311,0.508-0.539
			c-0.047-0.023-0.093-0.048-0.136-0.071c-0.077-0.037-0.153-0.074-0.227-0.115c-0.175,0.121-0.299,0.191-0.373,0.211
			c-0.081,0.027-0.117,0.004-0.11-0.069c0.009-0.078-0.023-0.103-0.101-0.076c-0.003,0-0.01,0.03-0.02,0.091
			c-0.047,0.037-0.18,0.012-0.398-0.076c0.037-0.11,0.129-0.264,0.276-0.457c-0.11-0.062-0.222-0.121-0.332-0.183
			c-0.295,0.238-0.46,0.371-0.494,0.398l-0.121,0.005c-0.006-0.02,0.006-0.062,0.04-0.126c0.023-0.05,0.025-0.081,0.005-0.091
			c-0.121,0.054-0.189,0.082-0.207,0.086c-0.065,0.021-0.125,0.021-0.179,0c-0.07,0.085-0.135,0.162-0.194,0.232
			c-0.097,0.466-0.188,0.871-0.272,1.214c0.054,0.198,0.141,0.685,0.263,1.461c0.033,0.347,0.223,0.808,0.569,1.386
			c0.384,0.666,0.61,1.176,0.68,1.531c0.031,0.166,0.051,0.34,0.061,0.521l0.05,0.014c-0.013,0.048-0.028,0.097-0.043,0.146
			c0.003,0.052,0.003,0.104,0.003,0.156h-0.051c-0.108,0.329-0.251,0.677-0.428,1.044c-0.387,0.756-0.782,1.268-1.185,1.537v0.64
			c-0.15-0.166-0.269-0.336-0.357-0.506c-0.125-0.004-0.229-0.073-0.312-0.21c-0.02-0.044-0.044-0.086-0.071-0.127l0.638-2.365
			c-0.008-0.115-0.021-0.238-0.037-0.369c-0.078-0.531-0.605-1.069-1.583-1.613c-1.347,0.02-2.125,1.029-2.333,3.028
			c-0.219,2.002-0.966,3.349-2.242,4.036c-0.128,1.609-0.221,2.719-0.282,3.326c0.125,0.043,0.262,0.1,0.413,0.171
			c0.387,0.171,0.711,0.401,0.973,0.69c0.296,0.296,0.43,0.555,0.403,0.775c-0.026,0.238-0.146,0.491-0.357,0.756
			c-0.114,0.145-0.237,0.252-0.368,0.323c0.077,0.095,0.125,0.214,0.146,0.357c0.014,0.099,0.014,0.21,0,0.333
			c-0.016,0.135-0.051,0.258-0.105,0.373c-0.023,0.049-0.051,0.096-0.081,0.141c-0.161,0.249-0.392,0.355-0.691,0.322
			c-0.006-0.004-0.013-0.006-0.02-0.01c-0.118,0.061-0.26,0.08-0.428,0.061c-0.198-0.018-0.381-0.057-0.55-0.121
			c-0.002-0.016-0.006-0.032-0.01-0.048c-0.028-0.116-0.084-0.231-0.169-0.345c-0.052-0.074-0.117-0.146-0.193-0.217
			c-0.219-0.188-0.407-0.371-0.565-0.549c-0.211-0.371-0.426-0.711-0.645-1.023c-0.023-0.131-0.047-0.275-0.071-0.434
			c-0.041-0.46-0.079-0.779-0.116-0.957c-0.014-0.078-0.031-0.155-0.05-0.232c-0.32-0.137-0.465-0.512-0.438-1.123
			c0.107-0.766,0.161-1.16,0.161-1.185c0.014-0.695,0.03-1.262,0.05-1.698c-0.01-0.749-0.026-1.671-0.045-2.766
			c-0.037-1.73-0.049-2.668-0.036-2.812c0.061-0.439,0.189-0.854,0.388-1.244c0.178-0.326,0.363-0.545,0.555-0.655
			c0.205-0.336,0.55-0.888,1.033-1.653c0.056-0.07,0.353-0.594,0.887-1.572c-0.078-0.066-0.123-0.141-0.137-0.221
			c0.024-0.152,0.021-0.252-0.01-0.303c0.061-0.007,0.151,0.043,0.272,0.146c0.02,0.017,0.038,0.031,0.055,0.045
			c0.142-0.252,0.277-0.479,0.409-0.68c-0.064-0.095-0.111-0.209-0.142-0.343c-0.061-0.222-0.076-0.373-0.045-0.454
			c0.037-0.098,0.06-0.143,0.071-0.136c0.003,0.007,0.001,0.02-0.006,0.04l0.102,0.02c0.084,0.104,0.154,0.261,0.211,0.47
			c0.007,0.03,0.016,0.062,0.026,0.095c0.127-0.168,0.251-0.317,0.373-0.447c0.084-0.078,0.178-0.142,0.282-0.191
			c-0.074-0.148-0.127-0.334-0.162-0.555c-0.063-0.41-0.076-0.668-0.035-0.771c0.041-0.098,0.066-0.148,0.076-0.156l0.005,0.021
			c0.018,0.003,0.029-0.003,0.036-0.021c0.084,0.077,0.15,0.341,0.196,0.791c0.014,0.104,0.029,0.202,0.045,0.293
			c0.081-0.205,0.159-0.405,0.237-0.6c1.078-3.457,3.542-4.9,7.39-4.326c3.849,0.573,6.354,1.021,7.516,1.348
			c1.085,0.31,1.766,0.533,2.04,0.671c0.622,0.309,1.662,0.673,3.119,1.093c0.526,0.153,1.003,0.297,1.434,0.434
			c-0.316-0.388-0.41-1.16-0.282-2.318c0.127-1.158,0.454-2.522,0.98-4.094s0.969-2.739,1.327-3.502
			c0.358-0.764,0.651-1.414,0.88-1.95c0.229-0.536,0.64-1.181,1.229-1.933c0.019-0.023,0.035-0.045,0.053-0.068
			c-0.105-0.566-0.182-1.139-0.229-1.715c0-0.887,0.228-1.854,0.686-2.903c0.176-0.403,0.37-0.788,0.584-1.153
			c0.171-0.498,0.31-0.963,0.418-1.396c0.102-0.4,0.287-0.839,0.56-1.315c0.326-0.564,0.716-1.073,1.169-1.527
			c0.021-0.021,0.045-0.043,0.065-0.064C110.097,114.113,111.118,113.572,112.267,113.359L112.267,113.359z M85.483,141.207
			c0.009-0.012,0.019-0.023,0.028-0.037c-0.001-0.001-0.003-0.002-0.005-0.003L85.483,141.207z M94.914,145.796l-0.025,0.01
			c0.013,0,0.025-0.001,0.036-0.005L94.914,145.796z M93.336,145.302c0.084-0.017,0.192-0.038,0.322-0.065
			c-0.036-0.017-0.077-0.037-0.121-0.061C93.458,145.22,93.39,145.262,93.336,145.302z M87.144,142.173l0.025-0.011
			c0.033-0.02,0.062-0.042,0.085-0.065c-0.009-0.003-0.021-0.009-0.035-0.02C87.189,142.113,87.165,142.146,87.144,142.173z"/>
	</g>
	<g id="Layer_6_4_">
		<path id="path10" fill="#020202" d="M106.394,175.112c-0.041-0.034-0.084-0.065-0.131-0.096c0.053,0.067,0.105,0.13,0.155,0.191
			l0.02-0.021C106.425,175.16,106.409,175.137,106.394,175.112z M104.751,173.002l-0.012-0.021c-0.003-0.006-0.008-0.01-0.014-0.01
			C104.735,172.98,104.744,172.99,104.751,173.002z M99.282,176.916l0.056,0.046c0.09-0.018,0.183-0.027,0.277-0.031
			C99.511,176.926,99.4,176.92,99.282,176.916z M102.589,176.442c0.036-0.01,0.071-0.019,0.105-0.025
			c-0.091-0.022-0.191-0.049-0.302-0.075C102.405,176.358,102.471,176.393,102.589,176.442z M103.833,176.104
			c-0.09-0.023-0.188-0.05-0.287-0.081l0.016,0.031c0.026,0.033,0.053,0.063,0.08,0.09
			C103.709,176.132,103.772,176.118,103.833,176.104z M100.624,176.791c0.13-0.014,0.26-0.029,0.388-0.045
			c-0.044-0.027-0.09-0.055-0.137-0.082c-0.282-0.154-0.464-0.245-0.543-0.271c-0.098-0.027-0.15-0.035-0.157-0.025
			c-0.003,0.014-0.007,0.033-0.01,0.06c0.078,0.125,0.111,0.211,0.101,0.258C100.4,176.729,100.519,176.764,100.624,176.791z
			 M104.005,172.432c-0.048-0.037-0.098-0.072-0.151-0.105c0.123,0.147,0.235,0.271,0.333,0.372
			C104.132,172.621,104.072,172.532,104.005,172.432z M103.566,172.522c-0.142-0.218-0.314-0.489-0.52-0.812
			c-0.204-0.151-0.406-0.305-0.604-0.459c0.353,0.42,0.734,0.857,1.144,1.311L103.566,172.522L103.566,172.522z M101.465,170.643
			l-0.01-0.025c-0.041-0.09-0.098-0.188-0.172-0.291c-0.037-0.035-0.075-0.064-0.116-0.092
			C101.231,170.336,101.33,170.471,101.465,170.643z M99.802,169.07c0.146,0.198,0.279,0.371,0.392,0.52l-0.004-0.025
			c-0.031-0.061-0.087-0.163-0.172-0.307C99.948,169.196,99.876,169.135,99.802,169.07z M111.161,155.536
			c5.236,3.667,8.352,4.921,9.344,3.762c0.992-1.161,1.752-2.841,2.279-5.04c0.529-2.197,1.056-0.203,1.581,5.981
			c0.524,6.187-0.186,9.917-2.128,11.192c-1.94,1.275-3.347,2.021-4.219,2.234c-0.873,0.213-1.364,0.334-1.474,0.361l0.002,0.002
			c0.417,0.617,0.761,1.107,1.032,1.471c-0.028,0.329,0.047,0.559,0.229,0.688c0.18,0.131,0.253,0.477,0.224,1.039
			c-0.031,0.562-0.097,1-0.197,1.312c-0.1,0.312-0.382,0.599-0.845,0.859c-0.3,0.169-0.609,0.298-0.926,0.387v0.004
			c-1.361,0.456-2.681,0.419-3.961-0.111c-2.16,0.098-3.689,0.044-4.591-0.162l-2.202-0.015c-0.121,0.118-0.265,0.275-0.434,0.474
			c-0.175,0.154-0.41,0.258-0.705,0.307l-1.371-0.01c-1.578,0.078-2.811-0.176-3.694-0.76c-0.007-0.008-0.017-0.016-0.03-0.026
			c-1.095,0.34-2.219,0.521-3.371,0.544c-0.017,0.008-0.034,0.02-0.051,0.036c-0.305,0.274-0.603,0.577-0.892,0.907
			c-0.234,0.279-0.525,0.397-0.871,0.357c-0.051-0.02-0.111-0.035-0.182-0.045c-0.39,0.303-0.781,0.344-1.174,0.125
			c-0.048-0.01-0.081-0.037-0.101-0.08c-0.189-0.457-0.076-0.852,0.337-1.184c0.158-0.121,0.293-0.259,0.408-0.414
			c0.312-0.443,0.696-0.822,1.149-1.139c0.154-0.121,0.322-0.205,0.504-0.252c0.668-0.218,1.33-0.436,1.985-0.65
			c0.366-0.111,0.723-0.238,1.069-0.383c0.053-0.02,0.109-0.04,0.171-0.061l0.03-0.085c0.144-0.095,0.41-0.142,0.796-0.142h0.01
			c0.097-0.023,0.193-0.04,0.288-0.051c-0.011-0.017-0.014-0.035-0.011-0.055l0.071-0.142c0.034,0,0.146-0.001,0.338-0.005
			c0.046,0.004,0.094,0.005,0.141,0.005c0.295-0.007,0.479-0.017,0.549-0.03l-0.046-0.035c-0.117-0.067-0.178-0.141-0.181-0.221
			c0.013-0.088,0.014-0.148,0.004-0.182l0.071-0.177c0.152,0.023,0.604,0.106,1.357,0.247c0.379,0.07,0.64,0.115,0.785,0.136
			c0.04-0.007,0.082-0.014,0.126-0.021c-0.027-0.138-0.031-0.236-0.015-0.297c0.033-0.034,0.052-0.053,0.055-0.056l0.69,0.156
			c0.172-0.05,0.329-0.095,0.475-0.136c-0.111-0.171-0.173-0.264-0.188-0.277c0.272,0.054,0.526,0.104,0.762,0.151
			c0.473-0.071,1.407-0.098,2.802-0.081c-0.256-0.212-0.55-0.45-0.882-0.715c-0.319-0.253-0.479-0.736-0.479-1.452h-0.002
			c-0.15-0.167-0.285-0.325-0.404-0.474c-0.099-0.073-0.197-0.147-0.299-0.221l0.045,0.1l-0.131,0.086
			c-0.127-0.106-0.203-0.174-0.227-0.201c-0.095-0.084-0.164-0.166-0.212-0.246c0.004,0.029,0.009,0.066,0.015,0.109
			c0,0.035-0.016,0.057-0.05,0.066c-0.145-0.064-0.279-0.172-0.408-0.322c-0.164-0.188-0.265-0.298-0.302-0.328
			c0.003,0.051,0.013,0.105,0.029,0.166c0.008,0.064-0.004,0.153-0.035,0.268c-0.134-0.131-0.474-0.477-1.019-1.039
			c-0.456-0.466-0.783-0.793-0.981-0.981c0.021,0.046,0.058,0.127,0.111,0.241c0.046,0.107,0.078,0.19,0.095,0.247
			c-0.547-0.309-1.208-0.866-1.985-1.673c-0.698-0.723-1.296-1.441-1.794-2.156c-0.05-0.055-0.104-0.106-0.161-0.156
			c-0.023,0.023-0.045,0.059-0.065,0.105c-0.027,0.067-0.061,0.104-0.1,0.111c-0.068-0.095-0.133-0.187-0.197-0.277
			c-0.39-0.555-0.713-1.016-0.973-1.386c-0.735-0.816-1.203-1.354-1.4-1.612c-0.901-1.156-2.108-2.762-3.623-4.818
			c-0.373-0.606-1.361-3.15-2.966-7.629c-0.778-1.498-0.559-2.798,0.658-3.898c1.217-1.104,1.924-1.539,2.122-1.311
			c3.272-0.684,6.645,0.231,10.119,2.74C104.946,151.807,108.177,153.887,111.161,155.536L111.161,155.536z"/>
	</g>
	<g id="Layer_5_4_">
		<path id="path13_1_" fill="#020202" d="M98.708,176.442c0.04-0.01,0.077-0.019,0.111-0.025c-0.088-0.022-0.186-0.049-0.293-0.075
			C98.536,176.358,98.597,176.393,98.708,176.442z M99.998,176.104c-0.087-0.023-0.18-0.05-0.277-0.081l0.01,0.031
			c0.023,0.033,0.046,0.063,0.071,0.09C99.868,176.132,99.934,176.118,99.998,176.104z M101.313,173.002l-0.005-0.021
			c-0.003-0.006-0.009-0.01-0.015-0.01C101.3,172.98,101.308,172.99,101.313,173.002L101.313,173.002z M102.685,175.112
			c-0.037-0.034-0.075-0.065-0.115-0.096c0.043,0.067,0.087,0.13,0.13,0.191l0.02-0.021
			C102.709,175.16,102.697,175.137,102.685,175.112L102.685,175.112z M95.393,176.962c0.091-0.018,0.185-0.027,0.282-0.031
			c-0.104-0.005-0.215-0.011-0.333-0.015L95.393,176.962z M96.289,176.427c0.061,0.124,0.083,0.211,0.066,0.258
			c0.127,0.044,0.242,0.079,0.343,0.106c0.134-0.014,0.264-0.029,0.393-0.045c-0.041-0.027-0.083-0.055-0.127-0.081
			c-0.262-0.155-0.431-0.246-0.508-0.272c-0.094-0.027-0.146-0.035-0.152-0.025C96.301,176.381,96.296,176.4,96.289,176.427
			L96.289,176.427z M100.643,172.432c-0.043-0.037-0.09-0.072-0.14-0.105c0.107,0.147,0.204,0.271,0.288,0.372
			C100.745,172.621,100.698,172.532,100.643,172.432z M100.19,172.522c-0.111-0.218-0.249-0.489-0.414-0.812
			c-0.184-0.151-0.366-0.305-0.543-0.459c0.298,0.42,0.623,0.857,0.973,1.311L100.19,172.522z M98.088,170.234
			c0.051,0.102,0.131,0.236,0.242,0.408l-0.006-0.025c-0.027-0.09-0.07-0.188-0.13-0.291
			C98.161,170.291,98.126,170.262,98.088,170.234z M97.197,169.59v-0.025c-0.024-0.061-0.067-0.163-0.131-0.307
			c-0.064-0.062-0.128-0.124-0.191-0.188C96.995,169.269,97.102,169.441,97.197,169.59z M109.976,155.536
			c4.764,3.669,7.717,4.923,8.858,3.764c1.143-1.161,2.118-2.842,2.928-5.038c0.813-2.201,1.084-0.207,0.812,5.98
			c-0.272,6.185-1.462,9.916-3.566,11.191c-2.107,1.273-3.61,2.018-4.511,2.232c-0.9,0.212-1.407,0.333-1.517,0.363
			c0.336,0.617,0.616,1.108,0.842,1.471c-0.07,0.33-0.023,0.561,0.141,0.691c0.164,0.127,0.195,0.474,0.09,1.037
			c-0.104,0.561-0.225,0.998-0.361,1.311c-0.143,0.312-0.462,0.6-0.958,0.861c-0.325,0.169-0.652,0.298-0.978,0.389
			c-1.421,0.457-2.738,0.42-3.951-0.111c-2.17,0.098-3.691,0.045-4.564-0.161l-2.203-0.015c-0.138,0.117-0.303,0.275-0.494,0.473
			c-0.195,0.154-0.443,0.258-0.746,0.309l-1.37-0.011c-1.589,0.077-2.787-0.177-3.593-0.761c-0.007-0.008-0.017-0.016-0.03-0.025
			c-1.139,0.339-2.286,0.521-3.442,0.544c-0.017,0.007-0.033,0.019-0.05,0.036c-0.342,0.274-0.68,0.577-1.013,0.906
			c-0.269,0.279-0.574,0.398-0.917,0.357c-0.047-0.02-0.105-0.035-0.176-0.045c-0.427,0.303-0.823,0.344-1.189,0.126
			c-0.047-0.011-0.077-0.037-0.09-0.081c-0.128-0.457,0.035-0.852,0.488-1.184c0.175-0.121,0.329-0.258,0.464-0.413
			c0.369-0.443,0.801-0.823,1.295-1.14c0.171-0.12,0.351-0.204,0.54-0.251c0.695-0.219,1.384-0.436,2.065-0.649
			c0.379-0.111,0.752-0.239,1.119-0.384c0.057-0.021,0.117-0.04,0.181-0.061l0.041-0.085c0.154-0.095,0.425-0.143,0.811-0.143h0.011
			c0.101-0.022,0.2-0.04,0.297-0.05c-0.01-0.017-0.012-0.036-0.005-0.056l0.091-0.141c0.033,0,0.146-0.002,0.338-0.006
			c0.046,0.004,0.093,0.006,0.141,0.006c0.296-0.007,0.479-0.018,0.549-0.029l-0.04-0.036c-0.107-0.067-0.158-0.142-0.151-0.222
			c0.023-0.088,0.034-0.148,0.03-0.182l0.091-0.176c0.147,0.023,0.589,0.105,1.325,0.246c0.37,0.07,0.625,0.116,0.766,0.137
			c0.043-0.008,0.087-0.014,0.13-0.021c-0.01-0.138-0.003-0.237,0.021-0.298c0.041-0.033,0.062-0.052,0.065-0.055l0.67,0.156
			c0.178-0.051,0.341-0.096,0.489-0.137c-0.087-0.17-0.139-0.264-0.151-0.276c0.266,0.054,0.514,0.104,0.746,0.151
			c0.48-0.071,1.417-0.098,2.811-0.081c-0.229-0.212-0.492-0.45-0.79-0.716c-0.285-0.252-0.384-0.736-0.292-1.451
			c-0.132-0.168-0.247-0.326-0.349-0.473c-0.087-0.074-0.177-0.148-0.267-0.223l0.03,0.1l-0.142,0.087
			c-0.114-0.106-0.181-0.175-0.201-0.201c-0.085-0.084-0.145-0.166-0.182-0.247c0,0.029,0.002,0.066,0.004,0.11
			c-0.006,0.034-0.026,0.056-0.06,0.066c-0.137-0.064-0.26-0.171-0.368-0.323c-0.141-0.188-0.227-0.297-0.257-0.327
			c-0.003,0.05-0.001,0.105,0.005,0.166c0,0.063-0.022,0.153-0.065,0.267c-0.118-0.131-0.414-0.477-0.886-1.038
			c-0.397-0.466-0.682-0.794-0.857-0.981c0.014,0.046,0.04,0.127,0.081,0.241c0.034,0.107,0.056,0.19,0.065,0.247
			c-0.507-0.309-1.098-0.867-1.773-1.674c-0.605-0.722-1.109-1.44-1.512-2.156c-0.044-0.054-0.091-0.105-0.142-0.156
			c-0.026,0.023-0.054,0.059-0.081,0.105c-0.037,0.068-0.076,0.104-0.116,0.111c-0.054-0.094-0.107-0.186-0.162-0.276
			c-0.319-0.555-0.583-1.017-0.791-1.386c-0.632-0.817-1.03-1.354-1.195-1.613c-0.752-1.156-1.753-2.762-3.003-4.816
			c-0.296-0.608-0.956-3.152-1.98-7.63c-0.588-1.497-0.201-2.798,1.159-3.899c1.357-1.103,2.12-1.539,2.288-1.311
			c3.359-0.682,6.614,0.231,9.766,2.74C104.239,151.807,107.204,153.887,109.976,155.536L109.976,155.536z"/>
	</g>
	<g id="Layer_7_4_">
		<path id="path16" fill="#020202" d="M96.164,148.038c-0.037-0.014-0.077-0.029-0.121-0.046c-0.077,0.055-0.139,0.104-0.187,0.151
			C95.937,148.117,96.039,148.082,96.164,148.038z M89.331,145.831c0.031-0.024,0.056-0.049,0.076-0.075
			c-0.01-0.004-0.022-0.008-0.035-0.01c-0.027,0.035-0.049,0.069-0.066,0.1L89.331,145.831z M97.494,148.431h-0.01l-0.025,0.011
			C97.472,148.441,97.484,148.438,97.494,148.431z M87.552,145.064l-0.015,0.046c0.007-0.017,0.014-0.032,0.021-0.046H87.552z
			 M109.2,114.609c0.397-0.25,0.822-0.448,1.274-0.595c0.124-0.067,0.255-0.129,0.394-0.187c0.204-0.084,0.408-0.152,0.609-0.207
			l0.065-0.01c0.255-0.07,0.507-0.109,0.756-0.115c0.431-0.023,0.849,0.03,1.255,0.161c0.803,0.262,1.35,0.769,1.643,1.521
			c0.039,0.044,0.078,0.09,0.119,0.136c0.204,0.246,0.398,0.521,0.586,0.827c0.363,0.587,0.667,1.247,0.912,1.979
			c0.168,0.49,0.267,0.847,0.297,1.069c0.023,0.185-0.031,0.596-0.166,1.233c-0.178,0.82-0.423,1.59-0.735,2.309
			c-0.118,0.272-0.242,0.533-0.374,0.781c0.018,0.08,0.027,0.136,0.031,0.166c0.085,0.625,0.055,2.604-0.09,5.936
			c-0.098,2.204-0.184,3.791-0.258,4.762c0.007,0.625-0.072,1.281-0.236,1.971c-0.098,0.783-0.203,1.775-0.318,2.979
			c-0.15,1.643-0.298,2.832-0.443,3.566c-0.218,1.16-0.537,2.039-0.957,2.641c-0.057,0.074-0.114,0.15-0.171,0.227
			c-0.003,0.007-0.007,0.018-0.01,0.031c-0.169,0.471-0.368,0.922-0.601,1.355c-0.749,1.42-1.172,2.117-1.27,2.091
			c-0.098-0.034-0.178,0.077-0.242,0.333c-1.488,0.745-2.492,0.902-3.013,0.473c-1.216-0.366-2.041-0.557-2.475-0.574
			c-2.382-0.111-4.103-0.218-5.16-0.322l-0.056,0.016c-0.517,0.076-0.915,0.178-1.194,0.302l-0.015-0.11
			c0.286-0.081,0.566-0.166,0.841-0.252c-0.313-0.037-0.542-0.074-0.69-0.111c-0.131-0.037-0.267-0.074-0.408-0.111
			c-0.709,0.041-1.275,0.148-1.698,0.322l-0.01-0.1l0.483-0.207c0.188-0.004,0.467-0.043,0.836-0.117
			c-0.057-0.02-0.112-0.036-0.166-0.049c-0.625,0.137-1.094,0.264-1.406,0.377l-0.03-0.075c0.04-0.04,0.142-0.093,0.303-0.156
			c0.034-0.014,0.329-0.084,0.887-0.212c-0.165-0.047-0.334-0.096-0.509-0.146c-0.716,0.188-1.408,0.385-2.077,0.59l0.031-0.061
			l1.314-0.574h-0.049c-0.441,0.131-0.893,0.296-1.356,0.494l-0.015-0.102c0.46-0.197,0.806-0.352,1.038-0.463
			c0.095-0.041,0.185-0.082,0.272-0.126c-0.01-0.007-0.025-0.011-0.045-0.011c-0.067,0.023-0.142,0.049-0.222,0.076
			c-0.685,0.208-1.189,0.376-1.512,0.504l-0.03-0.066l1.058-0.528c-0.225,0.036-0.48,0.098-0.766,0.182
			c-0.165,0.054-0.392,0.124-0.681,0.212l0.025-0.066c0.356-0.174,0.725-0.386,1.104-0.634c-0.05-0.015-0.104-0.028-0.161-0.042
			c-0.131,0.038-0.284,0.08-0.458,0.127c-0.374,0.104-0.666,0.197-0.877,0.277l-0.026-0.07c0.175-0.111,0.331-0.193,0.469-0.247
			l-0.061-0.006c-0.229,0.099-0.536,0.209-0.922,0.334l-0.02-0.101c0.138-0.055,0.205-0.09,0.201-0.106
			c-0.198,0.043-0.312,0.026-0.343-0.051l0.686-0.397c0.07-0.041,0.141-0.082,0.212-0.121c-0.097-0.033-0.198-0.066-0.303-0.096
			c-0.013,0.006-0.027,0.012-0.04,0.016c-0.33,0.117-0.591,0.204-0.786,0.262l-0.015-0.111l0.454-0.272l-0.01-0.024
			c-0.303,0.061-0.745,0.18-1.325,0.357l-0.03-0.07c0.077-0.07,0.277-0.205,0.6-0.403c0.047-0.03,0.092-0.062,0.135-0.095
			c-0.104-0.031-0.207-0.062-0.307-0.097l-0.277,0.116c-0.128,0.084-0.307,0.178-0.54,0.281l-0.081-0.135
			c0.202-0.129,0.353-0.225,0.454-0.288c0.043-0.03,0.084-0.061,0.121-0.091c-0.037-0.006-0.073-0.018-0.106-0.029
			c-0.185,0.109-0.289,0.172-0.312,0.186c-0.255,0.107-0.489,0.105-0.7-0.005c0.046-0.067,0.146-0.183,0.296-0.348
			c0.021-0.023,0.039-0.046,0.055-0.065c-0.043-0.017-0.092-0.031-0.146-0.045c-0.101,0.061-0.218,0.125-0.353,0.196
			c-0.359,0.208-0.591,0.343-0.695,0.403c-0.154-0.285-0.05-0.571,0.312-0.857c-0.057-0.023-0.114-0.045-0.171-0.064
			c-0.447,0.312-0.685,0.475-0.715,0.488l-0.031-0.075c0.068-0.098,0.2-0.255,0.398-0.474c0.017-0.014,0.028-0.028,0.035-0.045
			c-0.063-0.023-0.132-0.049-0.206-0.076c-0.037,0.033-0.08,0.072-0.126,0.115c-0.249,0.239-0.381,0.361-0.398,0.368
			c-0.098,0.037-0.147,0.056-0.151,0.056c-0.003-0.007-0.014-0.02-0.031-0.041c0.101-0.144,0.245-0.344,0.434-0.6
			c-0.05-0.016-0.099-0.033-0.146-0.05c-0.077-0.026-0.156-0.056-0.237-0.085c-0.158,0.141-0.272,0.227-0.343,0.256
			c-0.074,0.037-0.112,0.019-0.116-0.055c0-0.078-0.037-0.098-0.111-0.061c-0.003,0-0.006,0.03-0.01,0.09
			c-0.041,0.044-0.176,0.035-0.408-0.025c0.023-0.114,0.096-0.277,0.217-0.488c-0.118-0.044-0.234-0.089-0.348-0.137
			c-0.266,0.275-0.414,0.43-0.444,0.465l-0.116,0.02c-0.01-0.02-0.002-0.063,0.025-0.131c0.013-0.054,0.012-0.086-0.005-0.096
			c-0.114,0.07-0.18,0.109-0.196,0.115c-0.06,0.027-0.119,0.034-0.176,0.021c-0.061,0.095-0.114,0.179-0.161,0.251
			c-0.037,0.478-0.076,0.891-0.116,1.24c0.075,0.18,0.211,0.604,0.41,1.275h0.003c0,0.047,0,0.098,0,0.15
			c-0.017,0.344,0.11,0.826,0.383,1.452c0.292,0.708,0.448,1.241,0.468,1.597c0.037,0.648-0.087,1.397-0.373,2.248
			c-0.309,0.859-0.662,1.44-1.058,1.744c-0.232,0.164-0.431,0.145-0.595-0.057c-0.437-0.582-0.575-1.144-0.414-1.688
			c0.262-0.453,0.412-0.707,0.449-0.762c0.134-0.248,0.204-0.661,0.207-1.239c-0.003-0.534-0.454-1.134-1.351-1.799
			c-0.192-0.022-0.375-0.023-0.549-0.003v0.003c-0.615,1.183-0.903,2.463-0.867,3.84c0.041,2.016-0.525,3.446-1.698,4.293
			c0.033,0.653,0.06,1.225,0.083,1.714c0.012,0.258,0.023,0.493,0.033,0.705c-0.094,0.413-0.083,0.717,0.035,0.912
			c0.124-0.04,0.269-0.076,0.433-0.105c0.417-0.102,0.816-0.116,1.2-0.046c0.409,0.054,0.673,0.177,0.791,0.368
			c0.118,0.207,0.175,0.479,0.172,0.811c-0.003,0.191-0.036,0.355-0.096,0.489c0.202,0.048,0.381,0.2,0.54,0.458
			c0.097,0.166,0.151,0.338,0.161,0.52c0.026,0.296-0.089,0.521-0.348,0.681c-0.01,0-0.019,0-0.026,0
			c-0.056,0.12-0.157,0.224-0.302,0.307c-0.165,0.107-0.336,0.187-0.514,0.237c-0.154-0.138-0.376-0.224-0.665-0.257
			c-0.289-0.01-0.548-0.04-0.776-0.091c-0.396-0.16-0.776-0.301-1.139-0.418c-0.101-0.091-0.206-0.191-0.317-0.303
			c-0.312-0.339-0.538-0.569-0.675-0.69c-0.061-0.047-0.121-0.097-0.181-0.151c-0.336,0.088-0.68-0.119-1.033-0.619
			c-0.101-0.188-0.171-0.889-0.211-2.102h-0.003c0.004-0.413,0.004-0.628,0.003-0.645c-0.003-0.02-0.005-0.041-0.008-0.061
			c-0.074-0.668-0.128-1.212-0.164-1.633c-0.107-0.742-0.242-1.656-0.403-2.741c-0.262-1.706-0.396-2.634-0.403-2.782
			c0.003-0.442,0.077-0.871,0.222-1.284c0.135-0.346,0.289-0.587,0.463-0.721c0.161-0.358,0.432-0.95,0.812-1.773
			c0.047-0.077,0.272-0.636,0.675-1.673c-0.087-0.057-0.143-0.125-0.167-0.201c0.003-0.155-0.013-0.256-0.05-0.303
			c0.061-0.014,0.158,0.023,0.292,0.111c0.023,0.013,0.043,0.026,0.061,0.04c0.107-0.269,0.213-0.513,0.317-0.731
			c-0.077-0.084-0.139-0.189-0.187-0.316c-0.09-0.217-0.125-0.363-0.105-0.444c0.023-0.101,0.042-0.149,0.055-0.146
			c0.003,0.006,0.003,0.02,0,0.04l0.101,0.01c0.097,0.091,0.188,0.235,0.271,0.434c0.013,0.03,0.027,0.062,0.04,0.096
			c0.101-0.185,0.204-0.35,0.308-0.493c0.074-0.088,0.16-0.163,0.257-0.228c-0.091-0.138-0.168-0.313-0.232-0.528
			c-0.118-0.4-0.163-0.654-0.136-0.762c0.026-0.104,0.045-0.159,0.056-0.166l0.01,0.02c0.017,0,0.027-0.008,0.03-0.024
			c0.094,0.067,0.193,0.321,0.297,0.761c0.027,0.101,0.054,0.195,0.081,0.282c0.054-0.215,0.107-0.421,0.161-0.62
			c0.618-3.57,2.873-5.32,6.763-5.25c3.89,0.064,6.433,0.184,7.628,0.357c1.115,0.164,1.818,0.296,2.106,0.394
			c0.659,0.229,1.737,0.456,3.236,0.685c0.541,0.084,1.034,0.165,1.48,0.242c-0.365-0.343-0.559-1.097-0.579-2.263
			c-0.026-1.165,0.12-2.56,0.439-4.183c0.315-1.625,0.602-2.84,0.861-3.643c0.251-0.809,0.457-1.493,0.614-2.051
			c0.158-0.564,0.482-1.258,0.973-2.081c0.015-0.023,0.029-0.048,0.046-0.071c-0.182-0.547-0.334-1.104-0.453-1.672
			c-0.117-0.881-0.018-1.869,0.301-2.969c0.119-0.423,0.261-0.829,0.429-1.219c0.108-0.518,0.185-0.998,0.232-1.441
			c0.048-0.41,0.174-0.869,0.383-1.376c0.249-0.601,0.569-1.155,0.964-1.663C108.062,115.481,108.601,114.986,109.2,114.609
			L109.2,114.609z"/>
	</g>
	<g id="Layer_3_5_">
		<path id="path19_2_" fill="#020202" d="M98.864,178.937c0.356-0.121,0.748-0.2,1.174-0.235c0.43-0.042,0.654-0.066,0.67-0.076
			c0.935-0.316,1.648-0.479,2.142-0.49c0.504,0,0.99-0.08,1.461-0.241c0.275-0.175,0.443-0.272,0.504-0.292
			c0.299-0.104,0.56-0.143,0.781-0.115c0.339,0.076,1.947-0.314,4.822-1.174c0.279,3.504-0.771,4.877-3.154,4.121l-0.061,0.07
			c-0.638-0.08-1.148-0.117-1.532-0.111c-0.567,0.004-0.901-0.015-1.002-0.056c-0.326-0.124-0.657-0.14-0.993-0.045
			c-0.564,0.155-0.855,0.23-0.872,0.228c-0.124,0.016-0.493,0.025-1.108,0.025c-0.523,0.003-0.816,0.014-0.877,0.034
			c-0.007,0.007-0.107,0.081-0.302,0.222c-0.212,0.151-0.343,0.235-0.393,0.252c-0.007,0-0.205,0.041-0.595,0.121
			c-0.423-0.02-0.722-0.296-0.897-0.826C98.361,179.559,98.437,179.088,98.864,178.937L98.864,178.937z"/>
	</g>
	<g id="Layer_8_3_">
		<path id="path22" fill="#020202" d="M101.752,179.621c0.619-0.153,1.208-0.277,1.769-0.372c0.558-0.095,0.849-0.147,0.871-0.161
			c0.475-0.191,0.906-0.35,1.296-0.474c0.293-0.118,0.555-0.204,0.786-0.262c0.111-0.023,0.215-0.044,0.312-0.062
			c0.508-0.053,0.975-0.184,1.401-0.393c0.04-0.027,0.081-0.052,0.12-0.075l0.549-0.196c0.303-0.118,0.846-0.463,1.628-1.033
			c0.077-0.074,0.157-0.151,0.241-0.232c0.183-0.211,0.379-0.441,0.591-0.689c0.066-0.081,0.136-0.162,0.206-0.242
			c0.266-0.319,0.553-0.667,0.862-1.044c2.187,2.752,2.083,4.478-0.312,5.177l-0.011,0.09c-0.578,0.295-1.021,0.553-1.33,0.771
			c-0.003,0-0.006,0.001-0.006,0.005c-0.084,0.047-0.164,0.091-0.241,0.131c-0.419,0.139-0.685,0.207-0.796,0.207
			c-0.41-0.007-0.751,0.093-1.022,0.297c-0.095,0.068-0.177,0.13-0.247,0.188c-0.07,0.051-0.133,0.098-0.191,0.141
			c-0.017,0.014-0.035,0.027-0.056,0.041c-0.017-0.018-0.032-0.033-0.045-0.046c-0.063,0.098-0.204,0.153-0.419,0.171
			c-0.211,0.014-0.479,0.016-0.807,0.005c-0.322-0.01-0.645-0.073-0.967-0.191c-0.088-0.032-0.17-0.054-0.246-0.06
			c-0.253-0.027-0.452,0.025-0.6,0.155c-0.223,0.188-0.363,0.295-0.425,0.318c-0.017,0.003-0.268,0.073-0.756,0.211
			c-1.625-0.157-2.545-0.555-2.761-1.188C100.936,180.168,101.138,179.773,101.752,179.621L101.752,179.621z"/>
	</g>
</g>
</svg>
