<?xml version="1.0" encoding="utf-8"?>
<!-- Generator: Adobe Illustrator 15.0.0, SVG Export Plug-In . SVG Version: 6.00 Build 0)  -->
<svg version="1.2" baseProfile="tiny" id="Layer_1" xmlns="http://www.w3.org/2000/svg" xmlns:xlink="http://www.w3.org/1999/xlink"
	 x="0px" y="0px" width="200px" height="200px" viewBox="0 0 200 200" overflow="inherit" xml:space="preserve">
<g>
	<g id="Layer_6_7_">
		<path id="path5_11_" fill="#010101" d="M92.64,48.011c0.248-0.203,0.555-0.324,0.922-0.365c0.102-0.1,0.211-0.201,0.327-0.305
			c0.089-0.067,0.18-0.138,0.273-0.211c0.131-0.096,0.267-0.193,0.407-0.29c0.077-0.175,0.298-0.39,0.66-0.647
			c0.409-0.29,0.945-0.594,1.611-0.913c0.524-0.25,1.035-0.463,1.531-0.642c0.293-0.218,0.554-0.43,0.786-0.637
			c0,0.006,0.006,0.014,0.019,0.024c0.015,0.009,0.022,0.021,0.022,0.037c-0.152,0.125-0.382,0.301-0.688,0.529
			c0.062-0.025,0.126-0.049,0.188-0.07c0.634-0.21,1.112-0.313,1.438-0.313c0.82-0.01,1.391-0.017,1.713-0.019
			c0.146-0.003,0.282-0.003,0.407,0c-0.193-0.209-0.454-0.314-0.782-0.314c-0.324,0-0.614,0.036-0.87,0.108
			c0.137-0.056,0.281-0.102,0.431-0.136c0.442-0.101,0.826-0.08,1.146,0.061c0.163,0.075,0.287,0.169,0.371,0.285
			c0.003,0,0.007,0,0.009,0c0.284-0.04,0.561-0.029,0.829,0.033c-0.072,0.01-0.143,0.019-0.215,0.028
			c0.076,0.013,0.143,0.03,0.206,0.052c0.128-0.019,0.265-0.039,0.411-0.057c0,0.003,0.009,0.011,0.023,0.023
			c0.013,0.01,0.019,0.024,0.019,0.042l-0.173,0.122c0.024,0.019,0.049,0.038,0.07,0.057c0.025,0.021,0.05,0.048,0.076,0.079
			c0.281-0.047,0.618-0.085,1.01-0.117l-0.045,0.062l-0.077,0.046c0.226-0.024,0.438-0.001,0.643,0.07
			c0.047,0.018,0.091,0.038,0.132,0.056c0.058-0.003,0.104-0.004,0.135-0.004c-0.01,0.016-0.025,0.033-0.047,0.051
			c0.236,0.128,0.441,0.326,0.622,0.594c0.257-0.009,0.534-0.017,0.829-0.023c0.019-0.116,0.042-0.161,0.065-0.136
			c0.021,0.06,0.035,0.088,0.047,0.088l-0.022,0.066c-0.223,0.05-0.495,0.105-0.82,0.164c0.004,0.003,0.006,0.006,0.01,0.01
			c0.106,0.021,0.176,0.04,0.211,0.056c-0.146,0.027-0.336,0.068-0.565,0.121c0.441-0.015,0.717,0.02,0.822,0.104
			c0.122,0.091,0.281,0.139,0.479,0.146c-0.094,0.034-0.326,0.077-0.698,0.126c0.516,0.122,0.845,0.289,0.988,0.501
			c0.095,0.029,0.167,0.055,0.22,0.079c-0.088,0.029-0.249,0.069-0.487,0.122l0.09,0.024c0.225,0.069,0.396,0.124,0.516,0.164
			c0.209,0.05,0.33,0.104,0.361,0.16c0.021,0.006,0.041,0.016,0.059,0.027l-0.045,0.009c0,0.075-0.008,0.121-0.024,0.136
			c0.104,0.028,0.177,0.05,0.225,0.065c0.028,0.01,0.044,0.018,0.052,0.024c-0.004,0.015,0.024,0.035,0.084,0.06
			c-0.068,0.019-0.16,0.025-0.276,0.019c-0.094-0.003-0.144-0.002-0.149,0.004c0.125,0.091,0.283,0.179,0.478,0.267
			c0.125,0.056,0.196,0.116,0.216,0.178l-0.071,0.047c-0.029-0.019-0.116-0.035-0.257-0.047c0.172,0.106,0.364,0.217,0.576,0.333
			c0.384,0.206,0.576,0.411,0.576,0.614c0,0.14-0.018,0.23-0.053,0.267c-0.011,0.012-0.074,0.061-0.188,0.145
			c0.316,0.088,0.647,0.125,0.998,0.113c0,0.031-0.068,0.057-0.205,0.075c-0.083,0.006-0.169,0.012-0.264,0.014
			c0,0.028-0.008,0.06-0.022,0.094l-0.024,0.042c-0.237-0.038-0.45-0.068-0.641-0.094c0.031,0.039,0.059,0.077,0.084,0.118h-0.075
			c0.375,0.119,0.666,0.267,0.876,0.445l-0.132,0.023c-0.03-0.022-0.136-0.064-0.313-0.126c0.021,0.05,0.043,0.106,0.061,0.168
			c0.097,0.34,0.165,0.557,0.202,0.646c0.128,0.3,0.322,0.59,0.585,0.871c-0.006,0.01-0.071,0.014-0.196,0.014
			c-0.087,0-0.14,0.03-0.154,0.089c0.225,0.041,0.416,0.029,0.576-0.038c-0.02,0.028-0.065,0.06-0.141,0.094
			c-0.038,0.015-0.073,0.029-0.108,0.042c-0.096-0.003-0.208-0.02-0.332-0.047c0.002,0.075,0.04,0.217,0.113,0.427
			c0.074,0.211,0.11,0.355,0.11,0.43c0,0.104-0.006,0.16-0.018,0.169c0,0.003-0.04,0.01-0.117,0.022
			c-0.017-0.006-0.033-0.038-0.057-0.098c-0.037-0.053-0.101-0.08-0.188-0.08c-0.028,0-0.053,0-0.074,0
			c0.003,0.009,0.005,0.021,0.005,0.033c0.044,0.072,0.086,0.146,0.126,0.225c0.142,0.268,0.212,0.472,0.212,0.608
			c0,0.113-0.009,0.21-0.024,0.295c0.097,0.324,0.175,0.611,0.234,0.861c0.185,0.134,0.358,0.254,0.524,0.36
			c-0.168-0.059-0.33-0.123-0.482-0.192c0.1,0.418,0.15,0.717,0.15,0.895c0,0.197-0.011,0.333-0.027,0.408
			c-0.023,0.075-0.051,0.137-0.086,0.187v-0.023c-0.094-0.655-0.166-1.172-0.221-1.549c-0.227-0.109-0.437-0.23-0.627-0.361
			c0.153,0.393,0.286,0.718,0.398,0.974v0.397c0.025,0.088,0.039,0.157,0.042,0.207c0.109,0.265,0.2,0.397,0.271,0.397
			c0.051,0,0.088-0.002,0.109-0.008c-0.068,0.078-0.166,0.119-0.286,0.122c-0.028-0.057-0.063-0.146-0.108-0.268
			c-0.002,0.013-0.012,0.042-0.028,0.089c-0.027-0.006-0.058-0.013-0.088-0.024c0.015,0.085,0.022,0.169,0.022,0.253
			c0,0.066-0.004,0.126-0.014,0.183c0.128,0.026,0.23,0.05,0.305,0.075c-0.016,0.022-0.125,0.046-0.327,0.071
			c-0.007,0.012-0.013,0.027-0.019,0.046c-0.017,0.042-0.035,0.076-0.057,0.108V56.88c-0.076,0.006-0.164,0.014-0.268,0.023
			c-0.168,0.012-0.315,0.022-0.439,0.032c0.071,0.128,0.107,0.234,0.107,0.318c-0.018,0.216-0.071,0.428-0.153,0.637
			c-0.062,0.131-0.124,0.24-0.192,0.328c0.2-0.059,0.322-0.08,0.369-0.06l0.02,0.064c-0.023,0.02-0.247,0.129-0.676,0.328
			c-0.175,0.078-0.309,0.145-0.402,0.202c0.029,0.633,0.083,1.189,0.163,1.671c0.057,0.315,0.108,0.65,0.155,1.007
			c0.02,0.388,0.053,0.837,0.101,1.348c-0.005,0.042-0.006,0.082-0.006,0.122c0.009,0.027,0.018,0.055,0.028,0.084
			c0.032,0.342,0.073,0.71,0.118,1.104h0.256c0.436,1.234,0.925,2.451,1.469,3.652c0.437,0.961,0.848,1.775,1.237,2.442
			c0.311,1.72,0.562,3.452,0.754,5.196c0.192,1.732,0.291,3.127,0.291,4.186c0,0.527,0.006,0.896,0.017,1.109
			c-0.011,0.068-0.062,0.254-0.153,0.558c0.007,0.062,0.011,0.124,0.015,0.183c-0.257,1.473-0.583,3.09-0.979,4.852
			c-1.177,5.274-1.689,8.777-1.536,10.507c0.122,1.349,0.929,3.907,2.421,7.675c0.78,0.809,1.275,1.458,1.483,1.947
			c0.141,0.318,0.34,1.109,0.597,2.369c0.268,1.33,0.401,2.25,0.401,2.76c0,0.199-0.115,0.746-0.347,1.643
			c-0.244,0.934-0.527,1.811-0.853,2.631v0.108h-0.036c0-0.003,0-0.009,0-0.015c-0.082,0.207-0.167,0.409-0.258,0.607
			c-0.136,0.302-0.272,0.587-0.412,0.858c-0.054,0.287-0.128,0.468-0.22,0.543l-0.006-0.014c-0.028,0.103-0.066,0.196-0.116,0.282
			c-0.035,0.061-0.052,0.051-0.052-0.034c0-0.019,0-0.04,0-0.065c-0.031,0.057-0.065,0.113-0.104,0.174
			c-0.006,0.059-0.012,0.115-0.019,0.173l-0.037-0.028v-0.051c-0.621,0.988-1.302,1.729-2.042,2.219
			c-0.264,0.506-0.588,0.76-0.965,0.76c-0.228,0-0.428,0.146-0.6,0.443c-0.218,0.396-0.452,0.68-0.702,0.848
			c-0.087-0.016-0.164-0.086-0.234-0.215c0.026-0.156,0.02-0.153-0.019,0.01c-0.036,0.162-1.425-0.271-4.167-1.298
			c-0.097,0.162-0.18,0.409-0.248,0.739c-0.172,0.762-0.319,1.254-0.439,1.477c-0.381,0.708-0.981,1.062-1.803,1.062
			c-0.872,0-1.523-0.297-1.953-0.891c-0.035,0.564-0.073,1.271-0.116,2.117c-0.191,1.651-0.56,2.477-1.106,2.477
			c-0.375,0-0.607-0.662-0.696-1.985c-0.029-0.466-0.035-1.206-0.02-2.224c0.02-1.654,0.229-3.336,0.628-5.043
			c0.103-0.422,0.193-0.787,0.271-1.096h-0.014c-0.14,0.068-0.3,0.103-0.477,0.103c-0.456,0-0.875-0.658-1.256-1.976
			c-0.065-0.172-0.132-0.342-0.196-0.506c-0.032,0.408-0.051,0.82-0.057,1.236h-0.1c-0.043-0.15-0.064-0.369-0.064-0.656
			c0-0.146,0-0.268,0-0.365c-0.108,0.709-0.188,1.189-0.233,1.443h-0.043c-0.012-0.029-0.023-0.054-0.032-0.076
			c0,0.006,0,0.011,0,0.015c-0.02-0.019-0.028-0.039-0.028-0.062l-0.023-0.116c0.072-0.644,0.128-1.136,0.168-1.476
			c0.032-0.26,0.065-0.498,0.104-0.716c-0.024-0.06-0.05-0.117-0.07-0.173c-0.053,0.312-0.129,0.765-0.225,1.357l-0.023-0.004
			c-0.017,0.133-0.024,0.213-0.028,0.238c-0.025,0-0.042-0.011-0.05-0.033c0.014-0.104,0.027-0.199,0.036-0.291
			c-0.007-0.047-0.009-0.084-0.009-0.111c0-0.084,0.046-0.381,0.139-0.891c0.023-0.168,0.044-0.327,0.066-0.478
			c-0.399-0.955-0.801-1.827-1.209-2.618c-0.024-0.036-0.047-0.07-0.068-0.102c0-0.014,0-0.022,0-0.029
			c-0.275-0.523-0.548-1.01-0.82-1.459c-0.928-1.523-1.813-3.699-2.659-6.523c-0.456-1.521-0.775-3.268-0.956-5.24
			c-0.152-1.039-0.203-2.184-0.154-3.432c0.025-0.541,0.012-0.957-0.038-1.25c-0.049-0.294-0.06-0.66-0.031-1.102
			c0.029-0.439,0.084-0.957,0.157-1.549c-0.008-0.066-0.018-0.127-0.026-0.184l-0.403-1.947c-0.021,0.256-0.031,0.445-0.028,0.566
			h-0.036c-0.015-0.01-0.021-0.01-0.023,0l-0.024-0.094c-0.022-0.121-0.015-0.424,0.024-0.908l-0.285-1.373
			c-0.032,0.098-0.078,0.174-0.139,0.23l-0.003-0.023c-0.044-0.193-0.075-0.423-0.094-0.688c0-0.01-0.004-0.021-0.015-0.033
			c-0.011-0.006-0.021-0.041-0.027-0.104c0-0.01,0.042-0.02,0.126-0.033c-0.009-0.018-0.02-0.037-0.028-0.057
			c0.047-0.143,0.129-0.328,0.244-0.557h-0.014c0.049-0.189,0.136-0.423,0.258-0.697l0.061-0.211
			c-0.007-0.135-0.009-0.271-0.005-0.412c-0.128,0.378-0.252,0.602-0.37,0.67c0.025-0.084,0.051-0.164,0.075-0.239
			c0.116-0.077,0.196-0.191,0.243-0.341c0.017-0.057,0.023-0.232,0.023-0.525c0-0.04-0.002-0.081-0.005-0.121
			c0.017-0.031,0.027-0.059,0.038-0.085c-0.029-0.243-0.057-0.466-0.084-0.669c-0.011,0.01-0.018,0.018-0.024,0.027
			c0.007-0.012,0.013-0.024,0.02-0.037c-0.026-0.175-0.054-0.334-0.085-0.478c0-0.087-0.007-0.223-0.022-0.407
			c0.003-0.075,0.012-0.156,0.022-0.244c0.019-0.059,0.038-0.119,0.057-0.178h-0.099c0.053-0.131,0.108-0.268,0.169-0.412
			c-0.05-0.006-0.101-0.012-0.149-0.019c0.047-0.302,0.104-0.667,0.172-1.096c-0.106-0.149-0.184-0.285-0.234-0.407
			c-0.252-0.619-0.454-1.268-0.608-1.947c-0.053-0.238-0.097-0.468-0.13-0.689c0.105-0.723,0.203-1.259,0.29-1.605
			c0.199-0.8,0.777-2.304,1.732-4.514c0.007-0.016,0.014-0.033,0.023-0.053c0.231-0.23,0.502-0.668,0.814-1.314
			c0.125-0.1,0.261-0.211,0.408-0.334c0.724-0.595,1.276-1.143,1.661-1.643c0.344-0.592,0.677-1.061,0.997-1.4
			c0.588-0.633,1.379-1.031,2.376-1.194c-0.051-0.243,0.142-0.562,0.58-0.96c-0.004-0.021-0.008-0.044-0.015-0.07h-1.006
			c-0.02,0.022-0.042,0.042-0.067,0.057c-0.011-0.015-0.023-0.034-0.038-0.057h-0.046c-0.04-0.211-0.078-0.403-0.112-0.575
			c-0.019,0.006-0.036,0.016-0.056,0.029c-0.009-0.082-0.021-0.177-0.036-0.287c-0.173,0.145-0.348,0.255-0.526,0.333
			c-0.013,0.057-0.031,0.12-0.055,0.192c-0.047,0.127-0.1,0.23-0.155,0.304c-0.003,0.002-0.004,0.003-0.005,0.004h-0.097
			c-0.052-0.083-0.102-0.207-0.147-0.369c-0.059,0.006-0.118,0.009-0.179,0.009c-0.098,0-0.192-0.005-0.28-0.014
			c-0.424,0.203-0.95,0.305-1.577,0.305c-0.213,0-0.408-0.05-0.586-0.15c-0.005,0.069-0.042,0.096-0.107,0.084
			c-0.037-0.003-0.072-0.019-0.107-0.047c-0.046-0.043-0.096-0.155-0.145-0.333c-0.05-0.06-0.098-0.12-0.146-0.183
			c-0.056,0-0.108,0-0.159,0c-0.035,0-0.07,0-0.107,0c0.044,0.175,0.064,0.272,0.064,0.291c0,0.105-0.006,0.183-0.018,0.229
			c-0.01,0.032-0.024,0.067-0.047,0.108l-0.158-0.023c-0.004-0.016-0.056-0.228-0.155-0.637c-0.055-0.009-0.108-0.021-0.164-0.033
			c0.012,0.034,0.021,0.068,0.027,0.103l-0.019,0.1h-0.069c-0.028-0.073-0.059-0.152-0.09-0.24c-0.16-0.05-0.317-0.112-0.478-0.188
			c-0.009,0.131-0.027,0.259-0.057,0.384c-0.104-0.017-0.161-0.047-0.177-0.094c-0.007-0.103-0.023-0.251-0.047-0.444
			c-0.148-0.087-0.297-0.19-0.45-0.309c-0.175-0.141-0.332-0.285-0.469-0.431c-0.071-0.044-0.145-0.088-0.22-0.131
			c-0.495-0.303-0.895-0.623-1.194-0.96h-0.004c-0.01-0.016-0.021-0.03-0.033-0.042c-0.072-0.081-0.216-0.203-0.431-0.365
			c-0.468-0.34-0.759-0.717-0.875-1.128c-0.028-0.091-0.057-0.172-0.085-0.244c0.062-0.101,0.141-0.185,0.234-0.253
			c-0.094-0.231-0.161-0.434-0.202-0.609c0.369-0.256,0.675-0.649,0.919-1.179c0.036-0.087,0.072-0.176,0.106-0.263
			c0.02-0.021,0.038-0.042,0.057-0.06c0.368-0.373,0.813-0.656,1.334-0.853c0.181-0.072,0.416-0.208,0.703-0.408
			c0.262-0.181,0.46-0.315,0.594-0.402c0.339-0.437,0.692-0.831,1.064-1.185c0-0.019,0-0.034,0-0.047
			c-0.016-0.222,0.11-0.513,0.38-0.875c0.111-0.138,0.209-0.258,0.293-0.362c0.032-0.162,0.07-0.339,0.112-0.533
			c0.132-0.628,0.255-1.16,0.371-1.597c-0.415-0.733-0.623-1.168-0.623-1.302c0-0.078,0.004-0.154,0.015-0.225
			c-0.011-0.072-0.015-0.145-0.015-0.22C92.199,48.571,92.347,48.252,92.64,48.011z M96.685,45.582
			c0.014-0.035,0.026-0.062,0.043-0.084l0.023-0.024c-0.159,0-0.264,0.035-0.313,0.104l0.225,0.06
			C96.664,45.631,96.674,45.612,96.685,45.582z M99.804,44.621h0.006c0.13-0.094,0.262-0.163,0.393-0.206
			c0-0.009-0.104-0.014-0.314-0.014c-0.214,0-0.331,0.005-0.351,0.014l0.064,0.042C99.709,44.517,99.774,44.571,99.804,44.621z
			 M99.091,44.789c0.139-0.037,0.276-0.069,0.414-0.098c-0.159-0.022-0.306,0.005-0.437,0.08
			C99.078,44.78,99.086,44.786,99.091,44.789z M97.313,45.352l0.027,0.01c0.026-0.017,0.048-0.034,0.071-0.052
			c0.097-0.065,0.188-0.127,0.276-0.188c-0.088,0.007-0.18,0.025-0.276,0.057c-0.092,0.037-0.155,0.072-0.192,0.106
			C97.235,45.312,97.267,45.333,97.313,45.352z M95.436,46.279c-0.01,0.01-0.021,0.023-0.033,0.042
			c0.013-0.009,0.023-0.015,0.033-0.018V46.279z M95.729,46.096c-0.011,0.016-0.022,0.036-0.031,0.061
			c0.049-0.031,0.1-0.058,0.149-0.079c0.003-0.009,0.007-0.018,0.009-0.024v-0.018C95.785,46.069,95.742,46.09,95.729,46.096z
			 M96.105,45.941c0.097-0.046,0.19-0.093,0.285-0.14C96.266,45.81,96.171,45.857,96.105,45.941z M103.17,44.457
			c-0.018,0.004-0.036,0.007-0.057,0.01c0.011,0.004,0.021,0.005,0.029,0.005L103.17,44.457z M103.034,44.293
			c-0.04,0-0.081,0.002-0.126,0.005c-0.09,0.013-0.179,0.026-0.268,0.042l0.015,0.015c0.013,0.018,0.021,0.038,0.029,0.06
			c0.152-0.028,0.335-0.059,0.548-0.094C103.165,44.303,103.101,44.293,103.034,44.293z M104.158,44.714
			c0.044-0.018,0.09-0.035,0.136-0.051c0.069-0.028,0.136-0.049,0.201-0.061c0.038-0.022,0.071-0.042,0.099-0.06l0.046-0.024
			c-0.236,0.055-0.444,0.107-0.626,0.154C104.062,44.685,104.112,44.699,104.158,44.714L104.158,44.714z M103.545,44.355
			c-0.003,0.002-0.008,0.005-0.014,0.008c0.019,0.01,0.038,0.019,0.057,0.028C103.59,44.373,103.577,44.36,103.545,44.355z
			 M103.531,44.546c0.015,0.003,0.033,0.006,0.051,0.009c-0.008-0.009-0.021-0.019-0.032-0.029L103.531,44.546L103.531,44.546z
			 M103.504,44.5c0.002-0.003,0.006-0.004,0.009-0.004c-0.034-0.031-0.067-0.058-0.104-0.08c-0.053,0.025-0.106,0.05-0.157,0.075
			c0.084,0.013,0.166,0.029,0.252,0.047V44.5z M105.984,45.543c-0.056,0.009-0.115,0.02-0.178,0.028
			c0.153-0.003,0.267-0.008,0.337-0.014C106.091,45.551,106.038,45.546,105.984,45.543z M105.942,45.085
			c-0.124-0.119-0.286-0.209-0.482-0.272c-0.065,0.047-0.152,0.1-0.262,0.159c-0.06,0.038-0.123,0.074-0.192,0.108
			c0.144,0.075,0.285,0.158,0.422,0.248c0.079,0.012,0.15,0.026,0.216,0.042c0.153-0.017,0.315-0.027,0.487-0.033
			C106.08,45.241,106.019,45.156,105.942,45.085L105.942,45.085z M104.594,44.879c0.035,0.015,0.066,0.029,0.094,0.042
			c0.022-0.003,0.044-0.007,0.066-0.01c-0.016,0.007-0.031,0.013-0.047,0.02c0.071,0.031,0.143,0.065,0.211,0.103
			c0.093-0.047,0.204-0.108,0.332-0.182C104.994,44.86,104.775,44.87,104.594,44.879z M106.247,45.932
			c0.021,0.022,0.038,0.042,0.062,0.061c0.162-0.01,0.264-0.015,0.304-0.018C106.476,45.958,106.354,45.944,106.247,45.932z
			 M108.171,47.257c0.011,0.003,0.02,0.006,0.03,0.009c-0.004-0.002-0.006-0.006-0.006-0.009H108.171z M108.201,47.693
			c0.017,0.012,0.036,0.025,0.054,0.042c0.02,0,0.034,0.002,0.047,0.005L108.201,47.693z M108.809,48.409l-0.005,0.005
			c0.021,0.022,0.04,0.046,0.056,0.075c0.062,0.012,0.123,0.022,0.179,0.028l-0.089-0.042
			C108.907,48.453,108.861,48.431,108.809,48.409z M108.915,48.204c-0.011,0.009,0.075,0.151,0.259,0.425
			c-0.035,0.019-0.095,0.042-0.183,0.071c0.059,0.14,0.083,0.285,0.07,0.434c0.088,0.032,0.175,0.063,0.262,0.095
			c0.056-0.069,0.092-0.114,0.103-0.136c0.041-0.072,0.062-0.156,0.062-0.252c0-0.163-0.09-0.319-0.271-0.469
			c-0.126-0.108-0.289-0.199-0.488-0.271c0.179,0.076,0.269,0.125,0.269,0.15C108.951,48.213,108.926,48.197,108.915,48.204
			L108.915,48.204z M108.842,49.051c-0.007-0.013-0.013-0.022-0.02-0.028c-0.009-0.009-0.023-0.02-0.041-0.029l-0.054,0.02
			C108.766,49.023,108.804,49.035,108.842,49.051z M109.643,50.212c0.031,0.031,0.049,0.072,0.056,0.122
			c0.028,0.009,0.048,0.014,0.057,0.014v-0.202c-0.06-0.062-0.136-0.118-0.225-0.168l-0.023,0.103
			c-0.035,0.035-0.095,0.065-0.177,0.094c0.111,0.05,0.2,0.089,0.266,0.116c-0.004-0.012-0.005-0.024-0.005-0.036
			C109.588,50.216,109.604,50.202,109.643,50.212L109.643,50.212z M109.439,49.969c-0.018-0.013-0.034-0.026-0.05-0.038
			c0.053,0.018,0.1,0.034,0.141,0.046c-0.083-0.046-0.18-0.088-0.296-0.122c-0.084-0.029-0.171-0.047-0.257-0.057
			c0.062,0.078,0.114,0.158,0.154,0.238C109.216,50.035,109.319,50.012,109.439,49.969z M109.273,50.423h-0.011
			c0.004,0.028,0.005,0.06,0.005,0.094c0.047,0.015,0.097,0.026,0.15,0.032l-0.066-0.069
			C109.33,50.46,109.303,50.442,109.273,50.423z M109.086,50.428c0.029,0.018,0.06,0.035,0.088,0.051v-0.057L109.086,50.428z
			 M109.01,50.01c-0.04-0.071-0.089-0.142-0.146-0.21c-0.002,0.01-0.008,0.02-0.013,0.033c0.005,0.022,0.012,0.043,0.019,0.065
			c0.05,0.05,0.093,0.085,0.126,0.104C109.002,50.004,109.007,50.007,109.01,50.01L109.01,50.01z M109.867,50.816
			c-0.011,0.122,0.045,0.254,0.164,0.398c0.09,0.112,0.197,0.208,0.321,0.291c-0.028-0.041-0.101-0.152-0.219-0.333
			c-0.113-0.174-0.194-0.287-0.249-0.337L109.867,50.816z M109.562,50.742c-0.057,0.019-0.089,0.043-0.098,0.075
			c0.018,0.024,0.058,0.048,0.115,0.07l0.086,0.019v-0.178C109.654,50.714,109.618,50.719,109.562,50.742z M109.197,51.439
			c-0.007-0.01-0.014-0.021-0.023-0.033c-0.01-0.006-0.021-0.011-0.033-0.013C109.159,51.408,109.179,51.423,109.197,51.439z
			 M109.591,52.221c0.013,0.009,0.026,0.021,0.043,0.037c-0.029-0.054-0.062-0.104-0.1-0.155c0.004,0.028,0.021,0.064,0.052,0.108
			C109.59,52.215,109.591,52.218,109.591,52.221z M109.778,52.1c0.073,0.13,0.141,0.235,0.197,0.313
			c0.118,0.166,0.229,0.264,0.337,0.295l0.022-0.019c-0.034-0.044-0.071-0.193-0.112-0.449c-0.078-0.215-0.238-0.291-0.477-0.225
			C109.756,52.04,109.769,52.067,109.778,52.1z M109.534,52.446c-0.04-0.025-0.089-0.047-0.145-0.066
			c0.013,0.044,0.028,0.092,0.046,0.146c0.026,0.024,0.047,0.047,0.066,0.07l0.139-0.02c-0.009-0.008-0.017-0.023-0.022-0.042
			c-0.007-0.006-0.012-0.014-0.019-0.024C109.578,52.486,109.556,52.464,109.534,52.446L109.534,52.446z M110.059,53.223
			c-0.021-0.068-0.046-0.136-0.07-0.202c-0.016-0.016-0.026-0.023-0.033-0.023c0,0.009-0.005,0.016-0.014,0.019
			c-0.002,0.003-0.006,0.004-0.009,0.004c-0.006,0.032-0.01,0.06-0.01,0.084c0.017,0.032,0.027,0.062,0.037,0.089
			c0.019,0.018,0.047,0.035,0.084,0.052L110.059,53.223z M110.021,54.295c0.113,0.09,0.223,0.179,0.328,0.262
			c-0.049-0.342-0.076-0.527-0.079-0.551c-0.003-0.01-0.006-0.021-0.01-0.034c-0.034,0.131-0.089,0.229-0.169,0.291
			C110.078,54.272,110.056,54.283,110.021,54.295z M109.596,53.936c0.08,0.072,0.159,0.14,0.238,0.206
			c0.025-0.023,0.054-0.052,0.085-0.089c0.084-0.1,0.14-0.19,0.167-0.272c-0.11,0.021-0.246,0.038-0.402,0.047
			c-0.033,0.009-0.065,0.026-0.093,0.051C109.593,53.894,109.596,53.913,109.596,53.936L109.596,53.936z M109.596,53.626
			l0.224,0.019l0.201-0.131c-0.171-0.106-0.274-0.16-0.313-0.16c-0.024,0.029-0.047,0.074-0.07,0.136
			C109.615,53.559,109.603,53.604,109.596,53.626L109.596,53.626z M109.694,54.398c0.005,0.015,0.009,0.029,0.013,0.042v-0.037
			c0-0.003,0-0.005-0.004-0.005S109.696,54.398,109.694,54.398z M109.876,55.012c0.068,0.174,0.128,0.33,0.179,0.463
			c-0.007-0.034-0.015-0.066-0.023-0.094c-0.041-0.159-0.111-0.396-0.212-0.712l-0.022,0.047c0,0.006-0.002,0.013-0.005,0.02
			C109.823,54.833,109.851,54.924,109.876,55.012z M109.122,54.848c-0.03,0.059-0.06,0.127-0.084,0.206
			c0.212,0.369,0.476,0.689,0.792,0.959c-0.074-0.24-0.143-0.425-0.212-0.552c-0.096-0.181-0.219-0.346-0.364-0.496
			C109.21,54.927,109.166,54.888,109.122,54.848L109.122,54.848z M109.502,54.951c-0.02,0.024-0.039,0.048-0.062,0.069
			c0.059,0.076,0.113,0.155,0.17,0.239c0.081,0.119,0.149,0.236,0.205,0.352c-0.1-0.24-0.199-0.454-0.299-0.641
			C109.509,54.964,109.504,54.957,109.502,54.951L109.502,54.951z M109.184,54.74c0.047,0.044,0.093,0.093,0.14,0.145
			c0.035,0.006,0.071,0.009,0.107,0.009c0.007,0,0.013,0,0.02,0c-0.057-0.072-0.114-0.162-0.174-0.271
			C109.242,54.658,109.211,54.696,109.184,54.74z M108.715,55.433c0.031,0.059,0.061,0.114,0.089,0.164
			c0.007-0.025,0.012-0.048,0.018-0.071c-0.03-0.065-0.06-0.128-0.088-0.187C108.727,55.374,108.721,55.404,108.715,55.433z
			 M109.038,56.172c0.021,0.188,0.036,0.33,0.042,0.427v0.004c0.059,0.003,0.117,0.008,0.174,0.014
			c-0.078-0.197-0.188-0.486-0.328-0.867c0,0.022-0.001,0.049-0.005,0.08C109,55.997,109.038,56.11,109.038,56.172L109.038,56.172z
			 M108.728,55.845c-0.021-0.047-0.042-0.096-0.064-0.146c-0.013,0.044-0.026,0.092-0.042,0.146
			c0.021,0.024,0.042,0.058,0.061,0.098l0.024-0.024C108.715,55.892,108.723,55.867,108.728,55.845L108.728,55.845z M109.132,55.315
			c-0.031-0.049-0.068-0.117-0.108-0.201c-0.006,0.03-0.014,0.062-0.022,0.094c0.034,0.047,0.07,0.09,0.106,0.131L109.132,55.315z
			 M109.207,56.051c-0.039-0.118-0.094-0.274-0.169-0.468c0.004,0.065,0.019,0.142,0.048,0.229
			C109.128,55.899,109.168,55.979,109.207,56.051z M109.571,55.995c-0.067-0.085-0.134-0.184-0.196-0.3
			c0,0.228-0.008,0.442-0.023,0.641c0.051,0.104,0.079,0.165,0.088,0.183l-0.041,0.047c-0.017-0.031-0.036-0.067-0.061-0.108
			c-0.004,0.057-0.008,0.112-0.019,0.165c0.261,0.031,0.479,0.062,0.656,0.093v-0.149c-0.027-0.116-0.054-0.225-0.085-0.327
			C109.759,56.175,109.654,56.095,109.571,55.995z M108.663,57.188c-0.056-0.016-0.086-0.023-0.089-0.023
			c0,0.215-0.007,0.369-0.023,0.459l-0.089-0.023c0.003-0.059,0.001-0.12-0.005-0.183c-0.003,0.012-0.008,0.023-0.013,0.032
			c0.009,0.163,0,0.315-0.029,0.46c-0.019,0.108-0.048,0.202-0.089,0.28c0.004,0.025,0.004,0.049,0,0.07
			c0.489-0.14,0.735-0.473,0.735-0.997c0-0.153-0.011-0.259-0.032-0.319c-0.047,0-0.087,0-0.123,0c-0.027,0-0.052,0-0.075,0
			c0.004,0.125-0.001,0.214-0.013,0.268C108.766,57.212,108.713,57.204,108.663,57.188L108.663,57.188z M108.64,56.945
			c0.022,0.044,0.044,0.088,0.066,0.132v-0.132C108.683,56.945,108.662,56.945,108.64,56.945z M110.021,56.098
			c-0.002-0.006-0.005-0.013-0.009-0.018c0.003,0.009,0.007,0.018,0.009,0.028V56.098z M92.812,63.304
			c-0.04,0.009-0.082,0.019-0.126,0.028c0.017,0.056,0.029,0.108,0.042,0.155c0.042,0.044,0.079,0.085,0.118,0.126
			c0-0.005,0-0.012,0-0.02C92.837,63.495,92.825,63.398,92.812,63.304z M96.302,62.916c-0.015,0.024-0.034,0.052-0.058,0.08
			c0.014,0.046,0.026,0.083,0.039,0.112c0.004-0.003,0.024-0.024,0.064-0.06C96.336,62.997,96.32,62.953,96.302,62.916z
			 M96.223,62.798c-0.007,0.003-0.013,0.006-0.02,0.01c0.007,0.021,0.012,0.043,0.015,0.065c0.015-0.019,0.026-0.036,0.037-0.052
			c-0.004-0.009-0.011-0.018-0.019-0.023C96.232,62.798,96.229,62.798,96.223,62.798z M93.465,63.164
			c-0.013,0.15-0.047,0.279-0.104,0.389c-0.044-0.032-0.073-0.068-0.09-0.112c-0.002-0.072-0.01-0.148-0.019-0.229
			c-0.006,0-0.013,0.001-0.019,0.004c-0.078,0.02-0.154,0.038-0.229,0.058c-0.002,0.187-0.029,0.328-0.08,0.421
			c0.035,0.034,0.069,0.069,0.104,0.104c0.568,0.03,0.927,0.046,1.076,0.046c0.263,0,0.497-0.037,0.708-0.113h-0.694
			c-0.03-0.019-0.065-0.042-0.102-0.07c-0.01,0.046-0.021,0.092-0.034,0.136l-0.065-0.043c0-0.065,0-0.127,0-0.188
			c-0.04-0.041-0.088-0.085-0.14-0.136c-0.006,0.038-0.011,0.07-0.014,0.1l-0.089-0.024c-0.011-0.036-0.036-0.125-0.08-0.272
			c-0.023-0.025-0.047-0.053-0.075-0.084C93.505,63.153,93.485,63.158,93.465,63.164L93.465,63.164z M93.801,63.234
			c0.044,0.044,0.081,0.083,0.113,0.117c-0.004-0.071-0.006-0.14-0.01-0.201c-0.031,0-0.064,0-0.099,0
			C93.806,63.181,93.804,63.208,93.801,63.234z M94.068,63.145c0,0.118-0.007,0.232-0.019,0.342c0.016,0.016,0.03,0.029,0.046,0.042
			c0.119,0.006,0.227,0.012,0.324,0.015c-0.113-0.088-0.169-0.197-0.169-0.329c0-0.018,0.002-0.043,0.004-0.074
			C94.196,63.14,94.133,63.141,94.068,63.145z M94.162,86.309c0-0.018,0-0.037,0-0.057c-0.002,0.02-0.006,0.039-0.01,0.057H94.162z"
			/>
	</g>
	<g id="Layer_5_10_">
		<path id="path8_10_" fill="#010101" d="M112.072,108.368c-0.007,0.705-0.224,1.573-0.651,2.603c0,0.007-0.096,0.178-0.285,0.512
			c-0.255,1.084-0.54,2.01-0.853,2.781c-0.6,1.447-1.317,3.045-2.153,4.79c-0.277,0.892-0.646,1.991-1.106,3.297
			c-0.825,2.349-1.495,4.164-2.004,5.44c-0.39,0.954-0.928,1.934-1.614,2.936c-0.656,0.953-1.425,1.896-2.305,2.828
			c-0.056,0.061-0.415,0.482-1.077,1.27c-0.639,0.762-1.207,1.402-1.704,1.92c-0.516,0.533-0.995,0.982-1.441,1.349
			c0.551,0.689,1.14,1.351,1.761,1.98c0.212,0.263,0.359,0.524,0.443,0.786c0.069,0.219,0.113,0.492,0.132,0.82
			c0.149,0.143,0.278,0.283,0.385,0.421c0.003,0.003,0.006,0.007,0.01,0.009c0,0.004,0.001,0.01,0.003,0.02
			c0.008,0.006,0.013,0.014,0.02,0.023c0.059,0.088,0.132,0.221,0.215,0.402l-0.056,0.033c-0.149-0.185-0.284-0.345-0.401-0.482
			c-0.058-0.043-0.111-0.085-0.164-0.121c0,0.006,0,0.01,0,0.014c0,0.006-0.008,0.037-0.02,0.093
			c0.136,0.304,0.257,0.646,0.369,1.026c0,0.002,0.003,0.006,0.005,0.008c0.344,0.514,0.556,0.846,0.638,0.998
			c0.273,0.465,0.374,0.754,0.299,0.866c-0.081-0.233-0.182-0.444-0.299-0.632l-0.516-0.777c0.021,0.084,0.044,0.168,0.065,0.252
			c0.081,0.139,0.175,0.299,0.281,0.483c0.105,0.153,0.288,0.599,0.547,1.335c0.315,0.842,0.466,1.417,0.45,1.723l-0.006-0.015
			c-0.441-1.202-0.815-2.118-1.118-2.749c0.036,0.19,0.061,0.391,0.081,0.601c0.52,0.89,0.793,1.743,0.819,2.561
			c0.009,0.094,0.017,0.191,0.022,0.29c-0.028-0.084-0.057-0.166-0.084-0.248c-0.162-0.567-0.392-1.172-0.688-1.812
			c0.016,0.173,0.026,0.348,0.028,0.525c0.038,0.09,0.073,0.187,0.107,0.291c0.156,0.473,0.265,0.857,0.327,1.15
			c0.109,0.347,0.155,0.589,0.137,0.727c-0.06-0.23-0.125-0.459-0.196-0.684c-0.101-0.406-0.221-0.799-0.361-1.18
			c0.013,0.225,0.021,0.459,0.024,0.701c0.021,0.078,0.046,0.16,0.073,0.244c0.035,0.125,0.069,0.241,0.104,0.347
			c0.263,0.725,0.423,1.198,0.482,1.424l-0.133-0.042c0.137,0.578,0.159,0.975,0.071,1.193c-0.221-0.721-0.404-1.307-0.552-1.756
			c0.021,0.287,0.039,0.574,0.052,0.862c0.012,0.208,0.021,0.43,0.027,0.665c0.247,0.836,0.336,1.43,0.267,1.779
			c0.069,0.365,0.102,0.652,0.099,0.86c0.297,0.718,0.456,1.151,0.477,1.298c-0.009,0-0.019-0.008-0.03-0.023l-0.02-0.033
			c0.025,0.053,0.008,0.036-0.052-0.051c-0.078-0.163-0.158-0.32-0.239-0.474c0.058,0.21,0.092,0.394,0.104,0.553
			c0.468,0.917,0.744,1.556,0.829,1.91c-0.05,0.007-0.089,0.005-0.112-0.005c-0.109-0.189-0.231-0.407-0.365-0.65
			c0.48,1.037,0.733,1.688,0.759,1.957l-0.053-0.027l-0.088-0.086c-0.304-0.602-0.532-1.055-0.689-1.357
			c-0.171-0.342-0.326-0.645-0.468-0.902c0.054,0.324,0.078,0.645,0.076,0.963c0.087,0.15,0.185,0.314,0.294,0.492
			c0.421,0.705,0.689,1.317,0.801,1.836c0.004,0.004,0.012,0.012,0.022,0.023c0.282,0.432,0.467,0.812,0.554,1.146
			c-0.034,0.016-0.078,0.022-0.131,0.02c0.084,0.168,0.11,0.281,0.079,0.341c-0.278-0.052-0.56-0.29-0.848-0.712
			c-0.208-0.352-0.377-0.629-0.505-0.828c-0.016,0.057-0.035,0.107-0.062,0.154c-0.161-0.299-0.314-0.607-0.462-0.922
			c0.017,0.234,0.025,0.493,0.032,0.777c0.065,0.125,0.142,0.266,0.229,0.421c0.412,0.49,0.697,0.849,0.856,1.077
			c0.165,0.238,0.272,0.398,0.319,0.482c0.128,0.237,0.162,0.404,0.107,0.502l-0.062,0.018c-0.056-0.043-0.088-0.073-0.103-0.09
			c-0.175-0.255-0.408-0.568-0.701-0.941c-0.004-0.002-0.01-0.01-0.019-0.021c0.635,1.029,0.902,1.584,0.795,1.662
			c-0.04,0.024-0.076,0.031-0.107,0.023l-0.031-0.01c0.005,0.03-0.021,0.002-0.08-0.089c-0.02-0.022-0.134-0.202-0.343-0.544
			c0.172,0.303,0.296,0.557,0.369,0.76c0.26,0.277,0.411,0.452,0.451,0.523c0.068,0.1,0.093,0.178,0.075,0.234l-0.054,0.037
			c0.194,0.154,0.309,0.255,0.344,0.305c0.047,0.068,0.067,0.105,0.06,0.107l-0.028,0.047l-0.032,0.027
			c-0.06-0.033-0.115-0.064-0.168-0.093c0,0.019-0.004,0.05-0.015,0.089l-0.084,0.01c-0.015-0.016-0.091-0.075-0.225-0.178
			c0.019,0.043,0.034,0.09,0.046,0.141c0.297,0.246,0.482,0.43,0.559,0.552c0.047,0.065,0.071,0.11,0.074,0.132
			c0,0.022-0.003,0.043-0.01,0.064l-0.074,0.024l-0.019-0.011c0.043,0.063,0.073,0.136,0.088,0.217l-0.073,0.041
			c0.099,0.176,0.156,0.289,0.173,0.342c-0.108-0.09-0.333-0.342-0.67-0.758c-0.431-0.422-0.832-0.805-1.204-1.147
			c0.254,0.315,0.559,0.685,0.918,1.104c0.403,0.47,0.779,0.899,1.129,1.293c0.035,0.053,0.048,0.092,0.043,0.117
			c-0.004,0.01-0.02,0.033-0.048,0.07c-0.19-0.097-0.432-0.289-0.726-0.576l-0.004,0.01c-0.051,0.007-0.096,0-0.136-0.02
			c-0.082-0.133-0.211-0.297-0.385-0.49c-0.206-0.244-0.471-0.537-0.792-0.877c0.006,0.068,0.018,0.14,0.033,0.211
			c0.104,0.115,0.216,0.242,0.337,0.379c0.752,0.862,1.223,1.424,1.409,1.687c0.076,0.106,0.15,0.229,0.226,0.37
			c0.09,0.158,0.14,0.287,0.149,0.384c0.04,0.053,0.065,0.089,0.075,0.107c0.054,0.104,0.058,0.185,0.019,0.243l-0.08,0.02
			c-0.257-0.283-0.575-0.645-0.961-1.082l-0.013,0.004c-0.002-0.002-0.021-0.027-0.052-0.074c-0.156-0.185-0.325-0.379-0.51-0.585
			c-0.125-0.14-0.242-0.27-0.352-0.39c0.02,0.051,0.036,0.101,0.052,0.15c0.034,0.121,0.067,0.268,0.098,0.436
			c0.175,0.172,0.371,0.363,0.586,0.571c0.409,0.399,0.813,0.79,1.213,1.171c0.097,0.138,0.134,0.252,0.106,0.346
			c-0.028,0.02-0.061,0.021-0.102,0.006c0.102,0.121,0.191,0.234,0.268,0.342c0.021,0.037,0.048,0.086,0.078,0.145
			c0.02,0.043,0.046,0.075,0.08,0.094l-0.037,0.02c-0.346-0.254-0.955-0.779-1.826-1.579c-0.078-0.065-0.154-0.131-0.225-0.196
			c0.016,0.091,0.028,0.18,0.037,0.268c0.06,0.04,0.119,0.084,0.183,0.131c0.942,0.718,1.515,1.22,1.715,1.507
			c0.061,0.091,0.096,0.163,0.103,0.216l-0.113,0.061c-0.17-0.135-0.425-0.342-0.758-0.622c0.305,0.269,0.498,0.46,0.576,0.575
			c0.044,0.062,0.068,0.104,0.073,0.127c0.023,0.054,0.015,0.107-0.021,0.164c-0.036,0.01-0.08,0.014-0.132,0.014
			c-0.121-0.146-0.404-0.402-0.848-0.769c0.037,0.042,0.071,0.085,0.099,0.132c0.003,0.004,0.044,0.068,0.126,0.191
			c0.062,0.129,0.067,0.209,0.014,0.244c-0.04,0.029-0.069,0.041-0.084,0.037c-0.016-0.006-0.025-0.008-0.027-0.004
			c-0.031-0.038-0.14-0.14-0.323-0.305c0.08,0.084,0.154,0.175,0.22,0.271c0.053,0.078,0.086,0.131,0.099,0.159
			c0.013,0.044-0.006,0.083-0.051,0.116c-0.039,0.022-0.064,0.033-0.076,0.033c0,0.013,0,0.025,0,0.038
			c-0.037,0.003-0.075,0.007-0.112,0.009c0.181,0.166,0.425,0.354,0.73,0.566c0.637,0.418,1.038,0.917,1.203,1.494
			c0,0.016,0.035,0.169,0.104,0.459c0.324,0.422,0.3,0.796-0.071,1.123c-0.361,0.315-1.006,0.808-1.935,1.476
			c-0.917,0.665-1.784,1.027-2.599,1.086c-0.801,0.05-1.434,0.124-1.896,0.22l-0.004,0.015c-0.541,0.159-1.259,0.523-2.158,1.091
			c-0.874,0.568-1.734,1.024-2.58,1.368c-1.546,0.63-2.649,0.898-3.315,0.804c-0.281-0.021-0.504-0.109-0.67-0.266
			c-0.114,0.181-0.266,0.336-0.449,0.463c-0.36,0.251-0.642,0.354-0.848,0.313c-0.203,0.204-0.361,0.351-0.473,0.44
			c-0.199,0.172-0.437,0.239-0.707,0.201c-0.269-0.03-0.549-0.303-0.837-0.818c-0.238-0.46,0.316-1.352,1.661-2.674
			c0.156-0.137,0.324-0.274,0.505-0.412c0.693-0.527,1.301-0.889,1.822-1.082c0.013-0.014,0.039-0.024,0.079-0.037
			c0.434-0.468,0.955-0.918,1.565-1.349c-0.051,0-0.091-0.005-0.119-0.014c0.053-0.02,0.121-0.034,0.201-0.043
			c0.128-0.093,0.259-0.185,0.391-0.271c-0.114-0.021-0.207-0.046-0.282-0.073c0.131-0.021,0.282-0.036,0.45-0.049
			c0.322-0.202,0.66-0.403,1.016-0.604c-0.006-0.006-0.015-0.011-0.024-0.014c0.125-0.088,0.271-0.158,0.437-0.211
			c0.128-0.068,0.26-0.133,0.398-0.191c0.024-0.022,0.054-0.041,0.089-0.057c-0.428,0.068-0.716,0.096-0.861,0.08
			c0.13-0.072,0.493-0.174,1.086-0.305c-0.023-0.006-0.052-0.014-0.089-0.02c-0.062-0.016-0.108-0.016-0.136,0l-0.02-0.046
			c0.022-0.013,0.068-0.057,0.136-0.132c-0.031,0.007-0.056,0.006-0.073-0.004l-0.034-0.085c0.188-0.153,0.385-0.326,0.596-0.521
			c-0.031-0.018-0.075-0.041-0.127-0.068c0.402-0.436,0.735-0.797,0.996-1.088c0.105-0.1,0.199-0.188,0.276-0.266
			c-0.008,0-0.02-0.005-0.032-0.014c-0.007-0.102-0.008-0.2-0.005-0.301c-0.424,0.484-0.755,0.811-0.992,0.979
			c-0.115,0.078-0.203,0.101-0.263,0.066c0.15-0.21,0.29-0.404,0.416-0.586c0.031-0.105,0.077-0.217,0.136-0.332
			c-0.015,0.003-0.02-0.006-0.013-0.028l-0.019-0.052c-0.004-0.118,0.043-0.277,0.14-0.479c-0.053,0.033-0.093,0.047-0.121,0.043
			c0.184-0.422,0.34-0.783,0.467-1.086c0.005-0.051,0.013-0.1,0.025-0.146c-0.069,0.026-0.111,0.026-0.122,0
			c0-0.012,0.003-0.031,0.009-0.061c-0.212,0.503-0.407,0.816-0.586,0.941c-0.065,0.051-0.101,0.041-0.106-0.027
			c0.002-0.004,0.102-0.245,0.295-0.727l-0.118,0.028c-0.059-0.175-0.027-0.465,0.095-0.871c-0.034,0.013-0.051-0.002-0.047-0.042
			l-0.011-0.08c0.066-0.141,0.135-0.279,0.202-0.416c-0.1,0.159-0.2,0.279-0.299,0.361c0.214-0.706,0.384-1.276,0.51-1.709
			c0.096-0.312,0.161-0.581,0.191-0.807c0.004,0,0.004-0.002,0-0.009c-0.04,0.185-0.096,0.388-0.164,0.608
			c-0.273,0.898-0.59,1.488-0.95,1.766c0.034-0.297,0.176-0.779,0.421-1.447c0.057-0.26,0.129-0.525,0.217-0.801
			c0.043-0.156,0.085-0.297,0.125-0.422c0.007-0.199,0.014-0.382,0.02-0.547l-0.028-0.014c-0.006-0.048-0.011-0.09-0.014-0.127
			c-0.031,0.249-0.062,0.451-0.094,0.604c-0.05,0.012-0.083,0.01-0.098-0.009c-0.004-0.169-0.004-0.367,0-0.595
			c-0.082,0.283-0.194,0.627-0.337,1.03c-0.288,0.798-0.546,1.464-0.773,1.995l-0.033-0.024c0.034-0.203,0.111-0.534,0.23-0.993
			c0.04-0.149,0.073-0.289,0.102-0.422c-0.04,0.055-0.084,0.107-0.13,0.16c0.081-0.358,0.205-0.817,0.374-1.377
			c0.153-0.521,0.264-0.893,0.333-1.113c0.003-0.311,0.01-0.66,0.022-1.049c0.004-0.082,0.004-0.162,0-0.244l-0.196-0.585
			c-0.002-0.011-0.006-0.02-0.008-0.028c0.006,0.398-0.017,0.779-0.067,1.138c-0.09,0.043-0.144,0.06-0.158,0.046
			c0.025-0.558,0.025-1.121,0-1.689c-0.004-0.018-0.011-0.036-0.019-0.052c-0.017,0.034-0.031,0.065-0.043,0.095
			c0.008,0.535-0.002,0.895-0.037,1.072l-0.064-0.01c-0.008-0.256-0.017-0.5-0.029-0.73c-0.106,0.252-0.226,0.496-0.355,0.73
			l-0.029-0.019c0.142-0.497,0.262-0.931,0.361-1.302c-0.003-0.119-0.006-0.234-0.01-0.348c-0.013-0.033-0.025-0.068-0.042-0.102
			c-0.031-0.085-0.087-0.213-0.168-0.385c-0.026,0.088-0.055,0.17-0.091,0.248c0.011,0.361,0.004,0.602-0.017,0.715l-0.01-0.045
			c-0.014-0.156-0.024-0.328-0.033-0.516c-0.019,0.043-0.04,0.088-0.065,0.132c-0.019-0.003-0.036-0.012-0.052-0.023l-0.019-0.021
			c0.038-0.14,0.075-0.276,0.113-0.41c-0.014-0.172-0.029-0.355-0.048-0.549c-0.111-0.234-0.247-0.51-0.402-0.829
			c0.034,0.384,0.063,0.785,0.084,1.204l-0.116-0.043c-0.089-0.639-0.168-1.204-0.239-1.694c-0.438-0.89-0.714-1.599-0.83-2.126
			c-0.174-0.668-0.333-1.284-0.477-1.85c-0.004,0.004-0.009,0.006-0.013,0.01c-0.067,0.047-0.096,0.044-0.092-0.01
			c0.023-0.059,0.045-0.113,0.066-0.164c-0.214-0.877-0.395-1.626-0.538-2.248c-0.063-0.275-0.124-0.541-0.178-0.801
			c-0.419-1.115-0.877-2.412-1.376-3.885c-0.685-2.018-1.361-4.129-2.033-6.336c-0.037-0.121-0.072-0.236-0.105-0.35
			c-0.348-0.232-0.63-0.781-0.849-1.645c-0.223-0.871-0.333-1.74-0.333-2.604c0-0.425,0.086-0.817,0.262-1.181
			c0.129-0.266,0.294-0.465,0.495-0.602c-0.03-0.311-0.046-0.552-0.046-0.723c0-0.434,0.11-0.994,0.328-1.682
			c0-0.039-0.001-0.078-0.005-0.111c0.043-0.115,0.081-0.221,0.112-0.314c-0.031,0.05-0.067,0.104-0.107,0.159
			c0.072-0.149,0.143-0.282,0.211-0.397c0.056-0.197,0.084-0.305,0.084-0.323c0-0.013,0-0.021,0-0.023h-0.057
			c0.021-0.044,0.054-0.11,0.104-0.198c0.009-0.055,0.021-0.112,0.041-0.172c-0.104,0.181-0.205,0.35-0.31,0.506
			c0.051-0.266,0.125-0.589,0.221-0.971c0.021-0.043,0.043-0.082,0.061-0.121c0.15-0.303,0.275-0.56,0.375-0.773
			c0.057-0.221,0.117-0.438,0.183-0.654c-0.053,0.078-0.106,0.162-0.158,0.253h-0.075c0.091-0.231,0.227-0.507,0.407-0.829
			c0.103-0.318,0.208-0.633,0.317-0.945c-0.033,0.031-0.061,0.059-0.084,0.084c0.035-0.094,0.093-0.207,0.173-0.338
			c0.095-0.25,0.191-0.499,0.296-0.749c0.296-0.702,0.692-1.554,1.188-2.557h-0.065c0.062-0.122,0.166-0.276,0.31-0.468
			c0.372-0.718,0.792-1.506,1.259-2.365c-0.189,0.213-0.397,0.441-0.622,0.689c0.275-0.48,0.622-0.963,1.044-1.447
			c0.075-0.135,0.15-0.269,0.225-0.402c1.537-2.76,2.715-4.69,3.535-5.793c1.751-2.429,3.513-4.33,5.288-5.708
			c1.21-1.099,2.56-1.787,4.05-2.065c1.285-0.227,2.555-0.137,3.812,0.271c1.126,0.366,2.013,0.901,2.658,1.606
			c0.625,0.708,0.821,1.364,0.591,1.968C112.192,108.279,112.138,108.331,112.072,108.368L112.072,108.368z M87.606,128.984
			c0.006-0.024,0.013-0.049,0.021-0.074c-0.019,0.025-0.033,0.05-0.049,0.074H87.606z M87.686,128.602
			c0.006-0.022,0.01-0.039,0.01-0.052c-0.104,0.196-0.215,0.411-0.337,0.646C87.48,128.979,87.59,128.781,87.686,128.602z
			 M100.352,152.435c0.013,0.035,0.029,0.075,0.047,0.122c-0.021-0.084-0.04-0.16-0.057-0.23
			C100.339,152.358,100.342,152.395,100.352,152.435L100.352,152.435z M100.459,156.64c0.172,0.231,0.396,0.515,0.676,0.853
			c0.002,0.006,0.005,0.011,0.008,0.014c-0.004-0.01-0.008-0.021-0.008-0.033c-0.307-0.593-0.5-0.959-0.581-1.096
			c-0.004-0.003-0.036-0.049-0.099-0.141c0,0.076-0.001,0.154-0.005,0.234C100.45,156.521,100.454,156.578,100.459,156.64
			L100.459,156.64z M95.083,162.249c0.004,0,0.012,0.005,0.024,0.014c0.004-0.021,0.006-0.044,0.006-0.07
			c-0.004-0.021-0.011-0.045-0.02-0.069C95.087,162.166,95.083,162.209,95.083,162.249z M95.979,168.654
			c0.08-0.327,0.129-0.546,0.145-0.655c-0.003,0.006-0.008,0.016-0.014,0.028c-0.027,0.084-0.078,0.248-0.15,0.492
			c-0.033,0.117-0.067,0.213-0.103,0.285c0.034-0.025,0.065-0.047,0.095-0.065c0.006-0.016,0.01-0.028,0.014-0.038
			C95.974,168.692,95.979,168.677,95.979,168.654L95.979,168.654z M95.141,170.242c-0.019,0.019-0.038,0.035-0.058,0.047
			c-0.177,0.141-0.358,0.275-0.547,0.407c0.013,0.028,0.021,0.05,0.024,0.065c0.021,0.074-0.003,0.148-0.07,0.221l-0.273,0.192
			c0.038-0.007,0.072-0.015,0.1-0.023c0.193-0.157,0.39-0.347,0.59-0.573C94.98,170.473,95.06,170.36,95.141,170.242z
			 M100.595,160.385c0.095,0.116,0.192,0.24,0.297,0.371c-0.085-0.129-0.183-0.27-0.292-0.426
			C100.604,160.348,100.603,160.367,100.595,160.385L100.595,160.385z M101.448,161.785c-0.006-0.002-0.012-0.006-0.016-0.009
			c0.004,0.003,0.011,0.013,0.02,0.028C101.452,161.801,101.451,161.795,101.448,161.785L101.448,161.785z M101.878,162.221
			c-0.002,0.021-0.011,0.046-0.022,0.07c0.1,0.062,0.188,0.124,0.268,0.183C102.06,162.412,101.979,162.327,101.878,162.221z
			 M101.615,165.555c-0.043-0.041-0.087-0.08-0.131-0.121c0.007,0.012,0.011,0.02,0.011,0.023
			C101.535,165.49,101.575,165.523,101.615,165.555z M101.625,166.511c0,0.009,0.002,0.019,0.006,0.027
			c0.097,0.078,0.202,0.163,0.317,0.253c-0.031-0.027-0.064-0.059-0.103-0.088C101.771,166.634,101.697,166.569,101.625,166.511z"/>
	</g>
	<g id="Layer_4_11_">
		<path id="path11_9_" fill="#010101" d="M105.312,104.375c1.363-0.295,2.579-0.324,3.646-0.096
			c1.108,0.248,1.731,0.679,1.869,1.293c0.026,0.062,0.004,0.133-0.075,0.211c0.471,0.565,0.836,1.375,1.095,2.432
			c-0.002,0.002,0.01,0.189,0.038,0.561c0.442,1.008,0.758,1.904,0.945,2.688c0.163,0.662,0.32,1.363,0.475,2.103
			c0.009,0.009,0.016,0.019,0.021,0.028c0.404,0.6,0.653,1.482,0.75,2.65c0.027,0.32,0.062,0.801,0.104,1.438
			c0.047,0.549,0.12,1.008,0.22,1.377c0.291,1.064,0.528,3.152,0.712,6.266c0.125,2.175,0.188,3.74,0.188,4.695
			c0,0.066-0.055,0.435-0.164,1.105c-0.144,0.861-0.299,1.654-0.464,2.379c-0.003,0.019-0.008,0.035-0.015,0.051
			c-0.046,0.422-0.104,0.906-0.173,1.451c-0.135,1.152-0.269,2.298-0.407,3.438c0,0.297,0.174,0.809,0.521,1.535
			c0.09,0.188,0.178,0.357,0.262,0.507c0.581,2.169,1.458,3.702,2.631,4.598c0.685,0.521,1.138,0.923,1.358,1.204
			c0.353,0.471,0.648,1.096,0.885,1.873c0.081,0.125,0.151,0.251,0.211,0.379c0.044,0.096,0.075,0.183,0.094,0.258
			c0.119,0.177,0.242,0.391,0.37,0.637c0.307,0.568,0.447,0.895,0.426,0.979c-0.013,0.053-0.021,0.08-0.023,0.084
			c-0.006,0.002-0.021,0.008-0.042,0.015h-0.06c-0.12-0.298-0.291-0.673-0.516-1.124c0,0.019,0,0.039,0,0.061h-0.047
			c-0.05-0.06-0.094-0.117-0.132-0.174c0.004,0.032,0.009,0.066,0.014,0.104c0.019,0.021,0.033,0.041,0.048,0.061l-0.023,0.043
			c0.013,0.105,0.024,0.213,0.037,0.323c0.031,0.034,0.059,0.075,0.079,0.12c0.318,0.551,0.466,0.867,0.445,0.951
			c-0.016,0.057-0.026,0.084-0.033,0.084c-0.01,0.004-0.022,0.01-0.037,0.02c-0.146-0.246-0.279-0.479-0.397-0.693
			c0.021,0.25,0.042,0.508,0.06,0.772c0.251,0.524,0.363,0.835,0.338,0.933c-0.015,0.053-0.033,0.086-0.052,0.098
			c-0.015,0.002-0.042,0.006-0.079,0.01c-0.07-0.15-0.131-0.291-0.188-0.427c-0.004,0.017-0.004,0.033,0,0.052
			c0.057,0.209,0.084,0.381,0.084,0.516c0.051,0.28,0.111,0.641,0.183,1.076c0.097,0.672,0.138,1.028,0.127,1.072
			c-0.022,0.057-0.054,0.107-0.094,0.15c0.016,0.25,0.033,0.557,0.056,0.922c0.021,0.402,0.032,0.746,0.028,1.031
			c-0.003,0.018-0.003,0.031,0,0.042c0.125,0.677,0.159,1.093,0.104,1.245c-0.026,0.109-0.066,0.193-0.122,0.252h-0.053
			c-0.011-0.137-0.022-0.273-0.032-0.41c-0.013,0.036-0.021,0.055-0.027,0.055c-0.003,0.01-0.029,0.02-0.076,0.029l-0.027-0.043
			c-0.003-0.112,0.002-0.454,0.015-1.025c-0.007-0.053-0.012-0.102-0.015-0.145c-0.077-0.382-0.146-0.706-0.206-0.975
			c-0.009,0.234-0.038,0.414-0.084,0.539c-0.003,0.013-0.008,0.033-0.015,0.061c0.02,0.112,0.04,0.236,0.061,0.375
			c0.054,0.664,0.128,1.51,0.226,2.533l-0.122,0.037c-0.057-0.225-0.109-0.463-0.158-0.717c-0.015,0.824-0.08,1.439-0.202,1.844
			c-0.013,0.035-0.033,0.073-0.061,0.114c0.271,1.183,0.373,1.899,0.305,2.147c-0.016,0.061-0.035,0.11-0.057,0.152
			c-0.022,0.039-0.035,0.061-0.037,0.063h-0.075c-0.051-0.327-0.153-0.896-0.31-1.703c-0.027,0.108-0.056,0.21-0.084,0.304
			c0.037,0.678,0.046,1.146,0.028,1.405c0.09,0.452,0.105,0.791,0.048,1.015c-0.02,0.07-0.036,0.107-0.048,0.113l-0.01,0.004
			l-0.112-0.014c-0.021-0.164-0.095-0.541-0.219-1.129c-0.055,0.279-0.102,0.522-0.142,0.731c0.114,0.741,0.143,1.229,0.079,1.47
			c-0.017,0.066-0.043,0.121-0.073,0.164c-0.018,0.02-0.038,0.047-0.066,0.084c-0.054-0.299-0.104-0.59-0.15-0.875
			c-0.019,0.057-0.034,0.106-0.047,0.15c-0.003,0.016-0.01,0.032-0.019,0.051c0.047,0.19,0.101,0.389,0.159,0.596
			c0.274,1.079,0.409,1.629,0.403,1.647c-0.019,0.069-0.035,0.106-0.047,0.112l-0.005,0.01c0.124,0.281,0.182,0.432,0.173,0.453
			c-0.019,0.073-0.039,0.115-0.061,0.132c-0.021,0.017-0.055,0.026-0.098,0.032c-0.142-0.199-0.33-0.583-0.566-1.151
			c0,0.097-0.004,0.188-0.011,0.276c0.118,0.236,0.253,0.492,0.403,0.764c0.403,0.721,0.6,1.104,0.59,1.151
			c-0.021,0.068-0.047,0.112-0.075,0.131c-0.021,0.003-0.058,0.009-0.107,0.02c-0.184-0.204-0.471-0.696-0.86-1.476
			c0,0.065,0,0.135,0,0.211c0.18,0.277,0.396,0.608,0.646,0.992c0.413,0.64,0.617,0.98,0.607,1.021
			c-0.018,0.063-0.034,0.101-0.047,0.112c-0.009,0.01-0.024,0.021-0.046,0.033l-0.136,0.052c0.065,0.075,0.097,0.118,0.093,0.126
			c-0.018,0.064-0.033,0.104-0.047,0.113c-0.009,0.018-0.016,0.031-0.018,0.037l-0.202,0.042c-0.237-0.173-0.471-0.378-0.702-0.618
			c0.012,0.19,0.016,0.41,0.01,0.66c0.368,0.359,0.553,0.54,0.553,0.543c-0.016,0.062-0.033,0.104-0.047,0.121
			c-0.01,0.014-0.016,0.024-0.019,0.034l-0.028,0.014c-0.013,0.009-0.027,0.019-0.041,0.023c0.401,0.528,0.597,0.807,0.584,0.839
			c-0.01,0.033-0.032,0.068-0.07,0.102c-0.025,0.021-0.077,0.064-0.155,0.127c-0.233-0.228-0.503-0.523-0.81-0.889
			c-0.002,0.096-0.005,0.188-0.005,0.275c0.065,0.05,0.133,0.105,0.197,0.168c0.665,0.596,0.984,0.942,0.96,1.035
			c-0.013,0.062-0.028,0.102-0.047,0.117c0.154,0.193,0.216,0.342,0.192,0.445c-0.02,0.065-0.034,0.104-0.046,0.112
			c-0.015,0.019-0.02,0.031-0.02,0.037l-0.043,0.024c-0.033,0.006-0.077,0.008-0.13,0.008c-0.028,0-0.057,0-0.085,0
			c0.087,0.123,0.134,0.219,0.142,0.292c0.599,0.39,0.938,0.876,1.019,1.454c0,0.008,0.016,0.151,0.043,0.432
			c-0.027,0.363-0.115,0.894-0.261,1.592c-0.123,0.703-0.707,1.197-1.753,1.48c-1.026,0.287-1.702,0.463-2.026,0.529
			c-0.308,0.059-0.956,0.194-1.949,0.407c-0.977,0.203-1.61,0.319-1.9,0.351l-0.431,0.061l0.005-0.018
			c-0.413,0.053-0.825,0.05-1.236-0.01c-0.307-0.037-0.831-0.064-1.574-0.08c-0.301-0.006-0.64-0.006-1.012,0
			c-1.487,0-2.704,0.058-3.646,0.168c-0.934,0.098-1.504,0.058-1.71-0.121c-0.266,0.06-0.757,0.101-1.475,0.121
			c-0.534,0.02-0.996-0.025-1.386-0.135c-0.179,0-0.363,0-0.553,0c-0.587,0-0.964-0.035-1.134-0.104
			c-0.12-0.049-0.162-0.144-0.12-0.28c0.033-0.122,0.141-0.267,0.317-0.436c0.023-0.017,0.044-0.032,0.065-0.052
			c0.04-0.105,0.099-0.227,0.174-0.361c0.228-0.414,1.114-0.667,2.659-0.758c1.558-0.097,2.558-0.273,2.996-0.529
			c0.342-0.187,0.773-0.324,1.297-0.412c-0.002,0-0.006,0-0.008,0l0.342-0.107c0.23-0.003,0.446-0.004,0.646-0.004
			c0.364-0.059,0.755-0.153,1.169-0.281l-0.913,0.023c-0.249,0-0.39-0.027-0.421-0.08c0.253-0.044,0.425-0.074,0.516-0.094
			c0.086-0.002,0.569-0.025,1.446-0.065c0.112-0.034,0.229-0.077,0.353-0.126c-0.229,0-0.448-0.003-0.656-0.01
			c-0.294,0-0.47-0.027-0.529-0.08c1.13-0.25,1.729-0.375,1.798-0.379c0.059-0.003,0.115-0.012,0.168-0.027
			c0.017-0.02,0.033-0.032,0.052-0.039c-0.08-0.012-0.127-0.025-0.141-0.041c-0.003,0-0.006-0.018-0.006-0.052
			c0.004-0.021-0.018-0.038-0.068-0.047c0.007-0.006,0.026-0.026,0.06-0.061c0.036-0.024,0.056-0.05,0.062-0.075
			c0.17-0.016,0.345-0.037,0.519-0.064c0.06-0.051,0.111-0.095,0.155-0.133c0.016-0.018,0.027-0.033,0.037-0.047
			c-0.061,0.021-0.116,0.037-0.168,0.052l-0.108-0.052l0.005-0.047c0.044-0.033,0.118-0.094,0.224-0.182
			c-0.036,0-0.068-0.005-0.093-0.014c-0.117,0.021-0.221,0.031-0.309,0.031c-0.056,0-0.116-0.018-0.18-0.055
			c-0.049-0.025-0.077-0.057-0.082-0.094c0.05-0.018,0.269-0.102,0.659-0.248c0.142-0.238,0.444-0.721,0.915-1.452
			c0.201-0.315,0.386-0.599,0.555-0.853c0.007-0.014,0.011-0.025,0.011-0.027c-0.304,0.434-0.548,0.65-0.73,0.65
			c-0.058,0-0.092-0.006-0.108-0.018c-0.002-0.014-0.011-0.033-0.023-0.062c0.092-0.127,0.19-0.273,0.301-0.439
			c-0.288,0.371-0.496,0.61-0.623,0.717c-0.013-0.007-0.021-0.012-0.024-0.015c-0.002-0.01,0.004-0.048,0.02-0.118
			c0.013-0.045,0.195-0.33,0.548-0.855l-0.099-0.066c0.108-0.229,0.365-0.703,0.768-1.418c0.004-0.016,0.002-0.031-0.004-0.047
			c-0.407,0.675-0.669,1.152-0.787,1.434h-0.16c0.011-0.057,0.03-0.146,0.058-0.268c0.013-0.031,0.021-0.057,0.023-0.075
			l-0.07-0.079c0.153-0.303,0.294-0.594,0.426-0.871c-0.537,0.502-0.931,0.744-1.18,0.727c0.244-0.197,0.475-0.396,0.692-0.595
			l-0.014-0.062c-0.44,0.365-0.798,0.548-1.073,0.548c-0.09,0-0.137-0.034-0.141-0.099c0.226-0.145,0.512-0.352,0.857-0.623
			c0.2-0.256,0.402-0.518,0.604-0.785c-0.553,0.549-0.999,0.877-1.339,0.986c-0.035-0.021-0.05-0.05-0.047-0.084
			c1.08-1.061,1.635-1.605,1.666-1.635c0.176-0.189,0.331-0.367,0.47-0.533c0-0.121-0.003-0.234-0.005-0.336
			c-0.063,0.092-0.127,0.182-0.192,0.266c-0.116,0.17-0.229,0.33-0.342,0.482c-0.678,0.916-1.185,1.372-1.523,1.372
			c-0.062,0-0.104-0.007-0.12-0.022c-0.015-0.004-0.025-0.024-0.029-0.062c0.395-0.348,0.729-0.662,1.008-0.939
			c0.088-0.139,0.192-0.309,0.313-0.512l-0.005-0.018c0.041-0.072,0.09-0.164,0.149-0.272c-0.013,0.022-0.028,0.042-0.052,0.061
			c-1.001,1.177-1.654,1.766-1.96,1.766c-0.066,0-0.107-0.007-0.122-0.022c-0.017-0.004-0.025-0.024-0.029-0.062
			c0.484-0.445,0.977-0.91,1.477-1.395c0.086-0.143,0.162-0.275,0.229-0.398l0.005-0.023c0.084-0.205,0.165-0.404,0.244-0.594
			c-0.756,0.92-1.275,1.381-1.555,1.381c-0.051,0-0.079-0.013-0.085-0.037c0.01-0.027,0.012-0.053,0.01-0.07
			c0.923-0.953,1.425-1.471,1.502-1.555c0.171-0.188,0.322-0.361,0.46-0.521c0.028-0.068,0.056-0.137,0.084-0.205
			c0.002-0.01,0.001-0.021-0.006-0.033c0.038-0.075,0.075-0.147,0.114-0.216c0.037-0.08,0.071-0.155,0.102-0.224
			c-0.146,0.198-0.314,0.429-0.506,0.688c-0.942,1.186-1.584,1.778-1.923,1.778c-0.051,0-0.081-0.013-0.09-0.037
			c0.009-0.021,0.011-0.033,0.006-0.033c0.732-0.728,1.326-1.344,1.778-1.85c0.29-0.614,0.547-1.171,0.769-1.667l-0.005-0.009
			c-0.351,0.505-1.056,1.396-2.116,2.673c-0.033-0.015-0.05-0.056-0.057-0.121c0.08-0.121,0.47-0.635,1.165-1.541
			c0-0.01,0-0.02,0-0.033c0-0.002,0.003-0.008,0.009-0.018c-0.514,0.699-0.844,1.049-0.986,1.049c-0.055,0-0.083-0.018-0.09-0.052
			c0-0.038,0-0.065,0-0.083c0.155-0.261,0.536-0.758,1.144-1.494c0.384-0.469,0.64-0.873,0.768-1.214l-0.057-0.337
			c-0.055,0.119-0.11,0.227-0.163,0.323c-0.135,0.353-0.276,0.653-0.428,0.903l-0.116-0.042l0.178-0.59
			c-0.019,0.022-0.034,0.036-0.046,0.042l-0.033-0.033l-0.048,0.075c-0.516,0.937-0.822,1.405-0.922,1.405
			c-0.05,0-0.08-0.007-0.089-0.02l-0.016-0.022c-0.017,0.015-0.015-0.028,0.011-0.132c0.206-0.415,0.405-0.803,0.6-1.16
			c-0.197,0.293-0.37,0.439-0.52,0.439c-0.054,0-0.08-0.016-0.08-0.047c0.009-0.037,0.014-0.062,0.014-0.074
			c0.047-0.078,0.223-0.411,0.525-0.998c-0.014-0.002-0.023-0.006-0.034-0.009c-0.137,0.208-0.256,0.313-0.36,0.313
			c-0.049,0-0.079-0.011-0.088-0.033l-0.011-0.052c0.007-0.024,0.007-0.037,0-0.037c0-0.009,0.007-0.044,0.02-0.103
			c0.028-0.106,0.167-0.41,0.417-0.913c0-0.003,0-0.009,0-0.014l0.115-0.38c0-0.01,0.047-0.091,0.138-0.244l0.141-0.257l0.309-0.933
			c-0.231,0.307-0.499,0.659-0.801,1.059l-0.047-0.023c-0.006-0.01-0.014-0.014-0.023-0.014l0.047-0.117
			c0.004-0.016,0.048-0.086,0.136-0.211l-0.028-0.032c0.214-0.359,0.408-0.806,0.586-1.339l-0.056-0.31
			c-0.062,0.093-0.125,0.177-0.188,0.248c-0.118,0.294-0.261,0.529-0.426,0.707l-0.034-0.047v-0.107
			c0.051-0.062,0.088-0.124,0.109-0.183c-0.038,0.055-0.084,0.117-0.142,0.183c-0.084-0.007-0.121-0.03-0.111-0.07
			c0.105-0.19,0.214-0.412,0.323-0.665l-0.024-0.043c0.076-0.158,0.153-0.33,0.233-0.514c0.048-0.082,0.086-0.17,0.114-0.268
			l-0.034-0.164c-0.055,0.091-0.122,0.183-0.2,0.276c-0.044-0.032-0.071-0.066-0.08-0.107l0.195-0.669l-0.13-0.68
			c-0.302,0.529-0.524,0.883-0.664,1.054c-0.11,0.1-0.147,0.083-0.112-0.052c0.034-0.103,0.122-0.285,0.266-0.543l-0.182-0.01
			l0.014-0.061c0.188-0.447,0.36-0.85,0.521-1.213l-0.1-0.52c-0.143,0.297-0.318,0.65-0.524,1.062h-0.079
			c-0.025-0.025-0.021-0.088,0.014-0.187c0.041-0.15,0.102-0.325,0.184-0.524c-0.107,0.18-0.216,0.342-0.328,0.481l-0.038-0.038
			c-0.006-0.012-0.018-0.012-0.033,0l0.028-0.111c0.075-0.24,0.19-0.543,0.346-0.908c0.086-0.175,0.18-0.365,0.287-0.572
			c-0.029-0.156-0.057-0.305-0.084-0.449c-0.129,0.24-0.216,0.395-0.262,0.459l-0.071-0.037l0.052-0.191
			c0.041-0.123,0.116-0.297,0.229-0.525c-0.017-0.082-0.032-0.162-0.046-0.243c-0.184,0.387-0.299,0.652-0.352,0.796l-0.057-0.075
			l0.201-0.697c0.053-0.081,0.104-0.181,0.155-0.3c-0.038-0.196-0.075-0.387-0.108-0.57c-0.228,0.504-0.381,0.811-0.459,0.917
			l-0.061-0.075l0.061-0.159c0.028-0.094,0.092-0.274,0.192-0.543c-0.032-0.013-0.053-0.027-0.067-0.042
			c-0.002-0.02-0.006-0.028-0.009-0.028l0.192-0.815c-0.006-0.037-0.013-0.078-0.018-0.126l-0.006,0.005
			c-0.166,0.434-0.31,0.762-0.43,0.983l-0.02-0.019c-0.006,0.009-0.016,0.018-0.028,0.023c-0.076,0.053-0.131,0.094-0.169,0.121
			c-0.04-0.047,0.025-0.48,0.197-1.301c0.08-0.379,0.152-0.712,0.216-1.003c-0.007-0.043-0.016-0.086-0.028-0.126
			c-0.006,0.013-0.01,0.021-0.01,0.027c-0.189,0.738-0.402,1.301-0.638,1.691c-0.033-0.02-0.068-0.041-0.102-0.066
			c0.013-0.071,0.028-0.152,0.052-0.243c-0.011,0.019-0.02,0.022-0.028,0.009h-0.08c0-0.117,0.009-0.268,0.028-0.449h-0.066
			c0.034-0.125,0.067-0.244,0.099-0.36c-0.078,0.149-0.159,0.259-0.243,0.327c-0.041-0.047-0.058-0.126-0.053-0.238
			c0.017-0.104,0.025-0.156,0.025-0.159c0.074-0.274,0.134-0.505,0.176-0.688l-0.106,0.028c-0.015-0.087-0.026-0.183-0.033-0.286
			l-0.154,0.581c-0.007,0.054-0.02,0.125-0.043,0.216c-0.002,0.006-0.029,0.094-0.082,0.263c-0.063,0.152-0.134,0.229-0.212,0.229
			c-0.051,0-0.082-0.009-0.094-0.027l-0.014-0.022c0.027-0.205,0.056-0.352,0.08-0.447c0.027-0.105,0.049-0.169,0.065-0.19
			l0.537-2.046c0.047-0.135,0.081-0.27,0.099-0.403c-0.056-0.153-0.123-0.315-0.201-0.487c-0.053,0.236-0.11,0.502-0.173,0.795
			c-0.171,0.676-0.38,1.211-0.623,1.607c-0.147-0.149-0.189-0.323-0.131-0.52c0.124-0.262,0.213-0.484,0.263-0.666v-0.004
			c0.005-0.088,0.018-0.201,0.037-0.342c-0.093,0.236-0.189,0.457-0.29,0.66l-0.028-0.023l0.262-0.996
			c0.004-0.014,0.005-0.021,0.005-0.024c0.013-0.138,0.027-0.328,0.047-0.571h-0.052c0.02-0.209,0.052-0.651,0.1-1.326
			c-0.038-0.102-0.078-0.197-0.123-0.285c-0.03,0.066-0.076,0.108-0.136,0.127l-0.048-0.047c-0.029,0.233-0.055,0.391-0.073,0.473
			c-0.044,0.116-0.079,0.186-0.108,0.211h-0.074c0.04-0.681,0.078-1.23,0.111-1.648c-0.056-0.188-0.098-0.338-0.126-0.449
			c-0.165-0.693-0.638-1.381-1.419-2.064c-0.797-0.694-1.194-1.071-1.198-1.135c-0.236-0.745-0.327-1.482-0.272-2.209
			c0-0.006,0-0.014,0-0.02c-0.28-0.184-0.585-0.422-0.916-0.711c-0.841-0.74-1.674-1.698-2.502-2.875
			c-0.861-1.228-1.551-2.457-2.068-3.689c-0.575-1.365-0.862-2.559-0.862-3.582c-0.028-0.295-0.027-0.574,0.006-0.839
			c-0.235-1.396-0.455-3.153-0.661-5.272c-0.274-3.031-0.376-5.203-0.304-6.518c0.161-2.856,0.658-5.308,1.487-7.352
			c0.479-1.514,1.36-2.764,2.646-3.746C102.516,105.262,103.818,104.684,105.312,104.375L105.312,104.375z M109.023,150.07
			l-0.019,0.051c-0.013,0.057-0.022,0.112-0.032,0.17c0.028-0.045,0.057-0.086,0.084-0.127
			C109.043,150.133,109.034,150.102,109.023,150.07L109.023,150.07z M108.317,148.422c-0.004-0.013-0.008-0.025-0.016-0.037
			c-0.007,0.053-0.013,0.102-0.019,0.145C108.295,148.494,108.309,148.459,108.317,148.422z M109.496,151.254
			c-0.006-0.008-0.009-0.016-0.009-0.022l-0.309,1.165c0.064-0.225,0.144-0.486,0.233-0.786c0.027-0.108,0.06-0.21,0.094-0.304
			C109.5,151.287,109.496,151.27,109.496,151.254L109.496,151.254z M109.146,150.371c-0.088,0.123-0.167,0.221-0.239,0.289
			c-0.071,0.428-0.104,0.768-0.098,1.021c0.076-0.285,0.121-0.459,0.141-0.521c0.074-0.241,0.156-0.466,0.242-0.68
			C109.18,150.445,109.164,150.406,109.146,150.371z M110.709,157.59c-0.143,0.312-0.269,0.59-0.374,0.834
			c0.124-0.188,0.261-0.412,0.407-0.674L110.709,157.59L110.709,157.59z M111.313,160.774c-0.064,0.155-0.134,0.304-0.206,0.444
			c0.065-0.104,0.143-0.217,0.229-0.342L111.313,160.774z M111.6,162.31l-0.006-0.032c-0.002,0.004-0.008,0.012-0.018,0.023
			c-0.007,0.022-0.015,0.046-0.023,0.07C111.572,162.347,111.586,162.326,111.6,162.31z M111.267,163.622l-0.009-0.005
			c-0.013,0.037-0.029,0.074-0.049,0.111C111.232,163.695,111.252,163.658,111.267,163.622L111.267,163.622z M111.398,164.113
			l0.018-0.062l-0.131,0.24C111.329,164.229,111.365,164.168,111.398,164.113z M111.988,165.752
			c-0.025,0.049-0.048,0.097-0.07,0.141c0.103-0.123,0.199-0.248,0.29-0.375l-0.018-0.098
			C112.124,165.531,112.057,165.643,111.988,165.752z M112.301,166.828c0-0.002,0-0.015,0-0.037c-0.104,0.193-0.239,0.42-0.406,0.68
			c-0.068,0.109-0.133,0.213-0.191,0.313c0.158-0.166,0.301-0.319,0.425-0.459c0.054-0.101,0.111-0.202,0.173-0.31
			C112.298,166.957,112.298,166.895,112.301,166.828L112.301,166.828z M112.398,170.738c-0.111,0.199-0.214,0.379-0.307,0.533
			c0.042-0.062,0.089-0.129,0.135-0.201c0.06-0.084,0.115-0.166,0.169-0.248C112.398,170.789,112.398,170.76,112.398,170.738
			L112.398,170.738z M112.118,169.17c-0.124,0.188-0.251,0.365-0.379,0.533c0.081-0.062,0.157-0.127,0.226-0.195
			C112.017,169.4,112.068,169.288,112.118,169.17z M112.062,169.881c0.057-0.059,0.108-0.111,0.156-0.158
			c0.019-0.034,0.032-0.07,0.046-0.107c-0.037,0.043-0.071,0.084-0.103,0.121C112.126,169.789,112.095,169.838,112.062,169.881z
			 M120.22,154.359c0.004,0.275-0.003,0.521-0.019,0.739c0.027,0.081,0.057,0.169,0.089,0.263c0.027,0.121,0.056,0.243,0.084,0.365
			c0.007-0.05,0.01-0.096,0.01-0.136c-0.007-0.425-0.003-0.798,0.009-1.119c-0.019-0.147-0.049-0.292-0.089-0.436
			c0.002,0.037,0.001,0.073-0.005,0.108C120.277,154.213,120.252,154.284,120.22,154.359L120.22,154.359z M119.7,157.951
			c0.009,0.109,0.016,0.213,0.019,0.312c0.021-0.155,0.04-0.318,0.053-0.486c0.002-0.084,0.002-0.18,0-0.285
			C119.748,157.645,119.725,157.797,119.7,157.951z M119.555,159.145c0.046-0.189,0.088-0.393,0.122-0.608
			c-0.004-0.081-0.012-0.17-0.024-0.267c-0.029,0.265-0.067,0.537-0.111,0.818C119.547,159.104,119.551,159.123,119.555,159.145
			L119.555,159.145z M118.702,165.049c0.02,0.078,0.033,0.158,0.042,0.24c0.01,0.074,0.016,0.146,0.019,0.219
			c0.057,0.119,0.113,0.245,0.169,0.379c0.016,0.042,0.033,0.077,0.052,0.108c-0.081-0.284-0.171-0.624-0.266-1.021
			C118.714,164.996,118.708,165.021,118.702,165.049z M118.8,168.57c0.017,0.024,0.033,0.049,0.054,0.07l0.495,0.496
			c0.128,0.122,0.23,0.225,0.304,0.309c-0.196-0.268-0.468-0.668-0.814-1.203c-0.03-0.049-0.06-0.098-0.088-0.141
			C118.766,168.256,118.781,168.411,118.8,168.57L118.8,168.57z M119.297,172.453c0.069,0.07,0.131,0.139,0.188,0.205
			c0.028-0.01,0.052-0.016,0.07-0.018c-0.287-0.295-0.522-0.537-0.701-0.727c0.006,0.056,0.01,0.109,0.014,0.16
			C119.004,172.172,119.147,172.299,119.297,172.453z"/>
	</g>
	<g id="Layer_7_10_">
		<path id="path14_9_" fill="#010101" d="M103.822,63.993c0.755-0.226,1.429-0.193,2.02,0.097h1.764
			c0.408,0.201,0.781,0.516,1.113,0.947c0.356,0.465,0.66,0.943,0.913,1.432l0.066-0.341c0.034,0.068,0.049,0.118,0.042,0.149
			c-0.009,0.05-0.008,0.105,0.006,0.169c0.201,0.159,0.364,0.294,0.485,0.402c0.125,0.118,0.213,0.214,0.264,0.286l-0.03,0.019
			c-0.084-0.06-0.239-0.177-0.467-0.353c-0.007-0.004-0.014-0.01-0.02-0.014c0.005,0.004,0.006,0.006,0.01,0.01
			c0.298,0.338,0.513,0.64,0.646,0.908c-0.099-0.1-0.302-0.326-0.607-0.684c0.016,0.031,0.023,0.049,0.023,0.052
			c-0.004,0.003-0.006,0.008-0.006,0.015c0.083,0.096,0.155,0.193,0.221,0.291c0.322,0.455,0.498,0.807,0.528,1.057
			c-0.03-0.043-0.24-0.38-0.626-1.012c-0.06-0.092-0.117-0.18-0.175-0.262c-0.002,0.004-0.012,0.006-0.026,0.01
			c0.099,0.229,0.186,0.461,0.261,0.697c0.025,0.025,0.048,0.053,0.065,0.085v-0.006c0.004,0.004,0.005,0.008,0.005,0.011
			c0.142,0.215,0.263,0.441,0.365,0.678c0.178,0.395,0.321,0.855,0.431,1.382l-0.031-0.005c-0.17-0.553-0.34-1.01-0.513-1.371
			c-0.062-0.138-0.129-0.273-0.2-0.408c-0.004,0-0.006,0-0.009,0c0.036,0.116,0.068,0.236,0.099,0.361
			c0.002,0.006,0.005,0.016,0.005,0.027c0.208,0.471,0.36,0.956,0.453,1.453c0.084,0.268,0.116,0.453,0.093,0.556
			c-0.009,0.04-0.018,0.065-0.026,0.071c-0.007,0.019-0.012,0.029-0.015,0.032l-0.032-0.005c-0.041-0.277-0.108-0.572-0.201-0.885
			c0.143,0.82,0.201,1.344,0.173,1.568c0.104,0.465,0.126,0.832,0.071,1.1c-0.023,0.123-0.055,0.241-0.095,0.357
			c0.003,0.002,0.008,0.008,0.015,0.014c0.424,0.599,0.633,0.924,0.626,0.973c0.088,0.094,0.18,0.196,0.276,0.306
			c-0.008-0.017-0.024-0.044-0.046-0.085c-0.019-0.031-0.026-0.053-0.023-0.064c0.097,0.074,0.166,0.132,0.21,0.172
			c0.007,0,0.011,0.002,0.015,0.005c0.002,0.003,0.002,0.007,0,0.01c0.016,0.015,0.026,0.028,0.032,0.038
			c0.028,0.023,0.036,0.074,0.023,0.149c-0.012,0.044-0.024,0.065-0.036,0.065c-0.007,0-0.027-0.004-0.062-0.01
			c-0.025-0.027-0.051-0.051-0.08-0.07c-0.025,0.004-0.052,0.004-0.079,0c-0.054-0.015-0.107-0.033-0.164-0.051
			c0.129,0.149,0.243,0.301,0.347,0.453c0.168,0.163,0.274,0.295,0.318,0.395c-0.032-0.02-0.068-0.049-0.112-0.09
			c0.174,0.271,0.293,0.518,0.356,0.735c0.33,0.505,0.494,0.849,0.494,1.026c0.17,0.314,0.242,0.537,0.217,0.664
			c-0.002,0.004-0.006,0.007-0.006,0.01c0.036,0.075,0.049,0.133,0.044,0.173c-0.013,0.069-0.026,0.083-0.038,0.042
			c-0.036-0.072-0.093-0.17-0.174-0.295c0.088,0.153,0.127,0.255,0.118,0.305c-0.017,0.072-0.028,0.09-0.034,0.051
			c-0.043-0.062-0.084-0.12-0.12-0.172c0.027,0.071,0.044,0.134,0.05,0.188c0.494,0.705,0.927,1.59,1.301,2.654l-0.045,0.014
			c-0.284-0.543-0.568-1.055-0.854-1.536c0.134,0.288,0.293,0.626,0.474,1.017c-0.108-0.156-0.229-0.322-0.36-0.502
			c0.393,0.729,0.704,1.408,0.932,2.042l-0.038-0.005c-0.146-0.25-0.378-0.647-0.697-1.193c0.004,0.013,0.009,0.027,0.015,0.047
			c0.028,0.137,0.056,0.279,0.085,0.426c0.117,0.225,0.28,0.693,0.485,1.405c0.231,0.792,0.334,1.245,0.311,1.357
			c-0.007,0.044-0.014,0.067-0.02,0.07c-0.007-0.003-0.018-0.007-0.032-0.009c0.128,0.327,0.245,0.654,0.35,0.982l-0.046,0.029
			c-0.098-0.072-0.176-0.176-0.239-0.311c-0.05-0.124-0.107-0.258-0.173-0.402c0.022,0.234,0.024,0.464,0.005,0.688
			c-0.003,0.044-0.007,0.086-0.01,0.126l-0.042-0.018c0.004-0.037,0.005-0.076,0.005-0.118c0-0.308-0.019-0.612-0.057-0.913
			c-0.094-0.218-0.196-0.442-0.309-0.674c0.144,0.478,0.232,0.998,0.267,1.564c0.025,0.309,0.029,0.631,0.014,0.964l-0.023-0.009
			c0.035,0.301,0.042,0.499,0.023,0.599c-0.02,0.072-0.035,0.12-0.05,0.146l-0.034-0.01c0.006-0.219,0.006-0.439,0-0.664
			c0,0.215-0.009,0.402-0.028,0.562c0.037,0.187,0.051,0.309,0.037,0.364c-0.024,0.122-0.047,0.147-0.064,0.075
			c-0.004-0.037-0.008-0.074-0.016-0.107c-0.038,0.188-0.082,0.322-0.13,0.406l-0.01-0.004c-0.003,0.09-0.011,0.176-0.023,0.257
			c0.029,0.042,0.053,0.081,0.07,0.117l-0.08-0.014c-0.005,0.071-0.016,0.144-0.028,0.215c-0.015,0.081-0.042,0.159-0.082,0.235
			c-0.011,0.58-0.034,0.964-0.072,1.151c-0.023,0.118-0.042,0.194-0.055,0.229c-0.026,0.091-0.063,0.165-0.112,0.221l-0.038-0.033
			c0.01-0.151,0.022-0.3,0.038-0.444c-0.019,0.062-0.042,0.121-0.066,0.178c-0.025,0.412-0.049,0.688-0.074,0.824
			c-0.011,0.051-0.018,0.08-0.023,0.09c0,0.006-0.006,0.012-0.015,0.018c0,0.035,0,0.064,0,0.09c0.044,0.229,0.055,0.398,0.032,0.51
			c-0.021,0.094-0.051,0.161-0.089,0.201c0.038,0.344,0.081,0.856,0.128,1.536c0.196,0.515,0.281,0.833,0.256,0.954
			c-0.012,0.048-0.02,0.073-0.023,0.076c0,0.002-0.005,0.01-0.018,0.02c-0.027-0.014-0.052-0.029-0.07-0.048
			c-0.009-0.009-0.024-0.028-0.043-0.056c-0.014-0.129-0.04-0.269-0.069-0.422c0.019,0.397,0.028,0.861,0.032,1.396
			c0.304,0.942,0.496,1.544,0.576,1.803c-0.084-0.153-0.193-0.406-0.328-0.759c0.128,0.402,0.244,0.811,0.348,1.228
			c-0.022,0.019-0.051,0.021-0.085,0.005c-0.125-0.453-0.298-1-0.516-1.641c0,0.026,0,0.049,0,0.071
			c0.057,0.175,0.113,0.358,0.169,0.553c0.231,0.761,0.405,1.407,0.525,1.938c-0.232-0.559-0.466-1.236-0.703-2.033
			c0,0.119-0.002,0.236-0.006,0.353c0.06,0.228,0.128,0.476,0.202,0.744c-0.074-0.19-0.143-0.376-0.202-0.558
			c-0.008,0.222-0.018,0.449-0.027,0.685c0.519,1.113,0.807,1.769,0.862,1.966c-0.01,0.022-0.026,0.031-0.047,0.028
			c-0.16-0.303-0.312-0.591-0.456-0.866c0.043,0.112,0.08,0.225,0.113,0.336l-0.046-0.008c-0.088-0.266-0.217-0.592-0.39-0.979
			c-0.015-0.035-0.031-0.068-0.052-0.098c0,0.051-0.002,0.111-0.003,0.177c0.033,0.062,0.065,0.126,0.097,0.192
			c0.385,0.803,0.649,1.412,0.796,1.83c-0.008,0.025-0.028,0.034-0.06,0.027c-0.004-0.014-0.04-0.094-0.112-0.238
			c0.018,0.084,0.024,0.148,0.018,0.193c-0.009,0.043-0.015,0.069-0.018,0.078c-0.011,0.007-0.014,0.012-0.014,0.015l-0.113-0.028
			c0.04,0.082,0.076,0.158,0.107,0.229c0.068,0.111,0.136,0.225,0.196,0.344l-0.027,0.019c0.05,0.124,0.073,0.199,0.069,0.224
			c-0.011,0.041-0.022,0.061-0.032,0.061c-0.01-0.003-0.026-0.006-0.051-0.01c-0.253-0.471-0.473-0.879-0.656-1.225
			c-0.088-0.135-0.171-0.281-0.252-0.437c-0.003,0.088-0.009,0.174-0.015,0.258c0.355,0.603,0.591,1.083,0.707,1.442l-0.051-0.01
			c-0.119-0.219-0.345-0.605-0.675-1.162c0,0.054-0.002,0.11-0.005,0.17c0.091,0.155,0.17,0.301,0.234,0.436
			c0.012,0.012,0.024,0.029,0.037,0.056c0.181,0.355,0.311,0.647,0.388,0.876l-0.032,0.004c0.093,0.19,0.14,0.297,0.136,0.318
			c-0.003,0.014-0.004,0.022-0.004,0.028c0.012,0.046,0.02,0.088,0.023,0.122c0.256,0.496,0.381,0.759,0.374,0.787
			c-0.006,0.04-0.021,0.068-0.042,0.084c-0.003-0.004-0.028,0-0.075,0.01c-0.119-0.182-0.246-0.398-0.385-0.652
			c-0.032,0.025-0.074,0.047-0.12,0.062c0.012,0.016,0.024,0.032,0.037,0.047c-0.02-0.009-0.037-0.024-0.057-0.047
			c0.179,0.237,0.368,0.556,0.571,0.955c0.293,0.568,0.438,0.892,0.432,0.97c0.213,0.24,0.369,0.444,0.473,0.613
			c-0.35-0.356-0.633-0.65-0.848-0.885c-0.044-0.041-0.088-0.083-0.131-0.127c0.036,0.059,0.073,0.119,0.107,0.178
			c0.021,0.025,0.049,0.051,0.08,0.075c0.371,0.315,0.552,0.507,0.541,0.575c-0.008,0.042-0.018,0.07-0.031,0.09
			c-0.016,0.019-0.023,0.03-0.023,0.033l-0.033,0.004c-0.034,0-0.075-0.004-0.121-0.014c-0.04-0.01-0.148-0.068-0.323-0.178
			c0.004,0.05,0.006,0.092,0.006,0.127c0.056,0.077,0.121,0.166,0.194,0.266c0.043,0.048,0.085,0.096,0.132,0.145
			c0.304,0.336,0.549,0.635,0.74,0.9c-0.147-0.121-0.338-0.309-0.576-0.562c-0.013,0-0.028,0-0.046,0
			c-0.075-0.096-0.148-0.184-0.216-0.262c0.034,0.047,0.064,0.104,0.094,0.168c0.122,0.266,0.177,0.422,0.168,0.469
			c-0.013,0.041-0.021,0.062-0.028,0.066l-0.136-0.024c0,0.003,0,0.006,0,0.01c-0.009,0.044-0.018,0.065-0.028,0.065l-0.355-0.065
			c0.027,0.021,0.05,0.042,0.062,0.062c0.011,0.018,0.014,0.043,0.008,0.074c-0.021,0.115-0.071,0.141-0.148,0.074
			c-0.036-0.029-0.084-0.063-0.146-0.098c-0.016,0.082-0.029,0.126-0.041,0.136c-0.008-0.003-0.023-0.002-0.047,0.005
			c-0.098-0.022-0.182-0.043-0.249-0.061c0.084,0.128,0.168,0.264,0.252,0.406c-0.019,0.008-0.04,0.014-0.064,0.019
			c0.018,0.019,0.036,0.038,0.052,0.058c0.105,0.03,0.187,0.054,0.244,0.07c0.045,0.006,0.086,0.01,0.121,0.014h0.051
			c-0.024-0.028-0.094-0.089-0.206-0.183c-0.087-0.082-0.139-0.14-0.153-0.179c0.08-0.002,0.191,0.062,0.331,0.197
			c0.143,0.131,0.208,0.234,0.192,0.31c-0.006,0.044-0.015,0.065-0.027,0.065l-0.343-0.061c0.043,0.037,0.079,0.072,0.107,0.107
			c-0.012,0.01-0.018,0.017-0.018,0.023c-0.004,0.002-0.029-0.002-0.075-0.014c-0.031-0.006-0.067-0.02-0.104-0.039
			c-0.006-0.003-0.014-0.004-0.022-0.004c-0.079-0.02-0.174-0.062-0.286-0.131l-0.02,0.022c-0.047-0.009-0.09-0.019-0.131-0.028
			l-0.005,0.043c-0.013,0.013-0.029,0.021-0.052,0.028l0.127-0.014l-0.019,0.075c-0.004,0.021-0.008,0.043-0.014,0.064
			c0.156,0.051,0.277,0.086,0.364,0.108c0.153,0.053,0.222,0.123,0.206,0.21c-0.006,0.045-0.015,0.066-0.026,0.07l-0.492-0.088
			c-0.116-0.025-0.257-0.066-0.421-0.123l-0.292-0.055c-0.115,0.074-0.252,0.148-0.407,0.224c0.399,0.057,0.872,0.132,1.419,0.229
			c0-0.006,0.002-0.011,0.006-0.014c0.005-0.004,0.003,0.018-0.006,0.064c-0.006,0.038-0.018,0.061-0.033,0.066h-0.008
			c-0.145-0.019-0.282-0.033-0.414-0.043c0.092,0.026,0.15,0.043,0.18,0.052l0.168,0.292c-0.034,0.119-0.054,0.146-0.058,0.074
			l-0.11,0.014c-0.026-0.019-0.054-0.037-0.086-0.057c-0.414,0.054-0.967,0.086-1.656,0.099c-0.006,0.024-0.011,0.048-0.015,0.07
			c0.39,0.087,0.854,0.181,1.391,0.276c0.112-0.006,0.229-0.013,0.352-0.019c-0.003,0.019,0.017,0.038,0.06,0.056
			c-0.045,0-0.099,0.006-0.158,0.014l-0.019,0.02c0.116,0,0.234,0.002,0.36,0.009l-0.019,0.104
			c-0.028,0.013-0.042,0.023-0.042,0.033c-0.027,0-0.06,0.001-0.094,0.005l-0.014,0.064c-0.113,0.022-0.377,0.07-0.797,0.146
			c-0.16,0.055-0.345,0.115-0.548,0.178l0.042,0.111c-0.062,0.021-0.129,0.044-0.195,0.065c0.434-0.097,0.778-0.153,1.038-0.173
			l-0.019,0.098c-0.246,0.151-0.769,0.331-1.567,0.544c0.097,0,0.146,0.021,0.149,0.062c-0.082,0.096-0.252,0.202-0.511,0.317v0.01
			c0.299-0.112,0.543-0.199,0.731-0.263c0.424-0.156,0.625-0.17,0.604-0.041c-0.015,0.064-0.157,0.158-0.432,0.281l-0.009,0.036
			c-0.041,0.169-0.425,0.394-1.152,0.674c-0.034,0.089-0.068,0.179-0.104,0.272c0.063-0.01,0.126-0.025,0.188-0.047
			c1.155-0.342,1.605-0.414,1.349-0.221c-0.152,0.104-0.445,0.227-0.88,0.37c-0.19,0.124-0.381,0.242-0.57,0.353
			c0.863-0.301,1.387-0.463,1.567-0.483l-0.019,0.099c-0.294,0.131-0.744,0.312-1.353,0.543c-0.132,0.1-0.374,0.248-0.728,0.444
			c-0.021,0.048-0.041,0.095-0.06,0.142c1.192-0.562,1.775-0.771,1.748-0.629c-0.008,0.035-0.455,0.272-1.341,0.713
			c-0.062,0.034-0.124,0.066-0.188,0.093c-0.044,0.06-0.096,0.119-0.155,0.179c-0.006,0.031-0.013,0.065-0.021,0.104
			c-0.011,0.043-0.045,0.098-0.108,0.163l-0.005,0.038c0.675-0.297,1.078-0.455,1.213-0.475l-0.019,0.1
			c-0.278,0.134-0.7,0.336-1.269,0.604c-0.013,0.02-0.032,0.039-0.057,0.061c0.253-0.119,0.469-0.199,0.651-0.243
			c0.032-0.093,0.088-0.124,0.169-0.089l-0.011,0.057c0.068-0.01,0.136-0.011,0.2-0.006c-0.021,0.014-0.054,0.033-0.102,0.062
			c0.493-0.192,0.834-0.333,1.025-0.421l-0.023,0.094c-0.452,0.271-1.153,0.623-2.103,1.058c-0.031,0.016-0.06,0.032-0.084,0.048
			c-0.032,0.023-0.147,0.108-0.348,0.252c-0.017,0.051-0.044,0.103-0.073,0.159c0.353-0.222,0.608-0.378,0.768-0.469
			c-0.128,0.144-0.339,0.32-0.632,0.53c0.277-0.129,0.71-0.322,1.295-0.582c0.013,0.029,0.019,0.051,0.016,0.066
			c-0.165,0.113-0.364,0.23-0.596,0.355c0.011,0,0.019,0.002,0.028,0.005c0.022,0.009,0.027,0.034,0.02,0.075
			c-0.025,0.115-0.286,0.294-0.782,0.533c0,0.01,0,0.021,0,0.033c-0.168,0.094-0.336,0.195-0.5,0.305
			c-0.051,0.115-0.101,0.229-0.151,0.342c0.031-0.035,0.053-0.061,0.066-0.08c0.021,0.01,0.038,0.021,0.051,0.037
			c0.006,0.006,0.011,0.014,0.015,0.02c-0.068,0.094-0.156,0.195-0.262,0.309c-0.07,0.168-0.144,0.336-0.226,0.501
			c0.494-0.278,0.788-0.407,0.886-0.388c0.043,0.008,0.063,0.02,0.06,0.031c0,0.004-0.003,0.007-0.009,0.01l-0.01,0.029
			c-0.128,0.096-0.503,0.362-1.123,0.801l-0.142,0.317c0.369-0.24,0.584-0.377,0.642-0.412l0.02,0.038
			c-0.044,0.08-0.161,0.198-0.353,0.35c-0.239,0.195-0.368,0.303-0.389,0.324h0.015l0.276-0.178c0.028,0.031,0.044,0.059,0.046,0.08
			l-0.008,0.074c-0.01,0.053-0.182,0.242-0.517,0.566c-0.001,0.006-0.008,0.013-0.017,0.02c-0.013,0.074-0.028,0.15-0.048,0.225
			c0.053-0.037,0.085-0.057,0.1-0.057c0.046,0.013,0.068,0.023,0.068,0.033l-0.004,0.004c0,0.01-0.001,0.029-0.004,0.057
			c-0.016,0.062-0.092,0.156-0.231,0.281c-0.012,0.068-0.024,0.137-0.041,0.206l0.253-0.132c0.04,0.01,0.063,0.02,0.066,0.033
			c0.002,0.004,0.002,0.007,0,0.01c-0.003,0.016-0.006,0.029-0.006,0.041c0,0.02-0.002,0.048-0.009,0.085
			c-0.004,0.021-0.109,0.079-0.317,0.174c-0.007,0-0.017,0.003-0.028,0.009c-0.015,0.066-0.026,0.131-0.039,0.192
			c0.02-0.01,0.041-0.018,0.067-0.024c0.193-0.055,0.297-0.082,0.312-0.078c0.044,0.009,0.064,0.02,0.064,0.033
			c0.004,0.006,0.002,0.01-0.003,0.014c-0.013,0.033-0.017,0.074-0.01,0.121c0.01,0.06,0.012,0.105,0.005,0.141
			c-0.016,0.077-0.199,0.205-0.549,0.385c-0.349,1.865-0.551,3.456-0.604,4.77c-0.075,1.787,0.011,2.79,0.257,3.012
			c0.254,0.222,0.404,0.361,0.455,0.422c0.589,0.689,0.549,1.467-0.121,2.331c0.67,0.946,0.41,1.594-0.777,1.943l-0.075-0.014
			c-0.163,0.159-0.355,0.243-0.576,0.253c-0.339,0.031-0.727-0.24-1.165-0.814c-0.007-0.02-0.019-0.033-0.034-0.043
			c-0.009,0.01-0.028,0.025-0.057,0.047c-0.426,0.188-0.793,0.152-1.095-0.104c-0.082-0.04-0.247-0.226-0.497-0.557
			c-0.271-0.359-0.696-1.104-1.273-2.233c-0.399-0.806-0.74-1.397-1.026-1.779c-0.031-0.122-0.064-0.224-0.101-0.305
			c-0.145-0.286-0.177-0.665-0.096-1.134c0.026,0.131,0.064,0.296,0.118,0.492c-0.051-0.252-0.096-0.473-0.136-0.66
			c0.009-0.05,0.009-0.086,0-0.107l-0.006,0.033c-0.059-0.315-0.097-0.541-0.112-0.674c-0.243,0.189-0.509,0.362-0.795,0.519
			l-0.735,0.37c-1.203-0.793-1.286-1.487-0.253-2.082c0.209-0.096,0.395-0.211,0.558-0.348c-0.014-0.166,0.012-0.326,0.074-0.482
			c0.216-0.35,0.387-0.664,0.515-0.941c0.159-0.287,0.3-0.618,0.423-0.993c0.036-0.161,0.073-0.337,0.111-0.524
			c0.462,0.428,1.067-0.266,1.817-2.078c-0.122,0.206-0.189,0.309-0.202,0.309c-0.04-0.01-0.065-0.025-0.08-0.047l-0.014-0.033
			c0.029-0.137,0.041-0.227,0.037-0.271c0-0.041,0.007-0.092,0.02-0.153c0.013-0.065,0.07-0.2,0.173-0.403l-0.005-0.019
			c0.01-0.01,0.02-0.021,0.028-0.032c0.041-0.08,0.085-0.164,0.132-0.258l0.004-0.024c0.085-0.155,0.168-0.304,0.249-0.44
			c-0.066,0.055-0.124,0.092-0.174,0.113c0.115-0.159,0.237-0.347,0.365-0.562c-0.042,0.041-0.078,0.078-0.112,0.113l-0.015-0.02
			c-0.012,0.037-0.012,0.021,0-0.047c0.009-0.035,0.111-0.24,0.305-0.618c-0.018,0.01-0.035,0.013-0.052,0.01
			c-0.044-0.007-0.065-0.015-0.065-0.023c0.007-0.017,0.008-0.029,0.005-0.042c0.165-0.271,0.337-0.586,0.515-0.941
			c0.034-0.181,0.073-0.396,0.113-0.646c-0.219,0.389-0.385,0.625-0.497,0.713c0.217-0.402,0.4-0.761,0.554-1.073
			c0.04-0.221,0.081-0.463,0.125-0.726c-0.111,0.188-0.229,0.388-0.351,0.6l-0.01-0.07c0.15-0.28,0.283-0.532,0.398-0.754
			c0.046-0.281,0.097-0.576,0.149-0.885c0.007-0.041,0.015-0.084,0.024-0.131c0.002-0.019,0.007-0.037,0.014-0.058
			c-0.303,0.557-0.511,0.898-0.623,1.026l-0.023-0.02c0.28-0.58,0.528-1.102,0.744-1.562c0.007-0.031,0.012-0.064,0.015-0.1
			c-0.081,0.15-0.163,0.302-0.243,0.455c-0.017-0.004-0.027-0.013-0.037-0.028c0-0.007,0.113-0.267,0.342-0.782
			c0.345-2.294,0.407-4.842,0.183-7.642c-0.272-3.315-0.299-5.962-0.082-7.941c0.238-1.985,0.051-4.222-0.561-6.71
			c-0.53-2.197-0.991-4.807-1.381-7.824c-0.069-0.465-0.127-0.938-0.174-1.414c-1.354-2.297-2.002-4.839-1.943-7.623
			c0.015-2.123,0.654-3.73,1.916-4.823c0.206-0.185,0.433-0.351,0.679-0.501c0.495-0.316,1.066-0.567,1.708-0.758h-1.603
			C103.574,64.056,103.696,64.022,103.822,63.993L103.822,63.993z M110.62,69.536c0.017,0.134,0.03,0.268,0.043,0.398
			c0.015,0.077,0.032,0.155,0.052,0.233c-0.011-0.152-0.026-0.312-0.052-0.477C110.652,69.645,110.64,69.593,110.62,69.536z
			 M110.695,71.414c-0.012,0.237-0.035,0.48-0.064,0.73c0.018,0.068,0.04,0.144,0.064,0.225c0.021,0.062,0.04,0.123,0.052,0.184
			c0.009-0.154,0.014-0.307,0.014-0.459c-0.006-0.092-0.014-0.182-0.022-0.271l-0.005-0.006c0-0.012,0.002-0.028,0.005-0.047
			C110.725,71.651,110.711,71.532,110.695,71.414L110.695,71.414z M110.78,72.678c0.003-0.016,0.003-0.029,0-0.041
			c-0.004,0.002-0.011,0.004-0.02,0.004C110.773,72.652,110.78,72.666,110.78,72.678L110.78,72.678z M110.785,73.287
			c0.111,0.172,0.223,0.342,0.332,0.511c0.065,0.065,0.131,0.138,0.191,0.216c0.104,0.062,0.197,0.111,0.281,0.149
			c-0.141-0.149-0.276-0.292-0.407-0.427c-0.016-0.002-0.038-0.008-0.065-0.014c-0.051-0.084-0.101-0.162-0.154-0.234
			C110.903,73.424,110.844,73.355,110.785,73.287z M112.48,76.607c0.093,0.135,0.176,0.253,0.248,0.355
			c-0.083-0.135-0.144-0.237-0.188-0.31c0.156,0.173,0.286,0.327,0.39,0.465c-0.107-0.21-0.241-0.452-0.403-0.728
			c-0.097-0.152-0.223-0.357-0.38-0.617c0.113,0.266,0.218,0.537,0.314,0.814C112.471,76.596,112.478,76.602,112.48,76.607
			L112.48,76.607z M113.865,80.953c0.029,0.158,0.051,0.324,0.07,0.496c0.106,0.299,0.202,0.592,0.287,0.875l-0.049,0.02
			c-0.059-0.11-0.122-0.224-0.186-0.343c0,0.013,0,0.028,0,0.048c0.149,0.289,0.263,0.607,0.342,0.955
			c0.093,0.195,0.178,0.393,0.257,0.59C114.276,82.395,114.037,81.514,113.865,80.953z M113.997,82.146
			c0.009,0.049,0.014,0.102,0.014,0.154c0.053,0.109,0.104,0.219,0.149,0.328C114.118,82.46,114.062,82.299,113.997,82.146z
			 M114.052,84.024c0.023,0.068,0.044,0.138,0.066,0.206c-0.016-0.144-0.036-0.283-0.066-0.418
			C114.052,83.879,114.052,83.949,114.052,84.024z M114.059,83.574c0.07,0.188,0.125,0.504,0.164,0.951
			c0.004,0.027,0.007,0.055,0.004,0.08c0.043,0.182,0.058,0.305,0.047,0.369c0,0.003,0,0.008,0,0.014
			c0.011,0.094,0.022,0.18,0.031,0.258c-0.009-0.25-0.025-0.487-0.05-0.711c-0.025-0.271-0.057-0.518-0.095-0.736
			c-0.027-0.199-0.065-0.396-0.112-0.59C114.051,83.324,114.054,83.447,114.059,83.574z M114.104,85.199
			c0-0.162-0.02-0.346-0.061-0.553c-0.01,0.209-0.015,0.41-0.019,0.6c0.042,0.158,0.078,0.303,0.113,0.432
			c0.011-0.178,0.021-0.334,0.022-0.465L114.104,85.199z M114.033,85.64c0,0.081,0.005,0.167,0.015,0.257
			c0.012,0.242,0.019,0.459,0.015,0.656c0.021-0.203,0.04-0.388,0.056-0.553C114.09,85.885,114.062,85.764,114.033,85.64z
			 M113.379,89.436v0.006c0,0.004,0,0.006,0,0.01C113.382,89.445,113.382,89.439,113.379,89.436z M113.337,90.242
			c0.027,0.057,0.053,0.172,0.074,0.346c0.009-0.074,0.013-0.156,0.009-0.248c0-0.052-0.002-0.105-0.009-0.163
			c-0.009-0.112-0.025-0.235-0.047-0.37c-0.022-0.093-0.042-0.184-0.06-0.267c0,0.003,0,0.008,0,0.014
			C113.311,89.791,113.32,90.021,113.337,90.242z M113.763,98.38c0.109,0.222,0.209,0.419,0.3,0.595
			c-0.19-0.396-0.363-0.777-0.521-1.142c0.05,0.134,0.094,0.259,0.132,0.374C113.699,98.264,113.728,98.321,113.763,98.38z
			 M113.851,101.242c0.089,0.168,0.163,0.383,0.226,0.645c0.034,0.109,0.057,0.196,0.065,0.258c0.013,0.016,0.024,0.03,0.032,0.043
			c0.042,0.072,0.082,0.143,0.122,0.211c0.122,0.121,0.248,0.251,0.38,0.388c0.009,0.017,0.02,0.028,0.027,0.038
			c-0.137-0.225-0.283-0.488-0.436-0.791c-0.146-0.316-0.277-0.58-0.393-0.791C113.869,101.238,113.859,101.238,113.851,101.242z
			 M113.495,100.146v-0.014c-0.021-0.058-0.046-0.108-0.075-0.159c0.004,0.009,0.004,0.021,0,0.037
			C113.449,100.053,113.474,100.099,113.495,100.146z M113.158,102.983c-0.011-0.013-0.02-0.023-0.027-0.032v0.009
			C113.139,102.967,113.147,102.975,113.158,102.983z M113.562,102.73c0.034,0.035,0.064,0.072,0.089,0.113l0.28,0.359
			c0.016,0.014,0.033,0.03,0.053,0.051c0.01,0.016,0.017,0.027,0.022,0.034l0.233,0.323c0.113,0.149,0.222,0.297,0.323,0.443
			c-0.006-0.002-0.015-0.004-0.027-0.008c0.06,0.068,0.116,0.131,0.173,0.188l-0.037,0.074c0.06,0.05,0.133,0.109,0.22,0.178
			c0.046,0.051,0.081,0.096,0.098,0.137c0.015,0.006,0.023,0.01,0.029,0.014l-0.004-0.038c-0.029-0.103-0.082-0.241-0.161-0.416
			c-0.056-0.142-0.101-0.243-0.136-0.305c-0.018-0.028-0.04-0.058-0.065-0.089c-0.005,0-0.013-0.005-0.022-0.014
			c-0.309-0.253-0.585-0.545-0.825-0.877c-0.073-0.055-0.153-0.117-0.237-0.182L113.562,102.73L113.562,102.73z M114.54,103.428
			c0.023,0.035,0.051,0.07,0.074,0.108c0-0.028-0.002-0.054-0.004-0.075c-0.031-0.02-0.062-0.043-0.095-0.07
			C114.526,103.399,114.533,103.413,114.54,103.428z M114.423,103.441c-0.048-0.078-0.095-0.147-0.141-0.205
			c-0.027-0.019-0.056-0.041-0.084-0.066c0.071,0.098,0.142,0.186,0.211,0.263C114.415,103.436,114.42,103.438,114.423,103.441
			L114.423,103.441z M113.95,103.809c0.016,0.018,0.028,0.037,0.038,0.055c0.326,0.277,0.603,0.491,0.823,0.637
			c-0.013-0.012-0.027-0.028-0.047-0.051c-0.04-0.047-0.073-0.088-0.098-0.122l-0.005,0.005c-0.156-0.135-0.336-0.294-0.539-0.478
			c-0.024-0.019-0.057-0.038-0.093-0.056C114.011,103.801,113.984,103.805,113.95,103.809z M114.207,104.383
			c-0.003,0.01-0.005,0.02-0.009,0.028c0.019,0.017,0.034,0.03,0.052,0.042c0.189,0.075,0.341,0.137,0.449,0.184
			c-0.159-0.115-0.331-0.242-0.516-0.38C114.203,104.312,114.211,104.355,114.207,104.383L114.207,104.383z M114.108,105.966
			c-0.033-0.013-0.065-0.034-0.093-0.065c-0.004-0.01-0.008-0.014-0.014-0.014c-0.014,0.049-0.022,0.063-0.029,0.042
			c-0.019,0-0.042-0.001-0.07-0.005c0.072,0.019,0.158,0.037,0.258,0.057L114.108,105.966z M113.003,103.859
			c-0.001,0.012-0.005,0.025-0.008,0.037c0.046,0.025,0.092,0.053,0.136,0.084c-0.016-0.019-0.028-0.037-0.037-0.057
			L113.003,103.859z M113.009,104.375c0.006,0.006,0.013,0.013,0.019,0.022c0.04,0.007,0.078,0.013,0.111,0.019
			c-0.018-0.021-0.035-0.041-0.05-0.061C113.066,104.361,113.041,104.367,113.009,104.375z M113.332,104.341
			c0.04,0.044,0.079,0.087,0.117,0.127c0.013,0.003,0.023,0.005,0.032,0.005c-0.021-0.027-0.047-0.061-0.075-0.094
			C113.387,104.363,113.363,104.351,113.332,104.341L113.332,104.341z M113.443,104.848c0.038,0.037,0.074,0.075,0.108,0.116h0.023
			c-0.025-0.038-0.055-0.071-0.089-0.103L113.443,104.848L113.443,104.848z M112.892,104.482l0.024,0.004
			c0-0.01-0.006-0.019-0.015-0.027C112.901,104.461,112.897,104.469,112.892,104.482z M112.846,104.739
			c-0.011,0.065-0.023,0.132-0.038,0.196l0.519,0.02c-0.047-0.051-0.095-0.102-0.148-0.155L112.846,104.739z M113.707,105.113
			c-0.036-0.037-0.068-0.076-0.098-0.116c0,0.003-0.003,0.007-0.006,0.01C113.638,105.043,113.671,105.08,113.707,105.113z
			 M113.468,105.104c-0.028,0.012-0.057,0.028-0.085,0.048c0.072,0.023,0.143,0.048,0.211,0.069
			C113.558,105.188,113.515,105.148,113.468,105.104z M113.758,105.619c-0.39-0.096-0.736-0.183-1.039-0.258
			c-0.017,0.092-0.037,0.186-0.061,0.281l0.252,0.047C113.294,105.65,113.577,105.625,113.758,105.619z M112.675,106.125
			c0.076-0.03,0.143-0.064,0.202-0.098c-0.07,0.003-0.175,0.008-0.308,0.014c-0.004,0.012-0.007,0.027-0.011,0.047
			C112.603,106.101,112.642,106.113,112.675,106.125L112.675,106.125z M111.608,109.328c-0.007,0.029-0.016,0.055-0.027,0.079
			c0.199-0.087,0.375-0.171,0.524-0.253c-0.136,0.044-0.274,0.093-0.424,0.146C111.659,109.307,111.633,109.315,111.608,109.328z
			 M111.814,108.747c0.095-0.036,0.19-0.069,0.291-0.098l-0.044-0.032c-0.071,0.021-0.142,0.029-0.215,0.027
			C111.834,108.676,111.824,108.711,111.814,108.747z M111.29,110.27c-0.013,0.003-0.027,0.008-0.048,0.014
			c-0.002,0.004-0.005,0.008-0.009,0.014C111.253,110.287,111.271,110.278,111.29,110.27z M112.269,107.24
			c-0.003,0.021-0.009,0.045-0.019,0.07c0.141,0.021,0.268,0.041,0.379,0.06c0.151-0.006,0.336-0.006,0.557,0
			c-0.442-0.046-0.721-0.083-0.837-0.106C112.323,107.257,112.297,107.25,112.269,107.24z M112.475,106.434
			c-0.025,0.113-0.053,0.224-0.084,0.333c0.041,0,0.079,0.002,0.111,0.005c0.385-0.081,0.681-0.145,0.885-0.192
			c-0.136-0.06-0.289-0.118-0.457-0.177c-0.104-0.01-0.205-0.021-0.305-0.033c-0.028,0.018-0.06,0.033-0.094,0.042
			C112.513,106.418,112.493,106.426,112.475,106.434z M113.604,106.669c-0.023-0.01-0.041-0.02-0.057-0.028
			c-0.025,0.009-0.056,0.019-0.093,0.028C113.503,106.669,113.554,106.669,113.604,106.669z M113.65,106.771
			c-0.135-0.019-0.216-0.047-0.244-0.084c-0.096,0.023-0.217,0.055-0.365,0.088C113.275,106.782,113.479,106.781,113.65,106.771z
			 M113.359,107.516c-0.181,0.01-0.525,0.037-1.033,0.084c-0.048,0.004-0.101,0.01-0.161,0.02c-0.009,0.031-0.021,0.066-0.037,0.107
			c0.65-0.104,1.2-0.168,1.653-0.196C113.569,107.518,113.429,107.512,113.359,107.516z M112.062,107.966
			c-0.005,0.013-0.008,0.022-0.008,0.032c0.059-0.021,0.116-0.041,0.173-0.061C112.174,107.947,112.118,107.957,112.062,107.966z
			 M110.747,111.482c-0.019,0.012-0.036,0.023-0.052,0.032c-0.015,0.028-0.027,0.053-0.037,0.075
			C110.691,111.553,110.722,111.516,110.747,111.482z M108.799,116.122c-0.08,0.041-0.156,0.08-0.225,0.118l-0.028,0.069
			c0,0.003,0,0.007,0,0.015c0.109-0.084,0.192-0.15,0.248-0.197L108.799,116.122z M108.494,117.996l0.033,0.004l0.019-0.079
			c-0.049,0.019-0.092,0.051-0.127,0.097h0.038C108.461,118.004,108.474,117.996,108.494,117.996z M108.145,118.258
			c0.094-0.053,0.157-0.096,0.195-0.127c-0.027,0.013-0.09,0.039-0.188,0.08C108.15,118.223,108.146,118.238,108.145,118.258z"/>
	</g>
	<g id="Layer_2_7_">
		<path id="path17_11_" fill="#010101" d="M83.172,105.994c-0.031-0.004-0.058-0.004-0.08,0c-0.021-0.021-0.029-0.041-0.023-0.057
			c0.051-0.019,0.113-0.023,0.188-0.014c0.531-0.434,1.16-0.876,1.886-1.325c0.732-0.45,1.78-0.639,3.144-0.567
			c0.016-0.03,0.034-0.064,0.055-0.098c0.195-0.371,0.416-0.678,0.661-0.918c0.304-0.303,0.581-0.438,0.834-0.407
			c0.231-0.303,0.6-0.56,1.105-0.769c0.206-0.096,0.426-0.173,0.661-0.229c0.021-0.01,0.041-0.022,0.061-0.037
			c-0.106,0.012-0.198,0-0.271-0.038l0.008-0.032c0.363-0.081,0.669-0.171,0.92-0.268c0.096-0.084,0.196-0.166,0.299-0.248
			c-0.406,0.166-0.662,0.246-0.77,0.239c0.028-0.02,0.241-0.116,0.637-0.29l0.02-0.037c0.078-0.029,0.155-0.059,0.229-0.09v-0.01
			c-0.185,0.075-0.381,0.148-0.589,0.22c0.171-0.114,0.464-0.274,0.88-0.478c0.04-0.012,0.079-0.023,0.116-0.037
			c0.088-0.084,0.173-0.17,0.259-0.258c-0.351,0.156-0.593,0.236-0.728,0.24c0.339-0.144,0.645-0.283,0.918-0.418
			c0.25-0.266,0.492-0.539,0.731-0.824c0.992-1.066,2.157-2.418,3.492-4.055c1.225-1.482,2.354-2.711,3.386-3.685l7.773,6.293
			c-1.36,1.28-3.057,2.603-5.086,3.966c-0.645,0.409-2.415,1.277-5.305,2.604c-0.006,0.053-0.017,0.116-0.029,0.188
			c-0.029,0.385-0.064,0.613-0.103,0.689c-0.028,0.058-0.042,0.064-0.046,0.018c-0.028,0.097-0.055,0.172-0.08,0.225
			c-0.047,0.078-0.084,0.127-0.111,0.146c-0.057,0.034-0.146,0.046-0.269,0.037c-0.007-0.007-0.012-0.013-0.019-0.019
			c-0.021,0.068-0.039,0.135-0.051,0.197l-0.028-0.033c0-0.088,0.001-0.178,0.005-0.271c-0.015-0.035-0.034-0.074-0.057-0.118
			c0.004,0.591-0.016,0.922-0.062,0.993c-0.028,0.062-0.04,0.076-0.036,0.037l-0.043-0.041c0-0.01-0.002-0.178-0.009-0.502
			c-0.013,0.229-0.033,0.369-0.061,0.422c-0.019,0.041-0.04,0.062-0.062,0.066c-0.009,0-0.027-0.006-0.057-0.016
			c-0.03-0.027-0.047-0.051-0.047-0.07c-0.004,0.066-0.011,0.107-0.023,0.123c-0.021,0.043-0.041,0.068-0.061,0.074
			c-0.003,0.004-0.027-0.003-0.075-0.018c-0.002-0.031-0.008-0.063-0.013-0.094c-0.007-0.054-0.016-0.119-0.028-0.197l-0.038-0.014
			l-0.047-0.268l0.044-0.01c0.008,0.021,0.014,0.043,0.017,0.062c-0.003-0.072-0.008-0.15-0.014-0.23
			c-0.002-0.05-0.006-0.104-0.009-0.164c-0.008,0.006-0.016,0.013-0.024,0.019c-0.012,0.006-0.033,0.013-0.064,0.019
			c0,0.025-0.004,0.049-0.009,0.07c-0.004,0.297-0.019,0.545-0.043,0.744l-0.02-0.014c0,0.037-0.007,0.067-0.021,0.09
			c-0.017,0.021-0.04,0.039-0.071,0.056c-0.024,0.006-0.06,0.017-0.104,0.032c-0.004-0.055-0.008-0.125-0.014-0.211
			c-0.003,0.018-0.013,0.027-0.034,0.033c0.027,0.26,0.043,0.455,0.052,0.59l-0.026,0.006c-0.016-0.085-0.043-0.28-0.081-0.586
			c-0.015-0.004-0.033-0.004-0.055-0.004c-0.032-0.153-0.06-0.393-0.085-0.717c-0.027-0.004-0.054-0.01-0.075-0.02
			c0.004,0.094,0.005,0.182,0.005,0.264c0.063,0.449,0.092,0.79,0.084,1.024c0-0.038-0.034-0.218-0.104-0.538
			c-0.019,0.012-0.052,0.025-0.103,0.037c0.004,0.141-0.014,0.246-0.051,0.318c-0.024,0.04-0.038,0.064-0.038,0.07
			c-0.003,0-0.012,0.002-0.022,0.006l-0.047-0.024c0.007-0.034,0.008-0.069,0.005-0.108c-0.01,0.028-0.027,0.041-0.048,0.039
			c-0.016,0-0.04-0.011-0.074-0.029c-0.057-0.363-0.105-0.676-0.146-0.941c-0.019,0.217-0.031,0.334-0.037,0.356
			c-0.034,0.06-0.053,0.085-0.057,0.079l-0.068,0.004c-0.027,0.01-0.059,0-0.1-0.027c-0.003,0.006-0.007,0.012-0.01,0.014
			c0.14,0.387,0.2,0.6,0.178,0.639c-0.021,0.043-0.047,0.068-0.074,0.078l-0.062-0.014c0.063,0.115,0.093,0.174,0.089,0.178
			c-0.015,0.041-0.032,0.062-0.051,0.066c-0.015-0.004-0.042-0.012-0.08-0.023c-0.05-0.078-0.095-0.15-0.136-0.217
			c0.091,0.244,0.126,0.388,0.103,0.432c-0.021,0.037-0.041,0.051-0.06,0.037c-0.01,0-0.02-0.005-0.028-0.014
			c-0.166-0.269-0.314-0.573-0.445-0.914c-0.038-0.096-0.079-0.21-0.126-0.34c-0.008,0.002-0.013,0.006-0.019,0.014
			c0.024,0.102,0.036,0.174,0.032,0.215c0.005,0.018,0.005,0.042-0.004,0.07c0.024,0.064,0.023,0.119-0.006,0.164
			c-0.036,0.068-0.064,0.096-0.079,0.084l-0.061-0.033l-0.042-0.037c-0.011-0.004-0.033-0.012-0.071-0.028
			c0.057,0.115,0.063,0.21,0.02,0.282c-0.007,0.011-0.013,0.023-0.02,0.037c0.044,0.059,0.073,0.113,0.086,0.163
			c-0.029-0.028-0.084-0.063-0.164-0.108c-0.025,0.01-0.042,0.02-0.048,0.029l-0.211-0.117c-0.005,0.006,0.001,0.023,0.023,0.056
			l-0.899-0.45h-0.004l-0.064,0.01c0.104,0.062,0.156,0.1,0.154,0.108l0.351,0.263c0.074,0.027,0.131,0.053,0.168,0.074
			c0.069,0.068,0.084,0.137,0.048,0.205c-0.045,0.01-0.101,0.014-0.169,0.01l-1.05-0.459c-0.032,0.01-0.066,0.02-0.094,0.029
			c0.042,0.015,0.079,0.031,0.119,0.047c0.564,0.203,0.953,0.363,1.169,0.482l-0.052,0.084c-0.586-0.16-1.115-0.318-1.586-0.479
			c-0.061,0.021-0.119,0.043-0.179,0.062c0.269,0.162,0.484,0.333,0.65,0.511c-0.031,0.012-0.172-0.025-0.421-0.113
			c-0.022-0.003-0.186-0.102-0.486-0.295c-0.157,0.068-0.32,0.137-0.493,0.201c-0.023,0.02-0.041,0.039-0.052,0.061
			c-0.261,0.494-0.445,0.818-0.552,0.975c-0.013,0.028-0.418,0.482-1.218,1.362c-0.233,0.26-0.52,0.517-0.856,0.772l-2.215,1.442
			l-0.529,0.032c-0.674,0.209-1.212,0.451-1.615,0.727c-0.299,0.396-0.494,0.807-0.585,1.231c-0.115,0.843-0.688,1.321-1.715,1.438
			c-0.265,1.067-0.888,1.333-1.868,0.796l-0.046-0.07c-0.219-0.006-0.404-0.078-0.557-0.215c-0.223-0.2-0.271-0.635-0.146-1.302
			c0.009-0.011,0.015-0.026,0.015-0.052c-0.025,0-0.05-0.006-0.075-0.02c-0.393-0.152-0.594-0.408-0.604-0.768
			c-0.009-0.088,0.027-0.322,0.108-0.707c0.068-0.412,0.328-1.181,0.777-2.307c0.006-0.008,0.011-0.014,0.014-0.021
			c-0.031,0.038-0.066,0.079-0.104,0.126l-0.008-0.027c0.04-0.047,0.088-0.104,0.139-0.174c0.061-0.152,0.114-0.301,0.165-0.444
			c-0.135,0.091-0.22,0.153-0.259,0.187c0.072-0.102,0.171-0.201,0.295-0.299c0.048-0.127,0.092-0.253,0.133-0.375
			c-0.094,0.047-0.143,0.074-0.145,0.08c-0.014,0.021-0.021,0.035-0.024,0.042c-0.031-0.019-0.046-0.036-0.042-0.052
			c0.087-0.04,0.162-0.078,0.22-0.111c0.1-0.279,0.173-0.52,0.221-0.727c-0.101,0.053-0.16,0.083-0.179,0.09l0.009-0.047
			c0.027-0.014,0.085-0.043,0.178-0.089c0.066-0.091,0.12-0.177,0.16-0.258l0.015-0.019c0.107-0.271,0.35-0.537,0.734-0.797
			c-0.034,0.045-0.073,0.09-0.116,0.141c0.074-0.053,0.154-0.102,0.237-0.145c0.045-0.047,0.094-0.096,0.146-0.141
			c-0.111,0.016-0.244,0.033-0.398,0.056c0.055-0.019,0.21-0.063,0.47-0.136c0.125-0.135,0.253-0.263,0.385-0.385
			c-0.03-0.002-0.051-0.006-0.067-0.008l0.02-0.038c0.037-0.013,0.079-0.026,0.127-0.042c0.165-0.172,0.325-0.337,0.482-0.496
			c-0.006-0.006-0.017-0.01-0.032-0.014c0.016,0.004,0.031,0.005,0.045,0.008c0.116-0.125,0.231-0.247,0.347-0.369
			C83.076,106.084,83.126,106.038,83.172,105.994L83.172,105.994z M80.476,108.775c0.037-0.037,0.069-0.074,0.098-0.107
			c0.011-0.01,0.016-0.018,0.02-0.023C80.549,108.691,80.509,108.734,80.476,108.775z M90.078,102.552
			c0.035-0.015,0.071-0.034,0.107-0.06c0.011-0.004,0.017-0.009,0.021-0.015c0.08-0.069,0.155-0.128,0.224-0.178
			c-0.146,0.085-0.284,0.178-0.412,0.281C90.042,102.574,90.064,102.565,90.078,102.552L90.078,102.552z M90.251,102.627
			c-0.04,0.038-0.083,0.079-0.13,0.122c0.096-0.06,0.196-0.119,0.3-0.178C90.364,102.59,90.307,102.608,90.251,102.627z
			 M90.581,102.402c-0.007,0.004-0.016,0.012-0.024,0.023c0.046-0.012,0.086-0.016,0.122-0.009c0.074-0.054,0.145-0.101,0.21-0.141
			C90.773,102.32,90.67,102.362,90.581,102.402z M89.288,103.193c0.003-0.01,0.004-0.016,0.004-0.018
			c-0.007,0.008-0.015,0.017-0.023,0.022C89.277,103.195,89.284,103.193,89.288,103.193z M89.765,102.707
			c0.021-0.02,0.04-0.042,0.052-0.07c-0.324,0.069-0.629,0.277-0.913,0.627c-0.01,0.006-0.129,0.188-0.36,0.545
			c0.072-0.066,0.141-0.135,0.206-0.203c0.015-0.041,0.031-0.074,0.047-0.103c0.111-0.215,0.407-0.464,0.885-0.745
			C89.712,102.743,89.74,102.726,89.765,102.707z M89.882,102.857c0.012-0.008,0.02-0.016,0.023-0.028
			c-0.041,0.028-0.084,0.06-0.131,0.099c0.041-0.02,0.077-0.037,0.107-0.053C89.885,102.866,89.885,102.859,89.882,102.857z
			 M91.498,101.799c0.033-0.006,0.066-0.01,0.098-0.01c0.022-0.013,0.046-0.026,0.071-0.042
			C91.606,101.766,91.551,101.783,91.498,101.799z M91.329,101.985c0.017-0.009,0.028-0.021,0.037-0.032
			c-0.007,0-0.015-0.002-0.024-0.004c-0.148,0.049-0.287,0.111-0.416,0.187c0.072-0.034,0.149-0.062,0.235-0.081
			C91.21,102.027,91.267,102.005,91.329,101.985z M94.35,106.847l-0.016-0.042l0.075,0.009c-0.181-0.106-0.421-0.243-0.721-0.411
			c-0.033,0.012-0.068,0.025-0.103,0.041L94.35,106.847z M96.794,105.377c0.002,0.01,0.003,0.019,0.005,0.027
			c-0.003-0.086-0.002-0.16,0.004-0.225c-0.012,0.006-0.024,0.01-0.038,0.01C96.774,105.248,96.784,105.311,96.794,105.377z
			 M97.355,104.922c0.012,0.115,0.024,0.231,0.037,0.347c0,0.097,0.004,0.187,0.015,0.267c0.002-0.028,0.007-0.059,0.013-0.094
			c0-0.146-0.004-0.309-0.013-0.486c-0.003-0.013-0.007-0.029-0.011-0.047C97.385,104.914,97.371,104.919,97.355,104.922z
			 M94.573,106.697l-0.019-0.02c0.003,0.021,0.006,0.035,0.006,0.041L94.573,106.697z M95.478,106.477
			c0.06,0.1,0.112,0.188,0.158,0.262c-0.061-0.133-0.133-0.32-0.21-0.562c-0.019-0.003-0.035-0.002-0.051,0.005l-0.032,0.019
			C95.383,106.291,95.428,106.383,95.478,106.477z"/>
	</g>
</g>
</svg>
