<?xml version="1.0" encoding="utf-8"?>
<!-- Generator: Adobe Illustrator 15.0.0, SVG Export Plug-In . SVG Version: 6.00 Build 0)  -->
<svg version="1.2" baseProfile="tiny" id="Layer_1" xmlns="http://www.w3.org/2000/svg" xmlns:xlink="http://www.w3.org/1999/xlink"
	 x="0px" y="0px" width="200px" height="200px" viewBox="0 0 200 200" overflow="inherit" xml:space="preserve">
<g>
	<path id="path10_1_" fill="#010101" d="M96.398,80.146c0.018,0.008,0.034,0.016,0.05,0.021
		C96.435,80.155,96.419,80.146,96.398,80.146z M96.398,80.402c-0.082-0.202-0.149-0.418-0.512-0.34
		c0.233,0.439-0.22-0.257-0.169,0.17c-0.277-0.009-0.183-0.387-0.598-0.256c-0.033,0.146,0.126,0.219,0,0.256
		c-0.077-0.15-0.191-0.265-0.341-0.342c-1.487-0.337-2.631-1.453-2.558-3.068c-0.025-0.174-0.231-0.168-0.257-0.342
		c0.612-1.264,1.609-2.143,2.644-2.984c-0.123-0.163-0.197-0.37-0.256-0.597c0.237-0.728,0.814-0.624,1.279-0.938
		c1.285-0.871,0.416-2.785,1.534-3.921c0.284,0,0.569,0,0.853,0c0.726-0.208,1.117-2.117,1.45-1.791
		c0.076-0.151,0.204-0.249,0.255-0.426c1.241-0.047,2.323-1.289,3.836-0.938c0.037,0.349-0.578,0.046-0.596,0.341
		c0.199,0,0.398,0,0.596,0c-0.039-0.166,0.23-0.436,0.257-0.256c-0.1,0.015-0.093,0.135-0.085,0.256
		c0.322,0.052,0.605-0.069,0.418-0.209c0.527,0.283,1.295,0.036,1.884,0.38c-0.342,0.055-0.905-0.111-1.108,0.085
		c0.808,0.187,1.967,0.022,2.473,0.512c-0.212,0.111-0.414-0.19-0.426,0c0.369,0.312,1.228,0.136,1.449,0.597
		c-0.252,0.045-0.603-0.243-0.683-0.085c0.399,0.425,1.27,0.378,1.62,0.853c-0.72-0.16,0.222,0.535-0.341,0.426
		c0.454,0.116,0.921,0.669,0.938,0.938c-0.025-0.077-0.231-0.374-0.257-0.171c0.09,0.004,0.067,0.109-0.085,0.085
		c0.48,0.537,1.123,1.132,0.938,1.876c-0.034-0.307-0.14-0.543-0.426-0.597c0.261,0.705,0.608,1.323,0.937,1.961
		c-0.415-0.151-0.286,0.067-0.596,0.17c-0.221-0.012,0.339-0.38,0-0.512c0.082,0.338-0.478,0.035-0.427,0.341
		c0.122,0.104,0.161,0.293,0.17,0.511c-0.213,0.112-0.267-0.337-0.341-0.085c-0.107,0.445,0.155,3.165-0.171,1.108
		c-0.404,1.542-1.782,3.098-1.022,4.774c-0.141-0.162-0.186-0.471-0.341-0.17c-0.098-0.186-0.018-0.553-0.257-0.597
		c0.151,0.702,0.368,1.79,1.194,1.534c-0.07-0.073-0.352-0.549-0.171-0.341c0.131,0.154,0.308,0.261,0.256,0.597
		c-0.053,0.146-0.404-0.007-0.426,0.17c0.384,0.881,1.505,1.79,1.108,2.899c0.41,0.713,1.344,1.866,2.001,2.448
		c-0.047-0.016-0.097-0.028-0.126-0.061c0.118,0.211,0.801,0.789,0.257,0.426c0.123,0.248,0.629,0.561,0.511,0.768
		c-0.204-0.225-0.562-0.742-0.768-0.682c0.31,0.438,0.88,1.049,1.108,1.449c0.494,0.862-0.11,0.041-0.512-0.512
		c0.209,0.702,0.965,1.309,0.854,2.047c-0.02-0.067-0.003-0.17-0.086-0.172c0.168,0.799,0.584,1.35,0.513,2.389
		c0.462,0.418,0.912,0.849,1.364,1.278c0.035,0.239-0.319-0.214-0.343,0.085c0.939,0.709,1.597,1.701,2.218,2.729
		c0.062,0.232-0.17,0.171-0.171,0.342c0.679,0.601,1.455,1.557,1.705,2.301c-0.218-0.239-0.52-0.842-0.768-0.767
		c0.177,0.419,1.005,1.153,1.024,1.705c-0.125-0.304-0.536-0.771-0.683-0.767c0.449,0.654,0.188,0.74,0.596,1.277
		c0-0.128-0.315-0.349-0.085-0.426c0.463,0.874,1.023,2.104,1.279,2.899c-0.183-0.138-0.35-0.687-0.511-0.341
		c-0.004-0.342-0.262-0.872-0.427-0.768c0.262,0.207-0.099,0.053-0.085,0.17c0.175,0.169,0.08,0.169,0.255,0
		c-0.107,0.387,0.193,0.514,0.342,1.023c-0.028-0.105,0.014-0.527,0.084-0.256c-0.254,0.76,0.296,1.408,0.172,2.217
		c-0.164,1.062-0.086,2.881,0.085,4.008c0.156,1.025,0.447,1.864,0.683,2.643c-0.046-0.033-0.127-0.414-0.171-0.17
		c0.186,1.312,1.082,2.252,1.193,3.154c-0.05-0.076-0.178-0.486-0.256-0.256c0.197,0.342,0.715,1.178,0.342,0.682
		c-0.18-0.238-0.457-0.775-0.769-1.193c-0.043,1.323,1.077,1.935,1.279,2.729c-0.116-0.116-0.358-0.543-0.426-0.426
		c0.161,0.553,0.973,0.978,0.426,1.277c0.154,0.136,0.521,0.498,0.341,0.683c-0.362-0.405-0.781-1.206-1.193-1.278
		c0.277,0.435,0.926,0.947,0.938,1.363c-0.263-0.251-0.571-0.903-0.853-0.852c0.707,0.685,1.142,1.643,1.705,2.473
		c-0.389-0.01-0.349-0.448-0.684-0.512c0.492,0.787,1.21,1.348,1.621,2.217c-0.15,0.049-0.501-0.104-0.512,0.085
		c0.269,0.33,1.008,0.64,1.022,0.938c-0.18-0.104-0.247-0.322-0.511-0.342c-0.063,0.263,0.233,0.164,0.17,0.426
		c-0.201-0.001-0.25,0.146-0.511,0.086c0.004,0.109,0.108,0.117,0.085,0.256c-0.266-0.129-0.367,0.055-0.597,0.17
		c0.255,0.087,0.213,0.47,0.682,0.342c0.027-0.197-0.246-0.095-0.256-0.256c0.259,0.055,0.492,0.133,0.512,0.426
		c-0.31,0.062-0.734,0.061-0.852,0.086c-0.053,0.393,0.731-0.051,0.596,0.426c-0.696,0.074-1.285-0.266-1.534,0.256
		c0.429,0.055,1.077-0.111,1.364,0.086c-0.546-0.01,0.066,0.166,0,0.426c-0.711,0.027-1.26,0.218-1.79,0.426
		c0.701,0.09,1.618-0.168,1.96,0.086c-0.366,0.373-1.193,0.283-1.364,0.852c0.219-0.069,0.616-0.402,0.853-0.17
		c-0.442,0.354-1.164,0.428-1.364,1.023c0.269-0.077,0.591-0.545,0.938-0.256c-0.464,0.502-1.049,0.883-1.449,1.449
		c0.534-0.064,0.967-0.68,1.449-0.512c-0.261,0.253-0.985,0.49-0.938,0.768c0.316-0.141,0.754-0.607,1.109-0.426
		c-0.673,0.35-1.595,0.904-1.791,1.449c0.382-0.33,0.985-0.891,1.45-0.854c-0.402,0.48-1.452,0.766-1.364,1.45
		c0.317-0.194,0.592-0.433,0.938-0.597c-0.094,0.361-0.552,0.357-0.682,0.682c0.441-0.099,0.943-0.588,1.277-0.512
		c-0.704,0.604-1.613,1.002-2.131,1.791c0.207-0.027,0.376-0.525,0.512-0.341c-0.117,0.009-0.333,0.332-0.17,0.341
		c0.223-0.178,0.615-0.631,0.852-0.512c-0.691,0.871-1.655,1.322-1.705,2.643c0.267-0.051,0.487-0.588,0.768-0.34
		c-0.344,0.365-0.859,0.559-0.937,1.193c0.205-0.027,0.376-0.524,0.511-0.342c-0.131,0.182-0.309,0.318-0.427,0.512
		c0.449,0.184-0.246,0.572-0.256,0.854c0.367,0.188-0.025,0.354,0,0.682c0.123-0.021,0.145-0.141,0.256-0.171
		c0.089,0.374-0.287,0.28-0.256,0.597c0.112-0.087,0.314-0.084,0.427-0.17c0.133,0.588-0.388,0.523-0.427,0.938
		c0.065,2.748,0.242,5.385,1.023,7.418c0.991,0.262,1.681,1.593,1.022,2.729c1.578,1.275-1.182,3.271-2.302,1.875
		c-0.695,0.422-1.499-0.018-1.876-0.426c0.226,0.322-0.031,0.373-0.255,0.17c0.178,0.336,0.473,0.283,0.426,0.682
		c-0.194,0.117-0.32-0.219-0.341,0c0.232,0.422,0.786,0.521,0.938,1.023c-0.304,0.072-0.468-0.434-0.597-0.255
		c0.103,0.187,0.553,0.465,0.341,0.682c-0.171-0.202-0.021,0.155,0.086,0.171c-0.22,0.092-0.407-0.26-0.513,0
		c0.215,0.212,0.458,0.396,0.683,0.597c-0.218,0.065-0.393-0.333-0.511-0.085c0.047,0.378,0.511,0.34,0.681,0.597
		c-0.126,0.015-0.313-0.031-0.34,0.085c0.694,1.117,1.287,2.23,2.217,3.154c1.038,1.033,2.558,1.498,3.41,2.559
		c0.699,0.869,1.451,1.961,1.875,2.729c-0.278-0.261-0.364-0.715-0.767-0.854c0.041,0.529,0.817,0.771,0.682,1.194
		c-0.057-0.095-0.283-0.442-0.341-0.256c0.093,0.476,0.501,0.635,0.598,1.107c-0.021,0.161-0.142-0.048-0.172,0.087
		c0.806,1.4,0.999,2.962,1.706,4.518c-0.6-0.226-0.494-1.154-0.938-1.535c0.025,0.912,0.795,1.534,0.768,2.217
		c-0.051-0.075-0.18-0.485-0.257-0.255c0.014,1.097,0.882,1.789,0.853,2.644c-0.205-0.393-0.405-0.789-0.682-1.109
		c0.094,0.701,0.529,1.063,0.597,1.791c-0.318-0.051-0.264-0.475-0.511-0.598c-0.114,0.656,0.613,0.918,0.341,1.45
		c-0.051-0.077-0.18-0.485-0.257-0.256c0.47,0.526,0.816,1.175,1.194,1.79c-0.485,0.057-0.57-0.734-0.854-0.596
		c0.562,0.684,1.615,1.251,1.621,2.217c-0.378,0.06-0.662-0.414-0.853-0.256c0.365,0.543,0.893,0.925,1.363,1.363
		c-0.16,0.268-0.443-0.206-0.511,0c0.448,0.148,0.72,0.475,1.022,0.768c0.106,0.276-0.276,0.064-0.17,0.341
		c1.099,0.312,1.795,1.418,1.533,2.813c-4.635,2.019-12.132,1.324-18.073,1.279c-0.011-0.436,0.244-0.607,0.34-0.938
		c2.477-0.282,4.824-0.689,7.076-1.193c-1.687-0.125,0.491,0.072,0.768-0.256c-0.182-0.023-0.909,0.064-0.682-0.086
		c0.909,0.003,1.169-0.273,1.704-0.512c-0.081-0.145-0.233-0.219-0.511-0.17c0.564-0.289,0.723-0.984,1.023-1.535
		c-0.217,0.285-0.497,0.002-0.681,0.256c-0.003-0.375,0.337-0.457,0.168-0.768c-0.294,0.181-0.247-0.42-0.168-0.682
		c-0.234,0.136-0.422,0.318-0.684,0.426c-0.07-0.248,0.508-0.277,0.255-0.426c-0.157,0.158-0.591,0.483-0.852,0.256
		c0.229-0.171,0.802-0.445,0.683-0.682c-0.209,0.16-0.414,0.324-0.683,0.426c-0.098-0.25,0.409-0.316,0.171-0.426
		c-0.017,0.125-0.207,0.078-0.341,0.084c0.173-0.367,0.869-0.663,0.682-1.107c-0.312,0.482-0.546,1.046-1.279,1.107
		c0.233-0.535,1.226-0.762,0.938-1.534c-0.191,0.405-0.477,0.718-0.938,0.853c0.239-0.729,1.047-0.887,1.193-1.705
		c-0.487,0.421-0.78,1.492-1.534,1.363c0.549-0.559,1.409-1.262,1.279-2.216c-0.295,0.503-0.696,1.3-1.11,1.501
		c0.093-0.066,0.104-0.217,0.172-0.308c-0.128-0.015-0.314,0.03-0.341-0.085c0.285-0.598,1.134-1.083,0.938-1.876
		c-0.126,0.157-0.164,0.405-0.172,0.683c-0.335,0.136-0.029-0.369-0.255-0.341c-0.195,0.315-0.178,0.845-0.597,0.937
		c0.044-0.238,0.125-0.442,0.171-0.682c-0.115,0.026-0.163,0.121-0.342,0.086c0.014-0.242,0.156-0.356,0.171-0.598
		c-0.115,0.027-0.163,0.121-0.341,0.086c0.021-0.633,0.459-1.301,0.255-1.876c-0.107,0.152-0.29,0.669-0.426,0.511
		c0.095-0.284,0.464-0.976,0.085-1.193c-0.152,0.162-0.028,0.596-0.426,0.512c0.039-0.387,0.153-0.699,0.17-1.107
		c-0.108,0.004-0.117,0.108-0.255,0.084c0.045-0.416-0.037-0.702-0.257-0.852c-0.156,0.214-0.177,0.561-0.427,0.682
		c-0.125-0.479,0.245-1.038-0.085-1.535c-0.168,0.145-0.031,0.594-0.341,0.598c0.023-0.249-0.021-0.293-0.17-0.171
		c0.025-0.466,0.384-1.757-0.171-1.108c-0.098-0.277,0.261-0.524,0-0.682c-0.143,0.01-0.028,0.697-0.171,0.426
		c-0.043-0.558,0.175-0.853-0.17-1.107c-0.169,0.114,0.025,0.594-0.256,0.596c0.068-0.436,0.074-0.875-0.085-1.279
		c-0.109,0.261-0.027,0.713-0.342,0.768c-0.084-0.598-0.021-1.344-0.169-1.876c-0.027,0.487,0.025,1.05-0.257,1.28
		c-0.153-0.328-0.177-0.752-0.512-0.683c-0.044-0.296,0.126-0.81-0.17-0.853c-0.082,0.259,0.183,0.864-0.171,0.853
		c-0.329-0.694,0.256-2.302-0.342-2.729c-0.025,0.655,0.091,1.454-0.255,1.79c-0.188-0.209,0.048-1.523-0.257-0.852
		c0.005-0.972-0.155-1.777-0.51-2.389c-0.194,0.062,0.077,0.59-0.257,0.513c-0.035-3.433-3.974-2.962-4.178-6.224
		c-0.261-0.006-0.444-0.313-0.682-0.086c-0.095-0.516-0.204-0.105-0.512-0.512c-0.015,0.129,0.03,0.314-0.086,0.342
		c-0.009-0.219-0.048-0.408-0.17-0.512c-0.119,0.051-0.014,0.328-0.17,0.341c-0.125-0.388-0.377-0.646-0.598-0.938
		c-0.054,0.314,0.309,0.652,0.085,0.854c-0.104-0.352-0.28-0.629-0.512-0.854c-0.102,0.336,0.262,0.641,0,0.854
		c-0.229-0.651-0.194-1.568-0.768-1.876c0.051,0.178,0.212,0.243,0.172,0.511c-0.513-0.248-0.011,0.293-0.257,0.426
		c-0.189-0.377-0.208-0.928-0.512-1.192c-0.014,0.101,0.014,0.241-0.084,0.256c-0.183-0.357-0.376-1.423-0.683-1.108
		c0.018-0.245-0.021-0.434-0.171-0.512c0.103,0.238,0.094,0.588,0.086,0.938c-0.69-1.186-1.279-2.473-1.963-3.666
		c0.055,0.316,0.204,0.535,0.258,0.853c-0.471-0.504-0.443-1.214-0.938-1.534c0.155,0.81-0.218,1.09-0.257,1.705
		c-0.579,0.004,0.118-0.738-0.17-0.938c-0.351,0.387-0.096,0.953-0.171,1.278c-0.014-0.101,0.015-0.242-0.086-0.256
		c0.065,0.744-0.106,1.702-0.084,0.427c-0.142-0.002-0.049-0.236-0.172-0.256c-0.041,0.596,0.306,1.467-0.085,1.875
		c0.037-0.795-0.143-1.363-0.17-1.875c-0.311,0.559,0.187,1.445-0.085,1.961c-0.184-0.217,0.068-0.864-0.257-0.938
		c-0.103,0.646,0.364,1.168,0.086,1.706c-0.033-0.529-0.043,0.005-0.17,0.085c-0.051-0.378-0.035-0.817-0.172-1.108
		c-0.487,0.475,0.247,1.387-0.085,1.961c-0.111-0.456-0.11-1.025-0.341-1.365c-0.065,0.531,0.158,1.354-0.17,1.621
		c-0.099-0.414,0.206-1.23-0.171-1.364c-0.167,0.63,0.1,1.691-0.255,2.132c-0.235-0.023,0.278-0.707-0.171-0.684
		c-0.046,0.297,0.126,0.811-0.172,0.854c-0.053-0.23,0.108-0.678-0.084-0.768c-0.062,0.193,0.152,0.666-0.172,0.598
		c0.014-0.326-0.003-0.621-0.17-0.768c-0.022,0.545-0.055,1.082-0.427,1.279c-0.138-0.428,0.355-1.02-0.085-1.195
		c-0.04,0.643-0.029,1.335-0.256,1.791c-0.188-0.238-0.088-0.764-0.255-1.023c-0.042,0.383,0.042,0.639,0.085,0.938
		c-0.391-0.008-0.171-0.625-0.426-0.766c-0.055,0.286,0.109,0.791-0.086,0.938c-0.236-0.19,0.109-0.962-0.256-1.023
		c-0.244,0.297,0.157,1.689-0.341,1.449c0.142-0.092,0.142-0.761,0-0.852c-0.292,0.163-0.128,0.78-0.171,1.193
		c-0.392-0.046,0.075-0.457-0.256-0.598c-0.238,0.9-0.307,1.967-0.596,2.814c-0.113-0.258-0.01-0.731-0.172-0.938
		c-0.2,0.365,0.172,0.832-0.086,1.193c-0.007-0.135,0.012-0.297-0.17-0.256c-0.617,1.819,0.502,3.883,0.256,5.285
		c0.014-0.27,0.004-0.515-0.17-0.596c-0.174,0.564-0.248,1.684-0.342,2.046c-0.05-0.177,0.106-0.56-0.084-0.597
		c-0.096,1.098-0.359,2.027-0.684,2.898c-0.204-0.248,0.495-1.484,0.257-2.047c-0.213,0.924-0.304,1.971-0.854,2.559
		c0.06-0.455,0.446-1.029,0.257-1.449c-0.127,0.245-0.155,0.641-0.342,0.596c0.191,0.086-0.005,0.645-0.084,0.428
		c0.023-0.053,0.211-0.329,0-0.342c-0.391,0.942-0.543,1.756-1.194,2.303c0.024-0.43,0.272-0.637,0.341-1.023
		c-0.769,0.961-1.466,1.992-1.959,3.23c0.012-0.046-0.058-0.198-0.087-0.162c-0.442,0.562-0.297,1.809-0.854,2.303
		c-0.046-0.617,0.298-1.291,0.171-1.705c-0.715,0.791-0.32,2.691-1.193,3.325c-0.218-0.583-0.14-1.332-0.086-1.961
		c-0.925,0.229,0.129,1.934-0.596,2.388c-0.053-0.232,0.107-0.678-0.086-0.768c0.067,0.436-0.119,0.619-0.086,1.022
		c-0.194,0.116-0.32-0.22-0.34,0c0.104,0.372,0.099,0.812-0.086,1.108c-0.083-0.086-0.168-0.172-0.255-0.256
		c0.084,0.236,0.21,0.846-0.172,0.854c-0.168-0.373-0.109-0.97-0.341-1.279c0.018,0.723,0.149,1.33,0.256,1.961
		c-0.609-0.215-0.28-1.367-0.682-1.791c0.058,0.74,0.467,2.195-0.086,2.729c-0.1-0.639-0.021-1.457-0.341-1.875
		c-0.253,0.9,0.69,1.859,0.086,2.643c-0.228-0.568-0.302-1.289-0.598-1.791c0.064,0.762,0.442,1.207,0.512,1.961
		c-0.329-0.177-0.138,0.127-0.512,0.086c0.01-0.264-0.038-0.473-0.17-0.597c-0.033,0.405-0.346,0.087-0.512,0.426
		c0.509,0.791,0.513,2.104-0.17,2.729c-0.537-0.069-1.246,0.059-1.534,0.084c-2.613,0.234-3.553-1.099-5.714-1.278
		c-2.474-0.206-4.374-0.128-6.224-1.108c-0.128-0.129-0.152-0.359-0.342-0.427c-0.851,0.091-1.82,0.03-2.473-0.255
		c-0.002-0.281-0.144-0.425-0.084-0.768c2.054-1.455,6.302-0.582,9.037-0.854c-0.066-0.019-0.168-0.002-0.17-0.084
		c0.264-0.009,0.407,0.104,0.596,0.17c0-0.086,0-0.17,0-0.256c0.851-0.115,1.698-0.235,2.302-0.597
		c-0.424,0.004-0.964,0.339-1.363,0.085c0.866-0.156,1.303-0.743,1.961-1.107c-0.339-0.025-0.645,0.43-0.938,0.17
		c0.842-0.393,0.963-1.068,1.706-1.449c-0.306-0.018-0.57,0.445-0.853,0.17c0.617-0.463,1.742-0.871,1.961-1.449
		c-0.197,0.206-0.462,0.34-0.171,0c-0.671,0.238-1.37,0.902-1.96,0.938c1.01-0.895,2.475-1.332,3.068-2.643
		c-0.262,0.055-0.428,0.647-0.682,0.426c0.098-0.051,0.193-0.213,0.258-0.348c-0.001,0.002-0.001,0.004-0.003,0.008
		c0.207-0.135,0.378-0.306,0.513-0.512c-0.216,0.203-0.446,0.301-0.683,0.17c0.431-0.252,0.895-0.471,1.022-1.023
		c-0.192-0.014-0.375,0.41-0.511,0.17c0.328-0.256,0.535-0.301,0.683-0.596c-0.113,0-0.078,0.148-0.172,0.17
		c0.194-0.432,0.516-0.735,0.598-1.279c-0.486,0.225-0.656,1.219-1.108,1.195c0.655-1.098,2.079-2.535,1.79-3.752
		c0.123-0.049,0.207-0.133,0.256-0.256c-0.129-0.016-0.314,0.029-0.341-0.086c0.39-0.236,0.88-0.371,0.938-0.938
		c-0.146-0.033-0.219,0.126-0.256,0c0.751-0.414,0.85-1.482,1.28-2.217c-0.122,0.02-0.145,0.141-0.257,0.17
		c0.233-0.449,0.638-0.727,0.769-1.278c-0.17-0.019-0.364,0.361-0.428,0.171c0.385-0.24,0.65-0.6,0.683-1.193
		c-0.16,0.045-0.395,0.447-0.513,0.256c0.226-0.203,0.515-0.34,0.598-0.684c-0.197-0.025-0.095,0.248-0.256,0.257
		c0.44-1.187,1.16-2.343,1.364-3.923c0.12-0.922-0.358-1.872-0.256-2.728c0.103-0.847,0.863-1.356,1.108-1.961
		c-0.533-0.483-0.341-1.673-0.511-2.303c-0.013,0.159-0.057,0.284-0.171,0.341c-0.029-0.291,0.256-0.703,0.085-0.852
		c-0.114,0.227-0.027,0.654-0.256,0.767c0.04-0.899,0.645-1.686,0.512-2.472c-0.222,0.318-0.229,0.85-0.512,1.107
		c0.092-0.734,0.689-1.412,0.597-2.046c-0.113,0.175-0.265,0.753-0.511,0.511c1.39-2.818,2.298-6.175,4.007-8.867
		c-0.123-0.045-0.208,0.333-0.256,0.086c1.059-1.146,1.528-2.365,2.473-3.922c0.808-1.332,2.099-2.357,1.875-4.008
		c0.014,0.343-0.184,1.406-0.17,0.512c0.135-0.178,0.059-0.566,0.17-0.768c-0.286-0.338-0.262-0.986-0.682-1.193
		c0.199,0.402,0.508,1.41-0.085,1.62c0.098,0.107,0.391,0.454,0.17,0.597c-0.087-0.264-0.083,0.242-0.17,0.256
		c-0.423-0.004-0.364-0.488-0.597-0.682c-0.017,0.441,0.348,0.506,0.255,1.023c-0.365,0.273-0.542-0.739-0.767-0.598
		c0.055,0.289,0.552,0.582,0.426,0.768c-0.312-0.324,0.081,0.28-0.17,0.341c-0.191,0.013-0.345-0.423-0.597-0.597
		c0.07,0.241-0.12,0.221-0.086,0.426c0.517,0.281,0.409,0.557,0.427,0.938c-0.393-0.093-0.773-0.646-1.023-0.597
		c0.203,0.166-0.156,0.478,0.085,0.682c-0.521,0.162-0.553-0.179-1.193-0.085c0.026,0.168-0.115,0.169-0.17,0.256
		c0.405-0.065,0.55,0.133,0.938,0.085c-0.034,0.291-0.263,0.141,0,0.342c-0.583,0.127-1.312,0.108-1.705,0.426
		c0.319-0.006,0.59,0.036,0.768,0.171c-0.312,0.058-0.62,0.118-1.023,0.085c-0.534,0.369-0.259,1.015-0.341,1.705
		c-0.186,1.568-1.2,3.895-1.962,4.86c-0.563,0.714-1.542,1.13-1.704,1.876c-0.14,0.635,0.285,1.244,0.256,1.875
		c-0.036,0.779-0.453,0.916-0.939,1.535c0.284,1.505-0.818,1.623-2.131,1.535c-0.325-0.271-0.379-0.815-0.682-1.109
		c-1.796-0.027-1.021-3.062-1.705-3.922c0.191-0.893-0.285-1.486-0.085-2.302c0.155-0.644,1.143-2.011,0.938-2.899
		c0.956-1.57,3.14-2.016,3.665-4.006c0.187-0.705-0.063-1.633,0.684-2.047c0.213-0.725,0.654-1.221,1.108-1.705
		c-0.067-0.02-0.168-0.004-0.171-0.086c0.392-0.147,0.607-0.473,0.767-0.852c-0.178,0-0.319,0.463-0.426,0.255
		c0.264-0.332,0.521-0.735,0.768-1.279c-0.036,0.016-0.09,0.071-0.147,0.137c0.348-0.494,0.354-1.366,0.403-1.757
		c0.049,0.15-0.104,0.502,0.086,0.512c0.609-2.305,0.985-5.156,1.619-7.673c0.132-0.526,0.404-0.992,0.427-1.534
		c0.021-0.574-0.207-1.193-0.257-1.877c-0.196-2.695,0.334-5.318-0.341-7.161c-0.014,0.128,0.031,0.313-0.085,0.341
		c-0.003-0.684,0.053-1.484-0.171-1.876c-0.017-0.03-0.168,0.095-0.17,0.085c-0.197-0.935,0.426-1.252,0.341-2.217
		c-0.012,0.158-0.056,0.285-0.171,0.342c0.341-0.728,0.088-2.045,0.256-3.154c-0.854,0.021-0.987-0.604-1.705-0.512
		c-0.098-0.354,0.179-0.333,0.171-0.598c-0.604-2.502,1.201-4.012,2.472-5.201c0.974-1.844,1.852-4.094,2.984-5.285
		c0.046,0.099,0.967-0.937,1.109-1.279c0.103-0.248-0.059-0.531,0.17-0.084c0.777-1.364,1.4-3.21,2.559-3.923
		c-0.127-0.159,0.207-0.222-0.087-0.256c0.179-0.077,0.261-0.252,0.258-0.513c-0.158,0.129-0.213,0.356-0.427,0.428
		c0.212-0.351,0.324-0.74,0.169-1.194c-0.001,0.205-0.241,0.602-0.341,0.427c0.082-0.125,0.287-0.559,0.087-0.682
		c-0.147,0.107-0.107,0.405-0.342,0.426c-0.015-0.129,0.03-0.314-0.085-0.342c0.014,0.186-0.069,0.271-0.257,0.256
		c-0.082-0.158,0.257-0.285,0-0.34c-0.112,0-0.227,0-0.341,0c0.09,0.43-0.381,0.301-0.512,0.511c-0.091-0.218,0.26-0.407,0-0.511
		c0.11,0.336-0.28,0.173-0.17,0.511c-0.379-0.206-0.602-0.282-0.888-0.404C96.506,80.229,96.486,80.387,96.398,80.402L96.398,80.402
		z M87.788,128.49c-0.077-0.231-0.192,0.194-0.342,0.17c-0.106,0.223-0.227,1.363-0.084,0.598
		C87.473,128.971,87.57,128.67,87.788,128.49z M89.322,168.818c-0.283,0.029-0.134,0.49-0.17,0.768
		C89.286,169.408,89.329,169.137,89.322,168.818z M108.507,67.955c0.268,0.315,1.002,1.096,1.534,1.706
		C109.758,69.018,109.158,68.48,108.507,67.955z M111.661,114.422c0.893,2.889,0.354,7.264,1.022,10.572
		c-0.146-0.279-0.226-0.627-0.256-1.023c-0.211,1.16,0.259,1.544,0.085,2.473c-0.053-0.837-0.492,0.869-0.597,1.535
		c-0.036,0.227-0.06,0.447-0.082,0.654c0.001-0.074-0.002-0.151-0.002-0.229c-0.148,0.137-0.186,0.384-0.171,0.683
		c0.077-0.034,0.121-0.103,0.145-0.19c-0.061,0.551-0.133,0.977-0.4,1.128c0.465,0.869,0.67,2.001,1.619,2.388
		c-0.119,0.248-0.294-0.151-0.512-0.086c0.521,0.771,1.132,1.006,1.45,1.876c-0.019,0.151-0.139,0.024-0.209-0.082
		c-0.016-0.03-0.031-0.06-0.048-0.089c0.007,0.02,0.024,0.054,0.048,0.089c0.212,0.394,0.498,0.97,0.551,1.446
		c0.012-1.539,0.407-2.961,0.681-4.859c-0.176,0.022-0.08,0.318-0.255,0.341c0.273-0.872,0.096-1.669,0.17-2.729
		c-0.168,0.146-0.228,0.396-0.256,0.682c-0.166-0.199,0.08-0.712,0.17-0.938c0.018-5.555-2.21-10.864-2.898-16.711
		c-0.133-1.134-0.491-2.202-0.768-3.325c-0.091,0.746-0.068,1.461-0.085,2.303c-0.018,0.916-0.19,2.198,0,2.983
		C111.167,113.738,111.551,114.064,111.661,114.422z M115.839,93.191c-0.07,0.158,0.278,0.628,0.511,0.768
		C116.508,93.712,115.943,93.459,115.839,93.191z M116.095,159.184C115.629,159.363,116.069,160.732,116.095,159.184
		L116.095,159.184z M118.823,98.99c0.114,0.312,0.325,0.526,0.426,0.852C119.358,99.645,119.09,99.094,118.823,98.99z
		 M122.745,122.862c-0.268-0.169-0.536-0.147-0.853-0.085c0.05,0.271-0.16,0.264,0,0.426
		C122.16,123.074,122.434,122.949,122.745,122.862z M122.402,121.242c-0.033-0.158-0.636-0.346-0.51,0.086
		C122.153,121.39,122.143,121.18,122.402,121.242z M122.488,123.801c-0.935,0.409-0.604,0.321,0.171,0.086
		C122.814,123.819,122.608,123.793,122.488,123.801z M121.893,121.84c0.114,0.424,0.695,0,0.938,0
		C122.711,121.697,122.011,121.697,121.893,121.84z M122.831,171.632c-0.542,0.337-0.74,1.112-0.086,0.341
		C122.733,171.82,122.85,171.793,122.831,171.632z M122.402,117.662c-0.004,0.262,0.277,0.971,0.769,1.022
		C122.915,118.343,122.591,118.072,122.402,117.662z M123.853,120.561c0.127-0.725-1.026-0.904-1.364-1.449
		c0.029,0.398,0.878,0.713,1.108,1.193C122.325,119.777,123.234,120.238,123.853,120.561z M126.497,162.254
		c-0.248,0.307,0.104,0.744,0.17,1.021C126.864,163.018,126.49,162.604,126.497,162.254z M128.372,171.717
		c-0.239,0.328,0.428,0.479,0.597,0.682C129.101,172.178,128.433,172.027,128.372,171.717z"/>
</g>
</svg>
