<?xml version="1.0" encoding="utf-8"?>
<!-- Generator: Adobe Illustrator 15.0.0, SVG Export Plug-In . SVG Version: 6.00 Build 0)  -->
<!DOCTYPE svg PUBLIC "-//W3C//DTD SVG 1.1//EN" "http://www.w3.org/Graphics/SVG/1.1/DTD/svg11.dtd">
<svg version="1.1" id="Layer_1" xmlns="http://www.w3.org/2000/svg" xmlns:xlink="http://www.w3.org/1999/xlink" x="0px" y="0px"
	 width="200px" height="200px" viewBox="0 0 200 200" enable-background="new 0 0 200 200" xml:space="preserve">
<g>
	<g id="Layer_4">
		<path id="path5" fill="#010101" d="M103.506,117.316c0.753,0.492,1.424,1.076,2.01,1.75c0.446,0.345,0.963,0.802,1.551,1.369
			c1.3,1.217,1.949,2.07,1.949,2.558c-0.021,0.282-0.072,0.548-0.152,0.791v0.03c0.406,0.608,0.548,2.16,0.426,4.656
			c-0.02,0.486-0.193,1.553-0.518,3.195c0.082,0.346,0.183,0.741,0.305,1.188l-0.152,0.396c0.162,0.548,0.243,0.974,0.243,1.278
			c-0.021,0.344-0.041,0.546-0.062,0.606l-0.121,0.123c-0.082-0.102-0.123-0.214-0.123-0.335c0-0.406-0.07-0.884-0.213-1.432
			c0.041,0.508,0.062,1.035,0.062,1.583c-0.06,0.933-0.101,1.44-0.122,1.522c-0.061,0.364-0.191,0.678-0.395,0.942
			c0,0.142,0,0.284,0,0.427c0,0.305-0.021,0.486-0.062,0.547c-0.041,0.021-0.111,0.051-0.213,0.092l-0.244-0.03
			c0.021-0.144,0.032-0.324,0.032-0.548c-0.062,0.039-0.122,0.08-0.185,0.121c0.112,0.525,0.152,0.981,0.123,1.369
			c-0.004,0.107-0.014,0.209-0.031,0.305l-0.273-0.03c0.021-0.077,0.037-0.168,0.045-0.272c0.008-0.283-0.049-0.668-0.167-1.156
			c-0.04,0.203-0.091,0.406-0.151,0.607c0.045,0.198,0.086,0.381,0.121,0.549c0.098,0.502,0.139,0.866,0.123,1.096
			c-0.021,0.344-0.041,0.547-0.062,0.609l-0.122,0.12l-0.031-0.03c-0.142,0.326-0.375,0.721-0.699,1.188
			c0.02,0.244,0.03,0.468,0.03,0.67l-0.274-0.029c0-0.103,0-0.205,0-0.306c-0.039,0.04-0.08,0.09-0.121,0.151
			c-0.162,0.59-0.324,1.127-0.487,1.613v0.092h-0.03c-0.345,1.177-0.658,2.029-0.943,2.557c1.299,0.385,2.578,1.268,3.834,2.648
			c1.219,1.338,1.807,2.433,1.767,3.287c0,0.079-0.062,0.769-0.183,2.067c0.041,0.446,0.05,0.823,0.029,1.127
			c-0.021,0.406-0.041,0.659-0.062,0.763c-0.062,0.12-0.172,0.221-0.335,0.305c-0.061-0.063-0.143-0.236-0.243-0.521
			c-0.103,0.162-0.233,0.306-0.396,0.427c0,0.203-0.029,0.436-0.092,0.7c-0.183,0.75-0.488,1.207-0.914,1.369
			c-0.162-0.121-0.283-0.272-0.365-0.457c0.082-0.282,0.123-0.629,0.123-1.035c-0.041,0-0.071,0-0.092,0
			c-0.061,0.142-0.132,0.375-0.213,0.701c-0.182,0.427-0.517,0.64-1.004,0.64c-0.305,0-0.518-0.103-0.639-0.306
			s-0.184-0.557-0.184-1.063c0-0.062,0.062-0.205,0.184-0.426c-0.102-0.082-0.203-0.162-0.305-0.244
			c-0.285,0.162-0.567,0.244-0.853,0.244c-0.284,0-0.487-0.072-0.608-0.215c-0.041-0.081-0.102-0.263-0.184-0.548
			c0.122-0.183,0.305-0.405,0.548-0.67c-0.161-0.244-0.344-0.508-0.548-0.791c-0.527-0.832-0.964-1.705-1.309-2.618
			c-1.704-0.345-2.961-1.318-3.773-2.922c-0.122-0.284-0.254-0.568-0.396-0.854c-0.709-0.709-1.045-1.53-1.004-2.465
			c0-0.953,0.041-1.906,0.121-2.86c-0.142,0.202-0.293,0.386-0.455,0.549v-0.185c0.121-0.264,0.293-0.639,0.518-1.127
			c0.021-0.08,0.021-0.151,0-0.213c-0.041,0.121-0.102,0.223-0.184,0.305v-0.151c0.082-0.243,0.152-0.476,0.213-0.7
			c0.041-0.548,0.082-1.085,0.123-1.611c-0.325,0.486-0.629,0.801-0.914,0.942c0.326-0.264,0.63-0.598,0.914-1.004
			c0.021-0.222,0.051-0.457,0.091-0.698c0.101-1.522,0.263-3.033,0.487-4.535c0.08-0.854,0.183-1.666,0.305-2.437
			c-0.426,0.69-0.863,1.035-1.309,1.035c-0.021,0-0.061,0-0.123,0c-0.162,0.284-0.313,0.498-0.457,0.639
			c0.123-0.202,0.225-0.426,0.306-0.669c-0.101-0.021-0.173-0.082-0.214-0.184c-0.121,0.144-0.211,0.214-0.273,0.214
			c-0.283,0-0.456-0.05-0.518-0.152c-0.06-0.062-0.101-0.161-0.121-0.305c0.385-0.386,0.842-1.146,1.369-2.283
			c-0.062,0-0.121,0-0.184,0c-0.324,0.63-0.617,1.035-0.882,1.22c0.101-0.225,0.263-0.63,0.485-1.22
			c-0.182-0.019-0.363-0.028-0.547-0.028c-0.224,0.607-0.478,1.289-0.762,2.039c-0.203-0.021-0.324-0.121-0.365-0.306
			c-0.041,0.203-0.051,0.051-0.029-0.456c0.04-0.447,0.09-0.883,0.15-1.311c-0.162,0.365-0.334,0.752-0.518,1.158
			c-0.182-0.021-0.314-0.123-0.395-0.305l-0.092-0.914c0-0.02,0-0.041,0-0.061c-0.346-0.041-0.689-0.082-1.035-0.122
			c-0.203,0.528-0.558,0.934-1.064,1.218c-0.082-0.143-0.203-0.355-0.365-0.639c-0.101-0.264-0.152-0.56-0.152-0.883
			c-0.224-0.062-0.446-0.123-0.67-0.185c-0.062,0.244-0.131,0.508-0.213,0.791l-0.275-0.151c0-0.02-0.061-0.08-0.182-0.183
			c-0.061-0.062-0.091-0.243-0.091-0.547c0-0.041,0.009-0.082,0.03-0.123c-0.143-0.04-0.294-0.08-0.457-0.121
			c0,0.022,0,0.051,0,0.092c-0.141,0.771-0.436,1.218-0.883,1.339c-0.121,0.303-0.161,0.202-0.121-0.306
			c0.02-0.304,0.051-0.789,0.092-1.46c-0.021-0.021-0.051-0.041-0.092-0.062c-0.02,0.324-0.07,0.629-0.152,0.914l-0.486-0.121
			c-0.02-0.143-0.03-0.275-0.03-0.396l-0.091-0.061c0-0.223-0.01-0.457-0.03-0.7c-0.101-0.04-0.193-0.081-0.272-0.122
			c-0.062,0.244-0.123,0.468-0.185,0.67c-0.101,0-0.181-0.02-0.243-0.061c0,0.183-0.021,0.354-0.062,0.518l-0.668-0.03l-0.092-0.274
			c-0.041-0.485-0.061-0.994-0.061-1.521c-0.042-0.021-0.082-0.051-0.123-0.092c-0.141,0.549-0.385,0.974-0.73,1.278
			c-0.102-0.082-0.172-0.17-0.213-0.272h-0.426c-0.143-0.265-0.254-0.578-0.335-0.944c0,0.021-0.01,0.03-0.03,0.03
			c-0.203-0.019-0.377-0.069-0.519-0.151c-0.122-0.102-0.192-0.151-0.212-0.151c0.039-0.345-0.082-1.005-0.366-1.979
			c-0.06-0.039-0.101-0.082-0.122-0.121c0.102,0.608,0.143,0.993,0.122,1.155c-0.021,0.304-0.051,0.468-0.091,0.488
			c-0.082,0.059-0.122,0.101-0.122,0.121c-0.122,0-0.284-0.03-0.487-0.093c-0.041,0.306-0.082,0.588-0.121,0.854h-0.214
			c-0.142-1.157-0.263-2.141-0.364-2.952c-0.103-0.264-0.213-0.567-0.336-0.914c-0.08-0.263-0.171-0.506-0.272-0.729
			c-0.022-0.08-0.041-0.152-0.062-0.213c0,0.061,0.01,0.133,0.029,0.213c0.102,0.549,0.213,1.178,0.336,1.887
			c-0.041,0.508-0.143,0.66-0.305,0.457c-0.629-0.406-1.026-0.995-1.188-1.766c-0.021-0.142-0.041-0.334-0.062-0.578
			c-0.021-0.324-0.021-0.74,0-1.248c0.019-0.264,0.028-0.518,0.028-0.762c-0.506-1.076-0.729-2.19-0.668-3.348
			c0.08-1.501,0.537-3.165,1.369-4.992c1.156-2.271,2.09-4.148,2.801-5.63c0.527-0.688,1.207-0.993,2.039-0.914
			c0.812,0.082,1.359,0.457,1.644,1.128c0.144,0.223,0.56,0.588,1.248,1.096c0.751,0.526,1.217,0.901,1.399,1.125
			c0.711,1.179,1.381,2.143,2.01,2.893c1.178,1.461,2.406,2.191,3.684,2.191C98.83,115.318,101.469,115.982,103.506,117.316z
			 M82.988,161.186c-0.021-2.435,0.68-3.652,2.1-3.652s2.141,1.217,2.161,3.652l0.03,1.766c-0.242,1.218-0.953,1.826-2.131,1.826
			c-1.056,0-1.726-0.506-2.008-1.521C83.059,162.932,83.007,162.24,82.988,161.186z"/>
	</g>
	<g id="Layer_5">
		<path id="path8" fill="#010101" d="M86.363,110.326c1.199,0.021,2.234,0.406,3.104,1.16c0.548,0.486,0.953,1.096,1.218,1.826
			c0.994,0.629,1.826,2.028,2.496,4.198c0.629,2.091,0.993,4.091,1.096,5.996c0,0.711-0.355,2.526-1.065,5.448
			c0,0.324-0.021,0.71-0.062,1.156c-0.141,2.152-0.385,4.129-0.729,5.935c-0.853,4.789-2.131,7.742-3.835,8.856
			c-0.365,1.32-0.781,3.005-1.248,5.054c-0.203,1.319-0.457,2.963-0.762,4.931c-0.102,0.488-0.182,0.965-0.242,1.432
			c0.039,0.225,0.07,0.447,0.091,0.67c0.021,0.324,0.021,0.537,0,0.64c0,0.06-0.021,0.151-0.062,0.274l-0.152,0.029
			c0.122,0.364,0.225,0.812,0.305,1.34l-0.091,0.457c-0.202,0.039-0.405-0.071-0.608-0.336c0-0.121-0.01-0.263-0.03-0.426
			c-0.183,0.912-0.162,1.663,0.062,2.252c-0.02,0.04-0.029,0.081-0.029,0.12h0.668c0.853,0.448,1.197,0.845,1.035,1.188
			c0.365,0.264,0.771,0.608,1.219,1.035c0.039,0.019,0.08,0.06,0.121,0.121c0.285,0.123,0.588,0.272,0.914,0.457
			c0.566,0.323,1.074,0.67,1.521,1.034c0.486,0.812,1.125,1.888,1.916,3.228c0.082,0.181,0.173,0.343,0.274,0.486
			c0,0.04,0,0.081,0,0.121c0.021,0.284,0.021,0.467,0,0.547c-0.082,0.305-0.336,0.487-0.762,0.549
			c-0.486,0.082-1.572-0.608-3.257-2.069c-0.081,0.062-0.161,0.122-0.243,0.183c0.02,0.081,0.029,0.162,0.029,0.243
			c0.041,0.894,0.377,2.029,1.005,3.409c0.65,1.381,0.974,2.14,0.974,2.283c0.022,0.427,0.011,0.75-0.028,0.975l-1.097,0.242
			c0.265,0.527,0.326,1.057,0.183,1.584l-0.121,0.091c-0.144,0.06-0.323,0.111-0.547,0.151c-0.347,0.041-0.649-0.204-0.914-0.729
			c-0.365-0.69-0.588-1.085-0.67-1.188c-0.06,0.082-0.183,0.234-0.365,0.457c-0.183,0.244-0.356,0.375-0.519,0.396
			c-0.893,0.121-1.938-0.701-3.135-2.467c-1.237-1.846-1.896-3.589-1.979-5.234c-0.02-0.527-0.02-1.023,0-1.492
			c-0.041-0.362-0.172-0.517-0.396-0.455c-0.162,0.08-0.152-0.446,0.031-1.582c-0.367-0.324-0.691-0.844-0.975-1.553
			c-0.325-0.771-0.527-1.432-0.608-1.979l-0.03-0.03c0-0.041,0-0.07,0-0.091c0-0.103,0-0.203,0-0.304c0-0.122,0-0.235,0-0.336
			c-0.062-1.219-0.203-2.599-0.426-4.142c0.143-1.479,0.314-2.95,0.518-4.411c0.121-0.75,0.234-1.412,0.336-1.979
			c-0.264-1.888-0.396-2.861-0.396-2.923c-0.08-2.069,0.152-4.221,0.7-6.452c0.202-0.75,0.365-1.369,0.487-1.856
			c0.039-0.507,0.091-1.086,0.152-1.734c0-0.041,0-0.08,0-0.121c-0.041,0.303-0.092,0.578-0.152,0.822
			c-0.02,0.162-0.031,0.323-0.031,0.485l-0.152,0.031c-0.02,0.081-0.051,0.144-0.09,0.182c-0.162,0-0.254-0.089-0.275-0.272
			c0-0.243,0.011-0.508,0.031-0.791c-0.162,0.242-0.324,0.435-0.486,0.578c0.143-1.582,0.355-3.195,0.64-4.84
			c0-0.041-0.01-0.082-0.03-0.121c-0.041,0.222-0.102,0.424-0.183,0.607c-0.142,0.994-0.224,1.717-0.244,2.162l-0.183,0.029
			c-0.041-0.04-0.09-0.09-0.151-0.151c-0.041-0.062-0.062-0.203-0.062-0.426l-0.242-0.274c0-0.609,0.08-1.685,0.242-3.226
			c-0.182,0-0.303-0.081-0.364-0.244c0.062-0.933,0.182-1.907,0.364-2.922c0-0.121,0-0.224,0-0.306
			c-0.082-1.885-0.06-3.479,0.062-4.777c0.224-1.867,0.415-3.663,0.578-5.389c0.405-2.131,0.912-3.732,1.521-4.809
			c0.184-0.771,0.56-1.41,1.127-1.918C84.143,110.691,85.146,110.326,86.363,110.326L86.363,110.326z M80.218,129.744
			c-0.081,0.752-0.132,1.431-0.151,2.039c0.06-0.527,0.11-1.116,0.151-1.764c0-0.041,0.009-0.082,0.029-0.123
			C80.227,129.836,80.218,129.785,80.218,129.744z"/>
	</g>
	<g id="Layer_3">
		<path id="path11" fill="#010101" d="M90.843,70.602c2.679-3.084,4.027-3.125,4.048-0.122l-0.336,0.64
			c1.826,1.237,3.42,5.448,4.779,12.631c0.04-0.121,0.081-0.244,0.121-0.365c0.387,0.507,0.579,1.115,0.579,1.826
			c0,0.264-0.061,0.477-0.183,0.639c-0.06,0.062-0.102,0.122-0.122,0.183c0.324,1.989,0.628,4.099,0.914,6.331
			c0.485,3.125,0.779,5.864,0.881,8.218c-0.102,0.284-0.203,0.589-0.305,0.913c-0.039,0.081-0.07,0.162-0.091,0.244
			c0,0.121,0,0.264,0,0.426c0.021,1.096-0.153,3.368-0.519,6.818c-0.363,3.754-0.547,5.761-0.547,6.024l-0.273-0.12
			c-0.162-0.144-0.253-0.406-0.274-0.791c-0.02,0.079-0.06,0.334-0.121,0.76c-0.062,0.346-0.123,0.599-0.184,0.762
			c-0.04-0.122-0.091-0.324-0.152-0.609c-0.02-0.181-0.051-0.273-0.091-0.273c-0.02,1.441-0.182,2.943-0.485,4.505
			c-0.062,0.426-0.356,1.756-0.883,3.987l-0.152-0.151l-0.03-1.188c-0.144,0.184-0.356,0.438-0.64,0.762
			c-0.164,0.567-0.336,1.146-0.519,1.734c-0.913,3.389-1.543,5.752-1.888,7.092c-0.953,0.812-1.958,1.217-3.014,1.217
			c-2.719,0-4.971-2.23-6.758-6.694c-1.054-2.699-1.765-5.539-2.129-8.522c-0.345-3.266-0.589-5.832-0.73-7.699
			c-0.061,0.547-0.112,1.137-0.152,1.766l-0.244-0.031l-0.09-10.652c0.102-0.485,0.172-1.064,0.213-1.734
			c0.04-0.75,0.071-1.329,0.092-1.735h0.121c0.021-0.547,0.051-1.095,0.092-1.643c-0.123-0.061-0.233-0.133-0.336-0.213
			c-0.019-0.487-0.06-0.73-0.121-0.73c0,0.142-0.041,0.243-0.121,0.305c-0.102,0.061-0.174,0.05-0.215-0.031l-0.061-4.108
			c0.121-0.507,0.223-0.954,0.305-1.339c-0.184,0.303-0.324,0.505-0.426,0.607c0-0.527-0.021-0.973-0.062-1.339
			c-0.019-0.262-0.028-0.425-0.028-0.487c0-0.467,0.344-1.217,1.034-2.252c0.06-0.365,0.091-0.638,0.091-0.821
			c0-0.162,0.507-1.776,1.522-4.84c0-0.529,0.871-2.089,2.617-4.687c1.441-2.152,2.526-3.684,3.256-4.596l0.152,0.121
			c-0.508,0.893-1.145,1.857-1.916,2.892c0.83-0.872,1.369-1.379,1.611-1.521c0.041,0.02,0.062,0.051,0.062,0.091v0.031
			C89.702,72.037,90.271,71.297,90.843,70.602z M84.843,78.37c0.082-0.183,0.152-0.356,0.214-0.518
			c-0.283,0.305-0.589,0.629-0.912,0.974h0.151c0.203-0.163,0.365-0.294,0.486-0.396C84.803,78.41,84.823,78.39,84.843,78.37z"/>
	</g>
	<g id="Layer_6">
		<path id="path14" fill="#010101" d="M89.504,20.204c1.32-0.69,2.559-0.072,3.714,1.856c0.122-0.223,0.233-0.385,0.335-0.487
			c0.143-0.181,0.336-0.232,0.578-0.151c0.061,0.021,0.273,0.831,0.641,2.435c0.424,1.705,0.608,2.728,0.547,3.074
			c-0.021,0.163-0.346,0.974-0.975,2.435c-0.629,1.442-1.085,2.405-1.369,2.892c-0.365,0.649-0.629,1.602-0.791,2.861
			c-0.061,0.709-0.152,1.765-0.273,3.165c-0.163,1.095-0.641,3.327-1.432,6.696c-0.771,3.246-1.166,5.012-1.188,5.295
			c0.284,1.624,0.538,3.166,0.762,4.627c0.203-0.163,0.344-0.264,0.426-0.305l0.09,0.305c-0.019,0.243-0.141,0.578-0.363,1.004
			c0.081,0.244,0.143,0.498,0.184,0.761c0.061-0.018,0.12-0.03,0.182-0.03c0.144-0.06,0.255-0.07,0.336-0.029
			c-0.021,0.041-0.031,0.07-0.031,0.091c0.061,0.04,0.143,0.09,0.244,0.152c-0.082,0.203-0.112,0.64-0.092,1.308
			c0.021,0.041,0.021,0.091,0,0.152c0.142,0.021,0.272,0.082,0.396,0.184l-0.03,0.335c-0.123,0.061-0.244,0.121-0.365,0.183
			c0.121,0.162,0.182,0.467,0.182,0.912c0.102,0.021,0.182,0.082,0.244,0.184c-0.082,0.019-0.152,0.06-0.215,0.121
			c-0.021,0.142-0.041,0.275-0.062,0.396c0.203-0.183,0.396-0.315,0.579-0.396v0.122c0.021-0.041,0.041-0.05,0.062-0.03
			c0.02,0.02,0.01,0.193-0.031,0.518c-0.02,0.204-0.172,0.487-0.457,0.852c0.082,0.162,0.193,0.346,0.336,0.548
			c0.243-0.446,0.385-0.832,0.426-1.156c0.203,0.081,0.325,0.284,0.365,0.608c-0.102,0.386-0.254,0.802-0.457,1.248
			c0.387,0.772,0.559,1.329,0.518,1.674c-0.039,0.324-0.101,0.517-0.182,0.578c-0.021,0.062-0.082,0.122-0.184,0.184l0.152,0.09
			c0.021-0.101,0.284-0.07,0.791,0.092c-0.041,0.244-0.062,0.579-0.062,1.004c0.062,0.406,0.083,0.742,0.062,1.006
			c-0.041,0.283-0.173,0.658-0.396,1.125c-0.081,0.184-0.162,0.336-0.244,0.457c1.056,6.29,1.584,9.455,1.584,9.496
			c-0.163,1.401-0.924,2.74-2.283,4.018c-1.806,1.765-4.049,2.223-6.728,1.369c-0.385-0.121-0.709-0.344-0.975-0.669
			c-0.1,0.081-0.191,0.151-0.273,0.213c-0.08-0.284-0.143-0.507-0.182-0.669c-0.021-0.081-0.031-0.163-0.031-0.244
			c-0.284-0.711-0.426-1.674-0.426-2.892c-0.183,0.366-0.385,0.781-0.608,1.247c-0.121-0.061-0.203-0.121-0.242-0.182
			c-0.041-0.121-0.041-0.355,0-0.699c0.08-0.508,0.435-1.37,1.063-2.588c0.185-0.934,0.324-1.786,0.427-2.557
			c-0.427,0.832-0.843,1.4-1.248,1.705l-0.062-0.184c0.547-1.135,1.014-2.09,1.399-2.861c-0.304,0.345-0.587,0.477-0.853,0.396
			c-0.223-0.06-0.345-0.112-0.365-0.152c0.041-0.019,0.062-0.06,0.062-0.121c0.122-0.346,0.233-0.67,0.335-0.975
			c-0.101-0.081-0.08-0.132,0.062-0.152l0.029-0.183c0.102-0.243,0.192-0.476,0.273-0.699c0.104-0.326,0.203-0.609,0.305-0.853
			c-0.385,0.69-0.668,1.085-0.852,1.188c-0.081-0.041-0.162-0.132-0.243-0.274c-0.101-0.122-0.151-0.244-0.151-0.365
			c0.08-0.224,0.558-1.036,1.43-2.435c-0.243,0.162-0.467,0.273-0.67,0.334c-0.039-0.041-0.08-0.09-0.121-0.152
			c-0.1,0.122-0.223,0.233-0.364,0.335c-0.203-0.224-0.306-0.527-0.306-0.913c0.265-0.487,0.519-0.923,0.763-1.309
			c-0.304-0.101-0.356-0.182-0.151-0.243c-0.021-0.041-0.031-0.103-0.031-0.183c-0.041,0-0.092,0-0.152,0
			c-0.264-0.082-0.416-0.184-0.457-0.305c0-0.061-0.01-0.133-0.03-0.213c-0.163-0.081-0.265-0.162-0.305-0.243
			c-0.021-0.082-0.04-0.193-0.062-0.335c-0.021-0.083-0.041-0.102-0.062-0.062c-0.041,0-0.041-0.142,0-0.426
			c0.021-0.142,0.071-0.294,0.151-0.457c-0.121-0.02-0.223-0.04-0.305-0.06c-0.061,0.222-0.061,0.08,0-0.427
			c0.022-0.183,0.082-0.396,0.184-0.64c0-0.08,0.01-0.295,0.031-0.639c0.364-0.852,0.719-1.583,1.064-2.191l-0.184-0.184
			c-0.366,0.061-0.578-0.071-0.64-0.395c0.263-1.016,0.497-1.827,0.699-2.436c0.082-0.243,0.151-0.476,0.213-0.699
			c0.062-0.447,0.142-0.893,0.244-1.34c-0.224,0-0.437-0.071-0.64-0.213c0-0.081-0.01-0.171-0.03-0.273
			c-0.021,0-0.011-0.152,0.03-0.457c0.039-0.324,0.09-0.527,0.151-0.609c0.101-0.061,0.173-0.121,0.214-0.182
			c-0.142-0.082-0.345-0.184-0.608-0.305c-0.162-0.142-0.234-0.375-0.214-0.7c0.02-0.182,0.183-0.497,0.486-0.943
			c0.244-0.405,0.365-0.629,0.365-0.67c-0.061-2.779-0.061-4.433,0-4.961c0.102-0.629,0.215-1.269,0.336-1.917
			c0.609-1.116,1.096-2.131,1.461-3.044c0.812-1.887,1.45-3.368,1.917-4.444c0.79-1.968,1.278-3.631,1.46-4.991
			c0.184-1.501,0.152-2.415-0.09-2.739c-0.041-0.08-0.102-0.152-0.184-0.213c0.06-0.142,0.111-0.284,0.152-0.426
			c0.243-0.955,0.405-1.624,0.486-2.01h-0.913c-0.407-0.06-0.659-0.334-0.761-0.821c-0.102-0.324-0.123-0.7-0.062-1.126
			c0.041-0.588,0.213-1.066,0.519-1.43C87.756,21.869,88.425,20.814,89.504,20.204z"/>
	</g>
	<g id="Layer_7">
		<path id="path17" fill="#010101" d="M88.189,78.309l0.035-0.029c0.162-0.548,0.496-1.066,1.004-1.553
			c1.278-1.237,3.213-1.44,5.812-0.608c2.009,0.609,3.339,1.279,3.987,2.009c0.651,0.65,1.117,1.299,1.401,1.947
			c0.365,0.732,0.659,2.08,0.882,4.049l0.03,0.031c0.183,0.283,0.345,0.588,0.487,0.912l-0.243,0.03
			c-0.04-0.102-0.131-0.212-0.272-0.334c0.06,0.202,0.11,0.434,0.151,0.7c0,0.14-0.01,0.304-0.03,0.486
			c0.183,0.183,0.283,0.315,0.303,0.396l-0.09,0.152c-0.062-0.121-0.121-0.192-0.183-0.213c0.081,0.528,0.144,0.984,0.183,1.369
			c0.285,0.366,0.457,0.63,0.519,0.792l-0.091,0.061l-0.426-0.518c0,0.183,0.029,0.365,0.09,0.548
			c0.365,0.264,0.68,0.487,0.943,0.67c-0.283-0.041-0.599-0.193-0.943-0.456c-0.02,0.324-0.01,0.578,0.031,0.76
			c0.203,0.263,0.405,0.498,0.608,0.701l-0.062,0.152c-0.143-0.123-0.305-0.285-0.487-0.487c0.021,0.142,0.021,0.284,0,0.426
			c0.325,0.264,0.599,0.487,0.821,0.67c0.285,0.263,0.427,0.415,0.427,0.456c0.04,0.061,0.082,0.133,0.122,0.213l-0.184,0.122
			c-0.305-0.284-0.689-0.62-1.156-1.005c0.039,0.081,0.07,0.132,0.091,0.152c0.122,0.223,0.202,0.425,0.243,0.608
			c0.142,0.122,0.213,0.204,0.213,0.244c0.609,0.608,1.105,1.136,1.492,1.583l-0.123,0.121c-0.283-0.264-0.711-0.639-1.278-1.126
			c0.161,0.386,0.304,0.761,0.426,1.126c0.265,0.346,0.589,0.751,0.976,1.217l-0.152,0.152c-0.143-0.121-0.305-0.263-0.488-0.426
			c0.081,0.244,0.184,0.498,0.305,0.762l0.03,0.061c0.507,0.527,0.812,0.943,0.913,1.248c-0.061,0.04-0.283-0.061-0.67-0.305
			c0.225,1.015,0.438,1.988,0.641,2.922c0.039,0.385,0.039,0.71,0,0.975c0.385,0.305,0.617,0.528,0.699,0.669
			c2.313,2.293,3.611,3.673,3.896,4.14c0.244,0.344,0.527,0.77,0.852,1.278c0.162,0.021,0.355,0.04,0.578,0.061
			c0.243,0.04,0.387,0.04,0.426,0l0.092-0.061l0.03,0.243c-0.183,0.162-0.436,0.232-0.761,0.214
			c0.061,0.081,0.121,0.151,0.184,0.212c0.608,0.203,1.086,0.346,1.43,0.427l-0.09,0.152c-0.062,0.142-0.326,0.204-0.793,0.183
			c0.672,0.283,1.188,0.639,1.554,1.064l0.061-0.029l-0.03,0.029c0.08,0.041,0.131,0.082,0.152,0.121l0.182,0.123
			c0.041,0.041,0.112,0.061,0.213,0.061l-0.121,0.184c0.346,0.121,0.518,0.172,0.518,0.151c-0.02,0.162-0.081,0.304-0.182,0.427
			c-0.387-0.061-0.812-0.224-1.279-0.486c0.061,0.101,0.132,0.15,0.213,0.15c0.021,0.041,0.041,0.071,0.061,0.092
			c0.568,0.346,0.914,0.519,1.035,0.519l-0.305,0.062c0.325,0.344,0.518,0.547,0.579,0.608c0.081,0.101,0.131,0.181,0.151,0.243
			c0.08,0,0.132-0.01,0.152-0.03v0.183h-0.062l0.091,0.123l-0.091-0.062l-0.062-0.03c-0.102,0.04-0.224,0.071-0.365,0.093
			c0.502,0.267,0.949,0.582,1.339,0.942c0.311,0.293,0.585,0.618,0.821,0.974h-0.791c0.021,0.062,0.041,0.133,0.061,0.215h-0.03
			c0.183,0.119,0.345,0.223,0.487,0.304c0.161,0.116,0.312,0.229,0.457,0.335c0.438,0.336,0.773,0.621,1.004,0.852v0.031
			c0.264,0.182,0.436,0.343,0.518,0.486l-0.578,0.092c0.386,0.283,0.67,0.557,0.853,0.82l-0.792,0.123
			c-0.203-0.203-0.588-0.426-1.157-0.67c1.257,0.953,2.009,1.53,2.253,1.734c-0.347,0-0.672-0.062-0.976-0.184
			c0.467,0.547,0.903,1.166,1.31,1.856c0.994,1.847,1.521,3.47,1.582,4.87c0.061,0.141,0.121,0.283,0.184,0.426
			c0.486,1.237,0.658,2.252,0.517,3.043c0,0.041,0,0.082,0,0.121c0.082,0.244,0.093,0.478,0.031,0.701
			c-0.041,0.325-0.243,0.76-0.609,1.309c-0.467,0.791-0.842,1.136-1.126,1.033c-0.285-0.143-0.477-0.213-0.578-0.213
			c-0.67,0.65-1.421,0.823-2.253,0.518c-0.487-0.221-0.731-0.383-0.731-0.485c0-0.08-0.028-0.162-0.09-0.244l0.09-0.426
			c0.021-0.162,0.123-0.354,0.306-0.578c-0.203-0.082-0.426-0.144-0.67-0.183c-0.831-0.346-1.328-0.752-1.491-1.219
			c0.264-0.283,0.822-0.485,1.674-0.607c0.75-0.102,1.156-0.284,1.217-0.549c0-0.079,0-0.161,0-0.242
			c-0.729,0.345-1.43,0.386-2.1,0.122c-0.609-0.203-1.145-0.619-1.611-1.248c-0.162-0.183-0.406-0.537-0.731-1.065l0.213-0.396
			c-0.04-0.101,0.183-0.071,0.67,0.091c0.547,0.365,0.994,0.579,1.339,0.641c0.305,0.12,1.014,0.08,2.131-0.121
			c-0.203-0.265-0.355-0.519-0.457-0.763c-0.062,0.101-0.121,0.224-0.184,0.365l-0.152,0.062c-0.08,0-0.283-0.062-0.609-0.183
			c-0.305-0.144-0.771-0.954-1.399-2.437c-0.567-1.44-0.812-2.363-0.729-2.77c-0.021-0.041-0.133-0.305-0.336-0.791
			c-0.282-0.445-0.516-0.781-0.698-1.004c-0.101-0.163-0.183-0.457-0.243-0.883c-0.04-0.021-0.091-0.102-0.152-0.244
			c-0.265-0.162-0.527-0.518-0.791-1.064c-0.225-0.041-0.396-0.143-0.519-0.305c0.183,0.426,0.313,0.659,0.396,0.699l-0.365,0.305
			c-0.029-0.057-0.061-0.113-0.092-0.167c-0.199-0.386-0.423-0.806-0.668-1.263c-0.033-0.051-0.063-0.102-0.093-0.152
			c-0.081-0.041-0.171-0.102-0.272-0.183c-2.436-1.624-4.08-2.821-4.932-3.593c-0.123-0.242-0.275-0.436-0.457-0.578
			c-0.345-0.203-0.73-0.436-1.156-0.699c-0.021-0.163,0.008-0.294,0.09-0.396c0.021,0.021,0.072,0.03,0.152,0.03
			c-0.121-0.162-0.263-0.305-0.426-0.426c-0.973-0.386-1.511-0.628-1.613-0.729c-0.222-0.225-0.364-0.397-0.425-0.519
			c-0.021-0.081-0.042-0.132-0.062-0.152l0.214-0.183c-0.468-0.244-0.945-0.428-1.431-0.549l-0.184-0.334
			c0.346-0.365,0.568-0.762,0.669-1.188c-0.161-0.222-0.323-0.457-0.485-0.699c-0.873-1.278-1.767-2.72-2.679-4.323
			c-0.649-0.567-1.004-0.943-1.065-1.126c0.08-0.061,0.193-0.051,0.334,0.03l0.092,0.03c0-0.04-0.01-0.111-0.03-0.213
			c-0.405-0.244-0.832-0.446-1.278-0.609c-0.08-0.182-0.061-0.355,0.062-0.517c0.02-0.041,0.07-0.062,0.152-0.062
			c0.121,0.02,0.191,0,0.213-0.061c-0.264-0.182-0.883-1.115-1.857-2.801c-0.669-0.689-1.023-1.033-1.064-1.033
			c-0.082-0.122-0.243-0.589-0.487-1.401c0.162,0,0.305,0.031,0.426,0.092c0.267,0.263,0.528,0.487,0.793,0.669
			c-0.082-0.263-0.202-0.486-0.364-0.669c-0.285-0.243-0.488-0.476-0.609-0.7l0.213-0.152c-0.041-0.141-0.102-0.274-0.184-0.395
			c-0.201-0.123-0.354-0.225-0.455-0.305c-0.203-0.264-0.355-0.447-0.457-0.549c-0.041,0-0.062-0.08-0.062-0.242l0.242-0.123
			c0.062,0.041,0.142,0.103,0.244,0.184c-0.63-1.299-1.117-2.324-1.462-3.074C87.684,81.889,87.236,79.241,88.189,78.309
			L88.189,78.309z M113.148,110.783c0.143,0.041,0.234,0.061,0.274,0.061c-0.142-0.141-0.304-0.303-0.487-0.486
			c0.041,0.082,0.092,0.172,0.152,0.273L113.148,110.783z M114.152,112.792c0.041,0.041,0.103,0.071,0.184,0.092
			c-0.061-0.062-0.111-0.132-0.152-0.214c-0.08-0.061-0.121-0.081-0.121-0.061C114.062,112.67,114.092,112.73,114.152,112.792
			L114.152,112.792z"/>
	</g>
	<g id="Layer_2">
		<path id="path20" fill="#010101" d="M92.118,68.295c0.161-0.285,0.416-0.518,0.761-0.704c-0.039,0-0.08-0.008-0.121-0.029
			c-0.143,0.061-0.254,0.131-0.335,0.213c-0.041-0.022-0.062-0.051-0.062-0.092c0.162-0.244,0.66-0.508,1.492-0.791
			c0.08-0.021,0.151-0.041,0.213-0.061c0.082-0.082,0.143-0.132,0.184-0.152h-0.031c0.121-0.183,0.284-0.304,0.486-0.365h0.396
			c-0.184-0.061-0.305-0.101-0.365-0.122l0.15-0.152c0.772,0.102,1.33,0.162,1.676,0.183c-0.164-0.061-0.326-0.133-0.487-0.213
			c-0.101-0.02-0.224-0.06-0.365-0.122l0.09-0.061c-0.161-0.103-0.282-0.214-0.364-0.335c0.121,0,0.457,0.102,1.004,0.305h0.031
			l-0.031-0.031c0.103,0,0.326,0.05,0.67,0.152c-0.062-0.06-0.121-0.111-0.183-0.152c0.062,0,0.234,0.072,0.519,0.214l0.121-0.062
			c0.02,0,0.06,0.01,0.121,0.031c-0.445-0.224-0.75-0.416-0.912-0.578l0.091-0.092c0.651,0.284,1.167,0.548,1.553,0.791
			c-0.306-0.527-0.456-0.872-0.456-1.035l0.03-0.091c0.019,0.04,0.182,0.376,0.487,1.005c0.039,0.08,0.08,0.171,0.121,0.273h0.029
			c0.021,0,0.051,0,0.092,0c-0.041-0.061-0.07-0.133-0.092-0.213c-0.081-0.122-0.16-0.253-0.242-0.396
			c0.021,0.022,0.082,0.082,0.182,0.184c-0.061-0.183-0.09-0.425-0.09-0.73c0-0.203,0.021-0.355,0.062-0.457h0.121
			c-0.081,0.143-0.121,0.285-0.121,0.426c0,0.325,0.04,0.61,0.121,0.853c0.162,0.122,0.354,0.305,0.578,0.548
			c-0.04-0.081-0.07-0.152-0.091-0.213c-0.021-0.021-0.03-0.041-0.03-0.061c-0.062-0.081-0.121-0.143-0.183-0.183
			c0.041,0,0.082,0.021,0.121,0.061c-0.182-0.446-0.272-0.801-0.272-1.065l0.03-0.213l0.183,0.061c-0.021,0-0.052,0-0.091,0v0.061
			c0,0.101,0.061,0.295,0.183,0.578c0.121,0,0.183,0.031,0.183,0.092c-0.021,0.061-0.041,0.133-0.062,0.213
			c0.062,0.102,0.122,0.214,0.183,0.335c0-0.142,0.021-0.284,0.062-0.426c-0.041-0.101-0.062-0.182-0.062-0.243
			c0-0.082,0.021-0.152,0.062-0.213l0.152,0.061c0,0.021-0.01,0.021-0.031,0c-0.04,0-0.061,0.021-0.061,0.061
			c0,0.041,0.01,0.091,0.031,0.152c0.02-0.061,0.04-0.121,0.061-0.183c0,0.021,0.051,0.041,0.152,0.062
			c-0.061,0.1-0.111,0.192-0.152,0.273c0.06,0.121,0.141,0.283,0.243,0.487c0.04,0,0.07,0.009,0.091,0.03
			c-0.061-0.122-0.091-0.234-0.091-0.335c0.142,0.183,0.406,0.396,0.792,0.64c0.039,0,0.082,0.02,0.121,0.061
			c-0.039-0.081-0.07-0.162-0.091-0.244c0.021,0.021,0.101,0.133,0.243,0.335c0.223,0.103,0.406,0.203,0.548,0.305
			c0.06,0.02,0.121,0.04,0.183,0.061c-0.082-0.182-0.172-0.385-0.273-0.608c0.102,0.061,0.223,0.194,0.365,0.396
			c0.056,0.076,0.087,0.141,0.091,0.198c-0.003-0.056-0.022-0.122-0.062-0.198c0.041,0.062,0.121,0.202,0.243,0.427
			c0.103,0.061,0.183,0.121,0.244,0.182c0.162,0.101,0.293,0.193,0.396,0.274c-0.021-0.062-0.051-0.132-0.092-0.214
			c0.082,0.123,0.143,0.225,0.184,0.305c0.142,0.122,0.253,0.244,0.334,0.365c0.04,0.061,0.091,0.133,0.152,0.213
			c0.121,0.183,0.224,0.376,0.305,0.578c0.324,0.285,0.517,0.528,0.578,0.731c0.039,0,0.082,0.01,0.121,0.03v-0.062
			c-0.467-0.872-0.791-1.48-0.975-1.825c0.508,0.669,0.862,1.217,1.064,1.643c0.021-0.142,0-0.324-0.061-0.547
			c-0.162-0.346-0.264-0.578-0.304-0.701c0.081,0.021,0.183,0.152,0.304,0.396c0.082,0.223,0.122,0.355,0.122,0.396
			s-0.021,0.202-0.062,0.487c0.06,0.121,0.101,0.223,0.121,0.304l0.031,0.03c0-0.183,0.01-0.315,0.03-0.395
			c0.021,0.08,0.041,0.191,0.062,0.334v-0.518c-0.041,0.041-0.082,0.052-0.123,0.031l0.062-0.061l0.121-0.062
			c0.04,0.263,0.07,0.548,0.091,0.853h0.03l-0.03-0.67l0.062-0.092h0.121c-0.02-0.06-0.03-0.111-0.03-0.152
			c0.021,0.02,0.041,0.052,0.062,0.092v-0.03c-0.021-0.102-0.07-0.243-0.152-0.427c-0.041-0.08-0.09-0.162-0.152-0.243
			c0.062,0.041,0.111,0.081,0.152,0.122c0.142,0.102,0.224,0.254,0.244,0.457c0,0.019,0,0.06,0,0.121
			c0.08,0.222,0.131,0.425,0.151,0.608c0.021,0.042,0.041,0.081,0.062,0.122c0-0.203-0.01-0.385-0.03-0.548
			c0-0.041-0.011-0.07-0.03-0.091c-0.162-0.447-0.254-0.711-0.273-0.792c0.08,0.081,0.16,0.203,0.242,0.365
			c-0.02-0.162-0.061-0.284-0.121-0.365c0.162,0.141,0.264,0.376,0.304,0.7c0,0.019,0,0.06,0,0.122
			c0.103,0.203,0.151,0.376,0.151,0.517c0,0.02-0.01,0.101-0.029,0.244c0.02,0.04,0.029,0.091,0.029,0.152
			c0.021-0.122,0.03-0.305,0.03-0.548c0-0.265-0.021-0.456-0.062-0.579h0.015c-0.054-0.129-0.11-0.262-0.167-0.395
			c0.122,0.102,0.232,0.213,0.335,0.334c-0.021-0.101-0.041-0.193-0.062-0.273c0.062,0.02,0.111,0.091,0.152,0.213
			c0-0.082,0-0.171,0-0.273h0.03v0.456c0.04,0.081,0.081,0.143,0.122,0.183c0.061,0.142,0.102,0.324,0.121,0.548
			c0.082-0.163,0.122-0.376,0.122-0.64l-0.03-0.273c0.082,0.223,0.122,0.445,0.122,0.669c0,0.163-0.072,0.346-0.214,0.548
			c-0.02,0.203-0.081,0.427-0.184,0.67c-0.06,0.203-0.151,0.365-0.273,0.487c0.061,0,0.102,0.021,0.122,0.061
			c0,0.042-0.122,0.103-0.365,0.183c0,0.041-0.011,0.071-0.03,0.092c-0.022,0.04-0.043,0.09-0.062,0.152
			c0.102-0.02,0.203-0.03,0.305-0.03c-0.122,0.06-0.263,0.11-0.426,0.151c-0.02,0.041-0.041,0.082-0.061,0.121l0.03,0.031
			c0.285-0.081,0.437-0.121,0.457-0.121c-0.08,0.04-0.161,0.08-0.243,0.121h0.031c0.385-0.101,0.618-0.111,0.699-0.031l-0.852,0.214
			c-0.02,0-0.051,0.01-0.091,0.03c0.019,0,0.03,0.009,0.03,0.03v0.03c0.021-0.019,0.042-0.03,0.062-0.03
			c0.08,0,0.131-0.03,0.151-0.091h0.03c-0.041,0.102-0.112,0.173-0.213,0.213c-0.022,0-0.043,0.009-0.062,0.03
			c0,0.041,0,0.071,0,0.092c0.162,0.02,0.254,0.02,0.273,0c0,0.04-0.092,0.071-0.273,0.091c0,0.081,0,0.163,0,0.244
			c0,0.548,0.029,0.912,0.092,1.096c0.02,0.04,0.029,0.09,0.029,0.152c0.182,0.162,0.375,0.365,0.578,0.607
			c0.266,0.345,0.438,0.589,0.518,0.73c0.103,0.042,0.192,0.082,0.274,0.123c0.263,0.203,0.405,0.467,0.426,0.791
			c0.285,0.284,0.437,0.457,0.457,0.517c0.142,0.163,0.396,0.64,0.761,1.431v0.031c0.041,0.141,0.062,0.293,0.062,0.456
			c0.082,0.162,0.132,0.354,0.151,0.579c0.021,0.102,0.041,0.212,0.062,0.334c0.02,0.142,0.031,0.294,0.031,0.457
			c0,0.061-0.072,0.172-0.215,0.334c-0.02,0.021-0.039,0.051-0.061,0.092c0.122,0.06,0.184,0.152,0.184,0.273
			c0,0.041,0,0.071,0,0.092c-0.142,0.181-0.274,0.384-0.396,0.608c0,0.021-0.091,0.263-0.274,0.731
			c-0.039,0.163-0.09,0.293-0.151,0.395c-0.021,0.041-0.052,0.071-0.093,0.092c0.021,0.041,0.041,0.082,0.062,0.121
			c-0.061,0-0.102-0.021-0.122-0.061c-0.02,0.022-0.051,0.041-0.091,0.061c0.04,0.101,0.091,0.223,0.152,0.365h-0.03
			c-0.082-0.121-0.144-0.223-0.183-0.304c-0.021,0-0.041,0.009-0.062,0.03c0.163,0.244,0.244,0.446,0.244,0.609l-0.184,0.152
			c0,0.08-0.01,0.111-0.029,0.091h-0.062c-0.039-0.081-0.09-0.172-0.152-0.274c-0.02-0.04-0.07-0.091-0.151-0.152l-0.03,0.031
			c0.062,0.081,0.123,0.182,0.184,0.305c0.02,0,0.041,0.009,0.062,0.029h-0.03c0.08,0.143,0.16,0.285,0.242,0.427
			c0,0.082-0.021,0.102-0.061,0.061c-0.081-0.061-0.162-0.122-0.244-0.183v0.031h-0.061c0.041,0.06,0.07,0.121,0.09,0.182
			L107,84.363c-0.04-0.019-0.091-0.03-0.152-0.03c-0.082,0.041-0.143,0.061-0.183,0.061s-0.082,0-0.122,0
			c0.305,0.264,0.457,0.438,0.457,0.518c0,0.021-0.01,0.061-0.031,0.12c-0.039-0.021-0.08-0.041-0.121-0.062l0.061,0.062
			c0,0.081-0.051,0.131-0.152,0.152c-0.163-0.142-0.324-0.275-0.486-0.396l0.699,0.761c0,0.082-0.02,0.101-0.061,0.062
			c-0.405-0.264-0.77-0.557-1.096-0.883c0.02,0.022,0.029,0.041,0.029,0.061l-0.029,0.182h-0.031
			c0.061,0.02,0.111,0.031,0.152,0.031c0.061,0,0.121,0.05,0.183,0.152c-0.021,0.041-0.06,0.051-0.122,0.03
			c-0.061-0.041-0.121-0.081-0.184-0.122c0.324,0.346,0.487,0.528,0.487,0.549c0,0.04,0,0.07,0,0.09c-0.021,0-0.05,0-0.09,0
			c-0.649-0.364-1.167-0.811-1.552-1.339c-0.022-0.02-0.092-0.132-0.215-0.335h-0.03c-0.04-0.02-0.091-0.04-0.152-0.061
			c0.204,0.243,0.376,0.476,0.519,0.7c0.041,0,0.082,0.009,0.121,0.03c0,0.019-0.01,0.031-0.03,0.031
			c0.183,0.283,0.345,0.507,0.487,0.669l-0.062,0.03c-0.265-0.142-0.558-0.335-0.883-0.578c-0.122-0.041-0.263-0.121-0.427-0.243
			c0.062,0.101,0.123,0.192,0.184,0.274c-0.143-0.082-0.426-0.386-0.852-0.914c-0.041-0.061-0.082-0.121-0.123-0.182
			c-0.02,0-0.049-0.022-0.09-0.062l-0.152-0.03l0.67,0.913l0.061-0.062c0,0.082,0.021,0.152,0.062,0.214
			c-0.609-0.223-1.055-0.608-1.34-1.157h-0.121c0.121,0.224,0.183,0.376,0.183,0.457c0,0.101-0.021,0.142-0.062,0.121l-0.09-0.029
			c0.08,0.102,0.162,0.212,0.242,0.334c-0.02,0.02-0.091,0.04-0.213,0.061c-0.06-0.019-0.141-0.06-0.242-0.121v-0.031l-0.123-0.03
			c-0.08-0.102-0.17-0.212-0.272-0.335c-0.04-0.019-0.081-0.06-0.122-0.121c0.082,0.163,0.122,0.294,0.122,0.396l-0.151,0.183
			c-0.162-0.142-0.416-0.507-0.762-1.096h-0.061c0,0.022,0.01,0.041,0.029,0.061c0.447,0.711,0.67,1.086,0.67,1.127l-0.214,0.152
			c-0.224-0.102-0.549-0.468-0.974-1.096c0.143,0.262,0.294,0.537,0.457,0.821l-0.243,0.152c-0.163-0.163-0.375-0.488-0.64-0.974
			c-0.223-0.123-0.436-0.336-0.638-0.64c-0.041-0.061-0.082-0.102-0.123-0.122c0.101,0.163,0.223,0.336,0.365,0.518l-0.152,0.092
			c-0.121-0.101-0.242-0.223-0.365-0.365c0,0.102-0.028,0.162-0.09,0.182c-0.123-0.141-0.233-0.375-0.336-0.699
			c0-0.02-0.01-0.03-0.029-0.03c0.039,0.162,0.07,0.304,0.09,0.426c0,0.04-0.061,0.04-0.182,0c-0.021-0.182-0.051-0.344-0.092-0.487
			c0,0.021,0,0.041,0,0.062h-0.152c-0.061-0.122-0.151-0.285-0.273-0.487l0.03,0.244c0,0.101-0.04,0.202-0.121,0.303
			c-0.203-0.303-0.306-0.791-0.306-1.461c-0.039-0.162-0.09-0.304-0.151-0.425c0,0.324,0,0.72,0,1.187
			c-0.101-0.629-0.151-1.004-0.151-1.126c0-0.122,0-0.243,0-0.365c-0.082-0.284-0.121-0.487-0.121-0.608
			c0-0.163,0.008-0.294,0.029-0.396c-0.081-0.121-0.15-0.223-0.213-0.304c0-0.122,0-0.244,0-0.365
			c-0.102-0.407-0.143-0.782-0.122-1.126c0.042-0.427,0.173-0.721,0.396-0.883c0-0.06,0.011-0.111,0.031-0.152
			c-1.218-0.203-2.334-1.035-3.349-2.496c-0.385-0.568-0.7-1.086-0.942-1.552c0,0.223,0,0.344,0,0.364h-0.093
			c-0.062-0.181-0.09-0.456-0.09-0.82c0-0.02-0.011-0.041-0.03-0.062c-0.062,0.225-0.111,0.397-0.152,0.519l-0.152-0.062
			l-0.09-0.578c0-0.061,0-0.133,0-0.213l-0.031-0.03c-0.121,0.303-0.253,0.547-0.396,0.73c-0.021,0.023-0.041,0.042-0.061,0.061
			c-0.021,0.062-0.041,0.122-0.061,0.183c-0.062-0.203-0.092-0.345-0.092-0.426c0-0.183,0.029-0.425,0.092-0.73
			c-0.144,0.243-0.295,0.457-0.457,0.639c-0.02,0.06-0.031,0.041-0.031-0.061c0.285-0.527,0.527-0.994,0.73-1.4
			c0.021-0.04,0.041-0.09,0.062-0.152c-0.081,0.142-0.144,0.263-0.183,0.366c-0.021-0.021-0.031-0.042-0.031-0.062
			c-0.385,0.65-0.709,1.146-0.973,1.491c-0.041,0-0.072-0.009-0.093-0.03c-0.081,0.061-0.143,0.092-0.183,0.092
			c-0.082,0-0.104-0.022-0.062-0.062c0.346-0.65,0.649-1.198,0.914-1.644l-0.031-0.183c0-0.202,0.051-0.456,0.152-0.761
			c-0.021,0.021-0.051,0.041-0.091,0.061v-0.091c0.04-0.122,0.131-0.264,0.272-0.426c0.082-0.142,0.152-0.284,0.215-0.427
			c0.039-0.04,0.07-0.09,0.09-0.152l-0.03,0.031V68.66c0.062-0.103,0.132-0.214,0.214-0.336c-0.041,0.022-0.082,0.051-0.121,0.092
			c0.02-0.041,0.029-0.071,0.029-0.092h-0.029C92.078,68.324,92.098,68.315,92.118,68.295L92.118,68.295z M91.842,72.311
			c0-0.04,0.021-0.131,0.062-0.274c-0.041,0.122-0.092,0.253-0.152,0.396c0.02,0,0.04-0.009,0.061-0.03
			C91.833,72.362,91.843,72.332,91.842,72.311z M91.752,70.516c0.02-0.061,0.03-0.121,0.03-0.182l-0.152,0.334
			c-0.039,0.062-0.069,0.133-0.091,0.214C91.62,70.739,91.689,70.617,91.752,70.516z M95.189,66.559h0.429
			c-0.081-0.02-0.162-0.04-0.244-0.061C95.312,66.52,95.253,66.539,95.189,66.559z M94.889,66.559c0.041-0.02,0.09-0.04,0.151-0.061
			h-0.335c-0.021,0.022-0.041,0.041-0.062,0.061c0.021,0,0.051,0,0.092,0H94.889z M99.514,66.042c0.061,0,0.112,0.009,0.152,0.03
			c-0.04-0.101-0.081-0.192-0.122-0.273c-0.02,0.041-0.03,0.081-0.03,0.121C99.514,65.961,99.514,66.002,99.514,66.042z
			 M99.512,66.044c0.041,0.122,0.071,0.243,0.091,0.364c0.123,0.102,0.274,0.224,0.457,0.366c0.022,0.04,0.042,0.071,0.062,0.091
			c0.04,0.02,0.071,0.031,0.091,0.031c-0.04-0.061-0.09-0.122-0.152-0.184c-0.101-0.102-0.212-0.202-0.334-0.305l0.091-0.09
			c-0.04-0.062-0.081-0.133-0.122-0.214C99.636,66.083,99.575,66.062,99.512,66.044z M99.878,66.195
			c0.062,0.06,0.122,0.141,0.183,0.243c0.081,0.048,0.157,0.11,0.229,0.183c-0.123-0.14-0.219-0.271-0.29-0.396
			C99.96,66.225,99.919,66.215,99.878,66.195z M105.053,69.725c0,0.061,0,0.122,0,0.183c0,0.041,0,0.081,0,0.122
			c0,0.06-0.01,0.141-0.029,0.244c0.02,0,0.029,0.009,0.029,0.029c0.041-0.141,0.062-0.303,0.062-0.486
			c-0.022-0.062-0.042-0.133-0.062-0.214C105.053,69.645,105.053,69.684,105.053,69.725z M105.357,69.969v0.426
			c0.02-0.102,0.029-0.203,0.029-0.305C105.387,70.05,105.377,70.009,105.357,69.969z M105.479,70.881
			c0.041-0.103,0.07-0.203,0.092-0.305c-0.021,0.021-0.051,0.051-0.092,0.091c-0.02,0.062-0.069,0.122-0.151,0.184
			c0.021,0.04,0.03,0.081,0.03,0.121c0,0.02,0,0.041,0,0.061c0.039-0.041,0.08-0.08,0.121-0.121V70.881z M105.723,69.543
			c-0.061,0.183-0.102,0.437-0.123,0.761c0.021-0.021,0.041-0.041,0.062-0.061c0.04-0.183,0.061-0.396,0.061-0.64
			C105.723,69.583,105.723,69.562,105.723,69.543z M105.753,69.634c0,0.202-0.011,0.386-0.03,0.548
			c0.101-0.102,0.162-0.162,0.182-0.183C105.885,69.938,105.834,69.816,105.753,69.634z M105.662,69.42
			c-0.04-0.08-0.081-0.162-0.122-0.242c0.021,0.08,0.03,0.232,0.03,0.456c0,0.121,0,0.233,0,0.335
			C105.611,69.807,105.641,69.623,105.662,69.42z M105.51,71.368c-0.021,0-0.031,0.01-0.031,0.03
			c0.021-0.019,0.041-0.029,0.062-0.03H105.51z M105.725,70.485c0.039-0.021,0.08-0.04,0.121-0.061
			c0.02-0.041,0.03-0.081,0.03-0.122c-0.022,0.022-0.041,0.041-0.062,0.061c-0.021,0.021-0.041,0.041-0.062,0.062
			C105.753,70.445,105.743,70.465,105.725,70.485z"/>
	</g>
</g>
</svg>
