<?xml version="1.0" encoding="utf-8"?>
<!-- Generator: Adobe Illustrator 15.0.0, SVG Export Plug-In . SVG Version: 6.00 Build 0)  -->
<svg version="1.2" baseProfile="tiny" id="Layer_1" xmlns="http://www.w3.org/2000/svg" xmlns:xlink="http://www.w3.org/1999/xlink"
	 x="0px" y="0px" width="200px" height="200px" viewBox="0 0 200 200" overflow="inherit" xml:space="preserve">
<g>
	<g id="Layer_4">
		<path id="path5" fill="#010101" d="M104.412,115.318c1.278,0,2.506-0.73,3.683-2.191c0.629-0.75,1.299-1.714,2.01-2.892
			c0.183-0.224,0.649-0.599,1.4-1.126c0.689-0.507,1.105-0.872,1.248-1.096c0.284-0.67,0.831-1.045,1.644-1.127
			c0.831-0.08,1.511,0.225,2.039,0.914c0.71,1.481,1.644,3.358,2.8,5.63c0.832,1.827,1.289,3.491,1.369,4.992
			c0.062,1.157-0.162,2.272-0.668,3.348c0,0.244,0.01,0.497,0.029,0.761c0.021,0.508,0.021,0.924,0,1.248
			c-0.02,0.244-0.04,0.437-0.061,0.578c-0.162,0.771-0.559,1.36-1.188,1.766c-0.162,0.203-0.264,0.051-0.305-0.457
			c0.123-0.709,0.234-1.338,0.336-1.887c0.02-0.08,0.029-0.152,0.029-0.213c-0.02,0.061-0.039,0.133-0.061,0.213
			c-0.102,0.224-0.192,0.467-0.273,0.73c-0.122,0.346-0.233,0.65-0.335,0.914c-0.102,0.811-0.223,1.795-0.365,2.952h-0.214
			c-0.039-0.265-0.08-0.548-0.121-0.853c-0.203,0.062-0.365,0.092-0.487,0.092c0-0.02-0.04-0.062-0.122-0.121
			c-0.04-0.021-0.07-0.184-0.091-0.488c-0.02-0.162,0.021-0.547,0.122-1.156c-0.021,0.04-0.062,0.082-0.122,0.122
			c-0.284,0.974-0.405,1.634-0.366,1.979c-0.02,0-0.09,0.05-0.212,0.152c-0.142,0.081-0.315,0.132-0.518,0.151
			c-0.021,0-0.031-0.01-0.031-0.03c-0.081,0.366-0.192,0.68-0.335,0.944h-0.426c-0.041,0.102-0.111,0.191-0.213,0.273
			c-0.345-0.305-0.59-0.73-0.73-1.279c-0.041,0.041-0.081,0.072-0.123,0.092c0,0.527-0.02,1.035-0.06,1.521l-0.092,0.274
			l-0.669,0.03c-0.041-0.163-0.062-0.335-0.062-0.518c-0.062,0.041-0.142,0.061-0.243,0.061c-0.061-0.202-0.122-0.426-0.184-0.67
			c-0.08,0.041-0.172,0.082-0.273,0.122c-0.02,0.243-0.03,0.478-0.03,0.7l-0.091,0.061c0,0.121-0.011,0.254-0.031,0.396
			l-0.486,0.122c-0.082-0.285-0.133-0.59-0.152-0.914c-0.041,0.021-0.071,0.041-0.092,0.062c0.041,0.671,0.072,1.156,0.092,1.46
			c0.04,0.508,0,0.609-0.121,0.305c-0.447-0.121-0.742-0.568-0.883-1.338c0-0.041,0-0.07,0-0.092
			c-0.163,0.041-0.315,0.081-0.457,0.121c0.021,0.041,0.03,0.082,0.03,0.123c0,0.304-0.03,0.486-0.091,0.547
			c-0.121,0.102-0.182,0.163-0.182,0.183l-0.275,0.151c-0.081-0.283-0.151-0.547-0.213-0.791c-0.223,0.062-0.446,0.122-0.67,0.184
			c0,0.324-0.051,0.619-0.152,0.883c-0.162,0.283-0.283,0.496-0.365,0.639c-0.507-0.284-0.861-0.69-1.064-1.218
			c-0.346,0.04-0.69,0.081-1.035,0.122c0,0.02,0,0.041,0,0.061l-0.092,0.914c-0.08,0.182-0.213,0.283-0.395,0.304
			c-0.184-0.405-0.355-0.792-0.518-1.157c0.061,0.427,0.111,0.863,0.151,1.31c0.021,0.507,0.011,0.659-0.03,0.456
			c-0.04,0.184-0.162,0.285-0.365,0.305c-0.284-0.75-0.538-1.431-0.761-2.039c-0.184,0-0.366,0.011-0.548,0.029
			c0.223,0.59,0.386,0.995,0.486,1.219c-0.264-0.184-0.557-0.589-0.882-1.219c-0.062,0-0.121,0-0.184,0
			c0.528,1.137,0.985,1.897,1.37,2.283c-0.021,0.143-0.062,0.243-0.122,0.305c-0.061,0.102-0.233,0.152-0.517,0.152
			c-0.062,0-0.152-0.07-0.274-0.214c-0.04,0.102-0.112,0.163-0.213,0.184c0.081,0.243,0.183,0.467,0.305,0.669
			c-0.143-0.141-0.294-0.354-0.457-0.639c-0.062,0-0.102,0-0.122,0c-0.446,0-0.883-0.345-1.309-1.035
			c0.122,0.771,0.224,1.583,0.305,2.436c0.224,1.502,0.386,3.013,0.487,4.535c0.04,0.242,0.07,0.477,0.091,0.699
			c0.284,0.406,0.588,0.74,0.913,1.004c-0.284-0.142-0.588-0.456-0.913-0.943c0.04,0.527,0.082,1.064,0.122,1.612
			c0.061,0.224,0.132,0.457,0.213,0.7v0.152c-0.081-0.082-0.142-0.184-0.183-0.305c-0.021,0.061-0.021,0.133,0,0.213
			c0.224,0.488,0.396,0.863,0.518,1.127v0.184c-0.162-0.163-0.314-0.346-0.456-0.549c0.081,0.954,0.121,1.908,0.121,2.861
			c0.041,0.934-0.294,1.756-1.004,2.465c-0.142,0.285-0.274,0.569-0.396,0.853c-0.812,1.604-2.069,2.577-3.774,2.922
			c-0.344,0.913-0.781,1.786-1.308,2.618c-0.204,0.283-0.386,0.547-0.548,0.791c0.244,0.265,0.426,0.487,0.548,0.67
			c-0.082,0.285-0.142,0.467-0.183,0.548c-0.122,0.143-0.325,0.214-0.609,0.214c-0.285,0-0.568-0.082-0.852-0.244
			c-0.102,0.082-0.203,0.162-0.305,0.244c0.122,0.222,0.183,0.364,0.183,0.426c0,0.507-0.062,0.861-0.183,1.064
			s-0.334,0.305-0.639,0.305c-0.487,0-0.822-0.213-1.004-0.639c-0.081-0.326-0.152-0.559-0.213-0.701c-0.02,0-0.051,0-0.091,0
			c0,0.406,0.04,0.752,0.122,1.035c-0.082,0.184-0.203,0.336-0.365,0.457c-0.426-0.162-0.731-0.619-0.914-1.369
			c-0.062-0.265-0.091-0.497-0.091-0.7c-0.163-0.122-0.294-0.265-0.396-0.427c-0.101,0.284-0.183,0.457-0.243,0.52
			c-0.163-0.083-0.274-0.184-0.335-0.305c-0.021-0.103-0.041-0.356-0.062-0.762c-0.02-0.304-0.011-0.68,0.03-1.127
			c-0.121-1.299-0.183-1.988-0.183-2.068c-0.04-0.854,0.548-1.948,1.766-3.287c1.257-1.381,2.536-2.263,3.835-2.648
			c-0.285-0.527-0.599-1.38-0.944-2.557h-0.03v-0.092c-0.163-0.486-0.325-1.023-0.488-1.612c-0.04-0.062-0.081-0.112-0.121-0.152
			c0,0.101,0,0.203,0,0.305l-0.274,0.03c0-0.202,0.011-0.426,0.031-0.67c-0.325-0.467-0.558-0.862-0.7-1.188l-0.031,0.031
			l-0.122-0.121c-0.02-0.062-0.04-0.265-0.061-0.609c-0.016-0.229,0.025-0.594,0.122-1.096c0.036-0.167,0.076-0.35,0.122-0.548
			c-0.061-0.202-0.112-0.405-0.152-0.608c-0.118,0.488-0.174,0.874-0.167,1.156c0.008,0.105,0.024,0.196,0.045,0.273l-0.273,0.031
			c-0.018-0.096-0.028-0.198-0.031-0.305c-0.03-0.388,0.01-0.844,0.122-1.369c-0.062-0.041-0.122-0.082-0.184-0.122
			c0,0.224,0.011,0.405,0.032,0.548l-0.244,0.031c-0.102-0.041-0.172-0.071-0.213-0.092c-0.041-0.061-0.062-0.243-0.062-0.547
			c0-0.143,0-0.285,0-0.427c-0.203-0.265-0.334-0.578-0.395-0.943c-0.021-0.082-0.062-0.589-0.122-1.522
			c0-0.547,0.02-1.075,0.061-1.583c-0.142,0.548-0.213,1.026-0.213,1.432c0,0.121-0.04,0.233-0.122,0.335l-0.122-0.123
			c-0.02-0.061-0.04-0.263-0.061-0.607c0-0.305,0.081-0.73,0.243-1.278l-0.152-0.396c0.122-0.446,0.223-0.841,0.304-1.187
			c-0.324-1.643-0.497-2.709-0.517-3.196c-0.122-2.495,0.02-4.047,0.426-4.655v-0.031c-0.081-0.243-0.132-0.508-0.152-0.791
			c0-0.487,0.649-1.34,1.948-2.557c0.588-0.568,1.105-1.025,1.552-1.37c0.586-0.674,1.256-1.257,2.009-1.75
			C98.531,115.983,101.17,115.318,104.412,115.318z M116.86,163.256c-0.283,1.015-0.953,1.521-2.008,1.521
			c-1.178,0-1.889-0.608-2.131-1.826l0.03-1.766c0.021-2.435,0.741-3.652,2.161-3.652s2.12,1.218,2.1,3.652
			C116.993,162.24,116.942,162.932,116.86,163.256z"/>
	</g>
	<g id="Layer_5">
		<path id="path8" fill="#010101" d="M113.636,110.326c1.217,0,2.221,0.365,3.012,1.096c0.568,0.508,0.944,1.146,1.127,1.918
			c0.609,1.076,1.116,2.678,1.521,4.809c0.163,1.725,0.355,3.521,0.578,5.388c0.121,1.299,0.143,2.892,0.062,4.778
			c0,0.082,0,0.184,0,0.305c0.182,1.015,0.303,1.989,0.364,2.922c-0.062,0.163-0.183,0.244-0.364,0.244
			c0.162,1.541,0.242,2.617,0.242,3.226l-0.242,0.274c0,0.223-0.021,0.365-0.062,0.426c-0.061,0.061-0.111,0.111-0.151,0.152
			l-0.183-0.03c-0.021-0.446-0.102-1.168-0.244-2.162c-0.081-0.183-0.142-0.386-0.182-0.608c-0.021,0.04-0.031,0.08-0.031,0.121
			c0.284,1.645,0.497,3.258,0.64,4.84c-0.163-0.143-0.325-0.335-0.487-0.578c0.021,0.283,0.031,0.548,0.031,0.791
			c-0.021,0.184-0.113,0.273-0.275,0.273c-0.039-0.039-0.07-0.101-0.09-0.182l-0.152-0.031c0-0.162-0.011-0.324-0.031-0.486
			c-0.061-0.244-0.111-0.519-0.152-0.822c0,0.041,0,0.08,0,0.121c0.061,0.649,0.112,1.228,0.152,1.735
			c0.122,0.487,0.285,1.106,0.487,1.856c0.548,2.232,0.781,4.383,0.7,6.453c0,0.061-0.132,1.035-0.396,2.922
			c0.102,0.568,0.215,1.229,0.336,1.979c0.203,1.461,0.375,2.932,0.518,4.412c-0.224,1.543-0.365,2.923-0.426,4.141
			c0,0.101,0,0.214,0,0.336c0,0.101,0,0.201,0,0.304c0,0.02,0,0.05,0,0.091l-0.031,0.03c-0.081,0.548-0.283,1.208-0.608,1.979
			c-0.284,0.71-0.608,1.229-0.975,1.553c0.184,1.136,0.193,1.663,0.031,1.582c-0.224-0.061-0.355,0.093-0.396,0.456
			c0.02,0.468,0.02,0.965,0,1.492c-0.082,1.645-0.741,3.388-1.979,5.234c-1.197,1.766-2.242,2.588-3.135,2.467
			c-0.162-0.021-0.335-0.152-0.518-0.396c-0.183-0.224-0.305-0.376-0.365-0.457c-0.082,0.103-0.305,0.497-0.67,1.188
			c-0.265,0.525-0.568,0.77-0.914,0.729c-0.223-0.04-0.404-0.091-0.547-0.151l-0.121-0.091c-0.143-0.527-0.082-1.056,0.182-1.584
			l-1.096-0.242c-0.039-0.224-0.051-0.548-0.029-0.975c0-0.143,0.324-0.902,0.974-2.283c0.628-1.38,0.964-2.516,1.005-3.409
			c0-0.081,0.01-0.162,0.029-0.243c-0.081-0.061-0.162-0.121-0.243-0.183c-1.685,1.461-2.77,2.151-3.257,2.069
			c-0.426-0.061-0.68-0.244-0.761-0.549c-0.021-0.08-0.021-0.262,0-0.546c0-0.04,0-0.081,0-0.122
			c0.101-0.143,0.192-0.305,0.274-0.486c0.791-1.34,1.43-2.416,1.916-3.227c0.447-0.365,0.954-0.711,1.521-1.035
			c0.326-0.184,0.629-0.334,0.914-0.456c0.04-0.062,0.081-0.103,0.121-0.122c0.447-0.426,0.854-0.771,1.219-1.035
			c-0.163-0.344,0.182-0.74,1.034-1.188h0.669c0-0.039-0.01-0.08-0.029-0.12c0.223-0.589,0.243-1.34,0.061-2.252
			c-0.02,0.163-0.031,0.304-0.031,0.425c-0.202,0.265-0.405,0.375-0.608,0.336l-0.091-0.457c0.081-0.527,0.183-0.975,0.305-1.339
			l-0.152-0.03c-0.041-0.122-0.062-0.214-0.062-0.274c-0.021-0.102-0.021-0.315,0-0.64c0.021-0.223,0.052-0.445,0.091-0.67
			c-0.061-0.467-0.141-0.943-0.242-1.431c-0.305-1.968-0.559-3.612-0.762-4.931c-0.467-2.049-0.883-3.734-1.248-5.053
			c-1.704-1.115-2.982-4.068-3.835-8.857c-0.345-1.806-0.589-3.783-0.729-5.935c-0.041-0.446-0.062-0.831-0.062-1.156
			c-0.71-2.922-1.065-4.737-1.065-5.448c0.102-1.906,0.467-3.905,1.096-5.996c0.67-2.17,1.502-3.57,2.496-4.199
			c0.264-0.73,0.67-1.34,1.217-1.826C111.403,110.732,112.438,110.348,113.636,110.326L113.636,110.326z M119.753,129.897
			c0.02,0.04,0.029,0.081,0.029,0.122c0.041,0.648,0.092,1.237,0.152,1.764c-0.02-0.608-0.07-1.287-0.152-2.039
			C119.782,129.785,119.773,129.836,119.753,129.897z"/>
	</g>
	<g id="Layer_3">
		<path id="path11" fill="#010101" d="M110.864,72.83v-0.031c0-0.04,0.021-0.071,0.062-0.091c0.242,0.142,0.781,0.649,1.611,1.521
			c-0.771-1.035-1.408-1.999-1.916-2.892l0.152-0.121c0.73,0.912,1.815,2.444,3.257,4.596c1.745,2.598,2.617,4.158,2.617,4.687
			c1.015,3.064,1.522,4.678,1.522,4.84c0,0.183,0.031,0.456,0.091,0.821c0.69,1.035,1.034,1.785,1.034,2.252
			c0,0.062-0.01,0.225-0.029,0.487c-0.041,0.366-0.062,0.812-0.062,1.339c-0.101-0.102-0.242-0.304-0.426-0.607
			c0.082,0.385,0.184,0.832,0.305,1.339l-0.061,4.108c-0.041,0.081-0.113,0.092-0.214,0.031c-0.081-0.062-0.122-0.163-0.122-0.305
			c-0.061,0-0.102,0.243-0.121,0.73c-0.102,0.08-0.213,0.152-0.335,0.213c0.04,0.548,0.071,1.096,0.091,1.643h0.122
			c0.02,0.406,0.051,0.985,0.091,1.735c0.041,0.67,0.111,1.249,0.213,1.735l-0.09,10.652l-0.244,0.031
			c-0.04-0.629-0.092-1.219-0.152-1.766c-0.142,1.867-0.386,4.434-0.73,7.699c-0.365,2.984-1.076,5.824-2.13,8.523
			c-1.786,4.464-4.038,6.695-6.757,6.695c-1.056,0-2.061-0.405-3.014-1.217c-0.345-1.34-0.974-3.703-1.888-7.092
			c-0.183-0.588-0.354-1.167-0.518-1.735c-0.284-0.324-0.497-0.578-0.64-0.761l-0.03,1.188l-0.152,0.152
			c-0.527-2.232-0.822-3.562-0.883-3.988c-0.304-1.562-0.466-3.063-0.486-4.504c-0.04,0-0.071,0.092-0.091,0.273
			c-0.061,0.285-0.112,0.487-0.152,0.609c-0.061-0.163-0.122-0.416-0.183-0.762c-0.061-0.426-0.101-0.68-0.121-0.76
			c-0.021,0.385-0.112,0.648-0.274,0.791l-0.273,0.121c0-0.264-0.184-2.271-0.548-6.025c-0.365-3.45-0.539-5.723-0.518-6.818
			c0-0.162,0-0.305,0-0.426c-0.021-0.082-0.051-0.163-0.091-0.244c-0.102-0.324-0.203-0.629-0.305-0.913
			c0.102-2.354,0.396-5.093,0.882-8.218c0.285-2.232,0.589-4.342,0.913-6.331c-0.02-0.061-0.062-0.121-0.122-0.183
			c-0.122-0.162-0.183-0.375-0.183-0.639c0-0.711,0.192-1.319,0.579-1.826c0.04,0.121,0.081,0.244,0.121,0.365
			c1.359-7.183,2.953-11.394,4.779-12.631l-0.335-0.64c0.02-3.003,1.369-2.962,4.047,0.122
			C109.729,71.297,110.298,72.037,110.864,72.83z M115.218,78.43c0.121,0.102,0.283,0.233,0.486,0.396h0.152
			c-0.324-0.345-0.629-0.669-0.913-0.974c0.062,0.162,0.132,0.335,0.214,0.518C115.177,78.39,115.197,78.41,115.218,78.43z"/>
	</g>
	<g id="Layer_6">
		<path id="path14" fill="#010101" d="M112.509,23.371c0.305,0.364,0.477,0.842,0.518,1.43c0.061,0.426,0.04,0.802-0.062,1.126
			c-0.101,0.487-0.354,0.761-0.761,0.821h-0.913c0.081,0.386,0.243,1.055,0.487,2.01c0.041,0.142,0.092,0.284,0.152,0.426
			c-0.082,0.061-0.143,0.133-0.184,0.213c-0.242,0.324-0.273,1.238-0.09,2.739c0.182,1.36,0.67,3.023,1.46,4.991
			c0.467,1.076,1.105,2.557,1.917,4.444c0.366,0.913,0.852,1.928,1.461,3.044c0.121,0.648,0.234,1.288,0.336,1.917
			c0.061,0.528,0.061,2.182,0,4.961c0,0.041,0.121,0.265,0.365,0.67c0.304,0.446,0.467,0.761,0.486,0.943
			c0.021,0.325-0.051,0.558-0.213,0.7c-0.264,0.121-0.467,0.223-0.609,0.305c0.041,0.061,0.113,0.121,0.214,0.182
			c0.062,0.082,0.112,0.285,0.151,0.609c0.041,0.305,0.051,0.457,0.031,0.457c-0.02,0.102-0.031,0.192-0.031,0.273
			c-0.202,0.142-0.416,0.213-0.639,0.213c0.102,0.447,0.183,0.893,0.244,1.34c0.061,0.223,0.131,0.456,0.213,0.699
			c0.202,0.609,0.436,1.42,0.699,2.436c-0.061,0.324-0.273,0.456-0.64,0.395l-0.183,0.184c0.345,0.608,0.7,1.339,1.065,2.191
			c0.021,0.344,0.03,0.559,0.03,0.639c0.102,0.244,0.162,0.457,0.184,0.64c0.061,0.507,0.061,0.649,0,0.427
			c-0.082,0.02-0.184,0.04-0.305,0.06c0.081,0.163,0.132,0.315,0.152,0.457c0.041,0.284,0.041,0.426,0,0.426
			c-0.021-0.04-0.041-0.021-0.062,0.062c-0.021,0.142-0.04,0.253-0.061,0.335c-0.04,0.081-0.142,0.162-0.305,0.243
			c-0.021,0.08-0.03,0.152-0.03,0.213c-0.041,0.121-0.193,0.223-0.457,0.305c-0.061,0-0.111,0-0.152,0
			c0,0.08-0.01,0.142-0.031,0.183c0.204,0.061,0.152,0.142-0.152,0.243c0.244,0.386,0.498,0.822,0.762,1.309
			c0,0.386-0.102,0.689-0.305,0.913c-0.142-0.102-0.264-0.213-0.365-0.335c-0.04,0.062-0.081,0.111-0.121,0.152
			c-0.203-0.061-0.426-0.172-0.67-0.334c0.873,1.399,1.35,2.211,1.431,2.435c0,0.121-0.051,0.243-0.152,0.365
			c-0.081,0.142-0.162,0.233-0.243,0.274c-0.184-0.103-0.467-0.498-0.852-1.188c0.102,0.244,0.202,0.527,0.305,0.853
			c0.081,0.223,0.172,0.456,0.273,0.699l0.03,0.183c0.142,0.02,0.163,0.071,0.062,0.152c0.102,0.305,0.213,0.629,0.335,0.975
			c0,0.061,0.021,0.102,0.062,0.121c-0.021,0.04-0.143,0.092-0.365,0.152c-0.266,0.081-0.549-0.051-0.853-0.396
			c0.386,0.771,0.853,1.726,1.399,2.861l-0.061,0.184c-0.406-0.305-0.822-0.873-1.248-1.705c0.102,0.771,0.242,1.623,0.426,2.557
			c0.629,1.218,0.984,2.08,1.064,2.588c0.041,0.344,0.041,0.578,0,0.699c-0.039,0.061-0.121,0.121-0.242,0.182
			c-0.224-0.466-0.426-0.881-0.609-1.247c0,1.218-0.141,2.181-0.426,2.892c0,0.081-0.01,0.163-0.03,0.244
			c-0.04,0.162-0.102,0.385-0.183,0.669c-0.082-0.062-0.173-0.132-0.273-0.213c-0.265,0.325-0.589,0.548-0.975,0.669
			c-2.678,0.854-4.921,0.396-6.727-1.369c-1.359-1.278-2.12-2.617-2.283-4.018c0-0.041,0.528-3.206,1.584-9.496
			c-0.082-0.121-0.163-0.273-0.244-0.457c-0.223-0.467-0.354-0.842-0.396-1.125c-0.021-0.264,0-0.6,0.062-1.006
			c0-0.425-0.02-0.76-0.062-1.004c0.507-0.162,0.771-0.193,0.792-0.092l0.152-0.09c-0.102-0.062-0.162-0.122-0.184-0.184
			c-0.081-0.061-0.142-0.254-0.182-0.578c-0.041-0.345,0.131-0.902,0.518-1.674c-0.203-0.446-0.355-0.862-0.457-1.248
			c0.04-0.324,0.162-0.527,0.365-0.608c0.041,0.324,0.183,0.71,0.426,1.156c0.143-0.202,0.254-0.386,0.336-0.548
			c-0.285-0.365-0.438-0.648-0.457-0.852c-0.041-0.325-0.051-0.498-0.031-0.518c0.021-0.02,0.041-0.011,0.062,0.03v-0.122
			c0.183,0.081,0.376,0.213,0.579,0.396c-0.021-0.121-0.041-0.254-0.062-0.396c-0.062-0.061-0.132-0.102-0.214-0.121
			c0.062-0.102,0.142-0.163,0.244-0.184c0-0.445,0.061-0.75,0.182-0.912c-0.121-0.062-0.243-0.122-0.365-0.183l-0.031-0.335
			c0.123-0.102,0.254-0.163,0.396-0.184c-0.021-0.061-0.021-0.111,0-0.152c0.02-0.668-0.01-1.105-0.092-1.308
			c0.102-0.062,0.184-0.112,0.244-0.152c0-0.021-0.011-0.05-0.031-0.091c0.081-0.041,0.192-0.031,0.336,0.029
			c0.061,0,0.121,0.012,0.182,0.03c0.04-0.263,0.102-0.517,0.183-0.761c-0.223-0.426-0.345-0.761-0.364-1.004l0.09-0.305
			c0.082,0.041,0.223,0.142,0.426,0.305c0.224-1.461,0.478-3.003,0.762-4.627c-0.021-0.283-0.416-2.049-1.188-5.295
			c-0.791-3.369-1.268-5.601-1.431-6.696c-0.122-1.4-0.213-2.456-0.274-3.165c-0.162-1.259-0.425-2.212-0.791-2.861
			c-0.284-0.487-0.74-1.45-1.369-2.892c-0.629-1.461-0.953-2.272-0.975-2.435c-0.061-0.346,0.123-1.369,0.547-3.074
			c0.367-1.604,0.58-2.414,0.641-2.435c0.242-0.081,0.436-0.03,0.578,0.151c0.102,0.102,0.213,0.264,0.335,0.487
			c1.156-1.928,2.394-2.546,3.714-1.856C111.575,20.814,112.244,21.869,112.509,23.371z"/>
	</g>
	<g id="Layer_7">
		<path id="path17" fill="#010101" d="M111.81,78.309c0.953,0.932,0.507,3.58-1.34,7.943c-0.344,0.75-0.832,1.775-1.461,3.074
			c0.102-0.081,0.183-0.143,0.244-0.184l0.242,0.123c0,0.162-0.02,0.242-0.061,0.242c-0.102,0.102-0.254,0.285-0.457,0.549
			c-0.102,0.08-0.254,0.182-0.456,0.305c-0.082,0.121-0.142,0.254-0.183,0.395l0.213,0.152c-0.121,0.224-0.324,0.457-0.609,0.7
			c-0.162,0.183-0.283,0.406-0.365,0.669c0.265-0.182,0.527-0.406,0.793-0.669c0.121-0.061,0.264-0.092,0.426-0.092
			c-0.244,0.812-0.406,1.279-0.488,1.401c-0.04,0-0.395,0.344-1.064,1.033c-0.975,1.686-1.594,2.619-1.857,2.801
			c0.021,0.061,0.092,0.081,0.213,0.061c0.082,0,0.133,0.021,0.152,0.062c0.123,0.162,0.143,0.335,0.062,0.517
			c-0.446,0.163-0.873,0.365-1.278,0.609c-0.021,0.102-0.03,0.173-0.03,0.213l0.091-0.03c0.142-0.081,0.254-0.091,0.334-0.03
			c-0.061,0.183-0.415,0.559-1.065,1.126c-0.912,1.603-1.805,3.044-2.678,4.322c-0.162,0.243-0.324,0.478-0.486,0.7
			c0.101,0.426,0.324,0.822,0.669,1.187l-0.183,0.335c-0.486,0.121-0.963,0.304-1.431,0.548l0.214,0.183
			c-0.02,0.02-0.041,0.071-0.062,0.152c-0.061,0.121-0.203,0.294-0.425,0.518c-0.102,0.102-0.64,0.344-1.613,0.73
			c-0.163,0.121-0.304,0.264-0.426,0.426c0.081,0,0.131-0.01,0.152-0.03c0.082,0.102,0.112,0.233,0.091,0.396
			c-0.426,0.264-0.812,0.496-1.157,0.699c-0.182,0.143-0.334,0.336-0.457,0.579c-0.852,0.771-2.496,1.968-4.931,3.592
			c-0.102,0.081-0.192,0.142-0.273,0.183c-0.029,0.051-0.06,0.102-0.092,0.152c-0.246,0.457-0.469,0.877-0.669,1.263
			c-0.031,0.054-0.062,0.11-0.092,0.167l-0.365-0.305c0.082-0.04,0.213-0.273,0.396-0.699c-0.122,0.162-0.294,0.264-0.518,0.305
			c-0.264,0.547-0.527,0.902-0.792,1.064c-0.061,0.143-0.112,0.224-0.152,0.244c-0.06,0.426-0.142,0.72-0.243,0.883
			c-0.183,0.223-0.416,0.558-0.699,1.004c-0.203,0.486-0.315,0.75-0.335,0.791c0.081,0.406-0.163,1.329-0.73,2.77
			c-0.628,1.482-1.095,2.293-1.4,2.436c-0.325,0.121-0.528,0.183-0.609,0.183l-0.152-0.062c-0.062-0.142-0.122-0.264-0.184-0.365
			c-0.101,0.244-0.253,0.498-0.457,0.762c1.117,0.202,1.826,0.242,2.131,0.121c0.345-0.061,0.792-0.274,1.339-0.64
			c0.487-0.162,0.71-0.192,0.67-0.091l0.213,0.396c-0.325,0.528-0.569,0.883-0.731,1.065c-0.467,0.629-1.003,1.045-1.612,1.248
			c-0.67,0.264-1.37,0.223-2.1-0.122c0,0.081,0,0.163,0,0.243c0.061,0.264,0.467,0.447,1.217,0.548
			c0.852,0.122,1.41,0.324,1.674,0.608c-0.163,0.467-0.66,0.873-1.491,1.218c-0.244,0.04-0.467,0.101-0.67,0.183
			c0.182,0.223,0.284,0.416,0.305,0.578l0.09,0.426c-0.061,0.082-0.09,0.164-0.09,0.244c0,0.102-0.244,0.264-0.731,0.486
			c-0.832,0.305-1.583,0.132-2.252-0.518c-0.102,0-0.294,0.07-0.579,0.213c-0.284,0.102-0.659-0.242-1.126-1.034
			c-0.366-0.548-0.568-0.983-0.609-1.308c-0.062-0.224-0.051-0.457,0.031-0.701c0-0.04,0-0.08,0-0.121
			c-0.142-0.791,0.03-1.806,0.517-3.043c0.062-0.143,0.122-0.285,0.183-0.426c0.061-1.4,0.588-3.024,1.583-4.87
			c0.406-0.69,0.842-1.31,1.309-1.856c-0.304,0.121-0.629,0.183-0.975,0.183c0.243-0.204,0.995-0.782,2.252-1.735
			c-0.569,0.244-0.954,0.467-1.157,0.67l-0.792-0.122c0.183-0.264,0.467-0.538,0.853-0.821l-0.578-0.092
			c0.081-0.143,0.253-0.305,0.517-0.486v-0.031c0.231-0.231,0.567-0.516,1.004-0.852c0.144-0.106,0.296-0.219,0.457-0.335
			c0.142-0.081,0.305-0.184,0.487-0.304h-0.03c0.02-0.082,0.04-0.152,0.061-0.214h-0.792c0.237-0.356,0.511-0.681,0.822-0.974
			c0.39-0.361,0.836-0.676,1.338-0.943c-0.141-0.021-0.263-0.052-0.365-0.092l-0.061,0.03l-0.091,0.062l0.091-0.123h-0.062v-0.182
			c0.021,0.02,0.072,0.03,0.152,0.03c0.021-0.062,0.071-0.142,0.152-0.243c0.062-0.061,0.254-0.265,0.579-0.609l-0.305-0.061
			c0.122,0,0.467-0.172,1.035-0.518c0.02-0.021,0.04-0.051,0.061-0.092c0.081,0,0.152-0.05,0.213-0.151
			c-0.467,0.263-0.893,0.426-1.279,0.487c-0.101-0.123-0.163-0.265-0.182-0.427c0,0.021,0.172-0.03,0.517-0.152l-0.121-0.183
			c0.101,0,0.172-0.02,0.213-0.061l0.182-0.122c0.021-0.04,0.072-0.081,0.152-0.122l-0.03-0.029l0.061,0.029
			c0.366-0.426,0.882-0.781,1.553-1.064c-0.467,0.021-0.731-0.041-0.792-0.183l-0.09-0.152c0.344-0.081,0.821-0.224,1.43-0.427
			c0.062-0.061,0.122-0.131,0.183-0.212c-0.325,0.019-0.578-0.052-0.761-0.214l0.031-0.243l0.091,0.061
			c0.04,0.04,0.183,0.04,0.426,0c0.223-0.021,0.416-0.04,0.578-0.061c0.325-0.508,0.608-0.934,0.852-1.278
			c0.285-0.467,1.583-1.847,3.896-4.14c0.082-0.142,0.314-0.364,0.7-0.669c-0.04-0.265-0.04-0.59,0-0.975
			c0.203-0.934,0.416-1.907,0.64-2.922c-0.386,0.244-0.609,0.345-0.67,0.305c0.102-0.305,0.406-0.721,0.913-1.248l0.031-0.061
			c0.121-0.264,0.223-0.518,0.304-0.762c-0.183,0.163-0.345,0.305-0.488,0.426l-0.152-0.152c0.386-0.466,0.711-0.871,0.975-1.217
			c0.122-0.365,0.265-0.74,0.426-1.126c-0.568,0.487-0.995,0.862-1.279,1.126l-0.122-0.121c0.386-0.447,0.883-0.975,1.492-1.583
			c0-0.04,0.071-0.122,0.213-0.244c0.04-0.183,0.121-0.385,0.243-0.608c0.02-0.02,0.051-0.071,0.091-0.152
			c-0.467,0.385-0.852,0.721-1.157,1.005l-0.183-0.122c0.04-0.08,0.082-0.152,0.122-0.213c0-0.041,0.142-0.193,0.426-0.456
			c0.223-0.183,0.497-0.406,0.822-0.67c-0.021-0.142-0.021-0.284,0-0.426c-0.183,0.202-0.345,0.364-0.487,0.487l-0.062-0.152
			c0.203-0.203,0.406-0.438,0.608-0.701c0.042-0.182,0.051-0.436,0.032-0.76c-0.345,0.263-0.66,0.415-0.944,0.456
			c0.264-0.183,0.578-0.406,0.944-0.67c0.061-0.183,0.09-0.365,0.09-0.548l-0.426,0.518l-0.091-0.061
			c0.062-0.162,0.233-0.426,0.518-0.792c0.04-0.385,0.102-0.841,0.183-1.369c-0.061,0.021-0.121,0.092-0.183,0.213l-0.09-0.152
			c0.02-0.081,0.121-0.213,0.304-0.396c-0.021-0.182-0.031-0.346-0.031-0.486c0.041-0.266,0.092-0.498,0.152-0.7
			c-0.142,0.122-0.233,0.232-0.273,0.334l-0.243-0.03c0.142-0.324,0.304-0.629,0.487-0.912l0.03-0.031
			c0.224-1.969,0.518-3.317,0.883-4.049c0.284-0.648,0.75-1.297,1.4-1.947c0.649-0.73,1.979-1.4,3.988-2.009
			c2.598-0.832,4.533-0.629,5.812,0.608c0.508,0.487,0.842,1.005,1.004,1.553L111.81,78.309L111.81,78.309z M86.912,110.631
			c0.061-0.102,0.112-0.192,0.152-0.273c-0.183,0.183-0.345,0.345-0.487,0.486c0.04,0,0.132-0.02,0.274-0.061L86.912,110.631z
			 M85.847,112.792c0.061-0.061,0.091-0.122,0.091-0.183c0-0.02-0.041,0-0.122,0.061c-0.04,0.082-0.091,0.152-0.152,0.214
			C85.745,112.863,85.806,112.833,85.847,112.792L85.847,112.792z"/>
	</g>
	<g id="Layer_2">
		<path id="path20" fill="#010101" d="M107.882,68.295c0.02,0.02,0.04,0.029,0.061,0.029h-0.029c0,0.021,0.01,0.051,0.029,0.092
			c-0.039-0.041-0.08-0.07-0.121-0.092c0.082,0.122,0.152,0.233,0.214,0.336v0.061l-0.03-0.031c0.02,0.062,0.051,0.112,0.09,0.152
			c0.062,0.143,0.133,0.285,0.215,0.427c0.141,0.162,0.232,0.304,0.272,0.426v0.091c-0.04-0.02-0.07-0.04-0.091-0.061
			c0.102,0.305,0.152,0.559,0.152,0.761l-0.03,0.183c0.264,0.446,0.567,0.994,0.913,1.644c0.041,0.04,0.02,0.062-0.062,0.062
			c-0.04,0-0.101-0.031-0.183-0.092c-0.02,0.021-0.051,0.03-0.092,0.03c-0.264-0.345-0.588-0.841-0.973-1.491
			c0,0.02-0.011,0.041-0.031,0.062c-0.04-0.103-0.102-0.224-0.183-0.366c0.021,0.062,0.04,0.112,0.062,0.152
			c0.202,0.406,0.445,0.873,0.73,1.4c0,0.102-0.012,0.121-0.031,0.061c-0.162-0.182-0.314-0.396-0.457-0.639
			c0.062,0.305,0.092,0.547,0.092,0.73c0,0.081-0.031,0.223-0.092,0.426c-0.02-0.061-0.04-0.121-0.061-0.183
			c-0.02-0.019-0.039-0.038-0.061-0.061c-0.143-0.183-0.275-0.427-0.396-0.73l-0.031,0.03c0,0.08,0,0.152,0,0.213l-0.09,0.578
			l-0.152,0.062c-0.041-0.122-0.091-0.294-0.152-0.519c-0.02,0.021-0.031,0.042-0.031,0.062c0,0.364-0.029,0.639-0.09,0.82h-0.092
			c0-0.02,0-0.141,0-0.364c-0.243,0.466-0.558,0.984-0.943,1.552c-1.015,1.461-2.131,2.293-3.349,2.496
			c0.021,0.041,0.031,0.092,0.031,0.152c0.223,0.162,0.354,0.456,0.396,0.883c0.02,0.344-0.021,0.719-0.122,1.126
			c0,0.121,0,0.243,0,0.365c-0.062,0.081-0.132,0.183-0.213,0.304c0.021,0.102,0.03,0.233,0.03,0.396
			c0,0.121-0.04,0.324-0.122,0.608c0,0.122,0,0.243,0,0.365s-0.051,0.497-0.151,1.126c0-0.467,0-0.863,0-1.187
			c-0.062,0.121-0.112,0.263-0.152,0.425c0,0.67-0.102,1.158-0.305,1.461c-0.081-0.101-0.121-0.202-0.121-0.303l0.03-0.244
			c-0.122,0.202-0.213,0.365-0.274,0.487h-0.152c0-0.021,0-0.041,0-0.062c-0.04,0.143-0.07,0.305-0.091,0.487
			c-0.121,0.04-0.182,0.04-0.182,0c0.02-0.122,0.05-0.264,0.09-0.426c-0.02,0-0.03,0.01-0.03,0.03
			c-0.102,0.324-0.213,0.558-0.335,0.699c-0.062-0.02-0.091-0.08-0.091-0.182c-0.122,0.142-0.243,0.264-0.365,0.365l-0.152-0.092
			c0.142-0.182,0.265-0.355,0.365-0.518c-0.04,0.02-0.081,0.061-0.122,0.122c-0.203,0.304-0.416,0.517-0.639,0.64
			c-0.265,0.486-0.477,0.811-0.64,0.974l-0.243-0.152c0.163-0.284,0.314-0.559,0.457-0.821c-0.425,0.628-0.75,0.994-0.974,1.096
			l-0.214-0.152c0-0.041,0.223-0.416,0.67-1.127c0.02-0.02,0.03-0.039,0.03-0.061h-0.061c-0.345,0.589-0.599,0.954-0.761,1.096
			l-0.152-0.183c0-0.102,0.04-0.233,0.122-0.396c-0.041,0.061-0.082,0.102-0.122,0.121c-0.102,0.123-0.192,0.233-0.273,0.335
			l-0.122,0.03v0.031c-0.102,0.061-0.183,0.102-0.243,0.121c-0.122-0.021-0.193-0.041-0.213-0.061
			c0.081-0.122,0.163-0.232,0.243-0.334l-0.091,0.029c-0.04,0.021-0.061-0.02-0.061-0.121c0-0.081,0.061-0.233,0.183-0.457h-0.122
			c-0.284,0.549-0.73,0.934-1.339,1.157c0.041-0.062,0.062-0.132,0.062-0.214l0.061,0.062l0.67-0.913l-0.152,0.03
			c-0.041,0.04-0.071,0.062-0.091,0.062c-0.041,0.061-0.082,0.121-0.122,0.182c-0.426,0.528-0.709,0.832-0.852,0.914
			c0.061-0.082,0.121-0.173,0.183-0.274c-0.163,0.122-0.304,0.202-0.426,0.243c-0.325,0.243-0.619,0.436-0.883,0.578l-0.061-0.03
			c0.142-0.162,0.304-0.386,0.487-0.669c-0.021,0-0.031-0.012-0.031-0.031c0.04-0.021,0.081-0.03,0.122-0.03
			c0.142-0.224,0.314-0.457,0.518-0.7c-0.062,0.021-0.112,0.041-0.152,0.061h-0.031c-0.122,0.203-0.192,0.315-0.214,0.335
			c-0.385,0.528-0.902,0.975-1.552,1.339c-0.04,0-0.07,0-0.09,0c0-0.02,0-0.05,0-0.09c0-0.021,0.163-0.203,0.487-0.549
			c-0.062,0.041-0.122,0.081-0.183,0.122c-0.062,0.021-0.102,0.011-0.122-0.03c0.061-0.102,0.122-0.152,0.183-0.152
			c0.04,0,0.091-0.011,0.152-0.031h-0.031l-0.03-0.182c0-0.02,0.01-0.039,0.03-0.061c-0.326,0.326-0.691,0.619-1.096,0.883
			c-0.041,0.039-0.061,0.02-0.061-0.062l0.7-0.761c-0.163,0.121-0.324,0.254-0.487,0.396c-0.102-0.021-0.152-0.071-0.152-0.152
			l0.061-0.062c-0.041,0.021-0.082,0.041-0.122,0.062C93.01,84.973,93,84.933,93,84.912c0-0.08,0.152-0.254,0.457-0.518
			c-0.04,0-0.082,0-0.122,0s-0.101-0.02-0.183-0.061c-0.061,0-0.112,0.011-0.152,0.03l-0.03-0.03c0.02-0.061,0.05-0.122,0.09-0.182
			H93v-0.031c-0.082,0.061-0.163,0.122-0.244,0.183c-0.04,0.041-0.061,0.021-0.061-0.061c0.082-0.142,0.162-0.284,0.243-0.427
			h-0.031c0.021-0.02,0.042-0.029,0.062-0.029c0.061-0.123,0.122-0.224,0.183-0.305l-0.03-0.031
			c-0.081,0.061-0.132,0.112-0.152,0.152c-0.062,0.102-0.112,0.193-0.152,0.274h-0.062c-0.02,0.02-0.03-0.011-0.03-0.091
			l-0.183-0.152c0-0.163,0.081-0.365,0.244-0.609c-0.021-0.021-0.041-0.03-0.062-0.03c-0.04,0.081-0.101,0.183-0.183,0.304h-0.03
			c0.061-0.142,0.112-0.264,0.152-0.365c-0.04-0.02-0.071-0.039-0.091-0.061c-0.02,0.04-0.061,0.061-0.122,0.061
			c0.021-0.039,0.041-0.08,0.062-0.121c-0.041-0.021-0.071-0.051-0.092-0.092c-0.061-0.102-0.112-0.232-0.152-0.395
			c-0.183-0.468-0.274-0.711-0.274-0.731c-0.121-0.224-0.254-0.427-0.395-0.608c0-0.021,0-0.051,0-0.092
			c0-0.121,0.061-0.213,0.183-0.273c-0.021-0.041-0.041-0.071-0.061-0.092c-0.142-0.162-0.214-0.273-0.214-0.334
			c0-0.163,0.011-0.315,0.031-0.457c0.021-0.122,0.041-0.232,0.062-0.334c0.02-0.225,0.07-0.417,0.152-0.579
			c0-0.163,0.021-0.315,0.061-0.456v-0.031c0.366-0.791,0.619-1.268,0.761-1.431c0.021-0.06,0.172-0.233,0.457-0.517
			c0.021-0.324,0.163-0.588,0.426-0.791c0.082-0.041,0.172-0.081,0.274-0.123c0.081-0.141,0.253-0.385,0.518-0.73
			c0.203-0.242,0.396-0.445,0.578-0.607c0-0.062,0.01-0.112,0.03-0.152c0.062-0.184,0.091-0.548,0.091-1.096
			c0-0.081,0-0.163,0-0.244c-0.182-0.02-0.273-0.051-0.273-0.091c0.02,0.02,0.111,0.02,0.273,0c0-0.021,0-0.051,0-0.092
			c-0.02-0.021-0.04-0.03-0.062-0.03c-0.101-0.04-0.172-0.111-0.213-0.213h0.03c0.02,0.061,0.071,0.091,0.152,0.091
			c0.02,0,0.04,0.011,0.062,0.03v-0.03c0-0.021,0.011-0.03,0.03-0.03c-0.04-0.02-0.071-0.03-0.091-0.03l-0.851-0.214
			c0.081-0.08,0.314-0.07,0.699,0.031h0.031c-0.081-0.041-0.163-0.081-0.243-0.121c0.02,0,0.172,0.04,0.457,0.121l0.031-0.031
			c-0.02-0.039-0.041-0.08-0.061-0.121c-0.163-0.041-0.304-0.091-0.426-0.151c0.101,0,0.203,0.01,0.305,0.03
			c-0.02-0.062-0.04-0.112-0.062-0.152c-0.02-0.021-0.031-0.051-0.031-0.092c-0.243-0.08-0.365-0.141-0.365-0.183
			c0.021-0.04,0.062-0.061,0.122-0.061c-0.122-0.122-0.214-0.284-0.274-0.487c-0.102-0.243-0.163-0.467-0.183-0.67
			c-0.142-0.202-0.214-0.385-0.214-0.548c0-0.224,0.04-0.446,0.122-0.669l-0.03,0.273c0,0.264,0.04,0.477,0.122,0.64
			c0.02-0.224,0.061-0.406,0.121-0.548c0.041-0.04,0.082-0.102,0.122-0.183V68.66h0.03c0,0.102,0,0.191,0,0.273
			c0.041-0.122,0.091-0.193,0.152-0.213c-0.02,0.08-0.04,0.172-0.061,0.273c0.102-0.121,0.213-0.232,0.335-0.334
			c-0.057,0.133-0.113,0.266-0.167,0.395h0.014c-0.04,0.123-0.061,0.314-0.061,0.579c0,0.243,0.01,0.426,0.03,0.548
			c0-0.061,0.01-0.112,0.03-0.152c-0.02-0.143-0.03-0.224-0.03-0.244c0-0.141,0.05-0.314,0.152-0.517c0-0.062,0-0.103,0-0.122
			c0.04-0.324,0.142-0.559,0.304-0.7c-0.061,0.081-0.102,0.203-0.122,0.365c0.082-0.162,0.163-0.284,0.243-0.365
			c-0.02,0.081-0.112,0.345-0.274,0.792c-0.02,0.021-0.03,0.05-0.03,0.091c-0.02,0.163-0.03,0.345-0.03,0.548
			c0.02-0.041,0.04-0.08,0.061-0.122c0.02-0.183,0.071-0.386,0.152-0.608c0-0.061,0-0.102,0-0.121
			c0.02-0.203,0.102-0.355,0.244-0.457c0.04-0.041,0.09-0.081,0.152-0.122c-0.062,0.081-0.112,0.163-0.152,0.243
			c-0.082,0.184-0.132,0.325-0.152,0.427v0.03c0.02-0.04,0.04-0.072,0.061-0.092c0,0.041-0.011,0.092-0.031,0.152h0.122l0.061,0.092
			l-0.03,0.67h0.03c0.021-0.305,0.051-0.59,0.091-0.853l0.121,0.062l0.062,0.061c-0.041,0.021-0.082,0.01-0.123-0.031v0.518
			c0.021-0.143,0.041-0.254,0.062-0.334c0.021,0.08,0.031,0.212,0.031,0.395l0.03-0.03c0.021-0.081,0.062-0.183,0.122-0.304
			c-0.041-0.285-0.062-0.446-0.062-0.487s0.04-0.173,0.122-0.396c0.122-0.244,0.223-0.375,0.304-0.396
			c-0.04,0.123-0.142,0.355-0.304,0.701c-0.061,0.223-0.082,0.405-0.061,0.547c0.203-0.426,0.558-0.974,1.065-1.643
			c-0.184,0.345-0.508,0.953-0.975,1.825v0.062c0.04-0.02,0.082-0.03,0.122-0.03c0.061-0.203,0.253-0.446,0.578-0.731
			c0.081-0.202,0.183-0.395,0.305-0.578c0.061-0.08,0.112-0.152,0.152-0.213c0.081-0.121,0.192-0.243,0.334-0.365
			c0.041-0.08,0.102-0.182,0.183-0.305c-0.041,0.082-0.071,0.152-0.091,0.214c0.102-0.081,0.233-0.173,0.395-0.274
			c0.062-0.061,0.142-0.121,0.244-0.182c0.122-0.225,0.203-0.365,0.243-0.427c-0.038,0.076-0.058,0.142-0.061,0.198
			c0.004-0.057,0.035-0.122,0.091-0.198c0.142-0.202,0.264-0.335,0.365-0.396c-0.102,0.223-0.192,0.426-0.273,0.608
			c0.061-0.021,0.122-0.041,0.182-0.061c0.142-0.102,0.325-0.202,0.548-0.305c0.142-0.202,0.223-0.314,0.243-0.335
			c-0.021,0.082-0.051,0.163-0.091,0.244c0.04-0.041,0.082-0.061,0.122-0.061c0.385-0.244,0.649-0.457,0.791-0.64
			c0,0.101-0.03,0.213-0.091,0.335c0.021-0.021,0.051-0.03,0.091-0.03c0.102-0.204,0.183-0.366,0.243-0.487
			c-0.041-0.081-0.091-0.173-0.152-0.273c0.101-0.021,0.152-0.041,0.152-0.062c0.021,0.062,0.041,0.122,0.061,0.183
			c0.021-0.061,0.031-0.111,0.031-0.152c0-0.039-0.021-0.061-0.061-0.061c-0.021,0.021-0.031,0.021-0.031,0l0.152-0.061
			c0.041,0.061,0.061,0.131,0.061,0.213c0,0.061-0.02,0.142-0.061,0.243c0.041,0.142,0.061,0.284,0.061,0.426
			c0.061-0.121,0.122-0.233,0.183-0.335c-0.021-0.08-0.041-0.152-0.062-0.213c0-0.061,0.062-0.092,0.183-0.092
			c0.122-0.283,0.183-0.477,0.183-0.578v-0.061c-0.04,0-0.07,0-0.091,0l0.183-0.061l0.03,0.213c0,0.264-0.091,0.619-0.273,1.065
			c0.04-0.04,0.081-0.061,0.122-0.061c-0.062,0.04-0.122,0.102-0.183,0.183c0,0.02-0.01,0.04-0.03,0.061
			c-0.021,0.061-0.051,0.132-0.091,0.213c0.223-0.243,0.416-0.426,0.578-0.548c0.081-0.243,0.121-0.528,0.121-0.853
			c0-0.141-0.04-0.283-0.121-0.426h0.121c0.041,0.102,0.062,0.254,0.062,0.457c0,0.305-0.03,0.547-0.091,0.73
			c0.101-0.102,0.162-0.162,0.183-0.184c-0.082,0.143-0.162,0.274-0.243,0.396c-0.021,0.08-0.051,0.152-0.092,0.213
			c0.041,0,0.071,0,0.092,0h0.03c0.04-0.102,0.081-0.193,0.121-0.273c0.305-0.629,0.468-0.965,0.487-1.005l0.03,0.091
			c0,0.163-0.151,0.508-0.456,1.035c0.386-0.243,0.902-0.507,1.553-0.791l0.091,0.092c-0.162,0.162-0.467,0.354-0.913,0.578
			c0.062-0.021,0.102-0.031,0.122-0.031l0.121,0.062c0.284-0.142,0.457-0.214,0.518-0.214c-0.061,0.041-0.121,0.092-0.183,0.152
			c0.345-0.102,0.568-0.152,0.67-0.152l-0.03,0.031h0.03c0.548-0.203,0.883-0.305,1.004-0.305c-0.081,0.121-0.202,0.232-0.364,0.335
			l0.09,0.061c-0.142,0.062-0.264,0.102-0.365,0.122c-0.162,0.08-0.324,0.152-0.487,0.213c0.345-0.021,0.903-0.081,1.675-0.183
			l0.151,0.152c-0.061,0.021-0.182,0.061-0.365,0.122h0.396c0.202,0.061,0.365,0.182,0.486,0.365h-0.031
			c0.041,0.02,0.102,0.07,0.184,0.152c0.061,0.02,0.132,0.04,0.213,0.061c0.832,0.283,1.329,0.547,1.492,0.791
			c0,0.041-0.021,0.07-0.062,0.092c-0.081-0.082-0.192-0.152-0.335-0.213c-0.041,0.021-0.082,0.029-0.121,0.029
			C107.466,67.777,107.72,68.01,107.882,68.295L107.882,68.295z M108.187,72.403c0.021,0.021,0.041,0.03,0.061,0.03
			c-0.061-0.143-0.111-0.274-0.152-0.396c0.041,0.143,0.062,0.234,0.062,0.274C108.157,72.332,108.167,72.362,108.187,72.403z
			 M108.461,70.882c-0.021-0.081-0.052-0.152-0.091-0.214l-0.152-0.334c0,0.061,0.01,0.121,0.03,0.182
			C108.31,70.617,108.38,70.739,108.461,70.882z M104.626,66.498c-0.082,0.021-0.163,0.041-0.244,0.061h0.428
			C104.747,66.539,104.687,66.52,104.626,66.498z M105.265,66.559c0.041,0,0.071,0,0.092,0c-0.021-0.02-0.041-0.039-0.062-0.061
			h-0.335c0.062,0.021,0.111,0.041,0.152,0.061H105.265z M100.486,65.92c0-0.04-0.01-0.08-0.03-0.121
			c-0.041,0.081-0.082,0.172-0.122,0.273c0.04-0.021,0.091-0.03,0.152-0.03C100.486,66.002,100.486,65.961,100.486,65.92z
			 M100.304,66.103c-0.041,0.081-0.082,0.152-0.122,0.214l0.091,0.09c-0.122,0.103-0.233,0.203-0.334,0.305
			c-0.062,0.062-0.112,0.123-0.152,0.184c0.02,0,0.051-0.011,0.091-0.031c0.02-0.02,0.04-0.051,0.062-0.091
			c0.183-0.142,0.334-0.264,0.457-0.366c0.02-0.121,0.05-0.242,0.091-0.364C100.425,66.062,100.364,66.083,100.304,66.103z
			 M100,66.225c-0.071,0.125-0.167,0.256-0.29,0.396c0.072-0.073,0.148-0.135,0.229-0.183c0.061-0.102,0.121-0.183,0.183-0.243
			C100.081,66.215,100.04,66.225,100,66.225z M94.947,69.603c-0.02,0.081-0.04,0.152-0.062,0.214c0,0.183,0.021,0.345,0.062,0.486
			c0-0.02,0.01-0.029,0.03-0.029c-0.02-0.103-0.03-0.184-0.03-0.244c0-0.041,0-0.081,0-0.122c0-0.061,0-0.122,0-0.183
			C94.947,69.684,94.947,69.645,94.947,69.603z M94.613,70.09c0,0.102,0.01,0.203,0.03,0.305v-0.426
			C94.623,70.009,94.613,70.05,94.613,70.09z M94.521,70.912c0.041,0.041,0.082,0.08,0.122,0.121c0-0.02,0-0.041,0-0.061
			c0-0.04,0.01-0.081,0.03-0.121c-0.082-0.062-0.132-0.122-0.152-0.184c-0.041-0.04-0.07-0.07-0.091-0.091
			c0.021,0.102,0.051,0.202,0.091,0.305V70.912z M94.277,69.603c0,0.244,0.021,0.457,0.061,0.64c0.021,0.02,0.041,0.04,0.062,0.061
			c-0.021-0.324-0.062-0.578-0.123-0.761C94.277,69.562,94.277,69.583,94.277,69.603z M94.095,69.999
			c0.02,0.021,0.082,0.081,0.183,0.183c-0.02-0.162-0.031-0.346-0.031-0.548C94.166,69.816,94.115,69.938,94.095,69.999z
			 M94.429,69.969c0-0.102,0-0.214,0-0.335c0-0.224,0.011-0.376,0.031-0.456c-0.041,0.08-0.082,0.162-0.122,0.242
			C94.359,69.623,94.389,69.807,94.429,69.969z M94.46,71.368c0.021,0.001,0.041,0.011,0.061,0.03c0-0.02-0.01-0.03-0.031-0.03
			H94.46z M94.247,70.425c-0.02-0.021-0.04-0.041-0.061-0.062c-0.021-0.02-0.04-0.039-0.062-0.061c0,0.041,0.011,0.081,0.031,0.122
			c0.04,0.021,0.081,0.04,0.121,0.061C94.257,70.465,94.247,70.445,94.247,70.425z"/>
	</g>
</g>
</svg>
