<?xml version="1.0" encoding="utf-8"?>
<!-- Generator: Adobe Illustrator 15.0.0, SVG Export Plug-In . SVG Version: 6.00 Build 0)  -->
<svg version="1.2" baseProfile="tiny" id="Layer_1" xmlns="http://www.w3.org/2000/svg" xmlns:xlink="http://www.w3.org/1999/xlink"
	 x="0px" y="0px" width="200px" height="200px" viewBox="0 0 200 200" overflow="inherit" xml:space="preserve">
<path d="M124.453,14.139c-10.539-1.809,1.027,0.003,0.641,0c1.375,0,2.254,0.077,2.631,0.231c1.52,0.655,3.13,1.637,4.836,2.947
	c0.385,0.284,0.74,0.583,1.066,0.896c0.991,0.299,1.893,0.771,2.701,1.416c1.823,1.132,3.225,2.749,4.197,4.854
	c0.785,1.682,1.271,3.618,1.457,5.807c0.219,0.323,0.421,0.708,0.605,1.156c0.314,0.397,0.539,0.946,0.676,1.647h0.104l-0.104,0.029
	c0.011,0.091,0.021,0.177,0.035,0.261c0.017,0.132,0.028,0.343,0.037,0.635c0.191,0.944,0.342,2.022,0.461,3.236
	c0.014,0.203,0.026,0.424,0.035,0.665c0.262,1.344,0.393,2.471,0.393,3.38c0.021,0.676-0.062,1.187-0.25,1.532
	c0.023,0.954,0.035,2.003,0.035,3.149c0,1.289-0.012,2.455-0.035,3.497c0.096,1.237,0.205,2.595,0.318,4.073l0.07,0.404v0.03
	c0.807,1.552,1.305,3.825,1.493,6.818c0.38,1.045,0.569,2.21,0.569,3.496c0,0.326,0,0.597,0,0.81
	c0.566,1.843,0.541,3.364-0.069,4.565c1.231,3.352,2.585,7.935,4.053,13.753c2.181,8.553,3.675,15.563,4.481,21.033
	c0.328,2.506,0.472,6.164,0.424,10.979c-0.048,2.43-0.164,4.392-0.355,5.896c0.051,0.692,0.111,1.549,0.178,2.569
	c0.293,1.582,0.611,3.461,0.962,5.637c0.102,0.387,0.184,0.783,0.249,1.186c0.105,0.235,0.213,0.476,0.32,0.723
	c0.541,1.219,0.979,2.289,1.312,3.207c0.716,1.39,1.321,2.787,1.815,4.189c0.533,1.217,1.008,2.506,1.422,3.87
	c0.201,0.677,0.697,2.611,1.494,5.808c0.635,1.289,1.18,2.49,1.635,3.611l0.037,0.059c0.01,0.02,0.021,0.039,0.035,0.059
	c1.897,2.854,2.846,4.738,2.846,5.665c0,0.271-0.074,0.558-0.215,0.867l-0.356,0.172c-0.248-0.433-0.483-0.854-0.71-1.271
	c0.312,0.943,0.512,1.82,0.604,2.629c0.338,0.853,0.633,1.634,0.891,2.341c0,0.116-0.074,0.231-0.215,0.346
	c-0.25-0.446-0.498-0.878-0.748-1.302c-0.038,0.113-0.096,0.229-0.176,0.347c0.191,0.981,0.287,1.819,0.287,2.515
	c0,0.31-0.049,0.481-0.145,0.521c0,0.078-0.07,0.137-0.212,0.174c-0.089-0.563-0.173-1.091-0.25-1.59
	c-0.033,0.063-0.072,0.12-0.104,0.176c0.188,0.685,0.281,1.155,0.281,1.414c0,0.192-0.119,0.425-0.355,0.693h-0.215
	c-0.271-1.081-0.519-2.073-0.746-2.974c-0.012,0.02-0.022,0.039-0.033,0.06c0.519,1.827,0.781,3.051,0.781,3.667l-0.07,0.578h-0.146
	c-0.401-1.157-0.782-2.245-1.135-3.266c-0.132,0.25-0.226,0.473-0.288,0.666c0.098,0.465,0.145,0.812,0.145,1.041
	c0,0.191-0.023,0.307-0.07,0.344c-0.049,0.041-0.121,0.062-0.215,0.062c-0.031-0.062-0.066-0.118-0.105-0.176
	c-0.033,0.752,0.074,1.694,0.319,2.833c0.329,1.77,0.228,3.482-0.319,5.143c-0.542,1.67-1.101,3.69-1.673,6.068
	c-0.472,0.578-1.043,1.021-1.705,1.329c-1.375,0.579-2.751,1.213-4.125,1.905c-0.383,0.963-1.192,1.568-2.417,1.82
	c-1.216,0.252-2.863,0.367-4.943,0.346c-2.084-0.021-2.974-0.224-2.668-0.604c0.285-0.271,0.619-0.521,0.998-0.752
	c0.047-0.075,0.118-0.113,0.213-0.113l-2.131-0.176c-0.682-0.022-1.466-0.04-2.348-0.058c-0.807,0-1.232-0.213-1.281-0.635
	c-0.047-0.234,0.141-0.389,0.568-0.465c0.713-0.115,1.258-0.29,1.639-0.521c-0.902-0.383-1.376-0.693-1.423-0.922
	c-0.032-0.185,0.002-0.31,0.104-0.377h0.035c0.067-0.024,0.174-0.084,0.321-0.174c0.13-0.08,0.237-0.186,0.318-0.318
	c0.094-0.149,0.674-0.34,1.741-0.578c1.072-0.232,1.996-0.51,2.775-0.836c0.777-0.329,1.666-0.592,2.666-0.782
	c1.042-0.116,1.684-0.481,1.92-1.099c0.364-1.588,0.777-2.866,1.244-3.844c0.471-0.974,0.944-1.775,1.422-2.398
	c0.475-0.617,0.725-1.004,0.749-1.155c0.046-0.883-0.048-1.655-0.288-2.31c-0.142-0.579-0.093-1.389,0.146-2.43
	c0.188-1.113,0.261-1.923,0.212-2.426c-0.047-0.27-0.143-0.502-0.284-0.693c-0.188-0.27-0.403-0.56-0.64-0.867h-0.215
	c0,0.308,0.069,1.021,0.215,2.138c0.047,0.924-0.288,1.388-0.996,1.388c-1.376,0-2.512-3.083-3.415-9.244
	c-0.048-2.506-0.188-4.238-0.425-5.201c-0.43-2.234-0.69-3.619-0.784-4.158c-0.57-0.731-1.183-1.559-1.849-2.484
	c-1.278-1.85-2.016-3.447-2.203-4.797c-0.049-0.27-0.072-0.5-0.072-0.691c-0.096-0.31-0.189-0.6-0.283-0.869
	c-0.039-1.113-0.1-2.143-0.179-3.09h-0.073c-0.05,0.76-0.105,1.578-0.177,2.455c-0.142,0.075-0.282,0.111-0.425,0.111
	c-0.142-0.456-0.213-0.9-0.213-1.325c0.117-1.704,0.227-3.235,0.317-4.595c-0.044,0.143-0.091,0.292-0.142,0.434
	c0.013,0.182,0.023,0.355,0.035,0.521l-0.213,0.114v-0.025c-0.143,0.402-0.285,0.816-0.43,1.24c-0.047,0-0.164-0.155-0.355-0.465
	c-0.188-0.308-0.282-0.498-0.282-0.578c0-0.108,0.011-0.26,0.036-0.461h-0.036c-0.423-0.688-0.673-1.508-0.748-2.457
	c-0.19-0.531-0.359-1.186-0.497-1.965c-0.057,0.02-0.113,0.029-0.178,0.029c-0.021-0.156-0.043-0.312-0.071-0.465
	c-0.129,0.372-0.271,0.66-0.427,0.868c-0.235-0.267-0.473-0.672-0.711-1.212c-0.188-0.54-0.284-1.004-0.284-1.389
	c0-0.485,0.013-1.018,0.034-1.592c-0.004-0.041-0.014-0.091-0.034-0.142c-0.269-0.521-0.482-1.146-0.64-1.88
	c0,0.211,0,0.396,0,0.551l-0.071,1.327l-0.144,0.114c-0.183-0.832-0.324-1.584-0.425-2.25h-0.071
	c-0.216-0.239-0.394-0.664-0.535-1.273c-0.047,1.468-0.06,2.352-0.035,2.658l0.142,0.058h-0.639
	c-0.03-0.196-0.091-0.907-0.179-2.136c-0.012,0.23-0.021,0.463-0.037,0.693l-0.139,0.059c-0.087-0.115-0.183-0.423-0.285-0.926
	c-0.067-0.338-0.14-0.762-0.213-1.271c-0.055-0.398-0.101-0.757-0.143-1.068c-0.188,1.053-0.327,1.66-0.428,1.82
	c-0.072-0.056-0.145-0.121-0.215-0.203c0.086,0.779,0.228,1.598,0.428,2.457c0,0.114-0.072,0.174-0.215,0.174
	c-0.476-0.965-0.758-1.772-0.854-2.428c-0.047-0.309-0.072-1.021-0.072-2.139c0-0.376,0-0.791,0-1.242c0-0.229,0-0.468,0-0.721
	c0-0.401,0.014-0.842,0.036-1.332c-0.208,1.205-0.433,2.513-0.674,3.934h-0.212l-0.141-1.1c0.301-2.105,0.55-3.867,0.746-5.287
	c-0.006-0.057-0.006-0.114,0-0.175c-0.228,1.17-0.5,2.587-0.819,4.248c-0.283-0.927-0.425-1.62-0.425-2.08c0-0.044,0-0.082,0-0.117
	c-0.197-0.649-0.328-1.438-0.392-2.366c-0.062,0.975-0.146,2.053-0.25,3.234c0,0.078-0.048,0.136-0.143,0.174
	c-0.234-1.492-0.411-3.234-0.534-5.23c-0.122,1.129-0.253,2.332-0.391,3.612l-0.215,0.062l-0.318-4.133
	c-0.034,0.229-0.07,0.431-0.107,0.605l-0.392-3.091c-0.054,0.344-0.101,0.655-0.142,0.921c-0.037,0.557-0.074,1.121-0.108,1.707
	l-0.142,0.117c-0.094-0.273-0.237-1.545-0.426-3.816c-0.189-2.158-0.285-3.544-0.285-4.16c0-0.958,0.061-2.016,0.176-3.179
	c-0.012-0.165-0.025-0.357-0.034-0.578c-0.103,1.35-0.222,2.95-0.356,4.796h-0.21c-0.155-1.377-0.26-2.649-0.323-3.815h-0.104
	c-0.045-0.493-0.225-1.58-0.533-3.264c-0.039,0.073-0.076,0.141-0.107,0.201l-0.568-0.056c0-0.232,0.12-0.347,0.355-0.347
	c0.037-0.296,0.072-0.586,0.106-0.868c-0.056-0.354-0.104-0.693-0.144-1.011c-0.035,0.562-0.072,1.131-0.104,1.704h-0.215
	c-0.19-2.117-0.287-4.564-0.287-7.337c0-0.237,0-0.477,0-0.723v-0.23c-0.039-0.4-0.086-0.872-0.142-1.416
	c-0.02-0.262-0.045-0.513-0.069-0.751c-0.146,1.926-0.215,3.351-0.215,4.275v0.175c-0.233-0.209-0.398-0.824-0.498-1.849
	c-0.054,0.166-0.101,0.321-0.146,0.462l-0.142,0.116c-0.331-0.54-0.497-1.407-0.497-2.601c0-0.693,0.13-1.964,0.391-3.814
	c-0.004-0.153-0.019-0.307-0.035-0.463c-0.061-0.515-0.108-0.987-0.142-1.415c-0.178,1.156-0.366,2.416-0.569,3.786h-0.071
	c-0.234-1.531-0.375-2.783-0.427-3.756c0-0.206,0-0.399,0-0.579v-0.289c0-0.262,0.047-0.705,0.143-1.33
	c-0.24-0.453-0.406-1.455-0.5-3.004l-0.176-3.727c-0.102,1.282-0.211,2.621-0.319,4.016h-0.214
	c-0.076-0.859-0.146-1.658-0.214-2.399c-0.039,0.378-0.087,0.771-0.144,1.185l-0.07,0.174c-0.141-1.438-0.174-3.172-0.108-5.201
	c-0.187-0.354-0.341-0.902-0.461-1.646c-0.024,0.142-0.05,0.287-0.069,0.434v0.059c-0.236-0.462-0.355-1.001-0.355-1.618
	c0-0.435,0.023-0.955,0.07-1.56h-0.068c-0.032,0-0.066,0-0.109,0c0.016,0.059,0.03,0.117,0.036,0.175l-0.142,0.172
	c-0.086-0.111-0.168-0.304-0.25-0.578c-0.178-0.216-0.309-0.581-0.391-1.098c-0.047-0.887-0.07-1.348-0.07-1.387
	c0.009-0.068,0.019-0.137,0.035-0.203c-0.103-0.883-0.162-1.575-0.176-2.08c-0.201,2.664-0.343,4.291-0.429,4.883h-0.065
	c-0.131-1.201-0.203-2.915-0.215-5.144c-0.267,2.203-0.457,3.629-0.57,4.277h-0.071c-0.144-1.079-0.212-2.235-0.212-3.467
	c0-0.198,0.012-0.418,0.033-0.666c-0.373,0.623-0.739,1.288-1.102,1.994c0.143,1.463-0.046,2.966-0.568,4.507
	c0.155,3.392-0.414,6.686-1.707,9.88c0,0.081,0,0.159,0,0.231l-0.071,0.867h-0.216l-0.035-0.375
	c-0.055,0.138-0.117,0.272-0.176,0.404v1.474h-0.144c-0.016-0.202-0.039-0.549-0.071-1.04c-0.09,0.191-0.184,0.383-0.285,0.578
	c-0.032,0.066-0.068,0.135-0.104,0.202c-0.004,0.415-0.017,0.848-0.035,1.299h-0.215c0,0.208,0,0.42,0,0.636v0.289
	c-0.047,0.037-0.12,0.077-0.214,0.115h-0.143v-1.272c-0.162,0.262-0.328,0.522-0.498,0.78v0.549h-0.215v-0.231
	c-0.068,0.094-0.141,0.189-0.211,0.289c0,0.299,0,0.606,0,0.925h-0.144v-0.723c-0.233,0.293-0.47,0.583-0.711,0.867
	c0,0.291,0,0.59,0,0.896c-0.124-0.061-0.218-0.244-0.283-0.549c-0.205,0.234-0.418,0.465-0.642,0.694
	c-0.019,0.338-0.045,0.636-0.069,0.895h-0.071c-0.043-0.164-0.082-0.375-0.107-0.635c-0.174,0.178-0.352,0.351-0.533,0.52v0.804
	h-0.125V82.7c-0.264,0.252-0.535,0.493-0.816,0.722l-0.035,0.346h-0.215c0.006-0.043,0.006-0.091,0-0.144
	c-0.293,0.254-0.603,0.494-0.922,0.723c0.711,2.002,1.538,4.333,2.49,6.991c1.704,4.585,3.719,9.477,6.044,14.678
	c1.47,3.584,2.56,7.377,3.269,11.383c0.951,0.543,1.709,1.213,2.275,2.023c0.711,1.001,1.186,2.312,1.422,3.93
	c-0.066,1.348-0.164,2.569-0.283,3.67c0.281,0.977,0.447,1.621,0.498,1.936c0.047,0.46,0.071,1.789,0.071,3.984
	c0,1.092-0.024,1.966-0.071,2.632c0.024,0.327,0.036,0.673,0.036,1.038c0.015,0.031,0.029,0.063,0.035,0.088
	c0.427,1.809,0.64,3.296,0.64,4.449v0.463c0,0.732-0.213,1.253-0.64,1.561c-0.034,0.169-0.067,0.335-0.106,0.491
	c0.119,0.817,0.178,1.751,0.178,2.804l-0.213,1.908c0.093,0.114-0.049,0.172-0.428,0.172c-0.199,0-0.367-0.308-0.5-0.924
	c0,0.322,0,0.67,0,1.039c0,2.484-0.223,3.871-0.674,4.161c0.021,0.149,0.032,0.286,0.032,0.403c0,1.119-0.127,1.821-0.39,2.109
	c0.021,0.311,0.035,0.59,0.035,0.838c0,0.348-0.213,0.637-0.641,0.867c-0.068-0.08-0.139-0.184-0.215-0.318
	c-0.152,0.635-0.32,1.051-0.497,1.243c0,0.058,0,0.115,0,0.173c0,0.193-0.073,0.637-0.215,1.33c-0.188,0.731-0.33,1.137-0.425,1.213
	c-0.157-0.176-0.299-0.475-0.428-0.895c-0.062,1.675-0.273,2.513-0.641,2.513c-0.138,0-0.271-0.065-0.393-0.202
	c-0.072,0.418-0.154,0.87-0.25,1.357l-0.355,0.057c-0.154-0.094-0.295-0.246-0.426-0.462l-0.071,2.14l-0.428,0.172
	c-0.022-0.246-0.047-0.496-0.07-0.747c-0.032,0.831-0.085,1.546-0.142,2.135h-0.428c-0.043-0.353-0.076-0.747-0.106-1.185
	l-0.106,0.027c-0.043-0.035-0.08-0.082-0.107-0.143c-0.037,0.371-0.071,0.744-0.107,1.127c-0.142,0.113-0.285,0.172-0.426,0.172
	v0.061l-0.355,0.115c0.141,0.115,0.045,0.172-0.287,0.172c-0.077,0-0.149-0.02-0.211-0.057c-0.019,0.247-0.043,0.488-0.072,0.721
	c-0.021,0.34-0.045,0.656-0.071,0.953l-0.144,0.115c-0.098,0.312-0.217,0.6-0.354,0.867c-0.042-0.045-0.076-0.092-0.107-0.145
	c-0.035,0.184-0.07,0.348-0.106,0.493c0.049,0.114-0.095,0.173-0.425,0.173c-0.049,0-0.096-0.008-0.141-0.027l-0.074,0.375
	l-0.211,0.061c-0.101-0.159-0.229-0.574-0.394-1.241c-0.085,0.484-0.12,0.897-0.106,1.241c1.804,0.386,4.148,1.426,7.039,3.12
	c3.131,1.851,5.432,2.985,6.901,3.409c4.076,1.156,6.944,2.197,8.603,3.121c1.707,0.925,2.654,1.985,2.845,3.178
	c0.285,1.925-0.166,2.889-1.351,2.889c-0.188,0-0.381-0.04-0.57-0.115h-0.07c-0.378,0-0.662-0.211-0.854-0.636
	c0-0.075,0-0.136,0-0.173c-0.33-0.346-0.545-0.559-0.641-0.635c-0.615,0.886-1.019,1.385-1.207,1.503
	c-0.145,0.075-0.642,0.135-1.496,0.173c-0.141,0.23-0.545,0.443-1.209,0.636c-0.427,0-0.662-0.175-0.711-0.521v-0.059
	c-0.428,0-0.927,0-1.494,0c-2.181,0.731-3.625,1.156-4.336,1.272c-0.569,0.114-1.211,0.345-1.922,0.692
	c-0.568,0.309-1.186,0.463-1.849,0.463c-0.285,0-0.522-0.059-0.712-0.176c-0.141,0.041-0.285,0.061-0.428,0.061l-0.637-0.061
	c-0.048,0.08-0.097-0.037-0.144-0.345c-0.048-0.231,0.047-0.424,0.284-0.579c-0.238-0.346-0.379-0.652-0.428-0.924
	c-0.096-0.463,0.406-1.061,1.494-1.792c0.568-0.384,1.447-0.962,2.629-1.733c-2.084-1.734-3.434-2.696-4.052-2.889
	c-2.04-0.347-3.46-0.579-4.267-0.693c-0.711-0.117-1.233-0.289-1.563-0.52c-0.382,0-0.784,0-1.209,0
	c-2.514,0-4.694-0.139-6.544-0.404h-0.07c-0.428,0.344-1.637,0.75-3.625,1.211c0.234,0.156,0.543,0.483,0.922,0.984
	c0.238,0.384,0.381,0.635,0.428,0.75c0.096,0.925-0.45,1.387-1.637,1.387c-1.66,0-2.987-0.71-3.98-2.137
	c-0.71-1.426-1.091-2.158-1.138-2.195c-0.049-0.539,0.216-1.02,0.783-1.445c-0.996-0.885-1.826-2.445-2.49-4.678
	c-0.399-1.961-0.696-3.414-0.891-4.363c-0.144-0.174-0.248-0.375-0.315-0.607c-0.285-0.201-0.429-0.586-0.429-1.154
	c0-1.771,0.274-3.619,0.817-5.548c0.009-0.213,0.019-0.434,0.036-0.666c-0.52,2.095-0.898,3.991-1.141,5.691l-0.424,0.174
	c-0.24-0.386-0.357-0.789-0.357-1.214c0-0.283,0.072-0.735,0.216-1.357c-0.047-0.099-0.071-0.207-0.071-0.316
	c0-0.301,0.049-0.694,0.141-1.185c-0.188-0.099-0.282-0.435-0.282-1.012c0-0.567,0.331-1.819,0.994-3.756
	c0.174-0.825,0.47-1.991,0.889-3.495c-0.151,0.497-0.302,1.007-0.462,1.529c0,0.117-0.072,0.176-0.214,0.176
	c-0.144-0.426-0.214-0.791-0.214-1.1c0-0.326,0.105-0.942,0.32-1.849c-0.074-0.103-0.108-0.235-0.108-0.405
	c0-0.592,0.405-2.383,1.21-5.373c0.007-0.093,0.007-0.181,0-0.262c-0.361,1.169-0.619,1.93-0.785,2.282
	c-0.236-0.192-0.354-0.464-0.354-0.81c0-0.555,0.341-1.961,1.029-4.222c-0.007-0.136-0.007-0.284,0-0.432
	c-0.326,1.028-0.697,2.134-1.102,3.321h-0.355l-0.07-0.922c0-0.123,0.012-0.279,0.035-0.465c-0.064,0-0.146,0-0.25,0
	c-0.285,0-0.426-0.441-0.426-1.326c0-0.35,0.245-1.313,0.746-2.89l-0.035-0.29c0-0.379,0.059-0.833,0.178-1.355l-0.25,0.143
	c-0.236-0.191-0.355-0.441-0.355-0.75c0-0.055,0.131-0.449,0.395-1.186c-0.023-0.1-0.037-0.207-0.037-0.315
	c0-0.347,0.57-2.004,1.707-4.972c0.418-1.079,0.789-2.016,1.104-2.803c-0.18,0.321-0.383,0.678-0.605,1.069
	c-1.137,1.886-1.847,2.871-2.133,2.946c0.948-1.426,1.659-2.541,2.133-3.35c0.347-0.578,0.629-1.117,0.854-1.621l0.034-0.345
	c-0.057,0.097-0.114,0.191-0.176,0.289c-0.902,1.425-1.66,2.406-2.276,2.945c0.283-0.347,0.995-1.406,2.133-3.177
	c0.138-0.215,0.269-0.418,0.392-0.606l0.179-1.474c-0.056-0.051-0.112-0.098-0.179-0.145c0.023,0.143,0.035,0.288,0.035,0.434
	c0,0.23-0.188,0.442-0.566,0.634c-0.367-0.634-0.712-1.498-1.031-2.601c-0.061-0.061-0.119-0.113-0.179-0.175
	c0.334,0.962,0.501,1.638,0.501,2.022c0,0.309-0.047,0.482-0.145,0.521c-0.23-0.208-0.48-0.573-0.746-1.099
	c-0.043,0.009-0.104,0.031-0.177,0.061c-0.596-0.638-1.261-1.986-1.989-4.048c-0.133-0.122-0.264-0.245-0.393-0.375
	c0.641,1.863,0.961,2.935,0.961,3.207c0,0.308-0.023,0.422-0.072,0.347c-0.507-0.621-1.111-1.804-1.813-3.554
	c0.294,0.945,0.472,1.496,0.532,1.646l-0.213,0.175c-0.287-0.581-0.643-1.401-1.066-2.455v0.378l-0.215,0.172h-0.424
	c-0.037-0.099-0.072-0.193-0.11-0.29c0.132,0.458,0.239,0.784,0.321,0.984h-0.213c-0.428,0-0.951-1.077-1.565-3.235
	c-0.112-0.5-0.208-0.941-0.286-1.33c-0.023,0.102-0.047,0.197-0.07,0.29l-0.142,0.06c0.116,0.474,0.235,0.975,0.354,1.502
	c-0.758-0.655-1.256-1.637-1.496-2.945c-0.014-0.259-0.041-0.512-0.069-0.752c-0.097-0.104-0.19-0.211-0.283-0.314
	c-0.073,0.225-0.17,0.406-0.286,0.547h-0.425l0.07-1.213c-0.197-0.226-0.4-0.445-0.603-0.668l-0.25,0.088l-0.07-0.433
	c-0.02-0.032-0.047-0.063-0.069-0.089c-0.095-0.102-0.188-0.211-0.283-0.314c-0.022,0.053-0.047,0.101-0.071,0.143
	c-0.057-0.087-0.104-0.215-0.143-0.376c-1.93-2.146-3.659-4.199-5.189-6.153c-3.274,5.7-6.309,10.129-9.104,13.29l0.854,5.894
	c-0.145,0.502-0.215,1.195-0.215,2.08c0.047,1.039,0.047,1.754,0,2.141l0.994,7.105c0.292,0.695,0.648,1.543,1.067,2.543
	l-0.214,0.057c-0.211-0.256-0.413-0.545-0.604-0.865l0.392,2.831c0.807,1.5,1.354,3.274,1.638,5.315c0,0.615-0.022,1.191-0.07,1.732
	c0.664,1.423,1.306,2.926,1.921,4.506c0.713,1.734,1.635,4.838,2.775,9.303c0.047,0.271,0.07,1.023,0.07,2.256
	c-0.047,1.232,0,2.31,0.14,3.233c0.049,0.423-0.069,0.982-0.354,1.677c-0.474,0.924-1.115,1.388-1.92,1.388
	c-0.476,0-0.854-0.136-1.141-0.404c-0.188-0.617-0.544-1.31-1.064-2.081c0.237-0.887,0.332-1.482,0.285-1.792
	c-0.097-0.653-0.357-1.635-0.785-2.946c-0.379-1.346-0.689-2.543-0.925-3.582c-0.097-0.694-1.09-1.752-2.987-3.178
	c-0.236,0.192-0.451,0.406-0.642,0.635c-0.473,0.577-0.925,1.098-1.353,1.561c-0.144,0.886-0.189,1.617-0.144,2.195
	c0.144,2.429,0.144,4.16,0,5.199c-0.188,1.506-0.639,2.855-1.351,4.047c0.047,0.039,0.07,0.076,0.07,0.114
	c0.475,0.691,0.785,1.483,0.924,2.369c0.096,0.731,0.049,1.31-0.139,1.733c0.096,0.076,0.164,0.154,0.213,0.23
	c0.568,0.23,1.232,0.501,1.992,0.809c2.51,1.076,6.637,2.947,12.372,5.604c3.08,0.81,7.468,1.715,13.155,2.718
	c7.11,1.193,12.515,1.791,16.213,1.791c0.38,0,0.763,0.021,1.14,0.057c0.428-0.113,1.02-0.19,1.778-0.229
	c1.47-0.117,2.252,0.135,2.349,0.751c0.047,0.384-0.189,0.616-0.711,0.693c0,0.037,0,0.095,0,0.173
	c0.047,0.425-0.168,0.715-0.643,0.868c-0.188,0.039-0.805,0.114-1.848,0.231c0.049,0.037,0.142,0.096,0.283,0.174v0.287
	c-0.047,0.078-0.234,0.115-0.569,0.115c-0.095,0-0.187,0-0.283,0c0.048,0.504,0.026,0.791-0.072,0.868
	c-0.188,0.231-1.089,0.347-2.7,0.347c-2.418,0-5.096-0.385-8.035-1.154h-0.854c0.332,0.269,0.522,0.578,0.569,0.925
	c0.047,0.271,0,0.425-0.143,0.462c0.286,0.077,0.262,0.115-0.07,0.115c-0.188,0-0.451-0.116-0.783-0.346
	c0.046,0.578-0.332,0.867-1.139,0.867c-0.615,0-1.326-0.097-2.133-0.289c-0.143,0-0.31,0-0.498,0c-0.521,0-1.756-0.269-3.697-0.809
	c-2.133-0.579-3.438-0.906-3.914-0.984c0.525,0.424,0.787,0.734,0.787,0.926c0.047,0.229-0.049,0.443-0.287,0.635
	c-0.236,0.152-0.521,0.23-0.854,0.23c-0.048,0-0.119-0.021-0.215-0.059c-0.094,0.615-0.643,0.925-1.636,0.925
	c-0.663,0-1.163-0.155-1.495-0.465c-0.047-0.038-0.094-0.097-0.141-0.175c-0.571-0.154-1.067-0.442-1.494-0.867
	c-0.711,0.117-1.233,0.193-1.564,0.23c0.049,0.116,0.096,0.271,0.143,0.465c0.143,0.959-0.451,1.75-1.778,2.367
	c-1.613,0.77-4.103,1.154-7.468,1.154c-2.133,0-4.623-0.6-7.467-1.792c-2.891-1.192-4.858-2.446-5.902-3.755
	c-0.568-0.695-1.376-1.831-2.418-3.412h-0.639c-8.533-0.229-13.941-0.904-16.215-2.021c-1.045-0.541-1.709-1.812-1.992-3.813
	c-0.037-0.265-0.071-1.091-0.106-2.483c-0.168-0.318-0.251-0.822-0.251-1.506c0.002-0.096,0.002-0.188,0-0.287
	c0-0.074,0-0.148,0-0.231c-0.004-0.295-0.004-0.585,0-0.866c-0.141,0.42-0.283,0.805-0.426,1.156
	c-0.021,0.285-0.047,0.572-0.069,0.865c-0.087-0.215-0.155-0.475-0.216-0.78v0.202l-0.428,0.175
	c-0.284-0.272-0.428-1.138-0.428-2.601c0-0.502,0.039-1.244,0.109-2.226l-0.035,0.026c-0.053-0.137-0.102-0.284-0.143-0.432
	c-0.379,1.329-0.569,2.032-0.569,2.108h-0.214l-0.104-1.04c-0.037,0-0.072,0-0.106,0l-0.036-0.52h-0.18
	c-0.094,0-0.143-0.156-0.143-0.463c0.049-0.162,0.096-0.315,0.143-0.465c-0.09-0.508-0.141-1.048-0.143-1.617
	c-0.259,0.476-0.496,0.879-0.709,1.213c-0.095-0.155-0.143-0.442-0.143-0.867c0.095,0,0.143,0.097,0.143,0.289
	c0.237-0.48,0.626-1.389,1.174-2.717v-0.086l-0.039,0.026c-0.15-0.248-0.256-0.499-0.316-0.749
	c-0.326,0.993-0.529,1.667-0.604,2.021l-0.215,0.115l-0.143-0.953c-0.096,0.146-0.188,0.293-0.284,0.434v-0.229
	c0-0.048,0-0.084,0-0.115h0.069c0.082-0.185,0.166-0.366,0.248-0.549c0.021-0.099,0.043-0.207,0.072-0.318H33.14l-0.034-0.346
	c-0.06,0.113-0.118,0.229-0.179,0.346l-0.215-0.174l0.319-0.779l-0.106-0.952c0-0.286,0.121-0.849,0.356-1.677
	c-0.131,0.171-0.248,0.324-0.356,0.462c0.219-0.538,0.434-1.058,0.641-1.56v-0.059c0-0.306,0.011-0.624,0.035-0.953l-0.107-0.087
	c0.014-0.063,0.026-0.133,0.036-0.203c-0.146,0.265-0.297,0.522-0.461,0.782c-0.216,0.857-0.335,1.628-0.356,2.312h-0.071
	l-0.144-1.33c0-0.612,0.18-1.45,0.535-2.516c-0.117-0.16-0.176-0.383-0.176-0.662c0-1.367,0.521-3.525,1.562-6.473
	c0.201-0.857,0.377-1.583,0.533-2.168c-0.369,1.125-0.641,2.02-0.816,2.686h-0.144l-0.071-0.576c0-0.733,0.664-3.063,1.992-6.992
	c0.098-0.289,0.192-0.567,0.284-0.838c-0.758,1.742-1.493,3.295-2.205,4.652c-0.047-0.039-0.071-0.175-0.071-0.404
	c0-1.193,0.758-3.642,2.276-7.34c0.17-0.385,0.335-0.75,0.497-1.099c0.066-0.202,0.139-0.413,0.215-0.634
	c0.035-0.344,0.07-0.68,0.111-1.012c-0.28,0.494-0.576,1.024-0.891,1.59h-0.071c-0.093,0-0.144-0.021-0.144-0.061
	c-0.046,0-0.068-0.096-0.068-0.287c0-0.135,0.484-1.281,1.457-3.438c0.416-2.94,0.893-5.319,1.423-7.136
	c-0.112,0.24-0.222,0.414-0.319,0.521c-0.428-0.153-0.688-0.385-0.783-0.692c-0.039-0.062-0.061-0.235-0.07-0.521
	c-0.291-0.953-0.483-1.791-0.57-2.516c-0.025,0.102-0.05,0.211-0.072,0.318h-0.355l-0.213-3.697c0-0.07,0-0.147,0-0.229
	c-0.211,1.534-0.377,2.422-0.5,2.656l-0.142-0.114v-3.208c-0.067,0.392-0.14,0.748-0.216,1.069h-0.215
	c-0.046-0.504-0.094-0.957-0.143-1.356c-0.016,0.162-0.041,0.325-0.069,0.492h-0.07c-0.239-0.888-0.356-1.638-0.356-2.254
	c0-0.575,0.07-1.325,0.213-2.254c-0.144,0.597-0.31,1.253-0.496,1.965c-0.285-0.462-0.428-1.177-0.428-2.14
	c0-0.27,0.037-0.633,0.106-1.099c-0.071-0.161-0.106-0.37-0.106-0.634c0-0.382,0.061-0.814,0.179-1.302
	c-0.425-1.712-0.655-2.587-0.679-2.626c-0.332-2.352-0.403-4.623-0.213-6.82c0.426-4.277,0.664-6.799,0.711-7.572
	c0-1,0.119-2.194,0.354-3.581c0.333-2.234,0.499-3.429,0.499-3.583c0.189-2.31,0.309-3.506,0.355-3.582
	c0.143-0.925,0.594-1.58,1.354-1.965c0.235-0.424,0.995-1.541,2.274-3.352c1.802-2.427,2.867-4.025,3.199-4.796
	c0.473-1.079,0.926-2.466,1.354-4.161c0.427-1.925,0.734-3.351,0.926-4.276c0.188-0.615,0.448-1.269,0.781-1.964
	c-0.52-1.772-0.781-2.677-0.781-2.716c-0.287-1.733-0.499-5.412-0.643-11.037c-0.096-5.393-0.096-8.475,0-9.245
	c0.529-2.694,1.002-5.005,1.424-6.934c-0.166-0.206-0.311-0.456-0.43-0.751c-0.235-1.039-0.354-1.579-0.354-1.617
	c0-1.269,0.119-2.473,0.354-3.612c0-0.523,0-1.168,0-1.936c-0.068,0.119-0.141,0.235-0.215,0.346c-0.134,1.031-0.134,1.917,0,2.658
	l-0.355,0.174c-0.17-0.554-0.264-1.17-0.284-1.849h-0.144c0.052-0.124,0.099-0.25,0.144-0.376c0.024-0.437,0.142-1.072,0.354-1.907
	c-0.076-0.188-0.148-0.43-0.213-0.723c-0.094-0.462-0.143-0.828-0.143-1.097c0-0.171,0.008-0.364,0.031-0.578
	c-0.114-0.277-0.174-0.489-0.174-0.636c0-0.523,0.569-1.65,1.707-3.38c0.225-0.474,0.51-1.022,0.854-1.647
	c0.546-0.976,1.068-1.794,1.561-2.456c1.867-3.139,5.25-4.708,10.17-4.708c4.549,0.229,7.561,0.402,9.031,0.519
	c0.203-0.077,0.418-0.153,0.643-0.23c0.097-0.031,0.191-0.06,0.285-0.087v-0.028c0.021,0.002,0.047,0.002,0.069,0
	c0.166-0.049,0.331-0.097,0.498-0.145c0.193-0.128,0.406-0.273,0.642-0.434c0.74-0.25,1.687-0.308,2.846-0.173
	c0.089-0.026,0.184-0.056,0.285-0.087l-0.215-0.086c0.434-0.085,1.312-0.289,1.312-0.289s-1.077-0.546,1.03-0.521"/>
<path d="M89.146,18.226c0.136-0.65,0.536-1.285,1.209-1.907c0.082-0.127,0.165-0.253,0.25-0.375
	c-0.035,0.026-0.073,0.054-0.106,0.086l-0.215-0.115c0.022-0.046,0.047-0.095,0.071-0.145c-0.485,0.6-0.865,1.053-1.138,1.357
	h-0.355c-0.047,0.193-0.07,0.134-0.07-0.173c0-0.335,0.926-1.376,2.773-3.121c-0.641,0.375-1.257,0.702-1.848,0.983l-0.215-0.173
	c0.071-0.03,0.89-0.588,2.451-1.675c-0.119,0.038-0.205,0.058-0.248,0.058c-0.047,0,25.646,0.018-0.07-0.289
	c-25.715-0.307,0.549-1.094,1.639-1.936c-0.212-0.044-0.4-0.092-0.568-0.145c0.358-0.164,0.785-0.299,1.286-0.402
	c0.759-0.548,1.456-0.952,2.099-1.213c-0.244-0.139-0.517-0.293-0.816-0.462V8.407c0.473,0,1.09,0.115,1.846,0.346
	c0.045-0.008,0.094-0.019,0.146-0.028c-0.31-0.268-0.503-0.471-0.568-0.606c0.339-0.123,0.753-0.074,1.244,0.145
	c0.806-0.475,1.809-0.714,3.021-0.723c0.75-0.193,1.414-0.289,1.99-0.289h0.108c0.313-0.03,0.631-0.049,0.96-0.06
	c0.929-0.224,1.709-0.378,2.35-0.461c-0.148,0.128-0.443,0.283-0.89,0.461c0.042,0.001,0.091,0.001,0.142,0
	c1.73-0.462,3.164-0.693,4.305-0.693c0.658,0,1.084,0.057,1.277,0.173c0.801-0.006,1.653,0.014,2.562,0.058v0.117
	c-0.381,0.02-1.164,0.136-2.346,0.346c-0.314,0.055-0.658,0.112-1.033,0.174c0.18,0.004,0.357,0.004,0.533,0
	c2.809-0.088,5.086-0.03,6.826,0.173c-0.185-0.099-0.377-0.195-0.57-0.289l0.074-0.06c0.299,0.134,0.596,0.268,0.887,0.405
	c1.146,0.136,2.035,0.347,2.668,0.635l0.639,0.058c-0.125,0.101-0.574,0.159-1.35,0.174c0.08,0.037,0.16,0.076,0.25,0.115
	c1.455,0.057,2.369,0.152,2.736,0.289c0.286,0.116,0.596,0.308,0.926,0.578c-0.76-0.347-1.424-0.501-1.992-0.462
	C121.791,9,121.564,9.02,121.342,9.04c1.58,0.73,2.695,1.269,3.342,1.617c2.822,0.686,4.23,1.4,4.23,2.138
	c0,0.309-0.048,0.347-0.143,0.116c-0.391-0.155-0.783-0.299-1.171-0.433l0.034,0.028c1.434,1.308,2.216,2.579,2.347,3.814
	c0.019,0.037,0.043,0.075,0.071,0.116c1.242,0.873,2.714,1.663,4.406,2.37"/>
<path d="M134.459,18.229c-1.444-0.363-2.771-0.913-3.979-1.647c0.084,0.158,0.17,0.311,0.246,0.462
	c1.173,0.717,2.35,1.304,3.521,1.762"/>
<path d="M131.401,20.189c0.661,0.577,1.043,1.233,1.138,1.965c0.143,0.809,0.024,1.656-0.355,2.542
	c-0.047,0.193-0.12,0.367-0.215,0.521c0.24,0.424,0.381,0.904,0.428,1.445"/>
<path d="M82.251,23.487c0.233-0.038,1.774-0.298,4.623-0.78c0.268-0.477,0.598-0.978,0.996-1.503
	c-0.047-0.136-0.07-0.261-0.07-0.375c0-0.601,0.451-1.641,1.353-3.121"/>
</svg>
