<?xml version="1.0" encoding="utf-8"?>
<!-- Generator: Adobe Illustrator 15.0.0, SVG Export Plug-In . SVG Version: 6.00 Build 0)  -->
<svg version="1.2" baseProfile="tiny" id="Layer_1" xmlns="http://www.w3.org/2000/svg" xmlns:xlink="http://www.w3.org/1999/xlink"
	 x="0px" y="0px" width="200px" height="200px" viewBox="0 0 200 200" overflow="inherit" xml:space="preserve">
<path fill-rule="evenodd" d="M113.33-8.633c-0.149,0.054-0.314,0.104-0.499,0.149c0.955,0.869,1.434,1.534,1.434,1.997
	c0,0.198-0.021,0.298-0.062,0.298c-0.037,0-0.111-0.02-0.217-0.06c1.368,1.121,2.084,1.697,2.148,1.728l-0.188,0.179
	c-0.518-0.29-1.057-0.627-1.619-1.014c1.619,1.8,2.43,2.873,2.43,3.219c0,0.317-0.021,0.377-0.062,0.178h-0.312
	c-0.24-0.314-0.572-0.781-0.996-1.4c0.021,0.052,0.042,0.102,0.062,0.149l-0.188,0.119c-0.029-0.033-0.061-0.062-0.093-0.089
	c0.075,0.126,0.148,0.256,0.218,0.387c0.59,0.641,0.942,1.297,1.06,1.967v0.06c0.788,1.526,1.183,2.599,1.183,3.218
	c0,0.118-0.021,0.247-0.062,0.387c0.348,0.542,0.638,1.058,0.872,1.55c2.494,0.497,3.844,0.765,4.049,0.804
	c0.299,0.19,0.599,0.369,0.902,0.537c0.387,0.111,0.771,0.21,1.152,0.298l-0.188,0.089c0.088,0.032,0.172,0.062,0.25,0.09
	c1.014-0.139,1.844-0.079,2.492,0.179c0.207,0.166,0.393,0.315,0.561,0.447c0.146,0.05,0.291,0.099,0.436,0.149
	c0.021,0.003,0.042,0.003,0.062,0v0.029c0.082,0.028,0.166,0.058,0.25,0.09c0.197,0.079,0.383,0.158,0.561,0.238
	c1.287-0.121,3.924-0.299,7.91-0.536c4.309,0,7.275,1.619,8.908,4.856c0.433,0.683,0.889,1.527,1.369,2.533
	c0.299,0.645,0.549,1.21,0.748,1.699c0.996,1.785,1.495,2.947,1.495,3.486c0,0.152-0.052,0.37-0.155,0.656
	c0.021,0.221,0.03,0.42,0.03,0.596c0,0.277-0.042,0.655-0.124,1.132c-0.057,0.302-0.119,0.551-0.188,0.745
	c0.188,0.861,0.291,1.516,0.312,1.966c0.04,0.13,0.081,0.26,0.125,0.388h-0.125c-0.017,0.7-0.099,1.336-0.249,1.907l-0.311-0.179
	c0.117-0.765,0.117-1.679,0-2.742c-0.066-0.114-0.129-0.233-0.188-0.357c0,0.792,0,1.458,0,1.997
	c0.207,1.174,0.311,2.416,0.311,3.725c0,0.039-0.104,0.596-0.311,1.668c-0.105,0.304-0.23,0.562-0.374,0.775
	c0.368,1.989,0.783,4.373,1.246,7.151c0.083,0.794,0.083,3.973,0,9.535c-0.125,5.8-0.312,9.595-0.562,11.382
	c0,0.04-0.229,0.974-0.685,2.801c0.291,0.716,0.519,1.391,0.685,2.026c0.167,0.954,0.437,2.424,0.81,4.41
	c0.374,1.748,0.77,3.178,1.185,4.291c0.291,0.795,1.225,2.443,2.803,4.946c1.121,1.868,1.785,3.02,1.993,3.457
	c0.665,0.397,1.06,1.072,1.184,2.026c0.042,0.079,0.146,1.312,0.312,3.694c0,0.159,0.145,1.391,0.436,3.695
	c0.208,1.43,0.312,2.662,0.312,3.693c0.041,0.797,0.249,3.398,0.622,7.809c0.167,2.265,0.104,4.608-0.186,7.033
	c-0.022,0.041-0.222,0.945-0.593,2.709c0.104,0.502,0.156,0.949,0.156,1.342c0,0.271-0.031,0.489-0.094,0.654
	c0.062,0.479,0.094,0.855,0.094,1.134c0,0.992-0.125,1.728-0.375,2.205c-0.163-0.735-0.309-1.411-0.435-2.027
	c0.124,0.957,0.187,1.731,0.187,2.325c0,0.636-0.104,1.41-0.312,2.324h-0.062c-0.026-0.172-0.048-0.34-0.062-0.507
	c-0.042,0.412-0.083,0.878-0.124,1.399h-0.188c-0.067-0.332-0.13-0.699-0.188-1.102v3.307l-0.123,0.119
	c-0.109-0.242-0.254-1.158-0.437-2.74c0,0.084,0,0.164,0,0.238l-0.187,3.814h-0.312c-0.019-0.113-0.04-0.224-0.062-0.328
	c-0.075,0.746-0.243,1.611-0.499,2.592c-0.008,0.295-0.028,0.473-0.061,0.537c-0.085,0.318-0.312,0.556-0.687,0.715
	c-0.087-0.111-0.18-0.289-0.28-0.536c0.465,1.874,0.881,4.327,1.246,7.359c0.851,2.226,1.277,3.407,1.277,3.546
	c0,0.199-0.021,0.297-0.062,0.297c0,0.04-0.042,0.061-0.125,0.061h-0.062c-0.276-0.583-0.536-1.129-0.779-1.64
	c0.034,0.343,0.065,0.69,0.095,1.043c0.069,0.228,0.132,0.446,0.187,0.655c0.143,0.359,0.287,0.736,0.436,1.133
	c1.33,3.814,1.994,6.337,1.994,7.57c0,0.236-0.021,0.377-0.062,0.416c-0.623-1.401-1.268-3.001-1.932-4.798
	c0.08,0.279,0.162,0.567,0.25,0.864c1.162,4.052,1.744,6.455,1.744,7.211l-0.062,0.596h-0.125c-0.154-0.688-0.393-1.611-0.716-2.771
	c0.137,0.604,0.292,1.35,0.468,2.235c0.912,3.041,1.369,5.267,1.369,6.675c0,0.289-0.052,0.518-0.155,0.684
	c0.312,1.098,0.468,1.963,0.468,2.594l-0.125,1.371h-0.062c-0.018-0.705-0.123-1.5-0.312-2.384
	c-0.144-0.267-0.278-0.533-0.405-0.806c0.008,0.073,0.018,0.143,0.031,0.209l-0.093,0.09c0.021,0.339,0.031,0.667,0.031,0.983v0.06
	c0.183,0.518,0.37,1.053,0.56,1.608c-0.094-0.142-0.197-0.3-0.312-0.476c0.208,0.855,0.312,1.433,0.312,1.728l-0.093,0.983
	l0.28,0.805l-0.188,0.178c-0.052-0.121-0.104-0.24-0.155-0.356l-0.031,0.356h-0.093c0.023,0.115,0.043,0.226,0.062,0.328
	c0.072,0.189,0.145,0.377,0.217,0.566h0.062c0,0.033,0,0.072,0,0.119v0.238c-0.084-0.146-0.166-0.296-0.249-0.447l-0.125,0.983
	l-0.187-0.118c-0.066-0.367-0.244-1.062-0.529-2.086c-0.052,0.258-0.145,0.516-0.279,0.773l-0.033-0.029v0.091
	c0.479,1.368,0.82,2.304,1.028,2.8c0-0.199,0.042-0.298,0.125-0.298c0,0.437-0.042,0.734-0.125,0.894
	c-0.185-0.344-0.394-0.761-0.622-1.251c-0.002,0.588-0.045,1.144-0.125,1.668c0.041,0.155,0.082,0.314,0.125,0.478
	c0,0.317-0.042,0.477-0.125,0.477h-0.156l-0.031,0.536c-0.032,0-0.062,0-0.094,0l-0.092,1.073h-0.188
	c0-0.078-0.166-0.804-0.498-2.176c-0.037,0.154-0.079,0.305-0.125,0.447l-0.031-0.029c0.062,1.014,0.094,1.779,0.094,2.294
	c0,1.51-0.125,2.403-0.373,2.682l-0.375-0.179v-0.209c-0.051,0.316-0.113,0.584-0.187,0.805c-0.022-0.301-0.043-0.599-0.062-0.894
	c-0.126-0.36-0.251-0.757-0.374-1.192c0.005,0.291,0.005,0.589,0,0.894c0,0.085,0,0.163,0,0.239c-0.001,0.1-0.001,0.199,0,0.297
	c0,0.705-0.072,1.223-0.218,1.551c-0.031,1.436-0.062,2.29-0.094,2.562c-0.248,2.065-0.83,3.376-1.744,3.933
	c-1.993,1.153-6.728,1.847-14.203,2.086h-0.56c-0.913,1.628-1.62,2.8-2.118,3.517c-0.914,1.35-2.637,2.642-5.17,3.873
	c-2.492,1.231-4.672,1.848-6.541,1.848c-2.947,0-5.128-0.396-6.54-1.192c-1.163-0.636-1.682-1.45-1.557-2.442
	c0.04-0.199,0.081-0.358,0.124-0.479c-0.291-0.039-0.748-0.118-1.37-0.238c-0.374,0.438-0.81,0.736-1.309,0.895
	c-0.042,0.08-0.083,0.139-0.124,0.179c-0.291,0.318-0.728,0.478-1.309,0.478c-0.871,0-1.35-0.318-1.432-0.954
	c-0.084,0.04-0.146,0.06-0.188,0.06c-0.291,0-0.541-0.08-0.748-0.238c-0.207-0.198-0.291-0.418-0.25-0.654
	c0-0.199,0.23-0.518,0.687-0.955c-0.415,0.08-1.558,0.418-3.427,1.014c-1.702,0.557-2.781,0.834-3.238,0.834
	c-0.166,0-0.312,0-0.437,0c-0.705,0.199-1.328,0.299-1.868,0.299c-0.706,0-1.037-0.299-0.997-0.895
	c-0.29,0.237-0.52,0.357-0.685,0.357c-0.291,0-0.312-0.039-0.062-0.12c-0.125-0.038-0.166-0.197-0.125-0.476
	c0.041-0.357,0.208-0.676,0.498-0.953h-0.747c-2.575,0.793-4.92,1.191-7.039,1.191c-1.411,0-2.2-0.119-2.365-0.358
	c-0.086-0.079-0.105-0.377-0.063-0.894c-0.084,0-0.166,0-0.248,0c-0.293,0-0.458-0.039-0.499-0.119v-0.297
	c0.124-0.08,0.206-0.139,0.248-0.18c-0.912-0.119-1.453-0.198-1.618-0.238c-0.416-0.158-0.604-0.457-0.562-0.894
	c0-0.08,0-0.14,0-0.179c-0.457-0.08-0.664-0.318-0.623-0.715c0.084-0.637,0.77-0.895,2.057-0.775
	c0.665,0.039,1.182,0.119,1.557,0.238c0.331-0.039,0.665-0.059,0.998-0.059c3.239,0,7.973-0.616,14.201-1.849
	c4.983-1.032,8.825-1.966,11.523-2.8c5.025-2.742,8.638-4.67,10.839-5.781c0.664-0.318,1.246-0.596,1.744-0.834
	c0.042-0.079,0.104-0.16,0.187-0.238c-0.166-0.437-0.207-1.033-0.124-1.789c0.124-0.913,0.395-1.729,0.81-2.443
	c0-0.039,0.021-0.078,0.062-0.119c-0.623-1.23-1.018-2.621-1.183-4.172c-0.125-1.072-0.125-2.859,0-5.363
	c0.04-0.596,0-1.35-0.125-2.264c-0.374-0.477-0.77-1.014-1.185-1.609c-0.166-0.237-0.353-0.457-0.561-0.656
	c-1.661,1.471-2.533,2.563-2.616,3.278c-0.208,1.073-0.478,2.306-0.81,3.695c-0.374,1.351-0.602,2.364-0.686,3.039
	c-0.041,0.318,0.041,0.934,0.25,1.847c-0.457,0.796-0.769,1.511-0.934,2.146c-0.25,0.277-0.582,0.417-0.998,0.417
	c-0.705,0-1.268-0.477-1.682-1.43c-0.249-0.717-0.354-1.293-0.311-1.729c0.123-0.953,0.165-2.066,0.123-3.336
	c0-1.271,0.021-2.047,0.062-2.325c0.997-4.608,1.807-7.807,2.43-9.595c0.54-1.629,1.1-3.178,1.682-4.648
	c-0.041-0.557-0.062-1.152-0.062-1.787c0.249-2.105,0.726-3.934,1.433-5.482l0.342-2.92c-0.168,0.33-0.344,0.629-0.529,0.893
	l-0.187-0.059c0.368-1.031,0.679-1.904,0.935-2.622l0.872-7.329c-0.042-0.398-0.042-1.135,0-2.207c0-0.912-0.062-1.628-0.188-2.145
	l0.747-6.078c-2.449-3.26-5.107-7.827-7.973-13.706c-1.342,2.016-2.857,4.132-4.547,6.346c-0.035,0.167-0.076,0.297-0.125,0.388
	c-0.021-0.043-0.043-0.092-0.062-0.148c-0.082,0.109-0.165,0.219-0.248,0.326c-0.021,0.027-0.043,0.057-0.062,0.091l-0.062,0.447
	l-0.219-0.091c-0.178,0.228-0.355,0.457-0.528,0.687l0.062,1.251h-0.373c-0.1-0.143-0.184-0.332-0.25-0.566
	c-0.08,0.109-0.163,0.219-0.248,0.328c-0.027,0.248-0.048,0.506-0.062,0.775c-0.208,1.35-0.645,2.362-1.309,3.038
	c0.105-0.544,0.209-1.06,0.312-1.548l-0.125-0.061c-0.021-0.096-0.042-0.196-0.062-0.299c-0.068,0.4-0.152,0.856-0.25,1.371
	c-0.539,2.227-0.996,3.337-1.371,3.337h-0.186c0.071-0.206,0.165-0.543,0.281-1.014c-0.034,0.098-0.065,0.197-0.096,0.298h-0.372
	l-0.188-0.178v-0.388c-0.371,1.087-0.683,1.931-0.935,2.532l-0.186-0.178c0.053-0.156,0.209-0.723,0.467-1.698
	c-0.615,1.805-1.144,3.026-1.59,3.664c-0.041,0.079-0.062-0.04-0.062-0.356c0-0.283,0.281-1.387,0.842-3.308
	c-0.113,0.134-0.227,0.261-0.344,0.387c-0.637,2.125-1.219,3.516-1.742,4.172c-0.064-0.03-0.116-0.051-0.156-0.06
	c-0.232,0.541-0.451,0.918-0.653,1.133c-0.085-0.039-0.126-0.219-0.126-0.537c0-0.396,0.146-1.093,0.437-2.086
	c-0.051,0.061-0.103,0.118-0.156,0.178c-0.28,1.137-0.581,2.03-0.903,2.683c-0.332-0.198-0.497-0.417-0.497-0.654
	c0-0.149,0.01-0.3,0.03-0.446c-0.057,0.046-0.107,0.095-0.155,0.148l0.155,1.52c0.109,0.195,0.224,0.402,0.344,0.625
	c0.996,1.826,1.619,2.92,1.868,3.276c-0.54-0.556-1.204-1.568-1.994-3.037c-0.054-0.101-0.106-0.199-0.155-0.298l0.031,0.355
	c0.196,0.52,0.445,1.075,0.748,1.67c0.415,0.834,1.038,1.986,1.868,3.456c-0.25-0.079-0.872-1.093-1.868-3.04
	c-0.195-0.402-0.372-0.77-0.531-1.101c0.277,0.812,0.6,1.776,0.967,2.889c0.997,3.06,1.495,4.769,1.495,5.126
	c0,0.114-0.011,0.223-0.031,0.327c0.229,0.759,0.343,1.166,0.343,1.222c0,0.318-0.104,0.576-0.312,0.775l-0.219-0.148
	c0.104,0.539,0.156,1.006,0.156,1.399l-0.031,0.298c0.437,1.625,0.653,2.619,0.653,2.98c0,0.914-0.123,1.369-0.373,1.369
	c-0.09,0-0.161,0-0.218,0c0.021,0.192,0.031,0.352,0.031,0.478l-0.062,0.953h-0.312c-0.357-1.227-0.68-2.368-0.965-3.427
	c0.005,0.154,0.005,0.305,0,0.447c0.602,2.33,0.902,3.78,0.902,4.351c0,0.358-0.104,0.636-0.311,0.835
	c-0.143-0.365-0.371-1.15-0.686-2.354c-0.006,0.083-0.006,0.173,0,0.269c0.705,3.084,1.059,4.931,1.059,5.541
	c0,0.175-0.031,0.313-0.094,0.419c0.188,0.934,0.281,1.569,0.281,1.905c0,0.318-0.062,0.695-0.188,1.134
	c-0.124,0-0.187-0.06-0.187-0.18c-0.14-0.54-0.272-1.066-0.405-1.579c0.367,1.552,0.627,2.754,0.779,3.605
	c0.581,1.997,0.871,3.289,0.871,3.873c0,0.596-0.083,0.943-0.248,1.043c0.082,0.506,0.123,0.913,0.123,1.223
	c0,0.112-0.021,0.223-0.062,0.326c0.125,0.642,0.188,1.109,0.188,1.401c0,0.438-0.104,0.854-0.311,1.252l-0.374-0.179
	c-0.211-1.754-0.542-3.71-0.997-5.87c0.014,0.239,0.025,0.468,0.031,0.685c0.477,1.989,0.717,3.896,0.717,5.722
	c0,0.586-0.125,0.983-0.375,1.191c-0.06,0.241-0.152,0.448-0.279,0.626c-0.168,0.98-0.428,2.48-0.779,4.5
	c-0.581,2.304-1.308,3.913-2.18,4.826c0.498,0.438,0.727,0.934,0.685,1.49c-0.041,0.039-0.374,0.794-0.996,2.265
	c-0.872,1.47-2.034,2.204-3.488,2.204c-1.038,0-1.517-0.477-1.433-1.43c0.041-0.119,0.166-0.378,0.374-0.774
	c0.333-0.517,0.603-0.854,0.808-1.015c-1.742-0.475-2.801-0.893-3.176-1.25h-0.061c-1.62,0.277-3.53,0.418-5.732,0.418
	c-0.372,0-0.725,0-1.059,0c-0.289,0.237-0.746,0.416-1.369,0.535c-0.707,0.119-1.951,0.358-3.737,0.716
	c-0.541,0.198-1.724,1.191-3.55,2.979c1.035,0.794,1.805,1.39,2.303,1.787c0.954,0.755,1.393,1.371,1.31,1.848
	c-0.044,0.278-0.167,0.596-0.375,0.953c0.208,0.16,0.29,0.357,0.249,0.597c-0.041,0.317-0.084,0.437-0.125,0.356l-0.559,0.061
	c-0.125,0-0.251-0.02-0.375-0.061c-0.166,0.12-0.373,0.18-0.623,0.18c-0.581,0-1.122-0.159-1.619-0.477
	c-0.623-0.358-1.184-0.596-1.684-0.715c-0.622-0.119-1.888-0.557-3.798-1.311c-0.497,0-0.935,0-1.309,0v0.059
	c-0.042,0.357-0.249,0.537-0.622,0.537c-0.582-0.199-0.936-0.418-1.06-0.656c-0.747-0.04-1.183-0.1-1.31-0.178
	c-0.165-0.121-0.518-0.636-1.058-1.55c-0.083,0.079-0.271,0.298-0.561,0.655c0,0.039,0,0.1,0,0.178
	c-0.167,0.438-0.416,0.656-0.747,0.656h-0.062c-0.166,0.079-0.334,0.119-0.499,0.119c-1.038,0-1.433-0.993-1.183-2.98
	c0.166-1.23,0.996-2.323,2.491-3.277c1.453-0.953,3.966-2.025,7.536-3.219c1.287-0.436,3.303-1.607,6.045-3.516
	c2.532-1.747,4.586-2.82,6.166-3.217c0.012-0.355-0.02-0.781-0.094-1.281c-0.143,0.689-0.257,1.117-0.344,1.281l-0.186-0.061
	l-0.064-0.387c-0.041,0.02-0.082,0.029-0.124,0.029c-0.289,0-0.415-0.06-0.372-0.178c-0.031-0.15-0.062-0.319-0.094-0.508
	c-0.027,0.053-0.057,0.102-0.094,0.148c-0.119-0.275-0.223-0.573-0.311-0.894l-0.125-0.118c-0.023-0.307-0.043-0.633-0.062-0.983
	c-0.025-0.241-0.047-0.49-0.064-0.745c-0.053,0.039-0.116,0.059-0.184,0.059c-0.292,0-0.375-0.059-0.251-0.178l-0.312-0.119v-0.061
	c-0.123,0-0.248-0.059-0.373-0.178c-0.031-0.393-0.062-0.779-0.094-1.162c-0.025,0.062-0.057,0.112-0.094,0.148l-0.094-0.029
	c-0.027,0.451-0.056,0.857-0.093,1.221h-0.375c-0.05-0.608-0.095-1.344-0.124-2.203c-0.02,0.259-0.041,0.517-0.061,0.773
	l-0.375-0.178l-0.062-2.206c-0.115,0.222-0.239,0.38-0.373,0.477l-0.311-0.059c-0.084-0.503-0.156-0.97-0.22-1.401
	c-0.106,0.14-0.222,0.209-0.343,0.209c-0.322,0-0.508-0.865-0.561-2.592c-0.113,0.435-0.237,0.742-0.374,0.923
	c-0.083-0.079-0.208-0.496-0.372-1.251c-0.125-0.715-0.188-1.172-0.188-1.371c0-0.059,0-0.119,0-0.178
	c-0.156-0.199-0.302-0.627-0.436-1.282c-0.066,0.136-0.127,0.245-0.188,0.328c-0.375-0.238-0.561-0.536-0.561-0.894
	c0-0.256,0.012-0.545,0.031-0.864c-0.23-0.298-0.342-1.022-0.342-2.177c0-0.121,0.01-0.261,0.029-0.416
	c-0.395-0.299-0.591-1.73-0.591-4.291c0-0.381,0-0.738,0-1.072c-0.116,0.636-0.263,0.953-0.437,0.953
	c-0.333,0-0.457-0.059-0.375-0.178l-0.186-1.967c0-1.086,0.052-2.049,0.156-2.891c-0.035-0.163-0.064-0.332-0.094-0.506
	c-0.373-0.318-0.56-0.854-0.56-1.61v-0.476c0-1.192,0.187-2.723,0.56-4.59c0.005-0.025,0.017-0.057,0.031-0.09
	c0-0.377,0.01-0.734,0.031-1.071c-0.041-0.687-0.062-1.589-0.062-2.713c0-2.265,0.021-3.635,0.062-4.11
	c0.045-0.326,0.19-0.991,0.436-1.997c-0.104-1.134-0.189-2.396-0.248-3.784c0.207-1.668,0.623-3.02,1.246-4.052
	c0.496-0.836,1.16-1.529,1.993-2.087c0.622-4.131,1.577-8.044,2.863-11.74c2.037-5.363,3.802-10.408,5.294-15.137
	c0.834-2.741,1.559-5.145,2.181-7.21c-0.279-0.236-0.55-0.484-0.808-0.745c-0.005,0.054-0.005,0.104,0,0.148h-0.188l-0.031-0.357
	c-0.246-0.237-0.484-0.485-0.715-0.745v0.685H90.22V79.03c-0.158-0.174-0.314-0.353-0.467-0.536
	c-0.022,0.268-0.055,0.486-0.094,0.655h-0.062c-0.021-0.267-0.044-0.575-0.061-0.923c-0.195-0.236-0.382-0.474-0.562-0.716
	c-0.057,0.314-0.139,0.503-0.248,0.566c0-0.316,0-0.624,0-0.924c-0.211-0.293-0.418-0.592-0.623-0.894v0.745h-0.125
	c0-0.329,0-0.646,0-0.954c-0.062-0.103-0.125-0.202-0.186-0.298v0.238h-0.188v-0.566c-0.148-0.266-0.294-0.534-0.435-0.805v1.312
	h-0.125c-0.082-0.039-0.146-0.08-0.188-0.119v-0.298c0-0.223,0-0.442,0-0.656h-0.188c-0.016-0.465-0.027-0.912-0.031-1.34
	c-0.031-0.07-0.063-0.14-0.092-0.209c-0.088-0.201-0.171-0.399-0.248-0.596c-0.029,0.506-0.049,0.864-0.063,1.072h-0.125v-1.52
	c-0.052-0.136-0.106-0.275-0.155-0.417l-0.031,0.387h-0.188l-0.062-0.894c0-0.075,0-0.155,0-0.239
	c-1.133-3.294-1.632-6.691-1.495-10.19c-0.458-1.589-0.624-3.139-0.499-4.648c-0.317-0.728-0.638-1.413-0.964-2.056
	c0.019,0.255,0.029,0.483,0.029,0.686c0,1.271-0.061,2.463-0.186,3.576h-0.062c-0.1-0.669-0.266-2.139-0.5-4.411
	c-0.01,2.299-0.072,4.067-0.187,5.305H81.75c-0.076-0.61-0.2-2.288-0.376-5.036c-0.012,0.521-0.064,1.235-0.154,2.145
	c0.014,0.069,0.023,0.139,0.031,0.209c0,0.04-0.021,0.516-0.062,1.43c-0.071,0.533-0.186,0.91-0.342,1.133
	c-0.072,0.283-0.143,0.482-0.219,0.596l-0.124-0.178c0.005-0.06,0.018-0.12,0.031-0.18c-0.036,0-0.067,0-0.095,0H80.38
	c0.041,0.624,0.061,1.16,0.061,1.609c0,0.636-0.104,1.192-0.312,1.668v-0.059c-0.016-0.152-0.039-0.301-0.061-0.447
	c-0.105,0.767-0.24,1.332-0.404,1.698c0.058,2.093,0.028,3.881-0.094,5.364l-0.062-0.179c-0.049-0.427-0.091-0.833-0.125-1.222
	c-0.059,0.764-0.121,1.588-0.187,2.474h-0.188c-0.095-1.439-0.19-2.82-0.28-4.142l-0.154,3.844
	c-0.082,1.598-0.228,2.631-0.438,3.098c0.084,0.645,0.125,1.101,0.125,1.371v0.298c0,0.185,0,0.384,0,0.597
	c-0.045,1.003-0.168,2.295-0.373,3.874h-0.062c-0.178-1.413-0.343-2.713-0.499-3.904c-0.029,0.441-0.071,0.928-0.124,1.459
	c-0.014,0.161-0.027,0.319-0.031,0.477c0.229,1.908,0.342,3.219,0.342,3.934c0,1.232-0.145,2.125-0.435,2.682l-0.124-0.119
	c-0.039-0.146-0.081-0.305-0.127-0.477c-0.088,1.057-0.232,1.691-0.436,1.906v-0.18c0-0.953-0.061-2.422-0.188-4.409
	c-0.021,0.245-0.044,0.504-0.061,0.774c-0.049,0.561-0.09,1.048-0.124,1.46v0.238c0,0.253,0,0.501,0,0.745
	c0,2.86-0.085,5.384-0.251,7.567h-0.188c-0.028-0.591-0.061-1.178-0.092-1.758c-0.034,0.329-0.076,0.678-0.125,1.043
	c0.029,0.291,0.061,0.59,0.094,0.895c0.206,0,0.311,0.119,0.311,0.358l-0.498,0.058c-0.027-0.062-0.06-0.132-0.094-0.207
	c-0.271,1.737-0.428,2.858-0.467,3.366h-0.092c-0.055,1.202-0.146,2.515-0.283,3.935H74.15c-0.118-1.904-0.222-3.554-0.312-4.947
	c-0.008,0.228-0.02,0.426-0.031,0.596c0.102,1.199,0.156,2.291,0.156,3.278c0,0.636-0.084,2.064-0.251,4.29
	c-0.165,2.344-0.29,3.655-0.372,3.935l-0.124-0.12c-0.03-0.603-0.062-1.186-0.096-1.759c-0.036-0.276-0.077-0.596-0.123-0.952
	l-0.343,3.188c-0.033-0.18-0.064-0.389-0.094-0.626l-0.279,4.262l-0.188-0.061c-0.121-1.322-0.236-2.563-0.343-3.726
	c-0.107,2.059-0.263,3.857-0.468,5.395c-0.083-0.04-0.125-0.1-0.125-0.18c-0.091-1.217-0.164-2.33-0.219-3.336
	c-0.055,0.957-0.17,1.771-0.343,2.442c0,0.036,0,0.075,0,0.12c0,0.476-0.124,1.191-0.372,2.145c-0.279-1.713-0.518-3.173-0.717-4.38
	c0.005,0.062,0.005,0.122,0,0.179c0.172,1.464,0.39,3.282,0.653,5.453l-0.123,1.133h-0.188c-0.211-1.465-0.408-2.815-0.59-4.054
	c0.02,0.503,0.031,0.959,0.031,1.372c0,0.26,0,0.508,0,0.744c0,0.465,0,0.892,0,1.281c0,1.152-0.022,1.887-0.063,2.206
	c-0.083,0.675-0.331,1.508-0.747,2.503c-0.125,0-0.188-0.061-0.188-0.18c0.176-0.885,0.3-1.729,0.374-2.533
	c-0.061,0.084-0.124,0.152-0.187,0.21c-0.088-0.165-0.211-0.792-0.375-1.879c-0.037,0.323-0.077,0.691-0.124,1.104
	c-0.065,0.525-0.128,0.963-0.187,1.31c-0.09,0.517-0.174,0.836-0.249,0.954l-0.123-0.06c-0.013-0.238-0.022-0.476-0.032-0.715
	c-0.078,1.267-0.13,2.001-0.156,2.204h-0.559l0.123-0.06c0.022-0.315,0.01-1.228-0.031-2.741c-0.123,0.629-0.279,1.066-0.467,1.312
	h-0.063c-0.088,0.688-0.212,1.464-0.372,2.324l-0.125-0.12l-0.062-1.369c0-0.16,0-0.35,0-0.568
	c-0.139,0.758-0.326,1.402-0.561,1.938c-0.018,0.054-0.026,0.103-0.031,0.148c0.02,0.592,0.031,1.139,0.031,1.639
	c0,0.398-0.085,0.876-0.25,1.432c-0.207,0.557-0.416,0.975-0.623,1.251c-0.136-0.216-0.26-0.513-0.373-0.895
	c-0.025,0.157-0.045,0.317-0.062,0.478c-0.057,0-0.107-0.01-0.156-0.03c-0.121,0.804-0.268,1.478-0.435,2.027
	c-0.067,0.978-0.285,1.823-0.655,2.532h-0.031c0.022,0.208,0.031,0.365,0.031,0.477c0,0.081-0.082,0.278-0.248,0.596
	c-0.168,0.318-0.27,0.478-0.311,0.478c-0.127-0.438-0.251-0.864-0.376-1.28v0.029l-0.187-0.12c0.01-0.169,0.02-0.348,0.031-0.536
	c-0.044-0.148-0.085-0.299-0.124-0.447c0.08,1.402,0.176,2.981,0.279,4.738c0,0.437-0.063,0.895-0.187,1.369
	c-0.125,0-0.248-0.039-0.372-0.117c-0.062-0.904-0.112-1.748-0.155-2.533h-0.064c-0.07,0.977-0.122,2.039-0.156,3.188
	c-0.082,0.278-0.164,0.576-0.248,0.895c0,0.199-0.021,0.436-0.063,0.715c-0.165,1.391-0.81,3.039-1.931,4.946
	c-0.582,0.954-1.119,1.808-1.619,2.563c-0.082,0.555-0.311,1.985-0.686,4.29c-0.207,0.992-0.331,2.78-0.372,5.364
	c-0.792,6.355-1.786,9.534-2.991,9.534c-0.621,0-0.914-0.478-0.873-1.431c0.127-1.152,0.188-1.887,0.188-2.204h-0.188
	c-0.207,0.317-0.395,0.615-0.56,0.894c-0.124,0.198-0.208,0.436-0.249,0.715c-0.043,0.518,0.02,1.352,0.186,2.503
	c0.209,1.072,0.251,1.907,0.127,2.503c-0.21,0.676-0.293,1.471-0.252,2.384c0.022,0.155,0.24,0.553,0.656,1.191
	c0.418,0.642,0.834,1.468,1.245,2.474c0.409,1.006,0.771,2.327,1.09,3.963c0.207,0.636,0.769,1.013,1.682,1.132
	c0.876,0.199,1.655,0.468,2.335,0.806c0.682,0.335,1.492,0.623,2.432,0.863c0.935,0.247,1.443,0.444,1.525,0.596
	c0.071,0.137,0.165,0.246,0.279,0.329c0.129,0.093,0.223,0.154,0.281,0.178h0.031c0.09,0.071,0.121,0.2,0.092,0.388
	c-0.041,0.238-0.455,0.557-1.246,0.953c0.334,0.238,0.811,0.418,1.435,0.537c0.374,0.078,0.539,0.238,0.498,0.477
	c-0.042,0.437-0.416,0.655-1.122,0.655c-0.773,0.018-1.459,0.037-2.056,0.06l-1.868,0.18c0.083,0,0.146,0.039,0.187,0.118
	c0.333,0.239,0.624,0.497,0.874,0.775c0.268,0.393-0.512,0.602-2.336,0.624c-1.822,0.023-3.266-0.096-4.331-0.356
	c-1.073-0.26-1.782-0.885-2.118-1.878c-1.203-0.714-2.408-1.369-3.612-1.965c-0.581-0.318-1.081-0.775-1.494-1.371
	c-0.501-2.452-0.99-4.537-1.465-6.258c-0.478-1.713-0.568-3.48-0.28-5.304c0.215-1.173,0.308-2.146,0.28-2.921
	c-0.034,0.059-0.065,0.117-0.093,0.18c-0.082,0-0.145-0.021-0.188-0.061c-0.041-0.039-0.062-0.159-0.062-0.356
	c0-0.236,0.041-0.594,0.127-1.073c-0.054-0.2-0.137-0.43-0.252-0.686c-0.309,1.05-0.642,2.173-0.994,3.367h-0.127l-0.061-0.596
	c0-0.636,0.229-1.898,0.684-3.784c-0.01-0.02-0.02-0.04-0.029-0.06c-0.199,0.93-0.416,1.952-0.654,3.068h-0.188
	c-0.207-0.277-0.311-0.516-0.311-0.715c0-0.267,0.082-0.752,0.246-1.459c-0.029-0.057-0.062-0.115-0.092-0.18
	c-0.068,0.514-0.141,1.059-0.219,1.639c-0.124-0.039-0.186-0.099-0.186-0.179c-0.084-0.04-0.126-0.218-0.126-0.536
	c0-0.718,0.083-1.582,0.251-2.593c-0.07-0.122-0.121-0.241-0.156-0.357c-0.219,0.435-0.435,0.882-0.654,1.341
	c-0.123-0.118-0.188-0.238-0.188-0.357c0.225-0.731,0.484-1.535,0.779-2.414c0.08-0.833,0.256-1.738,0.529-2.711
	c-0.199,0.428-0.405,0.865-0.622,1.311l-0.312-0.178c-0.124-0.318-0.188-0.615-0.188-0.894c0-0.955,0.83-2.9,2.492-5.841
	c0.012-0.02,0.022-0.04,0.031-0.059l0.031-0.061c0.399-1.156,0.877-2.396,1.432-3.725c0.698-3.295,1.134-5.291,1.309-5.989
	c0.362-1.407,0.778-2.737,1.246-3.992c0.433-1.446,0.963-2.886,1.59-4.321c0.291-0.947,0.676-2.051,1.15-3.308
	c0.094-0.253,0.187-0.501,0.281-0.745c0.057-0.415,0.129-0.822,0.217-1.221c0.307-2.244,0.586-4.181,0.843-5.811
	c0.058-1.053,0.111-1.936,0.155-2.652c-0.168-1.55-0.27-3.575-0.312-6.08c-0.042-4.965,0.083-8.738,0.372-11.322
	c0.706-5.641,2.015-12.871,3.925-21.691c1.286-6,2.472-10.727,3.55-14.184c-0.535-1.238-0.557-2.807-0.061-4.708
	c0-0.22,0-0.499,0-0.835c0-1.326,0.166-2.528,0.499-3.605c0.165-3.087,0.601-5.431,1.308-7.032v-0.03l0.062-0.417
	c0.099-1.524,0.194-2.925,0.279-4.201c-0.021-1.075-0.031-2.276-0.031-3.606c0-1.181,0.01-2.264,0.031-3.248
	c-0.165-0.356-0.238-0.883-0.219-1.58c0-0.938,0.114-2.1,0.343-3.486c0.008-0.249,0.019-0.477,0.031-0.686
	c0.103-1.252,0.236-2.364,0.404-3.337c0.007-0.301,0.017-0.52,0.032-0.655c0.012-0.087,0.021-0.176,0.031-0.269l-0.092-0.03h0.092
	c0.119-0.722,0.316-1.289,0.592-1.698c0.162-0.462,0.338-0.859,0.53-1.192c0.163-2.258,0.589-4.255,1.276-5.989
	c0.852-2.171,2.079-3.839,3.676-5.006c0.709-0.665,1.498-1.152,2.366-1.46c0.285-0.323,0.597-0.631,0.935-0.924
	c1.494-1.351,2.904-2.364,4.236-3.039c0.331-0.159,1.1-0.238,2.305-0.238c0.207,0,0.394,0,0.561,0
	c0.041-0.557,0.164-1.053,0.374-1.49c-0.083-0.159-0.147-0.338-0.188-0.537c-0.333-0.914-0.436-1.788-0.311-2.622
	c0.082-0.755,0.416-1.431,0.996-2.026c0.018-0.02,0.039-0.04,0.062-0.059c-0.504-0.006-0.815-0.065-0.934-0.179
	c0.34-0.15,0.66-0.319,0.965-0.506v-0.06c-0.057,0.02-0.106,0.03-0.156,0.03c-0.075,0-0.148-0.01-0.219-0.03
	c-0.469,0.3-0.914,0.548-1.338,0.745c0.227-0.217,0.547-0.495,0.966-0.834c-0.052-0.014-0.103-0.034-0.156-0.06
	c0.192-0.067,0.484-0.266,0.872-0.596V0.218c-0.562,0.298-1.101,0.447-1.619,0.447c-0.291,0-0.375-0.041-0.25-0.119
	c0.229-0.084,0.479-0.193,0.746-0.328c-0.394,0.179-0.746,0.268-1.058,0.268c-0.289,0-0.417-0.04-0.372-0.119
	c1.025-0.472,2.056-1.078,3.083-1.817c0.067-0.156,0.142-0.314,0.216-0.477c-1.058,0.757-2.221,1.324-3.486,1.699
	c1.483-0.729,2.771-1.544,3.861-2.444c0.024-0.042,0.045-0.082,0.062-0.12c0.115-1.274,0.799-2.585,2.055-3.933l0.031-0.029
	c-0.34,0.138-0.684,0.287-1.026,0.447c-0.083,0.238-0.125,0.199-0.125-0.12c0-0.761,1.234-1.497,3.706-2.205
	c0.566-0.359,1.543-0.915,2.928-1.668c-0.197-0.021-0.395-0.041-0.592-0.059c-0.498-0.04-1.08,0.119-1.744,0.477
	c0.289-0.278,0.559-0.477,0.811-0.596c0.32-0.141,1.121-0.239,2.396-0.298c0.079-0.04,0.149-0.08,0.22-0.119
	c-0.679-0.015-1.073-0.075-1.182-0.179l0.559-0.06c0.555-0.297,1.334-0.515,2.336-0.655c0.256-0.141,0.516-0.28,0.778-0.418
	l0.064,0.061c-0.169,0.097-0.337,0.197-0.499,0.298c1.525-0.209,3.519-0.269,5.979-0.179c0.155,0.004,0.311,0.004,0.467,0
	c-0.327-0.063-0.629-0.123-0.904-0.179c-1.035-0.217-1.721-0.336-2.055-0.357v-0.119c0.796-0.046,1.543-0.066,2.244-0.06
	c0.17-0.119,0.542-0.179,1.119-0.179c1,0,2.255,0.239,3.77,0.715c0.045,0.001,0.087,0.001,0.124,0
	c-0.39-0.184-0.649-0.343-0.778-0.476c0.559,0.085,1.244,0.244,2.056,0.476c0.288,0.011,0.567,0.031,0.841,0.061h0.094
	c0.505,0,1.086,0.099,1.744,0.298c1.061,0.009,1.942,0.256,2.646,0.745c0.43-0.226,0.793-0.276,1.09-0.149
	c-0.058,0.14-0.225,0.349-0.498,0.625c0.045,0.01,0.087,0.02,0.126,0.029c0.663-0.239,1.204-0.357,1.618-0.357v0.178
	c-0.263,0.174-0.502,0.333-0.716,0.477c0.561,0.269,1.173,0.686,1.838,1.251C112.64-8.942,113.014-8.803,113.33-8.633z"/>
</svg>
