<?xml version="1.0" encoding="utf-8"?>
<!-- Generator: Adobe Illustrator 15.0.0, SVG Export Plug-In . SVG Version: 6.00 Build 0)  -->
<!DOCTYPE svg PUBLIC "-//W3C//DTD SVG 1.1//EN" "http://www.w3.org/Graphics/SVG/1.1/DTD/svg11.dtd">
<svg version="1.1" id="Layer_1" xmlns="http://www.w3.org/2000/svg" xmlns:xlink="http://www.w3.org/1999/xlink" x="0px" y="0px"
	 width="200px" height="200px" viewBox="0 0 200 200" enable-background="new 0 0 200 200" xml:space="preserve">
<path d="M125.677,10.957c2.107-0.025,1.03,0.521,1.03,0.521s0.879,0.204,1.312,0.289l-0.214,0.086
	c0.101,0.031,0.196,0.061,0.285,0.087c1.159-0.135,2.105-0.077,2.846,0.173c0.235,0.161,0.448,0.306,0.641,0.434
	c0.167,0.048,0.332,0.096,0.498,0.145c0.023,0.002,0.048,0.002,0.07,0v0.028c0.093,0.027,0.188,0.056,0.284,0.087
	c0.226,0.077,0.44,0.153,0.643,0.23c1.471-0.117,4.482-0.29,9.031-0.519c4.921,0,8.303,1.569,10.17,4.708
	c0.493,0.662,1.015,1.48,1.561,2.456c0.344,0.625,0.629,1.173,0.854,1.647c1.137,1.73,1.707,2.857,1.707,3.38
	c0,0.147-0.06,0.359-0.175,0.636c0.024,0.214,0.032,0.407,0.032,0.578c0,0.269-0.049,0.635-0.143,1.097
	c-0.064,0.293-0.136,0.535-0.213,0.723c0.213,0.835,0.331,1.47,0.355,1.907c0.045,0.126,0.092,0.252,0.143,0.376h-0.143
	c-0.021,0.679-0.114,1.295-0.284,1.849l-0.356-0.174c0.134-0.741,0.134-1.627,0-2.658c-0.074-0.111-0.146-0.227-0.215-0.346
	c0,0.768,0,1.413,0,1.936c0.236,1.139,0.355,2.343,0.355,3.612c0,0.038-0.119,0.578-0.355,1.617
	c-0.119,0.295-0.263,0.545-0.429,0.751c0.421,1.929,0.895,4.24,1.423,6.934c0.096,0.77,0.096,3.852,0,9.245
	c-0.143,5.625-0.355,9.304-0.642,11.037c0,0.039-0.261,0.944-0.781,2.716c0.333,0.695,0.593,1.349,0.781,1.964
	c0.191,0.925,0.499,2.351,0.926,4.276c0.427,1.695,0.88,3.082,1.354,4.161c0.331,0.771,1.397,2.369,3.199,4.796
	c1.279,1.811,2.038,2.928,2.274,3.352c0.76,0.385,1.212,1.04,1.354,1.965c0.047,0.076,0.167,1.272,0.356,3.582
	c0,0.154,0.166,1.349,0.499,3.583c0.235,1.387,0.355,2.581,0.355,3.581c0.047,0.773,0.284,3.295,0.71,7.572
	c0.191,2.197,0.119,4.468-0.212,6.82c-0.024,0.039-0.254,0.915-0.679,2.626c0.118,0.487,0.179,0.92,0.179,1.302
	c0,0.263-0.036,0.473-0.107,0.634c0.07,0.465,0.107,0.829,0.107,1.099c0,0.962-0.143,1.677-0.428,2.139
	c-0.187-0.712-0.353-1.368-0.497-1.965c0.143,0.929,0.214,1.679,0.214,2.254c0,0.617-0.118,1.367-0.357,2.254h-0.07
	c-0.029-0.167-0.054-0.33-0.07-0.492c-0.049,0.399-0.096,0.852-0.142,1.356h-0.215c-0.076-0.321-0.149-0.678-0.216-1.069v3.208
	l-0.141,0.114c-0.123-0.234-0.289-1.122-0.5-2.656c0,0.082,0,0.159,0,0.23l-0.214,3.697h-0.355
	c-0.022-0.108-0.046-0.217-0.072-0.318c-0.087,0.724-0.279,1.562-0.57,2.515c-0.01,0.286-0.032,0.459-0.07,0.521
	c-0.097,0.308-0.356,0.54-0.784,0.693c-0.098-0.107-0.207-0.28-0.319-0.52c0.53,1.816,1.006,4.195,1.423,7.135
	c0.972,2.158,1.457,3.304,1.457,3.438c0,0.192-0.023,0.288-0.069,0.288c0,0.04-0.05,0.06-0.143,0.06h-0.071
	c-0.315-0.565-0.611-1.095-0.891-1.59c0.041,0.333,0.076,0.668,0.111,1.012c0.076,0.221,0.149,0.432,0.215,0.634
	c0.162,0.348,0.327,0.714,0.497,1.099c1.519,3.698,2.276,6.146,2.276,7.34c0,0.229-0.024,0.365-0.071,0.403
	c-0.711-1.357-1.447-2.91-2.205-4.652c0.092,0.271,0.186,0.549,0.285,0.838c1.327,3.929,1.991,6.259,1.991,6.992l-0.071,0.577
	h-0.143c-0.176-0.667-0.448-1.561-0.817-2.686c0.157,0.585,0.333,1.31,0.534,2.168c1.041,2.948,1.562,5.105,1.562,6.472
	c0,0.28-0.059,0.502-0.176,0.663c0.356,1.065,0.535,1.903,0.535,2.516l-0.143,1.329h-0.071c-0.022-0.684-0.141-1.454-0.357-2.312
	c-0.164-0.26-0.316-0.517-0.461-0.782c0.01,0.07,0.022,0.14,0.036,0.203l-0.107,0.087c0.024,0.329,0.035,0.647,0.035,0.953v0.058
	c0.207,0.503,0.422,1.022,0.64,1.56c-0.108-0.138-0.225-0.291-0.356-0.462c0.236,0.829,0.356,1.391,0.356,1.677l-0.106,0.952
	l0.319,0.78l-0.215,0.173c-0.06-0.117-0.119-0.232-0.178-0.345l-0.034,0.345h-0.107c0.028,0.111,0.05,0.22,0.071,0.318
	c0.082,0.183,0.166,0.365,0.248,0.549h0.07c0,0.031,0,0.068,0,0.115v0.229c-0.096-0.141-0.189-0.287-0.284-0.433l-0.143,0.952
	l-0.215-0.114c-0.074-0.355-0.277-1.029-0.603-2.022c-0.06,0.25-0.166,0.501-0.317,0.749l-0.038-0.027v0.087
	c0.547,1.328,0.936,2.236,1.173,2.716c0-0.192,0.048-0.289,0.143-0.289c0,0.425-0.048,0.712-0.143,0.868
	c-0.212-0.334-0.45-0.738-0.709-1.213c-0.002,0.569-0.052,1.109-0.143,1.617c0.047,0.149,0.094,0.303,0.143,0.464
	c0,0.307-0.049,0.463-0.143,0.463h-0.179l-0.036,0.52c-0.035,0-0.069,0-0.106,0l-0.104,1.04h-0.214c0-0.076-0.19-0.779-0.569-2.109
	c-0.042,0.148-0.09,0.295-0.143,0.433l-0.035-0.027c0.07,0.982,0.109,1.724,0.109,2.225c0,1.464-0.143,2.329-0.427,2.601
	l-0.428-0.174v-0.203c-0.061,0.306-0.129,0.566-0.216,0.781c-0.023-0.293-0.049-0.58-0.069-0.866
	c-0.143-0.351-0.285-0.736-0.426-1.156c0.004,0.281,0.004,0.571,0,0.866c0,0.083,0,0.158,0,0.232c-0.002,0.098-0.002,0.191,0,0.287
	c0,0.684-0.083,1.187-0.251,1.505c-0.035,1.393-0.07,2.22-0.107,2.484c-0.282,2.002-0.947,3.273-1.991,3.813
	c-2.274,1.118-7.683,1.793-16.215,2.022h-0.639c-1.042,1.581-1.85,2.717-2.418,3.412c-1.044,1.309-3.012,2.562-5.902,3.755
	c-2.845,1.192-5.335,1.792-7.468,1.792c-3.365,0-5.854-0.385-7.467-1.155c-1.327-0.617-1.921-1.407-1.779-2.367
	c0.047-0.193,0.094-0.348,0.143-0.464c-0.331-0.038-0.854-0.114-1.564-0.231c-0.427,0.425-0.923,0.713-1.494,0.868
	c-0.047,0.078-0.094,0.136-0.141,0.174c-0.332,0.309-0.832,0.465-1.495,0.465c-0.994,0-1.542-0.309-1.636-0.925
	c-0.096,0.038-0.167,0.059-0.215,0.059c-0.333,0-0.617-0.078-0.854-0.231c-0.237-0.191-0.333-0.405-0.286-0.634
	c0-0.192,0.262-0.502,0.786-0.926c-0.475,0.078-1.78,0.405-3.914,0.984c-1.941,0.54-3.175,0.809-3.696,0.809
	c-0.189,0-0.356,0-0.499,0c-0.806,0.192-1.517,0.289-2.133,0.289c-0.806,0-1.184-0.289-1.138-0.868
	c-0.332,0.23-0.595,0.346-0.783,0.346c-0.332,0-0.356-0.038-0.07-0.115c-0.143-0.037-0.19-0.191-0.143-0.462
	c0.047-0.346,0.237-0.656,0.569-0.925h-0.853c-2.94,0.77-5.617,1.154-8.036,1.154c-1.611,0-2.512-0.115-2.7-0.346
	c-0.098-0.077-0.12-0.365-0.072-0.868c-0.096,0-0.189,0-0.283,0c-0.335,0-0.523-0.038-0.57-0.115v-0.288
	c0.142-0.077,0.235-0.136,0.283-0.174c-1.042-0.116-1.659-0.192-1.847-0.231c-0.475-0.153-0.69-0.443-0.642-0.868
	c0-0.078,0-0.136,0-0.173c-0.522-0.077-0.759-0.309-0.711-0.693c0.096-0.617,0.879-0.868,2.348-0.751
	c0.759,0.038,1.35,0.115,1.778,0.229c0.378-0.037,0.76-0.057,1.14-0.057c3.698,0,9.102-0.598,16.213-1.792
	c5.688-1.002,10.075-1.908,13.155-2.717c5.735-2.658,9.863-4.528,12.373-5.604c0.759-0.308,1.423-0.579,1.992-0.809
	c0.048-0.076,0.117-0.155,0.213-0.231c-0.188-0.424-0.235-1.001-0.14-1.733c0.14-0.886,0.45-1.678,0.925-2.369
	c0-0.038,0.023-0.075,0.07-0.115c-0.712-1.191-1.162-2.541-1.351-4.046c-0.143-1.039-0.143-2.771,0-5.199
	c0.046-0.579,0-1.31-0.143-2.196c-0.428-0.463-0.88-0.983-1.353-1.56c-0.19-0.229-0.405-0.443-0.642-0.635
	c-1.897,1.426-2.89,2.483-2.987,3.177c-0.235,1.04-0.545,2.237-0.925,3.583c-0.427,1.311-0.688,2.292-0.784,2.946
	c-0.047,0.309,0.047,0.905,0.285,1.792c-0.521,0.771-0.878,1.464-1.065,2.081c-0.286,0.268-0.665,0.404-1.14,0.404
	c-0.806,0-1.447-0.463-1.921-1.387c-0.284-0.695-0.403-1.254-0.354-1.677c0.14-0.924,0.187-2.001,0.14-3.234
	c0-1.232,0.023-1.984,0.07-2.255c1.14-4.466,2.063-7.569,2.775-9.303c0.616-1.58,1.257-3.083,1.921-4.506
	c-0.047-0.541-0.07-1.117-0.07-1.732c0.284-2.042,0.831-3.816,1.638-5.316l0.391-2.831c-0.191,0.32-0.394,0.61-0.604,0.865
	l-0.214-0.057c0.419-1,0.775-1.847,1.067-2.542l0.994-7.106c-0.047-0.387-0.047-1.101,0-2.141c0-0.884-0.07-1.578-0.214-2.079
	l0.854-5.894c-2.796-3.161-5.83-7.59-9.104-13.29c-1.531,1.954-3.26,4.007-5.19,6.153c-0.039,0.162-0.086,0.289-0.143,0.376
	c-0.024-0.042-0.049-0.089-0.071-0.143c-0.094,0.104-0.188,0.213-0.283,0.315c-0.023,0.025-0.05,0.056-0.069,0.089l-0.071,0.433
	l-0.25-0.089c-0.202,0.223-0.405,0.443-0.602,0.668l0.07,1.213h-0.425c-0.116-0.14-0.213-0.322-0.286-0.547
	c-0.092,0.104-0.186,0.212-0.283,0.315c-0.029,0.241-0.056,0.493-0.07,0.752c-0.239,1.309-0.737,2.29-1.495,2.946
	c0.119-0.528,0.238-1.029,0.354-1.503l-0.142-0.059c-0.023-0.093-0.047-0.189-0.07-0.29c-0.078,0.389-0.174,0.83-0.286,1.33
	c-0.615,2.158-1.137,3.235-1.565,3.235h-0.213c0.082-0.2,0.189-0.526,0.321-0.984c-0.038,0.096-0.073,0.191-0.11,0.29h-0.424
	l-0.215-0.172v-0.378c-0.424,1.054-0.779,1.874-1.067,2.455l-0.213-0.174c0.061-0.15,0.239-0.701,0.533-1.646
	c-0.702,1.75-1.307,2.933-1.814,3.553c-0.048,0.076-0.072-0.038-0.072-0.346c0-0.272,0.32-1.344,0.961-3.207
	c-0.129,0.13-0.26,0.253-0.393,0.375c-0.728,2.061-1.393,3.41-1.989,4.047c-0.072-0.029-0.133-0.051-0.177-0.06
	c-0.265,0.525-0.515,0.891-0.745,1.099c-0.098-0.038-0.145-0.212-0.145-0.521c0-0.385,0.167-1.06,0.501-2.022
	c-0.06,0.061-0.119,0.114-0.179,0.174c-0.319,1.103-0.664,1.967-1.031,2.601c-0.379-0.191-0.567-0.403-0.567-0.634
	c0-0.145,0.012-0.291,0.035-0.433c-0.066,0.046-0.122,0.094-0.178,0.144l0.178,1.474c0.123,0.189,0.255,0.391,0.392,0.606
	c1.138,1.771,1.85,2.831,2.133,3.177c-0.616-0.539-1.374-1.52-2.276-2.945c-0.062-0.098-0.12-0.192-0.176-0.289l0.034,0.345
	c0.225,0.504,0.508,1.042,0.854,1.62c0.474,0.809,1.185,1.924,2.133,3.35c-0.286-0.075-0.996-1.061-2.133-2.946
	c-0.222-0.391-0.425-0.748-0.605-1.069c0.315,0.787,0.685,1.723,1.104,2.802c1.137,2.968,1.706,4.625,1.706,4.972
	c0,0.109-0.013,0.216-0.036,0.315c0.263,0.737,0.394,1.131,0.394,1.186c0,0.308-0.119,0.559-0.355,0.75l-0.251-0.142
	c0.119,0.522,0.179,0.976,0.179,1.355l-0.036,0.29c0.501,1.576,0.746,2.54,0.746,2.889c0,0.886-0.14,1.327-0.426,1.327
	c-0.103,0-0.185,0-0.25,0c0.024,0.186,0.036,0.341,0.036,0.464l-0.07,0.923h-0.356c-0.405-1.188-0.775-2.294-1.101-3.322
	c0.006,0.147,0.006,0.296,0,0.432c0.688,2.26,1.029,3.667,1.029,4.221c0,0.346-0.117,0.618-0.354,0.81
	c-0.166-0.353-0.424-1.113-0.785-2.282c-0.007,0.081-0.007,0.169,0,0.262c0.805,2.99,1.21,4.781,1.21,5.372
	c0,0.171-0.035,0.304-0.109,0.406c0.215,0.906,0.321,1.522,0.321,1.848c0,0.309-0.071,0.674-0.214,1.1
	c-0.141,0-0.214-0.058-0.214-0.176c-0.16-0.522-0.311-1.032-0.462-1.529c0.419,1.504,0.715,2.67,0.889,3.495
	c0.663,1.936,0.994,3.189,0.994,3.756c0,0.577-0.094,0.913-0.283,1.012c0.093,0.49,0.141,0.884,0.141,1.185
	c0,0.108-0.024,0.217-0.071,0.316c0.144,0.622,0.216,1.074,0.216,1.357c0,0.425-0.118,0.828-0.357,1.214l-0.425-0.174
	c-0.241-1.7-0.62-3.597-1.14-5.691c0.018,0.232,0.028,0.453,0.036,0.666c0.543,1.928,0.817,3.777,0.817,5.548
	c0,0.568-0.143,0.953-0.428,1.154c-0.068,0.232-0.172,0.434-0.316,0.607c-0.194,0.949-0.491,2.403-0.89,4.363
	c-0.664,2.233-1.494,3.794-2.491,4.678c0.568,0.426,0.832,0.907,0.784,1.445c-0.047,0.038-0.428,0.77-1.138,2.196
	c-0.993,1.427-2.321,2.137-3.981,2.137c-1.186,0-1.732-0.462-1.636-1.387c0.046-0.115,0.189-0.366,0.427-0.75
	c0.38-0.501,0.688-0.828,0.923-0.984c-1.989-0.462-3.198-0.867-3.626-1.212h-0.07c-1.85,0.267-4.03,0.405-6.544,0.405
	c-0.425,0-0.827,0-1.209,0c-0.33,0.23-0.852,0.403-1.563,0.519c-0.807,0.115-2.227,0.347-4.267,0.694
	c-0.618,0.192-1.967,1.154-4.052,2.889c1.182,0.771,2.061,1.349,2.629,1.733c1.088,0.732,1.59,1.329,1.495,1.792
	c-0.05,0.271-0.19,0.578-0.428,0.924c0.237,0.155,0.331,0.347,0.284,0.579c-0.047,0.307-0.096,0.425-0.143,0.345l-0.637,0.06
	c-0.143,0-0.287-0.02-0.428-0.06c-0.19,0.117-0.427,0.175-0.712,0.175c-0.663,0-1.281-0.154-1.849-0.463
	c-0.711-0.347-1.352-0.578-1.922-0.692c-0.71-0.116-2.155-0.541-4.335-1.272c-0.568,0-1.067,0-1.495,0v0.058
	c-0.048,0.346-0.284,0.521-0.71,0.521c-0.665-0.192-1.069-0.405-1.21-0.636c-0.854-0.038-1.351-0.098-1.496-0.173
	c-0.188-0.118-0.591-0.617-1.207-1.503c-0.095,0.076-0.31,0.289-0.641,0.635c0,0.037,0,0.097,0,0.173
	c-0.19,0.425-0.475,0.636-0.853,0.636h-0.07c-0.19,0.075-0.382,0.115-0.57,0.115c-1.185,0-1.636-0.964-1.351-2.889
	c0.19-1.192,1.137-2.253,2.844-3.178c1.659-0.924,4.527-1.964,8.603-3.121c1.47-0.424,3.771-1.558,6.901-3.409
	c2.891-1.694,5.236-2.734,7.04-3.12c0.014-0.344-0.022-0.757-0.107-1.241c-0.164,0.667-0.293,1.082-0.393,1.241l-0.212-0.06
	l-0.073-0.376c-0.046,0.02-0.093,0.028-0.141,0.028c-0.33,0-0.474-0.059-0.425-0.173c-0.036-0.146-0.071-0.309-0.107-0.493
	c-0.031,0.052-0.065,0.1-0.107,0.144c-0.136-0.267-0.255-0.555-0.354-0.867l-0.143-0.115c-0.026-0.297-0.049-0.613-0.071-0.953
	c-0.029-0.232-0.054-0.474-0.073-0.721c-0.061,0.037-0.133,0.057-0.21,0.057c-0.333,0-0.428-0.057-0.287-0.172l-0.356-0.116v-0.06
	c-0.141,0-0.284-0.058-0.426-0.172c-0.036-0.382-0.07-0.756-0.107-1.127c-0.028,0.061-0.064,0.107-0.107,0.143l-0.107-0.027
	c-0.031,0.437-0.064,0.831-0.106,1.184h-0.428c-0.057-0.589-0.109-1.303-0.142-2.135c-0.023,0.251-0.047,0.501-0.07,0.748
	l-0.428-0.173l-0.071-2.139c-0.131,0.216-0.272,0.368-0.426,0.462l-0.355-0.057c-0.096-0.487-0.178-0.94-0.251-1.358
	c-0.121,0.137-0.254,0.203-0.392,0.203c-0.367,0-0.579-0.838-0.641-2.513c-0.128,0.42-0.27,0.719-0.427,0.894
	c-0.095-0.076-0.237-0.481-0.425-1.212c-0.142-0.694-0.215-1.137-0.215-1.33c0-0.058,0-0.115,0-0.173
	c-0.177-0.192-0.344-0.608-0.497-1.243c-0.076,0.134-0.146,0.238-0.215,0.318c-0.428-0.231-0.64-0.52-0.64-0.867
	c0-0.248,0.013-0.528,0.035-0.838c-0.263-0.288-0.39-0.99-0.39-2.11c0-0.117,0.011-0.253,0.032-0.403
	c-0.451-0.29-0.674-1.677-0.674-4.161c0-0.369,0-0.716,0-1.039c-0.133,0.616-0.301,0.924-0.499,0.924
	c-0.38,0-0.521-0.058-0.428-0.172l-0.213-1.908c0-1.053,0.059-1.987,0.178-2.804c-0.04-0.156-0.073-0.322-0.107-0.491
	c-0.426-0.308-0.639-0.828-0.639-1.56v-0.463c0-1.154,0.213-2.641,0.639-4.45c0.006-0.024,0.02-0.056,0.035-0.088
	c0-0.365,0.012-0.711,0.036-1.038c-0.047-0.666-0.071-1.54-0.071-2.631c0-2.196,0.024-3.525,0.071-3.985
	c0.051-0.315,0.217-0.959,0.498-1.935c-0.119-1.101-0.216-2.323-0.283-3.67c0.236-1.617,0.711-2.929,1.422-3.93
	c0.566-0.811,1.324-1.48,2.275-2.023c0.71-4.006,1.8-7.8,3.269-11.383c2.325-5.201,4.34-10.093,6.044-14.678
	c0.952-2.658,1.78-4.989,2.49-6.991c-0.319-0.229-0.628-0.469-0.922-0.723c-0.006,0.053-0.006,0.101,0,0.144h-0.214l-0.036-0.346
	c-0.281-0.229-0.553-0.47-0.816-0.722v0.664h-0.125v-0.804c-0.181-0.169-0.359-0.342-0.534-0.52
	c-0.025,0.26-0.063,0.471-0.107,0.635h-0.071c-0.024-0.259-0.051-0.557-0.07-0.895c-0.223-0.229-0.436-0.46-0.641-0.694
	c-0.065,0.305-0.159,0.488-0.283,0.549c0-0.306,0-0.605,0-0.896c-0.241-0.284-0.477-0.574-0.711-0.867v0.723h-0.143
	c0-0.319,0-0.626,0-0.925c-0.071-0.1-0.143-0.195-0.212-0.289v0.231H85.85v-0.549c-0.169-0.258-0.335-0.518-0.497-0.78v1.272H85.21
	c-0.094-0.038-0.167-0.078-0.214-0.115v-0.289c0-0.216,0-0.428,0-0.636h-0.215c-0.019-0.451-0.031-0.884-0.035-1.299
	c-0.036-0.067-0.072-0.136-0.105-0.202c-0.101-0.195-0.195-0.387-0.284-0.578c-0.033,0.491-0.056,0.838-0.072,1.04h-0.143v-1.474
	c-0.059-0.132-0.121-0.266-0.176-0.404l-0.036,0.375h-0.215l-0.071-0.867c0-0.072,0-0.15,0-0.231
	c-1.293-3.194-1.863-6.488-1.707-9.88c-0.523-1.541-0.711-3.044-0.569-4.507c-0.362-0.706-0.729-1.371-1.101-1.994
	c0.021,0.248,0.033,0.468,0.033,0.666c0,1.232-0.069,2.388-0.212,3.467h-0.071c-0.114-0.648-0.304-2.074-0.571-4.277
	c-0.012,2.229-0.083,3.943-0.214,5.144h-0.066c-0.086-0.592-0.228-2.219-0.429-4.883c-0.014,0.505-0.073,1.197-0.175,2.08
	c0.016,0.066,0.026,0.135,0.035,0.203c0,0.039-0.024,0.5-0.071,1.387c-0.081,0.517-0.212,0.882-0.39,1.098
	c-0.083,0.274-0.164,0.467-0.25,0.578l-0.142-0.172c0.006-0.058,0.021-0.116,0.036-0.175c-0.042,0-0.077,0-0.109,0h-0.068
	c0.047,0.605,0.07,1.125,0.07,1.56c0,0.617-0.119,1.156-0.356,1.618v-0.059c-0.019-0.147-0.044-0.292-0.069-0.434
	c-0.12,0.744-0.274,1.292-0.461,1.646c0.066,2.029,0.032,3.763-0.108,5.201l-0.071-0.174c-0.056-0.414-0.104-0.807-0.143-1.185
	c-0.067,0.741-0.138,1.54-0.214,2.399h-0.214c-0.108-1.395-0.217-2.734-0.319-4.016l-0.176,3.727c-0.094,1.549-0.26,2.551-0.5,3.004
	c0.096,0.625,0.142,1.068,0.142,1.33v0.289c0,0.18,0,0.373,0,0.579c-0.051,0.973-0.192,2.225-0.426,3.756h-0.071
	c-0.204-1.37-0.392-2.63-0.57-3.786c-0.033,0.428-0.081,0.9-0.141,1.415c-0.017,0.156-0.031,0.31-0.036,0.463
	c0.261,1.85,0.391,3.121,0.391,3.814c0,1.194-0.166,2.061-0.497,2.601l-0.142-0.116c-0.044-0.141-0.092-0.296-0.145-0.462
	c-0.1,1.025-0.265,1.64-0.498,1.849v-0.175c0-0.924-0.069-2.349-0.215-4.275c-0.024,0.238-0.05,0.489-0.069,0.751
	c-0.056,0.544-0.103,1.016-0.142,1.416v0.23c0,0.246,0,0.486,0,0.723c0,2.773-0.097,5.22-0.287,7.337h-0.215
	c-0.032-0.573-0.069-1.142-0.105-1.704c-0.039,0.318-0.087,0.657-0.143,1.011c0.034,0.282,0.07,0.572,0.107,0.868
	c0.235,0,0.355,0.115,0.355,0.347l-0.569,0.056c-0.03-0.06-0.068-0.128-0.107-0.201c-0.309,1.684-0.488,2.771-0.533,3.264h-0.104
	c-0.063,1.166-0.167,2.438-0.323,3.815h-0.21c-0.134-1.846-0.253-3.446-0.356-4.796c-0.009,0.221-0.023,0.413-0.035,0.578
	c0.116,1.163,0.177,2.221,0.177,3.179c0,0.616-0.096,2.001-0.286,4.16c-0.188,2.272-0.332,3.543-0.425,3.816l-0.142-0.117
	c-0.034-0.586-0.071-1.15-0.109-1.707c-0.041-0.266-0.088-0.577-0.141-0.921l-0.392,3.091c-0.037-0.175-0.073-0.377-0.107-0.605
	l-0.318,4.132l-0.215-0.061c-0.138-1.28-0.269-2.484-0.391-3.613c-0.123,1.997-0.3,3.739-0.534,5.231
	c-0.095-0.038-0.143-0.096-0.143-0.174c-0.104-1.181-0.188-2.26-0.25-3.234c-0.063,0.928-0.194,1.717-0.391,2.366
	c0,0.035,0,0.073,0,0.117c0,0.46-0.142,1.154-0.425,2.08c-0.319-1.661-0.592-3.078-0.819-4.248c0.005,0.061,0.005,0.119,0,0.175
	c0.196,1.42,0.445,3.181,0.746,5.287l-0.141,1.099H65.58c-0.241-1.42-0.466-2.728-0.674-3.933c0.023,0.49,0.036,0.931,0.036,1.332
	c0,0.253,0,0.493,0,0.721c0,0.451,0,0.866,0,1.242c0,1.117-0.025,1.83-0.072,2.139c-0.095,0.655-0.378,1.462-0.854,2.427
	c-0.142,0-0.214-0.059-0.214-0.174c0.2-0.859,0.342-1.677,0.427-2.456c-0.07,0.081-0.142,0.147-0.214,0.203
	c-0.101-0.16-0.241-0.768-0.428-1.821c-0.042,0.312-0.088,0.67-0.142,1.069c-0.074,0.51-0.146,0.934-0.213,1.271
	c-0.103,0.503-0.199,0.811-0.285,0.926l-0.14-0.059c-0.015-0.23-0.025-0.463-0.036-0.693c-0.089,1.229-0.149,1.939-0.179,2.136
	h-0.639l0.141-0.058c0.025-0.306,0.012-1.19-0.035-2.658c-0.141,0.61-0.319,1.034-0.534,1.273h-0.072
	c-0.101,0.666-0.242,1.418-0.425,2.251l-0.143-0.115l-0.071-1.327c0-0.155,0-0.34,0-0.551c-0.158,0.735-0.372,1.359-0.64,1.88
	c-0.02,0.051-0.03,0.1-0.035,0.142c0.022,0.574,0.035,1.106,0.035,1.591c0,0.385-0.097,0.849-0.285,1.389
	c-0.237,0.54-0.475,0.945-0.711,1.212c-0.156-0.208-0.297-0.496-0.426-0.868c-0.029,0.152-0.051,0.308-0.071,0.465
	c-0.065,0-0.122-0.01-0.178-0.029c-0.138,0.779-0.306,1.433-0.497,1.965c-0.076,0.949-0.325,1.769-0.748,2.456h-0.036
	c0.025,0.201,0.036,0.353,0.036,0.462c0,0.079-0.094,0.27-0.283,0.578c-0.191,0.309-0.308,0.464-0.355,0.464
	c-0.145-0.424-0.287-0.837-0.429-1.24v0.026l-0.214-0.115c0.012-0.165,0.023-0.338,0.036-0.52c-0.051-0.142-0.098-0.291-0.142-0.434
	c0.091,1.36,0.201,2.89,0.318,4.595c0,0.424-0.072,0.869-0.213,1.325c-0.143,0-0.283-0.036-0.425-0.111
	c-0.071-0.877-0.127-1.695-0.177-2.456h-0.073c-0.08,0.948-0.14,1.977-0.179,3.091c-0.093,0.269-0.187,0.559-0.283,0.868
	c0,0.192-0.024,0.423-0.072,0.692c-0.188,1.35-0.925,2.947-2.204,4.797c-0.665,0.925-1.278,1.753-1.848,2.484
	c-0.094,0.539-0.355,1.924-0.784,4.159c-0.236,0.962-0.378,2.695-0.425,5.201c-0.904,6.161-2.039,9.244-3.415,9.244
	c-0.708,0-1.043-0.464-0.996-1.388c0.145-1.116,0.214-1.83,0.214-2.137h-0.214c-0.236,0.307-0.451,0.597-0.64,0.867
	c-0.141,0.191-0.237,0.423-0.284,0.693c-0.049,0.503,0.023,1.312,0.212,2.426c0.238,1.04,0.287,1.85,0.145,2.429
	c-0.24,0.655-0.334,1.427-0.288,2.31c0.025,0.152,0.274,0.538,0.749,1.155c0.478,0.623,0.952,1.425,1.422,2.399
	c0.467,0.977,0.88,2.256,1.244,3.844c0.237,0.616,0.878,0.982,1.92,1.098c1,0.191,1.889,0.453,2.666,0.782
	c0.779,0.326,1.703,0.604,2.776,0.836c1.067,0.239,1.647,0.429,1.741,0.579c0.081,0.132,0.188,0.237,0.318,0.317
	c0.147,0.091,0.254,0.15,0.321,0.175h0.035c0.103,0.067,0.138,0.192,0.105,0.376c-0.047,0.229-0.52,0.539-1.423,0.923
	c0.381,0.231,0.926,0.405,1.639,0.521c0.427,0.076,0.615,0.23,0.568,0.464c-0.048,0.423-0.475,0.635-1.281,0.635
	c-0.882,0.018-1.666,0.036-2.347,0.058l-2.132,0.176c0.095,0,0.167,0.038,0.213,0.113c0.38,0.232,0.713,0.482,0.998,0.752
	c0.306,0.381-0.584,0.583-2.667,0.605c-2.08,0.021-3.728-0.094-4.944-0.346c-1.225-0.252-2.034-0.858-2.417-1.821
	c-1.374-0.692-2.75-1.326-4.125-1.905c-0.662-0.308-1.233-0.751-1.705-1.329c-0.572-2.378-1.131-4.398-1.673-6.068
	c-0.546-1.66-0.648-3.373-0.319-5.143c0.245-1.138,0.352-2.081,0.319-2.833c-0.039,0.058-0.074,0.114-0.105,0.176
	c-0.094,0-0.166-0.021-0.215-0.061c-0.047-0.037-0.071-0.153-0.071-0.344c0-0.229,0.047-0.576,0.145-1.041
	c-0.062-0.194-0.156-0.417-0.288-0.666c-0.353,1.02-0.733,2.108-1.135,3.266h-0.145l-0.07-0.579c0-0.616,0.262-1.84,0.781-3.667
	c-0.011-0.021-0.022-0.04-0.033-0.06c-0.228,0.901-0.475,1.893-0.747,2.974h-0.215c-0.236-0.268-0.355-0.501-0.355-0.693
	c0-0.259,0.094-0.729,0.281-1.414c-0.032-0.056-0.071-0.112-0.104-0.176c-0.078,0.499-0.161,1.027-0.25,1.59
	c-0.142-0.037-0.212-0.096-0.212-0.174c-0.096-0.039-0.144-0.211-0.144-0.52c0-0.696,0.095-1.534,0.287-2.515
	c-0.08-0.118-0.138-0.233-0.177-0.347c-0.25,0.424-0.497,0.856-0.747,1.302c-0.141-0.114-0.215-0.23-0.215-0.346
	c0.257-0.707,0.553-1.488,0.89-2.341c0.092-0.808,0.292-1.685,0.604-2.629c-0.227,0.416-0.462,0.839-0.71,1.271l-0.356-0.172
	c-0.141-0.309-0.215-0.597-0.215-0.867c0-0.927,0.948-2.812,2.846-5.665c0.014-0.02,0.025-0.039,0.035-0.058l0.036-0.059
	c0.456-1.121,1.001-2.323,1.635-3.612c0.797-3.196,1.294-5.13,1.494-5.807c0.414-1.364,0.889-2.654,1.423-3.871
	c0.494-1.402,1.099-2.799,1.815-4.189c0.332-0.918,0.771-1.988,1.312-3.207c0.107-0.247,0.214-0.487,0.32-0.723
	c0.065-0.402,0.147-0.798,0.249-1.185c0.35-2.176,0.668-4.055,0.962-5.636c0.066-1.021,0.127-1.877,0.177-2.57
	c-0.191-1.504-0.307-3.466-0.355-5.896c-0.048-4.814,0.095-8.472,0.424-10.978c0.807-5.47,2.301-12.48,4.481-21.033
	c1.468-5.818,2.822-10.401,4.053-13.753c-0.611-1.201-0.636-2.722-0.07-4.565c0-0.213,0-0.484,0-0.81c0-1.286,0.19-2.451,0.57-3.496
	c0.189-2.993,0.687-5.266,1.493-6.818v-0.03l0.071-0.404c0.113-1.478,0.222-2.836,0.318-4.073c-0.024-1.042-0.035-2.208-0.035-3.497
	c0-1.146,0.011-2.195,0.035-3.149c-0.188-0.345-0.271-0.856-0.25-1.532c0-0.909,0.13-2.036,0.392-3.38
	c0.009-0.241,0.022-0.462,0.036-0.665c0.118-1.214,0.269-2.292,0.461-3.236c0.008-0.292,0.02-0.503,0.037-0.635
	c0.013-0.084,0.024-0.17,0.035-0.261l-0.105-0.029h0.105c0.136-0.701,0.361-1.25,0.676-1.647c0.184-0.448,0.386-0.833,0.605-1.156
	c0.186-2.189,0.672-4.125,1.457-5.807c0.973-2.105,2.374-3.722,4.197-4.854c0.809-0.645,1.71-1.117,2.701-1.416
	c0.326-0.313,0.682-0.612,1.067-0.896c1.706-1.31,3.316-2.292,4.836-2.947c0.377-0.154,1.256-0.231,2.631-0.231
	c-0.387,0.003,11.18-1.809,0.64,0"/>
<path d="M65.524,18.806c1.693-0.707,3.164-1.497,4.407-2.37c0.028-0.041,0.052-0.079,0.071-0.116
	c0.131-1.235,0.913-2.506,2.346-3.814l0.035-0.028c-0.388,0.134-0.781,0.278-1.171,0.433c-0.095,0.231-0.143,0.193-0.143-0.116
	c0-0.738,1.408-1.452,4.231-2.138c0.646-0.348,1.761-0.887,3.342-1.617C78.419,9.02,78.193,9,77.968,8.983
	c-0.569-0.039-1.233,0.115-1.992,0.462c0.33-0.27,0.639-0.462,0.926-0.578c0.366-0.137,1.28-0.232,2.735-0.289
	c0.09-0.039,0.17-0.078,0.251-0.115c-0.775-0.015-1.225-0.073-1.35-0.174l0.639-0.058c0.633-0.288,1.522-0.499,2.667-0.635
	c0.292-0.137,0.589-0.271,0.888-0.405l0.073,0.06c-0.193,0.094-0.385,0.19-0.57,0.289c1.741-0.203,4.018-0.261,6.826-0.173
	c0.177,0.004,0.354,0.004,0.533,0c-0.374-0.062-0.718-0.119-1.032-0.174c-1.182-0.21-1.965-0.326-2.346-0.346V6.73
	c0.909-0.044,1.762-0.064,2.562-0.058c0.194-0.116,0.619-0.173,1.277-0.173c1.142,0,2.575,0.231,4.305,0.693
	c0.051,0.001,0.1,0.001,0.142,0c-0.446-0.178-0.741-0.333-0.889-0.461c0.64,0.083,1.42,0.237,2.349,0.461
	c0.329,0.011,0.646,0.03,0.96,0.06h0.108c0.576,0,1.24,0.096,1.991,0.289c1.212,0.009,2.216,0.248,3.021,0.723
	c0.491-0.219,0.905-0.268,1.244-0.145c-0.065,0.135-0.258,0.338-0.568,0.606c0.051,0.009,0.101,0.02,0.145,0.028
	c0.756-0.231,1.374-0.346,1.846-0.346v0.172c-0.3,0.169-0.572,0.323-0.816,0.462c0.642,0.261,1.339,0.665,2.098,1.213
	c0.501,0.103,0.928,0.238,1.287,0.402c-0.168,0.053-0.357,0.101-0.569,0.145c1.09,0.842,27.353,1.629,1.639,1.936
	c-25.716,0.307-0.024,0.289-0.071,0.289c-0.043,0-0.128-0.02-0.248-0.058c1.562,1.087,2.38,1.645,2.451,1.675l-0.214,0.173
	c-0.591-0.281-1.207-0.608-1.848-0.983c1.848,1.745,2.774,2.786,2.774,3.121c0,0.307-0.024,0.366-0.071,0.173h-0.356
	c-0.272-0.304-0.652-0.757-1.137-1.357c0.024,0.05,0.049,0.099,0.071,0.145l-0.214,0.115c-0.034-0.032-0.072-0.06-0.107-0.086
	c0.085,0.122,0.168,0.248,0.25,0.375c0.673,0.622,1.073,1.257,1.209,1.907"/>
<path d="M65.738,18.806c1.17-0.458,2.347-1.045,3.52-1.762c0.076-0.151,0.162-0.304,0.246-0.462
	c-1.208,0.734-2.535,1.284-3.979,1.647"/>
<path d="M67.587,26.662c0.047-0.541,0.187-1.021,0.427-1.445c-0.094-0.154-0.168-0.328-0.214-0.521
	c-0.38-0.886-0.498-1.733-0.355-2.542c0.094-0.732,0.476-1.388,1.137-1.965"/>
<path d="M110.831,17.708c0.901,1.48,1.353,2.52,1.353,3.121c0,0.114-0.024,0.239-0.071,0.375c0.398,0.525,0.729,1.026,0.997,1.503
	c2.848,0.482,4.389,0.742,4.622,0.78"/>
</svg>
