<?xml version="1.0" encoding="utf-8"?>
<!-- Generator: Adobe Illustrator 15.0.0, SVG Export Plug-In . SVG Version: 6.00 Build 0)  -->
<!DOCTYPE svg PUBLIC "-//W3C//DTD SVG 1.1//EN" "http://www.w3.org/Graphics/SVG/1.1/DTD/svg11.dtd">
<svg version="1.1" id="Layer_1" xmlns="http://www.w3.org/2000/svg" xmlns:xlink="http://www.w3.org/1999/xlink" x="0px" y="0px"
	 width="200px" height="200px" viewBox="0 0 200 200" enable-background="new 0 0 200 200" xml:space="preserve">
<path d="M124.453,15.308c-10.539-1.787,1.027,0.003,0.641,0c1.375,0,2.254,0.076,2.631,0.228c1.521,0.647,3.131,1.617,4.836,2.911
	c0.385,0.28,0.74,0.576,1.066,0.885c0.991,0.295,1.893,0.761,2.701,1.398c1.822,1.118,3.225,2.715,4.197,4.794
	c0.785,1.662,1.271,3.574,1.457,5.736c0.219,0.318,0.42,0.699,0.604,1.141c0.313,0.392,0.539,0.935,0.677,1.627h0.104l-0.104,0.029
	c0.01,0.09,0.021,0.174,0.034,0.257c0.017,0.131,0.028,0.339,0.037,0.627c0.19,0.932,0.342,1.997,0.461,3.196
	c0.015,0.201,0.026,0.419,0.035,0.657c0.262,1.328,0.394,2.44,0.394,3.338c0.021,0.668-0.062,1.172-0.25,1.513
	c0.022,0.942,0.034,1.979,0.034,3.11c0,1.273-0.012,2.425-0.034,3.454c0.096,1.222,0.205,2.563,0.317,4.022l0.069,0.399v0.029
	c0.808,1.533,1.306,3.778,1.494,6.734c0.379,1.032,0.568,2.183,0.568,3.453c0,0.322,0,0.59,0,0.8
	c0.566,1.82,0.541,3.323-0.068,4.508c1.23,3.311,2.584,7.837,4.053,13.583c2.181,8.448,3.675,15.372,4.48,20.774
	c0.328,2.475,0.473,6.088,0.424,10.843c-0.047,2.4-0.164,4.338-0.354,5.823c0.051,0.684,0.11,1.53,0.179,2.537
	c0.293,1.562,0.61,3.419,0.961,5.567c0.103,0.383,0.185,0.774,0.25,1.172c0.104,0.232,0.213,0.47,0.319,0.714
	c0.541,1.204,0.979,2.261,1.312,3.168c0.717,1.372,1.321,2.753,1.815,4.138c0.533,1.201,1.008,2.475,1.422,3.821
	c0.201,0.669,0.697,2.579,1.494,5.736c0.636,1.273,1.181,2.46,1.636,3.566l0.036,0.059c0.011,0.02,0.021,0.038,0.035,0.058
	c1.897,2.818,2.847,4.68,2.847,5.596c0,0.267-0.074,0.551-0.216,0.856l-0.356,0.169c-0.248-0.427-0.482-0.844-0.709-1.254
	c0.312,0.931,0.512,1.797,0.604,2.596c0.338,0.842,0.633,1.614,0.891,2.312c0,0.114-0.074,0.229-0.215,0.341
	c-0.25-0.44-0.498-0.867-0.748-1.285c-0.037,0.111-0.096,0.226-0.176,0.342c0.191,0.97,0.287,1.797,0.287,2.484
	c0,0.307-0.049,0.475-0.145,0.515c0,0.077-0.07,0.135-0.213,0.172c-0.088-0.556-0.172-1.077-0.25-1.57
	c-0.033,0.062-0.072,0.118-0.104,0.174c0.188,0.677,0.281,1.141,0.281,1.396c0,0.189-0.119,0.42-0.355,0.685h-0.215
	c-0.271-1.067-0.52-2.048-0.746-2.938c-0.012,0.02-0.021,0.038-0.033,0.06c0.52,1.804,0.781,3.013,0.781,3.621l-0.07,0.57h-0.146
	c-0.401-1.142-0.782-2.216-1.136-3.226c-0.131,0.247-0.226,0.468-0.287,0.658c0.098,0.459,0.145,0.803,0.145,1.028
	c0,0.188-0.023,0.303-0.07,0.34c-0.049,0.04-0.121,0.062-0.215,0.062c-0.031-0.062-0.065-0.117-0.104-0.174
	c-0.033,0.742,0.073,1.673,0.319,2.798c0.328,1.749,0.228,3.438-0.319,5.079c-0.542,1.65-1.101,3.645-1.673,5.993
	c-0.473,0.571-1.043,1.008-1.705,1.313c-1.375,0.57-2.751,1.197-4.125,1.88c-0.383,0.951-1.192,1.55-2.417,1.798
	c-1.216,0.249-2.863,0.363-4.943,0.342c-2.084-0.021-2.974-0.221-2.668-0.596c0.285-0.269,0.619-0.516,0.998-0.743
	c0.047-0.074,0.118-0.111,0.213-0.111l-2.131-0.174c-0.683-0.021-1.466-0.04-2.349-0.058c-0.807,0-1.231-0.211-1.28-0.627
	c-0.047-0.23,0.142-0.384,0.567-0.459c0.713-0.114,1.258-0.287,1.64-0.516c-0.902-0.378-1.376-0.684-1.423-0.91
	c-0.032-0.183,0.002-0.306,0.104-0.372h0.035c0.066-0.023,0.174-0.083,0.321-0.172c0.13-0.079,0.237-0.184,0.317-0.314
	c0.094-0.146,0.674-0.336,1.741-0.57c1.072-0.229,1.996-0.504,2.775-0.825c0.776-0.325,1.666-0.586,2.666-0.772
	c1.042-0.115,1.684-0.475,1.92-1.087c0.364-1.567,0.776-2.829,1.243-3.796c0.472-0.962,0.945-1.752,1.423-2.368
	c0.475-0.609,0.725-0.991,0.749-1.141c0.046-0.872-0.049-1.634-0.288-2.282c-0.142-0.57-0.093-1.371,0.146-2.399
	c0.188-1.1,0.262-1.899,0.213-2.396c-0.047-0.267-0.144-0.496-0.285-0.686c-0.188-0.266-0.402-0.553-0.639-0.856h-0.216
	c0,0.305,0.069,1.009,0.216,2.112c0.047,0.913-0.289,1.372-0.996,1.372c-1.377,0-2.513-3.046-3.416-9.13
	c-0.047-2.476-0.188-4.187-0.425-5.138c-0.43-2.206-0.69-3.574-0.784-4.106c-0.569-0.722-1.183-1.539-1.849-2.454
	c-1.278-1.826-2.017-3.404-2.203-4.737c-0.049-0.266-0.071-0.494-0.071-0.683c-0.097-0.306-0.189-0.593-0.283-0.858
	c-0.039-1.099-0.101-2.116-0.18-3.052h-0.072c-0.051,0.751-0.105,1.559-0.178,2.425c-0.142,0.074-0.281,0.109-0.425,0.109
	c-0.142-0.45-0.213-0.889-0.213-1.308c0.117-1.684,0.228-3.196,0.317-4.539c-0.045,0.142-0.092,0.289-0.143,0.429
	c0.014,0.181,0.023,0.351,0.035,0.515l-0.213,0.112v-0.024c-0.143,0.397-0.285,0.806-0.43,1.225c-0.047,0-0.164-0.153-0.355-0.46
	c-0.188-0.303-0.281-0.49-0.281-0.569c0-0.107,0.01-0.258,0.035-0.456h-0.035c-0.424-0.68-0.674-1.489-0.748-2.426
	c-0.19-0.525-0.359-1.172-0.498-1.942c-0.057,0.021-0.112,0.029-0.178,0.029c-0.021-0.154-0.043-0.308-0.07-0.459
	c-0.129,0.367-0.271,0.652-0.428,0.857c-0.234-0.264-0.473-0.664-0.711-1.197c-0.188-0.533-0.283-0.991-0.283-1.371
	c0-0.479,0.012-1.006,0.033-1.572c-0.004-0.041-0.014-0.091-0.033-0.141c-0.27-0.516-0.482-1.133-0.641-1.856
	c0,0.208,0,0.391,0,0.544l-0.07,1.311l-0.145,0.111c-0.184-0.821-0.324-1.564-0.426-2.222h-0.07
	c-0.216-0.235-0.395-0.656-0.535-1.257c-0.047,1.449-0.061,2.323-0.035,2.625l0.143,0.058h-0.639
	c-0.031-0.193-0.092-0.896-0.18-2.109c-0.012,0.227-0.021,0.457-0.037,0.684l-0.139,0.059c-0.087-0.112-0.184-0.418-0.285-0.914
	c-0.066-0.334-0.141-0.754-0.213-1.255c-0.055-0.394-0.102-0.749-0.143-1.056c-0.188,1.04-0.328,1.64-0.429,1.798
	c-0.071-0.056-0.146-0.119-0.215-0.2c0.086,0.769,0.228,1.578,0.429,2.427c0,0.111-0.072,0.172-0.216,0.172
	c-0.476-0.953-0.758-1.751-0.854-2.398c-0.047-0.306-0.071-1.009-0.071-2.113c0-0.371,0-0.781,0-1.227c0-0.226,0-0.462,0-0.712
	c0-0.396,0.014-0.832,0.036-1.315c-0.208,1.19-0.434,2.481-0.674,3.886h-0.213l-0.141-1.087c0.301-2.078,0.551-3.819,0.746-5.222
	c-0.006-0.057-0.006-0.112,0-0.173c-0.229,1.156-0.5,2.556-0.818,4.196c-0.283-0.917-0.426-1.601-0.426-2.055
	c0-0.044,0-0.081,0-0.116c-0.197-0.64-0.328-1.419-0.392-2.336c-0.062,0.963-0.146,2.027-0.25,3.193
	c0,0.077-0.048,0.135-0.144,0.172c-0.234-1.473-0.41-3.193-0.533-5.165c-0.123,1.115-0.254,2.304-0.392,3.567l-0.215,0.062
	l-0.317-4.082c-0.035,0.226-0.07,0.426-0.107,0.597l-0.393-3.052c-0.054,0.339-0.101,0.646-0.142,0.909
	c-0.037,0.551-0.074,1.107-0.108,1.686l-0.142,0.116c-0.095-0.271-0.237-1.527-0.427-3.77c-0.188-2.131-0.284-3.5-0.284-4.107
	c0-0.947,0.062-1.992,0.176-3.141c-0.012-0.163-0.024-0.353-0.034-0.571c-0.103,1.333-0.222,2.914-0.355,4.738h-0.211
	c-0.154-1.361-0.26-2.618-0.322-3.769h-0.104c-0.045-0.487-0.226-1.561-0.533-3.224c-0.039,0.072-0.076,0.14-0.107,0.198
	l-0.568-0.055c0-0.229,0.121-0.343,0.355-0.343c0.037-0.292,0.072-0.579,0.105-0.857c-0.056-0.35-0.104-0.684-0.144-0.998
	c-0.035,0.555-0.071,1.117-0.104,1.683h-0.215c-0.189-2.091-0.287-4.508-0.287-7.247c0-0.234,0-0.471,0-0.714v-0.228
	c-0.039-0.395-0.086-0.861-0.142-1.398c-0.021-0.259-0.045-0.507-0.069-0.742c-0.146,1.902-0.215,3.31-0.215,4.222v0.173
	c-0.232-0.207-0.397-0.813-0.498-1.826c-0.054,0.164-0.101,0.316-0.146,0.456l-0.142,0.114c-0.332-0.533-0.498-1.39-0.498-2.569
	c0-0.685,0.131-1.94,0.392-3.767c-0.004-0.151-0.019-0.303-0.035-0.457c-0.062-0.509-0.108-0.975-0.142-1.397
	c-0.178,1.142-0.366,2.386-0.569,3.739h-0.071c-0.234-1.512-0.375-2.749-0.427-3.709c0-0.204,0-0.394,0-0.572v-0.286
	c0-0.259,0.047-0.696,0.144-1.313c-0.24-0.447-0.406-1.438-0.5-2.967l-0.177-3.681c-0.102,1.266-0.211,2.588-0.319,3.966h-0.213
	c-0.076-0.848-0.146-1.638-0.215-2.369c-0.039,0.373-0.087,0.761-0.144,1.17l-0.07,0.171c-0.141-1.42-0.174-3.132-0.108-5.137
	c-0.187-0.35-0.34-0.891-0.461-1.625c-0.023,0.14-0.049,0.283-0.068,0.429v0.058c-0.236-0.456-0.355-0.988-0.355-1.598
	c0-0.429,0.023-0.943,0.07-1.541h-0.068c-0.031,0-0.065,0-0.108,0c0.016,0.058,0.03,0.116,0.036,0.173l-0.143,0.17
	c-0.086-0.109-0.168-0.3-0.25-0.571c-0.178-0.213-0.309-0.574-0.391-1.084c-0.047-0.876-0.07-1.332-0.07-1.37
	c0.01-0.067,0.02-0.135,0.035-0.201c-0.104-0.872-0.162-1.555-0.176-2.054c-0.201,2.631-0.344,4.238-0.43,4.823h-0.064
	c-0.131-1.187-0.203-2.879-0.215-5.081c-0.268,2.176-0.457,3.584-0.57,4.224h-0.07c-0.145-1.065-0.213-2.207-0.213-3.424
	c0-0.196,0.012-0.413,0.033-0.658c-0.373,0.615-0.738,1.272-1.102,1.97c0.143,1.445-0.047,2.929-0.568,4.451
	c0.155,3.35-0.414,6.603-1.707,9.758c0,0.08,0,0.157,0,0.228l-0.07,0.856h-0.217l-0.035-0.371c-0.055,0.137-0.117,0.269-0.176,0.399
	v1.456h-0.145c-0.016-0.2-0.039-0.542-0.07-1.027c-0.09,0.188-0.184,0.378-0.285,0.571c-0.031,0.065-0.068,0.133-0.104,0.199
	c-0.004,0.41-0.018,0.837-0.035,1.283h-0.215c0,0.205,0,0.415,0,0.627v0.286c-0.047,0.037-0.121,0.076-0.215,0.114h-0.143v-1.256
	c-0.162,0.259-0.328,0.516-0.498,0.771v0.542h-0.215v-0.229c-0.068,0.093-0.141,0.187-0.211,0.285c0,0.296,0,0.599,0,0.914h-0.145
	v-0.714c-0.232,0.29-0.47,0.576-0.711,0.856c0,0.288,0,0.583,0,0.885c-0.123-0.061-0.218-0.241-0.283-0.542
	c-0.205,0.231-0.418,0.459-0.642,0.686c-0.019,0.333-0.045,0.628-0.069,0.884h-0.07c-0.043-0.162-0.082-0.37-0.107-0.627
	c-0.174,0.176-0.352,0.347-0.533,0.514v0.794h-0.125v-0.659c-0.264,0.249-0.535,0.486-0.815,0.713l-0.035,0.342h-0.215
	c0.006-0.042,0.006-0.09,0-0.143c-0.293,0.251-0.603,0.488-0.923,0.714c0.712,1.977,1.539,4.28,2.49,6.904
	c1.705,4.528,3.72,9.36,6.045,14.497c1.47,3.54,2.56,7.286,3.269,11.242c0.951,0.536,1.709,1.198,2.274,1.998
	c0.711,0.989,1.187,2.284,1.422,3.882c-0.065,1.332-0.163,2.537-0.282,3.624c0.28,0.966,0.446,1.602,0.498,1.913
	c0.047,0.454,0.071,1.767,0.071,3.934c0,1.08-0.024,1.943-0.071,2.601c0.024,0.322,0.036,0.665,0.036,1.024
	c0.015,0.031,0.029,0.062,0.035,0.088c0.427,1.786,0.64,3.255,0.64,4.394v0.457c0,0.724-0.213,1.238-0.64,1.542
	c-0.034,0.167-0.067,0.331-0.106,0.485c0.119,0.807,0.179,1.729,0.179,2.769l-0.214,1.885c0.093,0.113-0.049,0.17-0.428,0.17
	c-0.199,0-0.367-0.304-0.5-0.912c0,0.317,0,0.661,0,1.026c0,2.452-0.224,3.823-0.674,4.109c0.021,0.146,0.032,0.281,0.032,0.397
	c0,1.105-0.127,1.799-0.391,2.083c0.021,0.307,0.035,0.583,0.035,0.828c0,0.343-0.213,0.629-0.641,0.856
	c-0.068-0.079-0.139-0.182-0.215-0.314c-0.152,0.627-0.32,1.037-0.498,1.228c0,0.057,0,0.114,0,0.171
	c0,0.19-0.072,0.629-0.215,1.313c-0.188,0.723-0.33,1.123-0.425,1.198c-0.157-0.174-0.299-0.469-0.428-0.884
	c-0.062,1.654-0.272,2.481-0.642,2.481c-0.138,0-0.271-0.064-0.393-0.199c-0.072,0.412-0.154,0.859-0.25,1.341l-0.355,0.056
	c-0.153-0.093-0.295-0.243-0.426-0.456l-0.07,2.113l-0.428,0.169c-0.022-0.241-0.048-0.488-0.07-0.736
	c-0.032,0.819-0.086,1.526-0.143,2.108h-0.428c-0.043-0.35-0.076-0.738-0.105-1.171l-0.106,0.027
	c-0.043-0.035-0.08-0.081-0.106-0.142c-0.037,0.367-0.072,0.735-0.107,1.113c-0.143,0.112-0.285,0.17-0.426,0.17v0.06l-0.355,0.114
	c0.141,0.113,0.045,0.17-0.287,0.17c-0.076,0-0.148-0.02-0.211-0.057c-0.02,0.244-0.043,0.482-0.072,0.712
	c-0.021,0.336-0.045,0.648-0.07,0.941l-0.145,0.114c-0.098,0.309-0.217,0.592-0.354,0.856c-0.043-0.045-0.076-0.091-0.107-0.145
	c-0.035,0.183-0.07,0.345-0.105,0.487c0.049,0.113-0.096,0.171-0.426,0.171c-0.049,0-0.096-0.008-0.141-0.026l-0.074,0.371
	l-0.211,0.06c-0.102-0.157-0.229-0.567-0.395-1.226c-0.084,0.478-0.119,0.886-0.105,1.226c1.805,0.381,4.148,1.408,7.039,3.081
	c3.131,1.828,5.432,2.949,6.9,3.367c4.076,1.143,6.945,2.171,8.604,3.083c1.707,0.913,2.654,1.96,2.846,3.139
	c0.285,1.9-0.166,2.853-1.352,2.853c-0.188,0-0.381-0.039-0.57-0.113h-0.07c-0.377,0-0.661-0.209-0.854-0.628
	c0-0.074,0-0.135,0-0.171c-0.33-0.342-0.545-0.552-0.641-0.627c-0.615,0.875-1.02,1.367-1.207,1.484
	c-0.145,0.074-0.643,0.133-1.496,0.171c-0.141,0.228-0.545,0.438-1.209,0.628c-0.428,0-0.662-0.173-0.711-0.515v-0.058
	c-0.428,0-0.928,0-1.494,0c-2.182,0.722-3.625,1.141-4.336,1.256c-0.568,0.111-1.211,0.34-1.922,0.683
	c-0.568,0.306-1.186,0.457-1.85,0.457c-0.285,0-0.521-0.058-0.711-0.174c-0.142,0.041-0.285,0.062-0.429,0.062l-0.637-0.062
	c-0.048,0.079-0.097-0.036-0.144-0.34c-0.049-0.229,0.047-0.419,0.283-0.572c-0.238-0.341-0.379-0.645-0.428-0.912
	c-0.096-0.457,0.406-1.048,1.494-1.771c0.568-0.379,1.447-0.949,2.629-1.712c-2.084-1.712-3.434-2.662-4.053-2.853
	c-2.039-0.343-3.459-0.572-4.267-0.685c-0.711-0.116-1.233-0.286-1.563-0.514c-0.381,0-0.783,0-1.209,0
	c-2.514,0-4.693-0.137-6.543-0.399h-0.07c-0.428,0.34-1.637,0.741-3.625,1.196c0.234,0.154,0.543,0.478,0.922,0.973
	c0.238,0.379,0.381,0.627,0.428,0.74c0.096,0.913-0.449,1.37-1.637,1.37c-1.66,0-2.987-0.701-3.98-2.11
	c-0.71-1.408-1.091-2.132-1.138-2.169c-0.049-0.532,0.216-1.007,0.783-1.427c-0.996-0.874-1.826-2.414-2.49-4.62
	c-0.399-1.937-0.696-3.372-0.891-4.31c-0.144-0.172-0.248-0.37-0.315-0.599c-0.285-0.199-0.429-0.579-0.429-1.14
	c0-1.749,0.274-3.574,0.817-5.48c0.009-0.21,0.019-0.428,0.036-0.657c-0.52,2.069-0.898,3.941-1.141,5.621l-0.424,0.172
	c-0.24-0.382-0.357-0.779-0.357-1.199c0-0.279,0.072-0.727,0.216-1.341c-0.047-0.098-0.071-0.204-0.071-0.312
	c0-0.297,0.049-0.686,0.141-1.171c-0.188-0.098-0.282-0.429-0.282-0.999c0-0.56,0.331-1.796,0.994-3.71
	c0.174-0.814,0.47-1.966,0.889-3.451c-0.151,0.49-0.302,0.994-0.462,1.509c0,0.116-0.072,0.175-0.214,0.175
	c-0.144-0.421-0.214-0.781-0.214-1.087c0-0.322,0.105-0.93,0.32-1.826c-0.074-0.101-0.108-0.232-0.108-0.399
	c0-0.585,0.405-2.354,1.21-5.307c0.007-0.092,0.007-0.179,0-0.259c-0.361,1.154-0.619,1.905-0.785,2.254
	c-0.236-0.19-0.354-0.458-0.354-0.8c0-0.549,0.341-1.937,1.029-4.17c-0.007-0.135-0.007-0.28,0-0.427
	c-0.326,1.015-0.697,2.107-1.102,3.279h-0.355l-0.07-0.91c0-0.122,0.012-0.276,0.035-0.459c-0.064,0-0.146,0-0.25,0
	c-0.285,0-0.426-0.437-0.426-1.311c0-0.345,0.245-1.296,0.746-2.854l-0.035-0.286c0-0.375,0.059-0.823,0.178-1.339l-0.25,0.142
	c-0.236-0.188-0.355-0.436-0.355-0.741c0-0.055,0.131-0.443,0.395-1.172c-0.023-0.098-0.037-0.204-0.037-0.311
	c0-0.343,0.57-1.979,1.707-4.911c0.418-1.064,0.789-1.99,1.104-2.768c-0.18,0.317-0.383,0.669-0.605,1.056
	c-1.137,1.862-1.847,2.836-2.133,2.91c0.948-1.408,1.659-2.51,2.133-3.31c0.347-0.569,0.629-1.103,0.854-1.6l0.034-0.342
	c-0.057,0.097-0.114,0.189-0.176,0.286c-0.902,1.407-1.66,2.376-2.276,2.908c0.283-0.343,0.995-1.389,2.133-3.139
	c0.138-0.212,0.269-0.412,0.392-0.598l0.179-1.456c-0.056-0.051-0.112-0.097-0.179-0.143c0.023,0.141,0.035,0.284,0.035,0.428
	c0,0.228-0.188,0.438-0.566,0.627c-0.367-0.627-0.712-1.479-1.031-2.569c-0.061-0.06-0.119-0.112-0.179-0.173
	c0.334,0.95,0.501,1.617,0.501,1.998c0,0.305-0.047,0.476-0.145,0.514c-0.23-0.205-0.48-0.566-0.746-1.085
	c-0.043,0.009-0.104,0.031-0.177,0.06c-0.596-0.63-1.261-1.962-1.989-3.998c-0.133-0.12-0.264-0.242-0.393-0.37
	c0.641,1.841,0.961,2.898,0.961,3.168c0,0.304-0.023,0.416-0.072,0.342c-0.507-0.613-1.111-1.781-1.813-3.51
	c0.294,0.933,0.472,1.478,0.532,1.625l-0.213,0.174c-0.287-0.574-0.643-1.384-1.066-2.425v0.373l-0.215,0.17h-0.424
	c-0.037-0.098-0.072-0.189-0.11-0.286c0.132,0.452,0.239,0.774,0.321,0.972h-0.213c-0.428,0-0.951-1.063-1.565-3.195
	c-0.112-0.493-0.208-0.929-0.286-1.313c-0.023,0.102-0.047,0.195-0.07,0.286l-0.142,0.061c0.116,0.468,0.235,0.962,0.354,1.483
	c-0.758-0.647-1.256-1.617-1.496-2.909c-0.014-0.257-0.041-0.506-0.069-0.743c-0.097-0.102-0.19-0.208-0.283-0.311
	c-0.073,0.223-0.17,0.401-0.286,0.541h-0.425l0.07-1.198c-0.197-0.223-0.4-0.44-0.603-0.66l-0.25,0.087l-0.07-0.427
	c-0.02-0.032-0.047-0.063-0.069-0.088c-0.095-0.101-0.188-0.209-0.283-0.311c-0.022,0.052-0.047,0.1-0.071,0.142
	c-0.057-0.086-0.104-0.213-0.143-0.371c-1.93-2.12-3.659-4.147-5.189-6.077c-3.274,5.629-6.309,10.003-9.104,13.125l0.854,5.822
	c-0.145,0.496-0.215,1.18-0.215,2.055c0.047,1.025,0.047,1.731,0,2.114l0.994,7.018c0.292,0.686,0.648,1.523,1.067,2.511
	l-0.214,0.057c-0.211-0.253-0.413-0.538-0.604-0.854l0.392,2.796c0.807,1.481,1.354,3.233,1.638,5.25c0,0.606-0.022,1.176-0.07,1.71
	c0.664,1.405,1.306,2.89,1.921,4.45c0.713,1.713,1.635,4.778,2.775,9.188c0.047,0.268,0.07,1.01,0.07,2.229
	c-0.047,1.216,0,2.28,0.14,3.192c0.049,0.418-0.069,0.97-0.354,1.656c-0.474,0.913-1.115,1.37-1.92,1.37
	c-0.476,0-0.854-0.133-1.141-0.398c-0.188-0.609-0.544-1.293-1.064-2.056c0.237-0.875,0.332-1.464,0.285-1.77
	c-0.097-0.646-0.357-1.614-0.785-2.91c-0.379-1.329-0.689-2.512-0.925-3.537c-0.097-0.686-1.09-1.73-2.987-3.139
	c-0.236,0.188-0.451,0.401-0.642,0.627c-0.473,0.569-0.925,1.084-1.353,1.542c-0.144,0.875-0.189,1.597-0.144,2.167
	c0.144,2.4,0.144,4.109,0,5.136c-0.188,1.486-0.639,2.819-1.351,3.996c0.047,0.039,0.07,0.075,0.07,0.113
	c0.475,0.682,0.785,1.465,0.924,2.34c0.096,0.723,0.049,1.293-0.139,1.712c0.096,0.075,0.164,0.152,0.213,0.227
	c0.568,0.227,1.232,0.495,1.992,0.8c2.51,1.062,2.928,0.723,8.663,3.347c3.08,0.801-0.106,0.212,4.001,1.203
	c5.136,1.179,3.083,2.212,5.714,2.212c0.271,0,0.543,0.021,0.812,0.058c0.305-0.112,0.726-0.188,1.266-0.228
	c1.046-0.114,1.603,0.135,1.672,0.742c0.034,0.38-0.135,0.608-0.506,0.685c0,0.037,0,0.094,0,0.171
	c0.033,0.42-0.12,0.706-0.457,0.857c-0.135,0.039-0.573,0.112-1.316,0.228c0.035,0.037,0.101,0.095,0.201,0.172v0.283
	c-0.033,0.077-0.166,0.114-0.405,0.114c-0.067,0-0.133,0-0.202,0c0.035,0.497,0.019,0.781-0.051,0.857
	c-0.134,0.229-0.775,0.342-1.921,0.342c-1.721,0-0.26-0.087-2.352-0.848h-0.608c0.236,0.267,0.372,0.571,0.405,0.915
	c0.034,0.268,0,0.419-0.102,0.456c0.203,0.076,0.187,0.112-0.05,0.112c-0.134,0-0.321-0.113-0.558-0.341
	c0.033,0.57-0.236,0.856-0.811,0.856c-0.438,0-0.944-0.096-1.518-0.286c-0.102,0-0.221,0-0.354,0c-0.371,0-1.25-0.265-2.632-0.798
	c-1.518-0.572-2.447-0.896-2.786-0.973c0.374,0.419,0.56,0.726,0.56,0.914c0.034,0.227-0.035,0.438-0.204,0.627
	c-0.168,0.15-0.371,0.228-0.608,0.228c-0.034,0-0.611,0.855-1.317,0.855c-0.472,0-0.828-0.153-1.064-0.459
	c-0.034-0.037-0.067-0.095-0.101-0.172c-0.406-0.153-0.759-0.438-1.063-0.857c-0.506,0.116-0.877,0.191-1.113,0.229
	c0.035,0.113,0.069,0.267,0.102,0.459c0.102,0.947,0.101-0.523-0.844,0.086c-1.148,0.761-2.92,1.14-5.315,1.14
	c-1.518,0-2.78-0.799-4.805-1.976c-2.058-1.177-0.817-0.229-1.561-1.521c-0.405-0.687-0.062-0.088-0.804-1.649h-0.455
	c-6.074-0.227-14.116,0.588-16.39-0.515c-1.045-0.534-1.709-1.79-1.992-3.766c-0.037-0.262-0.071-1.078-0.106-2.453
	c-0.168-0.314-0.251-0.812-0.251-1.487c0.002-0.095,0.002-0.185,0-0.283c0-0.073,0-0.146,0-0.228c-0.004-0.292-0.004-0.579,0-0.855
	c-0.141,0.414-0.283,0.795-0.426,1.141c-0.021,0.281-0.047,0.565-0.069,0.854c-0.087-0.212-0.155-0.469-0.216-0.77v0.198
	l-0.428,0.174c-0.284-0.268-0.428-1.124-0.428-2.569c0-0.496,0.039-1.229,0.109-2.198l-0.035,0.026
	c-0.053-0.135-0.102-0.28-0.143-0.428c-0.379,1.313-0.569,2.008-0.569,2.083h-0.214l-0.104-1.027c-0.037,0-0.072,0-0.106,0
	l-0.036-0.515h-0.18c-0.094,0-0.143-0.154-0.143-0.457c0.049-0.16,0.096-0.311,0.143-0.459c-0.09-0.501-0.141-1.035-0.143-1.597
	c-0.259,0.471-0.496,0.868-0.709,1.197c-0.095-0.152-0.143-0.436-0.143-0.856c0.095,0,0.143,0.097,0.143,0.286
	c0.237-0.474,0.626-1.372,1.174-2.684v-0.085l-0.039,0.026c-0.15-0.245-0.256-0.493-0.316-0.74
	c-0.326,0.981-0.529,1.646-0.604,1.997l-0.215,0.112l-0.143-0.94c-0.096,0.144-0.188,0.29-0.284,0.429v-0.227
	c0-0.048,0-0.083,0-0.113h0.069c0.082-0.184,0.166-0.362,0.248-0.542c0.021-0.099,0.043-0.204,0.072-0.314h-0.1l-0.034-0.342
	c-0.06,0.111-0.118,0.227-0.179,0.342l-0.215-0.172l0.319-0.77l-0.106-0.94c0-0.282,0.121-0.838,0.356-1.656
	c-0.131,0.169-0.248,0.32-0.356,0.457c0.219-0.532,0.434-1.045,0.641-1.541v-0.059c0-0.302,0.011-0.616,0.035-0.941l-0.107-0.086
	c0.014-0.062,0.026-0.131,0.036-0.2c-0.146,0.262-0.297,0.515-0.461,0.772c-0.216,0.846-0.335,1.607-0.356,2.283h-0.071
	l-0.144-1.314c0-0.604,0.18-1.431,0.535-2.484c-0.117-0.158-0.176-0.378-0.176-0.653c0-1.351,0.521-3.482,1.562-6.394
	c0.201-0.847,0.377-1.563,0.533-2.141c-0.369,1.111-0.641,1.994-0.816,2.652h-0.144l-0.071-0.569c0-0.724,0.664-3.024,1.992-6.905
	c0.098-0.286,0.192-0.56,0.284-0.828c-0.758,1.721-1.493,3.255-2.205,4.595c-0.047-0.038-0.071-0.172-0.071-0.398
	c0-1.178,0.758-3.597,2.276-7.25c0.17-0.38,0.335-0.74,0.497-1.085c0.066-0.199,0.139-0.408,0.215-0.626
	c0.035-0.339,0.07-0.671,0.111-0.999c-0.28,0.487-0.576,1.011-0.891,1.57h-0.071c-0.093,0-0.144-0.021-0.144-0.061
	c-0.046,0-0.068-0.095-0.068-0.284c0-0.133,0.484-1.264,1.457-3.396c0.416-2.903,0.893-5.253,1.423-7.047
	c-0.112,0.236-0.222,0.409-0.319,0.514c-0.428-0.151-0.688-0.381-0.783-0.684c-0.039-0.061-0.061-0.231-0.07-0.514
	c-0.291-0.941-0.483-1.77-0.57-2.485c-0.025,0.101-0.05,0.208-0.072,0.314h-0.355l-0.213-3.652c0-0.069,0-0.145,0-0.226
	c-0.211,1.515-0.377,2.393-0.5,2.624l-0.142-0.113v-3.168c-0.067,0.387-0.14,0.738-0.216,1.055h-0.215
	c-0.046-0.497-0.094-0.945-0.143-1.339c-0.016,0.16-0.041,0.321-0.069,0.486h-0.07c-0.239-0.878-0.356-1.618-0.356-2.226
	c0-0.568,0.07-1.31,0.213-2.227c-0.144,0.59-0.31,1.236-0.496,1.94c-0.285-0.457-0.428-1.163-0.428-2.114
	c0-0.266,0.037-0.625,0.106-1.085c-0.071-0.159-0.106-0.365-0.106-0.626c0-0.378,0.061-0.804,0.179-1.286
	c-0.425-1.69-0.655-2.555-0.679-2.593c-0.332-2.323-0.403-4.566-0.213-6.736c0.426-4.225,0.664-6.715,0.711-7.479
	c0-0.988,0.119-2.167,0.354-3.537c0.333-2.207,0.499-3.387,0.499-3.539c0.189-2.281,0.309-3.462,0.355-3.538
	c0.143-0.914,0.594-1.561,1.354-1.941c0.235-0.418,0.995-1.522,2.274-3.311c1.802-2.396,2.867-3.975,3.199-4.736
	c0.473-1.066,0.926-2.436,1.354-4.11c0.427-1.901,0.734-3.31,0.926-4.223c0.188-0.607,0.448-1.253,0.781-1.939
	c-0.52-1.75-0.781-2.645-0.781-2.683c-0.287-1.711-0.499-5.345-0.643-10.9c-0.096-5.327-0.096-8.371,0-9.131
	c0.529-2.661,1.002-4.943,1.424-6.848c-0.166-0.204-0.311-0.451-0.43-0.742c-0.235-1.026-0.354-1.56-0.354-1.597
	c0-1.253,0.119-2.442,0.354-3.567c0-0.517,0-1.153,0-1.912c-0.068,0.118-0.141,0.232-0.215,0.342c-0.134,1.018-0.134,1.894,0,2.625
	l-0.355,0.172c-0.17-0.547-0.264-1.156-0.284-1.827h-0.144c0.052-0.122,0.099-0.247,0.144-0.371
	c0.024-0.432,0.142-1.059,0.354-1.884c-0.076-0.186-0.148-0.424-0.213-0.714c-0.094-0.456-0.143-0.817-0.143-1.083
	c0-0.169,0.008-0.36,0.031-0.571c-0.114-0.273-0.174-0.483-0.174-0.628c0-0.517,0.569-1.63,1.707-3.339
	c0.225-0.468,0.51-1.009,0.854-1.626c0.546-0.964,1.068-1.772,1.561-2.426c1.867-3.1,5.25-4.65,10.17-4.65
	c4.549,0.226,7.561,0.397,9.031,0.513c0.203-0.076,0.418-0.151,0.643-0.227c0.097-0.03,0.191-0.06,0.285-0.086v-0.027
	c0.021,0.002,0.047,0.002,0.069,0c0.166-0.049,0.331-0.096,0.498-0.144c0.193-0.126,0.406-0.27,0.642-0.429
	c0.74-0.247,1.687-0.304,2.846-0.17c0.089-0.026,0.184-0.056,0.285-0.086l-0.215-0.085c0.434-0.084,1.312-0.285,1.312-0.285
	s-1.077-0.54,1.03-0.514"/>
<path d="M83.146,17.332c0.136-0.642,0.536-1.269,1.209-1.883c0.082-0.125,0.165-0.25,0.25-0.371
	c-0.035,0.026-0.073,0.054-0.106,0.085l-0.215-0.113c0.022-0.045,0.047-0.094,0.071-0.144c-0.485,0.593-0.865,1.041-1.138,1.34
	h-0.355c-0.047,0.19-0.07,0.132-0.07-0.17c0-0.331,0.926-1.359,2.773-3.083c-0.641,0.371-1.257,0.694-1.848,0.971l-0.215-0.171
	c0.071-0.03,2.246-1.597,2.203-1.597c-0.047,0,1.169-2.288,1.001-2.34c0.358-0.162,0.785-0.296,1.286-0.397
	c0.759-0.541,1.456-0.94,2.099-1.198c-0.244-0.138-0.517-0.29-0.816-0.457V7.635c0.473,0,1.09,0.113,1.846,0.341
	c0.045-0.008,0.094-0.019,0.146-0.027c-0.31-0.265-0.503-0.465-0.568-0.599c0.339-0.122,0.753-0.073,1.244,0.143
	c0.806-0.469,1.809-0.706,3.021-0.714c0.75-0.19,1.414-0.286,1.99-0.286h0.108c0.312-0.029,0.631-0.048,0.959-0.06
	c0.93-0.221,1.709-0.373,2.351-0.455c-0.147,0.126-0.442,0.28-0.89,0.455c0.041,0.001,0.091,0.001,0.142,0
	c1.729-0.456,3.164-0.684,4.306-0.684c0.657,0,1.084,0.057,1.276,0.171c0.801-0.006,1.653,0.014,2.562,0.057v0.116
	c-0.381,0.02-1.164,0.134-2.346,0.341c-0.314,0.055-0.658,0.111-1.033,0.172c0.18,0.004,0.357,0.004,0.533,0
	c2.809-0.087,5.086-0.03,6.826,0.171c-0.186-0.098-0.377-0.192-0.57-0.286l0.074-0.059c0.299,0.132,0.596,0.265,0.887,0.4
	c1.146,0.134,2.035,0.342,2.668,0.627l0.639,0.058c-0.125,0.1-0.573,0.157-1.35,0.171c0.08,0.037,0.16,0.075,0.25,0.114
	c1.455,0.056,2.369,0.15,2.736,0.286c0.286,0.114,0.596,0.304,0.926,0.57c-0.76-0.342-1.424-0.495-1.992-0.456
	c-0.225,0.017-0.451,0.037-0.674,0.057c1.58,0.721,2.695,1.253,3.342,1.597c2.822,0.677,4.23,1.382,4.23,2.111
	c0,0.305-0.048,0.343-0.143,0.115c-0.392-0.153-0.783-0.296-1.172-0.428l0.034,0.027c1.435,1.292,2.216,2.547,2.347,3.767
	c0.02,0.037,0.043,0.074,0.071,0.115c1.242,0.862,2.714,1.643,4.406,2.341"/>
<path d="M134.459,18.229c-1.443-0.363-2.771-0.913-3.979-1.647c0.084,0.158,0.17,0.311,0.246,0.462
	c1.172,0.717,2.35,1.304,3.521,1.762"/>
<path d="M131.4,20.189c0.662,0.577,1.043,1.233,1.139,1.965c0.143,0.809,0.023,1.656-0.355,2.542
	c-0.047,0.193-0.119,0.367-0.215,0.521c0.24,0.424,0.381,0.904,0.428,1.445"/>
<path d="M82.251,23.487c0.233-0.038,1.774-0.298,4.623-0.78c0.268-0.477,0.598-0.978,0.996-1.503
	c-0.047-0.136-0.07-0.261-0.07-0.375c0-0.601,0.451-1.641,1.353-3.121"/>
</svg>
