<?xml version="1.0" encoding="utf-8"?>
<!-- Generator: Adobe Illustrator 15.0.0, SVG Export Plug-In . SVG Version: 6.00 Build 0)  -->
<svg version="1.2" baseProfile="tiny" id="Layer_1" xmlns="http://www.w3.org/2000/svg" xmlns:xlink="http://www.w3.org/1999/xlink"
	 x="0px" y="0px" width="200px" height="200px" viewBox="0 0 200 200" overflow="inherit" xml:space="preserve">
<path d="M96.124,18.168c-0.074,0.203-0.429,0.124-0.633,0.196c0.454,0.476,1.433-0.106,1.755,0.438
	c0.422,0.064,1.136-0.162,1.267,0.195c-0.252-0.041-0.522-0.063-0.828-0.049c0.684-0.019,0.962,0.37,1.512,0.487
	c0.051,0.534,0.875,0.294,1.07,0.682c-0.205,0.012-0.314-0.075-0.486-0.097c0.33,0.299,0.873,0.188,0.829,0.779
	c0.217,0.092,0.362,0.254,0.635,0.292c0,0.083,0,0.164,0,0.244c0.465,0.138,0.963,0.644,1.121,0.779
	c-0.016,0.191-0.566-0.252-0.73-0.389c0.013,0.199,0.441,0.403,0.632,0.585c0.11,0.88,0.873,1.111,1.317,1.657
	c0.014,0.112-0.01,0.186-0.051,0.244c0.559,0.927,1.001,1.688,1.514,2.681c-0.254-0.121-0.278-0.471-0.536-0.585
	c0.16,0.457,0.514,0.721,0.682,1.169c0.022,0.104-0.069,0.093-0.146,0.098c0.533,1.317,1.196,2.506,1.655,3.898
	c-0.208,0.048-0.085-0.24-0.244-0.244c0.004,0.395,0.332,0.209,0.39,0.488c-0.062,0.126-0.1,0.154-0.243,0.097
	c0.147,0.275,0.615,0.698,0.391,1.024c0.315,0.288,0.344,0.859,0.489,1.317c-0.265,0.714,0.457,1.874,0,2.631
	c0.058,0.299,0.006,0.708,0.146,0.925c-0.011,0.137-0.159,0.134-0.194,0.245c0.014,0.863,0.17,1.455,0.242,2.34
	c0.012,0.142-0.092,0.167-0.146,0.244c0.021,0.814,0.278,1.421,0.391,2.144c0.03,0.196-0.008,0.409,0.049,0.585
	c0.127,0.392,0.648,1.003,0.926,1.365c1.174,1.535,3.767,1.769,5.654,2.681c0.212,0.036-0.039-0.097,0.098-0.097
	c1.021-0.096,1.854,0.343,2.729,0.39c0.499,0.027,0.984-0.204,1.513-0.244c0.694-0.052,1.413,0.033,2.193-0.049
	c0.063,0.21-0.141,0.154-0.194,0.244c0.811,0.065,1.421,0.332,2.144,0.487c0.015,0.128-0.067,0.16-0.194,0.146
	c0.877,0.39,2.05,0.485,2.632,1.169c0.555,0.242,1.165,0.427,1.463,0.927c0.495,0.171,0.967,0.365,1.266,0.73
	c0,0.13-0.135,0.124-0.194,0.194c0.366,0.252,0.786,0.449,1.123,0.73c0.048,0.671,0.579,0.945,0.973,1.462
	c-0.011,0.087,0.05,0.245-0.097,0.195c0.264,0.411,1.167,0.672,0.925,1.267c0.285,0.396,0.725,0.642,0.975,1.073
	c0.025,0.124,0.065,0.17-0.049,0.243c0.206,0.342,0.739,0.577,0.635,1.072c0.271,0.364,0.588,0.678,0.779,1.121
	c0.075,0.175-0.166,0.03-0.147,0.147c0.317,0.509,0.357,1.002,0.683,1.511c0.027,0.108-0.092,0.069-0.097,0.146
	c0.548,0.703,0.893,1.61,1.121,2.631c-0.086,0.092-0.143-0.021-0.244-0.048c0.08,0.374,0.429,0.482,0.392,0.975
	c0.17,0.366,0.515,0.559,0.632,0.974c1.397,1.073,2.911,2.03,3.607,3.803c-0.358-0.292-0.501-0.798-0.877-1.073
	c0.368,0.682,0.937,1.298,1.316,2.145c-0.394-0.143-0.407-0.665-0.78-0.83c0.513,0.674,0.957,1.417,1.463,2.098
	c0.047,0.734,0.597,1.339,0.976,1.899c0.02,0.104-0.034,0.13-0.051,0.196c0.044,0.164,0.109,0.006,0.195,0.099
	c0.038,0.168-0.054,0.205-0.098,0.291c0.338,0.652,0.985,0.998,1.268,1.707c-0.248-0.11-0.3-0.417-0.536-0.536
	c-0.053,0.88,0.771,1.309,0.925,2.145c0.015,0.129-0.067,0.161-0.193,0.147c0.106,0.369,0.47,0.723,0.34,1.17
	c0.369,0.6,0.523,1.399,0.585,2.096c-0.211-0.131-0.178-0.507-0.293-0.732c-0.15,0.611,0.207,1.244,0.391,1.804
	c-0.222,0.302,0.063,0.638,0.097,0.974c0.003,0.125-0.033,0.061-0.097,0.049c0.202,0.847,0.292,1.658,0.586,2.486
	c-0.113,0.015-0.188-0.008-0.243-0.05c0.122,0.366,0.304,0.67,0.39,1.073c-0.375-0.03-0.235-0.578-0.44-0.779
	c-0.137,0.134,0.331,0.54,0,0.584c1.111,2.058,2.907,3.429,4.095,5.409c0.007,0.12,0.007,0.235-0.049,0.292
	c0.259,0.576,0.918,0.99,0.779,1.803c0.243,0.643,0.93,1.331,0.732,2.096c0.561,1.437,1.088,2.91,1.655,4.338
	c-0.005,0.092-0.159,0.031-0.146,0.147c0.59,1.792,0.812,3.662,1.415,5.457c-0.08,0.016-0.084-0.046-0.148-0.048
	c0.271,1.216,0.641,2.766,0.586,4.29c-0.052,0.048-0.1,0.096-0.146,0.146c0.107,0.462,0.291,1.345,0,1.755
	c0.025,1.505,0.521,2.89,0.778,4.19c0.32,1.607,0.685,3.093,1.609,4.045c1.218,0.765,2.176,1.789,2.876,3.072
	c-0.064-0.018-0.077-0.086-0.147-0.098c0.226,0.328,0.336,0.771,0.633,1.022c0.389,0.696,0.599,1.461,1.074,2.242
	c0.6,0.989,1.875,1.924,2.095,3.362c0.139,0.903-0.259,1.61-0.927,1.997c-0.366-0.038-0.712-0.099-1.072-0.146
	c0.69,1.059,0.739,2.472,1.463,3.511c-0.069,0.092-0.185,0.14-0.194,0.292c-0.018,0.148,0.158,0.101,0.243,0.146
	c0.615,1.787,1.319,3.488,1.853,5.361c0.333-0.252,0.805-0.366,1.121-0.635c2.45-0.441,1.689,2.618,1.074,3.657
	c-0.762,0.374-1.289,0.546-2.242,0.584c-0.091,0.008-0.031,0.166-0.098,0.193c-0.75-0.098-1.427,0.226-2,0
	c0.219,0.498,0.701,1.154,0.829,1.901c0.979,0.758,2.298,1.18,2.633,2.583c0.077,0.164,0.308,0.18,0.341,0.39
	c-0.044,0.359-0.319,0.177-0.583,0.242c-0.417,0.106-0.702,0.272-1.172,0.295c-2.228,0.098-3.61-1.436-5.019-2.536
	c-0.082,0-0.162,0-0.244,0c-0.284-0.317-0.603-0.601-0.877-0.927c-0.3,0.024-0.465-0.086-0.778-0.048
	c-0.093,0.008-0.031,0.166-0.099,0.193c-1.854-0.73-4.188-0.976-5.021-2.728c-0.083-0.002-0.127,0.035-0.146,0.097
	c-0.042-0.105-0.004-0.238-0.147-0.341c-0.389,0.065-0.776,0.135-0.974,0.391c-0.2-0.064-0.357-0.13-0.587-0.05
	c-0.432-0.313-0.659-0.835-1.168-1.071c-1.237-1.367-1.009-4.093-1.414-6.19c-0.126,0.013,0.066,0.084,0,0.193
	c-0.178-0.382-0.119-0.685-0.193-1.17c-0.033-0.146-0.105,0.047-0.196,0c-0.144-0.229-0.13-0.616-0.242-0.877
	c0.078-0.015,0.084,0.046,0.147,0.05c0.033-0.183-0.084-0.209-0.049-0.391c-0.107-0.128-0.163,0.151-0.294,0
	c-0.019-0.405-0.117-0.729-0.439-0.829c0.058-0.237,0.087-0.646,0-0.876c-0.222-0.06-0.172,0.298-0.34,0.147
	c-0.073-0.44,0.242-1.146,0.194-1.562c-0.194-0.048-0.021,0.272-0.194,0.244c-0.63-0.424-0.099-1.605-0.342-2.291
	c-0.064-0.08-0.217-0.074-0.293-0.146c-0.048-0.408,0.225-1.044-0.098-1.267c0.162-0.16-0.014-0.269-0.146-0.391
	c-0.212,0.048,0.047,0.568-0.244,0.536c-0.086-0.148,0.025-0.443,0.051-0.632c-0.028,0.06-0.356,0.142-0.489-0.051
	c-0.076-0.818,0.15-1.76,0-2.339c-0.326,0.292-0.157,1.076-0.584,1.269c-0.063-0.182,0.033-0.571,0.098-0.781
	c-0.348,0.022-0.294,0.453-0.535,0.584c-0.187-0.595,0.436-1.219,0.487-1.901c-0.269,0.164-0.353,0.516-0.487,0.83
	c-0.12,0.278-0.187,0.734-0.535,0.78c0.006-0.599,0.499-1.121,0.535-1.852c-0.357,0.113-0.229,0.712-0.585,0.829
	c-0.196-0.188,0.09-0.501,0-0.879c-0.072-0.16-0.058,0.164-0.194,0.098c-0.136-0.229,0.093-0.497,0.146-0.78
	c0.068-0.36-0.054-0.776,0.146-0.975c-0.126,0.015-0.207-0.016-0.193-0.146c-0.323,0.215-0.096,0.977-0.438,1.171
	c0.022-0.35,0.058-0.688,0.146-0.974c-0.009-0.109-0.124,0.062-0.244,0c0.044-0.305-0.063-0.456-0.244-0.536
	c-0.398,0.154-0.486,0.619-0.683,0.975c-0.28-0.107,0.039-0.477,0.051-0.73c-0.463-0.105-0.213,0.577-0.587,0.681
	c-0.046-0.361,0.201-0.832,0.292-1.218c0.111,0.037,0.021,0.274,0.05,0.392c0.135-0.224,0.185-0.533,0.245-0.829
	c-0.139-0.149-0.061,0.326-0.245,0.292c0.135-0.497-0.206-0.719-0.05-1.269c-0.452,0.441-0.632,1.155-1.12,1.561
	c-0.128-0.494,0.608-0.969,0.195-1.464c-0.023-0.104,0.069-0.092,0.146-0.098c-0.377-0.454,0.094-1.059,0.146-1.657
	c-0.187-0.069-0.011,0.218-0.194,0.149c0.055-0.209,0.093-0.503-0.099-0.587c-0.162,0.02-0.212,0.147-0.292,0.244
	c-0.09-0.009-0.028-0.164-0.098-0.193c-0.102,0.013-0.014,0.215-0.099,0.241c-0.126-0.603,0.509-0.884,0.537-1.362
	c0.146,0.059-0.034,0.185-0.049,0.242c0.169-0.122,0.263-0.319,0.341-0.535c-0.105-0.06-0.24-0.233-0.341-0.147
	c-0.258,0.035-0.206,0.379-0.39,0.488c-0.2-0.025-0.337-0.119-0.487-0.195c-0.491,0.29-0.954,0.608-1.27,1.072
	c-0.356-0.199,0.144-0.818-0.146-1.12c0.291-0.975-0.228-1.665,0-2.682c-0.258,0.166-0.277,0.568-0.487,0.78
	c-0.187,0.023-0.312-0.015-0.391-0.097c-0.225,0.148-0.3,0.446-0.488,0.633c-0.148-0.074,0.041-0.212,0-0.34
	c-0.484,0.348-0.21,1.152-0.486,1.461c-0.277-0.41-0.302-1.141-0.099-1.657c0.179,0.182-0.137,0.488,0,0.635
	c0.119-0.305,0.229-0.619,0.244-1.025c-0.158,0.055-0.459-0.104-0.585-0.34c-0.203,0.196-0.052,0.479-0.243,0.828
	c-0.218-0.136-0.176,0.149-0.292,0.244c-0.267-0.428,0.267-0.858,0.146-1.463c-0.346,0.288-0.378,0.889-0.682,1.219
	c-0.16-0.563,0.184-1.263,0.096-1.756c-0.319,0.166-0.21,0.767-0.34,1.122c-0.277-0.076-0.07-0.603-0.048-0.83
	c-0.04-0.107-0.172-0.12-0.244-0.193c-0.19-1.55-0.12-3.189-0.293-4.825c-0.554,0.599-0.687,1.621-0.926,2.536
	c-0.141-0.11-0.115-0.643-0.048-0.927c-0.272,0.086-0.271,0.444-0.341,0.73c-0.234-0.012-0.146-0.437-0.099-0.584
	c-0.094-1.426-0.376-2.612-0.682-3.704c0.111-0.015,0.055,0.14,0.146,0.146c0.136-0.155-0.019-0.437-0.099-0.536
	c-0.458,0.45-0.83,0.991-1.121,1.609c-0.347-0.24-0.062-1.021-0.098-1.512c-0.291-0.098-0.139,0.252-0.293,0.292
	c-0.172-0.04-0.131-0.292-0.146-0.489c-0.185-0.021-0.07,0.256-0.194,0.294c-0.193-0.49,0.331-1.132,0.194-1.755
	c-0.372,0.244-0.408,0.826-0.732,1.121c-0.319-0.003-0.114-0.545-0.097-0.781c-0.097-0.14-0.076,0.246-0.292,0.146
	c-0.148-0.385,0.17-0.698,0.193-1.071c-0.052-0.124-0.122,0.273-0.243,0.098c-0.151-0.578-0.246-1.216-0.292-1.9
	c-0.062-0.141-0.143,0.212-0.242,0.048c-0.362-0.484-0.045-1.644-0.44-2.095c0.042-0.247,0.014-0.274,0-0.536
	c-0.187-0.04-0.058,0.235-0.242,0.193c-0.15-1.012,0.112-2.028,0.242-2.924c-0.214-0.196-0.347,0.107-0.536,0.098
	c-0.11-0.067-0.089-0.268-0.242-0.294c0.156-0.513,0.109-0.88,0-1.411c-0.149-0.036-0.145,0.082-0.293,0.048
	c-0.044-0.25-0.166-0.42-0.194-0.682c-0.149,0.077-0.171,0.284-0.293,0.39c-0.325-0.15-0.046-0.634,0.05-0.975
	c0.105-0.384,0.275-0.789,0.194-1.123c-0.207,0.2-0.196,0.617-0.391,0.829c-0.319-0.23,0.107-0.869,0.099-1.266
	c-0.285-0.059-0.076,0.38-0.34,0.342c-0.195-0.218,0.085-0.613,0.096-0.926c-0.446,0.335-0.419,1.255-0.78,1.755
	c-0.235-0.288-0.096-0.821,0-1.266c0.128-0.605,0.447-1.206-0.048-1.756c-0.113,0.277-0.018,0.763-0.05,1.122
	c-0.476,0.004-0.052-0.891-0.535-0.878c-0.148-0.661-0.082-1.543-0.585-1.852c-0.359,0.292-0.332,0.966-0.585,1.365
	c-0.262-0.224-0.1-0.875-0.193-1.266c-0.006-0.095-0.183,0.075-0.245-0.049c-0.117-1.02-0.126-2.147-0.632-2.78
	c-0.234,0.206-0.409,0.468-0.391,0.927c-0.044,0.038-0.108,0.052-0.193,0.048c-0.997,1.4-0.466,4.013-0.05,5.654
	c-0.049,0.758,0.291,1.435,0.391,2.196c0,0.144-0.128,0.164-0.147,0.292c0.235,1.053,0.018,2.218-0.146,3.167
	c-0.099,0.05-0.172,0.122-0.244,0.195c0.109,0.776-0.335,0.997-0.244,1.753c-0.065-0.014-0.039-0.12-0.049-0.193
	c-0.172,0.107-0.03,0.521-0.146,0.683c-0.155,0.042-0.102-0.126-0.193-0.147c-0.069,0.426,0.04,1.006-0.195,1.365
	c-0.235,2.388-0.044,5.275,0.634,7.409c0.104-0.282,0.307,0.53,0.391,0.778c0.283,0.851,0.704,1.932,1.12,2.534
	c-0.007,0.122-0.164,0.017-0.194,0c0.086,0.498,0.553,0.619,0.633,1.122c-0.354,0.07-0.462-0.505-0.779-0.633
	c0.103,0.519,0.637,1.019,1.023,1.413c0.199,0.761,0.952,0.964,1.217,1.657c-0.455-0.29-0.799-0.695-1.169-1.071
	c0.612,0.922,1.557,1.869,2.193,3.02c-0.1,0.105-0.191-0.014-0.292-0.048c0.342,0.622,0.936,1.116,1.315,1.705
	c0.128,0.198,0.162,0.44,0.292,0.683c0.364,0.676,1.114,1.2,1.123,2.047c-0.4-0.656-0.733-1.381-1.269-1.9
	c0.233,0.449,0.73,1.059,1.025,1.608c-0.281,1.159,1.167,1.938,1.119,3.168c0.13,0.278,0.287,0.527,0.343,0.877
	c0.014,0.13-0.067,0.16-0.195,0.146c0.075,0.531,0.551,0.907,0.537,1.364c-0.194,0-0.202-0.188-0.244-0.34
	c-0.164,0.424,0.315,0.626,0.292,1.072c-0.315,0.008-0.23-0.388-0.39-0.535c-0.056,0.599,0.608,1.332,0.78,2.145
	c-0.094-0.021-0.04-0.189-0.195-0.146c0.071,0.499,0.229,0.613,0.292,1.12c-0.209,0.018-0.19-0.197-0.341-0.241
	c-0.25,0.705,0.648,1.061,0.584,1.899c-0.178,0-0.187-0.17-0.292-0.242c-0.023,0.559,0.395,1.099,0.438,1.753
	c-0.216,0.07-0.127-0.164-0.292-0.146c0.126,0.931,0.522,1.974,0.634,2.924c-0.282-0.334-0.309-0.924-0.488-1.365
	c-0.004,0.824,0.274,2.068,0.293,3.12c-0.071,0.058-0.122,0.058-0.194,0c-0.103,0.874-0.019,1.748,0.048,2.487
	c-0.132-0.403-0.32-0.753-0.34-1.267c-0.165,0.017-0.079,0.276-0.245,0.292c0.307,1.388,0.242,2.764,0.099,4.19
	c-0.117,0.021-0.106-0.088-0.243-0.048c0.021,0.303-0.1,0.828-0.048,1.317c-0.094,0.09-0.122,0.004-0.244,0
	c0.017,0.308-0.107,0.476-0.147,0.73c-0.18,0.034-0.214-0.078-0.195-0.243c-0.311,1.992-0.296,4.4,0.343,5.996
	c0.022,0.102-0.069,0.092-0.147,0.096c0.225,0.623,0.366,1.394,0,1.804c0.144,0.404-0.031,0.778-0.048,1.171
	c-0.156,0.027-0.151-0.093-0.244,0c-0.022,0.252,0.053,0.605-0.048,0.779c-0.156-0.006-0.215-0.109-0.195-0.292
	c-0.343,0.683-0.321,1.724-0.586,2.485c-0.062,0.064-0.179,0.064-0.242,0c-0.115,1.04-0.392,1.915-0.682,2.779
	c-0.135,0.035-0.099-0.098-0.196-0.098c-0.318,1.403-0.994,2.451-1.411,3.753c-0.128,0.004-0.052,0.208-0.244,0.147
	c-0.028,0.313-0.19,0.493-0.244,0.78c-0.086,0.044-0.143,0.116-0.243,0.146c-0.427,0.997-1.138,2.108-1.462,3.607
	c-0.215,0.982-0.911,1.659-1.073,2.534c-0.18,0.968-0.234,1.966,0.683,2.291c0.17,0.544,0.952,0.479,1.365,0.779
	c1.044,0.287,2.63-0.151,3.41,0.195c-0.004,0.124-0.162,0.096-0.292,0.096c0.519,0.078,1.179,0.07,1.559,0.149
	c-0.044,0.116-0.194,0.128-0.34,0.147c0.422,0.229,1.052-0.269,1.511-0.147c-0.283,0.202-0.698,0.277-1.171,0.292
	c0.528,0.078,0.983-0.054,1.512-0.099c0.13-0.017,0.16,0.067,0.146,0.193c0.233,0.021,0.407-0.014,0.586-0.048
	c0.021,0.076,0.152,0.042,0.097,0.194c0.163,0,0.325,0,0.489,0c0.151-0.021,0.137,0.124,0.194,0.195
	c1.191,0.124,1.987,0.644,3.314,0.635c0.14,0.088,0.107,0.12,0.146,0.242c0.944-0.094,1.768,0.486,2.536,0.682
	c0.185,0.049,0.371-0.015,0.535,0.049c0.088,0.032,0.109,0.166,0.241,0.243c0.299,0.174,0.615,0.174,0.732,0.536
	c0.034,0.734-0.083,1.312-0.732,1.365c0.105,0.844,0.128,2.039-0.924,1.997c-0.106,0.104-0.114,0.311-0.146,0.488
	c-0.294,0.156-0.25,0.496-0.439,0.683c-0.233,0.229-0.869,0.392-1.218,0.438c-1.547,0.204-2.977-1.141-3.704-1.706
	c-0.285,0.022-0.447,0.322-0.781,0.147c-0.029,0.405,0.038,0.71,0.05,1.073c-0.058,0.007-0.041,0.088-0.05,0.146
	c-0.468,0.23-0.455,0.699-0.974,0.827c-1.234,0.312-2.156-0.269-2.583-1.169c-0.138-0.026-0.254-0.07-0.39-0.097
	c-0.078-0.185-0.204-0.318-0.196-0.586c-1.048,0.034-1.868-0.134-2.388-0.73c-0.418,0.022-0.98,0.088-1.463,0.292
	c-0.959,0.407-2.66,0.385-3.947,0.291c-1.541-0.108-2.986-0.541-4.143-1.022c-0.123-0.283-0.385-0.429-0.635-0.585
	c-1.24,0.04-2.44,0.166-3.704,0.05c-0.849,0.256-1.297,0.912-2.29,1.022c0.347,0.652-0.203,1.247-0.146,1.755
	c-0.362,0.316-1.235,0.671-1.609,0.146c-0.953-0.04-1.476-0.639-1.998-1.219c-0.164-0.183-0.479-0.316-0.633-0.535
	c-0.379-0.538-0.155-1.275-0.39-1.997c0.41-0.58,0.799-1.183,1.217-1.756c0.692,0.062,0.858-0.788,1.608-0.828
	c0.017-0.193,0.329-0.427,0.73-0.392c-0.102-0.111-0.231-0.583,0.195-0.632c0.244,0.021-0.107,0.103-0.048,0.243
	c1.472-0.663,1.592-2.378,1.997-4.095c-0.055-0.128-0.057,0.196-0.244,0.1c-0.117-0.483,0.162-0.973,0.195-1.465
	c-0.035-0.121-0.147,0.16-0.243,0c-0.196-0.377,0.29-1.036-0.194-1.168c-0.01-0.505,0.02-1.142-0.44-1.317
	c0.002-0.323,0.022-0.627,0.1-0.876c-0.496-0.33-0.06-1.322-0.05-1.899c-0.2,0.06-0.092,0.428-0.39,0.39
	c-0.11-0.334,0.023-0.812,0.098-1.123c-0.076-0.133-0.08,0.208-0.292,0.099c0.116-0.744-0.122-1.814-0.049-2.632
	c-0.031-0.179-0.304-0.12-0.39-0.242c-0.082-1.099,0.014-2.07,0.146-3.072c-0.017-0.065-0.122-0.04-0.196-0.048
	c-0.021-0.332,0.057-0.562,0.147-0.78c-0.013-0.101-0.214-0.015-0.244-0.097c0.267-0.521,0.131-1.024,0.244-1.561
	c-0.033-0.129-0.222-0.103-0.244-0.244c0.064-0.44,0.227-0.783,0.44-1.071c0.019-0.182-0.198-0.128-0.146-0.342
	c0.618-1.297,1.427-2.406,1.948-3.803c-0.197-0.549-0.181-1.315-0.292-1.947c0.093,0.005,0.032,0.16,0.146,0.146
	c-0.106-0.623-0.258-1.207-0.634-1.56c-0.195-0.958-0.803-1.503-1.268-2.194c-0.105-0.009-0.021,0.174-0.048,0.244
	c-0.492-0.045-0.254-0.82-0.78-0.83c-0.024-0.269-0.15-0.435-0.195-0.683c-0.139,0.417,0.273,0.704,0.341,1.073
	c-0.468,0.009-0.359-0.968-0.731-1.218c-0.064,0.017,0.077,0.401-0.049,0.489c-0.473-0.503-0.604-1.345-1.266-1.657
	c-0.107,0.006-0.021,0.206-0.049,0.292c-0.092-0.138-0.135-0.32-0.194-0.489c-0.145,0.26,0.126,0.523,0.194,0.732
	c0.086-0.012,0.109-0.083,0.098-0.195c0.068,0.122,0.056,0.353-0.049,0.391c-0.575-0.433-0.453-1.562-1.121-1.901
	c-0.243,0.036,0.13,0.242-0.049,0.342c-0.323-0.277-0.188-1.015-0.585-1.218c-0.051,0.151,0.015,0.312-0.147,0.438
	c-0.283-0.188-0.008-0.933-0.487-0.926c-0.013-0.164,0.038-0.396-0.048-0.487c-0.173,0.325,0.179,0.786,0.097,1.022
	c-0.276-0.192-0.156-0.785-0.244-1.169c-0.227-0.261-0.311-0.664-0.438-1.023c-0.162,0.072-0.237,0.124-0.388,0
	c-0.05,0.29,0.208,0.481,0.146,0.633c-0.411-0.272-0.212-1.155-0.537-1.511c-0.008-0.192,0.075,0.016,0.146-0.099
	c-0.014-0.246-0.125-0.395-0.341-0.438c-0.066,0.017-0.041,0.121-0.05,0.193c-0.072-0.188-0.371-0.149-0.293-0.487
	c-0.257,0.02,0.086,0.418-0.146,0.391c-0.071-0.548-0.452-0.63-0.293-1.314c-0.057,0.015-0.168,0.21-0.049,0.241
	c-0.24,0.076-0.287-0.457-0.342-0.73c-1.166-0.102-0.506-2.028-1.266-2.535c0-0.179,0-0.356,0-0.535
	c-0.04-0.168-0.251,0.03-0.341-0.147c0-0.242,0.061-0.549-0.195-0.535c-0.048-0.362,0.188-1.174-0.049-1.56
	c-0.299-0.006-0.489,0.096-0.487,0.391c-0.188-0.045-0.482-0.288-0.585,0c-0.066-0.015-0.04-0.122-0.049-0.193
	c-0.172,0.096-0.096,0.062-0.292,0c-0.114,0.096-0.069,0.353-0.195,0.438c-0.457-0.211-0.159-1.173-0.389-1.609
	c-0.352,0.428-0.402,1.159-0.73,1.609c-0.103,0.02-0.129-0.034-0.196-0.049c-0.159,0.162-0.2,0.446-0.292,0.681
	c-0.115-0.016-0.202-0.058-0.293-0.096c-0.039,0.09-0.081,0.178-0.098,0.291c-0.067,0.166-0.024-0.507-0.391-0.243
	c-0.227,0.533-0.319,0.995-0.926,1.073c-0.143,0.264-0.25,0.562-0.341,0.875c-0.04,0.026-0.079,0.051-0.146,0.049
	c-0.073,0.452-0.477,0.743-0.683,1.171c-0.237,0.491-0.166,1.221-0.73,1.463c-0.089-0.073-0.15-0.176-0.146-0.342
	c-0.539,0.338-0.358,1.397-0.925,1.705c-0.104,0.645-0.397,1.099-0.634,1.609c-0.27-0.188-0.419-0.014-0.585,0.146
	c0.074-0.218,0.036-0.361-0.146-0.438c-0.542,0.856-0.751,2.043-1.561,2.632c-0.085,0.044-0.089,0.172-0.146,0.243
	c-0.172-0.077-0.267,0.051-0.39-0.099c-0.222,0.299-0.447,0.592-0.585,0.976c-0.058-0.01-0.041-0.09-0.049-0.147
	c-0.471,0.57-0.915,1.164-1.267,1.853c-0.056,0.04-0.131,0.064-0.244,0.05c-0.283,0.432-0.484,0.946-0.926,1.218
	c-0.188,0.332-0.231,0.807-0.633,0.927c0.098-0.44,0.42-0.655,0.536-1.073c-0.348,0.446-0.83,1.185-1.12,1.852
	c-0.118-0.021-0.106,0.09-0.244,0.048c-0.224,0.589-0.478,1.337-0.585,2.243c-0.128,1.071-0.052,2.402,0.292,3.265
	c0.036,0.134-0.096,0.099-0.097,0.196c0.191,0.652,0.518,1.171,0.682,1.852c-0.233,0.056-0.171-0.185-0.292-0.244
	c0.289,1.338,0.886,2.366,0.73,4.143c-0.217,0.288-0.13,0.879-0.146,1.365c-0.153,0.023-0.128-0.133-0.244-0.145
	c-0.001,2.638,0.13,5.496,0.049,7.991c-0.048,1.469-0.678,2.887-0.487,4.242c0.156,1.111,1.104,2.289,1.852,2.924
	c-0.077,0.104-0.098,0.262-0.147,0.392c-0.057,0.057-0.172,0.054-0.292,0.048c0.134,0.287,0.436,0.517,0.683,0.683
	c0.542,0.365,1.12,0.712,1.754,0.975c-0.164,0.146-0.382-0.069-0.585-0.049c0.351,0.25,0.866,0.336,1.267,0.536
	c-0.176,0.257-0.562-0.076-0.829-0.051c-0.053,0.097,0.322,0.13,0.146,0.391c0.083,0.019,0.091-0.037,0.097-0.099
	c1.052,0.559,1.583,1.634,2.534,2.292c-0.129,0.286,0.153,0.466,0.147,0.78c-0.117,0.24-0.411,0.305-0.341,0.73
	c-0.395,0.571-1.038,0.925-1.95,0.781c-1.736-0.276-3.167-1.698-4.777-2.047c-0.156-0.042-0.066,0.159-0.193,0.146
	c-0.607-0.232-2.371-0.714-3.119-0.781c-0.94-0.08-1.035,0.265-1.707,0.683c-0.341,0.214-0.725,0.405-1.073,0.584
	c-1.168,0.6-2.252,1.586-3.948,0.926c-0.325,0.57-0.547,1.241-0.877,1.804c-0.73,0.12-1.225,0.492-2.145,0.391
	c-0.613-0.067-1.204-0.603-1.706-0.486c-0.255,0.056-0.342,0.326-0.536,0.388c-0.171,0.057-0.509,0.054-0.682,0.05
	c-1.275-0.03-2.104-0.746-3.118-1.413c-0.755,0.807-2.711,0.604-3.315-0.194c-1.617,0.184-2.92-2.992-1.121-4.095
	c0-0.08,0-0.162,0-0.241c0.664-0.313,1.427-0.523,1.899-1.025c-0.068-0.175-0.55-0.143-0.437-0.34
	c0.178,0.128,0.904,0.052,0.975-0.244c0.509,0.006,0.898-0.108,1.266-0.244c0.042-0.104,0.127-0.166,0.098-0.341
	c0.377-0.078,0.761-0.149,1.218-0.146c0.097-0.116-0.259-0.194-0.244-0.391c0.417-0.044,0.581,0.166,0.926,0.193
	c0.138-0.076-0.263-0.174-0.097-0.292c0.196-0.063,0.511,0.038,0.829,0c0.144-0.042-0.114-0.071-0.049-0.193
	c0.354,0.052,0.625,0.188,1.073,0.146c-0.086-0.085,0.488-0.419,0.439-0.146c0.764-0.142,1.421,0.104,1.999,0
	c0.982-0.178,1.094-1.15,1.315-2.048c0.157-0.061,0.038,0.155,0.195,0.099c0.476-0.641-0.048-1.569-0.341-2.048
	c-0.904-0.948-1.188-2.518-2.242-3.314c-0.045-0.394-0.237-0.638-0.341-0.975c-0.086,0.044-0.062,0.198-0.244,0.147
	c-0.25-0.351-0.337-0.868-0.536-1.266c-0.099,0.028-0.014,0.245-0.195,0.192c-0.314-0.807-0.466-1.774-0.876-2.486
	c-0.206,0.13,0.021,0.414-0.146,0.536c-0.374-0.468-0.259-1.297-0.488-1.901c-0.084-0.222-0.292-0.342-0.243-0.583
	c-0.187,0.319,0.255,0.685,0.048,1.022c-0.299-0.17-0.131-0.809-0.292-1.122c-0.37-0.114-0.275-0.7-0.39-1.072
	c-0.085-0.155-0.128,0.126-0.293,0.05c-0.309-0.959-0.214-2.321-0.634-3.168c0.052-0.798-0.385-1.108-0.244-1.999
	c-0.005-0.093-0.181,0.075-0.244-0.049c-0.067-1.244,0.036-2.217,0.244-3.266c-0.007-0.091-0.166-0.03-0.195-0.097
	c0.705-2.611,0.963-6.118,0.488-8.872c-0.008-0.136-0.159-0.132-0.195-0.242c0.012-0.484-0.042-0.9-0.097-1.316
	c-0.205-0.073-0.007,0.252-0.147,0.244c-0.375-0.356,0.062-1.523-0.292-1.901c-0.253-0.073-0.077,0.28-0.292,0.244
	c-0.152-0.937,0.243-2.378,0.097-3.267c-0.13,0.146-0.023,0.53-0.244,0.585c0.17-0.528-0.115-0.821,0-1.413
	c0.036-0.184-0.187-0.107-0.194-0.244c0.189-0.608,0.391-1.457,0.438-2.048c-0.322,0.185-0.198,0.811-0.535,0.977
	c-0.109-0.727,0.445-1.623,0.292-2.243c-0.176-0.015,0.004,0.33-0.244,0.244c0.218-0.805,0.467-1.579,0.683-2.388
	c-0.464-0.099-0.039-0.572-0.098-0.975c-0.159-0.024-0.104,0.242-0.244,0.098c0.14-1.028,0.665-1.963,0.829-3.022
	c0.063-0.409-0.037-0.812,0.244-1.168c0.023-0.154-0.149-0.112-0.098-0.295c0.421-0.694,0.42-1.612,0.634-2.438
	c-0.07-0.128-0.109,0.181-0.292,0.099c0.253-1.213,0.981-2.346,1.316-3.461c-0.048-0.495,0.375-0.83,0.537-1.266
	c-0.068-0.112-0.111,0.21-0.341,0.096c0.116-0.354,0.026-0.35-0.048-0.681c0.13-0.194,0.214-0.04,0.341-0.098
	c-0.229-0.357,0.342-0.834,0.585-1.172c-0.009-0.136-0.232-0.06-0.194-0.241c0.266-0.416,0.61-0.755,0.925-1.122
	c-0.128-0.138-0.287,0.301-0.488,0.098c0.476-1.038,1.089-1.639,1.707-2.535c-0.154,0.063-0.399-0.094-0.635,0.048
	c0.164-0.499,0.726-0.606,0.976-1.022c0-0.18-0.286-0.071-0.243-0.291c1.343-0.982,2.231-2.737,2.34-4.777
	c0.074-1.384-0.764-2.743-0.633-4.387c-0.011-0.135-0.155-0.137-0.195-0.241c0.09-2.027-0.812-3.057-1.024-4.778
	c0.016-0.111-0.142-0.054-0.146-0.146c0-0.438-0.094-0.783-0.146-1.169c-0.008-0.059-0.089-0.042-0.146-0.05
	c0.007-1.879,0.603-4.297,0.877-6.188c-0.536-0.536-0.463-1.684-0.829-2.39c-0.497,0.204-0.189,0.88-0.194,1.269
	c0,0.09-0.084,0.134-0.098,0.242c-0.128,1.059,0.604,2.271,0.244,3.267c-0.309-0.099-0.216-0.599-0.293-0.926
	c-0.429,0.126,0.008,0.792-0.146,1.073c-0.267-0.074-0.116-0.567-0.44-0.584c-0.072,0.136-0.085,0.336-0.097,0.536
	c-0.248,0.033-0.185-0.24-0.39-0.244c-0.071,0.026,0.039,0.282,0.049,0.391c-0.145,0.018-0.241,0.083-0.292,0.194
	c0.039,0.432,0.104,0.836,0.194,1.218c-0.249-0.238-0.198-0.779-0.292-1.171c-0.151,0.851,0.255,1.564,0.391,2.291
	c-0.19,0.021-0.193,0.233-0.341,0.049c-0.026,0.304,0.04,0.514,0.098,0.732c-0.031,0.067-0.188,0.006-0.195,0.096
	c0.133,0.567,0.236,1.164,0.292,1.804c-0.14,0.134-0.259-0.026-0.39-0.049c-0.048,0.162,0.124,0.546-0.146,0.487
	c0.173,0.625,0.372,1.22,0.439,1.949c-0.389-0.308-0.043-1.352-0.682-1.413c-0.023-0.172-0.107-0.282-0.098-0.486
	c-0.15,0.05-0.41,0.176-0.585,0.048c0.062,0.767,0.349,1.309,0.341,2.146c-0.327,0.05-0.207-0.346-0.39-0.438
	c-0.143,0.062,0.049,0.466-0.292,0.438c0.167,1.061-0.5,1.604-0.341,2.582c-0.292-0.099-0.103-0.676-0.341-0.829
	c-0.303,0.889-0.265,1.874-0.195,2.828c-0.331-0.353-0.432-0.933-0.682-1.365c-0.068,0.169,0.09,0.527,0.097,0.782
	c-0.249-0.288-0.254-0.819-0.488-1.122c-0.319,0.042-0.407-0.146-0.535-0.294c-0.291,0.361-0.158,1.143-0.488,1.464
	c0.003-0.288,0.083-0.502,0.098-0.781c-0.316,0.943-0.542,1.722-0.585,2.877c-0.204,0.042-0.107-0.219-0.195-0.293
	c-0.039,0.026-0.079,0.052-0.146,0.05c-0.142,0.281,0.043,0.888-0.098,1.171c-0.41-0.11-0.133-0.907-0.292-1.268
	c-0.188-0.074-0.36-0.162-0.438-0.342c-0.35,0.561-0.379,1.44-0.78,1.949c0.169-0.69,0.425-1.297,0.585-1.997
	c-0.718,1.108-0.634,2.72-0.829,4.337c-0.138-0.008-0.207-0.084-0.194-0.244c-0.209,0.538,0.042,1.402,0.049,2.146
	c-0.449-0.444-0.385-1.401-0.828-1.852c-0.223,0.332-0.024,0.92-0.049,1.363c-0.122-0.004-0.151-0.091-0.244,0
	c-0.089,0.692,0.188,1.017,0.244,1.56c-0.208,0.028-0.227-0.132-0.293-0.243c-0.093,0.006,0.077,0.183-0.048,0.243
	c-0.276-0.308-0.258-0.91-0.585-1.171c-0.121,0.269,0.169,0.546,0.146,0.878c-0.062,0.238-0.189-0.208-0.341-0.196
	c-0.342,0.118-0.058,0.563-0.487,0.587c0,0.308,0,0.617,0,0.924c-0.066,0-0.129,0-0.195,0c0.02,0.316,0.175,0.721,0.048,1.025
	c-0.362-0.015-0.268-0.48-0.341-0.781c-0.092-0.054-0.23-0.062-0.341-0.098c-0.114,0.088,0.113,0.411-0.048,0.535
	c-0.251-0.052-0.157-0.321-0.146-0.535c-0.108-0.044-0.103,0.148-0.341,0.098c0.065,0.625,0.212,1.624-0.098,2.242
	c-0.273,0.046-0.014-0.44-0.341-0.341c-0.159,0.107-0.026,0.108,0,0.244c0.022,0.2-0.123-0.002-0.194,0
	c-0.111,0.036-0.02,0.272-0.048,0.389c-0.463,0.106-0.443-0.272-0.634-0.438c-0.039,0.026-0.08,0.053-0.147,0.05
	c-0.078,0.349,0.423,0.767,0.341,1.121c-0.236-0.006-0.195-0.292-0.341-0.39c-0.18,0.168,0.104,0.542-0.049,0.682
	c-0.284,0.042-0.087-0.4-0.146-0.584c-0.078,0.101-0.017,0.34-0.292,0.242c-0.04,0.316,0.174,0.378,0.146,0.683
	c-0.2-0.141-0.513-0.17-0.585-0.438c-0.076,0.021-0.042,0.152-0.195,0.098c-0.138-0.238-0.165-0.582-0.39-0.732
	c-0.033,0.541,0.165,1.071-0.048,1.463c0.036,0.601,0.461,1.062,0.292,1.706c-0.323-0.019-0.379-0.303-0.633-0.389
	c-0.286,0.816,0.495,1.379,0.633,2.096c-0.175,0.052-0.32,0.136-0.439,0.244c0.133,0.176,0.374,0.242,0.487,0.438
	c-0.001,0.142-0.275,0.113-0.341,0.048c0.128,0.262,0.568,0.212,0.583,0.584c-0.408,0.004-0.615-0.196-0.925-0.292
	c-0.167,0.048-0.19,0.267-0.391,0.146c0.28,0.288,0.223,0.915,0.438,1.267c-0.093-0.021-0.123-0.104-0.244-0.097
	c0.17,0.48,0.838,1.129,0.488,1.657c0.51,0.545,1.013,1.098,1.608,1.56c0.586,1.104,2.085,1.295,2.243,2.826
	c0.249-0.435,0.653-0.711,1.072-0.973c0.392,0.16,0.822,0.282,1.073,0.584c0.279,1.062,0.03,2.125-0.245,3.02
	c0.092,0.088,0.323,0.036,0.489,0.051c0.337,0.486,0.866,0.528,0.925,1.217c0.047,0.547-0.09,1.221-0.195,1.707
	c-0.139,0.65-0.5,1.189-0.828,1.705c-0.135,0.215-0.238,0.484-0.341,0.585c-0.135,0.132-0.346,0.142-0.487,0.243
	c-0.235,0.174-0.341,0.445-0.536,0.634c-0.296,0.289-0.689,0.345-1.072,0.584c-0.417,0.263-0.69,0.915-1.315,0.781
	c-0.108,0.006-0.021,0.206-0.048,0.292c-0.481-0.055-0.784-0.29-1.219-0.391c-0.062,0.187,0.591,0.307,0.487,0.536
	c-0.426-0.19-0.858-0.376-1.169-0.683c-0.096,0.002-0.062,0.134-0.194,0.098c-0.345-0.405-1.025-0.568-1.462-0.925
	c-0.419-0.343-0.77-0.832-1.317-1.122c-0.327-0.174-0.767-0.13-0.975-0.438c-0.125-0.054-0.232,0.149-0.292,0
	c-0.349-0.254-0.46-0.742-0.83-0.975c-0.002,0.146,0.144,0.246,0.048,0.34c-0.394-0.106-0.496-0.51-0.73-0.778
	c-0.338,0.048-0.762-0.452-0.975-0.828c-0.158-0.044-0.068,0.16-0.196,0.146c-0.273-0.102-0.339-0.408-0.487-0.634
	c-0.133,0.044,0.086,0.17-0.048,0.244c-0.325-0.181-0.349-0.659-0.585-0.927c-0.222,0.107,0.131,0.386,0,0.536
	c-0.276-0.456-0.424-1.039-0.732-1.463c-0.134-0.022,0.039,0.266-0.097,0.244c-0.184-0.013-0.19-0.2-0.244-0.34
	c-0.083-0.002-0.126,0.034-0.146,0.096c-0.119-0.124-0.182-0.307-0.39-0.34c-0.085-0.435-0.438-0.601-0.683-0.877
	c-0.065-0.715-0.421-1.139-0.537-1.806c-0.182,0.238,0.201,0.463,0.048,0.683c-0.227-0.08-0.186-0.43-0.292-0.632
	c-0.152-0.175-0.442-0.209-0.439-0.537c-0.137,0.006-0.207,0.186-0.341,0.048c-0.087-0.154-0.028-0.457-0.097-0.631
	c-0.071-0.13-0.109,0.178-0.292,0.096c-0.192-0.31-0.082-0.924-0.194-1.313c-0.119,0.174-0.111,0.474-0.341,0.535
	c-0.214-0.355,0.062-0.905-0.195-1.267c-0.243,0-0.155,0.33-0.293,0.439c-0.263-0.062-0.077-0.381-0.097-0.585
	c-0.031-0.322-0.175-0.702-0.098-1.072c-0.128,0.147-0.129,0.422-0.439,0.39c-0.137-0.32,0.078-0.988-0.244-1.12
	c0-0.229,0-0.457,0-0.683c-0.56-0.303-0.387-1.335-1.024-1.562c-0.063-0.488-0.089-1.015-0.147-1.511
	c-0.226-0.046-0.065,0.292-0.292,0.244c-0.103-0.204-0.022-0.595-0.048-0.877c-0.005-0.124-0.165-0.098-0.293-0.098
	c-0.008-0.303,0.056-0.376,0-0.635c-0.167,0.36,0.044,0.729-0.048,1.024c-0.262-0.688-0.105-1.711-0.244-2.388
	c-0.136,0.093,0.007,0.461-0.195,0.486c-0.063-0.319,0.148-0.616-0.049-0.78c-0.212-0.01-0.234,0.353-0.438,0.196
	c0.164-0.21,0.151-0.597,0.488-0.635c-0.086-0.103-0.11-0.145-0.049-0.292c-0.065-0.08-0.216-0.076-0.292-0.146
	c0.227-0.657-0.168-1.155,0.146-1.852c-0.012-0.104-0.215-0.016-0.244-0.1c0.769-1.637,1.077-3.805,1.707-5.556
	c0.043-0.155-0.076-0.151-0.098-0.243c0.801-2.36,1.633-4.861,2.583-6.922c-0.026-0.117-0.187-0.104-0.145-0.291
	c0.246,0.016,0.369-0.204,0.486-0.439c-0.171-0.153-0.163,0.288-0.341,0.292c0.162-0.824,0.731-1.613,0.78-2.485
	c0.006-0.11-0.068-0.284-0.048-0.39c0.115-0.593,0.693-0.973,0.877-1.463c-0.147,0.058-0.26,0.148-0.439,0.048
	c0.02-0.386,0.292-0.521,0.39-0.827c-0.096-0.231-0.225-0.424-0.487-0.489c0.144-0.637,0.595-0.964,0.827-1.512
	c-0.021-0.19-0.263-0.158-0.389-0.242c0.852-2.026,2.258-3.494,3.413-5.216c1.354-1.701,3.206-2.902,3.996-5.167
	c-0.042-0.143-0.158,0.03-0.243,0c0.066-0.16,0.128-0.326,0.194-0.489c-0.06,0.021-0.101,0.063-0.098,0.148
	c0.089-0.748,0.216-1.882,0.439-2.534c-0.065-0.022-0.128-0.022-0.098-0.243c0.107-0.13,0.122,0.168,0.195-0.05
	c0.042-0.258-0.12-0.007-0.146-0.195c0.296-0.946,0.416-1.93,0.536-2.826c-0.25-0.339,0.055-0.728,0.194-1.22
	c0.122-0.422,0.166-1.022,0.293-1.51c0.074-0.288,0.263-0.52,0.292-0.731c0.126-0.937,0.578-2.119,1.024-2.827
	c-0.005-0.094-0.181,0.075-0.244-0.05c0.495-0.797,0.946-1.354,1.462-2.095c-0.137-0.118-0.13,0.322-0.389,0.244
	c0.191-0.638,0.551-1.105,0.975-1.512c0.036-0.149-0.084-0.143-0.05-0.292c0.322-0.214,0.531-0.542,0.781-0.829
	c0.061-0.158-0.158-0.038-0.099-0.196c0.224-0.458,0.722-0.642,0.877-1.169c1.061-0.743,1.299-2.308,2.145-3.267
	c0-0.129,0-0.259,0-0.389c0.503-0.488,0.558-1.424,1.024-1.95c-0.114-0.606,0.462-0.886,0.634-1.363
	c-0.08-0.856,0.63-1.267,0.974-1.853c-0.219-0.332,0.193-0.548,0.147-0.78c-0.208-0.076-0.244,0.438-0.536,0.439
	c0.48-0.551,0.955-1.207,1.413-1.9c-0.005-0.095-0.181,0.075-0.244-0.048c0.546-0.494,1.07-1.01,1.512-1.609
	c0.085-0.172-0.033-0.12-0.049-0.292c0.13-0.065,0.258-0.132,0.39-0.195c0.173-0.233,0.454-0.36,0.585-0.634
	c2.216-1.409,4.918-2.803,7.944-3.655c2.385-0.672,5.14-0.81,7.36-2.047c0.066-0.047,0.097-0.13,0.147-0.195
	c0.257-0.018,0.417-0.133,0.583-0.243c0.061-0.103,0.119-0.206,0.195-0.293c0.366-0.171,0.838-0.234,0.927-0.684
	c0.175-0.052,0.301-0.151,0.437-0.243c-0.034-0.045-0.088-0.074-0.146-0.098c0.31-0.356,0.768-0.565,0.828-1.17
	c0.107-0.009,0.156,0.04,0.147,0.146c0.131-0.015,0.087-0.205,0.195-0.243c-0.312-0.23,0.032-0.606,0-1.072
	c-0.183-0.214-0.165-0.806,0.048-1.024c-0.192-0.191-0.079-0.577-0.048-0.975c-0.108-0.15-0.111-0.41-0.195-0.585
	c0.38-0.522,0.227-1.221,0.098-1.51c-0.073-0.161-0.059,0.163-0.195,0.098c0.287-0.584,0.13-1.064,0.585-1.561
	c0.078-0.191-0.211-0.017-0.194-0.146c0.393-0.434,0.666-0.99,0.877-1.608c-0.571-0.621,0.046-1.583,0.244-2.29
	c-0.147-0.259-0.202-0.612-0.39-0.829c0.089-0.25,0.106-0.409-0.048-0.585c0.024-0.219,0.151-0.335,0.243-0.488
	c0.014-0.591-0.291-0.822-0.147-1.268c0.117-0.36,0.708-0.518,0.877-0.925c0.11-0.266-0.134-0.406,0.146-0.633
	c-0.049-0.064-0.132-0.096-0.146-0.195c0.128-0.45,0.372-1.106,0.341-1.414c0.335-0.518,0.46-1.139,0.438-1.707
	c0.121-0.025,0.173-0.119,0.244-0.194c0.059-0.729,0.764-1.215,0.877-2.048c0.312-0.291,0.498-0.705,0.83-0.975
	c0.054-0.06,0.042-0.1-0.049-0.098c0.256-0.214,0.376-0.566,0.78-0.634c0.008-0.139-0.32,0.059-0.244-0.146
	c0.366-0.268,1.154-0.319,1.218-0.731c0.228,0.032,0.313-0.077,0.487-0.098c-0.004-0.125-0.163-0.097-0.292-0.098
	c1.267-0.201,1.97-1.105,3.168-0.876c0.068-0.018,0.004-0.086-0.048-0.098c0.125-0.121,0.373,0.046,0.536,0.048
	c0.134-0.122-0.298-0.089-0.243-0.292c0.353,0.053,0.555,0.256,0.926,0.292c0.151-0.093-0.348-0.198-0.195-0.292
	c0.288,0.021,0.443,0.174,0.731,0.195c0.133-0.044-0.148-0.11,0-0.195c0.22,0.021,0.289,0.198,0.536,0.195
	c0.172-0.006-0.104-0.162,0.049-0.147c0.494,0.011,0.853,0.3,1.462,0.341c0.119-0.075-0.18-0.141-0.244-0.194
	c0.297-0.064,0.715,0.113,1.024,0.048c-0.09-0.072-0.231-0.093-0.389-0.097c0.394-0.223,1.045,0.149,1.657,0.146
	c-0.19-0.117-0.487-0.129-0.731-0.194c0.02-0.143,0.287-0.04,0.341-0.147C95.122,18.59,95.542,18.261,96.124,18.168z"/>
</svg>
