<?xml version="1.0" encoding="utf-8"?>
<!-- Generator: Adobe Illustrator 15.0.0, SVG Export Plug-In . SVG Version: 6.00 Build 0)  -->
<svg version="1.2" baseProfile="tiny" id="Layer_1" xmlns="http://www.w3.org/2000/svg" xmlns:xlink="http://www.w3.org/1999/xlink"
	 x="0px" y="0px" width="200px" height="200px" viewBox="0 0 200 200" overflow="inherit" xml:space="preserve">
<g>
	<path id="path3_1_" fill="#010101" d="M50.968,90.812c0.038-0.004,0.08,0.002,0.126,0.016c0.003-0.03,0.012-0.061,0.025-0.093
		c-0.024-0.026-0.05-0.054-0.078-0.088c0.016-0.019,0.039-0.035,0.071-0.05l0.045-0.012c0.015,0.008,0.029,0.018,0.04,0.023
		c0.012-0.015,0.024-0.03,0.039-0.045l0-0.006l0.001,0.002c0.065-0.073,0.149-0.15,0.256-0.228c0.118-0.087,0.213-0.136,0.284-0.149
		c-0.012-0.006-0.027-0.015-0.041-0.022c0.007-0.007,0.036-0.01,0.088-0.009c0.04,0.003,0.057-0.021,0.052-0.074
		c0-0.003-0.023-0.018-0.067-0.045c-0.049-0.031-0.08-0.059-0.092-0.082c0.044-0.004,0.136,0.01,0.274,0.042
		c0.019-0.033,0.036-0.067,0.053-0.103c-0.078-0.05-0.122-0.088-0.134-0.116c0.016-0.02,0.039-0.036,0.069-0.049l0.046-0.016
		c0.029,0.015,0.058,0.028,0.09,0.041c0.008-0.015,0.013-0.029,0.021-0.041c-0.053-0.027-0.115-0.059-0.188-0.097
		c-0.024-0.026,0.007-0.043,0.096-0.051c0.022-0.002,0.073,0.008,0.149,0.029c0.013-0.023,0.026-0.047,0.036-0.072
		c0.002-0.006,0.006-0.012,0.008-0.02c-0.026-0.021-0.04-0.034-0.041-0.042c-0.005-0.055,0.003-0.086,0.024-0.093l0.037,0.008
		c0.007,0.001,0.021,0.007,0.042,0.015c0.062-0.111,0.153-0.265,0.27-0.46c0.067,0.015,0.111,0.021,0.134,0.019
		c-0.006-0.064-0.006-0.12-0.002-0.168c-0.046-0.031-0.091-0.05-0.134-0.056c0.014-0.024,0.065-0.048,0.15-0.066
		c0.003,0.001,0.006,0.002,0.008,0.004c0.013-0.032,0.03-0.057,0.051-0.076c0.006-0.006,0.012-0.01,0.018-0.016
		c0.083-0.014,0.123-0.036,0.121-0.063c-0.014-0.143,0.066-0.176,0.239-0.102l-0.012-0.009c-0.063-0.188-0.001-0.342,0.184-0.461
		c0.203-0.085,0.308-0.129,0.315-0.129c0.041-0.004,0.089,0.011,0.141,0.049c0.05,0.035,0.096,0.049,0.142,0.046
		c0.042-0.005,0.065-0.026,0.069-0.065c0-0.042,0.021-0.064,0.066-0.069c0.053-0.005,0.09,0.004,0.113,0.026
		c0.013,0.023,0.024,0.036,0.035,0.039l-0.013-0.025c-0.012-0.136,0.056-0.271,0.206-0.405c0.117-0.106,0.198-0.161,0.244-0.166
		c0.051-0.003,0.089,0.005,0.113,0.027l0.033,0.028c-0.002-0.106,0.053-0.188,0.167-0.247c0.12-0.043,0.182-0.065,0.19-0.066
		c0.168-0.118,0.334-0.215,0.5-0.295c0.325-0.164,0.497-0.159,0.514,0.015c0.005,0.056,0.005,0.088,0.002,0.095
		c-0.002,0.004-0.01,0.008-0.018,0.013c0.058-0.009,0.129,0.003,0.208,0.038c0.07,0.036,0.109,0.053,0.116,0.053
		c0.031-0.002,0.088-0.043,0.168-0.121c0.081-0.078,0.155-0.12,0.22-0.126c0.052-0.005,0.09,0.002,0.113,0.021l0.035,0.029
		c-0.008,0.106-0.006,0.164,0.006,0.174c0.257-0.141,0.4-0.212,0.428-0.214c0.016-0.001,0.031-0.001,0.045,0.001
		c0.106-0.07,0.223-0.132,0.35-0.186c0.241-0.1,0.442-0.137,0.602-0.114c0.189,0.029,0.292,0.136,0.31,0.325
		c0.001,0.014,0.001,0.028-0.001,0.042c0.083-0.046,0.133-0.07,0.151-0.072c0.05-0.004,0.082-0.002,0.096,0.008
		c0.015,0.004,0.028,0.006,0.038,0.006l0.012,0.12c-0.071,0.073-0.125,0.127-0.168,0.165c0.04,0.001,0.081,0.004,0.123,0.006
		c0.057-0.024,0.123-0.058,0.198-0.101c0.167-0.1,0.253-0.15,0.262-0.151c0.051-0.004,0.082-0.001,0.09,0.012l0.018,0.021
		c0.004,0.031-0.001,0.067-0.016,0.112c-0.013,0.037-0.02,0.057-0.021,0.06c0.048-0.019,0.126-0.06,0.236-0.122
		c0.094-0.055,0.15-0.083,0.167-0.084c0.055-0.005,0.088,0,0.097,0.018c0.002,0.021,0.009,0.037,0.02,0.05
		c0.002,0.078-0.035,0.164-0.113,0.256c0.043,0.005,0.087,0.01,0.13,0.016c0.037-0.021,0.076-0.044,0.118-0.068
		c0.188-0.102,0.292-0.154,0.313-0.156c0.083-0.007,0.146,0.013,0.19,0.062c0.005,0.055-0.007,0.109-0.038,0.162
		c0.049-0.004,0.144-0.052,0.288-0.143l0.212-0.142c0.052-0.004,0.084-0.001,0.091,0.013l0.019,0.02l0.015,0.156
		c0.047-0.015,0.113-0.025,0.197-0.034c0.08-0.008,0.129-0.007,0.148,0.002c0.004,0.041-0.006,0.087-0.03,0.135
		c-0.02,0.04-0.031,0.062-0.031,0.066c0.272-0.138,0.42-0.208,0.439-0.209c0.056-0.006,0.08-0.001,0.07,0.014l-0.024,0.018
		c0.026-0.012,0.069-0.011,0.127,0.008c0.035,0.015,0.051,0,0.049-0.046l0.003,0.037c-0.094,0.086-0.235,0.201-0.422,0.346
		c-0.002,0.002-0.005,0.003-0.008,0.005c0.231,0.042,0.458,0.089,0.683,0.14c0.059-0.055,0.119-0.106,0.179-0.157
		c0.457-0.38,0.704-0.37,0.742,0.033c0.003,0.037-0.044,0.129-0.144,0.276c-0.008,0.011-0.016,0.021-0.022,0.031
		c0.025,0.006,0.049,0.014,0.075,0.019c0.052-0.04,0.114-0.089,0.187-0.146c0.228-0.183,0.376-0.278,0.442-0.284
		c0.053-0.004,0.102,0.01,0.148,0.045l0.072,0.05c0.029-0.083,0.047-0.139,0.059-0.164c0.014-0.043,0.075-0.07,0.183-0.08
		c0.125-0.011,0.196,0.064,0.21,0.229c0.008,0.091-0.032,0.208-0.125,0.355c0.047-0.017,0.173-0.103,0.377-0.264
		c0.197-0.155,0.308-0.235,0.337-0.237c0.047-0.003,0.089,0.003,0.122,0.021c0.033,0.019,0.055,0.026,0.066,0.025
		c0.013,0.079,0.023,0.135,0.026,0.166c0.009,0.059,0.009,0.1,0.006,0.121l0.14-0.088c0.069-0.046,0.13-0.069,0.182-0.074
		c0.112-0.01,0.18,0.028,0.207,0.118c0.002,0.104,0.005,0.17,0.007,0.194c0.018-0.005,0.057-0.031,0.12-0.08
		c0.056-0.039,0.108-0.063,0.157-0.067c0.052-0.004,0.095,0.004,0.124,0.024l0.044,0.029l0.032,0.113
		c-0.004,0.028-0.017,0.066-0.038,0.114c-0.014,0.04-0.021,0.062-0.02,0.066c0.085-0.02,0.164-0.031,0.237-0.036
		c0.32-0.248,0.52-0.365,0.599-0.349c-0.014,0.12-0.061,0.247-0.139,0.379c0.199,0.003,0.334,0.061,0.406,0.174
		c0.197-0.094,0.295-0.142,0.298-0.142l0.024,0.035c-0.092,0.078-0.183,0.153-0.275,0.224c0.006,0.019,0.01,0.04,0.012,0.063
		c0.007,0.081-0.056,0.16-0.188,0.239c-0.084,0.054-0.247,0.153-0.494,0.3l0.103-0.021c0.023-0.009,0.194-0.086,0.506-0.231
		c0.267-0.125,0.427-0.188,0.479-0.193c0.056-0.004,0.103,0.013,0.141,0.05c0.035,0.036,0.054,0.074,0.059,0.116
		c0.005,0.053,0.003,0.082-0.001,0.089c-0.008,0.001-0.012,0.002-0.01,0.007c0.394-0.083,0.6-0.023,0.618,0.18
		c0.006,0.062-0.054,0.147-0.182,0.254l0.023,0.035l0.063,0.046c0.061-0.027,0.125-0.041,0.191-0.044
		c0.06,0.003,0.1,0.005,0.117,0.006l0.041,0.153c-0.036,0.077-0.112,0.153-0.232,0.228c-0.067,0.042-0.154,0.089-0.261,0.145
		l0.006,0.017c0.154-0.055,0.368-0.127,0.646-0.22c0.258-0.087,0.392-0.131,0.399-0.132c0.055-0.005,0.09,0.003,0.102,0.028
		l0.008,0.031l0.016,0.115c-0.058,0.058-0.155,0.141-0.292,0.254l0.079-0.008c0.03-0.031,0.072-0.059,0.128-0.086
		c0.07-0.038,0.136-0.059,0.195-0.065c0.056-0.005,0.086-0.002,0.09,0.008l-0.009,0.01l0.008,0.08
		c-0.014,0.012-0.042,0.033-0.089,0.065c-0.04,0.025-0.06,0.043-0.058,0.054c0.124,0.019,0.203,0.038,0.239,0.057
		c0.046,0,0.081,0.005,0.11,0.016c0.09,0.034,0.171,0.044,0.24,0.031c0.007-0.034,0.015-0.005,0.023,0.081
		c0.005,0.056,0.002,0.083-0.007,0.081c-0.004,0-0.008-0.005-0.013-0.015c-0.01,0.003-0.091,0.08-0.239,0.229
		c0.016-0.009,0.035-0.018,0.053-0.026c0.157-0.078,0.323-0.125,0.494-0.141c0.208-0.02,0.322,0.064,0.338,0.252
		c0.001,0.016,0,0.031-0.006,0.05c0.106-0.022,0.219-0.043,0.338-0.063c0.422-0.072,0.803-0.109,1.14-0.112
		c0.348-0.001,0.526,0.039,0.534,0.118c0.005,0.053-0.023,0.115-0.083,0.188c-0.067,0.08-0.144,0.124-0.231,0.133l0.035,0.075
		l0.157-0.004c0.326-0.051,0.551-0.048,0.676,0.011c0.066,0.029,0.102,0.071,0.106,0.128c0.005,0.055-0.002,0.094-0.021,0.118
		c-0.013,0.011-0.036,0.027-0.07,0.048c0.032,0.014,0.056,0.03,0.068,0.046l0.012,0.015c0.246-0.016,0.423-0.011,0.529,0.015
		c0.108,0.02,0.193,0.072,0.256,0.148c-0.074,0.072-0.149,0.126-0.227,0.165l-1.746,0.179c0.364-0.023,0.65-0.04,0.86-0.054
		c0.388-0.022,0.787-0.012,1.196,0.031c0.106,0.011,0.222,0.042,0.346,0.094c0.086,0.035,0.162,0.077,0.228,0.125
		c0.417-0.04,0.68-0.032,0.788,0.024c-0.009,0.018-0.026,0.036-0.057,0.057c-0.028,0.019-0.04,0.027-0.038,0.031
		c-0.226,0.032-0.428,0.062-0.61,0.088c-0.02,0.019-0.041,0.032-0.064,0.044c-0.433,0.066-0.776,0.143-1.03,0.227
		c0.573-0.081,0.938-0.105,1.097-0.07c0.031,0.007,0.054,0.021,0.07,0.043c0.02-0.007,0.04-0.013,0.059-0.019
		c0.42-0.133,0.714-0.216,0.88-0.246c-0.101,0.068-0.385,0.203-0.855,0.4c0.038,0.004,0.077,0.014,0.123,0.026
		c0.087,0.027,0.149,0.04,0.188,0.036l0.385-0.184c0.046-0.003,0.133,0.038,0.264,0.124c0.133,0.089,0.233,0.182,0.305,0.279
		c0.232-0.105,0.368-0.149,0.406-0.135c-0.099,0.11-0.246,0.23-0.438,0.36c0.016-0.009,0.03-0.019,0.047-0.028
		c0.386-0.227,0.657-0.347,0.811-0.361c0.087-0.008,0.134,0.033,0.142,0.12c-0.033,0.062-0.157,0.172-0.375,0.33
		c-0.263,0.198-0.433,0.331-0.507,0.401l0.032-0.002c0.119-0.104,0.214-0.182,0.289-0.238c0.139-0.101,0.274-0.157,0.407-0.17
		c0.053-0.004,0.091-0.004,0.116,0.004l0.043,0.007l0.015,0.104c-0.039,0.039-0.143,0.116-0.311,0.23
		c-0.138,0.093-0.226,0.153-0.262,0.18c0.13-0.068,0.273-0.136,0.436-0.206c0.533-0.231,0.94-0.309,1.221-0.234
		c0.084-0.028,0.143-0.04,0.173-0.035c-0.024,0.048-0.194,0.163-0.51,0.339c-0.011,0.063-0.035,0.125-0.07,0.189
		c0.052,0.024,0.148,0.041,0.291,0.053c0.091,0.005,0.14,0.038,0.146,0.097c0.006,0.062-0.006,0.109-0.04,0.14
		c-0.074,0.064-0.239,0.107-0.494,0.131c-0.067,0.007-0.186,0.007-0.356,0.001c0.046,0.019,0.09,0.036,0.134,0.054
		c0.053,0.005,0.098,0.012,0.135,0.015c0.102,0.016,0.3,0.017,0.593,0.006c0.296-0.044,0.524-0.084,0.683-0.12
		c0.035-0.009,0.054-0.012,0.058-0.005c0.009,0.023,0.039,0.045,0.09,0.065c-0.033,0.006-0.15,0.029-0.352,0.072
		c0.075,0.049,0.113,0.087,0.116,0.119c0.005,0.052,0.001,0.085-0.011,0.097l-0.014,0.017l-0.224,0.031l0.105,0.006
		c0.649-0.05,1.039-0.055,1.166-0.014c0.038,0.014,0.056,0.036,0.052,0.065c-0.004,0.03-0.002,0.05,0.005,0.056
		c0.008-0.002,0.017-0.004,0.026-0.007c0.146-0.049,0.209-0.03,0.189,0.056c-0.015,0.026-0.021,0.047-0.02,0.065l-0.276,0.047
		c-0.044,0.007-0.085,0.014-0.122,0.019c-0.027,0.018-0.042,0.026-0.042,0.027c-0.186,0.015-0.345,0.022-0.479,0.025
		c-0.016,0-0.03,0.001-0.044,0.002c0.061,0.022,0.121,0.046,0.179,0.069c0.187,0.04,0.532,0.048,1.041,0.023
		c0.038,0,0.065,0.001,0.079,0.004c0.029,0.007,0.046,0.04,0.052,0.094c0.005,0.056-0.003,0.093-0.021,0.108
		c-0.014,0.009-0.043,0.019-0.088,0.029c0.126-0.008,0.371,0.049,0.734,0.168c0.352,0.115,0.529,0.192,0.533,0.23
		c0.003,0.032,0.03,0.085,0.079,0.157c0.042,0.055,0.067,0.097,0.078,0.126c0.618,0.048,1.08,0.135,1.382,0.259
		c-0.029,0.056-0.043,0.092-0.042,0.11c-0.195-0.011-0.429-0.014-0.699-0.015c0.008,0.005,0.016,0.01,0.023,0.015
		c0.035,0.004,0.07,0.007,0.107,0.011c0.23,0.021,0.434,0.05,0.609,0.085c0.593,0.064,0.983,0.117,1.17,0.161
		c-0.008,0.016-0.036,0.033-0.084,0.055c-0.024,0.008-0.047,0.017-0.067,0.022c-0.103-0.016-0.255-0.032-0.455-0.046l-0.003,0.052
		c-0.026,0.014-0.053,0.025-0.081,0.033c0.576,0.051,0.991,0.119,1.249,0.202c-0.361,0.003-0.677,0.007-0.944,0.008
		c0.208,0.057,0.442,0.118,0.699,0.186c-0.004,0.018-0.005,0.036-0.006,0.053c0.133,0.026,0.2,0.046,0.201,0.064
		c0.005,0.055,0.007,0.083,0.003,0.083c-0.004,0.004-0.006,0.001-0.006-0.01c-0.016,0.018-0.05,0.038-0.107,0.06
		c0.049,0.033,0.117,0.045,0.205,0.036c0.12-0.011,0.234-0.04,0.344-0.085c0.427,0.151,0.829,0.29,1.207,0.415
		c0.002,0.004,0.005,0.006,0.007,0.01c0.122,0.037,0.234,0.071,0.338,0.103c0.06,0.018,0.117,0.034,0.17,0.051l0,0.002
		c0.112,0.037,0.223,0.071,0.331,0.104c0.562-0.043,0.854-0.049,0.877-0.019c-0.028,0.047-0.202,0.088-0.521,0.124
		c0.053,0.019,0.105,0.033,0.156,0.047c0.02,0.002,0.04,0.005,0.059,0.008c0.188-0.018,0.4-0.035,0.634-0.05
		c0.293-0.019,0.496-0.018,0.602,0c0.061,0.009,0.126,0.036,0.197,0.083c-0.014,0.024-0.048,0.049-0.099,0.072
		c-0.11-0.001-0.313,0.007-0.614,0.026c0.102,0.024,0.202,0.053,0.298,0.083c-0.004,0.016-0.015,0.033-0.029,0.054
		c0.275,0.062,0.521,0.111,0.742,0.143l0.166-0.016c0.355-0.021,0.647-0.029,0.873-0.018c0.179,0.018,0.301,0.026,0.367,0.023
		l-0.022,0.039c-0.015,0.03-0.028,0.049-0.038,0.057c-0.016,0.012-0.053,0.02-0.112,0.025c-0.047,0.004-0.13-0.001-0.25-0.018
		c-0.014,0-0.025-0.001-0.038-0.002c0.199,0.077,0.385,0.146,0.556,0.21c-0.001,0.016-0.001,0.031,0,0.049
		c0.008,0.087,0.049,0.146,0.122,0.173c0.044,0.021,0.094,0.028,0.149,0.023c0.107-0.011,0.206-0.025,0.296-0.046
		c0.184,0.061,0.339,0.107,0.469,0.143c0.021-0.002,0.041-0.004,0.062-0.006c0.339-0.031,0.525-0.043,0.562-0.037
		c-0.002,0.018-0.018,0.039-0.048,0.063l-0.058,0.053l-0.156,0.017c0.162,0.042,0.338,0.087,0.53,0.138
		c0.06,0.002,0.123,0.004,0.188,0.005c0.108-0.055,0.185-0.116,0.228-0.182c-0.063-0.001-0.097-0.021-0.1-0.054
		c0.033-0.032,0.063-0.047,0.09-0.051c0.011,0.006,0.022,0.014,0.033,0.019c0.016,0.012,0.026,0.046,0.03,0.098
		c0.008,0.073-0.017,0.13-0.072,0.175c0.169,0.001,0.353-0.001,0.55-0.004c-0.198,0.042-0.292,0.136-0.278,0.273
		c0.004,0.042,0.018,0.079,0.042,0.112c0.037,0.05,0.09,0.072,0.16,0.065c0.191-0.018,0.357-0.048,0.5-0.089
		c0.022,0.004,0.043,0.012,0.065,0.017c0.162-0.066,0.255-0.073,0.28-0.023c-0.003,0.004-0.038,0.029-0.104,0.072
		c0.205,0.056,0.416,0.115,0.637,0.178c0.123-0.02,0.214-0.032,0.273-0.04c0.243-0.03,0.405-0.017,0.485,0.038
		c-0.055,0.008-0.198,0.039-0.433,0.091c0.176,0.049,0.357,0.1,0.544,0.152c0.037-0.004,0.073-0.008,0.11-0.011
		c1.106-0.092,1.777-0.137,2.015-0.13c0.101,0.034,0.201,0.058,0.302,0.072c-0.154,0.011-0.239,0.024-0.255,0.04
		c-0.029,0.034-0.05,0.054-0.063,0.058c-0.107,0.044-0.407,0.096-0.896,0.155c0.196,0.009,0.405,0.021,0.626,0.036
		c0.171-0.014,0.392-0.033,0.662-0.058c0.057,0.044,0.112,0.083,0.166,0.12c0.011,0,0.021,0.003,0.031,0.003
		c-0.009,0.001-0.018,0.001-0.026,0.002c0.186,0.128,0.347,0.219,0.484,0.267c0.339,0.119,0.825,0.182,1.458,0.186
		c0.09,0.014,0.147,0.045,0.177,0.095l0.022,0.077l0.001,0.115c-0.038,0.01-0.132,0.029-0.284,0.059
		c-0.139,0.023-0.223,0.043-0.248,0.055l0.158,0.002c0.133,0.028,0.559,0.07,1.278,0.127c0.513,0.041,0.776,0.119,0.786,0.234
		c0.014,0.131,0.684,0.236,2.008,0.311c1.327,0.082,1.998,0.2,2.013,0.356c0.005,0.054,0.005,0.085,0.005,0.095
		c-0.013,0.006-0.018,0.014-0.021,0.023c0.638-0.018,1.017-0.021,1.133-0.011c0.098,0.03,0.206,0.058,0.325,0.086
		c0,0.07-0.02,0.134-0.056,0.19c-0.042,0.072-0.106,0.113-0.191,0.123c0.232-0.021,0.472-0.035,0.716-0.041
		c0.242-0.009,0.429-0.007,0.561,0.002c-0.037,0.03-0.114,0.078-0.229,0.142c-0.104,0.058-0.164,0.091-0.181,0.095
		c0.055-0.006,0.187-0.043,0.396-0.104c0.195-0.052,0.315-0.082,0.36-0.086c0.07-0.007,0.146-0.008,0.231-0.007
		c0.092,0.002,0.147,0.009,0.165,0.022l0.001,0.122c-0.043,0.021-0.126,0.07-0.249,0.146c0.026,0.006,0.055,0.01,0.083,0.016
		c0.067-0.021,0.148-0.055,0.242-0.092c0.007-0.005,0.183-0.082,0.527-0.233l0.068,0.005l0.006,0.067
		c-0.008,0.015-0.033,0.033-0.068,0.054c-0.037,0.021-0.055,0.032-0.055,0.036c0.145-0.08,0.283-0.099,0.416-0.054
		c-0.087,0.023-0.171,0.039-0.258,0.049c-0.023,0.05-0.038,0.087-0.042,0.109c0.023,0.07,0.082,0.099,0.176,0.09
		c0.11-0.008,0.258-0.057,0.438-0.137c-0.167,0.096-0.293,0.166-0.379,0.21l-0.006,0.044c-0.036,0.029-0.01,0.038,0.075,0.03
		c0.125-0.012,0.261-0.067,0.408-0.169c0.036,0.048,0.09,0.09,0.16,0.132c0.102,0.058,0.206,0.089,0.31,0.095
		c-0.003,0.003-0.006,0.006-0.01,0.008c0.285,0.006,0.438,0.011,0.466,0.016c0.073,0.009,0.121,0.049,0.141,0.119
		c0.034,0.003,0.071,0.006,0.107,0.011l-0.011,0.038l-0.107,0.017c-0.053,0.028-0.11,0.071-0.174,0.13
		c0.112-0.015,0.227-0.028,0.342-0.047c0.268-0.044,0.472-0.036,0.608,0.021l-0.021,0.045c0.004-0.001,0.008-0.002,0.011-0.002
		l0.347-0.021l0.007,0.066c-0.056,0.038-0.145,0.077-0.268,0.12c0.022-0.001,0.043-0.001,0.062,0
		c0.066,0.001,0.105,0.012,0.114,0.031l-0.012,0.044c-0.031,0.031-0.15,0.109-0.363,0.233c0.107,0.008,0.212,0.016,0.319,0.027
		c0.107-0.034,0.199-0.055,0.272-0.062c0.02-0.001,0.037,0,0.056,0.007c0.143-0.062,0.334-0.165,0.576-0.312
		c-0.027-0.025-0.042-0.052-0.044-0.075c0.018-0.001,0.037,0.008,0.062,0.031c0.025,0.019,0.042,0.04,0.052,0.063
		c-0.03,0.082-0.116,0.16-0.251,0.238c0.017,0.004,0.062,0.021,0.136,0.052c0.065,0.029,0.174,0.018,0.323-0.035l0.008,0.078
		c-0.14,0.122-0.327,0.252-0.562,0.396l0.002,0.003c0.072-0.025,0.145-0.052,0.214-0.081c0.041-0.02,0.087-0.041,0.137-0.065
		c0.208-0.1,0.347-0.149,0.414-0.15l0.069,0.004l0.005,0.069c-0.101,0.047-0.196,0.092-0.285,0.132
		c-0.071,0.05-0.161,0.103-0.267,0.156c-0.018,0.01-0.035,0.018-0.052,0.023c0.025,0.009,0.049,0.019,0.074,0.024
		c0.051-0.019,0.104-0.038,0.16-0.059c0.134-0.05,0.254-0.093,0.363-0.127c0.048-0.027,0.082-0.042,0.107-0.043
		c0.014-0.002,0.027-0.003,0.039-0.003c0.132-0.038,0.239-0.061,0.322-0.07c0.004,0.001,0.007,0.002,0.013,0.002
		c0.007-0.021,0.011-0.034,0.011-0.044c-0.007-0.053-0.016-0.083-0.029-0.094c-0.014-0.009-0.018-0.016-0.019-0.02
		c0.023-0.003,0.049,0.009,0.071,0.037c0.028,0.03,0.046,0.077,0.051,0.138c0,0.004-0.001,0.012-0.001,0.018
		c0.012,0.008,0.026,0.016,0.042,0.025c0.067,0.043,0.082,0.064,0.048,0.063l-0.142,0.173c0.055-0.01,0.16-0.066,0.315-0.167
		c0.146-0.091,0.238-0.138,0.272-0.137l0.069,0.005l0.006,0.067l-0.471,0.292c0.017,0.005,0.034,0.009,0.051,0.014
		c0.101-0.027,0.181-0.047,0.242-0.063c0.128-0.03,0.244-0.054,0.353-0.064l0.008,0.079l-0.142,0.173
		c0.003,0.006,0.046-0.008,0.128-0.039c0.078-0.032,0.131-0.058,0.161-0.078c0.029,0.011,0.05,0.026,0.062,0.047l0.014,0.024
		l-0.062,0.084c0.191-0.059,0.377-0.066,0.558-0.02c0.146,0.062,0.223,0.091,0.23,0.089c0.146-0.014,0.25-0.066,0.312-0.16
		c0.022,0.016,0.04,0.032,0.053,0.053l0.006,0.021c-0.015,0.038-0.059,0.086-0.134,0.146c0.09-0.003,0.178-0.006,0.269-0.012
		c0.006,0.004,0.012,0.005,0.016,0.008c-0.002,0.006-0.002,0.013-0.003,0.017c0.001,0.02,0.028,0.024,0.08,0.021
		c0.008-0.001,0.019-0.003,0.032-0.005c0.157,0.045,0.317,0.095,0.479,0.145c-0.033,0.019-0.064,0.038-0.097,0.061
		c-0.001,0.023,0.001,0.04,0.005,0.051s0.019,0.018,0.046,0.02c-0.016,0.037,0.013,0.055,0.092,0.047
		c0.067-0.007,0.163-0.031,0.29-0.075c0.132,0.042,0.265,0.083,0.396,0.126c-0.125,0.137-0.186,0.22-0.184,0.25
		c0.003,0.032,0.02,0.063,0.046,0.097c0.036,0.037,0.077,0.056,0.127,0.051c0.076-0.008,0.23-0.091,0.462-0.252
		c0.073,0.024,0.149,0.049,0.224,0.074c-0.134,0.153-0.234,0.289-0.306,0.406c0.01,0.027,0.046,0.041,0.109,0.043
		c0.157-0.09,0.333-0.203,0.521-0.34c0.095,0.032,0.188,0.063,0.282,0.095c-0.044,0.072-0.067,0.136-0.07,0.191
		c-0.037,0.029-0.01,0.038,0.077,0.03c0.106-0.011,0.22-0.043,0.339-0.102c0.117,0.042,0.233,0.085,0.349,0.127
		c-0.039,0.066-0.057,0.129-0.051,0.189c0.009,0.094,0.053,0.163,0.131,0.202c0.059,0.031,0.122,0.044,0.188,0.036
		c0.131-0.012,0.26-0.077,0.386-0.19c0.199,0.073,0.397,0.148,0.595,0.223c0.084-0.05,0.14-0.097,0.172-0.139l0.077-0.008
		c0.012,0.02,0.021,0.035,0.025,0.045c0.005,0.014,0.01,0.048,0.015,0.104c0.003,0.029-0.008,0.061-0.032,0.095
		c0.04,0.018,0.081,0.033,0.123,0.051c0.091-0.029,0.191-0.055,0.301-0.076c0.386-0.079,0.587-0.049,0.6,0.091
		c0.005,0.057,0.003,0.087-0.006,0.091l-0.018-0.01c-0.089,0.037-0.196,0.08-0.322,0.127c0.163,0.064,0.325,0.13,0.484,0.196
		c0.238,0.1,0.464,0.196,0.676,0.288c0.007-0.002,0.013-0.003,0.021-0.005c0.229-0.042,0.421-0.025,0.579,0.052
		c-0.043-0.005-0.161,0.016-0.355,0.062c0.124,0.054,0.243,0.105,0.356,0.158c0.051-0.012,0.104-0.021,0.161-0.026
		c0.167-0.015,0.425-0.024,0.777-0.029c0.03,0.099,0.022,0.176-0.021,0.229c-0.043,0.052-0.142,0.093-0.293,0.127
		c0.075,0.039,0.147,0.077,0.216,0.113c0.433-0.038,0.714-0.051,0.84-0.036c0.132,0.012,0.202,0.065,0.212,0.165
		c0.006,0.065-0.042,0.118-0.144,0.155c-0.069,0.025-0.173,0.047-0.31,0.068c0.093,0.064,0.167,0.123,0.227,0.175
		c0.032,0.032,0.066,0.063,0.102,0.092c0.326-0.046,0.515-0.071,0.56-0.072c-0.005,0.05-0.03,0.097-0.07,0.144
		c-0.059,0.055-0.146,0.099-0.269,0.128c0.009,0.007,0.017,0.015,0.026,0.021c0.123-0.018,0.268-0.024,0.429-0.019
		c0.472,0.021,0.746,0.071,0.821,0.156l-0.009,0.079c-0.016,0.019-0.062,0.041-0.136,0.066c-0.072,0.024-0.142,0.039-0.207,0.045
		c-0.18,0.011-0.343,0.017-0.492,0.023c0.162,0.135,0.332,0.275,0.513,0.422c0.058-0.014,0.116-0.023,0.176-0.037
		c0.135-0.021,0.228-0.002,0.279,0.059c-0.018,0.044-0.097,0.093-0.239,0.149c0.055,0.044,0.109,0.086,0.166,0.13
		c0.114,0.002,0.203,0.013,0.267,0.036c0.08,0.031,0.125,0.086,0.131,0.168c0.003,0.029,0.003,0.05-0.001,0.068
		c0.05,0.001,0.102,0.004,0.156,0.011c0.452,0.05,0.687,0.166,0.704,0.353c0.006,0.055-0.004,0.107-0.026,0.154
		c-0.019,0.038-0.042,0.07-0.078,0.093l0.005,0.003c0.027,0.086,0.095,0.204,0.2,0.356c0.024,0.003,0.049,0.007,0.072,0.01
		c0.51,0.061,0.769,0.14,0.776,0.232c0.008,0.082-0.005,0.135-0.038,0.162c-0.062,0.053-0.192,0.095-0.392,0.127
		c0.022,0.025,0.049,0.055,0.081,0.094c0.172-0.038,0.269-0.052,0.292-0.04c0.008,0.008,0.009,0.022,0.004,0.048
		c0,0.028,0.014,0.049,0.043,0.06c-0.073,0.063-0.127,0.108-0.159,0.136c0.054,0.062,0.115,0.133,0.184,0.21
		c0.138,0.027,0.262,0.085,0.366,0.173l-0.009,0.079c-0.008,0.024-0.013,0.044-0.016,0.054c-0.006,0.009-0.024,0.015-0.056,0.021
		c0.07,0.079,0.145,0.165,0.224,0.256c0.112-0.011,0.224-0.004,0.335,0.023c0.239-0.017,0.408-0.002,0.512,0.043
		c0.077,0.034,0.108,0.078,0.096,0.132c0.001,0.006-0.025,0.038-0.08,0.095c0.115,0.093,0.221,0.2,0.319,0.322
		c0.096,0.117,0.146,0.194,0.148,0.229c0.007,0.065,0.151,0.191,0.436,0.375c0.288,0.185,0.442,0.382,0.462,0.59
		c-0.009,0.009-0.066,0.062-0.17,0.157l-0.423,0.04c0.122,0.175,0.23,0.338,0.324,0.487c0.017-0.02,0.04-0.053,0.069-0.101
		c0.028-0.046,0.063-0.094,0.107-0.142c0.239,0.069,0.376,0.229,0.41,0.478c0.015,0.133,0.035,0.33,0.061,0.59
		c-0.017-0.212,0.034-0.324,0.152-0.336c0.053-0.005,0.093,0.013,0.121,0.054c0.022,0.029,0.06,0.102,0.116,0.215
		c-0.013,0.014-0.056-0.007-0.128-0.066c-0.059,0.114-0.09,0.291-0.088,0.53c-0.002,0.236-0.036,0.417-0.103,0.542
		c-0.021,0.001-0.041-0.003-0.062-0.007c0.064,0.244,0.135,0.517,0.212,0.815c0.023,0,0.048,0.003,0.073,0.005l0.004-0.021
		c0.002-0.004,0.007,0.021,0.013,0.078c0.003,0.051-0.005,0.092-0.025,0.118c-0.006,0.005-0.01,0.011-0.016,0.015
		c0.026,0.1,0.054,0.202,0.079,0.306c0.054,0.018,0.102,0.042,0.144,0.073c0.091-0.027,0.149-0.04,0.18-0.039l0.03,0.155
		c-0.029,0.034-0.059,0.065-0.09,0.09c0.206-0.082,0.317-0.025,0.335,0.172c-0.048,0.189-0.146,0.331-0.293,0.424
		c0.001,0.002,0.004,0.002,0.005,0.004c-0.011,0.015-0.036,0.029-0.074,0.045c0.008,0.032,0.016,0.064,0.023,0.098
		c0.111-0.021,0.214-0.018,0.304,0.008c-0.047,0.068-0.111,0.126-0.194,0.174c0.064,0.03,0.133,0.063,0.203,0.1
		c-0.012,0.022-0.06,0.049-0.146,0.077c-0.025,0.009-0.048,0.016-0.072,0.022c0.007,0.023,0.012,0.049,0.019,0.073
		c0.051-0.018,0.102-0.029,0.153-0.036c0.194-0.024,0.298,0.024,0.311,0.15c0.005,0.053,0.002,0.08-0.008,0.086l-0.011,0.001
		c-0.043-0.007-0.123,0.008-0.237,0.043c0.021,0.011,0.033,0.023,0.034,0.032c0.005,0.055,0.001,0.088-0.012,0.108l-0.014,0.022
		c-0.038,0.007-0.076,0.017-0.111,0.022c0.003,0.013,0.006,0.024,0.009,0.035c0.04-0.021,0.075-0.039,0.109-0.054
		c0.063-0.03,0.15-0.058,0.261-0.082l0.02,0.04c-0.054,0.101-0.109,0.173-0.164,0.217l0.193,0.098
		c-0.01,0.014-0.028,0.031-0.059,0.052c-0.026,0.021-0.04,0.032-0.039,0.036c-0.078,0.022-0.157,0.04-0.237,0.048
		c0.008,0.032,0.014,0.062,0.021,0.094c0.337,0.012,0.512,0.085,0.525,0.225c0.005,0.056-0.025,0.112-0.091,0.168
		c-0.072,0.058-0.178,0.102-0.316,0.132c0.034,0.177,0.056,0.303,0.062,0.376c0.051,0.525,0.073,1.132,0.071,1.82
		c0.062,0.146,0.101,0.286,0.111,0.421c0.005,0.047-0.018,0.116-0.065,0.207c0.095,0.228,0.154,0.451,0.175,0.67
		c0.002,0.028-0.006,0.065-0.024,0.112c-0.025,0.051-0.059,0.084-0.099,0.099c0.124,0.238,0.189,0.398,0.197,0.478
		c0.003,0.024-0.015,0.057-0.054,0.096c-0.021,0.018-0.053,0.044-0.093,0.075c0.079,0.105,0.173,0.229,0.278,0.372
		c-0.022,0.027-0.06,0.051-0.11,0.073c-0.097,0.015-0.227-0.048-0.387-0.186c-0.006,0.148-0.012,0.306-0.016,0.469
		c0.125,0.072,0.257,0.127,0.392,0.167c0.01-0.005,0.018-0.02,0.022-0.04c0.007-0.025,0.015-0.044,0.021-0.055
		c0.009,0.013,0.022,0.029,0.046,0.049c0.018,0.022,0.027,0.062,0.033,0.118c0.005,0.052,0.001,0.081-0.008,0.084
		c-0.007,0.009-0.011,0.014-0.01,0.017l-0.295,0.071c-0.055-0.005-0.127-0.032-0.215-0.078c-0.002,0.055-0.004,0.108-0.006,0.164
		c0.212,0.142,0.389,0.22,0.527,0.238c-0.028,0.055-0.062,0.094-0.107,0.115c-0.12,0.012-0.261-0.025-0.422-0.111
		c0.005,0.09,0.011,0.19,0.019,0.301c0.011,0.004,0.022,0.009,0.033,0.015c0.133,0.059,0.325,0.124,0.578,0.198
		c-0.085,0.051-0.141,0.082-0.171,0.097c-0.04,0.021-0.088,0.035-0.145,0.038c-0.084,0.009-0.173-0.007-0.269-0.042
		c0.004,0.038,0.009,0.077,0.013,0.118c0.413,0.104,0.623,0.179,0.628,0.233c0.015,0.157-0.16,0.252-0.527,0.285
		c-0.012,0.002-0.023,0.003-0.036,0.005c0.064,0.515,0.094,0.901,0.094,1.168c-0.001,0.115-0.062,0.413-0.188,0.893
		c-0.127,0.217-0.248,0.457-0.364,0.723c-0.114,0.266-0.168,0.428-0.164,0.483c0.011,0.121,0.091,0.176,0.241,0.162
		c0.064-0.006,0.127-0.044,0.189-0.114c0.012-0.013,0.021-0.023,0.028-0.033c0.005,0.021,0.009,0.039,0.012,0.057l-0.023,0.002
		c0.011,0.053,0.021,0.101,0.029,0.147c0.082-0.074,0.125-0.114,0.129-0.119c0,0.002,0.014,0.01,0.039,0.022
		c0.032,0.012,0.057,0.021,0.07,0.035c-0.002,0.061-0.064,0.166-0.188,0.313c0.027,0.147,0.042,0.262,0.05,0.344
		c0.003,0.031,0.003,0.113-0.002,0.248c0.02,0.084,0.038,0.174,0.059,0.269c0.105-0.045,0.185-0.068,0.239-0.069l0.011,0.12
		c-0.086,0.06-0.154,0.109-0.207,0.146c0.006,0.025,0.011,0.052,0.018,0.078c0.005,0.056,0,0.116-0.015,0.181
		c-0.007,0.04-0.02,0.087-0.033,0.145l-0.051-0.005c0.028,0.149,0.046,0.24,0.049,0.271c0.008,0.086-0.009,0.105-0.049,0.057
		c-0.017-0.012-0.034-0.023-0.047-0.032c0.03,0.098,0.054,0.175,0.071,0.231c0.315-0.09,0.532-0.095,0.653-0.015
		c-0.079,0.109-0.25,0.21-0.515,0.301c-0.026,0.009-0.049,0.016-0.073,0.022c0.025,0.056,0.05,0.11,0.07,0.16
		c0.024-0.004,0.058-0.011,0.102-0.018c0.1-0.01,0.166-0.003,0.208,0.018c-0.041,0.06-0.116,0.122-0.228,0.19
		c0.038,0.093,0.068,0.17,0.091,0.234c0.004,0.007,0.01,0.013,0.012,0.021c0.044,0.047,0.092,0.098,0.138,0.149
		c0.386,0.429,0.591,0.788,0.618,1.077c0.005,0.053,0.001,0.081-0.014,0.086c-0.023-0.001-0.046,0.003-0.067,0.012
		c-0.107-0.036-0.172-0.053-0.189-0.051c-0.032-0.193-0.205-0.462-0.519-0.81c0.083,0.289,0.165,0.552,0.245,0.793
		c0.067,0.044,0.138,0.093,0.213,0.143c0.359,0.249,0.542,0.388,0.546,0.419c0.002,0.036-0.009,0.065-0.034,0.093
		c-0.004,0.002-0.037,0.026-0.101,0.081c0.122,0.129,0.184,0.197,0.187,0.207c0.006,0.087-0.017,0.115-0.071,0.084
		c-0.139-0.122-0.268-0.235-0.384-0.34c-0.043-0.021-0.088-0.043-0.133-0.069c0.07,0.184,0.142,0.348,0.211,0.489
		c-0.021,0.044-0.048,0.097-0.079,0.16c0.296,0.002,0.448,0.067,0.46,0.192c0.005,0.035-0.053,0.085-0.171,0.148
		c-0.057,0.032-0.123,0.062-0.193,0.086c0.067,0.012,0.124,0.036,0.173,0.074c-0.112,0.133-0.274,0.253-0.489,0.362
		c-0.086,0.041-0.176,0.079-0.27,0.11c-0.047,0.09-0.097,0.187-0.147,0.288c-0.023,0.046-0.044,0.09-0.067,0.134
		c0.494,0.007,0.746,0.063,0.756,0.17c0.001,0.004,0.001,0.01,0.002,0.014c0.013-0.011,0.023-0.022,0.034-0.032
		c0.018,0.002,0.034,0.018,0.052,0.047c0.016,0.028,0.025,0.053,0.027,0.076c-0.078,0.068-0.178,0.134-0.297,0.197
		c-0.156,0.079-0.389,0.145-0.706,0.196c0.123,0.054,0.236,0.112,0.345,0.181c-0.056,0.078-0.101,0.132-0.134,0.154
		c-0.014,0.013-0.031,0.024-0.051,0.034c0.192,0.041,0.362,0.086,0.506,0.141l-0.035,0.034c0.188-0.035,0.312-0.027,0.366,0.024
		c-0.115,0.081-0.235,0.158-0.354,0.229c0.004,0.009,0.012,0.014,0.021,0.02c0.004,0.002,0.008,0.03,0.013,0.078
		c0.005,0.055-0.039,0.114-0.128,0.174c0.311,0.015,0.688,0.065,1.129,0.154c0.721,0.144,1.346,0.312,1.873,0.506
		c0.267,0.102,0.888,0.254,1.862,0.459c0.856,0.177,1.473,0.365,1.847,0.566c0.063,0.034,0.126,0.067,0.19,0.104
		c0.084,0.025,0.175,0.052,0.266,0.079c-0.01,0.017-0.014,0.031-0.017,0.05c-0.003,0.003-0.008,0.008-0.015,0.009
		c0.169,0.104,0.343,0.22,0.519,0.343c0.138,0.023,0.283,0.051,0.439,0.078c-0.018,0.028-0.029,0.048-0.037,0.056
		c-0.017,0.012-0.056,0.022-0.113,0.026c-0.018,0.002-0.038,0.004-0.057,0.002c0.131,0.097,0.262,0.196,0.397,0.302
		c0.306,0.146,0.509,0.239,0.609,0.278c-0.015,0.028-0.066,0.058-0.151,0.082c-0.004-0.002-0.007-0.003-0.013-0.004
		c0.146,0.119,0.294,0.244,0.443,0.376c0.531,0.116,0.869,0.198,1.015,0.241c-0.086,0.062-0.168,0.103-0.245,0.122
		c0.382,0.15,0.677,0.283,0.884,0.4c-0.021,0.028-0.062,0.056-0.122,0.079c-0.264-0.065-0.524-0.139-0.787-0.22
		c0.045,0.036,0.09,0.07,0.134,0.104c0.213,0.076,0.438,0.167,0.683,0.271c0.124,0.033,0.258,0.07,0.401,0.109
		c0.152,0.045,0.299,0.083,0.432,0.122c0.065-0.014,0.12-0.018,0.165-0.008c-0.057,0-0.096,0.006-0.118,0.022
		c0.886,0.252,1.33,0.406,1.334,0.459c0.006,0.054,0.001,0.084-0.013,0.091c-0.011,0.01-0.015,0.016-0.015,0.018l-0.076,0.021
		c-0.036,0.035-0.108,0.06-0.221,0.07c-0.07,0.006-0.153,0.003-0.252-0.012c-0.036,0.021-0.083,0.032-0.142,0.038
		c-0.027,0.003-0.057,0.004-0.09,0.004c0.143,0.062,0.305,0.133,0.483,0.21c0.33,0.057,0.536,0.069,0.621,0.034l0.019,0.077
		c-0.043,0.03-0.102,0.062-0.177,0.09c0.616,0.267,1.391,0.599,2.325,0.996c0.063,0.028,0.128,0.057,0.188,0.084
		c0.228,0.013,0.384,0.028,0.468,0.046c-0.015,0.026-0.065,0.056-0.15,0.094c-0.006-0.001-0.019-0.002-0.037-0.002
		c0.12,0.094,0.277,0.213,0.471,0.356c0.271,0.048,0.593,0.105,0.967,0.174c-0.008,0.023-0.026,0.074-0.056,0.147
		c-0.131,0.037-0.244,0.067-0.34,0.092c0.122,0.085,0.232,0.159,0.334,0.228c0.503,0.043,0.76,0.113,0.769,0.21
		c0.008,0.087,0.001,0.108-0.021,0.061c-0.06,0.035-0.101,0.057-0.125,0.069c-0.014,0.008-0.03,0.013-0.046,0.019
		c0.024,0.011,0.048,0.021,0.065,0.028c1.139,0.505,1.97,0.871,2.495,1.103c0.088,0.08,0.168,0.16,0.243,0.239
		c0.543,0.572,0.846,1.205,0.911,1.899c0.084,0.896-0.024,1.711-0.32,2.445c-0.109,0.267-0.627,1.242-1.554,2.926
		c-0.106,0.195-0.214,0.382-0.324,0.565c-0.118,0.098-0.26,0.232-0.425,0.403c-0.184,0.188-0.499,0.527-0.943,1.017
		c-0.417,0.453-0.771,0.808-1.055,1.059c-1.054,0.664-1.779,1.185-2.176,1.562c-0.03,0.012-0.06,0.021-0.091,0.033
		c-0.007,0.024-0.015,0.05-0.021,0.079c-0.433,0.45-0.625,0.926-0.578,1.432c0,0.007,0.002,0.015,0.005,0.022
		c-0.115,0.226-0.234,0.423-0.354,0.587c-0.1,0.131-0.244,0.351-0.435,0.657c-0.128,0.179-0.262,0.319-0.404,0.423
		c-0.023,0.047-0.051,0.094-0.075,0.139c-0.228,0.4-0.471,0.707-0.735,0.921c-0.142,0.367-0.426,0.614-0.853,0.741
		c-0.096,0.162-0.18,0.333-0.252,0.509c-0.1,0.242-0.186,0.525-0.253,0.848c-0.147,0.637-0.435,1.383-0.863,2.238
		c-0.021,0.046-0.042,0.089-0.063,0.133c-0.292,0.28-0.581,0.434-0.866,0.461c-0.521,0.05-0.918,0.008-1.194-0.127
		c-0.261-0.122-0.404-0.319-0.431-0.593c-0.029-0.319-0.006-0.585,0.069-0.797c0.05-0.145,0.151-0.318,0.305-0.52
		c0.416-0.523,0.7-1.073,0.854-1.647c0.036-0.136,0.052-0.392,0.045-0.763c-0.004-0.193-0.002-0.361,0.004-0.507
		c-0.413,0.034-0.777,0.06-1.092,0.075c-0.021,0.064-0.044,0.137-0.069,0.216c-0.35,0.203-0.503,0.517-0.464,0.942
		c0.028,0.31-0.078,0.674-0.32,1.09c-0.055,0.091-0.11,0.181-0.165,0.264c-0.09,0.057-0.184,0.103-0.282,0.142
		c-0.055,0.022-0.211,0.195-0.469,0.516c-0.019,0.021-0.033,0.04-0.051,0.062c-0.031,0.069-0.069,0.144-0.113,0.223
		c-0.242,0.425-0.601,0.663-1.073,0.706c-0.161,0.015-0.339-0.021-0.532-0.109c-0.242-0.107-0.372-0.253-0.39-0.438
		c-0.013-0.133,0.088-0.332,0.303-0.598c0.06-0.074,0.12-0.145,0.183-0.21c0.038-0.141,0.076-0.282,0.117-0.422
		c0.199-0.334,0.381-0.838,0.545-1.511c0.005-0.015,0.008-0.03,0.013-0.046c0.324-0.78,0.665-1.386,1.021-1.82
		c0-0.004,0-0.009-0.001-0.014c-0.022-0.235,0.204-1.13,0.677-2.677c0.007-0.014,0.013-0.024,0.02-0.037
		c0.213-0.371,0.423-0.787,0.635-1.246c0.204-0.393,0.368-0.719,0.491-0.979c0.233-0.493,0.34-0.837,0.321-1.033
		c-0.028-0.308-0.171-0.568-0.427-0.788c-0.174-0.151-0.377-0.244-0.609-0.28c-0.153-0.08-0.317-0.149-0.492-0.207
		c-0.201-0.068-0.378-0.109-0.53-0.122l-0.004-0.003c0.002,0.033,0.003,0.063,0.004,0.09l-0.053-0.013
		c-0.009-0.045-0.016-0.086-0.021-0.123c-0.022-0.014-0.044-0.027-0.064-0.043c-0.017-0.01-0.033-0.02-0.048-0.031
		c-0.013,0.07-0.032,0.13-0.056,0.18l-0.043-0.023l-0.022-0.235c-0.014-0.008-0.025-0.017-0.037-0.024
		c-0.003,0.062-0.008,0.112-0.015,0.146c-0.023-0.021-0.047-0.054-0.067-0.094c-0.025-0.047-0.04-0.073-0.043-0.08
		c0.015,0.156,0.016,0.274,0.006,0.358l-0.091-0.007c-0.039-0.223-0.096-0.402-0.172-0.538c0.001,0.003,0.007,0.062,0.022,0.178
		c0.01,0.068-0.017,0.126-0.078,0.17c-0.022-0.002-0.044-0.011-0.066-0.025c-0.02-0.012-0.029-0.019-0.033-0.018l-0.036-0.378
		c-0.007,0.03-0.011,0.052-0.009,0.069c-0.005,0.02-0.034,0.061-0.089,0.125c-0.054-0.024-0.088-0.033-0.099-0.033
		c-0.019-0.151-0.041-0.29-0.063-0.413c-0.034-0.022-0.066-0.044-0.1-0.065c-0.014,0.12-0.095,0.186-0.24,0.199
		c-0.068,0.007-0.161-0.092-0.284-0.295c-0.061-0.113-0.111-0.202-0.147-0.271c-0.17,0.036-0.396-0.01-0.681-0.14
		c-0.358,0.003-0.686-0.078-0.982-0.243c-0.226-0.123-0.401-0.274-0.522-0.456c-0.034-0.011-0.066-0.021-0.099-0.031
		c-0.002,0.062-0.051,0.116-0.148,0.164c-0.086-0.011-0.143-0.05-0.176-0.122c-0.016-0.075-0.035-0.13-0.057-0.163
		c-0.005-0.002-0.012-0.003-0.016-0.007c-0.123,0.056-0.292,0.003-0.512-0.157c-0.519-0.156-1.023-0.3-1.512-0.426
		c-0.143-0.038-0.282-0.075-0.422-0.113c0.004,0.068-0.002,0.08-0.022,0.038l-0.11,0.053c-0.668-0.019-1.343-0.262-2.027-0.728
		c-0.061-0.041-0.119-0.083-0.174-0.123c-0.055-0.022-0.109-0.045-0.161-0.065c-0.004,0.025-0.007,0.049-0.014,0.073
		c-0.025,0.098-0.083,0.149-0.17,0.158c-0.019,0.001-0.228-0.183-0.632-0.555v0.006c0.011,0.123-0.034,0.188-0.139,0.197
		c-0.101,0.01-0.278-0.17-0.536-0.539c-0.055-0.028-0.108-0.055-0.16-0.081c0,0.021,0,0.044,0.001,0.068
		c-0.015,0.184-0.056,0.28-0.121,0.286c-0.088,0.009-0.115-0.004-0.083-0.035c-0.052-0.118-0.101-0.23-0.144-0.334l-0.019,0.007
		c-0.058-0.098-0.113-0.188-0.163-0.276c-0.139-0.077-0.298-0.17-0.474-0.278c0.001,0.016,0.003,0.034,0.005,0.049
		c0.002,0.025,0.001,0.1-0.002,0.224c-0.002,0.094,0.005,0.163,0.02,0.208l-0.031,0.003c-0.084-0.15-0.187-0.35-0.311-0.596
		c-0.004,0.047-0.008,0.098-0.016,0.151l-0.054-0.012c-0.018-0.084-0.053-0.196-0.104-0.335c-0.036-0.024-0.075-0.049-0.114-0.074
		c0.022,0.055,0.043,0.109,0.062,0.166c0.01,0.087,0.008,0.179,0.001,0.274l-0.106,0.01c-0.011-0.03-0.12-0.262-0.33-0.695
		c-0.553-0.366-1.21-0.814-1.971-1.349c-0.21-0.147-0.521-0.462-0.934-0.94c-0.007,0-0.012,0.001-0.017,0.001
		c-0.057-0.063-0.128-0.137-0.213-0.223c-0.234-0.238-0.359-0.356-0.376-0.354c-0.104,0.009-0.174,0.054-0.213,0.133
		c-0.051-0.405-0.135-0.513-0.253-0.322c-0.034,0.053-0.061,0.116-0.081,0.188c-0.068-0.055-0.14-0.113-0.212-0.173l0.019-0.28
		c-0.032-0.332-0.104-0.298-0.217,0.108c-0.272-0.24-0.57-0.528-0.898-0.864c-0.011-0.009-0.02-0.021-0.029-0.033
		c-0.003-0.04-0.007-0.079-0.011-0.12c-0.054-0.569-0.184-0.841-0.393-0.818c-0.111,0.013-0.185,0.093-0.224,0.243
		c-0.324-0.36-0.569-0.636-0.742-0.822c-0.068,0.013-0.129,0.024-0.178,0.036c-0.119,0.034-0.244,0.085-0.371,0.151
		c0.159,0.017,0.245,0.036,0.259,0.056c-0.005,0.004-0.021,0.015-0.056,0.031c-0.03,0.013-0.042,0.046-0.039,0.099
		c0.018,0.181-0.226,0.415-0.73,0.701c-0.011,0.032-0.033,0.064-0.067,0.102c0.295-0.087,0.484-0.146,0.567-0.174
		c-0.088,0.041-0.312,0.132-0.672,0.269c-0.244,0.189-0.739,0.438-1.486,0.744c-0.117,0.051-0.23,0.094-0.338,0.139
		c0.767-0.184,1.312-0.343,1.636-0.481l-0.465,0.008c0.006-0.011,0.083-0.03,0.227-0.054l0.216-0.03
		c-0.015,0.005,0.003,0.021,0.051,0.048c0.066,0.04,0.111,0.07,0.135,0.093c-0.455,0.235-1.078,0.47-1.864,0.702
		c-0.14,0.04-0.273,0.083-0.4,0.128c-0.009,0.021-0.021,0.046-0.03,0.071c0.181-0.063,0.368-0.124,0.563-0.186
		c0.539-0.158,0.94-0.28,1.203-0.364c-0.056-0.027-0.091-0.049-0.104-0.065c0.086,0.004,0.161,0.012,0.224,0.023
		c0.051-0.017,0.094-0.033,0.128-0.046c-0.008,0.021-0.021,0.045-0.039,0.067c0.044,0.014,0.081,0.031,0.109,0.053
		c0.053,0.037,0.083,0.101,0.091,0.188c0.011,0.113-0.214,0.244-0.674,0.39c0.048,0.002,0.089,0.008,0.121,0.015
		c-0.208,0.115-0.477,0.196-0.811,0.245c-0.103,0.016-0.201,0.03-0.297,0.043c-0.189,0.063-0.313,0.111-0.372,0.142l-0.063,0.006
		c0.598,0.06,0.926,0.09,0.996,0.092l-0.107-0.017c0.044-0.021,0.125-0.025,0.248-0.014c0.117,0.014,0.208,0.037,0.274,0.069
		c-0.062,0.056-0.102,0.109-0.117,0.164c-0.046,0.032-0.233,0.064-0.56,0.095c-0.438,0.042-0.814,0.063-1.132,0.065
		c-0.001,0.006-0.003,0.014-0.004,0.019c1.03,0.279,1.553,0.416,1.567,0.419c-0.02,0.028-0.033,0.049-0.042,0.058
		c-0.027,0.021-0.068,0.031-0.124,0.036c-0.041,0.005-0.163-0.009-0.362-0.039c-0.203-0.03-0.314-0.044-0.33-0.043
		c-0.148,0.015-0.412-0.01-0.792-0.068c-0.017,0.076-0.033,0.159-0.05,0.248c0.01,0.017,0.017,0.035,0.023,0.052
		c0.606,0.231,1.014,0.376,1.223,0.434c-0.03-0.101-0.003-0.108,0.082-0.024c0.043,0.042,0.089,0.093,0.14,0.15
		c0.01,0.087-0.001,0.109-0.029,0.067c-0.122-0.042-0.41-0.116-0.868-0.225c0.279,0.133,0.493,0.252,0.643,0.36
		c-0.024,0.031-0.063,0.058-0.113,0.078c-0.294-0.09-0.561-0.175-0.801-0.254c0.01,0.02,0.018,0.037,0.027,0.056
		c0.68,0.385,1.023,0.62,1.032,0.703c0.004,0.057-0.001,0.092-0.018,0.107c-0.013,0.011-0.038,0.021-0.075,0.033
		c-0.237-0.103-0.47-0.211-0.697-0.317c0.762,1.674,1.354,3.122,1.775,4.348c0.622,1.813,1.023,3.538,1.203,5.176
		c-0.209-0.006-0.302,0.13-0.275,0.404c0.009,0.096,0.046,0.189,0.106,0.286c0.062,0.096,0.095,0.185,0.103,0.265
		c0.004,0.045-0.008,0.103-0.036,0.172c-0.028,0.074-0.04,0.13-0.036,0.172c0.013,0.15,0.065,0.326,0.153,0.529
		c0.045,0.1,0.077,0.178,0.1,0.239c0.003,0.1,0.003,0.204,0.003,0.309c-0.015,0.062-0.032,0.14-0.055,0.234
		c-0.062,0.272-0.092,0.433-0.088,0.477c0.01,0.104,0.071,0.337,0.182,0.701c-0.011,0.056-0.021,0.118-0.029,0.188
		c-0.007,0.05-0.021,0.1-0.042,0.148c-0.006,0.162-0.013,0.324-0.02,0.491c-0.042,0.951-0.058,1.834-0.043,2.648
		c0.028,0.084,0.042,0.153,0.046,0.206c0.008,0.133,0.019,0.329,0.028,0.59c0.015,0.222,0.036,0.404,0.066,0.545
		c0.095,0.436,0.255,0.932,0.483,1.491c0.113,0.277,0.221,0.535,0.319,0.771c0.001,0.012-0.047,0.063-0.143,0.157
		c-0.061,0-0.143-0.05-0.247-0.146c-0.101-0.1-0.16-0.155-0.18-0.167l0.004,0.036c0.059,0.101,0.145,0.225,0.257,0.376
		c0.086,0.126,0.134,0.239,0.143,0.34c0.007,0.067,0.072,0.16,0.195,0.278c0.128,0.118,0.195,0.217,0.201,0.298
		c0.005,0.056-0.002,0.092-0.021,0.107c-0.013,0.008-0.041,0.019-0.087,0.029c-0.07-0.016-0.15-0.069-0.237-0.163
		c-0.076-0.089-0.128-0.148-0.159-0.178c0.012,0.027,0.022,0.054,0.032,0.082c0.052,0.092,0.124,0.231,0.217,0.42
		c0.147,0.306,0.227,0.506,0.235,0.602c-0.001,0.004,0,0.01,0.001,0.016c0.146,0.068,0.271,0.144,0.374,0.217
		c-0.015,0.03-0.05,0.061-0.107,0.091c0.145,0.073,0.225,0.146,0.241,0.216c-0.125,0.092-0.212,0.139-0.261,0.144
		c0.008,0.015,0.035,0.038,0.081,0.073c0.03,0.02,0.047,0.058,0.053,0.11c0.005,0.053,0.001,0.084-0.013,0.095l-0.015,0.014
		c-0.351,0.004-0.533,0.008-0.542,0.012c0.271,0.07,0.442,0.146,0.518,0.222c0.04,0.039,0.067,0.113,0.078,0.226
		c0.01,0.087,0.008,0.126,0.001,0.115c-0.046,0.008-0.124,0.025-0.232,0.055c-0.083,0.021-0.147,0.033-0.199,0.039
		c-0.023,0.001-0.091-0.016-0.201-0.05c-0.006,0.155-0.012,0.323-0.019,0.504c-0.017,0.666-0.011,1.201,0.017,1.603
		c-0.848,0.902-2.649,1.481-5.403,1.738c-1.105,0.104-2.19,0.134-3.254,0.093l-3.723,0.348c-0.966-0.137-1.759-0.338-2.378-0.601
		c-0.025-0.01-0.051-0.021-0.075-0.033c-1.192,0.337-2.29,0.55-3.297,0.644c-0.819,0.076-1.791-0.044-2.916-0.364
		c-0.255-0.073-0.488-0.149-0.694-0.227c-0.51,0.384-1.17,0.616-1.974,0.69c-0.163,0.016-0.312,0.022-0.452,0.022
		c-0.014,0.007-0.026,0.012-0.039,0.019c-1.133,0.531-1.91,0.817-2.326,0.856c-0.51,0.049-0.87-0.016-1.079-0.189
		c-0.046-0.039-0.086-0.086-0.122-0.141c0.029-0.13,0.043-0.198,0.042-0.206c-0.004-0.046-0.113-0.225-0.325-0.534
		c0.119-0.158,0.278-0.332,0.48-0.523c0.53-0.458,0.907-0.784,1.132-0.979c0.051-0.042,0.282-0.213,0.688-0.515
		c-0.003-0.012-0.005-0.021-0.006-0.033c-0.026-0.271,0.061-0.546,0.256-0.821c0.207-0.283,0.494-0.509,0.865-0.677
		c0.526-0.238,1.108-0.324,1.747-0.256c0.454-0.189,1.078-0.541,1.873-1.054c1.175-0.798,1.811-1.23,1.91-1.296
		c0.203-0.146,0.486-0.276,0.845-0.392c0.397-0.11,0.689-0.198,0.872-0.265c0.263-0.092,0.508-0.199,0.734-0.322
		c0.226-0.124,0.379-0.23,0.462-0.323c0.126-0.145,0.325-0.401,0.597-0.768c0.034-0.045,0.064-0.087,0.096-0.126
		c0.022-0.009,0.046-0.018,0.07-0.027c0.456-0.169,0.73-0.355,0.823-0.562c0.105-0.228,0.121-0.729,0.049-1.507
		c-0.022-0.248-0.051-0.495-0.082-0.74c-0.017-0.002-0.034-0.01-0.052-0.019c-0.022-0.016-0.036-0.024-0.045-0.021l-0.067-0.739
		c0.004-0.108,0.001-0.171-0.008-0.183c-0.111,0.014-0.177-0.071-0.197-0.251c-0.007-0.042-0.009-0.17-0.004-0.386
		c-0.098-0.029-0.148-0.045-0.152-0.049c-0.029-0.015-0.046-0.041-0.051-0.078c-0.003-0.047,0.005-0.121,0.026-0.226
		c0.025-0.111,0.037-0.193,0.036-0.245l-0.008,0.026c0.004,0.045-0.023,0.084-0.084,0.113c-0.103-0.11-0.158-0.191-0.171-0.242
		c-0.003-0.074-0.009-0.149-0.016-0.23c-0.006-0.053,0-0.14,0.017-0.26c0.029-0.184,0.044-0.286,0.044-0.312
		c-0.076,0.044-0.126,0.037-0.153-0.018c-0.01-0.062-0.014-0.095-0.016-0.099c-0.003-0.052-0.001-0.122,0.008-0.21
		c0.008-0.104,0.014-0.182,0.021-0.234c-0.009,0.017-0.018,0.041-0.025,0.065c-0.014,0.019-0.031,0.034-0.06,0.048
		c-0.035-0.015-0.061-0.041-0.07-0.078l0.081-0.377c-0.003,0.004-0.017,0.03-0.04,0.077c-0.031,0.045-0.073,0.07-0.124,0.075
		c-0.088,0.009-0.121,0-0.098-0.021c-0.002-0.021-0.013-0.062-0.033-0.119c-0.019-0.059-0.031-0.111-0.034-0.161
		c-0.011-0.104,0.004-0.266,0.038-0.483c0.029-0.154,0.045-0.271,0.049-0.354c-0.012-0.04-0.023-0.08-0.036-0.121
		c-0.022,0.019-0.052,0.031-0.085,0.034c-0.058,0.005-0.094-0.007-0.109-0.036c-0.007-0.036-0.013-0.061-0.019-0.077
		c0.004-0.079-0.002-0.177-0.017-0.29c-0.018-0.121-0.029-0.208-0.034-0.261c-0.013,0.013-0.041,0.047-0.085,0.107
		c-0.025,0.038-0.058,0.059-0.1,0.062c-0.053,0.006-0.086-0.003-0.104-0.026l-0.02-0.036c-0.011-0.133-0.052-0.289-0.123-0.469
		c-0.042-0.116-0.075-0.213-0.094-0.289c-0.051-0.021-0.076-0.06-0.074-0.117c0.006-0.268,0-0.432-0.021-0.494
		c-0.015,0.034-0.027,0.075-0.037,0.126c-0.016,0.042-0.055,0.084-0.114,0.121c-0.025-0.009-0.059-0.032-0.097-0.07
		c-0.001-0.008-0.004-0.009-0.011-0.005c-0.002,0.004-0.007-0.021-0.012-0.073c-0.006-0.061,0.134-0.396,0.421-1.009
		c-0.046-0.196-0.088-0.394-0.129-0.591c-0.17,0.216-0.302,0.401-0.391,0.554c-0.034-0.01-0.066-0.023-0.093-0.043l-0.025-0.104
		l0.143-0.62c-0.011,0.009-0.04,0.039-0.092,0.093c-0.035,0.039-0.067,0.059-0.096,0.062c-0.085,0.008-0.114-0.001-0.079-0.025
		l-0.034-0.075c0.061-0.105,0.221-0.36,0.481-0.768c-0.008-0.044-0.017-0.089-0.025-0.134c0.144-0.191,0.203-0.406,0.18-0.646
		c-0.007-0.078-0.024-0.132-0.051-0.163c-0.148,0.221-0.276,0.375-0.385,0.467c-0.036-0.004-0.06-0.008-0.07-0.014
		c0.114-0.521,0.171-0.783,0.168-0.792c-0.008-0.095-0.017-0.177-0.027-0.248c0.139-0.239,0.204-0.396,0.198-0.474
		c-0.02-0.218-0.074-0.311-0.164-0.282c-0.004,0.003-0.01,0.004-0.018,0.008c-0.004-0.026-0.006-0.048-0.008-0.063l-0.052,0.006
		c-0.002,0.005-0.026,0.062-0.074,0.171c-0.054,0.056-0.115,0.132-0.185,0.229c-0.079,0.111-0.189,0.271-0.336,0.479
		c-0.088-0.114-0.132-0.184-0.136-0.209c-0.004-0.041,0.026-0.156,0.09-0.345c0.014-0.04,0.026-0.076,0.037-0.109
		c-0.009-0.105-0.006-0.21,0.014-0.313c-0.01-0.005-0.021-0.008-0.032-0.013c-0.045-0.01-0.067-0.037-0.072-0.083
		c-0.007-0.066,0.028-0.208,0.103-0.427c0.081-0.215,0.129-0.337,0.14-0.367c-0.051,0.023-0.104,0.106-0.161,0.249
		c-0.057,0.149-0.109,0.234-0.16,0.257c-0.021-0.002-0.043-0.009-0.066-0.02c-0.022-0.014-0.036-0.022-0.044-0.023
		c-0.001-0.016-0.003-0.063-0.008-0.135c0-0.043-0.003-0.068-0.013-0.079c-0.027,0.068-0.068,0.088-0.121,0.054
		c-0.05-0.048-0.081-0.076-0.091-0.081c0.014-0.029,0.051-0.187,0.108-0.47c0.059-0.275,0.088-0.427,0.085-0.451
		c-0.001-0.015-0.005-0.026-0.01-0.035c-0.06,0.136-0.145,0.208-0.254,0.218c-0.03,0.003-0.054,0.003-0.074,0
		c0.01-0.027,0.02-0.054,0.03-0.082c0.043-0.036,0.076-0.062,0.099-0.074l0.036,0.111c0.026-0.02,0.075-0.077,0.148-0.173
		c0.067-0.101,0.105-0.168,0.117-0.205l-0.005-0.043c-0.029,0.042-0.055,0.088-0.075,0.135c-0.019,0.037-0.057,0.092-0.117,0.164
		h-0.015c0.003-0.024,0.029-0.1,0.078-0.228c0.045-0.113,0.066-0.181,0.064-0.202c-0.005-0.055-0.01-0.081-0.012-0.077
		c-0.004,0.004-0.005,0.01-0.005,0.021c-0.004-0.007-0.009-0.013-0.017-0.02c-0.017-0.011-0.033-0.018-0.051-0.021
		c0.041-0.058,0.09-0.12,0.143-0.188c0.22-0.285,0.327-0.499,0.32-0.643c-0.015-0.026-0.029-0.043-0.042-0.049
		c-0.02-0.016-0.057-0.02-0.112-0.015c-0.075,0.005-0.179,0.078-0.31,0.212c0.048-0.146,0.069-0.23,0.068-0.254
		c-0.004-0.025-0.006-0.053-0.008-0.077l-0.001-0.004c0.164-0.249,0.302-0.478,0.413-0.685l-0.034-0.354l-0.031-0.014
		c0.06-0.102,0.117-0.202,0.175-0.305c0.001-0.012,0.001-0.021,0.001-0.032c-0.014,0.018-0.027,0.034-0.044,0.049
		c-0.019,0.032-0.042,0.068-0.065,0.107c-0.046,0.067-0.09,0.119-0.131,0.155l-0.015-0.004c-0.013,0.012-0.027,0.025-0.043,0.043
		l-0.005,0.004c-0.115,0.128-0.219,0.237-0.317,0.329c-0.02-0.049-0.046-0.087-0.08-0.118c0.127-0.22,0.244-0.426,0.357-0.622
		c-0.006-0.014-0.013-0.035-0.016-0.065c0.031-0.021,0.062-0.046,0.092-0.072c0.289-0.502,0.532-0.92,0.729-1.255
		c-0.116-0.113-0.336-0.035-0.656,0.239c0.096-0.229,0.207-0.463,0.332-0.706c0.017-0.132,0.033-0.263,0.053-0.395
		c0.134-0.904,0.213-1.492,0.236-1.762c0.013-0.146,0.022-0.294,0.027-0.443c-0.054,0.056-0.104,0.086-0.149,0.09
		c-0.156,0.015-0.324,0.135-0.505,0.359c-0.175,0.224-0.319,0.341-0.431,0.352c-0.087,0.008-0.168,0.004-0.239-0.016
		c-0.107-0.028-0.166-0.081-0.174-0.161c-0.007-0.074,0.052-0.26,0.176-0.561c0.127-0.295,0.194-0.457,0.201-0.489
		c-0.004,0.004-0.063,0.064-0.184,0.181c-0.094,0.094-0.153,0.141-0.182,0.144c-0.052,0.005-0.089-0.003-0.108-0.021l-0.027-0.028
		c0.163-0.373,0.312-0.707,0.44-1.005c-0.102,0.06-0.167,0.138-0.191,0.232c-0.039,0.14-0.121,0.234-0.244,0.279l-0.028-0.032
		c0.12-0.189,0.289-0.378,0.507-0.572c0.066-0.157,0.128-0.302,0.185-0.438c0.001-0.031,0.001-0.064-0.003-0.099
		c-0.012-0.119,0.078-0.384,0.269-0.791c0.13-0.273,0.229-0.469,0.299-0.588c0.009-0.035,0.018-0.073,0.026-0.107
		c-0.017-0.048-0.034-0.096-0.051-0.144c-0.028-0.08-0.057-0.159-0.082-0.237c0.017-0.088,0.034-0.184,0.051-0.287
		c0.064-0.429,0.089-0.726,0.073-0.894c-0.025-0.272-0.076-0.383-0.153-0.332c-0.052,0.034-0.149,0.195-0.291,0.479
		c-0.044,0.087-0.086,0.17-0.128,0.248c-0.062-0.117-0.095-0.198-0.1-0.243c-0.005-0.049,0.003-0.132,0.02-0.25
		c0.021-0.149,0.033-0.239,0.037-0.271h-0.01c-0.047,0.099-0.1,0.185-0.161,0.253c-0.067-0.001-0.123-0.024-0.166-0.074
		c0.009-0.064,0.044-0.175,0.106-0.332c0.075-0.184,0.116-0.289,0.123-0.323c-0.039,0.025-0.082,0.068-0.125,0.128
		c-0.048,0.05-0.127,0.08-0.234,0.09c-0.052,0.005-0.079,0-0.081-0.019c0.009-0.021,0.01-0.039,0.006-0.053
		c0.012-0.106,0.037-0.246,0.076-0.424c0.046-0.19,0.073-0.327,0.084-0.409c-0.067,0.071-0.119,0.103-0.154,0.099
		c-0.029-0.001-0.096-0.015-0.199-0.038c0.015-0.065,0.15-0.301,0.409-0.709c0.015-0.024,0.027-0.048,0.041-0.07
		c-0.017-0.141-0.035-0.287-0.052-0.44c-0.22-0.026-0.437-0.424-0.651-1.195c-0.022-0.25,0.018-0.514,0.122-0.787
		c0.107-0.27,0.16-0.436,0.154-0.494c-0.004-0.047-0.053-0.083-0.142-0.114c-0.091-0.026-0.139-0.06-0.142-0.097
		c-0.016-0.168,0.118-0.474,0.398-0.919c0.137-0.198,0.242-0.353,0.316-0.464c0.015-0.064,0.03-0.13,0.046-0.192
		c-0.321-0.537-0.591-0.983-0.81-1.339l-0.055,0.006c0.143,0.236,0.213,0.362,0.214,0.376c0.006,0.056-0.001,0.087-0.021,0.097
		c-0.01,0.004-0.035,0.011-0.072,0.018c-0.075-0.019-0.145-0.076-0.207-0.175c-0.055-0.096-0.089-0.14-0.103-0.139
		c-0.079,0.007-0.16-0.039-0.244-0.139l-0.121,0.011c0.002,0.042-0.007,0.066-0.023,0.074c-0.012,0.005-0.035,0.01-0.074,0.017
		c-0.035-0.005-0.073-0.03-0.114-0.073l-0.109,0.012c0.006,0.011,0.011,0.022,0.011,0.028c0.004,0.04-0.009,0.079-0.037,0.12
		c-0.035,0.056-0.088,0.088-0.155,0.095c-0.05,0.005-0.131-0.065-0.24-0.208l-0.07,0.007c0.011,0.031,0.019,0.06,0.021,0.086
		c0.006,0.058,0.003,0.097-0.01,0.11c-0.004,0.004-0.024,0.018-0.065,0.037c-0.048-0.056-0.108-0.128-0.181-0.214l-0.118,0.012
		c-0.061-0.122-0.148-0.213-0.262-0.277c-0.043-0.024-0.095-0.045-0.152-0.065c0.1,0.22,0.151,0.343,0.153,0.365
		c0.004,0.057,0,0.093-0.012,0.108c-0.009,0.007-0.032,0.017-0.065,0.026c-0.121-0.129-0.255-0.306-0.398-0.527
		c-0.009-0.015-0.02-0.03-0.03-0.044c-0.019-0.004-0.037-0.007-0.057-0.009c0.12,0.22,0.183,0.345,0.185,0.376
		c0.005,0.057,0.002,0.091-0.011,0.107c-0.01,0.007-0.033,0.017-0.066,0.026c-0.085-0.091-0.145-0.168-0.181-0.23
		c-0.026,0.083-0.057,0.134-0.091,0.149c-0.172-0.174-0.327-0.328-0.463-0.465c-0.088-0.004-0.189-0.004-0.301-0.006
		c0.057,0.101,0.086,0.164,0.088,0.187c0.005,0.052,0.001,0.082-0.013,0.085c-0.01,0.001-0.033,0.004-0.068,0.007
		c-0.006-0.004-0.166-0.057-0.479-0.161c-0.08-0.027-0.147-0.07-0.202-0.132c-0.038,0.001-0.077-0.002-0.116-0.001
		c-0.012,0.046-0.034,0.084-0.065,0.111c-0.048-0.027-0.104-0.07-0.171-0.118c-0.166-0.008-0.33-0.021-0.492-0.034
		c0.001,0.039-0.004,0.066-0.013,0.077c-0.003,0.005-0.025,0.017-0.065,0.038c-0.067-0.042-0.145-0.09-0.234-0.145
		c-0.139-0.014-0.278-0.029-0.416-0.049c0.028,0.05,0.044,0.088,0.046,0.113c0.004,0.053-0.001,0.082-0.014,0.086
		c-0.01,0.001-0.032,0.003-0.068,0.005c-0.105-0.055-0.222-0.143-0.351-0.262c-0.079-0.014-0.158-0.027-0.237-0.042
		c0.014,0.027,0.02,0.047,0.021,0.057c0.008,0.087,0.008,0.125,0.001,0.116c-0.126-0.041-0.244-0.12-0.353-0.236
		c-0.038-0.009-0.075-0.017-0.113-0.024c0.017,0.043,0.026,0.082,0.03,0.117c0.008,0.087-0.003,0.114-0.034,0.082l-0.069,0.006
		c-0.036-0.018-0.084-0.068-0.147-0.154l-0.078-0.117c-0.005-0.001-0.01-0.002-0.017-0.004c0.007,0.033-0.001,0.062-0.022,0.09
		c-0.037-0.036-0.074-0.077-0.112-0.118c-0.021-0.006-0.042-0.012-0.062-0.018c-0.096-0.074-0.208-0.155-0.338-0.245
		c-0.048-0.034-0.1-0.066-0.152-0.101c0.024,0.089,0.037,0.171,0.044,0.243c0.005,0.052,0.002,0.08-0.007,0.086
		c-0.007,0-0.028,0.002-0.062,0.006c-0.121-0.088-0.242-0.233-0.363-0.437c-0.045-0.084-0.086-0.158-0.121-0.224
		c-0.038-0.021-0.075-0.044-0.112-0.065c0.002,0.021,0.003,0.038,0.005,0.052c0.004,0.081-0.008,0.146-0.036,0.194
		c-0.072-0.054-0.13-0.124-0.178-0.211c-0.039-0.085-0.069-0.152-0.091-0.203c-0.005-0.002-0.011-0.005-0.016-0.009l-0.002,0.011
		c0,0.003-0.002,0.045-0.009,0.123c-0.003,0.048-0.031,0.106-0.084,0.176c-0.044-0.055-0.102-0.146-0.172-0.269
		c-0.076-0.13-0.131-0.217-0.167-0.265c-0.005,0.142-0.01,0.222-0.016,0.239l-0.068,0.006l-0.229-0.409
		c-0.021-0.011-0.04-0.021-0.059-0.03c0.023,0.059,0.037,0.11,0.041,0.153c0.004,0.05,0.006,0.079,0.003,0.083
		c0,0.003-0.006,0.01-0.02,0.018c-0.11-0.045-0.202-0.129-0.276-0.248c-0.048-0.077-0.089-0.138-0.126-0.183
		c-0.025-0.01-0.052-0.021-0.077-0.033c-0.013,0.042-0.029,0.078-0.052,0.107c-0.015,0.019-0.037,0.045-0.065,0.08
		c-0.055-0.053-0.137-0.166-0.25-0.336c-0.046-0.018-0.092-0.034-0.136-0.051c-0.015-0.014-0.029-0.028-0.044-0.043
		c-0.244-0.239-0.464-0.43-0.661-0.562c-0.166-0.005-0.319-0.019-0.461-0.04c-0.292-0.044-0.663-0.149-1.111-0.318
		c-0.158-0.06-0.316-0.118-0.473-0.172c-0.121,0.001-0.247,0.008-0.375,0.019c-0.053,0.006-0.283-0.047-0.689-0.157
		c-0.214-0.059-0.408-0.107-0.584-0.145c-0.577-0.26-1.261-0.548-2.052-0.863c-0.051-0.016-0.103-0.027-0.154-0.041
		c-1.547-0.374-2.692-0.694-3.434-0.96c-0.607-0.217-1.086-0.434-1.436-0.648c-0.087-0.015-0.168-0.023-0.243-0.03
		c-0.142,0.082-0.324,0.168-0.546,0.254c-0.519,0.203-1.065,0.345-1.642,0.424c-0.235,0.177-0.342,0.374-0.321,0.594
		c0.002,0.026,0.005,0.054,0.008,0.081c0.136,0.211,0.238,0.365,0.307,0.469c0.15,0.222,0.341,0.531,0.574,0.934
		c0.331,0.576,0.506,0.962,0.523,1.159c0.005,0.035,0.005,0.072,0.004,0.11c0.047,0.047,0.097,0.097,0.146,0.149
		c0.336,0.345,0.505,0.535,0.508,0.569c0.008,0.087,0.01,0.127,0.005,0.116l-0.047,0.004c-0.064-0.062-0.156-0.146-0.271-0.251
		c0.053,0.088,0.107,0.174,0.162,0.264c0.278,0.225,0.47,0.377,0.576,0.462l-0.029,0.027c-0.086-0.062-0.225-0.155-0.415-0.28
		c0.006,0.011,0.011,0.019,0.017,0.029c0.025,0.04,0.052,0.079,0.077,0.121c0.123,0.115,0.211,0.218,0.264,0.305
		c-0.035-0.02-0.069-0.039-0.104-0.06c0.086,0.134,0.176,0.271,0.273,0.416c0.202,0.09,0.344,0.152,0.428,0.185
		c-0.014,0.025-0.046,0.05-0.097,0.072c-0.072-0.024-0.141-0.047-0.208-0.07c0.026,0.038,0.054,0.079,0.08,0.119
		c0.391,0.191,0.59,0.335,0.599,0.43c0.008,0.087-0.01,0.105-0.054,0.053c-0.066-0.024-0.164-0.059-0.289-0.104
		c0.071,0.106,0.145,0.216,0.22,0.326c0.225,0.134,0.342,0.204,0.352,0.209c-0.075-0.012-0.158-0.032-0.251-0.063
		c0.061,0.089,0.121,0.177,0.185,0.267c0.201,0.095,0.368,0.164,0.5,0.206c-0.023,0.049-0.095,0.082-0.215,0.099
		c0.05,0.038,0.094,0.079,0.13,0.12c-0.014,0.03-0.042,0.052-0.081,0.07c0.089,0.13,0.171,0.254,0.249,0.37
		c0.124,0.072,0.216,0.128,0.279,0.165c-0.028,0.028-0.069,0.053-0.122,0.075c0.038,0.059,0.076,0.116,0.111,0.172
		c0.27,0.172,0.407,0.275,0.41,0.312c0.009,0.088,0.002,0.108-0.02,0.065c-0.056-0.02-0.127-0.047-0.211-0.084
		c0.042,0.069,0.079,0.132,0.11,0.188c0.133,0.095,0.237,0.181,0.313,0.256l-0.003,0.016c-0.01,0.009-0.042,0.015-0.099,0.021
		c-0.017,0.002-0.035,0.002-0.055-0.001c0.03,0.063,0.062,0.129,0.091,0.195c0.051,0.043,0.093,0.082,0.131,0.115
		c0.016,0.013,0.033,0.022,0.049,0.033c0.453,0.281,0.686,0.495,0.699,0.644c0.001,0.01-0.041,0.061-0.123,0.153
		c-0.137-0.069-0.298-0.154-0.484-0.259c0.043,0.129,0.084,0.264,0.122,0.4c0.042,0.054,0.074,0.097,0.097,0.135
		c0.069,0.028,0.138,0.069,0.207,0.119c0.162,0.118,0.249,0.233,0.259,0.344c0.006,0.071-0.01,0.145-0.05,0.226
		c0.148,0.146,0.226,0.254,0.233,0.322c0.005,0.061,0.003,0.103-0.009,0.127c-0.002,0.013-0.019,0.033-0.048,0.063
		c-0.045-0.003-0.108-0.017-0.188-0.039c-0.006-0.004-0.014-0.005-0.019-0.006c0.002,0,0.004,0.001,0.007,0.003
		c0.006,0.002,0.011,0.005,0.014,0.007l-0.003,0.002c0.205,0.149,0.308,0.225,0.308,0.228c0.001,0.014-0.054,0.068-0.168,0.163
		c-0.063-0.016-0.175-0.062-0.333-0.14c0.008,0.06,0.016,0.119,0.022,0.181c-0.082,0.071-0.15,0.162-0.209,0.278
		c-0.062,0.121-0.089,0.224-0.082,0.308c0.013,0.132,0.026,0.213,0.043,0.244c0.052,0.078,0.157,0.111,0.315,0.098
		c0.005,0.123,0.009,0.251,0.012,0.387c0.108,0.014,0.21,0.017,0.305,0.01l-0.022,0.046c-0.066,0.028-0.16,0.049-0.283,0.062
		c0,0.023,0.002,0.046,0.002,0.067c-0.044,0.053-0.09,0.117-0.137,0.199c0.14,0.052,0.223,0.097,0.25,0.134l-0.045,0.084
		l-0.182,0.026c-0.047,0.005-0.097,0.005-0.151,0.001c-0.043,0.1-0.09,0.211-0.137,0.336c0.045,0.034,0.084,0.069,0.118,0.102
		c-0.033,0.001-0.081-0.011-0.146-0.027c-0.016,0.044-0.032,0.092-0.049,0.142c0.003,0.045,0.031,0.112,0.082,0.202
		c0.051,0.094,0.078,0.162,0.082,0.204c0.006,0.073-0.085,0.15-0.279,0.232c-0.192,0.085-0.284,0.183-0.273,0.294
		c0.004,0.047,0.017,0.092,0.038,0.137c-0.1,0.05-0.143,0.135-0.132,0.258c0.002,0.023,0.113,0.097,0.332,0.22
		c-0.002,0.006-0.006,0.014-0.01,0.021c0.09,0.066,0.152,0.119,0.186,0.155c-0.049,0.049-0.125,0.08-0.229,0.09l-0.023-0.006
		c-0.001,0.013-0.002,0.024-0.001,0.034c0.002,0.005,0.002,0.009,0.003,0.013c0.184,0.091,0.302,0.141,0.356,0.148
		c-0.015,0.03-0.065,0.058-0.15,0.084c-0.052-0.005-0.106-0.014-0.167-0.032c0.026,0.08,0.063,0.147,0.109,0.2
		c-0.134,0.259-0.202,0.4-0.199,0.426c0.008,0.083,0.066,0.136,0.174,0.158c0.107,0.024,0.163,0.049,0.165,0.074
		c0.001,0.013,0.004,0.025,0.009,0.038c-0.127,0.046-0.211,0.117-0.255,0.217c-0.035,0.078-0.042,0.158-0.024,0.245
		c0.005,0.053,0.015,0.099,0.026,0.14c-0.007,0.009-0.015,0.02-0.021,0.028c-0.024,0.041-0.035,0.075-0.034,0.103
		c0.013,0.135,0.175,0.214,0.487,0.235c-0.008,0.083-0.015,0.168-0.021,0.252c0.056,0.023,0.086,0.05,0.089,0.085
		c0.008,0.087,0.007,0.106,0,0.057c-0.018,0.019-0.055,0.037-0.108,0.056c0,0.012-0.001,0.023-0.001,0.035
		c0.14,0.075,0.21,0.114,0.209,0.118c0.008,0.087,0.001,0.106-0.021,0.059c-0.07,0.066-0.141,0.104-0.214,0.116
		c-0.001,0.018-0.003,0.037-0.005,0.058c0.322,0.098,0.526,0.207,0.614,0.333c-0.067,0.076-0.122,0.127-0.17,0.152
		c-0.072,0.044-0.17,0.075-0.293,0.097c0.133,0.064,0.203,0.12,0.208,0.17c0,0.008-0.056,0.06-0.169,0.158
		c-0.006,0.001-0.013-0.001-0.02,0c-0.012,0.042-0.038,0.081-0.076,0.12c-0.048,0.05-0.115,0.092-0.199,0.128
		c-0.021,0.236-0.045,0.479-0.069,0.725c-0.079,0.026-0.151,0.059-0.217,0.101c-0.093,0.059-0.147,0.117-0.163,0.176
		c0.196-0.052,0.332-0.069,0.412-0.057l-0.002,0.043c-0.09,0.062-0.209,0.122-0.357,0.186c0.015,0.017,0.033,0.03,0.055,0.044
		c0.018-0.006,0.036-0.01,0.054-0.011c0.457-0.076,0.692-0.046,0.705,0.087c0.008,0.087,0.001,0.106-0.021,0.06
		c-0.059,0.027-0.241,0.079-0.547,0.16c0,0.004-0.001,0.008-0.001,0.013c0.071-0.003,0.135,0.004,0.19,0.018v-0.004
		c0.005,0.007,0.009,0.037,0.015,0.093c0.007,0.071-0.082,0.172-0.267,0.303c0,0.021,0.007,0.04,0.013,0.057
		c-0.009,0.075-0.017,0.154-0.026,0.232c-0.064,0.067-0.128,0.142-0.188,0.222c-0.103,0.147-0.15,0.258-0.144,0.331
		c0.009,0.098,0.044,0.156,0.101,0.175c0.027,0.011,0.077,0.015,0.149,0.011c-0.002,0.015-0.004,0.029-0.004,0.041
		c0.046-0.004,0.096-0.011,0.149-0.017l0.024,0.042c-0.042,0.053-0.106,0.103-0.194,0.149c-0.015,0.135-0.029,0.271-0.043,0.408
		c0.16-0.013,0.246,0.041,0.257,0.157c0,0.011-0.059,0.141-0.18,0.392c-0.05,0.066-0.103,0.124-0.163,0.177
		c-0.011,0.097-0.021,0.195-0.034,0.292c0.089,0.029,0.155,0.062,0.199,0.101c-0.027,0.034-0.111,0.159-0.254,0.38
		c-0.018,0.144-0.036,0.287-0.051,0.429c0.211-0.011,0.355-0.022,0.429-0.03c0.052-0.003,0.077-0.019,0.075-0.043
		c-0.01-0.029-0.01-0.052,0-0.067c0.051,0.02,0.099,0.065,0.145,0.139c0.037,0.06,0.056,0.104,0.06,0.133
		c0.013,0.146-0.142,0.331-0.47,0.555c-0.12,0.083-0.235,0.153-0.344,0.209c-0.025,0.214-0.053,0.429-0.078,0.641
		c-0.186,0.114-0.273,0.238-0.26,0.374c0.001,0.02,0.018,0.044,0.048,0.073c0.019,0.017,0.042,0.035,0.069,0.057
		c0.022,0.016,0.046,0.032,0.072,0.051c0,0.003,0,0.008,0,0.011c0.04,0.038,0.078,0.077,0.118,0.119
		c0.104,0.106,0.16,0.171,0.161,0.196c0.004,0.038-0.025,0.112-0.084,0.225c-0.056,0.113-0.083,0.185-0.082,0.207
		c0.006,0.056,0.046,0.127,0.12,0.216c0.018,0.066-0.109,0.124-0.378,0.175c-0.001,0.011-0.002,0.02-0.002,0.028l0.012,0.021
		c0.077,0.028,0.133,0.081,0.168,0.159c0.009,0.023,0.022,0.069,0.039,0.138c-0.087,0.06-0.179,0.097-0.274,0.11
		c-0.001,0.005-0.002,0.007-0.003,0.012c0.074,0.024,0.125,0.05,0.152,0.075c0.025,0.041,0.049,0.075,0.073,0.104
		c-0.063,0.066-0.154,0.123-0.269,0.174h-0.002c-0.007,0.061-0.015,0.119-0.023,0.18c0.151,0.035,0.237,0.058,0.26,0.072
		c-0.046,0.04-0.125,0.073-0.239,0.101c-0.015,0.005-0.031,0.011-0.046,0.014c-0.01,0.073-0.02,0.148-0.03,0.221l0.13-0.001
		c0.006,0.031,0.016,0.056,0.034,0.076c-0.017,0.011-0.062,0.058-0.13,0.139c-0.01,0.007-0.021,0.016-0.032,0.023
		c0.311,0.152,0.467,0.232,0.468,0.236c0.004,0.057-0.016,0.124-0.061,0.206c-0.072,0.13-0.191,0.203-0.354,0.217
		c-0.06,0.007-0.12,0.01-0.179,0.01c-0.007,0.058-0.015,0.117-0.023,0.177c-0.131,0.007-0.287,0.02-0.463,0.034l-0.002-0.025
		c-0.054,0.025-0.092,0.065-0.116,0.117c0.076,0.126,0.166,0.188,0.271,0.19c0.092-0.018,0.183-0.032,0.272-0.044
		c-0.016,0.117-0.032,0.235-0.049,0.354c-0.244,0.059-0.358,0.163-0.344,0.313c0.004,0.05,0.085,0.19,0.242,0.42
		c-0.002,0.016-0.003,0.033-0.006,0.052c-0.083,0.092-0.125,0.146-0.123,0.167c0.005,0.052,0.008,0.081,0.013,0.089
		c0.017,0.022,0.026,0.036,0.031,0.044c0.012,0,0.023,0,0.036-0.001c-0.013,0.097-0.029,0.195-0.044,0.292
		c-0.007-0.001-0.015-0.002-0.023-0.004c-0.108,0.011-0.186,0.047-0.233,0.113c-0.005,0.006-0.024,0.051-0.056,0.131
		c0.026,0.046,0.079,0.088,0.16,0.122c0.033,0.017,0.064,0.033,0.092,0.056c-0.017,0.121-0.035,0.243-0.052,0.362
		c0.014,0.147,0.061,0.342,0.142,0.582c-0.041,0.109-0.06,0.177-0.058,0.202c0.008,0.088,0.017,0.109,0.027,0.066
		c0.007,0.01,0.013,0.026,0.016,0.052c0.012,0.017,0.043,0.022,0.096,0.016c0.002,0.001,0.011-0.01,0.025-0.032
		c0.009,0.021,0.018,0.042,0.029,0.065c0.16-0.229,0.316-0.316,0.471-0.265c0.003,0.001,0.005,0,0.007-0.002
		c-0.001,0.002-0.001,0.005-0.001,0.006c0.069,0.025,0.139,0.08,0.208,0.164c-0.066,0.076-0.173,0.272-0.321,0.586
		c-0.03,0.054-0.062,0.102-0.093,0.147c0.254,0.564,0.462,0.922,0.625,1.072c0.052-0.137,0.14-0.304,0.265-0.498l0.002,0.001
		c0.02-0.104,0.049-0.209,0.089-0.311c0.176-0.449,0.521-0.697,1.034-0.746c0.179-0.017,0.348,0.024,0.507,0.121
		c0.249-0.012,0.382-0.02,0.399-0.021c0.027-0.002,0.052-0.005,0.076-0.006c0.165-0.121,0.349-0.222,0.555-0.301
		c0.354-0.138,0.658-0.176,0.914-0.111c0.163,0.042,0.285,0.123,0.365,0.241c0.089-0.067,0.179-0.13,0.272-0.189
		c0.473-0.306,0.87-0.448,1.194-0.435c0.362,0.021,0.569,0.248,0.624,0.684c0.304-0.129,0.625-0.16,0.968-0.088
		c0.298,0.061,0.478,0.15,0.542,0.271c0.102,0.197,0.176,0.448,0.218,0.749c0.022,0.172,0.044,0.422,0.065,0.749
		c0.001,0.01-0.006,0.412-0.02,1.21c-0.049,0.488-0.14,0.83-0.278,1.031c-0.054,1.055-0.099,1.669-0.134,1.841
		c-0.023,0.116-0.092,0.26-0.207,0.434c-0.6,0.195-1.307,0.586-2.122,1.172c-0.742,0.527-1.381,1.078-1.917,1.651
		c-0.15,0.037-0.308,0.085-0.475,0.145c-0.477,0.167-0.893,0.377-1.25,0.629c-0.071,0.05-0.135,0.099-0.191,0.144
		c-0.683,0.028-1.268-0.016-1.754-0.131c-0.295-0.071-0.592-0.184-0.892-0.334l0,0.006c0.004,0.046,0.002,0.079-0.006,0.1
		c-0.015,0.059-0.063,0.091-0.143,0.098c-0.089,0.01-0.159-0.036-0.214-0.138c-0.045-0.115-0.074-0.183-0.082-0.204
		c-0.01,0.016-0.022,0.04-0.035,0.073c-0.019,0.026-0.057,0.042-0.111,0.048c-0.073,0.005-0.186-0.105-0.339-0.337
		c-0.015-0.027-0.032-0.054-0.049-0.082c-0.049-0.083-0.093-0.155-0.132-0.222l-0.003,0.014c0.005,0.026,0.017,0.066,0.038,0.116
		c0.014,0.046,0.017,0.084,0.01,0.115c-0.06-0.001-0.114-0.013-0.162-0.037c-0.002-0.009-0.004-0.02-0.008-0.03
		c0.015,0.207-0.038,0.315-0.158,0.327c-0.082,0.008-0.165-0.085-0.253-0.272c-0.084-0.192-0.167-0.286-0.247-0.277
		c-0.094,0.009-0.197,0.053-0.31,0.128c-0.072,0.025-0.119-0.075-0.145-0.297c-0.121,0.124-0.228,0.134-0.318,0.029
		c-0.073-0.137-0.118-0.216-0.133-0.236c-0.009,0.017-0.021,0.041-0.036,0.073c-0.018,0.025-0.055,0.041-0.111,0.047
		c-0.045,0.003-0.079-0.01-0.1-0.045c-0.023-0.031-0.056-0.046-0.098-0.042c-0.045,0.004-0.073,0.024-0.084,0.061
		c-0.014,0.037-0.043,0.057-0.083,0.06c-0.234,0.023-0.405-0.138-0.514-0.479c-0.009-0.021-0.021-0.079-0.04-0.173
		c-0.076-0.014-0.153-0.029-0.229-0.05c-0.066,0.155-0.212,0.246-0.436,0.273l0.001-0.011c-0.02-0.214-0.091-0.274-0.214-0.176
		c-0.023-0.123-0.043-0.229-0.057-0.318c-0.026-0.01-0.05-0.021-0.075-0.03c-0.003,0.066-0.005,0.149-0.009,0.246
		c-0.032-0.059-0.083-0.089-0.154-0.092c-0.08-0.003-0.17,0.03-0.271,0.101c0-0.018,0-0.037,0-0.057
		c0.002-0.008,0.007-0.013,0.009-0.02c-0.002-0.024-0.006-0.048-0.009-0.069c0-0.058,0.001-0.119,0.001-0.188l-0.017,0.002
		c-0.002,0.021-0.007,0.049-0.013,0.087c-0.072-0.181-0.243-0.128-0.512,0.157c-0.014,0.016-0.027,0.029-0.041,0.045
		c-0.023-0.067-0.037-0.14-0.044-0.216c-0.01-0.102-0.009-0.295,0.001-0.58c-0.007-0.005-0.013-0.01-0.019-0.015
		c-0.015,0.042-0.037,0.117-0.065,0.221c-0.055-0.083-0.139-0.082-0.252,0.005l0.024-0.251c-0.034-0.359-0.123-0.37-0.267-0.033
		v0.004c-0.008-0.012-0.038-0.033-0.09-0.069c-0.061-0.04-0.091-0.065-0.093-0.074c-0.004-0.05,0.003-0.123,0.022-0.22
		c0.009-0.041,0.016-0.076,0.022-0.107c-0.015-0.011-0.027-0.022-0.039-0.034c-0.007,0.024-0.013,0.052-0.02,0.081
		c-0.03,0.087-0.083,0.136-0.157,0.143c-0.299-0.191-0.449-0.303-0.452-0.333c-0.006-0.066,0.002-0.159,0.026-0.276
		c0.013-0.053,0.022-0.102,0.032-0.141c-0.01-0.011-0.02-0.021-0.03-0.031c-0.023,0.055-0.044,0.092-0.064,0.114
		c-0.045,0.05-0.138,0.081-0.277,0.094c-0.122,0.013-0.207-0.003-0.256-0.045c-0.022-0.155-0.042-0.271-0.06-0.348
		c-0.151,0.085-0.249,0.07-0.294-0.046c-0.025-0.155-0.043-0.261-0.056-0.316c-0.112,0.005-0.188-0.004-0.23-0.032
		c-0.018-0.013-0.032-0.025-0.04-0.037c-0.086,0.008-0.165,0.021-0.233,0.037c-0.008,0.007-0.015-0.032-0.023-0.12
		c-0.006-0.062,0.04-0.189,0.134-0.381c0.093-0.175,0.144-0.276,0.154-0.303c-0.087,0.177-0.19,0.291-0.311,0.346
		c0.162-0.188,0.356-0.422,0.585-0.701c-0.004-0.049-0.007-0.073-0.012-0.078c-0.011-0.012-0.02-0.026-0.024-0.04
		c-0.135,0.017-0.334,0.138-0.597,0.365c0.079-0.164,0.129-0.264,0.155-0.297c-0.103-0.056-0.196-0.078-0.283-0.067
		c0.034-0.084,0.067-0.155,0.098-0.216c-0.035,0.001-0.084,0-0.148-0.001c-0.042-0.011-0.067-0.044-0.072-0.1
		c-0.002-0.024,0.018-0.092,0.06-0.201s0.061-0.185,0.058-0.228c-0.003-0.027-0.022-0.055-0.06-0.081
		c-0.025-0.202-0.123-0.254-0.287-0.162c-0.033-0.041-0.052-0.091-0.059-0.15c-0.003-0.032,0.004-0.074,0.022-0.132
		c0.146-0.159,0.216-0.257,0.213-0.291c-0.02-0.215-0.172-0.228-0.458-0.04l0.155-0.288c0.053-0.064,0.077-0.108,0.076-0.127
		c-0.022-0.236-0.163-0.24-0.423-0.008c-0.008,0.008-0.015,0.015-0.024,0.024c-0.021-0.015-0.041-0.038-0.06-0.073
		c0.009-0.034,0.053-0.105,0.133-0.219l0.144-0.203c-0.14,0.013-0.246,0.014-0.318,0.003c-0.016-0.062-0.05-0.084-0.106-0.066
		c0.001-0.037,0.017-0.082,0.047-0.135c0.043-0.072,0.087-0.12,0.135-0.139c-0.108,0.006-0.186,0.005-0.233-0.011
		c-0.011-0.001-0.022-0.006-0.033-0.01c0.074-0.067,0.113-0.126,0.115-0.174c0.016-0.009,0.032-0.02,0.05-0.027
		c0.098-0.053,0.162-0.081,0.192-0.087l-0.131-0.005c-0.054,0.012-0.104,0.02-0.146,0.022c-0.035-0.035-0.096-0.042-0.182-0.023
		c-0.055-0.021-0.089-0.062-0.104-0.12c0.139-0.034,0.238-0.078,0.296-0.136c0.019-0.017,0.033-0.038,0.042-0.06l0.048-0.005
		l-0.046,0.001c0.01-0.027,0.014-0.06,0.011-0.094c-0.015-0.163-0.192-0.227-0.53-0.188c0.05-0.036,0.072-0.08,0.068-0.133
		c-0.005-0.052-0.022-0.09-0.048-0.114c0.056-0.031,0.122-0.063,0.196-0.096l-0.027-0.002c-0.065-0.071-0.146-0.146-0.237-0.226
		c-0.051-0.051-0.083-0.103-0.096-0.154c0.048-0.029,0.076-0.042,0.083-0.045c-0.021-0.039-0.047-0.068-0.075-0.091
		c0.007-0.021,0.016-0.043,0.028-0.063c0.045-0.075,0.109-0.124,0.192-0.15l-0.044-0.022c-0.2,0.045-0.361-0.022-0.483-0.197
		c-0.025-0.038-0.046-0.074-0.063-0.112c0.08-0.038,0.151-0.09,0.212-0.155c0.097-0.096,0.143-0.178,0.136-0.244
		c-0.015-0.155-0.125-0.198-0.334-0.125c-0.007-0.006-0.015-0.013-0.023-0.019c0.076-0.028,0.144-0.065,0.202-0.11
		c0.092-0.073,0.136-0.126,0.132-0.161c-0.008-0.102-0.074-0.153-0.194-0.156c-0.049-0.039-0.133-0.093-0.256-0.158
		c0.067-0.037,0.118-0.086,0.154-0.147l0.051-0.19c-0.02-0.213-0.141-0.254-0.365-0.119c0.007-0.009,0.013-0.019,0.02-0.028
		c0.085-0.13,0.13-0.205,0.137-0.222c-0.053-0.039-0.135-0.085-0.252-0.141c-0.061-0.031-0.094-0.061-0.097-0.092
		c-0.005-0.052-0.002-0.082,0.006-0.09l0.021-0.021c0.112-0.014,0.206-0.028,0.277-0.041c-0.008-0.009-0.016-0.017-0.024-0.023
		c-0.011-0.008-0.02-0.014-0.029-0.021c-0.11-0.004-0.181-0.021-0.21-0.051c0.002-0.015,0.007-0.026,0.011-0.036
		c-0.091-0.007-0.166,0.045-0.221,0.158c0,0.012,0.002,0.023,0.003,0.033c0,0.008-0.014,0.028-0.043,0.061
		c-0.024,0.071-0.044,0.159-0.059,0.261c-0.001,0.008-0.001,0.016-0.003,0.023c0.017,0.058,0.039,0.124,0.067,0.203
		c0.039,0.109,0.069,0.199,0.088,0.27c-0.049,0.054-0.07,0.101-0.066,0.14c0.003,0.032,0.012,0.061,0.028,0.081
		c-0.004,0.004-0.006,0.005-0.01,0.007c-0.085,0.039-0.149,0.079-0.194,0.118c-0.003,0.016-0.004,0.029-0.007,0.042
		c0.06,0.235,0.077,0.379,0.051,0.429c-0.032,0.073-0.045,0.131-0.042,0.173c0.006,0.066,0.036,0.19,0.088,0.373
		c0.029,0.169,0.003,0.305-0.079,0.402c-0.049-0.007-0.092-0.023-0.125-0.053l0.002,0.038c0.02,0.051,0.054,0.138,0.104,0.259
		c0.044,0.108,0.071,0.188,0.075,0.24c0.007,0.063,0.001,0.107-0.014,0.134c-0.015,0.024-0.043,0.042-0.083,0.059
		c-0.035-0.018-0.068-0.043-0.101-0.07c0.006,0.156,0.012,0.332,0.021,0.527c0.027,0.08,0.062,0.175,0.101,0.287
		c0.128,0.364,0.2,0.588,0.215,0.671c-0.034,0.015-0.076,0.022-0.125,0.027c-0.03,0.003-0.046,0.008-0.046,0.016
		c0.011,0.037,0.083,0.216,0.218,0.533c0.073,0.173,0.118,0.346,0.134,0.521c0.012,0.124,0.008,0.27-0.012,0.434
		c-0.03,0.242-0.093,0.415-0.189,0.519c-0.167-0.023-0.276-0.015-0.326,0.025c-0.025,0.021-0.055,0.047-0.086,0.077
		c-0.036,0.004-0.071-0.009-0.109-0.033c-0.037,0.542-0.035,1.042,0.009,1.498c0.034,0.37,0.074,0.685,0.122,0.942
		c-0.046,0.407-0.104,0.763-0.172,1.063c-0.108,0.471-0.415,0.99-0.917,1.558c0.107,0.108,0.213,0.222,0.318,0.34
		c0.893,0.992,1.378,1.916,1.458,2.77c0.027,0.295-0.049,0.618-0.231,0.978c-0.162,0.314-0.385,0.548-0.669,0.697
		c-0.037,0.084-0.084,0.166-0.14,0.243c-0.35,0.507-0.988,0.805-1.916,0.893c-0.367,0.032-0.698,0.043-0.994,0.025
		c-0.332,0.143-0.712,0.233-1.148,0.278c-0.268,0.588-0.814,0.921-1.64,0.999c-0.874,0.08-1.625,0.007-2.257-0.223
		c-0.603-0.615-1.231-1.194-1.886-1.741c-0.212-0.435-0.371-0.94-0.476-1.516c-0.012,0.042-0.023,0.086-0.036,0.131
		c-0.053-0.005-0.099-0.031-0.139-0.077c-0.031-0.039-0.048-0.077-0.052-0.116c-0.004-0.042,0.005-0.114,0.027-0.219
		c0.021-0.104,0.03-0.179,0.026-0.225c-0.019-0.201-0.02-0.438-0.003-0.713l-0.026,0.005c-0.046,0.067-0.089,0.087-0.131,0.063
		c-0.021-0.012-0.043-0.031-0.063-0.057c0.054-0.252,0.14-0.591,0.26-1.019c0.023-0.396,0.083-0.736,0.179-1.023
		c0.016-0.039,0.032-0.081,0.049-0.123c-0.1-0.016-0.163-0.047-0.187-0.096c0.017-0.078,0.088-0.186,0.207-0.318
		c0.109-0.114,0.188-0.196,0.236-0.248c0.003-0.009,0.007-0.02,0.011-0.03c-0.184,0.029-0.322,0.017-0.408-0.039
		c0.018-0.026,0.06-0.063,0.122-0.108c0.059-0.043,0.1-0.08,0.122-0.111c-0.074,0.001-0.137-0.011-0.188-0.035
		c-0.044-0.016-0.073-0.036-0.085-0.061c0.017-0.016,0.057-0.051,0.122-0.105c0.056-0.041,0.096-0.083,0.121-0.128
		c-0.067-0.046-0.095-0.108-0.081-0.186c0.053-0.004,0.109-0.008,0.165-0.018c0.001-0.009,0.003-0.016,0.005-0.022
		c0.016-0.018,0.03-0.035,0.043-0.051c0.046,0.013,0.087,0.024,0.126,0.033c0.083-0.022,0.169-0.054,0.258-0.092
		c0.02-0.062,0.039-0.124,0.059-0.188c-0.107,0.021-0.226,0.04-0.356,0.054c-0.036-0.013-0.065-0.031-0.085-0.054
		c0.08-0.103,0.141-0.182,0.185-0.234c0.069-0.087,0.156-0.178,0.259-0.271c-0.096-0.061-0.007-0.183,0.264-0.367
		c0.029-0.098,0.055-0.199,0.085-0.3l0.001-0.005c0.077-0.048,0.165-0.114,0.264-0.198c0.223-0.182,0.339-0.31,0.351-0.382
		l-0.027-0.113c-0.142,0.016-0.306,0.102-0.493,0.256c-0.046,0.04-0.107,0.1-0.184,0.176c-0.02-0.013-0.037-0.031-0.053-0.047
		c0.052-0.06,0.11-0.135,0.181-0.226l0.09-0.011c0.009-0.049,0.019-0.101,0.028-0.149c0.087-0.123,0.189-0.263,0.301-0.426
		c-0.004-0.044-0.015-0.074-0.032-0.092c-0.072,0.046-0.137,0.07-0.197,0.077c-0.086,0.008-0.106-0.004-0.055-0.036l-0.014-0.036
		c0.039-0.036,0.121-0.092,0.248-0.168c0.027-0.064,0.059-0.144,0.093-0.239c0.063-0.174,0.097-0.289,0.1-0.347
		c-0.043,0.021-0.083,0.034-0.117,0.038c-0.088,0.007-0.11-0.005-0.066-0.036l0.023-0.04c0.012-0.038,0.037-0.08,0.074-0.127
		c-0.024-0.028-0.054-0.058-0.088-0.089c-0.045-0.037-0.085-0.073-0.122-0.104c0.003-0.106,0.005-0.215,0.004-0.323
		c-0.023,0.001-0.05,0.004-0.075,0.007c0.28-0.235,0.416-0.393,0.408-0.474c-0.009-0.099-0.109-0.13-0.303-0.095
		c-0.105,0.019-0.219,0.054-0.342,0.102c-0.038,0.002-0.077,0.002-0.113,0.004c0.11-0.123,0.196-0.215,0.259-0.277
		c0.045-0.008,0.09-0.014,0.132-0.018c-0.005-0.135-0.011-0.264-0.017-0.389c-0.025,0-0.049,0.002-0.074,0.004
		c0.079-0.075,0.127-0.139,0.145-0.189l-0.255,0.025c-0.021-0.005-0.05-0.012-0.085-0.018c-0.005-0.004-0.011-0.008-0.015-0.013
		c-0.044,0.013-0.089,0.021-0.138,0.026c-0.098,0.009-0.179-0.011-0.248-0.057c-0.071-0.046-0.11-0.11-0.118-0.189
		c-0.003-0.03,0.015-0.071,0.054-0.125c-0.008,0.001-0.016,0.002-0.023,0.002c-0.413-0.025-0.661-0.069-0.741-0.131
		c0.021-0.056,0.051-0.094,0.096-0.115l1.062-0.104c0.007-0.006,0.016-0.012,0.024-0.019c-0.64-0.061-1.012-0.124-1.116-0.192
		c0.019-0.054,0.051-0.092,0.095-0.113l0.564-0.058c-0.012-0.011-0.083-0.054-0.214-0.134l0.036-0.082
		c0.058-0.023,0.129-0.04,0.217-0.046c0.091-0.01,0.316,0.006,0.68,0.047c-0.001-0.049-0.002-0.096-0.002-0.141
		c-0.107-0.031-0.223-0.062-0.347-0.097c-0.408-0.125-0.694-0.237-0.855-0.343l0.035-0.081c-0.013-0.017,0.025-0.028,0.113-0.036
		c0.428,0.121,0.778,0.222,1.049,0.296c0-0.047-0.001-0.095-0.002-0.143c-0.292-0.141-0.504-0.247-0.637-0.318
		c0.012-0.023,0.018-0.059,0.014-0.103c-0.007-0.069-0.111-0.134-0.31-0.191l-0.002-0.001c-0.084-0.102-0.126-0.161-0.128-0.179
		c-0.006-0.055,0-0.085,0.019-0.09c0.026-0.004,0.056-0.012,0.086-0.024c0.107,0.021,0.284,0.065,0.528,0.129
		c0.221,0.06,0.361,0.1,0.422,0.122c-0.066-0.036-0.228-0.151-0.484-0.342c0.02-0.055,0.051-0.094,0.094-0.115
		c0.078-0.035,0.183-0.008,0.315,0.082c0.024,0.019,0.046,0.037,0.067,0.054c0-0.005-0.001-0.011-0.001-0.015
		c-0.068-0.061-0.16-0.138-0.275-0.236c-0.238-0.214-0.36-0.359-0.368-0.44c-0.005-0.057,0-0.087,0.018-0.092
		c0.031-0.003,0.057-0.01,0.076-0.023c0.062,0.02,0.161,0.08,0.296,0.178c0.128,0.092,0.207,0.138,0.234,0.144l-0.028-0.025
		c-0.067-0.084-0.182-0.191-0.341-0.322c-0.087-0.068-0.136-0.163-0.147-0.286c-0.007-0.076,0.036-0.12,0.13-0.129
		c-0.018-0.039-0.071-0.111-0.163-0.215c-0.08-0.096-0.12-0.154-0.123-0.18c-0.005-0.052,0.002-0.084,0.024-0.092
		c0.033-0.002,0.061-0.01,0.081-0.023c0.029,0.009,0.071,0.024,0.126,0.051c0.048,0.024,0.076,0.035,0.082,0.034l-0.021-0.044
		c-0.074-0.117-0.131-0.208-0.173-0.274c-0.078-0.12-0.12-0.211-0.126-0.273c-0.005-0.056,0.003-0.087,0.023-0.098
		c0.035-0.006,0.061-0.016,0.082-0.028c0.143,0.152,0.33,0.392,0.559,0.719c0.001-0.019,0-0.039,0.002-0.058
		c-0.051-0.069-0.103-0.142-0.156-0.219c-0.442-0.635-0.666-0.977-0.67-1.024c-0.005-0.055,0.011-0.094,0.047-0.114
		c0.013-0.009,0.042-0.019,0.087-0.03c-0.025-0.032-0.082-0.113-0.171-0.242c-0.056-0.083-0.094-0.147-0.113-0.195
		c0.019-0.007,0.028-0.014,0.03-0.015c0.023-0.021,0.032-0.061,0.027-0.117c-0.001-0.009-0.003-0.017-0.004-0.026
		c0.008-0.003,0.016-0.008,0.024-0.012c-0.192-0.278-0.314-0.509-0.365-0.692c-0.01-0.011-0.019-0.018-0.027-0.026
		c0.007,0.006,0.016,0.008,0.022,0.014c-0.01-0.042-0.018-0.083-0.021-0.119c-0.005-0.053,0.004-0.09,0.025-0.112
		c0.027-0.021,0.044-0.038,0.054-0.054c0.079,0.068,0.183,0.18,0.316,0.334l0.025-0.06c0.064,0.054,0.135,0.121,0.214,0.202
		c-0.075-0.114-0.127-0.196-0.158-0.249c-0.143-0.192-0.268-0.374-0.375-0.546c0.115,0.114,0.242,0.245,0.377,0.393
		c0.014-0.003,0.026-0.011,0.038-0.021c0.134,0.122,0.235,0.213,0.3,0.274c0.01,0.009,0.02,0.018,0.029,0.025
		c-0.458-0.607-0.694-0.979-0.707-1.113c-0.005-0.053-0.005-0.08-0.002-0.085c0.003,0.004,0.011-0.002,0.019-0.017
		c0.11,0.138,0.258,0.332,0.44,0.585c0.009-0.011,0.015-0.019,0.022-0.026c-0.29-0.393-0.54-0.671-0.752-0.837
		c0.182,0.097,0.374,0.25,0.575,0.46c-0.187-0.29-0.282-0.453-0.287-0.494c-0.001-0.02,0.047-0.076,0.144-0.165
		c-0.077-0.099-0.117-0.151-0.121-0.158c-0.041-0.066-0.064-0.133-0.071-0.199c-0.013-0.135-0.075-0.306-0.19-0.51
		c-0.11-0.203-0.167-0.315-0.168-0.332c-0.004-0.053,0-0.084,0.014-0.091l0.018-0.018l0.115-0.011
		c-0.162-0.235-0.247-0.386-0.251-0.451c-0.006-0.056,0-0.085,0.017-0.091c0.031-0.003,0.058-0.013,0.078-0.024
		c0.197,0.16,0.317,0.255,0.358,0.284c-0.027-0.11-0.017-0.213,0.034-0.311c0.175,0.05,0.312,0.131,0.408,0.239
		c-0.074-0.112-0.132-0.204-0.174-0.271c-0.125-0.211-0.196-0.407-0.213-0.593c-0.006-0.055,0-0.089,0.016-0.102
		c0.031-0.01,0.056-0.021,0.077-0.034c0.055,0.023,0.09,0.033,0.108,0.028c0.017-0.008,0.032-0.038,0.044-0.095
		c-0.041-0.052-0.083-0.128-0.132-0.225c-0.048-0.104-0.089-0.181-0.122-0.226l0.035-0.083c-0.03-0.015,0-0.026,0.087-0.035
		c0.062-0.006,0.119,0.026,0.172,0.096c0.072,0.099,0.148,0.168,0.225,0.21l-0.012-0.023c-0.07-0.097-0.161-0.248-0.275-0.453
		c-0.015,0.003-0.031,0.006-0.046,0.007c-0.056,0.005-0.089-0.004-0.098-0.028c-0.007-0.027-0.012-0.049-0.017-0.065
		c0.008-0.033,0.022-0.073,0.047-0.124c-0.034-0.065-0.062-0.124-0.085-0.174c-0.005,0.002-0.01,0.005-0.015,0.007l-0.107-0.016
		c-0.011-0.011-0.02-0.02-0.024-0.03c-0.012-0.021-0.021-0.058-0.027-0.113c-0.003-0.029-0.003-0.059-0.001-0.088
		c0.043,0.005,0.078,0.008,0.108,0.004c0.221-0.021,0.324-0.102,0.312-0.241c-0.004-0.047-0.072-0.096-0.203-0.149
		c0.104-0.039,0.152-0.102,0.145-0.188c-0.009-0.096-0.262-0.189-0.761-0.282c-0.019-0.033-0.042-0.065-0.069-0.099l0.014-0.002
		c0.13-0.025,0.214-0.047,0.251-0.065c0.063-0.034,0.092-0.09,0.084-0.166c-0.005-0.069-0.08-0.107-0.223-0.11
		c-0.075-0.004-0.196-0.004-0.364,0.007c-0.01-0.026-0.022-0.053-0.038-0.075c-0.015-0.027-0.042-0.063-0.078-0.11
		c0.019-0.054,0.042-0.092,0.068-0.11c0.035-0.015,0.065-0.03,0.091-0.053c-0.054-0.007-0.12-0.048-0.196-0.117
		c-0.069-0.065-0.105-0.106-0.106-0.128c-0.005-0.052-0.002-0.082,0.012-0.091l0.018-0.018c0.072-0.007,0.122-0.014,0.152-0.02
		l0.031-0.014c-0.06,0.006-0.138,0.021-0.234,0.044c-0.073,0.013-0.114,0.019-0.12,0.016c0.254-0.141,0.446-0.229,0.576-0.265
		c0.006-0.003,0.012-0.004,0.021-0.004c0.03-0.028,0.073-0.056,0.124-0.082c0.245-0.13,0.426-0.248,0.547-0.358
		c-0.141-0.146-0.229-0.28-0.264-0.404c-0.001-0.002-0.047-0.025-0.139-0.07c-0.092-0.048-0.139-0.076-0.141-0.086
		c-0.004-0.043,0.024-0.117,0.086-0.226c0.066-0.112,0.108-0.181,0.127-0.211c-0.146,0.013-0.232-0.005-0.257-0.056
		c0.004-0.025,0.031-0.075,0.08-0.15c0.052-0.08,0.092-0.129,0.117-0.149c-0.003-0.005-0.054-0.003-0.151,0.011
		c-0.095,0.009-0.15,0.007-0.165-0.006l0.007-0.037c0.045-0.059,0.077-0.1,0.1-0.126c0.041-0.055,0.084-0.098,0.13-0.134
		c-0.045,0.007-0.097,0.004-0.155-0.012c-0.054-0.016-0.092-0.035-0.116-0.057c0.005-0.026,0.04-0.082,0.101-0.169
		c-0.035,0.004-0.085,0.011-0.151,0.019c-0.044,0.002-0.071-0.026-0.075-0.082c-0.006-0.056-0.007-0.083-0.003-0.08l0.008,0.021
		c0.23-0.142,0.416-0.293,0.558-0.459c0.066-0.078,0.125-0.146,0.177-0.2c-0.012-0.012-0.023-0.026-0.035-0.039l-0.771,0.046
		l-0.053-0.102c0.013-0.05,0.046-0.088,0.096-0.114c0.394-0.05,0.654-0.088,0.779-0.117c-0.003-0.005-0.005-0.012-0.009-0.019
		c-0.341-0.026-0.683-0.045-1.031-0.051c0.057-0.021,0.096-0.056,0.117-0.1c0.014-0.034,0.02-0.074,0.015-0.124
		c-0.007-0.077-0.06-0.146-0.16-0.204c0.371-0.046,0.649-0.083,0.835-0.112c-0.013-0.042-0.026-0.087-0.04-0.133
		c-0.305,0.012-0.539,0.022-0.701,0.033l-0.052-0.1c0.013-0.052,0.045-0.089,0.094-0.115c0.196-0.035,0.389-0.072,0.578-0.112
		c-0.015-0.058-0.029-0.112-0.043-0.168c-0.059,0.003-0.119,0.004-0.18,0.005c-0.183-0.005-0.314-0.052-0.393-0.144
		c0.11-0.116,0.269-0.201,0.48-0.252c-0.003-0.019-0.007-0.036-0.01-0.053l-0.285,0.023c-0.019-0.001-0.042-0.004-0.075-0.007
		c-0.021-0.015-0.036-0.048-0.041-0.103c-0.002-0.019-0.002-0.036,0-0.057c0.151,0.042,0.282,0.057,0.394,0.045
		c0.157-0.015,0.257-0.062,0.298-0.144l0.021-0.122c-0.007-0.074-0.143-0.148-0.407-0.226c0.248-0.025,0.403-0.078,0.465-0.16
		c0.022-0.027,0.029-0.073,0.023-0.14c-0.016-0.159-0.216-0.242-0.603-0.25c-0.006,0.001-0.013,0-0.02-0.001
		c0.019-0.023,0.042-0.049,0.069-0.072c0.017-0.015,0.039-0.03,0.065-0.049c-0.001-0.041,0-0.083,0-0.126
		c-0.002,0-0.004,0.001-0.008,0.001c-0.108,0.01-0.169,0.013-0.184,0.006c-0.003-0.007-0.005-0.018-0.007-0.025
		c0.227-0.054,0.431-0.128,0.612-0.226c0.248-0.131,0.367-0.242,0.36-0.329c-0.008-0.077-0.104-0.13-0.29-0.157
		c-0.178-0.026-0.379-0.021-0.606,0.014l-0.001,0.001c-0.007-0.001-0.013-0.002-0.021-0.004c-0.024-0.012-0.04-0.045-0.046-0.102
		c-0.004-0.048-0.037-0.075-0.096-0.081c-0.071-0.007-0.112-0.017-0.124-0.029c0.058-0.13,0.196-0.29,0.409-0.482
		c0.049-0.044,0.095-0.084,0.139-0.122c0.005-0.063,0.01-0.117,0.013-0.161c-0.067,0.023-0.137,0.039-0.207,0.046
		c-0.056,0.005-0.097-0.003-0.124-0.025c-0.011-0.014-0.026-0.036-0.043-0.064c0.007-0.046,0.042-0.11,0.104-0.195
		c0.064-0.08,0.093-0.126,0.093-0.14c-0.035-0.112-0.05-0.202-0.045-0.267c-0.006-0.021-0.01-0.036-0.011-0.05
		c-0.01-0.102-0.017-0.205-0.019-0.31c-0.053,0.004-0.086-0.004-0.102-0.029c-0.006-0.013-0.013-0.034-0.023-0.064
		c0.014-0.081,0.055-0.153,0.125-0.218c0.001-0.016,0.001-0.027,0.002-0.04c-0.063-0.01-0.109-0.027-0.134-0.053
		c-0.016-0.016-0.026-0.047-0.03-0.092c-0.009-0.036-0.001-0.073,0.027-0.114c0.033-0.048,0.088-0.088,0.166-0.12
		c0.004-0.039,0.009-0.078,0.015-0.118c-0.059-0.017-0.102-0.031-0.129-0.045c-0.043-0.025-0.068-0.053-0.07-0.079
		c-0.008-0.08,0.035-0.136,0.127-0.166c0.025-0.006,0.065-0.016,0.118-0.025c0.007-0.035,0.013-0.071,0.02-0.106
		c-0.164-0.004-0.25-0.004-0.257-0.004c-0.166-0.012-0.252-0.05-0.257-0.113c-0.006-0.052-0.006-0.095-0.002-0.131
		c0.007-0.04,0.009-0.063,0.01-0.069c0.101-0.016,0.294-0.024,0.58-0.026c0.003-0.012,0.005-0.024,0.009-0.037
		c-0.128-0.023-0.324-0.058-0.585-0.106c-0.464-0.11-0.702-0.239-0.716-0.381c-0.005-0.053,0-0.083,0.018-0.092l0.025-0.019
		c0.114-0.01,0.228-0.025,0.339-0.041c0.11-0.022,0.214-0.036,0.312-0.047c-0.01-0.068,0.003-0.126,0.037-0.172
		c0.008-0.008,0.016-0.017,0.024-0.023l-0.001-0.005c-0.001-0.013-0.002-0.024-0.003-0.036c-0.111-0.006-0.262-0.013-0.45-0.017
		l-0.036-0.102l0.019-0.081c0.054-0.017,0.223-0.036,0.503-0.062l0-0.004c-0.124-0.238-0.056-0.401,0.205-0.487l-0.141,0.011
		c-0.046,0.004-0.072,0.004-0.079,0.001c-0.02-0.009-0.031-0.042-0.037-0.097s0.001-0.085,0.019-0.092
		c0.031-0.003,0.058-0.011,0.076-0.023c0.369-0.042,0.678-0.081,0.929-0.121c-0.002-0.018-0.003-0.037-0.005-0.054
		c0-0.002,0-0.004,0-0.008l-0.776,0.064c-0.044,0.005-0.071,0.005-0.078,0.002c-0.019-0.01-0.031-0.042-0.036-0.096
		c-0.013-0.141,0.163-0.239,0.526-0.298c0.083-0.015,0.161-0.027,0.236-0.042c-0.003-0.011-0.004-0.022-0.005-0.032
		c-0.004-0.05-0.004-0.1-0.001-0.151l-0.432,0.032c-0.052-0.033-0.086-0.058-0.098-0.074c-0.02-0.027-0.034-0.071-0.039-0.133
		c-0.004-0.05,0.007-0.09,0.032-0.121c0.016-0.016,0.116-0.104,0.302-0.271c-0.305,0.021-0.488,0.012-0.553-0.031
		c-0.033-0.021-0.053-0.06-0.058-0.11c0.06-0.081,0.246-0.195,0.56-0.344c0.293-0.142,0.499-0.222,0.616-0.242l-0.619,0.048
		c-0.057-0.013-0.1-0.053-0.127-0.121c0.036-0.07,0.136-0.119,0.303-0.15l-0.462,0.033c-0.021-0.004-0.05-0.007-0.084-0.001
		c-0.021-0.01-0.035-0.04-0.041-0.093c-0.005-0.058,0.035-0.104,0.121-0.132c0.164-0.044,0.33-0.095,0.497-0.152
		c-0.083-0.126-0.091-0.205-0.027-0.234c0.127-0.065,0.199-0.11,0.22-0.138c-0.079-0.01-0.14-0.04-0.184-0.088
		c0.007-0.015,0.015-0.028,0.024-0.042c0.07,0.002,0.147,0.001,0.236-0.008c0.264-0.026,0.425-0.079,0.481-0.161
		c0.006-0.083,0.009-0.127,0.009-0.135c-0.01-0.1-0.088-0.17-0.236-0.206c0.091-0.069,0.187-0.136,0.287-0.198
		c-0.023-0.064-0.023-0.121,0-0.169c0.021-0.037,0.065-0.083,0.13-0.133c-0.161-0.018-0.246-0.026-0.256-0.029
		c-0.044-0.014-0.067-0.047-0.072-0.1c-0.015-0.153,0.062-0.249,0.23-0.291c0.123-0.031,0.231-0.063,0.326-0.098
		c0.122,0.013,0.276,0.011,0.461-0.008l0.197-0.032l0.014-0.014c0.014-0.008,0.017-0.037,0.012-0.089
		c-0.005-0.07-0.09-0.113-0.253-0.126c-0.081-0.007-0.194-0.009-0.342-0.005c0.215-0.253,0.387-0.45,0.515-0.59
		c0.015-0.063,0.031-0.126,0.046-0.188c-0.053,0.002-0.119,0.006-0.202,0.011c-0.186,0.012-0.284,0.011-0.295,0.001
		c0.067-0.09,0.182-0.191,0.34-0.3c0.12-0.08,0.205-0.129,0.255-0.146c0.026-0.112,0.049-0.222,0.068-0.327
		c0.042-0.006,0.084-0.018,0.125-0.033c0.057-0.007,0.119-0.021,0.182-0.044c0.073-0.023,0.117-0.046,0.131-0.064l-0.01-0.12
		l-0.002,0.001c0.004-0.009,0.009-0.017,0.016-0.023c0.11-0.138,0.164-0.229,0.159-0.273c-0.004-0.042-0.025-0.085-0.065-0.125
		c-0.061-0.065-0.148-0.087-0.259-0.065c0.128-0.146,0.188-0.254,0.182-0.323c-0.025-0.263-0.165-0.332-0.422-0.215
		c-0.008-0.006-0.017-0.013-0.022-0.019c0.063-0.043,0.125-0.084,0.187-0.125c0.021-0.092,0.043-0.184,0.065-0.279
		c0.008-0.033,0.016-0.065,0.022-0.099c-0.114,0.116-0.205,0.198-0.271,0.249l-0.06-0.073c0.083-0.198,0.228-0.422,0.436-0.672
		c0.036-0.175,0.068-0.354,0.098-0.534c-0.079,0.039-0.142,0.062-0.19,0.066c-0.015,0.001-0.076-0.046-0.184-0.142
		c0.031-0.016,0.173-0.111,0.427-0.284c0.014-0.088,0.026-0.177,0.039-0.268c-0.067,0.028-0.119,0.045-0.158,0.048
		c-0.056,0.006-0.09,0.002-0.102-0.011c-0.004-0.012-0.01-0.029-0.02-0.056l0.019-0.083c0.102-0.083,0.203-0.157,0.3-0.22
		c0.038-0.396,0.063-0.663,0.076-0.802c-0.077,0.026-0.158,0.042-0.241,0.05c-0.088,0.008-0.117-0.013-0.09-0.061l0.012-0.038
		c0.026-0.027,0.124-0.112,0.292-0.257c-0.013-0.06-0.033-0.124-0.054-0.194c-0.098,0.032-0.201,0.052-0.311,0.062
		c-0.088,0.009-0.119,0.008-0.095-0.007l-0.007-0.062c0.128-0.084,0.239-0.159,0.333-0.225c-0.091-0.244-0.215-0.535-0.377-0.873
		c-0.128,0.078-0.219,0.119-0.273,0.124c-0.104,0.011-0.169-0.038-0.192-0.146c-0.025-0.109-0.044-0.164-0.058-0.163
		c-0.14,0.014-0.229-0.006-0.27-0.055c-0.015-0.017-0.026-0.06-0.035-0.124c0.025-0.084,0.038-0.139,0.035-0.165
		c-0.04-0.427-0.162-0.411-0.366,0.039c-0.038,0.086-0.075,0.172-0.107,0.258c-0.021-0.036-0.035-0.077-0.038-0.123
		c0-0.004,0.019-0.115,0.057-0.338c0.044-0.221,0.064-0.343,0.062-0.364c-0.001-0.008-0.043-0.032-0.128-0.077
		c-0.082-0.045-0.125-0.09-0.129-0.131c-0.001-0.018,0.014-0.086,0.044-0.205c0.038-0.121,0.058-0.196,0.059-0.223
		c-0.003,0.002-0.021,0.021-0.053,0.06c-0.046,0.039-0.094,0.061-0.146,0.066c-0.043,0.004-0.097-0.004-0.157-0.023
		c0.087-0.141,0.157-0.235,0.208-0.282c-0.068-0.023-0.136-0.026-0.205-0.007c0.122-0.252,0.182-0.396,0.177-0.434
		c-0.005-0.06-0.018-0.1-0.042-0.118c-0.015-0.009-0.044-0.017-0.091-0.023c-0.008,0.013-0.128,0.197-0.363,0.554
		c0-0.049,0.004-0.109,0.012-0.183c0.005-0.051,0.008-0.091,0.012-0.131c0.047-0.116,0.07-0.188,0.067-0.214
		c-0.004-0.05-0.012-0.088-0.021-0.119c-0.013-0.049-0.021-0.088-0.028-0.119c-0.12,0.001-0.235,0.066-0.346,0.192
		c-0.004-0.011-0.006-0.024-0.009-0.038c0.054-0.226,0.103-0.405,0.145-0.535l-0.038-0.019c-0.023,0.022-0.045,0.044-0.068,0.067
		c-0.054-0.019-0.101-0.047-0.14-0.085c-0.036-0.035-0.053-0.064-0.055-0.084c-0.003-0.039,0.013-0.164,0.049-0.374
		c0.034-0.19,0.063-0.335,0.086-0.437c-0.009,0.026-0.023,0.069-0.041,0.132c-0.004-0.043-0.009-0.066-0.011-0.069
		c-0.009-0.004-0.017-0.017-0.025-0.034c-0.188,0.088-0.343,0.211-0.467,0.372l0.125-0.832c-0.065,0.12-0.127,0.217-0.187,0.287
		c0.048-0.136,0.069-0.217,0.067-0.242c-0.005-0.048-0.008-0.074-0.011-0.072c-0.007,0-0.015-0.007-0.024-0.019
		c-0.101,0.003-0.232,0.163-0.398,0.479c-0.023-0.012-0.044-0.027-0.062-0.047c0.033-0.068,0.07-0.141,0.106-0.217
		c0.356-0.739,0.533-1.139,0.527-1.199c-0.037-0.391-0.229-0.286-0.578,0.315c0.018-0.054,0.034-0.111,0.051-0.171
		c0.033-0.106,0.063-0.204,0.09-0.295c-0.006-0.092-0.006-0.169-0.003-0.232c-0.133-0.095-0.275-0.161-0.428-0.2
		c-0.09,0.129-0.188,0.196-0.297,0.207c-0.104,0.01-0.162-0.042-0.173-0.158c-0.003-0.027-0.002-0.059,0.004-0.099
		c-0.118-0.007-0.246-0.017-0.38-0.026c-0.001,0.002-0.002,0.002-0.004,0.002c-0.003,0-0.004-0.002-0.006-0.005
		c-0.06-0.004-0.121-0.009-0.184-0.014c-0.073,0.077-0.146,0.119-0.224,0.126c-0.052,0.005-0.104-0.018-0.153-0.065
		c-0.031-0.029-0.056-0.064-0.073-0.103c-0.091-0.01-0.184-0.021-0.278-0.03c-0.05-0.038-0.106-0.079-0.171-0.118
		c-0.078,0.146-0.158,0.237-0.241,0.27c0.015-0.127,0.034-0.248,0.056-0.369c-0.05-0.021-0.096-0.043-0.141-0.062
		c-0.041,0.186-0.087,0.311-0.142,0.376c-0.024-0.007-0.062-0.034-0.113-0.086c-0.05-0.055-0.077-0.098-0.081-0.129
		c-0.006-0.072-0.005-0.157,0.005-0.256c-0.012-0.001-0.023-0.005-0.034-0.007c-0.037,0.104-0.073,0.206-0.109,0.307
		c0.004,0.046,0.009,0.076,0.014,0.088l-0.022-0.007l-0.089-0.109c0.003-0.011,0.023-0.103,0.058-0.273
		c-0.09-0.007-0.162-0.039-0.214-0.102c-0.022-0.025-0.046-0.059-0.073-0.102l0.005,0.061l-0.011,0.043l-0.064-0.009
		c-0.068-0.086-0.109-0.157-0.126-0.211c-0.007,0.029-0.013,0.067-0.015,0.112c-0.007,0.04-0.019,0.064-0.036,0.077l-0.039-0.023
		l-0.021-0.224l-0.009,0.358c-0.08-0.021-0.159-0.026-0.239-0.019l-0.019-0.194l-0.009,0.001l0.021,0.235l-0.093,0.021
		c-0.018-0.007-0.032-0.017-0.041-0.033c-0.019-0.105-0.03-0.166-0.033-0.183c-0.004,0.024-0.008,0.078-0.011,0.16l-0.037,0.005
		c-0.036-0.05-0.076-0.13-0.12-0.241c-0.099-0.047-0.198-0.094-0.298-0.142c-0.011,0.012-0.022,0.026-0.037,0.039
		c-0.017-0.022-0.032-0.049-0.046-0.079c-0.087-0.041-0.177-0.083-0.266-0.126c0.002,0.05,0.002,0.091,0,0.129
		c-0.019-0.017-0.03-0.037-0.032-0.062c-0.002-0.02-0.008-0.049-0.017-0.092c-0.018-0.008-0.035-0.017-0.053-0.026
		c-0.002,0.038-0.007,0.064-0.012,0.084c-0.021-0.039-0.041-0.079-0.06-0.118c-0.169-0.081-0.341-0.164-0.516-0.251
		c-0.333-0.004-0.587-0.043-0.763-0.113c-0.196-0.08-0.333-0.221-0.408-0.424c-0.035,0.005-0.068,0.011-0.1,0.014
		c-0.413,0.038-0.763-0.028-1.053-0.199c-0.231-0.136-0.353-0.277-0.367-0.424c-0.004-0.036-0.005-0.076,0-0.115
		c-0.017,0.001-0.031,0.003-0.048,0.004c-0.348,0.032-0.567-0.428-0.655-1.38c-0.001-0.013-0.002-0.025-0.002-0.039
		c-0.018-0.062-0.037-0.119-0.056-0.176c-0.027-0.076-0.054-0.149-0.083-0.215c-0.053-0.429-0.129-0.828-0.229-1.197
		c-0.066-0.261-0.144-0.49-0.228-0.688c-0.132-0.064-0.261-0.196-0.385-0.399c-0.147-0.242-0.225-0.439-0.239-0.589
		c0-0.006-0.001-0.012-0.001-0.017c-0.061-0.158-0.107-0.407-0.138-0.743c-0.022-0.238,0.023-0.614,0.137-1.123
		c0.021-0.091,0.042-0.176,0.066-0.255c-0.209-0.348-0.364-0.604-0.466-0.77c-0.382-0.438-0.609-1.018-0.677-1.737
		c0.001-0.001,0-0.01-0.002-0.024c-0.131-0.431-0.24-0.769-0.328-1.013c-0.067-0.077-0.137-0.16-0.21-0.246
		c-0.362-0.428-0.646-0.767-0.85-1.018c-0.253-0.073-0.458-0.174-0.615-0.306c-0.122-0.103-0.279-0.264-0.473-0.484
		c-0.066,0.048-0.125,0.065-0.179,0.053c-0.015-0.041-0.025-0.102-0.032-0.181l-0.034,0.046c-0.024,0.033-0.05,0.057-0.073,0.069
		c-0.053-0.036-0.15-0.143-0.293-0.315c-0.15-0.18-0.227-0.294-0.232-0.343c-0.007-0.069,0.021-0.132,0.087-0.186
		c-0.022-0.04-0.039-0.076-0.051-0.107c-0.024-0.011-0.05-0.022-0.078-0.036c-0.066-0.033-0.101-0.06-0.103-0.085
		c-0.011-0.121,0.009-0.233,0.06-0.342c-0.018-0.049-0.032-0.1-0.038-0.153c-0.019-0.018-0.04-0.037-0.064-0.055
		c-0.069-0.054-0.104-0.086-0.109-0.096c0.192-0.169,0.32-0.284,0.381-0.344c0.021-0.042,0.041-0.086,0.065-0.137
		c0.003-0.04,0.002-0.092-0.004-0.151l-0.074-0.226c0.014-0.104,0.1-0.18,0.256-0.229c0.059-0.104,0.087-0.169,0.085-0.192
		c0.121-0.156,0.222-0.279,0.305-0.377c0.043-0.109,0.089-0.221,0.135-0.338c0.072-0.052,0.103-0.124,0.091-0.216
		c-0.005-0.058-0.014-0.124-0.026-0.197c0.007-0.005,0.015-0.01,0.022-0.015c-0.009-0.003-0.017-0.006-0.025-0.01
		c-0.002-0.01-0.003-0.02-0.005-0.027c0.048-0.104,0.124-0.215,0.228-0.328c0.083-0.088,0.123-0.161,0.117-0.217
		c-0.006-0.077-0.039-0.143-0.097-0.197c-0.017-0.016-0.035-0.029-0.054-0.041c0.034-0.047,0.07-0.096,0.111-0.146
		c0.282-0.338,0.412-0.613,0.392-0.826c-0.003-0.042-0.03-0.062-0.079-0.056c-0.05,0.003-0.075-0.016-0.079-0.062
		c-0.005-0.049,0.107-0.249,0.334-0.601c0.256-0.379,0.412-0.612,0.467-0.697c-0.092-0.057-0.144-0.095-0.153-0.118
		c0.036-0.06,0.155-0.177,0.358-0.351c0.166-0.138,0.245-0.243,0.239-0.313c-0.005-0.041,0.005-0.083,0.025-0.122
		c0.025-0.039,0.035-0.08,0.031-0.125c-0.016-0.167-0.021-0.258-0.015-0.272c0.042-0.071,0.22-0.199,0.534-0.382
		c-0.051-0.02-0.095-0.064-0.134-0.13c0.365-0.357,0.67-0.639,0.914-0.84c0.073-0.06,0.107-0.115,0.102-0.168
		c-0.013-0.132,0.039-0.207,0.158-0.226c0.055-0.002,0.11-0.006,0.167-0.009c0.023-0.029,0.046-0.06,0.069-0.089
		c-0.062-0.014-0.125-0.057-0.184-0.127c0.004-0.029,0.019-0.062,0.043-0.1l0.22-0.02l-0.027-0.009l-0.099-0.095
		c0.005-0.029,0.02-0.056,0.045-0.084l0.206-0.046c-0.018-0.012-0.043-0.021-0.075-0.029c-0.024-0.011-0.036-0.045-0.041-0.102
		c-0.006-0.061,0.028-0.103,0.104-0.121c0.13-0.034,0.239-0.074,0.324-0.119c-0.001-0.006-0.003-0.015-0.006-0.021
		c-0.021,0-0.047,0.001-0.073,0.002c-0.031-0.008-0.051-0.041-0.056-0.095c-0.007-0.078,0.06-0.178,0.199-0.305
		c0.004-0.003,0.009-0.006,0.014-0.011c-0.031-0.032-0.049-0.062-0.05-0.09c-0.005-0.057-0.005-0.088,0.001-0.095
		c0.015-0.001,0.027-0.01,0.04-0.025c0.107-0.009,0.233-0.03,0.375-0.058c-0.001-0.008-0.002-0.019-0.002-0.029
		c-0.005-0.056,0.02-0.083,0.076-0.081l0.091,0.013l0.044,0.001c-0.012-0.01-0.022-0.037-0.025-0.084
		c-0.005-0.052,0.001-0.082,0.018-0.09c0.018,0,0.026-0.002,0.026-0.007l0.271-0.025l-0.011-0.01
		c-0.035-0.025-0.089-0.083-0.164-0.169c0.023-0.027,0.141-0.045,0.357-0.055c0.002-0.014,0.005-0.028,0.006-0.042
		c-0.06-0.026-0.099-0.054-0.115-0.084c0.021-0.028,0.068-0.05,0.138-0.062c0.014-0.057,0.028-0.101,0.046-0.134
		c-0.066-0.047-0.12-0.087-0.162-0.122c0.031-0.038,0.104-0.062,0.22-0.073c0.013-0.001,0.024-0.002,0.034-0.003
		c0.042-0.053,0.111-0.085,0.21-0.092c0.031-0.005,0.059-0.004,0.084-0.001c0.013-0.004,0.026-0.005,0.042-0.007l-0.026-0.008
		c-0.127-0.035-0.201-0.07-0.222-0.112c0.032-0.038,0.104-0.062,0.22-0.073c-0.047-0.047-0.088-0.097-0.124-0.142
		c-0.02-0.026-0.045-0.061-0.073-0.104c0.062-0.014,0.162-0.019,0.298-0.017c0.187,0.001,0.334-0.001,0.443-0.004
		c0.005-0.004,0.01-0.01,0.014-0.015c-0.015,0-0.034-0.002-0.058-0.002c-0.066-0.021-0.129-0.077-0.19-0.167
		c0.134,0.001,0.265,0.01,0.393,0.025c0.007,0.001,0.013,0.003,0.02,0.003c0.056-0.01,0.111-0.022,0.165-0.036
		c-0.022-0.015-0.05-0.031-0.081-0.051c-0.09-0.055-0.155-0.097-0.198-0.129l0.038-0.044c0.059-0.01,0.155,0.007,0.286,0.052
		c0.054,0.016,0.098,0.031,0.135,0.04c-0.023-0.012-0.035-0.04-0.04-0.085c-0.008-0.087,0.004-0.107,0.037-0.057
		c0.195,0.063,0.279,0.066,0.249,0.009C50.892,90.865,50.902,90.819,50.968,90.812z M51.889,90.103
		c0.011,0.005,0.023,0.011,0.033,0.017c0.001-0.004,0.002-0.006,0.004-0.009C51.908,90.104,51.895,90.102,51.889,90.103z
		 M48.775,92.916c-0.03,0.003-0.057,0.007-0.083,0.016l0.113,0.007L48.775,92.916z M83.733,140.658
		c0.059,0.041,0.112,0.078,0.162,0.113l0.135,0.009c-0.087-0.061-0.193-0.142-0.316-0.239
		C83.72,140.578,83.727,140.617,83.733,140.658z M83.246,145.375l-0.006-0.002l-0.003,0.003
		C83.241,145.375,83.243,145.375,83.246,145.375z M120.936,147.181c-0.067,0.011-0.257,0.086-0.571,0.229
		c-0.169,0.073-0.378,0.165-0.623,0.28l0.068-0.006c0.074-0.029,0.236-0.095,0.482-0.199c0.288-0.12,0.494-0.216,0.618-0.284
		L120.936,147.181z M119.628,148.105c-0.183,0.078-0.287,0.119-0.311,0.125c0.091-0.062,0.279-0.138,0.565-0.223
		c0.438-0.214,0.847-0.474,1.23-0.774c-0.231,0.129-0.807,0.388-1.726,0.778c-0.315,0.137-0.598,0.252-0.849,0.352
		c-0.045,0.069-0.085,0.139-0.127,0.208c0.104-0.033,0.214-0.067,0.329-0.102c0.178-0.065,0.333-0.122,0.467-0.172
		c0.216-0.08,0.427-0.169,0.628-0.267C119.779,148.048,119.711,148.073,119.628,148.105z M119.148,148.506
		c-0.327,0.134-0.618,0.24-0.877,0.321c-0.001,0.005-0.003,0.008-0.008,0.016c0.063-0.019,0.119-0.035,0.168-0.05
		c0.205-0.065,0.465-0.168,0.777-0.312c-0.015,0.007-0.03,0.013-0.046,0.02L119.148,148.506z M119.146,149.438
		c0.403-0.126,0.711-0.266,0.923-0.419c-0.016-0.016-0.073-0.039-0.172-0.076c-0.165,0.154-0.492,0.34-0.98,0.559
		C119.011,149.477,119.087,149.457,119.146,149.438z M103.462,138.067c0.002-0.019,0.003-0.036,0.005-0.054
		c-0.004,0.02-0.009,0.037-0.011,0.055L103.462,138.067z M103.772,142.033c-0.003-0.009-0.004-0.018-0.006-0.027
		c-0.007,0.02-0.012,0.039-0.016,0.055C103.758,142.053,103.764,142.043,103.772,142.033z M103.807,142.269
		c-0.022,0.021-0.06,0.086-0.108,0.192c0.055-0.056,0.093-0.112,0.113-0.172C103.811,142.284,103.81,142.276,103.807,142.269
		L103.807,142.269z M103.734,142.564c-0.02,0.007-0.05,0.038-0.092,0.092c-0.048,0.058-0.076,0.107-0.085,0.15
		c0.036-0.014,0.069-0.047,0.096-0.098c0.031-0.067,0.061-0.11,0.083-0.13L103.734,142.564z M104.684,145.715
		c-0.009,0.028-0.02,0.06-0.03,0.091c0.023-0.05,0.038-0.082,0.045-0.097C104.694,145.708,104.689,145.71,104.684,145.715z
		 M104.312,146.034c-0.03,0.056-0.056,0.117-0.074,0.184c0.01-0.028,0.021-0.054,0.031-0.079
		C104.283,146.104,104.298,146.069,104.312,146.034z M103.815,155.512c-0.01,0.019-0.02,0.04-0.03,0.064
		c-0.015,0.028-0.029,0.057-0.044,0.082c0.005-0.021,0.009-0.04,0.013-0.058C103.772,155.572,103.793,155.542,103.815,155.512z
		 M106.499,165.264c0.002-0.006,0.003-0.011,0.005-0.013c-0.003-0.009-0.006-0.015-0.008-0.022l-0.007,0.03L106.499,165.264z
		 M69.837,166.425c-0.005,0.063,0.027,0.172,0.093,0.324c0.079,0.172,0.12,0.258,0.12,0.262c-0.05-0.194-0.121-0.385-0.211-0.57
		L69.837,166.425z M70.922,162.045l0.038,0.017c-0.001-0.009-0.002-0.021-0.002-0.025l0-0.006
		C70.945,162.036,70.933,162.041,70.922,162.045z M53.526,119.354h0.014l-0.004-0.042c-0.006,0.003-0.013,0.006-0.02,0.007
		C53.52,119.332,53.522,119.345,53.526,119.354z M57.756,120.452c-0.003-0.001-0.005-0.005-0.007-0.008
		c-0.006,0.014-0.01,0.027-0.013,0.041C57.742,120.474,57.75,120.463,57.756,120.452z M58.836,150.325
		c-0.02,0.031-0.041,0.076-0.067,0.139c0.035,0.001,0.074-0.006,0.115-0.021l0.066-0.021l-0.019-0.199
		C58.895,150.235,58.862,150.271,58.836,150.325z M58.875,149.215c0.002-0.082,0.006-0.131,0.012-0.148
		c-0.016,0.008-0.072,0.053-0.167,0.136c-0.092,0.075-0.142,0.119-0.152,0.131l0.043,0.011
		C58.759,149.334,58.846,149.29,58.875,149.215z M59.791,156.869l0.009-0.012c-0.061-0.079-0.153-0.211-0.274-0.396
		c-0.114-0.155-0.211-0.261-0.293-0.316C59.428,156.437,59.614,156.678,59.791,156.869z M59.693,156.562l0.014-0.011
		c-0.059-0.089-0.112-0.169-0.16-0.241C59.612,156.43,59.661,156.514,59.693,156.562z M59.556,157.182
		c-0.094-0.183-0.19-0.316-0.288-0.403c0.044,0.142,0.22,0.424,0.525,0.845C59.78,157.606,59.701,157.459,59.556,157.182
		L59.556,157.182z M59.801,171.749c0.006-0.021,0.012-0.04,0.019-0.059c-0.03,0.019-0.06,0.037-0.09,0.059H59.801z M135.132,125.256
		c0.035,0.046,0.072,0.097,0.117,0.155c-0.056-0.087-0.105-0.172-0.156-0.248c0.001,0.015,0,0.029,0,0.043
		C135.105,125.224,135.117,125.24,135.132,125.256z M135.104,133.923c-0.019-0.042-0.041-0.09-0.062-0.141
		c0.004,0.024,0.011,0.049,0.015,0.071c0.013,0.024,0.023,0.049,0.034,0.072C135.098,133.925,135.102,133.924,135.104,133.923
		L135.104,133.923z M135.545,139.169c0.021-0.002,0.046-0.008,0.074-0.016c-0.034,0.006-0.073,0.013-0.113,0.02
		C135.52,139.17,135.532,139.17,135.545,139.169z M135.579,140.018c-0.439,0.099-0.723,0.159-0.85,0.177
		c-0.01,0.024-0.017,0.049-0.021,0.07c0.072-0.007,0.149-0.015,0.229-0.021c0.018-0.002,0.209-0.071,0.576-0.206
		C135.537,140.03,135.558,140.023,135.579,140.018z"/>
</g>
</svg>
