<?xml version="1.0" encoding="utf-8"?>
<!-- Generator: Adobe Illustrator 15.0.0, SVG Export Plug-In . SVG Version: 6.00 Build 0)  -->
<svg version="1.2" baseProfile="tiny" id="Layer_1" xmlns="http://www.w3.org/2000/svg" xmlns:xlink="http://www.w3.org/1999/xlink"
	 x="0px" y="0px" width="200px" height="200px" viewBox="0 0 200 200" overflow="inherit" xml:space="preserve">
<path fill-rule="evenodd" d="M96.227,22.168c-0.072,0.198-0.419,0.121-0.618,0.191c0.443,0.464,1.399-0.103,1.713,0.428
	c0.412,0.062,1.108-0.158,1.236,0.19c-0.246-0.04-0.509-0.062-0.808-0.048c0.667-0.018,0.939,0.361,1.475,0.476
	c0.05,0.521,0.854,0.287,1.045,0.666c-0.2,0.011-0.307-0.074-0.475-0.095c0.322,0.292,0.851,0.183,0.809,0.761
	c0.211,0.089,0.353,0.248,0.619,0.285c0,0.08,0,0.159,0,0.238c0.454,0.134,0.939,0.628,1.094,0.76
	c-0.015,0.187-0.554-0.246-0.714-0.38c0.013,0.194,0.432,0.393,0.618,0.571c0.107,0.859,0.851,1.084,1.285,1.617
	c0.014,0.11-0.009,0.182-0.049,0.238c0.545,0.905,0.976,1.647,1.476,2.616c-0.248-0.118-0.271-0.46-0.523-0.571
	c0.157,0.445,0.502,0.703,0.666,1.141c0.021,0.102-0.068,0.091-0.143,0.095c0.521,1.286,1.169,2.446,1.616,3.805
	c-0.204,0.046-0.083-0.234-0.238-0.238c0.003,0.385,0.324,0.204,0.381,0.476c-0.061,0.123-0.098,0.15-0.238,0.095
	c0.143,0.268,0.601,0.681,0.381,0.999c0.307,0.281,0.336,0.838,0.477,1.285c-0.257,0.697,0.447,1.829,0,2.568
	c0.057,0.292,0.006,0.691,0.143,0.903c-0.01,0.134-0.155,0.131-0.189,0.239c0.014,0.842,0.166,1.42,0.236,2.283
	c0.012,0.139-0.09,0.164-0.143,0.238c0.02,0.795,0.272,1.387,0.381,2.092c0.029,0.191-0.008,0.399,0.048,0.571
	c0.124,0.383,0.633,0.979,0.903,1.332c1.146,1.498,3.676,1.726,5.518,2.616c0.207,0.035-0.038-0.095,0.095-0.095
	c0.997-0.093,1.81,0.335,2.664,0.381c0.486,0.026,0.96-0.199,1.475-0.238c0.678-0.051,1.379,0.032,2.141-0.048
	c0.062,0.205-0.136,0.15-0.19,0.238c0.791,0.064,1.387,0.324,2.093,0.475c0.014,0.125-0.066,0.156-0.19,0.143
	c0.855,0.38,2,0.473,2.568,1.141c0.541,0.236,1.137,0.417,1.428,0.904c0.482,0.167,0.943,0.356,1.235,0.713
	c0,0.127-0.132,0.121-0.19,0.19c0.357,0.246,0.768,0.438,1.095,0.713c0.048,0.654,0.566,0.922,0.95,1.426
	c-0.01,0.085,0.049,0.239-0.094,0.191c0.257,0.401,1.139,0.656,0.903,1.236c0.278,0.387,0.706,0.626,0.951,1.047
	c0.024,0.121,0.063,0.166-0.048,0.237c0.201,0.334,0.721,0.563,0.619,1.046c0.264,0.355,0.574,0.662,0.761,1.094
	c0.073,0.17-0.162,0.029-0.144,0.144c0.31,0.496,0.349,0.978,0.666,1.474c0.026,0.106-0.09,0.068-0.095,0.143
	c0.536,0.686,0.872,1.571,1.095,2.568c-0.084,0.089-0.14-0.02-0.238-0.047c0.078,0.365,0.418,0.47,0.381,0.951
	c0.166,0.357,0.502,0.545,0.617,0.951c1.364,1.047,2.84,1.981,3.521,3.711c-0.35-0.285-0.489-0.779-0.856-1.047
	c0.36,0.665,0.914,1.267,1.284,2.093c-0.384-0.139-0.397-0.649-0.761-0.81c0.5,0.658,0.934,1.383,1.428,2.047
	c0.045,0.717,0.582,1.307,0.951,1.854c0.02,0.101-0.033,0.127-0.049,0.191c0.043,0.16,0.107,0.006,0.191,0.096
	c0.037,0.164-0.053,0.2-0.096,0.284c0.33,0.636,0.962,0.973,1.237,1.665c-0.242-0.107-0.292-0.407-0.523-0.523
	c-0.051,0.859,0.753,1.277,0.903,2.093c0.014,0.126-0.066,0.157-0.189,0.144c0.104,0.36,0.459,0.706,0.332,1.142
	c0.36,0.585,0.51,1.365,0.57,2.045c-0.205-0.127-0.172-0.495-0.285-0.714c-0.148,0.596,0.201,1.214,0.381,1.76
	c-0.217,0.295,0.062,0.623,0.095,0.951c0.002,0.122-0.034,0.059-0.095,0.048c0.197,0.827,0.285,1.618,0.571,2.426
	c-0.11,0.014-0.183-0.008-0.237-0.049c0.119,0.357,0.297,0.654,0.381,1.047c-0.367-0.029-0.229-0.564-0.43-0.76
	c-0.134,0.131,0.324,0.527,0,0.57c1.084,2.008,2.837,3.346,3.996,5.279c0.006,0.117,0.006,0.229-0.048,0.285
	c0.252,0.562,0.896,0.967,0.761,1.76c0.238,0.627,0.908,1.299,0.714,2.045c0.548,1.402,1.062,2.84,1.616,4.234
	c-0.005,0.09-0.156,0.031-0.143,0.143c0.576,1.748,0.793,3.574,1.38,5.326c-0.077,0.014-0.081-0.045-0.144-0.047
	c0.264,1.186,0.625,2.699,0.571,4.186c-0.049,0.047-0.096,0.094-0.142,0.143c0.105,0.451,0.285,1.312,0,1.713
	c0.025,1.469,0.508,2.82,0.76,4.09c0.313,1.568,0.669,3.018,1.57,3.947c1.189,0.746,2.124,1.746,2.807,2.998
	c-0.062-0.018-0.075-0.084-0.143-0.096c0.219,0.32,0.327,0.752,0.617,0.998c0.379,0.68,0.584,1.426,1.048,2.189
	c0.585,0.965,1.83,1.877,2.044,3.281c0.135,0.881-0.252,1.572-0.903,1.949c-0.358-0.037-0.696-0.096-1.047-0.143
	c0.673,1.033,0.721,2.412,1.427,3.426c-0.067,0.09-0.18,0.137-0.189,0.285c-0.018,0.145,0.154,0.098,0.237,0.143
	c0.601,1.744,1.287,3.404,1.808,5.232c0.325-0.246,0.785-0.357,1.094-0.619c2.391-0.432,1.649,2.555,1.048,3.568
	c-0.743,0.365-1.258,0.533-2.188,0.57c-0.089,0.008-0.03,0.162-0.095,0.189c-0.733-0.096-1.393,0.219-1.952,0
	c0.214,0.486,0.684,1.127,0.81,1.855c0.954,0.74,2.241,1.152,2.568,2.521c0.076,0.16,0.3,0.176,0.333,0.381
	c-0.043,0.35-0.312,0.172-0.57,0.236c-0.405,0.104-0.684,0.266-1.143,0.287c-2.174,0.096-3.523-1.4-4.898-2.475
	c-0.08,0-0.158,0-0.237,0c-0.278-0.309-0.588-0.586-0.856-0.904c-0.293,0.023-0.454-0.084-0.76-0.047
	c-0.09,0.008-0.03,0.162-0.096,0.189c-1.809-0.713-4.088-0.953-4.899-2.662c-0.081-0.002-0.124,0.035-0.144,0.094
	c-0.041-0.102-0.004-0.232-0.143-0.332c-0.379,0.064-0.758,0.131-0.951,0.381c-0.195-0.062-0.348-0.127-0.571-0.049
	c-0.423-0.305-0.644-0.814-1.141-1.045c-1.208-1.334-0.985-3.994-1.38-6.041c-0.123,0.012,0.066,0.082,0,0.189
	c-0.173-0.373-0.117-0.668-0.189-1.141c-0.032-0.143-0.102,0.045-0.191,0c-0.14-0.225-0.127-0.602-0.237-0.857
	c0.077-0.014,0.083,0.045,0.144,0.049c0.033-0.178-0.082-0.205-0.048-0.381c-0.104-0.125-0.158,0.148-0.286,0
	c-0.018-0.395-0.114-0.711-0.428-0.809c0.055-0.232,0.084-0.631,0-0.855c-0.217-0.059-0.169,0.291-0.333,0.143
	c-0.071-0.43,0.237-1.117,0.19-1.523c-0.189-0.047-0.02,0.266-0.19,0.238c-0.614-0.414-0.096-1.566-0.333-2.236
	c-0.063-0.078-0.211-0.072-0.285-0.143c-0.047-0.398,0.218-1.018-0.096-1.236c0.158-0.156-0.014-0.262-0.143-0.381
	c-0.207,0.047,0.046,0.555-0.238,0.523c-0.084-0.145,0.024-0.432,0.048-0.617c-0.027,0.059-0.347,0.139-0.476-0.049
	c-0.075-0.799,0.147-1.717,0-2.283c-0.318,0.285-0.154,1.051-0.57,1.238c-0.062-0.176,0.032-0.557,0.095-0.762
	c-0.34,0.023-0.286,0.443-0.522,0.57c-0.182-0.58,0.425-1.189,0.475-1.855c-0.262,0.16-0.344,0.502-0.475,0.809
	c-0.117,0.273-0.182,0.717-0.523,0.762c0.006-0.584,0.488-1.094,0.523-1.807c-0.348,0.111-0.224,0.695-0.571,0.809
	c-0.192-0.184,0.087-0.488,0-0.857c-0.071-0.156-0.056,0.16-0.19,0.096c-0.133-0.225,0.091-0.486,0.143-0.762
	c0.067-0.352-0.052-0.758,0.143-0.951c-0.123,0.014-0.203-0.016-0.189-0.143c-0.315,0.209-0.094,0.953-0.428,1.143
	c0.023-0.342,0.057-0.672,0.143-0.951c-0.008-0.107-0.121,0.061-0.238,0c0.043-0.297-0.062-0.445-0.238-0.523
	c-0.389,0.15-0.474,0.604-0.666,0.951c-0.273-0.104,0.038-0.465,0.049-0.713c-0.451-0.102-0.207,0.564-0.572,0.664
	c-0.045-0.352,0.196-0.812,0.285-1.189c0.108,0.037,0.02,0.268,0.048,0.383c0.132-0.219,0.18-0.52,0.239-0.809
	c-0.135-0.146-0.059,0.318-0.239,0.285c0.131-0.486-0.2-0.701-0.048-1.238c-0.442,0.43-0.617,1.127-1.094,1.523
	c-0.124-0.482,0.594-0.945,0.191-1.428c-0.023-0.102,0.068-0.09,0.143-0.096c-0.368-0.443,0.092-1.033,0.143-1.617
	c-0.182-0.068-0.01,0.213-0.19,0.145c0.054-0.203,0.091-0.49-0.095-0.572c-0.158,0.018-0.207,0.143-0.285,0.238
	c-0.088-0.008-0.029-0.16-0.096-0.189c-0.099,0.012-0.013,0.209-0.096,0.236c-0.123-0.588,0.496-0.863,0.523-1.33
	c0.144,0.057-0.033,0.18-0.047,0.236c0.164-0.119,0.257-0.312,0.332-0.521c-0.102-0.059-0.234-0.229-0.332-0.145
	c-0.252,0.035-0.201,0.371-0.381,0.477c-0.195-0.025-0.327-0.117-0.475-0.191c-0.479,0.283-0.931,0.594-1.238,1.047
	c-0.349-0.195,0.139-0.799-0.143-1.094c0.285-0.951-0.222-1.625,0-2.617c-0.251,0.162-0.271,0.555-0.475,0.762
	c-0.182,0.023-0.304-0.014-0.381-0.094c-0.22,0.145-0.293,0.436-0.477,0.617c-0.144-0.072,0.04-0.207,0-0.332
	c-0.473,0.34-0.205,1.125-0.475,1.426c-0.27-0.4-0.294-1.113-0.096-1.617c0.174,0.178-0.133,0.477,0,0.619
	c0.116-0.297,0.223-0.604,0.238-1c-0.154,0.053-0.447-0.102-0.57-0.332c-0.199,0.191-0.051,0.467-0.238,0.809
	c-0.212-0.133-0.171,0.145-0.285,0.238c-0.259-0.418,0.26-0.838,0.142-1.428c-0.337,0.281-0.368,0.867-0.665,1.189
	c-0.156-0.549,0.18-1.232,0.094-1.713c-0.312,0.162-0.205,0.748-0.332,1.094c-0.271-0.074-0.068-0.588-0.047-0.809
	c-0.039-0.105-0.167-0.117-0.238-0.189c-0.186-1.512-0.117-3.113-0.285-4.709c-0.542,0.584-0.67,1.582-0.904,2.475
	c-0.138-0.107-0.113-0.627-0.047-0.904c-0.266,0.084-0.264,0.434-0.333,0.713c-0.228-0.012-0.142-0.426-0.095-0.57
	c-0.092-1.391-0.367-2.549-0.667-3.615c0.11-0.014,0.054,0.137,0.144,0.143c0.132-0.152-0.018-0.426-0.096-0.523
	c-0.447,0.439-0.81,0.967-1.094,1.57c-0.338-0.234-0.061-0.996-0.096-1.475c-0.283-0.094-0.135,0.246-0.285,0.285
	c-0.168-0.039-0.128-0.285-0.143-0.477c-0.18-0.02-0.068,0.25-0.189,0.287c-0.189-0.479,0.323-1.105,0.189-1.713
	c-0.363,0.238-0.398,0.807-0.714,1.094c-0.312-0.002-0.112-0.531-0.095-0.762c-0.094-0.137-0.074,0.24-0.285,0.143
	c-0.144-0.375,0.166-0.682,0.189-1.045c-0.051-0.121-0.119,0.266-0.237,0.094c-0.148-0.564-0.241-1.186-0.285-1.854
	c-0.06-0.137-0.139,0.207-0.237,0.047c-0.353-0.473-0.044-1.605-0.429-2.045c0.041-0.24,0.013-0.268,0-0.523
	c-0.182-0.039-0.056,0.23-0.237,0.189c-0.147-0.988,0.109-1.98,0.237-2.854c-0.21-0.191-0.339,0.104-0.524,0.096
	c-0.107-0.066-0.086-0.262-0.236-0.287c0.153-0.5,0.107-0.859,0-1.377c-0.146-0.035-0.141,0.08-0.285,0.047
	c-0.043-0.244-0.162-0.41-0.191-0.666c-0.146,0.076-0.166,0.277-0.285,0.381c-0.317-0.146-0.045-0.619,0.048-0.951
	c0.104-0.375,0.269-0.77,0.19-1.096c-0.202,0.195-0.191,0.602-0.381,0.809c-0.312-0.225,0.105-0.848,0.096-1.236
	c-0.279-0.057-0.074,0.371-0.332,0.334c-0.191-0.213,0.083-0.598,0.094-0.904c-0.436,0.328-0.41,1.225-0.762,1.713
	c-0.23-0.281-0.092-0.801,0-1.236c0.125-0.59,0.436-1.176-0.047-1.713c-0.11,0.27-0.016,0.744-0.047,1.094
	c-0.465,0.004-0.051-0.869-0.523-0.857c-0.146-0.645-0.08-1.506-0.571-1.807c-0.351,0.285-0.325,0.943-0.571,1.332
	c-0.256-0.219-0.097-0.854-0.189-1.236c-0.005-0.092-0.178,0.074-0.238-0.047c-0.115-0.996-0.124-2.096-0.617-2.713
	c-0.229,0.201-0.4,0.457-0.381,0.904c-0.043,0.037-0.107,0.051-0.189,0.047c-0.973,1.367-0.455,3.916-0.049,5.518
	c-0.047,0.74,0.284,1.4,0.381,2.143c0,0.141-0.125,0.16-0.143,0.285c0.229,1.027,0.016,2.164-0.143,3.09
	c-0.096,0.049-0.167,0.119-0.238,0.191c0.107,0.758-0.326,0.973-0.238,1.711c-0.064-0.014-0.039-0.117-0.048-0.189
	c-0.167,0.104-0.03,0.508-0.143,0.666c-0.151,0.041-0.099-0.123-0.189-0.143c-0.067,0.416,0.04,0.982-0.19,1.332
	c-0.229,2.33-0.043,5.148,0.618,7.23c0.101-0.275,0.3,0.518,0.382,0.76c0.277,0.83,0.686,1.885,1.093,2.473
	c-0.007,0.119-0.161,0.016-0.19,0c0.084,0.486,0.539,0.604,0.618,1.094c-0.345,0.07-0.451-0.492-0.761-0.617
	c0.1,0.506,0.622,0.994,0.999,1.379c0.194,0.742,0.929,0.941,1.188,1.617c-0.445-0.283-0.78-0.678-1.141-1.045
	c0.598,0.9,1.518,1.824,2.141,2.947c-0.098,0.102-0.188-0.014-0.286-0.047c0.333,0.607,0.913,1.09,1.284,1.664
	c0.124,0.193,0.158,0.43,0.285,0.666c0.355,0.66,1.088,1.172,1.095,1.998c-0.39-0.641-0.715-1.348-1.237-1.855
	c0.227,0.439,0.713,1.033,1,1.57c-0.275,1.131,1.139,1.891,1.093,3.092c0.126,0.271,0.28,0.514,0.333,0.855
	c0.014,0.127-0.065,0.156-0.19,0.143c0.073,0.518,0.539,0.885,0.524,1.332c-0.189,0-0.196-0.184-0.238-0.332
	c-0.16,0.414,0.308,0.611,0.285,1.047c-0.307,0.006-0.225-0.379-0.381-0.523c-0.053,0.584,0.594,1.299,0.762,2.092
	c-0.092-0.02-0.039-0.184-0.19-0.143c0.069,0.488,0.224,0.598,0.285,1.094c-0.204,0.016-0.187-0.193-0.333-0.236
	c-0.244,0.688,0.633,1.035,0.57,1.854c-0.174,0-0.182-0.166-0.285-0.236c-0.023,0.545,0.385,1.072,0.428,1.711
	c-0.211,0.068-0.124-0.16-0.285-0.143c0.123,0.908,0.509,1.926,0.619,2.854c-0.275-0.326-0.302-0.902-0.477-1.332
	c-0.004,0.803,0.268,2.018,0.285,3.045c-0.069,0.055-0.119,0.055-0.189,0c-0.1,0.852-0.017,1.705,0.047,2.426
	c-0.129-0.393-0.312-0.734-0.332-1.236c-0.16,0.016-0.077,0.271-0.238,0.285c0.299,1.355,0.236,2.697,0.096,4.09
	c-0.115,0.02-0.104-0.086-0.238-0.047c0.02,0.295-0.097,0.807-0.047,1.285c-0.091,0.088-0.119,0.004-0.238,0
	c0.016,0.301-0.105,0.465-0.143,0.713c-0.176,0.033-0.21-0.076-0.191-0.238c-0.304,1.945-0.289,4.295,0.334,5.852
	c0.022,0.1-0.068,0.09-0.143,0.094c0.218,0.607,0.357,1.359,0,1.76c0.139,0.395-0.031,0.76-0.047,1.143
	c-0.153,0.027-0.148-0.09-0.239,0c-0.022,0.246,0.052,0.59-0.047,0.76c-0.152-0.006-0.209-0.107-0.19-0.285
	c-0.334,0.666-0.314,1.682-0.571,2.426c-0.062,0.062-0.175,0.062-0.237,0c-0.113,1.014-0.382,1.869-0.666,2.711
	c-0.13,0.035-0.096-0.094-0.191-0.094c-0.311,1.369-0.97,2.391-1.377,3.662c-0.125,0.004-0.051,0.203-0.238,0.143
	c-0.028,0.307-0.186,0.482-0.238,0.762c-0.084,0.043-0.139,0.113-0.238,0.143c-0.416,0.973-1.111,2.057-1.427,3.52
	c-0.208,0.959-0.888,1.619-1.046,2.473c-0.176,0.945-0.229,1.918,0.665,2.236c0.167,0.531,0.929,0.467,1.332,0.76
	c1.019,0.281,2.567-0.148,3.329,0.191c-0.005,0.121-0.158,0.094-0.285,0.094c0.506,0.076,1.15,0.068,1.521,0.145
	c-0.043,0.113-0.19,0.125-0.332,0.143c0.412,0.225,1.026-0.262,1.475-0.143c-0.277,0.197-0.682,0.27-1.143,0.285
	c0.516,0.076,0.959-0.053,1.475-0.096c0.127-0.016,0.156,0.066,0.143,0.189c0.227,0.02,0.398-0.014,0.571-0.047
	c0.021,0.074,0.15,0.041,0.095,0.189c0.159,0,0.318,0,0.477,0c0.148-0.021,0.134,0.121,0.19,0.191
	c1.163,0.121,1.94,0.627,3.234,0.619c0.137,0.086,0.106,0.117,0.143,0.236c0.921-0.09,1.725,0.475,2.474,0.666
	c0.18,0.047,0.363-0.014,0.523,0.047c0.086,0.033,0.107,0.162,0.236,0.238c0.29,0.17,0.6,0.17,0.715,0.523
	c0.033,0.717-0.082,1.281-0.715,1.332c0.102,0.824,0.125,1.99-0.902,1.949c-0.105,0.102-0.112,0.303-0.144,0.477
	c-0.287,0.152-0.243,0.484-0.428,0.666c-0.228,0.225-0.848,0.383-1.188,0.428c-1.511,0.199-2.905-1.113-3.615-1.664
	c-0.278,0.021-0.436,0.314-0.762,0.143c-0.029,0.395,0.037,0.693,0.048,1.047c-0.056,0.006-0.04,0.086-0.048,0.143
	c-0.458,0.225-0.445,0.682-0.951,0.807c-1.205,0.305-2.104-0.262-2.521-1.141c-0.134-0.025-0.247-0.068-0.38-0.094
	c-0.076-0.18-0.199-0.311-0.191-0.572c-1.023,0.033-1.824-0.131-2.33-0.713c-0.408,0.023-0.957,0.086-1.428,0.285
	c-0.936,0.398-2.596,0.375-3.852,0.285c-1.504-0.107-2.914-0.529-4.043-0.998c-0.12-0.277-0.375-0.418-0.619-0.572
	c-1.211,0.039-2.382,0.162-3.615,0.049c-0.828,0.25-1.266,0.891-2.235,0.998c0.338,0.637-0.198,1.217-0.142,1.713
	c-0.354,0.309-1.205,0.654-1.57,0.143c-0.931-0.039-1.44-0.623-1.95-1.189c-0.16-0.178-0.468-0.309-0.618-0.523
	c-0.369-0.525-0.152-1.244-0.38-1.949c0.4-0.566,0.78-1.154,1.188-1.713c0.676,0.059,0.837-0.77,1.569-0.809
	c0.017-0.188,0.321-0.416,0.713-0.381c-0.099-0.109-0.226-0.57,0.19-0.617c0.238,0.02-0.104,0.1-0.047,0.238
	c1.437-0.648,1.554-2.322,1.949-3.996c-0.053-0.125-0.055,0.191-0.237,0.096c-0.115-0.471,0.157-0.949,0.19-1.428
	c-0.035-0.119-0.144,0.156-0.238,0c-0.191-0.369,0.284-1.012-0.189-1.141c-0.01-0.492,0.02-1.113-0.429-1.285
	c0.002-0.316,0.021-0.613,0.096-0.855c-0.484-0.322-0.057-1.291-0.048-1.855c-0.195,0.059-0.09,0.418-0.381,0.381
	c-0.107-0.326,0.024-0.793,0.096-1.096c-0.074-0.129-0.078,0.203-0.285,0.096c0.113-0.725-0.119-1.77-0.048-2.568
	c-0.031-0.174-0.296-0.117-0.38-0.236c-0.08-1.072,0.014-2.021,0.143-2.998c-0.016-0.064-0.119-0.039-0.191-0.047
	c-0.021-0.324,0.055-0.549,0.144-0.762c-0.013-0.098-0.209-0.014-0.238-0.094c0.259-0.508,0.127-1,0.238-1.523
	c-0.034-0.125-0.217-0.1-0.238-0.238c0.062-0.43,0.22-0.764,0.429-1.045c0.018-0.178-0.193-0.125-0.143-0.334
	c0.604-1.266,1.393-2.348,1.902-3.711c-0.193-0.535-0.176-1.283-0.285-1.9c0.09,0.004,0.032,0.156,0.143,0.143
	c-0.104-0.609-0.251-1.178-0.619-1.523c-0.19-0.934-0.783-1.467-1.236-2.141c-0.104-0.008-0.021,0.17-0.047,0.238
	c-0.48-0.043-0.248-0.799-0.762-0.809c-0.023-0.262-0.146-0.424-0.19-0.666c-0.136,0.406,0.266,0.686,0.333,1.047
	c-0.457,0.008-0.352-0.945-0.714-1.189c-0.063,0.016,0.075,0.391-0.048,0.477c-0.461-0.49-0.589-1.312-1.235-1.617
	c-0.105,0.006-0.021,0.201-0.048,0.285c-0.089-0.135-0.131-0.312-0.19-0.477c-0.14,0.254,0.123,0.51,0.19,0.715
	c0.084-0.012,0.108-0.082,0.095-0.191c0.067,0.119,0.055,0.344-0.047,0.381c-0.562-0.422-0.443-1.523-1.094-1.855
	c-0.237,0.035,0.127,0.236-0.048,0.334c-0.315-0.271-0.184-0.99-0.571-1.189c-0.049,0.148,0.014,0.305-0.143,0.428
	c-0.277-0.182-0.008-0.91-0.476-0.904c-0.013-0.16,0.037-0.385-0.047-0.475c-0.168,0.318,0.174,0.766,0.095,0.998
	c-0.27-0.189-0.153-0.766-0.238-1.141c-0.222-0.254-0.303-0.648-0.428-0.998c-0.159,0.07-0.232,0.121-0.38,0
	c-0.047,0.283,0.204,0.469,0.143,0.617c-0.401-0.266-0.206-1.127-0.524-1.475c-0.008-0.188,0.073,0.016,0.142-0.096
	c-0.013-0.24-0.121-0.385-0.333-0.428c-0.064,0.016-0.039,0.119-0.048,0.189c-0.071-0.182-0.362-0.145-0.286-0.475
	c-0.251,0.018,0.084,0.408-0.142,0.381c-0.07-0.535-0.441-0.615-0.286-1.283c-0.055,0.014-0.164,0.205-0.048,0.236
	c-0.234,0.074-0.28-0.447-0.333-0.713c-1.138-0.1-0.494-1.98-1.236-2.475c0-0.174,0-0.348,0-0.521
	c-0.039-0.164-0.245,0.029-0.333-0.145c0-0.236,0.059-0.535-0.19-0.521c-0.047-0.355,0.183-1.146-0.048-1.523
	c-0.292-0.006-0.478,0.094-0.476,0.381c-0.184-0.043-0.47-0.281-0.571,0c-0.065-0.014-0.039-0.119-0.048-0.189
	c-0.168,0.094-0.094,0.062-0.285,0c-0.111,0.094-0.068,0.344-0.19,0.428c-0.446-0.205-0.156-1.145-0.38-1.57
	c-0.343,0.418-0.392,1.131-0.713,1.57c-0.1,0.02-0.126-0.033-0.191-0.047c-0.156,0.158-0.196,0.436-0.285,0.664
	c-0.112-0.016-0.197-0.057-0.286-0.094c-0.038,0.088-0.079,0.174-0.095,0.285c-0.065,0.162-0.024-0.496-0.381-0.238
	c-0.222,0.521-0.312,0.971-0.904,1.047c-0.139,0.258-0.243,0.549-0.333,0.855c-0.039,0.025-0.077,0.049-0.143,0.047
	c-0.071,0.441-0.465,0.725-0.666,1.143c-0.231,0.48-0.162,1.191-0.713,1.428c-0.087-0.072-0.146-0.172-0.143-0.334
	c-0.526,0.33-0.349,1.363-0.903,1.664c-0.102,0.629-0.387,1.072-0.619,1.57c-0.263-0.182-0.409-0.014-0.571,0.143
	c0.072-0.213,0.035-0.354-0.142-0.428c-0.529,0.836-0.733,1.994-1.523,2.568c-0.083,0.043-0.087,0.168-0.142,0.238
	c-0.168-0.076-0.26,0.049-0.38-0.096c-0.217,0.291-0.437,0.578-0.571,0.953c-0.056-0.01-0.04-0.088-0.048-0.145
	c-0.459,0.557-0.892,1.137-1.236,1.809c-0.055,0.039-0.128,0.062-0.238,0.047c-0.276,0.422-0.472,0.924-0.904,1.189
	c-0.183,0.324-0.226,0.787-0.618,0.904c0.095-0.43,0.41-0.639,0.523-1.047c-0.34,0.436-0.81,1.156-1.093,1.807
	c-0.115-0.02-0.104,0.088-0.238,0.047c-0.219,0.574-0.466,1.305-0.571,2.189c-0.125,1.045-0.051,2.344,0.285,3.186
	c0.035,0.131-0.094,0.096-0.095,0.191c0.187,0.637,0.506,1.143,0.666,1.807c-0.228,0.055-0.167-0.18-0.285-0.238
	c0.282,1.305,0.864,2.309,0.713,4.043c-0.212,0.281-0.127,0.857-0.143,1.332c-0.149,0.023-0.125-0.129-0.238-0.141
	c-0.001,2.574,0.127,5.363,0.048,7.799c-0.047,1.432-0.662,2.816-0.476,4.139c0.152,1.084,1.077,2.234,1.807,2.854
	c-0.075,0.1-0.096,0.254-0.143,0.381c-0.056,0.055-0.168,0.053-0.285,0.047c0.131,0.281,0.425,0.504,0.666,0.666
	c0.529,0.357,1.093,0.695,1.712,0.951c-0.16,0.143-0.373-0.068-0.571-0.047c0.342,0.244,0.845,0.328,1.236,0.523
	c-0.172,0.25-0.548-0.074-0.809-0.049c-0.052,0.094,0.314,0.127,0.143,0.381c0.081,0.018,0.089-0.037,0.095-0.096
	c1.026,0.545,1.545,1.594,2.473,2.236c-0.126,0.279,0.149,0.455,0.143,0.762c-0.114,0.234-0.401,0.297-0.333,0.713
	c-0.385,0.557-1.012,0.902-1.903,0.762c-1.694-0.27-3.091-1.658-4.662-1.998c-0.153-0.041-0.065,0.156-0.189,0.143
	c-0.592-0.227-2.314-0.697-3.044-0.762c-0.917-0.078-1.01,0.258-1.665,0.666c-0.333,0.209-0.708,0.396-1.047,0.57
	c-1.14,0.586-2.198,1.547-3.853,0.904c-0.317,0.557-0.534,1.211-0.856,1.76c-0.713,0.117-1.196,0.48-2.093,0.381
	c-0.598-0.066-1.175-0.588-1.665-0.475c-0.249,0.055-0.334,0.318-0.523,0.379c-0.167,0.055-0.497,0.053-0.666,0.049
	c-1.244-0.031-2.053-0.729-3.043-1.379c-0.737,0.787-2.646,0.59-3.235-0.191c-1.578,0.18-2.85-2.92-1.094-3.996
	c0-0.078,0-0.158,0-0.236c0.648-0.305,1.393-0.51,1.854-1c-0.067-0.17-0.537-0.139-0.427-0.332c0.174,0.125,0.883,0.051,0.952-0.238
	c0.497,0.006,0.877-0.105,1.235-0.238c0.041-0.102,0.124-0.162,0.096-0.332c0.368-0.076,0.742-0.146,1.189-0.143
	c0.094-0.113-0.253-0.189-0.238-0.381c0.407-0.043,0.567,0.162,0.904,0.189c0.134-0.074-0.257-0.17-0.095-0.285
	c0.191-0.061,0.498,0.037,0.809,0c0.141-0.041-0.111-0.07-0.048-0.189c0.345,0.051,0.609,0.184,1.047,0.143
	c-0.084-0.082,0.476-0.408,0.428-0.143c0.746-0.137,1.387,0.102,1.951,0c0.958-0.174,1.068-1.123,1.284-1.998
	c0.153-0.059,0.037,0.152,0.19,0.096c0.464-0.625-0.047-1.531-0.333-1.998c-0.882-0.926-1.159-2.457-2.188-3.234
	c-0.044-0.385-0.232-0.623-0.333-0.951c-0.084,0.043-0.061,0.193-0.238,0.143c-0.244-0.342-0.329-0.846-0.523-1.236
	c-0.096,0.029-0.013,0.24-0.19,0.189c-0.307-0.787-0.455-1.732-0.855-2.426c-0.201,0.127,0.021,0.404-0.143,0.523
	c-0.364-0.457-0.253-1.266-0.476-1.855c-0.082-0.217-0.285-0.334-0.237-0.57c-0.182,0.311,0.249,0.668,0.047,0.998
	c-0.292-0.166-0.128-0.789-0.285-1.094c-0.361-0.113-0.268-0.684-0.38-1.047c-0.083-0.152-0.125,0.123-0.286,0.049
	c-0.302-0.936-0.209-2.266-0.619-3.092c0.051-0.779-0.376-1.082-0.238-1.951c-0.005-0.09-0.177,0.074-0.238-0.047
	c-0.065-1.215,0.036-2.164,0.238-3.188c-0.007-0.088-0.161-0.029-0.19-0.094c0.688-2.549,0.94-5.971,0.476-8.658
	c-0.008-0.133-0.155-0.129-0.19-0.236c0.012-0.473-0.041-0.879-0.095-1.285c-0.2-0.072-0.007,0.246-0.143,0.238
	c-0.366-0.348,0.06-1.486-0.285-1.855c-0.247-0.072-0.075,0.273-0.285,0.238c-0.148-0.914,0.237-2.32,0.095-3.188
	c-0.127,0.143-0.022,0.518-0.238,0.57c0.166-0.514-0.113-0.801,0-1.379c0.035-0.178-0.182-0.104-0.19-0.238
	c0.185-0.594,0.382-1.422,0.428-1.998c-0.314,0.18-0.193,0.791-0.522,0.953c-0.106-0.709,0.435-1.584,0.285-2.189
	c-0.172-0.014,0.004,0.322-0.238,0.238c0.213-0.785,0.456-1.541,0.666-2.33c-0.453-0.096-0.038-0.559-0.095-0.951
	c-0.155-0.023-0.101,0.236-0.238,0.096c0.137-1.004,0.649-1.916,0.809-2.949c0.062-0.4-0.036-0.793,0.238-1.141
	c0.023-0.15-0.146-0.109-0.095-0.287c0.411-0.678,0.41-1.574,0.618-2.379c-0.068-0.125-0.106,0.176-0.285,0.096
	c0.247-1.184,0.957-2.289,1.284-3.377c-0.047-0.484,0.365-0.811,0.524-1.236c-0.066-0.109-0.108,0.205-0.333,0.094
	c0.113-0.346,0.026-0.342-0.047-0.664c0.127-0.191,0.209-0.039,0.333-0.096c-0.223-0.348,0.334-0.814,0.571-1.143
	c-0.009-0.133-0.227-0.059-0.19-0.236c0.259-0.406,0.595-0.736,0.903-1.094c-0.125-0.135-0.28,0.293-0.476,0.094
	c0.464-1.012,1.063-1.598,1.665-2.473c-0.15,0.061-0.389-0.092-0.619,0.047c0.16-0.488,0.708-0.592,0.952-0.998
	c0-0.176-0.279-0.07-0.237-0.285c1.31-0.959,2.177-2.67,2.283-4.662c0.072-1.35-0.745-2.676-0.618-4.281
	c-0.011-0.131-0.151-0.133-0.19-0.236c0.088-1.977-0.792-2.982-0.999-4.662c0.015-0.109-0.138-0.053-0.143-0.143
	c0-0.428-0.092-0.764-0.143-1.141c-0.008-0.057-0.087-0.041-0.143-0.049c0.007-1.834,0.588-4.193,0.856-6.039
	c-0.523-0.523-0.452-1.643-0.809-2.332c-0.485,0.199-0.185,0.859-0.19,1.238c0,0.088-0.082,0.131-0.095,0.236
	c-0.125,1.033,0.589,2.217,0.238,3.188c-0.301-0.096-0.21-0.584-0.286-0.904c-0.419,0.123,0.008,0.773-0.143,1.047
	c-0.26-0.072-0.113-0.553-0.429-0.57c-0.071,0.133-0.083,0.328-0.095,0.523c-0.241,0.033-0.18-0.234-0.38-0.238
	c-0.069,0.025,0.038,0.275,0.048,0.381c-0.141,0.018-0.235,0.082-0.285,0.189c0.038,0.422,0.102,0.816,0.189,1.189
	c-0.243-0.232-0.193-0.76-0.285-1.143c-0.147,0.83,0.249,1.527,0.381,2.236c-0.185,0.021-0.188,0.227-0.333,0.047
	c-0.026,0.297,0.039,0.502,0.096,0.715c-0.03,0.066-0.184,0.006-0.19,0.094c0.129,0.553,0.23,1.135,0.285,1.76
	c-0.136,0.131-0.253-0.025-0.38-0.047c-0.047,0.158,0.121,0.533-0.143,0.475c0.169,0.609,0.363,1.191,0.429,1.902
	c-0.38-0.301-0.042-1.32-0.666-1.379c-0.022-0.168-0.105-0.275-0.095-0.475c-0.147,0.049-0.4,0.172-0.571,0.047
	c0.061,0.748,0.34,1.277,0.333,2.094c-0.319,0.049-0.202-0.338-0.38-0.428c-0.14,0.061,0.048,0.455-0.285,0.428
	c0.164,1.035-0.487,1.564-0.333,2.52c-0.284-0.096-0.1-0.66-0.333-0.809c-0.295,0.867-0.258,1.828-0.19,2.76
	c-0.323-0.344-0.421-0.91-0.666-1.332c-0.066,0.164,0.088,0.514,0.095,0.762c-0.243-0.281-0.248-0.799-0.476-1.094
	c-0.311,0.041-0.397-0.143-0.522-0.287c-0.284,0.352-0.154,1.115-0.476,1.428c0.003-0.281,0.081-0.49,0.095-0.762
	c-0.308,0.92-0.529,1.68-0.571,2.807c-0.199,0.041-0.104-0.213-0.19-0.285c-0.038,0.025-0.077,0.049-0.143,0.047
	c-0.138,0.275,0.042,0.867-0.095,1.143c-0.4-0.107-0.13-0.885-0.285-1.236c-0.183-0.072-0.351-0.158-0.428-0.334
	c-0.341,0.547-0.37,1.406-0.761,1.902c0.165-0.674,0.415-1.266,0.571-1.949c-0.701,1.082-0.619,2.654-0.809,4.232
	c-0.134-0.008-0.202-0.082-0.19-0.238c-0.204,0.525,0.041,1.369,0.048,2.094c-0.438-0.434-0.376-1.367-0.808-1.807
	c-0.218,0.324-0.024,0.898-0.048,1.33c-0.119-0.004-0.147-0.088-0.238,0c-0.087,0.676,0.183,0.992,0.238,1.523
	c-0.203,0.027-0.221-0.129-0.286-0.238c-0.091,0.006,0.075,0.178-0.047,0.238c-0.269-0.301-0.252-0.889-0.571-1.143
	c-0.118,0.262,0.165,0.533,0.143,0.857c-0.061,0.232-0.185-0.203-0.333-0.191c-0.334,0.115-0.057,0.549-0.476,0.572
	c0,0.301,0,0.602,0,0.902c-0.064,0-0.126,0-0.19,0c0.019,0.309,0.171,0.703,0.047,1c-0.353-0.014-0.261-0.469-0.333-0.762
	c-0.09-0.053-0.225-0.061-0.333-0.096c-0.111,0.086,0.11,0.402-0.047,0.523c-0.246-0.051-0.153-0.314-0.143-0.523
	c-0.105-0.043-0.1,0.145-0.333,0.096c0.064,0.609,0.207,1.584-0.095,2.188c-0.267,0.045-0.013-0.43-0.333-0.332
	c-0.155,0.104-0.026,0.105,0,0.238c0.022,0.195-0.12-0.002-0.19,0c-0.108,0.035-0.019,0.266-0.047,0.379
	c-0.452,0.104-0.432-0.266-0.619-0.428c-0.038,0.025-0.078,0.051-0.144,0.049c-0.076,0.34,0.413,0.748,0.333,1.094
	c-0.231-0.006-0.191-0.285-0.333-0.381c-0.176,0.164,0.102,0.529-0.048,0.666c-0.277,0.041-0.085-0.391-0.142-0.57
	c-0.076,0.098-0.016,0.332-0.285,0.236c-0.039,0.309,0.17,0.369,0.143,0.666c-0.195-0.137-0.5-0.166-0.571-0.428
	c-0.074,0.021-0.041,0.148-0.19,0.096c-0.134-0.232-0.161-0.568-0.38-0.715c-0.032,0.527,0.161,1.045-0.047,1.428
	c0.035,0.586,0.45,1.035,0.285,1.664c-0.315-0.018-0.37-0.295-0.618-0.379c-0.279,0.797,0.483,1.346,0.618,2.045
	c-0.171,0.051-0.312,0.133-0.428,0.238c0.13,0.172,0.364,0.236,0.475,0.428c-0.001,0.139-0.269,0.111-0.333,0.047
	c0.125,0.256,0.554,0.207,0.57,0.57c-0.398,0.004-0.601-0.191-0.903-0.285c-0.163,0.047-0.185,0.26-0.381,0.143
	c0.273,0.281,0.218,0.893,0.428,1.236c-0.091-0.02-0.12-0.102-0.238-0.094c0.166,0.469,0.818,1.102,0.476,1.617
	c0.498,0.531,0.989,1.07,1.569,1.521c0.572,1.078,2.035,1.264,2.189,2.758c0.242-0.424,0.637-0.693,1.046-0.949
	c0.382,0.156,0.802,0.275,1.047,0.57c0.272,1.037,0.029,2.074-0.239,2.947c0.09,0.086,0.315,0.035,0.477,0.049
	c0.329,0.475,0.845,0.516,0.903,1.188c0.046,0.533-0.088,1.191-0.19,1.666c-0.136,0.635-0.489,1.16-0.808,1.664
	c-0.132,0.209-0.232,0.473-0.333,0.57c-0.132,0.129-0.338,0.139-0.476,0.238c-0.229,0.17-0.333,0.434-0.523,0.619
	c-0.289,0.281-0.672,0.336-1.046,0.57c-0.408,0.256-0.674,0.893-1.284,0.762c-0.106,0.006-0.021,0.201-0.047,0.285
	c-0.47-0.053-0.765-0.283-1.19-0.381c-0.06,0.182,0.577,0.299,0.475,0.523c-0.416-0.186-0.837-0.367-1.141-0.666
	c-0.094,0.002-0.061,0.131-0.189,0.096c-0.337-0.396-1.001-0.555-1.427-0.904c-0.409-0.334-0.751-0.811-1.285-1.094
	c-0.319-0.17-0.748-0.127-0.951-0.428c-0.122-0.053-0.227,0.145-0.285,0c-0.34-0.248-0.449-0.725-0.81-0.951
	c-0.002,0.141,0.14,0.24,0.047,0.332c-0.384-0.105-0.484-0.498-0.713-0.76c-0.33,0.047-0.743-0.441-0.951-0.809
	c-0.154-0.043-0.066,0.156-0.191,0.143c-0.266-0.1-0.331-0.398-0.475-0.619c-0.13,0.043,0.084,0.166-0.047,0.238
	c-0.317-0.176-0.34-0.643-0.571-0.904c-0.216,0.105,0.128,0.377,0,0.523c-0.269-0.445-0.414-1.014-0.714-1.428
	c-0.131-0.021,0.038,0.26-0.095,0.238c-0.179-0.012-0.185-0.195-0.238-0.332c-0.081-0.002-0.123,0.035-0.142,0.094
	c-0.116-0.121-0.177-0.299-0.38-0.332c-0.083-0.424-0.428-0.586-0.666-0.855c-0.064-0.697-0.412-1.111-0.524-1.762
	c-0.178,0.232,0.196,0.451,0.047,0.666c-0.222-0.078-0.182-0.42-0.285-0.617c-0.148-0.17-0.431-0.203-0.428-0.523
	c-0.134,0.006-0.202,0.18-0.333,0.047c-0.085-0.152-0.028-0.447-0.095-0.617c-0.069-0.127-0.106,0.174-0.285,0.094
	c-0.188-0.303-0.08-0.902-0.19-1.283c-0.116,0.17-0.108,0.463-0.333,0.523c-0.209-0.346,0.061-0.883-0.19-1.236
	c-0.237,0-0.151,0.322-0.286,0.428c-0.257-0.059-0.075-0.371-0.095-0.57c-0.03-0.314-0.17-0.686-0.095-1.047
	c-0.125,0.145-0.126,0.412-0.428,0.381c-0.134-0.312,0.076-0.965-0.238-1.094c0-0.223,0-0.445,0-0.666
	c-0.547-0.295-0.378-1.303-1-1.523c-0.062-0.477-0.087-0.99-0.143-1.475c-0.221-0.045-0.064,0.285-0.285,0.238
	c-0.101-0.199-0.022-0.58-0.047-0.855c-0.005-0.121-0.16-0.096-0.286-0.096c-0.008-0.295,0.054-0.367,0-0.619
	c-0.163,0.352,0.043,0.711-0.047,1c-0.256-0.672-0.103-1.67-0.238-2.33c-0.132,0.09,0.007,0.449-0.19,0.475
	c-0.062-0.312,0.145-0.602-0.048-0.762c-0.207-0.01-0.228,0.344-0.428,0.191c0.16-0.205,0.148-0.582,0.476-0.619
	c-0.084-0.1-0.107-0.141-0.048-0.285c-0.063-0.078-0.211-0.074-0.285-0.143c0.222-0.641-0.164-1.127,0.143-1.807
	c-0.012-0.1-0.21-0.014-0.238-0.096c0.75-1.598,1.05-3.713,1.665-5.422c0.042-0.152-0.074-0.148-0.095-0.238
	c0.782-2.303,1.593-4.744,2.521-6.754c-0.026-0.115-0.183-0.102-0.142-0.285c0.24,0.016,0.36-0.199,0.475-0.428
	c-0.167-0.15-0.159,0.281-0.333,0.285c0.158-0.805,0.713-1.574,0.761-2.426c0.006-0.107-0.067-0.277-0.047-0.381
	c0.113-0.578,0.677-0.949,0.856-1.428c-0.144,0.057-0.254,0.145-0.428,0.047c0.019-0.377,0.285-0.508,0.38-0.807
	c-0.093-0.225-0.219-0.414-0.475-0.477c0.141-0.621,0.581-0.941,0.808-1.475c-0.021-0.186-0.257-0.154-0.38-0.236
	c0.831-1.977,2.203-3.41,3.33-5.09c1.321-1.66,3.129-2.832,3.9-5.043c-0.041-0.139-0.154,0.029-0.237,0
	c0.065-0.156,0.125-0.318,0.189-0.477c-0.058,0.021-0.098,0.062-0.095,0.145c0.087-0.73,0.21-1.837,0.428-2.473
	c-0.063-0.022-0.125-0.022-0.095-0.237c0.105-0.127,0.119,0.164,0.19-0.049c0.041-0.252-0.117-0.007-0.143-0.19
	c0.289-0.923,0.406-1.884,0.523-2.758c-0.243-0.331,0.054-0.71,0.19-1.19c0.119-0.412,0.162-0.998,0.286-1.474
	c0.073-0.28,0.257-0.507,0.286-0.714c0.123-0.914,0.564-2.067,0.999-2.758c-0.005-0.092-0.177,0.073-0.238-0.049
	c0.483-0.778,0.924-1.322,1.427-2.045c-0.134-0.115-0.127,0.314-0.38,0.238c0.187-0.622,0.538-1.078,0.951-1.475
	c0.035-0.146-0.082-0.14-0.048-0.285c0.314-0.209,0.518-0.529,0.762-0.809c0.059-0.154-0.154-0.037-0.096-0.191
	c0.218-0.447,0.704-0.627,0.856-1.141c1.035-0.725,1.268-2.252,2.093-3.188c0-0.126,0-0.253,0-0.38
	c0.491-0.476,0.544-1.39,0.999-1.903c-0.111-0.592,0.451-0.865,0.619-1.33c-0.078-0.836,0.615-1.237,0.951-1.809
	c-0.214-0.323,0.188-0.535,0.143-0.761c-0.203-0.074-0.238,0.427-0.523,0.428c0.468-0.538,0.932-1.177,1.379-1.854
	c-0.005-0.092-0.177,0.073-0.238-0.047c0.533-0.482,1.044-0.986,1.475-1.57c0.083-0.168-0.032-0.117-0.047-0.285
	c0.127-0.063,0.252-0.129,0.38-0.19c0.169-0.228,0.443-0.351,0.571-0.619c2.162-1.375,4.8-2.735,7.752-3.567
	c2.327-0.656,5.016-0.79,7.183-1.998c0.064-0.046,0.095-0.127,0.143-0.19c0.251-0.018,0.408-0.13,0.57-0.237
	c0.059-0.1,0.116-0.201,0.19-0.286c0.357-0.167,0.818-0.228,0.904-0.667c0.171-0.051,0.294-0.148,0.427-0.237
	c-0.034-0.044-0.086-0.072-0.142-0.095c0.302-0.348,0.749-0.552,0.808-1.142c0.105-0.009,0.152,0.039,0.144,0.142
	c0.128-0.014,0.085-0.2,0.19-0.237c-0.305-0.224,0.031-0.591,0-1.046c-0.179-0.209-0.161-0.786,0.047-0.999
	c-0.188-0.187-0.078-0.563-0.047-0.951c-0.106-0.147-0.109-0.4-0.19-0.571c0.371-0.509,0.221-1.191,0.095-1.474
	c-0.071-0.157-0.057,0.159-0.19,0.096c0.28-0.571,0.127-1.039,0.571-1.523c0.076-0.187-0.206-0.017-0.189-0.143
	c0.384-0.424,0.65-0.966,0.856-1.57c-0.557-0.606,0.045-1.545,0.238-2.235c-0.144-0.253-0.197-0.597-0.381-0.809
	c0.087-0.243,0.104-0.399-0.047-0.571c0.024-0.213,0.148-0.327,0.237-0.476c0.014-0.576-0.284-0.802-0.143-1.237
	c0.114-0.351,0.691-0.505,0.856-0.903c0.107-0.26-0.131-0.396,0.143-0.618c-0.048-0.063-0.129-0.094-0.143-0.19
	c0.125-0.439,0.363-1.08,0.333-1.38c0.327-0.505,0.449-1.111,0.428-1.665c0.118-0.025,0.169-0.116,0.238-0.19
	c0.057-0.711,0.745-1.186,0.856-1.998c0.304-0.284,0.486-0.688,0.81-0.951c0.053-0.059,0.041-0.098-0.048-0.096
	c0.25-0.209,0.367-0.552,0.761-0.618c0.008-0.136-0.312,0.057-0.238-0.143c0.357-0.262,1.126-0.311,1.189-0.714
	c0.222,0.032,0.306-0.075,0.475-0.095c-0.004-0.122-0.159-0.095-0.285-0.096c1.236-0.196,1.922-1.079,3.092-0.855
	c0.067-0.017,0.004-0.084-0.047-0.095c0.122-0.118,0.364,0.045,0.523,0.047c0.131-0.119-0.291-0.087-0.237-0.285
	c0.344,0.052,0.541,0.25,0.903,0.285c0.148-0.091-0.339-0.194-0.19-0.285c0.281,0.02,0.432,0.17,0.713,0.19
	c0.13-0.043-0.145-0.107,0-0.19c0.215,0.021,0.282,0.193,0.523,0.19c0.168-0.006-0.101-0.158,0.048-0.143
	c0.482,0.01,0.832,0.293,1.427,0.333c0.116-0.074-0.176-0.137-0.238-0.19c0.29-0.062,0.697,0.111,0.999,0.047
	c-0.088-0.07-0.226-0.091-0.38-0.095c0.385-0.217,1.02,0.145,1.617,0.143c-0.186-0.115-0.476-0.126-0.713-0.19
	c0.019-0.14,0.279-0.039,0.333-0.144C95.25,22.58,95.659,22.259,96.227,22.168z"/>
</svg>
