<?xml version="1.0" encoding="utf-8"?>
<!-- Generator: Adobe Illustrator 15.0.0, SVG Export Plug-In . SVG Version: 6.00 Build 0)  -->
<svg version="1.2" baseProfile="tiny" id="Layer_1" xmlns="http://www.w3.org/2000/svg" xmlns:xlink="http://www.w3.org/1999/xlink"
	 x="0px" y="0px" width="200px" height="200px" viewBox="0 0 200 200" overflow="inherit" xml:space="preserve">
<path fill-rule="evenodd" d="M102.706,26.678c0.087-0.054,0.181-0.118,0.28-0.192c0.123-0.093,0.232-0.171,0.326-0.233
	c0.046-0.514,0.287-0.765,0.722-0.752c0.011,0,0.021,0,0.031,0c-0.222,0.015-0.374,0.104-0.457,0.27
	c-0.048,0.097-0.09,0.221-0.124,0.374c0.004-0.002,0.007-0.003,0.011-0.005c0.025-0.014,0.05-0.026,0.072-0.036
	c0.077-0.167,0.121-0.256,0.135-0.27c0.097-0.118,0.273-0.21,0.529-0.28l-0.084-0.042c0.133,0.019,0.26,0.06,0.385,0.125
	c0.03,0.017,0.058,0.034,0.083,0.052c0.052-0.03,0.111-0.058,0.177-0.083c0.39-0.154,0.599-0.047,0.627,0.321
	c0.093-0.054,0.177-0.116,0.254-0.187c0.008-0.011,0.015-0.021,0.021-0.031c0.253-0.342,0.439-0.56,0.561-0.654
	c0.214-0.249,0.332-0.221,0.353,0.083c0.034,0.463,0.069,0.716,0.104,0.757c0.101-0.067,0.236-0.145,0.41-0.233
	c0.005-0.049,0.009-0.103,0.016-0.161c0.013-0.228,0.12-0.394,0.321-0.498c0.282-0.111,0.48-0.176,0.591-0.197
	c0.173-0.027,0.266,0.066,0.28,0.28c0.001,0.016,0.001,0.032,0,0.046c0.064-0.017,0.113-0.025,0.146-0.025h0.425
	c0.033-0.083,0.078-0.177,0.134-0.28c0.139-0.249,0.22-0.232,0.24,0.052c0.048-0.048,0.086-0.08,0.112-0.093
	c0.036-0.028,0.146-0.042,0.333-0.042c0.317,0,0.478,0.276,0.478,0.83c0,0.082-0.002,0.147-0.006,0.197
	c0.055,0.062,0.084,0.093,0.088,0.093c0.069-0.076,0.156-0.149,0.259-0.217c0.201-0.152,0.498-0.229,0.893-0.229
	c0.098,0,0.195,0.013,0.29,0.037c0.031-0.032,0.059-0.061,0.084-0.088l-0.582,0.031l-0.03-0.021l0.55-0.052
	c0.519-0.373,0.84-0.549,0.964-0.528c0.062,0.007,0.094,0.145,0.094,0.415l-0.036,0.088c0.062,0.091,0.11,0.255,0.145,0.493
	c0.105-0.108,0.183-0.181,0.234-0.218c0.135-0.108,0.227,0.046,0.274,0.462c0.099-0.042,0.205-0.047,0.316-0.016
	c0.083-0.428,0.256-0.695,0.519-0.798c0.283-0.11,0.474,0.111,0.57,0.664c0.152-0.048,0.287-0.062,0.404-0.042v0.306
	c0.078-0.012,0.157-0.021,0.238-0.026c0.324-0.141,0.513,0.022,0.566,0.488c0.054,0,0.111,0,0.17,0c0.264,0,0.491,0.114,0.685,0.342
	c0.181,0.201,0.271,0.405,0.271,0.612c0,0.158-0.008,0.267-0.021,0.327c0.044-0.003,0.092-0.005,0.139-0.005
	c0.053-0.352,0.269-0.524,0.648-0.519c0.442,0.007,0.664,0.208,0.664,0.602c0,0.152-0.027,0.268-0.083,0.347
	c0.02,0.022,0.037,0.045,0.052,0.068c0.083-0.138,0.197-0.208,0.343-0.208c0.048,0,0.079,0.007,0.094,0.021l0.01,0.239
	c0,0.048-0.056,0.131-0.166,0.249c-0.047,0.048-0.094,0.087-0.14,0.119c0.003,0.029,0.005,0.059,0.005,0.088
	c0.229,0.062,0.474,0.163,0.736,0.301c0.277,0.146,0.481,0.287,0.611,0.425c0.077,0.083,0.207,0.177,0.39,0.28
	c0.222,0.067,0.431,0.167,0.628,0.301c0.039,0.017,0.081,0.034,0.124,0.052c0.484,0.194,0.727,0.401,0.727,0.622
	c0,0.055-0.034,0.172-0.099,0.353c0.417,0.42,0.627,0.783,0.627,1.089c0,0.346-0.004,0.539-0.01,0.581
	c-0.062,0.318-0.236,0.512-0.519,0.581c0.276-0.166,0.414-0.397,0.414-0.695c0-0.277-0.048-0.477-0.145-0.602
	c0,0.09,0.024,0.214,0.072,0.373c-0.007,0.119-0.157,0.208-0.451,0.27c-0.014,0.082-0.039,0.179-0.077,0.291
	c-0.012,0.033-0.021,0.064-0.032,0.093c0.008,0.065,0.011,0.134,0.011,0.207l-0.155,0.581c-0.007,0.019-0.014,0.038-0.021,0.057
	c0.226,0.016,0.371,0.076,0.437,0.182c0.034,0.055,0.052,0.21,0.052,0.466c0,0.099-0.006,0.188-0.016,0.265
	c0.053,0.083,0.11,0.175,0.171,0.275c0.317,0.54,0.477,0.864,0.477,0.975c0,0.228-0.011,0.383-0.03,0.466
	c-0.069,0.264-0.219,0.415-0.446,0.457c-0.035-0.021-0.053-0.048-0.053-0.083l0.011-0.311h0.094c0,0.159,0.021,0.238,0.062,0.238
	c0.076-0.131,0.146-0.287,0.208-0.467v-0.549h-0.01c-0.234,0.486-0.482,0.746-0.747,0.778c-0.03,0.053-0.063,0.103-0.099,0.15
	c0.044,0.105,0.07,0.222,0.077,0.348c0.014,0,0.027,0,0.042,0c0.062,0,0.229-0.014,0.498-0.042c0.221-0.028,0.353-0.031,0.394-0.011
	c0.069,0.201,0.035,0.384-0.104,0.55c-0.037,0.043-0.077,0.083-0.124,0.119c0.041,0.054,0.062,0.143,0.062,0.265
	c0,0.308-0.018,0.597-0.052,0.866c-0.008,0.2-0.024,0.333-0.053,0.4l-0.016-0.016c-0.079,0.362-0.197,0.686-0.353,0.969
	c0.01,0.022,0.018,0.047,0.026,0.073c0.131,0.18,0.196,0.288,0.196,0.321c0,0.106-0.006,0.211-0.021,0.316
	c0.015,0.064,0.021,0.118,0.021,0.161c0,0.234-0.142,0.608-0.425,1.12c-0.318,0.56-0.595,0.823-0.83,0.788
	c0.229-0.09,0.381-0.184,0.457-0.28c0.041-0.056,0.079-0.152,0.114-0.291c-0.024,0.023-0.05,0.043-0.078,0.057
	c-0.17,0.148-0.365,0.25-0.586,0.306c0.152-0.057,0.296-0.146,0.431-0.27c-0.021-0.001-0.045-0.004-0.068-0.01
	c-0.006,0-0.11-0.034-0.311-0.104c0-0.062,0.052-0.197,0.155-0.405c0.104-0.2,0.155-0.338,0.155-0.415c0-0.006,0-0.011,0-0.015
	c-0.171,0.24-0.348,0.422-0.528,0.544l-0.052-0.052c-0.021-0.042-0.034-0.062-0.042-0.062c0-0.021,0-0.089,0-0.208
	c0-0.051,0.004-0.104,0.011-0.155c-0.004,0.015-0.008,0.028-0.011,0.042c-0.021,0.093-0.042,0.183-0.062,0.27v0.819
	c-0.02,0.069-0.072,0.298-0.154,0.685c-0.073,0.206-0.163,0.351-0.271,0.436c-0.001,0.007-0.003,0.014-0.005,0.021
	c0.022-0.02,0.044-0.042,0.062-0.067c-0.064,0.16-0.132,0.268-0.202,0.327c-0.013-0.008-0.025-0.021-0.041-0.036
	c-0.149,0.121-0.361,0.185-0.638,0.191c-0.017,0.092-0.057,0.179-0.119,0.26c-0.103,0.114-0.243,0.181-0.426,0.202
	c0.014,0.071,0.041,0.156,0.083,0.254c0.069,0.145,0.104,0.259,0.104,0.342l-0.093,0.705c-0.124,0.463-0.35,0.694-0.674,0.694
	c-0.181,0-0.336-0.128-0.467-0.383c-0.07-0.135-0.116-0.249-0.14-0.342c-0.06,0.131-0.117,0.201-0.172,0.207
	c-0.004,0.015-0.008,0.028-0.011,0.042c-0.05,0.236-0.141,0.43-0.274,0.581c-0.087,0.473-0.203,0.834-0.348,1.084
	c0.029-0.073,0.047-0.154,0.052-0.244c0.021-0.305,0.038-0.47,0.052-0.498h-0.052c0,0.035-0.072,0.052-0.217,0.052
	c0.022,0.099,0.051,0.206,0.082,0.322c0.021,0.373-0.214,0.602-0.704,0.684c0.151-0.097,0.272-0.218,0.362-0.363
	c0.082-0.125,0.124-0.228,0.124-0.311c-0.117,0.193-0.332,0.308-0.643,0.342c-0.1,0-0.159-0.019-0.182-0.058
	c-0.204,0.177-0.403,0.265-0.596,0.265c-0.113,0-0.209-0.143-0.286-0.43c-0.026,0.029-0.053,0.052-0.077,0.067
	c-0.051-0.028-0.095-0.063-0.135-0.104c0.004,0.059,0.009,0.12,0.015,0.181c0.02,0.193,0.054,0.395,0.104,0.607h-0.005
	c0.906,0.982,1.981,2.175,3.226,3.578c0.938,1.058,1.679,2.285,2.225,3.682c1.275,6.037,0.396,11.727-2.64,17.072
	c-0.187,0.332-0.375,0.66-0.565,0.985c-0.021,0.138-0.041,0.277-0.057,0.416c-0.025,0.086-0.052,0.173-0.077,0.259
	c0.123,0.681,0.315,2.126,0.575,4.335c0.263,2.282,0.394,3.637,0.394,4.066c0,0.055-0.172,0.498-0.518,1.328
	c-0.14,0.333-0.28,0.658-0.42,0.975c0.034,0.1,0.07,0.2,0.108,0.301l0.332,0.767c0.067,0.149,0.192,0.433,0.373,0.851
	c0.182,0.418,0.704,1.151,1.566,2.199c0.863,1.049,1.842,2.401,2.935,4.055c1.425,2.157,2.472,4.691,3.143,7.602
	c0.25,1.1,0.312,2.213,0.187,3.34c-0.283,2.537-1.085,4.708-2.405,6.514c-0.188,0.263-0.38,0.521-0.582,0.777v-0.006
	c-0.188,0.175-0.381,0.345-0.575,0.514c0.091,0.932,0.285,2.004,0.587,3.216c0.69,2.801,1.051,4.291,1.078,4.471
	c0.429,2.523,0.87,4.738,1.328,6.647c0.255,1.058,0.577,2.282,0.965,3.672c0.746,2.947,1.061,5.046,0.943,6.294
	c-0.118,1.251-0.162,2.152-0.13,2.703c0.026,0.022,0.055,0.045,0.083,0.067c2.767,2.081,4.902,5.324,6.409,9.729
	c1.522,4.449,2.51,11.439,2.967,20.97c0.423,1.47,0.941,2.447,1.556,2.936c0.067,0.104,0.135,0.208,0.202,0.312
	c0.234,0.373,0.546,0.657,0.933,0.852c0.769,2.101,0.302,3.857-1.399,5.268c-1.342,1.1-2.862,1.753-4.563,1.961
	c-2.019,0.256-4.055,0.393-6.108,0.413c-1.646,0.126-3.271,0.309-4.875,0.551c-1.537,0.223-3.061,0.218-4.568-0.02
	c-0.426,0.241-0.846,0.361-1.26,0.361c-0.367,0-0.682-0.068-0.944-0.208c-0.339-0.186-0.509-0.469-0.509-0.85
	c0-0.081,0.019-0.163,0.058-0.243c-0.06-0.07-0.112-0.145-0.161-0.225c1.467-1.111,3.06-2.027,4.781-2.747
	c2.613-1.105,4.868-2.696,6.763-4.77c1.147-1.266,1.656-2.739,1.524-4.42c-0.021-0.304-0.083-0.601-0.187-0.893
	c-1.203-3.207-2.49-6.378-3.858-9.51c-2.296-5.228-4.958-10.285-7.986-15.174c-0.981-0.233-1.631-0.885-1.949-1.95
	c-0.138-0.456-0.281-0.911-0.431-1.363c-0.176-0.156-0.355-0.326-0.534-0.512c-1.044-1.088-2.047-2.546-3.008-4.379
	c-0.908-1.734-1.645-3.534-2.209-5.396c-0.639,1.213-1.281,2.408-1.929,3.582c-2.379,3.616-4.363,6.447-5.954,8.495
	c-0.205,0.264-0.409,0.523-0.612,0.777c-0.04,0.315-0.078,0.668-0.114,1.058c-0.11,0.291-0.183,0.72-0.218,1.286
	c0,1.141-0.207,2.334-0.623,3.578c-0.235,0.67-0.646,1.854-1.234,3.548c-0.568,1.521-1.123,2.724-1.669,3.608
	c-0.961,1.557-2.092,3.132-3.393,4.729c-0.739,0.9-1.763,2.093-3.069,3.579c-1.051,1.225-1.791,2.219-2.22,2.987
	c-0.18,0.316-0.333,0.632-0.456,0.944c-0.584,0.825-1.183,1.648-1.795,2.467c-1.092,1.445-1.773,3.063-2.043,4.855
	c-0.249,1.618-0.971,2.979-2.167,4.085c-1.046,0.111-2.051,0.014-3.013-0.289c-0.077,0.021-0.161,0.029-0.254,0.029
	c-1.906-0.514-3.395-0.963-4.465-1.347c-0.405,0-0.853,0-1.343,0c-0.871,0-1.818-0.097-2.841-0.291
	c-0.483-0.089-1.082-0.206-1.795-0.353c-0.666-0.458-1.292-0.975-1.877-1.546c-0.545-0.532-1.186-0.901-1.918-1.109
	c-0.801-0.243-1.29-0.736-1.462-1.484c-0.18-0.773-0.135-1.53,0.135-2.271c0.028-0.076,0.06-0.146,0.092-0.211
	c-0.055-0.183-0.083-0.377-0.083-0.587c0-1.037,0.526-1.221,1.576-0.549c0.346,0.221,0.709,0.51,1.09,0.87
	c0.093,0.085,0.173,0.161,0.239,0.229c1.276,0.215,2.576,0.215,3.899,0c2.13-0.373,4.27-0.637,6.42-0.789
	c5.911-6.354,9.79-13.741,11.636-22.163c0.422-1.937,0.733-3.887,0.935-5.85c0.041-0.415,0.062-0.831,0.062-1.244
	c0-0.472,0.041-0.938,0.124-1.401c0.235-1.341,0.508-2.687,0.819-4.033c0.076-0.326,0.21-0.627,0.404-0.903
	c0.311-0.453,0.582-0.934,0.814-1.441c-0.011-0.237-0.016-0.493-0.016-0.769c0-0.766,0.291-2.72,0.871-5.858
	c0.574-3.078,0.958-4.812,1.151-5.206c0.906-1.922,1.995-3.738,3.267-5.445c0.083-0.148,0.197-0.315,0.342-0.503
	c-0.131-0.617-0.196-1.244-0.196-1.883c0-0.06,0.006-0.122,0.02-0.188c-0.028-0.267-0.042-0.551-0.042-0.85
	c0-1.085,0.83-3.586,2.49-7.504c-0.413,0.438-0.783,0.823-1.11,1.157c-0.764,0.777-1.434,1.429-2.012,1.954
	c-0.505,1.048-0.709,2.17-0.611,3.365c0.035,0.443-0.035,0.86-0.208,1.256c-0.754,1.755-2.008,2.803-3.765,3.143
	c-0.283,0.028-0.529-0.06-0.736-0.26c-0.83-0.781-1.259-1.766-1.287-2.955c-0.034-1.466,0.342-2.804,1.131-4.015
	c0.318-0.478,0.685-0.913,1.099-1.307c0.463-0.443,0.843-0.951,1.141-1.524c0.809-1.57,1.563-3.164,2.261-4.781
	c0.222-0.504,0.542-0.958,0.964-1.358c1.57-1.48,2.818-3.167,3.744-5.062c0.194-0.387,0.273-0.806,0.238-1.255
	c-0.083-1.224-0.165-2.451-0.249-3.682c-0.083-1.231-0.028-2.455,0.166-3.672c0.345-2.22,0.705-4.432,1.079-6.637
	c0.068-0.388,0.072-0.771,0.01-1.151c-0.044-0.267,0.056-1.155,0.301-2.666c-0.915-0.929-1.645-1.778-2.188-2.546
	c-0.124-0.176-0.245-0.354-0.363-0.534c-0.407-0.616-0.681-1.29-0.819-2.022l-0.103-0.062c-0.028-0.076-0.035-0.142-0.021-0.197
	c0.256-0.961,0.692-1.874,1.307-2.738c0.151-0.223,0.266-0.351,0.342-0.384c2.258-3.085,3.979-5.597,5.16-7.535
	c1.181-1.937,1.922-3.581,2.225-4.932c-0.035-0.21-0.071-0.421-0.108-0.632l-0.295-3.09c0-0.194-0.012-0.388-0.032-0.582
	c-0.116-1.189-0.515-1.829-1.192-1.918c-1.619-0.134-2.792-0.377-3.517-0.731c-0.724-0.354-1.153-0.629-1.287-0.825
	c-0.132-0.195-0.227-0.351-0.285-0.467c-0.058-0.115-0.093-0.257-0.104-0.425c-0.009-0.168-0.247-0.33-0.709-0.487
	c-0.111-0.197-0.166-0.356-0.166-0.478c0-0.27,0.059-0.463,0.176-0.581c0.024-0.021,0.048-0.044,0.072-0.067
	c-0.102-0.07-0.272-0.2-0.508-0.39c0.003-0.206,0.048-0.374,0.135-0.503c0.032-0.279,0.083-0.64,0.155-1.083
	c0.001-0.012,0.003-0.024,0.004-0.036c-0.31-0.163-0.572-0.321-0.788-0.478c-0.002-0.018-0.003-0.037-0.005-0.057
	c-0.017-0.009-0.034-0.02-0.051-0.031c-0.187-0.125-0.28-0.27-0.28-0.436c0-0.171,0.074-0.356,0.223-0.555c0-0.007,0-0.014,0-0.021
	c0.045-0.088,0.093-0.18,0.14-0.275c0.615-1.39,0.923-2.088,0.923-2.095c0-0.032-0.002-0.062-0.006-0.088
	c0.025-0.036,0.049-0.072,0.073-0.109h-0.12c-0.002-0.004-0.005-0.008-0.01-0.01c-0.041-0.035-0.121-0.056-0.238-0.062
	c0.014-0.021,0.086-0.038,0.217-0.052l0.151-0.026c-0.003-0.023-0.005-0.045-0.005-0.067c0-0.153,0.01-0.302,0.032-0.446
	c-0.032-0.062-0.073-0.134-0.125-0.217c-0.132-0.201-0.222-0.301-0.27-0.301c-0.035,0.001-0.07,0.001-0.104,0
	c-0.084-0.075-0.157-0.171-0.218-0.29c-0.097-0.193-0.145-0.374-0.145-0.54c0-0.471,0.145-0.832,0.435-1.084
	c0.103-0.215,0.241-0.424,0.415-0.627c0.035-0.042,0.07-0.083,0.104-0.125c0.251-0.263,0.49-0.524,0.716-0.783
	c-0.021-0.125-0.031-0.272-0.031-0.441c-0.048-0.187-0.048-0.367,0-0.539c0.035-0.145,0.104-0.259,0.208-0.342
	c-0.011-0.008-0.021-0.018-0.031-0.031c0.016-0.148,0.107-0.346,0.274-0.591c-0.053-0.012-0.117-0.04-0.191-0.083
	c-0.036-0.021-0.052-0.048-0.052-0.083v-0.093c0-0.408,0.118-0.754,0.353-1.037c0.181-0.215,0.439-0.409,0.773-0.581
	c0.045-0.111,0.106-0.218,0.182-0.322c-0.011-0.007-0.021-0.014-0.032-0.021c-0.297-0.201-0.446-0.367-0.446-0.498
	c0.049-0.133,0.108-0.264,0.176-0.395c0.015-0.23,0.098-0.362,0.25-0.394c0.251-0.346,0.496-0.519,0.735-0.519
	c0.047,0,0.087,0.014,0.12,0.041c0.036-0.058,0.079-0.11,0.13-0.155c0.098-0.089,0.219-0.155,0.363-0.197
	c0-0.096,0.072-0.214,0.218-0.353c0.158-0.145,0.328-0.231,0.508-0.259c0.117-0.014,0.253,0.048,0.405,0.187
	c0.166,0.146,0.276,0.218,0.332,0.218c0.145-0.014,0.252-0.014,0.321,0C102.667,26.666,102.688,26.671,102.706,26.678z
	 M104.034,26.071c0.013,0,0.03,0.009,0.052,0.026l0.155,0.005c0-0.021,0.007-0.031,0.021-0.031v-0.176
	c0,0.007-0.038,0.031-0.114,0.073c-0.061,0.04-0.104,0.074-0.13,0.104C104.023,26.071,104.029,26.071,104.034,26.071z
	 M103.848,25.937c0,0.083,0.01,0.121,0.031,0.114c0.104-0.055,0.213-0.127,0.331-0.218l-0.051-0.041
	c-0.111,0-0.194,0.021-0.25,0.062C103.868,25.881,103.848,25.909,103.848,25.937z M103.635,26.32
	c-0.006-0.008-0.011-0.015-0.016-0.021c-0.036,0-0.081,0.019-0.135,0.057c0.033,0.035,0.075,0.061,0.124,0.077
	c0.015-0.035,0.024-0.052,0.032-0.052L103.635,26.32z M104.014,26.248l0.03,0.021c-0.005-0.005-0.01-0.01-0.015-0.016l-0.012-0.005
	H104.014z M103.868,26.414c-0.002,0.009-0.006,0.018-0.011,0.026v0.01c0.041,0.003,0.09,0.005,0.146,0.005
	C103.955,26.441,103.909,26.427,103.868,26.414z M103.655,26.569c-0.049-0.032-0.129-0.083-0.238-0.15l-0.006,0.005
	c0.004,0.039,0.028,0.087,0.073,0.145c0.046,0.059,0.098,0.09,0.156,0.094C103.645,26.631,103.649,26.6,103.655,26.569z
	 M103.329,26.533v0.004c0,0.064,0.012,0.132,0.036,0.203c0.03-0.007,0.063-0.016,0.099-0.026
	C103.398,26.653,103.353,26.592,103.329,26.533z M103.225,26.714l-0.01,0.005h0.01V26.714z M103.146,26.865
	c0,0.013-0.002,0.025-0.004,0.036h0.057l0.005-0.005C103.188,26.877,103.169,26.867,103.146,26.865z M103.848,26.901
	c0.069,0.097,0.104,0.184,0.104,0.259h0.031v-0.093c0-0.09-0.021-0.156-0.062-0.197C103.886,26.877,103.861,26.887,103.848,26.901z
	 M103.801,27.232c0.017-0.067,0.026-0.119,0.026-0.155c-0.019,0.012-0.039,0.025-0.063,0.042c0.004,0.038,0.008,0.058,0.012,0.062
	C103.778,27.195,103.788,27.212,103.801,27.232z M103.665,27.207c-0.013,0.014-0.026,0.027-0.04,0.042
	c0.037,0.038,0.078,0.086,0.124,0.146c0.001-0.004,0.003-0.007,0.005-0.011c-0.004-0.005-0.007-0.01-0.011-0.016
	C103.712,27.31,103.687,27.257,103.665,27.207z M103.677,27.622c-0.046-0.05-0.098-0.141-0.156-0.27
	c-0.006,0.006-0.011,0.011-0.016,0.016c-0.018,0.018-0.035,0.035-0.051,0.052c-0.004,0.136,0,0.25,0.01,0.343
	c0.062-0.025,0.127-0.053,0.197-0.083C103.665,27.662,103.671,27.643,103.677,27.622z M103.091,27.57
	c-0.013,0.056-0.025,0.12-0.042,0.192c0.033,0,0.065,0.002,0.098,0.004c-0.006-0.026-0.015-0.056-0.024-0.088
	C103.106,27.634,103.096,27.598,103.091,27.57z M103.101,27.917c-0.027-0.007-0.054-0.012-0.083-0.016
	c-0.002,0.02-0.006,0.039-0.011,0.057C103.036,27.944,103.067,27.931,103.101,27.917z M101.752,26.414
	c0.014,0,0.021,0.052,0.021,0.155h0.177l-0.042-0.031c-0.014-0.034-0.048-0.076-0.103-0.124
	C101.783,26.406,101.766,26.406,101.752,26.414z M101.254,26.559c-0.134,0.098-0.208,0.189-0.223,0.275
	c0.083-0.011,0.173-0.014,0.27-0.011c0.237-0.254,0.384-0.4,0.44-0.44C101.576,26.382,101.413,26.441,101.254,26.559z
	 M101.006,27.243c-0.041,0.018-0.086,0.039-0.136,0.062c-0.114,0.047-0.188,0.09-0.223,0.129c0.084-0.01,0.217-0.05,0.399-0.119
	C101.032,27.292,101.02,27.267,101.006,27.243z M100.918,27.062c-0.024,0.006-0.05,0.015-0.078,0.026
	c-0.111,0.041-0.187,0.079-0.229,0.114c0.095,0,0.201-0.033,0.321-0.099C100.928,27.088,100.922,27.074,100.918,27.062z
	 M101.55,26.839c0.015-0.018,0.026-0.031,0.036-0.042l0.011-0.021c-0.027,0.015-0.056,0.035-0.088,0.057
	C101.522,26.835,101.536,26.837,101.55,26.839z M101.44,27.15c-0.028,0.014-0.062,0.034-0.104,0.062
	c0.063-0.017,0.108-0.02,0.136-0.01c0,0.005,0,0.01,0,0.015c0.011-0.021,0.021-0.043,0.03-0.067H101.44z M101.747,27.539
	c-0.017,0-0.031,0-0.047,0c-0.003,0.005-0.007,0.01-0.01,0.015l0.036,0.005C101.733,27.553,101.74,27.546,101.747,27.539z
	 M101.006,27.461c0.028-0.029,0.061-0.05,0.093-0.062l-0.005-0.004c-0.013,0.005-0.024,0.01-0.036,0.015
	c-0.039,0.015-0.073,0.031-0.104,0.046L101.006,27.461z M101.265,27.674c-0.046-0.071-0.086-0.138-0.124-0.203
	c-0.072,0.093-0.174,0.156-0.307,0.187c0.024,0.053,0.036,0.108,0.036,0.166h0.307C101.207,27.772,101.235,27.722,101.265,27.674z
	 M100.248,27.498c0.02-0.065,0.042-0.126,0.068-0.182c-0.044,0.033-0.136,0.116-0.275,0.249
	C100.108,27.539,100.177,27.516,100.248,27.498z M100.901,28.15v-0.015c-0.004,0.005-0.01,0.01-0.016,0.015H100.901z
	 M100.403,29.515c0,0.004,0.007,0.02,0.021,0.047c0.013,0.008,0.023,0.017,0.032,0.026l0.026-0.083
	C100.453,29.506,100.427,29.509,100.403,29.515z M101.959,28.389c0.002,0.007,0.004,0.015,0.006,0.021
	c0.007-0.009,0.014-0.017,0.021-0.026C101.977,28.386,101.969,28.387,101.959,28.389z M99.413,28.291
	c-0.033-0.027-0.067-0.054-0.104-0.083c-0.079,0.112-0.119,0.212-0.119,0.3c0,0.111,0.014,0.18,0.042,0.208
	c0.048,0.014,0.086,0.028,0.114,0.042l0.052-0.021c-0.035-0.11-0.032-0.252,0.01-0.425C99.409,28.307,99.411,28.3,99.413,28.291z
	 M99.268,29.79c0.012-0.14,0.043-0.274,0.093-0.404c-0.102,0.049-0.222,0.134-0.357,0.254c-0.124,0.104-0.263,0.235-0.416,0.394
	c0.115-0.018,0.204-0.031,0.27-0.042c-0.006-0.012-0.01-0.026-0.01-0.041c0.125-0.015,0.24-0.039,0.347-0.073
	C99.22,29.848,99.244,29.818,99.268,29.79z M98.983,30.08c0,0.018,0,0.037,0,0.057c0.011-0.015,0.024-0.03,0.035-0.047
	C99.006,30.088,98.994,30.084,98.983,30.08z M99.17,30.127c-0.007-0.001-0.011-0.003-0.016-0.006
	c-0.048,0.052-0.104,0.114-0.17,0.187c0,0.018,0,0.038,0,0.057c-0.006,0.023-0.011,0.045-0.016,0.067
	c0.041-0.055,0.095-0.114,0.161-0.177C99.14,30.216,99.154,30.173,99.17,30.127z M99.086,30.407
	c-0.046,0.034-0.072,0.091-0.078,0.171c0.025-0.028,0.051-0.056,0.078-0.083c0-0.028,0.003-0.059,0.01-0.094
	C99.093,30.403,99.089,30.404,99.086,30.407z M98.879,30.137c-0.16,0.042-0.292,0.18-0.394,0.415l0.166,0.016
	c0.06-0.082,0.12-0.16,0.176-0.233C98.848,30.273,98.865,30.207,98.879,30.137z M98.35,30.78c-0.006,0.027-0.003,0.089,0.011,0.187
	c0.061,0.013,0.142,0.006,0.243-0.021c-0.081-0.047-0.127-0.092-0.14-0.134c0.027-0.036,0.053-0.07,0.078-0.104
	c-0.008,0-0.017,0-0.026,0C98.405,30.708,98.35,30.731,98.35,30.78z M98.588,30.759c0.059,0.049,0.103,0.096,0.136,0.14
	c0.042-0.051,0.085-0.101,0.13-0.15l-0.006-0.073c0-0.026,0.006-0.054,0.016-0.083c-0.056,0.053-0.13,0.088-0.223,0.104
	C98.624,30.718,98.606,30.738,98.588,30.759z M98.671,30.967h-0.016c0.003,0.005,0.004,0.011,0.005,0.016
	C98.665,30.976,98.669,30.971,98.671,30.967z M99.392,31.387c-0.093,0.048-0.206,0.09-0.336,0.125
	c-0.115,0.062-0.173,0.11-0.176,0.145c0.069-0.009,0.229-0.042,0.477-0.099c0.006-0.007,0.01-0.014,0.016-0.021
	C99.378,31.485,99.386,31.434,99.392,31.387z M98.588,32.419c0.014-0.056,0.008-0.083-0.02-0.083
	c-0.18,0.18-0.297,0.322-0.353,0.426c-0.042,0.068-0.062,0.148-0.062,0.238c0,0.024,0,0.046,0,0.068
	c0.147-0.169,0.29-0.337,0.425-0.503c-0.053-0.015-0.065-0.039-0.041-0.073C98.565,32.491,98.582,32.467,98.588,32.419z
	 M98.77,32.024c0.054-0.051,0.123-0.105,0.208-0.161c-0.143,0.007-0.297,0.058-0.462,0.15c-0.152,0.09-0.272,0.19-0.363,0.301
	l0.125,0.021c0.062-0.097,0.11-0.169,0.146-0.218c0.062-0.09,0.163-0.145,0.301-0.166C98.736,31.958,98.752,31.982,98.77,32.024z
	 M121.453,30.526c0.016,0.015,0.031,0.03,0.046,0.046c-0.044,0.027-0.095,0.067-0.155,0.119c0.072,0.064,0.126,0.147,0.161,0.25
	c0.056,0.044,0.113,0.094,0.171,0.15c0.022,0.021,0.046,0.042,0.067,0.062c0.045-0.101,0.067-0.198,0.067-0.291
	c0-0.145-0.065-0.246-0.197-0.301C121.564,30.542,121.51,30.529,121.453,30.526z M121.334,31.06c0.04,0.087,0.073,0.156,0.099,0.208
	c0.01-0.024,0.016-0.045,0.016-0.062c0-0.022,0-0.041,0-0.057c-0.019-0.042-0.041-0.085-0.068-0.13h-0.067
	C121.32,31.032,121.326,31.046,121.334,31.06z M120.971,31.086c0.066,0.041,0.128,0.098,0.187,0.171
	c0.076,0.104,0.121,0.163,0.135,0.176v-0.052c-0.07-0.117-0.177-0.217-0.321-0.301V31.086z M121.967,32.056
	c-0.132-0.021-0.201-0.021-0.208,0v0.166c0.025,0.102,0.041,0.217,0.047,0.348c0.019,0.012,0.04,0.02,0.067,0.026l0.052-0.021
	C121.953,32.484,121.967,32.312,121.967,32.056z M120.919,32.243c-0.016,0.023-0.031,0.05-0.047,0.083
	c0.004,0.018,0.006,0.035,0.006,0.052c0,0.015,0,0.028,0,0.042c0.024,0.018,0.048,0.04,0.067,0.067
	c0.027-0.034,0.046-0.067,0.057-0.099c-0.032-0.021-0.053-0.07-0.062-0.145C120.932,32.243,120.925,32.243,120.919,32.243z
	 M121.084,32.486c0.016-0.017,0.028-0.035,0.042-0.052c-0.014-0.006-0.027-0.011-0.042-0.015V32.486z M121.416,33.114
	c0,0.089,0.015,0.159,0.042,0.207v-0.383C121.431,32.965,121.416,33.023,121.416,33.114z M121.707,32.787
	c-0.135-0.107-0.261-0.194-0.379-0.259c-0.01,0.019-0.022,0.038-0.036,0.057c-0.002,0.018-0.004,0.038-0.005,0.062
	c0.179,0.059,0.301,0.183,0.368,0.374C121.683,32.931,121.7,32.853,121.707,32.787z M120.867,32.542h-0.042
	c-0.006-0.009-0.013-0.02-0.021-0.03c-0.008,0.034-0.019,0.069-0.031,0.108h0.011c0.042-0.03,0.078-0.06,0.108-0.088
	c-0.005-0.01-0.013-0.021-0.021-0.031C120.872,32.526,120.87,32.54,120.867,32.542z M121.111,33.419
	c0.012,0.003,0.021,0.005,0.025,0.005c0.007-0.028,0.018-0.049,0.031-0.062l0.021-0.01l0.006-0.109
	C121.168,33.312,121.141,33.37,121.111,33.419z M121.339,33.71c-0.046-0.018-0.107-0.02-0.187-0.005
	c-0.02,0.032-0.041,0.063-0.062,0.093l-0.006,0.104c0.016,0.025,0.028,0.05,0.042,0.073c0.087-0.078,0.156-0.161,0.208-0.249
	C121.336,33.721,121.338,33.716,121.339,33.71z M121.256,33.528c0.05,0.026,0.093,0.056,0.13,0.088
	c0.005-0.012,0.011-0.025,0.015-0.036h-0.004l0.004-0.005c0.004-0.016,0.006-0.032,0.006-0.047c0-0.11-0.01-0.17-0.031-0.176
	c-0.014,0-0.023,0.006-0.031,0.021L121.256,33.528z M121.484,34.394c-0.028-0.019-0.06-0.036-0.094-0.051
	c-0.027,0.043-0.055,0.081-0.083,0.114v0.011c0.083-0.052,0.13-0.078,0.141-0.078S121.472,34.391,121.484,34.394z M120.971,34.488
	l-0.005,0.005c0.011-0.002,0.021-0.004,0.03-0.005v-0.005C120.988,34.484,120.979,34.486,120.971,34.488z M121.095,34.457
	c-0.007,0.001-0.013,0.003-0.021,0.005l-0.006,0.015c0.009-0.002,0.018-0.006,0.026-0.01V34.457z M121.857,35.484
	c-0.075,0.031-0.14,0.116-0.192,0.253c0.071-0.042,0.132-0.083,0.182-0.124C121.851,35.572,121.854,35.529,121.857,35.484z
	 M121.521,35.167l0.042-0.129c-0.029,0.03-0.06,0.069-0.094,0.114c0.003,0.008,0.006,0.017,0.01,0.025
	C121.493,35.173,121.507,35.17,121.521,35.167z M121.012,35.183l0.062,0.005l0.01-0.073c-0.016,0.003-0.031,0.007-0.046,0.01
	C121.028,35.144,121.021,35.163,121.012,35.183z M120.888,35.654c-0.074,0.042-0.142,0.105-0.202,0.187
	c0.006,0.007,0.01,0.014,0.016,0.021c0.014,0.02,0.028,0.042,0.041,0.067c0.043-0.097,0.091-0.178,0.146-0.244V35.654z
	 M121.146,35.841c-0.009,0.022-0.02,0.046-0.03,0.073c-0.021,0.054-0.04,0.106-0.058,0.155c0.051,0.035,0.109,0.08,0.176,0.135
	c0.005-0.085,0.009-0.172,0.011-0.259C121.213,35.909,121.181,35.874,121.146,35.841z M121.033,36.204l-0.01-0.005
	c-0.003,0.006-0.005,0.011-0.006,0.016C121.024,36.21,121.029,36.207,121.033,36.204z M121.386,36.324
	c0.131,0.116,0.197,0.201,0.197,0.254c0,0.062-0.004,0.121-0.011,0.176c0.004,0.007,0.008,0.014,0.011,0.021
	c0.025-0.055,0.051-0.112,0.072-0.171c-0.072-0.173-0.16-0.333-0.265-0.477C121.389,36.194,121.387,36.26,121.386,36.324z
	 M121.375,36.515c0.004,0.003,0.007,0.007,0.011,0.01l0.005,0.006c-0.003-0.017-0.008-0.029-0.016-0.037
	C121.375,36.501,121.375,36.508,121.375,36.515z M121.915,36.298l0.062-0.021c0.069-0.152,0.117-0.256,0.145-0.311v-0.021
	c-0.027,0.014-0.068,0.059-0.124,0.135c-0.018,0.027-0.035,0.053-0.052,0.078C121.937,36.206,121.927,36.253,121.915,36.298z
	 M122.495,37.314l-0.414-0.021c-0.104,0-0.17,0.014-0.198,0.042c-0.012,0.009-0.021,0.016-0.03,0.021
	c0.017,0.019,0.03,0.043,0.041,0.073c0.021,0.048,0.031,0.152,0.031,0.311c0,0.06-0.002,0.115-0.006,0.166
	c0.005,0.007,0.011,0.014,0.016,0.021c0.01-0.007,0.02-0.014,0.032-0.021c0.141-0.087,0.253-0.127,0.337-0.119
	c0.155-0.123,0.233-0.228,0.233-0.317c0-0.11-0.008-0.169-0.021-0.176C122.509,37.293,122.502,37.3,122.495,37.314z M121.977,38.227
	v-0.01c-0.003,0.004-0.004,0.01-0.005,0.016L121.977,38.227z M121.214,37.568c0.057-0.051,0.104-0.098,0.141-0.14v-0.01
	c-0.045,0.018-0.086,0.043-0.124,0.078c-0.01,0.014-0.018,0.027-0.026,0.042C121.207,37.547,121.211,37.557,121.214,37.568z
	 M121.433,37.185c0.008,0.004,0.018,0.007,0.025,0.01c-0.001-0.015-0.001-0.031,0-0.047C121.45,37.161,121.44,37.172,121.433,37.185
	z M121.546,38.16c0.001,0.012,0.003,0.024,0.006,0.036l0.051-0.021c0.014-0.031,0.023-0.069,0.032-0.114
	C121.603,38.09,121.574,38.123,121.546,38.16z M121.25,37.843c0,0.005,0.002,0.014,0.006,0.026c0.022-0.054,0.042-0.107,0.057-0.161
	c-0.019,0.009-0.039,0.028-0.062,0.057C121.25,37.79,121.25,37.816,121.25,37.843z M120.888,38.279l0.042-0.031
	c-0.027,0.011-0.053,0.021-0.078,0.031c0.009,0,0.018,0,0.026,0l0.004,0.005L120.888,38.279z M121.173,38.418
	c-0.015-0.044-0.023-0.091-0.026-0.14l-0.01,0.124C121.139,38.41,121.151,38.415,121.173,38.418z M121.105,38.714
	c0.014,0.026,0.025,0.056,0.036,0.088c0.04-0.016,0.074-0.03,0.104-0.042c0.013-0.034,0.024-0.066,0.037-0.099
	C121.229,38.664,121.17,38.681,121.105,38.714z M120.898,38.896c-0.008-0.007-0.015-0.014-0.021-0.021
	c-0.007,0.013-0.014,0.025-0.021,0.037C120.87,38.907,120.884,38.901,120.898,38.896z M121.448,38.403
	c-0.011-0.004-0.021-0.009-0.032-0.016c-0.001,0.006-0.003,0.014-0.005,0.021C121.423,38.406,121.436,38.404,121.448,38.403z
	 M121.458,38.403c0.01,0.024,0.021,0.051,0.031,0.078c0.01-0.035,0.021-0.067,0.036-0.098
	C121.504,38.39,121.481,38.396,121.458,38.403z M121.474,39.082c-0.044,0.012-0.108,0.041-0.191,0.088
	c-0.025,0.012-0.05,0.022-0.072,0.032c-0.003,0.014-0.007,0.028-0.012,0.042c-0.001,0.026-0.003,0.05-0.004,0.072h0.004
	c0.135-0.078,0.229-0.146,0.28-0.202C121.478,39.104,121.475,39.093,121.474,39.082z M121.732,39.119
	c0.078-0.03,0.156-0.12,0.234-0.27c0.082-0.228,0.138-0.359,0.165-0.394v-0.021l-0.419,0.617
	C121.718,39.073,121.726,39.096,121.732,39.119z M121.572,39.383c-0.038,0.013-0.086,0.032-0.146,0.057
	c-0.104,0.045-0.196,0.077-0.274,0.094l-0.006,0.01c0.159-0.014,0.309-0.006,0.452,0.021c0.021-0.038,0.039-0.079,0.052-0.125
	c-0.016,0-0.03,0-0.048,0C121.592,39.421,121.582,39.403,121.572,39.383z M120.991,39.315h0.042
	c0.002-0.014,0.004-0.027,0.005-0.042c-0.016,0.009-0.031,0.016-0.047,0.021C120.991,39.302,120.991,39.309,120.991,39.315z
	 M120.919,39.492c-0.037,0.05-0.085,0.105-0.146,0.166c-0.025,0.026-0.05,0.05-0.072,0.073c0.02,0.049,0.055,0.094,0.104,0.135
	l0.005,0.005c0.029-0.042,0.059-0.085,0.089-0.129c0.04-0.062,0.071-0.13,0.093-0.208C120.969,39.525,120.944,39.512,120.919,39.492
	z M122.235,38.745c-0.026,0.042-0.093,0.173-0.196,0.394c-0.066,0.112-0.141,0.193-0.223,0.244c0.072,0.255,0.108,0.464,0.108,0.628
	c0,0.022,0.016,0.084,0.047,0.187c0.121-0.403,0.186-0.614,0.191-0.632c0.084-0.312,0.124-0.585,0.124-0.82H122.235z M121.94,40.736
	h-0.182c-0.023,0.068-0.048,0.137-0.078,0.208c0.094-0.057,0.189-0.116,0.286-0.176C121.96,40.757,121.951,40.747,121.94,40.736z
	 M121.188,39.803c0.092-0.014,0.17-0.038,0.233-0.073c-0.021-0.017-0.042-0.034-0.067-0.052c-0.077,0.021-0.142,0.064-0.197,0.13
	C121.167,39.806,121.177,39.805,121.188,39.803z M121.012,40.083c-0.007,0.022-0.014,0.047-0.021,0.072
	c-0.005,0.026-0.013,0.052-0.021,0.078c0.093-0.028,0.179-0.085,0.26-0.171l0.124-0.156l0.042-0.021
	c-0.049,0.007-0.143,0.051-0.28,0.135C121.078,40.042,121.044,40.063,121.012,40.083z M121.655,39.938
	c-0.052,0.054-0.142,0.147-0.27,0.28c-0.159,0.173-0.308,0.259-0.446,0.259c-0.018,0-0.035,0-0.052,0
	c-0.015,0.105-0.035,0.226-0.062,0.363c0.347-0.202,0.583-0.346,0.711-0.431c0.086-0.146,0.129-0.293,0.129-0.44
	C121.665,39.96,121.661,39.95,121.655,39.938z M121.25,41.416c0.011-0.019,0.021-0.038,0.032-0.057
	c0.031-0.052,0.061-0.103,0.088-0.151c-0.058,0.054-0.114,0.121-0.172,0.203L121.25,41.416z M120.93,40.923
	c-0.059-0.02-0.094-0.045-0.104-0.078c-0.033,0.189-0.076,0.409-0.13,0.659c0.068-0.207,0.19-0.397,0.369-0.57
	C121.022,40.932,120.977,40.928,120.93,40.923z M121.002,41.162c-0.146,0.256-0.218,0.494-0.218,0.716
	c0,0.173,0.014,0.217,0.041,0.135c0.111-0.126,0.222-0.271,0.327-0.436h-0.006c-0.068,0-0.103-0.044-0.103-0.134
	c0-0.097,0.055-0.176,0.166-0.238c0.073-0.039,0.148-0.078,0.223-0.12c0.04-0.082,0.071-0.156,0.093-0.223
	c-0.064,0.054-0.185,0.08-0.363,0.078C121.107,41,121.054,41.074,121.002,41.162z M121.552,41.442
	c0.139-0.139,0.225-0.235,0.259-0.291c-0.075-0.027-0.145-0.039-0.208-0.036c-0.052,0.104-0.11,0.21-0.176,0.316L121.552,41.442z
	 M121.811,41.649c-0.248-0.021-0.38,0.006-0.395,0.083c-0.027,0.138-0.052,0.214-0.072,0.228c0.008,0.049,0.059,0.083,0.155,0.104
	c0.069-0.035,0.191-0.139,0.363-0.312L121.811,41.649z M122.028,41.151v-0.02c-0.035,0.034-0.121,0.128-0.26,0.28l0.208,0.104
	c0.014-0.014,0.046-0.097,0.094-0.249L122.028,41.151z M121.146,42.552c0.139-0.021,0.242-0.08,0.312-0.176
	c0.097-0.111,0.08-0.142-0.052-0.094c-0.124,0.048-0.229,0.121-0.312,0.218L121.146,42.552z M107.716,25.169
	c-0.069,0.069-0.11,0.152-0.125,0.249l0.229-0.155C107.812,25.241,107.778,25.21,107.716,25.169z M108.037,24.848
	c-0.152-0.028-0.23,0.041-0.238,0.207l0.156,0.114h0.228v-0.031C108.231,24.972,108.183,24.875,108.037,24.848z M106.461,25.034
	v-0.021c-0.021,0.014-0.045,0.028-0.073,0.042c-0.026,0.021-0.04,0.056-0.04,0.104c0,0.09,0.04,0.146,0.124,0.166v-0.259
	L106.461,25.034z M106.306,25.366c-0.056-0.028-0.09-0.014-0.104,0.041c-0.02,0.077-0.034,0.114-0.041,0.114l0.197,0.052
	c0.007,0.069,0.01,0.059,0.01-0.031c0-0.048-0.01-0.086-0.031-0.114C106.315,25.394,106.306,25.373,106.306,25.366z M106.254,25.885
	l-0.208,0.01c0,0.118,0.034,0.218,0.104,0.301l0.011-0.021c0.056-0.104,0.086-0.197,0.094-0.28V25.885z M106.933,26.149
	c0.024-0.033,0.05-0.068,0.078-0.104c-0.065,0.022-0.125,0.055-0.177,0.099C106.863,26.156,106.896,26.157,106.933,26.149z
	 M107.244,25.75v0.037l0.047-0.005c0.011-0.002,0.021-0.003,0.031-0.005c0.037-0.037,0.068-0.08,0.093-0.129
	C107.366,25.672,107.309,25.706,107.244,25.75z M107.462,25.49c0.038-0.188,0.068-0.298,0.089-0.332
	c-0.191,0.013-0.295,0.16-0.312,0.441C107.309,25.565,107.383,25.529,107.462,25.49z M104.397,25.843
	c0.006-0.005,0.01-0.011,0.016-0.015c-0.008,0-0.013,0.002-0.016,0.005V25.843z M104.802,26.253
	c-0.004,0.001-0.008,0.003-0.01,0.005c-0.014,0.012-0.024,0.029-0.037,0.052c0.016-0.014,0.03-0.025,0.047-0.037V26.253z
	 M105.03,26.092c-0.016,0.004-0.03,0.009-0.042,0.016c0.018-0.005,0.035-0.01,0.052-0.016H105.03z M104.21,26.175
	c-0.009-0.001-0.017-0.003-0.025-0.005c0.01,0.004,0.018,0.007,0.025,0.01V26.175z M104.548,26.185
	c-0.007-0.038-0.012-0.072-0.016-0.103c-0.033,0.037-0.059,0.074-0.078,0.109C104.486,26.189,104.517,26.188,104.548,26.185z
	 M104.693,26.165c0.082-0.081,0.17-0.137,0.265-0.166c0.145-0.021,0.217-0.045,0.217-0.073c0-0.041-0.003-0.072-0.011-0.093
	c-0.156-0.026-0.293-0.009-0.409,0.052L104.693,26.165z M105.942,25.563c0-0.007,0.035-0.055,0.104-0.146
	c-0.076,0.035-0.193,0.132-0.353,0.291C105.783,25.688,105.866,25.639,105.942,25.563z M105.849,26.361
	c0.042-0.007,0.104-0.034,0.187-0.083c-0.089-0.118-0.134-0.229-0.134-0.332c-0.015,0.014-0.084,0.066-0.208,0.156L105.849,26.361z
	 M105.128,26.248c0.013-0.074,0.024-0.126,0.036-0.156h-0.104c0,0.049,0.021,0.101,0.063,0.156H105.128z M105.311,26.667
	c0.008,0.004,0.015,0.005,0.02,0.005c0.139-0.069,0.239-0.142,0.301-0.218h-0.264c-0.014,0.057-0.028,0.116-0.047,0.176
	C105.316,26.643,105.312,26.656,105.311,26.667z M104.392,26.88c-0.006,0.004-0.011,0.008-0.016,0.011
	c0.004,0.005,0.008,0.01,0.011,0.016v-0.005C104.388,26.895,104.389,26.888,104.392,26.88z M104.572,26.849
	c-0.006-0.003-0.013-0.007-0.02-0.01c0.001,0.037,0.012,0.078,0.031,0.125c0.006,0.012,0.01,0.024,0.016,0.036
	c0.003-0.02,0.005-0.039,0.005-0.057C104.604,26.894,104.594,26.863,104.572,26.849z M110.029,25.21
	c-0.022,0.045-0.048,0.14-0.072,0.285c0.017,0.018,0.034,0.037,0.051,0.057c0.015,0.017,0.028,0.035,0.042,0.052
	c0-0.011,0-0.022,0-0.032c0-0.152-0.007-0.269-0.021-0.353V25.21z M109.821,25.314c-0.007,0.002-0.013,0.004-0.021,0.005
	c0.005,0.005,0.01,0.011,0.015,0.016C109.818,25.327,109.819,25.321,109.821,25.314z M109.531,25.324h-0.249
	c0.025,0.046,0.065,0.098,0.124,0.156c0.018-0.015,0.067-0.06,0.145-0.135C109.545,25.337,109.537,25.33,109.531,25.324z
	 M109.687,25.21c0.047-0.047,0.099-0.099,0.155-0.156c-0.193-0.18-0.349-0.217-0.467-0.114c-0.046,0.046-0.079,0.102-0.099,0.166
	h0.286C109.599,25.131,109.641,25.166,109.687,25.21z M109.028,25.107h0.021c0.045-0.102,0.067-0.188,0.067-0.259L109.028,25.107z
	 M108.842,25.324h-0.316c0.089,0.132,0.163,0.241,0.223,0.327c0.034-0.084,0.063-0.179,0.088-0.285
	C108.837,25.353,108.839,25.339,108.842,25.324z M110.464,25.905l0.042,0.031c0.007,0.021,0.056,0.031,0.146,0.031
	c0.429-0.229,0.688-0.359,0.777-0.395l0.021-0.021c-0.284,0.014-0.494,0.045-0.633,0.094c-0.058,0.02-0.111,0.046-0.161,0.078
	C110.597,25.776,110.532,25.836,110.464,25.905z M111.347,26.414c0.055-0.002,0.101-0.025,0.14-0.067
	c-0.049-0.03-0.096-0.063-0.14-0.099c0,0.021-0.019,0.073-0.053,0.156C111.312,26.406,111.329,26.41,111.347,26.414z M110.962,26.3
	c0.09-0.132,0.221-0.287,0.395-0.467c0.021-0.021,0.042-0.042,0.062-0.062c-0.081,0.026-0.182,0.068-0.301,0.125
	c-0.235,0.104-0.353,0.169-0.353,0.197c0,0.131,0.038,0.218,0.113,0.259c0.009,0.006,0.021,0.011,0.031,0.016
	C110.931,26.343,110.947,26.321,110.962,26.3z M110.609,26.196l-0.146,0.104c0.118,0.062,0.204,0.106,0.26,0.134v-0.031
	L110.609,26.196z M110.516,26.092l-0.062-0.021c-0.058-0.004-0.109,0-0.155,0.011c-0.058,0.061-0.116,0.127-0.177,0.197
	c-0.007,0.007-0.014,0.015-0.021,0.021c0.002,0.034,0.005,0.051,0.01,0.051c0.008-0.007,0.021-0.007,0.042,0
	c0.062,0.007,0.135-0.027,0.218-0.104C110.447,26.165,110.495,26.113,110.516,26.092z M111.709,26.071
	c-0.002,0.008-0.004,0.017-0.006,0.026c0.003,0.038,0.05,0.07,0.141,0.099c0.007,0.006,0.014,0.006,0.021,0v-0.093
	c-0.008-0.042-0.012-0.08-0.012-0.114C111.771,26.002,111.723,26.03,111.709,26.071z M112.124,25.802
	c-0.042-0.023-0.082-0.042-0.119-0.057c-0.014,0.011-0.029,0.023-0.048,0.037c0.008,0.048,0.046,0.083,0.115,0.104
	c0.01-0.004,0.019-0.01,0.025-0.016C112.105,25.847,112.114,25.825,112.124,25.802z M111.803,26.507
	c-0.07-0.027-0.139-0.058-0.203-0.094c-0.023,0.012-0.046,0.026-0.067,0.042l0.021,0.01c0.11,0.028,0.191,0.042,0.239,0.042H111.803
	z M111.538,26.657c0.025-0.001,0.044-0.007,0.057-0.015l-0.052-0.015C111.541,26.636,111.539,26.646,111.538,26.657z
	 M111.486,26.652c0.004-0.015,0.008-0.029,0.01-0.042h-0.149c0.026,0.021,0.068,0.035,0.124,0.042
	C111.476,26.653,111.479,26.653,111.486,26.652z M112.352,26.222c0.05-0.016,0.101-0.038,0.151-0.067
	c-0.015-0.035-0.039-0.071-0.073-0.109C112.404,26.101,112.38,26.16,112.352,26.222z M111.595,26.901h0.058l0.046-0.046
	c0.007-0.036,0.016-0.076,0.026-0.12c-0.02,0.013-0.039,0.026-0.058,0.042c-0.048,0.042-0.072,0.076-0.072,0.104
	C111.595,26.888,111.595,26.895,111.595,26.901z M110.558,26.87c0.034,0.007,0.09-0.01,0.166-0.051l0.011-0.005
	c0.011-0.042,0.021-0.08,0.031-0.114c-0.067-0.002-0.111,0.013-0.136,0.046c-0.062,0.077-0.1,0.118-0.114,0.125H110.558z
	 M110.672,27.124c0.005-0.046,0.015-0.105,0.03-0.176c-0.101,0.02-0.209,0.049-0.326,0.088c0.006,0.007,0.011,0.014,0.016,0.021
	c0.017,0.022,0.03,0.043,0.042,0.063c0.063,0.007,0.119,0.01,0.166,0.01L110.672,27.124z M111.066,26.823
	c-0.003,0.009-0.007,0.018-0.012,0.026c-0.034,0.069-0.059,0.149-0.072,0.239h0.192l0.046-0.052l-0.154-0.156V26.823z
	 M111.273,26.829c0.022,0.012,0.043,0.023,0.062,0.036l0.041-0.067c-0.049-0.035-0.094-0.056-0.135-0.062
	C111.243,26.784,111.254,26.815,111.273,26.829z M108.308,25.636c-0.007,0.099,0.001,0.175,0.021,0.228h0.01v-0.217
	c0.019,0.071,0.057,0.132,0.114,0.186c0.079-0.017,0.155-0.025,0.229-0.026c0.009-0.017,0.018-0.034,0.025-0.052
	c-0.133-0.128-0.266-0.176-0.398-0.145C108.308,25.619,108.308,25.627,108.308,25.636z M108.416,26.066
	c-0.007,0.012-0.014,0.024-0.021,0.037c0.022,0.006,0.038,0.013,0.046,0.021c0.008,0.035,0.021,0.069,0.042,0.104
	c0.005,0,0.011,0,0.016,0c0.01-0.075,0.026-0.142,0.052-0.202C108.513,26.036,108.467,26.05,108.416,26.066z M109.272,25.989
	c0.034-0.201,0.051-0.353,0.051-0.457c0-0.006-0.034-0.006-0.104,0c-0.004,0.083-0.021,0.232-0.051,0.446
	c0.033,0.007,0.068,0.012,0.104,0.015V25.989z M108.649,26.341c0.002,0.029,0.014,0.059,0.036,0.088
	c0.024-0.03,0.047-0.07,0.068-0.119V26.3C108.717,26.3,108.682,26.313,108.649,26.341z M108.722,26.103
	c0.029-0.025,0.051-0.046,0.062-0.062l-0.026-0.015C108.745,26.047,108.733,26.073,108.722,26.103z M109.765,25.573
	c-0.009-0.01-0.017-0.02-0.026-0.031c-0.036-0.042-0.068-0.078-0.099-0.109c-0.005,0.005-0.01,0.01-0.015,0.016
	c-0.062,0.069-0.094,0.114-0.094,0.134c0,0.065,0.017,0.189,0.052,0.374c0.029-0.01,0.061-0.021,0.094-0.032
	c0.01-0.003,0.021-0.007,0.03-0.01c0.011-0.061,0.021-0.127,0.031-0.197C109.749,25.666,109.757,25.618,109.765,25.573z
	 M109.521,25.973l-0.042-0.264c-0.039,0.108-0.06,0.203-0.062,0.285C109.445,25.99,109.479,25.983,109.521,25.973z M109.915,25.781
	c-0.002,0.015-0.004,0.031-0.006,0.046c0.01-0.006,0.018-0.011,0.026-0.015c-0.005-0.012-0.012-0.026-0.021-0.042V25.781z
	 M109.868,26.035c-0.034,0.13-0.078,0.234-0.135,0.311c0.077-0.084,0.14-0.163,0.187-0.238c0.01-0.023,0.016-0.046,0.016-0.068
	C109.92,26.031,109.897,26.029,109.868,26.035z M109.661,26.118c-0.013,0.007-0.025,0.014-0.036,0.021
	c0.002,0.019,0.005,0.038,0.01,0.057C109.644,26.172,109.651,26.146,109.661,26.118z M112.632,24.952l-0.196,0.103l0.103,0.052
	c0.021,0,0.039-0.007,0.053-0.021c0.014-0.014,0.023-0.021,0.031-0.021L112.632,24.952z M114.664,25.47l-0.072-0.021l0.021,0.383
	c0.013,0,0.027-0.007,0.041-0.02l0.01-0.031V25.47z M114.784,26.263c-0.011-0.062-0.016-0.109-0.016-0.14
	c-0.019,0.009-0.081,0.084-0.187,0.223C114.647,26.315,114.716,26.288,114.784,26.263z M115.06,26.165
	c0.034-0.091,0.041-0.149,0.021-0.176h-0.177l0.005,0.233c0.047-0.013,0.093-0.025,0.141-0.037
	C115.053,26.178,115.056,26.171,115.06,26.165z M116.459,27.336l0.011,0.218h0.03c0.035-0.041,0.052-0.114,0.052-0.218H116.459z
	 M116.147,27.502c0,0.039,0,0.069,0,0.094c0.057,0.034,0.123,0.051,0.197,0.051v-0.041l-0.031-0.27
	c-0.006-0.042-0.06-0.002-0.16,0.119C116.149,27.472,116.147,27.487,116.147,27.502z M115.765,27.705
	c-0.021-0.002-0.05,0-0.084,0.005c0.011,0.053,0.046,0.113,0.104,0.182c0.017-0.002,0.033-0.003,0.052-0.005
	c-0.009-0.037-0.017-0.071-0.026-0.104C115.792,27.758,115.776,27.731,115.765,27.705z M115.847,27.959
	c-0.001-0.005-0.001-0.01,0-0.016c-0.005,0-0.011,0-0.016,0C115.837,27.949,115.843,27.954,115.847,27.959z M115.608,28.006
	c0.04,0.018,0.08,0.035,0.119,0.052l-0.099-0.088c-0.008,0.001-0.017,0.003-0.025,0.004
	C115.604,27.986,115.606,27.996,115.608,28.006z M116.085,27.97c0.013,0.022,0.03,0.047,0.053,0.072
	c0.003-0.007,0.005-0.012,0.01-0.016v-0.005c-0.007-0.015-0.017-0.031-0.025-0.047C116.108,27.972,116.097,27.97,116.085,27.97z
	 M115.08,27.804c0.006-0.041-0.016-0.028-0.068,0.036c0.022,0.003,0.044,0.006,0.068,0.01V27.804z M112.652,25.573
	c0.048,0.062,0.073,0.118,0.073,0.166c0,0.058-0.014,0.153-0.042,0.286c0.017-0.015,0.034-0.031,0.052-0.047
	c0.036-0.041,0.071-0.079,0.104-0.114c-0.001-0.155-0.009-0.255-0.021-0.301c-0.021-0.071-0.055-0.124-0.104-0.156
	c-0.02,0.044-0.042,0.096-0.067,0.156C112.648,25.566,112.65,25.57,112.652,25.573z M112.611,25.641
	c-0.037,0.083-0.079,0.176-0.124,0.28c0.029,0.031,0.059,0.063,0.087,0.098c0.003-0.007,0.005-0.014,0.006-0.02
	c0.027-0.132,0.042-0.218,0.042-0.26C112.622,25.703,112.618,25.67,112.611,25.641z M112.934,25.989
	c0.024-0.064,0.062-0.112,0.113-0.146c-0.045,0.009-0.087,0.023-0.125,0.042C112.926,25.917,112.929,25.952,112.934,25.989z
	 M113.047,25.968c-0.006,0.064-0.015,0.125-0.025,0.187c0.013-0.017,0.025-0.034,0.036-0.052v-0.166L113.047,25.968z
	 M113.108,25.895v0.109c0.021-0.055,0.032-0.112,0.032-0.171c-0.026,0.001-0.053,0.003-0.078,0.005L113.108,25.895z M113.482,26.559
	c0.11-0.131,0.187-0.266,0.229-0.404c-0.094-0.026-0.188-0.009-0.28,0.052c0.008,0.115,0.013,0.245,0.016,0.389
	C113.459,26.583,113.472,26.571,113.482,26.559z M113.036,26.445c-0.021,0.002-0.042,0.007-0.062,0.016
	c0.014,0.014,0.027,0.028,0.041,0.041C113.021,26.484,113.028,26.464,113.036,26.445z M112.829,26.154
	c0.006-0.037,0.01-0.111,0.011-0.223c-0.066,0.05-0.122,0.118-0.166,0.202c0.039,0.042,0.077,0.083,0.114,0.124
	C112.807,26.221,112.82,26.187,112.829,26.154z M112.809,26.646l-0.062,0.12h0.208v-0.052l-0.089-0.13
	C112.847,26.611,112.827,26.632,112.809,26.646z M113.929,26.009c-0.027,0.048-0.042,0.097-0.042,0.146
	c0,0.055,0.049,0.139,0.145,0.249c-0.027-0.104-0.04-0.259-0.04-0.467C113.983,25.951,113.963,25.975,113.929,26.009z
	 M113.991,25.781c0.055-0.021,0.1-0.06,0.134-0.115c0.042-0.069,0.066-0.107,0.072-0.114v-0.021l-0.217,0.229L113.991,25.781z
	 M114.457,25.521c-0.027,0.014-0.097,0.076-0.207,0.187c0.062,0.021,0.094,0.073,0.094,0.155h0.052
	c0.027-0.014,0.044-0.031,0.052-0.051c0.007-0.014,0.01-0.056,0.01-0.125V25.521z M114.146,26.019
	c0.035-0.027,0.052-0.072,0.052-0.134v-0.021C114.149,25.885,114.133,25.937,114.146,26.019z M114.281,26.403
	c0.11-0.069,0.166-0.204,0.166-0.404c-0.069-0.014-0.114,0.038-0.136,0.155C114.306,26.223,114.295,26.306,114.281,26.403z
	 M113.731,26.601c-0.097,0.007-0.187,0.048-0.27,0.124c0.062,0,0.132,0.014,0.207,0.042h0.218v-0.042
	C113.887,26.635,113.835,26.593,113.731,26.601z M113.711,26.906c0.027,0.005,0.051,0.012,0.072,0.021v-0.005
	c-0.021-0.006-0.039-0.011-0.057-0.016C113.72,26.906,113.716,26.906,113.711,26.906z M113.742,27.031l0.011-0.005
	c0.006-0.014,0.017-0.021,0.03-0.021v-0.031c-0.037-0.042-0.098-0.059-0.182-0.052C113.637,26.946,113.683,26.981,113.742,27.031z
	 M113.493,27.232c0.038,0.029,0.082,0.06,0.13,0.094c0.013-0.034,0.028-0.069,0.046-0.104c-0.01-0.007-0.021-0.014-0.03-0.02
	l-0.15,0.02C113.49,27.226,113.492,27.229,113.493,27.232z M113.902,27.513c0.006-0.005,0.011-0.01,0.017-0.016
	c-0.005,0.003-0.011,0.007-0.017,0.01V27.513z M113.871,27.627c0.006,0.022,0.01,0.044,0.011,0.067
	c0.015,0.015,0.028,0.028,0.041,0.042c0.046-0.043,0.068-0.1,0.068-0.171l-0.006-0.051c-0.034,0.033-0.07,0.066-0.108,0.098
	C113.874,27.616,113.872,27.621,113.871,27.627z M118.472,27.876c-0.008-0.007-0.021-0.021-0.042-0.042
	c-0.208,0.02-0.33,0.082-0.368,0.187c0.142,0.055,0.26,0.125,0.353,0.208c0.045-0.063,0.067-0.142,0.067-0.239
	C118.481,27.928,118.478,27.89,118.472,27.876z M117.823,27.539c-0.041-0.014-0.091-0.013-0.15,0.005
	c-0.181,0.054-0.282,0.168-0.307,0.342c0.052,0,0.106,0.004,0.161,0.01c0.05,0.007,0.099,0.014,0.146,0.021
	c0.056-0.028,0.09-0.049,0.104-0.062c0.005,0.03,0.011,0.058,0.016,0.083c0.067,0.016,0.131,0.033,0.191,0.051v-0.051
	c0-0.086-0.007-0.159-0.021-0.218c0.048,0.057,0.072,0.095,0.072,0.114c0.174-0.055,0.26-0.145,0.26-0.27
	c0-0.041-0.052-0.089-0.155-0.145c-0.125-0.062-0.246-0.055-0.363,0.021C117.79,27.474,117.807,27.507,117.823,27.539z
	 M116.666,27.077c-0.044,0.012-0.085,0.023-0.124,0.036c0.049,0.022,0.09,0.042,0.124,0.062
	C116.666,27.144,116.666,27.11,116.666,27.077z M116.884,27.306c-0.006,0.069,0.004,0.204,0.032,0.404
	c-0.035,0.101-0.142,0.172-0.322,0.213c0.086,0.009,0.162,0.021,0.229,0.036c0.013-0.004,0.023-0.008,0.036-0.01
	c0.012-0.011,0.023-0.021,0.037-0.031c0.097-0.069,0.145-0.107,0.145-0.114c0-0.222-0.048-0.405-0.145-0.55L116.884,27.306z
	 M116.692,28.104c-0.082,0.025-0.143,0.063-0.182,0.114c-0.012,0.017-0.021,0.039-0.031,0.067c0.086-0.017,0.179-0.049,0.28-0.098
	c0.031-0.015,0.062-0.029,0.088-0.042c-0.061,0.02-0.133,0.033-0.212,0.042c0.019-0.027,0.04-0.055,0.062-0.083H116.692z
	 M117.118,28.073c0.021-0.005,0.043-0.008,0.066-0.01c-0.038-0.002-0.074-0.004-0.108-0.005c0.009,0.005,0.017,0.011,0.026,0.015
	C117.106,28.073,117.112,28.073,117.118,28.073z M117.33,28.197h-0.005l0.005,0.005V28.197z M117.278,28.229
	c0.004,0.003,0.008,0.006,0.011,0.01c0.005,0,0.011,0,0.016,0c-0.006-0.011-0.011-0.021-0.016-0.031
	c-0.006,0.001-0.012,0.003-0.017,0.005C117.275,28.218,117.276,28.223,117.278,28.229z M117.621,28.073h-0.114l0.145,0.156
	c0.015-0.004,0.035-0.014,0.063-0.031l-0.063-0.119L117.621,28.073z M117.485,28.197c-0.018-0.012-0.04-0.014-0.067-0.005
	c0.023,0.021,0.056,0.042,0.099,0.062C117.508,28.235,117.497,28.216,117.485,28.197z M117.667,28.431
	c0.013-0.002,0.025-0.004,0.037-0.005l-0.021-0.011C117.678,28.42,117.672,28.425,117.667,28.431z M117.589,28.545
	c0.019,0.063,0.033,0.138,0.042,0.223c0.088-0.021,0.164-0.031,0.229-0.031l0.01-0.042c-0.027-0.041-0.059-0.096-0.093-0.166h-0.176
	C117.598,28.534,117.594,28.54,117.589,28.545z M117.538,28.384c0-0.021-0.002-0.042-0.006-0.062
	c-0.029-0.02-0.068-0.046-0.114-0.078c0.007,0.013,0.012,0.027,0.017,0.041c0.035,0.024,0.066,0.059,0.093,0.104L117.538,28.384z
	 M117.641,29.027h0.021c0.055-0.008,0.107-0.029,0.155-0.062c0.012-0.022,0.022-0.047,0.031-0.073
	c-0.062-0.035-0.134-0.054-0.212-0.057c0.004,0.052,0.004,0.109,0.004,0.171C117.641,29.014,117.641,29.021,117.641,29.027z
	 M118.104,28.301c-0.011-0.049-0.029-0.082-0.057-0.099c0.004,0.031,0.011,0.064,0.02,0.099H118.104z M118.186,28.301h0.13
	c-0.037-0.03-0.1-0.057-0.187-0.083C118.152,28.247,118.171,28.274,118.186,28.301z M118.077,28.426l0.03,0.031
	c0.002,0.007,0.004,0.016,0.006,0.025c0.004-0.017,0.006-0.031,0.006-0.046C118.104,28.433,118.091,28.429,118.077,28.426z
	 M117.807,28.436c0.051,0.073,0.123,0.168,0.219,0.285c0.027-0.048,0.051-0.095,0.067-0.14c-0.114-0.138-0.188-0.208-0.224-0.208
	c-0.038,0-0.066,0.021-0.088,0.062H117.807z M118.616,28.493c0.035,0.077,0.061,0.16,0.073,0.249
	c0.057-0.047,0.109-0.115,0.154-0.202c0.056-0.117,0.076-0.204,0.063-0.259c-0.111-0.007-0.204,0.059-0.281,0.197
	C118.622,28.483,118.62,28.488,118.616,28.493z M118.223,28.446c-0.004,0.02-0.013,0.063-0.026,0.13
	c0.018,0.017,0.038,0.034,0.062,0.051c0.073-0.056,0.109-0.12,0.109-0.191v-0.01C118.325,28.44,118.276,28.447,118.223,28.446z
	 M118.554,28.789l-0.01,0.005c0.006,0.007,0.013,0.012,0.021,0.016C118.562,28.8,118.558,28.794,118.554,28.789z M118.611,29.266
	c0.113-0.02,0.246-0.034,0.398-0.042l-0.092-0.072c-0.07-0.088-0.145-0.146-0.224-0.172
	C118.686,29.079,118.658,29.174,118.611,29.266z M118.367,28.976c-0.01,0.035-0.018,0.073-0.021,0.114
	c0,0.083,0.016,0.159,0.043,0.228c0.011-0.004,0.023-0.007,0.035-0.01c0.035-0.066,0.062-0.118,0.078-0.155
	c-0.042-0.062-0.082-0.12-0.119-0.176C118.379,28.976,118.373,28.976,118.367,28.976z M118.273,29.266l0.012-0.083V29.11
	l-0.012-0.005c-0.018,0.017-0.045,0.047-0.082,0.088c-0.039,0.034-0.075,0.056-0.109,0.067v0.005l0.191,0.021V29.266z
	 M118.159,29.618c-0.019,0.002-0.039,0.004-0.062,0.005c0.002,0.015,0.003,0.028,0.006,0.042c0.02,0.012,0.039,0.024,0.056,0.036
	c0.007,0.005,0.012,0.01,0.017,0.016C118.169,29.68,118.163,29.647,118.159,29.618z M118.004,29.805
	c-0.11-0.055-0.197-0.083-0.259-0.083c0.005,0.021,0.01,0.042,0.016,0.062c0.096,0.015,0.179,0.051,0.249,0.109
	c0.023-0.013,0.048-0.027,0.072-0.042C118.06,29.835,118.033,29.821,118.004,29.805z M118.512,29.421
	c0.089,0.04,0.17,0.086,0.244,0.14c0.068-0.059,0.151-0.069,0.25-0.031c0.003-0.033,0.004-0.066,0.004-0.098
	c-0.245-0.049-0.409-0.055-0.492-0.016L118.512,29.421z M118.626,29.79c-0.067-0.05-0.14-0.095-0.217-0.135
	c-0.004,0.011-0.008,0.023-0.01,0.037c0.077,0.07,0.146,0.13,0.201,0.182C118.607,29.845,118.616,29.817,118.626,29.79z
	 M118.399,29.877c-0.008,0.014-0.008,0.049,0,0.104v0.01c0.003,0.012,0.007,0.024,0.01,0.037c0.014,0.052,0.014,0.106,0,0.161
	c0.021,0.021,0.052,0.031,0.093,0.031c0.049,0,0.076-0.007,0.083-0.021v-0.031c-0.001-0.009-0.003-0.018-0.005-0.026l-0.005-0.005
	h0.005c-0.004-0.035-0.007-0.072-0.005-0.108c-0.072-0.059-0.117-0.103-0.136-0.13L118.399,29.877z M118.704,30.381
	c0.014,0.009,0.027,0.02,0.042,0.031v-0.011c-0.012-0.015-0.023-0.03-0.036-0.047l-0.011-0.01
	C118.699,30.356,118.701,30.368,118.704,30.381z M118.389,30.407c0.056,0.163,0.152,0.318,0.289,0.466l0.021-0.031
	c0-0.02,0-0.04,0-0.062c0-0.023,0-0.045,0-0.068c-0.021-0.019-0.041-0.038-0.062-0.057c-0.045-0.038-0.091-0.107-0.141-0.207
	C118.459,30.43,118.424,30.416,118.389,30.407z M118.082,29.966c0.013-0.004,0.024-0.005,0.037-0.005h0.01V29.94
	c-0.02,0-0.04,0.001-0.062,0.005C118.072,29.951,118.078,29.958,118.082,29.966z M117.258,29.836
	c-0.016,0.012-0.029,0.022-0.042,0.031c0.022,0.026,0.044,0.054,0.062,0.083c0.021-0.031,0.043-0.056,0.067-0.078
	C117.32,29.858,117.29,29.846,117.258,29.836z M119.943,29.639c-0.221-0.111-0.477-0.197-0.767-0.26h-0.053
	c0.095,0.156,0.157,0.292,0.187,0.405c0.013,0.015,0.024,0.03,0.037,0.047c0.127-0.031,0.273-0.042,0.44-0.037
	c0.065,0.002,0.129,0.006,0.192,0.01L119.943,29.639z M119.943,30.137c0.024,0.005,0.057,0.004,0.1-0.005
	c-0.016-0.005-0.056-0.011-0.12-0.015C119.93,30.123,119.937,30.13,119.943,30.137z M119.094,29.784l-0.011-0.016
	c-0.009,0.015-0.018,0.032-0.026,0.052C119.067,29.809,119.08,29.796,119.094,29.784z M118.979,29.675
	c-0.021,0.004-0.039,0.01-0.057,0.016c0.014,0.013,0.028,0.025,0.042,0.037C118.97,29.71,118.974,29.693,118.979,29.675z
	 M119.591,30.137l0.042-0.031c-0.029,0.007-0.059,0.014-0.088,0.021c0.009,0.014,0.018,0.027,0.025,0.041
	C119.578,30.157,119.584,30.146,119.591,30.137z M119.321,30.354c0.04-0.008,0.078-0.017,0.114-0.025
	c0.007-0.007,0.015-0.014,0.021-0.021c-0.002-0.004-0.006-0.005-0.01-0.005l-0.072-0.01c-0.021,0.008-0.041,0.019-0.058,0.03
	C119.319,30.334,119.321,30.344,119.321,30.354z M118.741,29.997c0.021,0.019,0.036,0.033,0.047,0.042
	c0.009-0.003,0.021-0.012,0.041-0.026c0.005-0.008,0.01-0.016,0.015-0.025c-0.031-0.034-0.063-0.067-0.098-0.099
	c-0.004,0.024-0.005,0.048-0.005,0.073C118.741,29.975,118.741,29.987,118.741,29.997z M119.711,31.091
	c0.043-0.006,0.089-0.011,0.134-0.016c0.002-0.003,0.005-0.006,0.006-0.011c-0.033-0.002-0.069-0.002-0.109,0L119.711,31.091z
	 M119.612,31.496c-0.023-0.001-0.046-0.003-0.067-0.005c0.022,0.069,0.069,0.159,0.14,0.269c0-0.005,0-0.011,0-0.015
	c0-0.089-0.014-0.16-0.042-0.212C119.633,31.519,119.622,31.507,119.612,31.496z M119.27,31.62l-0.01-0.021c0,0.01,0,0.022,0,0.037
	c0.007-0.002,0.013-0.004,0.021-0.005C119.275,31.626,119.272,31.623,119.27,31.62z M119.072,31.692h0.031
	c-0.004-0.017-0.011-0.034-0.021-0.052C119.08,31.66,119.077,31.677,119.072,31.692z M120.027,31.869
	c-0.016-0.011-0.028-0.021-0.042-0.031c-0.05,0.023-0.107,0.058-0.177,0.104c0.01,0.013,0.018,0.025,0.026,0.036
	C119.914,31.939,119.978,31.903,120.027,31.869z M120.017,32.051c0.021-0.023,0.035-0.038,0.042-0.047
	c-0.03,0.011-0.06,0.023-0.088,0.036C119.985,32.043,120.001,32.046,120.017,32.051z M120.628,32.346
	c0.023,0.001,0.044,0.002,0.063,0.005c-0.009-0.01-0.016-0.02-0.021-0.031C120.656,32.329,120.642,32.337,120.628,32.346z
	 M120.54,32.419c0.01,0.045,0.016,0.097,0.016,0.155c0,0.039-0.002,0.075-0.006,0.109c0.034-0.013,0.071-0.026,0.109-0.037
	c0.021-0.082,0.038-0.161,0.053-0.238c-0.044-0.01-0.092-0.014-0.146-0.011C120.558,32.405,120.549,32.413,120.54,32.419z
	 M120.462,33.015c-0.018,0.026-0.036,0.051-0.057,0.073c0.013,0.001,0.027,0.001,0.042,0L120.462,33.015z M120.4,33.093
	c-0.022,0.025-0.046,0.045-0.073,0.062c-0.003,0.007-0.007,0.015-0.01,0.021c0.017,0.059,0.042,0.107,0.078,0.145l0.052-0.223
	C120.431,33.095,120.415,33.094,120.4,33.093z M119.897,32.616c0.006,0,0.013,0.002,0.02,0.004c0.01-0.009,0.019-0.018,0.026-0.025
	v-0.011c-0.006-0.016-0.011-0.032-0.015-0.046C119.918,32.56,119.907,32.586,119.897,32.616z M120.172,32.507
	c-0.011,0.04-0.021,0.084-0.031,0.135l0.011-0.016C120.158,32.583,120.165,32.543,120.172,32.507z M119.727,32.211V32.19
	c-0.013,0.01-0.026,0.024-0.037,0.042c0.001,0.017,0.001,0.034,0,0.052C119.71,32.248,119.722,32.224,119.727,32.211z
	 M119.415,33.072l0.113-0.026c-0.035-0.02-0.07-0.037-0.104-0.051C119.422,33.018,119.418,33.044,119.415,33.072z M118.99,32.938
	l-0.012-0.016c0.003,0.005,0.005,0.01,0.006,0.016H118.99z M114.483,28.062v0.005c0.021,0.002,0.04,0,0.057-0.005
	c-0.005-0.007-0.011-0.014-0.021-0.021C114.509,28.049,114.495,28.056,114.483,28.062z M114.654,28.457
	c-0.008,0.005-0.017,0.011-0.026,0.015c0.004,0.007,0.008,0.014,0.012,0.021C114.644,28.481,114.649,28.469,114.654,28.457z
	 M115.354,28.15c0.003,0.01,0.007,0.021,0.01,0.032h0.011l-0.011-0.042C115.361,28.144,115.357,28.147,115.354,28.15z
	 M116.226,28.291c0.009-0.019,0.021-0.036,0.031-0.052c-0.005-0.01-0.01-0.02-0.016-0.031c-0.015,0.021-0.032,0.045-0.052,0.073
	C116.201,28.284,116.214,28.287,116.226,28.291z M116.189,28.177c-0.029,0.027-0.057,0.053-0.083,0.078
	c0.015,0.005,0.028,0.011,0.041,0.016C116.163,28.235,116.178,28.204,116.189,28.177z M116.407,28.161
	c0.012,0.021,0.023,0.044,0.036,0.067c0.035-0.054,0.081-0.102,0.141-0.145c-0.028-0.005-0.057-0.01-0.089-0.016
	c0.006,0.005,0.012,0.011,0.016,0.016c-0.023-0.005-0.046-0.012-0.067-0.021h-0.025C116.42,28.093,116.417,28.126,116.407,28.161z
	 M119.487,33.352c0.017,0.032,0.06,0.06,0.13,0.083c-0.024-0.066-0.036-0.1-0.036-0.104c0-0.021,0-0.041,0-0.062
	c-0.05,0.008-0.084,0.018-0.104,0.031L119.487,33.352z M119.675,33.253c0,0.02,0,0.039,0,0.057c0,0.034,0.002,0.067,0.01,0.099
	l0.011-0.15C119.691,33.256,119.684,33.255,119.675,33.253z M119.617,33.585c-0.012-0.009-0.023-0.018-0.036-0.025h-0.041
	c0.014,0.04,0.025,0.093,0.035,0.16C119.58,33.669,119.594,33.625,119.617,33.585z M119.835,33.212
	c-0.014-0.007-0.028-0.014-0.042-0.021c0.011,0.072,0.028,0.137,0.052,0.192c0.018-0.034,0.038-0.068,0.062-0.104
	C119.88,33.256,119.856,33.233,119.835,33.212z M119.98,33.341c-0.015-0.012-0.028-0.024-0.042-0.036
	c-0.014,0.028-0.025,0.06-0.036,0.093c0.025-0.007,0.053-0.014,0.083-0.021C119.983,33.366,119.981,33.354,119.98,33.341z
	 M119.995,33.503c-0.021,0.006-0.042,0.012-0.062,0.021c0.021,0.025,0.045,0.047,0.072,0.067
	C120.003,33.562,119.999,33.532,119.995,33.503z M119.84,33.726c0.004,0.024,0.01,0.048,0.016,0.072
	c0.059,0.005,0.108,0.014,0.15,0.026c-0.009-0.016-0.019-0.03-0.031-0.042L119.84,33.726z M120.805,33.368
	c0.105-0.051,0.188-0.149,0.249-0.295c-0.096,0.026-0.184,0.067-0.265,0.124c-0.018,0.05-0.03,0.105-0.037,0.166
	C120.771,33.364,120.788,33.366,120.805,33.368z M120.654,33.352c0.024-0.033,0.042-0.062,0.052-0.088
	c-0.022,0.022-0.052,0.052-0.088,0.088C120.631,33.353,120.643,33.353,120.654,33.352z M120.271,34.892
	c0.004,0.006,0.007,0.013,0.011,0.021c0.002-0.007,0.004-0.014,0.005-0.021H120.271z M120.81,34.955
	c-0.012,0.062-0.021,0.115-0.025,0.161h0.005c0.013-0.049,0.029-0.101,0.047-0.156L120.81,34.955z M120.426,35.11
	c-0.003-0.041-0.005-0.084-0.005-0.129c-0.021,0.029-0.036,0.063-0.047,0.104C120.391,35.093,120.407,35.102,120.426,35.11z
	 M120.363,35.177c0.014,0.019,0.038,0.046,0.073,0.083c0-0.007,0-0.014,0-0.021l-0.073-0.067V35.177z M120.561,35.265
	c0.007,0.006,0.014,0.013,0.021,0.021c-0.008-0.017-0.016-0.034-0.021-0.051C120.561,35.245,120.561,35.256,120.561,35.265z
	 M120.565,35.385c0.004,0.004,0.008,0.007,0.012,0.011v-0.021l-0.012-0.011C120.565,35.371,120.565,35.378,120.565,35.385z
	 M120.369,35.281v0.01h0.011C120.376,35.288,120.372,35.284,120.369,35.281z M120.571,35.509l-0.006-0.005v0.01L120.571,35.509z
	 M120.39,35.53c0-0.069-0.03-0.121-0.093-0.155c-0.003,0.015-0.009,0.041-0.016,0.077c0.045,0.021,0.081,0.053,0.108,0.099
	C120.39,35.544,120.39,35.537,120.39,35.53z M119.861,35.235c-0.007,0.019-0.011,0.041-0.011,0.067c0,0.098,0.021,0.186,0.062,0.265
	c0.009-0.023,0.016-0.044,0.021-0.062l0.005-0.078c-0.008-0.026-0.026-0.075-0.057-0.145
	C119.875,35.265,119.868,35.25,119.861,35.235z M120.089,35.328c0.009,0.041,0.02,0.069,0.031,0.083
	c0.007-0.035,0.01-0.061,0.01-0.078c-0.013-0.097-0.021-0.159-0.021-0.187L120.089,35.328z M120.233,35.613h0.012v-0.01h-0.012
	V35.613z M119.622,35.229c0.005,0.005,0.009,0.01,0.011,0.016l0.01-0.005v-0.016C119.636,35.227,119.629,35.228,119.622,35.229z
	 M120.141,35.909v0.01c0.003-0.002,0.006-0.004,0.011-0.005C120.147,35.912,120.145,35.911,120.141,35.909z M120.587,35.997
	c0.027,0,0.051,0.002,0.067,0.005c0.02-0.007,0.036-0.015,0.052-0.021c-0.012-0.029-0.033-0.057-0.062-0.083
	C120.624,35.93,120.604,35.962,120.587,35.997z M120.043,36.91c-0.027,0.043-0.048,0.079-0.062,0.109
	c0.016-0.003,0.033-0.005,0.051-0.006c0.008-0.037,0.015-0.073,0.021-0.109C120.048,36.906,120.046,36.908,120.043,36.91z
	 M119.991,37.428l0.004,0.047c0.005-0.004,0.009-0.008,0.011-0.01c0-0.012-0.003-0.025-0.005-0.037H119.991z M120.405,37.843
	c-0.01,0.05-0.019,0.111-0.025,0.182c0.015-0.005,0.028-0.011,0.041-0.016v-0.155C120.417,37.85,120.411,37.846,120.405,37.843z
	 M120.068,37.848c-0.01,0.009-0.021,0.02-0.031,0.031c0.002,0.031,0.006,0.068,0.01,0.108c0.013-0.01,0.026-0.021,0.042-0.031
	C120.082,37.919,120.075,37.883,120.068,37.848z M120.059,38.071c0.001,0.01,0.003,0.021,0.005,0.031
	c0.018,0.012,0.038,0.024,0.062,0.037c-0.009-0.044-0.018-0.088-0.025-0.13C120.085,38.029,120.071,38.05,120.059,38.071z
	 M119.747,37.884c-0.007,0.023-0.011,0.051-0.011,0.083c0,0.033,0,0.061,0,0.083h0.011v0.005c0.009,0.007,0.017-0.006,0.021-0.042
	c0-0.016,0-0.038,0-0.067c-0.008-0.02-0.014-0.037-0.017-0.052L119.747,37.884z M120.432,38.538
	c0.022-0.026,0.045-0.051,0.067-0.073c0.011-0.017,0.02-0.031,0.026-0.042c-0.068,0.03-0.115,0.054-0.141,0.072
	c0.001,0.015,0.002,0.028,0.005,0.042H120.432z M120.504,38.927v-0.01l-0.005,0.01H120.504z M120.396,39.233
	c-0.028,0.05-0.062,0.099-0.099,0.145v0.005c0.015-0.011,0.028-0.023,0.041-0.036c0.023-0.023,0.053-0.06,0.088-0.109
	L120.396,39.233z M120.161,40v-0.01c-0.002,0.003-0.003,0.006-0.004,0.01H120.161z M120.701,40.031l-0.031-0.094
	c-0.032,0.036-0.067,0.088-0.104,0.156c0.006,0.01,0.012,0.02,0.017,0.031C120.624,40.095,120.663,40.064,120.701,40.031z
	 M119.995,40.456c0.057-0.014,0.106-0.035,0.151-0.062c-0.003-0.027-0.005-0.056-0.006-0.083c-0.047,0.032-0.096,0.063-0.146,0.094
	V40.456z M120.25,40.306c0.014-0.018,0.025-0.037,0.036-0.057v-0.031C120.269,40.234,120.257,40.264,120.25,40.306z M120.213,40.752
	c0.01-0.003,0.018-0.009,0.021-0.016c0.008-0.021,0.016-0.038,0.021-0.051v-0.021c-0.036,0.013-0.07,0.023-0.104,0.032
	C120.176,40.71,120.197,40.729,120.213,40.752z M119.436,40.752c0.008,0.006,0.016,0.01,0.021,0.016
	c0.009-0.014,0.016-0.027,0.021-0.042l-0.004-0.005C119.46,40.731,119.448,40.742,119.436,40.752z M119.705,40.928
	c0.008,0.015,0.012,0.029,0.016,0.046l0.016-0.051l-0.005-0.005C119.724,40.921,119.714,40.924,119.705,40.928z M119.561,41.027
	l0.005-0.026c-0.036,0.022-0.07,0.047-0.104,0.073c0.021,0.012,0.043,0.021,0.066,0.026L119.561,41.027z M119.431,41.229
	c0.003,0.011,0.004,0.022,0.005,0.032c0.011-0.009,0.02-0.018,0.026-0.026C119.452,41.233,119.441,41.232,119.431,41.229z
	 M119.695,41.877c-0.034,0.033-0.088,0.099-0.161,0.197c0.001,0.003,0.003,0.007,0.006,0.01h0.207
	c0.06-0.117,0.167-0.184,0.321-0.203c0.013-0.021,0.022-0.044,0.031-0.067l-0.021-0.062c-0.108,0.056-0.225,0.087-0.348,0.093
	C119.716,41.856,119.704,41.867,119.695,41.877z M119.829,40.965c-0.003-0.008-0.006-0.015-0.01-0.021
	c-0.001,0.018-0.003,0.035-0.005,0.052C119.819,40.985,119.824,40.975,119.829,40.965z M120.286,41.307
	c0.023-0.024,0.045-0.045,0.062-0.062c0.006-0.005,0.012-0.011,0.016-0.016c-0.051,0.024-0.107,0.037-0.17,0.037
	c-0.007,0-0.012,0-0.017,0c-0.019,0.027-0.041,0.059-0.067,0.093c0.031,0.013,0.059,0.025,0.084,0.036
	C120.219,41.367,120.25,41.337,120.286,41.307z M120.001,41.208c-0.055,0.078-0.089,0.144-0.104,0.197
	c0.024-0.037,0.051-0.084,0.077-0.14C119.984,41.246,119.993,41.227,120.001,41.208z M120.363,41.592
	c0.004,0.024,0.006,0.05,0.006,0.078c0,0.089-0.01,0.173-0.031,0.254c0.009-0.002,0.018-0.004,0.025-0.006
	c0.029-0.093,0.049-0.18,0.058-0.259l-0.01-0.093C120.399,41.576,120.384,41.584,120.363,41.592z M120.441,42.645
	c0.007-0.047,0.013-0.088,0.016-0.124c-0.009,0.036-0.017,0.07-0.025,0.104C120.435,42.631,120.438,42.638,120.441,42.645z
	 M120.12,43.06c0.006,0.032,0.013,0.062,0.021,0.093c0.008-0.036,0.015-0.07,0.021-0.104
	C120.147,43.053,120.133,43.057,120.12,43.06z M120.1,42.873c0,0.007,0,0.014,0,0.021h0.01v-0.083
	C120.103,42.831,120.1,42.852,120.1,42.873z M119.851,43.117c0.001,0.232,0.032,0.354,0.093,0.368
	c0.042-0.083,0.062-0.204,0.062-0.363c0-0.01-0.024-0.017-0.072-0.021C119.905,43.107,119.878,43.112,119.851,43.117z
	 M119.052,42.552h0.062c0,0.088,0.002,0.178,0.006,0.269c0.067-0.081,0.133-0.171,0.196-0.269c-0.009-0.035-0.017-0.069-0.026-0.104
	c-0.007-0.025-0.015-0.049-0.021-0.072c-0.038-0.026-0.076-0.058-0.113-0.094c-0.053,0.063-0.093,0.12-0.125,0.171
	C119.04,42.486,119.047,42.519,119.052,42.552z M119.456,43.351c0.011,0.016,0.018,0.053,0.021,0.113
	c0.015-0.025,0.033-0.053,0.052-0.083c0.057-0.089,0.099-0.167,0.125-0.233c-0.04,0.003-0.078,0.005-0.113,0.005v0.13
	c-0.034-0.102-0.068-0.21-0.104-0.327c-0.011-0.035-0.021-0.069-0.031-0.103c-0.069,0.071-0.161,0.116-0.274,0.134
	c0.004,0.083,0.011,0.168,0.021,0.254l0.006-0.005c0.082-0.062,0.154-0.1,0.218-0.114c0.026,0.021,0.044,0.048,0.051,0.083
	c0.008,0.021,0.011,0.038,0.011,0.052C119.436,43.298,119.442,43.33,119.456,43.351z M116.9,41.343
	c-0.001,0.016-0.003,0.032-0.005,0.047c0.01-0.007,0.021-0.014,0.03-0.021C116.918,41.359,116.909,41.351,116.9,41.343z
	 M117.309,42.251c-0.03,0.047-0.066,0.102-0.108,0.161l0.062,0.01c0.002-0.009,0.004-0.018,0.006-0.026
	c0.021-0.061,0.035-0.107,0.046-0.14L117.309,42.251z M117.144,42.998c-0.008,0.003-0.017,0.007-0.025,0.011
	c0.002,0.004,0.004,0.01,0.004,0.015l0.021-0.015V42.998z M116.443,43.376c-0.01,0.013-0.021,0.024-0.031,0.036
	c-0.009,0.011-0.017,0.023-0.025,0.037c0.002,0.003,0.004,0.006,0.005,0.01c0.032-0.011,0.062-0.026,0.088-0.047
	c-0.005-0.019-0.01-0.038-0.015-0.057C116.457,43.362,116.45,43.37,116.443,43.376z M116.537,43.361
	c0.005-0.006,0.01-0.013,0.015-0.021c0.008-0.019,0.015-0.036,0.021-0.052c-0.014,0.006-0.027,0.013-0.042,0.02
	C116.532,43.328,116.534,43.345,116.537,43.361z M115.381,44.356h0.004c0.008-0.009,0.015-0.017,0.021-0.026
	c-0.006,0-0.013,0-0.021,0C115.384,44.339,115.383,44.348,115.381,44.356z M116.117,45.543c-0.01,0.01-0.018,0.02-0.026,0.031
	c0.01,0.001,0.018,0.003,0.026,0.005V45.543z M116.013,45.954c0,0.006-0.007,0.1-0.02,0.279c0.012,0,0.023,0,0.036,0
	c0.038-0.11,0.071-0.194,0.098-0.253c0.001-0.013,0.001-0.025,0-0.037c-0.042-0.019-0.079-0.033-0.114-0.042
	C116.013,45.92,116.013,45.938,116.013,45.954z M114.8,45.03c-0.014,0.059-0.029,0.121-0.047,0.187
	c0.017-0.016,0.031-0.032,0.047-0.047l0.026-0.119C114.817,45.044,114.809,45.038,114.8,45.03z M115.235,44.823
	c0.043-0.003,0.096-0.003,0.161,0c-0.006-0.004-0.012-0.008-0.016-0.011c-0.056,0.003-0.104,0.003-0.146,0V44.823z M115.22,45.332
	c0.025-0.04,0.058-0.082,0.099-0.125c0.032-0.03,0.063-0.059,0.094-0.088c-0.039-0.009-0.087-0.016-0.146-0.021
	c-0.035,0.017-0.069,0.036-0.104,0.057c0.015,0.04,0.028,0.081,0.042,0.124C115.21,45.297,115.215,45.314,115.22,45.332z
	 M114.696,45.57c-0.007-0.021-0.015-0.042-0.021-0.062c-0.012,0.036-0.023,0.075-0.035,0.113
	C114.66,45.604,114.679,45.586,114.696,45.57z M115.391,46.233c0,0.05-0.007,0.111-0.021,0.182c0.036,0.003,0.085,0.005,0.145,0.005
	c0.07,0,0.128-0.01,0.177-0.031c-0.118-0.075-0.22-0.176-0.307-0.306C115.389,46.136,115.391,46.186,115.391,46.233z
	 M115.547,46.751c-0.01-0.009-0.098-0.007-0.266,0.006c-0.02,0.063-0.042,0.13-0.066,0.202c0.021,0,0.046,0,0.072,0
	c0.022,0,0.043,0,0.062,0c-0.011-0.016-0.022-0.033-0.036-0.052c0.024,0.009,0.043,0.017,0.058,0.021
	c0.03,0.009,0.062,0.016,0.099,0.021c0.019-0.003,0.034-0.006,0.046-0.01l0.032-0.031V46.751z M114.551,46.814
	c-0.015,0.014-0.028,0.039-0.041,0.072c0.001,0.064,0.002,0.13,0.005,0.197l0.025,0.01c0.029-0.022,0.061-0.052,0.094-0.088
	c-0.008-0.085-0.014-0.17-0.021-0.254C114.589,46.77,114.568,46.791,114.551,46.814z M114.826,46.664
	c-0.015,0.05-0.022,0.101-0.026,0.151c0.04-0.05,0.081-0.106,0.124-0.166C114.889,46.652,114.855,46.657,114.826,46.664z
	 M115.65,46.13c0.01,0.01,0.022,0.021,0.036,0.031c-0.024-0.037-0.036-0.072-0.036-0.104c-0.013-0.002-0.025-0.006-0.037-0.01
	L115.65,46.13z M115.863,46.477c-0.015,0.022-0.03,0.044-0.048,0.067c-0.075,0.111-0.113,0.207-0.113,0.291c0,0.04,0,0.08,0,0.119
	c0.124-0.029,0.223-0.135,0.295-0.316c-0.028-0.041-0.056-0.089-0.082-0.146C115.897,46.489,115.88,46.483,115.863,46.477z
	 M116.293,46.088c-0.013,0.017-0.024,0.036-0.036,0.057c-0.002,0.024-0.004,0.05-0.005,0.077c0.024-0.008,0.038-0.019,0.041-0.03
	C116.289,46.157,116.289,46.122,116.293,46.088z M116.531,47.022c0.074-0.059,0.162-0.108,0.259-0.146h0.006
	c-0.011-0.061-0.027-0.128-0.052-0.202c-0.024,0.02-0.05,0.043-0.078,0.067c-0.052,0.042-0.104,0.076-0.155,0.104
	C116.515,46.897,116.521,46.956,116.531,47.022z M115.604,47.644c-0.022,0.072-0.049,0.138-0.078,0.197h0.053
	c0.015-0.017,0.03-0.035,0.046-0.052C115.62,47.738,115.612,47.689,115.604,47.644z M116.013,47.841
	c0.242-0.097,0.356-0.242,0.343-0.436c-0.062-0.024-0.119-0.036-0.171-0.036c-0.109,0.173-0.219,0.322-0.327,0.445v0.006
	L116.013,47.841z M114.903,47.478c-0.021-0.021-0.039-0.038-0.052-0.052l-0.031-0.021c-0.042,0.084-0.05,0.176-0.026,0.275
	c0.051-0.018,0.09-0.043,0.12-0.078c0.014-0.015,0.024-0.038,0.036-0.067C114.938,47.517,114.923,47.498,114.903,47.478z
	 M114.966,47.556c-0.047,0.092-0.091,0.167-0.136,0.229c0.008,0.012,0.015,0.023,0.021,0.036h0.052l0.072-0.239
	C114.975,47.573,114.971,47.565,114.966,47.556z M114.732,47.696c-0.019-0.096-0.036-0.204-0.053-0.322
	c-0.045,0.023-0.095,0.048-0.149,0.078c0.007,0.079,0.014,0.16,0.021,0.244C114.62,47.703,114.681,47.703,114.732,47.696z
	 M115.422,47.685c0-0.013-0.048-0.017-0.146-0.01c-0.104,0.007-0.158,0.021-0.166,0.042v0.073c0.049,0.014,0.107,0.01,0.177-0.011
	C115.349,47.758,115.395,47.727,115.422,47.685z M117.034,43.495c-0.021-0.03-0.047-0.066-0.078-0.109
	c-0.015,0.01-0.029,0.018-0.046,0.026v0.011c0.004,0.016,0.006,0.034,0.006,0.051c0,0.005,0,0.01,0,0.016
	c0.014,0.032,0.029,0.06,0.046,0.083c0.015-0.004,0.03-0.007,0.047-0.011C117.018,43.539,117.026,43.517,117.034,43.495z
	 M116.937,43.926v-0.046c-0.004,0.003-0.01,0.009-0.017,0.015L116.937,43.926z M117.305,44.118c0.018-0.015,0.036-0.032,0.057-0.052
	c-0.039-0.008-0.077-0.019-0.113-0.031c0.007,0.029,0.014,0.059,0.021,0.088C117.28,44.121,117.291,44.119,117.305,44.118z
	 M116.78,44.522c-0.018-0.001-0.035-0.001-0.051,0c0.003,0.01,0.006,0.021,0.01,0.031L116.78,44.522z M118.273,44.252
	c0.009-0.001,0.015-0.003,0.021-0.004c0.01-0.057,0.023-0.104,0.041-0.141c-0.032,0-0.066,0-0.104,0c-0.012,0-0.021,0-0.031,0
	c-0.001,0.01-0.001,0.021,0,0.031c0.003,0.045,0.011,0.088,0.021,0.13C118.237,44.264,118.255,44.259,118.273,44.252z
	 M118.492,44.175c-0.008,0.006-0.016,0.013-0.021,0.021l0.021-0.005V44.175z M118.041,44.314c0.025-0.003,0.062-0.011,0.108-0.026
	c-0.02-0.04-0.041-0.083-0.062-0.129c-0.007,0.003-0.014,0.007-0.021,0.01C118.06,44.213,118.05,44.261,118.041,44.314z
	 M118.295,45.196l0.363,0.083l0.052-0.155C118.62,45.041,118.481,45.065,118.295,45.196z M118.399,45.539
	c-0.208,0-0.347,0.042-0.416,0.125c0.132-0.007,0.239-0.028,0.322-0.062l0.083-0.042L118.399,45.539z M117.921,45.352
	c-0.026-0.012-0.053-0.024-0.077-0.037c-0.008,0.035-0.017,0.069-0.026,0.104C117.85,45.396,117.885,45.373,117.921,45.352z
	 M116.719,45.606c0.007,0.081,0.011,0.172,0.011,0.275c0,0.027-0.004,0.06-0.011,0.099c0.018-0.018,0.035-0.037,0.052-0.058
	c0.04-0.08,0.078-0.154,0.113-0.223c0-0.012,0-0.024,0-0.036c0-0.056-0.008-0.106-0.025-0.151c-0.026,0.017-0.059,0.04-0.099,0.068
	C116.746,45.588,116.732,45.597,116.719,45.606z M119.229,44.035c0,0.061-0.015,0.125-0.042,0.191
	c0.119,0.025,0.25,0.037,0.395,0.037c0.122-0.043,0.222-0.085,0.296-0.125c-0.005-0.01-0.011-0.021-0.016-0.031
	c-0.095-0.007-0.191-0.042-0.291-0.104c-0.124-0.076-0.187-0.169-0.187-0.28c0-0.034,0.009-0.072,0.025-0.114
	c-0.035,0.03-0.082,0.067-0.14,0.114c-0.021,0.017-0.043,0.032-0.062,0.046C119.222,43.892,119.229,43.98,119.229,44.035z
	 M119.581,43.796h0.218c-0.068-0.173-0.104-0.329-0.104-0.467c-0.042,0.048-0.073,0.117-0.094,0.208
	C119.566,43.64,119.561,43.727,119.581,43.796z M118.788,44.335c0.015-0.017,0.03-0.035,0.046-0.052
	c0.042-0.047,0.076-0.087,0.104-0.119c-0.011-0.025-0.021-0.051-0.03-0.078c-0.041,0.013-0.077,0.027-0.109,0.042
	C118.795,44.194,118.791,44.263,118.788,44.335z M119.01,44.491c-0.059,0.071-0.118,0.128-0.176,0.171
	c-0.021,0.026-0.043,0.052-0.067,0.078c0.001,0.007,0.001,0.014,0,0.02l0.191,0.021l0.202-0.353
	c-0.021-0.012-0.044-0.025-0.066-0.041C119.069,44.42,119.042,44.455,119.01,44.491z M120.136,43.796
	c0.051-0.063,0.096-0.135,0.135-0.218c-0.019-0.121-0.028-0.22-0.031-0.295c-0.059,0.178-0.114,0.321-0.166,0.431
	c0.021,0.019,0.036,0.036,0.047,0.052C120.126,43.772,120.131,43.783,120.136,43.796z M120.011,43.786
	c-0.018,0.036-0.036,0.073-0.057,0.114l0.041,0.031c0.017-0.012,0.033-0.026,0.048-0.041
	C120.038,43.842,120.028,43.807,120.011,43.786z M117.227,46.296c0.008-0.008,0.015-0.015,0.021-0.021
	c-0.002-0.025-0.004-0.053-0.006-0.083c-0.004,0.002-0.008,0.003-0.01,0.004C117.23,46.23,117.229,46.263,117.227,46.296z
	 M118.389,46.493c-0.104,0.035-0.273,0.052-0.508,0.052l0.04,0.052c0.034,0.056,0.126,0.083,0.271,0.083l0.154-0.155L118.389,46.493
	z M117.827,46.182l0.054,0.031c0.372-0.069,0.597-0.156,0.673-0.259c-0.082-0.014-0.214,0.003-0.395,0.052
	C117.987,46.061,117.877,46.119,117.827,46.182z"/>
</svg>
