<?xml version="1.0" encoding="utf-8"?>
<!-- Generator: Adobe Illustrator 15.0.0, SVG Export Plug-In . SVG Version: 6.00 Build 0)  -->
<svg version="1.2" baseProfile="tiny" id="Layer_1" xmlns="http://www.w3.org/2000/svg" xmlns:xlink="http://www.w3.org/1999/xlink"
	 x="0px" y="0px" width="200px" height="200px" viewBox="0 0 200 200" overflow="inherit" xml:space="preserve">
<g>
	<g id="Layer_2_9_">
		<path id="path5_16_" fill="#010101" d="M72.573,73.301c-0.004,0-0.008,0-0.015,0l0.009,0.005L72.573,73.301z M72.657,73.452
			c-0.016-0.003-0.034-0.01-0.057-0.019c-0.003,0.006-0.01,0.014-0.019,0.023c0.009-0.006,0.018-0.007,0.023-0.004
			c0.019,0.006,0.036,0.011,0.052,0.014C72.659,73.459,72.659,73.455,72.657,73.452z M73.695,70.916v0.01
			c-0.003,0.068,0.001,0.151,0.014,0.248c0.025-0.06,0.047-0.115,0.065-0.168C73.753,70.961,73.727,70.933,73.695,70.916z
			 M74.443,69.86c0.006-0.019,0.012-0.042,0.019-0.066c-0.021,0.016-0.039,0.036-0.051,0.061c0.006,0,0.012,0.003,0.019,0.009
			C74.433,69.854,74.438,69.853,74.443,69.86z M75.149,68.681c0.025-0.031,0.047-0.059,0.066-0.084l0.046-0.117
			c-0.031,0.035-0.073,0.101-0.126,0.201H75.149z M75.154,68.732c-0.025,0.038-0.055,0.074-0.089,0.108
			c0.006,0,0.013,0.002,0.019,0.004c0.013-0.006,0.025-0.012,0.038-0.018L75.154,68.732z M74.626,69.327
			c-0.05,0.052-0.096,0.112-0.136,0.177c-0.053,0.075-0.086,0.143-0.099,0.206l0.062-0.004c0.013-0.01,0.026-0.017,0.042-0.019
			C74.532,69.577,74.576,69.457,74.626,69.327z M87.969,80.074c-0.015,0-0.037,0.002-0.065,0.004l0.019,0.08
			c0,0.006,0,0.011,0,0.014c0.085,0.003,0.139,0,0.164-0.009l0.042-0.01c-0.003-0.003-0.003-0.008,0-0.015l-0.01-0.018
			C88.087,80.093,88.038,80.076,87.969,80.074z M87.843,79.84l0.009,0.023c0.097,0,0.175-0.006,0.234-0.018
			C88.023,79.838,87.942,79.836,87.843,79.84z M87.791,79.583l0.005,0.028c0.04-0.01,0.084-0.02,0.131-0.028H87.87
			C87.855,79.58,87.829,79.58,87.791,79.583z M87.806,79.447c0.012-0.004,0.023-0.007,0.032-0.01
			c0.034-0.009,0.046-0.024,0.032-0.047l-0.027-0.01c-0.007-0.002-0.016-0.001-0.028,0.005
			C87.808,79.412,87.806,79.432,87.806,79.447L87.806,79.447z M87.684,78.998c-0.006-0.003-0.015-0.003-0.022,0l0.004,0.014
			l0.019-0.005C87.681,79.004,87.681,79.001,87.684,78.998L87.684,78.998z M87.969,79.204l-0.061-0.024l-0.094,0.024
			c0.013,0,0.034,0.02,0.065,0.062C87.898,79.256,87.928,79.234,87.969,79.204z M88.114,80.022l-0.01-0.075
			c-0.084-0.019-0.161-0.011-0.229,0.023l0.01,0.033L88.114,80.022z M87.015,76.206c0,0.019,0,0.04,0,0.065
			c0.025-0.021,0.045-0.047,0.061-0.074l-0.056-0.006C87.017,76.195,87.015,76.2,87.015,76.206z M86.809,76.159
			c0.013-0.003,0.028-0.003,0.048,0l-0.006-0.037c-0.012,0.003-0.026,0.008-0.042,0.014C86.806,76.146,86.806,76.152,86.809,76.159z
			 M86.856,75.855c0.034-0.021,0.074-0.035,0.12-0.037c-0.015-0.016-0.054-0.04-0.116-0.07l-0.084,0.023
			C86.811,75.799,86.837,75.827,86.856,75.855L86.856,75.855z M87.011,75.963c-0.017,0.016-0.03,0.039-0.042,0.07
			c0.008,0.004,0.014,0.01,0.014,0.019l0.032-0.075L87.011,75.963L87.011,75.963z M86.926,75.93c0.01-0.006,0.015-0.012,0.015-0.019
			l-0.023,0.005C86.913,75.919,86.917,75.924,86.926,75.93z M86.786,75.943h-0.015c0.007,0.032,0.015,0.066,0.023,0.104
			c0.01-0.003,0.02-0.004,0.027-0.004L86.814,76C86.805,75.976,86.795,75.957,86.786,75.943z M86.72,75.584
			c0,0.006-0.002,0.012-0.004,0.02l0.042-0.029C86.739,75.571,86.727,75.574,86.72,75.584L86.72,75.584z M86.977,75.705
			c0.013-0.033,0.015-0.073,0.006-0.117c-0.016-0.074-0.054-0.084-0.112-0.027c-0.05,0.044-0.075,0.078-0.075,0.104
			c0.034-0.004,0.069,0.002,0.104,0.014C86.933,75.693,86.959,75.702,86.977,75.705z M86.837,75.275
			c-0.059,0.042-0.112,0.069-0.159,0.084c0.006,0.047,0.017,0.098,0.028,0.15C86.774,75.425,86.818,75.347,86.837,75.275z
			 M86.706,75.285l-0.028-0.01c-0.003,0.007-0.004,0.011-0.004,0.014C86.683,75.293,86.694,75.291,86.706,75.285z M86.649,75.125
			h0.141c0.019-0.012,0.03-0.021,0.032-0.023L86.8,75.065l-0.154,0.032C86.648,75.107,86.649,75.116,86.649,75.125z M86.706,74.705
			c0.062-0.076,0.102-0.156,0.116-0.244l0.01-0.215c-0.012,0.025-0.037,0.096-0.074,0.215c-0.031,0.116-0.069,0.196-0.112,0.244
			H86.706z M86.641,74.863c-0.003,0-0.007,0.003-0.009,0.01c0.006,0.049,0.01,0.1,0.014,0.15c0.087-0.028,0.143-0.044,0.169-0.047
			C86.792,74.905,86.734,74.867,86.641,74.863L86.641,74.863z M87.543,78.418c0.004,0.006,0.01,0.018,0.02,0.033
			c0.124-0.006,0.192-0.012,0.205-0.014l-0.022-0.006c-0.038-0.016-0.102-0.033-0.192-0.055
			C87.553,78.392,87.55,78.406,87.543,78.418z M87.726,78.68l-0.047,0.006c-0.003,0.006-0.004,0.012-0.004,0.018L87.726,78.68z
			 M87.613,78.525c0.003,0.006,0.01,0.014,0.019,0.02l0.062-0.014C87.671,78.527,87.645,78.525,87.613,78.525z M87.791,78.619
			c0.013-0.006,0.015-0.029,0.005-0.07c-0.012,0.007-0.041,0.025-0.084,0.057L87.791,78.619L87.791,78.619z M87.444,77.848
			c-0.021,0.034-0.048,0.068-0.078,0.104c0.143-0.02,0.23-0.032,0.261-0.038c-0.009-0.069-0.059-0.11-0.148-0.126
			C87.469,77.803,87.458,77.822,87.444,77.848L87.444,77.848z M87.539,78.175c0.009,0.013,0.017,0.024,0.023,0.037
			c0.015,0,0.026-0.001,0.032-0.005c0.021-0.012,0.037-0.025,0.047-0.041c0.006-0.016,0.012-0.025,0.014-0.029
			C87.618,78.152,87.579,78.166,87.539,78.175z M87.585,78.006c-0.019-0.002-0.038-0.004-0.061-0.004
			c-0.065,0.016-0.124,0.028-0.178,0.037c0.013,0.025,0.021,0.053,0.028,0.084c0.034-0.009,0.062-0.011,0.084-0.004l0.112-0.01
			c0.025-0.027,0.045-0.06,0.061-0.094C87.629,78.014,87.613,78.01,87.585,78.006z M87.09,77.192l-0.009,0.005
			c0.002,0.025,0.007,0.055,0.014,0.09c0.09-0.01,0.163-0.006,0.22,0.014c0.046-0.031,0.084-0.076,0.112-0.136
			C87.349,77.115,87.236,77.125,87.09,77.192L87.09,77.192z M87.071,76.832c0.006-0.033,0.01-0.062,0.01-0.084
			c-0.044,0.02-0.082,0.038-0.112,0.057c0.002,0.003,0.004,0.011,0.004,0.023C87.011,76.818,87.043,76.82,87.071,76.832z
			 M87.249,76.697l-0.075,0.005c0,0.019-0.016,0.068-0.047,0.149c0,0.016-0.003,0.031-0.01,0.047c0,0.034-0.008,0.08-0.022,0.135
			c0.053-0.043,0.097-0.104,0.131-0.182C87.25,76.786,87.258,76.734,87.249,76.697z M87.1,76.467
			c-0.007-0.033-0.012-0.051-0.015-0.051l-0.027-0.004c-0.02,0.021-0.027,0.045-0.024,0.07c-0.003,0.003-0.009,0.008-0.019,0.014
			c-0.006,0.065-0.019,0.131-0.038,0.195C87.077,76.646,87.117,76.571,87.1,76.467L87.1,76.467z M87.127,76.365l-0.014-0.107
			l-0.047,0.089C87.075,76.355,87.096,76.361,87.127,76.365z M75.996,67.788c0.019-0.025,0.036-0.052,0.052-0.08
			c-0.037-0.006-0.077,0.002-0.117,0.023c-0.087,0.028-0.18,0.099-0.275,0.21c0.016-0.013,0.034-0.022,0.056-0.028
			c0.053-0.012,0.099-0.008,0.136,0.014c0.016,0.009,0.023,0.019,0.023,0.028c0.016-0.006,0.028-0.011,0.037-0.014h0.005
			c0.012-0.024,0.026-0.049,0.042-0.074C75.97,67.842,75.984,67.815,75.996,67.788z M76.313,67.615
			c0.007-0.022,0.015-0.04,0.024-0.051l-0.005-0.005c-0.01,0.016-0.021,0.03-0.037,0.042C76.302,67.604,76.308,67.608,76.313,67.615
			z M76.417,67.657c0.019-0.003,0.086-0.057,0.201-0.164c-0.074,0.031-0.144,0.087-0.206,0.168L76.417,67.657z M77.04,67.24
			c0.143-0.034,0.312-0.103,0.509-0.206c-0.043-0.009-0.084-0.015-0.122-0.015l-0.229,0.057
			C77.139,67.114,77.086,67.168,77.04,67.24z M80.205,66.408c0,0.003,0,0.007,0,0.014c0.003,0.01,0.007,0.023,0.01,0.042
			c0.016-0.031,0.026-0.049,0.032-0.056C80.234,66.411,80.221,66.411,80.205,66.408z M80.177,66.483
			c0.008-0.003,0.013-0.005,0.02-0.005c-0.007-0.006-0.012-0.014-0.014-0.023h-0.02C80.166,66.461,80.171,66.47,80.177,66.483
			L80.177,66.483z M80.052,66.15c-0.017-0.009-0.035-0.02-0.057-0.032c-0.34,0.097-0.546,0.159-0.617,0.187
			c-0.017,0.013-0.067,0.045-0.155,0.099c0.277-0.072,0.501-0.134,0.669-0.187C79.945,66.194,79.998,66.173,80.052,66.15z
			 M83.194,66.394c-0.01-0.006-0.02-0.008-0.028-0.004c-0.146-0.022-0.242-0.032-0.285-0.028c0.028,0.043,0.089,0.076,0.183,0.098
			c0.015,0,0.053,0.003,0.111,0.009C83.188,66.438,83.194,66.413,83.194,66.394z M82.113,66.398
			c0.044-0.006,0.077-0.025,0.099-0.056c-0.047-0.015-0.077-0.009-0.089,0.019c-0.006,0.006-0.013,0.019-0.019,0.037H82.113z
			 M81.665,65.945c0.034,0.019,0.061,0.033,0.079,0.042c0.04,0.016,0.079,0.021,0.116,0.015c0.022-0.003,0.043-0.009,0.062-0.019
			l0.009-0.023l-0.009-0.015C81.841,65.92,81.755,65.92,81.665,65.945z M81.613,66.015c0.027,0.002,0.056,0.006,0.084,0.009
			l0.019-0.015l-0.064-0.027c-0.028-0.009-0.051-0.009-0.066,0C81.595,65.982,81.604,65.994,81.613,66.015z M81.553,66.015
			l-0.02-0.019l-0.051-0.019c-0.02,0.003-0.038,0.011-0.056,0.024C81.463,66.001,81.505,66.006,81.553,66.015z M82.73,66.095
			c-0.003,0.006-0.011,0.033-0.023,0.08c0.056,0.003,0.116,0.004,0.178,0.004l-0.018-0.07C82.801,66.093,82.756,66.088,82.73,66.095
			z M82.665,66.174c0.004-0.025,0.006-0.05,0.01-0.075c-0.121,0.019-0.191,0.034-0.211,0.047
			C82.532,66.158,82.601,66.167,82.665,66.174z M82.338,66.062c0.038,0.031,0.067,0.044,0.089,0.042l0.21-0.076l-0.019-0.009
			c-0.034-0.046-0.082-0.07-0.145-0.07c-0.031-0.006-0.106,0.003-0.225,0.028l0.01,0.005C82.268,66.004,82.294,66.031,82.338,66.062
			z M87.038,71.566c0.013,0,0.025,0.003,0.037,0.009c0.017-0.043,0.017-0.097,0-0.159c-0.012,0.007-0.026,0.013-0.042,0.019
			C87.04,71.47,87.041,71.513,87.038,71.566z M87.095,71.338c0.009-0.022,0.017-0.036,0.022-0.042c0.007-0.013,0.007-0.03,0-0.052
			c-0.002-0.009-0.006-0.022-0.009-0.038c-0.013,0.019-0.031,0.031-0.057,0.038c-0.006,0.021-0.017,0.052-0.032,0.094
			C87.066,71.338,87.092,71.338,87.095,71.338L87.095,71.338z M86.729,74.092l-0.08,0.014c-0.002,0.003-0.008,0.011-0.014,0.023
			l0.028,0.07l0.094-0.009L86.729,74.092z M86.734,74.27c-0.038-0.009-0.065-0.007-0.085,0.005l0.006,0.275h0.019
			C86.708,74.447,86.728,74.354,86.734,74.27z M86.851,73.773c-0.002,0.003-0.017,0.01-0.042,0.019
			c-0.03,0.068-0.066,0.142-0.107,0.22c0.063,0,0.109,0.002,0.141,0.009C86.864,74,86.866,73.917,86.851,73.773L86.851,73.773z
			 M86.931,73.404c0,0.013-0.002,0.028-0.005,0.047c0.003-0.013,0.007-0.022,0.01-0.028C86.936,73.42,86.935,73.414,86.931,73.404z
			 M86.982,73.147v-0.014l-0.014,0.009c0,0.009-0.002,0.02-0.006,0.033C86.97,73.163,86.976,73.153,86.982,73.147z M86.987,72.319
			c0.009-0.109,0.01-0.182,0.004-0.22c-0.097,0.007-0.145,0.022-0.145,0.047c-0.006,0.009-0.005,0.026,0.004,0.051L86.987,72.319z
			 M86.931,72.506l0.005,0.005c0.003-0.066-0.005-0.118-0.023-0.154l-0.038,0.004C86.899,72.405,86.919,72.453,86.931,72.506z
			 M87.001,71.787c-0.012,0.016-0.018,0.034-0.014,0.056c0.062,0.003,0.098,0.009,0.107,0.019c0.009,0.003,0.019,0.023,0.027,0.061
			c0.016,0.084,0.014,0.227-0.005,0.426h0.038c0.044-0.053,0.072-0.142,0.089-0.266c0.016-0.106,0.014-0.205-0.005-0.295
			c-0.012-0.041-0.021-0.068-0.027-0.085c-0.076,0.007-0.131,0.017-0.169,0.028c-0.006,0.016-0.013,0.032-0.019,0.047L87.001,71.787
			z M86.87,71.848h0.009c0.004-0.013,0.008-0.022,0.014-0.028l-0.027,0.004C86.868,71.831,86.87,71.838,86.87,71.848z
			 M86.931,71.955c-0.012,0.022-0.025,0.045-0.038,0.07c0.084-0.009,0.137,0.001,0.154,0.033c0.011-0.084,0.013-0.129,0.011-0.136
			C86.994,71.922,86.952,71.933,86.931,71.955z M86.884,71.707c0.003,0.006,0.002,0.015-0.005,0.028l0.042-0.015h0.005
			C86.92,71.717,86.905,71.713,86.884,71.707z M86.959,71.557c-0.01-0.009-0.021-0.014-0.033-0.014
			c-0.006,0.019-0.018,0.037-0.033,0.056c0,0.013,0,0.026,0,0.042c0.016-0.002,0.033-0.002,0.052,0c0-0.012,0-0.021,0-0.027
			C86.951,71.597,86.955,71.579,86.959,71.557z M86.959,71.529c0.01-0.031,0.014-0.054,0.014-0.07
			c-0.013,0.013-0.024,0.033-0.037,0.062C86.948,71.526,86.955,71.529,86.959,71.529z M87.033,71.034
			c-0.009-0.019-0.024-0.03-0.046-0.033c0.019,0.025,0.035,0.051,0.051,0.079C87.041,71.068,87.04,71.052,87.033,71.034z
			 M87.033,70.916c-0.024,0.003-0.053,0.005-0.084,0.005c0.06,0.012,0.103,0.031,0.132,0.056l0.004-0.009L87.033,70.916z
			 M86.758,70.767c0.003,0.002,0.003,0.01,0,0.023c0.022,0.013,0.044,0.023,0.064,0.033c0.014,0.013,0.021,0.024,0.024,0.033
			c0.01-0.006,0.018-0.008,0.023-0.004c0.084-0.006,0.129-0.011,0.136-0.014c0.024-0.009,0.039-0.024,0.041-0.042l-0.027-0.108
			c-0.003,0-0.007-0.002-0.009-0.005c-0.088,0.069-0.168,0.095-0.239,0.08C86.766,70.762,86.761,70.764,86.758,70.767L86.758,70.767
			z M86.617,70.355l0.005,0.009c0.062,0.053,0.122,0.093,0.178,0.118l0.005-0.005c0.016-0.052,0.014-0.107-0.005-0.164
			C86.763,70.316,86.701,70.33,86.617,70.355z M87.02,70.435l-0.028-0.042c-0.016,0.019-0.032,0.038-0.051,0.057
			c0.002,0.012,0.006,0.033,0.009,0.06c-0.007,0.028-0.013,0.056-0.019,0.084l0.075-0.014C87.019,70.567,87.022,70.519,87.02,70.435
			z M86.431,69.794l-0.014,0.005h0.014V69.794z M86.439,69.864h-0.005c0.004,0.009,0.006,0.017,0.01,0.024
			C86.441,69.881,86.439,69.873,86.439,69.864z M86.917,70.262v-0.019c-0.004-0.021-0.012-0.034-0.024-0.037
			c-0.006-0.007-0.014-0.005-0.022,0.004c0.016,0.019,0.028,0.041,0.037,0.066C86.91,70.272,86.913,70.268,86.917,70.262z
			 M86.585,70.28c0.006-0.006,0.014-0.014,0.022-0.023l-0.022,0.004C86.581,70.265,86.581,70.271,86.585,70.28z M86.649,70.009
			c0.022,0.034,0.046,0.064,0.07,0.089c0.032-0.012,0.061-0.015,0.085-0.009l-0.01-0.075C86.771,70.004,86.722,70.003,86.649,70.009
			z M86.649,70.206c0.017,0.006,0.032,0.01,0.047,0.014c-0.034-0.016-0.074-0.023-0.121-0.023L86.649,70.206z M86.575,69.79
			c0.003-0.019,0-0.04-0.01-0.061c-0.006,0-0.008,0.002-0.004,0.009C86.567,69.753,86.572,69.771,86.575,69.79L86.575,69.79z
			 M86.701,69.92c0.06-0.053,0.085-0.097,0.075-0.131c-0.006-0.022-0.014-0.04-0.023-0.052c-0.028-0.019-0.073-0.026-0.136-0.023
			c0.024,0.025,0.017,0.079-0.023,0.164c0.013,0.016,0.021,0.031,0.023,0.046L86.701,69.92z M86.481,69.658
			c0.01-0.003,0.022-0.009,0.038-0.019c-0.004,0-0.034,0-0.095,0C86.447,69.643,86.466,69.649,86.481,69.658z M86.243,69.485
			c-0.003,0.006-0.009,0.011-0.019,0.014c0.034-0.002,0.07,0,0.107,0.009c0.081,0.007,0.125,0.009,0.131,0.005l0.005-0.023
			C86.383,69.465,86.309,69.464,86.243,69.485z M86.206,69.574c0.009,0.016,0.021,0.029,0.032,0.042l0.038,0.005l0.037-0.047
			L86.29,69.56L86.206,69.574z M85.943,69.172c0.004,0.016,0.012,0.028,0.024,0.038l0.01,0.004
			C85.964,69.198,85.953,69.185,85.943,69.172z M86.005,68.33c-0.007-0.003-0.011-0.005-0.014-0.005
			c0.053,0.078,0.108,0.198,0.168,0.361c0.056,0.13,0.09,0.226,0.104,0.285c0.008-0.097,0.002-0.189-0.02-0.276
			C86.222,68.574,86.142,68.452,86.005,68.33z M85.313,67.946c0.015,0.007,0.03,0.011,0.046,0.015c0.022,0,0.039-0.001,0.052-0.005
			v-0.023c-0.02-0.006-0.046-0.013-0.08-0.019L85.313,67.946z M85.139,67.75l-0.056-0.009l0.006,0.019
			C85.104,67.756,85.121,67.753,85.139,67.75z M85.019,67.4c0.006,0.006,0.022,0.021,0.051,0.046
			c0.027,0.028,0.05,0.041,0.065,0.038l0.004-0.004L85.019,67.4z M84.747,67.133c0,0.006-0.005,0.017-0.015,0.033
			c0.091,0.062,0.175,0.118,0.253,0.168c0.412,0.271,0.662,0.519,0.753,0.744l0.005-0.004c0.043,0.031,0.077,0.058,0.103,0.079
			c0.081,0.026,0.16,0.068,0.238,0.127c0.131,0.105,0.214,0.236,0.248,0.393c0.024,0.112,0.009,0.258-0.047,0.435
			c0.016,0.021,0.025,0.048,0.028,0.08c0,0.006,0.001,0.011,0.005,0.014l0.004,0.005c0.032,0.152,0.122,0.276,0.271,0.369
			c0.153,0.094,0.234,0.168,0.243,0.225c-0.028,0.087-0.043,0.134-0.047,0.141c0.016,0.056,0.062,0.137,0.141,0.242
			c0.088,0.101,0.137,0.18,0.15,0.239c0.009,0.031,0.009,0.104,0,0.219c-0.01,0.11-0.012,0.182-0.006,0.215l0.033,0.155
			c0.009,0.012,0.016,0.027,0.019,0.046c0.013,0.025,0.017,0.051,0.015,0.08l0.023,0.117c0,0.075-0.033,0.207-0.099,0.397
			c0.144,0.032,0.224,0.075,0.243,0.131c0.03,0.172,0.023,0.329-0.023,0.472c-0.044,0.104-0.15,0.273-0.317,0.51
			c0,0.025-0.002,0.047-0.006,0.066c0.016,0.006,0.026,0.009,0.028,0.009c0.013,0.009,0.021,0.026,0.028,0.051
			c0.019,0.082-0.001,0.364-0.061,0.851c-0.066,0.534-0.143,0.876-0.229,1.029c0.065,0.019,0.109,0.051,0.131,0.093
			c0.006,0.007,0.016,0.038,0.028,0.094c0,0.003,0.006,0.073,0.019,0.21c0.006,0.15,0.003,0.247-0.009,0.291
			c0.056-0.003,0.096,0.011,0.121,0.042c0.01,0.01,0.019,0.034,0.027,0.074l0.15,0.66c0.016,0.08,0.016,0.152,0,0.215
			c-0.016,0.071-0.019,0.125-0.01,0.158c0.004,0.016,0.026,0.03,0.07,0.043c0.044,0.021,0.068,0.035,0.075,0.041
			c0.016,0.054,0.003,0.121-0.037,0.201c-0.038,0.088-0.096,0.158-0.174,0.211c0.178-0.021,0.284-0.033,0.318-0.037
			c0.034,0.004,0.056,0.022,0.065,0.057c0.009,0.049-0.034,0.124-0.131,0.225c0.007,0.002,0.013,0.004,0.019,0.004
			c0.06,0.05,0.097,0.112,0.112,0.188c0.019,0.071,0.019,0.139,0,0.201c0.034,0.021,0.077,0.055,0.126,0.098
			c0.094,0.084,0.144,0.141,0.149,0.168c0.017,0.076-0.038,0.171-0.163,0.285c0.112,0.032,0.181,0.062,0.205,0.09
			c0.007,0.016,0.021,0.059,0.043,0.131c0.003,0.037,0.003,0.131,0,0.28c-0.01,0.035-0.013,0.068-0.01,0.103l-0.014-0.014
			l-0.033-0.126l-0.023-0.015l-0.041,0.024c-0.032,0.003-0.06,0.008-0.084,0.014c-0.004,0.021-0.006,0.042-0.006,0.061
			c0.06,0.028,0.102,0.052,0.126,0.07l-0.004,0.005c0.019,0,0.034-0.002,0.046-0.005c0.017-0.006,0.028-0.009,0.038-0.009
			c-0.013,0.103-0.026,0.166-0.042,0.191c0.1,0.021,0.162,0.037,0.188,0.047c0.016,0.006,0.025,0.02,0.032,0.041
			c0,0.004,0.003,0.022,0.01,0.057c-0.013,0.053-0.055,0.082-0.127,0.09c0.06,0.049,0.108,0.087,0.145,0.111
			c0.069,0.057,0.108,0.097,0.118,0.122l-0.01,0.037c-0.01,0.038-0.029,0.071-0.061,0.103l-0.15,0.052l0.015,0.009
			c0.081-0.009,0.134-0.004,0.158,0.016c0.007,0,0.014,0.021,0.024,0.064c0.002,0.02,0.001,0.042-0.005,0.07
			c-0.013,0.025-0.018,0.05-0.014,0.074c0.003,0.032,0.01,0.051,0.022,0.057c0.02,0.012,0.033,0.027,0.042,0.042l0.033,0.122
			l-0.117,0.046c0.109,0.01,0.198,0.043,0.267,0.099c-0.016,0.01-0.048,0.025-0.099,0.047l-0.257,0.061
			c0.007,0.025,0.013,0.047,0.019,0.066c-0.003,0.003-0.006,0.038-0.009,0.106c-0.02,0.079-0.073,0.128-0.164,0.149
			c-0.181,0.194-0.617,0.493-1.309,0.898c-0.78,0.465-1.311,0.761-1.591,0.889c-0.187,0.081-0.812,0.398-1.876,0.954
			c-0.9,0.468-1.695,0.842-2.385,1.122l-0.711,0.154c-0.321,0.072-0.522,0.092-0.604,0.057c-0.105-0.047-0.193-0.197-0.262-0.449
			c-0.021-0.08-0.057-0.195-0.103-0.342c-0.013-0.021-0.021-0.039-0.024-0.055c-0.111,0.062-0.252,0.138-0.42,0.229
			c-0.146,0.084-0.267,0.15-0.36,0.201c0,0.01-0.008,0.02-0.022,0.027c-0.022,0.016-0.163,0.174-0.422,0.473
			c-0.303,0.284-0.578,0.457-0.828,0.52c-0.112,0.021-0.228,0.01-0.346-0.033c-0.109,0.013-0.192,0.016-0.248,0.01
			c-0.074-0.006-0.148-0.043-0.22-0.107c-0.309-0.299-0.701-0.562-1.179-0.791c-0.084-0.034-0.247-0.201-0.49-0.5
			c-0.182-0.212-0.307-0.375-0.375-0.491c-0.03-0.038-0.07-0.075-0.116-0.112c-0.181-0.128-0.337-0.229-0.468-0.305
			c-0.004-0.009-0.004-0.017,0-0.022c-0.066-0.091-0.104-0.173-0.117-0.248c-0.021-0.106-0.029-0.175-0.023-0.206
			c0.013-0.047,0.055-0.142,0.126-0.285c0.045-0.057,0.078-0.104,0.103-0.145c-0.034-0.027-0.064-0.06-0.093-0.094
			c-0.149-0.128-0.234-0.229-0.253-0.305c0-0.002,0.06-0.156,0.178-0.457c0.075-0.708,0.18-1.185,0.313-1.427
			c0.153-0.3,0.225-0.645,0.216-1.034c0-0.053-0.002-0.107-0.006-0.164c-0.049-0.084-0.104-0.173-0.163-0.266
			c-0.184,0.019-0.34-0.067-0.468-0.258c-0.094-0.121-0.157-0.257-0.191-0.406c-0.044-0.188-0.059-0.352-0.047-0.491
			c0.016-0.162,0.073-0.353,0.173-0.571c0.05-0.109,0.114-0.219,0.192-0.326c0.006-0.023,0.01-0.04,0.014-0.053
			c0.074-0.289,0.121-0.543,0.141-0.762c-0.01,0.004-0.018,0.004-0.024,0c0-0.02-0.001-0.031-0.004-0.038
			c-0.013-0.042-0.05-0.079-0.112-0.106c-0.016-0.006-0.028-0.012-0.038-0.014c0.034-0.029,0.075-0.053,0.122-0.07
			c0.028-0.02,0.051-0.035,0.07-0.048c0-0.108-0.009-0.204-0.027-0.285c-0.008-0.006-0.012-0.012-0.015-0.019
			c-0.044,0.009-0.1,0.021-0.168,0.033c-0.007,0.018-0.013,0.008-0.02-0.033c-0.009-0.025-0.013-0.041-0.009-0.046
			c0.012,0,0.024-0.006,0.037-0.019c0.041-0.015,0.076-0.032,0.107-0.051c-0.028-0.082-0.044-0.137-0.047-0.169
			c-0.009-0.002-0.013-0.01-0.009-0.023c-0.072-0.069-0.153-0.128-0.243-0.177c-0.179-0.106-0.293-0.178-0.347-0.215
			c-0.047-0.047-0.085-0.097-0.116-0.15c-0.025-0.009-0.047-0.015-0.066-0.019c-0.081-0.021-0.125-0.051-0.131-0.089
			c-0.006-0.025-0.006-0.04,0-0.046h0.01c-0.01-0.034-0.012-0.068-0.005-0.103c0.028-0.01,0.06-0.011,0.094-0.005h0.004
			c0.004-0.009,0.004-0.016,0-0.019c-0.009-0.009-0.021-0.016-0.037-0.018c-0.037-0.022-0.06-0.044-0.065-0.066
			c-0.006-0.021-0.004-0.033,0.005-0.033l0.015,0.005c0.027,0.012,0.055,0.024,0.079,0.037c0-0.013-0.002-0.027-0.005-0.042
			c-0.122-0.072-0.186-0.131-0.191-0.177c-0.01-0.022-0.011-0.036-0.005-0.043l0.019-0.004c0.065,0.031,0.122,0.055,0.168,0.07
			c-0.002-0.013-0.002-0.03,0-0.051v-0.005c-0.01-0.002-0.017-0.008-0.023-0.014c-0.047-0.022-0.085-0.04-0.117-0.051
			c-0.012,0.002-0.025,0.008-0.041,0.014c-0.044,0.013-0.081,0.007-0.113-0.019c-0.018-0.015-0.027-0.034-0.027-0.056
			c0.05-0.025,0.097-0.055,0.141-0.089l-0.019-0.004c0.016-0.003,0.025-0.011,0.032-0.024V73.32
			c-0.024,0.006-0.053,0.013-0.084,0.019c-0.041,0.006-0.064,0.002-0.07-0.01l0.01-0.028c0.024-0.04,0.113-0.098,0.267-0.173
			c-0.016-0.009-0.032-0.014-0.048-0.014l0.006-0.019c0.037-0.021,0.095-0.049,0.172-0.084c0.025-0.016,0.053-0.038,0.08-0.066
			c0.025-0.031,0.051-0.065,0.075-0.103c0.068-0.084,0.126-0.158,0.173-0.22c0.012-0.041,0.023-0.08,0.033-0.117
			c0.006,0.022,0.009,0.04,0.009,0.051c0.01-0.015,0.019-0.026,0.028-0.032c0.006-0.084,0.008-0.203,0.004-0.356
			c0.022,0.047,0.048,0.119,0.075,0.215l-0.014-0.196l0.009-0.004c0,0.01,0.014,0.05,0.042,0.121
			c0.021-0.05,0.044-0.104,0.066-0.163c0-0.016,0.004-0.032,0.014-0.047c0.012-0.028,0.024-0.057,0.038-0.084
			c0-0.044-0.006-0.078-0.015-0.104h0.009l0.014,0.062c0.01-0.019,0.018-0.034,0.024-0.043c-0.01-0.034-0.018-0.061-0.024-0.079
			c-0.062-0.135-0.122-0.23-0.182-0.286c0.035,0.01,0.102,0.1,0.201,0.271c0.009,0.019,0.015,0.036,0.015,0.051
			c0.012-0.012,0.015-0.021,0.009-0.028c0.003-0.012,0.003-0.02,0-0.023c-0.003-0.062-0.003-0.105,0-0.131l0.009,0.005
			c0.017,0.021,0.03,0.037,0.043,0.046c0.003-0.012,0.008-0.023,0.014-0.033c-0.019-0.081-0.026-0.145-0.023-0.192l0.014,0.009
			c0.01,0.007,0.026,0.034,0.052,0.085c0-0.026,0.01-0.051,0.028-0.08c-0.016-0.059-0.024-0.11-0.024-0.15l0.038,0.038
			c-0.021-0.1-0.036-0.181-0.042-0.244h0.037c0.031,0.063,0.057,0.106,0.075,0.131c0.003,0,0.005-0.002,0.005-0.005
			c-0.031-0.099-0.055-0.182-0.07-0.248c-0.013-0.137,0.031-0.217,0.131-0.238c0.021-0.006,0.047,0.009,0.075,0.046
			c0.009-0.165,0.07-0.36,0.183-0.584c-0.022,0.056-0.023,0.106-0.006,0.15c0.025-0.017,0.051-0.034,0.076-0.052
			c0.034-0.1,0.062-0.165,0.088-0.192c0.024-0.075,0.048-0.139,0.07-0.192c0.047-0.1,0.087-0.152,0.121-0.159v-0.009
			c-0.077,0.056-0.152,0.131-0.224,0.224c0.149-0.261,0.334-0.523,0.552-0.785c0.007-0.013,0.011-0.022,0.014-0.028
			c0.125-0.262,0.224-0.405,0.295-0.431c0.171-0.271,0.338-0.509,0.5-0.715c0.281-0.355,0.492-0.503,0.631-0.444
			c0.126-0.141,0.309-0.235,0.548-0.285c0.196-0.044,0.324-0.114,0.384-0.211c0.054-0.093,0.178-0.162,0.374-0.206
			c0.022-0.009,0.083-0.003,0.183,0.019c0.021,0.006,0.042,0.011,0.061,0.014c0.01-0.012,0.023-0.019,0.042-0.019
			c0.277-0.156,0.488-0.25,0.632-0.28c0.084-0.025,0.163-0.028,0.238-0.009c0.013,0,0.02,0,0.023,0
			c0.103-0.059,0.198-0.11,0.285-0.154c0.037-0.031,0.074-0.051,0.112-0.061c0.088-0.053,0.172-0.1,0.252-0.14
			c0.519-0.287,0.815-0.352,0.894-0.196c0.091-0.034,0.154-0.053,0.192-0.057c0.225-0.05,0.472-0.077,0.743-0.084
			c0.031-0.027,0.07-0.053,0.117-0.075c-0.016,0.016-0.036,0.042-0.062,0.08c0.01,0,0.022,0,0.038,0
			c0.034-0.019,0.086-0.038,0.154-0.057c0.246-0.031,0.386-0.051,0.416-0.061c-0.127-0.028-0.209-0.037-0.243-0.028l-0.29,0.057
			c0.128-0.057,0.301-0.084,0.52-0.084c0.399,0.05,0.646,0.073,0.738,0.07c0.194,0.016,0.393,0.109,0.594,0.28
			c0.017-0.006,0.04-0.009,0.07-0.009c0.209-0.021,0.36-0.003,0.454,0.056c0.065,0.031,0.109,0.088,0.131,0.173
			c0.331,0.027,0.513,0.11,0.548,0.248c0.021,0.103,0.104,0.188,0.247,0.257c0.153,0.059,0.234,0.114,0.243,0.164
			C84.726,67.064,84.731,67.09,84.747,67.133z M84.456,66.997c0.069,0.043,0.138,0.085,0.207,0.127c0-0.026-0.002-0.053-0.006-0.085
			l-0.19-0.061C84.46,66.985,84.456,66.991,84.456,66.997z M83.377,66.422c-0.044,0.01-0.079,0.018-0.104,0.023l0.015,0.028
			c0.044,0.006,0.096,0.014,0.154,0.023c0-0.006,0.002-0.009,0.005-0.009h0.009v-0.023C83.44,66.451,83.413,66.438,83.377,66.422z
			 M84.167,66.67c-0.01-0.037-0.038-0.075-0.084-0.112c-0.048-0.034-0.091-0.048-0.132-0.042c0.031,0.059,0.099,0.118,0.202,0.177
			L84.167,66.67z M84.077,66.721c-0.046-0.025-0.07-0.042-0.074-0.051c-0.028-0.003-0.053,0-0.074,0.009
			c0.036,0.019,0.072,0.042,0.106,0.07c0.02-0.003,0.04-0.006,0.066-0.009L84.077,66.721L84.077,66.721z M83.76,66.483h-0.028
			c0.019,0.062,0.045,0.109,0.08,0.14c0.04-0.006,0.074-0.014,0.103-0.023l-0.005-0.014C83.881,66.517,83.831,66.483,83.76,66.483z"
			/>
	</g>
	<g id="Layer_5_16_">
		<path id="path8_15_" fill="#010101" d="M88.016,124.793h-0.023c-0.016,0.17,0.015,0.339,0.089,0.512
			c0.1,0.214,0.25,0.333,0.449,0.354c-0.125-0.273-0.188-0.546-0.188-0.817L88.016,124.793z M88.479,123.681
			c-0.009,0.075-0.013,0.159-0.009,0.253c0.009,0.127,0.029,0.235,0.061,0.322c0.053-0.019,0.115-0.057,0.187-0.111
			C88.614,124.053,88.534,123.898,88.479,123.681L88.479,123.681z M88.646,123.882v0.047c0.017,0.044,0.051,0.077,0.104,0.098
			c0.022,0.01,0.047,0.019,0.075,0.028c0.024-0.021,0.046-0.04,0.064-0.057L88.646,123.882z M88.694,123.737v0.004
			c0.078,0.048,0.116,0.094,0.116,0.141h0.187C88.876,123.819,88.774,123.771,88.694,123.737z M88.736,123.648l0.168,0.07
			c0.062,0.006,0.109,0.006,0.14,0c0-0.031,0-0.062,0-0.094l-0.004-0.006c-0.007-0.002-0.013-0.006-0.019-0.009
			c-0.038-0.003-0.084-0.005-0.141-0.005c-0.044,0-0.086,0-0.126,0L88.736,123.648z M88.249,123.904v-0.022
			c-0.046,0.04-0.101,0.159-0.163,0.355c-0.062,0.192-0.094,0.333-0.094,0.417l0.327,0.022v-0.022
			C88.241,124.438,88.219,124.189,88.249,123.904z M88.315,123.096c-0.075-0.037-0.129-0.057-0.159-0.057v0.141
			c0.03,0.047,0.101,0.086,0.21,0.117c0.02-0.006,0.033-0.015,0.043-0.027c0-0.041,0-0.078,0-0.113
			C88.387,123.139,88.355,123.117,88.315,123.096z M88.343,122.946c0.022,0.003,0.043,0.007,0.062,0.009
			c0-0.027-0.002-0.053-0.005-0.079h-0.22C88.195,122.893,88.249,122.916,88.343,122.946z M88.156,122.619
			c0,0.021,0.079,0.034,0.237,0.037c0-0.021,0-0.041,0-0.061H88.18L88.156,122.619z M88.249,122.269h0.047
			c0.025-0.019,0.057-0.042,0.094-0.07c0.004-0.019,0.004-0.036,0.004-0.052C88.335,122.193,88.287,122.234,88.249,122.269z
			 M87.946,122.876v-0.023c-0.15,0.147-0.265,0.313-0.342,0.501c-0.069,0.174-0.104,0.352-0.104,0.528
			c0,0.068,0.033,0.169,0.098,0.299c0.072,0.146,0.156,0.266,0.253,0.356c-0.003-0.109,0.06-0.26,0.188-0.449
			c0.156-0.236,0.257-0.431,0.304-0.58c-0.156-0.098-0.265-0.201-0.327-0.312C87.969,123.104,87.946,122.998,87.946,122.876z
			 M87.898,121.987v0.397l0.117,0.024c0.025-0.054,0.053-0.104,0.084-0.15c0.06-0.087,0.148-0.153,0.267-0.201
			c-0.233-0.03-0.366-0.054-0.397-0.07H87.898z M87.548,121.801c0.141-0.202,0.237-0.345,0.29-0.426
			c0.088-0.134,0.146-0.252,0.178-0.355c-0.094,0.06-0.199,0.184-0.318,0.374c-0.121,0.19-0.179,0.325-0.173,0.407H87.548z
			 M88.483,121.566c0-0.034-0.004-0.066-0.01-0.098c-0.192,0.105-0.338,0.225-0.435,0.355h0.393
			C88.447,121.743,88.464,121.658,88.483,121.566z M88.366,121.333c-0.057,0.015-0.137,0.06-0.243,0.131
			c-0.118,0.078-0.185,0.144-0.201,0.196c0.097-0.041,0.178-0.086,0.243-0.14C88.175,121.514,88.241,121.451,88.366,121.333z
			 M88.016,120.809c0-0.023,0-0.049,0-0.074c-0.013,0.031-0.021,0.057-0.023,0.074H88.016z M88.811,120.828
			c-0.021,0.01-0.045,0.018-0.07,0.027l0.07,0.023c0.003,0,0.007,0,0.01,0C88.817,120.861,88.813,120.844,88.811,120.828z
			 M88.601,120.623l0.023-0.024c-0.028,0.013-0.096,0.06-0.201,0.141c-0.007,0.003-0.013,0.007-0.019,0.014
			c-0.011,0.041-0.015,0.077-0.015,0.112c0,0.007,0,0.013,0,0.019c0.047-0.03,0.088-0.067,0.122-0.106
			C88.556,120.693,88.584,120.641,88.601,120.623z M88.703,120.299c-0.057,0.045-0.109,0.104-0.159,0.178
			c-0.006,0.01-0.012,0.02-0.019,0.028c0.081-0.038,0.146-0.079,0.196-0.126C88.716,120.352,88.709,120.324,88.703,120.299
			L88.703,120.299z M88.343,119.594v-0.024c-0.05,0.146-0.074,0.273-0.074,0.38c0.013-0.017,0.024-0.03,0.037-0.043
			C88.331,119.801,88.343,119.696,88.343,119.594z M88.554,119.71c-0.02-0.065-0.038-0.133-0.056-0.201
			c-0.02,0.085-0.041,0.177-0.066,0.276C88.473,119.758,88.513,119.731,88.554,119.71z M88.572,119.935
			c-0.01,0.022-0.021,0.046-0.032,0.07c-0.014,0.024-0.026,0.052-0.038,0.079c0.04-0.03,0.086-0.053,0.136-0.065
			c-0.01-0.037-0.02-0.071-0.027-0.103C88.597,119.922,88.584,119.929,88.572,119.935z M88.104,118.471
			c0.007-0.019,0.011-0.035,0.014-0.051c-0.094-0.241-0.196-0.486-0.309-0.74c-0.021,0.543-0.023,1.157-0.004,1.844h0.023
			C87.866,119.299,87.958,118.947,88.104,118.471L88.104,118.471z M87.595,117.203c0,0.105,0,0.217,0,0.332h0.023
			c0.019-0.056,0.035-0.111,0.051-0.168C87.645,117.314,87.619,117.26,87.595,117.203z M87.501,117.025
			c-0.059-0.121-0.118-0.238-0.178-0.35c0.041,0.311,0.093,0.574,0.155,0.789h0.022C87.501,117.309,87.501,117.162,87.501,117.025z
			 M86.912,115.855c-0.056-0.114-0.112-0.229-0.168-0.34c0.04,0.654,0.074,1.141,0.103,1.459c0.01-0.047,0.031-0.402,0.065-1.066
			C86.912,115.89,86.912,115.872,86.912,115.855z M86.005,114.262c0-0.084-0.002-0.164-0.005-0.238
			c-0.006-0.02-0.015-0.037-0.022-0.057C85.985,114.076,85.995,114.174,86.005,114.262z M86.369,114.771
			c-0.019-0.041-0.037-0.08-0.056-0.117c0.021,0.408,0.043,0.729,0.065,0.963C86.382,115.603,86.379,115.32,86.369,114.771
			L86.369,114.771z M85.584,113.162c-0.04-0.09-0.083-0.181-0.126-0.271c0,0.499,0.026,0.987,0.078,1.464
			C85.536,114,85.553,113.602,85.584,113.162z M82.903,106.166c-0.07-0.152-0.15-0.304-0.238-0.453
			c0.069,0.424,0.143,0.766,0.22,1.028C82.892,106.52,82.897,106.328,82.903,106.166z M88.74,79.204
			c0.047-0.044,0.102-0.097,0.164-0.159l-0.023-0.107c-0.128,0.021-0.234,0.066-0.318,0.136
			C88.622,79.109,88.681,79.154,88.74,79.204z M90.027,80.316c-0.022-0.009-0.062-0.001-0.122,0.023
			c-0.025,0.014-0.051,0.025-0.075,0.038c0.031,0.016,0.062,0.029,0.095,0.042L90.027,80.316z M90.4,80.41v-0.094h-0.233
			l-0.047,0.117l0.023,0.07c0.047,0,0.096-0.01,0.145-0.028C90.338,80.457,90.376,80.436,90.4,80.41z M89.526,80.251
			c0.05,0.003,0.089,0,0.117-0.009l0.032-0.019l0.07-0.095c-0.062,0-0.114,0.012-0.154,0.034c-0.024,0.012-0.058,0.038-0.099,0.079
			C89.506,80.245,89.517,80.248,89.526,80.251L89.526,80.251z M88.993,80.045c-0.003-0.062,0.002-0.111,0.014-0.148
			c0.025-0.085,0.115-0.155,0.271-0.211c-0.297-0.05-0.451-0.043-0.463,0.02c-0.007,0.018-0.01,0.055-0.01,0.111
			c-0.006,0.05-0.031,0.094-0.074,0.131C88.819,79.979,88.905,80.012,88.993,80.045L88.993,80.045z M89.311,79.961
			c-0.053,0.054-0.078,0.086-0.078,0.1l0.232-0.211C89.422,79.871,89.37,79.908,89.311,79.961z M88.97,79.442l0.122-0.038
			c0-0.012-0.051-0.01-0.15,0.006C88.951,79.419,88.96,79.43,88.97,79.442z M85.953,77.768c0.034-0.064,0.052-0.111,0.052-0.141
			c-0.057-0.037-0.105-0.033-0.149,0.01c0.016,0.074,0.027,0.148,0.037,0.221c0.003,0,0.007,0.002,0.009,0.004
			C85.923,77.824,85.94,77.793,85.953,77.768z M85.527,77.394c-0.013-0.028-0.043-0.046-0.094-0.052
			c-0.071-0.006-0.219-0.004-0.443,0.006L85.527,77.394z M85.504,77.534c0-0.009-0.059-0.013-0.177-0.009
			c-0.057,0.003-0.114,0.006-0.174,0.009H85.504z M88.437,78.75c0-0.012-0.034-0.008-0.103,0.015
			c-0.072,0.021-0.123,0.048-0.154,0.079c0.053,0.021,0.098,0.059,0.136,0.107c0.037,0.016,0.072,0.031,0.107,0.047
			C88.432,78.945,88.437,78.862,88.437,78.75z M87.047,78.545c0.048-0.035,0.104-0.092,0.173-0.168
			c-0.249-0.048-0.386-0.029-0.411,0.055c0.054,0.057,0.106,0.116,0.16,0.178C86.993,78.588,87.02,78.566,87.047,78.545z
			 M87.946,78.723c-0.032,0.034-0.06,0.068-0.085,0.103c0.028,0.003,0.057,0.008,0.085,0.014c0.077-0.087,0.116-0.147,0.116-0.183
			C88.068,78.607,88.03,78.629,87.946,78.723z M87.595,78.783v-0.15c-0.028,0.025-0.064,0.07-0.107,0.137
			C87.524,78.772,87.561,78.776,87.595,78.783z M87.314,78.633c-0.081,0.041-0.151,0.077-0.211,0.107
			c0.05,0.004,0.099,0.008,0.146,0.01c0.009-0.037,0.022-0.068,0.041-0.094L87.314,78.633z M96.561,86.439
			c0.006,0.006,0.013,0.012,0.019,0.019c0.006-0.01,0.012-0.016,0.014-0.019C96.597,86.436,96.585,86.436,96.561,86.439z
			 M95.447,84.961c0.028-0.01,0.058-0.018,0.089-0.023l-0.112-0.005C95.433,84.942,95.441,84.951,95.447,84.961z M95.172,84.377
			c-0.01-0.006-0.112-0.068-0.305-0.188h-0.028c0.06,0.072,0.118,0.145,0.179,0.22C95.075,84.387,95.128,84.377,95.172,84.377z
			 M91.851,81.453c0.01-0.021,0.017-0.045,0.023-0.07c-0.125-0.064-0.282-0.133-0.473-0.205
			C91.554,81.265,91.704,81.356,91.851,81.453z M90.892,80.869h-0.023v-0.164c-0.141,0-0.246,0.004-0.317,0.01
			c0.112,0.056,0.221,0.112,0.327,0.168L90.892,80.869z M91.523,81.103l0.022,0.094l0.727,0.047
			c-0.166,0.078-0.257,0.126-0.272,0.146c-0.015,0.015-0.038,0.053-0.069,0.116c0.043,0.028,0.087,0.056,0.131,0.085
			c0.108,0.016,0.185,0.029,0.229,0.041c0.051,0.013,0.075,0.031,0.075,0.057l-0.141,0.014c0.271,0.189,0.532,0.391,0.781,0.599
			c0.284-0.034,0.507,0.011,0.669,0.136c-0.172,0.016-0.32,0.035-0.445,0.057c0.022,0.019,0.044,0.037,0.066,0.055
			c0.122,0.11,0.243,0.225,0.364,0.347c0.065,0.017,0.131,0.033,0.197,0.052c0.315,0.097,0.378,0.146,0.191,0.146
			c-0.047,0.015-0.096,0.03-0.145,0.046c0.08,0.082,0.16,0.164,0.238,0.248l0.187,0.01c0,0.018-0.042,0.037-0.126,0.057
			c0.062,0.068,0.126,0.14,0.192,0.215c0.068,0.003,0.141,0.006,0.215,0.009c-0.062,0.016-0.119,0.029-0.169,0.042
			c0.103,0.118,0.207,0.242,0.313,0.369c0.196,0.032,0.334,0.066,0.411,0.108c0.082,0.044,0.114,0.144,0.099,0.299
			c-0.059,0-0.112,0.009-0.159,0.028c0.066,0.084,0.138,0.177,0.215,0.275l0.333,0.023c0.047,0.047,0.078,0.094,0.093,0.141
			c-0.08,0.025-0.158,0.053-0.233,0.084c0.137,0.178,0.287,0.375,0.449,0.59l0.346,0.027c-0.056,0.081-0.112,0.151-0.168,0.211
			c0.062,0.081,0.126,0.163,0.191,0.247c0.047,0.013,0.07,0.032,0.07,0.057c-0.01,0.003-0.019,0.005-0.028,0.005
			c0.041,0.053,0.081,0.107,0.121,0.164c0.159,0,0.245,0,0.258,0l0.01,0.037c0.009,0.043,0.045,0.1,0.107,0.168
			c-0.084,0.006-0.154,0.012-0.21,0.014c0.872,1.186,1.747,3.926,2.623,8.223c0.303,1.484,0.572,2.994,0.809,4.531
			c0.196,1.282,0.295,2.037,0.295,2.27c0,2.624,0.369,4.887,1.109,6.785c0.518,1.322,1.332,2.684,2.445,4.083
			c0.296,0.371,0.731,0.905,1.305,1.604c0.48,0.607,0.859,1.15,1.137,1.627c0.236,0.408,0.437,0.831,0.599,1.268
			c0.552,0.637,0.958,1.236,1.221,1.801c0.34,0.732,0.51,1.588,0.51,2.567c0,1.802-0.382,3.345-1.146,4.63
			c-1.334,2.242-3.668,3.279-7.001,3.111H97.57c-0.128-0.026-0.247-0.054-0.359-0.086c-1.625,0.025-2.892,0.132-3.799,0.318
			c-0.261,0.057-0.576,0.131-0.944,0.225c-0.302,0.068-0.602,0.103-0.897,0.103c-0.48,0-0.844-0.136-1.09-0.405
			c-0.04-0.045-0.13-0.205-0.267-0.482c-0.013,0.018-0.03,0.109-0.051,0.271c-0.022,0.187-0.057,0.34-0.104,0.458
			c-0.149,0.418-0.457,0.626-0.922,0.626c-0.485,0-0.801-0.281-0.944-0.846c-0.057-0.225-0.084-0.629-0.084-1.211
			c0-0.051,0.156-0.696,0.467-1.937c0.014-0.044,0.024-0.088,0.034-0.132c-0.271-0.171-0.517-0.436-0.735-0.795
			c-0.144-0.24-0.262-0.498-0.354-0.775c-0.076-0.225-0.112-0.389-0.112-0.492c0-0.155,0.034-0.342,0.103-0.561
			c0.078-0.25,0.176-0.438,0.295-0.561c-0.281-0.49-0.421-0.817-0.421-0.983c0-0.068,0.116-0.379,0.351-0.931
			c0.277-0.647,0.479-1.229,0.607-1.744v-0.098c-0.06-0.175-0.123-0.353-0.192-0.533c-0.05,0.158-0.091,0.335-0.126,0.527
			c-0.04,0.213-0.09,0.504-0.149,0.875h-0.069c-0.054-0.279-0.088-0.594-0.104-0.939c-0.009-0.203-0.014-0.497-0.014-0.885
			l-0.023,0.047c-0.047,0.188-0.07,0.469-0.07,0.842l-0.094-0.023c0-0.371-0.081-1.008-0.243-1.912
			c-0.044-0.246-0.078-0.476-0.103-0.688c-0.044-0.088-0.088-0.174-0.131-0.258c-0.056,0.602-0.084,1.095-0.084,1.479h-0.07
			c-0.175-0.543-0.276-1.172-0.305-1.885c0-0.182,0-0.353,0-0.514c-0.027-0.057-0.056-0.111-0.084-0.164
			c-0.006,0.317-0.009,0.674-0.009,1.065h-0.164c-0.046-0.38-0.084-0.882-0.112-1.505c-0.003-0.054-0.006-0.105-0.01-0.155
			c-0.027-0.062-0.057-0.122-0.089-0.182v1.001h-0.069c-0.085-0.438-0.146-0.94-0.183-1.511c0-0.004,0-0.007,0-0.01
			c-0.05-0.106-0.102-0.21-0.154-0.313c0,0.021-0.001,0.045-0.005,0.07c-0.038,0.474-0.056,0.875-0.056,1.202l-0.095-0.024
			c-0.046-0.094-0.091-0.377-0.135-0.851c-0.04-0.418-0.061-0.731-0.061-0.94c0.003-0.065,0.005-0.129,0.005-0.191
			c-0.197-0.42-0.388-0.844-0.571-1.268c0.003,0.078,0.005,0.172,0.005,0.281h-0.07c-0.06-0.176-0.108-0.368-0.149-0.58
			l-0.061-0.019c-0.066-0.182-0.141-0.47-0.225-0.865c-0.144-0.353-0.284-0.706-0.422-1.062c-0.077-0.203-0.238-0.768-0.481-1.693
			c-0.037-0.15-0.082-0.3-0.135-0.449c-0.01-0.027-0.02-0.059-0.028-0.089c-0.062-0.181-0.134-0.361-0.215-0.542
			c-0.004,0.156-0.008,0.327-0.014,0.514h-0.141c-0.132-0.371-0.23-0.824-0.295-1.36c0-0.013-0.002-0.024-0.005-0.032
			c-0.524-0.812-0.904-1.432-1.141-1.862c-0.421-0.761-0.616-1.354-0.585-1.781v-0.005c-0.1-0.25-0.149-0.451-0.149-0.604
			c0-0.219-0.055-0.632-0.164-1.24c-0.115-0.596-0.178-0.93-0.188-1.005c-0.087-0.552-0.296-0.989-0.626-1.31
			c-0.156-0.152-0.259-0.273-0.309-0.36c-0.088-0.155-0.131-0.36-0.131-0.612c-0.004-0.074,0-0.146,0.009-0.215
			c-0.1-0.263-0.149-0.553-0.149-0.87c-0.01-0.468,0.026-0.919,0.107-1.353c0.003-0.021,0.008-0.043,0.014-0.064
			c0.038-0.939,0.363-2.119,0.978-3.541c0.328-0.721,0.552-1.217,0.674-1.492c0.206-0.457,0.309-0.756,0.309-0.893
			c0-0.231-0.426-1.134-1.276-2.707c-0.06-0.061-0.12-0.124-0.183-0.192c-0.213-0.231-0.389-0.476-0.529-0.734
			c-0.124-0.228-0.187-0.394-0.187-0.496c0-0.078,0.006-0.149,0.019-0.215c-0.34-0.652-0.51-1.005-0.51-1.058
			c0-0.187,0.318-0.811,0.954-1.87c0.617-1.023,1.048-1.67,1.291-1.94c0.28-0.375,0.632-0.639,1.053-0.791
			c0.071-0.084,0.146-0.168,0.224-0.253c0.6-0.655,1.105-0.981,1.521-0.981c0.152,0,0.332,0.051,0.538,0.154l0.312,0.149
			c0.085,0,0.162-0.046,0.234-0.136c0.075-0.097,0.157-0.153,0.248-0.168l0.771-0.023c0.053,0.103,0.104,0.258,0.154,0.467
			c0,0.004,0,0.007,0,0.01c0.071-0.006,0.147-0.01,0.229-0.01c0.146,0.047,0.268,0.151,0.365,0.313
			c0.111,0.19,0.224,0.319,0.336,0.388l0.562,0.07c0.09,0.122,0.165,0.2,0.225,0.234c0.03,0.016,0.088,0.109,0.173,0.281
			c0.027-0.01,0.094-0.051,0.196-0.122c0.122-0.085,0.188-0.13,0.201-0.136c0.225,0.113,0.363,0.201,0.416,0.268
			c0.007,0.039,0.017,0.061,0.028,0.061c0.093,0,0.183-0.004,0.267-0.01l0.131-0.015c0.016,0.041,0.029,0.064,0.042,0.07
			c0.003,0.006,0.004,0.058,0.004,0.154s-0.002,0.146-0.009,0.149c-0.007,0.004-0.026,0.012-0.061,0.023
			c0.24,0.035,0.409,0.102,0.51,0.201c0.081,0.084,0.122,0.201,0.122,0.351c0,0.141-0.012,0.231-0.033,0.272
			c-0.031,0.059-0.087,0.107-0.168,0.145c0.015,0.006,0.03,0.013,0.047,0.019c0.043-0.056,0.103-0.112,0.178-0.169l0.678-0.023
			c0.053,0.041,0.098,0.076,0.136,0.108c0.065,0.062,0.098,0.14,0.098,0.233c0,0.041-0.006,0.1-0.018,0.178
			c-0.004,0.004,0.018,0.01,0.064,0.02c0.149-0.062,0.295-0.091,0.436-0.084c0.178,0.009,0.267,0.08,0.267,0.215
			c0.09,0.012,0.309,0.129,0.654,0.35L91.523,81.103z"/>
	</g>
	<g id="Layer_6_10_">
		<path id="path11_14_" fill="#010101" d="M90.98,84.114c0.64,0.667,1.372,1.771,2.198,3.312c0.897,1.662,1.73,2.944,2.497,3.85
			c1.369,1.615,2.558,3.879,3.563,6.795c0.983,2.863,1.475,5.408,1.475,7.637c0,0.156-0.01,0.316-0.029,0.481
			c-0.161,0.222-0.363,0.498-0.607,0.829c-0.48,0.654-0.832,1.178-1.057,1.57c-0.455,0.802-1.351,1.852-2.685,3.152
			c-0.212,0.206-0.765,0.731-1.66,1.576c-0.658,0.62-1.155,1.107-1.492,1.459c-0.492,0.512-1.187,1.027-2.081,1.544
			c-0.608,0.353-1.492,0.8-2.652,1.342c-1.393,0.652-2.314,1.095-2.764,1.328c-0.997,0.521-1.799,1.021-2.404,1.502
			c-0.152,0.118-0.628,0.304-1.426,0.556c-0.396,0.125-0.723,0.263-0.978,0.412c-0.181-0.031-0.394,0.013-0.636,0.131
			c-0.287,0.137-0.528,0.335-0.726,0.594c-0.012,0.02-0.025,0.037-0.042,0.057c0.044,0.162,0.066,0.343,0.066,0.543
			c0,0.283-0.133,0.61-0.398,0.981c-0.057,0.077-0.117,0.151-0.182,0.22c-0.141,0.293-0.349,0.604-0.623,0.931
			c-0.367,0.439-0.921,0.974-1.66,1.6c-0.021,0-0.044-0.001-0.064-0.004c-0.092,0.034-0.195,0.052-0.314,0.052
			c-0.265,0-0.512-0.104-0.739-0.311c-0.221,0.238-0.457,0.356-0.71,0.356c-0.438,0-0.755-0.175-0.954-0.523
			c-0.321,0.239-0.627,0.359-0.917,0.359c-0.499,0-0.826-0.253-0.982-0.757c-0.027-0.094-0.05-0.212-0.064-0.355
			c-0.025,0-0.05,0-0.075,0c-0.396,0-0.708-0.352-0.936-1.053c-0.019-0.062-0.038-0.123-0.057-0.183
			c-0.009-0.185-0.014-0.278-0.014-0.285c0.016-0.134,0.024-0.267,0.028-0.397c0.131-0.234,0.274-0.494,0.43-0.781
			c0.029-0.05,0.055-0.1,0.08-0.149c-0.084-0.06-0.154-0.139-0.211-0.239c-0.078-0.139-0.116-0.291-0.116-0.453
			c-0.004-0.162,0.044-0.314,0.145-0.458c0.118-0.171,0.296-0.29,0.533-0.356c0.196-0.586,0.523-1.143,0.981-1.674
			c0.69-0.795,1.564-1.42,2.625-1.875c0.09-0.037,0.178-0.073,0.261-0.107c0.223-0.175,0.419-0.33,0.59-0.468
			c0.661-0.274,1.216-0.507,1.665-0.697c1.49-0.632,2.697-1.251,3.62-1.856c0.62-0.408,1.242-0.998,1.866-1.768
			c0.112-0.138,0.66-0.884,1.646-2.24c0.711-0.973,1.372-1.766,1.982-2.376c0.858-0.864,1.812-1.591,2.863-2.18
			c-0.278-0.33-0.811-1.284-1.6-2.862c-0.83-1.646-1.659-3.422-2.488-5.326c-2.192-5.033-3.288-8.359-3.288-9.98
			c0-0.661,0.083-1.258,0.248-1.791c0.225-0.724,0.593-1.295,1.104-1.713c0.866-0.963,1.972-1.478,3.315-1.543
			C88.604,82.451,89.887,82.982,90.98,84.114z"/>
	</g>
	<g id="Layer_7_16_">
		<path id="path14_14_" fill="#010101" d="M113.224,146.555l0.07-0.023c-0.256,0.044-0.516,0.084-0.78,0.122
			c-0.088,0.065-0.175,0.128-0.263,0.187c0.041-0.006,0.08-0.014,0.117-0.023c0.003,0,0.008,0,0.014,0
			c-0.013,0.004-0.024,0.007-0.037,0.01c-0.04,0.014-0.082,0.025-0.122,0.038c-0.149,0.105-0.294,0.208-0.435,0.309
			c0.493-0.135,1.143-0.301,1.95-0.501c-0.188-0.016-0.358-0.023-0.515-0.023c-0.14,0-0.304,0.021-0.491,0.066
			C112.867,146.674,113.031,146.621,113.224,146.555z M113.275,146.111c-0.01,0.006-0.021,0.014-0.033,0.023
			c0.034-0.01,0.067-0.018,0.099-0.023C113.315,146.114,113.294,146.114,113.275,146.111L113.275,146.111z M111.082,147.664
			c-0.034,0.024-0.07,0.049-0.107,0.074c0.228-0.044,0.471-0.096,0.729-0.154C111.498,147.6,111.291,147.626,111.082,147.664z
			 M113.948,146.157l0.048-0.022c-0.274,0.059-0.642,0.176-1.1,0.351l0.023,0.023c0.068-0.016,0.223-0.049,0.463-0.099
			C113.613,146.352,113.802,146.268,113.948,146.157z M114.884,145.105l-0.205-0.01c-0.066,0.051-0.135,0.1-0.207,0.15
			C114.604,145.199,114.741,145.152,114.884,145.105z M116.24,144.217l-0.332-0.004c-0.034,0.024-0.07,0.049-0.107,0.074
			C115.935,144.266,116.081,144.241,116.24,144.217z M118.167,142.706c-0.043,0.013-0.089,0.022-0.135,0.028
			c-0.025,0.016-0.051,0.031-0.075,0.047c0.084-0.016,0.169-0.033,0.258-0.051L118.167,142.706z M118.42,142.486
			c0.14-0.021,0.228-0.043,0.262-0.061c-0.05,0.003-0.116,0.01-0.2,0.018C118.462,142.457,118.441,142.471,118.42,142.486z
			 M93.361,119.336c0.957-0.951,1.953-1.576,2.988-1.875c1.044-0.303,2.043-0.25,2.993,0.158c0.992,0.424,1.861,1.204,2.609,2.338
			c1.7,2.572,2.549,6.497,2.549,11.772c0,1.261-0.249,2.833-0.748,4.72c-0.125,0.47-0.296,1.099-0.515,1.884
			c-0.155,0.597-0.233,1.014-0.233,1.253c0,0.197,0.008,0.287,0.023,0.271l0.023-0.084c0.536-0.236,2.161-0.551,4.873-0.94
			c3.047-0.437,4.695-0.684,4.948-0.743c0.34-0.081,0.807-0.287,1.398-0.617c0.228-0.128,0.781-0.46,1.661-0.996
			c1.459-0.889,2.45-1.333,2.974-1.333c0.219,0,0.502-0.103,0.852-0.308c0.108-0.062,0.449-0.287,1.019-0.674
			c0.968-0.656,1.755-0.982,2.362-0.982c0.985,0,1.898,0.625,2.741,1.875c0.421,0.63,0.754,1.283,1.001,1.959
			c0.181,0.4,0.512,0.8,0.995,1.203c0.243,0.199,0.708,0.526,1.395,0.981c0.586,0.39,1,0.705,1.238,0.945
			c0.355,0.358,0.534,0.719,0.534,1.08c0,0.187-0.024,0.374-0.075,0.562c-0.072,0.265-0.109,0.405-0.111,0.42
			c0.477-0.039,0.835,0.065,1.075,0.318c0.155,0.166,0.233,0.324,0.233,0.478c0,0.203-0.043,0.337-0.131,0.401
			c-0.053,0.044-0.165,0.098-0.337,0.16c0.368,0.103,0.62,0.287,0.758,0.551c0.087,0.166,0.131,0.379,0.131,0.642
			c0,0.171-0.074,0.31-0.225,0.416c-0.187,0.138-0.47,0.2-0.851,0.192l0.187,0.14c0.365,0.185,0.586,0.395,0.664,0.632
			c0.025,0.071,0.038,0.281,0.038,0.631c0,0.062-0.311,0.562-0.932,1.501c-0.639,0.964-1.015,1.446-1.127,1.446
			c-0.211,0-0.603-0.604-1.174-1.811c-0.661-1.394-1.064-2.179-1.211-2.353c-0.589-0.702-1.032-1.216-1.328-1.543
			c-0.508-0.559-0.988-1.005-1.44-1.339c-1.179-0.869-2.633-1.304-4.364-1.304c-0.355,0-0.976,0.261-1.86,0.786
			c0.274-0.004,0.617-0.006,1.028-0.006v0.023c-0.121,0.034-0.639,0.248-1.553,0.641c-0.411,0.182-0.76,0.302-1.047,0.36
			c-0.017,0.01-0.032,0.019-0.048,0.028h0.146c0.281-0.094,0.507-0.16,0.678-0.201c0.106-0.027,0.168-0.047,0.188-0.057
			c0.047,0.048,0.07,0.094,0.07,0.141c-0.219,0.159-0.652,0.289-1.3,0.389c-0.072,0.01-0.143,0.019-0.211,0.028
			c-0.047,0.03-0.099,0.066-0.154,0.106c0.06-0.009,0.118-0.017,0.179-0.022c0.566-0.072,0.977-0.118,1.229-0.136
			c0.007-0.031,0.015-0.053,0.023-0.066c0.016-0.021,0.024,0.016,0.024,0.113c0,0.103-0.475,0.197-1.423,0.285
			c-0.112,0.01-0.218,0.021-0.317,0.032c-0.103,0.072-0.215,0.151-0.337,0.239c0.361-0.004,0.682-0.01,0.959-0.02
			c0.548-0.015,0.859-0.022,0.931-0.022c-0.68,0.181-1.498,0.341-2.455,0.481c-0.022,0.004-0.043,0.006-0.062,0.01
			c-0.172,0.124-0.355,0.257-0.552,0.396h0.113c0.074,0,0.377-0.073,0.906-0.22c0.53-0.149,0.819-0.224,0.87-0.224
			c0.096,0,0.138,0.012,0.122,0.037c-0.007,0.01-0.024,0.021-0.053,0.032c-0.158,0.075-0.706,0.279-1.646,0.612
			c-0.54,0.194-0.987,0.362-1.342,0.506c-0.122,0.088-0.243,0.174-0.365,0.262h0.431c0.068-0.016,0.477-0.162,1.225-0.439
			c0.681-0.253,1.09-0.379,1.23-0.379c-0.293,0.159-0.842,0.416-1.646,0.771c-0.655,0.293-1.158,0.512-1.511,0.655l0.795,0.022v0.07
			c-0.512,0.203-1.07,0.371-1.678,0.506c-0.257,0.05-0.5,0.096-0.73,0.14c-0.1,0.068-0.196,0.138-0.29,0.206l1.903-0.383
			c0.062,0,0.117,0.015,0.164,0.046c-0.33,0.104-0.676,0.241-1.033,0.412c-0.378,0.192-0.662,0.333-0.853,0.421
			c-0.448,0.199-0.947,0.333-1.495,0.401c-2.383,1.606-4.451,2.819-6.206,3.64c-2.593,1.213-4.751,1.716-6.478,1.51h-5.449
			c-0.93-0.512-1.635-1.144-2.118-1.898c-0.399-0.624-0.664-1.369-0.796-2.235c-0.077-0.515-0.123-1.292-0.135-2.329
			c-0.01-1.008-0.054-1.736-0.131-2.189c-0.132-0.742-0.263-2.395-0.394-4.957c-0.112-2.146-0.168-3.517-0.168-4.115
			c0-4.982,0.849-9.205,2.549-12.67C91.503,121.574,92.373,120.318,93.361,119.336z"/>
	</g>
	<g id="Layer_8_12_">
		<path id="path17_16_" fill="#010101" d="M76.159,163.626h0.034c-0.013-0.05-0.024-0.101-0.034-0.149V163.626z M75.364,155.731
			c-0.043,0.493-0.051,1.077-0.023,1.754c0.048-0.327,0.07-0.671,0.07-1.029c0-0.327-0.015-0.562-0.047-0.702V155.731z
			 M75.201,155.193h0.023c0-0.09,0-0.18,0-0.267c-0.013-0.062-0.023-0.124-0.033-0.183C75.194,154.91,75.198,155.06,75.201,155.193z
			 M95.325,117.994c0.914,0.479,1.633,1.177,2.156,2.09c0.564,0.992,0.847,2.152,0.847,3.484c0,1.688-0.277,3.584-0.832,5.691
			c-0.614,2.338-1.485,4.574-2.61,6.707c-1.287,2.432-2.811,4.533-4.569,6.304c-2.001,2.015-4.234,3.513-6.696,4.495
			c0.654,1.15,1.159,2.69,1.515,4.621c0.299,1.618,0.449,3.211,0.449,4.779c0,1.49-0.108,2.616-0.323,3.377
			c-0.137,0.492-0.373,0.938-0.706,1.338c-0.358,0.427-0.594,0.797-0.706,1.107c-0.215,0.59-0.323,1.486-0.323,2.689
			c0,0.156,0.062,0.975,0.188,2.456c0.125,1.48,0.188,2.299,0.188,2.455c0,0.013,0.017,0.18,0.051,0.5
			c0.013,0.341-0.026,0.65-0.117,0.932c0.175,1.166,0.468,2.315,0.88,3.451c0.021,0.134,0.047,0.284,0.074,0.448
			c0.126,0.733,0.188,1.178,0.188,1.334c0,1.643-0.505,2.765-1.515,3.367c-0.708,0.421-1.821,0.625-3.34,0.612
			c-0.402-0.003-0.994-0.017-1.777-0.038c-0.657-0.002-1.177,0.031-1.557,0.104c-0.219,0.041-0.415,0.1-0.59,0.178
			c-0.29-0.043-0.583-0.087-0.879-0.131c-0.026,0-0.501,0.109-1.427,0.328c-0.929,0.217-1.405,0.326-1.427,0.326
			c-1.003,0-2.097-0.295-3.278-0.884c-0.526-0.261-0.949-0.532-1.267-0.813c-0.338-0.299-0.506-0.567-0.506-0.805
			c0-0.144,0.038-0.275,0.112-0.396c0.112-0.188,0.324-0.391,0.637-0.609c1.633-0.289,2.976-0.686,4.026-1.188
			c1.728-0.508,3.034-1.35,3.919-2.525c0.498-0.664,0.835-1.402,1.01-2.213c0.057-0.27,0.093-0.551,0.108-0.841
			c0.019-0.028,0.037-0.055,0.056-0.079c-0.016-0.029-0.033-0.057-0.052-0.084v-0.006c-0.373,0.799-0.606,1.242-0.696,1.334
			c-0.031-0.007-0.06-0.008-0.084-0.006c-0.006-0.002-0.01-0.056-0.01-0.158c0-0.082,0.047-0.307,0.14-0.679
			c0.095-0.371,0.141-0.565,0.141-0.585c0-0.155,0.024-0.406,0.07-0.752c0.047-0.347,0.07-0.551,0.07-0.613
			c0-0.33-0.039-0.871-0.116-1.623c-0.079-0.754-0.117-1.352-0.117-1.791l-0.023,0.047c-0.032,0.187-0.07,0.46-0.117,0.818
			l-0.094-0.047c-0.05-0.998-0.166-2.212-0.351-3.643c-0.051-0.384-0.095-0.738-0.136-1.062c0.031-0.243,0.096-0.796,0.191-1.656
			c-0.016-0.387-0.042-0.683-0.078-0.889c-0.01-0.056-0.021-0.11-0.034-0.163c-0.071,0.764-0.106,1.359-0.106,1.785
			c0,0.322,0.003,0.58,0.008,0.777c-0.154-1.263-0.252-2.07-0.289-2.423v-2.264c-0.038-0.202-0.074-0.401-0.112-0.599
			c-0.013,0.873-0.037,1.582-0.075,2.124l-0.093-0.023c-0.19-1.961-0.333-3.435-0.426-4.42c-0.06-0.62-0.109-1.205-0.15-1.754
			c-0.046-0.278-0.093-0.544-0.14-0.8c-0.677-3.748-1.015-5.769-1.015-6.062c0-0.661,0.189-1.723,0.57-3.185
			c0.065-0.256,0.135-0.515,0.206-0.777c-0.069-0.389-0.134-0.795-0.197-1.215c0.172-0.353,0.33-0.755,0.473-1.207
			c0.196-0.617,0.39-1.398,0.58-2.343c0.185-0.93,0.295-1.45,0.332-1.562c0.166-0.468,0.547-1.236,1.146-2.306
			c0.604-0.813,1.255-1.592,1.949-2.334c0.066-0.07,0.132-0.141,0.196-0.21c0.614-1.104,1.24-2.083,1.876-2.937
			c0.994-1.338,2.318-2.857,3.971-4.561c1.469-1.512,3.061-3.032,4.774-4.56c0.945-0.548,1.943-0.845,2.994-0.884
			C93.49,117.315,94.446,117.529,95.325,117.994z M76.521,165.127c-0.022-0.097-0.044-0.191-0.066-0.285
			c-0.009,0.166-0.014,0.316-0.014,0.453c0,0.307,0.008,0.521,0.023,0.646v-0.024c0.028-0.168,0.061-0.364,0.099-0.589
			C76.55,165.263,76.536,165.195,76.521,165.127L76.521,165.127z M76.843,166.778c-0.003,0.036-0.005,0.07-0.005,0.098
			c0.007-0.019,0.012-0.037,0.014-0.056C76.85,166.805,76.846,166.79,76.843,166.778L76.843,166.778z M77.081,168.335
			c-0.009,0.087-0.02,0.187-0.033,0.295c0.02-0.054,0.036-0.106,0.052-0.159C77.094,168.424,77.088,168.379,77.081,168.335
			L77.081,168.335z M77.025,169.238c0-0.091-0.005-0.164-0.015-0.221c-0.006-0.055-0.009-0.089-0.009-0.098l-0.187,0.912h0.046
			c0.06-0.135,0.099-0.23,0.116-0.291C77.01,169.445,77.025,169.344,77.025,169.238z M76.815,167.797c0,0.109,0,0.171,0.004,0.184
			l0.019,0.042l0.023-0.024c0.044-0.152,0.081-0.301,0.112-0.443c-0.031-0.193-0.064-0.392-0.099-0.595
			C76.835,167.178,76.815,167.457,76.815,167.797L76.815,167.797z M77.235,170.342c-0.174,0.438-0.346,0.805-0.515,1.104
			c0.016,0.031,0.031,0.039,0.047,0.023c0.178-0.358,0.334-0.689,0.468-0.992c0-0.021,0-0.044,0-0.07
			C77.235,170.385,77.235,170.363,77.235,170.342L77.235,170.342z M77.212,169.691c-0.202,0.412-0.304,0.713-0.304,0.903
			c0,0.096,0.001,0.145,0.005,0.145c0,0.003,0.006,0.005,0.019,0.005l0.023-0.023c0.093-0.19,0.186-0.405,0.275-0.646
			C77.228,169.95,77.222,169.822,77.212,169.691L77.212,169.691z M76.908,170.814c0-0.021-0.055-0.021-0.163,0l-0.024,0.188
			c0,0.046,0.008,0.085,0.024,0.116C76.819,171.019,76.874,170.916,76.908,170.814z"/>
	</g>
</g>
</svg>
