<?xml version="1.0" encoding="utf-8"?>
<!-- Generator: Adobe Illustrator 15.0.0, SVG Export Plug-In . SVG Version: 6.00 Build 0)  -->
<svg version="1.2" baseProfile="tiny" id="Layer_1" xmlns="http://www.w3.org/2000/svg" xmlns:xlink="http://www.w3.org/1999/xlink"
	 x="0px" y="0px" width="200px" height="200px" viewBox="0 0 200 200" overflow="inherit" xml:space="preserve">
<g>
	<g id="Layer_3_14_">
		<path id="path5_17_" fill="#010101" d="M92.032,76.145c0.067-0.141,0.148-0.287,0.242-0.439c0.338-0.548,0.693-0.828,1.063-0.841
			c0.228-0.215,0.399-0.394,0.515-0.538l0.052,0.001l-0.002,0.071c0,0.004-0.251,0.341-0.752,1.009
			c0.009-0.004,0.019-0.008,0.027-0.012c0.122-0.083,0.233-0.165,0.333-0.244c0.019-0.021,0.038-0.042,0.06-0.063
			c0.163-0.169,0.329-0.31,0.5-0.422c0.203-0.215,0.303-0.389,0.301-0.522c0.057-0.012,0.096-0.011,0.116,0.002l-0.001,0.071
			c0,0.009-0.119,0.144-0.357,0.406c0.423-0.267,0.865-0.36,1.323-0.281c-0.178,0.07-0.352,0.153-0.521,0.253
			c0.232-0.03,0.5-0.073,0.803-0.131l0-0.013c0.013-0.034,0.08-0.045,0.2-0.035l0.007,0.007c0.061-0.012,0.119-0.023,0.175-0.035
			c0.16-0.057,0.338-0.118,0.533-0.182c-0.172-0.008-0.308-0.008-0.406-0.002c-0.07,0.007-0.112,0.011-0.129,0.01l0.021-0.051
			c0.065-0.028,0.259-0.045,0.582-0.052v0.02c0.009,0,0.02-0.006,0.032-0.019c0.009-0.004,0.013,0.028,0.011,0.097
			c0,0.017-0.048,0.046-0.144,0.087c0.522-0.07,1.059-0.04,1.611,0.093c0.443,0.014,0.916,0.05,1.417,0.108
			c-0.13,0.031-0.421,0.067-0.874,0.11c0.163-0.001,0.306,0.002,0.426,0.009l0.122,0.002c0.262,0.01,0.528,0.044,0.798,0.102
			c0.604,0.125,1.128,0.33,1.573,0.615l-0.032,0.032c-0.025-0.005-0.05-0.01-0.071-0.015c-0.077,0.015-0.124,0.029-0.143,0.042
			l-0.007,0.006c0.039,0.005,0.072,0.013,0.103,0.022c0.073,0.005,0.188,0.011,0.342,0.014c-0.077,0.007-0.148,0.014-0.214,0.021
			c0.336,0.076,0.506,0.114,0.515,0.114l0.406,0.022c0,0.017-0.063,0.035-0.188,0.054c0.103,0.006,0.164,0.027,0.185,0.062
			c-0.15,0.019-0.279,0.026-0.387,0.024c-0.014,0-0.132-0.02-0.355-0.059c-0.037-0.001-0.108-0.007-0.211-0.018
			c0.025,0.031,0.041,0.063,0.049,0.099c-0.072-0.041-0.139-0.079-0.197-0.114c-0.043-0.005-0.088-0.011-0.135-0.016
			c0.293,0.131,0.579,0.297,0.854,0.496c0.629,0.194,1.071,0.387,1.33,0.578c-0.039-0.014-0.137-0.04-0.296-0.078
			c0.052,0.026,0.101,0.056,0.147,0.087c0.188,0.064,0.386,0.133,0.595,0.207c0,0.009-0.009,0.019-0.025,0.032
			c0.071,0.027,0.146,0.057,0.216,0.089c-0.101-0.024-0.197-0.047-0.288-0.071c-0.034,0.003-0.077,0.007-0.129,0.01
			c-0.013-0.004-0.025-0.009-0.039-0.014c0.026,0.022,0.05,0.044,0.069,0.066l-0.097,0.01c-0.046-0.036-0.097-0.071-0.152-0.106
			l-0.038,0.006c-0.205-0.078-0.43-0.154-0.673-0.228c-0.038-0.009-0.079-0.017-0.122-0.022c0.242,0.126,0.444,0.253,0.604,0.381
			c0.12,0.012,0.236,0.022,0.348,0.034c0,0.021-0.061,0.04-0.182,0.054c0.038,0.022,0.076,0.042,0.115,0.061l-0.092,0.011
			l0.007,0.006c0.245,0.027,0.478,0.047,0.695,0.061c-0.008-0.014-0.01-0.031-0.005-0.052c0.009-0.025,0.029-0.036,0.059-0.031
			c0.005,0.021,0.019,0.048,0.044,0.078c0.033,0.035,0.055,0.06,0.062,0.072c-0.25,0.016-0.486,0.026-0.71,0.03
			c0.029,0.035,0.052,0.072,0.068,0.111c0.25,0.147,0.418,0.271,0.501,0.372l-0.097,0.011c-0.11-0.05-0.217-0.1-0.319-0.149
			c0.085,0.049,0.166,0.098,0.242,0.146c0.192,0.065,0.378,0.14,0.557,0.226l-0.033,0.031c-0.098-0.045-0.198-0.084-0.301-0.116
			c0.226,0.138,0.42,0.265,0.585,0.38l-0.122-0.002c0.29,0.104,0.608,0.219,0.954,0.343l-0.162,0.01
			c-0.346-0.094-0.742-0.206-1.187-0.335c0.022,0.026,0.038,0.054,0.05,0.085c0.354,0.141,0.688,0.267,1.005,0.376
			c-0.014,0.038-0.04,0.083-0.08,0.133l-0.053,0.058c-0.08-0.037-0.179-0.084-0.294-0.142c0.004,0.017,0.006,0.039,0.006,0.064
			c-0.001,0.021-0.003,0.041-0.009,0.058c-0.005,0.034-0.014,0.058-0.026,0.07l-0.033,0.025c-0.013,0-0.023,0.002-0.032,0.006
			c0.018,0.018,0.026,0.026,0.031,0.026l-0.226,0.008c-0.009-0.009-0.017-0.02-0.024-0.032c-0.014-0.001-0.026-0.001-0.039-0.001
			c-0.009,0-0.021,0-0.039-0.001c0.062,0.079,0.108,0.157,0.138,0.235c0.071,0.041,0.144,0.083,0.216,0.127
			c-0.071-0.096-0.162-0.191-0.271-0.283c0.221,0.151,0.366,0.279,0.437,0.383c0.137,0.076,0.272,0.154,0.407,0.235
			c-0.07-0.041-0.2-0.105-0.388-0.196l-0.061,0.057c-0.02-0.044-0.045-0.085-0.074-0.125c-0.055-0.031-0.116-0.062-0.186-0.094
			c0.291,0.294,0.434,0.538,0.431,0.731c-0.002,0.064-0.01,0.1-0.022,0.103c-0.021-0.004-0.043,0.001-0.064,0.018l-0.064-0.021
			c0.047-0.21-0.223-0.526-0.812-0.947c0.487,0.557,0.818,1.01,0.996,1.357c-0.235-0.229-0.447-0.434-0.632-0.614
			c0.004,0.008,0.011,0.02,0.019,0.032c0.51,0.523,0.837,0.978,0.983,1.364l-0.097,0.012c-0.125-0.368-0.521-0.855-1.188-1.458
			c-0.098-0.088-0.188-0.17-0.272-0.245c0.005,0.004,0.007,0.013,0.006,0.026c0.677,0.746,1.011,1.265,1.005,1.558
			c-0.003,0.133-0.016,0.191-0.036,0.173l-0.031-0.065c-0.142-0.39-0.435-0.863-0.878-1.419c0.015,0.061,0.031,0.124,0.047,0.188
			c0.126,0.144,0.252,0.31,0.376,0.499c0.101,0.153,0.33,0.556,0.689,1.209c-0.008,0.017-0.03,0.028-0.064,0.038l-0.052,0.004
			c-0.264-0.319-0.506-0.618-0.729-0.893c0.184,0.28,0.328,0.513,0.437,0.699c0.248,0.247,0.45,0.443,0.606,0.588
			c-0.165-0.133-0.341-0.281-0.526-0.443c0.116,0.199,0.175,0.33,0.174,0.39c-0.003,0.091-0.021,0.127-0.056,0.108
			c0.178,0.318,0.266,0.582,0.261,0.793c-0.003,0.138-0.024,0.222-0.063,0.25c-0.013,0.003-0.028,0.008-0.046,0.013
			c0.023,0.069,0.046,0.14,0.066,0.213c-0.039-0.005-0.096-0.04-0.172-0.106c-0.004-0.031-0.011-0.062-0.023-0.098l-0.025-0.032
			c0-0.018,0-0.035,0.002-0.053c-0.064-0.229-0.194-0.554-0.392-0.975c0.006,0.047,0.011,0.092,0.01,0.135
			c-0.002,0.053-0.001,0.123,0.001,0.213c0.253,0.441,0.378,0.735,0.375,0.886c-0.003,0.129-0.013,0.198-0.03,0.206
			c-0.039-0.005-0.073,0.007-0.104,0.037c-0.006,0.064-0.014,0.111-0.022,0.141c0.005,0.021,0.005,0.043,0.005,0.065
			c-0.003,0.155-0.034,0.294-0.093,0.417l-0.064-0.013c0.007-0.117,0.004-0.239-0.011-0.368l-0.077-0.021
			c0.02-0.055,0.033-0.114,0.042-0.173c-0.003-0.03-0.009-0.059-0.017-0.084c-0.004-0.026-0.011-0.052-0.018-0.078
			c-0.044-0.173-0.106-0.358-0.188-0.553c0.043,0.211,0.089,0.459,0.139,0.745c0.173,0.959,0.255,1.592,0.249,1.902
			c-0.007,0.31-0.041,0.566-0.102,0.771l-0.045-0.001c-0.11-0.656-0.208-1.276-0.295-1.858l-0.006,0
			c-0.011-0.09-0.025-0.18-0.04-0.271l-0.034,1.574c-0.018,0.051-0.046,0.158-0.084,0.32c-0.004,0.013-0.01,0.024-0.014,0.032
			c-0.002,0.116-0.007,0.2-0.011,0.251c-0.044,0.347-0.129,0.584-0.262,0.71c0.062-0.08,0.092-0.136,0.088-0.166
			c-0.013-0.025-0.019-0.045-0.019-0.058l0.018-0.792c-0.028,0.265-0.065,0.497-0.111,0.694c-0.035-0.013-0.061-0.032-0.077-0.054
			l-0.019-0.025l-0.002-0.182c-0.104,0.45-0.269,0.672-0.492,0.667c-0.004,0-0.011,0-0.02,0c-0.046,0.098-0.1,0.146-0.164,0.145
			c-0.068-0.001-0.114-0.008-0.136-0.022h-0.006c0,0.021-0.001,0.043-0.001,0.064c-0.032,0.029-0.054,0.05-0.066,0.063
			c-0.022,0.013-0.064,0.018-0.129,0.017H102.8c-0.018,0.008-0.038,0.013-0.06,0.012c-0.017,0-0.034-0.001-0.051-0.001
			c-0.041,0.303-0.08,0.498-0.115,0.583c0.002,0.057,0.003,0.106,0.002,0.149c-0.001,0.069-0.006,0.112-0.016,0.128
			c-0.017,0.014-0.035,0.025-0.053,0.038l-0.109-0.015c-0.044-0.139-0.082-0.265-0.114-0.376l0.001,0.58
			c0.007,0.064,0.01,0.109,0.01,0.136c-0.001,0.034-0.004,0.062-0.009,0.084l0.006,0.058h-0.013c0.043,0.397,0.062,0.69,0.058,0.878
			c-0.003,0.107-0.02,0.131-0.053,0.071c-0.056-0.024-0.11-0.067-0.165-0.133c0.005,0.004,0.004,0.01-0.002,0.019
			c0.015,0.151,0.022,0.248,0.021,0.291c-0.001,0.064-0.009,0.104-0.022,0.116c-0.021,0.004-0.036,0.012-0.045,0.025
			c-0.02-0.02-0.04-0.065-0.064-0.134c0.002,0.01,0.003,0.02,0.002,0.03c0.078,0.182,0.162,0.392,0.251,0.631
			c0.091,0.199,0.195,0.425,0.315,0.678c-0.081-0.032-0.159-0.085-0.236-0.16c0.094,0.294,0.205,0.639,0.334,1.034l-0.098,0.016
			c-0.059-0.108-0.176-0.446-0.354-1.014c-0.009,0.004-0.019,0.011-0.032,0.018c-0.021-0.022-0.047-0.059-0.082-0.111
			c0.014,0.048,0.024,0.101,0.036,0.156c0.153,0.295,0.229,0.445,0.229,0.449c-0.001,0.069-0.012,0.102-0.034,0.097l-0.032-0.021
			l-0.064-0.001l0.283,0.697c0.166,0.231,0.339,0.417,0.516,0.559l-0.161,0.049c-0.086-0.05-0.166-0.104-0.242-0.167
			c0.033,0.065,0.05,0.109,0.049,0.13c0,0.004,0,0.009,0,0.013c0.177,0.176,0.356,0.328,0.538,0.457
			c0,0.056-0.006,0.091-0.015,0.103c0.059,0.04,0.117,0.081,0.171,0.121c-0.003,0.107-0.018,0.138-0.046,0.095l-0.026,0.006
			c0.028,0.027,0.055,0.053,0.075,0.079c0.105,0.097,0.21,0.205,0.316,0.323c0.016,0.022,0.034,0.044,0.057,0.066
			c0.399,0.388,0.684,0.651,0.853,0.793l-0.032,0.031c-0.067-0.066-0.26-0.242-0.576-0.528c0.126,0.153,0.264,0.328,0.415,0.525
			l-0.098,0.018c-0.003-0.004-0.008-0.007-0.012-0.007c0.204,0.285,0.311,0.484,0.321,0.601c0.092,0.144,0.153,0.272,0.186,0.384
			l-0.079,0.044c0.043,0.052,0.084,0.106,0.126,0.164c-0.013,0.034-0.053,0.062-0.118,0.082c-0.262-0.247-0.494-0.503-0.699-0.771
			c-0.05-0.065-0.096-0.127-0.138-0.184c-0.071-0.075-0.145-0.151-0.221-0.23c-0.193-0.207-0.347-0.375-0.461-0.507
			c0.593,1.287,1.02,2.397,1.284,3.332c0.062,0.225,0.121,0.45,0.172,0.675c0.336,0.605,0.603,1.57,0.802,2.896
			c0.185,1.218,0.285,2.477,0.305,3.781c-0.033,1.564-0.151,2.899-0.351,4.006c-0.133,0.72-0.349,1.523-0.646,2.412
			c-0.02,0.06-0.037,0.117-0.057,0.173c0.035,0.229,0.051,0.391,0.049,0.485c-0.002,0.107-0.016,0.241-0.041,0.405l-0.046-0.001
			c0-0.004-0.03-0.165-0.093-0.479c-0.055,0.175-0.108,0.339-0.158,0.494c0.007,0.034,0.018,0.07,0.029,0.109
			c0.012,0.043,0.034,0.108,0.067,0.194l-0.064-0.014c-0.021-0.061-0.044-0.117-0.067-0.17c-0.043,0.155-0.082,0.301-0.12,0.437
			c0.073,0.234,0.108,0.406,0.106,0.519c-0.002,0.068-0.005,0.107-0.01,0.116c0,0.004-0.009,0.008-0.026,0.013l-0.031-0.033
			c-0.02-0.112-0.051-0.25-0.094-0.408c-0.029,0.114-0.056,0.222-0.079,0.321c0.048,0.172,0.071,0.291,0.07,0.355
			c-0.003,0.107-0.017,0.243-0.041,0.406l-0.064-0.016c-0.004-0.034-0.022-0.118-0.059-0.253c-0.001,0.014-0.003,0.026-0.009,0.039
			c0.036,0.134,0.057,0.268,0.062,0.401c-0.001,0.111-0.027,0.297-0.076,0.554l-0.052-0.002c-0.003-0.035-0.018-0.086-0.041-0.155
			c-0.005,0.03-0.011,0.061-0.015,0.091c0.031,0.15,0.067,0.343,0.109,0.576l-0.015,0.07l-0.051-0.015
			c0.08,0.278,0.117,0.529,0.112,0.758c-0.004,0.189-0.022,0.344-0.055,0.464l-0.032-0.034c0.01-0.27-0.036-0.604-0.139-1.002
			c-0.019,0.283-0.033,0.58-0.039,0.889c0.017,0.053,0.029,0.103,0.041,0.149c0.014,0.022,0.024,0.044,0.032,0.065
			c0.064,0.156,0.108,0.323,0.131,0.501c0.053,0.172,0.08,0.264,0.084,0.271l-0.058-0.014c0.002,0.061,0.004,0.122,0.003,0.187
			l-0.022,0.407l-0.024-0.008c0.075,0.217,0.154,0.455,0.234,0.714c-0.001,0.069-0.016,0.112-0.041,0.128
			c-0.018,0.01-0.048,0.018-0.091,0.024l-0.052-0.033c0.042,0.091,0.079,0.177,0.111,0.255c0.266,0.475,0.484,0.906,0.656,1.298
			c0.1,0.17,0.148,0.282,0.147,0.339c-0.003,0.107-0.014,0.14-0.034,0.097c-0.047-0.002-0.082-0.011-0.103-0.029l-0.025-0.025
			c-0.029-0.062-0.065-0.131-0.111-0.21c0.127,0.283,0.189,0.478,0.187,0.585c-0.001,0.069-0.006,0.114-0.017,0.136l-0.038,0.038
			l-0.032-0.033c-0.048-0.152-0.192-0.449-0.432-0.894c0.002,0.094,0.001,0.217-0.002,0.367c0.118,0.687,0.172,1.284,0.162,1.792
			c-0.018,0.765-0.099,1.369-0.24,1.813c0.003,0.078,0.003,0.153,0.001,0.227c-0.004,0.223-0.048,0.607-0.128,1.151
			c-0.13,0.846-0.309,1.617-0.533,2.317c-0.703,2.2-1.734,3.285-3.098,3.256c-0.259-0.006-0.498-0.07-0.719-0.195
			c-0.165,0.057-0.353,0.098-0.564,0.122c-0.325,0.299-0.661,0.533-1.009,0.701c-0.309,0.36-0.623,0.535-0.94,0.528
			c-0.491-0.011-0.973-0.099-1.447-0.264c-0.625-0.473-0.943-0.715-0.951-0.724c-0.478-0.414-0.844-0.775-1.1-1.082
			c-0.38-0.461-0.58-0.854-0.594-1.182c-0.025-0.628-0.267-1.391-0.724-2.286c-0.657-1.283-1.006-1.985-1.051-2.107
			c-0.086-0.234-0.173-0.502-0.261-0.805c0.017-0.164,0.024-0.252,0.025-0.266c0.009-0.399-0.103-1.136-0.333-2.212
			c-0.218-1.009-0.357-1.665-0.415-1.972c0.074-0.441,0.159-0.882,0.254-1.324c0.058-0.26,0.113-0.508,0.17-0.737
			c-0.016-0.685-0.024-1.279-0.026-1.789c-0.044-0.129-0.087-0.268-0.126-0.415c-0.052,0.206-0.126,0.368-0.223,0.485l-0.032-0.02
			c0.097-0.149,0.173-0.339,0.224-0.569c-0.006-0.039-0.017-0.077-0.029-0.116c-0.009,0.072-0.018,0.151-0.024,0.237l-0.031-0.032
			l0.009-0.399c-0.036-0.157-0.072-0.318-0.106-0.487c-0.023-0.125-0.046-0.246-0.069-0.363c-0.001,0.057-0.002,0.116-0.004,0.182
			l-0.064-0.015l-0.005,0.207l-0.051-0.002c-0.016-0.332-0.026-0.601-0.035-0.807c-0.212-0.379-0.373-0.78-0.483-1.204
			c-0.159-0.602-0.23-1.312-0.211-2.134c0.007-0.357,0.136-0.744,0.386-1.16c-0.145-0.059-0.277-0.141-0.396-0.247
			c-0.075,0.088-0.128,0.132-0.157,0.132c-0.133-0.003-0.223-0.015-0.271-0.037c-0.025-0.011-0.042-0.021-0.051-0.035l-0.022-0.167
			c-0.003-0.03-0.004-0.12-0.001-0.271c0.002-0.081,0.028-0.179,0.078-0.288c-0.126-0.347-0.184-0.735-0.175-1.166
			c0.002-0.116,0.045-0.269,0.126-0.461c-0.097,0.101-0.203,0.211-0.317,0.328c-0.043-0.01-0.064-0.032-0.063-0.066
			c0.105-0.096,0.261-0.25,0.468-0.46c0.032-0.064,0.063-0.129,0.094-0.192c0.001-0.038,0.002-0.072,0.002-0.103
			c-0.03,0.033-0.061,0.069-0.093,0.107c-0.221,0.271-0.349,0.423-0.383,0.456l-0.019-0.046c0.086-0.165,0.23-0.36,0.433-0.584
			c0.025-0.029,0.05-0.054,0.072-0.075c0.02-0.12,0.056-0.281,0.107-0.482c-0.141,0.144-0.294,0.218-0.463,0.223
			c0.105-0.062,0.255-0.225,0.449-0.487c0.041-0.055,0.083-0.105,0.127-0.153c0.036-0.117,0.076-0.246,0.117-0.384
			c-0.264,0.273-0.417,0.424-0.461,0.449l-0.025-0.046c0.186-0.224,0.343-0.401,0.47-0.532c0.027-0.029,0.053-0.057,0.08-0.082
			c0.189-0.585,0.439-1.321,0.751-2.209c0.161-0.462,0.318-0.893,0.473-1.294c-0.084-0.247-0.126-0.388-0.125-0.422
			c0.001-0.064,0.006-0.1,0.015-0.103c0.021,0.004,0.043-0.002,0.065-0.019l0.051,0.021c0.007,0.1,0.025,0.216,0.057,0.35
			c0.014-0.026,0.025-0.051,0.034-0.076L91,101.679c0.022-0.037,0.051-0.082,0.087-0.132c0.019-0.057,0.038-0.107,0.061-0.154
			c-0.015-0.069-0.022-0.125-0.021-0.168c0.001-0.064,0.002-0.1,0.002-0.104c0.004,0.004,0.009-0.002,0.013-0.02l0.052,0.002
			c0,0.029,0.005,0.071,0.017,0.123c0.049-0.12,0.097-0.235,0.143-0.346c-0.015-0.129-0.021-0.206-0.021-0.232
			c0.003-0.146,0.011-0.252,0.021-0.315l0.051,0c-0.003,0.13,0.001,0.263,0.011,0.401c0.086-0.201,0.169-0.39,0.25-0.569
			c0-0.013,0-0.021,0.001-0.026c0.001-0.064,0.001-0.098,0.002-0.103c0.004,0.005,0.009-0.002,0.014-0.019l0.052,0.001
			c0,0.005,0,0.009,0,0.013c0.117-0.247,0.229-0.47,0.337-0.669c0-0.005,0-0.009,0-0.013c0.026-1.205,0.263-2.118,0.711-2.74
			c0.08-0.11,0.164-0.211,0.251-0.304c0.01-0.034,0.016-0.066,0.021-0.096c0.044-0.012,0.082-0.026,0.118-0.043
			c0.267-0.243,0.586-0.441,0.955-0.592c0.145-0.139,0.276-0.295,0.397-0.469c0.396-0.576,0.601-1.219,0.616-1.928
			c0.005-0.236-0.05-0.481-0.165-0.733c-0.043-0.561-0.256-1.139-0.639-1.736c-0.022,0.024-0.083,0.078-0.179,0.157
			c-0.098-0.045-0.151-0.068-0.16-0.068c-0.022,0.025-0.032-0.016-0.03-0.123c0-0.021,0.001-0.041,0.001-0.059
			c-0.072-0.044-0.144-0.091-0.216-0.139c-0.035,0.006-0.067,0.015-0.097,0.023c0.181,0.154,0.299,0.269,0.353,0.344
			c-0.081-0.016-0.241-0.121-0.477-0.314c-0.03,0.004-0.062,0.009-0.097,0.017c0.135,0.127,0.203,0.234,0.206,0.32l-0.064,0.032
			c-0.026-0.021-0.171-0.123-0.433-0.3c-0.043,0.002-0.086,0.007-0.129,0.011c0.076,0.07,0.134,0.127,0.176,0.171l-0.034,0.096
			l-0.097-0.002c-0.016-0.026-0.054-0.067-0.112-0.125c-0.006,0.065-0.017,0.074-0.034,0.025c-0.085-0.028-0.167-0.059-0.249-0.096
			c0.05,0.065,0.074,0.121,0.073,0.164c-0.001,0.068-0.017,0.101-0.047,0.095l-0.039-0.027c-0.247-0.116-0.453-0.239-0.617-0.368
			c-0.03-0.004-0.06-0.01-0.09-0.015c0.138,0.166,0.246,0.308,0.32,0.426l-0.046,0.031c-0.109-0.11-0.21-0.21-0.303-0.304
			c-0.136-0.054-0.281-0.137-0.434-0.248c-0.008-0.004-0.021-0.009-0.038-0.014l-0.077-0.001c0.079,0.083,0.118,0.151,0.118,0.203
			c0,0.013-0.001,0.025-0.001,0.039c0.03,0.033,0.05,0.067,0.062,0.097c-0.021-0.021-0.044-0.042-0.07-0.059
			c-0.01,0.038-0.024,0.036-0.045-0.008c-0.128-0.046-0.285-0.139-0.472-0.281l-0.116-0.002c-0.001,0.047-0.007,0.073-0.02,0.077
			c-0.026-0.008-0.052-0.009-0.078-0.001c-0.047-0.027-0.089-0.053-0.127-0.08c-0.064-0.023-0.128-0.046-0.192-0.069v0.007
			c-0.001,0.068-0.007,0.111-0.016,0.129c-0.009,0.007-0.027,0.016-0.052,0.024c-0.012-0.03-0.059-0.113-0.137-0.248
			c-0.026-0.009-0.051-0.021-0.077-0.034c-0.005,0.039-0.018,0.039-0.038,0c-0.013-0.015-0.026-0.024-0.039-0.034l-0.006-0.007
			c0.008,0.022,0.017,0.045,0.024,0.072c-0.06-0.023-0.121-0.074-0.184-0.152c-0.034-0.022-0.07-0.043-0.108-0.06
			c0.003,0.034,0.004,0.068,0.004,0.103c-0.001,0.064-0.006,0.099-0.015,0.104c-0.021-0.01-0.042-0.01-0.064-0.001
			c-0.083-0.114-0.156-0.245-0.217-0.393c-0.22-0.159-0.42-0.339-0.602-0.542c-0.42-0.465-0.625-0.928-0.614-1.388
			c0.001-0.057,0.002-0.107,0.003-0.154c-0.012-0.014-0.027-0.025-0.044-0.034c-0.102-0.11-0.203-0.208-0.303-0.297
			c0.01-0.27,0.106-0.52,0.287-0.749c-0.008-0.211-0.021-0.409-0.039-0.595c0.097-0.097,0.183-0.217,0.26-0.361
			c0.101-0.102,0.196-0.215,0.285-0.342c-0.073-0.011-0.118-0.029-0.135-0.056l0.034-0.05c0.087-0.041,0.169-0.078,0.248-0.111
			c0.026-0.039,0.051-0.078,0.074-0.121c0.004-0.005,0.007-0.009,0.007-0.013s-0.003-0.006-0.007-0.006l0-0.02
			c-0.009,0-0.018,0.002-0.026,0.006c-0.042-0.023-0.065-0.05-0.069-0.086c0.074-0.062,0.157-0.115,0.249-0.155
			c0.032-0.06,0.058-0.118,0.081-0.173c-0.046-0.014-0.076-0.032-0.088-0.054l0.033-0.044c0.047-0.029,0.096-0.057,0.143-0.081
			c0.004-0.013,0.007-0.023,0.007-0.032c-0.047-0.006-0.074-0.016-0.083-0.034c0-0.004-0.001-0.041-0.004-0.109
			c0.146-0.165,0.294-0.287,0.446-0.366c0.009-0.004,0.018-0.009,0.027-0.019c0.193-0.15,0.352-0.276,0.479-0.376
			c-0.121-0.204-0.179-0.408-0.174-0.609c0.064-0.313,0.127-0.607,0.194-0.881c0.071-0.11,0.143-0.231,0.214-0.363
			c0.385-0.693,0.579-1.11,0.582-1.252c0.005-0.249-0.012-0.448-0.052-0.595c0.014-0.017,0.024-0.034,0.034-0.051
			c-0.017-0.005-0.034-0.009-0.052-0.014c-0.032-0.091-0.076-0.156-0.13-0.196c-0.042-0.027-0.094-0.041-0.154-0.042
			c-0.05-0.096-0.073-0.212-0.07-0.35c0.01-0.455,0.062-0.767,0.155-0.932c0.108-0.191,0.292-0.347,0.553-0.465
			c0.034-0.197,0.082-0.383,0.146-0.558c-0.036-0.087-0.066-0.163-0.092-0.228c-0.012-0.039-0.026-0.076-0.042-0.111
			c0.027-0.072,0.048-0.139,0.062-0.198c0.033,0.125,0.075,0.257,0.127,0.396c0.004-0.009,0.009-0.017,0.013-0.026
			c0.019-0.064,0.04-0.132,0.063-0.205c0.17-0.513,0.338-0.818,0.503-0.918c0.021,0.014,0.032,0.031,0.031,0.053
			c-0.036,0.026-0.072,0.065-0.109,0.117c0.003-0.003,0.007-0.006,0.01-0.01c0,0.009,0.011,0.018,0.032,0.027
			c0.008,0.005,0.019,0.007,0.032,0.007c-0.013,0.047-0.027,0.095-0.042,0.142C92,76.189,92.014,76.166,92.032,76.145z
			 M94.173,90.476c0.004,0,0.008,0,0.013,0c-0.021-0.033-0.043-0.067-0.069-0.097c-0.018,0.004-0.032,0.007-0.045,0.012
			C94.11,90.422,94.143,90.45,94.173,90.476z M99.922,74.994c0.377,0.051,0.713,0.132,1.008,0.241
			c0.206,0.026,0.363,0.049,0.476,0.068c-0.561-0.145-1.025-0.256-1.394-0.333c-0.047,0.004-0.092,0.009-0.135,0.016
			C99.89,74.99,99.905,74.994,99.922,74.994z M101.811,76.002c-0.183-0.081-0.391-0.154-0.621-0.219
			c0.05,0.031,0.1,0.062,0.146,0.093c0.057,0.01,0.111,0.022,0.168,0.036C101.609,75.94,101.712,75.971,101.811,76.002z
			 M103.512,78.175c0.009,0.004,0.018,0.009,0.026,0.014c0.043,0.014,0.083,0.027,0.121,0.041c-0.012-0.009-0.029-0.018-0.051-0.027
			C103.578,78.194,103.546,78.185,103.512,78.175z M103.651,78.017c0.013,0.004,0.025,0.009,0.038,0.013
			c-0.025-0.018-0.054-0.036-0.083-0.053C103.623,77.99,103.638,78.003,103.651,78.017z M103.317,77.906
			c-0.046-0.044-0.091-0.084-0.139-0.119c0.021,0.026,0.039,0.056,0.056,0.091C103.265,77.883,103.293,77.893,103.317,77.906z
			 M103.695,77.779c0.072,0.015,0.144,0.033,0.212,0.056c-0.132-0.081-0.276-0.165-0.435-0.254c-0.029-0.014-0.059-0.027-0.088-0.04
			C103.499,77.62,103.601,77.7,103.695,77.779z M104.144,78.195c0.158,0.055,0.323,0.115,0.493,0.178
			c-0.135-0.127-0.312-0.262-0.533-0.405c-0.094-0.032-0.188-0.059-0.281-0.083C103.948,77.995,104.056,78.099,104.144,78.195z
			 M104.241,78.771c0.009,0.009,0.053,0.07,0.132,0.184c0.056,0.018,0.107,0.033,0.154,0.042c-0.126-0.153-0.311-0.333-0.551-0.541
			c-0.055-0.027-0.11-0.052-0.166-0.075C103.967,78.497,104.111,78.627,104.241,78.771z M103.968,78.307
			c0.008,0.009,0.017,0.018,0.024,0.027c0.077,0.032,0.151,0.063,0.225,0.095c-0.026-0.022-0.055-0.044-0.082-0.066
			C104.078,78.345,104.022,78.326,103.968,78.307z M104.9,79.018c0-0.004-0.002-0.011-0.006-0.02
			c-0.207-0.146-0.408-0.273-0.604-0.381c0.206,0.189,0.357,0.331,0.454,0.423c0.035,0.005,0.065,0.007,0.091,0.008
			C104.942,79.051,104.964,79.041,104.9,79.018z M104.845,78.92c-0.025-0.035-0.041-0.061-0.05-0.078
			c-0.034-0.018-0.071-0.036-0.109-0.054c0.06,0.044,0.114,0.093,0.165,0.146C104.851,78.929,104.849,78.925,104.845,78.92z
			 M104.556,79.153c-0.013-0.004-0.03-0.007-0.052-0.008c0.034,0.044,0.069,0.094,0.106,0.151
			C104.599,79.248,104.58,79.201,104.556,79.153L104.556,79.153z M104.382,82.684c-0.004-0.008-0.009-0.015-0.013-0.019
			c0,0.009,0,0.019,0,0.032c0.004,0.004,0.006,0.008,0.006,0.013C104.375,82.702,104.378,82.693,104.382,82.684z M104.243,84.005
			c0.005,0.185,0.008,0.382,0.008,0.593l0.011-0.521C104.258,84.05,104.251,84.026,104.243,84.005z M103.33,86.011
			c0.009-0.018,0.016-0.034,0.02-0.051c0.016-0.107,0.031-0.208,0.052-0.302c-0.004,0-0.009,0.001-0.013,0.005
			C103.377,85.771,103.356,85.886,103.33,86.011z M102.664,93.468c0,0.004-0.005,0.011-0.013,0.02
			c0.017,0.013,0.034,0.028,0.049,0.045c0.026,0.022,0.05,0.046,0.07,0.072C102.737,93.561,102.702,93.515,102.664,93.468z
			 M103.048,94.535c-0.034-0.066-0.067-0.128-0.101-0.19c-0.036-0.036-0.075-0.068-0.113-0.1c0.054,0.113,0.108,0.233,0.166,0.359
			C103.015,94.57,103.029,94.546,103.048,94.535z M103.956,118.911c-0.01-0.124-0.044-0.285-0.105-0.48
			c0.002,0.068,0.006,0.146,0.008,0.232C103.892,118.743,103.925,118.824,103.956,118.911z M103.904,119.517
			c0.033,0.069,0.066,0.141,0.099,0.216c0.021,0.043,0.038,0.084,0.049,0.123c-0.007-0.053-0.056-0.167-0.146-0.346L103.904,119.517
			z M104.044,120.252c0.003,0.008,0.005,0.018,0.005,0.029c0.006,0.002,0.011,0.006,0.013,0.011
			C104.058,120.279,104.051,120.266,104.044,120.252z"/>
	</g>
	<g id="Layer_4_16_">
		<path id="path8_16_" fill="#010101" d="M106.987,100.224c0.304,0.543,0.442,0.963,0.413,1.258c0.278,0.63,0.465,1.123,0.562,1.478
			l-0.052,0.338c-0.017-0.002-0.037-0.013-0.062-0.028c-0.001,0.008-0.002,0.014-0.002,0.019c0.146,0.344,0.243,0.634,0.289,0.866
			c0.137,0.447,0.196,0.835,0.181,1.164l-0.044-0.006c-0.013-0.464-0.216-1.113-0.614-1.95c0.068,0.32,0.123,0.576,0.163,0.771
			c0.041,0.093,0.089,0.196,0.141,0.31c0.208,0.487,0.3,0.809,0.276,0.962c-0.009,0.056-0.019,0.103-0.028,0.14
			c0.046,0.08,0.088,0.165,0.131,0.255c0.164,0.351,0.296,0.65,0.397,0.897c0.104,0.249,0.186,0.479,0.24,0.682l-0.023-0.01
			c0.008,0.057,0.01,0.104,0.005,0.137c-0.009,0.047-0.015,0.079-0.021,0.096c0.108,0.339,0.172,0.643,0.192,0.91l-0.045-0.007
			c-0.012-0.232-0.094-0.532-0.246-0.9l-0.024-0.01c-0.002-0.018-0.006-0.039-0.01-0.066c-0.064-0.148-0.14-0.309-0.226-0.479
			c0.273,0.965,0.603,2.104,0.986,3.417c0.155,0.575,0.289,1.129,0.398,1.659c0.016,0.037,0.03,0.073,0.042,0.105
			c0.09,0.327,0.229,1,0.42,2.021c0.219,1.127,0.393,1.965,0.521,2.516c0.039,0.158,0.077,0.31,0.111,0.454
			c0.006,0.083,0.009,0.164,0.015,0.244c0.152,0.284,0.257,0.465,0.313,0.545c0.078,0.094,0.162,0.479,0.254,1.153
			c0.081,0.575,0.117,0.952,0.106,1.133c0.011,0.045,0.021,0.09,0.031,0.137c0.093,0.439,0.169,0.912,0.227,1.417
			c0.125,0.255,0.268,0.535,0.424,0.843l-0.036,0.026c-0.093-0.132-0.22-0.398-0.379-0.803c0.005,0.054,0.009,0.108,0.013,0.166
			c0.092,0.228,0.187,0.506,0.283,0.834c0.267,0.898,0.367,1.555,0.304,1.972c-0.011,0.072-0.02,0.113-0.025,0.121
			c-0.001,0.008-0.011,0.015-0.029,0.02c-0.011-0.014-0.018-0.032-0.018-0.055l-0.002-0.025c0.006-0.178-0.016-0.388-0.067-0.63
			c-0.025-0.057-0.054-0.113-0.083-0.171c0.002,0.036,0.002,0.068-0.003,0.098c-0.011,0.064-0.018,0.098-0.021,0.102l-0.026-0.004
			c-0.013-0.141-0.032-0.283-0.059-0.427c-0.048-0.104-0.099-0.204-0.147-0.304c0.004,0.079,0.006,0.162,0.007,0.249
			c0.021,0.086,0.04,0.175,0.058,0.264c0.005,0.023,0.007,0.043,0.01,0.061c0.054,0.187,0.094,0.404,0.122,0.652
			c0.046,0.429,0.094,1.042,0.14,1.842c-0.082-0.144-0.146-0.366-0.19-0.669c0.006,0.104,0.011,0.212,0.016,0.323
			c0.009,0.31,0.017,0.755,0.023,1.334l-0.062-0.023c-0.053-0.504-0.097-0.939-0.132-1.312c-0.008-0.061-0.014-0.121-0.018-0.178
			c-0.025,0.309-0.069,0.648-0.131,1.017c0.009,0.145,0.016,0.301,0.021,0.467l-0.004,0.019c0.008,0.123,0.011,0.242,0.012,0.355
			l-0.062-0.022l-0.012,0.076l-0.045-0.007c0.011-0.103,0.019-0.221,0.022-0.355c-0.003-0.018-0.004-0.035-0.005-0.053
			c-0.039,0.228-0.086,0.467-0.137,0.716c0.041,0.124,0.077,0.259,0.106,0.408c0.074,0.363,0.075,0.668,0.004,0.914l-0.062-0.022
			c-0.004-0.318-0.042-0.655-0.113-1.01c-0.008,0.056-0.02,0.112-0.033,0.172c0.031,0.364,0.033,0.663,0.006,0.895l-0.061-0.021
			c-0.001-0.057-0.013-0.173-0.038-0.347c-0.07,0.452-0.13,0.938-0.18,1.461c0.084,0.213,0.177,0.419,0.276,0.617l-0.072-0.037
			c-0.076-0.151-0.148-0.304-0.217-0.458c-0.061,0.647-0.104,1.351-0.129,2.108c0.063,0.183,0.13,0.396,0.203,0.637l-0.061-0.034
			c-0.036-0.102-0.085-0.227-0.145-0.375c-0.024,1.294,0.064,2.866,0.271,4.722c0.166,1.49,0.261,2.516,0.285,3.071
			c0.215,0.287,0.49,0.643,0.82,1.066c0.647,0.854,0.97,1.386,0.969,1.6c-0.004,0.016-0.02,0.148-0.049,0.396
			c-0.092,0.227-0.298,0.333-0.618,0.324c-0.229-0.006-0.467-0.105-0.71-0.3c0.005,0.079,0.006,0.157,0.003,0.235
			c-0.005,0.107-0.06,0.278-0.164,0.51c-0.101,0.226-0.151,0.39-0.155,0.499c-0.001,0.034,0.142,0.406,0.429,1.116
			c0.031,0.079,0.061,0.16,0.087,0.242c0.182,0.367,0.271,0.648,0.268,0.844c0,0.005-0.001,0.011-0.002,0.019
			c0.073,0.309,0.12,0.596,0.14,0.864c0.278-0.049,0.483-0.095,0.616-0.141c0.009-0.363,0.039-0.647,0.093-0.854
			c0.093-0.372,0.32-0.554,0.685-0.547c0.246,0.008,0.435,0.24,0.565,0.695c0.095,0.34,0.139,0.665,0.131,0.973
			c0,0.021-0.066,0.104-0.201,0.249c-0.178,0.191-0.372,0.367-0.585,0.531c-0.65,0.499-1.315,0.74-1.991,0.724
			c-0.139-0.004-0.39-0.243-0.751-0.716c-0.367-0.474-0.738-1.045-1.114-1.712c-0.448-0.791-0.79-1.501-1.022-2.128
			c0.027,0.335,0.038,0.509,0.037,0.521c-0.011,0.068-0.02,0.106-0.025,0.114c0,0.004-0.009,0.007-0.026,0.009l-0.026-0.037
			c-0.065-0.458-0.116-0.849-0.153-1.171c-0.145-0.502-0.212-0.941-0.202-1.318c0.003-0.096,0.004-0.185,0.009-0.267
			c-0.049-0.076-0.092-0.148-0.129-0.215c-0.011,0.707-0.062,1.363-0.154,1.967c-0.004,0.029-0.026,0.115-0.064,0.259
			c-0.036,0.111-0.051,0.202-0.049,0.272c-0.035-0.062-0.062-0.096-0.083-0.098c0-0.035,0.007-0.639,0.018-1.812l-0.001,0.007
			c-0.018-0.004-0.039-0.015-0.067-0.036l-0.032-0.039c0.036-0.494,0.06-0.967,0.068-1.418c-0.074-0.116-0.146-0.247-0.215-0.393
			c-0.001,0.1-0.005,0.197-0.012,0.292c-0.055,1.197-0.035,2.306,0.056,3.324l-0.045-0.008c-0.128-0.555-0.202-1.201-0.223-1.938
			c-0.021,0.13-0.055,0.239-0.103,0.322l-0.026-0.035c-0.02-0.523-0.007-1.134,0.041-1.836c-0.031-0.139-0.068-0.309-0.111-0.507
			c-0.053-0.247-0.063-0.479-0.031-0.695c0.019-0.115,0.04-0.24,0.065-0.376c-0.022-0.138-0.04-0.275-0.054-0.412
			c-0.009,0.056-0.021,0.111-0.033,0.171c-0.258,1.34-0.433,2.403-0.524,3.195l-0.045-0.007c0.049-1.188,0.082-1.91,0.104-2.163
			c-0.017-0.338-0.009-0.712,0.023-1.12c-0.021,0.071-0.042,0.146-0.068,0.226l-0.06-0.036c0.034-0.368,0.062-0.605,0.076-0.712
			c0.068-0.243,0.133-0.474,0.193-0.695c0.016-0.111,0.034-0.226,0.053-0.345l-0.032-0.005c0.007-0.269,0.03-0.582,0.066-0.941
			c-0.117,0.281-0.248,0.566-0.392,0.853c-0.058,0.287-0.119,0.595-0.182,0.925l-0.027-0.037l0.206-1.423
			c0.028-0.188,0.118-0.559,0.27-1.113c0.008-0.395,0.015-0.705,0.019-0.932c-0.021,0.084-0.042,0.166-0.063,0.245
			c-0.009,0.063-0.02,0.125-0.028,0.184l-0.019-0.002c-0.089,0.322-0.147,0.53-0.175,0.626l-0.027-0.036
			c0.028-0.126,0.058-0.247,0.088-0.36l-0.03-0.017c0.005-0.086,0.014-0.17,0.026-0.251c-0.129,0.611-0.236,1.189-0.319,1.733
			l-0.06-0.035l0.096-0.711c0.197-1.282,0.329-2.08,0.395-2.393c0.038-0.194,0.081-0.379,0.125-0.556
			c0.028-0.19,0.06-0.391,0.092-0.598c0.007-0.043,0.014-0.086,0.02-0.128c-0.037,0.159-0.084,0.353-0.141,0.578l-0.069,0.453
			c-0.024,0.101-0.051,0.251-0.077,0.452c-0.029,0.104-0.077,0.181-0.146,0.231c-0.034,0.137-0.072,0.285-0.114,0.439l-0.026-0.036
			l0.055-0.357c-0.009,0.002-0.021,0.005-0.033,0.008l-0.027-0.036c0.028-0.014,0.053-0.03,0.073-0.049l0.001-0.006
			c0.121-0.417,0.244-0.938,0.371-1.562l0.059-0.389c-0.094,0.246-0.181,0.463-0.263,0.65c-0.158,0.572-0.246,1.075-0.265,1.506
			l-0.06-0.035c0.06-0.475,0.107-0.838,0.143-1.094c-0.039,0.082-0.077,0.15-0.118,0.211c0.043-0.104,0.086-0.218,0.132-0.345
			c0.025-0.162,0.041-0.265,0.048-0.308c0.011-0.076,0.055-0.247,0.131-0.515c0.019-0.175,0.033-0.334,0.047-0.475l-0.053-0.035
			c0-0.03,0.003-0.062,0.007-0.091c-0.061,0.17-0.168,0.453-0.319,0.852l-0.045-0.006c-0.003-0.009-0.009-0.015-0.018-0.016
			l0.015-0.096c0.016-0.103,0.097-0.36,0.243-0.772c0.048-0.141,0.088-0.264,0.121-0.366c0.009-0.146,0.021-0.316,0.033-0.511
			c-0.08,0.123-0.165,0.217-0.252,0.281c0.099-0.216,0.191-0.441,0.28-0.676c0.021-0.317,0.051-0.681,0.083-1.091
			c0.002-0.021,0.003-0.04,0.003-0.058c-0.007-0.153-0.016-0.3-0.024-0.44c-0.068,0.164-0.12,0.271-0.155,0.323
			c-0.003-0.01-0.008-0.014-0.018-0.01l0.015-0.09c0.01-0.055,0.055-0.233,0.141-0.532c-0.01-0.193-0.021-0.38-0.031-0.56
			c-0.002,0.008-0.005,0.019-0.012,0.031l-0.044-0.008c-0.003-0.01-0.009-0.013-0.019-0.01l0.014-0.09
			c0.007-0.038,0.021-0.095,0.047-0.174c-0.131-2.318-0.195-3.529-0.192-3.633c0.01-0.826,0.056-1.645,0.139-2.459
			c0.061-0.63,0.134-1.136,0.22-1.519c-1.328-1.88-2.726-5.43-4.189-10.646c-0.729-2.613-1.41-5.392-2.039-8.334
			c-0.59,0.13-0.891,0.195-0.898,0.193c-1.417-0.034-2.479-0.504-3.183-1.409c-0.503-0.635-0.745-1.304-0.723-2.004
			c0.029-1.206,0.545-2.275,1.551-3.208c0.928-0.863,2.017-1.393,3.268-1.593c0.471-0.071,0.913-0.085,1.324-0.044
			c0.174-0.138,0.426-0.09,0.755,0.144c0.42,0.125,0.799,0.322,1.136,0.592c0.497,0.395,0.856,0.909,1.081,1.544
			c0.213,0.25,0.427,0.546,0.641,0.888l-0.099,0.005c-0.108-0.208-0.267-0.438-0.475-0.693c0.055,0.178,0.099,0.367,0.134,0.569
			c0.425,0.578,0.743,1.058,0.953,1.439l-0.107-0.017c-0.146-0.305-0.379-0.696-0.701-1.171c-0.047-0.065-0.089-0.125-0.129-0.184
			c0.002,0.018,0.004,0.033,0.007,0.047c0.167,0.269,0.31,0.511,0.429,0.725c0.051,0.069,0.095,0.15,0.134,0.242
			c0.106,0.143,0.202,0.268,0.28,0.377c0.418,0.586,0.662,1.029,0.73,1.326l-0.062-0.029c-0.115-0.327-0.354-0.74-0.717-1.239
			c-0.021-0.03-0.043-0.058-0.065-0.083c0.031,0.056,0.055,0.111,0.073,0.161c0.069,0.168,0.138,0.344,0.205,0.528
			c0.252,0.378,0.362,0.674,0.334,0.886l-0.045-0.007c-0.011-0.18-0.083-0.397-0.213-0.652
			C106.845,99.728,106.918,99.97,106.987,100.224L106.987,100.224z M107.168,100.957c0.041,0.08,0.08,0.164,0.118,0.253
			c0.022,0.051,0.045,0.105,0.066,0.16c-0.016-0.232-0.112-0.516-0.287-0.847C107.101,100.663,107.135,100.808,107.168,100.957z
			 M107.321,101.659c0.025,0.117,0.047,0.23,0.064,0.343c0.207,0.406,0.345,0.721,0.409,0.943c-0.046-0.377-0.22-0.874-0.52-1.496
			C107.291,101.518,107.307,101.587,107.321,101.659z M107.496,102.56c0.015,0.021,0.028,0.042,0.042,0.065
			c0.05,0.101,0.096,0.196,0.139,0.289c-0.049-0.194-0.128-0.41-0.239-0.649C107.462,102.363,107.48,102.462,107.496,102.56z
			 M112.2,125.169c-0.008-0.062-0.024-0.14-0.05-0.23c0.021,0.083,0.038,0.17,0.052,0.26
			C112.2,125.188,112.201,125.179,112.2,125.169z M107.29,131.664c-0.005,0.125-0.013,0.227-0.021,0.303l0.059-0.375
			C107.319,131.616,107.308,131.641,107.29,131.664z M107.338,137.207c-0.074,0.344-0.157,0.74-0.249,1.188
			c0.146-0.356,0.284-0.705,0.41-1.046c0.002-0.014,0.003-0.024,0.004-0.033c-0.031,0.066-0.073,0.126-0.126,0.183l-0.039-0.037
			C107.339,137.369,107.34,137.285,107.338,137.207z"/>
	</g>
	<g id="Layer_5_17_">
		<path id="path11_15_" fill="#010101" d="M91.37,106.68c0.166-0.667,0.698-2.063,1.598-4.19c0.835-1.978,1.33-3.419,1.479-4.32
			c0.018-0.08-0.022-0.358-0.117-0.834c-0.092-0.471-0.109-0.873-0.055-1.205c0.167-0.986,0.6-1.706,1.298-2.16
			c0.627-0.4,1.333-0.517,2.115-0.353c0.784,0.159,1.406,0.548,1.868,1.165c0.508,0.677,0.68,1.485,0.517,2.423
			c-0.096,0.575-0.317,1.317-0.663,2.23c-0.449,1.165-0.743,1.989-0.881,2.472c-0.131,0.44-0.329,1.238-0.595,2.392
			c-0.23,1.009-0.444,1.81-0.641,2.399c-0.208,0.614-0.396,1.398-0.565,2.354c-0.093,0.544-0.234,1.371-0.422,2.479
			c-0.392,2.023-1.054,3.612-1.985,4.769c-0.587,0.728-1.593,2.176-3.019,4.341c-1.279,1.948-2.411,3.468-3.397,4.563
			c-0.257,0.28-1.024,0.969-2.3,2.065c-1.1,0.936-1.818,1.664-2.155,2.184c-1.086,0.968-1.87,1.768-2.353,2.397
			c0.11,0.283,0.101,0.795-0.029,1.533c-0.04,0.269-0.09,0.692-0.153,1.275c-0.032,0.325-0.057,0.569-0.073,0.731
			c0.355,0.559,0.519,1.062,0.491,1.514c0.06,0.011,0.115,0.017,0.167,0.017l0.065-0.006c0.061-0.35,0.117-0.606,0.168-0.774
			l0.365-0.087c0.427,0.527,0.794,0.941,1.101,1.244c0.064,0.086,0.097,0.176,0.096,0.275c-0.004,0.043-0.032,0.211-0.083,0.504
			c-0.052,0.306-0.405,0.727-1.06,1.263c-0.659,0.543-1.188,0.846-1.587,0.905c0.016,0.227-0.062,0.438-0.233,0.638
			c-0.225,0.259-0.556,0.352-0.993,0.277c-1.059-0.179-1.772-0.871-2.141-2.075c-0.24-0.796-0.312-1.494-0.212-2.094
			c0.012-0.078,0.045-0.144,0.098-0.198c-0.006-0.07-0.012-0.146-0.017-0.229c-0.011-0.104-0.018-0.206-0.021-0.306
			c-0.005,0.004-0.009,0.007-0.014,0.011c-0.242,0.171-0.473,0.238-0.694,0.203c-0.178-0.029-0.302-0.12-0.368-0.27
			c-0.059-0.118-0.075-0.253-0.051-0.406c0.179-1.068,0.598-2.074,1.253-3.021c0.18-0.237,0.339-0.453,0.48-0.651
			c-0.188,0.153-0.375,0.271-0.561,0.352c-0.113-0.023-0.175-0.052-0.186-0.083c0.079-0.057,0.159-0.118,0.238-0.184
			c-0.004-0.001-0.008-0.003-0.012-0.008c-0.036-0.026-0.062-0.038-0.074-0.04c0.009-0.094,0.022-0.158,0.039-0.191
			c0.04-0.008,0.08-0.019,0.12-0.032c-0.025-0.007-0.04-0.012-0.043-0.018c-0.005-0.031-0.013-0.049-0.021-0.054
			c0.155-0.17,0.396-0.395,0.722-0.674c-0.062,0.024-0.12,0.033-0.171,0.028c-0.068-0.007-0.11-0.02-0.125-0.039
			c-0.012-0.021-0.02-0.04-0.028-0.054c0.006-0.064,0.019-0.112,0.034-0.146c0.067-0.022,0.145-0.064,0.232-0.125
			c-0.028-0.016-0.042-0.038-0.039-0.062c0.05-0.073,0.115-0.16,0.194-0.26c-0.034-0.007-0.058-0.015-0.07-0.02
			c-0.012-0.006-0.021-0.014-0.029-0.022c-0.057,0.051-0.091,0.075-0.105,0.073c-0.068-0.006-0.105-0.024-0.111-0.056
			c0-0.043,0-0.074-0.003-0.092c0.061-0.089,0.142-0.19,0.244-0.306c0.016-0.028,0.03-0.06,0.042-0.093
			c0.051-0.121,0.118-0.214,0.202-0.279l-0.154,0.245l0.003,0.025c0.154-0.156,0.341-0.338,0.56-0.541
			c0.062-0.062,0.12-0.122,0.173-0.176c-0.013-0.002-0.025-0.003-0.038-0.005c-0.069-0.007-0.113-0.018-0.133-0.032
			c-0.013-0.006-0.024-0.016-0.035-0.029c0.08-0.061,0.166-0.136,0.261-0.22c-0.051-0.006-0.066-0.012-0.043-0.018
			c0.101-0.064,0.205-0.136,0.313-0.216c0.095-0.085,0.198-0.179,0.307-0.281c0.191-0.273,0.458-0.577,0.797-0.911l0.007-0.006
			c0.017-0.034,0.031-0.067,0.043-0.101c-0.397,0.381-0.743,0.64-1.038,0.779l-0.01-0.033c0.063-0.06,0.279-0.299,0.649-0.72
			c-0.218,0.15-0.405,0.254-0.562,0.307c0.076-0.066,0.44-0.405,1.094-1.02c0.119-0.113,0.231-0.217,0.335-0.31
			c0.077-0.152,0.149-0.301,0.219-0.445c-0.055,0.041-0.114,0.087-0.175,0.132c-0.5,0.379-0.854,0.637-1.062,0.775
			c0.277-0.224,0.643-0.506,1.096-0.85c0.062-0.046,0.119-0.09,0.175-0.131c0.077-0.153,0.152-0.304,0.227-0.452
			c-0.069,0.05-0.139,0.099-0.209,0.148c-0.304,0.285-0.632,0.565-0.984,0.842c0.25-0.248,0.46-0.46,0.634-0.638
			c-0.164,0.083-0.316,0.14-0.458,0.169c0.248-0.144,0.629-0.428,1.142-0.853c0.033-0.031,0.064-0.06,0.092-0.088
			c0.011-0.021,0.022-0.042,0.032-0.061c-0.175,0.115-0.354,0.232-0.534,0.348l0.019-0.051c0.159-0.164,0.377-0.355,0.653-0.569
			c0.101-0.188,0.199-0.373,0.295-0.554c-0.191,0.146-0.405,0.31-0.639,0.493l0.005-0.051c0.188-0.232,0.449-0.472,0.786-0.719
			c0.047-0.086,0.092-0.171,0.136-0.253c-0.279,0.103-0.569,0.2-0.874,0.296c0.197-0.102,0.521-0.264,0.976-0.487
			c0.053-0.093,0.105-0.186,0.158-0.274c-0.023,0.009-0.045,0.022-0.069,0.038c-0.128,0.087-0.195,0.143-0.198,0.168
			c-0.005,0.057-0.007,0.091-0.003,0.104c-0.005,0-0.027-0.008-0.07-0.02c-0.012-0.014-0.018-0.032-0.021-0.055l-0.003-0.026
			c0.087-0.05,0.174-0.104,0.262-0.155c-0.109,0.055-0.218,0.104-0.326,0.148c0.149-0.07,0.305-0.163,0.468-0.276
			c2.387-4.227,4.552-6.876,6.496-7.949c0.769-0.42,1.331-1.626,1.689-3.616c0.072-0.417,0.196-1.272,0.373-2.563
			C91.119,107.962,91.251,107.186,91.37,106.68L91.37,106.68z M78.683,130.517c0.011-0.033,0.021-0.064,0.028-0.095
			c-0.069,0.089-0.138,0.168-0.206,0.239C78.571,130.607,78.631,130.56,78.683,130.517L78.683,130.517z M78.355,130.354
			c-0.014,0.012-0.028,0.023-0.043,0.034c-0.092,0.104-0.179,0.195-0.261,0.279c0.095-0.086,0.194-0.187,0.296-0.301
			C78.352,130.363,78.354,130.359,78.355,130.354z"/>
	</g>
	<g id="Layer_6_11_">
		<path id="path14_15_" fill="#010101" d="M104.593,122.577c-0.224,2.562-0.601,4.895-1.132,6.995
			c-0.165,0.654-0.453,1.74-0.865,3.259c-0.403,1.554-0.781,3.113-1.133,4.68c-0.03,0.153-0.186,1.054-0.465,2.7
			c-0.37,1.87-0.821,3.552-1.357,5.042c-0.256,0.712-0.528,1.371-0.816,1.976c0.295,0.483,0.43,0.91,0.405,1.279l-0.078-0.002
			c0.215,0.375,0.322,0.636,0.319,0.781c-0.003,0.143-0.008,0.218-0.012,0.227c-0.009,0.013-0.028,0.021-0.059,0.03
			c0.009-0.215-0.079-0.481-0.26-0.8l-0.046-0.014c-0.062-0.113-0.124-0.225-0.186-0.334c0.041,0.088,0.061,0.155,0.06,0.202
			c-0.003,0.134-0.015,0.2-0.037,0.2l-0.031-0.041c-0.082-0.207-0.233-0.466-0.454-0.777c0,0.009-0.004,0.018-0.013,0.025
			c0.188,0.254,0.28,0.462,0.277,0.62l-0.013-0.001c0.107,0.218,0.192,0.434,0.256,0.65l-0.097-0.002
			c-0.106-0.234-0.315-0.535-0.625-0.903c-0.022,0.038-0.045,0.079-0.067,0.121c0.304,0.428,0.479,0.816,0.522,1.166l-0.128-0.035
			c-0.066-0.152-0.223-0.364-0.47-0.636l-0.036,0.174c-0.063-0.062-0.126-0.122-0.19-0.178c-0.023,0.032-0.047,0.068-0.073,0.107
			c0.121,0.132,0.25,0.274,0.384,0.428c-0.115-0.046-0.228-0.092-0.339-0.137c0.075,0.105,0.113,0.187,0.111,0.247
			c-0.003,0.129-0.022,0.195-0.056,0.199c-0.064-0.019-0.123-0.018-0.175,0.003c-0.102-0.044-0.213-0.104-0.332-0.175
			c-0.022,0.034-0.048,0.067-0.08,0.101c0.072,0.084,0.143,0.172,0.214,0.264l-0.097-0.002c-0.054-0.049-0.11-0.095-0.165-0.141
			c-0.014,0.065-0.033,0.132-0.056,0.201c-0.153,0.533-0.235,0.854-0.246,0.961c-0.034,0.379,0.014,0.977,0.142,1.797
			c0.064,0.416,0.173,1.087,0.324,2.021c0.18,0.438,0.31,0.837,0.393,1.194c0.186,0.357,0.295,0.674,0.328,0.95l-0.097-0.022
			c0.041,0.165,0.075,0.338,0.105,0.519c0.329,0.919,0.565,1.619,0.709,2.1l-0.097-0.001c-0.118-0.296-0.301-0.816-0.546-1.562
			l-0.064-0.002c-0.096-0.385-0.249-0.849-0.461-1.39c0.004,0.013,0.006,0.025,0.006,0.038c0.005,0.009,0.008,0.018,0.012,0.026
			c0.123,0.32,0.217,0.697,0.286,1.129c0.02,0.116,0.126,0.517,0.322,1.2c0.184,0.642,0.275,1.004,0.273,1.09
			c-0.003,0.133-0.015,0.191-0.036,0.174l-0.031-0.065c-0.202-0.405-0.425-1.129-0.669-2.176c-0.005-0.021-0.01-0.042-0.018-0.064
			c0.007,0.056,0.012,0.112,0.016,0.168c0.059,0.268,0.134,0.631,0.227,1.088c0.133,0.637,0.256,1.134,0.368,1.498l-0.097-0.001
			l-0.25-1.018c0.063,0.495,0.088,1.022,0.077,1.581c-0.004,0.181-0.009,0.299-0.015,0.354c-0.01,0.086-0.032,0.165-0.062,0.238
			l-0.063-0.066c0.016-0.529-0.014-1.055-0.089-1.575c0.004,0.383-0.004,0.759-0.024,1.128c0.061,0.376,0.135,0.848,0.221,1.417
			l-0.042,1.936l-0.097-0.002c-0.012-0.448-0.077-1.136-0.195-2.062c-0.019,0.111-0.041,0.233-0.065,0.366
			c0,0.215-0.004,0.473-0.011,0.773c-0.011,0.537-0.025,0.879-0.041,1.025c-0.058,0.467-0.169,0.748-0.334,0.838
			c0.039,0.363,0.102,0.647,0.188,0.856l-0.162-0.036c-0.088-0.256-0.148-0.585-0.178-0.985c-0.024,0.121-0.053,0.243-0.086,0.367
			c0.018,0.15,0.041,0.312,0.067,0.484c0.116,0.761,0.183,1.245,0.201,1.457l-0.129-0.035c-0.044-0.147-0.084-0.336-0.124-0.564
			c0.003,0.069,0.004,0.138,0.002,0.206l-0.128-0.034c-0.004-0.225-0.019-0.517-0.045-0.879c-0.005,0.021-0.01,0.042-0.014,0.063
			c0.004,0.009,0.006,0.018,0.006,0.026c0.003,0.048-0.001,0.356-0.014,0.929c0.05,0.286,0.108,0.54,0.177,0.766l-0.015,0.678
			l-0.097-0.002c-0.003-0.018-0.039-0.274-0.106-0.771c-0.027,0.262-0.067,0.56-0.122,0.894l-0.063-0.065
			c0.001-0.064,0-0.129-0.003-0.193l-0.089-0.002c-0.015-0.125-0.05-0.305-0.105-0.538c-0.014,0.072-0.033,0.147-0.056,0.225
			c0,0.026-0.001,0.052-0.002,0.078c0.047,0.202,0.089,0.366,0.125,0.493l-0.01,0.45c0.13,0.515,0.208,0.883,0.233,1.102
			l-0.096-0.001c-0.052-0.174-0.102-0.345-0.15-0.513l-0.002,0.122l-0.097-0.002c-0.005-0.177-0.018-0.374-0.039-0.595
			c-0.024-0.096-0.049-0.188-0.078-0.279c-0.009,0.034-0.018,0.067-0.027,0.097l-0.091-0.022c0,0.035-0.003,0.069-0.008,0.104
			c0.007,0.025,0.016,0.052,0.024,0.079c0.181,0.795,0.275,1.475,0.285,2.037l-0.128-0.035c0.024-0.144-0.056-0.558-0.238-1.235
			c-0.014,0.226-0.025,0.443-0.034,0.648c0.143,0.571,0.229,0.994,0.257,1.264l-0.097-0.001c-0.065-0.207-0.127-0.411-0.187-0.61
			c-0.008,0.189-0.012,0.365-0.012,0.529c0.082,0.213,0.175,0.455,0.281,0.729l-0.097-0.002c-0.05-0.092-0.111-0.225-0.185-0.398
			c0,0.009,0,0.02-0.001,0.033c0.002,0.099,0.001,0.199,0,0.303c0.14,0.33,0.27,0.696,0.39,1.099l-0.097-0.002
			c-0.105-0.118-0.204-0.246-0.296-0.387c-0.008,0.598-0.041,1.208-0.097,1.829c-0.017,0.189,0.03,0.615,0.141,1.275
			c0.114,0.66,0.169,1.029,0.163,1.107c-0.001,0.017-0.022,0.131-0.065,0.34c0.008,0.189,0.001,0.412-0.021,0.67
			c-0.039,0.392-0.125,0.649-0.262,0.775c-0.232,0.206-0.716,0.302-1.451,0.285c-0.1-0.002-0.188-0.021-0.264-0.059
			c-0.273,0.072-0.639,0.104-1.099,0.094c-0.082-0.001-0.416-0.046-1.004-0.132c-0.592-0.091-1.001-0.139-1.229-0.143l-3.233-0.007
			c-0.298,0.067-0.916,0.145-1.856,0.232c-0.302,0.026-0.589,0.051-0.86,0.07c-0.786-0.473-1.504-0.465-2.155,0.024
			c-0.494-0.053-0.818-0.171-0.973-0.35c-0.08-0.093-0.108-0.257-0.086-0.493c0.034-0.363,0.359-0.685,0.976-0.959
			c0.412-0.181,1.086-0.387,2.021-0.62c0.086-0.021,0.168-0.039,0.246-0.06c0.267-0.214,0.668-0.457,1.204-0.73
			c0.986-0.501,2.117-0.949,3.39-1.338c0.126-0.036,0.247-0.072,0.364-0.107c0.117-0.205,0.218-0.429,0.305-0.671
			c0.11-0.313,0.199-0.648,0.267-1.009c-0.117,0.067-0.228,0.099-0.332,0.097c-0.133-0.003-0.232-0.021-0.301-0.052l-0.063-0.054
			l0.002-0.097c0.285-0.049,0.534-0.131,0.748-0.241c0.009-0.061,0.018-0.12,0.023-0.18c0.005-0.052,0.009-0.101,0.01-0.148
			c-0.092,0.117-0.19,0.247-0.292,0.387c-0.069-0.015-0.126-0.041-0.173-0.08l-0.051-0.054c0.198-0.206,0.379-0.401,0.542-0.588
			c0.004-0.048,0.008-0.088,0.009-0.123c-0.194,0.211-0.386,0.363-0.578,0.453c0.184-0.144,0.38-0.375,0.589-0.698
			c0.006-0.081,0.009-0.183,0.007-0.302c-0.271,0.367-0.469,0.659-0.593,0.871c-0.056-0.015-0.094-0.042-0.115-0.081l-0.011-0.051
			c0.256-0.316,0.495-0.622,0.716-0.915c-0.003-0.197-0.012-0.432-0.022-0.703c-0.008-0.215-0.02-0.427-0.032-0.633
			c-0.072,0.348-0.156,0.756-0.252,1.228l-0.129-0.035c0.045-0.266,0.086-0.512,0.126-0.74l-0.109-0.034l0.019-0.87
			c0.014-0.06,0.027-0.12,0.036-0.181c-0.05,0.138-0.106,0.25-0.168,0.338c0.17-0.508,0.291-1.117,0.363-1.83h-0.033
			c-0.016-0.036-0.024-0.063-0.023-0.085c-0.004-0.021-0.003-0.105,0-0.252c0-0.008,0-0.017,0-0.025
			c-0.121,0.405-0.275,0.758-0.462,1.054c-0.005,0.064-0.011,0.131-0.017,0.2l-0.063-0.065c0.012-1.557,0.021-2.442,0.025-2.657
			c0.004-0.203,0.112-0.774,0.322-1.716c0.004-0.018,0.006-0.035,0.007-0.052c0-0.03,0.001-0.062,0.002-0.097
			c0.005-0.211,0.137-0.932,0.396-2.16c0.068-0.32,0.132-0.616,0.193-0.886c-0.054-0.092-0.086-0.15-0.099-0.177
			c-0.021-0.06-0.029-0.165-0.025-0.316c0-0.038,0.061-0.72,0.179-2.041c0.011-0.112,0.02-0.222,0.026-0.329
			c-0.069-0.755-0.192-1.541-0.368-2.364c-0.402-1.505-0.6-2.276-0.595-2.315c0.092-1.048,0.297-2.152,0.614-3.316
			c-0.096-0.155-0.187-0.325-0.273-0.509c-0.053,0.08-0.116,0.136-0.19,0.163l-0.031-0.064c0.045-0.098,0.086-0.207,0.122-0.326
			c-0.077-0.187-0.152-0.385-0.225-0.593c-0.016,0.121-0.031,0.232-0.046,0.335l-0.128-0.035c0.019-0.244,0.037-0.468,0.054-0.67
			c-0.017-0.061-0.034-0.122-0.054-0.188c0.01,0.146,0.013,0.29,0.01,0.426c-0.003,0.117-0.015,0.196-0.038,0.238
			c0.013,0.034,0.023,0.068,0.031,0.098l-0.104-0.027c-0.004,0.008-0.013,0.018-0.025,0.025l-0.128-0.035
			c0.07-0.829,0.033-1.505-0.11-2.028c-0.04-0.148-0.076-0.288-0.107-0.422c-0.006,0.455-0.013,0.98-0.022,1.574l-0.097-0.002
			l0.01-2.24c-0.014-0.163-0.019-0.32-0.015-0.471c0.002-0.116,0.004-0.228,0.007-0.335c-0.021-0.215-0.042-0.434-0.062-0.654
			c-0.028,0.637-0.048,1.31-0.064,2.02l-0.096-0.003l0.017-2.574c-0.098,0.761-0.148,1.229-0.153,1.41l-0.128-0.035
			c0.009-1.398,0.016-2.204,0.021-2.42c0.008-0.378,0.112-1.101,0.311-2.167c0.005-0.025,0.01-0.049,0.014-0.07
			c0.002-0.111,0.008-0.222,0.014-0.329c-0.006-0.495-0.006-0.909,0.001-1.245c0.016-0.752,0.118-1.385,0.306-1.896
			c0.122-0.892,0.287-1.973,0.496-3.241c0.377-2.323,0.614-4.03,0.711-5.121c0.005-0.056-0.088-0.215-0.28-0.477
			c-0.193-0.263-0.28-0.494-0.262-0.695c0.119-1.345,0.546-2.721,1.283-4.128c0.951-1.829,2.144-2.946,3.576-3.349
			c3.825-1.84,6.544-2.377,8.158-1.61C104.24,119.605,104.752,120.782,104.593,122.577L104.593,122.577z M99.134,148.467
			c-0.011-0.323-0.137-0.685-0.377-1.085c-0.018,0.029-0.034,0.061-0.047,0.095c0.109,0.257,0.23,0.555,0.361,0.894
			C99.092,148.403,99.112,148.437,99.134,148.467z M97.322,165.028c0.004,0.208,0.016,0.401,0.033,0.582
			c0.133-0.806,0.22-1.438,0.26-1.897C97.538,164.094,97.44,164.533,97.322,165.028z M96.563,168.155
			c0.042,0.277,0.092,0.5,0.153,0.674c-0.005-0.369-0.028-0.706-0.068-1.008C96.62,167.933,96.592,168.044,96.563,168.155z
			 M90.858,161.379c0,0.005,0,0.009,0,0.013c0.038-0.153,0.074-0.3,0.106-0.435c0.016-0.323,0.021-0.652,0.015-0.988
			c-0.019,0.094-0.039,0.192-0.058,0.295c-0.06,0.356-0.091,0.614-0.094,0.773C90.825,161.175,90.835,161.288,90.858,161.379z
			 M90.612,163.238c0.017-0.056,0.036-0.101,0.055-0.134c0.02-0.138,0.044-0.286,0.074-0.443
			C90.693,162.871,90.65,163.062,90.612,163.238z M90.599,164.426c0-0.182,0.002-0.344,0.005-0.49
			c-0.063,0.285-0.122,0.597-0.176,0.932c0.009,0.009,0.015,0.018,0.02,0.026C90.493,164.743,90.544,164.588,90.599,164.426z
			 M90.413,164.963c-0.005,0.021-0.008,0.043-0.008,0.064c0.004-0.021,0.01-0.043,0.015-0.064H90.413z M90.597,165.399
			c0.003-0.155,0.005-0.299,0.002-0.433c-0.153,0.544-0.277,1.003-0.372,1.379c-0.075,0.653-0.165,1.532-0.271,2.639
			c0.297-0.599,0.479-1.436,0.545-2.51C90.529,166.074,90.56,165.718,90.597,165.399z M90.796,166.654
			c-0.129,0.791-0.211,1.317-0.248,1.584c-0.012,0.176-0.027,0.341-0.043,0.494c0.014-0.067,0.029-0.131,0.043-0.191
			c0.052-0.244,0.116-0.467,0.188-0.667C90.762,167.518,90.782,167.111,90.796,166.654L90.796,166.654z M90.628,169.304
			c0-0.018,0.001-0.033,0.001-0.046c-0.086,0.395-0.163,0.816-0.228,1.267c0.073-0.394,0.134-0.722,0.183-0.982
			C90.599,169.46,90.614,169.38,90.628,169.304z"/>
	</g>
	<g id="Layer_7_17_">
		<path id="path17_17_" fill="#010101" d="M93.838,120.729c0.765-0.781,1.441-1.274,2.025-1.478
			c0.326-0.122,0.768-0.298,1.327-0.525c0.465-0.177,0.865-0.288,1.201-0.336c0.868-0.12,1.89,0.137,3.067,0.771
			c0.38,0.2,0.904,0.456,1.572,0.768c0.511,0.253,0.823,0.463,0.941,0.634c0.525,0.734,0.983,1.715,1.375,2.94
			c0.225,0.723,0.479,1.744,0.766,3.062c0.012,0.646,0.063,1.374,0.158,2.186c0.187,0.193,0.291,0.307,0.315,0.342
			c-0.076-0.035-0.177-0.104-0.299-0.207c0.032,0.289,0.072,0.591,0.116,0.906c0.177,0.172,0.279,0.276,0.309,0.316l-0.052,0.031
			c-0.076-0.05-0.15-0.098-0.223-0.146c0.026,0.185,0.057,0.372,0.092,0.562c0.237,0.311,0.414,0.515,0.528,0.612
			c-0.166-0.095-0.335-0.245-0.507-0.449c0.039,0.215,0.079,0.437,0.122,0.667c0.201,0.275,0.308,0.428,0.325,0.457
			c-0.009,0.021-0.042,0.035-0.099,0.037c0.141,0.275,0.227,0.511,0.257,0.709l-0.045-0.001c-0.032-0.168-0.14-0.401-0.327-0.697
			c-0.005,0.005-0.011,0.009-0.02,0.013c0.047,0.216,0.09,0.438,0.134,0.666c0.041,0.046,0.084,0.091,0.126,0.14
			c0.369,0.442,0.556,0.771,0.559,0.986l-0.045-0.001c-0.085-0.225-0.282-0.521-0.587-0.884c0.046,0.221,0.09,0.438,0.127,0.654
			c0.227,0.276,0.538,0.657,0.938,1.144l-0.098,0.03c-0.299-0.321-0.557-0.608-0.775-0.862c0.012,0.055,0.022,0.112,0.029,0.168
			c0.264,0.362,0.399,0.608,0.409,0.739c0.126,0.153,0.272,0.332,0.44,0.537c-0.103-0.045-0.201-0.104-0.3-0.173
			c0.18,0.253,0.298,0.461,0.354,0.626c-0.015,0.034-0.035,0.051-0.065,0.05c-0.265-0.314-0.484-0.578-0.661-0.788
			c0.02,0.108,0.039,0.214,0.059,0.317c0.31,0.364,0.545,0.664,0.702,0.906c-0.009-0.009-0.016-0.015-0.024-0.021
			c0.063,0.071,0.119,0.132,0.17,0.186c-0.014,0.034-0.054,0.061-0.118,0.081c-0.212-0.134-0.418-0.273-0.617-0.42
			c0.008,0.047,0.016,0.097,0.023,0.148c0.029,0.031,0.057,0.064,0.081,0.099c0.092,0.123,0.174,0.237,0.244,0.348
			c0.329,0.467,0.492,0.817,0.487,1.049c-0.003,0.107-0.011,0.179-0.023,0.212l-0.064-0.014c-0.006-0.134-0.043-0.28-0.113-0.44
			l-0.052-0.001c-0.044-0.102-0.201-0.302-0.471-0.604c0.008,0.025,0.012,0.054,0.012,0.084c0.021,0.025,0.041,0.053,0.062,0.079
			c0.413,0.56,0.647,1.005,0.699,1.338l-0.013,0.019c0.175,0.283,0.259,0.494,0.256,0.632c-0.001,0.107-0.009,0.154-0.021,0.142
			l-0.046-0.002c-0.035-0.12-0.185-0.35-0.449-0.686c0.013,0.034,0.021,0.066,0.024,0.097l-0.045,0.018
			c0.133,0.21,0.24,0.409,0.321,0.601c0.143,0.167,0.22,0.293,0.23,0.38c0.181,0.24,0.299,0.446,0.354,0.62
			c0.225,0.361,0.339,0.67,0.342,0.924h-0.045c-0.043-0.195-0.135-0.416-0.276-0.665l-0.022,0.142l-0.077-0.002
			c0.02-0.104,0.016-0.215-0.013-0.335c-0.049-0.084-0.105-0.171-0.168-0.263l-0.052,0.031c-0.052-0.052-0.1-0.105-0.146-0.158
			l-0.026-0.007c0-0.008-0.002-0.019-0.005-0.031c-0.051-0.054-0.1-0.106-0.145-0.158c-0.115-0.094-0.219-0.178-0.312-0.253
			c0.181,0.233,0.309,0.438,0.388,0.615c0.138,0.175,0.236,0.314,0.293,0.42c0.102,0.117,0.15,0.2,0.15,0.247
			c-0.002,0.064-0.008,0.1-0.016,0.104l-0.039,0.013c-0.021-0.019-0.044-0.034-0.07-0.047c-0.018,0.025-0.035,0.049-0.052,0.069
			c0.137,0.192,0.281,0.391,0.431,0.597l-0.045-0.001c-0.154-0.202-0.297-0.387-0.426-0.558c-0.01,0.013-0.021,0.023-0.033,0.032
			c-0.067-0.08-0.134-0.158-0.202-0.237c0.18,0.311,0.368,0.659,0.571,1.051c-0.075-0.096-0.16-0.215-0.257-0.353
			c0.107,0.198,0.159,0.368,0.156,0.506c-0.002,0.09-0.014,0.163-0.036,0.22c-0.047-0.012-0.082-0.024-0.103-0.042l-0.025-0.025
			c0.01-0.035,0.013-0.072,0.01-0.11c-0.026,0.004-0.052,0.009-0.079,0.017c0.08,0.123,0.165,0.255,0.257,0.399l-0.098,0.018
			c-0.041-0.118-0.114-0.262-0.223-0.43c-0.098-0.067-0.192-0.137-0.286-0.207c0.6,0.718,0.986,1.315,1.161,1.792l-0.064-0.014
			c-0.159-0.381-0.52-0.91-1.081-1.584c0.195,0.292,0.342,0.574,0.439,0.848c0.146,0.197,0.218,0.332,0.217,0.405
			c-0.002,0.107-0.01,0.153-0.022,0.14h-0.045c-0.045-0.083-0.104-0.175-0.175-0.274c0.062,0.135,0.092,0.25,0.089,0.35
			c0,0.025-0.006,0.041-0.021,0.045c-0.017,0.008-0.037,0.018-0.059,0.024c0.01-0.018,0.015-0.039,0.015-0.064
			c0.003-0.111-0.048-0.258-0.151-0.441c-0.004,0.005-0.01,0.009-0.014,0.013c-0.004,0-0.043,0.012-0.116,0.036
			c-0.025-0.018-0.061-0.041-0.103-0.066c0.079,0.118,0.14,0.231,0.181,0.339c0.428,0.466,0.641,0.786,0.638,0.962
			c-0.003,0.107-0.014,0.125-0.034,0.053c-0.099-0.192-0.283-0.444-0.552-0.755c0.037,0.065,0.07,0.13,0.099,0.196
			c-0.013,0.033-0.035,0.049-0.065,0.049c-0.087-0.101-0.174-0.197-0.258-0.289c0.021,0.047,0.037,0.092,0.049,0.138
			c-0.084-0.094-0.166-0.186-0.246-0.276c0.041,0.091,0.063,0.168,0.066,0.232c0.008,0.009,0.015,0.018,0.019,0.026
			c0,0.008-0.003,0.02-0.008,0.031c0.104,0.146,0.207,0.287,0.308,0.428c0,0.03-0.002,0.057-0.002,0.077
			c0.166,0.248,0.307,0.487,0.416,0.719l-0.045-0.002c-0.107-0.144-0.354-0.45-0.734-0.919h-0.019c0-0.009,0-0.015,0-0.019
			c-0.029-0.04-0.059-0.078-0.088-0.112c-0.004,0-0.009,0.003-0.013,0.007c0.166,0.261,0.307,0.516,0.421,0.763
			c-0.085-0.049-0.172-0.115-0.26-0.199c0.149,0.201,0.293,0.422,0.432,0.662l-0.021,0.069h-0.045
			c-0.071-0.096-0.176-0.221-0.314-0.374c-0.002,0.086-0.015,0.139-0.036,0.159l-0.115-0.002c-0.144-0.18-0.282-0.354-0.415-0.52
			c0.119,0.201,0.188,0.355,0.203,0.464c0.202,0.193,0.344,0.364,0.427,0.512c-0.123-0.072-0.36-0.251-0.711-0.538
			c0.15,0.193,0.271,0.342,0.357,0.446c0.001-0.017,0.008-0.032,0.021-0.044c0.018-0.013,0.032-0.008,0.046,0.014
			c-0.001,0.064-0.015,0.107-0.036,0.128c-0.034-0.019-0.071-0.043-0.113-0.072c0.021,0.025,0.036,0.053,0.049,0.084
			c0.135,0.132,0.257,0.27,0.365,0.415c-0.06-0.032-0.12-0.065-0.185-0.103c0.045,0.084,0.068,0.143,0.068,0.177
			c-0.003,0.069-0.006,0.109-0.01,0.122c-0.005,0.014-0.015,0.028-0.027,0.045l-0.046-0.002c-0.167-0.235-0.315-0.446-0.45-0.635
			c-0.021-0.018-0.045-0.033-0.07-0.047c0.012,0.073,0.021,0.151,0.028,0.233c0.166,0.235,0.322,0.46,0.47,0.675
			c0.06,0.001,0.103,0.036,0.132,0.106c0.018,0.038,0.041,0.11,0.072,0.215c-0.013,0.024-0.052,0.047-0.116,0.067
			c-0.107-0.103-0.235-0.238-0.385-0.409c0.159,0.31,0.248,0.584,0.266,0.826c0.021,0.001,0.048-0.006,0.078-0.018
			c0.029-0.008,0.051-0.013,0.064-0.013c-0.009,0.043-0.032,0.095-0.067,0.154c-0.151-0.188-0.295-0.368-0.428-0.539
			c0.019,0.341,0.026,0.667,0.023,0.976c0.152,0.382,0.427,0.839,0.828,1.373c0.047,0.062,0.094,0.124,0.146,0.19
			c0.176,0.033,0.336,0.052,0.481,0.055l-0.032,0.038c-0.073,0.043-0.182,0.061-0.324,0.058c0.126,0.154,0.254,0.303,0.384,0.447
			c0.106,0.062,0.217,0.129,0.332,0.2c0.577,0.373,0.966,0.705,1.165,0.994c0.327,0.2,0.534,0.357,0.622,0.472
			c-0.315-0.188-0.604-0.355-0.873-0.503c0.021,0.013,0.042,0.03,0.062,0.053c0.03,0.014,0.061,0.028,0.09,0.047
			c0.523,0.291,0.88,0.544,1.067,0.759c0.161,0.119,0.335,0.262,0.52,0.425c0.559,0.488,0.855,0.865,0.893,1.129
			c0.366,0.329,0.59,0.576,0.668,0.737c0.029,0.029,0.057,0.063,0.082,0.098c0.696,0.597,1.041,1.056,1.033,1.378
			c0,0.035-0.014,0.075-0.039,0.122c-0.006,0.004-0.011,0.01-0.016,0.02c0.194,0.244,0.304,0.44,0.33,0.587
			c0.111,0.205,0.175,0.395,0.188,0.571c0.438,0.437,0.733,0.804,0.887,1.104l-0.033,0.032c-0.17-0.31-0.482-0.687-0.938-1.13
			c0.037,0.09,0.055,0.171,0.054,0.239c-0.001,0.043-0.008,0.083-0.016,0.122c0.154,0.167,0.325,0.355,0.511,0.566
			c0.792,0.903,1.187,1.46,1.182,1.671c-0.001,0.068-0.006,0.111-0.016,0.129c-0.005,0.014-0.016,0.022-0.032,0.03
			c-0.191-0.317-0.559-0.801-1.104-1.448c0.083,0.147,0.166,0.302,0.248,0.462l-0.063-0.026c-0.221-0.357-0.429-0.676-0.624-0.955
			c-0.014-0.014-0.024-0.023-0.032-0.034c0.089,0.218,0.194,0.471,0.312,0.763c0.063,0.062,0.117,0.12,0.163,0.178
			c0.513,0.591,0.86,1.118,1.043,1.577c0.266,0.289,0.415,0.529,0.45,0.719l-0.064-0.001c-0.242-0.185-0.474-0.367-0.697-0.544
			c0.619,0.581,0.952,1.045,1.001,1.39l-0.063-0.021c-0.013-0.03-0.231-0.23-0.659-0.602c0.009,0.014,0.016,0.025,0.02,0.039
			c0.122,0.11,0.25,0.227,0.386,0.351l-0.033,0.032c-0.088-0.072-0.176-0.141-0.26-0.206c0.055,0.096,0.103,0.188,0.149,0.28
			c0.219,0.211,0.495,0.516,0.832,0.909l-0.052-0.001c-0.135-0.149-0.329-0.34-0.582-0.568c0.038,0.062,0.075,0.122,0.112,0.183
			c0.084,0.084,0.152,0.156,0.201,0.218l-0.032,0.031c-0.004-0.005-0.011-0.01-0.019-0.014c0.024,0.035,0.049,0.073,0.074,0.111
			c0.275,0.221,0.499,0.41,0.672,0.563c-0.19-0.126-0.36-0.233-0.509-0.327c0.055,0.078,0.116,0.181,0.187,0.308
			c0.19,0.167,0.338,0.305,0.442,0.409c-0.109-0.071-0.219-0.14-0.324-0.207c0.133,0.226,0.291,0.51,0.472,0.849
			c0.411,0.686,0.882,1.222,1.41,1.612c0.433,0.319,0.927,0.538,1.482,0.658c0.31,0.066,0.734,0.132,1.273,0.195
			c0.411,0.082,0.709,0.245,0.893,0.491c0.235,0.312,0.363,0.83,0.386,1.55c0.029,0.874-0.385,1.885-1.24,3.03
			c-0.158,0.203-0.541,0.677-1.146,1.421c-0.479,0.588-0.834,1.065-1.07,1.436c-0.249,0.389-0.49,0.972-0.722,1.746
			c-0.271,0.962-0.465,1.569-0.582,1.826c-0.272,0.643-0.633,1.119-1.083,1.428c-0.477,0.33-1.098,0.51-1.863,0.539v0.006
			c0.003,0.053-0.083,0.052-0.258-0.004c-0.02-0.002-0.043-0.002-0.07-0.002c0.019,0,0.036-0.002,0.051-0.006
			c-0.132-0.046-0.32-0.121-0.563-0.23c-0.469-0.002-0.78-0.005-0.935-0.008c-0.379-0.008-0.58-0.349-0.604-1.02
			c-0.005-0.137,0.002-0.249,0.021-0.335c0.023-0.085,0.035-0.135,0.036-0.147c0.237-0.025,0.438-0.034,0.601-0.025
			c0.043-0.03,0.092-0.057,0.144-0.08c0.101-0.042,0.444-0.091,1.035-0.146c0.47-0.046,0.812-0.186,1.029-0.417
			c0.295-0.338,0.43-0.913,0.404-1.726c-0.024-0.823,0.034-1.699,0.18-2.63c0.155-0.784,0.229-1.235,0.223-1.355
			c-0.038-1.192-1.004-3.063-2.896-5.612c-0.306-0.411-0.649-0.855-1.029-1.332c0.036,0.1,0.076,0.21,0.121,0.331l-0.046-0.001
			c-0.053-0.12-0.099-0.229-0.141-0.325c-0.002,0.09-0.013,0.111-0.033,0.064c-0.049-0.131-0.098-0.257-0.146-0.377
			c-0.088-0.115-0.18-0.229-0.276-0.343c0.068,0.152,0.116,0.282,0.14,0.392l-0.045-0.002c-0.213-0.357-0.396-0.678-0.554-0.962
			c-0.087-0.109-0.179-0.218-0.271-0.328c-0.08-0.096-0.157-0.188-0.232-0.275c0.181,0.375,0.273,0.653,0.278,0.838h-0.046
			c-0.019-0.083-0.175-0.442-0.467-1.082c-0.012-0.03-0.025-0.062-0.042-0.091c-0.126-0.153-0.243-0.297-0.353-0.428
			c0.037,0.079,0.055,0.128,0.055,0.149c-0.002,0.069,0.008,0.123,0.029,0.163c0.013,0.021,0.036,0.058,0.075,0.111
			c-0.278-0.101-0.524-0.414-0.742-0.938c-0.035-0.113-0.07-0.217-0.103-0.313c-0.121-0.144-0.182-0.219-0.182-0.223
			c-0.192-0.239-0.417-0.503-0.673-0.789c0.05,0.07,0.106,0.143,0.169,0.217c0.322,0.396,0.483,0.613,0.482,0.656
			c-0.001,0.056,0.014,0.113,0.047,0.175c0.038,0.062,0.057,0.118,0.056,0.17c-0.003,0.107-0.014,0.127-0.034,0.056
			c-0.132-0.261-0.422-0.74-0.872-1.438c-0.139-0.153-0.287-0.313-0.448-0.48c0.138,0.218,0.302,0.458,0.495,0.72l-0.055,0.083
			c-0.35-0.489-0.612-0.876-0.787-1.159c-0.029-0.03-0.059-0.061-0.087-0.093c-0.003,0.091-0.015,0.117-0.035,0.077
			c-0.167-0.205-0.316-0.391-0.446-0.558c-0.062-0.062-0.128-0.123-0.196-0.185c0.009,0.021,0.013,0.041,0.013,0.058
			c-0.001,0.064-0.006,0.101-0.017,0.11c-0.004,0.004-0.015,0.007-0.031,0.011c-0.175-0.11-0.455-0.424-0.846-0.94
			c-0.087-0.113-0.164-0.217-0.23-0.308c-0.013-0.009-0.025-0.02-0.039-0.034c0.05,0.075,0.076,0.127,0.075,0.157
			c-0.002,0.107-0.014,0.131-0.035,0.07c-0.129-0.021-0.387-0.278-0.776-0.772c-0.125-0.157-0.229-0.295-0.313-0.413
			c0.021,0.053,0.03,0.094,0.03,0.123c-0.001,0.064-0.007,0.1-0.016,0.104c-0.009,0-0.026,0-0.052-0.001
			c-0.101-0.14-0.258-0.378-0.474-0.714c-0.06-0.091-0.113-0.175-0.164-0.248c-1.712-1.741-2.752-3.225-3.116-4.449
			c-0.531-0.266-1.069-0.703-1.617-1.313c0.092,0.149,0.195,0.319,0.312,0.511c-0.106-0.067-0.234-0.198-0.386-0.396
			c0.021,0.053,0.045,0.105,0.067,0.162h-0.051c-0.062-0.123-0.127-0.263-0.197-0.425c-0.005-0.009-0.011-0.02-0.019-0.032
			c-0.108-0.174-0.193-0.329-0.255-0.465c-0.158-0.209-0.319-0.432-0.482-0.667c0.111,0.252,0.257,0.584,0.437,0.997l-0.051-0.001
			c-0.081-0.227-0.246-0.574-0.494-1.044l-0.064-0.002c-0.002-0.059-0.015-0.134-0.034-0.22c-0.007-0.035-0.017-0.066-0.03-0.097
			c-0.803-1.262-1.624-2.885-2.461-4.874c-0.733-1.724-1.419-3.597-2.059-5.619c-0.511-1.606-0.769-2.505-0.774-2.695
			c-0.034-1.015-0.167-2.013-0.4-2.995c-0.354-1.307-0.661-2.462-0.918-3.466c-0.211-0.813-0.393-1.944-0.546-3.392
			c-0.155-1.553-0.308-2.647-0.458-3.288l0.031-0.257l0.424-0.173c0.231,0.04,0.473-0.033,0.727-0.217
			C93.257,121.292,93.505,121.067,93.838,120.729L93.838,120.729z M107.775,138.299c0.003,0.038,0.005,0.079,0.01,0.122
			c0.024,0.031,0.049,0.062,0.068,0.093c0.013,0.01,0.023,0.018,0.032,0.026c0.067,0.066,0.132,0.128,0.195,0.185
			C107.994,138.591,107.892,138.447,107.775,138.299z M108.656,139.59v0.006c0.004,0,0.009,0.003,0.013,0.007
			C108.665,139.598,108.66,139.594,108.656,139.59z M108.492,141.211c-0.114-0.121-0.215-0.232-0.302-0.329
			c-0.105-0.092-0.227-0.21-0.361-0.354c0.038,0.051,0.076,0.106,0.112,0.162c0.262,0.237,0.464,0.438,0.607,0.601
			C108.532,141.265,108.513,141.238,108.492,141.211z M108.046,140.118c-0.043-0.035-0.086-0.071-0.129-0.106
			c0.09,0.101,0.167,0.193,0.233,0.276C108.118,140.228,108.082,140.171,108.046,140.118z M107.55,143.34
			c0.107,0.148,0.203,0.285,0.287,0.412c0.021,0.022,0.04,0.044,0.057,0.065c0-0.008-0.002-0.015-0.007-0.02
			c-0.137-0.2-0.249-0.364-0.336-0.489C107.55,143.316,107.55,143.327,107.55,143.34z M110.652,150.795
			c-0.235-0.263-0.627-0.568-1.174-0.916c-0.004-0.004-0.009-0.006-0.013-0.006c0.206,0.211,0.417,0.406,0.632,0.588
			c0.013,0.008,0.025,0.02,0.038,0.032c0.034,0.018,0.067,0.037,0.103,0.054C110.391,150.633,110.53,150.715,110.652,150.795z
			 M114.72,155.4c0.047,0.052,0.089,0.103,0.126,0.149c-0.012-0.081-0.066-0.184-0.167-0.306
			C114.699,155.296,114.713,155.347,114.72,155.4z M115.218,156.565c-0.06-0.251-0.308-0.6-0.745-1.048
			c0.066,0.104,0.126,0.211,0.181,0.319C114.914,156.118,115.102,156.36,115.218,156.565z M116.803,159.89
			c-0.193-0.373-0.513-0.819-0.958-1.336c0.1,0.229,0.203,0.479,0.313,0.749c0.009,0.009,0.018,0.015,0.026,0.019
			C116.429,159.53,116.636,159.72,116.803,159.89z M101.656,151.193l-0.052-0.001c-0.013-0.048-0.026-0.097-0.042-0.144
			C101.596,151.102,101.626,151.15,101.656,151.193z M112.129,152.324c-0.098-0.071-0.188-0.137-0.273-0.199
			c0.076,0.079,0.151,0.159,0.228,0.243c0.101,0.074,0.209,0.159,0.323,0.253c0.211,0.167,0.397,0.322,0.558,0.463
			C112.806,152.874,112.527,152.621,112.129,152.324L112.129,152.324z"/>
	</g>
</g>
</svg>
