<?xml version="1.0" encoding="utf-8"?>
<!-- Generator: Adobe Illustrator 15.0.0, SVG Export Plug-In . SVG Version: 6.00 Build 0)  -->
<svg version="1.2" baseProfile="tiny" id="Layer_1" xmlns="http://www.w3.org/2000/svg" xmlns:xlink="http://www.w3.org/1999/xlink"
	 x="0px" y="0px" width="200px" height="200px" viewBox="0 0 200 200" overflow="inherit" xml:space="preserve">
<g>
	<g id="Layer_2_16_">
		<path id="path5_23_" fill="#010101" d="M48.226,23.694c-0.173-0.449-0.293-0.896-0.362-1.344c-0.104-0.999,0-1.963,0.311-2.893
			c0.377-1.137,0.929-2.188,1.652-3.152c-0.068-0.137-0.103-0.275-0.103-0.414c0-0.137,0.018-0.258,0.052-0.361
			c0.034-0.103,0.085-0.199,0.154-0.285c0.131-0.094,0.312-0.129,0.543-0.103c-0.053-0.107-0.079-0.185-0.079-0.232
			c0-0.226,0.182-0.27,0.544-0.129c-0.019-0.133-0.026-0.281-0.026-0.44c0-0.447,0.311-0.568,0.93-0.361
			c0.028,0.009,0.057,0.018,0.077,0.026c-0.034-0.105-0.043-0.201-0.024-0.284l0.155-0.026v-0.026c0-0.483,0.164-0.673,0.491-0.568
			c0.042-0.467,0.24-0.553,0.594-0.258c0.037-0.241,0.157-0.362,0.362-0.362c0.117,0,0.23,0.034,0.335,0.104l0.026-0.025
			c0.002-0.224,0.089-0.336,0.258-0.336c0.017,0.031,0.051,0.092,0.104,0.181c0.022-0.418,0.231-0.531,0.62-0.335
			c0.062,0.027,0.121,0.062,0.182,0.103c0.044-0.009,0.089-0.018,0.129-0.026c0.055-0.14,0.14-0.269,0.259-0.388
			c0.152,0.154,0.274,0.292,0.362,0.414c0.029,0.017,0.055,0.033,0.077,0.051c0.065-0.415,0.245-0.502,0.541-0.258
			c0.034,0.025,0.069,0.051,0.105,0.078l0.024-0.026c-0.019-0.087-0.024-0.156-0.024-0.206c0-0.517,0.189-0.638,0.568-0.362
			c0.069,0.064,0.129,0.123,0.18,0.181c0.062-0.018,0.121-0.036,0.183-0.052c0.045-0.375,0.268-0.471,0.671-0.283
			c0.071,0.041,0.14,0.085,0.207,0.129c0.142-0.016,0.288-0.024,0.439-0.026c0.083-0.277,0.281-0.362,0.594-0.259
			c0.143,0.047,0.263,0.125,0.36,0.232c0.054,0,0.106,0,0.156,0c0.086-0.232,0.275-0.275,0.567-0.13
			c0.076,0.044,0.145,0.097,0.206,0.156c0.068-0.004,0.138-0.004,0.208,0c0.154,0.01,0.309,0.018,0.464,0.026
			c0.071-0.24,0.263-0.283,0.57-0.129c0.139,0.058,0.259,0.136,0.36,0.232c0.518,0.068,0.975,0.154,1.37,0.259
			c0.046-0.088,0.123-0.115,0.231-0.079c0.118,0.04,0.205,0.117,0.258,0.233c0.279,0.095,0.513,0.198,0.698,0.31
			c0.095-0.038,0.205-0.063,0.337-0.078c-0.055,0.077-0.106,0.146-0.156,0.207c0.183,0.17,0.294,0.35,0.336,0.542
			c0.085-0.068,0.18-0.111,0.285-0.129c0.276-0.051,0.45,0.078,0.516,0.387c0.225-0.12,0.433-0.181,0.62-0.181
			c0.449,0,0.586,0.034,0.413,0.104c0.1,0.229,0.134,0.505,0.104,0.827h0.053c0.274,0,0.446,0.137,0.517,0.412v0.026
			c0.032-0.022,0.066-0.047,0.104-0.078c0.378,0.173,0.551,0.431,0.516,0.775c0,0.233,0,0.422,0,0.568
			c0.032-0.036,0.065-0.07,0.104-0.103c0.206-0.172,0.311-0.069,0.311,0.31c0,0.025,0,0.05,0,0.078
			c0.149-0.016,0.303-0.042,0.465-0.078c0.448,0,0.638,0.034,0.569,0.104c0.034,0.137,0.017,0.292-0.053,0.464
			c-0.058,0.204-0.092,0.394-0.104,0.569h0.052c0.023,0.002,0.052,0.01,0.078,0.025l0.026-0.025v0.025
			c0.309,0.052,0.464,0.233,0.464,0.543c0,0.066-0.01,0.136-0.025,0.207c0.153-0.061,0.231,0.009,0.231,0.207
			c0,0.04-0.06,0.125-0.181,0.258c0.023,0.036,0.04,0.07,0.053,0.104c0.027,0,0.054,0,0.077,0c0.276,0,0.414,0.121,0.414,0.362
			c0,0.07-0.088,0.182-0.259,0.336v0.026l0.051,0.129c0.048,0.018,0.1,0.043,0.155,0.077l0.053,0.104
			c-0.029,0.057-0.065,0.107-0.105,0.154l0.129,0.414c0.119,0.01,0.266,0.044,0.44,0.103c-0.061,0.021-0.121,0.039-0.182,0.053
			c0.155,0.076,0.234,0.215,0.234,0.412c0,0.092-0.07,0.196-0.208,0.31c0.013,0.035,0.021,0.07,0.025,0.104
			c0.265,0.015,0.462,0.187,0.595,0.517c0,0.188-0.104,0.302-0.311,0.336c0.025,0.09,0.052,0.176,0.078,0.258
			c0.021,0.022,0.048,0.049,0.075,0.077v0.104c0.141,0.107,0.243,0.228,0.312,0.361v0.311l-0.154,0.052h-0.053
			c-0.007,0.089-0.032,0.2-0.078,0.335c0.123,0.194,0.183,0.46,0.183,0.801c0,0.585-0.171,0.877-0.517,0.877
			c-0.061,0-0.121-0.017-0.182-0.051c-0.03,0.254-0.144,0.392-0.335,0.414l-0.284,0.465c0.018,0.101,0.025,0.204,0.025,0.31
			c-0.064,0.357-0.22,0.546-0.464,0.569c-0.017,0.064-0.051,0.151-0.104,0.258c-0.092,0.122-0.195,0.191-0.311,0.207
			c-0.031,0.29-0.187,0.452-0.465,0.49c0.033,0.107,0.053,0.237,0.053,0.388c0,0.344-0.104,0.568-0.312,0.672
			c-0.07,0.049-0.14,0.101-0.206,0.154c-0.011,0.311-0.132,0.465-0.362,0.465c-0.023,0-0.049-0.008-0.077-0.025
			c-0.005,0.025-0.014,0.053-0.024,0.077c-0.105,0.173-0.207,0.258-0.312,0.258c-0.072,0-0.142-0.017-0.205-0.051h-0.026
			c-0.55,0.862-0.972,1.431-1.266,1.705c-1.325,1.257-3.606,2.514-6.847,3.771c-0.442,0.316-1.054,0.694-1.835,1.138
			c-1.894,1.033-3.238,1.55-4.031,1.55c-0.042-0.004-0.085-0.015-0.128-0.026c-0.282,0.087-0.532,0.129-0.749,0.129
			c-1.304,0-2.304-0.137-2.998-0.413c-0.653-0.104-1.137-0.466-1.445-1.086c-0.207-0.344-0.38-0.705-0.517-1.084
			c-0.172-0.482-0.5-0.948-0.981-1.395l-0.466-0.156c-0.227-0.28-0.329-0.538-0.31-0.775c0.019-0.236,0.123-0.443,0.31-0.62
			l-0.723-0.621c0-0.378,0.086-0.775,0.258-1.188c0.006-0.017,0.017-0.034,0.026-0.051c0.509-0.396,0.741-0.793,0.696-1.189
			l-0.567-0.258c-0.413-0.241-0.551-0.62-0.413-1.136c0.061-0.593,0.439-1.058,1.138-1.396c0.427-0.499,0.84-1.016,1.24-1.55
			C48.345,24.573,48.362,24.177,48.226,23.694z"/>
	</g>
	<g id="Layer_3_21_">
		<path id="path8_22_" fill="#010101" d="M94.834,84.41c0.279,0.418,0.571,0.848,0.879,1.292c2.825,4.134,4.237,7.44,4.237,9.921
			c0,1.24-0.274,2.911-0.826,5.012c-0.102,0.334-0.193,0.67-0.284,1.008c-0.063,0.056-0.123,0.116-0.182,0.181
			c-2.791,3.031-6.493,4.548-11.109,4.548l-7.234-0.517c-0.965,0.896-1.912,1.343-2.842,1.343c-1.171,0-1.895-0.173-2.171-0.517
			c-0.137-0.517-0.396-0.912-0.774-1.188c0,0.621,0.086,1.619,0.258,2.997c0.277,1.55-0.12,2.325-1.188,2.325
			c-1.3,0-2.231-0.611-2.79-1.834c0.296-0.234,0.486-0.641,0.569-1.215v-1.911c0-2.308-0.43-5.495-1.292-9.56
			c-0.896-4.238-1.791-7.062-2.688-8.474c-1.826-3.651-3.497-6.804-5.014-9.457c-1.102-1.906-2.128-3.457-3.073-4.65
			c-0.432-0.941-0.82-1.829-1.164-2.661c-0.246-0.753-0.522-1.571-0.825-2.454c-0.309-0.88-0.593-1.674-0.854-2.377
			c-0.224-0.943-0.336-1.735-0.336-2.377c0-0.187,0-0.359,0-0.517c-0.345-0.28-0.698-0.591-1.057-0.93
			c-0.107-0.29-0.187-0.48-0.234-0.568c-1.376-2.102-2.187-3.341-2.429-3.72c-0.826-1.448-1.344-2.705-1.551-3.773
			c-0.021-0.154-0.049-0.31-0.077-0.465c0.03-0.88,0.074-1.844,0.13-2.894c0.207-3.238,0.499-5.305,0.879-6.201
			c0.095-0.233,0.224-0.484,0.388-0.749c0.114-1.534,0.94-2.861,2.479-3.979c-0.055-0.167-0.098-0.366-0.128-0.593
			c-0.034-1.034-0.052-1.568-0.052-1.603c0-0.461,0.061-0.891,0.18-1.292c-0.567-0.256-0.987-0.634-1.265-1.136
			c-0.207-0.414-0.311-1.12-0.311-2.119c0-0.172,0.706-1.085,2.119-2.739c1.688-1.93,3.271-3.48,4.753-4.651
			c3.494-2.858,5.646-3.031,6.459-0.516c0.213-0.08,0.454-0.113,0.724-0.104c0.104,0.896,0.535,3.549,1.292,7.958
			c0.139,0.895,1.258,2.1,3.359,3.617c2.823,2.032,4.254,3.066,4.288,3.1c0.966,0.964,2.515,3.703,4.651,8.216
			c1.225,2.616,2.077,4.554,2.558,5.812c0.221,1.302,0.471,2.688,0.749,4.161c1.207,6.303,2.257,10.403,3.153,12.298
			c0.722,1.516,1.583,3.79,2.584,6.821c1.033,2.618,2.446,4.736,4.237,6.356C94.296,83.897,94.571,84.156,94.834,84.41z"/>
	</g>
	<g id="Layer_4_23_">
		<path id="path11_20_" fill="#010101" d="M74.63,55.266c3.1,3.686,4.65,6.476,4.65,8.371c0,0.241,0.431,1.017,1.292,2.326
			c0.86,1.31,1.292,2.343,1.292,3.1c0,3.41-3.669,8.319-11.007,14.727c-1.653,1.448-3.583,4.1-5.787,7.958
			c-2.344,4.064-3.599,6.184-3.772,6.356c0.275,1.378,0.413,2.153,0.413,2.326c0,0.413-0.344,0.896-1.033,1.446
			c-0.792,0.621-1.652,0.931-2.584,0.931c-0.309,0-0.567-0.224-0.773-0.673v-0.025c-0.385,0.189-0.782,0.283-1.19,0.283
			l-0.877-0.153v-0.672c-0.232,0.034-0.455,0.052-0.673,0.052l-0.619-0.104c-0.022-0.113-0.038-0.225-0.052-0.336
			c-0.537-0.164-1.327-0.361-2.378-0.595c-0.104-0.757-0.154-1.344-0.154-1.757c0-2.515,1.102-4.357,3.308-5.529
			c0.251-0.14,0.493-0.253,0.724-0.336c0.239-0.332,0.593-0.703,1.058-1.111c0.388-0.523,1.035-1.248,1.938-2.17
			c0.827-0.86,1.757-1.791,2.791-2.79c0.574-0.687,1.143-1.289,1.704-1.809c0.854-1.654,2.319-4.325,4.393-8.01
			c1.55-2.79,2.497-4.443,2.842-4.959c0.519-0.773,1.061-1.479,1.627-2.119c-0.421-0.388-0.876-0.818-1.368-1.292
			c-2.445-2.344-3.963-3.979-4.547-4.909c-1.895-2.963-2.895-4.548-2.997-4.754c-0.553-1.076-0.847-2.392-0.878-3.952
			c-0.089-0.17-0.174-0.333-0.26-0.492c-1.998-0.173-3.221-0.585-3.668-1.24c-0.414-0.62-0.74-0.93-0.981-0.93
			c-0.725,0-1.154-0.5-1.292-1.499c0-0.964,0-1.464,0-1.498c0-5.443,2.17-8.269,6.51-8.475c1.758-0.103,3.378,0.362,4.858,1.396
			c1.55,1.068,2.531,2.48,2.945,4.237C70.048,48.722,71.563,51.615,74.63,55.266z"/>
	</g>
	<g id="Layer_5_25_">
		<path id="path14_20_" fill="#010101" d="M97.985,52.115c0,1.17-0.843,3.857-2.531,8.061c-0.385,0.981-0.773,1.867-1.162,2.661
			c-1.481,1.691-2.644,3.06-3.487,4.107c-0.392,0.353-0.711,0.664-0.958,0.931h-0.024c-0.075,0.093-0.152,0.188-0.234,0.284
			c-0.048,0.058-0.1,0.118-0.153,0.181c-2.315,2.825-3.979,4.238-4.987,4.238c-0.756,0-1.239-0.259-1.446-0.775
			c-0.068-0.551-0.104-0.843-0.104-0.878c0-1.24,0.432-3.72,1.292-7.44c0.817-3.395,1.42-5.343,1.809-5.839
			c0.093-0.33,0.232-0.743,0.414-1.241c0.343-1.067,0.516-1.635,0.516-1.704c-0.829-0.22-1.587-0.427-2.273-0.621
			c-0.066,0-0.137,0-0.207,0c-4.547,0-8.853-0.948-12.918-2.843c-4.65-2.169-6.976-4.839-6.976-8.009
			c-0.206-1.584-0.31-2.687-0.31-3.308c-0.034-0.998,0.465-2.134,1.498-3.41c0.929-1.136,2.909-1.24,5.941-0.309
			c2.312,0.696,3.94,1.497,4.884,2.402c1.887,1.186,3.875,2.59,5.969,4.212c2.17,0.482,5.115,1.688,8.836,3.617
			c4.146,2.19,6.264,3.922,6.355,5.192c0.05,0.007,0.104,0.018,0.154,0.026C97.882,51.788,97.917,51.942,97.985,52.115z"/>
	</g>
	<g id="Layer_6_17_">
		<path id="path17_22_" fill="#010101" d="M94.782,95.313c0.034,0.034,0.517,0.844,1.447,2.428c0.62,0.965,1.498,2.669,2.636,5.117
			c0.931,1.994,1.759,3.491,2.479,4.494c2.085,4.979,3.729,8.655,4.934,11.033c0.212,1.074,0.667,2.648,1.369,4.728
			c0.215,0.651,0.404,1.229,0.567,1.731c0.837-0.205,1.958-0.455,3.359-0.75h8.01c0.585,0.174,2.532,0.742,5.839,1.706
			c1.514,0.4,2.943,0.72,4.288,0.956c0.625,0.232,1.296,0.466,2.015,0.697c3.857,1.205,7.992,1.809,12.402,1.809
			c0.511,0,0.976-0.018,1.395-0.051c0.085,0.122,0.181,0.225,0.285,0.309c0.537-0.546,1.372-0.924,2.505-1.137
			c0.497-0.094,1.106-0.189,1.836-0.284c0.073-0.058,0.151-0.12,0.231-0.181c1.791-1.344,3.256-2.016,4.393-2.016
			c1.055,0,1.908,0.174,2.559,0.518l3.746,6.976c1.867,3.23,3.475,5.771,4.832,7.622c0.014,0.053,0.021,0.097,0.024,0.129
			c0.065,0.433,0.203,0.882,0.414,1.343c0.735,0.341,1.546,1.099,2.428,2.274v1.963c0,0.035,0,0.068,0,0.104
			c0,0.068-0.118,0.104-0.361,0.104c-0.019,0.146-0.052,0.275-0.103,0.388l-2.637-1.268c-0.104,0.174-0.311,0.259-0.62,0.259
			c-0.758,0-1.274-0.274-1.551-0.827c-0.066-0.145-0.139-0.273-0.206-0.387c-0.115-0.012-0.228-0.022-0.336-0.026
			c-0.383-0.17-0.841-0.438-1.367-0.8c-0.116-0.012-0.237-0.021-0.364-0.025c-0.62-0.034-1.119-0.293-1.498-0.775v-0.646
			c-0.582-0.486-1.221-1.046-1.912-1.679c-0.378-0.345-0.672-0.81-0.88-1.396c-0.274-0.723-0.498-1.205-0.67-1.447
			c-0.413-0.584-1.378-0.998-2.894-1.24c-0.485-0.077-0.88-0.182-1.189-0.309h-12.712c-3.824,0.377-6.545,0.775-8.162,1.188
			c-0.312,0.068-3.428,0.104-9.354,0.104c-0.022,0-0.048,0-0.077,0c-0.419-0.15-0.927-0.186-1.524-0.104l-4.083-0.025
			c-1.259-0.178-2.662-0.229-4.21-0.154c-1.83-0.213-3.26-0.196-4.288,0.053c-0.196-0.039-0.396-0.082-0.595-0.13
			c-2.263-0.035-3.899-0.191-4.909-0.466c-1.175-0.301-1.776-0.844-1.809-1.627c-0.266-0.2-0.517-0.467-0.748-0.801
			c-2.391-1.199-5.174-3.973-8.346-8.32c-2.722-3.685-5.03-7.406-6.925-11.16c-0.965-1.86-2.516-5.581-4.65-11.162
			c-2.067-5.477-3.101-8.508-3.101-9.094c0-0.551,0.38-1.068,1.137-1.551c0.724-0.448,0.999-1.137,0.828-2.066
			c-0.035-0.035-0.053-0.069-0.053-0.104c0-0.103,0.053-0.206,0.154-0.31c0.139,0.104,0.397,0.363,0.775,0.775
			c0.345,0,1.981-0.122,4.909-0.361c3.066-0.035,5.392,0.43,6.976,1.394C92.835,93.384,93.956,94.211,94.782,95.313L94.782,95.313z"
			/>
	</g>
	<g id="Layer_7_21_">
		<path id="path20_8_" fill="#010101" d="M47.863,122.285c0-1.309,1.326-3.841,3.979-7.595c2.618-3.722,5.753-7.511,9.404-11.368
			c9.302-9.887,15.83-14.245,19.585-13.074c2.479-0.172,4.374,1.17,5.685,4.031c0.86,1.998,1.291,4.013,1.291,6.045
			c0,1.139-1.275,3.876-3.824,8.217c-2.55,4.341-4.409,6.89-5.579,7.648c-3.445,2.996-6.614,5.527-9.508,7.596
			c-2.302,1.646-4.472,2.955-6.511,3.926c0.019,0.035,0.034,0.068,0.052,0.104c0.516,1.101,0.792,1.929,0.826,2.479l0.36,5.477
			c0,2.826-0.963,6.891-2.893,12.196c-1.929,5.34-2.893,10.646-2.893,15.915c0,1.998,0.171,3.651,0.517,4.96
			c0.343,1.31,0.516,2.636,0.516,3.981c0,1.584-0.275,2.53-0.826,2.841c-1.618,0.517-3.497,1.239-5.633,2.171
			c-0.414,0.172-1.517,0.378-3.307,0.62c-0.063,0.011-0.125,0.019-0.181,0.024c-0.521,0.285-1.168,0.535-1.938,0.75
			c-1.827,0.517-3.944,0.775-6.356,0.775c-0.206,0-0.378,0.104-0.518,0.311c-0.103,0.172-0.274,0.259-0.516,0.259
			c-0.724,0-1.293-0.173-1.704-0.517c-0.082,0-0.15,0-0.207,0c-0.178,0-0.358-0.01-0.543-0.027c-0.396,0.26-0.786,0.389-1.164,0.389
			c-0.239,0-0.412-0.018-0.517-0.052c-0.24-0.138-0.396-0.206-0.464-0.206c-0.104,0.034-0.155-0.154-0.155-0.568
			c0-0.064,0.052-0.158,0.155-0.285l-0.053-0.024c-0.415-0.03-0.795-0.116-1.136-0.259c-0.518-0.172-0.775-0.413-0.775-0.723
			c0-0.139,0.019-0.268,0.052-0.389c-0.068-0.072-0.138-0.142-0.208-0.206l-0.051-0.025c-0.149-0.05-0.245-0.161-0.283-0.335
			c-0.078-0.092-0.147-0.178-0.207-0.258c-0.744-0.168-1.113-0.625-1.113-1.373c0-0.534,0.284-0.973,0.854-1.318
			c0.341,0.053,0.658,0.078,0.955,0.078c0.755,0,1.393-0.035,1.911-0.104c0.062,0.046,0.123,0.099,0.183,0.154
			c0.185-0.104,0.375-0.206,0.567-0.311c1.068-0.029,2.679-0.631,4.831-1.809c1.579-0.872,2.62-1.663,3.127-2.376
			c0.419-0.259,0.892-0.552,1.421-0.88c0.783-0.484,1.438-0.88,1.962-1.188c0.586-2.782,0.88-4.557,0.88-5.322
			c0-1.688,0.43-4.168,1.293-7.441V133.5c0.171-0.414,0.258-1.068,0.258-1.965c0-2.102-0.258-3.531-0.775-4.289
			C48.139,126.488,47.863,124.836,47.863,122.285z"/>
	</g>
</g>
</svg>
