<?xml version="1.0" encoding="utf-8"?>
<!-- Generator: Adobe Illustrator 15.0.0, SVG Export Plug-In . SVG Version: 6.00 Build 0)  -->
<svg version="1.2" baseProfile="tiny" id="Layer_1" xmlns="http://www.w3.org/2000/svg" xmlns:xlink="http://www.w3.org/1999/xlink"
	 x="0px" y="0px" width="200px" height="200px" viewBox="0 0 200 200" overflow="inherit" xml:space="preserve">
<g>
	<path id="path3_3_" fill="#010101" d="M108.627,29.956c0.005,0.036,0.018,0.075,0.035,0.117h-0.639
		c-0.103,0.024-0.246,0.069-0.433,0.135c0.198,0.012,0.502,0.044,0.91,0.099c0.113,0.018,0.222,0.036,0.323,0.054
		c-0.714,0.006-1.322,0.033-1.826,0.081c-0.139,0.054-0.284,0.117-0.44,0.188c0.035,0.024,0.071,0.048,0.107,0.073
		c0.276,0.048,0.549,0.096,0.819,0.144c0.06-0.24,0.323-0.36,0.791-0.36c0.258,0,0.513,0.033,0.766,0.099
		c0.065,0.054,0.14,0.105,0.225,0.153c0.258,0.162,0.575,0.291,0.953,0.387c0.108,0.072,0.21,0.15,0.306,0.234
		c0.204,0.023,0.394,0.048,0.567,0.072l0.08,0.126c-0.03,0.005-0.176,0.012-0.44,0.018c0.023,0.024,0.041,0.048,0.054,0.073
		c0.061,0.012,0.12,0.023,0.181,0.036l0.035,0.081c-0.035,0.019-0.07,0.039-0.107,0.063c0.065,0.144,0.103,0.291,0.107,0.441
		c0.505,0.066,0.816,0.174,0.936,0.324c0.043,0.054,0.064,0.18,0.064,0.378c0,0.126-0.019,0.249-0.056,0.368
		c0.337,0.282,0.573,0.558,0.712,0.828l-0.082,0.081c-0.107-0.144-0.209-0.279-0.305-0.405c-0.114-0.144-0.234-0.27-0.36-0.378
		c-0.006,0-0.009,0.003-0.009,0.01c-0.041,0.096-0.11,0.23-0.206,0.404c0.018,0.03,0.041,0.061,0.071,0.09
		c0.101,0.054,0.207,0.136,0.314,0.243c0.162,0.012,0.246,0.024,0.252,0.036c-0.012,0.006-0.075,0.012-0.188,0.018
		c0.029,0.042,0.063,0.081,0.099,0.117c0.546,0.252,0.992,0.45,1.34,0.594c0,0.036,0,0.078,0,0.126
		c-0.359-0.09-0.719-0.207-1.079-0.351c0.013,0.018,0.023,0.036,0.036,0.054c0.197,0.312,0.332,0.594,0.404,0.846
		c0.282,0.156,0.582,0.36,0.9,0.612c0.995,0.792,1.43,1.433,1.304,1.925c-0.028,0.078-0.11,0.147-0.243,0.207
		c0.055,0.048,0.108,0.096,0.163,0.145c-0.02,0.048-0.03,0.086-0.037,0.116c-0.185-0.096-0.356-0.216-0.513-0.359
		c-0.126-0.102-0.293-0.276-0.504-0.522c-0.33-0.245-0.641-0.485-0.936-0.72c0.072,0.126,0.219,0.342,0.441,0.648
		c0.006,0.012,0.01,0.027,0.01,0.044c0.743,0.804,1.114,1.418,1.114,1.845c0,0.246-0.062,0.45-0.188,0.611
		c0.24,0.462,0.36,1.146,0.36,2.051c0,0.486-0.024,0.896-0.072,1.233c0.072,0.102,0.15,0.21,0.233,0.324
		c-0.072-0.042-0.152-0.111-0.243-0.207c-0.024,0.126-0.051,0.237-0.081,0.333c-0.191,0.678-0.536,1.119-1.034,1.323
		c0.085,0.498,0.153,0.92,0.207,1.268c0.396,0.612,0.614,1.143,0.656,1.593l-0.161,0.045c-0.018-0.33-0.154-0.717-0.406-1.161
		c0.05,0.132,0.073,0.228,0.073,0.288c0,0.078,0,0.141,0,0.189c0.022,0.18,0.035,0.273,0.035,0.278c0,0.174-0.015,0.288-0.045,0.342
		c-0.113,0.174-0.374,0.207-0.782,0.099c0,0.174-0.026,0.477-0.082,0.909c-0.053,0.42-0.08,0.696-0.08,0.828
		c0,0.145,0.054,0.63,0.162,1.458c0.113,0.834,0.17,1.319,0.17,1.458c0,0.372-0.009,0.675-0.026,0.909
		c-0.006,0.06-0.011,0.114-0.018,0.162c-0.054,0.03-0.162,0.015-0.323-0.044c-0.145-0.06-0.271-0.099-0.378-0.117
		c-0.043-0.006-0.085-0.009-0.126-0.009l-0.011,0.009c-0.018,0.018-0.059,0.066-0.124,0.144c0.065,0.264,0.119,0.504,0.161,0.719
		c0.065,0.36,0.096,0.696,0.089,1.008c0.007,0.114-0.002,0.191-0.026,0.233c-0.078,0.133-0.23,0.211-0.458,0.234
		c0.035,0.084,0.096,0.201,0.18,0.351c0.035,0.12,0.063,0.276,0.081,0.468c-0.018,0.024,0.054,0.167,0.215,0.432
		c0.022,0.037,0.044,0.073,0.063,0.108c-0.042,0.165-0.063,0.351-0.063,0.558c0,0.004,0,0.009,0,0.013
		c-0.202-0.198-0.404-0.512-0.602-0.94c-0.103-0.21-0.202-0.39-0.298-0.54c0.198,0.444,0.363,0.855,0.495,1.233
		c0.154,0.234,0.276,0.431,0.364,0.589c0.562-0.116,0.994,0.044,1.291,0.481c0.275,0.408,0.414,0.984,0.414,1.728
		c0,0.039,0,0.078,0,0.117v0.035c-0.001,0.076-0.004,0.148-0.005,0.217c0.067,0.088,0.129,0.174,0.186,0.26l-0.063,0.063
		c0.086,0.097,0.166,0.198,0.242,0.306c0.24,0.336,0.36,0.609,0.36,0.818c0,0.074-0.017,0.145-0.05,0.213
		c0.168,0.271,0.314,0.559,0.438,0.857c0.342,0.834,0.512,1.842,0.512,3.023c0,0.276-0.026,0.459-0.081,0.549
		c-0.021,0.032-0.044,0.064-0.071,0.095c0.023,0.075,0.048,0.147,0.071,0.22c0.021,0.162,0.037,0.287,0.046,0.379
		c-0.007,0.006-0.003,0.023,0.009,0.054c0.048,0.144,0.104,0.288,0.171,0.433l-0.145,0.08c-0.012-0.018-0.026-0.036-0.044-0.055
		c-0.019,0.205-0.037,0.462-0.055,0.774c0.103,0.582,0.189,1.163,0.261,1.745c0.012,0.27-0.002,0.663-0.044,1.18
		c-0.061,0.533-0.136,1.024-0.226,1.475c-0.132-0.264-0.243-0.543-0.334-0.837c-0.059,0.408-0.11,0.858-0.152,1.35
		c-0.486,4.727-1.14,9.099-1.961,13.117c-0.552,2.53-1.105,4.816-1.665,6.856c0.469,1.35,1.138,3.305,2.007,5.865
		c1.637,5.109,2.387,8.312,2.249,9.608c-0.011,0.048-0.061,0.206-0.144,0.477c0.042,0.36,0.048,0.743,0.018,1.151
		c-0.048,0.456-0.171,1.092-0.369,1.908c-0.288,1.115-0.647,2.132-1.079,3.049c-0.259,0.547-0.528,1.053-0.81,1.521
		c-0.385,0.684-0.784,1.259-1.197,1.727c0,0.666,0,1.473,0,2.42c0.024,1.83,0.033,2.78,0.028,2.854
		c-0.156,2.818-0.552,5.279-1.189,7.385c-0.018,0.078-0.038,0.166-0.062,0.262c-0.013,0.012-0.016,0.029-0.01,0.054
		c-0.229,0.798-0.48,1.62-0.755,2.466c-0.139,0.407-0.336,0.971-0.595,1.691l-0.449,0.018h0.449
		c-0.061,0.162-0.123,0.336-0.188,0.521c-0.229,0.66-0.474,1.383-0.738,2.168c-0.007,0.036-0.009,0.066-0.009,0.09
		c0,0.037,0.015,0.315,0.045,0.837c0.055,0.204,0.138,0.362,0.252,0.477c0.15,0.647,0.33,1.413,0.539,2.294
		c0.463,1.092,0.86,2.406,1.197,3.941c0.414,1.859,0.621,3.562,0.621,5.109c0,0.186-0.12,1.005-0.36,2.457
		c-0.006,2.765-0.204,5.619-0.594,8.564c-0.119,0.888-0.252,1.764-0.396,2.627h-0.045c-0.085,0.379-0.168,0.758-0.252,1.143
		c0.071,0.504,0.156,0.947,0.252,1.332c-0.146-0.246-0.273-0.514-0.387-0.801c-0.072,0.287-0.147,0.578-0.226,0.873
		c0.054,0.24,0.11,0.476,0.171,0.71c0.108,0.421,0.225,0.819,0.352,1.196l-0.091,0.459h-0.135c-0.18-0.521-0.343-1.073-0.486-1.655
		c-0.006-0.005-0.009-0.015-0.009-0.026c0,0.012-0.002,0.021-0.009,0.026c-0.048,0.174-0.096,0.343-0.144,0.504
		c0.264,1.278,0.585,2.408,0.963,3.392c-0.276-0.551-0.604-1.67-0.981-3.355c-0.035,0.125-0.074,0.252-0.116,0.379
		c0.161,1.343,0.242,2.143,0.242,2.401c0,0.21-0.003,0.317-0.009,0.323c0,0.007-0.012,0.025-0.035,0.055h-0.135
		c-0.115-0.678-0.224-1.329-0.325-1.953c-0.138,0.396-0.261,0.762-0.368,1.098c0.188,0.98,0.43,1.883,0.724,2.709h0.005
		c0.03,0.078,0.062,0.152,0.1,0.225l-0.046,0.082c-0.108-0.098-0.21-0.199-0.306-0.307c-0.352-0.488-0.622-1.039-0.81-1.656
		c-0.096,0.307-0.174,0.566-0.233,0.783c0.048,0.303,0.092,0.594,0.13,0.873h0.005c0.149,0.869,0.225,1.604,0.225,2.204
		c0,0.198-0.003,0.324-0.009,0.378c0,0.049-0.012,0.102-0.036,0.162h-0.136c-0.035-0.816-0.137-1.73-0.305-2.744h-0.005
		c-0.011-0.078-0.021-0.156-0.031-0.234c-0.02,0.078-0.039,0.156-0.06,0.234h0.005c-0.275,0.93-0.413,1.775-0.413,2.537
		c0,0.084,0.077,0.508,0.233,1.269c0.036,0.192,0.066,0.376,0.091,0.55c0.228,0.305,0.482,0.73,0.764,1.276
		c0.594,1.134,0.891,1.784,0.891,1.953c0,0.3-0.284,0.624-0.854,0.972c-0.42,0.264-0.872,0.443-1.358,0.539
		c-0.03,0.042-0.069,0.081-0.117,0.117c-0.162,0.131-0.404,0.197-0.729,0.197c-0.168,0-0.965-0.08-2.394-0.242
		c-1.188,0.312-2.399,0.623-3.633,0.936c-3.461,0.869-5.65,1.305-6.568,1.305c-0.498,0-0.839-0.102-1.025-0.307
		c-0.065-0.071-0.135-0.129-0.207-0.17c-0.217,0.119-0.449,0.201-0.701,0.242c-0.126,0.102-0.261,0.204-0.406,0.307
		c-0.293-0.024-0.462-0.042-0.503-0.055c-0.114-0.048-0.171-0.165-0.171-0.351c0-0.019,0-0.036,0-0.054
		c-0.288,0.065-0.544,0.1-0.766,0.1c-0.426,0-0.695-0.117-0.809-0.352c-0.03-0.246-0.045-0.378-0.045-0.396
		c0-0.113,0.023-0.236,0.071-0.369c-0.144,0.09-0.304,0.162-0.478,0.217c-0.167-0.049-0.26-0.078-0.277-0.09
		c-0.055-0.055-0.081-0.172-0.081-0.352c0-0.006,0-0.012,0-0.018c-0.03,0.006-0.046-0.075-0.046-0.242
		c0-0.127,0.063-0.271,0.189-0.433c-0.48-0.065-0.87-0.187-1.17-0.36c-0.365-0.209-0.548-0.477-0.548-0.801
		c0-0.497,1.308-1.123,3.922-1.879c1.368-0.385,3.044-0.807,5.029-1.27c0.657-0.184,1.257-0.373,1.799-0.566
		c-1.778,0.072-3.998,0.107-6.657,0.107l-4.107-0.086c-0.372,0.176-0.803,0.385-1.291,0.626c-0.629-0.384-0.996-0.611-1.097-0.685
		c-0.108-0.078-0.162-0.148-0.162-0.215c0-0.533,0.226-0.972,0.675-1.313c0.365-0.276,0.971-0.546,1.817-0.81
		c0.504-0.156,1.373-0.411,2.608-0.766c1.17-0.354,2.198-0.74,3.086-1.16c0,0.038,0,0.092,0,0.162
		c0.322-0.158,0.661-0.322,1.017-0.494c2.485-1.229,4.555-2.305,6.212-3.227c0.089-0.319,0.17-0.617,0.247-0.895
		c-0.005-0.055-0.009-0.114-0.009-0.18c0-0.156,0.063-0.432,0.189-0.828c0.023-0.084,0.051-0.168,0.081-0.252
		c-0.024-0.318-0.052-0.63-0.081-0.936c-0.198,0.455-0.372,0.852-0.521,1.188c-0.072,0.168-0.142,0.312-0.207,0.432
		c-0.054-0.012-0.087-0.026-0.1-0.045c-0.023-0.029-0.035-0.146-0.035-0.352c0-0.006,0-0.018,0-0.035
		c0.012-0.365,0.268-1.02,0.765-1.961c-0.054-0.438-0.12-0.869-0.198-1.296h-0.036c-0.011-0.071-0.024-0.138-0.035-0.198v-10.166
		c0.281-1.758,0.281-3.482,0-5.173c-0.163-0.876-0.279-1.519-0.352-1.925c-0.126-0.732-0.188-1.377-0.188-1.936
		c0-0.305,0.039-0.551,0.117-0.737c-0.66-0.54-1.134-1.337-1.423-2.394c-0.174-0.629-0.407-2.156-0.701-4.578
		c-0.3-2.496-0.695-4.688-1.188-6.578c-0.33-1.266-0.576-2.821-0.737-4.668c-0.63-0.09-1.059-0.303-1.287-0.64
		c-0.119-0.155-0.18-0.429-0.18-0.819c0-2.824,0.126-5.055,0.377-6.692c-0.167-0.595-0.309-1.098-0.422-1.512
		c-0.066-0.204-0.123-0.381-0.171-0.53c-0.061,0.107-0.123,0.228-0.188,0.359c-0.03,0.054-0.061,0.111-0.09,0.171
		c-0.318,0.671-0.634,1.008-0.944,1.008c-0.481,0-0.796-0.335-0.945-1.008c-0.019-0.065-0.034-0.126-0.045-0.181
		c-0.03-0.689-0.046-1.046-0.046-1.07c0-0.408,0.142-1.064,0.424-1.97h-0.315c-0.155,0.084-0.297,0.153-0.423,0.206
		c0.072-0.059,0.158-0.129,0.261-0.206h-0.079c-0.078-0.132-0.129-0.306-0.154-0.522c-0.011-0.084-0.018-0.203-0.018-0.359
		c-0.348,0.348-0.545,0.643-0.593,0.882h-0.135c0.065-0.216,0.309-0.519,0.728-0.909c-0.005-0.09-0.009-0.191-0.009-0.306
		c0-0.096,0.004-0.188,0.009-0.278c-0.041-0.072-0.074-0.142-0.098-0.207c-0.037-0.09-0.061-0.275-0.072-0.559
		c-0.043-0.102-0.064-0.176-0.064-0.225c0-0.102,0.016-0.223,0.046-0.359c0-0.03,0-0.055,0-0.072c0-0.217,0.015-0.408,0.045-0.576
		h-0.009c0.055-0.401,0.189-0.684,0.404-0.846c-0.126-0.084-0.219-0.164-0.278-0.242c-0.126-0.133-0.18-0.307-0.162-0.521
		c0-0.181,0.165-0.501,0.495-0.963c-0.03-0.127-0.06-0.252-0.09-0.379c-0.145-0.6-0.228-1.078-0.252-1.438
		c-0.084-0.169-0.121-0.271-0.108-0.306c0-0.109,0.061-0.279,0.181-0.514c0.03-0.107,0.059-0.215,0.089-0.324
		c0.048-0.521,0.154-1.073,0.315-1.654l0.009-0.027c-0.048-0.072-0.096-0.119-0.144-0.145c-0.385,0.864-0.676,1.662-0.873,2.394
		c-0.042,0.019-0.074,0.048-0.099,0.09c-0.078-0.245-0.099-0.608-0.062-1.089c0.011-0.174,0.083-0.416,0.215-0.729
		c-0.048,0-0.087,0-0.116,0c-0.006-0.365,0.012-0.719,0.054-1.061c0.023-0.312,0.071-0.641,0.144-0.98
		c-0.12-0.35-0.229-0.727-0.324-1.135c-0.245,0.785-0.423,1.509-0.529,2.168c-0.115,0-0.22,0-0.315,0
		c-0.006-0.617,0.012-1.098,0.054-1.439c0.024-0.102,0.049-0.174,0.072-0.215c-0.041,0.012-0.087,0.023-0.135,0.035
		c-0.096-0.294-0.121-0.654-0.072-1.08c0.042-0.461,0.225-1.139,0.549-2.033c-0.012-0.113-0.024-0.23-0.036-0.35
		c-0.036-0.432-0.06-0.864-0.072-1.297c-0.149,0.361-0.267,0.66-0.351,0.9c-0.054-0.012-0.1-0.012-0.135,0
		c0.055-0.125,0.213-0.533,0.478-1.223c-0.019-0.229-0.028-0.457-0.028-0.685c-0.041,0.06-0.068,0.114-0.08,0.161
		c0.023-0.119,0.051-0.239,0.08-0.359c-0.023-0.576-0.027-1.176-0.008-1.799c0.011-0.385,0.021-0.702,0.026-0.954
		c-0.15,0.433-0.231,0.813-0.243,1.142c-0.072,0-0.131,0.014-0.18,0.037c-0.036,0.023-0.062,0.041-0.081,0.054
		c-0.072-0.03-0.087-0.141-0.046-0.333c0.02-0.21,0.204-0.75,0.56-1.619c-0.013-0.215-0.013-0.324,0-0.324
		c0.113-1.602,0.332-3.203,0.656-4.804c0.126-0.726,0.284-1.452,0.476-2.178c0.397-1.71,0.973-3.484,1.729-5.326
		c0.558-1.271,1.008-2.298,1.349-3.077v-0.018c-0.137-1.218-0.11-2.217,0.081-2.996c0.108-0.474,0.396-1.199,0.864-2.178
		c-0.035-0.138-0.063-0.277-0.081-0.422c-0.169-0.246-0.304-0.514-0.405-0.801c-0.287-0.684-0.47-1.629-0.548-2.834
		c-0.042-0.402,0.165-0.984,0.621-1.746c0.048-0.078,0.096-0.149,0.144-0.216c0.023-0.174,0.071-0.335,0.144-0.485
		c-0.264,0.108-0.516,0.219-0.756,0.333c0.271-0.21,0.552-0.411,0.847-0.603c0-0.055,0.02-0.108,0.062-0.162
		c-0.199,0.107-0.384,0.225-0.558,0.35c0.035-0.281,0.3-0.611,0.791-0.988c0.043-0.127,0.097-0.244,0.162-0.352
		c-0.239,0.145-0.447,0.256-0.621,0.333c0.139-0.287,0.456-0.62,0.953-0.999c0.103-0.246,0.237-0.491,0.406-0.737
		c-0.312,0.187-0.588,0.356-0.829,0.513c0.139-0.125,0.454-0.359,0.944-0.701c0.391-0.66,0.823-1.289,1.297-1.89
		c0.165-0.197,0.336-0.393,0.513-0.584h-0.45c0.672-0.744,1.428-1.437,2.268-2.078v-0.009c0.03-0.019,0.045-0.036,0.045-0.055
		c0.072-0.468,0.144-0.95,0.216-1.448c0.006-0.294,0.036-0.579,0.091-0.854v-0.01h0.009c-0.007-0.155-0.15-0.44-0.433-0.854
		c-0.132-0.186-0.293-0.393-0.486-0.621c-0.245-0.311-0.443-0.603-0.593-0.872c-0.09,0.114-0.181,0.237-0.27,0.368
		c0.077-0.138,0.161-0.272,0.251-0.404c-0.042-0.078-0.078-0.156-0.107-0.234c-0.048-0.024-0.094-0.048-0.135-0.072
		c-0.03,0.066-0.062,0.135-0.1,0.207c-0.018,0.037-0.036,0.054-0.054,0.054c-0.042,0-0.063-0.087-0.063-0.261
		c0-0.03,0.003-0.06,0.009-0.09c-0.065-0.024-0.131-0.048-0.197-0.072c0.065,0,0.132,0,0.197,0c0-0.036,0.004-0.075,0.009-0.117
		l-0.232,0.099c-0.037,0.144-0.063,0.273-0.082,0.387l-0.161,0.043c-0.03-0.138-0.048-0.239-0.055-0.305
		c-0.006-0.055-0.011-0.117-0.018-0.189c-0.169,0.234-0.31,0.441-0.423,0.621h-0.172c0.115-0.174,0.259-0.396,0.433-0.666
		c-0.133-0.024-0.268-0.036-0.404-0.036c-0.013,0.114-0.021,0.222-0.028,0.324l-0.161,0.045c0-0.066-0.006-0.159-0.019-0.279
		c-0.005-0.036-0.009-0.069-0.009-0.099c-0.209,0-0.422,0.015-0.639,0.045c-0.078-0.09-0.142-0.174-0.188-0.251
		c-0.031,0.078-0.063,0.161-0.099,0.251c-0.139,0.03-0.22,0.003-0.243-0.081c0.054-0.318,0.119-0.626,0.197-0.926
		c-0.054-0.06-0.09-0.15-0.107-0.27c-0.078,0.348-0.108,0.663-0.09,0.945c-0.12-0.066-0.201-0.141-0.243-0.225
		c-0.036-0.066-0.061-0.146-0.071-0.243c-0.02,0.019-0.039,0.036-0.063,0.054c-0.049-0.048-0.091-0.102-0.126-0.162
		c-0.049-0.097-0.087-0.204-0.117-0.324c-0.03-0.036-0.045-0.135-0.045-0.297c0-0.006,0.004-0.018,0.009-0.036
		c-0.005-0.078-0.009-0.168-0.009-0.27c-0.018-0.012-0.033-0.021-0.046-0.026c-0.245,0.156-0.521,0.282-0.827,0.378l-0.081-0.09
		c0.246-0.096,0.486-0.231,0.72-0.405c-0.042-0.03-0.09-0.06-0.144-0.09c-0.181,0.108-0.33,0.162-0.45,0.162
		c0.048-0.048,0.147-0.131,0.298-0.252c-0.181-0.107-0.367-0.201-0.559-0.279c-0.084-0.042-0.306-0.131-0.666-0.27
		c-0.21-0.09-0.356-0.171-0.44-0.243c-0.12-0.114-0.201-0.264-0.243-0.45c-0.042-0.18,0.054-0.36,0.288-0.54
		c-0.055-0.024-0.09-0.039-0.108-0.045c-0.336-0.12-0.497-0.258-0.485-0.414c-0.019-0.066,0.029-0.158,0.145-0.279
		c0.083-0.12,0.174-0.225,0.27-0.315c0.029-0.09,0.061-0.194,0.09-0.314c0.204-0.576,0.375-0.954,0.513-1.134
		c0.144-0.228,0.317-0.513,0.521-0.854c-0.215-0.024-0.341-0.096-0.378-0.216c-0.029-0.036-0.061-0.078-0.089-0.126
		c-0.043-0.083-0.069-0.186-0.082-0.305c0-0.03,0-0.121,0-0.271c0-0.186,0.043-0.426,0.126-0.72
		c0.036-0.132,0.126-0.393,0.271-0.783c0.022-0.06,0.071-0.126,0.144-0.198c0.024-0.06,0.055-0.111,0.09-0.153
		c0.03-0.078,0.066-0.158,0.108-0.242c0.167-0.318,0.284-0.54,0.352-0.667c0.106-0.216,0.161-0.366,0.161-0.45
		c0-0.012-0.003-0.027-0.009-0.044c0.006-0.012,0.011-0.024,0.018-0.037c0.023-0.089,0.045-0.186,0.062-0.287
		c0.007-0.09,0.009-0.139,0.009-0.145c0-0.084-0.048-0.17-0.144-0.261c-0.03-0.036-0.062-0.066-0.098-0.09
		c0-0.013,0.002-0.024,0.009-0.037c-0.103-0.101-0.193-0.233-0.271-0.396c-0.137-0.282-0.206-0.57-0.206-0.863
		c0-0.21,0.087-0.42,0.261-0.63c0.149-0.18,0.339-0.33,0.566-0.45c0.139-0.072,0.265-0.117,0.378-0.135
		c-0.018-0.036-0.026-0.06-0.026-0.072c0-0.228,0.074-0.342,0.225-0.342c-0.012-0.012-0.024-0.027-0.035-0.045
		c0-0.204,0.08-0.312,0.242-0.324c0.012,0,0.021,0,0.027,0c0.006-0.168,0.062-0.27,0.171-0.306c-0.007-0.018-0.009-0.03-0.009-0.036
		c0-0.216,0.08-0.327,0.243-0.333c0.005,0,0.015,0.003,0.026,0.009c0.006-0.258,0.111-0.359,0.314-0.306
		c0.012-0.167,0.074-0.264,0.189-0.288c0.018,0,0.036,0,0.054,0c0.03-0.102,0.09-0.162,0.181-0.179c0.03-0.006,0.062-0.006,0.098,0
		c0.098-0.096,0.211-0.204,0.343-0.325c0.317-0.323,0.573-0.575,0.765-0.755c0.042-0.03,0.078-0.063,0.108-0.099
		c0.186-0.318,0.309-0.696,0.369-1.133c0.701-0.258,1.056-0.513,1.061-0.765c-0.005-0.162,0-0.294,0.019-0.396
		c0.042-0.18,0.165-0.372,0.369-0.576c0.15-0.15,0.468-0.261,0.953-0.333h1.071c-0.192-0.005-0.384-0.012-0.576-0.018
		c-0.149,0-0.272,0-0.368,0c0.239-0.03,0.514-0.051,0.827-0.063c0.527-0.024,1.038-0.024,1.529,0c0.023,0,0.062,0.003,0.117,0.009
		c0.558-0.055,1.262-0.085,2.114-0.09c0.251,0.096,0.438,0.204,0.559,0.324c0.089,0.006,0.179,0.018,0.27,0.036
		c0.035-0.012,0.067-0.025,0.098-0.036c0.061-0.018,0.121-0.039,0.181-0.063C106.831,30.16,107.601,30.034,108.627,29.956z
		 M110.84,31.845h-0.009c-0.176,0.084-0.337,0.153-0.486,0.208v0.315c0.018,0.005,0.033,0.011,0.045,0.018
		c0.042-0.012,0.092-0.027,0.152-0.045c0.049-0.024,0.133-0.063,0.252-0.117c0.03-0.083,0.046-0.195,0.046-0.333V31.845z
		 M111.793,33.132l0.037-0.243c0-0.048-0.013-0.111-0.037-0.189c-0.03-0.078-0.045-0.126-0.045-0.144
		c-0.018-0.023-0.146-0.036-0.387-0.036c-0.239,0-0.36,0.013-0.36,0.036v0.09c0.043,0.012,0.084,0.024,0.126,0.036
		c-0.005,0.012-0.005,0.033,0,0.063c0.049,0.023,0.093,0.051,0.136,0.08c0.155,0.108,0.3,0.21,0.431,0.307H111.793z M111.001,33.096
		c0.013,0.012,0.027,0.024,0.045,0.036h0.441c-0.131-0.085-0.27-0.156-0.413-0.216c-0.02,0-0.043,0.003-0.073,0.009V33.096z
		 M110.885,33.924c-0.013,0.005-0.027,0.009-0.045,0.009v0.009l0.071,0.072c0.035-0.012,0.063-0.021,0.081-0.027
		C110.957,33.957,110.92,33.936,110.885,33.924z M111.253,33.357c0.036,0.036,0.069,0.075,0.1,0.117
		c0.078-0.024,0.156-0.054,0.234-0.09L111.253,33.357z M112.135,35.039c-0.078-0.108-0.155-0.189-0.234-0.243l-0.009,0.009
		c-0.012,0.006-0.033,0.012-0.062,0.018v0.045l0.115,0.082C112.006,34.979,112.069,35.009,112.135,35.039z M112.234,35.354
		l0.009-0.027c-0.216-0.09-0.387-0.14-0.513-0.152c0.061,0.036,0.114,0.072,0.161,0.108
		C111.993,35.294,112.108,35.318,112.234,35.354z M113.007,36.344c0.271,0.222,0.541,0.492,0.811,0.81
		c0.275,0.336,0.488,0.587,0.639,0.756c0.061,0.042,0.123,0.077,0.188,0.107c-0.048-0.366-0.397-0.804-1.052-1.313
		c-0.187-0.144-0.369-0.273-0.549-0.387C113.031,36.323,113.021,36.332,113.007,36.344z M112.827,36.56
		c0.03,0.09,0.076,0.183,0.136,0.279c0.27,0.222,0.53,0.426,0.782,0.612c-0.018-0.019-0.032-0.036-0.045-0.055
		c-0.275-0.335-0.555-0.618-0.836-0.846C112.853,36.557,112.84,36.56,112.827,36.56z M113.026,37.316h0.09
		c0.078,0.077,0.153,0.153,0.225,0.225c-0.078-0.222-0.201-0.378-0.369-0.468C112.983,37.145,113.001,37.226,113.026,37.316z
		 M112.72,37.774c0.018,0.036,0.033,0.075,0.045,0.117c0.019-0.005,0.036-0.012,0.054-0.018c-0.006-0.024-0.011-0.045-0.018-0.063
		C112.771,37.792,112.744,37.78,112.72,37.774z M113.089,37.577c0.018,0.096,0.042,0.197,0.071,0.305l0.126-0.026
		C113.244,37.735,113.179,37.643,113.089,37.577z M113.656,38.188c0.065,0.498,0.113,0.942,0.144,1.332
		c0.018,0.018,0.035,0.036,0.054,0.053c0.15,0.072,0.281,0.177,0.396,0.315c0.042,0.048,0.078,0.097,0.108,0.145
		c0.035-0.03,0.063-0.063,0.081-0.099c0.03-0.054,0.045-0.163,0.045-0.324c0-0.3-0.062-0.57-0.188-0.81
		C114.149,38.53,113.937,38.326,113.656,38.188z M108.077,30.847c-0.048,0.024-0.093,0.051-0.135,0.081
		c0.061,0.006,0.12,0.018,0.181,0.036c0.041-0.06,0.08-0.121,0.117-0.18C108.186,30.802,108.132,30.823,108.077,30.847z
		 M107.474,31.207c-0.101,0.006-0.182,0.012-0.241,0.018c-0.019,0-0.034,0-0.046,0c0.012,0.03,0.024,0.06,0.036,0.09
		c0.091-0.006,0.174-0.009,0.251-0.009C107.474,31.275,107.474,31.243,107.474,31.207z M107.69,31.297c0.072,0,0.144,0,0.216,0
		c0.023-0.042,0.049-0.076,0.071-0.1c-0.106,0-0.203,0-0.287,0V31.297L107.69,31.297z M107.007,31.522
		c0.096-0.085,0.156-0.15,0.18-0.199c0-0.042-0.003-0.075-0.01-0.099c-0.131,0.024-0.235,0.066-0.314,0.125
		c0.025,0.048,0.052,0.103,0.082,0.162C106.962,31.519,106.983,31.522,107.007,31.522z M104.308,30.559
		c-0.012,0.006-0.026,0.012-0.045,0.019c0.09-0.006,0.178-0.012,0.261-0.019C104.427,30.553,104.355,30.553,104.308,30.559z
		 M102.392,30.694c0.085,0.078,0.165,0.147,0.243,0.207c0.27-0.09,0.561-0.162,0.873-0.216c-0.061-0.054-0.243-0.081-0.549-0.081
		C102.629,30.604,102.439,30.634,102.392,30.694z M101.411,30.901c-0.294,0.09-0.573,0.194-0.836,0.314
		c0.305-0.114,0.593-0.192,0.864-0.233C101.433,30.964,101.423,30.937,101.411,30.901z M114.195,40.095
		c-0.108-0.144-0.229-0.255-0.36-0.333c-0.005,0.019-0.016,0.042-0.026,0.072c0.006,0.12,0.009,0.231,0.009,0.333
		c0.156,0,0.288-0.018,0.396-0.054C114.208,40.107,114.201,40.101,114.195,40.095z M113.997,42.012
		c0.078,0.204,0.126,0.408,0.144,0.612c0.139,0.192,0.3,0.417,0.486,0.675c0.012-0.246,0.018-0.585,0.018-1.017
		c0-0.852-0.104-1.5-0.314-1.943c-0.131,0.096-0.296,0.168-0.495,0.216c0.019,0.414,0.027,0.851,0.027,1.313
		c0,0.006,0,0.015,0,0.027c0.03,0.078,0.057,0.165,0.081,0.261h0.045C113.995,42.108,113.997,42.06,113.997,42.012z M113.908,43.109
		c-0.103,0.102-0.189,0.229-0.263,0.378c-0.011,0.018-0.023,0.045-0.035,0.081c0.096,0.132,0.191,0.271,0.289,0.414h0.044
		c0.048-0.282,0.048-0.584,0-0.908L113.908,43.109z M113.656,42.984l0.044,0.044c0.041-0.03,0.105-0.044,0.19-0.044
		c0.059-0.019,0.092-0.103,0.098-0.253c-0.065-0.089-0.135-0.183-0.206-0.278c-0.043,0.132-0.087,0.27-0.137,0.414
		C113.646,42.909,113.649,42.948,113.656,42.984z M111.83,44.639c0,0.036-0.004,0.072-0.011,0.108
		c0.055,0.061,0.115,0.123,0.181,0.188C111.971,44.846,111.913,44.747,111.83,44.639z M112.208,44.216c-0.013,0-0.021,0-0.028,0
		c-0.011,0.005-0.021,0.009-0.026,0.009h0.055V44.216L112.208,44.216z M114.601,43.478c-0.126-0.144-0.275-0.32-0.451-0.53
		c0,0.516-0.011,0.93-0.035,1.241c-0.023,0-0.05,0-0.08,0c0.035,0.048,0.067,0.096,0.098,0.145c0.198-0.21,0.337-0.418,0.415-0.621
		C114.57,43.665,114.588,43.586,114.601,43.478z M113.646,43.982h0.037c-0.055-0.072-0.104-0.141-0.152-0.207
		c-0.013,0.018-0.021,0.036-0.028,0.053C113.557,43.889,113.604,43.94,113.646,43.982z M113.404,43.604
		c-0.007,0-0.013,0.003-0.019,0.009c-0.007,0.024-0.01,0.048-0.01,0.072L113.404,43.604L113.404,43.604z M113.448,44.189
		c0.03,0.228,0.062,0.444,0.1,0.647c0.156-0.12,0.297-0.23,0.423-0.333c-0.108-0.084-0.229-0.189-0.36-0.315
		C113.557,44.189,113.502,44.189,113.448,44.189z M113.079,44.315c0.006-0.036,0.006-0.075,0-0.117c-0.029,0-0.062,0-0.098,0
		C113.011,44.228,113.044,44.267,113.079,44.315z M112.701,44.405c0.091,0.174,0.185,0.356,0.28,0.549
		c0.035,0.066,0.068,0.129,0.099,0.189c-0.054-0.252-0.18-0.543-0.379-0.873v0.045C112.701,44.339,112.701,44.369,112.701,44.405z
		 M112.944,43.802l-0.117,0.054c0.048-0.006,0.097-0.012,0.145-0.018C112.966,43.82,112.957,43.808,112.944,43.802z M112.387,44.729
		h0.063c0-0.012,0-0.024,0-0.036c-0.019-0.048-0.042-0.099-0.072-0.153c-0.024,0.024-0.051,0.045-0.081,0.063
		c0.019,0.023,0.036,0.051,0.055,0.081C112.357,44.702,112.369,44.717,112.387,44.729L112.387,44.729z M112.369,45.763
		c0.054,0.174,0.194,0.54,0.423,1.098c0.078,0.144,0.156,0.293,0.234,0.45c0.023-0.03,0.039-0.054,0.044-0.072
		c0.03-0.078,0.046-0.207,0.046-0.386c0-0.121-0.117-0.339-0.351-0.658c-0.175-0.228-0.306-0.387-0.396-0.477V45.763L112.369,45.763
		z M113.079,47.788l0.145,0.072c0.138,0.036,0.309,0.054,0.513,0.054l0.046-0.189c-0.151-0.528-0.289-0.837-0.415-0.926
		c0,0.257-0.062,0.527-0.188,0.809c0.03,0.073,0.065,0.147,0.108,0.225c-0.042-0.03-0.093-0.081-0.153-0.152
		C113.116,47.721,113.098,47.758,113.079,47.788z M112.909,48.696h0.044c0-0.366-0.042-0.612-0.126-0.738
		C112.853,48.121,112.879,48.366,112.909,48.696z M112.369,48.787v0.314c0.03,0.078,0.057,0.156,0.08,0.234
		c0-0.108-0.005-0.218-0.018-0.333C112.414,48.858,112.393,48.787,112.369,48.787z M112.369,50.811c0,0.048-0.018,0.129-0.055,0.243
		c-0.048,0.114-0.071,0.177-0.071,0.189l0.09,0.314l0.036,0.081c0.048-0.144,0.071-0.297,0.071-0.458
		c0-0.168-0.023-0.303-0.071-0.405V50.811z M112.701,51.062c0,0.33-0.067,0.702-0.206,1.115v0.082
		c0.21-0.121,0.312-0.342,0.306-0.666c-0.006-0.132-0.039-0.324-0.1-0.576V51.062z M113.035,52.178
		c-0.36,0.528-0.54,0.879-0.54,1.053c0,0.168,0.015,0.273,0.045,0.314c0.012,0.019,0.023,0.019,0.035,0
		c0.085,0,0.195,0.069,0.334,0.207c0.186-0.491,0.228-1.032,0.126-1.619V52.178z M111.154,52.34c0.12,0.191,0.222,0.356,0.307,0.494
		c-0.02-0.06-0.034-0.114-0.046-0.162c-0.061-0.162-0.135-0.293-0.226-0.396c-0.011-0.078-0.018-0.147-0.018-0.208
		c0-0.005-0.002-0.012-0.009-0.018C111.163,52.154,111.161,52.25,111.154,52.34z M110.84,52.925c0,0.18-0.007,0.399-0.019,0.657
		c0.006,0.066,0.012,0.126,0.019,0.18c0,0.018,0,0.039,0,0.063c0.078,0.209,0.284,0.402,0.621,0.576l0.161-0.045
		c0-0.012,0-0.021,0-0.026l-0.117-0.019c0-0.114,0-0.225,0-0.333c-0.035-0.06-0.072-0.132-0.108-0.216
		c-0.053-0.09-0.113-0.189-0.179-0.297c-0.217-0.372-0.343-0.567-0.378-0.584V52.925L110.84,52.925z M112.288,53.464
		c-0.018-0.018-0.036-0.029-0.054-0.036c0.011,0.042,0.023,0.09,0.036,0.145C112.275,53.537,112.282,53.501,112.288,53.464z
		 M112.153,54.886c-0.054-0.005-0.078,0-0.072,0.018l-0.423,0.171c0.252,0.252,0.42,0.396,0.504,0.432
		c0.042-0.12,0.069-0.321,0.081-0.603C112.195,54.898,112.165,54.892,112.153,54.886z M111.118,55.3
		c0.071,0.096,0.141,0.18,0.208,0.252l0.089-0.1c-0.114-0.102-0.226-0.21-0.334-0.324c-0.035-0.048-0.059-0.075-0.07-0.081
		C111.053,55.108,111.088,55.192,111.118,55.3z M112.617,58.476c0.075,0.148,0.115,0.256,0.12,0.324
		c-0.006,0.072,0.037,0.162,0.127,0.27h0.103c0.098,0.191,0.212,0.402,0.347,0.634c0.203,0.005,0.43,0.013,0.679,0.022
		c-0.021-0.104-0.046-0.209-0.077-0.314c-0.185-0.63-0.458-0.945-0.818-0.945C112.922,58.467,112.761,58.47,112.617,58.476z
		 M113.462,59.951c0.056,0.092,0.115,0.187,0.176,0.283c0.167,0.17,0.316,0.336,0.449,0.495c-0.005-0.153-0.024-0.29-0.053-0.409
		c-0.055-0.156-0.098-0.279-0.126-0.369H113.462z M115.036,64.094c0.003,0.02,0.007,0.039,0.009,0.059l0.077-0.018
		C115.095,64.123,115.065,64.109,115.036,64.094z M114.762,62.309c0.007,0.02,0.013,0.039,0.018,0.059
		c0.011,0.014,0.02,0.026,0.028,0.04c0-0.009,0-0.019,0-0.026C114.791,62.355,114.777,62.332,114.762,62.309z M115.429,64.621
		c-0.031-0.055-0.057-0.082-0.082-0.082l-0.225,0.059c0.012,0.066,0.024,0.131,0.035,0.198c0.094,0.009,0.202,0.015,0.325,0.015
		C115.482,64.75,115.464,64.687,115.429,64.621z M115.482,65.395l0.044-0.045c-0.109-0.082-0.212-0.16-0.306-0.238
		c0.015,0.072,0.03,0.145,0.045,0.215C115.331,65.346,115.403,65.369,115.482,65.395z M115.706,65.934H115.4
		c0.016,0.061,0.03,0.121,0.046,0.181c0.014,0.057,0.027,0.114,0.04,0.171c0.069-0.026,0.144-0.053,0.22-0.081V65.934
		L115.706,65.934z M115.437,65.709c-0.041-0.059-0.08-0.104-0.116-0.135c0.01,0.048,0.02,0.096,0.031,0.145L115.437,65.709z
		 M115.617,66.758c0.019,0.065,0.039,0.131,0.058,0.193l0.031-0.145C115.706,66.793,115.677,66.775,115.617,66.758z M115.5,71.953
		c0.024,0.168,0.061,0.336,0.108,0.504c0.041-0.366,0.08-0.643,0.116-0.828c0.036-0.342,0.048-0.621,0.036-0.837
		c-0.018-0.132-0.052-0.29-0.1-0.477C115.62,70.795,115.565,71.342,115.5,71.953z M101.23,30.523h-1.403
		c-0.108,0.107-0.197,0.24-0.27,0.396c-0.096,0.204-0.145,0.417-0.145,0.639v0.126c0.03,0,0.265-0.096,0.703-0.288
		c0.041-0.019,0.083-0.036,0.126-0.055l-0.046-0.071c0.432-0.247,0.798-0.444,1.097-0.594
		C101.252,30.604,101.23,30.553,101.23,30.523z M100.278,31.423l-0.035,0.009h0.044L100.278,31.423z M100.08,31.684
		c-0.187,0-0.408,0.096-0.666,0.288v0.126l0.495-0.036c0-0.06,0.021-0.132,0.062-0.216C100.014,31.767,100.049,31.713,100.08,31.684
		z M101.078,31.71c-0.061-0.006-0.099-0.003-0.117,0.009c0.019,0.019,0.039,0.033,0.063,0.045c-0.024,0-0.054-0.002-0.089-0.009
		l-0.01,0.063c0.036-0.012,0.069-0.021,0.099-0.027c0.019-0.03,0.041-0.057,0.071-0.081C101.09,31.71,101.085,31.71,101.078,31.71z
		 M100.566,31.386c0.113-0.036,0.198-0.075,0.252-0.116l0.09-0.082c-0.113,0-0.204,0.012-0.27,0.036
		c-0.024,0.006-0.072,0.036-0.145,0.09C100.512,31.333,100.536,31.357,100.566,31.386z M100.736,31.81l-0.206,0.036
		c0,0.024-0.003,0.051-0.009,0.082c0.071-0.024,0.145-0.045,0.215-0.064V31.81z M98.092,50.766
		c-0.043,0.006-0.078,0.011-0.108,0.018c-0.041,0.102-0.075,0.198-0.1,0.288l0.108,0.009c0.007,0,0.015,0.003,0.026,0.009
		c0.013-0.042,0.024-0.078,0.037-0.107C98.062,50.91,98.074,50.837,98.092,50.766z M95.167,50.063h0.037v-0.009
		c-0.007-0.005-0.016-0.009-0.028-0.009C95.17,50.046,95.167,50.052,95.167,50.063z M95.087,50.451l-0.1,0.018
		c0,0.03,0,0.063,0,0.099h0.036c0.018-0.03,0.039-0.057,0.063-0.081C95.087,50.468,95.087,50.457,95.087,50.451z M96.041,50.594
		c-0.048,0.126-0.096,0.258-0.144,0.396c0.048,0.065,0.119,0.146,0.215,0.242c0.03-0.149,0.065-0.29,0.108-0.422
		C96.136,50.715,96.076,50.642,96.041,50.594z M97.263,51.27c-0.005,0.06-0.005,0.114,0,0.162h0.009
		C97.272,51.396,97.27,51.341,97.263,51.27z M89.285,101.219c0.149-0.473,0.311-0.926,0.485-1.357
		c-0.055-0.282-0.097-0.57-0.127-0.863C89.452,99.746,89.332,100.487,89.285,101.219z M90.516,102.561
		c-0.12,0.491-0.216,0.947-0.287,1.367c0.119-0.276,0.275-0.615,0.467-1.018C90.637,102.779,90.577,102.662,90.516,102.561
		L90.516,102.561z M91.416,106.734c-0.035,0.049-0.063,0.068-0.081,0.062c-0.018,0-0.026,0.105-0.026,0.314
		c-0.013,0.203-0.013,0.312,0,0.324c0-0.018,0.024,0.004,0.072,0.064c0.03,0,0.061-0.004,0.089-0.01
		c0.024-0.138,0.059-0.268,0.1-0.387c-0.013-0.006-0.015-0.012-0.009-0.018c-0.019-0.15-0.036-0.273-0.054-0.369h-0.009
		C91.45,106.711,91.421,106.717,91.416,106.734z M91.146,106.572c-0.012,0.049-0.026,0.111-0.046,0.189
		c0.02,0.048,0,0.096-0.053,0.144c-0.03-0.019-0.052-0.036-0.062-0.054c-0.02,0.023-0.028,0.049-0.028,0.071
		c0.007,0.036,0.021,0.069,0.046,0.1c0.041,0.042,0.083,0.06,0.126,0.054c0-0.048,0.021-0.153,0.062-0.314
		c0.024-0.15,0.046-0.264,0.063-0.342c-0.018,0-0.037,0.018-0.055,0.053C91.182,106.504,91.165,106.537,91.146,106.572
		L91.146,106.572z M90.939,107.328c0,0.006,0,0.024,0,0.055c-0.018,0.246,0.012,0.488,0.091,0.729
		c0.022-0.042,0.06-0.094,0.107-0.154h-0.009C91.068,107.67,91.004,107.459,90.939,107.328z M90.777,108.93
		c-0.055,0.174-0.083,0.324-0.09,0.449c0.181,0.139,0.36,0.246,0.539,0.324c-0.022-0.078-0.048-0.146-0.071-0.207
		c0.054-0.162,0.082-0.287,0.082-0.377c-0.013-0.043-0.039-0.174-0.082-0.396c-0.048-0.078-0.074-0.135-0.081-0.171
		c-0.084,0.024-0.158,0.042-0.224,0.054C90.837,108.642,90.813,108.75,90.777,108.93L90.777,108.93z M91.586,109.703
		c0,0.024,0,0.049,0,0.072c0.013-0.006,0.033,0.014,0.063,0.062c0.013,0.031,0.021,0.063,0.027,0.1c0.018,0,0.035,0,0.053,0
		C91.682,109.83,91.634,109.752,91.586,109.703z M91.246,110.721h0.009c-0.065,0.023-0.147,0.07-0.243,0.144l-0.135,0.144
		c0.006,0.012,0.013,0.024,0.018,0.037c0.066-0.025,0.149-0.037,0.252-0.037c0.078,0,0.149,0.01,0.217,0.027
		c0.005-0.006,0.009-0.016,0.009-0.027v-0.287h-0.009v-0.02C91.338,110.666,91.299,110.672,91.246,110.721z M90.876,110.279
		c-0.013,0.029-0.016,0.065-0.009,0.107c0,0.03,0,0.064,0,0.1c0.132-0.043,0.263-0.084,0.396-0.126
		c-0.174-0.103-0.352-0.161-0.53-0.181c-0.024,0.096-0.037,0.276-0.037,0.541h0.009c0.037-0.15,0.085-0.277,0.146-0.379
		C90.85,110.307,90.859,110.285,90.876,110.279L90.876,110.279z M90.715,110.721h-0.011c0,0.011,0,0.022,0,0.035
		C90.705,110.743,90.708,110.731,90.715,110.721z M90.85,111.854c-0.037-0.035-0.067-0.066-0.091-0.09
		c-0.007,0.078-0.012,0.174-0.018,0.287c0.011,0.031,0.023,0.072,0.035,0.127C90.795,112.075,90.82,111.967,90.85,111.854z
		 M91.425,112.879c-0.03-0.041-0.061-0.08-0.091-0.117c-0.03,0.031-0.057,0.055-0.08,0.072c0.061,0.036,0.128,0.075,0.206,0.117
		C91.45,112.928,91.437,112.902,91.425,112.879z M91.326,112.762c-0.03-0.029-0.059-0.051-0.089-0.062v0.125l0.009,0.01
		C91.269,112.804,91.295,112.779,91.326,112.762z M90.994,113.06c-0.042,0.03-0.082,0.063-0.117,0.099v0.656l0.144,0.072
		c0.071,0.036,0.169,0.061,0.288,0.072c0.085-0.066,0.174-0.133,0.27-0.199c0.007-0.023,0.016-0.053,0.026-0.09
		c-0.053-0.059-0.11-0.125-0.17-0.197c-0.019-0.018-0.036-0.027-0.054-0.027c-0.144,0.097-0.222,0.15-0.234,0.162l-0.09-0.099
		c0.018-0.013,0.057-0.042,0.117-0.091c-0.043-0.006-0.082-0.012-0.117-0.018c0-0.102-0.004-0.197-0.009-0.288
		C91.03,113.095,91.011,113.077,90.994,113.06L90.994,113.06z M90.876,113.141c0.035-0.031,0.071-0.061,0.108-0.09
		c-0.043-0.043-0.078-0.078-0.108-0.108V113.141z M99.971,170.027c-0.028,0.011-0.062,0.02-0.098,0.025
		c-0.024-0.011-0.048-0.023-0.072-0.035c-0.04,0.141-0.079,0.279-0.117,0.414c0.1-0.057,0.199-0.111,0.296-0.167
		C99.978,170.186,99.974,170.105,99.971,170.027z"/>
</g>
</svg>
