<?xml version="1.0" encoding="utf-8"?>
<!-- Generator: Adobe Illustrator 15.0.0, SVG Export Plug-In . SVG Version: 6.00 Build 0)  -->
<!DOCTYPE svg PUBLIC "-//W3C//DTD SVG 1.1//EN" "http://www.w3.org/Graphics/SVG/1.1/DTD/svg11.dtd">
<svg version="1.1" id="Layer_1" xmlns="http://www.w3.org/2000/svg" xmlns:xlink="http://www.w3.org/1999/xlink" x="0px" y="0px"
	 width="200px" height="200px" viewBox="0 0 200 200" enable-background="new 0 0 200 200" xml:space="preserve">
<g transform="matrix( 1, 0, 0, 1, 0,0) ">
	<g>
		<g id="Layer2_0_FILL">
			<path d="M86.848,57.416c-0.031,0.643,0.288,1.513,0.956,2.609c-0.053,3.443,0.429,4.83,1.446,4.158
				c1.002-0.655,2.432-0.724,4.289-0.207c1.838,0.535,3.448,0.406,4.83-0.387c1.379-0.792,2.102-1.679,2.17-2.66
				c0.017-0.345,0.017-0.663,0-0.956c0.034-0.069,0.06-0.164,0.077-0.284l0.077-0.62c0.052-0.293,0.069-0.5,0.052-0.62
				c0-0.104-0.025-0.241-0.077-0.414l-0.103-0.439c-0.053-0.12-0.104-0.189-0.156-0.206c-0.017-0.018-0.078-0.009-0.181,0.026
				c-0.138-0.069-0.25-0.069-0.336,0l-0.025,0.078c-0.534-0.432-1.654-0.785-3.358-1.06c-1.706-0.272-3.282-0.643-4.728-1.11
				c-1.46-0.471-2.64-0.402-3.538,0.207C87.346,56.142,86.881,56.771,86.848,57.416z"/>
		</g>
	</g>
</g>
<g transform="matrix( 0.8597412109375, 0.5107269287109375, -0.5107269287109375, 0.8597412109375, 114.8,-45.6) ">
	<g>
		<g id="Layer2_1_FILL">
			<path d="M48.087,139.569c0.413,0.538,1.092,1.144,2.04,1.816l4.938,3.572c0.833,0.631,1.519,1.063,2.057,1.297
				c0.601,0.23,1.45,0.398,2.548,0.506c1.1,1.04,2.237,2.012,3.412,2.917L63.07,149.7c1.086,0.67,2.193,1.303,3.321,1.897
				c1.309,0.696,2.772,1.463,4.392,2.304c1.62,0.837,3.713,1.78,6.28,2.832c2.56,1.067,5.017,1.65,7.371,1.75
				c2.361,0.127,4.022-0.224,4.983-1.051c0.337-0.303,1.832-1.626,4.486-3.968c-4.298-2.457-7.174-4.395-8.627-5.817
				c-1.459-1.405-3.242-2.777-5.345-4.118c-2.088-1.336-3.319-2.154-3.693-2.452c-1.987-1.573-3.338-2.603-4.053-3.09
				c-0.106-0.058-0.203-0.111-0.295-0.16l-1.278-0.784c-0.052-0.264-0.133-0.514-0.24-0.749c-0.179-0.524-0.451-1.014-0.815-1.473
				c-0.2-0.246-0.396-0.481-0.587-0.703c-0.725-3.316-3.068-5.258-7.032-5.829c-3.955-0.585-6.784-0.666-8.487-0.24
				c-1.694,0.41-3.056,1.11-4.085,2.099c-1.02,0.974-1.643,1.595-1.869,1.865c-0.098,0.182-0.198,0.363-0.296,0.545l-0.023-0.012
				c-0.008,0.015-0.013,0.042-0.014,0.08c-0.454,0.87-0.689,1.606-0.702,2.206c-0.031,0.669,0.161,1.539,0.579,2.61
				C47.371,138.346,47.72,139.056,48.087,139.569z"/>
		</g>
	</g>
</g>
<g transform="matrix( 1, 0, 0, 1, 0,0) ">
	<g>
		<g id="Layer2_2_FILL">
			<path d="M96.999,34.789c-0.259,1.122-0.362,1.983-0.31,2.583c0.052,0.602,0.061,0.938,0.026,1.007
				c-0.827,2.841-1.636,5.691-2.428,8.55c-0.31,1.24-0.482,2.497-0.517,3.771c-0.017,1.894-0.009,3.754,0.026,5.579
				c0.017,1.205,0.31,2.299,0.878,3.28c-0.052,0.035-0.104,0.086-0.155,0.155c-0.068,0.018-0.104,0.069-0.104,0.155
				c-0.034,0.034-0.025,0.086,0.026,0.155l0.207,1.395l0.078,0.207l0.206,0.155c0.224,0.086,0.585,0.129,1.085,0.129l0.465-0.026
				v0.026h0.026c0.207-0.052,0.413-0.095,0.62-0.129c0.482,0.104,0.999,0.078,1.55-0.077c1.67-0.775,2.384-2.118,2.144-4.03
				c-0.155-1.36-0.241-2.747-0.258-4.158c-0.035-1.12-0.096-2.238-0.182-3.358c0.528-6.61,0.081-11.982-1.343-16.118
				C97.939,33.434,97.259,33.683,96.999,34.789z"/>
		</g>
	</g>
</g>
<g transform="matrix( 1, 0, 0, 1, 0,0) ">
	<g>
		<g id="Layer2_3_FILL">
			<path d="M106.143,132.837c2.928,4.272,4.865,6.063,5.812,5.372l4.959,1.291c1.704,0.568,3.4,1.051,5.088,1.447
				c1.258,0.31,2.479,0.723,3.668,1.24c3.014,1.222,6.044,2.428,9.092,3.615c1.688,0.672,3.452,1.042,5.295,1.111
				c0.826,0.034,1.438-0.379,1.834-1.24c0.345-0.603,0.49-1.214,0.439-1.834c-0.018-0.12-0.043-0.25-0.078-0.387
				c-0.206-0.707-0.629-1.258-1.266-1.654c-2.462-1.721-5.097-3.229-7.903-4.52c-0.845-0.396-1.628-0.869-2.351-1.42
				c-1.757-1.326-3.471-2.67-5.141-4.029c-1.205-0.982-2.6-1.611-4.184-1.887c-1.756-0.293-3.521-0.413-5.295-0.361
				c-0.172,0.035-0.319,0.043-0.439,0.025c-2.721,0-4.666,0.328-5.838,0.982c-0.482,0.256-0.628-0.58-0.438-2.506h-4.831
				C104.734,129.979,105.26,131.563,106.143,132.837z"/>
		</g>
	</g>
</g>
<g transform="matrix( 1, 0, 0, 1, 0,0) ">
	<g>
		<g id="Layer2_4_FILL">
			<path d="M144.68,141.412c-0.74-0.586-1.188-0.844-1.343-0.775c-0.431,0.053-0.87,0.139-1.317,0.259
				c-0.637,0.12-2.229-0.13-4.778-0.749c0.31,1.102,0.146,2.385-0.491,3.849c-0.499,1.222-0.137,2.101,1.086,2.635l1.291,0.774
				c0.637,0.396,1.067,0.715,1.291,0.956c0.396,0.517,0.732,1.085,1.008,1.704c0.293,0.604,0.576,1.215,0.852,1.834
				c0.225,0.482,0.432,0.982,0.621,1.498c0.206,0.568,0.473,1.162,0.801,1.783c0.31,0.603,0.654,1.162,1.032,1.679
				c0.293,0.379,0.585,0.774,0.878,1.188l0.465,0.283c0.259-0.172,0.491-0.369,0.697-0.594c0.086-0.293,0.216-0.577,0.389-0.853
				c0.154-0.259,0.25-0.508,0.283-0.749c0.018-0.104,0.043-0.199,0.078-0.284c0.068-0.258,0.043-0.465-0.078-0.62
				c-0.119-0.12-0.232-0.318-0.335-0.594c-0.087-0.189-0.198-0.396-0.337-0.62v-0.491l-0.283-0.309l-0.904-4.856
				c-0.08-0.573-0.148-1.15-0.207-1.73C145.653,143.72,145.42,141.98,144.68,141.412z"/>
		</g>
	</g>
</g>
<g transform="matrix( 1, 0, 0, 1, -5.35,-7) ">
	<g>
		<g id="Layer2_5_FILL">
			<path d="M100.67,34.634c0.343,0.239,0.584,0.799,0.723,1.679c-0.069-0.103-0.146-0.207-0.232-0.31
				c-0.293-0.413-0.646-0.809-1.059-1.188c-0.197-0.281-0.369-0.479-0.516-0.594c-0.21-0.158-0.374-0.158-0.491,0
				c-0.052,0.076-0.095,0.188-0.129,0.336c0.093,0.287,0.248,0.51,0.465,0.671c-0.069,0.207,0.112,0.603,0.542,1.188l0.026,0.103
				l0.052,0.465c0.017,0.045,0.034,0.088,0.051,0.129c0.104,0.207,0.198,0.422,0.284,0.646c0.155,0.396,0.344,0.792,0.568,1.188
				c0.31,0.585,0.448,1.231,0.413,1.937c-0.009,0.18,0,0.353,0.026,0.517c-0.045,0.07-0.088,0.156-0.129,0.258l-0.155,0.362
				l-0.026,0.181c-0.034,0.086-0.034,0.155,0,0.207c-0.12,0.069-0.241,0.181-0.361,0.336c-0.202,0.225-0.4,0.389-0.594,0.491
				l-0.026-0.026c-0.401-0.356-0.711-0.588-0.93-0.698c-0.121-0.086-0.189-0.138-0.207-0.155c-0.035-0.034-0.052-0.112-0.052-0.232
				V41.66c0-0.207-0.043-0.353-0.129-0.439c-0.086-0.12-0.207-0.146-0.362-0.077c-0.12,0.018-0.232,0.095-0.335,0.232
				c-0.207,0.241-0.327,0.62-0.361,1.136c-0.035,0.276-0.018,0.474,0.051,0.594c0.207,0.189,0.345,0.345,0.414,0.465
				c0.034,0.189,0.078,0.328,0.129,0.414c0.172,0.155,0.284,0.284,0.335,0.387c0.017,0.241,0.155,0.465,0.413,0.672
				c0.258,0.207,0.508,0.379,0.749,0.517c0.083,0.049,0.177,0.092,0.284,0.129c0.319,0.177,0.637,0.306,0.956,0.387l0.853,0.155
				l0.052,0.258c1.05,0.637,2.049,0.542,2.996-0.284c0.018-0.189,0.026-0.37,0.026-0.542c0.035-1.05,0.241-2.041,0.62-2.97
				c0.149-0.663,0.21-1.326,0.181-1.989c0.345-0.964,0.422-1.963,0.232-2.996c-0.138-0.827-0.482-1.533-1.033-2.118
				c-0.258-0.275-0.465-0.292-0.62-0.052c-0.017,0.052-0.026,0.104-0.026,0.155c-0.017,0.068-0.017,0.138,0,0.206
				c0.018,0.069,0.035,0.138,0.052,0.207c-0.086-0.155-0.164-0.319-0.232-0.491c-0.275-0.809-0.8-1.343-1.575-1.602
				c-0.109-0.008-0.212,0.018-0.311,0.078c-0.115,0.06-0.131,0.266-0.052,0.62c-0.086-0.086-0.171-0.164-0.258-0.232
				c-0.327-0.311-0.62-0.638-0.878-0.982c-0.112-0.112-0.224-0.224-0.335-0.335c-0.148-0.068-0.406-0.163-0.775-0.285
				c-0.384-0.1-0.452,0.116-0.207,0.646C100.011,34.047,100.312,34.418,100.67,34.634z"/>
		</g>
	</g>
</g>
<g transform="matrix( 1, 0, 0, 1, 0,0) ">
	<g>
		<g id="Layer1_0_FILL">
			<path d="M72.875,81.644c2.121,1.032,3.61,1.135,4.468,0.31c0.843-0.827,1.523-1.515,2.041-2.066
				c0.807-0.852,1.737-1.928,2.79-3.229c3.047-3.771,5.243-6.733,6.586-8.886c1.343-2.152,2.325-3.461,2.945-3.925
				c0.603-0.482,0.886-1.301,0.852-2.455c-0.034-1.687-0.628-3.151-1.782-4.391c-3.41-1.171-5.501-0.525-6.276,1.937
				c-0.792,2.463-2.592,5.304-5.398,8.524c-2.807,3.203-4.718,6.294-5.734,9.272c-0.431,1.287-0.689,2.337-0.774,3.151
				L72.875,81.644z"/>
		</g>
	</g>
</g>
<g transform="matrix( 0.90838623046875, -0.418121337890625, 0.418121337890625, 0.90838623046875, -65,75.75) ">
	<g>
		<g id="Layer1_1_FILL">
			<path d="M133.347,80.751c-0.65,0.194-1.458,0.614-2.424,1.259l-5.096,3.342c-0.886,0.553-1.534,1.042-1.945,1.461
				c-0.428,0.48-0.888,1.213-1.38,2.201c-1.363,0.658-2.677,1.376-3.941,2.15l-0.017-0.02c-1.013,0.777-1.997,1.586-2.954,2.427
				c-1.116,0.976-2.355,2.07-3.717,3.284c-1.358,1.216-2.986,2.836-4.883,4.86c-1.908,2.012-3.329,4.101-4.26,6.266
				c-0.959,2.161-1.223,3.838-0.793,5.032c0.165,0.422,0.868,2.291,2.112,5.604c3.825-3.142,6.661-5.139,8.507-5.99
				c1.833-0.865,3.75-2.041,5.751-3.53c1.992-1.475,3.194-2.335,3.607-2.578c2.177-1.297,3.62-2.193,4.331-2.688
				c0.091-0.078,0.176-0.151,0.255-0.218l1.188-0.915c0.265,0.045,0.527,0.06,0.784,0.043c0.553,0.018,1.109-0.062,1.667-0.238
				c0.301-0.098,0.589-0.199,0.866-0.299c3.356,0.504,6.006-0.994,7.95-4.495c1.956-3.487,3.038-6.102,3.247-7.845
				c0.219-1.73,0.051-3.251-0.507-4.564c-0.547-1.3-0.906-2.104-1.078-2.41c-0.134-0.157-0.268-0.314-0.403-0.471l0.02-0.017
				c-0.011-0.013-0.035-0.027-0.07-0.042c-0.651-0.735-1.255-1.215-1.811-1.441c-0.614-0.267-1.496-0.397-2.645-0.388
				C134.745,80.518,133.957,80.591,133.347,80.751z"/>
		</g>
	</g>
</g>
<g transform="matrix( 1, 0, 0, 1, 0,0) ">
	<g>
		<g id="Layer1_2_FILL">
			<path d="M59.857,67.695c2.089,3.188,4.242,5.985,6.457,8.395c2.213,2.424,3.78,3.983,4.701,4.675l3.047,1.912l0.594,0.542
				l0.233,0.129l0.31,0.026c0.241-0.052,0.568-0.233,0.982-0.542l0.361-0.311v0.026l0.026-0.026c0.121-0.155,0.258-0.318,0.413-0.49
				c0.448-0.172,0.844-0.508,1.188-1.007c0.74-1.705,0.241-3.358-1.499-4.959c-1.222-1.154-2.402-2.359-3.538-3.616
				c-0.913-0.999-1.852-1.98-2.816-2.944l-9.944-9.092c-0.827-0.913-1.576-0.973-2.248-0.181c-0.119,0.137-0.24,0.232-0.361,0.285
				c-0.123,0.053-0.321,0.466-0.594,1.24C56.875,62.545,57.771,64.525,59.857,67.695z"/>
		</g>
	</g>
</g>
<g transform="matrix( 0.9712677001953125, -0.2379150390625, 0.2379150390625, 0.9712677001953125, -27.4,32.95) ">
	<g>
		<g id="Layer1_3_FILL">
			<path d="M70.354,129.603c-0.767,1.62-1.453,3.253-2.058,4.898c-0.451,1.202-0.998,2.364-1.641,3.485
				c-1.596,2.839-3.165,5.7-4.708,8.586c-0.866,1.588-1.445,3.295-1.738,5.122c-0.137,0.823,0.198,1.482,1.006,1.982
				c0.563,0.409,1.153,0.62,1.769,0.63c0.131,0.01,0.258,0.008,0.382-0.005c0.726-0.127,1.329-0.482,1.808-1.067
				c2.01-2.255,3.822-4.688,5.437-7.303c0.506-0.785,1.077-1.506,1.712-2.167c1.52-1.576,3.052-3.117,4.594-4.624
				c1.128-1.083,1.923-2.386,2.388-3.911c0.506-1.716,0.84-3.456,1-5.217c-0.013-0.162-0.002-0.312,0.031-0.449
				c0.33-2.682,0.251-4.654-0.235-5.919c-0.509-1.263-0.773-2.079-0.79-2.452c-0.042-0.361-0.207-1.739-0.497-4.132
				c-0.291-2.392-1.6-1.948-3.927,1.332c-2.335,3.29-3.214,5.443-2.638,6.459L70.354,129.603z"/>
		</g>
	</g>
</g>
<g transform="matrix( 1, 0, 0, 1, 0,0) ">
	<g>
		<g id="Layer1_4_FILL">
			<path d="M55.44,172.407c0,0.017,0,0.034,0,0.052c0.017,0.034,0.035,0.068,0.051,0.104c0,0.034,0.009,0.068,0.026,0.104
				c0.04,0.099,0.091,0.193,0.155,0.283c0.121,0.156,0.275,0.232,0.465,0.232c0.121,0.018,0.318,0,0.594-0.051
				c0.258-0.069,0.448-0.146,0.568-0.232c0.068-0.018,0.146-0.061,0.232-0.129c0.052,0.086,0.19,0.197,0.413,0.336
				c0.221,0.135,0.704,0.108,1.446-0.078c0.188-0.049,0.377-0.102,0.568-0.155c0.598-0.057,1.045-0.247,1.343-0.568
				c0.579,0.028,1.095-0.102,1.55-0.388c1.941-0.469,3.921-0.83,5.941-1.084c1.118-0.188,1.954-0.334,2.505-0.439
				c0.553-0.092,1.156-0.342,1.808-0.749c0.635-0.407,1.005-0.77,1.11-1.085c0.087-0.295,0.069-0.639-0.052-1.033
				c-0.038-0.127-0.141-0.566-0.31-1.317c-0.185-0.749-0.314-1.944-0.388-3.591c-0.09-1.631-0.727-2.232-1.912-1.808
				c-1.186,0.446-2.021,0.679-2.505,0.698s-0.803-0.007-0.955-0.078c-0.172-0.055-0.671,0.643-1.499,2.092
				c-0.821,1.471-1.69,2.383-2.609,2.738c-0.926,0.37-1.898,0.965-2.918,1.782c-1.032,0.821-1.694,1.312-1.989,1.473l-2.609,1.523
				c-0.313,0.252-0.598,0.554-0.853,0.904c-0.086,0.103-0.146,0.189-0.181,0.259c-0.035,0.068-0.06,0.111-0.078,0.129l-0.025,0.051
				L55.44,172.407z"/>
		</g>
	</g>
</g>
<g transform="matrix( 1, 0, 0, 1, 0,0) ">
	<g>
		<g id="Layer1_5_FILL">
			<path d="M57.455,55.168c-0.086-0.034-0.164-0.077-0.232-0.129c-0.155-0.138-0.318-0.275-0.491-0.414
				c-0.069-0.034-0.276-0.069-0.62-0.103c-0.258-0.069-0.611,0.224-1.059,0.878c0-0.155-0.215-0.163-0.646-0.025
				s-0.68,0.464-0.749,0.981c-0.448,0.133-0.672,0.426-0.671,0.878c-0.177,0.17-0.306,0.376-0.388,0.62
				c-0.082,0.24-0.108,0.575-0.078,1.007c0.048,0.112,0.1,0.207,0.155,0.285c0.017,0.018,0.042,0.026,0.078,0.026
				c0.034,0.172,0.12,0.335,0.258,0.49c0.138,0.173,0.284,0.301,0.439,0.388l0.878,0.62c1.953,3.124,4.329,3.365,7.129,0.723
				l-0.284-1.523c-0.138-1.154-0.25-1.826-0.335-2.015c-0.069-0.224-0.172-0.474-0.31-0.749c-0.138-0.258-0.318-0.448-0.542-0.568
				c-0.121-0.069-0.224-0.198-0.31-0.387c-0.086-0.086-0.215-0.173-0.388-0.259c-0.103-0.104-0.232-0.258-0.387-0.464
				c-0.069-0.086-0.215-0.155-0.439-0.207L57.455,55.168z"/>
		</g>
	</g>
</g>
<g transform="matrix( 0.945526123046875, 0.04931640625, -0.04931640625, 0.945526123046875, 15.35,-3.7) ">
	<g>
		<g id="Layer0_0_FILL">
			<path d="M67.034,42.989l-0.003-0.026l-0.026,0.003l-0.105-0.015l-0.026,0.002l-0.023,0.029l-0.018,0.08l-0.048,0.031
				l-0.041,0.108l0.005,0.051l-0.023,0.029l-0.01,0.156l-0.023,0.029l-0.015,0.106l-0.021,0.054l-0.054-0.02
				c-0.065,0.041-0.12,0.09-0.166,0.147l-0.003-0.026l-0.026,0.003l-0.003-0.026l-0.079-0.018l-0.026,0.003l-0.02,0.054
				l-0.023,0.028l-0.02,0.054l-0.049,0.031l-0.092,0.113l-0.049,0.031l-0.068,0.085l-0.067,0.111l-0.049,0.03l0.006,0.052
				c-0.049,0.022-0.096,0.079-0.138,0.17l0.028,0.023l-0.046,0.057l-0.008-0.077c-0.004-0.034-0.034-0.074-0.091-0.12l-0.128,0.013
				l0.002,0.026l-0.117,0.116l-0.021,0.054l-0.114,0.142l-0.021,0.054l-0.048,0.031l-0.023,0.029l-0.049,0.031l0.005,0.051
				l-0.115,0.142l-0.086,0.165l-0.031-0.049l-0.048,0.031l-0.003-0.026l-0.051,0.005l0.005,0.051l-0.048,0.031l-0.067,0.11
				l-0.048,0.031l-0.066,0.111l-0.049,0.031l0.005,0.051l-0.04,0.108l-0.023,0.029l-0.356,0.323
				c-0.024-0.067-0.056-0.115-0.093-0.146c-0.108-0.04-0.173,0.001-0.194,0.125c-0.049,0.039-0.065,0.128-0.05,0.264l-0.023,0.029
				L63.693,46.3l-0.054-0.02c-0.034,0.004-0.058,0.023-0.071,0.06l-0.003-0.026l-0.029-0.023l-0.041,0.108l0.003,0.026l-0.043,0.083
				l0.003,0.025l-0.072,0.06l-0.043,0.083l0.013,0.128l-0.048,0.031l0.003,0.026l-0.067,0.111c0.053,0.012,0.064,0.036,0.034,0.074
				c-0.074-0.044-0.117-0.039-0.128,0.013c-0.065,0.042-0.101,0.106-0.11,0.194l-0.286,0.99c-0.107-0.023-0.197,0.021-0.272,0.132
				c-0.029,0.055-0.053,0.153-0.074,0.293l-0.003,0.468l0.002,0.026l-0.028-0.023l0.026-0.003l-0.008-0.077l-0.054-0.02
				l-0.028-0.023l-0.103,0.011l-0.023,0.028l0.006,0.051l-0.026,0.003l0.008,0.078l-0.048,0.03l0.01,0.103l0.029,0.023l0.003,0.026
				l-0.02,0.054l0.002,0.026c0.003,0.033,0.013,0.041,0.029,0.023l-0.047,0.057c0.017-0.001,0.027,0.006,0.029,0.023l-0.018,0.08
				l0.06,0.072l-0.034,0.419l-0.008-0.078l-0.088-0.094l0.023-0.029l-0.028-0.023l-0.026,0.003l-0.002-0.026l-0.066,0.111
				c0.032-0.021,0.043-0.005,0.031,0.048l-0.02,0.054l0.082,0.043l0.005,0.051l0.062,0.098l0.005,0.051
				c-0.055-0.029-0.115-0.023-0.18,0.019c-0.031,0.038-0.051,0.083-0.064,0.136c-0.045,0.23-0.075,0.355-0.091,0.373l-0.146,0.093
				c-0.093,0.096-0.087,0.234,0.018,0.414l-0.049,0.031l-0.017,0.079l-0.02,0.055c0.002,0.016-0.007,0.017-0.026,0.002l0.016,0.155
				l-0.025,0.003l0.021,0.205l-0.023,0.029l0.082,0.044c-0.141-0.02-0.259,0.009-0.354,0.089c-0.113,0.081-0.179,0.192-0.199,0.332
				l0.076,0.226c-0.201,0.073-0.315,0.215-0.345,0.426l0.07,0.174c-0.251,0.079-0.42,0.209-0.504,0.39
				c-0.121,0.169-0.151,0.38-0.09,0.633l0.095,0.407c0.094,0.232,0.216,0.41,0.368,0.532c0.057,0.046,0.103,0.076,0.139,0.089
				l0.265,0.05c0.388,0.392,0.726,0.816,1.016,1.271l-0.026,0.002l-0.095,0.088l-0.003-0.026l-0.068,0.085l0.031,0.048
				c-0.033,0.021-0.022,0.037,0.031,0.05l0.026-0.003l0.023-0.029l0.054,0.02l0.026-0.002l0.075-0.034l0.048-0.031
				c0.085,0.147,0.16,0.287,0.225,0.417l0.006,0.052c0.001,0.016,0.012,0.033,0.031,0.048c0.034-0.003,0.044,0.004,0.029,0.023
				c0.105,0.179,0.195,0.378,0.27,0.595c0.324,0.779,0.482,1.629,0.475,2.547c-0.001,0.485,0.243,0.832,0.732,1.04
				c0.198,0.066,0.404,0.14,0.62,0.221c0.242,0.823,0.313,1.673,0.215,2.549c0.036,0.013,0.039,0.039,0.008,0.077
				c-0.033,0.021-0.02,0.054,0.037,0.1c0.038,0.031,0.199,0.084,0.484,0.158c-0.11,0.271-0.094,0.512,0.05,0.722l0.592,0.197
				l1.062,0.72l0.302,0.41l0.316,0.278l-0.023,0.029l0.003,0.026c0.001,0.017,0.011,0.025,0.029,0.023l-0.047,0.057l0.026-0.003
				l-0.023,0.029c0.053,0.012,0.064,0.028,0.031,0.048l0.005,0.051l0.08,0.018c-0.019-0.016-0.014-0.059,0.012-0.131l-0.002-0.026
				l0.085,0.069l0.029,0.283l0.034,0.074l0.057,0.046l0.155-0.016c0.053,0.012,0.087,0.008,0.102-0.011l0.085,0.07
				c0.038,0.03,0.066,0.053,0.085,0.068l0.029,0.023l0.031,0.048l0.056,0.046l0.023-0.029l0.216,0.081l0.031,0.049l0.002,0.026
				l0.026-0.002l0.059,0.071l0.028,0.023l0.078-0.008l0.048-0.031c0.034-0.004,0.061,0.002,0.08,0.018
				c0.032-0.021,0.043-0.004,0.031,0.048l0.06,0.072l0.023-0.028c0.004,0.034,0.023,0.058,0.06,0.071l0.146-0.093l0.021-0.055
				l-0.012-0.102c0.016-0.019,0.032-0.03,0.049-0.031l0.028,0.023c0.029,0.101,0.06,0.158,0.096,0.172
				c0.036,0.014,0.052,0.003,0.048-0.031l-0.011-0.103l0.1-0.037l0.026-0.002l-0.031-0.049l0.097-0.062
				c0.003,0.034,0.021,0.041,0.054,0.02l0.054,0.02l-0.023,0.028l-0.018,0.08c-0.01,0.07,0.006,0.138,0.047,0.203
				c0.053,0.012,0.09,0.025,0.108,0.04l0.048-0.291l0.152-0.536l0.018-0.079l0.005,0.051l-0.023,0.028l0.079,0.018
				c0.014-0.036,0.029-0.055,0.047-0.057c-0.017,0.001-0.028-0.015-0.031-0.048L70.45,67.2l0.006,0.051l0.06,0.071l-0.02,0.054
				l0.062,0.097l0.092-0.113l-0.006-0.051c0.021,0.032,0.045,0.013,0.072-0.06l0.046-0.057l0.079-0.242l0.043-0.082l0.061-0.162
				l0.031,0.048l0.105,0.015l0.031,0.048c0.019,0.015,0.02,0.024,0.003,0.026c0.018-0.002,0.071,0.001,0.156,0.009
				c0.049-0.04,0.098-0.062,0.149-0.067l-0.003-0.026l0.023-0.029l0.043-0.082c0.012-0.053,0.026-0.08,0.043-0.082
				c-0.017,0.001-0.029-0.023-0.034-0.075l0.046-0.057l0.041-0.109c-0.016,0.019-0.017,0.002-0.006-0.051l-0.002-0.026
				c0.036,0.014,0.062,0.019,0.08,0.018l0.077-0.008c0.036,0.014,0.053,0.003,0.049-0.031l0.107-0.219l0.115-0.142l-0.01-0.102
				l0.026-0.003c-0.002-0.017,0.001-0.07,0.009-0.157l-0.003-0.026l0.012-0.131l0.026-0.003l0.057,0.047l0.026-0.003l0.029,0.023
				l0.054,0.02l0.103-0.011l0.031,0.048l0.098-0.062l0.046-0.057l0.072-0.06c-0.005-0.051-0.017-0.076-0.033-0.074l0.022-0.028
				l-0.008-0.077l0.026-0.003c0.029-0.055,0.05-0.101,0.064-0.137l0.046-0.057c0.048-0.04,0.046-0.065-0.008-0.077l0.023-0.029
				l-0.034-0.075l-0.008-0.077l-0.033-0.074l-0.003-0.026l0.051-0.006l0.003,0.026l0.108,0.041l0.011,0.103l0.062,0.097
				c0.051-0.005,0.078,0.001,0.08,0.018l0.02-0.054l-0.002-0.026c0.018,0.015,0.035,0.005,0.048-0.031l0.017-0.08l-0.036-0.1
				l0.04-0.108l-0.011-0.103l0.024-0.029l-0.029-0.023l-0.031-0.048l0.183-0.227l0.003,0.026c0.005,0.051,0.016,0.067,0.031,0.048
				l0.006,0.051l0.031,0.048c0.034-0.003,0.044,0.004,0.029,0.023l0.051-0.005c0.031-0.038,0.054-0.058,0.071-0.059
				c-0.017,0.001-0.028-0.023-0.034-0.074l-0.002-0.026l-0.029-0.024l0.021-0.054c-0.016,0.019-0.026,0.003-0.031-0.048
				l-0.005-0.051l0.144-0.119l0.002,0.026l0.049-0.03l0.103-0.012l0.049-0.031l0.069-0.085l0.018-0.08l-0.005-0.051l-0.028-0.023
				l0.048-0.031l0.069-0.085l0.028,0.023l0.052-0.005L73.9,63.437l0.023-0.029l0.018-0.079l0.256-0.286
				c0.047-0.04,0.111-0.098,0.189-0.176l0.051-0.005l0.029,0.023c0.034-0.003,0.068-0.007,0.103-0.011l0.054,0.02l-0.003-0.026
				l0.051-0.006l0.072-0.06l-0.039-0.126l-0.051,0.006c-0.006-0.051-0.018-0.085-0.037-0.1c0.031-0.038,0.071-0.068,0.12-0.09
				c0.017-0.001,0.018,0.007,0.003,0.026l0.078-0.008l0.094-0.088l-0.028-0.023l0.023-0.028l-0.054-0.02
				c0.06-0.093,0.113-0.167,0.159-0.225l0.079,0.018l0.028,0.023l0.049-0.031c0.053,0.011,0.069,0.001,0.048-0.031l-0.003-0.026
				l-0.051,0.005c0.016-0.018,0.005-0.035-0.031-0.048l-0.003-0.026c0.077-0.094,0.153-0.189,0.23-0.284l0.109,0.041l0.031,0.048
				c0.021,0.033,0.083,0.052,0.188,0.058c-0.018-0.016-0.002-0.017,0.051-0.006c-0.005-0.051,0.009-0.078,0.044-0.082l-0.011-0.103
				l-0.09-0.12l-0.108-0.04l-0.023,0.028l-0.003-0.025c-0.003-0.035,0.003-0.053,0.021-0.054l0.023-0.029
				c0.035,0.042,0.06,0.04,0.077-0.008c-0.007,0.035,0.003,0.052,0.031,0.048c0.036,0.014,0.052,0.003,0.048-0.031l0.023-0.029
				l0.026-0.002l-0.008-0.078c0.012-0.053,0.001-0.069-0.031-0.048l-0.051,0.005c0.046-0.057,0.068-0.093,0.066-0.111l0.026-0.003
				l0.108,0.04l0.08,0.018l0.043-0.082l0.02-0.054l0.023-0.029l-0.033-0.074l-0.026,0.002l-0.057-0.046
				c-0.002-0.017,0.005-0.035,0.02-0.054l0.078-0.008l-0.023,0.028l0.054,0.021l0.002,0.026l0.023-0.029
				c0.017-0.001,0.034-0.003,0.051-0.005l0.128-0.013l-0.028-0.023l-0.003-0.026l0.023-0.029c-0.001-0.016-0.01-0.015-0.026,0.003
				l0.046-0.057l-0.085-0.069l-0.051,0.005l-0.029-0.023l-0.023,0.028c-0.002-0.016-0.004-0.034-0.005-0.051l0.066-0.111l0.102-0.01
				c-0.016,0.002-0.006,0.018,0.031,0.049c0.03-0.038,0.056-0.041,0.077-0.008l0.075-0.034l-0.036-0.1l-0.003-0.025
				c-0.034,0.003-0.044-0.004-0.028-0.023l0.077-0.008l0.072-0.06l0.017-0.08l-0.028-0.022c0.014-0.037,0.003-0.053-0.031-0.049
				l-0.051,0.005l0.023-0.029c0.014-0.036,0.03-0.046,0.048-0.031l0.078-0.008l0.048-0.031l-0.031-0.048l-0.003-0.026l0.026-0.003
				l-0.005-0.051l-0.031-0.049l-0.077,0.008c0.016-0.019,0.031-0.038,0.047-0.057c0.076-0.094,0.117-0.202,0.121-0.324
				c0.017-0.002,0.034-0.003,0.051-0.005l0.049-0.031c0.065-0.042,0.062-0.076-0.011-0.103l-0.005-0.051
				c0.016-0.019,0.005-0.035-0.031-0.048l-0.029-0.024l0.077-0.008l0.023-0.029l0.103-0.011l-0.011-0.103l-0.054-0.02
				c-0.053-0.012-0.074-0.044-0.061-0.098l-0.108-0.04c0.029-0.055,0.041-0.1,0.038-0.134l0.029,0.023l0.054,0.02l0.057,0.046
				c0.034-0.02,0.059-0.022,0.077-0.008c0.031-0.038,0.035-0.073,0.015-0.106l-0.029-0.023l-0.054-0.02l-0.003-0.026
				c-0.049,0.022-0.068,0.007-0.057-0.047l0.156,0.01l0.023-0.028l0.078-0.008l-0.005-0.052l0.046-0.057l-0.008-0.077l-0.034-0.074
				l-0.051,0.005l0.022-0.028l0.054,0.02l0.023-0.028c0.053,0.012,0.094-0.018,0.121-0.09l-0.005-0.052l-0.026,0.003l-0.034-0.074
				l-0.031-0.049l-0.034-0.074l-0.029-0.023l0.021-0.054l0.03-0.211l-0.031-0.049l-0.011-0.103l-0.054-0.02l0.023-0.028l0.028,0.023
				c0.014-0.036,0.029-0.055,0.046-0.057l-0.008-0.077l-0.026,0.003l-0.056-0.047l-0.023,0.029l-0.082-0.043l-0.049,0.031
				l-0.031-0.048l-0.028-0.023l-0.026,0.003c-0.088-0.008-0.133-0.021-0.134-0.038c0.014-0.036,0.018-0.079,0.012-0.131
				c0.017-0.002,0.034-0.003,0.051-0.005l0.185,0.032c0.016-0.018,0.014-0.036-0.005-0.051l0.02-0.054l-0.054-0.02l-0.005-0.052
				c0.014-0.036-0.007-0.068-0.062-0.097l-0.082-0.043l-0.062-0.097l-0.052,0.005c0.016-0.018,0.006-0.026-0.028-0.023l-0.108-0.04
				l0.02-0.055l-0.054-0.02c-0.053-0.012-0.064-0.028-0.031-0.048l-0.103,0.011L76.3,56.59l0.077-0.008l0.043-0.082l-0.008-0.077
				l-0.093-0.146l-0.08-0.018l-0.003-0.026l-0.029-0.023l-0.026,0.002c0.016-0.019,0.006-0.026-0.028-0.022l-0.003-0.026
				L76.1,56.169l-0.054-0.021l-0.026,0.003c-0.01-0.085-0.031-0.126-0.065-0.123l-0.173-0.164l-0.062-0.097l-0.17-0.138
				l-0.093-0.146l-0.049,0.031c-0.003-0.034-0.033-0.065-0.088-0.094l0.23-0.284c0.094-0.096,0.153-0.189,0.179-0.278
				c0.052-0.161,0.055-0.378,0.009-0.65c-0.006-0.021-0.009-0.047-0.008-0.078l0.989,0.52c0.11,0.058,0.197,0.066,0.262,0.025
				c0.046-0.057,0.048-0.118,0.006-0.183l-0.167-0.112l-0.634-0.349l0.404,0.14l0.338,0.25c0.09,0.026,0.165,0,0.226-0.075
				c0.028-0.053,0.021-0.113-0.019-0.18c0.038-0.022,0.068-0.06,0.092-0.113l0.134,0.038l0.11,0.067
				c0.144,0.054,0.236,0.018,0.275-0.107c0.046-0.057,0.031-0.116-0.045-0.177l-0.147-0.166l-0.093-0.146
				c-0.021-0.032-0.107-0.11-0.258-0.232l-0.088-0.095l0.216,0.081c0.113,0.092,0.197,0.144,0.25,0.156l0.106,0.015l0.133,0.038
				c0.038,0.031,0.081,0.026,0.128-0.013c0.038-0.031,0.069-0.069,0.092-0.114l0.216,0.081c0.159,0.036,0.248,0.053,0.266,0.051
				c0.116-0.047,0.15-0.137,0.101-0.271c-0.028-0.101-0.105-0.179-0.233-0.235l-0.698-0.472c0.26,0.083,0.413,0.136,0.458,0.159
				c0.075,0.062,0.139,0.09,0.19,0.084c0.053,0.012,0.112-0.003,0.177-0.044c0.116-0.046,0.17-0.113,0.161-0.198l-0.12-0.144
				l-0.549-0.28l-0.142-0.115l0.155-0.016l0.689,0.135c0.14,0.02,0.253,0.017,0.337-0.009c0.133-0.048,0.194-0.133,0.181-0.253
				c-0.029-0.118-0.14-0.184-0.333-0.199l-0.214-0.055c-0.044-0.017-0.106-0.028-0.185-0.033c-0.041-0.009-0.094-0.021-0.16-0.035
				c0.013,0.007,0.03,0.005,0.052-0.006l0.028,0.023c0.353,0.067,0.634,0.02,0.843-0.14c0.061-0.075,0.082-0.13,0.061-0.162
				c-0.003-0.034-0.034-0.075-0.09-0.12c-0.096,0.026-0.19,0.036-0.283,0.03c0.017-0.013,0.032-0.041,0.044-0.083l0.023-0.029
				c0.089-0.043,0.143-0.101,0.163-0.173c0.089-0.148,0.052-0.247-0.109-0.3l-0.026,0.002c0.065-0.041,0.093-0.105,0.084-0.19
				c-0.003-0.024-0.006-0.049-0.008-0.077c0.056-0.028,0.068-0.089,0.032-0.186c-0.002-0.028-0.014-0.053-0.034-0.074
				c0.088,0.06,0.151,0.088,0.191,0.084c0.056-0.03,0.096-0.06,0.12-0.091l0.388-0.014c0.051-0.006,0.092-0.036,0.121-0.091
				c-0.009-0.085-0.031-0.135-0.068-0.148l-0.162-0.061l-0.34-0.016c-0.063-0.076-0.151-0.17-0.263-0.284l-0.06-0.072
				c0.096,0.033,0.173,0.034,0.235,0.002c0.017-0.008,0.034-0.018,0.048-0.031l0.079,0.018c0.142,0.036,0.227,0.019,0.254-0.053
				c0.029-0.055,0.015-0.106-0.042-0.152l-0.029-0.023l-0.029-0.023c-0.035-0.057-0.089-0.146-0.158-0.27
				c0.019,0.002,0.036,0,0.051-0.005c0.07-0.032,0.116-0.08,0.141-0.145c0.013,0.004,0.029-0.007,0.048-0.031
				c0.047-0.057,0.047-0.126,0.005-0.208c0.029-0.055,0.001-0.156-0.084-0.303c-0.055-0.066-0.104-0.122-0.147-0.166l0.043-0.082
				l-0.106-0.015c-0.043-0.044-0.072-0.076-0.088-0.095c-0.02-0.032-0.097-0.102-0.229-0.21c-0.026-0.02-0.046-0.045-0.06-0.071
				l0.054,0.02l0.051-0.005l0.097-0.062l0.064-0.137l-0.029-0.023c0.004-0.015,0.002-0.032-0.005-0.051l0.029,0.023l0.113,0.092
				l0.059,0.071c0.038,0.031,0.072,0.028,0.103-0.01l0.123-0.065c0.012-0.053,0.006-0.105-0.016-0.154l-0.175-0.19l-0.003-0.026
				l-0.057-0.046l0,0l-0.028-0.023c-0.023-0.064-0.072-0.12-0.148-0.167l-0.028-0.022c-0.019-0.059-0.049-0.107-0.093-0.146
				l0.134,0.038l0.442,0.005c0.089,0.025,0.16,0.044,0.214,0.055l0.254-0.052c0.081-0.06,0.098-0.14,0.053-0.239
				c-0.022-0.049-0.105-0.093-0.247-0.13l-0.293-0.074l-0.082-0.043l-0.45-0.082l0.066-0.111l0.018-0.08
				c-0.019-0.016-0.02-0.024-0.003-0.026l0.155-0.016c-0.012,0.053,0.007,0.068,0.056,0.047l0.015-0.106l-0.057-0.046l-0.003-0.026
				c-0.001-0.017-0.021-0.041-0.06-0.071l-0.057-0.047L79.2,45.587l-0.054-0.02l-0.005-0.051l-0.031-0.049l0.052-0.005
				c0.049-0.023,0.101-0.028,0.154-0.016l0.103-0.011l0.097-0.062l0.02-0.054c0.014-0.036-0.007-0.069-0.062-0.098l-0.236-0.027
				l-0.589-0.172l-0.029-0.023l0.051-0.006l0.098-0.061l0.023-0.029l0.043-0.082l-0.013-0.129l-0.054-0.02l-0.076,0.009l-0.08-0.018
				l-0.049,0.031l-0.057-0.046l-0.074,0.034l-0.054-0.021l-0.023,0.029l0.04-0.108l-0.013-0.128l-0.085-0.069l-0.334,0.035
				c-0.019-0.015-0.029-0.031-0.031-0.048l0.064-0.137c0.01-0.07-0.03-0.126-0.122-0.169c0.019,0.015,0.002,0.017-0.051,0.005
				l-0.051,0.005l-0.086-0.069c0.017-0.002,0.041-0.022,0.072-0.06c-0.036-0.014-0.046-0.03-0.031-0.049l-0.005-0.051l-0.062-0.097
				l-0.051,0.005l-0.003-0.026l-0.029-0.023l-0.051,0.005L77.47,43.69l-0.075,0.034l-0.421-0.06l-0.029-0.023l0.071-0.059
				c0.054,0.012,0.078-0.008,0.072-0.06l-0.003-0.025l-0.034-0.074l-0.082-0.043l-0.125,0.039c-0.019-0.016-0.054-0.02-0.106-0.015
				l-0.054-0.02l-0.18,0.019l-0.054-0.021l-0.052,0.006c-0.021-0.032-0.039-0.048-0.057-0.046c0.016-0.019,0.03-0.038,0.046-0.057
				l0.046-0.057l-0.013-0.128c-0.002-0.017-0.029-0.023-0.08-0.018l-0.082-0.043l-0.131-0.012l-0.077,0.008l-0.028-0.023
				l-0.052,0.005l-0.031-0.049c0.014-0.036,0.004-0.044-0.028-0.023l-0.057-0.046l-0.048,0.031
				c-0.051,0.005-0.096,0.001-0.131-0.013c0.051-0.005,0.083-0.035,0.095-0.088c0.03-0.038,0.026-0.081-0.014-0.129l-0.054-0.02
				l-0.078,0.008c-0.033,0.021-0.075,0.026-0.128,0.014l0.026-0.003c-0.036-0.014-0.107-0.032-0.214-0.055l-0.029-0.023
				l-0.022,0.028c-0.002-0.017-0.021-0.032-0.057-0.046l-0.211-0.029l-0.023,0.028l-0.003-0.026l-0.054-0.02l-0.026,0.003
				l-0.08-0.018l-0.026,0.003l-0.116-0.118c-0.073-0.027-0.135-0.047-0.188-0.058c0.015-0.019,0.013-0.036-0.005-0.051
				c-0.143-0.037-0.224-0.064-0.242-0.078l-0.145-0.141c-0.021-0.032-0.058-0.054-0.111-0.066l-0.005-0.051
				c-0.07-0.01-0.116-0.031-0.137-0.064l-0.154,0.016l-0.097,0.062L73.55,41.97l-0.071,0.059L73.268,42l0.218-0.152
				c0.014-0.036,0.002-0.07-0.036-0.1c-0.09-0.025-0.155-0.079-0.199-0.161l-0.857,0.246l0.023-0.029
				c-0.002-0.017,0.005-0.035,0.02-0.054l0.024-0.029l0.017-0.08l0.046-0.057c-0.017,0.002-0.018-0.006-0.003-0.026l-0.033-0.074
				l-0.06-0.072l-0.026,0.002l-0.082-0.043l-0.049,0.031l-0.077,0.008l0.029,0.023c-0.051,0.005-0.076,0.026-0.072,0.06
				l-0.133,0.222c0.003,0.034-0.004,0.043-0.023,0.029l0.029,0.023l-0.397,0.172l0.04-0.108l-0.011-0.103l-0.029-0.023l-0.154,0.016
				l-0.1,0.037l-0.049,0.03l0.02-0.054c-0.002-0.017-0.012-0.033-0.031-0.049l0.048-0.031l0.021-0.054l-0.006-0.051l0.026-0.003
				L71.4,41.52l0.023-0.029l-0.005-0.051l0.023-0.029c-0.017,0.002-0.018-0.006-0.002-0.025l-0.085-0.069l-0.023,0.028l-0.002-0.026
				l-0.106-0.014l-0.023,0.028l-0.02,0.054l0.029,0.023l-0.043,0.082l-0.069,0.085l-0.002-0.026
				c-0.073-0.027-0.19,0.003-0.354,0.089l-0.567,0.293l-0.097,0.062c-0.017,0.002-0.042,0.013-0.074,0.034l-0.013-0.129l-0.054-0.02
				c-0.02-0.033-0.057-0.046-0.108-0.04l-0.128,0.013l-0.02,0.054l-0.29,0.212l-0.069,0.085c-0.034,0.003-0.061-0.003-0.079-0.018
				l-0.151,0.041c-0.181,0.088-0.385,0.214-0.61,0.375c-0.002-0.016-0.012-0.025-0.029-0.023l-0.002-0.026l0.02-0.054l-0.029-0.023
				l0.02-0.054c-0.015,0.019-0.025,0.011-0.029-0.023l-0.002-0.026l-0.034-0.075l-0.057-0.046l-0.051,0.005l0.029,0.023
				l-0.023,0.029c-0.019-0.016-0.035-0.005-0.049,0.031c-0.015,0.019-0.015,0.027,0.003,0.026l-0.049,0.03l0.082,0.044l-0.046,0.057
				l0.028,0.023l0.005,0.052l0.031,0.048c-0.278,0.15-0.519,0.331-0.723,0.543c-0.041-0.064-0.104-0.084-0.187-0.058l-0.149,0.068
				l-0.169,0.121l-0.003-0.025l0.023-0.029l-0.008-0.077l0.026-0.003l-0.029-0.023l0.041-0.108l-0.031-0.049L67.034,42.989
				 M61.64,51.995l0.026-0.003l0.029,0.023C61.674,52,61.657,51.993,61.64,51.995 M78.943,47.094l0.057,0.046
				c-0.026-0.005-0.043-0.012-0.054-0.02l-0.054-0.02L78.943,47.094 M79.111,48.453l-0.057-0.046
				c0.037-0.013,0.069-0.035,0.097-0.062c0.053,0.051,0.099,0.09,0.141,0.115L79.111,48.453 M78.493,47.764l-0.085-0.068l0.11,0.066
				L78.493,47.764 M78.533,49.63l-0.335-0.225l0.023-0.029l0.338,0.25L78.533,49.63 M78.347,50.091l0.263,0.025l0.054,0.02
				c-0.079,0.01-0.166,0.01-0.26,0.002L78.347,50.091 M76.834,51.262l0.108,0.041l-0.106-0.015L76.834,51.262z"/>
		</g>
	</g>
</g>
<g transform="matrix( 1, 0, 0, 1, 0,0) ">
	<g>
		<g id="Layer0_1_FILL">
			<path d="M76.207,51.036c-0.671,0.774-1.05,1.498-1.136,2.169c-0.035,0.31-0.009,0.723,0.078,1.24
				c0.103,0.723,0.206,1.266,0.31,1.627c0.138,0.585,0.353,1.076,0.646,1.472l0.878,1.111c0.121,0.154,0.362,0.37,0.724,0.646
				l0.077,0.31v0.078l0.051,0.025v0.052c0.035,0.018,0.043,0.052,0.026,0.104l0.077-0.026c-0.034-0.017-0.042-0.043-0.025-0.078
				l0.025-0.077v-0.233c0,0.018,0.018,0.044,0.052,0.078l-0.026,0.052v0.104l0.026,0.207l0.078,0.155l0.129,0.129l0.052,0.026
				c0.052,0.018,0.086,0.035,0.103,0.052l0.025,0.052l0.052-0.078l-0.026-0.026c0.035-0.017,0.052-0.042,0.052-0.077
				c0.018-0.069,0.009-0.129-0.026-0.181v-0.052l-0.077-0.104v-0.026l0.077,0.026v0.026l0.078,0.181l-0.026,0.077v0.052
				c0,0.035,0.018,0.061,0.052,0.077l0.026,0.078h0.104v0.052l0.155-0.052v0.129c-0.034,0.034-0.034,0.069,0,0.104l0.078,0.077
				c0.103,0.034,0.172,0.034,0.207,0l0.052-0.077l0.025,0.051c0.052,0.035,0.121,0.043,0.207,0.026l0.078-0.077l0.155,0.103
				l-0.052,0.026l-0.025,0.103l0.128-0.026l-0.051,0.104v0.078c0,0.017,0.017,0.034,0.051,0.051l-0.026,0.078v0.051l0.078,0.078
				l0.104,0.052h-0.026c-0.017-0.018-0.06,0-0.129,0.052l-0.284,0.155l-0.026,0.051v0.078l0.104,0.078l0.078-0.026v0.026h-0.052
				c-0.121,0.069-0.181,0.121-0.181,0.155v0.104l0.052,0.052c-0.224,0.361-0.413,0.749-0.568,1.163
				c-0.052,0.171-0.103,0.344-0.155,0.516c-0.207,0.93-0.414,1.816-0.62,2.661c-0.189,0.844-0.232,1.635-0.129,2.376
				c0.035,0.31,0.026,0.637-0.025,0.981c-0.086,1.688-0.241,2.781-0.465,3.28c-0.431,0.861-0.664,1.352-0.698,1.472
				c-0.034,0.104-0.043,0.224-0.026,0.362c0,0.155-0.086,0.284-0.258,0.388c-0.172,0.086-0.241,0.215-0.207,0.387
				c0.035,0.138,0.095,0.224,0.181,0.258c0.138,0.034,0.215,0.112,0.232,0.232c0.121,0.723,0.551,1.18,1.292,1.369
				c0.378,0.121,0.74,0.138,1.084,0.052l0.052-0.052c0,0.052,0,0.121,0,0.207h-0.026c0,0.258-0.017,0.525-0.051,0.801v0.852
				c-0.62,3.754-0.81,6.991-0.569,9.712c0.276,2.738,0.603,4.675,0.982,5.812c0.361,1.103,1.084,2.445,2.169,4.03l-0.025,0.026
				l0.025,0.154l0.104,0.104l0.025-0.026c0.052,0.086,0.104,0.181,0.155,0.285c0.138,0.224,0.258,0.439,0.361,0.646
				c0,0.017,0,0.034,0,0.052v0.026h-0.025l0.025,0.052l-0.025,0.026v0.026l-0.026,0.051h0.026l-0.026,0.052l0.129-0.025
				l-0.052-0.077l0.026-0.026c0.104,0.12,0.181,0.258,0.232,0.414v0.025l-0.025,0.052c-0.035,0.052-0.035,0.068,0,0.052l0.025,0.051
				l0.026-0.051l0.025-0.026c0.155,0.327,0.301,0.646,0.439,0.956l-0.052,0.051v0.078l-0.052,0.078h0.078v0.051l0.077,0.078
				c0.034,0.017,0.069,0.017,0.104,0c0.568,1.309,0.887,2.376,0.956,3.203c0.034,0.447,0.146,0.955,0.335,1.523l-0.026,0.025v0.025
				l-0.026,0.026v0.052l-0.026,0.025h-0.026c-0.017,0.018-0.017,0.035,0,0.053c0.018,0.017,0.018,0.025,0,0.025l0.104,0.025
				l0.026-0.051h0.026c0.052,0.137,0.112,0.292,0.181,0.465l-0.129,0.154h0.052v0.025l0.052,0.026v-0.026h0.025v-0.025l0.026-0.052
				c0.035,0.052,0.06,0.112,0.077,0.181v0.053l-0.025,0.025v0.025h-0.026l0.051,0.053l-0.025,0.051v0.104h-0.026v0.025
				c-0.017,0.018-0.017,0.035,0,0.052l0.077,0.104l0.026,0.026l0.129-0.053c0.034,0.035,0.06,0.078,0.078,0.129
				c-0.018,0-0.026,0.01-0.026,0.027c-0.086,0.189-0.121,0.335-0.104,0.438c0.035,0.086,0.086,0.138,0.155,0.155
				c0.034,0.018,0.06,0.025,0.077,0.025v0.207l-0.025,0.025c0.034,0.018,0.043,0.061,0.025,0.129v0.129l-0.025,0.052l0.025,0.104
				l0.052,0.052c0.017,0.035,0.017,0.061,0,0.078l0.052,0.077v0.025l0.078,0.052h0.052l0.129,0.078v0.051
				c-0.017,0.053-0.009,0.078,0.025,0.078l-0.052,0.051v0.078l0.026,0.052v0.052h0.052v0.258l0.051,0.025v0.053l0.155,0.154
				l0.078,0.026v0.052l0.025,0.025v0.026l0.052,0.052c0,0.051,0.009,0.078,0.026,0.078v0.025l0.051,0.076l0.026,0.053l0.103,0.076
				l0.052,0.053l-0.026,0.051v0.13c0.018,0,0.018,0.009,0,0.025l-0.026,0.052l0.026,0.078l0.052,0.052v0.025l0.026,0.052v0.025
				h0.025v0.025c0.052,0.035,0.061,0.053,0.026,0.053l0.052,0.025c-0.018,0-0.018,0.009,0,0.025v0.026h0.025v0.026
				c0.018,0.017,0.026,0.033,0.026,0.051h0.052l0.026,0.026v0.026l0.078,0.025h0.052v0.025c0,0.018-0.018,0.053-0.052,0.104h-0.026
				l0.026,0.052l-0.052,0.103l0.052,0.053v0.051l0.052,0.052l0.052,0.026l0.103-0.026l0.052-0.103v-0.027l0.026,0.027l0.026,0.051
				l0.078,0.078l0.078,0.181v0.052l0.052,0.052c0.034,0.034,0.06,0.034,0.078,0l0.025-0.077l0.026-0.026l0.052,0.104h0.025
				c0.017-0.019,0.035-0.019,0.051,0l-0.025,0.052v0.077L87.339,113c0.018,0.035,0.035,0.043,0.052,0.025l0.052,0.052
				c0.051,0.017,0.077,0.017,0.077,0v0.026c0.018,0.018,0.035,0.034,0.052,0.051l0.078,0.078c0.035,0.034,0.112,0.061,0.233,0.078
				l0.103-0.027l0.051,0.027h0.052l0.129,0.103c0.052,0.034,0.138,0.112,0.258,0.232l0.284,0.077l0.414,0.311
				c0.206,0.104,0.353,0.104,0.439,0c0.413,0.224,0.843,0.412,1.292,0.568c1.997,0.602,3.676,0.947,5.037,1.033
				c1.36,0.086,2.479-0.586,3.358-2.016c0.861-1.429,1.61-3.615,2.247-6.561c0.637-2.944,0.293-6.543-1.033-10.796
				c-1.326-4.288-2.006-8.799-2.04-13.535c0-4.77-0.723-8.817-2.17-12.14c-0.12-0.293-0.215-0.551-0.284-0.775
				c-0.052-0.121-0.215-0.577-0.491-1.37l-0.207-1.136c0.155-1.326-0.887-3.574-3.125-6.742l0.103-0.026l-0.078-0.052h-0.103
				c-0.104-0.138-0.198-0.267-0.285-0.388c0.035-0.068,0.052-0.112,0.052-0.128l-0.129-0.078h-0.103
				c-0.052-0.104-0.112-0.198-0.181-0.284c-0.035-0.052-0.078-0.112-0.129-0.181l0.103-0.025c0.069-0.018,0.095-0.061,0.078-0.129
				l-0.078-0.078l-0.413-0.129c0-0.018-0.017-0.043-0.052-0.078c0.017,0,0.035,0,0.052,0l0.052-0.052v-0.026l0.026-0.077
				l0.025-0.052c0.018-0.017,0-0.051-0.051-0.103H90.8l0.104-0.207l-0.052-0.129h-0.078c-0.086-0.035-0.138-0.052-0.155-0.052
				h-0.051l-0.181-0.026c-0.035-0.035-0.069-0.069-0.104-0.104c0.017-0.017,0.017-0.034,0-0.051v-0.051l-0.078-0.104l-0.129-0.052
				V57.88l-0.078-0.078h-0.052l-0.026-0.026l0.078-0.052v-0.104l-0.104-0.103l-0.284-0.077l-0.052-0.052h-0.026
				c-0.018-0.018-0.034-0.035-0.052-0.052c-0.284-0.256-0.56-0.488-0.827-0.697c-0.025-0.05-0.051-0.11-0.078-0.181
				c-0.189-0.465-0.327-0.818-0.413-1.059c-0.155-0.43-0.258-0.8-0.31-1.11l-0.181-1.007l-0.181-0.517
				c0.003,0.003,0.012,0.003,0.025,0c0.086,0,0.147-0.018,0.181-0.052c0.086-0.052,0.095-0.129,0.026-0.233
				c-0.052-0.086-0.129-0.128-0.232-0.128c0.052-0.121,0.052-0.232,0-0.336l-0.052-0.026c0-0.138-0.052-0.232-0.155-0.284
				l-0.128-0.077l-0.078-0.104l-0.129-0.207l0.026,0.026c0.033,0.011,0.068,0.011,0.104,0v0.026l0.103,0.052l0.026,0.052h0.077
				c0.069-0.018,0.078-0.043,0.026-0.078l-0.077-0.052v-0.052l0.026-0.077c0.023,0.001,0.049-0.007,0.077-0.026l0.026-0.103
				l-0.078-0.233v-0.232l-0.025-0.104h0.025l0.026,0.052l0.026,0.104l0.078,0.181l0.078,0.026l0.052-0.026l0.025-0.077l-0.052-0.155
				v-0.026h0.026c0.017,0.017,0.052-0.008,0.103-0.078l0.052-0.077l0.026-0.078l-0.026-0.103l0.052-0.104v-0.413
				c0-0.052-0.017-0.095-0.052-0.129c0-0.017,0.017-0.026,0.052-0.026c0.017,0.018,0.017,0.035,0,0.052l0.155-0.026
				c-0.051,0.121-0.009,0.207,0.129,0.258l0.104-0.077l-0.129-0.749c0-0.121-0.026-0.25-0.078-0.388l-0.051-0.103
				c-0.018-0.018-0.043-0.009-0.078,0.025c0-0.069-0.009-0.146-0.026-0.232c-0.052-0.292-0.164-0.525-0.336-0.697
				c-0.207-0.172-0.534-0.267-0.981-0.284l-2.299-0.181v0.052c-1.498,0.068-2.953,0.439-4.365,1.11
				C78.402,49.003,77.206,49.898,76.207,51.036 M87.752,49.202l0.026-0.026v0.026H87.752 M85.402,109.694
				c-0.035-0.034-0.051-0.069-0.051-0.104l0.025,0.052h0.052l0.052,0.052c0,0.017-0.009,0.042-0.026,0.077l-0.051-0.026V109.694
				 M86.073,110.934l-0.052-0.104c0-0.034,0-0.061,0-0.077l0.026,0.026L86.073,110.934z"/>
		</g>
	</g>
</g>
</svg>
