<?xml version="1.0" encoding="utf-8"?>
<!-- Generator: Adobe Illustrator 15.0.0, SVG Export Plug-In . SVG Version: 6.00 Build 0)  -->
<svg version="1.2" baseProfile="tiny" id="Layer_1" xmlns="http://www.w3.org/2000/svg" xmlns:xlink="http://www.w3.org/1999/xlink"
	 x="0px" y="0px" width="200px" height="200px" viewBox="0 0 200 200" overflow="inherit" xml:space="preserve">
<g>
	<g id="Layer_6_16_">
		<path id="path5_22_" fill="#010101" d="M115.406,88.591c1.557,1.599,2.336,3.714,2.336,6.346c0,1.146-0.291,2.56-0.871,4.244
			c-0.891,2.604-2.242,4.604-4.055,6.006c-0.918,0.707-2.029,2.61-3.33,5.708c-0.623,1.443-1.678,4.195-3.162,8.256
			c-1.5,4.074-3.092,8.367-4.775,12.881c-0.949,2.703-1.423,4.783-1.423,6.239c0,0.948,0.198,2.022,0.594,3.226
			c0.397,1.189,0.595,2.604,0.595,4.244c0,1.627-1.294,5.929-3.884,12.902c-2.604,6.961-3.904,10.689-3.904,11.185
			c0,0.919-0.099,2.192-0.298,3.819c-0.197,1.627-0.297,2.979-0.297,4.055c0,1.994-0.085,3.119-0.254,3.373
			c-0.284,0.438-1.309,0.658-3.077,0.658c-0.368,0-0.912-0.105-1.635-0.318c-0.735-0.213-1.301-0.318-1.697-0.318
			c-0.043,0-0.778,0.184-2.207,0.552c-1.415,0.368-3.148,0.552-5.2,0.552c-1.896,0-3.409-0.155-4.541-0.467
			c-0.82-0.311-1.38-0.467-1.676-0.467c-0.142,0-0.333,0.057-0.573,0.169c-0.241,0.099-0.432,0.149-0.573,0.149
			c-0.241,0-0.467-0.092-0.68-0.275c-0.238-0.213-0.359-0.46-0.359-0.743c0-0.17,0.777-0.503,2.334-0.998
			c3.24-1.019,4.995-1.569,5.264-1.655c5.22-1.768,8.12-3.522,8.7-5.262c0.608-1.798,1.324-6.827,2.144-15.09
			c0.75-7.653,1.124-12.775,1.124-15.363c0-0.368-0.127-1.04-0.382-2.017c-0.255-0.99-0.382-1.669-0.382-2.037
			c0-0.735,0.185-1.288,0.553-1.655c0.367-0.368,0.552-0.742,0.552-1.124c0-0.312-0.1-1.196-0.297-2.653
			c-0.213-1.472-0.318-2.461-0.318-2.971c0-3.227,0.579-6.791,1.74-10.695c1.882-5.73,3.544-11.162,4.987-16.299
			c0.934-3.296,1.521-5.326,1.761-6.09c0.721-2.165,1.493-3.912,2.312-5.242c2.096-3.367,5.242-5.05,9.443-5.05
			C112.145,86.363,113.949,87.106,115.406,88.591z"/>
	</g>
	<g id="Layer_5_24_">
		<path id="path8_21_" fill="#010101" d="M111.27,126.832c0.141,0.425,0.338,0.941,0.594,1.549c0.438,1.372,0.727,2.674,0.869,3.904
			c0.043,0.129,0.092,0.291,0.148,0.488c0.027,0.198,0.043,0.623,0.043,1.273c-0.014,0.594,0.021,1.055,0.105,1.38
			c0.029,0.128,0.219,0.573,0.574,1.337c0.324,0.722,0.51,1.117,0.551,1.188c0.043,0.27,0.1,0.701,0.17,1.295
			c0.07,0.51,0.205,0.941,0.402,1.295c0.326,0.637,0.801,1.443,1.424,2.42c0.014,0.042,0.049,0.098,0.105,0.168h0.021
			c0.721,1.09,1.174,1.783,1.357,2.08c0.41,0.637,0.877,1.754,1.4,3.353c0.539,1.614,1.146,3.735,1.826,6.367l0.191,0.021v0.043
			c0.014,0.595,0.035,0.912,0.062,0.955c0.17,0.75,0.48,1.535,0.934,2.355l1.273,5.518c0.227,0.354,0.396,0.792,0.51,1.316
			c0.07,0.283,0.119,0.601,0.148,0.955c0,0.07,0,0.148,0,0.233c0.057,0.069,0.1,0.185,0.127,0.339
			c0.07,0.143,0.164,0.411,0.275,0.807c0.129,0.297,0.27,0.559,0.426,0.785c0.537,0.863,0.855,1.387,0.953,1.57
			c0.326,0.609,0.553,1.16,0.68,1.656c0.07,0.311,0.594,1.414,1.57,3.311c0.17,0.297,0.332,0.594,0.488,0.891
			c0.666,1.019,0.998,1.6,0.998,1.74c0,0.113,0.014,0.234,0.043,0.361v0.021c-0.027,0.027-0.027,0.07,0,0.127
			c-0.027,0.057-0.049,0.134-0.064,0.233c-0.043,0.142-0.078,0.276-0.105,0.403c-0.27,0.481-0.842,0.722-1.719,0.722
			c-0.637-0.014-1.316-0.093-2.037-0.233c-0.752-0.143-1.514-0.213-2.293-0.213c-0.041,0-2.023,0.354-5.941,1.062
			c-2.701,0-4.584-0.142-5.645-0.425c-0.652-0.311-1.168-0.46-1.551-0.445c-0.098-0.015-0.26,0.043-0.486,0.17
			c-0.256,0.084-0.426,0.127-0.51,0.127c-0.367,0-0.729-0.142-1.082-0.425c-0.354-0.282-0.531-0.502-0.531-0.657
			c-0.014-0.523,0.764-0.948,2.334-1.273c2.59-0.594,3.947-0.912,4.076-0.955c0.127-0.057,1.061-0.459,2.801-1.21
			c0.822-0.41,1.465-0.7,1.932-0.87c0-0.014,0.014-0.028,0.041-0.043c0.539-0.523,0.736-1.146,0.596-1.867
			c-0.1-1.174-0.262-2.299-0.488-3.373c-0.197-0.85-0.645-2.115-1.336-3.799c-0.1-0.27-0.199-0.503-0.299-0.701
			c-0.424-0.947-0.748-1.711-0.975-2.291c-0.539-0.623-1.182-1.592-1.932-2.908c-2.166-1.953-3.941-4.18-5.328-6.685
			c-0.791-1.4-1.328-2.638-1.611-3.714c-0.072-0.184-0.113-0.354-0.127-0.509c-0.227-0.934-0.361-1.825-0.404-2.675
			c-0.057-0.876-0.148-1.611-0.275-2.206c-0.014-0.015-0.014-0.028,0-0.043h-0.023c-0.227-0.905-0.818-1.882-1.781-2.928
			c-1.02-1.104-1.592-1.96-1.721-2.569c-0.141-0.636-0.205-1.109-0.189-1.421c-0.016-0.226-0.021-0.509-0.021-0.849
			c-0.213-0.27-0.41-0.538-0.594-0.807c-1.557-2.165-2.689-3.961-3.396-5.391c-1.188-2.362-1.938-4.074-2.249-5.135
			c-0.086-0.256-0.39-1.605-0.912-4.055c-0.68-1.881-1.175-3.535-1.486-4.965l-1.974-8.998c-0.084-0.34-0.311-1.047-0.679-2.122
			c-0.354-1.019-0.53-1.535-0.53-1.549c-0.185-0.877-0.248-1.889-0.191-3.034c0.099-1.443,0.402-2.342,0.912-2.696
			c-0.027,0.07-0.057,0.198-0.084,0.382c0.197-0.297,0.488-0.7,0.87-1.21c0.622-0.962,1.224-1.74,1.803-2.334
			c1.896-1.995,4.337-3.29,7.321-3.884c0.525-0.113,0.914-0.056,1.168,0.17c0.086,0.085,0.156,0.219,0.213,0.403
			c0.664,0.566,1.316,1.564,1.953,2.992c0.594,1.331,1.047,2.731,1.357,4.202c0.197,0.834,0.453,2.348,0.764,4.541
			c0.283,2.221,0.502,3.644,0.658,4.266l1.168,4.181c0,0.085,0.162,1.585,0.486,4.499c0.34,3.127,0.588,5.221,0.744,6.282
			C110.293,121.994,110.66,123.904,111.27,126.832L111.27,126.832z"/>
	</g>
	<g id="Layer_2_15_">
		<path id="path11_19_" fill="#010101" d="M110.08,37.268c0.129-0.015,0.191,0.067,0.191,0.244
			c-0.256,0.395-0.434,0.628-0.531,0.701v0.105c0.025-0.015,0.072-0.001,0.139,0.042c0.014,0.017,0.049,0.042,0.105,0.075
			l-0.297,0.372c0.014,0.102,0.029,0.205,0.043,0.307c0.08,0.07,0.148,0.155,0.201,0.255c0.199-0.072,0.291-0.019,0.275,0.159
			c0,0.074-0.027,0.169-0.084,0.287c-0.07,0.103-0.1,0.191-0.086,0.265c-0.002,0.029,0.029,0.132,0.096,0.308
			c0.057,0.174,0.086,0.319,0.086,0.435c0,0.013-0.035,0.056-0.105,0.127c0.023,0.162,0.076,0.326,0.158,0.488
			c0.125,0.219,0.334,0.583,0.627,1.093c0.273,0.467,0.516,0.831,0.721,1.093c0.113,0.16,0.895,0.896,2.344,2.207
			c0.168,0.148,0.326,0.297,0.479,0.446c0.096,0.071,0.213,0.141,0.35,0.212c0.129,0.06,0.262,0.134,0.404,0.223
			c0.082-0.028,0.213,0.06,0.393,0.266l0.02,0.021c2.162,1.413,3.252,3.085,3.27,5.019c0,0.131-0.029,0.269-0.086,0.414
			c-0.041,0-0.049,0.014-0.021,0.043c-0.145,1.364-0.621,3.561-1.432,6.589c-0.994,3.556-1.475,5.752-1.443,6.589
			c0,0.247-0.143,1.127-0.424,2.642c-1.166,6.437-1.762,10.306-1.793,11.609c-0.055,1.288-0.002,2.197,0.158,2.727
			c0.146,0.516,0.262,1.124,0.35,1.825c0.076,0.671,0.215,1.947,0.414,3.831c0.189,1.864,0.391,3.188,0.605,3.968
			c0.199,0.769,0.387,1.289,0.562,1.56c-0.146,1.789-0.256,2.882-0.328,3.279c-0.266,1.193-0.734,2.427-1.4,3.704
			c-0.594,1.033-1.143,1.74-1.646,2.122c-0.367,0.835-1.018,1.563-1.951,2.185c-0.711,0.453-1.502,0.801-2.377,1.041h0.455
			c-0.637,0.155-1.309,0.262-2.016,0.318c-3.002,0.082-4.525,0.453-4.574,1.113c-0.043,0.341-0.213,0.793-0.508,1.357
			c-0.437,0.721-0.932,1.082-1.485,1.084c-1.812-0.002-2.943-0.235-3.396-0.701c-0.244-0.27-0.383-0.92-0.414-1.951
			c0.002-0.379-0.045-0.786-0.139-1.221h-0.127c-0.039-0.198-0.085-0.382-0.138-0.553c-0.109-0.34-0.336-0.621-0.68-0.849
			c-0.399-0.31-0.662-0.565-0.784-0.764c0.024-0.028,0.07-0.063,0.138-0.106c-0.11-0.17-0.213-0.29-0.309-0.361
			c-0.549-0.424-1.192-1.145-1.932-2.164c-0.855-1.16-1.283-1.981-1.283-2.462c0-0.127,0.035-0.275,0.105-0.446
			c0.015-0.028,0.036-0.049,0.064-0.063c-0.123-0.13-0.197-0.276-0.224-0.435c-0.026-0.425-0.04-0.645-0.042-0.658
			c0.146-0.935,0.228-1.486,0.244-1.655c-0.228-1.977-0.333-3.208-0.318-3.693c-0.012-3.06,0.288-5.982,0.901-8.764
			c0.602-2.763,0.886-4.524,0.85-5.284c-0.064-0.787,0.003-1.389,0.201-1.804c0.183-0.447,0.121-1.275-0.181-2.483
			c-0.327-1.192-0.084-2.313,0.732-3.363c0.018-0.347,0.049-0.7,0.096-1.062c0.102-0.763,0.155-1.555,0.159-2.376
			c-0.121-0.849-0.175-1.51-0.159-1.984c-0.124-0.191-0.24-0.389-0.35-0.594c-0.429-0.75-0.648-1.312-0.658-1.688
			c-0.109-0.91-0.155-1.921-0.139-3.034c-0.009-0.103,0.174-1.118,0.552-3.046c0.332-1.914,0.506-3.095,0.521-3.544
			c-0.398-1.527-0.59-2.539-0.573-3.035c0.006-0.479,0.03-0.762,0.075-0.849c0.058-0.161,0.354-0.504,0.891-1.029
			c0.24-0.262,0.596-0.413,1.072-0.457c0.283-0.042,0.645-0.078,1.082-0.106c0.35-0.088,0.786-0.3,1.306-0.637
			c0.51-0.394,1.104-0.73,1.782-1.008c-0.028-0.131-0.064-0.262-0.106-0.393c-0.179-0.582-0.267-0.975-0.266-1.177
			c-0.009-0.658,0.172-1.212,0.542-1.666c-0.195-0.191-0.432-0.368-0.711-0.531c-0.507-0.289-0.846-0.278-1.019,0.032
			c0-0.06,0-0.113,0-0.159c-0.011-0.601,0.333-1.34,1.028-2.218c0.385-0.512,1.011-1.265,1.88-2.26
			c0.526-0.732,1.43-1.479,2.705-2.239c0.104-0.065,0.205-0.129,0.309-0.191c0.41-0.255,0.826-0.488,1.25-0.701
			c0.213-0.07,0.482-0.162,0.809-0.276c0.734-0.226,1.605-0.367,2.609-0.424c0.113-0.028,0.254-0.056,0.424-0.084
			c0.141,0.127,0.297,0.269,0.467,0.424c0.029-0.042,0.092-0.071,0.191-0.085c0.227-0.084,0.354,0.007,0.383,0.276
			c0.127-0.084,0.303-0.014,0.529,0.212c0.17,0.142,0.262,0.269,0.275,0.382l-0.189,0.276l-0.012,0.01l-0.01,0.244l0.105-0.042
			c0.057,0.075,0.092,0.128,0.107,0.159c0,0.088-0.051,0.184-0.15,0.286c-0.127,0.086-0.219,0.164-0.275,0.233
			c-0.014,0.032-0.021,0.071-0.021,0.117l0.17-0.064l0.105,0.021l0.096,0.435c-0.014,0.13-0.084,0.275-0.211,0.435
			c-0.07,0.061-0.143,0.12-0.213,0.181c-0.014,0.028-0.021,0.063-0.021,0.106c0.127-0.115,0.27-0.186,0.424-0.212
			c0.229-0.076,0.35-0.019,0.361,0.169C110.426,37.155,110.309,37.222,110.08,37.268L110.08,37.268z"/>
	</g>
	<g id="Layer_3_20_">
		<path id="path14_19_" fill="#010101" d="M91.362,56.452c-0.048-1.768-0.076-3.267-0.085-4.499
			c-0.007-1.254,1.118-2.572,3.374-3.958c2.175-1.381,3.724-1.707,4.647-0.976c0.878,0.726,1.235,1.554,1.071,2.483
			c-0.202,0.889-0.113,2.293,0.266,4.212c0.062,0.813-0.13,2.553-0.573,5.221c-0.247,1.387-0.529,2.919-0.85,4.595
			c-0.117,0.909-0.241,2.575-0.37,4.997c-0.128,2.03-0.315,3.665-0.563,4.902c-0.317,1.68-0.887,3.389-1.707,5.125
			c-0.087,0.099-0.161,0.534-0.223,1.305c-0.062,0.561-0.272,0.985-0.637,1.273c-1.161,0.842-2.17,1.726-3.024,2.653
			c-0.587,0.617-1.634,1.54-3.14,2.77c-1.69,1.326-2.815,2.281-3.375,2.865c-0.937,1.178-1.731,2.166-2.388,2.96
			c-0.46,0.514-0.877,0.941-1.252,1.284c0.165,0.554,0.335,1.456,0.51,2.706c0.147,1.136,0.275,2.307,0.382,3.512
			c0.027,0.283,0.013,0.495-0.043,0.637c-0.138,0.155-0.456,0.262-0.955,0.318c-0.401,0.043-0.706-0.332-0.912-1.125
			c-0.205-0.808-0.474-1.203-0.806-1.188c-0.306,0.027-0.529,0.304-0.669,0.828c-0.056,0.255-0.07,0.516-0.042,0.786
			c0.107,1.175,0.876,2.052,2.302,2.631c0.333,0.128,0.817,0.298,1.454,0.509c0.441,0.185,0.681,0.39,0.721,0.615
			c-0.002,0.185-0.079,0.348-0.232,0.489c-0.125,0.127-0.312,0.198-0.562,0.212c-0.179,0.027-0.564-0.008-1.157-0.106
			c-0.637-0.099-0.977-0.155-1.019-0.17c0.084,0.241,0.09,0.481,0.021,0.722c-0.141,0.27-0.342,0.417-0.605,0.445
			c-0.195,0.029-0.577-0.135-1.145-0.487c-0.691-0.396-1.134-0.735-1.327-1.019c-0.053-0.057-0.215-0.148-0.487-0.275
			c-0.307-0.113-0.508-0.227-0.606-0.34c-0.085-0.1-0.155-0.383-0.211-0.85c-0.067-1.527-0.127-2.638-0.181-3.332
			c-0.135-0.938-0.146-1.57-0.032-1.899c0.084-0.381,0.105-0.835,0.063-1.358c-0.149-1.379,0.165-2.723,0.945-4.032
			c0.572-0.996,1.255-1.657,2.047-1.984c0.795-0.825,1.749-1.858,2.865-3.099c1.382-1.615,2.729-3.231,4.043-4.849
			c1.849-2.116,3.363-3.811,4.541-5.083c0.252-0.388,0.352-0.848,0.298-1.379c-0.135-0.863-0.241-1.698-0.318-2.504
			c-0.152-5.096,0.042-8.467,0.583-10.112L91.362,56.452z"/>
	</g>
	<g id="Layer_4_22_">
		<path id="path17_21_" fill="#010101" d="M120.256,51.729c0.229,0.696,0.463,1.573,0.699,2.631
			c0.199,0.958,0.744,2.713,1.635,5.263c0.805,2.416,1.326,4.216,1.561,5.401c0.127,0.692,0.227,1.477,0.297,2.355
			c0,0.014,0,0.028,0,0.043c0.055,0.131,0.129,0.414,0.223,0.849c0.049,0.404,0.113,0.799,0.189,1.188l0.436,1.836
			c0.164,0.272,0.275,0.573,0.34,0.902c0.002,0.016-0.006,0.167-0.021,0.457l0.213,0.838c0.051,0.214,0.164,1.003,0.34,2.366
			c0.08,0.358,0.205,0.659,0.371,0.902c0.02,0.433,0.047,0.737,0.084,0.912c0,0.083,0.096,0.289,0.287,0.615
			c-0.014,0.043,0.008,0.092,0.062,0.149c-0.178,0.747-0.334,1.766-0.467,3.056l0.871,4.414c-0.104,1.482-0.178,2.452-0.223,2.908
			c-0.123,0.542-0.256,0.998-0.404,1.369c0,0.071,0,0.128,0,0.169c0.014,0.074,0.037,0.24,0.074,0.499
			c-0.062,0.496-0.119,1.018-0.168,1.57c-0.562,4.332-1.105,7.568-1.635,9.709c0.332,1.796,0.523,2.864,0.574,3.204
			c0.137,0.946,0.266,2.194,0.381,3.745c0.02,0.408-0.1,0.992-0.361,1.751c-0.373,1.085-0.598,1.761-0.668,2.026
			c-0.432,1.916-0.73,2.98-0.902,3.194c-0.111,0.109-0.291,0.177-0.541,0.201c-0.562,0.042-0.893,0.071-0.986,0.085
			c-0.059,0.099-0.164,0.198-0.318,0.297c-0.305,0.198-0.754,0.361-1.348,0.488c-0.541,0.098-1.004,0.105-1.389,0.021
			c-0.398-0.113-0.654-0.155-0.766-0.127c-0.469,0.068-0.799-0.088-0.986-0.468c-0.027-0.028-0.035-0.056-0.021-0.085
			c-0.326-0.31-0.582-0.943-0.764-1.899c-0.051-0.308-0.006-0.579,0.137-0.817c0.154-0.31,0.438-0.494,0.85-0.551
			c0.195-0.07,0.391-0.063,0.584,0.021c0.301-0.716,0.438-1.166,0.414-1.347c-0.014-0.059-0.119-0.369-0.318-0.935
			c-0.223,0.157-0.406,0.511-0.553,1.062c-0.117,0.447-0.438,0.728-0.965,0.838c-0.291,0.018-0.553-0.121-0.785-0.414
			c-0.221-0.197-0.33-0.36-0.328-0.487c-0.039-0.114-0.035-0.233,0.01-0.361c0.465-0.704,0.879-1.713,1.242-3.024
			c0.592-2.045,0.836-3.344,0.73-3.894c-0.027-0.071-0.055-0.142-0.084-0.212c0.072-0.213,0.164-0.41,0.275-0.594
			c0.473-0.948,1.045-1.649,1.721-2.102c0-0.043,0.006-0.085,0.02-0.127c0.227-1.486,0.406-2.675,0.541-3.565
			c0.451-3.724,0.354-7.346-0.297-10.866c-0.393-1.927-0.438-3.75-0.137-5.464c0.303-1.689,0.383-2.92,0.242-3.692
			c-0.314-1.606-0.725-2.925-1.229-3.958c-0.285-0.517-0.508-0.991-0.67-1.422c-0.205-0.29-0.432-0.615-0.68-0.977
			c-0.479-0.704-0.914-1.581-1.303-2.631c-0.111-0.289-0.395-1.226-0.85-2.812l-0.775-4.021c-0.051-1.391-1-2.876-2.844-4.457
			c-0.961-0.784-1.635-1.342-2.025-1.677c-0.65-0.621-1.016-1.155-1.094-1.602c-0.398-2.152-0.363-3.549,0.105-4.191
			c0.312-0.462,0.586-1.195,0.818-2.196c0.16-0.425,0.426-0.815,0.797-1.167c0.07-0.114,0.154-0.22,0.254-0.318
			c0.627-0.788,1.361-1.254,2.207-1.401c0.393-0.074,0.721-0.06,0.986,0.043c0.143-0.001,0.348,0.027,0.615,0.084
			c0.939,0.233,1.67,0.7,2.197,1.401c0.123,0.305,0.469,0.718,1.039,1.241c0.654,0.582,1.043,0.975,1.168,1.178
			C119.479,49.923,119.916,50.783,120.256,51.729z"/>
	</g>
	<g id="Layer_8_15_">
		<path id="path20_7_" fill="#010101" d="M110.59,22.932l-0.021,0.021c0.027,0.014,0.057,0.035,0.084,0.064
			c0.186-0.127,0.354-0.141,0.51-0.042c0.283,0.269,0.432,0.544,0.445,0.828l-0.105,0.233c0.014,0.028,0.035,0.064,0.064,0.106
			c0.027,0,0.055,0,0.084,0c0.143,0,0.24,0.05,0.297,0.149l0.02,0.148c0,0.071,0.143,0.163,0.426,0.276
			c0.027,0.015,0.078,0.127,0.148,0.339c0.057,0.212,0.107,0.347,0.15,0.403c0,0.056-0.029,0.127-0.086,0.212
			c0.141,0.042,0.219,0.113,0.234,0.212c0.014,0.042,0.014,0.121,0,0.233v0.021c0.311-0.084,0.451-0.021,0.424,0.191
			c-0.016,0.24-0.057,0.446-0.127,0.615c-0.086,0.071-0.143,0.149-0.17,0.233c0.014,0.071,0.035,0.163,0.062,0.276
			c0.029-0.029,0.064-0.043,0.107-0.043l0.146,0.021v0.191c-0.012,0.071-0.049,0.212-0.104,0.424c-0.07,0.185-0.1,0.354-0.086,0.51
			c-0.014,0.07-0.049,0.169-0.105,0.297c-0.016,0.085-0.035,0.212-0.064,0.382c0.029,0.014,0.049,0.035,0.064,0.064
			c0.041,0.056,0.07,0.169,0.084,0.339c-0.014,0.1-0.057,0.199-0.127,0.297c-0.057,0.028-0.105,0.064-0.148,0.106
			c-0.029,0.042-0.043,0.085-0.043,0.127c0.027,0.015,0.043,0.085,0.043,0.212c0,0.071-0.029,0.248-0.086,0.53
			c-0.014,0.029-0.035,0.12-0.062,0.276c-0.014,0.156-0.027,0.311-0.043,0.467c0.014,0.028,0.057,0.099,0.127,0.212
			c-0.014,0.014-0.135,0.127-0.361,0.34c-0.057,0.156-0.105,0.318-0.146,0.488c0.07,0.042,0.105,0.078,0.105,0.106
			c0.014,0.127-0.051,0.205-0.191,0.233c-0.043,0.057-0.064,0.121-0.064,0.191c0.113,0.17,0.17,0.29,0.17,0.36
			c-0.014,0.085-0.064,0.177-0.148,0.276c-0.098,0.085-0.143,0.191-0.129,0.319c-0.014,0.028-0.119,0.092-0.316,0.191h-0.021
			c-0.027,0-0.035,0.007-0.021,0.021c-0.014,0.014-0.006,0.028,0.021,0.042c0.027,0.099,0.043,0.191,0.043,0.276
			s-0.078,0.127-0.234,0.127h-0.041c-0.029,0.028-0.051,0.079-0.064,0.148v0.01l0.105-0.021l0.012,0.01
			c0.021,0.019,0.031,0.047,0.031,0.085c0,0.117-0.021,0.227-0.064,0.329c0,0.027-0.027,0.077-0.084,0.148
			c-0.098,0.061-0.135,0.121-0.107,0.181c-0.004,0.118-0.127,0.186-0.369,0.201c-0.029,0.014-0.035,0.035-0.021,0.064l0.043,0.021
			c-0.057,0.042-0.1,0.092-0.129,0.148c-0.027,0.032-0.057,0.077-0.084,0.138c0.043,0,0.092,0.007,0.148,0.021h0.021
			c0.014-0.001,0.021,0.021,0.021,0.064l-0.021,0.085h-0.254c-0.043,0.045-0.08,0.105-0.107,0.18c0.057,0,0.113,0.006,0.17,0.021
			l0.043,0.085c-0.113,0.014-0.186,0.028-0.213,0.042c-0.084,0.018-0.084,0.043,0,0.074c-0.014,0.014-0.062,0.035-0.148,0.064
			c-0.531,0.906-0.918,1.359-1.156,1.358c-0.213,0-0.34-0.075-0.383-0.223c-0.748,0.352-1.658,0.536-2.727,0.552l-1.379,0.021
			c-0.393,0.061-0.734,0.203-1.029,0.425c-0.26,0.672-0.477,1.132-0.646,1.379c-0.486,0.553-1,1.055-1.541,1.507
			c-1.174,0.891-2.28,1.343-3.32,1.358c-0.127-0.015-0.227-0.021-0.298-0.021c-0.617,0.03-1.059,0.125-1.326,0.287
			c-0.494,0.248-0.884,0.372-1.166,0.372c-0.898-0.015-1.485-0.248-1.762-0.701c-0.098-0.495-0.14-0.757-0.127-0.785
			c-0.016-0.131,0.026-0.372,0.127-0.722c0.061-0.336,0.093-0.569,0.096-0.701c-0.001-0.119-0.058-0.281-0.17-0.487
			c-0.14-0.233-0.196-0.372-0.17-0.415c-0.008-0.382,0.137-0.641,0.436-0.774c-0.24-0.116-0.432-0.274-0.573-0.478
			c-0.194-0.221-0.29-0.405-0.287-0.552c0.001-0.131,0.051-0.241,0.149-0.329c0.142-0.176,0.24-0.279,0.297-0.308
			c-0.112-0.071-0.227-0.134-0.34-0.191c-0.141-0.089-0.239-0.164-0.297-0.223c-0.337-0.104-0.495-0.369-0.477-0.796
			c-0.016-0.131,0.007-0.261,0.062-0.392c0.042-0.146,0.092-0.291,0.148-0.436c0.084-0.203,0.203-0.429,0.361-0.679
			c0.042-0.057,0.086-0.113,0.127-0.17c0.426-0.82,0.637-1.259,0.637-1.315c-0.014-0.029-0.07-0.078-0.169-0.149
			c-0.099-0.071-0.093-0.233,0.021-0.487c-0.226-0.297-0.389-0.509-0.487-0.637c-0.128-0.198-0.198-0.361-0.213-0.488
			c-0.07-0.085-0.106-0.163-0.106-0.233l-0.021-0.404c-0.028-0.368,0.021-0.969,0.148-1.803c0.099-0.793,0.184-1.316,0.254-1.571
			c0.129-0.581,0.362-1.11,0.701-1.592c-0.043-0.098-0.07-0.169-0.084-0.212c-0.029-0.17,0.041-0.368,0.212-0.594
			c0.169-0.241,0.312-0.347,0.425-0.318v-0.063l-0.022-0.021v-0.212c0.015,0,0.043,0,0.085,0c0.043-0.113,0.121-0.241,0.233-0.382
			c0-0.071,0-0.128,0-0.17c0-0.071,0.036-0.156,0.106-0.255c0.071-0.141,0.156-0.205,0.255-0.191
			c0.014-0.015,0.043-0.007,0.085,0.021c0.043-0.114,0.099-0.191,0.169-0.234c0.015-0.155,0.1-0.304,0.256-0.445
			c0.014-0.042,0.197-0.184,0.551-0.424h0.318c0.382-0.311,0.58-0.581,0.594-0.807c0.058-0.014,0.143-0.007,0.255,0.021l0.021-0.319
			c0-0.169,0.049-0.254,0.148-0.254c0.016,0,0.1,0.063,0.256,0.191c0.099-0.142,0.227-0.212,0.382-0.212
			c0.085,0,0.205,0.05,0.361,0.149c0.07-0.424,0.141-0.644,0.212-0.658c0.07-0.028,0.325-0.035,0.764-0.021l-0.021-0.17
			c0-0.156,0.069-0.226,0.211-0.212c0.114-0.014,0.213,0.056,0.297,0.212c0.015,0.028,0.036,0.078,0.063,0.149h0.021
			c-0.141-0.283-0.099-0.375,0.128-0.276c0.128,0.043,0.227,0.12,0.297,0.234c0.058-0.014,0.113-0.022,0.17-0.022
			c-0.014-0.07-0.021-0.113-0.021-0.127c0-0.156,0.142-0.233,0.425-0.233c0.198-0.014,0.339,0.014,0.425,0.085
			c0.057,0.028,0.092,0.071,0.105,0.127c0.07-0.212,0.164-0.311,0.275-0.297c0.1-0.014,0.221,0.079,0.361,0.276
			c0.014-0.014,0.064-0.078,0.148-0.191c0.057-0.127,0.135-0.169,0.234-0.127c0.098-0.028,0.205-0.015,0.318,0.042
			c0.113-0.014,0.191,0.008,0.232,0.064c0,0.014,0.016,0.063,0.043,0.148c0.027,0,0.086-0.036,0.17-0.106
			c0.057-0.085,0.121-0.12,0.191-0.106c0.154-0.014,0.283,0.071,0.381,0.255c0.043-0.113,0.1-0.163,0.17-0.148l-0.021-0.042
			c-0.014-0.128,0.043-0.191,0.17-0.191c0.014,0,0.057,0.007,0.127,0.021c0.143,0,0.234,0.092,0.275,0.276
			c0.057-0.028,0.143,0.007,0.256,0.106c0.057,0,0.141-0.021,0.256-0.064c0.195-0.042,0.316,0.071,0.359,0.339l0.596-0.063
			c0.154,0,0.24,0.05,0.254,0.148c0.014,0.042,0.027,0.12,0.041,0.233c0.213-0.099,0.348-0.141,0.404-0.127
			c0.17-0.056,0.324,0,0.467,0.17c0.014,0.057,0.178,0.163,0.488,0.319c0.014,0,0.199-0.021,0.551-0.064
			c0.254-0.042,0.355,0.092,0.297,0.403v0.021c0.113,0,0.199-0.014,0.256-0.042c0.057-0.057,0.1-0.085,0.127-0.085
			c0.369,0,0.494,0.205,0.381,0.615l0.023,0.021l0.189-0.021h0.531c0.098,0,0.154,0.05,0.17,0.148c0,0.057-0.043,0.135-0.129,0.233
			h-0.02c0.07,0.028,0.148,0.064,0.232,0.106h0.105l0.234,0.021C110.547,22.797,110.561,22.847,110.59,22.932z"/>
	</g>
</g>
</svg>
