<?xml version="1.0" encoding="utf-8"?>
<!-- Generator: Adobe Illustrator 15.0.0, SVG Export Plug-In . SVG Version: 6.00 Build 0)  -->
<svg version="1.2" baseProfile="tiny" id="Layer_1" xmlns="http://www.w3.org/2000/svg" xmlns:xlink="http://www.w3.org/1999/xlink"
	 x="0px" y="0px" width="200px" height="200px" viewBox="0 0 200 200" overflow="inherit" xml:space="preserve">
<path fill-rule="evenodd" d="M86.196,97.942c0.046-0.391,0.098-0.755,0.156-1.089c0.395-2.054,1.141-3.818,2.24-5.291
	c0.415-0.539,0.893-1.401,1.433-2.583c0.078-0.165,0.156-0.325,0.233-0.482c0.21-0.388,0.35-0.631,0.42-0.731
	c1.165-1.655,1.855-2.863,2.069-3.626c0.052-0.173,0.078-0.324,0.078-0.451c0-0.101,0-0.199,0-0.295c0-0.099,0-0.198,0-0.296
	c-0.083-0.519-0.135-1.037-0.155-1.556c0-0.572,0.062-0.982,0.187-1.229c-0.402-0.121-0.734-0.469-0.997-1.043
	c-0.228-0.5-0.394-0.863-0.497-1.089c-0.104-0.225-0.146-0.38-0.125-0.467c0.024-0.084,0.186-0.35,0.482-0.793
	c0.293-0.448,0.568-0.791,0.825-1.027c0.27-0.239,1.033-0.789,2.288-1.649c1.252-0.862,2.513-2.621,3.781-5.276
	c0.278-0.314,0.714-0.657,1.307-1.027c1.184-1.651,1.774-2.823,1.774-3.517l-0.187-1.681c0-0.047,0-0.094,0-0.14
	c-0.266-0.338-0.624-0.743-1.074-1.214c-0.107-0.047-0.205-0.104-0.296-0.171c-0.133-0.113-0.232-0.227-0.295-0.342
	c-0.049,0.004-0.096,0.009-0.141,0.016c-0.091,0.091-0.184,0.169-0.279,0.233V61.03c0.027-0.032,0.059-0.068,0.093-0.109
	c-0.052,0.004-0.104,0.009-0.155,0.016h-0.188c-0.037,0.062-0.079,0.125-0.124,0.187l-0.062-0.062
	c0.013-0.039,0.027-0.08,0.047-0.125h-0.202c-0.071,0.074-0.144,0.136-0.218,0.187c0.031-0.064,0.062-0.126,0.093-0.187h-0.279
	c-0.062,0.091-0.124,0.184-0.188,0.28l-0.093-0.093c0.039-0.063,0.075-0.125,0.108-0.187h-0.342
	c-0.039,0.107-0.064,0.201-0.078,0.28l-0.062-0.062c0.014-0.069,0.034-0.142,0.062-0.218h-0.172c-0.052,0.068-0.108,0.13-0.17,0.187
	l-0.032-0.094c0.015-0.032,0.031-0.063,0.047-0.093h-0.125c-0.022,0.061-0.049,0.124-0.077,0.187l-0.093-0.062
	c0.017-0.041,0.032-0.083,0.047-0.125h-1.759c-0.664-0.062-1.38-0.498-2.147-1.307c-0.258-0.281-0.466-0.535-0.623-0.762
	c-0.057-0.033-0.108-0.068-0.155-0.109c-0.028-0.111-0.069-0.194-0.125-0.249c-0.148-0.149-0.413-0.237-0.793-0.265
	c-0.094-0.157-0.141-0.369-0.141-0.638c0-0.297,0.161-0.541,0.482-0.731l-0.016-0.016c-0.123-0.071-0.195-0.169-0.218-0.296
	c-0.06-0.039-0.116-0.075-0.171-0.108c0.047-0.067,0.094-0.139,0.14-0.218c0.29-0.457,0.436-0.861,0.436-1.214
	c0-0.019,0-0.04,0-0.062c0.078-0.185,0.13-0.341,0.155-0.467c-0.134-0.061-0.263-0.153-0.389-0.28c-0.014,0-0.029,0-0.046,0
	c-0.012-0.019-0.022-0.04-0.032-0.062h-0.03c-0.064,0-0.126-0.006-0.187-0.016c-0.129-0.116-0.315-0.276-0.561-0.482
	c-0.021-0.128-0.031-0.315-0.031-0.561c0-0.081,0.011-0.159,0.031-0.233v-0.031c0.042-0.093,0.083-0.181,0.124-0.265
	c0.307-0.227,0.69-0.6,1.152-1.121c0.324-0.361,0.579-0.651,0.762-0.872h0.048c0.087-0.062,0.181-0.125,0.28-0.187
	c0.095-0.062,0.188-0.119,0.279-0.171c0.202-0.177,0.384-0.327,0.545-0.451l-0.141-0.125c0.1-0.016,0.193-0.038,0.281-0.062
	c0.004-0.106,0.009-0.209,0.015-0.312c-0.261-0.001-0.421-0.022-0.481-0.062l0.248-0.125h0.233c0.021-0.391,0.047-0.723,0.077-0.996
	c0-0.22,0.007-0.412,0.017-0.576c-0.01-0.064-0.017-0.132-0.017-0.203c0-0.186,0.021-0.362,0.063-0.529
	c-0.033-0.081-0.055-0.154-0.063-0.218c0.032,0.032,0.063,0.068,0.095,0.109c0.031-0.079,0.068-0.157,0.108-0.234
	c-0.035-0.071-0.072-0.144-0.108-0.218l0.094-0.124c0.03,0.072,0.062,0.14,0.092,0.202c0.029-0.041,0.061-0.083,0.095-0.125
	c0-0.017,0-0.033,0-0.047c0-0.083,0.021-0.145,0.062-0.187h0.031c0,0.028,0.006,0.064,0.016,0.109l0.016-0.016
	c0.297-0.285,0.671-0.336,1.12-0.155c0.109-0.103,0.317-0.346,0.623-0.732c0-0.069,0-0.146,0-0.233c0-0.188,0.088-0.411,0.265-0.669
	c-0.073,0.186-0.108,0.419-0.108,0.7v0.016c0.013-0.019,0.029-0.04,0.046-0.062c0.064-0.517,0.339-1.01,0.824-1.479v-0.031
	c-0.024,0.018-0.051,0.033-0.078,0.047c0.112-0.104,0.232-0.212,0.358-0.327c0.724-0.663,1.418-1.088,2.085-1.276
	c0.393-0.332,0.787-0.498,1.183-0.498c0.084,0,0.125,0.042,0.125,0.125c0.021,0.062,0.072,0.093,0.155,0.093l0.032-0.015
	c0.045-0.075,0.106-0.148,0.186-0.218c-0.045,0.058-0.087,0.125-0.124,0.203c0.312-0.13,0.582-0.224,0.809-0.28
	c0.026,0.008,0.052,0.024,0.078,0.047c0.011-0.047,0.016-0.104,0.016-0.172c0-0.104-0.021-0.155-0.062-0.155
	c-0.064,0.003-0.126,0.008-0.188,0.016c0.089-0.035,0.182-0.071,0.28-0.109c0,0.021-0.01,0.166-0.031,0.436
	c0.04,0.039,0.082,0.09,0.125,0.155c0.009,0.014,0.02,0.03,0.03,0.047c0.083,0.03,0.202,0.046,0.358,0.046
	c0.052-0.02,0.099-0.036,0.141-0.046c0.095-0.045,0.24-0.124,0.436-0.233c0.332-0.208,0.715-0.312,1.151-0.312
	c0.207,0,0.353,0.083,0.436,0.25l0.062,0.218c0.403,0.054,0.684,0.11,0.84,0.171c0.168-0.145,0.292-0.253,0.374-0.327
	c-0.045,0.054-0.16,0.168-0.343,0.342c0.071,0.031,0.112,0.062,0.124,0.093c0.02,0.058,0.004,0.151-0.046,0.28
	c0.219-0.022,0.431-0.063,0.638-0.125c0.374-0.104,0.768-0.156,1.183-0.156c0.033,0,0.064,0,0.094,0h0.031
	c0.606,0.068,1.312,0.565,2.116,1.494c0.016-0.031,0.026-0.062,0.031-0.094h0.093c0.005,0.057-0.011,0.12-0.046,0.187
	c0.013,0.02,0.028,0.041,0.046,0.062c0.207,0.243,0.399,0.481,0.576,0.715c0.162,0.093,0.308,0.244,0.437,0.451
	c0.051-0.042,0.077-0.089,0.077-0.14c0-0.125-0.052-0.27-0.155-0.436c0.165,0.062,0.248,0.218,0.248,0.467
	c0,0.061-0.046,0.118-0.14,0.171c0.067,0.137,0.13,0.292,0.187,0.467c0.025,0.045,0.052,0.091,0.077,0.14
	c0.18-0.065,0.305-0.107,0.375-0.125c-0.021-0.021-0.053-0.041-0.094-0.062c-0.021-0.021,0.041-0.031,0.186-0.031v0.031
	c0,0.083-0.134,0.188-0.403,0.312c0.078,0.146,0.151,0.292,0.218,0.436l0.016,0.016c0.157-0.057,0.246-0.104,0.265-0.14h0.094
	c-0.07,0.07-0.184,0.143-0.344,0.218c0.045,0.109,0.091,0.233,0.141,0.374c0.093,0.031,0.187,0.093,0.281,0.187
	c0.201,0.119,0.388,0.27,0.559,0.451c0.122-0.004,0.252-0.009,0.39-0.015c-0.166-0.125-0.136-0.114,0.094,0.031l-0.094,0.093
	c-0.094,0.007-0.188,0.013-0.28,0.016c0.143,0.183,0.271,0.391,0.389,0.622c0.066-0.004,0.123-0.009,0.172-0.016v0.125
	c-0.041-0.001-0.082-0.001-0.124,0c0.021,0.04,0.042,0.081,0.062,0.125c0.066,0.152,0.122,0.308,0.172,0.467
	c0.096,0.165,0.153,0.356,0.17,0.575c0.01,0.056,0.02,0.113,0.032,0.171l0.436,0.062l-0.219,0.062h-0.201
	c0.058,0.314,0.095,0.641,0.108,0.981c0.091,0.01,0.162,0.036,0.218,0.078c0.062,0.083,0.094,0.238,0.094,0.466
	c0,0.25-0.073,0.852-0.219,1.805c0.146,0.258,0.219,0.621,0.219,1.089c0,0.166-0.062,0.311-0.187,0.436
	c-0.077,0.083-0.171,0.151-0.281,0.203c-0.029,1.005-0.103,1.789-0.218,2.35v0.031c0,0.018-0.01,0.055-0.03,0.109
	c-0.022,0.09-0.043,0.172-0.062,0.249c0.249,0.203,0.373,0.55,0.373,1.043c0,0.021-0.041,0.28-0.124,0.778
	c-0.083,0.231-0.192,0.413-0.327,0.545c-0.094,0.364-0.213,0.602-0.358,0.716v0.031c0.209-0.065,0.479-0.091,0.81-0.078v0.404
	c-0.044,0.146-0.107,0.271-0.187,0.374v0.093c-0.016-0.009-0.031-0.019-0.046-0.031c-0.169,0.172-0.396,0.266-0.686,0.281
	l0.016,0.031c-0.01-0.01-0.02-0.021-0.031-0.031c-0.02,0-0.041,0-0.062,0h-0.017c0.023,0.116,0.049,0.236,0.078,0.357
	c0.15-0.114,0.317-0.171,0.498-0.171c0.125,0,0.208,0.083,0.249,0.249c0,0.062,0,0.134,0,0.218c0,0.229-0.062,0.57-0.187,1.027
	c-0.021,0.069-0.041,0.136-0.062,0.203c0-0.018,0-0.034,0-0.047v-0.156c-0.187,0-0.354-0.026-0.498-0.078l-0.062,0.249
	c0.115,0.006,0.239,0.011,0.373,0.016c0-0.062,0.031-0.094,0.094-0.094v0.187h-0.405c0.301,0.231,0.487,0.491,0.561,0.778h0.031
	c-0.009,0.007-0.02,0.012-0.031,0.016c0.046,0.183,0.046,0.375,0,0.576c0.011-0.003,0.021-0.003,0.031,0
	c0.083,0.021,0.135,0.031,0.155,0.031v0.467l-0.031,0.093c0.479,0.44,0.863,1.011,1.151,1.711c0.769,1.951,1.152,3.6,1.152,4.949
	c0,0.352-0.011,0.679-0.031,0.98c0.145,0.781,0.218,1.439,0.218,1.977c0,0.623-0.053,1.535-0.155,2.739
	c-0.166,1.805-0.395,3.04-0.686,3.703c-0.047,0.112-0.255,0.906-0.623,2.381c0.02,0.281,0.04,0.577,0.063,0.887
	c0.041,0.601,0.104,1.348,0.187,2.241c0.042,0.457,0.062,1.038,0.062,1.743l-0.155,2.739c0,0.167-0.113,0.612-0.342,1.338
	c-0.208,0.747-0.312,1.224-0.312,1.432c0,0.021,0.042,0.28,0.125,0.778c0.062,0.457,0.083,0.799,0.062,1.027
	c-0.021,0.208-0.229,0.54-0.622,0.996c-0.086,0.102-0.169,0.195-0.249,0.28c-0.023,1.589-0.169,2.886-0.437,3.891
	c0.306,0.441,0.628,1.013,0.966,1.712c0.788,1.618,1.297,3.029,1.524,4.231c0.437,2.532,0.654,3.818,0.654,3.859
	c0.145,1.018,0.218,2.148,0.218,3.394c0,0.414-0.363,1.731-1.089,3.953c-0.728,2.178-1.173,3.372-1.339,3.579
	c-0.187,0.248-0.989,1.729-2.412,4.45c-0.033,0.299-0.069,0.611-0.108,0.934c-0.163,1.326-0.323,2.515-0.483,3.564
	c0.011,0.131,0.016,0.249,0.016,0.356c0,0.747-0.03,1.276-0.093,1.588c-0.06-0.131-0.111-0.272-0.156-0.42
	c-0.042,0.243-0.083,0.476-0.124,0.699c-0.131,0.712-0.271,1.403-0.42,2.07c-0.015,0.207-0.031,0.389-0.047,0.545h-0.031v-0.202
	c-0.08,0.355-0.163,0.703-0.249,1.043c-0.037,0.217-0.079,0.404-0.124,0.56l-0.017-0.017c-0.056,0.214-0.112,0.426-0.17,0.639v0.529
	l-0.063-0.03c-0.014-0.049-0.023-0.101-0.03-0.156c-0.113,0.372-0.228,0.735-0.343,1.089c-0.353,1.017-0.944,2.23-1.774,3.642
	c-0.141,0.239-0.275,0.464-0.404,0.669c0.637,1.788,1.508,3.941,2.615,6.459c0.853,1.946,1.434,3.99,1.742,6.132
	c0.291,0.917,0.436,1.508,0.436,1.772v0.126l-0.188-0.031l0.188,1.742c0,0.167-0.01,0.207-0.031,0.124
	c-0.055-0.044-0.111-0.133-0.17-0.265c-0.02,0.198-0.035,0.4-0.048,0.607v0.031c0.084,0.477,0.125,0.81,0.125,0.996
	c0,0.207-0.021,0.343-0.063,0.404c-0.055-0.127-0.107-0.271-0.155-0.437c-0.041,0.452-0.083,0.868-0.124,1.246
	c-0.001,0.011-0.001,0.021,0,0.031l-0.031,0.373l-0.016-0.015c-0.116,0.947-0.234,1.646-0.357,2.1
	c-0.291,1.059-0.468,1.868-0.529,2.429v1.025l-0.094-0.03l-0.03-0.248c-0.031,0.278-0.067,0.679-0.109,1.196
	c-0.011-0.249-0.021-0.488-0.031-0.715c-0.022,0.077-0.043,0.155-0.062,0.233c0.021,0.215,0.048,0.433,0.078,0.653
	c-0.01,0.117-0.021,0.243-0.031,0.374l-0.094-0.094c0-0.219-0.01-0.426-0.031-0.623c-0.022,0.095-0.043,0.188-0.062,0.281v2.255
	c0.147,0.953,0.429,2.307,0.841,4.063c0.521,2.238,1.04,3.737,1.556,4.496c0.146,0.809,0.218,1.238,0.218,1.292
	c0,0.871-0.591,1.588-1.773,2.148c-1.038,0.497-2.189,0.745-3.455,0.745c-0.162,0-0.317-0.01-0.467-0.03
	c-1.663,0.471-2.856,0.782-3.579,0.934c-2.283,0.478-4.482,0.717-6.599,0.717c-0.269,0-0.467-0.094-0.591-0.28
	c-0.042-0.062-0.094-0.218-0.155-0.467c-0.457,0.187-0.872,0.187-1.245,0c-0.312-0.146-0.499-0.343-0.561-0.593l-1.65,0.126
	c-0.228-0.167-0.685-0.457-1.369-0.873c-0.229-0.124-0.343-0.352-0.343-0.685c0-0.394,0.073-0.663,0.219-0.808
	c0.29-0.311,0.913-0.467,1.867-0.467c0.498,0,1.193-0.104,2.085-0.312c0.728-0.166,1.339-0.343,1.837-0.529
	c0.353-0.112,0.673-0.304,0.964-0.575c-0.618,0.139-1.479,0.268-2.582,0.389c-1.142,0.29-2.47,0.56-3.984,0.808
	c-2.075,0.333-3.859,0.499-5.354,0.499c-0.705,0-1.338-0.3-1.898-0.903c-0.478-0.497-0.716-0.911-0.716-1.244
	c0-0.187,0.104-0.426,0.312-0.717c0.332-0.435,0.789-0.653,1.37-0.653c0.559,0,0.923,0.062,1.089,0.187
	c0.146,0.126,0.394,0.187,0.746,0.187c0.249,0,1.287-0.611,3.112-1.835c0.728-0.482,1.37-0.917,1.931-1.308
	c-0.076,0.012-0.148,0.022-0.219,0.03l0.094-0.092l1.042-0.607c0.357-0.273,0.664-0.517,0.919-0.731
	c-0.021-0.039-0.031-0.091-0.031-0.155c0.831-0.684,1.465-1.202,1.899-1.557c0.464-0.462,0.765-0.815,0.901-1.058
	c0.195-0.35,0.299-1.062,0.312-2.133c-0.006,0.019-0.01,0.041-0.015,0.062c0.004-0.053,0.009-0.099,0.015-0.141
	c0-0.053,0-0.105,0-0.154c-0.002-0.154-0.009-0.306-0.015-0.452c-0.023,0.077-0.049,0.155-0.078,0.234v0.622h0.046
	c-0.031,0.175-0.046,0.331-0.046,0.467h-0.031c-0.083-0.914-0.073-1.909,0.031-2.987h-0.031c-0.021,0.021-0.073,0.112-0.156,0.279
	c-0.062,0.125-0.124,0.198-0.187,0.219v-0.687c0-0.456,0.062-1.141,0.187-2.053c-0.062,0.186-0.124,0.311-0.187,0.374v-0.22
	c0-0.29,0.083-1.025,0.249-2.209c0.047-0.325,0.089-0.611,0.125-0.855c0-0.025,0-0.051,0-0.078c0-0.139,0-0.29,0-0.451l-0.031,0.108
	l-0.188-0.094l0.265-1.416c0.011-0.177,0.021-0.365,0.032-0.561l-0.203,0.763h-0.062c-0.021-0.021-0.031-0.061-0.031-0.124
	c0-0.81,0.146-1.961,0.437-3.455c0.021-0.107,0.041-0.211,0.062-0.311c0.042-0.779,0.062-1.401,0.062-1.868l-0.249-4.947
	c0-0.685,0.063-1.588,0.187-2.709c0.124-0.995,0.188-1.502,0.188-1.524c-0.581-0.954-0.872-1.505-0.872-1.648
	c-0.016-0.229-0.005-0.416,0.031-0.561c-0.36-0.459-0.619-0.885-0.778-1.277c-0.234-0.526-0.453-1.071-0.653-1.633
	c-0.017,0.125-0.037,0.234-0.062,0.326c-0.062,0-0.095-0.031-0.095-0.094l-0.155-1.136c-0.086-0.26-0.169-0.524-0.248-0.793
	l-0.094-0.032c-0.003-0.115-0.009-0.225-0.016-0.326c-0.115-0.435-0.224-0.876-0.326-1.322c-0.089-0.376-0.172-0.734-0.25-1.073
	c-0.065,0.01-0.137,0.015-0.218,0.015c0-0.623-0.135-1.391-0.405-2.304c-0.02-0.076-0.041-0.147-0.062-0.218l-0.094-0.062v-0.311
	c-0.146-0.616-0.218-1.084-0.218-1.401c0.022-0.134,0.043-0.263,0.062-0.389c0.009,0.011,0.02,0.016,0.031,0.016
	c0.023-0.064,0.056-0.115,0.094-0.154l-0.094-0.965l-0.156,0.186h-0.062c-0.013,0.012-0.023,0.021-0.031,0.032l0.016-0.032h-0.016
	v-0.155c0-0.166,0.041-0.477,0.125-0.934c0.004-0.022,0.01-0.042,0.015-0.062c0.003-0.029,0.008-0.062,0.016-0.094
	c-0.019,0.021-0.039,0.032-0.062,0.032v-0.903c-0.021,0.043-0.062,0.167-0.124,0.374c-0.033,0.115-0.074,0.193-0.124,0.234
	c-0.02-0.024-0.04-0.045-0.063-0.063v-0.015c0.054-0.243,0.105-0.551,0.156-0.919c0.006-0.029,0.011-0.06,0.016-0.094
	c0.01-0.092,0.02-0.185,0.031-0.28c-0.008-0.137-0.002-0.267,0.016-0.389c0.014-0.081,0.034-0.149,0.062-0.202
	c0.012-0.086,0.021-0.175,0.031-0.265c-0.062,0.187-0.093,0.311-0.093,0.374h-0.031c-0.021-0.021-0.042-0.032-0.062-0.032v-0.124
	c0-0.291,0.062-0.705,0.187-1.245c0.025-0.104,0.046-0.203,0.062-0.295c0.016-1.28,0.041-2.396,0.078-3.347
	c-0.039-0.316-0.075-0.657-0.108-1.027c-0.084-2.51-0.125-3.807-0.125-3.891c0-0.5,0.005-0.978,0.016-1.431
	c-0.007-0.009-0.013-0.019-0.016-0.031c-0.145-0.541-0.248-1.028-0.312-1.463c-0.048-0.092-0.089-0.186-0.124-0.28
	c-0.027-0.08-0.054-0.158-0.078-0.232c-0.104-0.124-0.213-0.254-0.327-0.39v0.094c-0.031-0.036-0.062-0.076-0.093-0.124v-0.017
	c-0.011-0.016-0.021-0.031-0.031-0.046v0.154h-0.062c0-0.097-0.005-0.2-0.016-0.311c-0.167-0.206-0.345-0.418-0.529-0.639
	l0.047,0.234h-0.062c-0.087-0.122-0.154-0.276-0.203-0.467c-0.068-0.08-0.136-0.158-0.202-0.234v0.016H90.46
	c-0.027-0.075-0.053-0.147-0.077-0.218c-0.156-0.186-0.307-0.367-0.451-0.544v0.326h-0.094c0-0.103-0.021-0.279-0.062-0.529
	c-0.16-0.194-0.312-0.387-0.451-0.575c0.016,0.111,0.025,0.215,0.03,0.312c-0.058-0.102-0.13-0.19-0.218-0.265
	c-0.02-0.114-0.046-0.239-0.078-0.374c-0.13-0.164-0.254-0.325-0.373-0.482v0.047h-0.094c0-0.056,0-0.112,0-0.171
	c-0.7-0.913-1.188-1.645-1.463-2.195c-0.212-0.416-0.42-0.878-0.622-1.385c-0.186-0.181-0.362-0.403-0.529-0.669
	c0.085,0.034,0.22,0.143,0.404,0.327c-0.013-0.021-0.022-0.041-0.03-0.062c-0.075-0.073-0.157-0.161-0.25-0.265
	c0.046,0.007,0.098,0.018,0.156,0.032c-0.06-0.141-0.117-0.286-0.171-0.436c-0.009-0.11-0.015-0.226-0.016-0.344
	c-0.034-0.055-0.065-0.106-0.094-0.155c-0.14-0.234-0.224-0.391-0.249-0.467c0.062,0.042,0.166,0.177,0.312,0.405l0.016,0.015
	c-0.015-0.222-0.025-0.455-0.031-0.7c-0.156-0.209-0.233-0.333-0.233-0.373l0.031-0.125h0.062c-0.01,0.058,0.032,0.156,0.124,0.296
	c0.001-0.067,0.001-0.136,0-0.202c-0.024-0.039-0.051-0.08-0.077-0.124c-0.024-0.019-0.039-0.039-0.047-0.063l0.124-0.046
	c0-0.099,0-0.197,0-0.296c0-0.015,0-0.029,0-0.047c-0.103,0.022-0.228,0.027-0.374,0.016c0.142-0.038,0.267-0.075,0.374-0.108
	c0-0.122,0-0.241,0-0.357c-0.066,0.054-0.129,0.095-0.187,0.123v-0.03c0.067-0.067,0.129-0.129,0.187-0.187c0-0.089,0-0.177,0-0.265
	c-0.068,0.077-0.131,0.134-0.187,0.171c0.067-0.098,0.129-0.19,0.187-0.28c0.007-0.168,0.012-0.334,0.016-0.498
	c-0.092,0.156-0.189,0.322-0.296,0.498c0.109-0.21,0.208-0.402,0.296-0.575c0.009-0.294,0.02-0.58,0.031-0.856
	c-0.165,0.338-0.306,0.598-0.421,0.778l0.421-0.902c0.03-0.402,0.062-0.78,0.094-1.136c-0.048,0.087-0.094,0.176-0.141,0.264
	l-0.031-0.015c-0.061,0.153-0.123,0.313-0.187,0.482l-0.062-0.062c0.066-0.167,0.128-0.322,0.188-0.467
	C86.028,98.399,86.122,98.15,86.196,97.942z M85.933,102.549l0.077,0.093c0-0.027,0-0.054,0-0.078
	C85.981,102.559,85.955,102.554,85.933,102.549z M111.827,45.545c0.013,0.034,0.028,0.071,0.047,0.11v-0.032L111.827,45.545z
	 M111.516,45.453c0.022,0.023,0.044,0.044,0.062,0.062l-0.031-0.078L111.516,45.453z M111.889,45.919
	c0.007,0.032,0.013,0.063,0.016,0.094l0.062,0.171l-0.031-0.28C111.921,45.91,111.906,45.915,111.889,45.919z M111.578,46.309
	c-0.026,0.004-0.052,0.009-0.078,0.015c0.004,0.011,0.009,0.021,0.016,0.031c0.023-0.01,0.049-0.021,0.078-0.031L111.578,46.309z
	 M111.766,46.573c-0.014,0.025-0.03,0.051-0.048,0.078h0.031l0.03-0.078H111.766z M112.371,46.588
	c0.019,0.019,0.039,0.039,0.063,0.062c0.02,0,0.04,0,0.062,0c0,0.021,0,0.042,0,0.062c0.046,0.046,0.098,0.098,0.155,0.156
	c0.023,0.002,0.043,0.002,0.062,0c-0.041-0.062-0.093-0.176-0.156-0.342c-0.055-0.083-0.133-0.135-0.233-0.155h-0.03
	C112.32,46.439,112.347,46.512,112.371,46.588z M112.932,46.869c-0.076-0.087-0.154-0.165-0.233-0.233
	c0.056,0.085,0.093,0.163,0.109,0.233C112.847,46.867,112.889,46.867,112.932,46.869z M112.746,47.382
	c-0.024,0.072,0.033,0.155,0.17,0.249c0.011,0.003,0.021,0.009,0.031,0.016c-0.033-0.051-0.07-0.104-0.109-0.156
	C112.81,47.452,112.779,47.416,112.746,47.382z M112.31,47.258v0.031l0.015-0.016L112.31,47.258z M112.107,47.071h-0.031
	l-0.016,0.047h0.062v-0.032L112.107,47.071z M113.212,47.693c0.055,0.049,0.117,0.096,0.187,0.14c0.067,0.04,0.13,0.087,0.187,0.14
	c-0.011-0.028-0.021-0.054-0.03-0.078c-0.028-0.067-0.055-0.129-0.078-0.187C113.384,47.701,113.296,47.696,113.212,47.693z
	 M113.041,46.993c-0.08,0.005-0.157,0.011-0.233,0.016c0.021,0.233,0.13,0.441,0.327,0.623c0.106-0.005,0.205-0.01,0.295-0.016
	C113.312,47.38,113.182,47.173,113.041,46.993z M113.212,48.113c0.06,0.096,0.111,0.195,0.156,0.296
	c0.009,0.005,0.02,0.01,0.03,0.016c-0.058-0.134-0.13-0.273-0.218-0.42C113.189,48.04,113.2,48.076,113.212,48.113z M113.273,47.911
	c0.266,0.411,0.411,0.779,0.437,1.105c0.043,0,0.084,0,0.125,0c0-0.145-0.053-0.332-0.156-0.56
	C113.574,48.195,113.439,48.013,113.273,47.911z M113.835,49.171h-0.017c0.006,0.012,0.01,0.022,0.017,0.032V49.171z
	 M113.414,49.436c-0.005,0.03-0.011,0.061-0.016,0.094c0.026,0.087,0.047,0.165,0.062,0.233c0.027-0.084,0.049-0.172,0.062-0.265
	C113.49,49.477,113.454,49.456,113.414,49.436z M112.76,48.191c0.017,0.006,0.032,0.012,0.048,0.016l-0.016-0.062h-0.016
	C112.769,48.162,112.765,48.177,112.76,48.191z M112.87,48.502c-0.011-0.053-0.021-0.11-0.032-0.171c-0.022,0-0.043,0-0.062,0
	c0.009,0.042,0.028,0.083,0.062,0.125C112.851,48.476,112.861,48.492,112.87,48.502z M112.746,48.627
	c-0.016,0.061-0.037,0.119-0.063,0.171c0.019,0.052,0.038,0.099,0.063,0.141c0.048,0.003,0.095,0.008,0.139,0.016
	c-0.036-0.105-0.079-0.204-0.125-0.296C112.759,48.646,112.753,48.636,112.746,48.627z M104.403,41.422
	c0.086,0.103,0.159,0.165,0.219,0.187c0.015-0.007,0.03-0.012,0.047-0.016l0.015-0.047l-0.093-0.124H104.403z M104.979,41.718
	l0.265,0.016c-0.042-0.018-0.088-0.028-0.14-0.031c-0.013,0-0.028,0-0.047,0C105.031,41.704,105.006,41.709,104.979,41.718z
	 M104.403,41.546c-0.351-0.136-0.609-0.136-0.777,0c0.044,0.026,0.091,0.058,0.14,0.094c-0.074,0.002-0.147,0.008-0.218,0.016
	c-0.035,0.076-0.062,0.154-0.077,0.233l0.357-0.093c-0.007-0.054-0.013-0.096-0.016-0.125c0.038,0.028,0.08,0.059,0.125,0.093
	l0.528-0.156L104.403,41.546z M104.871,41.546l0.373-0.031c0-0.498-0.436-0.591-1.307-0.28l0.28,0.031
	c0.27-0.083,0.436-0.062,0.497,0.062C104.777,41.474,104.83,41.546,104.871,41.546z M102.07,41.453
	c-0.167,0.069-0.275,0.152-0.327,0.249c0.45-0.107,0.693-0.18,0.731-0.218c0.015-0.007,0.03-0.018,0.046-0.031
	C102.389,41.388,102.239,41.388,102.07,41.453z M101.479,41.609l-0.156-0.093c-0.188-0.019-0.39,0.054-0.606,0.218
	c0.055,0,0.112,0,0.172,0c0.222,0,0.394-0.016,0.513-0.047C101.443,41.644,101.47,41.618,101.479,41.609z M106.038,41.78
	c-0.065,0.065-0.138,0.132-0.218,0.203c0.017,0.012,0.031,0.022,0.046,0.031c0.074-0.001,0.147-0.006,0.219-0.016v-0.109
	C106.085,41.847,106.069,41.81,106.038,41.78z M105.524,41.796c0.069,0.06,0.126,0.107,0.172,0.14
	c0.024,0.008,0.05,0.019,0.078,0.031c0.082-0.08,0.16-0.152,0.233-0.218c-0.104-0.087-0.328-0.124-0.67-0.109
	C105.399,41.681,105.462,41.733,105.524,41.796z M105.213,42.044c-0.021,0.008-0.041,0.019-0.062,0.031h0.062V42.044z
	 M105.431,42.262c0-0.041-0.031-0.062-0.093-0.062c0,0.056-0.011,0.097-0.031,0.125L105.431,42.262z M105.244,42.262
	c-0.027,0.005-0.054,0.011-0.078,0.016c-0.002,0.015-0.002,0.032,0,0.047h0.032C105.221,42.304,105.236,42.283,105.244,42.262z
	 M106.63,42.091c0.021-0.007,0.042-0.013,0.062-0.016c-0.058-0.012-0.119-0.017-0.187-0.016
	C106.548,42.07,106.591,42.081,106.63,42.091z M106.63,42.449c-0.04,0.025-0.076,0.051-0.108,0.078
	c0.039-0.029,0.081-0.055,0.123-0.078H106.63z M106.583,42.605c0.041,0.008,0.083,0.019,0.124,0.031
	c-0.006-0.047-0.017-0.079-0.03-0.093c-0.021,0-0.032,0.01-0.032,0.031C106.624,42.582,106.603,42.593,106.583,42.605z
	 M106.255,42.511c0.027-0.029,0.054-0.056,0.078-0.078c-0.059-0.015-0.131,0-0.217,0.047
	C106.161,42.491,106.207,42.501,106.255,42.511z M107.002,42.185l-0.015-0.015v0.015H107.002z M107.019,42.262
	c-0.001-0.025-0.007-0.046-0.017-0.062h-0.015c-0.023,0.014-0.044,0.03-0.062,0.047C106.956,42.251,106.986,42.256,107.019,42.262z
	 M107.377,42.325c0.176,0.065,0.347,0.137,0.513,0.218c0.042-0.072,0.062-0.134,0.062-0.188c0-0.083-0.021-0.124-0.062-0.124
	c-0.021-0.021-0.03-0.042-0.03-0.062c-0.369-0.046-0.603-0.005-0.701,0.124C107.243,42.303,107.315,42.313,107.377,42.325z
	 M107.144,42.714c0.002,0.016,0.008,0.032,0.015,0.047c0.149,0.05,0.295,0.103,0.436,0.156c0.117-0.123,0.206-0.231,0.266-0.328
	c-0.116-0.024-0.391-0.029-0.825-0.015c-0.03,0.031-0.062,0.072-0.094,0.125c0.067,0.02,0.135,0.04,0.203,0.062
	C107.142,42.744,107.142,42.729,107.144,42.714z M106.832,42.574c0,0.013-0.005,0.044-0.016,0.093h0.03
	c0.022-0.034,0.043-0.065,0.063-0.093C106.883,42.573,106.857,42.573,106.832,42.574z M108.123,42.667l-0.016-0.124
	c-0.024,0.024-0.05,0.05-0.078,0.078C108.059,42.635,108.09,42.65,108.123,42.667z M107.921,42.745
	c-0.057,0.076-0.108,0.154-0.155,0.234l0.249-0.031v-0.125C107.977,42.803,107.944,42.777,107.921,42.745z M108.14,42.262
	c0.042,0,0.083-0.005,0.123-0.015c-0.02,0.054-0.03,0.122-0.03,0.202c0,0.086,0.016,0.19,0.046,0.312
	c0.074,0.038,0.146,0.079,0.219,0.124c0.137-0.042,0.329-0.126,0.575-0.249c-0.021-0.27-0.166-0.446-0.436-0.529
	c-0.073-0.028-0.135-0.038-0.187-0.031c0.021-0.031,0.04-0.052,0.062-0.062c-0.165-0.062-0.301-0.114-0.404-0.156
	c-0.021,0-0.135,0.042-0.342,0.125C107.869,42.169,107.993,42.262,108.14,42.262z M109.726,42.823
	c-0.145-0.415-0.362-0.653-0.653-0.716c0.083,0.208,0.146,0.353,0.187,0.436C109.363,42.708,109.519,42.802,109.726,42.823z
	 M109.322,42.823c0.009,0.065,0.013,0.127,0.015,0.187c0.076,0.025,0.144,0.057,0.202,0.093c0.088,0.048,0.155,0.106,0.203,0.171
	c0.023-0.026,0.049-0.052,0.077-0.078c-0.208-0.208-0.363-0.332-0.467-0.374H109.322z M109.15,43.056
	c-0.081,0.019-0.174,0.055-0.28,0.109c0.097,0.073,0.19,0.151,0.28,0.233c0.01-0.072,0.016-0.15,0.016-0.233L109.15,43.056z
	 M109.445,43.741c-0.039,0.035-0.075,0.071-0.108,0.109c0.03,0.023,0.062,0.049,0.094,0.078c0.041-0.029,0.083-0.055,0.125-0.078
	C109.522,43.813,109.485,43.777,109.445,43.741z M109.602,43.803c0.014-0.051,0.025-0.103,0.032-0.156
	c-0.05,0.02-0.098,0.04-0.142,0.062C109.528,43.742,109.564,43.773,109.602,43.803z M109.337,43.57
	c0.049-0.012,0.142-0.074,0.28-0.187c-0.034-0.193-0.127-0.302-0.28-0.327c0.02,0.187,0.014,0.353-0.015,0.498L109.337,43.57z
	 M109.134,43.539c-0.156-0.083-0.312-0.125-0.466-0.125l0.016,0.016c0.138,0.079,0.273,0.162,0.404,0.249
	C109.104,43.633,109.12,43.586,109.134,43.539z M108.637,42.979c0.085-0.021,0.168-0.031,0.25-0.031
	c0.094,0,0.182,0.005,0.264,0.015l-0.017-0.14c-0.197,0.036-0.368,0.082-0.513,0.14L108.637,42.979z M109.976,43.71
	c-0.002,0.135-0.007,0.26-0.017,0.374c0.055-0.016,0.112-0.032,0.172-0.047l-0.062-0.374l-0.016-0.016
	C110.028,43.667,110.002,43.688,109.976,43.71z M110.192,43.694c0,0.088,0.006,0.197,0.017,0.327
	c0.081-0.017,0.158-0.027,0.233-0.032c0.013-0.018,0.023-0.033,0.03-0.046h0.094c-0.003,0.011-0.009,0.021-0.016,0.031
	c0.038,0,0.074,0,0.109,0c-0.136-0.184-0.291-0.287-0.468-0.311V43.694z M110.1,44.301c-0.041,0.006-0.082,0.011-0.124,0.016v0.078
	c0.051-0.025,0.098-0.051,0.14-0.078L110.1,44.301z M110.271,44.41c0.057,0.05,0.108,0.098,0.156,0.14l0.514,0.046v-0.062
	c-0.014-0.037-0.023-0.073-0.032-0.109c-0.207-0.07-0.409-0.111-0.606-0.124c-0.012,0.016-0.028,0.032-0.046,0.046
	C110.262,44.369,110.267,44.389,110.271,44.41z M110.286,44.535l0.094,0.016c-0.031-0.038-0.068-0.074-0.109-0.109
	C110.276,44.473,110.282,44.505,110.286,44.535z M110.551,44.706c-0.091-0.011-0.189-0.016-0.295-0.016
	c0.043,0.049,0.085,0.101,0.124,0.156c0.075-0.028,0.152-0.054,0.233-0.078C110.596,44.749,110.574,44.727,110.551,44.706z
	 M110.924,44.814c-0.037,0.026-0.079,0.052-0.124,0.078c0.034,0.026,0.066,0.052,0.094,0.078c0.022-0.045,0.038-0.097,0.047-0.156
	H110.924z M110.738,44.736c-0.042-0.009-0.084-0.019-0.125-0.031c0.016,0.018,0.031,0.033,0.047,0.047
	C110.686,44.749,110.712,44.743,110.738,44.736z M110.645,44.97h0.108c-0.007-0.013-0.011-0.028-0.015-0.047
	C110.708,44.939,110.678,44.955,110.645,44.97z M110.738,45.095c-0.042-0.005-0.089,0-0.141,0.016c0.01,0.015,0.02,0.03,0.03,0.046
	C110.678,45.139,110.714,45.118,110.738,45.095z M111.282,45.063c0.013,0.096,0.033,0.18,0.062,0.249l0.016,0.016
	c0.007-0.062,0.011-0.119,0.015-0.171l-0.062-0.093H111.282z M109.742,43.866c-0.003,0.022-0.009,0.042-0.017,0.062l0.017,0.016
	c0.002-0.029,0.009-0.055,0.016-0.078H109.742z M99.082,42.636c0.08,0,0.163-0.01,0.249-0.031c-0.009,0.006-0.02,0.017-0.031,0.031
	c-0.146,0.166-0.228,0.291-0.249,0.374h0.031c0.166-0.228,0.28-0.374,0.343-0.436c0.027-0.014,0.054-0.03,0.077-0.046
	c0.046-0.062,0.092-0.119,0.14-0.172c-0.025,0-0.056,0-0.093,0c-0.146-0.062-0.26-0.041-0.343,0.062
	C99.185,42.459,99.145,42.532,99.082,42.636z M98.988,42.449c-0.062,0.021-0.197,0.156-0.404,0.405
	c0.124-0.021,0.218-0.083,0.28-0.187C98.926,42.543,98.968,42.47,98.988,42.449z M99.969,41.998
	c-0.187,0.021-0.327,0.078-0.42,0.172l0.093,0.186C99.75,42.222,99.859,42.103,99.969,41.998z M100.358,42.543
	c-0.031-0.006-0.062-0.011-0.095-0.016c0.032,0.029,0.052,0.061,0.063,0.093C100.335,42.597,100.346,42.571,100.358,42.543z
	 M100.017,42.636l-0.032,0.281c0.083-0.032,0.166-0.062,0.249-0.094c-0.021-0.079-0.031-0.141-0.031-0.187H100.017z M99.627,43.056
	c0.052-0.022,0.104-0.042,0.155-0.062c0.004-0.028,0.009-0.055,0.015-0.078v-0.062c-0.043,0.02-0.085,0.05-0.124,0.093
	C99.658,42.98,99.643,43.017,99.627,43.056z M98.957,43.009c-0.041,0.042-0.071,0.104-0.093,0.187c0,0.062,0.01,0.104,0.031,0.125
	C98.938,43.258,98.957,43.155,98.957,43.009z M99.393,43.087l-0.062,0.093h0.016l0.124-0.171
	C99.446,43.03,99.42,43.056,99.393,43.087z M100.497,42.262l0.142-0.249h-0.156v0.249H100.497z M100.575,42.262h0.219
	c0.104-0.152,0.155-0.245,0.155-0.28c-0.146-0.021-0.238,0-0.28,0.062C100.633,42.101,100.601,42.173,100.575,42.262z
	 M101.043,41.982v0.109c0.029-0.033,0.06-0.07,0.093-0.109H101.043z M101.011,42.543c-0.002,0.013-0.007,0.028-0.015,0.046
	c0.113-0.034,0.228-0.07,0.343-0.108c0.024-0.09,0.051-0.194,0.077-0.311c-0.132,0.052-0.268,0.167-0.405,0.342V42.543z
	 M100.452,42.761c0.028-0.013,0.059-0.023,0.092-0.032l0.095-0.14C100.562,42.622,100.499,42.679,100.452,42.761z M101.728,42.014
	c0.277-0.009,0.547-0.165,0.81-0.467c-0.078,0.02-0.353,0.149-0.825,0.389L101.728,42.014z M101.649,42.402h0.016v-0.015
	L101.649,42.402z M102.287,42.262c0.027-0.034,0.049-0.065,0.062-0.093c-0.071,0.036-0.138,0.078-0.202,0.124
	C102.194,42.283,102.242,42.272,102.287,42.262z M102.35,41.982c-0.124-0.042-0.238,0.01-0.342,0.156
	c-0.055,0.081-0.091,0.154-0.109,0.217c0.179-0.131,0.33-0.251,0.451-0.358V41.982z M102.396,42.138
	c-0.015,0.033-0.029,0.069-0.047,0.109c0.099-0.021,0.197-0.042,0.296-0.062c0.064-0.035,0.111-0.082,0.14-0.14
	c0.021-0.125,0.052-0.207,0.094-0.249c-0.108,0.052-0.171,0.12-0.187,0.202C102.589,42.04,102.49,42.086,102.396,42.138z
	 M103.004,42.107l0.187-0.374c-0.187-0.021-0.281,0.104-0.281,0.374H103.004z M104.498,42.076l-0.188,0.094h0.28L104.498,42.076z
	 M105.042,42.044c-0.009-0.028-0.02-0.055-0.031-0.078c0.022,0.02,0.042,0.04,0.062,0.062c0.047-0.025,0.094-0.046,0.14-0.062
	v-0.078l-0.373-0.062v0.249h0.155C105.01,42.065,105.024,42.055,105.042,42.044z M98.786,43.43c0.003-0.055,0.008-0.102,0.016-0.14
	c-0.032,0.032-0.063,0.094-0.094,0.187C98.733,43.458,98.759,43.443,98.786,43.43z M98.04,43.85
	c0.089-0.067,0.183-0.129,0.279-0.187c0.053-0.184,0.078-0.308,0.078-0.374c-0.124,0.062-0.249,0.218-0.374,0.467
	C98.023,43.789,98.029,43.82,98.04,43.85z M97.774,43.694c-0.241,0.243-0.408,0.513-0.498,0.81c0.088-0.093,0.176-0.181,0.265-0.264
	c0.063-0.16,0.142-0.321,0.233-0.483V43.694z M97.401,44.037l0.187-0.28l-0.218,0.28H97.401z M112.963,51.102
	c0.024-0.023,0.051-0.044,0.078-0.062c-0.02-0.075-0.034-0.137-0.048-0.187c-0.013,0.066-0.028,0.139-0.046,0.218L112.963,51.102z
	 M113.679,50.479h0.062c0.007-0.018,0.013-0.034,0.016-0.047c-0.022-0.004-0.042-0.009-0.062-0.016
	C113.688,50.439,113.683,50.46,113.679,50.479z M113.492,50.386l-0.031,0.062v0.031C113.473,50.45,113.482,50.419,113.492,50.386z
	 M113.726,50.152c0.018,0.001,0.034,0.001,0.047,0c-0.016-0.071-0.025-0.133-0.031-0.187
	C113.741,50.031,113.735,50.094,113.726,50.152z M114.177,50.572c0.083,0.402,0.125,0.64,0.125,0.716
	c0,0.014-0.011,0.045-0.032,0.093c0.011,0.013,0.021,0.024,0.032,0.032c0-0.062,0.03-0.094,0.093-0.094v-0.56
	c0-0.208-0.021-0.332-0.062-0.374c-0.032-0.04-0.084-0.07-0.155-0.093c0,0.031,0,0.062,0,0.093
	C114.177,50.446,114.177,50.509,114.177,50.572z M113.928,50.666l-0.389,0.715c0.03,0.116,0.057,0.23,0.078,0.343
	c0.157-0.254,0.272-0.524,0.342-0.81C113.954,50.832,113.943,50.748,113.928,50.666z M114.208,51.257
	c-0.041-0.136-0.067-0.255-0.077-0.358c-0.063,0.304-0.183,0.594-0.358,0.871c0.088,0.008,0.187,0.023,0.296,0.047
	c0.065-0.153,0.107-0.293,0.124-0.42c-0.007-0.048-0.022-0.099-0.047-0.156c0.021,0.028,0.041,0.054,0.062,0.078
	C114.208,51.298,114.208,51.277,114.208,51.257z M113.617,50.666c0.023,0.018,0.05,0.039,0.077,0.062
	c0.008-0.069,0.023-0.121,0.047-0.156l-0.094,0.031C113.636,50.623,113.625,50.644,113.617,50.666z M113.602,50.712
	c-0.038,0.071-0.08,0.138-0.125,0.202c-0.003,0.069-0.009,0.152-0.016,0.249l0.016,0.031c0.116-0.096,0.184-0.2,0.202-0.311
	c0-0.055,0.005-0.102,0.016-0.14C113.662,50.73,113.63,50.719,113.602,50.712z M113.025,51.351c0.018-0.04,0.033-0.081,0.046-0.125
	c-0.02,0.011-0.04,0.021-0.062,0.032C113.015,51.287,113.02,51.317,113.025,51.351z M113.336,51.615
	c-0.05,0.093-0.091,0.176-0.124,0.25l0.124-0.047V51.615z M113.181,51.973v0.094c0.027-0.005,0.053-0.01,0.078-0.016
	c0.01-0.027,0.015-0.053,0.015-0.078H113.181z M113.539,51.724c-0.021-0.067-0.047-0.139-0.078-0.218
	c0,0.075,0.006,0.148,0.016,0.218C113.495,51.726,113.517,51.726,113.539,51.724z M113.602,52.035v-0.031
	c-0.004,0.011-0.009,0.021-0.017,0.031H113.602z M113.647,52.035c0.105,0.018,0.198,0.048,0.28,0.093
	c0.034-0.066,0.065-0.128,0.093-0.187c0-0.083-0.02-0.125-0.062-0.125h-0.031c-0.064-0.006-0.127-0.006-0.187,0
	c-0.031,0.044-0.062,0.091-0.094,0.14C113.647,51.985,113.647,52.011,113.647,52.035z M113.523,51.849h-0.017v0.016L113.523,51.849z
	 M113.647,52.377h-0.03c-0.012,0.053-0.026,0.11-0.048,0.171l0.016,0.016l0.156-0.125L113.647,52.377z M113.555,52.471
	c0.012-0.031,0.022-0.062,0.03-0.093l-0.03-0.015V52.471z M113.555,52.284V52.3l0.047,0.015v-0.031
	C113.589,52.282,113.572,52.282,113.555,52.284z M113.632,52.315l0.171,0.031c0.011-0.018,0.021-0.033,0.032-0.046
	c-0.062-0.014-0.129-0.019-0.203-0.016V52.315z M113.243,52.44h-0.031c0.01,0.041,0.021,0.082,0.031,0.125
	c0.009-0.007,0.02-0.012,0.03-0.016v-0.078L113.243,52.44z M113.118,52.502l0.031,0.094c0-0.022,0-0.043,0-0.062
	c-0.007-0.015-0.013-0.03-0.015-0.047L113.118,52.502z M114.099,52.253l-0.016-0.187c-0.017,0.033-0.048,0.065-0.093,0.093
	C114.029,52.19,114.065,52.221,114.099,52.253z M113.896,52.409c0,0.067,0.041,0.17,0.124,0.311c0.042,0.01,0.084,0.015,0.125,0.016
	l0.031-0.265c-0.014-0.017-0.028-0.032-0.046-0.046c-0.014,0.088-0.03,0.182-0.048,0.28l0.031-0.295
	c-0.055-0.044-0.122-0.076-0.202-0.094C113.902,52.344,113.896,52.375,113.896,52.409z M114.192,52.362l0.077-0.638
	c-0.031,0.148-0.073,0.346-0.124,0.591C114.161,52.333,114.176,52.348,114.192,52.362z M114.068,52.798
	c-0.009,0.073-0.02,0.15-0.032,0.233c0.021,0.029,0.036,0.055,0.047,0.078l0.048-0.28c-0.023-0.018-0.049-0.033-0.078-0.047
	L114.068,52.798z M113.928,52.907c-0.061-0.087-0.145-0.155-0.249-0.203c-0.046,0.097-0.093,0.196-0.14,0.296
	c0.053,0,0.11,0.011,0.171,0.031c-0.035,0-0.066,0-0.093,0c0.008,0.012,0.019,0.022,0.03,0.031c0.098,0.048,0.18,0.085,0.249,0.109
	c-0.005-0.044-0.02-0.075-0.046-0.094l0.077,0.016V53C113.928,52.97,113.928,52.938,113.928,52.907z M113.835,52.533
	c-0.035,0.015-0.071,0.031-0.109,0.047c-0.004,0.01-0.01,0.021-0.016,0.031l0.031,0.016h-0.031c0.084,0.097,0.157,0.181,0.218,0.249
	C113.914,52.745,113.884,52.63,113.835,52.533z M114.254,52.642c-0.004,0.037-0.01,0.073-0.015,0.109h0.03V52.72
	C114.267,52.694,114.261,52.668,114.254,52.642z M113.088,52.751h0.016v-0.015L113.088,52.751z M113.273,52.72v-0.062h-0.015
	c-0.002,0.022-0.002,0.042,0,0.062H113.273z M113.368,52.72c0.013-0.023,0.023-0.045,0.03-0.062h-0.03
	C113.368,52.677,113.368,52.698,113.368,52.72z M113.149,52.844l-0.015-0.031l-0.047-0.032V53c0.016-0.003,0.03-0.008,0.047-0.016
	C113.141,52.94,113.146,52.893,113.149,52.844z M113.165,52.969h0.016c-0.003-0.015-0.009-0.03-0.016-0.047
	C113.167,52.94,113.167,52.955,113.165,52.969z M113.477,53.109c0.038,0.079,0.075,0.146,0.108,0.202l0.062-0.124l-0.155-0.109
	L113.477,53.109z M113.71,53.467c0.04-0.027,0.071-0.048,0.093-0.062c-0.055,0-0.101,0.01-0.14,0.031
	C113.683,53.457,113.698,53.467,113.71,53.467z M113.445,53.171c-0.038,0.074-0.075,0.146-0.109,0.217l0.032,0.14
	c0,0.04,0,0.091,0,0.156l0.155-0.249C113.486,53.332,113.46,53.244,113.445,53.171z M112.993,53.218
	c0.005,0.042,0.011,0.089,0.017,0.14c0.025-0.055,0.051-0.112,0.078-0.171C113.061,53.187,113.03,53.197,112.993,53.218z
	 M113.29,53.171l0.016,0.093c0.005-0.041,0.009-0.077,0.016-0.109C113.311,53.158,113.3,53.164,113.29,53.171z M113.165,53.374
	c-0.02,0.054-0.045,0.11-0.077,0.171c0.042,0.036,0.094,0.066,0.155,0.093c0-0.035,0-0.071,0-0.109c0-0.094-0.006-0.182-0.016-0.264
	C113.209,53.3,113.188,53.336,113.165,53.374z M113.181,53.934h0.016l-0.016-0.015V53.934z M113.555,53.56v-0.015
	c-0.034,0.035-0.064,0.082-0.094,0.14h0.031C113.533,53.636,113.555,53.595,113.555,53.56z M113.461,53.934l0.141-0.155
	l-0.125,0.062c-0.01,0.02-0.015,0.046-0.016,0.078V53.934z M113.741,54.027l0.171-0.187c0.009-0.087,0.013-0.165,0.016-0.233
	l-0.062,0.031c-0.043,0.079-0.091,0.209-0.14,0.389H113.741z M113.602,54.37c0.003,0.011,0.009,0.022,0.016,0.031V54.37H113.602z
	 M113.384,54.4c0.025,0.074,0.051,0.146,0.077,0.218c0.042,0.021,0.084,0.042,0.124,0.062c0.021-0.041,0.032-0.072,0.032-0.093
	c0-0.036-0.032-0.104-0.094-0.202C113.478,54.393,113.431,54.397,113.384,54.4z M113.165,54.152h0.031l-0.016-0.031l-0.016,0.016
	V54.152z M113.368,54.152c-0.018-0.018-0.032-0.034-0.047-0.047c-0.002,0.016-0.002,0.031,0,0.047H113.368z M113.29,54.416
	c-0.003,0.015-0.003,0.03,0,0.047c0.009,0.024,0.019,0.05,0.031,0.078c0.02,0.013,0.041,0.023,0.062,0.031
	c-0.023-0.052-0.05-0.104-0.078-0.155H113.29z M114.083,53.871V53.84l-0.015,0.016c-0.007,0.038-0.012,0.074-0.016,0.109
	L114.083,53.871z M114.208,53.934c0.104-0.166,0.156-0.321,0.156-0.467c-0.062,0.083-0.125,0.249-0.188,0.498L114.208,53.934z
	 M113.835,54.307c-0.032,0.012-0.063,0.022-0.094,0.031c0.013,0.066,0.033,0.118,0.062,0.156v-0.062
	C113.812,54.392,113.822,54.35,113.835,54.307z M113.336,54.867c0.041,0.042,0.077,0.083,0.109,0.125
	c0.02-0.035,0.034-0.072,0.047-0.109c-0.024-0.073-0.051-0.146-0.078-0.217c-0.025-0.009-0.051-0.02-0.078-0.032
	C113.336,54.715,113.336,54.793,113.336,54.867z M113.477,54.681c0.018,0.048,0.033,0.095,0.047,0.14
	c0.027-0.045,0.049-0.087,0.062-0.125C113.551,54.69,113.514,54.685,113.477,54.681z M113.43,55.054v-0.016
	c-0.014-0.021-0.029-0.042-0.046-0.062c0.013,0.032,0.022,0.063,0.03,0.093L113.43,55.054z M113.617,55.101
	c0.003,0.026,0.008,0.052,0.015,0.078c0.002-0.056,0.007-0.098,0.016-0.125C113.638,55.064,113.627,55.08,113.617,55.101z
	 M113.539,55.241c-0.012,0.024-0.022,0.05-0.032,0.078c0.038,0.091,0.069,0.185,0.095,0.28c0.008-0.026,0.013-0.052,0.016-0.078
	v-0.016c-0.016-0.077-0.037-0.154-0.062-0.233C113.55,55.261,113.545,55.25,113.539,55.241z M113.585,55.163l-0.016,0.016
	c0.02,0.033,0.035,0.064,0.048,0.093C113.604,55.234,113.595,55.197,113.585,55.163z M113.321,55.241
	c0.007-0.013,0.017-0.029,0.03-0.046c-0.009-0.019-0.021-0.039-0.03-0.062C113.318,55.172,113.318,55.208,113.321,55.241z
	 M113.43,55.49c-0.021,0.04-0.04,0.076-0.062,0.109c0.009,0.112,0.02,0.221,0.03,0.327c0.038-0.021,0.069-0.047,0.094-0.078
	C113.477,55.73,113.456,55.61,113.43,55.49z M113.523,56.144c-0.007-0.059-0.012-0.116-0.017-0.171l-0.015,0.016
	c-0.024,0.017-0.051,0.033-0.078,0.046C113.447,56.072,113.483,56.108,113.523,56.144z M113.741,57.544l-0.031,0.404l0.016-0.031
	c0.035,0.084,0.07,0.178,0.109,0.28c0,0.012-0.017,0.131-0.048,0.358c0.014,0.013,0.029,0.029,0.048,0.046
	c0.062-0.187,0.093-0.384,0.093-0.591c0-0.146-0.062-0.343-0.187-0.592C113.741,57.463,113.741,57.505,113.741,57.544z
	 M113.523,57.793c-0.022,0.059-0.037,0.11-0.047,0.156h0.171c0.016-0.14,0.016-0.285,0-0.436
	C113.604,57.581,113.563,57.674,113.523,57.793z M113.539,58.291c0.033-0.048,0.069-0.1,0.108-0.156l-0.03-0.093
	c-0.057-0.004-0.107-0.004-0.156,0c0,0.05,0,0.102,0,0.156C113.479,58.222,113.505,58.253,113.539,58.291z M113.025,58.229
	l-0.016,0.016c0.01,0.087,0.02,0.175,0.031,0.265h0.077c0.005-0.088,0.011-0.187,0.017-0.295
	C113.101,58.217,113.064,58.223,113.025,58.229z M113.041,58.602c0.005,0.063,0.01,0.126,0.016,0.187h0.015l0.017-0.062
	c0.007-0.045,0.012-0.091,0.016-0.14C113.081,58.592,113.061,58.597,113.041,58.602z M113.694,58.462
	c0.008-0.022,0.013-0.048,0.016-0.078c-0.02,0.008-0.04,0.018-0.062,0.031C113.662,58.428,113.677,58.444,113.694,58.462z
	 M113.679,58.633c-0.02-0.027-0.04-0.058-0.062-0.094c-0.021-0.031-0.048-0.062-0.078-0.093c0.072,0.153,0.108,0.246,0.108,0.28
	C113.657,58.708,113.668,58.676,113.679,58.633z M113.461,58.695c0.055,0.042,0.096,0.062,0.124,0.062
	c-0.048-0.087-0.095-0.176-0.14-0.265c-0.007,0.062-0.011,0.13-0.016,0.202H113.461z M113.461,58.82
	c-0.014-0.004-0.03-0.01-0.047-0.016c0.002,0.021,0.002,0.042,0,0.062C113.434,58.848,113.448,58.832,113.461,58.82z
	 M113.741,58.805c-0.009,0.046-0.02,0.099-0.031,0.156c0.012-0.017,0.022-0.032,0.031-0.047
	C113.749,58.882,113.749,58.846,113.741,58.805z M113.555,59.069c0-0.031,0-0.062,0-0.093c-0.046,0.025-0.099,0.051-0.156,0.078
	c-0.002,0.03-0.002,0.062,0,0.093C113.437,59.139,113.488,59.112,113.555,59.069z M113.368,59.505
	c-0.015,0.093-0.03,0.181-0.047,0.265c0.039-0.058,0.075-0.125,0.108-0.202c0.016-0.039,0.031-0.075,0.047-0.109
	C113.44,59.475,113.403,59.49,113.368,59.505z M113.104,60.594c-0.013,0.1-0.028,0.219-0.047,0.358
	c0.016,0.027,0.031,0.053,0.047,0.078c0.025,0,0.052,0,0.077,0c0.269,0,0.466-0.083,0.592-0.249
	c-0.133-0.095-0.319-0.256-0.561-0.482C113.178,60.419,113.142,60.518,113.104,60.594z M113.306,60.314
	c0.155,0.144,0.315,0.294,0.481,0.451c0.094-0.139,0.141-0.331,0.141-0.576c-0.1-0.004-0.193-0.004-0.28,0
	c-0.082,0.083-0.187,0.125-0.312,0.125H113.306z M112.963,61.59c-0.007,0.027-0.012,0.053-0.016,0.078
	c0.021-0.025,0.047-0.051,0.078-0.078l0.016-0.016c-0.018-0.036-0.039-0.072-0.062-0.108
	C112.974,61.503,112.969,61.545,112.963,61.59z M112.838,61.372c0.011-0.045,0.021-0.086,0.032-0.125l-0.016-0.031
	C112.851,61.269,112.846,61.321,112.838,61.372z M112.979,62.975c0.028-0.002,0.054-0.002,0.078,0
	c0.019-0.089,0.034-0.178,0.047-0.264c-0.038-0.013-0.074-0.028-0.11-0.047v0.016c0,0.096-0.01,0.19-0.03,0.28L112.979,62.975z
	 M112.558,63.037c0.014,0.015,0.029,0.031,0.047,0.047c-0.008-0.012-0.02-0.028-0.03-0.047H112.558z M112.543,62.913v-0.016
	c-0.016-0.001-0.03-0.001-0.047,0C112.513,62.9,112.527,62.905,112.543,62.913z M112.061,63.115c0,0.011,0,0.026,0,0.047
	c0.045,0.036,0.086,0.072,0.124,0.108c0.066,0.031,0.14,0.057,0.218,0.078v-0.078c0-0.05-0.005-0.096-0.015-0.14l-0.109-0.108
	l-0.124,0.062l0.092,0.187c-0.053-0.042-0.104-0.099-0.155-0.171L112.061,63.115z M112.979,62.384
	c0.061,0.018,0.118,0.033,0.171,0.046c0-0.073,0-0.146,0-0.217c0-0.229-0.01-0.384-0.031-0.467c-0.009-0.022-0.02-0.048-0.03-0.078
	c-0.095,0.071-0.167,0.149-0.218,0.233C112.926,62.037,112.961,62.198,112.979,62.384z M113.165,61.606
	c0.036,0.184,0.072,0.376,0.108,0.575l-0.062,0.265c0.23,0.051,0.376,0.078,0.436,0.078c0.083,0,0.125-0.011,0.125-0.031
	l-0.031-0.062c0.041-0.187,0.062-0.373,0.062-0.56c0-0.374-0.166-0.488-0.497-0.342C113.257,61.552,113.21,61.578,113.165,61.606z
	 M113.181,62.586c0.054,0.026,0.169,0.047,0.343,0.062l0.031-0.094c-0.035-0.017-0.154-0.027-0.358-0.031L113.181,62.586z
	 M113.057,62.524l0.078,0.031v-0.031C113.108,62.524,113.083,62.524,113.057,62.524z M112.993,63.084h-0.015
	c0.004,0.03,0.01,0.062,0.015,0.093c0.009-0.024,0.014-0.05,0.017-0.078L112.993,63.084z M113.041,63.13l-0.062,0.265
	c0.159,0.086,0.258,0.149,0.295,0.186C113.273,63.413,113.196,63.263,113.041,63.13z M113.445,63.94l0.016-0.078v-0.031
	c-0.025,0.025-0.046,0.066-0.062,0.124C113.415,63.949,113.43,63.944,113.445,63.94z M113.384,64.033
	c-0.009,0.016-0.014,0.032-0.016,0.047c-0.051,0.083-0.16,0.146-0.327,0.187c0.004,0.011,0.009,0.021,0.016,0.031h0.312l0.062-0.28
	C113.413,64.025,113.397,64.03,113.384,64.033z M113.273,63.831c0-0.052-0.01-0.099-0.03-0.14c-0.054,0.031-0.106,0.046-0.155,0.046
	c-0.069,0-0.127-0.01-0.172-0.031l-0.078,0.311c0.027,0.028,0.053,0.059,0.078,0.093c0.018,0,0.032,0,0.047,0
	c0.146-0.042,0.249-0.062,0.311-0.062c-0.093-0.001-0.192-0.018-0.295-0.046c0.1,0,0.197-0.005,0.295-0.016V63.831z M113.196,63.644
	c-0.06-0.048-0.143-0.084-0.249-0.108v0.031c0.055,0.052,0.133,0.078,0.233,0.078H113.196z M113.803,64.578l-0.108-0.062
	c-0.012,0.036-0.026,0.072-0.047,0.109l0.062-0.016l0.031,0.062h-0.109c-0.012,0.041-0.027,0.083-0.047,0.125
	c0.075,0.058,0.147,0.12,0.218,0.187V64.578z M113.165,64.469l0.108-0.078h-0.155C113.134,64.417,113.149,64.443,113.165,64.469z
	 M113.43,64.422c-0.046,0.023-0.093,0.08-0.14,0.171c0.059,0.033,0.115,0.069,0.171,0.109v-0.218L113.43,64.422z M112.59,63.707
	c0.012,0.01,0.021,0.021,0.031,0.031c0-0.02,0-0.041,0-0.062c0-0.014,0-0.029,0-0.046C112.61,63.654,112.601,63.68,112.59,63.707z
	 M92.172,113.442l-0.093-0.187l0.093,0.247V113.442z M92.297,113.799c0.056,0.23,0.138,0.423,0.249,0.577
	c-0.033-0.133-0.063-0.256-0.094-0.373C92.397,113.935,92.346,113.868,92.297,113.799z M92.562,114.874v-0.033h-0.016
	C92.551,114.854,92.556,114.863,92.562,114.874z M111.127,132.271v-1.196c-0.04,0.256-0.081,0.504-0.125,0.747
	C111.042,131.979,111.083,132.128,111.127,132.271z M110.006,136.534c-0.005,0.022-0.01,0.044-0.015,0.063h0.015
	C110.006,136.578,110.006,136.559,110.006,136.534z M92.826,129.098c-0.015-0.039-0.03-0.075-0.047-0.11
	c-0.019,0.111-0.014,0.21,0.016,0.297l0.031-0.095V129.098z M92.919,131.057l-0.015-0.17c-0.037,0.021-0.063,0.046-0.078,0.078
	c0,0.021,0,0.112,0,0.278c0,0.146,0,0.229,0,0.25c0.023,0.048,0.064,0.088,0.124,0.124c0.019-0.221,0.034-0.43,0.047-0.621
	c-0.007,0.02-0.012,0.04-0.016,0.061H92.919z M92.795,131.96c0.021,0.167,0.062,0.28,0.124,0.342v-0.092
	c0.018-0.078,0.033-0.156,0.047-0.234c-0.01-0.063-0.02-0.126-0.031-0.187c0.002-0.022,0.002-0.043,0-0.063
	c-0.072-0.035-0.108-0.073-0.108-0.108C92.784,131.659,92.773,131.773,92.795,131.96z M93.262,133.78
	c-0.006-0.104-0.012-0.214-0.016-0.326c-0.011-0.056-0.021-0.113-0.031-0.171c-0.001,0.071-0.007,0.159-0.016,0.265
	C93.199,133.641,93.22,133.719,93.262,133.78z M93.542,135.29c0,0.104,0.01,0.166,0.031,0.187h0.109
	c-0.042-0.192-0.083-0.379-0.125-0.561C93.548,135.001,93.542,135.125,93.542,135.29z M94.881,139.803
	c-0.032-0.086-0.062-0.173-0.095-0.265c0.025,0.173,0.057,0.345,0.095,0.515V139.803z M111.688,160.749
	c-0.005-0.131-0.011-0.265-0.017-0.404c-0.012,0.078-0.022,0.156-0.03,0.232C111.656,160.634,111.673,160.689,111.688,160.749z
	 M110.006,169.649v-0.092c-0.003,0.027-0.008,0.053-0.015,0.077L110.006,169.649z M109.976,170.024c0,0.142,0.01,0.312,0.03,0.513
	v-0.357L109.976,170.024z M103.471,171.144c-0.22-0.48-0.465-1.356-0.731-2.63c-0.197,0.657-0.296,1.326-0.296,2.009
	c0,0.497,0.083,1.295,0.249,2.396c0.089,0.517,0.157,0.966,0.203,1.354c0.383-0.765,0.575-1.683,0.575-2.754
	C103.471,171.39,103.471,171.266,103.471,171.144z M96.623,161.216h0.031c0.036-0.124,0.073-0.243,0.108-0.358
	c0.004-0.105,0.009-0.214,0.017-0.326C96.727,160.752,96.675,160.979,96.623,161.216z M96.763,163.909
	c-0.112,0.63-0.21,1.256-0.295,1.881h0.062c0.089-0.529,0.167-0.997,0.233-1.399C96.765,164.225,96.765,164.065,96.763,163.909z
	 M96.748,163.285c0.001-0.147,0.001-0.293,0-0.436c-0.098,0.497-0.159,0.893-0.188,1.184
	C96.631,163.822,96.694,163.574,96.748,163.285z M96.468,167.098c0.119-0.239,0.229-0.51,0.326-0.809
	c-0.004-0.214-0.008-0.421-0.015-0.623C96.691,166.103,96.588,166.58,96.468,167.098z M96.81,167.627
	c-0.017,0.167-0.032,0.328-0.047,0.482c0.013-0.112,0.029-0.236,0.047-0.373C96.812,167.7,96.812,167.665,96.81,167.627z
	 M93.899,174.039c0.077-0.068,0.155-0.135,0.233-0.202c-0.095,0.067-0.188,0.134-0.28,0.202H93.899z"/>
</svg>
