<?xml version="1.0" encoding="utf-8"?>
<!-- Generator: Adobe Illustrator 15.0.0, SVG Export Plug-In . SVG Version: 6.00 Build 0)  -->
<svg version="1.2" baseProfile="tiny" id="Layer_1" xmlns="http://www.w3.org/2000/svg" xmlns:xlink="http://www.w3.org/1999/xlink"
	 x="0px" y="0px" width="200px" height="200px" viewBox="0 0 200 200" overflow="inherit" xml:space="preserve">
<path fill-rule="evenodd" d="M119.123,54.721c-0.01,0.467-0.025,0.881-0.046,1.245c0,0.021,0,0.046,0,0.077
	c0.083,1.845,0.533,3.998,1.354,6.455c0.021,0.073,0.042,0.146,0.062,0.218c0.446,0.581,0.835,1.229,1.166,1.944
	c0.965,2.063,1.427,4.334,1.385,6.813c0,0.062,0,0.124,0,0.186c-0.072,0.197-0.113,0.374-0.124,0.529
	c0,0.011,0.021,0.094,0.062,0.249c-0.011,0.083-0.017,0.161-0.017,0.233c0.042,0.062,0.089,0.124,0.141,0.187
	c0.083,0.363,0.213,0.881,0.39,1.556c0.154,0.466,0.294,0.86,0.419,1.182c0,0.011,0,0.026,0,0.047
	c-0.031,1.835-0.846,3.608-2.441,5.319c-2.188,2.344-5.31,3.552-9.364,3.624h-1.851c0.062,1.275,0.28,2.878,0.653,4.807
	c0.094,0.507,0.186,0.99,0.28,1.446c0.632,0.623,1.042,1.338,1.229,2.147c0.082,0.529,0.16,1.239,0.233,2.13
	c0.051,0.508,0.119,1.275,0.202,2.302l-0.124,8.026c0.071,0.86,0.135,2.084,0.186,3.671c0.031,1.244,0.048,2.062,0.048,2.458
	c-0.021,1.005-0.073,2.047-0.156,3.125c-0.477,1.515-0.855,3.043-1.136,4.588c-0.28,1.671-0.804,3.987-1.57,6.954
	c-0.426,1.628-0.664,3.437-0.717,5.428c-0.01,0.031-0.015,0.057-0.015,0.077c-0.435,1.96-0.659,3.584-0.669,4.869
	c-0.01,0.187,0.436,1.385,1.338,3.593c0.373,1.058,0.663,2.074,0.871,3.048c0.301,0.322,0.602,0.675,0.901,1.059
	c0.675,1.109,1.173,2.026,1.494,2.753c0.414,0.943,0.669,1.814,0.762,2.613c0.166,1.472,0.182,3.659,0.046,6.563
	c-0.062,1.472-0.145,2.871-0.248,4.2c0.113,2.675,0.166,4.143,0.155,4.401c-0.042,3.11,0.535,6.086,1.727,8.928
	c0.301,0.705,0.71,1.602,1.229,2.69c0.374,0.84,0.561,1.468,0.561,1.883c-0.011,0.248-0.244,0.829-0.7,1.741
	c-0.55,1.068-1.172,2.09-1.867,3.063c-1.823,2.521-3.571,3.905-5.24,4.153c-0.363,0.332-0.644,0.498-0.84,0.498
	c-0.509,0-0.783-0.141-0.826-0.42c-0.237,0.229-0.554,0.342-0.947,0.342c-0.373,0-0.664-0.176-0.871-0.529
	c-0.581,0.395-1.359,0.593-2.334,0.593c-0.467,0-0.767-0.229-0.901-0.686c-0.031-0.248-0.047-0.43-0.047-0.544
	c-0.083,0.114-0.171,0.28-0.265,0.498c-0.104,0.237-0.377,0.357-0.824,0.357c-0.539,0-0.86-0.171-0.965-0.513
	c0.012-0.354,0.017-0.551,0.017-0.591l-0.048-0.141c-0.228,0.155-0.362,0.243-0.404,0.265c-0.123,0.072-0.274,0.109-0.45,0.109
	c-1.483,0-2.37-0.193-2.659-0.576c-0.094-0.125-0.12-0.261-0.078-0.405c0.051-0.134,0.078-0.206,0.078-0.217
	c0.01-0.81,0.818-1.877,2.426-3.205c1.399-1.16,2.992-2.209,4.774-3.142c0.653-0.342,1.224-1.348,1.712-3.017
	c0.415-1.421,0.633-2.712,0.652-3.873c0.031-2.707-0.824-6.585-2.565-11.635c-0.882-2.438-1.483-4.127-1.804-5.07
	c-0.125-0.343-0.234-0.659-0.328-0.948c-0.466,2.062-0.699,3.219-0.699,3.468c-0.031,1.938,0.389,4.489,1.26,7.652
	c0,0.042,0,0.089,0,0.14c0,0.011,0.362,1.488,1.089,4.434c0.166,0.508,0.321,0.974,0.466,1.4c0.042,0.206,0.078,0.408,0.109,0.606
	c0.155,0.278,0.316,0.647,0.481,1.104c0.344,0.963,0.515,1.555,0.515,1.772c-0.021,0.882-0.462,1.721-1.322,2.52
	c-1.193,1.13-2.997,1.8-5.412,2.007c-0.229,0.021-1.328,0.819-3.299,2.395c-2.188,1.556-3.95,2.334-5.288,2.334
	c-0.912,0-1.467-0.203-1.665-0.606c-0.01-0.426-0.015-0.659-0.015-0.701V182.9c-0.093,0.01-0.186,0.025-0.28,0.047
	c-0.135,0.176-0.357,0.264-0.668,0.264c-0.425,0-0.747-0.119-0.964-0.357c-0.643-0.197-1.104-0.596-1.384-1.197
	c-0.218-0.456-0.321-1.177-0.311-2.162c0.021-1.048,1.28-2.101,3.779-3.157c0.654-0.28,1.602-0.654,2.847-1.12
	c0.964-0.394,1.565-0.711,1.804-0.948c0.207-0.197,1.1-1.37,2.676-3.516c-0.041-0.113-0.078-0.228-0.109-0.342
	c0.188-0.603,0.28-1.007,0.28-1.214c0.011-0.735-0.285-2.084-0.886-4.044c-0.156-0.497-0.82-2.493-1.991-5.988v-0.016
	c-0.095-0.445-0.192-0.902-0.296-1.369c-0.86-3.608-1.514-6.434-1.959-8.477c-0.208-0.975-0.384-1.892-0.529-2.753
	c0.249-2.893,0.378-4.458,0.389-4.697c0.01-0.777-0.114-1.431-0.374-1.96c0.01-0.072,0.015-0.149,0.015-0.232
	c0.011-0.799-0.166-1.322-0.528-1.571c0.011-0.041,0.016-0.078,0.016-0.108c-0.664-1.203-1.089-2.251-1.276-3.143
	c-0.03-0.145-0.072-0.918-0.124-2.317c-0.021-1.026-0.212-1.841-0.576-2.442c-0.611-1.036-1.031-1.824-1.259-2.363
	c-0.332-0.727-0.529-1.363-0.59-1.914c-1.038-1.41-1.727-2.68-2.069-3.81c-0.809-2.646-1.25-4.946-1.323-6.907
	c-0.01-0.518-0.015-1.016-0.015-1.492c-0.011,0-0.021,0-0.031,0c-2.883,0-4.775-1.686-5.678-5.055
	c-0.31-1.142-0.498-2.682-0.56-4.62c-0.176-0.373-0.29-0.99-0.342-1.852c-0.031-1.523-0.047-2.296-0.047-2.317
	c0.01-0.56,0.383-2.192,1.12-4.899c0.518-1.908,0.99-3.386,1.415-4.433c0.281-1.357,0.42-2.053,0.42-2.084
	c0.093-0.601,0.244-1.494,0.452-2.675c0.228-1.265,0.388-2.193,0.481-2.785c0.125-0.808,0.353-1.483,0.685-2.021
	c0.073-1.971,0.405-3.785,0.996-5.445c0.643-1.814,0.975-3.312,0.996-4.495c0.01-1.099-0.037-2.291-0.14-3.577
	c-0.062-0.768-0.104-1.452-0.125-2.053c-0.145-0.166-0.274-0.327-0.389-0.482c-0.55-0.239-0.964-0.824-1.244-1.758
	c-0.197-1.265-0.295-1.928-0.295-1.99c0.021-1.079,0.25-2.261,0.684-3.547c0.353-3.795,0.701-6.092,1.043-6.891
	c0.155-0.342,0.389-0.7,0.7-1.073c0.073-0.176,0.161-0.337,0.264-0.482c0.84-1.379,2.172-2.297,3.997-2.752v-0.015
	c1.151-0.592,2.09-0.882,2.815-0.871c0.042,0,0.083,0.004,0.124,0.015c-0.021-0.052-0.041-0.099-0.062-0.14
	c-0.487-0.155-0.86-0.41-1.119-0.762c-0.25,0.208-0.441,0.312-0.576,0.312c-0.529-0.052-0.949-0.094-1.26-0.125
	c-0.042,0.291-0.062,0.513-0.062,0.668l-0.093,0.078c-0.073-0.042-0.114-0.088-0.124-0.14c-0.011-0.042-0.011-0.166,0-0.373
	c0.01-0.062,0.015-0.124,0.015-0.187c-0.083,0.011-0.187,0.015-0.312,0.015c-0.021,0-0.036,0-0.046,0
	c-0.073,0.177-0.171,0.384-0.295,0.623h-0.094c0.052-0.197,0.104-0.415,0.155-0.653c-0.061-0.021-0.124-0.041-0.186-0.062
	c-0.031,0.011-0.062,0.021-0.093,0.031c-0.031,0.083-0.067,0.177-0.109,0.28c-0.155-0.073-0.295-0.146-0.419-0.218
	c-0.415,0-0.685-0.083-0.809-0.249c-0.022,0.172-0.048,0.354-0.078,0.544l-0.093,0.077c-0.073-0.041-0.114-0.087-0.124-0.14
	c0-0.041,0-0.166,0-0.373c-0.011-0.052-0.016-0.104-0.016-0.156c-0.062-0.021-0.125-0.037-0.187-0.046
	c-0.03,0.166-0.072,0.352-0.124,0.56h-0.093c0-0.042-0.005-0.244-0.016-0.607c-0.59-0.176-1.062-0.466-1.415-0.871
	c-0.426-0.259-0.633-0.508-0.623-0.747c0-0.114,0.011-0.223,0.031-0.327c-0.052-0.156-0.083-0.312-0.093-0.466
	c-0.104-0.073-0.197-0.151-0.28-0.233c-0.27-0.25-0.404-0.436-0.404-0.561c0.011-0.311,0.099-0.643,0.265-0.995
	c-0.032-0.021-0.058-0.042-0.078-0.062c-0.321-0.259-0.502-0.399-0.544-0.42c-0.01-0.177,0.068-0.378,0.233-0.606
	c-0.01-0.103-0.015-0.212-0.015-0.327c0-0.011,0-0.021,0-0.031c-0.042-0.093-0.068-0.202-0.078-0.326
	c0.083-0.508,0.124-0.855,0.124-1.042c0.146-0.011,0.275-0.031,0.388-0.063c0-0.021,0.005-0.036,0.016-0.046
	c-0.073-0.093-0.109-0.176-0.109-0.249c0-0.01,0-0.021,0-0.031c-0.57,0-1.005-0.202-1.306-0.606c-0.207-0.259-0.311-0.492-0.311-0.7
	c0.011-0.684,0.42-1.425,1.229-2.225c0.125-0.124,0.249-0.233,0.373-0.326c0.207-0.249,0.44-0.461,0.7-0.638
	c0.436-0.301,0.876-0.472,1.322-0.514c-0.052-0.083-0.098-0.171-0.14-0.264h0.015c0.208-0.093,0.316-0.253,0.327-0.482
	c0-0.093-0.155-0.197-0.467-0.31c-0.083-0.031-0.166-0.062-0.249-0.093c-0.166-0.437-0.259-0.742-0.28-0.918h-0.015l-0.234-0.062
	c0.083-0.052,0.162-0.104,0.234-0.156c0-0.031,0-0.057,0-0.077c-0.021,0-0.047,0-0.078,0c-0.166,0-0.265-0.01-0.295-0.031
	l-0.016-0.047c0.031-0.02,0.177-0.114,0.436-0.28c0.156-1.12,0.731-1.784,1.727-1.991c0.115-0.757,0.555-1.452,1.322-2.084
	c0.083-0.176,0.176-0.373,0.28-0.591c0.27-0.384,0.653-0.503,1.151-0.357c0.663-1.068,1.633-1.556,2.908-1.462
	c0.176-0.259,0.617-0.545,1.322-0.855c0.58-0.27,0.918-0.405,1.012-0.405c0.134,0,0.367,0.067,0.699,0.203
	c0.166,0.062,0.311,0.108,0.436,0.14c0.041-0.011,0.083-0.021,0.125-0.032c0.403-0.072,0.777-0.124,1.119-0.155
	c0.446-0.3,0.695-0.451,0.746-0.451c-0.02,0.083-0.154,0.229-0.404,0.436c0.188,0,0.368,0.004,0.545,0.015
	c0.197-0.042,0.404-0.083,0.621-0.124c0.271-0.021,0.54-0.021,0.81,0c0.353-0.27,0.606-0.43,0.763-0.482
	c-0.104,0.062-0.307,0.228-0.606,0.498c0.466,0.031,0.928,0.135,1.384,0.312c-0.188,0-0.426,0.016-0.715,0.047
	c0.113,0.051,0.284,0.099,0.513,0.139c0.229,0.062,0.415,0.166,0.56,0.311l0.326-0.062c-0.062-0.083-0.118-0.15-0.171-0.202
	c0.063,0.031,0.124,0.062,0.188,0.093c0.042-0.124,0.114-0.197,0.218-0.217c1.441-0.124,2.811,0.653,4.105,2.333
	c0.488,0.633,0.871,1.198,1.152,1.696c0.165,0.135,0.278,0.249,0.342,0.342l-0.078,0.077c-0.021-0.041-0.068-0.088-0.141-0.139
	c0.25,0.498,0.369,0.933,0.359,1.306c0,0.021,0,0.041,0,0.062c0.248,0.052,0.491,0.192,0.73,0.42
	c0.436,0.426,0.653,0.793,0.653,1.105c-0.012,0.124-0.042,0.332-0.095,0.622c-0.051,0.28-0.082,0.503-0.093,0.669
	c0.011,0.042,0.011,0.078,0,0.109c0,0.021,0,0.037,0,0.046c0,0.094,0,0.192,0,0.296c0,0.269-0.016,0.44-0.046,0.512
	c-0.053,0.188-0.182,0.358-0.389,0.514c0.279,0.01,0.414,0.224,0.404,0.637c0,0.031-0.104,0.286-0.312,0.762
	c-0.042,0.094-0.083,0.182-0.124,0.265c0.176,0.3,0.315,0.576,0.42,0.824l-0.078,0.078c-0.135-0.177-0.28-0.39-0.436-0.638
	c-0.072,0.196-0.109,0.336-0.109,0.419c0,0.073-0.021,0.15-0.062,0.233c0.135,0.187,0.201,0.471,0.201,0.855
	c-0.01,0.197-0.066,0.472-0.171,0.824c0,0.134-0.005,0.26-0.016,0.373c0.104,0.291,0.156,0.643,0.156,1.058
	c-0.01,0.104-0.094,0.394-0.248,0.871c-0.073,0.177-0.125,0.332-0.156,0.467c0.01,0.042,0.021,0.088,0.031,0.14
	c0.528,0.581,1.037,1.208,1.523,1.882c0.021,0.02,0.037,0.046,0.047,0.078c-0.051-0.042-0.104-0.083-0.156-0.125
	c0.125,0.218,0.406,0.71,0.841,1.478c0.042,0.177,0.062,0.135,0.062-0.124c0-0.021,0-0.042,0-0.062
	c0.104,0.186,0.155,0.326,0.155,0.419c-0.011,0.364-0.062,0.623-0.155,0.778c-0.093,0.156-0.255,0.254-0.482,0.296v0.015
	c0,0.042,0,0.078,0,0.109c0.021,0.01,0.042,0.026,0.062,0.046c1.068,0.913,2.121,1.608,3.158,2.084
	c0.871,0.011,1.804,0.187,2.8,0.529c1.689,0.56,3.049,1.467,4.075,2.722C118.558,50.739,119.154,52.564,119.123,54.721z
	 M101.329,23.458l0.016,0.015c0.01,0,0.023,0.005,0.039,0.016C101.366,23.477,101.349,23.467,101.329,23.458z M101.626,23.769
	c0.021,0,0.041,0,0.062,0l0.094-0.063c-0.042-0.03-0.077-0.057-0.108-0.077c-0.094-0.021-0.188-0.041-0.281-0.062
	c0.031,0.041,0.057,0.093,0.078,0.155c0.021,0.021,0.047,0.042,0.078,0.062C101.568,23.773,101.595,23.769,101.626,23.769z
	 M101.485,23.334c0.176,0.103,0.326,0.197,0.451,0.279v-0.312C101.781,23.282,101.631,23.292,101.485,23.334z M102.356,23.349
	c-0.073-0.062-0.161-0.078-0.265-0.047v0.327l0.468-0.016C102.476,23.479,102.409,23.391,102.356,23.349z M102.325,23.862
	c-0.021,0-0.042,0-0.062,0l0.016,0.015c0.114,0.052,0.208,0.114,0.281,0.187v-0.093C102.486,23.93,102.409,23.894,102.325,23.862z
	 M102.714,23.924c0.104,0.052,0.203,0.109,0.296,0.171c-0.021-0.083-0.057-0.14-0.109-0.171c-0.093-0.021-0.155-0.042-0.187-0.062
	V23.924z M104.519,27.315v0.016c0,0.01,0.005,0.016,0.016,0.016C104.534,27.336,104.528,27.326,104.519,27.315z M104.907,27.642
	c0.021,0,0.047,0,0.078,0c0-0.01,0-0.021,0-0.031c0.01-0.352-0.115-0.7-0.374-1.042c-0.042,0.042-0.067,0.187-0.077,0.436
	C104.689,27.232,104.813,27.444,104.907,27.642z M103.788,24.717c-0.084-0.072-0.156-0.124-0.219-0.155
	c-0.021-0.011-0.042-0.021-0.062-0.031c0.052,0.073,0.104,0.146,0.156,0.217C103.726,24.749,103.767,24.739,103.788,24.717z
	 M102.963,24.717c0.03-0.083,0.047-0.139,0.047-0.171c-0.052-0.01-0.099-0.015-0.14-0.015
	C102.9,24.593,102.932,24.655,102.963,24.717z M103.165,24.64c0,0.041,0.099,0.072,0.295,0.093h0.016
	c-0.062-0.083-0.123-0.161-0.186-0.233c-0.041-0.011-0.084-0.016-0.125-0.016V24.64z M103.601,25.387
	c0.041-0.011,0.083-0.016,0.125-0.016c-0.032-0.125-0.062-0.239-0.094-0.342c-0.041-0.011-0.083-0.016-0.125-0.016
	c-0.207-0.01-0.353,0.01-0.436,0.062c0,0.021,0.012,0.042,0.031,0.062c0.084,0.042,0.177,0.088,0.28,0.14
	C103.456,25.319,103.527,25.355,103.601,25.387z M103.243,25.433c0.01,0.011,0.021,0.026,0.031,0.047
	c0.041-0.01,0.082-0.016,0.123-0.016c-0.072-0.042-0.134-0.073-0.186-0.093c0,0.011,0.006,0.021,0.016,0.031l0.016,0.015V25.433z
	 M103.928,25.324l0.015-0.233c-0.02-0.021-0.066-0.036-0.14-0.046c0.021,0.093,0.047,0.192,0.078,0.295
	C103.892,25.329,103.906,25.324,103.928,25.324z M103.928,25.869c0,0.031,0,0.057,0,0.078h0.077c0.011-0.052,0.021-0.098,0.031-0.14
	c-0.031-0.021-0.066-0.042-0.108-0.062C103.928,25.786,103.928,25.827,103.928,25.869z M104.083,25.573
	c-0.021,0.011-0.041,0.026-0.062,0.047c0.021,0,0.041,0.009,0.062,0.031C104.083,25.61,104.083,25.584,104.083,25.573z
	 M103.538,25.822c0.031,0.041,0.072,0.088,0.125,0.139h0.108v-0.015c0-0.073,0-0.145,0-0.218
	C103.698,25.76,103.622,25.791,103.538,25.822z M102.698,24.298c0.011,0.01,0.021,0.026,0.031,0.046
	c0.188,0.145,0.28,0.114,0.28-0.093c-0.093-0.073-0.192-0.14-0.296-0.202c-0.021,0.062-0.041,0.12-0.062,0.171
	C102.661,24.241,102.678,24.267,102.698,24.298z M102.2,24.267c0.012,0,0.021,0.005,0.031,0.015c0.021-0.01,0.042-0.021,0.062-0.031
	C102.263,24.251,102.231,24.256,102.2,24.267z M102.466,24.609c-0.012,0-0.021,0.004-0.031,0.015c0.01,0,0.02,0,0.031,0V24.609z
	 M101.704,24.344c0.051,0.032,0.107,0.068,0.17,0.109c0.082-0.041,0.16-0.077,0.233-0.109c-0.083-0.021-0.171-0.031-0.265-0.031
	C101.802,24.313,101.755,24.324,101.704,24.344z M101.734,24.593c-0.052-0.031-0.088-0.047-0.108-0.047c0,0.011,0,0.021,0,0.032
	c0.062,0.051,0.123,0.103,0.186,0.155c0.072,0.021,0.145,0.046,0.218,0.078c0.031-0.011,0.062-0.016,0.093-0.016
	c-0.041-0.011-0.082-0.016-0.123-0.016C101.987,24.779,101.899,24.717,101.734,24.593z M104.315,26.118
	c-0.03-0.042-0.135-0.047-0.311-0.016c-0.031,0.011-0.062,0.021-0.094,0.031c-0.01,0.021-0.025,0.047-0.047,0.078
	c0.042,0.051,0.09,0.104,0.141,0.155c0.011,0.011,0.026,0.026,0.047,0.047c0.083-0.062,0.171-0.114,0.264-0.155V26.118z
	 M103.693,26.584c0.021,0.031,0.042,0.062,0.063,0.093c0.031-0.031,0.066-0.067,0.107-0.109c-0.02-0.01-0.035-0.021-0.046-0.031
	c-0.03-0.021-0.052-0.037-0.062-0.047C103.735,26.522,103.715,26.553,103.693,26.584z M103.911,26.739c0.043,0,0.084,0,0.125,0
	c-0.021-0.02-0.041-0.042-0.062-0.062L103.911,26.739z M104.207,26.584c0.021,0.031,0.047,0.062,0.078,0.093
	c0.042-0.031,0.073-0.062,0.093-0.093v-0.078L104.207,26.584z M104.254,26.973c-0.052,0.011-0.099,0.021-0.14,0.031l-0.016,0.016
	h0.016c0.062,0.051,0.135,0.104,0.217,0.155c0.011-0.031,0.021-0.062,0.032-0.093C104.331,27.051,104.296,27.015,104.254,26.973z
	 M106.214,28.839c0,0.311-0.026,0.467-0.078,0.467v0.077c0.021,0.042,0.047,0.068,0.078,0.078c0.062-0.073,0.094-0.186,0.094-0.342
	c-0.011-0.145-0.042-0.243-0.094-0.295V28.839z M106.058,28.902c0-0.249-0.051-0.436-0.154-0.56
	c-0.125-0.156-0.344-0.233-0.654-0.233c0.011,0,0.016,0.005,0.016,0.015c0.291,0.342,0.529,0.7,0.717,1.073
	c0.02-0.011,0.04-0.015,0.062-0.015C106.054,29.161,106.058,29.067,106.058,28.902z M105.108,29.477c0,0.01,0,0.021,0,0.031
	c0,0.011,0.006,0.021,0.017,0.031h0.047C105.151,29.519,105.13,29.498,105.108,29.477z M105.452,29.057
	c0.092,0.052,0.201,0.093,0.326,0.125c-0.176-0.322-0.395-0.633-0.653-0.934c0.062,0.156,0.171,0.395,0.327,0.716V29.057z
	 M105.437,29.68l0.078,0.015c0.051-0.01,0.123-0.02,0.217-0.031c0-0.021,0-0.046,0-0.077c0.011,0.021,0.025,0.046,0.047,0.077
	c0.072-0.011,0.13-0.026,0.17-0.046c-0.01-0.042-0.025-0.083-0.045-0.125c-0.053-0.01-0.121-0.021-0.203-0.031l-0.264-0.015V29.68z
	 M105.187,30.488c0,0.073,0.021,0.171,0.062,0.295l0.172-0.016c-0.012-0.155-0.083-0.311-0.218-0.466
	C105.192,30.363,105.187,30.425,105.187,30.488z M105.063,31.655c0.03-0.011,0.066-0.016,0.108-0.016
	c0,0.021-0.036,0.047-0.108,0.078c0.01,0.021,0.02,0.047,0.03,0.078c0.042,0.104,0.083,0.213,0.124,0.326
	c0.031-0.01,0.063-0.02,0.094-0.031c0.031-0.125,0.047-0.254,0.047-0.389c0-0.052-0.006-0.104-0.016-0.156v-0.015
	c-0.041-0.062-0.072-0.13-0.094-0.203c-0.031,0.021-0.067,0.041-0.107,0.062C105.12,31.483,105.094,31.572,105.063,31.655z
	 M105.437,31.188c0.082,0.208,0.123,0.363,0.123,0.467c0,0.042-0.004,0.093-0.016,0.155c0,0.062,0,0.125,0,0.187
	c0.012,0,0.027,0,0.047,0c0.012-0.031,0.021-0.052,0.031-0.062c0.011-0.021,0.016-0.115,0.016-0.28
	C105.647,31.385,105.581,31.23,105.437,31.188z M106.152,30.379c-0.021-0.197-0.063-0.389-0.126-0.576
	c-0.051,0.011-0.104,0.037-0.154,0.078c0.082,0.208,0.149,0.389,0.202,0.543c0.021,0.011,0.036,0.021,0.046,0.032
	C106.131,30.436,106.142,30.41,106.152,30.379z M106.152,30.691c0.02,0.079,0.029,0.144,0.03,0.194c0-0.069,0-0.134,0-0.194
	C106.173,30.691,106.162,30.691,106.152,30.691z M106.026,31.359c-0.113,0.145-0.171,0.259-0.171,0.342c0,0.01,0,0.025,0,0.046
	c0.104-0.146,0.183-0.27,0.233-0.374c0.051-0.12,0.082-0.25,0.094-0.389C106.169,31.104,106.117,31.229,106.026,31.359z
	 M96.679,21.918c-0.01,0-0.016,0.005-0.016,0.015c0.073,0.031,0.146,0.073,0.218,0.124C96.819,21.986,96.751,21.939,96.679,21.918z
	 M96.197,21.778c0.01-0.011,0.021-0.016,0.031-0.016c0.093-0.062,0.145-0.119,0.155-0.171c-0.197,0-0.332,0.011-0.404,0.031
	c-0.062,0.011-0.119,0.036-0.172,0.078C95.942,21.721,96.072,21.747,96.197,21.778z M99.323,22.213v0.062
	c0.094-0.02,0.176-0.036,0.249-0.047c0.011-0.031,0.026-0.057,0.046-0.077c-0.051,0-0.098,0.005-0.139,0.016
	C99.375,22.177,99.323,22.193,99.323,22.213z M100.802,22.633c0.031,0.083,0.051,0.177,0.062,0.28
	c0.104-0.041,0.207-0.067,0.312-0.078c-0.094-0.207-0.219-0.363-0.373-0.467c-0.063,0-0.12,0-0.172,0
	C100.702,22.431,100.76,22.52,100.802,22.633z M100.101,23.022v-0.016c0.053-0.031,0.078-0.062,0.078-0.093h-0.312
	C99.94,22.944,100.019,22.98,100.101,23.022z M100.411,22.758v-0.063l-0.015-0.077c-0.042-0.011-0.13-0.005-0.265,0.015
	C100.226,22.665,100.319,22.706,100.411,22.758z M100.382,23.629c0.01,0.021,0.02,0.037,0.029,0.047
	c0.062,0.041,0.131,0.088,0.203,0.14c0.031,0,0.067,0,0.109,0c0.01-0.021,0.02-0.037,0.031-0.046
	c-0.094-0.073-0.192-0.15-0.296-0.233C100.428,23.567,100.401,23.598,100.382,23.629z M91.811,21.996
	c0.425,0,0.727-0.077,0.902-0.233c-0.042-0.042-0.161-0.062-0.358-0.062c-0.195,0-0.336,0.016-0.42,0.047
	c-0.197,0.052-0.326,0.109-0.389,0.171l-0.016,0.046C91.552,21.986,91.646,21.996,91.811,21.996z M91.469,22.773
	c-0.021-0.145-0.042-0.249-0.062-0.312c-0.043-0.093-0.28-0.093-0.716,0c-0.01,0.042-0.042,0.14-0.093,0.296l0.109,0.031
	C90.862,22.81,91.116,22.805,91.469,22.773z M91.53,22.525c0.031,0.031,0.068,0.083,0.109,0.155c0.01,0.011,0.016,0.021,0.016,0.031
	c0.094-0.062,0.187-0.115,0.279-0.155V22.54c-0.072-0.011-0.14-0.021-0.202-0.031C91.599,22.499,91.53,22.504,91.53,22.525z
	 M92.698,22.058c0.031,0.011,0.062,0.021,0.093,0.032c0.042-0.032,0.099-0.057,0.171-0.078c-0.093-0.011-0.202-0.016-0.326-0.016
	L92.698,22.058z M92.324,22.416c0.052-0.021,0.099-0.031,0.14-0.031c0-0.011,0.006-0.021,0.016-0.031
	c0.031-0.031,0.062-0.062,0.094-0.094c-0.073-0.031-0.156-0.046-0.249-0.046V22.416z M90.458,44.688
	c0.146,0.208,0.322,0.395,0.529,0.561c-0.073-0.177-0.135-0.342-0.187-0.498C90.676,44.73,90.561,44.71,90.458,44.688z
	 M90.286,44.658c-0.114-0.031-0.217-0.062-0.311-0.093c0.052,0.25,0.114,0.467,0.187,0.653c0.176,0.041,0.368,0.072,0.576,0.093
	c-0.146-0.135-0.27-0.291-0.374-0.466C90.344,44.782,90.317,44.72,90.286,44.658z M90.66,44.471
	c-0.011-0.021-0.021-0.042-0.031-0.062c-0.093-0.052-0.197-0.12-0.312-0.202c-0.093-0.073-0.166-0.13-0.218-0.171
	c0.021,0.051,0.042,0.104,0.062,0.155c0.042,0.093,0.087,0.181,0.14,0.264c0.02,0.011,0.042,0.016,0.062,0.016H90.66z
	 M90.364,43.943c-0.062-0.011-0.125-0.016-0.187-0.016c0.011,0.021,0.021,0.042,0.032,0.062c0.083,0.125,0.197,0.213,0.342,0.265
	C90.488,44.14,90.426,44.036,90.364,43.943z M89.493,43.88c-0.011,0.021-0.026,0.042-0.047,0.063
	c0.073,0.134,0.171,0.254,0.296,0.357h0.062c-0.021-0.145-0.031-0.28-0.031-0.404C89.67,43.885,89.577,43.88,89.493,43.88z
	 M89.976,44.176c0.041,0.104,0.114,0.181,0.217,0.233c-0.073-0.176-0.134-0.327-0.187-0.451c-0.021-0.021-0.031-0.037-0.031-0.047
	l-0.016,0.016C89.96,43.938,89.965,44.02,89.976,44.176z M89.26,43.865h-0.016c0,0.01,0.005,0.026,0.016,0.046
	C89.26,43.891,89.26,43.875,89.26,43.865z M88.793,43.974c0.021,0.062,0.046,0.119,0.078,0.17h0.093
	c-0.021-0.124-0.042-0.197-0.062-0.217C88.861,43.938,88.825,43.953,88.793,43.974z M89.042,44.409
	c0.011,0.01,0.021,0.026,0.031,0.046c0.238,0.322,0.539,0.555,0.902,0.7c-0.042-0.134-0.078-0.279-0.109-0.435
	c-0.239-0.145-0.452-0.316-0.638-0.513c-0.051,0.062-0.114,0.124-0.187,0.186V44.409z M88.825,44.424
	c-0.011-0.011-0.021-0.021-0.031-0.031c-0.239,0-0.415,0.016-0.528,0.047c-0.063,0.009-0.166,0.046-0.312,0.108
	c0.073,0.042,0.186,0.058,0.342,0.047c0.166-0.021,0.306-0.062,0.419-0.125L88.825,44.424z M89.82,44.548c0-0.021,0-0.036,0-0.046
	c-0.093-0.053-0.176-0.099-0.249-0.14c0.083,0.104,0.177,0.208,0.28,0.311C89.841,44.632,89.831,44.59,89.82,44.548z M90.831,45.685
	c0.051-0.052,0.104-0.114,0.156-0.187c-0.021-0.021-0.042-0.031-0.063-0.031c-0.248-0.02-0.481-0.057-0.7-0.109
	c0.021,0.031,0.042,0.063,0.062,0.094C90.504,45.482,90.687,45.56,90.831,45.685z M106.089,32.246
	c-0.072-0.031-0.176-0.052-0.311-0.062c-0.021,0.094-0.053,0.202-0.094,0.327c0.094,0.041,0.156,0.093,0.188,0.155
	c0.051,0.073,0.093,0.171,0.124,0.296c0.011,0,0.036-0.005,0.078-0.015c0.052-0.042,0.078-0.146,0.078-0.312
	c0.01-0.145,0.005-0.228-0.017-0.249C106.104,32.354,106.089,32.309,106.089,32.246z M105.575,33.102h0.266
	c-0.042-0.166-0.089-0.291-0.141-0.374c-0.02-0.031-0.041-0.057-0.062-0.078c-0.041,0.114-0.078,0.239-0.107,0.374
	C105.54,33.044,105.556,33.07,105.575,33.102z M105.499,33.49c0,0.073,0,0.146,0,0.218c0.01,0,0.02,0.005,0.031,0.015
	c0.029-0.021,0.066-0.046,0.107-0.077c-0.041-0.052-0.066-0.104-0.078-0.156C105.54,33.49,105.519,33.49,105.499,33.49z
	 M105.233,33.972c-0.01-0.01-0.021-0.015-0.03-0.015c-0.011,0.01-0.017,0.025-0.017,0.046c0.012,0.093,0.017,0.192,0.017,0.296
	c0.03,0.01,0.062,0.021,0.093,0.031C105.296,34.195,105.276,34.076,105.233,33.972z M105.53,34.112c0,0.083,0,0.171,0,0.264
	c0.029-0.093,0.035-0.171,0.014-0.233C105.544,34.133,105.54,34.123,105.53,34.112z M104.628,35.045
	c-0.012,0.011-0.017,0.026-0.017,0.047c0.011,0.01,0.017,0.026,0.017,0.046c0.082,0.031,0.176,0.067,0.279,0.109
	c0-0.011,0.005-0.015,0.016-0.015c0-0.052,0.005-0.099,0.015-0.14c-0.021-0.021-0.04-0.036-0.062-0.047c-0.031,0-0.057,0-0.078,0
	C104.747,35.045,104.689,35.045,104.628,35.045z M104.876,34.594c-0.01-0.041-0.057-0.088-0.14-0.14
	c-0.021,0.052-0.036,0.109-0.047,0.171L104.876,34.594z M104.052,38.39h-0.016c0,0.01,0.006,0.026,0.016,0.046
	c0.031,0.01,0.062,0.021,0.093,0.031C104.114,38.436,104.083,38.41,104.052,38.39z M104.409,36.679l0.016,0.015
	c-0.01-0.02-0.015-0.036-0.016-0.047C104.409,36.659,104.409,36.668,104.409,36.679z M105.296,36.104
	c0.021,0.021,0.047,0.041,0.078,0.062c0.052-0.021,0.088-0.042,0.108-0.062c0-0.031,0-0.062,0-0.094v-0.015
	C105.452,35.995,105.39,36.031,105.296,36.104z M105.482,35.761c-0.021-0.115-0.062-0.223-0.124-0.327
	c-0.042,0.134-0.082,0.274-0.125,0.42C105.358,35.834,105.442,35.803,105.482,35.761z M105.108,36.212
	c0.033-0.01,0.059-0.016,0.078-0.016c-0.01-0.01-0.02-0.021-0.031-0.031h-0.03C105.114,36.175,105.108,36.191,105.108,36.212z
	 M104.798,36.632c0,0.02,0,0.042,0,0.062c0.156,0.28,0.26,0.586,0.311,0.917c0.125,0.249,0.188,0.461,0.188,0.638
	c0.125-0.083,0.207-0.156,0.248-0.218c0.043-0.073,0.068-0.203,0.078-0.389c0-0.228-0.035-0.472-0.107-0.731l-0.359-0.062
	c0.084-0.103,0.156-0.212,0.219-0.327c-0.021-0.051-0.041-0.099-0.062-0.14c-0.083-0.021-0.16-0.042-0.234-0.062
	c-0.051,0.135-0.107,0.259-0.17,0.374C104.886,36.674,104.85,36.652,104.798,36.632z M105.142,38.343
	c0-0.031-0.006-0.073-0.017-0.125c-0.021,0.021-0.036,0.046-0.048,0.077c0.021,0.042,0.043,0.083,0.064,0.125
	C105.142,38.4,105.142,38.374,105.142,38.343z M104.938,37.798c-0.093-0.217-0.176-0.378-0.248-0.482v0.203
	c0.083,0.186,0.181,0.394,0.296,0.622c0-0.011,0-0.021,0-0.031c0-0.073-0.006-0.155-0.016-0.25
	C104.959,37.84,104.948,37.819,104.938,37.798z M104.829,39.028l0.062,0.077h0.094c-0.062-0.083-0.119-0.15-0.172-0.203v0.031
	C104.813,38.966,104.819,38.997,104.829,39.028z M106.089,41.034l0.016,0.015c0.031,0.021,0.058,0.042,0.078,0.063
	C106.131,41.049,106.1,41.023,106.089,41.034z M106.074,40.147c-0.093-0.083-0.177-0.15-0.249-0.203h-0.017l0.017,0.25l0.108,0.078
	c0.062,0.041,0.155,0.067,0.28,0.077C106.204,40.308,106.157,40.241,106.074,40.147z M105.669,40.256
	c-0.072-0.29-0.145-0.487-0.217-0.59c0,0.02,0,0.036,0,0.046c-0.01,0.042-0.047,0.129-0.109,0.264
	C105.405,40.09,105.515,40.183,105.669,40.256z M105.172,40.894c0.021,0.031,0.046,0.062,0.077,0.093c0-0.031,0-0.062,0-0.093
	c-0.021-0.011-0.046-0.015-0.077-0.015V40.894z M105.825,40.567c-0.073,0-0.145,0-0.218,0c0.04,0.062,0.088,0.119,0.14,0.171
	c0.021,0,0.047,0,0.078,0V40.567z M105.358,41.143c0.104,0.134,0.217,0.264,0.342,0.388c-0.01-0.042-0.025-0.083-0.047-0.125
	c-0.072-0.207-0.16-0.353-0.264-0.435C105.38,41.034,105.369,41.09,105.358,41.143z M105.809,41.049
	c0.083,0.114,0.156,0.244,0.218,0.389c-0.01-0.134-0.035-0.249-0.078-0.342C105.897,41.076,105.851,41.06,105.809,41.049z
	 M105.716,41.718c-0.083-0.094-0.182-0.161-0.295-0.202c0.051,0.104,0.066,0.192,0.047,0.265c0.01,0.031,0.107,0.083,0.295,0.155
	c0-0.011,0.006-0.015,0.016-0.015c-0.01-0.053-0.016-0.1-0.016-0.14C105.752,41.759,105.737,41.739,105.716,41.718z M105.249,41.5
	h-0.016v0.016c0,0.01,0.006,0.021,0.016,0.031V41.5z M106.883,41.593c0-0.279-0.28-0.59-0.84-0.933
	c0.166,0.27,0.425,0.581,0.776,0.933H106.883z M107.116,41.671c0,0.021-0.012,0.047-0.031,0.078
	c-0.031,0.051-0.053,0.155-0.062,0.311c0,0.26,0.021,0.597,0.062,1.011l0.467-0.015c0.051,0.114,0.082,0.042,0.093-0.218
	c-0.27-0.705-0.44-1.094-0.514-1.167H107.116z M106.12,41.688c0.032,0.093,0.053,0.191,0.062,0.295c0,0.01,0.005,0.026,0.016,0.046
	c0.135,0.146,0.259,0.28,0.373,0.404h0.141c0-0.01,0.005-0.02,0.015-0.031c-0.03-0.259-0.13-0.529-0.296-0.809
	c-0.104-0.155-0.207-0.279-0.311-0.373l0.062,0.234C106.162,41.537,106.142,41.615,106.12,41.688z M106.416,42.433h-0.078v0.016
	h0.093L106.416,42.433z M106.447,42.729c0.021,0.073,0.026,0.17,0.015,0.296c0.031,0,0.063,0.005,0.094,0.015
	c0.053-0.052,0.083-0.088,0.094-0.108c0.021-0.032,0.042-0.073,0.062-0.125c-0.021-0.031-0.042-0.062-0.062-0.093
	C106.597,42.724,106.53,42.729,106.447,42.729z M106.696,43.056c0.041,0,0.088,0,0.14,0c-0.031-0.042-0.052-0.078-0.062-0.109
	C106.743,42.978,106.717,43.014,106.696,43.056z M106.914,42.884c0.02-0.079,0.03-0.178,0.03-0.295
	c-0.002,0.077-0.023,0.155-0.062,0.233C106.893,42.843,106.903,42.864,106.914,42.884z M107.038,43.538
	c-0.031-0.062-0.062-0.134-0.094-0.217c-0.052,0.011-0.104,0.026-0.154,0.047l-0.063,0.046c0.042,0.042,0.089,0.083,0.14,0.124
	c0.043,0,0.088,0,0.141,0C107.018,43.538,107.027,43.538,107.038,43.538z M107.209,43.538c0.332-0.041,0.472-0.176,0.421-0.404
	c-0.136,0.01-0.307,0.052-0.514,0.125C107.157,43.351,107.188,43.444,107.209,43.538z M86.755,24.236l-0.171,0.248
	c0.063-0.041,0.125-0.077,0.188-0.108c0-0.021,0-0.042,0-0.063L86.755,24.236z M85.061,44.611c-0.115-0.021-0.223-0.042-0.327-0.063
	v0.016c0.032,0.042,0.14,0.062,0.327,0.062c0.011,0,0.026,0,0.046,0C85.086,44.616,85.071,44.611,85.061,44.611z M88.622,44.067
	c-0.051,0.021-0.104,0.046-0.156,0.077h0.187C88.643,44.113,88.633,44.087,88.622,44.067z M113.788,74.708
	c-0.663-0.57-1.26-1.27-1.788-2.099c-0.021-0.031-0.042-0.062-0.063-0.093c-0.113,0.445-0.232,0.928-0.356,1.446
	c-0.155,0.736-0.301,1.451-0.436,2.146c0.611-0.404,1.28-0.778,2.006-1.12C113.368,74.884,113.58,74.791,113.788,74.708z
	 M81.514,108.585c0.25,0.714,0.384,1.223,0.405,1.523c0.021-0.011,0.198-0.082,0.529-0.218c0.062-0.03,0.13-0.052,0.202-0.062
	c-0.021-0.612-0.037-1.151-0.047-1.618c-0.021-0.446-0.042-0.881-0.062-1.306c-0.135-0.063-0.286-0.146-0.452-0.25
	c-0.508-0.343-0.804-0.539-0.886-0.592l-0.031,1.308C81.162,107.484,81.275,107.889,81.514,108.585z"/>
</svg>
