<?xml version="1.0" encoding="utf-8"?>
<!-- Generator: Adobe Illustrator 15.0.0, SVG Export Plug-In . SVG Version: 6.00 Build 0)  -->
<svg version="1.2" baseProfile="tiny" id="Layer_1" xmlns="http://www.w3.org/2000/svg" xmlns:xlink="http://www.w3.org/1999/xlink"
	 x="0px" y="0px" width="200px" height="200px" viewBox="0 0 200 200" overflow="inherit" xml:space="preserve">
<path fill-rule="evenodd" d="M67.066,178.31c0.042,0,0.086,0,0.13,0c0.736-2.32,3.549-1.06,5.574-1.427
	c1.18-0.213,2.711-1.357,4.147-1.943c1.624-0.664,3.29-1.031,4.407-1.686c2.133-1.247,3.309-5.627,4.537-8.167
	c0.764-1.577,1.548-3.249,1.945-4.796c0.192-0.751,0.084-1.396,0.259-1.945c1.117-3.486,4.041-6.91,4.278-10.5
	c0.126-1.916-0.391-4.156-0.131-5.703c0.12-0.711,0.717-1.439,0.778-1.945c0.101-0.809-0.239-1.805-0.259-2.592
	c-0.019-0.748,0.137-1.457,0.13-2.205c-0.064-5.996-0.497-11.748,0.647-16.98c0.601-2.745,1.8-5.215,2.203-7.908
	c0.434-2.891,0.76-5.771,1.815-7.777c-1.948,0.862-3.139,3.598-5.056,4.926c-0.745,1.742-0.828,3.387-1.685,4.926
	c-0.533,0.957-1.673,1.576-1.556,3.111c0.085,0.682,0.912,1.203,0.389,2.074c-0.427,0.928-1.502,0.232-2.334,0.259
	c-0.541,0.018-0.867,0.366-1.426,0.259c-0.821-0.158-1.331-1.15-2.203-0.906c0.05-1.375-1.26-1.34-1.686-2.204
	c-0.777-1.579,0.65-3.892,1.037-4.927c0.236-0.631,0.177-1.332,0.389-1.814c0.664-1.508,2.067-2.494,2.463-3.5
	c3.629-1.6,4.5-5.957,6.871-8.815c-1.647-5.905-0.698-13.718,1.943-18.019c-1.537-0.951-1.591-2.878-1.813-4.926
	c1.891-2.102,3.542-4.4,5.314-6.611c1.78-2.221,3.665-4.4,5.185-6.871c0.387-1.827,3.082-2.946,1.686-5.314
	c-1.166-0.029-1.606,0.649-2.463,0.518c-1.346-0.205-1.668-2.417-3.5-2.203c-0.604-0.994-1.185-2.013-1.556-3.241
	c-1.838-0.016-1.271-2.296-0.778-3.5c-2.032-2.167-1.176-6.597-1.943-9.852c0.562-0.43,0.439-0.439,0.518-1.167
	c0.727-0.571,1.216-1.377,1.686-2.204c0.843,0.563,0.306-0.488,0.519-0.648c0.095-0.07,0.286,0.276,0.39,0.259
	c0.062-0.01,0.184-0.361,0.259-0.389c0.279-0.104,0.891-0.118,1.167-0.26c0.624-0.32,0.934-0.793,1.426-0.907
	c1.055-0.243,1.667,0.005,2.333-0.389c0.584-0.345,0.89-0.117,1.297-0.389c0.254-0.17,0.335-0.463,0.647-0.389
	c2.129-0.012,3.952-0.085,4.537,0.908c1.052,0.045,2.082,0.573,2.982,0.648c-0.294,0.447,0.289,0.594,0.777,0.389
	c-0.273,0.488,0.066,0.459,0.26,0.778c0.881,0.329,1.301,1.119,2.203,1.426c0.184,0.771,1.236,2.353,1.426,3.111
	c-0.273-0.115-0.383-0.395-0.777-0.389c-0.152-0.062,0.897,0.798,1.296,1.038c-0.446,0.719,0.503,1.207,0.519,1.685
	c-0.279-0.158-0.122-0.466-0.388-0.259c0.076-0.059-0.51,1-0.39,0.648c-0.205,0.602,0.354,1.015,0.39,1.814
	c0.008,0.192-0.346,0.211-0.39,0.519c-0.012,0.087,0.13,0.522,0.13,0.519c-0.034,0.51,0.188,0.98-0.13,1.296
	c0.847,0.435,0.725,1.078,1.037,1.944c-0.457,0.326-0.791,1.181-0.519,2.204c-0.554,0.354-0.866,0.949-1.166,1.556
	c-0.483,0.524,0.488,1.025,0.129,1.425c-1.444-0.418-2.275,1.408-3.76,1.038c0.786,0.982,1.202,2.094,2.074,3.241
	c0.764,1.003,1.929,1.753,2.594,2.852c0.685,1.136,1.622,2.696,1.943,4.019c0.206,0.847,0.03,1.831,0.26,2.722
	c0.284,1.105,1.247,2.375,1.814,3.63c0.6,1.327,1.222,2.624,1.815,3.759c1.348,2.579,2.389,5.271,3.37,7.778
	c0.577,1.472,1.704,2.858,2.074,4.407c0.225,0.937,0.048,1.982,0.13,3.112c0.596,8.2,1.64,16.689,0,23.852
	c0.409,1.186,1.922,2.048,2.203,3.5c0.122,0.627-0.095,1.33,0,1.945c0.28,1.824,1.592,3.393,1.427,5.314
	c-0.229,0.377-0.599,0.612-1.297,0.519c0.398,2.068-1.929,2.345-2.723,1.167c-0.724,0.438-0.939,0.981-1.685,0.907
	c-0.627-0.062-0.565-0.825-1.168-0.907c-0.474-0.064-0.577,0.823-1.295,0.389c-1.306-1.036-0.9-2.998-1.297-4.537
	c-0.225-0.869-0.797-1.553-0.908-2.463c-0.155-1.275-0.203-2.979,0-4.278c0.151-0.96,0.713-1.8,0.778-2.852
	c0.095-1.521-0.523-3.448-0.647-5.185c-0.295-4.113-0.657-7.743-0.648-11.409c0.002-1.19,0.252-2.411,0.13-3.241
	c-0.124-0.834-1.024-1.882-1.556-2.852c-1.062-1.934-1.322-3.766-2.593-5.056c-0.334,2.136-1.859,3.571-1.944,5.963
	c-0.037,1.045,0.424,2.289,0.519,3.5c0.19,2.453,0.132,4.953,0.907,6.611c0.479,1.022,1.451,1.758,2.074,2.593
	c0.658,0.883,1.449,1.665,1.814,2.853c1.137,3.694-0.325,8.299-1.945,10.111c-1.957,2.191-7.179,3.815-8.166,6.74
	c-0.305,0.902-0.166,2.27-0.389,3.371c-0.844,4.168-3.144,8.352-3.241,12.314c-0.083,3.373,1.35,4.307,2.853,6.223
	c2.612,3.33,4.144,7.206,5.314,11.926c0.628,2.531,0.477,5.13,1.426,7.389c0.627,1.492,1.792,3.207,2.723,5.057
	c0.926,1.836,1.704,3.941,2.592,5.314c0.919,1.419,3.225,2.635,2.853,4.666c-0.259,1.416-3.031,2.234-4.927,2.464
	c-2.119,0.257-4.693-0.069-6.999,0.519c-0.548,0.139-0.994,0.521-1.556,0.648c-0.976,0.219-2.188,0.072-3.241,0.259
	c-1.174,0.208-2.029,0.679-2.851,0.647c-0.512-0.02-1.125-0.426-1.815-0.518c-1.223-0.164-2.537,0.365-2.464-1.037
	c0.035-0.672,0.885-0.901,1.556-1.426c1.79-1.398,2.274-1.292,4.927-2.204c1.146-0.395,2.299-0.999,3.11-1.167
	c1.089-0.225,2.125-0.156,2.593-0.648c1.029-1.082,0.229-4.002-0.259-5.833c-0.594-2.222-1.044-3.786-1.686-5.444
	c-0.673-1.742-2.151-3.146-3.111-4.926c-1.34-2.487-3.167-4.801-4.019-7c-0.731-1.891-0.587-4.232-2.074-5.574
	c-2.266,3.889-1.511,8.068-3.112,11.666c-0.395,0.889-1.18,1.81-1.814,2.723c-0.629,0.902-1.211,1.934-1.814,2.723
	c-1.33,1.735-2.814,3.443-3.889,5.185c-1.895,3.069-2.122,6.827-1.557,11.148c-0.785,1.388-2.404,2.704-4.277,2.981
	c-0.869,0.129-1.818-0.096-2.723,0c-2.374,0.254-4.718,1.248-7.129,1.297c-1.297,0.025-2.465-0.281-3.5,0.129
	c-0.544-0.4-0.8-0.717-1.556-0.648c-0.403-0.749-0.817-0.71-1.687-0.906c-0.181-0.77-1.09-0.811-1.555-1.297
	c-0.174-0.964-0.304-1.5-0.907-2.203C67.066,178.396,67.066,178.353,67.066,178.31z"/>
</svg>
