<?xml version="1.0" encoding="utf-8"?>
<!-- Generator: Adobe Illustrator 15.0.0, SVG Export Plug-In . SVG Version: 6.00 Build 0)  -->
<svg version="1.2" baseProfile="tiny" id="Layer_1" xmlns="http://www.w3.org/2000/svg" xmlns:xlink="http://www.w3.org/1999/xlink"
	 x="0px" y="0px" width="200px" height="200px" viewBox="0 0 200 200" overflow="inherit" xml:space="preserve">
<path fill-rule="evenodd" d="M104.347,34.053c-0.041,0.01-0.051,0.051-0.101,0.051c0.052,0.098,0.201-0.133,0.253-0.202
	c0.146,1.01-0.423,2.442-0.253,3.643c0.136,0.971,1.244,2.045,2.024,2.732c1.71,1.509,3.689,2.699,5.97,3.492
	c1.197,0.416,2.418,0.631,3.595,1.114c0.931,0.382,1.923,0.964,2.682,1.619c0.839,0.725,1.773,1.759,2.429,2.783
	c1.045,1.635,1.845,2.964,2.43,5.01c0.803,2.818,2.303,5.234,2.985,8.147c0.262,1.12,0.381,2.333,0.91,3.492
	c-0.052,0.883,0.35,1.936,0.506,2.935c0.146,0.933,0.181,1.829,0.557,2.531c1.111,1.954,1.897,4.286,2.024,7.084
	c0.152,3.342,0.181,6.901-0.202,10.223c-0.213,1.832-0.545,4.295-0.456,6.173c0.062,1.318,0.646,2.592,1.215,3.542
	c0.666,1.113,1.705,1.915,2.632,2.682c0.422,1.046,0.888,2.047,1.618,2.783c-0.091,0.807,0.714,1.502,0.811,2.125
	c0.115,0.754-0.374,1.145-1.012,0.911c-0.44-0.16-1.159-0.89-1.367-1.315c-0.099-0.203-0.099-0.537-0.202-0.709
	c-0.391-0.646-1.217-0.966-2.025-1.214c-0.97,1.377-0.801,3.942-0.707,6.224c0.047,1.136,0.095,2.012,0.05,2.986
	c-0.039,0.867,0.29,2.375-0.455,2.479c-2.03,0.282-0.936-3.192-1.72-4.353c-0.039-0.766,0.075-1.914-0.557-1.923
	c-0.209,1.494-0.275,3.62-0.102,5.263c0.103,0.974-0.329,2.461-1.013,2.531c-1.372,0.14-0.876-2.334-1.266-3.341
	c0.175-0.646,0.128-1.724,0-2.378c-0.29,0.577-0.091,1.209-0.201,1.872c-0.042,0.252-0.25,0.519-0.305,0.81
	c-0.104,0.576,0.056,1.221-0.252,1.568c-0.594,0.938-1.534,0.302-1.62-0.708c-0.038-0.453,0.143-1.083,0.203-1.72
	c0.042-0.453-0.025-0.914,0-1.367c0.013-0.254,0.137-0.514,0.151-0.759c0.016-0.271-0.066-0.512-0.05-0.759
	c0.063-0.977,0.384-1.875,0.201-2.531c-0.402,0.137-0.39,0.689-0.455,1.164c-0.37,0.895-0.435,2.097-0.911,2.885
	c-0.401,0.444-1.102,0.6-1.265-0.253c-0.197-1.034,0.453-2.686,0.606-3.796c0.104-0.735,0.308-1.344,0.456-2.176
	c0.154-0.865,0.048-1.832,0.152-2.732c0.101-0.873,0.381-1.434,0.455-2.429c0.059-0.802,0.151-1.489,0.354-2.125
	c0.183-0.571,0.596-1.068,0.811-1.771c0.287-0.939-0.256-2.868-0.152-4.149c0.118-1.46-0.373-3.548-0.759-5.061
	c-0.382-1.494-0.775-3.056-0.961-4.555c-0.28-2.263-0.996-4.356-1.113-6.933c-0.039-0.834,0.136-1.824,0.101-2.479
	c-0.081-1.55-1.185-2.697-1.872-3.896c-0.783-1.366-1.193-2.747-1.872-3.896c-0.049-0.21,0.023-0.249-0.052-0.456
	c-0.639-1.173-1.077-2.873-1.72-4.2c0.023-0.114-0.274-0.156-0.304-0.05c-0.094-0.261-0.127-0.581-0.304-0.76
	c-0.59,0.269-0.785,1.041-1.012,1.62c-0.491,1.245-0.979,2.432-1.416,3.846c-0.593,1.912-0.754,4.018-0.76,6.528
	c-0.002,0.171,0.039,0.337,0.05,0.506c0.174,2.681,0.036,5.494,0.153,8.249c0.01,0.26,0.122,0.544,0.15,0.86
	c0.043,0.463-0.062,0.958-0.051,1.417c0.024,1,0.264,2.083,0.557,3.137c0.271,0.972,0.451,2.013,0.658,3.037
	c0.396,1.949,1.188,3.838,1.568,5.819c0.782,4.067,1.824,8.335,2.023,12.703c0.037,0.798,0.038,1.711,0,2.53
	c-0.122,2.713,0.103,5.338-0.05,8.096c-0.101,1.818-0.453,3.602-0.759,5.364c-0.294,1.688-0.811,3.401-0.91,5.161
	c-0.104,1.829-0.148,3.717-0.151,5.517c-0.002,1.04,0.149,2.14,0.303,3.188c0.139,0.942,0.432,1.876,0.607,2.834
	c0.434,2.372,0.812,4.838,0.96,7.236c0.113,1.803-0.161,3.434-0.303,5.01c-0.16,1.802-0.497,3.413-0.809,5.061
	c-0.164,0.866-0.192,1.761-0.354,2.581c-0.457,2.295-0.777,4.572-0.911,6.982c-0.064,1.146-0.271,2.245-0.202,3.341
	c0.043,0.7,0.255,1.409,0.303,2.125c0.052,0.758-0.15,1.526-0.101,2.278c0.027,0.4,0.35,0.875,0.557,1.264
	c0.594,1.115,1.352,2.371,2.226,3.139c0.469,0.41,1.224,0.662,1.62,1.062c0.462,0.465,0.803,1.113,1.266,1.619
	c0.469,0.514,1.145,1.01,1.062,1.771c-0.14,0.113-0.231,0.274-0.506,0.252c0.018,0.254-0.015,0.459-0.103,0.607
	c-0.202,0.117-0.528,0.11-0.859,0.102c-0.205,0.064-0.12,0.42-0.355,0.455c-0.41,0.023-0.741-0.032-0.91-0.254
	c-0.224,0.195-0.29,0.67-0.708,0.709c-0.264,0.025-0.523-0.109-0.81-0.102c-0.61,0.02-1.134,0.508-1.519,0.558
	c-0.562,0.073-1.207-0.169-1.67-0.405c-0.438-0.225-0.732-0.659-1.112-0.91c-0.352-0.232-0.82-0.35-1.062-0.607
	c-0.358-0.381-0.656-1.232-0.86-1.822c-0.146-0.416-0.133-0.795-0.557-1.012c-0.357-0.184-0.843-0.156-1.215-0.303
	c-0.816-0.324-1.035-0.76-1.62-1.316c-0.543-1.951,0.557-3.767,0.455-6.072c-0.106-2.432,0.232-5.215,0.052-7.743
	c-0.088-1.208-0.34-2.406-0.456-3.593c-0.23-2.348-0.756-4.576-1.417-6.68c-0.347-1.1-0.436-2.221-0.708-3.289
	c-0.354-1.385-0.672-3.686-0.507-5.415c0.097-0.995,0.269-1.968,0.354-2.985c0.122-1.449,0.532-2.643,0.406-4.402
	c-0.147-2.039-0.943-4.094-1.367-6.275c-0.458-2.352-0.803-4.767-0.911-7.135c-0.061-1.334-0.016-2.586-0.254-3.694
	c-0.28-1.306-0.795-2.627-1.112-3.997c-0.315-1.365-0.646-2.73-0.912-4.149c-0.547-2.936-0.754-5.932-1.215-8.907
	c-0.675,0.607-1.267,1.298-2.377,1.468c-0.392,3.468-0.749,7.06-1.57,10.323c-0.489,1.954-1.043,4.176-1.416,6.376
	c-0.126,0.745-0.204,1.478-0.304,2.227c-0.229,1.735-0.351,3.437-0.607,5.161c-0.404,2.723-1.504,5.518-2.024,8.3
	c-0.029,0.159-0.039,0.339-0.051,0.506c-0.149,2.294,0.503,4.726,0.506,7.136c0.004,1.854-0.083,3.584-0.506,5.211
	c-0.439,1.695-0.752,3.357-1.266,4.96c-0.261,0.82-0.422,1.643-0.606,2.479c-0.536,2.445-1.251,5.117-1.417,7.945
	c-0.053,0.908-0.166,1.88-0.05,2.732c0.131,0.964,0.546,1.953,0.506,3.087c-0.016,0.415-0.169,0.909-0.202,1.417
	c-0.076,1.135,0.108,2.426,0,3.492c-0.188,1.818-1.081,3.25-2.936,3.339c-0.399,0.774-0.784,1.925-1.417,2.581
	c-0.46,0.478-1.117,0.615-1.771,0.961c-0.288,0.152-0.507,0.434-0.76,0.557c-1.172,0.569-2.509,0.229-3.188-0.506
	c-0.735,0.305-1.55,0.072-1.771-0.557c-0.896,0.189-0.836-0.16-1.315-0.658c-0.211-0.219-0.501-0.342-0.555-0.708
	c-0.434-0.04-0.475-0.471-0.861-0.556c0.462-1.191,1.916-1.391,2.43-2.531c2.34-1.285,4.275-2.978,5.616-5.263
	c-0.324-0.787-0.294-1.587-0.152-2.327c0.512-2.688-0.226-5.812-0.354-8.654c-0.021-0.463,0.031-0.92,0-1.365
	c-0.179-2.5-0.892-4.964-1.063-7.49c-0.033-0.497,0.047-1.018,0-1.518c-0.033-0.359-0.173-0.711-0.202-1.063
	c-0.117-1.407,0.058-2.829,0-4.2c-0.101-2.393,0.296-4.614,0.608-6.982c0.047-0.365,0.132-0.724,0.201-1.062
	c0.07-0.342,0.26-0.576,0.355-0.911c0.106-0.384,0.101-0.927,0.15-1.366c0.179-1.56,0.172-3.441,0.254-5.313
	c0.064-1.503,0.128-2.974-0.102-4.402c-0.703-4.374-1.632-8.308-1.619-13.157c0.016-6.402,1.062-12.861,2.328-18.42
	c0.195-0.861,0.43-1.687,0.658-2.53c0.418-1.554,0.695-2.998,1.112-4.453c0.181-0.625,0.257-1.279,0.456-1.873
	c0.056-0.168,0.192-0.297,0.253-0.456c0.251-0.653,0.22-1.309,0.404-1.973c0.049-0.178,0.193-0.324,0.253-0.506
	c0.401-1.221,0.326-2.827,0.102-4.302c0.082-0.199-0.219-0.017-0.202-0.152c-0.119-1.247,0.299-2.195,0.403-3.289
	c0.046-0.468-0.037-0.994-0.05-1.518c-0.025-1.014,0.16-2.113,0.05-2.935c-0.033-0.255-0.197-0.453-0.252-0.708
	c-0.265-1.25,0.033-2.542-0.051-3.796c-0.045-0.674-0.209-1.526-0.455-2.176c-0.431-1.132-0.792-2.433-1.266-3.745
	c-0.202-0.562-0.334-1.257-0.606-1.619c-0.115-0.152-0.118-0.177-0.253-0.152c-0.068-0.252-0.076-0.566-0.354-0.607
	c-0.226-0.023-0.11,0.294-0.254,0.354c-0.117-0.076-0.076-0.124-0.05-0.252c-0.67,0.912-0.973,2.078-1.519,3.137
	c-0.149,0.289-0.193,0.683-0.404,1.063c-0.088,0.159-0.313,0.254-0.404,0.404c-0.432,0.706-0.584,1.586-1.013,2.277
	c-0.481,0.778-1.062,1.476-1.518,2.227c-0.479,0.79-0.854,1.603-1.468,2.277c-0.103,0.338-0.047,0.701-0.153,1.062
	c-0.072,0.253-0.32,0.454-0.403,0.708c-0.267,0.813-0.215,1.961-0.354,2.986c-0.521,3.822-1.738,7.19-2.53,10.779
	c-0.396,1.794-0.854,3.425-1.315,5.313c-0.403,1.65-0.58,2.965,0.101,4.149c0.2,0.349,0.461,0.689,0.759,0.961
	c0.242,0.885,0.754,1.811,0.912,2.884c0.087,0.596-0.023,1.159,0.202,1.67c0.19,0.433,0.551,0.708,0.759,1.063
	c0.093,1.107,1.243,2.838-0.051,3.339c-2.289,0.023-2.459-2.496-3.441-3.946c-0.463,0.127-0.799,0.381-1.265,0.506
	c-0.106,0.248-0.229,0.48-0.254,0.81c-0.413,0.328-0.609,0.978-0.859,1.569c-0.162,0.382-0.477,0.794-0.354,1.214
	c0.052,0.266,0.201-0.142,0.253,0c-0.45,0.913,1.407,3.694-0.354,4.2c-0.397,1.018,0.338,1.665,0.254,2.732
	c-0.021,0.246-0.229,0.465-0.203,0.759c-0.197,0.376-0.487,0.659-0.91,0.81c-0.503-0.273-0.534-1.018-1.013-1.315
	c-0.22-0.627-0.352-1.365-0.557-2.075c-0.199-0.693-0.558-1.262-0.759-1.821c-0.152-0.425-0.029-1.29,0-1.923
	c0.035-0.78,0.035-1.614,0.051-2.328c0.021-0.929-0.365-1.678-0.304-2.682c0.033-0.555,0.29-1.132,0.404-1.721
	c0.118-0.608,0.225-1.199,0.354-1.771c0.267-1.176,0.653-2.376,0.76-3.441c0.433-4.365-0.618-8.938-0.152-12.955
	c0.436-3.746,0.536-8.107,1.974-11.233c0.267-0.581,0.72-1.017,0.961-1.569c0.736-1.678,1.194-3.832,1.619-5.77
	c0.881-1.707,1.062-3.761,1.873-5.465c0.317-0.667,0.72-1.287,1.013-1.922c0.306-0.666,0.534-1.34,1.011-1.873
	c0.468-1.538,0.813-3.029,1.569-4.251c0.746-1.204,1.402-2.483,2.378-3.441c1.669-1.635,4.142-2.699,6.629-3.44
	c3.301-0.984,6.169-3.028,8.604-4.909c0.104-0.283,0.28-0.494,0.454-0.708c-0.061-1.134-0.089-2.426-0.404-3.492
	c0.727-1.146-0.653-1.668-0.606-2.885c-0.758,0.127-1.734-0.385-1.367-1.214c0.297,0.142,0.457,0.875,0.91,0.405
	c-0.155-0.612-1.06-0.531-1.416-1.164c-0.159-0.282-0.199-0.614-0.202-1.113c-0.271-0.234-0.886-0.471-1.013-0.962
	c-0.118-0.449-0.118-1.113,0.151-1.417c-0.095-0.181-0.117-0.387-0.151-0.506c-0.238,0.021,0.037,0.262-0.051,0.455
	c-0.174-0.056-0.179-0.34-0.102-0.506c-0.167-0.322-0.401-0.577-0.404-1.063c0.122-0.293,0.106,0.343,0.254,0.354
	c0.006-0.369-0.213-0.735,0-1.012c0.188-0.039,0.033,0.269,0.252,0.203c-0.128-0.61-0.738-1.187-0.252-1.822
	c-0.316-0.434-0.048-0.896,0.05-1.316c0.073-0.313,0.036-0.708,0.101-1.062c0.047-0.257,0.194-0.521,0.203-0.709
	c0.022-0.555-0.191-0.918,0.202-1.315c0.224-0.226,0.916-0.298,0.657-0.86c-0.192-0.221-0.479,0.193-0.557-0.051
	c-0.021-0.325,0.341-0.266,0.507-0.405c0.197-0.46,0.517-0.799,0.911-1.062c0.062-0.54,0.499-1.066,0.81-1.518
	c0.616,0.078,0.815-0.263,1.365-0.253c-0.142-0.492,0.415-0.716,0.76-0.911c1.036,1.134,1.714-2.129,3.593-1.164
	c0.703-1.002,2.314-0.983,3.087-0.102c0.794-0.657,1.953,0.002,2.226,0.557c-0.125,0.007-0.156-0.08-0.252-0.102
	c0.208,0.544,1.436,0.215,1.721,0.81c-0.209,0.042-0.503-0.228-0.76-0.304c0.34,0.258,0.728,0.696,1.113,0.607
	c0.133,0.188,0.332,0.31,0.405,0.557c0.116-0.285-0.356-0.417-0.354-0.758c0.591,0.252,0.59,1.097,1.164,1.366
	c0,0.463,0.188,1.063,0.607,1.265c-0.308,0.781,0.485,1.141,0.911,1.67c0.363,0.452,0.387,0.896,0.606,1.619
	c0.162-0.331-0.232-0.543-0.152-0.961c0.381,0.396,0.234,1.32,0.558,1.771c-0.095,0.167-0.275,0.739-0.051,0.759
	c0.046,0.235-0.167-0.034-0.151,0.102c-0.057,0.385,0.447,0.721,0.101,1.062c0.054,0.224,0.229,0.062,0.354,0.151
	c-0.06,0.076-0.044,0.227-0.202,0.203c0.244,0.48,0.676,1.386,0.253,1.922c0.212,0.194,0.272,0.537,0.354,0.861
	c-0.357,0.215-0.637,0.51-0.809,0.911c0.132,0.015,0.217-0.019,0.202-0.152c0.167,0.273-0.304,0.445,0.202,0.456
	c-0.032,0.188-0.284,0.155-0.506,0.152c0.035,0.219,0.415,0.091,0.404,0.354c-0.234,0.034-0.643-0.103-0.657,0.152
	c0.032,0.229,0.285,0.126,0.557,0.202c-0.45,0.243-0.384,1-0.86,1.215c0.122,0.866-0.594,1.314-1.113,1.214
	c-0.11,0.159-0.227,0.312-0.254,0.557c0.143-0.192,0.186-0.121,0.254,0.101c0.141,0.023-0.039-0.275,0.102-0.253
	c0.553,0.732-0.123,1.491-1.267,1.113c-0.107,0.412,0.181,0.428,0.254,0.658c-0.223,0.073-0.386,0.208-0.556,0.202
	c0.07,0.336-0.094,0.45,0.05,0.81c-0.126,0.066-0.158-0.2-0.202-0.051C104.827,33.151,104.586,33.601,104.347,34.053z"/>
</svg>
