<?xml version="1.0" encoding="utf-8"?>
<!-- Generator: Adobe Illustrator 15.0.0, SVG Export Plug-In . SVG Version: 6.00 Build 0)  -->
<svg version="1.2" baseProfile="tiny" id="Layer_1" xmlns="http://www.w3.org/2000/svg" xmlns:xlink="http://www.w3.org/1999/xlink"
	 x="0px" y="0px" width="200px" height="200px" viewBox="0 0 200 200" overflow="inherit" xml:space="preserve">
<g>
	<g id="Layer_2_12_">
		<path id="path5_19_" fill="#010101" d="M106.104,19.004c0.21,0.064,0.435,0.229,0.674,0.498c0.632,0.47,1.12,0.919,1.47,1.348
			c0.588,0.597,0.882,1.205,0.882,1.822c0,0.161-0.051,0.286-0.155,0.375c-0.011,0.008-0.026,0.02-0.044,0.033
			c0.021,0.031,0.043,0.064,0.065,0.099v-0.11h0.067c0.008,0.085,0.015,0.17,0.021,0.254c0.364,0.606,0.606,1.251,0.729,1.932
			c0.231,0.548,0.424,1.145,0.574,1.789h0.132l0.011,0.718c0.005,0.018,0.008,0.037,0.012,0.055
			c0.205,1.119,0.309,2.488,0.309,4.107l-0.021,1.988c0.292,1.021,0.498,1.822,0.618,2.407v1.855l-0.221,0.022
			c0-0.97-0.138-2.111-0.41-3.423l-0.011,1.457c0.044-0.058,0.096-0.102,0.155-0.132c-0.088,0.166-0.144,0.457-0.165,0.873
			c0.011,0.063,0.023,0.125,0.033,0.188c0.074,0.447,0.127,1.103,0.154,1.966c0.064,0.414,0.146,0.9,0.243,1.458
			c0.589,0.619,0.884,1.179,0.884,1.678c0,0.063-0.008,0.137-0.022,0.221c0.159,0.273,0.299,0.516,0.419,0.729
			c0.162,0.206,0.331,0.382,0.508,0.529l-0.044,0.023c-0.088-0.074-0.192-0.17-0.309-0.288c0.028,0.044,0.051,0.081,0.065,0.11
			c0.089,0.104,0.155,0.199,0.199,0.288c0.014,0.014,0.132,0.198,0.353,0.552c0.221,0.338,0.53,0.846,0.928,1.523
			c0.015,0.015,0.037,0.037,0.065,0.066l-0.044,0.022c-0.015-0.029-0.029-0.059-0.044-0.088c-0.25-0.382-0.575-0.891-0.972-1.523
			c-0.103-0.148-0.205-0.31-0.31-0.487c-0.25-0.324-0.523-0.633-0.816-0.927c0.103,0.206,0.191,0.427,0.266,0.663
			c0.014,0,0.021,0.007,0.021,0.022c0.162,0.162,0.346,0.405,0.553,0.729c0.103,0.206,0.221,0.435,0.353,0.685
			c0.028,0.044,0.06,0.096,0.089,0.154c0.146,0.192,0.309,0.419,0.486,0.685c0,0.015,0.007,0.037,0.021,0.066
			c0.413,0.368,0.729,0.677,0.949,0.927c0.015,0.03,0.029,0.059,0.045,0.088l-0.045,0.022c-0.014-0.014-0.051-0.051-0.11-0.11
			c-0.117-0.132-0.317-0.331-0.596-0.596c0.146,0.221,0.278,0.42,0.396,0.596c0.045,0.103,0.096,0.207,0.154,0.309
			c0.026,0.019,0.052,0.041,0.078,0.067c-0.011-0.01-0.021-0.017-0.033-0.022c0.221,0.412,0.353,0.735,0.396,0.971
			c0.28,0.309,0.472,0.56,0.576,0.75l-0.066,0.022c-0.104-0.161-0.259-0.382-0.465-0.662c0,0.045,0,0.082,0,0.11
			c0,0.088-0.015,0.11-0.045,0.066c-0.044-0.132-0.08-0.257-0.109-0.375c-0.236-0.266-0.523-0.575-0.861-0.929
			c0.162,0.25,0.353,0.53,0.574,0.839c0.413,0.544,0.707,1.031,0.884,1.458c0.147,0.161,0.316,0.332,0.507,0.507v0.023
			c-0.162-0.163-0.322-0.309-0.485-0.442c0.104,0.235,0.162,0.456,0.176,0.663v0.375l-0.021,0.022
			c0.146,0.398,0.222,0.7,0.222,0.906c0,0.059-0.009,0.095-0.022,0.11h-0.045c-0.146-0.441-0.376-0.971-0.685-1.59
			c0.132,0.383,0.229,0.699,0.286,0.949c0.104,0.28,0.156,0.508,0.156,0.685l-0.045,0.177c0.205,0.574,0.309,1.148,0.309,1.723
			c0,0.029,0,0.073,0,0.132c0.06,0.294,0.089,0.545,0.089,0.751l-0.065,0.574h-0.045c0-0.044,0-0.095,0-0.154l-0.045,0.817
			c0.015,0.368,0.021,0.751,0.021,1.149l-0.043,0.331h-0.045c0.117,0.824,0.266,1.774,0.441,2.849l-0.088,0.022
			c-0.059-0.338-0.118-0.663-0.176-0.972h-0.066c-0.016-0.162-0.038-0.375-0.065-0.641h-0.044c-0.017-0.029-0.024-0.059-0.024-0.088
			c-0.015,0.133-0.029,0.28-0.044,0.441c0,0.309,0,0.618,0,0.928l-0.021,0.596h-0.044c0-0.279-0.016-0.58-0.045-0.905
			c-0.045,0.207-0.088,0.427-0.133,0.663c-0.147,0.603-0.257,1.067-0.332,1.391c-0.058,0.309-0.116,0.633-0.177,0.972l-0.087,0.023
			c-0.036,0.157-0.073,0.304-0.109,0.442c-0.046,0.102-0.075,0.212-0.089,0.331c-0.266,1.295-0.405,1.996-0.421,2.098l-0.066,0.021
			v-0.021c-0.043,0.161-0.102,0.308-0.176,0.442h-0.021c-0.044,0.147-0.096,0.264-0.154,0.353c-0.029,0.192-0.053,0.397-0.066,0.618
			c0,0.059-0.008,0.14-0.023,0.244c-0.014,0.073-0.021,0.139-0.021,0.198l0.021,0.066h-0.044c-0.235,1.015-0.964,3.091-2.186,6.227
			c-0.147,0.384-0.288,0.759-0.42,1.127c-1.061,2.812-1.657,4.63-1.789,5.456c-0.028,0.043-0.065,0.11-0.11,0.198
			c-0.073,0.206-0.11,0.647-0.11,1.325l-0.066,1.7l0.045,0.288c-0.03,0.044-0.045,0.081-0.045,0.11
			c-0.015,0.338,0.817,2.164,2.496,5.476c1.664,3.726,2.43,6.818,2.296,9.276c-0.058,1.37-0.692,3.1-1.899,5.189
			c-1.781,3.122-4.159,4.719-7.132,4.793c-0.737,0.339-1.612,0.508-2.628,0.508c-1.561,0-3.151-0.147-4.771-0.441
			c-0.796-0.147-1.465-0.295-2.011-0.442c-0.472,1.591-1.266,2.386-2.384,2.386c-0.429,0-0.766-0.089-1.017-0.266
			c-0.162-0.117-0.42-0.376-0.772-0.773c-0.016,0.162,0.073,0.811,0.264,1.943c-0.102,1.076-0.815,1.613-2.142,1.613
			c-1.089,0-1.715-0.545-1.877-1.635c0-0.029,0.045-0.817,0.133-2.363c0-0.207,0.141-1.325,0.42-3.357
			c0.059-0.324,0.103-0.617,0.132-0.883c-0.044,0.015-0.103,0.021-0.177,0.021c-0.221,0-0.412-0.08-0.574-0.242
			c0.148,0.117,0.34,0.176,0.574,0.176c0.074,0,0.141-0.008,0.199-0.021c0.044-0.148,0.066-0.287,0.066-0.42
			c-0.103,0.088-0.198,0.133-0.287,0.133c-0.28,0-0.465-0.162-0.553-0.486c-0.06-0.235-0.16-0.383-0.31-0.441
			c0.074,0.014,0.149,0.022,0.222,0.022v-0.045l0.045-0.221l-0.442-0.022c0,0.104,0.045,0.184,0.133,0.243
			c-0.059-0.029-0.11-0.044-0.154-0.044v0.066c0.029,0.191,0.072,0.367,0.132,0.529c-0.06-0.088-0.125-0.191-0.198-0.309
			c0.029,0.426,0.176,0.699,0.441,0.817l-0.154,0.021c-0.073-0.044-0.148-0.096-0.221-0.154H86.8
			c-0.162-0.206-0.257-0.413-0.287-0.618c0-0.074,0-0.266,0-0.574c-0.176-0.104-0.286-0.258-0.331-0.465c0-0.059,0-0.154,0-0.286
			c-0.029-0.028-0.065-0.052-0.109-0.066l-0.088,1.877c0.059,0.177,0.146,0.383,0.265,0.618h-0.176
			c-0.179-0.515-0.296-0.861-0.354-1.037c-0.029-0.207-0.037-0.508-0.022-0.906c0.015-0.339,0.065-0.699,0.155-1.082
			c-0.045,0.074-0.096,0.162-0.155,0.266l-0.044-0.023c0.103-0.16,0.191-0.316,0.266-0.463c0-0.029,0-0.052,0-0.066v-0.022
			c-0.031-0.132-0.052-0.242-0.066-0.331l-0.045-0.021c-0.235-0.06-0.346-0.31-0.331-0.751c0.014-0.339,0.126-0.722,0.331-1.148
			c0-0.119,0-0.244,0-0.376c0.012-0.181,0.049-0.372,0.111-0.574c-0.052,0.152-0.101,0.296-0.144,0.43
			c0.056-0.195,0.103-0.398,0.144-0.607c-0.015-0.059-0.031-0.11-0.045-0.154c-0.045,0.118-0.089,0.221-0.133,0.31
			c-0.014,0.043-0.021,0.102-0.021,0.176v0.022c-0.03,0.25-0.06,0.493-0.089,0.729c-0.009,0.022-0.016,0.044-0.022,0.066
			c-0.088,0.515-0.184,0.891-0.286,1.126l-0.066,0.022c0.073-0.25,0.146-0.523,0.221-0.817c-0.044,0.132-0.088,0.235-0.133,0.309
			h-0.044c0.073-0.147,0.147-0.302,0.221-0.464c0.058-0.324,0.11-0.685,0.153-1.082c-0.028,0.059-0.063,0.104-0.109,0.133
			c0.03-0.075,0.06-0.14,0.089-0.199c-0.059-0.133-0.125-0.34-0.199-0.619c0,0.059,0,0.118,0,0.177
			c-0.015,0.235-0.021,0.486-0.021,0.751c-0.075,0.044-0.118,0.059-0.133,0.044c0.073-0.118,0.089-0.265,0.044-0.442
			c-0.015-0.235-0.021-0.375-0.021-0.419v-0.066c-0.222-0.309-0.405-0.596-0.553-0.861c0.045,0.427,0.11,1.008,0.198,1.745
			l-0.044,0.044c-0.089-0.677-0.161-1.215-0.222-1.612c-0.027,0.309-0.043,0.604-0.043,0.883c-0.016-0.074-0.023-0.154-0.023-0.243
			c-0.044-0.441-0.065-0.758-0.065-0.949c0-0.118,0-0.236,0-0.354v-0.023c-0.133-0.382-0.198-0.875-0.198-1.479
			c0-0.103,0-0.199,0-0.288c0-0.044-0.008-0.095-0.022-0.154c-0.028-0.074-0.045-0.191-0.045-0.353
			c-0.133-0.192-0.234-0.42-0.309-0.685l-0.088,0.53h-0.089l-0.045-0.463c0-0.207,0.03-0.442,0.089-0.707
			c-0.103-0.207-0.169-0.413-0.198-0.619c-0.044-0.191-0.066-0.699-0.066-1.524c-0.015-0.117-0.021-0.228-0.021-0.331
			c0-0.103,0.021-0.229,0.064-0.375c0-0.604,0.022-1.126,0.066-1.568c-0.029-0.147-0.036-0.338-0.022-0.574
			c0-0.118,0.016-0.28,0.045-0.486c0-0.014,0-0.037,0-0.066c-0.206,1.03-0.295,1.907-0.267,2.628h-0.087l-0.066-0.663
			c0-0.589,0.059-1.177,0.177-1.767c-0.088-0.117-0.134-0.324-0.134-0.618c-0.206,0.795-0.315,1.648-0.331,2.562h-0.132
			l-0.044-0.574c0-0.339,0.051-0.744,0.155-1.215l-0.023-0.11c0-0.634,0.065-1.303,0.199-2.01c0.087-0.53,0.198-0.928,0.33-1.192
			l-0.021-0.464c-0.044,0.265-0.066,0.427-0.066,0.486l-0.066-0.795c0-0.177,0.061-0.575,0.178-1.192
			c-0.045-0.309-0.082-0.641-0.111-0.994c0-0.029,0-0.051,0-0.066c-0.059,0.323-0.102,0.662-0.132,1.016
			c-0.06,0.397-0.096,0.824-0.11,1.28h-0.044l-0.09-0.861c0-0.104,0.03-0.272,0.09-0.508c-0.295-0.176-0.471-0.413-0.53-0.708
			c-0.029-0.118-0.045-0.405-0.045-0.861c0-0.486,0.03-0.913,0.089-1.28v-0.044c0.074-0.427,0.14-0.817,0.198-1.17l0.088-1.635
			c0-0.044,0.008-0.096,0.022-0.154l-0.022,0.044c-0.396,0.972-0.677,1.554-0.839,1.746c0.31-0.486,0.567-1.053,0.773-1.701
			c0.015-0.074,0.045-0.14,0.088-0.199c0-0.118,0-0.229,0-0.331l-0.022-0.11c-0.176,0.56-0.286,0.964-0.33,1.215h-0.045V76.82
			c0-0.074,0.088-0.354,0.266-0.84c-0.074,0.104-0.148,0.207-0.221,0.31c-0.221,0.441-0.494,0.854-0.817,1.236h-0.022
			c0.293-0.338,0.544-0.728,0.75-1.17c-0.043,0.044-0.081,0.082-0.11,0.11c0.133-0.162,0.25-0.376,0.354-0.641
			c0.059-0.161,0.118-0.345,0.175-0.552c0.03-0.147,0.061-0.287,0.089-0.419c0.06-0.677,0.104-1.259,0.133-1.745
			c-0.059,0.177-0.103,0.354-0.133,0.531c-0.103,0.486-0.221,1.03-0.354,1.634l-0.021-0.155c0-0.324,0.096-0.921,0.286-1.789
			c0.046-0.265,0.089-0.5,0.134-0.706c0-0.03-0.009-0.052-0.022-0.067c-0.134,0.633-0.323,1.509-0.574,2.628
			c0.014,0.118,0.029,0.229,0.044,0.331v0.022c-0.044-0.059-0.073-0.147-0.088-0.265h-0.022l-0.022-0.221v-0.022
			c0-0.029,0-0.06,0-0.088c0-0.221,0-0.353,0-0.398c-0.03,0.06-0.051,0.118-0.065,0.177l-0.045,0.022
			c0.029-0.133,0.066-0.258,0.11-0.375c0.015-0.87,0.17-1.598,0.465-2.187c-0.016,0.044-0.029,0.096-0.046,0.154
			c-0.087,0.266-0.154,0.567-0.198,0.906c0.045-0.192,0.096-0.405,0.154-0.641c0.061-0.266,0.119-0.5,0.177-0.707
			c-0.072-0.279-0.124-0.544-0.154-0.795c-0.044,0.059-0.081,0.125-0.111,0.199l-0.242,0.707h-0.021v-0.022
			c-0.045,0.119-0.082,0.251-0.11,0.398l-0.023-0.155c-0.249,0.678-0.375,1.2-0.375,1.568c0,0.03,0.021,0.096,0.066,0.199
			c0.043,0.103,0.065,0.192,0.065,0.266c-0.073-0.073-0.125-0.177-0.154-0.309c-0.015-0.074-0.022-0.14-0.022-0.199
			c0-0.662,0.162-1.325,0.486-1.987c0-0.103,0.022-0.206,0.066-0.309c0.103-0.383,0.184-0.604,0.243-0.663
			c-0.03,0.147-0.075,0.353-0.133,0.618c0.044-0.074,0.087-0.147,0.133-0.221c0.014-0.073,0.037-0.155,0.065-0.242
			c0-0.015,0-0.029,0-0.045c-0.028-0.221-0.044-0.419-0.044-0.596c-0.103,0.236-0.236,0.544-0.397,0.927h-0.044l0.419-1.038
			c0-0.192,0-0.361,0-0.508c0-0.015,0-0.044,0-0.088c-0.176,0.515-0.303,0.802-0.375,0.861c0.146-0.426,0.272-0.758,0.375-0.994
			c0-0.029,0.008-0.044,0.022-0.044c0-0.074,0.008-0.155,0.022-0.243c-0.147,0.206-0.244,0.382-0.287,0.529h-0.066
			c0.029-0.192,0.146-0.419,0.354-0.685c0.088-0.986,0.214-1.627,0.375-1.922c0.074-0.118,0.17-0.235,0.287-0.353
			c-0.015-0.206-0.051-0.419-0.109-0.64c-0.045,0.132-0.074,0.243-0.088,0.331c-0.12,0-0.185-0.022-0.199-0.066
			c0.029-0.073,0.117-0.229,0.264-0.463c-0.117-0.515-0.271-1.009-0.463-1.48c-0.029-0.029-0.045-0.06-0.045-0.088
			c-0.103,0.25-0.168,0.441-0.198,0.574h-0.044c0-0.132,0.066-0.353,0.198-0.662c-0.029-0.074-0.052-0.154-0.066-0.243
			c-0.132,0.323-0.25,0.596-0.353,0.817l-0.022-0.132c0-0.132,0.096-0.435,0.287-0.906c-0.044-0.162-0.082-0.316-0.11-0.464
			l-0.066,0.199l-0.044-0.022c0.028-0.103,0.066-0.213,0.11-0.331c-0.044-0.207-0.066-0.413-0.066-0.618
			c-0.015,0.088-0.029,0.176-0.044,0.265c-0.03,0.324-0.059,0.802-0.089,1.436l-0.066,0.044c0.045-0.648,0.082-1.142,0.111-1.48
			c0.014-0.162,0.044-0.316,0.088-0.464c0-0.044,0-0.081,0-0.11c0-0.177,0.022-0.36,0.066-0.552
			c-0.044,0.073-0.09,0.154-0.133,0.243c0,0.045,0,0.081,0,0.11h-0.044c-0.074,0.148-0.155,0.317-0.244,0.508l-0.021-0.022
			c0.102-0.206,0.19-0.405,0.265-0.597v-0.441c0.06-0.118,0.147-0.354,0.265-0.707c-0.191,0.369-0.316,0.662-0.375,0.883
			l-0.045-0.022c0.029-0.25,0.19-0.633,0.486-1.148c0.133-0.192,0.228-0.375,0.288-0.552c0.014-0.03,0.028-0.052,0.043-0.066
			c0.028-0.029,0.051-0.066,0.066-0.11c-0.604,0.339-0.965,0.552-1.082,0.64c0.103-0.118,0.47-0.36,1.104-0.729
			c0.323-1.061,0.758-1.899,1.303-2.518c-0.029-0.28-0.053-0.552-0.066-0.817h-0.023v-0.309c0-0.132-0.006-0.265-0.021-0.397
			c0.073-0.147,0.153-0.31,0.242-0.486c0.133-0.25,0.266-0.508,0.397-0.773c-0.118,0.207-0.266,0.442-0.441,0.708
			c-0.088,0.117-0.154,0.235-0.198,0.353c-0.073,0.324-0.147,0.677-0.221,1.06h-0.046l0.046-0.662v-0.022
			c-0.089,0.221-0.134,0.413-0.134,0.575l-0.066,0.132c-0.029-0.015-0.036-0.059-0.021-0.132c0.014-0.295,0.116-0.619,0.308-0.972
			c0.045-0.236,0.097-0.42,0.154-0.552c-0.058,0.074-0.109,0.147-0.154,0.221c0.09-0.25,0.178-0.478,0.267-0.685
			c-0.075,0.074-0.155,0.146-0.243,0.221c-0.428,0.633-0.655,0.964-0.686,0.994c-0.015,0.043-0.022,0.028-0.022-0.044
			c0-0.03,0.008-0.06,0.022-0.088c-0.066,0.117-0.132,0.235-0.198,0.354h-0.021c0.16-0.589,0.506-1.229,1.036-1.922
			c0.163-0.309,0.354-0.611,0.575-0.906c0-0.014,0.009-0.029,0.022-0.044c-0.133,0.118-0.272,0.257-0.42,0.419
			c-0.427,0.457-0.64,0.722-0.64,0.795c0,0.029,0.008,0.052,0.021,0.066l-0.088-0.022c-0.014,0.059-0.021,0.045-0.021-0.044
			c0-0.104,0.396-0.634,1.193-1.59c0-0.015,0.014-0.023,0.043-0.023c0.016-0.044,0.022-0.08,0.022-0.11
			c-0.529,0.472-0.966,0.839-1.302,1.104v-0.199l0.064-0.044c0.045,0,0.052,0.037,0.023,0.11c0.265-0.221,0.698-0.648,1.302-1.281
			c0.017-0.044,0.037-0.082,0.067-0.11c-0.339,0.235-0.686,0.463-1.039,0.684l-0.021-0.132c0.029-0.029,0.043-0.015,0.043,0.044
			c0.369-0.235,0.723-0.478,1.061-0.729c0.029-0.118,0.074-0.228,0.133-0.331v-0.022c0-0.53,0.154-1.06,0.464-1.59
			c0.236-0.369,0.53-0.648,0.883-0.839c0.017-0.146,0.06-0.302,0.134-0.463c-0.016-0.015-0.023-0.051-0.023-0.111
			c0-0.118,0.075-0.302,0.221-0.552c0.045-0.118,0.096-0.243,0.155-0.375c-0.029,0.088-0.06,0.184-0.088,0.287
			c0.073-0.118,0.161-0.25,0.266-0.397c0.205-0.25,0.39-0.441,0.552-0.575h0.155c-0.442,0.324-0.795,0.781-1.061,1.37
			c-0.06,0.148-0.104,0.309-0.133,0.486c0.369-0.453,0.649-0.777,0.839-0.972v-0.01c-0.198,0.147-0.405,0.312-0.618,0.497H86.93
			c0.232-0.199,0.457-0.391,0.674-0.574c0.04-0.203,0.212-0.52,0.52-0.949c0.004-0.548,0.033-1.17,0.088-1.866
			c-0.056-0.034-0.107-0.067-0.156-0.1c-0.02,0.044-0.042,0.088-0.064,0.132c-0.081,0.683-0.212,1.25-0.398,1.702l-0.044,0.043
			c-0.117-0.088-0.175-0.214-0.175-0.375c0-0.035,0.014-0.182,0.043-0.442c-0.053,0.292-0.107,0.593-0.166,0.906
			c-0.001,0.029-0.006,0.058-0.011,0.089l-0.045,0.021c-0.003-0.008-0.008-0.016-0.011-0.021c-0.032,0.206-0.065,0.419-0.099,0.64
			H87.04c-0.014,0.029-0.021,0.008-0.021-0.066c0-0.122,0.018-0.342,0.054-0.663c0.007-0.069,0.014-0.143,0.023-0.221
			c-0.008-0.074-0.011-0.156-0.011-0.243c0.018-0.102,0.036-0.202,0.056-0.299l-0.033-0.74c0-0.045,0-0.089,0-0.132
			c-0.095,0.772-0.242,1.302-0.442,1.59h-0.022c-0.029-0.059-0.044-0.096-0.044-0.11c0.021-0.14,0.039-0.28,0.056-0.419h-0.012
			c0.01-0.035,0.021-0.071,0.032-0.11c0.016-0.11,0.029-0.221,0.045-0.332c-0.008,0.01-0.016,0.022-0.021,0.033
			c-0.081,0.359-0.188,0.687-0.319,0.983c-0.014,0.038-0.029,0.074-0.046,0.11l-0.044-0.044c0.004-0.023,0.006-0.044,0.011-0.066
			c0.046-0.424,0.091-0.833,0.133-1.226c-0.083,0.331-0.159,0.658-0.231,0.983c-0.104-0.088-0.155-0.191-0.155-0.309
			c0-0.058,0.011-0.142,0.032-0.254l-0.01,0.011c-0.015,0.044-0.022,0.029-0.022-0.044c0.078-0.794,0.125-1.398,0.143-1.811
			c-0.007-0.023-0.014-0.046-0.021-0.066c-0.008,0.017-0.016,0.035-0.023,0.056c-0.045,0.162-0.091,0.324-0.133,0.486
			c0.014,0.066,0.038,0.159,0.078,0.275c-0.03,0.06-0.06,0.096-0.089,0.111c-0.017-0.024-0.035-0.062-0.054-0.111
			c-0.123,0.503-0.225,1.019-0.301,1.546h-0.043c0.048-0.529,0.125-1.041,0.231-1.535c-0.011,0.022-0.022,0.044-0.032,0.066
			c-0.009,0.047-0.017,0.096-0.023,0.144h-0.021c0-0.016,0-0.034,0-0.055c-0.021,0.048-0.046,0.097-0.065,0.143h-0.066l-0.11,0.022
			v-0.022h-0.021c0.003-0.006,0.007-0.014,0.011-0.023c-0.052-0.237-0.087-0.587-0.111-1.048c-0.022,0.066-0.046,0.129-0.065,0.188
			c-0.051,0.513-0.09,1.035-0.122,1.568h-0.044v-0.95c-0.045,0.337-0.089,0.69-0.133,1.061l-0.044,0.022l-0.045-0.707
			c0-0.374,0.037-0.815,0.111-1.325c-0.043,0.052-0.084,0.104-0.122,0.155c-0.119,0.702-0.226,1.268-0.319,1.701
			c-0.03,0.03-0.059,0.052-0.089,0.067c-0.029,0.043-0.045,0.028-0.045-0.044c0-0.146,0.075-0.721,0.221-1.723
			c-0.029-0.195-0.044-0.483-0.044-0.861c0-0.026,0-0.051,0-0.077c-0.011,0.026-0.021,0.051-0.032,0.077
			c-0.023,0.404-0.049,0.86-0.078,1.37l-0.021,0.022l-0.045-0.817c0-0.046,0-0.099,0-0.154c-0.008,0.029-0.014,0.06-0.022,0.088
			c-0.015,0.029-0.022,0.007-0.022-0.066c0-0.121,0.026-0.272,0.077-0.453c0.015-0.141,0.033-0.296,0.056-0.464
			c-0.1,0.406-0.188,0.764-0.265,1.071l-0.022-0.176c0-0.08,0.085-0.484,0.254-1.215c-0.046,0.084-0.078,0.151-0.1,0.199h-0.044
			l-0.023-0.111c0-0.008,0.085-0.17,0.255-0.485c0.003-0.015,0.008-0.029,0.011-0.044c-0.006-0.022-0.009-0.045-0.011-0.066h0.021
			c0.02-0.071,0.038-0.145,0.056-0.221c0.003-0.009,0.007-0.021,0.011-0.033c-0.012,0.009-0.022,0.02-0.032,0.033
			c-0.053,0.075-0.101,0.149-0.144,0.221c-0.312,0.495-0.463,0.915-0.452,1.259c-0.015,0.029-0.023,0.008-0.023-0.066
			c0-0.366,0.122-0.763,0.364-1.192c0.008-0.015,0.015-0.029,0.023-0.044c-0.019,0.015-0.038,0.029-0.056,0.044
			c-0.162,0.123-0.332,0.249-0.508,0.376l-0.044-0.11c0.044-0.015,0.065,0,0.065,0.043c0.126-0.101,0.253-0.204,0.376-0.309
			c0.108-0.095,0.215-0.19,0.32-0.287c0.043-0.057,0.087-0.116,0.132-0.177c0.015-0.137,0.024-0.248,0.033-0.332
			c-0.095,0.175-0.175,0.336-0.243,0.486c-0.014,0.029-0.022,0.007-0.022-0.066c0-0.129,0.104-0.365,0.312-0.707
			c0.018-0.164,0.041-0.321,0.064-0.475c-0.241,0.453-0.417,0.833-0.53,1.137l-0.021-0.133c0-0.174,0.192-0.598,0.573-1.27
			c-0.01-0.068-0.017-0.146-0.021-0.231h-0.11l-0.022-0.11c0-0.207,0.119-0.561,0.354-1.061c0.006-0.014,0.015-0.029,0.021-0.044
			c-0.023-0.097-0.039-0.156-0.043-0.176c-0.004-0.014-0.008-0.028-0.011-0.044c-0.171,0.447-0.271,0.815-0.299,1.104l-0.044,0.021
			l-0.044-0.265c0-0.127,0.113-0.469,0.342-1.027c-0.004-0.015-0.008-0.029-0.012-0.044v0.011c-0.235,0.56-0.354,0.869-0.354,0.928
			l-0.109,0.023l-0.022-0.133c0-0.027,0.105-0.292,0.32-0.795h-0.011c0.006-0.01,0.014-0.021,0.022-0.033
			c0.029-0.073,0.062-0.15,0.098-0.231c-0.055-0.2-0.104-0.361-0.141-0.486l-0.156,0.266h-0.044
			c0.045-0.077,0.103-0.188,0.176-0.332c-0.016-0.051-0.03-0.096-0.045-0.133c-0.014-0.103-0.021-0.184-0.021-0.243
			c-0.016-0.118-0.082-0.213-0.199-0.286c-0.221-0.148-0.331-0.317-0.331-0.508c0-0.191,0.013-0.309,0.044-0.353
			c0.029-0.053,0.086-0.093,0.165-0.122c-0.095-0.135-0.144-0.286-0.144-0.452c0-0.071,0.004-0.142,0.012-0.21
			c0.075-0.092,0.156-0.206,0.242-0.342l-0.166,0.111c-0.088-0.015-0.138-0.037-0.153-0.067c0.056-0.022,0.199-0.099,0.431-0.231
			c0.004-0.012,0.012-0.023,0.021-0.033c-0.036,0.014-0.068,0.029-0.099,0.044l-0.045-0.044c0.071-0.071,0.154-0.141,0.255-0.21
			c0.03-0.068,0.063-0.138,0.099-0.21v-0.022c0-0.11-0.082-0.246-0.242-0.409c-0.462-0.073-0.794-0.304-0.993-0.696
			c-0.135-0.25-0.2-0.515-0.2-0.795c0-1,0.456-1.693,1.369-2.076c0.015-0.007,0.03-0.014,0.045-0.022
			c0.068-0.089,0.141-0.185,0.22-0.287c0.178-0.177,0.343-0.287,0.497-0.331c0.138-0.187,0.286-0.375,0.442-0.563
			c0.248-0.122,0.509-0.302,0.783-0.541c0.166-0.147,0.307-0.284,0.42-0.409c-0.031-0.045-0.061-0.101-0.088-0.165
			c-0.09-0.207-0.133-0.368-0.133-0.486c0-0.014,0-0.029,0-0.044c-0.088,0.015-0.133,0.029-0.133,0.044
			c-0.015,0.029-0.081,0.044-0.199,0.044c0.236-0.162,0.369-0.25,0.398-0.266c0.047-0.019,0.116-0.008,0.21,0.033h0.021l0.088-0.144
			l-0.343-0.021l-0.01-0.022c-0.049,0.014-0.098,0.022-0.145,0.022c-0.248,0-0.375-0.022-0.375-0.066l0.354-0.022
			c0.088-0.015,0.133-0.074,0.133-0.176c0.013-0.133,0.036-0.213,0.065-0.243c0.027-0.044,0.058-0.077,0.088-0.099
			c-0.109-0.118-0.241-0.262-0.397-0.431c-0.346-0.367-0.575-0.734-0.684-1.104c-0.078-0.055-0.145-0.129-0.199-0.221
			c-0.103-0.162-0.155-0.309-0.155-0.441l0.021-0.508h0.045c0.029,0.457,0.044,0.692,0.044,0.707
			c0.018,0.044,0.041,0.084,0.066,0.121c-0.028-0.066-0.044-0.144-0.044-0.231c0.029-0.165,0.05-0.312,0.066-0.442
			c0-0.035,0-0.072,0-0.11c0.011-0.022,0.018-0.041,0.022-0.055v-0.011c0.014-0.124,0.021-0.228,0.021-0.31h0.044l-0.01,0.188
			c0.047-0.151,0.16-0.324,0.342-0.518c-0.044,0.073-0.096,0.198-0.155,0.375c-0.073,0.206-0.109,0.354-0.109,0.441v0.011
			c0.028-0.075,0.063-0.145,0.109-0.209c0.006-0.008,0.009-0.015,0.011-0.023c0.005-0.018,0.008-0.032,0.012-0.044
			c0.029-0.163,0.117-0.383,0.265-0.663c-0.047,0.173-0.085,0.35-0.111,0.53c0.043-0.038,0.086-0.07,0.133-0.1
			c0.074-0.184,0.185-0.305,0.331-0.364c-0.044,0.073-0.084,0.157-0.12,0.253c0.064-0.028,0.13-0.054,0.198-0.078
			c0.032-0.083,0.072-0.149,0.121-0.198v0.176c0.018-0.003,0.035-0.007,0.056-0.011l-0.034-0.078c0-0.029,0.078-0.133,0.233-0.309
			c0.017-0.026,0.035-0.048,0.054-0.066c0.088-0.098,0.194-0.212,0.32-0.343c0.026-0.165,0.122-0.271,0.288-0.32
			c0.064-0.065,0.129-0.128,0.188-0.188c0.005-0.306,0.138-0.441,0.397-0.409c0.007-0.013,0.012-0.024,0.021-0.033
			c0-0.034,0-0.068,0-0.101c0-0.338,0.163-0.46,0.486-0.363c0.014-0.008,0.024-0.015,0.033-0.022l-0.033-0.056
			c0-0.272,0.081-0.416,0.244-0.43c-0.006-0.031-0.013-0.065-0.023-0.1c0.057-0.121,0.358-0.212,0.906-0.276
			c-0.024-0.01-0.046-0.021-0.066-0.033c0.042-0.041,0.086-0.078,0.133-0.111c0.074-0.121,0.211-0.276,0.409-0.464
			c0.083-0.073,0.166-0.154,0.261-0.24c0.308-0.252,0.727-0.503,1.261-0.75c0.547-0.384,1.091-0.671,1.634-0.861v0.088l-0.044-0.044
			c-0.274,0.141-0.551,0.299-0.828,0.475c0.42-0.214,0.765-0.34,1.038-0.375c0.21-0.07,0.415-0.133,0.617-0.188
			c0.115-0.038,0.238-0.074,0.364-0.11c0.261-0.116,0.514-0.219,0.763-0.309h-0.077c0.053-0.053,0.212-0.098,0.474-0.133
			c0.751-0.235,1.447-0.339,2.088-0.308c0.943-0.089,1.599-0.052,1.966,0.11c0.175,0.066,0.271,0.151,0.287,0.252
			c0.697,0.102,1.185,0.186,1.458,0.254c0.307,0.073,0.582,0.161,0.827,0.266c0.205,0.043,0.429,0.095,0.674,0.154
			c0.308,0.075,0.58,0.152,0.817,0.232c0.518,0.172,0.868,0.356,1.049,0.553c0.316,0.159,0.633,0.343,0.949,0.552
			C106.155,19.05,106.13,19.024,106.104,19.004z M106.635,19.635c-0.127-0.096-0.282-0.194-0.463-0.299
			c0.092,0.06,0.176,0.119,0.253,0.177c0.063,0.037,0.126,0.074,0.189,0.11L106.635,19.635z M106.835,20.43
			c0.013,0.012,0.028,0.027,0.043,0.044v-0.022C106.862,20.445,106.847,20.438,106.835,20.43z M107,20.606
			c0.233,0.267,0.446,0.542,0.64,0.829c-0.058-0.116-0.112-0.23-0.166-0.342c-0.14-0.174-0.294-0.347-0.463-0.52
			C107.006,20.583,107.003,20.594,107,20.606z M108.799,22.804c0-0.471-0.177-0.935-0.529-1.392c0.212,0.412,0.383,0.894,0.52,1.447
			C108.795,22.837,108.799,22.819,108.799,22.804z M108.81,22.892c0.038-0.024,0.056-0.046,0.056-0.066c0-0.04,0-0.081,0-0.122
			C108.849,22.765,108.83,22.828,108.81,22.892z M109.196,24.715c0.047,0.224,0.077,0.359,0.089,0.409l-0.011,0.021
			c0.166,0.467,0.325,0.957,0.474,1.468c-0.027-0.285-0.067-0.568-0.12-0.85c-0.132-0.396-0.278-0.779-0.441-1.148
			C109.19,24.649,109.195,24.683,109.196,24.715z M109.859,27.01c0.152,0.563,0.297,1.152,0.432,1.767
			c-0.003-0.044-0.003-0.087,0-0.132c-0.103-0.712-0.239-1.39-0.41-2.032L109.859,27.01z M110.189,30.323
			c0.025,0.19,0.047,0.385,0.067,0.585c-0.001-0.228-0.001-0.449,0-0.663h-0.067C110.189,30.272,110.189,30.298,110.189,30.323z
			 M110.521,35.822c0.013,0.044,0.024,0.088,0.033,0.132c0.001-0.154,0.001-0.304,0-0.452
			C110.547,35.611,110.535,35.717,110.521,35.822z M110.423,36.994c0.044,0.208,0.091,0.448,0.144,0.717c0-0.067,0-0.134,0-0.199
			v-0.088c0-0.038,0-0.074,0-0.111c-0.015-0.076-0.029-0.149-0.045-0.221c-0.016-0.09-0.049-0.241-0.1-0.452
			c-0.008,0.037-0.015,0.074-0.021,0.111C110.408,36.83,110.416,36.911,110.423,36.994z M108.456,37.721l0.012,0.023
			c-0.004-0.025-0.007-0.051-0.012-0.078C108.456,37.685,108.456,37.703,108.456,37.721z M112.067,42.646
			c0.089,0.12,0.171,0.226,0.242,0.32c-0.07-0.124-0.148-0.251-0.229-0.386C112.076,42.604,112.071,42.625,112.067,42.646z
			 M112.046,42.823c0.195,0.189,0.372,0.384,0.53,0.584c-0.015-0.029-0.028-0.059-0.046-0.087c-0.159-0.172-0.317-0.363-0.474-0.575
			C112.052,42.773,112.047,42.798,112.046,42.823z M112.397,42.15c0.149,0.235,0.362,0.559,0.643,0.972
			c-0.208-0.221-0.45-0.545-0.73-0.972H112.397z M112.377,43.696c0.089,0.235,0.185,0.478,0.287,0.729
			c0.088,0.103,0.206,0.229,0.354,0.375c-0.073-0.132-0.133-0.257-0.178-0.375C112.664,44.144,112.509,43.902,112.377,43.696z
			 M112.907,45.064v0.022c0.045,0.029,0.088,0.059,0.133,0.087c0.074,0.089,0.154,0.177,0.242,0.266
			c-0.059-0.162-0.124-0.316-0.198-0.463c-0.015-0.029-0.029-0.052-0.044-0.066c-0.104-0.162-0.222-0.309-0.354-0.441
			C112.761,44.66,112.832,44.859,112.907,45.064z M87.18,23.146v-0.011c-0.02,0.006-0.037,0.014-0.055,0.022
			C87.143,23.152,87.16,23.147,87.18,23.146z M92.888,18.563c-0.507,0.176-0.894,0.378-1.159,0.607
			c0.24-0.143,0.497-0.279,0.773-0.409C92.624,18.699,92.752,18.633,92.888,18.563z M92.392,18.145
			c-0.413,0.217-0.789,0.464-1.127,0.74c0.503-0.44,0.834-0.687,0.994-0.74H92.392z M91.275,19.47
			c-0.023,0.017-0.045,0.035-0.066,0.055h0.011c0.02-0.012,0.038-0.024,0.056-0.034V19.47z M90.7,19.667
			c0.115-0.115,0.233-0.23,0.354-0.341c-0.19,0.13-0.345,0.259-0.464,0.386C90.625,19.697,90.661,19.682,90.7,19.667z
			 M99.381,17.095c-0.37-0.032-0.734-0.051-1.094-0.055c0.271,0.038,0.529,0.082,0.773,0.132c0.17,0.014,0.358,0.032,0.562,0.055
			C99.54,17.182,99.458,17.139,99.381,17.095z M99.49,16.952c0.279,0.036,0.537,0.069,0.774,0.1
			c-0.022-0.022-0.049-0.041-0.078-0.056c-0.059-0.029-0.162-0.044-0.309-0.044C99.746,16.952,99.618,16.952,99.49,16.952z
			 M100.197,17.195c-0.055-0.008-0.11-0.016-0.166-0.022c0.03,0.009,0.06,0.021,0.089,0.033L100.197,17.195z M85.082,41.521
			c-0.019,0.14-0.036,0.291-0.056,0.452c-0.004,0.032-0.008,0.066-0.012,0.1c0.01-0.019,0.021-0.036,0.032-0.055
			c0.004-0.015,0.008-0.03,0.012-0.045c0.028-0.21,0.059-0.405,0.089-0.584C85.125,41.433,85.104,41.476,85.082,41.521z
			 M85.346,41.763c-0.011,0.068-0.022,0.138-0.033,0.209c-0.002,0.03-0.007,0.06-0.01,0.089c-0.023,0.098-0.045,0.208-0.067,0.332
			c0.032-0.107,0.069-0.217,0.11-0.332c0-0.029,0-0.059,0-0.089C85.346,41.902,85.346,41.832,85.346,41.763z M85.346,42.327
			c-0.102,0.283-0.183,0.556-0.243,0.817c-0.044,0.236-0.087,0.501-0.133,0.794c-0.007,0.045-0.014,0.088-0.021,0.132
			c0.038-0.059,0.079-0.121,0.12-0.188c0.069-0.433,0.161-0.911,0.277-1.436C85.346,42.408,85.346,42.367,85.346,42.327z
			 M85.356,44.07c0.01-0.035,0.022-0.067,0.034-0.099c-0.007-0.048-0.01-0.096-0.012-0.144
			C85.371,43.907,85.363,43.989,85.356,44.07z M89.155,41.719l0.012-0.011c0.004-0.006,0.009-0.014,0.01-0.022h-0.01
			C89.164,41.696,89.159,41.708,89.155,41.719z M86.251,42.337l-0.011-0.01v0.022L86.251,42.337z M86.173,42.668
			c0.005,0.141,0.007,0.24,0.012,0.298c0.007,0.198,0.019,0.382,0.033,0.552l0.032-0.772c-0.016-0.056-0.033-0.122-0.055-0.198
			C86.188,42.589,86.181,42.629,86.173,42.668z M86.251,42.603l0.011-0.144c-0.012,0.015-0.022,0.03-0.033,0.044
			C86.234,42.533,86.242,42.565,86.251,42.603z M87.223,42.658v0.01c0.048,0.123,0.1,0.236,0.155,0.343
			c-0.002-0.01-0.002-0.021,0-0.034c-0.021-0.072-0.04-0.154-0.056-0.242c-0.023-0.057-0.045-0.12-0.065-0.188
			C87.246,42.583,87.234,42.62,87.223,42.658z M87.223,43.21c-0.004,0.28-0.012,0.545-0.021,0.795
			c0.004-0.02,0.009-0.038,0.011-0.055c0.037-0.256,0.086-0.518,0.144-0.784c-0.031,0.029-0.069,0.045-0.111,0.045L87.223,43.21
			L87.223,43.21z M87.455,43.628c-0.016,0.1-0.03,0.198-0.044,0.299c0.017-0.051,0.035-0.103,0.055-0.155
			C87.46,43.725,87.456,43.677,87.455,43.628z M86.053,43.408c-0.017,0.083-0.032,0.165-0.045,0.244v0.552
			c0.036-0.122,0.071-0.244,0.109-0.364C86.093,43.706,86.07,43.562,86.053,43.408z M85.731,44.812
			c-0.007-0.065-0.02-0.135-0.032-0.211c-0.06-0.235-0.088-0.419-0.088-0.552c-0.028,0.355-0.044,0.701-0.045,1.039
			C85.623,45.001,85.679,44.909,85.731,44.812z M87.311,44.667c-0.025,0.255-0.047,0.516-0.064,0.784
			c0.014-0.09,0.029-0.178,0.044-0.266c0.036-0.219,0.073-0.455,0.11-0.706C87.371,44.543,87.342,44.606,87.311,44.667z
			 M88.714,45.451c0.021,0.193,0.048,0.358,0.077,0.497c0.046-0.055,0.09-0.11,0.133-0.167c0.008-0.055,0.016-0.115,0.022-0.175
			l-0.022-0.078c0-0.164,0.004-0.341,0.011-0.53c-0.047-0.038-0.086-0.09-0.121-0.156C88.781,45.037,88.748,45.24,88.714,45.451z
			 M88.339,45.109c-0.038,0.457-0.079,0.979-0.122,1.568c0.048-0.069,0.101-0.14,0.155-0.209v-1.403
			C88.36,45.078,88.35,45.093,88.339,45.109z M89.52,45.142c-0.014-0.1-0.027-0.208-0.043-0.321
			c-0.011-0.067-0.022-0.133-0.033-0.199c-0.018,0.028-0.036,0.054-0.056,0.079c-0.044,0.261-0.084,0.496-0.122,0.707
			C89.351,45.315,89.436,45.227,89.52,45.142z M91.596,42.172c0.002-0.012,0.007-0.022,0.011-0.034
			c-0.005-0.007-0.009-0.014-0.011-0.022c-0.003,0.021-0.007,0.039-0.011,0.056H91.596z M88.746,45.971
			c-0.028-0.046-0.057-0.094-0.087-0.144c-0.014,0.108-0.029,0.218-0.044,0.331c0.058-0.071,0.118-0.142,0.176-0.21L88.746,45.971z
			 M87.609,47.914c-0.38,0.421-0.664,0.746-0.85,0.971c-0.016,0.03-0.022,0.066-0.022,0.11c0.118-0.176,0.286-0.382,0.507-0.618
			c0.126-0.139,0.251-0.279,0.376-0.419C87.616,47.942,87.611,47.928,87.609,47.914z M87.488,48.333
			c-0.068,0.095-0.131,0.202-0.188,0.32c0.021-0.032,0.055-0.065,0.1-0.099C87.415,48.481,87.443,48.407,87.488,48.333z
			 M87.311,48.532c0.045-0.045,0.082-0.096,0.111-0.155c-0.132,0.133-0.25,0.258-0.353,0.376c-0.037,0.054-0.069,0.105-0.101,0.154
			c0.068-0.015,0.133-0.03,0.188-0.044c0.028-0.029,0.05-0.066,0.065-0.11C87.252,48.694,87.282,48.621,87.311,48.532z
			 M87.244,48.841h0.023c0.015-0.029,0.029-0.059,0.043-0.088C87.282,48.782,87.26,48.812,87.244,48.841z M87.157,49.084
			c0.028-0.045,0.05-0.096,0.065-0.155h-0.021c-0.028,0.054-0.05,0.109-0.067,0.166C87.142,49.088,87.147,49.084,87.157,49.084z
			 M87.09,48.974c-0.088,0.029-0.169,0.065-0.242,0.111c-0.074,0.073-0.133,0.14-0.176,0.198c-0.045,0.162-0.074,0.317-0.089,0.464
			l-0.045,0.066c-0.015-0.015-0.021-0.044-0.021-0.088c0-0.088,0.007-0.169,0.021-0.244c-0.353,0.457-0.589,0.781-0.706,0.972
			h-0.023c0.133-0.265,0.325-0.574,0.575-0.928c0-0.029,0-0.051,0-0.066c0-0.029,0.037-0.089,0.11-0.177
			c-0.323,0.235-0.59,0.538-0.795,0.906c-0.118,0.221-0.207,0.449-0.264,0.685c0.071-0.059,0.168-0.125,0.285-0.199
			c0.193-0.316,0.379-0.521,0.553-0.618c0.059-0.045,0.117-0.082,0.177-0.11c0.176-0.236,0.346-0.45,0.508-0.641
			c0.014-0.059,0.035-0.118,0.064-0.177C87.039,49.07,87.061,49.017,87.09,48.974z M86.969,48.907
			c-0.02,0.03-0.038,0.06-0.056,0.088c0.045-0.014,0.097-0.036,0.156-0.066C87.041,48.916,87.009,48.908,86.969,48.907z
			 M86.604,50.056l0.066-0.111c0.014-0.03,0.037-0.051,0.066-0.066c-0.045,0.015-0.09,0.029-0.133,0.044
			c-0.029,0.03-0.052,0.059-0.066,0.088C86.554,50.011,86.575,50.026,86.604,50.056z M86.406,49.99
			c-0.044,0.015-0.089,0.036-0.132,0.066c0.038-0.019,0.073-0.035,0.109-0.045C86.399,50.011,86.406,50.004,86.406,49.99z
			 M86.384,50.232c0.044-0.044,0.096-0.082,0.154-0.111h-0.021c-0.015,0-0.037,0-0.065,0C86.421,50.151,86.399,50.188,86.384,50.232
			z M86.186,50.852c0.132-0.133,0.266-0.25,0.397-0.354c0.014-0.059,0.029-0.11,0.044-0.155c-0.073,0-0.155,0.029-0.243,0.088
			c-0.221,0.265-0.435,0.56-0.639,0.883c0.043-0.044,0.08-0.081,0.109-0.11c0.146-0.206,0.323-0.442,0.529-0.707h0.044
			C86.325,50.63,86.244,50.748,86.186,50.852z M85.986,50.63c-0.103,0.044-0.191,0.096-0.266,0.154
			c-0.117,0.177-0.234,0.405-0.354,0.685c0.119-0.206,0.272-0.412,0.465-0.617C85.861,50.763,85.912,50.689,85.986,50.63z
			 M86.352,50.906c0.023-0.028,0.05-0.046,0.076-0.055c0-0.014,0-0.026,0-0.034C86.404,50.838,86.379,50.868,86.352,50.906z
			 M86.097,50.586c-0.176,0.235-0.36,0.486-0.552,0.75c-0.029,0.044-0.051,0.095-0.066,0.155v0.022
			c0.029-0.03,0.082-0.074,0.154-0.133l0.686-0.928C86.244,50.482,86.17,50.526,86.097,50.586z M85.854,50.586
			c0.087-0.074,0.184-0.147,0.287-0.221c0.044-0.059,0.087-0.125,0.133-0.198C86.125,50.24,85.986,50.38,85.854,50.586z
			 M86.869,49.702h-0.066c0.031-0.044,0.061-0.073,0.09-0.088c0-0.015,0-0.029,0-0.044c-0.059,0.059-0.111,0.125-0.155,0.198
			c0.029-0.015,0.065-0.029,0.11-0.044L86.869,49.702z M86.936,49.592c0.001-0.015,0.008-0.021,0.022-0.021v-0.023
			c-0.007,0.006-0.015,0.014-0.022,0.023V49.592z M86.671,50.056c0.028-0.03,0.066-0.06,0.109-0.088
			c0.016-0.06,0.037-0.111,0.067-0.155C86.773,49.886,86.715,49.968,86.671,50.056z M86.671,50.254
			c-0.029,0-0.045,0.007-0.045,0.022h0.045V50.254z M86.029,51.579c-0.014,0.016-0.035,0.037-0.063,0.067
			c-0.221,0.22-0.392,0.412-0.509,0.574c0,0.015,0,0.029,0,0.045c0.072-0.088,0.162-0.17,0.265-0.244
			c0.104-0.103,0.213-0.205,0.332-0.308c0.028-0.088,0.065-0.162,0.109-0.22C86.117,51.521,86.075,51.55,86.029,51.579z
			 M85.633,50.829c-0.072,0.029-0.133,0.066-0.176,0.11l-0.021-0.044c-0.045,0.147-0.074,0.294-0.09,0.441
			c0.061-0.132,0.125-0.265,0.199-0.397C85.561,50.895,85.588,50.858,85.633,50.829z M85.303,52.396
			c-0.029,0.03-0.082,0.089-0.155,0.176v0.023c0.059-0.088,0.118-0.155,0.176-0.199c0-0.013,0.008-0.036,0.022-0.066
			C85.33,52.361,85.315,52.383,85.303,52.396z M85.303,52.904V52.86c-0.029,0.059-0.067,0.11-0.111,0.154l0.044,0.022
			C85.25,52.993,85.272,52.949,85.303,52.904z M85.014,52.683c-0.008,0.024-0.018,0.046-0.031,0.067
			c0.011-0.01,0.021-0.017,0.031-0.022V52.683z M84.806,53.556c0.112-0.127,0.219-0.242,0.319-0.342
			c0-0.015,0.008-0.029,0.022-0.044c-0.015-0.015-0.029-0.029-0.045-0.045c-0.088,0.118-0.184,0.251-0.286,0.397
			C84.815,53.535,84.812,53.545,84.806,53.556z M83.027,72.427c0-0.029,0-0.051,0-0.065c-0.029-0.103-0.052-0.207-0.066-0.309
			c-0.103,0.457-0.236,1.016-0.398,1.678c0,0.029,0,0.052,0,0.066C82.711,73.295,82.865,72.839,83.027,72.427z M82.431,61.474
			c0.029-0.294,0.097-0.582,0.199-0.861c-0.222,0.338-0.34,0.744-0.354,1.214C82.32,61.709,82.371,61.591,82.431,61.474z
			 M84.352,57.652c-0.029-0.132-0.051-0.257-0.065-0.375c-0.516,0.795-0.898,1.494-1.149,2.098h0.022
			C83.454,58.787,83.852,58.212,84.352,57.652z M84.903,53.722c-0.015,0.015-0.035,0.037-0.064,0.065
			c0.029,0.03,0.059,0.052,0.087,0.066h-0.133c-0.059,0.088-0.125,0.162-0.198,0.221c-0.103,0.221-0.198,0.419-0.286,0.596
			c-0.029,0.147-0.066,0.309-0.111,0.486c0.016-0.029,0.029-0.052,0.045-0.066l0.021-0.022c0.059-0.192,0.288-0.604,0.686-1.237
			c0-0.088,0.008-0.162,0.021-0.22C84.956,53.641,84.933,53.677,84.903,53.722z M82.496,74.105
			c-0.014,0.192-0.022,0.383-0.022,0.574c0.089-0.368,0.243-0.994,0.465-1.876C82.777,73.229,82.63,73.663,82.496,74.105z
			 M82.961,77.462v0.21c0.001-0.055,0.009-0.096,0.022-0.121C82.97,77.523,82.961,77.493,82.961,77.462z M82.938,78.125v0.11
			l0.045,0.065c0.015-0.044,0.029-0.081,0.044-0.11c0-0.029,0-0.05,0-0.065c-0.015-0.119-0.023-0.229-0.023-0.332
			C82.976,77.896,82.953,78.007,82.938,78.125z M82.851,78.589c0.015-0.029,0.022-0.059,0.022-0.088c0-0.029,0-0.059,0-0.089
			C82.857,78.456,82.851,78.515,82.851,78.589z M83.688,83.204c-0.013-0.059-0.021-0.103-0.021-0.132
			c-0.015,0.206-0.036,0.566-0.066,1.082c0.046-0.044,0.082-0.087,0.11-0.132c0.015-0.074,0.03-0.154,0.045-0.243
			c0.044-0.118,0.074-0.221,0.088-0.309c-0.044-0.354-0.073-0.736-0.088-1.148c-0.045,0.162-0.073,0.345-0.089,0.552
			c0.016,0.118,0.037,0.229,0.066,0.332H83.688L83.688,83.204z M83.646,81.791c-0.06-0.147-0.111-0.303-0.155-0.464
			c0.014,0.309,0.037,0.589,0.066,0.839c0.013-0.103,0.029-0.206,0.043-0.309C83.601,81.842,83.615,81.82,83.646,81.791z
			 M83.116,82.1h-0.067c0.045,0.029,0.075,0.059,0.089,0.088c0.06-0.279,0.155-0.655,0.288-1.126
			c-0.046-0.161-0.075-0.315-0.089-0.463c-0.029-0.221-0.074-0.449-0.133-0.685L83.116,82.1z M83.159,79.494
			c-0.03-0.339-0.065-0.678-0.11-1.016c-0.029,0.088-0.059,0.184-0.088,0.287l-0.022,0.177h-0.044c-0.133,0.471-0.2,1.039-0.2,1.701
			c0,0.647,0.112,1.118,0.333,1.412L83.159,79.494z M84.064,83.536c0-0.162,0-0.28,0-0.354c-0.044,0.074-0.088,0.17-0.133,0.288
			c0,0.073,0,0.14,0,0.199C83.977,83.609,84.021,83.565,84.064,83.536z M83.867,83.027c0.013,0.074,0.029,0.155,0.043,0.244
			c0.059-0.147,0.111-0.265,0.154-0.354c-0.102-0.191-0.197-0.404-0.285-0.641C83.777,82.424,83.807,82.674,83.867,83.027z
			 M84.219,83.403c0,0.088,0,0.17,0,0.244c0,0.117-0.006,0.228-0.021,0.332c0,0.028,0,0.065,0,0.11c0,0.073,0.008,0.146,0.021,0.22
			c0.031-0.044,0.061-0.088,0.09-0.132C84.264,83.911,84.234,83.653,84.219,83.403z M84.043,83.822l-0.022-0.088
			c-0.045,0.073-0.073,0.155-0.089,0.244l-0.022,0.198l-0.043,0.022v-0.045c-0.06,0.207-0.11,0.42-0.155,0.641
			c-0.015,0.104-0.022,0.236-0.022,0.398c0.103-0.236,0.213-0.413,0.332-0.53c0.015-0.044,0.036-0.096,0.065-0.154
			c0.015-0.104,0.03-0.207,0.044-0.31c-0.029-0.118-0.05-0.25-0.065-0.397C84.064,83.815,84.057,83.822,84.043,83.822z
			 M84.176,84.309c-0.029,0.029-0.046,0.066-0.046,0.11c0.03-0.029,0.052-0.051,0.067-0.066
			C84.182,84.337,84.176,84.323,84.176,84.309z M83.889,83.757c-0.016-0.015-0.021-0.044-0.021-0.089
			c-0.016,0.06-0.023,0.111-0.023,0.155C83.859,83.793,83.873,83.771,83.889,83.757z M83.491,84.993
			c-0.104,0.368-0.185,0.78-0.243,1.236c-0.014,0.097-0.022,0.201-0.022,0.31c0.001-0.048,0.009-0.084,0.022-0.111
			c0.044-0.146,0.089-0.28,0.132-0.397C83.395,85.619,83.432,85.272,83.491,84.993z M83.535,86.495v-0.11
			c-0.015,0.265-0.015,0.538,0,0.817c0.015-0.147,0.052-0.28,0.111-0.398c-0.046-0.103-0.075-0.198-0.089-0.286v-0.022
			L83.535,86.495L83.535,86.495z M84.219,89.145c-0.059-0.235-0.11-0.449-0.154-0.639c-0.015,0.028-0.021,0.058-0.021,0.087
			l-0.045,0.906h-0.066c-0.015-0.029-0.022-0.073-0.022-0.133c-0.103,0.75-0.161,1.295-0.176,1.633c0,0.016,0,0.038,0,0.067
			l0.089,0.177C83.852,90.345,83.984,89.646,84.219,89.145z M83.955,88.107c-0.03-0.074-0.053-0.154-0.066-0.243
			c-0.029,0.235-0.051,0.515-0.066,0.84c0,0.052,0,0.118,0,0.198c0.002-0.066,0.009-0.125,0.021-0.176
			c0.029-0.207,0.066-0.391,0.111-0.552V88.107L83.955,88.107z M83.844,87.644c-0.015-0.074-0.037-0.133-0.066-0.177
			c-0.029,0.134-0.044,0.258-0.044,0.376c0,0.132,0,0.25,0,0.353C83.748,87.975,83.785,87.791,83.844,87.644z M113.791,45.905
			c-0.133-0.192-0.266-0.383-0.398-0.575c0.045,0.118,0.096,0.229,0.155,0.332C113.62,45.749,113.702,45.83,113.791,45.905z
			 M113.637,45.837c0,0.03,0.006,0.067,0.021,0.111c0.073,0.146,0.111,0.243,0.111,0.287s-0.009,0.074-0.023,0.089
			c0.191,0.191,0.396,0.396,0.618,0.617c0.014,0.015,0.044,0.044,0.089,0.088c-0.029-0.031-0.045-0.061-0.045-0.088
			c-0.146-0.265-0.295-0.515-0.442-0.75c-0.073-0.088-0.146-0.17-0.221-0.243C113.702,45.905,113.665,45.868,113.637,45.837z
			 M113.591,46.677c-0.014-0.03-0.028-0.052-0.043-0.066c0.029,0.06,0.059,0.11,0.089,0.156c0-0.016,0-0.03,0-0.045
			C113.62,46.706,113.606,46.691,113.591,46.677z M113.658,46.457h0.065c0.015,0.059,0.06,0.191,0.133,0.397
			c0.045,0.029,0.081,0.059,0.11,0.087c0.367,0.413,0.685,0.766,0.95,1.06c-0.133-0.294-0.266-0.581-0.398-0.861
			c-0.088-0.059-0.161-0.125-0.22-0.199c-0.295-0.25-0.575-0.507-0.84-0.772c0.059,0.103,0.124,0.22,0.199,0.354V46.457z
			 M113.724,46.257c-0.059-0.074-0.117-0.177-0.176-0.309c-0.06-0.104-0.119-0.221-0.177-0.354c-0.147-0.146-0.287-0.286-0.419-0.42
			c0.059,0.163,0.117,0.317,0.176,0.465c0.088,0.103,0.184,0.206,0.287,0.309C113.503,46.036,113.606,46.139,113.724,46.257z
			 M113.415,46.368c-0.015-0.028-0.022-0.051-0.022-0.066c0,0.015,0,0.029,0,0.044L113.415,46.368z M113.282,45.971l-0.021-0.022
			h-0.022c0.015,0.015,0.022,0.036,0.022,0.066L113.282,45.971z M113.724,46.986c-0.029-0.015-0.044-0.03-0.044-0.045
			c-0.044-0.059-0.089-0.125-0.132-0.198c0.014,0.073,0.035,0.139,0.064,0.198c0.029,0.088,0.066,0.184,0.111,0.288
			c0.044,0.044,0.088,0.103,0.133,0.176C113.797,47.244,113.754,47.104,113.724,46.986z M114.012,48.156
			c0.014,0.045,0.044,0.104,0.088,0.177c0.074,0.147,0.162,0.309,0.265,0.486c0-0.015,0.008-0.022,0.022-0.022
			c-0.028-0.117-0.052-0.206-0.065-0.265l0.088-0.022c-0.015-0.015-0.029-0.037-0.045-0.066c-0.118-0.118-0.235-0.236-0.353-0.354
			c0,0.015,0.006,0.03,0.021,0.044L114.012,48.156z M114.033,47.98c0.074,0.073,0.154,0.147,0.243,0.22
			c-0.089-0.162-0.169-0.302-0.243-0.419l-0.021,0.177L114.033,47.98z M113.967,47.914V47.67c-0.074-0.132-0.146-0.25-0.221-0.353
			c0.059,0.191,0.125,0.375,0.199,0.552L113.967,47.914z M114.408,49.371c0.059,0.163,0.118,0.339,0.177,0.53
			c0-0.088,0-0.155,0-0.199C114.542,49.6,114.482,49.489,114.408,49.371z M114.917,48.863c0.117,0.118,0.243,0.243,0.376,0.375
			c-0.178-0.324-0.412-0.691-0.708-1.104c0,0.045,0.023,0.103,0.066,0.176c0.045,0.104,0.081,0.206,0.111,0.31
			C114.821,48.694,114.873,48.775,114.917,48.863z M115.006,49.039c0.309,0.59,0.552,1.09,0.727,1.502
			c0.016-0.03,0.023-0.051,0.023-0.067c0-0.25-0.125-0.61-0.376-1.081C115.248,49.276,115.122,49.158,115.006,49.039z
			 M114.696,49.923c0,0.103,0.008,0.221,0.021,0.354c0.074,0.103,0.147,0.213,0.221,0.332c-0.028-0.074-0.051-0.141-0.065-0.199
			c-0.044-0.177-0.088-0.332-0.133-0.464c-0.015-0.015-0.029-0.03-0.044-0.045V49.923z M114.983,51.005
			c0.118,0.309,0.22,0.589,0.309,0.839c-0.044-0.177-0.089-0.353-0.133-0.53C115.101,51.211,115.042,51.108,114.983,51.005z
			 M115.623,53.147l-0.022,0.022v0.044c0.104,0.339,0.177,0.655,0.22,0.95l0.046-0.111c-0.046-0.206-0.081-0.412-0.11-0.618
			l-0.066,0.022C115.689,53.369,115.669,53.266,115.623,53.147z M115.535,52.771c-0.087-0.191-0.176-0.396-0.266-0.617
			c0.09,0.265,0.177,0.515,0.266,0.75c0-0.044,0-0.081,0-0.11V52.771z M115.89,54.34c0.013,0.147,0.028,0.288,0.043,0.42
			c-0.015-0.163-0.029-0.332-0.043-0.508C115.89,54.267,115.89,54.296,115.89,54.34z M115.623,55.688
			c0.014,0.221,0.046,0.449,0.088,0.684c0.015,0.207,0.037,0.397,0.066,0.574c0,0.059,0.008,0.118,0.022,0.177
			c-0.044-0.736-0.103-1.362-0.177-1.877V55.688z M115.227,61.296c0.102-0.426,0.184-0.832,0.242-1.214
			c-0.045,0.25-0.103,0.501-0.176,0.751C115.263,60.98,115.24,61.135,115.227,61.296z M114.717,62.622
			c-0.028,0.088-0.058,0.184-0.088,0.287c-0.029,0.103-0.044,0.207-0.044,0.309c0.029-0.088,0.059-0.169,0.088-0.242
			C114.688,62.842,114.704,62.725,114.717,62.622z M113.833,64.853c-0.043,0.118-0.095,0.235-0.153,0.354
			c0.028,0.103,0.059,0.213,0.088,0.331c0.016-0.118,0.028-0.22,0.045-0.309C113.828,65.096,113.833,64.97,113.833,64.853z
			 M114.275,63.814c-0.043,0.059-0.074,0.132-0.088,0.221c-0.045,0.22-0.103,0.486-0.176,0.795
			c-0.015,0.118-0.023,0.243-0.023,0.376c0.045-0.236,0.097-0.494,0.154-0.773C114.188,64.197,114.232,63.992,114.275,63.814z
			 M114.166,65.449c0.117-0.368,0.213-0.802,0.287-1.303c-0.045,0.176-0.089,0.376-0.133,0.597
			C114.262,65.007,114.21,65.243,114.166,65.449z M85.721,94.975l-0.021,0.177l0.046-0.044
			C85.729,95.049,85.721,95.005,85.721,94.975z M85.633,94.71c-0.014,0.103-0.021,0.207-0.021,0.309
			c0,0.088,0.008,0.176,0.021,0.265l0.022-0.507C85.64,94.761,85.633,94.74,85.633,94.71z M85.699,95.173l-0.022,0.508
			c0.015,0.088,0.022,0.169,0.022,0.243v0.088c0.014,0.073,0.021,0.154,0.021,0.243v0.088c0.016,0.059,0.045,0.125,0.088,0.199
			c0.031-0.428,0.061-0.773,0.088-1.038c-0.027-0.118-0.064-0.244-0.109-0.376L85.699,95.173z M85.566,95.925
			c-0.015-0.118-0.021-0.229-0.021-0.332c-0.016,0.06-0.023,0.119-0.023,0.177C85.537,95.829,85.552,95.881,85.566,95.925z
			 M86.008,95.748c-0.014,0.25-0.043,0.597-0.088,1.039c0,0.014,0,0.029,0,0.044c0.059-0.28,0.109-0.574,0.155-0.884
			C86.045,95.888,86.023,95.821,86.008,95.748z M85.745,96.764c0.026,0.044,0.05,0.096,0.063,0.155c0-0.03,0-0.059,0-0.088
			C85.795,96.815,85.771,96.793,85.745,96.764L85.745,96.764z M85.92,97.382c0-0.073,0.021-0.154,0.066-0.243h-0.021
			c-0.031,0.059-0.053,0.118-0.068,0.177C85.896,97.331,85.904,97.353,85.92,97.382z M86.097,97.271
			c0.028-0.099,0.044-0.184,0.045-0.254c-0.002,0.04-0.017,0.081-0.045,0.122c0,0.029,0,0.059,0,0.088
			C86.097,97.242,86.097,97.257,86.097,97.271z M86.075,97.316c-0.029,0.118-0.06,0.228-0.089,0.331
			c0.015,0.03,0.029,0.074,0.044,0.133c0-0.074,0.008-0.133,0.023-0.177c0.014-0.088,0.028-0.169,0.044-0.243
			C86.082,97.345,86.075,97.331,86.075,97.316z M86.892,97.713c-0.015-0.029-0.029-0.066-0.044-0.11
			c-0.088,0.206-0.259,0.53-0.51,0.972c0,0.015,0,0.029,0,0.044c-0.058,0.163-0.102,0.295-0.131,0.397l-0.022,0.111v0.066
			c0.044-0.103,0.104-0.207,0.177-0.309c0.044-0.088,0.089-0.184,0.132-0.288c0.03-0.103,0.066-0.199,0.111-0.287
			C86.708,98.044,86.803,97.846,86.892,97.713z M87.223,98.575h0.021l-0.021-0.022V98.575z M87.134,98.486
			c0.001-0.029,0.009-0.052,0.023-0.066h-0.023V98.486z M86.737,97.36c0.015-0.029,0.015-0.052,0-0.066
			c-0.045,0.103-0.096,0.213-0.154,0.332c-0.029,0.103-0.074,0.25-0.133,0.442C86.597,97.817,86.692,97.582,86.737,97.36z
			 M86.384,97.271c0.029-0.059,0.051-0.11,0.066-0.154c0.029-0.192,0.029-0.368,0-0.53L86.384,97.271z M85.745,97.802l-0.024,0.022
			l-0.021-0.044c0.014-0.045,0.029-0.088,0.046-0.133c-0.09-0.28-0.178-0.625-0.267-1.038c-0.016,0.235-0.022,0.515-0.022,0.839
			c0.044,0.221,0.118,0.508,0.221,0.861c0.015-0.074,0.029-0.125,0.044-0.155c0-0.073,0-0.14,0-0.199S85.729,97.846,85.745,97.802z
			 M86.008,97.868c-0.014-0.029-0.029-0.059-0.043-0.088c-0.031,0.015-0.045,0.029-0.045,0.044c0.029,0.06,0.051,0.118,0.065,0.177
			C85.986,97.941,85.994,97.897,86.008,97.868z M86.029,97.957c-0.013,0.044-0.021,0.087-0.021,0.132
			c0.001-0.015,0.009-0.029,0.021-0.044C86.029,98.016,86.029,97.986,86.029,97.957z M88.261,103.83
			c0.03-0.028,0.052-0.059,0.066-0.088c0.043-0.205,0.066-0.383,0.066-0.529c-0.031,0.015-0.066,0.044-0.11,0.088
			c-0.235,0.119-0.406,0.221-0.509,0.309l0.133,0.221H88.261z M87.841,103.19h0.42c0.073-0.088,0.14-0.169,0.198-0.243
			c0.029-0.162,0.046-0.279,0.046-0.354c-0.281,0.25-0.494,0.428-0.641,0.529c-0.016,0-0.029,0.008-0.045,0.023L87.841,103.19z
			 M88.459,103.08c-0.043,0.044-0.08,0.082-0.109,0.11c0.029-0.015,0.051-0.022,0.066-0.022
			C88.444,103.139,88.459,103.109,88.459,103.08z M86.715,103.918c-0.014-0.102-0.014-0.242,0-0.418
			c-0.029-0.074-0.067-0.133-0.11-0.177c0,0.044,0,0.081,0,0.11C86.604,103.596,86.642,103.758,86.715,103.918z M87.466,103.654
			l-0.022,0.066c0.088,0.118,0.229,0.258,0.421,0.419h0.396c0.014-0.015,0.029-0.021,0.044-0.021
			c0.015-0.074,0.022-0.147,0.022-0.222c-0.089,0.029-0.199,0.045-0.332,0.045c-0.088,0-0.169-0.059-0.242-0.177
			C87.694,103.646,87.599,103.609,87.466,103.654z M87.511,104.008l-0.022-0.045c-0.015,0.266,0.147,0.397,0.485,0.397
			c0.133,0,0.213-0.029,0.243-0.088h-0.309C87.673,104.096,87.54,104.008,87.511,104.008z M86.78,103.918c0,0.016,0,0.031,0,0.046
			c0.016,0.073,0.045,0.147,0.089,0.221c0.016,0.029,0.028,0.059,0.044,0.088C86.869,104.154,86.825,104.037,86.78,103.918z
			 M86.671,103.168l0.021,0.045h0.022l0.022-0.022L86.671,103.168z M87.664,103.256l0.022,0.266c0.074,0.016,0.154,0,0.242-0.045
			c0.061-0.058,0.119-0.102,0.177-0.132l-0.441-0.11V103.256z M87.599,103.521v-0.287c-0.088,0.06-0.133,0.156-0.133,0.287H87.599z
			 M86.671,102.219c0-0.029,0-0.051,0-0.066c-0.029,0-0.059,0-0.088,0L86.671,102.219z M87.4,102.682
			c-0.015-0.027-0.045-0.059-0.09-0.088c-0.043-0.044-0.102-0.08-0.176-0.111c-0.014,0.061,0.022,0.148,0.111,0.267
			c0.103,0.088,0.176,0.155,0.22,0.198c0.03-0.117,0.089-0.213,0.177-0.287c-0.088,0-0.177-0.014-0.265-0.044
			C87.393,102.631,87.4,102.654,87.4,102.682z M87.443,102.396c-0.073-0.044-0.117-0.073-0.133-0.088v0.044L87.443,102.396
			L87.443,102.396z M87.753,102.482c0-0.014-0.008-0.021-0.021-0.021l-0.133,0.045h0.133L87.753,102.482z M87.09,102.682
			l-0.154,0.133v0.332h0.486L87.09,102.682z M86.76,102.771c-0.029,0-0.059,0.007-0.088,0.021c0,0.088-0.017,0.177-0.045,0.266
			c0.045,0.015,0.082,0.037,0.11,0.065C86.737,103.007,86.744,102.889,86.76,102.771z M86.848,102.352l-0.088-0.023
			c-0.016,0.119-0.029,0.236-0.045,0.354h0.065C86.797,102.579,86.817,102.469,86.848,102.352z M86.869,102.263l0.023-0.022
			c-0.016-0.015-0.045-0.037-0.09-0.066c0,0.045-0.015,0.074-0.043,0.089l0.088,0.045L86.869,102.263z M87.09,102.308v-0.045
			l-0.021-0.022c0-0.043-0.009-0.072-0.022-0.088c0,0.016,0,0.045,0,0.088C87.047,102.27,87.061,102.293,87.09,102.308z
			 M86.538,102.793c-0.029,0.015-0.066,0.021-0.11,0.021l0.066,0.155c0.015,0.015,0.029,0.028,0.044,0.044
			C86.538,102.955,86.538,102.881,86.538,102.793z M86.338,102.814c-0.013-0.044-0.035-0.096-0.063-0.154
			c0.043,0,0.072,0.008,0.088,0.021l0.021-0.021c0.016-0.044,0.022-0.088,0.022-0.133h-0.044c-0.03-0.014-0.06-0.021-0.088-0.021
			c0,0.059,0,0.11,0,0.154c0,0.103,0.014,0.17,0.043,0.199c0.036,0.061,0.073,0.113,0.11,0.154
			c-0.015-0.029-0.044-0.089-0.089-0.177l0.067,0.044l-0.022-0.044L86.338,102.814z M86.406,102.482
			c0.028-0.131,0.059-0.22,0.088-0.264l-0.177-0.133c-0.029,0.117-0.043,0.235-0.043,0.354
			C86.332,102.455,86.376,102.469,86.406,102.482z M86.604,102.285l-0.066-0.045l-0.087,0.199v0.043c0.043,0,0.087,0,0.132,0
			l-0.132,0.023v0.176h0.109c0-0.059,0.007-0.125,0.022-0.199C86.583,102.424,86.59,102.357,86.604,102.285z M86.008,102.329
			c-0.059-0.044-0.088-0.081-0.088-0.11c-0.044,0.265-0.073,0.537-0.088,0.816c-0.016,0.385-0.008,0.671,0.022,0.861
			c0.015,0.03,0.021,0.067,0.021,0.111L86.008,102.329z M86.029,101.932c-0.014-0.029-0.028-0.066-0.043-0.111
			c0,0.03,0,0.053,0,0.067c0,0.147,0.015,0.257,0.043,0.331V101.932z M86.186,101.865c0,0.029,0.007,0.059,0.021,0.088
			c0.015-0.117,0.037-0.228,0.067-0.33C86.244,101.682,86.214,101.762,86.186,101.865z M86.207,101.977l-0.044-0.045l-0.021,0.045
			c0,0.072-0.017,0.139-0.045,0.197c0-0.014,0-0.028,0-0.044l-0.022,0.177c0.043,0.029,0.081,0.059,0.11,0.089
			c0-0.06,0.008-0.134,0.022-0.222C86.207,102.115,86.207,102.049,86.207,101.977z M86.45,101.732
			c0.029-0.073,0.044-0.133,0.044-0.176c0-0.029-0.015-0.059-0.044-0.088c-0.045,0.176-0.082,0.346-0.112,0.508h0.024
			c0.014-0.061,0.028-0.118,0.044-0.178c0,0.016,0,0.045,0,0.089l0.021,0.155h0.155l0.044-0.155l-0.066-0.243
			C86.517,101.645,86.479,101.674,86.45,101.732z M86.56,101.402l0.023-0.023c0-0.015-0.008-0.043-0.023-0.088
			C86.56,101.336,86.56,101.372,86.56,101.402z M86.251,101.203c-0.029,0.045-0.059,0.103-0.088,0.176
			c0,0.016-0.008,0.029-0.021,0.045l-0.045,0.332h0.045c0.058-0.045,0.103-0.097,0.133-0.156v-0.021
			c0.043-0.088,0.072-0.162,0.088-0.221C86.362,101.299,86.325,101.247,86.251,101.203z M86.338,101.004
			c0,0.029-0.006,0.06-0.021,0.09l0.088,0.154c0.029-0.09,0.059-0.17,0.088-0.244H86.338z M86.384,100.895h0.133
			c-0.015-0.001-0.022-0.009-0.022-0.022c-0.044-0.029-0.073-0.052-0.088-0.066C86.391,100.82,86.384,100.85,86.384,100.895z
			 M85.966,101.468c0.028-0.177,0.072-0.36,0.131-0.552c-0.029-0.029-0.066-0.081-0.11-0.154c-0.015,0.073-0.037,0.213-0.065,0.42
			C85.904,101.299,85.92,101.395,85.966,101.468z M86.053,100.187c0.015-0.029,0.022-0.051,0.022-0.066
			c-0.046-0.059-0.081-0.11-0.109-0.155C85.979,100.01,86.008,100.084,86.053,100.187z M86.251,100.563
			c-0.029-0.074-0.052-0.147-0.065-0.221c-0.061,0.088-0.089,0.147-0.089,0.176c0,0.103,0.022,0.199,0.066,0.287
			C86.207,100.717,86.236,100.637,86.251,100.563z M86.604,100.673c-0.015,0-0.029,0-0.045,0c0.016,0.029,0.029,0.051,0.045,0.066
			V100.673z M86.737,101.468c-0.015,0-0.036-0.008-0.065-0.022c-0.045,0.045-0.066,0.081-0.066,0.111
			c0,0.043,0.043,0.117,0.132,0.221c0.016,0,0.023-0.008,0.023-0.022c0.058-0.045,0.087-0.089,0.087-0.132
			c-0.029-0.029-0.051-0.066-0.066-0.111C86.767,101.482,86.752,101.468,86.737,101.468z M86.671,101.247c0,0.028,0,0.059,0,0.089
			l0.021-0.045L86.671,101.247z M86.671,100.541c0.014-0.044,0.028-0.088,0.044-0.132c-0.014-0.074-0.029-0.148-0.044-0.221
			c-0.029,0.059-0.059,0.103-0.088,0.133c0,0.014,0.007,0.022,0.021,0.022c-0.016,0-0.029,0-0.045,0
			c-0.014,0.044-0.028,0.096-0.044,0.155c0.015,0.015,0.03,0.029,0.044,0.044v0.022h0.066L86.671,100.541z M87.819,102.152
			c0.088-0.015,0.146-0.044,0.176-0.088h-0.198c-0.028-0.016-0.065-0.022-0.11-0.022c-0.014,0-0.03,0.015-0.044,0.044
			L87.819,102.152z M87.974,102.594h0.045l-0.11,0.42c0.176-0.104,0.338-0.229,0.486-0.376c0.058-0.044,0.096-0.088,0.11-0.132
			c0.015-0.104,0.022-0.17,0.022-0.199c0-0.014,0.007-0.037,0.021-0.066C88.312,102.345,88.121,102.461,87.974,102.594z
			 M87.952,102.616l-0.023,0.022c-0.132,0.133-0.213,0.258-0.242,0.375c0,0.029,0,0.052,0,0.066
			c0.045-0.015,0.074-0.021,0.088-0.021c-0.014-0.016-0.044-0.029-0.088-0.045c0.059,0,0.103,0.008,0.133,0.021L87.952,102.616z
			 M88.084,100.518v-0.022l-0.11,0.155v0.065C88.003,100.658,88.04,100.592,88.084,100.518z M87.995,100.408l0.023-0.045h-0.023
			V100.408z M87.797,100.695v-0.11l-0.022,0.066C87.789,100.665,87.797,100.68,87.797,100.695z M87.069,99.988l-0.022-0.022
			c-0.016,0.015-0.053,0.082-0.111,0.199c0.015,0.015,0.022,0.03,0.022,0.044c0.044-0.029,0.073-0.059,0.089-0.088L87.069,99.988z
			 M86.913,100.01l0.022-0.044v-0.022c-0.015,0-0.029,0.008-0.044,0.022C86.906,99.981,86.913,99.996,86.913,100.01z M87.112,99.193
			v0.11c0.089-0.073,0.14-0.147,0.155-0.221C87.223,99.112,87.172,99.148,87.112,99.193z M86.936,99.303
			c-0.015,0.015-0.029,0.038-0.044,0.066c0,0.015,0,0.037,0,0.066c0.014-0.045,0.036-0.096,0.066-0.156L86.936,99.303z
			 M86.98,99.083c0,0.033-0.009,0.084-0.022,0.155l0.022-0.022V99.083z M87.244,98.906c0.031-0.029,0.061-0.066,0.088-0.11
			c-0.014-0.029-0.027-0.059-0.043-0.089c0,0.03-0.008,0.06-0.022,0.089c-0.03,0.074-0.052,0.132-0.065,0.177
			C87.215,98.943,87.23,98.921,87.244,98.906z M86.362,99.745c0.014,0.015,0.028,0.03,0.044,0.044
			c0.028-0.118,0.065-0.235,0.11-0.353c0.059-0.221,0.11-0.398,0.155-0.53c-0.03,0.015-0.06,0.037-0.089,0.066
			C86.45,99.267,86.376,99.524,86.362,99.745z M86.604,99.855c-0.029,0.044-0.059,0.088-0.088,0.133v0.154
			c0.044-0.088,0.073-0.154,0.088-0.199C86.619,99.915,86.619,99.885,86.604,99.855L86.604,99.855z M86.45,100.032
			c-0.016,0-0.037,0.022-0.066,0.066c0,0.029,0.008,0.059,0.022,0.089c0.015,0.014,0.028,0.029,0.045,0.044v-0.022
			c0.028-0.059,0.028-0.103,0-0.132L86.45,100.032L86.45,100.032z M86.338,99.855V99.9c0.017-0.029,0.024-0.051,0.024-0.066
			c0-0.014-0.008-0.022-0.024-0.022C86.338,99.826,86.338,99.841,86.338,99.855L86.338,99.855z M86.538,99.501
			c0.029-0.014,0.06-0.029,0.089-0.044c0.045-0.176,0.074-0.353,0.088-0.53C86.655,99.076,86.597,99.267,86.538,99.501z
			 M86.627,99.679c0-0.044,0-0.088,0-0.132c-0.089,0.088-0.125,0.184-0.11,0.286c0.044-0.029,0.081-0.05,0.11-0.065
			C86.627,99.738,86.627,99.708,86.627,99.679z M85.986,99.768c0,0.029,0.008,0.051,0.022,0.065
			c0.029,0.045,0.059,0.089,0.088,0.133l0.045-0.022c-0.074-0.118-0.118-0.191-0.133-0.221v-0.044
			C85.994,99.723,85.986,99.753,85.986,99.768z M85.876,99.833c0-0.029,0-0.05,0-0.065c-0.015-0.06-0.029-0.125-0.044-0.199
			c-0.177,0.383-0.271,0.699-0.287,0.95c0,0.133,0.102,0.346,0.31,0.64c-0.015-0.059-0.022-0.096-0.022-0.11
			c0-0.088,0.072-0.368,0.221-0.839h-0.177V99.833z M85.986,99.37c-0.015,0.015-0.021,0.029-0.021,0.044c0,0.059,0,0.119,0,0.177
			c0-0.014,0.007-0.022,0.021-0.022C85.986,99.495,85.986,99.429,85.986,99.37z M86.207,99.414c0.029-0.102,0.067-0.213,0.11-0.331
			c0.015-0.044,0.021-0.095,0.021-0.155c-0.058,0.104-0.102,0.199-0.132,0.288V99.414z M84.352,89.653
			c-0.045-0.118-0.074-0.236-0.088-0.354c-0.207,0.544-0.316,1.274-0.332,2.186l0.023,0.066l-0.023-0.022c0,0.029,0,0.059,0,0.089
			c0,0.221,0.008,0.419,0.023,0.596c0.029-0.163,0.065-0.339,0.109-0.53c0-0.015,0-0.03,0-0.045c0-0.648,0.061-1.192,0.177-1.634
			c0-0.118,0.009-0.191,0.022-0.221C84.277,89.726,84.309,89.682,84.352,89.653z M83.822,91.375
			c-0.045-0.059-0.074-0.118-0.089-0.177c0,0.53,0.015,0.861,0.044,0.994c0.029,0.088,0.052,0.177,0.066,0.265
			c-0.015-0.25-0.021-0.538-0.021-0.861C83.822,91.508,83.822,91.435,83.822,91.375z M84.617,91.463
			c-0.045,0.383-0.074,0.744-0.088,1.082c0.029,0.103,0.073,0.199,0.132,0.288v-0.022c0.059-0.25,0.11-0.456,0.155-0.618
			c-0.045-0.103-0.08-0.199-0.11-0.287c0-0.073,0-0.132,0-0.176C84.676,91.64,84.647,91.552,84.617,91.463z M84.949,92.833
			c0-0.03,0.008-0.06,0.021-0.088c-0.014-0.059-0.03-0.119-0.045-0.177c0,0.103-0.008,0.206-0.022,0.309
			C84.919,92.862,84.933,92.848,84.949,92.833z M84.903,92.965c-0.015,0.177-0.021,0.376-0.021,0.597
			c0.016-0.088,0.029-0.162,0.044-0.221c0-0.176,0.007-0.324,0.023-0.441C84.933,92.899,84.919,92.921,84.903,92.965z
			 M84.529,92.854c-0.03,0.162-0.045,0.332-0.045,0.508c0,0.132,0,0.25,0,0.353c0.029-0.088,0.059-0.176,0.088-0.265
			c0.014-0.162,0.037-0.324,0.066-0.487C84.595,92.921,84.559,92.885,84.529,92.854z M84.286,93.275c0-0.029,0-0.052,0-0.066
			c0-0.25,0-0.478,0-0.684c-0.029-0.088-0.052-0.169-0.067-0.243C84.225,92.63,84.246,92.961,84.286,93.275z M84.043,93.186
			c0.045,0.324,0.133,0.611,0.266,0.861c-0.015-0.059-0.015-0.11,0-0.154c-0.045-0.177-0.082-0.347-0.111-0.508
			c-0.059-0.089-0.109-0.162-0.154-0.221V93.186z M84.064,93.076c0.029,0.074,0.074,0.155,0.133,0.243
			c-0.043-0.191-0.072-0.39-0.089-0.596L84.064,93.076z M85.191,93.782c0,0.032,0.007,0.062,0.021,0.088
			c0.004-0.008,0.01-0.016,0.022-0.021C85.206,93.82,85.191,93.797,85.191,93.782z M85.258,93.496
			c-0.045-0.104-0.081-0.199-0.11-0.288l0.088,0.398C85.235,93.562,85.243,93.525,85.258,93.496z M84.617,94.578
			c0.014,0.044,0.044,0.088,0.088,0.133c0.014-0.147,0.037-0.288,0.066-0.419c-0.015-0.162-0.022-0.39-0.022-0.685
			c0-0.133,0.008-0.281,0.022-0.442c-0.088,0.53-0.141,0.979-0.154,1.347C84.617,94.526,84.617,94.548,84.617,94.578z
			 M85.479,94.224c0.014,0.133,0.028,0.266,0.045,0.397c0.014-0.059,0.021-0.103,0.021-0.132
			C85.529,94.386,85.507,94.297,85.479,94.224z M85.456,94.997c-0.015-0.133-0.028-0.266-0.045-0.397
			c0,0.176,0.008,0.368,0.024,0.574C85.436,95.101,85.441,95.041,85.456,94.997L85.456,94.997z M84.661,94.931
			c0-0.045,0.015-0.081,0.045-0.11c-0.045-0.029-0.074-0.066-0.088-0.11c0,0.044,0,0.082,0,0.11
			C84.631,94.85,84.647,94.886,84.661,94.931z M84.903,95.306c0.046,0.06,0.104,0.125,0.178,0.199v-0.022
			c-0.074-0.103-0.125-0.206-0.155-0.309C84.911,95.204,84.903,95.248,84.903,95.306z M84.484,94.975
			c0,0.397,0.029,0.736,0.088,1.017c-0.029-0.354-0.043-0.686-0.043-0.994L84.484,94.975z M84.839,95.725
			c-0.03,0.31-0.061,0.604-0.09,0.884c0.119,0.309,0.31,0.684,0.574,1.126v-0.397c-0.015-0.074-0.036-0.162-0.065-0.266
			c-0.117-0.309-0.176-0.816-0.176-1.523c-0.074-0.029-0.133-0.059-0.178-0.088C84.889,95.535,84.868,95.623,84.839,95.725
			L84.839,95.725z M85.235,95.483c-0.029-0.043-0.044-0.072-0.045-0.088c0,0.016,0,0.045,0,0.088c0,0.545,0.045,1.016,0.133,1.414
			V95.77C85.295,95.682,85.265,95.586,85.235,95.483z M85.082,95.416c0-0.176,0.006-0.332,0.021-0.463
			c-0.059-0.177-0.096-0.353-0.109-0.53c-0.016,0.074-0.029,0.214-0.044,0.42C84.978,95.02,85.021,95.211,85.082,95.416z
			 M84.815,98.729c-0.029-0.044-0.059-0.161-0.088-0.353c0.029,0.103,0.065,0.213,0.111,0.331L84.815,98.729z"/>
	</g>
	<g id="Layer_3_17_">
		<path id="path8_18_" fill="#010101" d="M91.596,130.619c0.014,0.294,0.045,0.566,0.089,0.817h-0.067L91.596,130.619z
			 M108.092,96.985c0.162,1.796,0.383,4.638,0.663,8.524c0.266,3.931,0.471,6.832,0.618,8.701c0.029,0.293,0.045,0.64,0.045,1.038
			c0.309,0.589,0.47,0.95,0.486,1.081c0,0.119-0.016,0.162-0.045,0.133c-0.133-0.426-0.28-0.766-0.441-1.016
			c0.028,0.279,0.028,0.574,0,0.883c0.117,0.177,0.266,0.442,0.441,0.796c0.323,0.663,0.486,1.074,0.486,1.237
			c0,0.059,0,0.102,0,0.131c-0.118-0.338-0.428-0.979-0.928-1.921c-0.016,0.428-0.037,0.892-0.066,1.393
			c0.264,0.56,0.5,1.052,0.706,1.479h-0.043c-0.134-0.266-0.361-0.686-0.686-1.26c-0.028,0.294-0.065,0.619-0.11,0.972
			c0.103,0.161,0.258,0.435,0.465,0.817c0.367,0.75,0.559,1.192,0.573,1.325c0.016,0.073,0.008,0.097-0.021,0.065
			c-0.221-0.456-0.575-1.141-1.061-2.053c0,0.279-0.036,0.566-0.111,0.861c0.237,0.691,0.45,1.354,0.642,1.988l0.044,0.596
			l-0.044,0.021c-0.09-0.678-0.316-1.465-0.685-2.363c-0.015,0.266-0.06,0.553-0.133,0.861c0.471,1.326,0.743,2.246,0.817,2.761
			v0.309c-0.09-0.663-0.34-1.546-0.751-2.649c-0.045-0.045-0.074-0.104-0.088-0.176c-0.044,0.205-0.074,0.389-0.089,0.551
			c0.368,1.133,0.567,1.855,0.597,2.164l0.022,0.597h-0.022c-0.06-0.427-0.286-1.229-0.685-2.407
			c-0.015,0.074-0.038,0.146-0.066,0.221c0.044,0.104,0.089,0.229,0.133,0.375c0.191,0.899,0.316,1.62,0.376,2.165l0.022,1.215
			l-0.022-0.022c-0.044-0.662-0.185-1.494-0.42-2.496c-0.045-0.249-0.11-0.484-0.199-0.706c-0.059,0.413-0.14,0.861-0.242,1.347
			c0.339,1.414,0.56,2.319,0.663,2.717l0.064,0.663l-0.064,0.022c-0.074-0.604-0.287-1.555-0.642-2.85
			c-0.014-0.029-0.029-0.051-0.044-0.066c0.147,0.766,0.258,1.459,0.331,2.076c0.015,0.309,0.022,0.545,0.022,0.707
			c0.015,0.426-0.037,0.713-0.155,0.86l-0.021-0.021c0.117-0.192,0.147-0.493,0.088-0.905l-0.464-2.342v0.045
			c-0.059,0.295-0.14,0.589-0.242,0.883c0.176,0.795,0.285,1.465,0.33,2.01c0.06,0.692,0.045,1.119-0.045,1.281l-0.043-0.045
			c0.043-0.059,0.066-0.266,0.066-0.617c-0.015-0.222-0.023-0.398-0.023-0.531c-0.044-0.412-0.146-1.029-0.31-1.854
			c-0.028,0.015-0.043,0.036-0.043,0.067l0.021,0.176c0,0.441,0.046,1.104,0.133,1.988c0.029,0.809-0.058,1.464-0.265,1.965
			c0.074-0.766,0.146-1.304,0.221-1.612l-0.221-1.987c0-0.029-0.008-0.061-0.022-0.089c-0.133,0.663-0.272,1.304-0.42,1.921
			l0.178,2.188h-0.045l-0.243-1.943c0,0.088,0,0.17,0,0.242c0.015,1.105,0.015,1.826,0,2.164l-0.089,0.023
			c0.029-0.619,0.038-1.267,0.022-1.944c-0.088,0.354-0.176,0.7-0.266,1.038v0.023h-0.022c-0.116,0.5-0.241,1.016-0.375,1.546
			c0.103,1.177,0.847,2.281,2.23,3.312c0.647,0.529,2.187,1.486,4.616,2.871c0.84,0.441,1.619,0.913,2.342,1.414
			c0.029,0,0.058,0.007,0.087,0.021h-0.044c0.323,0.221,0.641,0.442,0.949,0.663c0.133,0,0.25,0,0.354,0l-0.179,0.044
			c-0.013,0-0.028,0.015-0.043,0.044c0.382,0.28,0.743,0.56,1.082,0.839c0.309,0.178,0.61,0.391,0.905,0.641
			c-0.016,0.029-0.051,0.052-0.11,0.066c0.515,0.428,0.971,0.898,1.369,1.413c0.074,0.073,0.14,0.177,0.199,0.31
			c0.383,0.221,0.581,0.383,0.597,0.485c0,0.06-0.009,0.089-0.022,0.089h-0.045c-0.088-0.074-0.221-0.17-0.397-0.287
			c0.222,0.383,0.472,0.838,0.752,1.369c0.809,0.53,1.222,0.883,1.235,1.061v0.176l-0.043,0.021
			c-0.148-0.249-0.487-0.566-1.017-0.948c0.103,0.25,0.213,0.485,0.332,0.706c0.279,0.441,0.536,0.893,0.772,1.348
			c0.928,0.56,1.391,0.928,1.391,1.104c0.029,0.074,0.015,0.134-0.044,0.178c-0.104-0.133-0.456-0.398-1.06-0.795
			c1.045,1.752,2.105,3.445,3.18,5.078c1.34,2.047,2.6,3.762,3.776,5.146c0.323,0.191,0.677,0.427,1.06,0.706
			c1.443,1.104,2.238,1.974,2.386,2.605c0.087,0.06,0.169,0.118,0.243,0.177c-0.029,0.368-0.127,0.766-0.288,1.192
			c0.045,0.104,0.067,0.199,0.067,0.287c0.058,0.56-0.067,1.163-0.376,1.812c-0.339,0.604-0.796,1.074-1.371,1.413
			c-0.794,1.192-1.699,2.333-2.716,3.423c-0.588,0.618-1.022,1.406-1.302,2.363c-0.147,0.545-0.323,1.325-0.53,2.342
			c-0.088,0.323-0.221,0.617-0.397,0.883c-0.028,0.428-0.11,0.766-0.243,1.016c-0.516,0.943-1.7,1.584-3.555,1.922
			c-0.766,1.162-1.473,1.803-2.12,1.922c-0.367,0.059-0.714-0.096-1.039-0.465c-0.117-0.117-0.199-0.249-0.242-0.396
			c-0.192,0.015-0.376,0.008-0.552-0.023c-0.281,0.296-0.494,0.457-0.641,0.487c-0.221,0.044-0.354,0.015-0.397-0.089
			c-0.016-0.029-0.023-0.066-0.023-0.109c-0.265,0.221-0.434,0.338-0.507,0.353c-0.369,0.06-0.787,0-1.26-0.177
			c-0.545-0.176-0.831-0.456-0.86-0.838c1.031-0.795,2.054-1.68,3.068-2.65c2.091-1.988,3.107-3.917,3.05-5.787
			c-0.017-1.28,0.404-2.959,1.257-5.034c0.31-0.708,0.552-1.289,0.729-1.745c-0.75-0.146-1.26-0.522-1.523-1.126
			c-0.206-0.648-0.375-1.134-0.508-1.458c-0.016-0.029-0.029-0.051-0.043-0.066c0,0.089-0.009,0.119-0.023,0.089
			c-0.118-0.221-0.288-0.493-0.509-0.817c0.029,0.074,0.053,0.14,0.066,0.198c-0.339-0.382-0.626-0.691-0.86-0.927
			c0.176,0.191,0.302,0.353,0.375,0.485l-0.023,0.089l-0.109,0.021c-0.191-0.266-0.58-0.759-1.17-1.479
			c-0.045-0.028-0.118-0.06-0.221-0.089l0.927,1.17l-0.021,0.133h-0.022l-1.061-1.435c-0.028-0.06-0.072-0.096-0.131-0.11
			c0.25,0.471,0.427,0.838,0.529,1.104c0.088,0.162,0.191,0.339,0.309,0.53l-0.133,0.065c-0.044-0.088-0.109-0.184-0.198-0.287
			c-0.132-0.102-0.228-0.228-0.286-0.375h0.044c0.015,0,0.037,0.015,0.066,0.045c-0.162-0.295-0.346-0.648-0.553-1.061
			c-0.073-0.117-0.133-0.213-0.177-0.287c-0.103-0.072-0.221-0.133-0.353-0.176c0.353,0.5,0.536,0.824,0.552,0.972l-0.022,0.309
			c-0.014,0-0.11-0.118-0.286-0.354h0.065l0.132,0.133v-0.066c-0.176-0.382-0.396-0.765-0.662-1.147
			c-0.177-0.119-0.374-0.236-0.596-0.354c0.205,0.367,0.309,0.67,0.309,0.905l0.022,0.243l-0.066,0.043
			c-0.117-0.412-0.331-0.875-0.64-1.39c-0.147-0.104-0.288-0.207-0.421-0.31c0.339,0.516,0.583,0.979,0.729,1.391
			c-0.074,0.029-0.177,0.029-0.309,0c0-0.059,0.029-0.088,0.088-0.088c0.029,0.045,0.044,0.029,0.044-0.044
			c-0.015-0.162-0.295-0.641-0.838-1.436c-0.119-0.075-0.244-0.14-0.376-0.199c0.485,0.708,0.728,1.142,0.728,1.304
			c0.015,0.088,0.008,0.146-0.021,0.176c-0.147-0.412-0.456-0.941-0.928-1.59c-0.06-0.045-0.11-0.082-0.154-0.111
			c0.205,0.295,0.448,0.655,0.729,1.082c0,0.029-0.022,0.037-0.066,0.023c-0.31-0.428-0.611-0.839-0.906-1.237
			c-0.353-0.221-0.655-0.413-0.905-0.574c0.162,0.265,0.324,0.544,0.487,0.839l-0.022,0.111c-0.223-0.281-0.531-0.707-0.929-1.281
			c-0.205-0.133-0.39-0.266-0.552-0.398c0.117,0.178,0.25,0.361,0.397,0.553l-0.022,0.021c-0.161-0.19-0.354-0.426-0.574-0.706
			c-0.015-0.029-0.052-0.067-0.109-0.11c0.249,0.324,0.471,0.596,0.662,0.816l-0.045,0.023c-0.354-0.34-0.729-0.736-1.126-1.193
			c-0.28-0.221-0.561-0.449-0.84-0.684c0.339,0.515,0.581,0.927,0.73,1.236l-0.863-1.303c-0.014-0.029-0.051-0.053-0.11-0.066
			c0.06,0.029,0.097,0.059,0.11,0.088c0.384,0.59,0.598,0.95,0.642,1.082c0.088,0.192,0.132,0.316,0.132,0.376
			c0.015,0.103,0.015,0.147,0,0.133c-0.103-0.177-0.294-0.486-0.573-0.929h-0.046c-0.043-0.117-0.133-0.279-0.265-0.485
			c-0.133-0.162-0.338-0.427-0.617-0.794c-0.354-0.295-0.729-0.59-1.127-0.885c0.265,0.354,0.56,0.686,0.882,0.994l-0.065,0.088
			c-0.279-0.294-0.536-0.561-0.772-0.795c0.294,0.383,0.735,0.912,1.325,1.59v-0.021c-0.045-0.206-0.088-0.34-0.133-0.397h0.066
			c0.072,0.161,0.125,0.287,0.155,0.375v0.198c-0.31-0.248-0.818-0.846-1.524-1.787c-0.191-0.266-0.354-0.502-0.487-0.708
			c-2.383-1.929-4.828-4.107-7.331-6.537c-0.06-0.044-1.23-0.53-3.511-1.457c-1.738-0.707-2.65-1.657-2.739-2.849
			c-0.088-0.781-0.391-1.738-0.904-2.872c-0.311-0.573-0.538-1.075-0.686-1.501l0.044,0.53c-0.029,0.133,0.022,0.435,0.154,0.905
			h-0.044c-0.072-0.28-0.146-0.67-0.221-1.17c-0.015,0.176-0.015,0.338,0,0.485h-0.065l-0.045-0.265c0.016-0.28,0.016-0.566,0-0.861
			c-0.104-0.34-0.169-0.618-0.199-0.84c-0.029-0.25-0.072-0.5-0.132-0.75c0,0.25,0,0.523,0,0.816
			c0.06,0.281,0.118,0.539,0.176,0.774h-0.065c-0.118-0.678-0.213-1.349-0.287-2.011c-0.014-0.249-0.028-0.545-0.044-0.883
			c-0.073-0.428-0.14-0.839-0.198-1.236c-0.03,0.471-0.081,0.965-0.155,1.479h-0.065c0.044-0.427,0.103-1.009,0.177-1.745
			c-0.045-0.426-0.104-0.832-0.177-1.215c0,0.016,0,0.029,0,0.045c0.044,0.25,0.058,0.574,0.044,0.972
			c-0.015-0.206-0.051-0.516-0.111-0.928c-0.028-0.324-0.064-0.538-0.109-0.641l0.021-0.11c0.016,0.029,0.037,0.074,0.066,0.133
			c-0.088-0.574-0.177-1.111-0.266-1.611c-0.044,0.47-0.065,0.92-0.065,1.346l-0.022-0.75c-0.015-0.059-0.007-0.309,0.022-0.75
			c-0.295-2.165-0.487-3.77-0.574-4.815c-0.221-2.414-0.744-9.187-1.568-20.317c-0.132-1.457-0.198-2.341-0.198-2.65
			c-0.029-0.971,0.073-1.811,0.309-2.518c0.323-0.765,1.229-1.855,2.717-3.268c1.869-1.738,2.863-2.687,2.98-2.849
			c4.33-4.388,7.502-6.463,9.519-6.228c1.398,0.162,2.224,1.472,2.475,3.931c0.015,0.22,0.021,0.729,0.021,1.524
			c0.029,0.78,0.118,1.413,0.265,1.899C107.585,94.121,107.769,95.321,108.092,96.985L108.092,96.985z"/>
	</g>
	<g id="Layer_4_19_">
		<path id="path11_16_" fill="#010101" d="M88.216,161.647c0.029,0.266,0.029,0.501,0,0.707c0.029-0.073,0.053-0.155,0.067-0.243
			C88.283,161.949,88.261,161.795,88.216,161.647z M82.895,127.506c0,0.177-0.007,0.375-0.021,0.596
			c0.073-0.133,0.125-0.271,0.154-0.418c0-0.207,0-0.406,0-0.598C82.998,127.203,82.953,127.344,82.895,127.506z M105.045,94.953
			c0-0.117-0.324,3.026-0.971,9.43c-0.662,6.581-1.12,10.232-1.37,10.954c-0.088,0.28-0.243,0.751-0.465,1.413
			c0.089,0.309,0.193,0.722,0.31,1.237l0.11,1.147l-0.043,0.023c-0.075-0.545-0.229-1.215-0.465-2.01
			c-0.045,0.103-0.081,0.191-0.11,0.266c0.104,0.221,0.198,0.485,0.286,0.795c0.075,0.234,0.148,0.617,0.222,1.147l0.176,1.502
			l-0.176,0.022l-0.109-0.221h0.088c0.044,0.088,0.072,0.132,0.088,0.132l-0.111-1.28c-0.221-0.795-0.39-1.428-0.507-1.9
			c-0.074,0.222-0.141,0.473-0.199,0.752c0.25,0.942,0.404,1.641,0.464,2.098l0.021,0.84l-0.021-0.023
			c-0.074-0.735-0.147-1.295-0.221-1.678c-0.044-0.191-0.118-0.479-0.221-0.861c-0.044-0.059-0.073-0.125-0.088-0.198
			c-0.192,0.662-0.406,1.406-0.641,2.229c0.014,0.074,0.037,0.155,0.066,0.243c0.235,0.839,0.39,1.48,0.464,1.923v0.221
			c-0.236-0.736-0.457-1.385-0.663-1.944c-0.03,0.162-0.074,0.331-0.133,0.509c0.074,0.338,0.162,0.713,0.266,1.126
			c0.265,0.972,0.404,1.774,0.419,2.407l-0.065-0.023c-0.044-0.426-0.207-1.287-0.486-2.583c-0.074-0.25-0.133-0.472-0.176-0.663
			c-0.015,0.045-0.031,0.104-0.045,0.178v0.021c-0.104,0.279-0.191,0.545-0.266,0.795c0.074,0.383,0.184,0.986,0.332,1.811
			c0.014,0.119,0.021,0.251,0.021,0.398c0.146,0.854,0.243,1.375,0.287,1.567c0.016,0.28-0.008,0.442-0.066,0.487
			c-0.051-0.439-0.103-0.834-0.154-1.184c0.001,0.064-0.008,0.133-0.022,0.211h-0.11c0.059-0.206,0.073-0.427,0.045-0.662
			c-0.074-0.619-0.176-1.26-0.309-1.922c-0.017-0.207-0.037-0.375-0.067-0.508c-0.133,0.441-0.279,0.884-0.441,1.325
			c0.074,0.28,0.184,0.67,0.33,1.169l0.133,1.238h-0.043c-0.222-0.883-0.383-1.619-0.487-2.209c-0.221,0.723-0.449,1.392-0.684,2.01
			c0.044,0.103,0.073,0.222,0.088,0.354c0.117,0.986,0.096,1.502-0.066,1.546c-0.072,0-0.096-0.007-0.064-0.021
			c0.131-0.163,0.168-0.567,0.109-1.215c-0.029-0.177-0.052-0.339-0.065-0.486c-0.075,0.235-0.163,0.456-0.265,0.662
			c0.058,0.221,0.094,0.405,0.109,0.552c0.059,0.635,0.073,1.09,0.045,1.37c-0.029-0.029-0.066-0.066-0.111-0.11
			c0.074-0.191,0.066-0.59-0.022-1.192c-0.015-0.162-0.052-0.31-0.11-0.442c-0.015,0.118-0.036,0.207-0.066,0.266
			c-0.176,0.471-0.353,0.928-0.529,1.369l0.088,0.752c0.06,0.367,0.081,0.588,0.067,0.662c0,0.266-0.082,0.457-0.244,0.574
			c0.104-0.162,0.155-0.368,0.155-0.619c0-0.073-0.015-0.294-0.044-0.662l-0.133-0.53c-0.073,0.206-0.171,0.405-0.288,0.597
			c0.015,0.221,0.051,0.479,0.111,0.773l0.021,0.707l-0.109,0.021c-0.104-0.265-0.162-0.5-0.177-0.707v-0.088l0.087,0.088
			l0.066,0.508h0.045l-0.133-1.082c-0.059,0.162-0.133,0.318-0.221,0.465l0.155,1.457c-0.016,0.045-0.044,0.125-0.089,0.242
			c0,0.074-0.037,0.135-0.109,0.178c0.072-0.133,0.109-0.25,0.109-0.354l-0.155-1.369c-0.073,0.221-0.176,0.441-0.309,0.662
			l0.088,1.061l-0.065,0.021l-0.089-0.088c0.06-0.148,0.06-0.428,0-0.84c-0.161,0.25-0.309,0.486-0.441,0.707
			c0.016,0.177,0.029,0.368,0.044,0.574h-0.044l-0.043-0.508c-0.192,0.311-0.37,0.597-0.53,0.861
			c-0.029,2.12-0.222,3.756-0.575,4.903c0.28,0.735,0.566,1.538,0.86,2.407c0.796,2.002,1.576,3.953,2.341,5.853
			c0,0.015,0.075,0.61,0.222,1.788c0.088,1.223,0.111,2.363,0.066,3.423c0.028,0.368,0.037,0.737,0.021,1.104
			c0.074,0.472,0.125,0.936,0.156,1.393c-0.119,0.308-0.221,0.639-0.309,0.992c-0.133,1.62-0.273,2.945-0.421,3.976
			c-0.028,0.529,0.022,1.523,0.155,2.981c0.014,0.147,0.088,0.529,0.221,1.148c-0.016,0.104-0.037,0.205-0.066,0.31
			c-0.663,2.649-0.839,5.344-0.529,8.083c-0.03,0.043,0.228,0.743,0.772,2.098c0.575,1.443,0.868,2.289,0.884,2.539
			c0.059,0.751-0.185,1.45-0.729,2.099c-0.722,0.839-1.854,1.368-3.4,1.589c-0.986,0.163-1.922,0.03-2.805-0.396
			c-0.928-0.456-1.942-0.589-3.048-0.396c-0.426,0.044-0.964,0.287-1.611,0.729c-0.663,0.427-1.362,0.699-2.099,0.816
			c-1.413,0.206-3.062,0.266-4.947,0.178c-1.457-0.046-2.378-0.126-2.759-0.244c-0.604-0.146-1.039-0.375-1.305-0.686
			c-0.132-0.205-0.492-0.315-1.082-0.33c-1.427-0.016-2.341-0.088-2.737-0.221c-0.265-0.074-0.419-0.25-0.465-0.529
			c-0.028-0.266,0.281-0.84,0.929-1.723c0.691-0.824,1.06-1.244,1.104-1.259l2.959-0.465c0.205,0.015,0.589,0.134,1.147,0.354
			c0.502,0.19,0.855,0.279,1.061,0.265c1.428-0.589,2.849-1.289,4.261-2.099c0.178-0.133,0.37-0.257,0.575-0.375
			c-0.25,0.014-0.669,0.066-1.258,0.154c0.411-0.103,0.89-0.191,1.434-0.266c0.767-0.529,1.414-1.016,1.945-1.457
			c-0.018,0-0.031,0.004-0.045,0.012c0.039-0.033,0.076-0.066,0.109-0.1c0.413-0.369,0.729-0.729,0.951-1.082
			c-0.442,0.412-0.796,0.625-1.061,0.641c-0.074,0.043-0.104,0.036-0.089-0.023c0.206-0.25,0.671-0.646,1.392-1.191
			c0.06-0.045,0.104-0.082,0.131-0.11c0.062-0.222,0.09-0.457,0.09-0.708c0.014-0.146,0.014-0.302,0-0.464
			c-0.028,0.074-0.052,0.132-0.065,0.177c-0.118,0.177-0.36,0.545-0.73,1.104c0.354-0.648,0.619-1.163,0.796-1.546
			c0-0.016-0.008-0.045-0.021-0.088c-0.177,0.309-0.398,0.604-0.663,0.883c0.28-0.501,0.501-0.883,0.663-1.148
			c0.014-0.235,0.007-0.449-0.022-0.641c-0.147,0.324-0.346,0.743-0.597,1.259h-0.066c0.295-0.633,0.516-1.111,0.663-1.436
			c0-0.323-0.008-0.618-0.021-0.883c-0.016,0.073-0.052,0.154-0.111,0.242c-0.06,0.163-0.258,0.604-0.597,1.325
			c0.295-0.706,0.523-1.296,0.684-1.766c0.017-0.045,0.024-0.096,0.024-0.154c-0.134,0.234-0.369,0.662-0.708,1.279
			c0.279-0.617,0.508-1.119,0.684-1.501c0-0.34-0.014-0.648-0.043-0.929c-0.368,0.797-0.671,1.318-0.905,1.569l-0.022-0.022
			c0.309-0.428,0.618-1.023,0.928-1.789c0-0.736-0.014-1.317-0.044-1.746c-0.045,0.222-0.118,0.509-0.222,0.862
			c-0.205,0.722-0.381,1.237-0.53,1.546l-0.064-0.021c0.16-0.369,0.345-0.951,0.551-1.746c0.118-0.484,0.192-0.883,0.222-1.191
			c0.014-0.176,0.014-0.316,0-0.419c-0.029,0.103-0.082,0.221-0.154,0.353c-0.088,0.691-0.236,1.451-0.442,2.274l-0.066-0.021
			c0.176-0.692,0.302-1.348,0.376-1.966c-0.029,0.045-0.051,0.088-0.067,0.133v-0.045c0.03-0.072,0.054-0.154,0.067-0.242
			c0.088-0.56,0.118-1.104,0.088-1.635c-0.029,0.266-0.074,0.471-0.133,0.619l-0.022-0.022c0.017-0.103,0.022-0.251,0.022-0.441
			c-0.176,0.528-0.492,1.022-0.949,1.479c0.134-0.162,0.251-0.34,0.354-0.53c0.176-0.294,0.315-0.589,0.419-0.884l-0.022,0.022
			c0.073-0.161,0.14-0.375,0.198-0.64c-0.132,0.396-0.331,0.896-0.596,1.501c0.28-0.824,0.485-1.458,0.618-1.899
			c-0.059-0.177-0.125-0.361-0.199-0.553c0,0.119-0.015,0.236-0.044,0.354c-0.073,0.457-0.244,0.891-0.508,1.304
			c0.265-0.692,0.427-1.216,0.485-1.568c0-0.103,0-0.25,0-0.442c-0.088-0.176-0.154-0.375-0.197-0.596
			c-0.03,0.207-0.066,0.42-0.111,0.64c-0.104,0.562-0.279,1.062-0.53,1.503l-0.021-0.022c0.265-0.898,0.427-1.473,0.486-1.723
			c0.058-0.192,0.081-0.427,0.065-0.707c-0.088-0.19-0.169-0.397-0.242-0.618c-0.147,0.574-0.281,0.943-0.397,1.104
			c0.162-0.603,0.257-1.053,0.287-1.347c-0.015-0.015-0.022-0.028-0.022-0.044c-0.177,0.471-0.288,0.891-0.332,1.26h-0.021
			c-0.016-0.016-0.031-0.029-0.045-0.046c0-0.028,0.081-0.427,0.242-1.192c0.044-0.102,0.066-0.191,0.066-0.265
			c-0.014-0.059-0.029-0.096-0.045-0.11c-0.75-1.679-1.243-3.629-1.479-5.853c-0.118-1.369-0.147-2.827-0.089-4.372
			c0.104-1.561,0.104-2.887,0-3.975c-0.014-0.207-0.331-0.641-0.948-1.303c-0.604-0.692-0.936-1.23-0.993-1.613
			c-0.089-0.913-0.303-1.627-0.643-2.143c-0.412-0.5-0.662-1.369-0.75-2.605c-0.059-0.516,0.147-1.295,0.619-2.341
			c0.206-0.427,0.419-0.817,0.64-1.171c-0.088-0.338-0.146-0.728-0.176-1.17c-0.089,0.207-0.17,0.34-0.243,0.397
			c0.073-0.368,0.131-0.699,0.176-0.994c-0.015-0.544-0.029-1.236-0.045-2.075c-0.028,0.118-0.08,0.25-0.154,0.396
			c0.015,0.045,0.021,0.082,0.021,0.111l0.09,0.177c0,0.132-0.09,0.765-0.267,1.899h-0.021c-0.029-0.06-0.05-0.141-0.066-0.244
			c0-0.132,0.022-0.404,0.066-0.816c-0.104,0.266-0.229,0.508-0.376,0.729c0.206-0.398,0.34-0.854,0.396-1.369
			c-0.013,0.073-0.035,0.14-0.064,0.197h-0.067c0.016-0.043,0.089-0.286,0.221-0.728c0.016-0.294,0.024-0.544,0.024-0.751
			c-0.074,0.178-0.17,0.413-0.288,0.707l-0.045-0.045c0.149-0.471,0.274-0.875,0.376-1.214c0.015-0.044,0.021-0.074,0.021-0.089
			c0.074-0.191,0.133-0.36,0.177-0.507c-0.161,0.176-0.338,0.368-0.529,0.574l-0.022-0.066c0.206-0.235,0.397-0.449,0.575-0.642
			c0.028-0.602,0.05-1.25,0.065-1.941c-0.354,0.544-0.7,1.045-1.038,1.5l0.022-0.021c0.015,0.015-0.016,0.088-0.089,0.221
			l-0.044-0.045c0.162-0.382,0.545-1.045,1.148-1.986c0.06-1.193,0.125-2.533,0.199-4.021c0.323-5.241,0.56-8.237,0.706-8.987
			c0.634-2.754,1.664-6.133,3.092-10.137c0.354-1.149,0.627-2.025,0.817-2.629c0.428-1.074,0.973-1.935,1.634-2.583
			c0.737-0.545,1.619-0.839,2.651-0.883c2.016-0.089,3.055-0.132,3.113-0.132c3.15-0.487,5.697-0.619,7.642-0.397
			C104.345,94.548,105.031,94.731,105.045,94.953L105.045,94.953z"/>
	</g>
	<g id="Layer_5_21_">
		<path id="path14_16_" fill="#010101" d="M115.159,44.535c0.122,0.154,0.255,0.31,0.397,0.464c0.589,0.721,1.111,1.369,1.568,1.942
			c0.485,0.604,0.897,1.119,1.235,1.546c0.12,0.943,0.272,1.907,0.466,2.894c0.044,0.191,0.095,0.36,0.154,0.507
			c-0.221,0.869-0.323,1.347-0.311,1.435c0.031,0,0.296,0.479,0.796,1.436c0.251,0.5,0.567,1.133,0.951,1.898
			c0.309,0.987,0.646,4.726,1.015,11.219c0.146,2.65,0.259,4.918,0.331,6.802c0.06,2.93,0.008,4.91-0.154,5.94
			c-1.002,6.111-2.254,11.529-3.755,16.255c-1.486,4.549-3.024,7.847-4.615,9.893c0.59,0.561,0.979,1.148,1.17,1.768
			c0.235,0.75,0.354,1.185,0.354,1.303c0.029,0.293-0.053,1-0.244,2.119c-0.132,0.692-0.573,1.371-1.325,2.033
			c-0.044,0.028-0.08,0.064-0.11,0.109c0.089,0.088,0.163,0.206,0.221,0.354c-0.014,0,0.082,0.479,0.287,1.436
			c0.046,1.045-0.412,1.729-1.369,2.054c-0.456,0.133-0.935,0.044-1.435-0.265c-0.017,1.34-0.31,2.105-0.884,2.296
			c-0.516,0.192-1.009,0.052-1.479-0.419c-0.266,0.25-0.649,0.479-1.148,0.684c-1.575,0.516-2.769,0.641-3.579,0.377
			c-0.691-0.266-1.169-0.921-1.435-1.967c-1.016-3.297-0.192-7.242,2.474-11.836c0.794-1.34,1.582-2.416,2.363-3.227
			c0.103-2.854,0.743-7.603,1.922-14.243c1.383-8.023,2.347-12.912,2.893-14.664c0.043-0.162,0.088-0.295,0.133-0.397
			c-0.133-0.088-0.272-0.177-0.42-0.265c0-0.045,0.008-0.074,0.021-0.089c-0.132-0.707-0.22-1.097-0.265-1.17
			c-0.117-0.368-0.993-1.553-2.628-3.556c-0.222-0.265-0.442-0.552-0.663-0.861c-0.014-0.191-0.051-0.412-0.109-0.662
			c-0.368-1.266-0.553-1.921-0.553-1.966c-0.633-2.061-1.016-3.224-1.149-3.488c-0.176-0.369-0.404-0.847-0.684-1.436
			c-0.28-2.65-0.464-4.107-0.552-4.373c-0.03-0.059-0.598-0.544-1.702-1.458c-0.071-0.059-0.146-0.125-0.22-0.199
			c-0.559-0.5-1.001-1.03-1.325-1.59c-0.265-0.398-0.456-0.818-0.575-1.259c-0.529-1.708-0.706-3.364-0.529-4.969
			c0.088-0.736,0.251-1.464,0.486-2.186c0.014-0.058,0.032-0.112,0.055-0.166c0.008-0.133,0.012-0.239,0.012-0.321
			c0-1.31,0.722-2.326,2.164-3.046c1.311-0.634,2.907-0.914,4.793-0.84c1.884,0.06,3.481,0.45,4.792,1.17
			C114.405,42.33,115.125,43.323,115.159,44.535L115.159,44.535z"/>
	</g>
	<g id="Layer_6_13_">
		<path id="path17_18_" fill="#010101" d="M104.161,43.397c0.168,0.304,0.337,0.646,0.508,1.027c0.294,0.707,0.61,1.546,0.95,2.517
			c0.132,0.413,0.265,0.839,0.396,1.281c0.574,1.869,0.994,3.32,1.26,4.35c-0.177,0.708-0.332,1.436-0.465,2.187
			c-0.059,0.235-0.109,0.479-0.154,0.729c-0.029,0.191-0.059,0.368-0.088,0.53c-0.485,0.736-0.736,1.148-0.751,1.237
			c0.015,0.029,0.125,1.317,0.332,3.865c-0.09,1.06-1.149,4.734-3.18,11.021c-0.28,0.883-0.554,1.729-0.818,2.539
			c-1.723,5.138-2.952,8.362-3.688,9.672c-3.165,5.418-6.309,10.101-9.43,14.045c-3.005,3.785-5.617,6.376-7.84,7.775
			c0.119,0.221,0.198,0.434,0.242,0.641c-0.014,0.117-0.029,0.25-0.044,0.396c0,0.074,0.008,0.207,0.022,0.397
			c-0.206,0.25-0.442,0.552-0.707,0.905c-0.78,1.031-1.567,2.216-2.363,3.556c-0.294,0.089-0.486,0.177-0.574,0.266
			c-0.029,0.029-0.205,0.427-0.53,1.192c0.192,0.235,0.545,0.486,1.06,0.751c-0.044,0.191-0.087,0.412-0.133,0.662
			c-0.338,0.987-1,1.465-1.986,1.436c-0.472,0-0.876-0.257-1.215-0.772c-0.5,1.251-1.045,1.877-1.635,1.877
			c-0.545-0.016-0.956-0.324-1.236-0.928c-0.324,0.133-0.736,0.199-1.237,0.199c-0.5-0.016-0.965-0.053-1.391-0.111
			c-0.117-0.102-0.235-0.206-0.354-0.309c-0.354-0.604-0.617-0.906-0.794-0.906c-0.178,0-0.338,0.016-0.486,0.045
			c-0.266-0.162-0.56-0.316-0.883-0.464c-0.133-0.427-0.178-0.965-0.133-1.612c0.294-3.488,2.496-6.928,6.603-10.313
			c1.252-1.017,2.37-1.752,3.358-2.208c1.147-2.65,3.48-6.928,6.999-12.832c4.595-7.803,7.355-12.212,8.283-13.228
			c-0.089-0.163-0.192-0.309-0.31-0.442c0.028-0.03,0.065-0.052,0.109-0.066c0.119-0.721,0.184-1.111,0.2-1.17
			c0-0.382-0.376-1.833-1.127-4.351c-0.104-0.338-0.206-0.684-0.31-1.037c0.089-0.207,0.154-0.45,0.2-0.729
			c0.116-1.311,0.184-1.995,0.197-2.053c0.146-2.179,0.221-3.431,0.221-3.754c-0.029-0.398-0.066-0.935-0.109-1.612
			c0.721-2.636,1.088-4.079,1.104-4.328c0-0.074-0.331-0.759-0.994-2.055c-0.633-1.251-0.905-2.466-0.818-3.643
			c0.047-0.57,0.124-1.118,0.232-1.646c-0.008-0.035-0.011-0.067-0.011-0.101c0-1.516,0.709-2.893,2.121-4.129
			c1.237-1.06,2.789-1.849,4.66-2.363c1.795-0.501,3.35-0.618,4.66-0.354c1.412,0.28,2.119,0.943,2.119,1.988
			C104.206,43.117,104.19,43.261,104.161,43.397z"/>
	</g>
</g>
</svg>
