<?xml version="1.0" encoding="utf-8"?>
<!-- Generator: Adobe Illustrator 15.0.0, SVG Export Plug-In . SVG Version: 6.00 Build 0)  -->
<svg version="1.2" baseProfile="tiny" id="Layer_1" xmlns="http://www.w3.org/2000/svg" xmlns:xlink="http://www.w3.org/1999/xlink"
	 x="0px" y="0px" width="200px" height="200px" viewBox="0 0 200 200" overflow="inherit" xml:space="preserve">
<g>
	<g id="Layer_2_13_">
		<path id="path5_20_" fill="#010101" d="M93.471,60.09h0.026c-0.018-0.088-0.035-0.158-0.053-0.211
			c-0.018,0-0.035-0.01-0.053-0.027C93.41,59.939,93.434,60.02,93.471,60.09z M93.551,60.222c-0.017,0.019-0.044,0.027-0.08,0.027
			c0.071,0.159,0.124,0.309,0.16,0.451C93.612,60.54,93.587,60.381,93.551,60.222z M99.218,57.494l0.027-0.026
			c-0.053-0.053-0.088-0.115-0.105-0.186C99.139,57.354,99.166,57.423,99.218,57.494z M97.02,57.361h-0.239
			c0.037,0.194,0.063,0.389,0.082,0.583c-0.019,0.406-0.16,0.962-0.426,1.668c0,0.018-0.265,0.504-0.794,1.457
			c-0.336,0.495-0.653,0.838-0.954,1.033c0.213,0.671,0.442,1.351,0.689,2.04c0.742-0.812,1.182-1.299,1.324-1.457
			c0.16-0.159,0.371-0.566,0.635-1.218c0.266-0.653,0.362-1.29,0.292-1.907c-0.054-0.442-0.088-0.813-0.105-1.113H97.47v0.026
			c-0.053,0.142-0.097,0.213-0.133,0.213c-0.034,0-0.107-0.01-0.211-0.027L97.02,57.361z M95.246,55.905
			c0.054-0.036,0.099-0.053,0.133-0.053l0.025,0.027c-0.158,0.9-0.336,1.615-0.528,2.145c-0.035,0.053-0.08,0.133-0.133,0.239
			c0,0.6-0.063,1.05-0.185,1.351c0,0.018,0,0.036,0,0.053c0,0.724-0.055,1.279-0.159,1.668c0.088,0.23,0.168,0.459,0.238,0.689
			c0.247-0.142,0.539-0.496,0.874-1.061c0.389-0.582,0.661-1.059,0.82-1.43c0.23-0.564,0.354-1.077,0.372-1.536
			c0.018-0.354-0.018-0.732-0.107-1.139c-0.053-0.229-0.158-0.503-0.316-0.821c0.018,0.6-0.01,0.989-0.079,1.166
			c-0.09,0.229-0.143,0.327-0.16,0.291c-0.282-0.83-0.503-1.819-0.662-2.967c-0.246-0.265-0.477-0.592-0.689-0.98
			c0.178,0.777,0.301,1.36,0.371,1.749c-0.281-0.389-0.625-1.307-1.032-2.755c0.229,1.13,0.407,2.137,0.53,3.019
			c0.052,0.53,0.097,1.017,0.131,1.458c0.036,0.335,0.054,0.645,0.054,0.927C94.936,57.485,95.105,56.806,95.246,55.905z
			 M96.49,55.058c0.02,0,0.035,0,0.054,0c-0.034-0.071-0.061-0.133-0.079-0.186C96.464,54.907,96.474,54.969,96.49,55.058z
			 M96.675,55.56c0.034,0.035,0.053,0.07,0.055,0.106c0-0.054-0.01-0.089-0.026-0.106H96.675z M98.531,56.541
			c-0.055,0.249-0.116,0.487-0.187,0.716c0.214,0.159,0.425,0.265,0.637,0.317C98.839,57.238,98.69,56.894,98.531,56.541z
			 M99.564,56.355c-0.036,0-0.08-0.018-0.133-0.053c0.069,0.123,0.133,0.248,0.186,0.372C99.598,56.568,99.582,56.461,99.564,56.355
			L99.564,56.355z M97.92,57.282c-0.016-0.034-0.025-0.062-0.025-0.079c-0.017,0.07-0.044,0.15-0.079,0.238
			C97.851,57.389,97.886,57.335,97.92,57.282z M98.213,57.125c0.034-0.072,0.052-0.133,0.052-0.186
			c-0.018,0.053-0.043,0.105-0.078,0.159L98.213,57.125z M97.658,56.832c0-0.035,0-0.08,0-0.133
			c-0.053-0.067-0.088-0.13-0.105-0.185c0.033,0.108,0.052,0.232,0.052,0.371L97.658,56.832z M98.187,55.932v0.026
			c-0.07,0.301-0.134,0.565-0.185,0.795c0,0.07,0.017,0.132,0.051,0.186c0.018,0.018,0.035,0.036,0.055,0.053
			c0.052-0.106,0.097-0.212,0.132-0.318c0.054-0.124,0.097-0.266,0.132-0.424c-0.016-0.088-0.044-0.15-0.078-0.185
			C98.275,55.995,98.238,55.949,98.187,55.932z M97.681,54.846c-0.015-0.053-0.033-0.089-0.052-0.106l-0.105,0.397
			c-0.034,0.017-0.078,0.044-0.133,0.08c0.017,0.017,0.026,0.035,0.026,0.052c0.019,0.07,0.028,0.141,0.028,0.212
			c0.122,0.353,0.245,0.653,0.368,0.9c0.091-0.248,0.169-0.486,0.239-0.715C97.93,55.403,97.806,55.129,97.681,54.846z
			 M97.603,54.686c-0.105,0.037-0.22,0.062-0.345,0.081c0.036,0.124,0.07,0.221,0.105,0.292
			C97.454,54.969,97.533,54.846,97.603,54.686z M99.035,55.11l0.131-0.371c-0.158-0.143-0.353-0.362-0.582-0.663
			C98.795,54.501,98.947,54.846,99.035,55.11z M99.299,55.005c-0.02,0.053-0.029,0.096-0.029,0.132
			c-0.104,0.124-0.219,0.247-0.343,0.371c0.09,0.159,0.16,0.273,0.212,0.344c0.035,0.071,0.062,0.133,0.079,0.186l0.318,0.079
			c-0.018-0.371-0.053-0.706-0.105-1.006C99.396,55.076,99.352,55.04,99.299,55.005z M98.503,54.527
			c0.017,0.054,0.035,0.115,0.055,0.187c0.123,0.247,0.22,0.467,0.29,0.662l0.026-0.054h-0.026
			C98.742,55.058,98.628,54.793,98.503,54.527z M103.273,60.487l0.104-0.026c-0.018-0.248-0.027-0.521-0.027-0.821l-0.608-0.132
			C102.938,59.984,103.111,60.31,103.273,60.487z M99.908,58.581c0-0.142-0.018-0.265-0.053-0.371
			c-0.142-0.124-0.336-0.335-0.585-0.636c0,0.018,0,0.036,0,0.053c0.196,0.354,0.407,0.697,0.638,1.033V58.581L99.908,58.581z
			 M102.052,58.368c0.02,0.16,0.02,0.319,0,0.477c0,0.017-0.008,0.062-0.024,0.133c0.034,0.017,0.105,0.044,0.211,0.079
			c0.054,0.054,0.106,0.089,0.158,0.106L102.052,58.368z M102.001,57.574c0.053,0.194,0.08,0.379,0.08,0.556
			c0.141,0.213,0.299,0.521,0.476,0.928c0.018,0.071,0.044,0.124,0.079,0.159c0.212,0.106,0.451,0.203,0.715,0.292
			c-0.017-1.025-0.23-2.199-0.636-3.523c-0.089,0.247-0.193,0.583-0.318,1.007C102.273,57.22,102.144,57.415,102.001,57.574z
			 M101.895,57.786c-0.018-0.035-0.018-0.062,0-0.08c-0.248,0.212-0.512,0.335-0.794,0.371c-0.283,0.372-0.54,0.53-0.769,0.478
			c-0.034-0.034-0.079-0.053-0.132-0.053c-0.034,0.071-0.062,0.142-0.081,0.212c-0.034,0.141-0.078,0.203-0.131,0.186
			c-0.265-0.089-0.406-0.133-0.424-0.133c-0.159-0.353-0.327-0.681-0.504-0.98c-0.158,0.107-0.335,0.133-0.529,0.079
			c-0.106-0.017-0.221-0.114-0.344-0.291c-0.07,0.053-0.133,0.018-0.185-0.106c-0.072,0.089-0.159,0.176-0.267,0.265v0.027
			c0.83,2.314,1.544,3.566,2.145,3.761c0.514,0.142,0.928-0.043,1.245-0.557l0.398-1.032c0.195-0.495,0.293-0.839,0.293-1.033
			C101.814,58.545,101.842,58.175,101.895,57.786L101.895,57.786z M100.172,55.932h0.027l0.079-0.225
			C100.259,55.755,100.222,55.831,100.172,55.932L100.172,55.932z M100.967,56.197c-0.177,0.159-0.432,0.229-0.768,0.211
			c0.071,0.459,0.098,0.865,0.079,1.219c0.158,0.212,0.309,0.415,0.451,0.609c0.069-0.053,0.121-0.098,0.158-0.132
			c0.334-0.372,0.557-0.707,0.664-1.007c0.087-0.229,0.069-0.494-0.055-0.794c-0.123-0.247-0.192-0.459-0.21-0.636
			C101.268,55.685,101.161,55.861,100.967,56.197L100.967,56.197z M99.908,54.898c0.054,0.301,0.098,0.583,0.132,0.848
			c0.034,0.017,0.062,0.035,0.079,0.053l0.054-0.159c0.159-0.406,0.281-0.733,0.372-0.98c0-0.053-0.011-0.106-0.027-0.159
			C100.339,54.713,100.137,54.846,99.908,54.898z M101.736,55.588c-0.018-0.266-0.054-0.54-0.105-0.821
			c-0.125-0.159-0.267-0.345-0.424-0.556c0.176,0.547,0.211,1.006,0.105,1.377c0.248,0.423,0.387,0.688,0.424,0.794
			c0.053,0.212,0.026,0.459-0.078,0.742c-0.106,0.247-0.258,0.52-0.451,0.821c0,0.017-0.01,0.035-0.026,0.052
			c0.264-0.088,0.494-0.238,0.688-0.45c0-0.017,0-0.035,0-0.053c0.035-0.053,0.052-0.106,0.052-0.159l0.055,0.027
			c0.068-0.176,0.168-0.424,0.29-0.741c0.123-0.265,0.213-0.565,0.266-0.901c-0.213-0.229-0.478-0.512-0.794-0.848
			C101.752,55.119,101.752,55.358,101.736,55.588z M101.656,54.157c0,0.071,0.01,0.142,0.026,0.211
			c0.282,0.317,0.53,0.592,0.742,0.821c-0.02-0.142-0.053-0.291-0.106-0.45C102.107,54.598,101.886,54.404,101.656,54.157z
			 M103.325,56.197c-0.071-0.018-0.143-0.054-0.212-0.106c0.459,1.342,0.688,2.42,0.688,3.232c0.105-0.053,0.213-0.098,0.317-0.133
			c0.036-0.035,0.073-0.062,0.106-0.079v-0.054c0.018-0.017,0.055-0.009,0.105,0.027c0.125-0.07,0.204-0.142,0.239-0.212
			c0.178-0.477,0.23-0.998,0.159-1.563c-0.159-0.335-0.345-0.68-0.556-1.033C103.961,56.312,103.679,56.285,103.325,56.197
			L103.325,56.197z M103.007,54.925c-0.018,0.247-0.054,0.459-0.105,0.636c0.372,0.283,0.732,0.478,1.085,0.582
			c0.054,0.019,0.099,0.037,0.133,0.054c-0.265-0.477-0.539-0.98-0.82-1.511c-0.034,0-0.09,0-0.159,0v0.028
			c-0.053,0.142-0.087,0.221-0.106,0.238L103.007,54.925z M102.637,54.978c0-0.018,0-0.043,0-0.079h-0.027
			C102.609,54.917,102.618,54.943,102.637,54.978z M104.914,55.56c-0.016,0.019-0.052,0.071-0.105,0.159
			c0.055,0.071,0.098,0.16,0.132,0.266c0-0.123,0-0.274,0-0.45C104.924,55.535,104.914,55.543,104.914,55.56z M106,58.925
			c0.105,0.177,0.193,0.345,0.266,0.503c0.071-0.424,0.124-0.785,0.159-1.085c-0.371-0.619-0.849-1.492-1.431-2.623
			c0,0.142-0.009,0.265-0.026,0.371c0.212,0.389,0.396,0.777,0.557,1.166C105.84,57.91,106,58.466,106,58.925z M105.92,59.719
			c0.072,0.018,0.142,0.036,0.212,0.053L106,59.508c0.018-0.018,0.018-0.026,0-0.026C105.983,59.552,105.956,59.631,105.92,59.719z
			 M105.604,58.792c-0.142-0.229-0.301-0.485-0.478-0.768c-0.035,0.089-0.071,0.176-0.106,0.265
			c-0.121,0.354-0.255,0.565-0.396,0.636c-0.054,0.036-0.124,0.089-0.211,0.159c0.122,0,0.335,0.044,0.633,0.132
			c0.055,0.036,0.169,0.106,0.345,0.211c0.105,0.088,0.229,0.168,0.371,0.239C105.762,59.383,105.709,59.092,105.604,58.792
			L105.604,58.792z M107.272,59.031c0.051-0.389-0.15-0.918-0.611-1.59c0.125,0.406,0.161,0.812,0.107,1.218
			c0.158,0.159,0.31,0.31,0.449,0.451L107.272,59.031z M105.151,55.403l-0.025-0.053c0.424,1.112,0.688,1.756,0.794,1.933
			c0.16,0.318,0.337,0.636,0.531,0.954c0.018-0.053,0.025-0.107,0.025-0.16c0.035-0.317,0.053-0.609,0.053-0.874
			C106.405,57.009,105.947,56.408,105.151,55.403z M78.083,32.094c0.018-0.035,0.018-0.07,0-0.106
			c-0.053,0.195-0.125,0.416-0.213,0.663c-0.265,0.848-0.389,1.386-0.371,1.615c0,0.018,0.01,0.036,0.026,0.054
			c0-0.018,0-0.035,0-0.054c0.035-0.335,0.105-0.697,0.212-1.086C77.861,32.809,77.977,32.446,78.083,32.094z M104.015,53.945
			c-0.072-0.053-0.151-0.097-0.239-0.132c0.054,0.089,0.123,0.194,0.211,0.318c0-0.036,0.01-0.08,0.028-0.133
			C104.015,53.98,104.015,53.962,104.015,53.945z M104.173,54.051c-0.019-0.036-0.036-0.054-0.055-0.054
			c0,0.018-0.034,0.098-0.104,0.239c0.316,0.477,0.563,0.927,0.74,1.351c0.035-0.089,0.062-0.168,0.079-0.238
			C104.623,54.943,104.402,54.51,104.173,54.051z M102.662,54.051c0-0.054,0-0.115,0-0.186c-0.053,0-0.105,0-0.158,0
			C102.557,53.937,102.609,53.999,102.662,54.051z M103.59,52.833c-0.106,0.036-0.247,0.044-0.424,0.026l-0.026,0.027
			c0.018,0,0.026,0.009,0.026,0.026c0.247,0.142,0.486,0.3,0.714,0.477C103.794,53.212,103.695,53.026,103.59,52.833z
			 M103.51,52.727c0.018-0.018,0.018-0.036,0-0.053c-0.035,0.035-0.07,0.07-0.105,0.106
			C103.457,52.745,103.492,52.727,103.51,52.727z M103.986,51.879c0.054,0.036,0.089,0.089,0.108,0.159
			c0.175,0.159,0.308,0.3,0.396,0.424c0.054,0.123,0.027,0.3-0.078,0.53l-0.107,0.133c0.124,0.158,0.222,0.317,0.292,0.475
			c0.088,0.089,0.176,0.177,0.267,0.266c-0.106-0.512-0.222-1.042-0.345-1.59c-0.124-0.229-0.267-0.423-0.424-0.583L103.986,51.879z
			 M104.331,52.515c-0.053-0.106-0.132-0.221-0.236-0.344v0.264c-0.02,0.017-0.073,0.071-0.161,0.159
			c0.125,0.142,0.239,0.291,0.345,0.45c0-0.018,0-0.035,0-0.053C104.35,52.797,104.367,52.639,104.331,52.515z M103.854,52.092
			l-0.079,0.185c0.035,0.054,0.062,0.114,0.079,0.186c0.053-0.035,0.088-0.088,0.106-0.16
			C103.961,52.25,103.926,52.179,103.854,52.092z M103.961,51.614c0.018,0,0.025-0.018,0.025-0.053
			c-0.44-0.688-0.838-1.281-1.19-1.774c0.053,0.354,0.027,0.751-0.079,1.191c0.017,0.071,0.026,0.124,0.026,0.16
			c0,0.018,0.009,0.026,0.026,0.026c0.143,0.583,0.248,1.112,0.318,1.589c0.033,0.018,0.061,0.026,0.078,0.026
			c0.019,0,0.035,0,0.053,0c0.089-0.017,0.178-0.08,0.266-0.185c-0.159-0.335-0.336-0.689-0.53-1.06
			c-0.07-0.106-0.123-0.22-0.158-0.344c0.142,0.247,0.281,0.45,0.423,0.609c0.16,0.177,0.293,0.353,0.399,0.53l0.025-0.027
			c-0.054-0.141-0.132-0.3-0.237-0.476c0.104,0.104,0.174,0.219,0.212,0.344c-0.056-0.196-0.126-0.417-0.212-0.662
			c0.105,0.212,0.221,0.433,0.344,0.662c0-0.053,0.008-0.106,0.025-0.16c-0.018-0.07-0.042-0.15-0.078-0.238
			c-0.017,0-0.027-0.009-0.027-0.026c-0.052-0.054-0.107-0.124-0.158-0.212c0.193,0.07,0.326,0.15,0.396,0.238
			C103.942,51.72,103.961,51.667,103.961,51.614z M104.199,51.297c0,0.07-0.018,0.149-0.054,0.238
			c0.089,0.105,0.167,0.229,0.239,0.371C104.35,51.676,104.287,51.473,104.199,51.297z M101.444,53.866
			c-0.088-0.089-0.167-0.186-0.237-0.292c0,0.018-0.018,0.044-0.055,0.079c0.125,0.177,0.238,0.362,0.345,0.557
			C101.497,54.069,101.479,53.954,101.444,53.866z M101.709,52.7c0.16,0.248,0.318,0.495,0.477,0.742
			c0.159,0.07,0.318,0.132,0.477,0.185c-0.018-0.035-0.036-0.071-0.054-0.105c-0.14-0.23-0.3-0.425-0.476-0.583
			C102.01,52.851,101.869,52.771,101.709,52.7z M100.941,53.999c0,0.035-0.017,0.071-0.053,0.105
			c-0.018,0.018-0.053,0.053-0.106,0.106c0.017,0.106-0.026,0.283-0.132,0.53c-0.018,0.423-0.133,0.892-0.346,1.402
			c-0.017,0.054-0.043,0.107-0.078,0.16c0.301,0.053,0.539-0.027,0.715-0.238c0.054-0.053,0.133-0.212,0.24-0.477
			C101.322,55.199,101.24,54.67,100.941,53.999z M100.782,53.971c0.054-0.035,0.089-0.079,0.106-0.132
			c-0.018-0.053-0.037-0.088-0.053-0.106c-0.018-0.018-0.037-0.035-0.054-0.053c-0.019-0.088-0.045-0.168-0.08-0.239
			C100.72,53.672,100.747,53.848,100.782,53.971z M100.04,53.125c-0.034,0.018-0.062,0.043-0.078,0.078
			c-0.035,0.248-0.123,0.548-0.266,0.901c0.055,0.23,0.116,0.459,0.185,0.689h0.028c0.158,0.053,0.37-0.098,0.636-0.45
			c0-0.265-0.009-0.477-0.026-0.636c0.035,0.106,0.07,0.212,0.105,0.317c-0.054-0.194-0.097-0.467-0.132-0.821
			c-0.019-0.069-0.055-0.122-0.105-0.158c-0.073,0.07-0.178,0.132-0.319,0.186C100.084,53.177,100.074,53.142,100.04,53.125z
			 M100.624,52.859v0.026c0.087,0.106,0.14,0.229,0.158,0.371c0.106,0.123,0.203,0.222,0.292,0.292
			c0.017-0.036,0.043-0.069,0.078-0.106c-0.123-0.124-0.238-0.273-0.345-0.45C100.772,52.957,100.71,52.913,100.624,52.859z
			 M100.304,52.171c-0.017-0.053-0.052-0.116-0.104-0.186c-0.052-0.017-0.113-0.025-0.187-0.026c0.035,0,0.054,0.009,0.054,0.026
			c0.089,0.07,0.177,0.142,0.265,0.212L100.304,52.171z M101.788,52.171c0.106,0.07,0.222,0.142,0.345,0.211
			c-0.123-0.176-0.238-0.344-0.345-0.503c0.018,0.072,0,0.15-0.052,0.239C101.771,52.136,101.788,52.153,101.788,52.171z
			 M101.125,51.588c0.036,0.017,0.072,0.044,0.106,0.079c0.071-0.106,0.133-0.221,0.187-0.344c-0.035-0.036-0.07-0.08-0.105-0.133
			c-0.072-0.106-0.178-0.203-0.318-0.291c0,0.07-0.011,0.15-0.027,0.238C101.057,51.261,101.109,51.412,101.125,51.588z
			 M101.656,51.694c-0.018-0.036-0.045-0.07-0.08-0.106c-0.053,0.088-0.106,0.168-0.158,0.239c0.088,0.07,0.15,0.133,0.185,0.185
			C101.639,51.906,101.656,51.8,101.656,51.694z M102.001,50.713v0.027c0.07,0.123,0.133,0.255,0.186,0.397c0-0.054,0-0.097,0-0.132
			C102.117,50.917,102.052,50.82,102.001,50.713z M101.631,49.919c0.07-0.123,0.07-0.273,0-0.45
			c-0.089-0.124-0.187-0.238-0.293-0.345c0.159,0.283,0.256,0.54,0.293,0.769V49.919z M101.919,49.893
			c-0.033-0.053-0.06-0.097-0.077-0.132l-0.133,0.319c0,0.017-0.01,0.043-0.026,0.079c0.123,0.071,0.212,0.159,0.265,0.265
			c0.018-0.035,0.044-0.07,0.08-0.106C101.991,50.158,101.956,50.017,101.919,49.893z M101.895,49.76
			c-0.018-0.035-0.035-0.062-0.053-0.079v0.026C101.859,49.725,101.877,49.742,101.895,49.76z M100.199,49.284
			c0.072,0.069,0.132,0.15,0.187,0.238c-0.036-0.123-0.098-0.265-0.187-0.424C100.181,49.151,100.181,49.212,100.199,49.284z
			 M100.888,50.767c-0.125-0.142-0.256-0.274-0.398-0.397c0.071,0.088,0.126,0.193,0.16,0.317c0.018,0.071,0.043,0.142,0.079,0.212
			c0.034,0.017,0.069,0.053,0.106,0.106C100.851,50.953,100.871,50.873,100.888,50.767z M100.782,48.753
			c0.069-0.053,0.133-0.105,0.186-0.158c-0.16-0.177-0.309-0.336-0.45-0.478c-0.018-0.035-0.035-0.044-0.055-0.026
			C100.587,48.286,100.693,48.507,100.782,48.753z M101.444,48.356c-0.054,0.088-0.106,0.167-0.157,0.239
			c0.229,0.387,0.405,0.679,0.527,0.874c-0.016-0.07-0.026-0.124-0.026-0.159C101.666,48.974,101.552,48.657,101.444,48.356z
			 M101.152,48.834c-0.018-0.054-0.035-0.089-0.052-0.107c-0.071,0.036-0.151,0.089-0.24,0.16c0.106,0.123,0.195,0.273,0.264,0.45
			l0.056,0.053c0.017,0.036,0.026,0.062,0.026,0.08c0.033,0.017,0.053,0.053,0.053,0.106c0.104,0.106,0.194,0.221,0.264,0.343
			C101.436,49.601,101.312,49.239,101.152,48.834z M101.523,48.356c0-0.036-0.009-0.062-0.026-0.08v0.027
			C101.515,48.321,101.523,48.338,101.523,48.356z M101.47,48.066c0-0.089-0.016-0.168-0.052-0.238
			c-0.07-0.106-0.131-0.204-0.187-0.292c0.071,0.177,0.133,0.362,0.187,0.557L101.47,48.066z M102.583,50.475
			c0.018,0.071,0.043,0.15,0.079,0.238c0.053-0.335,0.026-0.697-0.079-1.085c-0.017-0.071-0.062-0.159-0.133-0.266
			c-0.087-0.211-0.202-0.388-0.343-0.529C102.265,49.381,102.425,49.927,102.583,50.475z M101.683,46.98
			c-0.017,0.071-0.052,0.132-0.106,0.185c0.07,0.159,0.116,0.328,0.133,0.503c0.124-0.105,0.204-0.193,0.238-0.266
			c0.054-0.317,0.104-0.546,0.16-0.688c0.052,0.248,0.044,0.469-0.026,0.663l-0.293,0.451c0.035,0.035,0.045,0.07,0.026,0.104
			c0.494,0.479,0.804,0.999,0.928,1.563c0.477,0.689,0.91,1.325,1.297,1.908c0.056-0.106,0.089-0.23,0.106-0.372
			c-0.018-0.141-0.07-0.291-0.159-0.45c-0.704-2.049-1.871-4.327-3.497-6.834c0.105,0.441,0.193,0.866,0.266,1.271
			c0.141,0.248,0.256,0.495,0.344,0.742C101.523,46.484,101.719,46.891,101.683,46.98z M101.552,46.927
			c-0.019-0.035-0.046-0.07-0.082-0.106c0.019,0.019,0.027,0.037,0.027,0.053C101.516,46.909,101.532,46.927,101.552,46.927z
			 M100.995,46.82c-0.019,0.017-0.027,0.035-0.027,0.053c0.036,0.036,0.062,0.062,0.08,0.079c0.087,0.142,0.176,0.265,0.265,0.371
			c-0.071-0.142-0.099-0.229-0.08-0.265l-0.026-0.027c0-0.017-0.009-0.026-0.025-0.026L100.995,46.82L100.995,46.82z
			 M101.074,47.324c-0.035-0.053-0.071-0.089-0.107-0.106c-0.018,0.212-0.053,0.406-0.106,0.583c0,0.017-0.01,0.044-0.025,0.08
			h0.025c0.018,0.07,0.045,0.15,0.08,0.239c0.088,0.07,0.16,0.159,0.211,0.264c0.105-0.053,0.186-0.132,0.238-0.237
			C101.287,47.862,101.181,47.588,101.074,47.324z M100.358,47.005l0.027-0.053l-0.055,0.027L100.358,47.005z M100.358,47.085
			c0-0.017-0.009-0.044-0.027-0.08c-0.018,0.035-0.026,0.08-0.026,0.133c-0.033,0.035-0.053,0.07-0.053,0.106
			c0.053,0.035,0.098,0.062,0.133,0.079C100.385,47.235,100.375,47.156,100.358,47.085z M100.941,46.264
			c0.035,0.125,0.044,0.257,0.026,0.398c0.053,0.018,0.099,0.035,0.133,0.052C101.047,46.573,100.995,46.423,100.941,46.264z
			 M100.224,45.761c0-0.068-0.025-0.152-0.078-0.251c0.018,0.035,0.026,0.084,0.026,0.146
			C100.208,45.708,100.224,45.743,100.224,45.761L100.224,45.761z M100.04,39.351c-0.07-0.478-0.167-0.927-0.29-1.351
			c-0.125,0.142-0.273,0.281-0.45,0.423c0.229,0.477,0.414,0.927,0.556,1.351L100.04,39.351z M99.087,53.283
			c-0.053,0.106-0.141,0.195-0.267,0.265c0.16,0.282,0.31,0.529,0.451,0.741C99.218,53.954,99.158,53.619,99.087,53.283z
			 M99.589,53.786c0.019,0.035,0.035,0.071,0.054,0.106c0.034-0.177,0.08-0.335,0.132-0.477c-0.052,0.07-0.115,0.132-0.186,0.184
			C99.608,53.637,99.608,53.699,99.589,53.786z M98.795,52.859c-0.018,0.212-0.044,0.371-0.08,0.477
			c0.036,0.035,0.062,0.07,0.08,0.105c0.053-0.053,0.105-0.124,0.158-0.211c0.036-0.018,0.063-0.036,0.081-0.053
			C98.963,53.072,98.882,52.965,98.795,52.859z M98.16,53.786l-0.027,0.026c0.018,0.036,0.018,0.07,0,0.106
			c0.018,0.035,0.035,0.088,0.055,0.159C98.187,53.971,98.177,53.875,98.16,53.786z M99.617,52.171
			c-0.035,0.105-0.07,0.211-0.106,0.318L99.431,52.7c0.088,0.195,0.167,0.397,0.238,0.61l0.133-0.16c0-0.035,0.01-0.07,0.027-0.105
			c0.018-0.053,0.018-0.141,0-0.265C99.775,52.603,99.706,52.4,99.617,52.171z M98.927,51.35c0.02-0.019,0.02-0.035,0-0.053
			c-0.017-0.054-0.054-0.106-0.106-0.159c-0.016-0.018-0.043-0.044-0.077-0.08c0.086,0.142,0.158,0.274,0.21,0.398
			C98.954,51.42,98.947,51.385,98.927,51.35z M99.299,51.588c-0.036-0.018-0.081-0.027-0.134-0.027
			c-0.07-0.017-0.124-0.07-0.158-0.158c-0.018,0.07-0.035,0.141-0.054,0.211c0.142,0.301,0.273,0.609,0.397,0.927
			c0.019-0.035,0.027-0.062,0.027-0.079c0.069-0.176,0.113-0.371,0.132-0.584c-0.054-0.052-0.088-0.122-0.106-0.211
			C99.371,51.632,99.334,51.605,99.299,51.588z M92.517,50.66c0.018,0.141,0.027,0.283,0.027,0.424
			c0.248,2.667,0.495,4.777,0.742,6.331c0.069,0.248,0.141,0.503,0.211,0.768c-0.264-2.701-0.555-5.023-0.874-6.966
			C92.589,51.023,92.553,50.837,92.517,50.66L92.517,50.66z M89.577,49.231c0.091,0.529,0.196,1.023,0.319,1.482
			c-0.034-0.512-0.08-1.015-0.132-1.51C89.709,49.222,89.648,49.231,89.577,49.231z M91.247,48.886
			c-0.3,0.07-0.651,0.15-1.059,0.238c0.068,1.183,0.078,2.155,0.026,2.914c0.176,0.812,0.449,2.083,0.82,3.814
			c0.371,2.013,0.998,3.708,1.881,5.086c0.053-0.036,0.079-0.062,0.079-0.08c-0.388-1.324-0.68-3.514-0.872-6.568
			c-0.019-0.3-0.047-0.574-0.081-0.821c-0.018-0.212-0.044-0.415-0.081-0.609c-0.034,0.124-0.069,0.238-0.104,0.344
			c-0.105,0.194-0.167,0.213-0.185,0.053c-0.018-1.395-0.062-2.455-0.134-3.178c0-0.035-0.009-0.08-0.026-0.133
			C91.423,49.593,91.335,49.239,91.247,48.886z M92.755,48.276c0.16,0.778,0.327,1.625,0.504,2.543
			c0.142,0.6,0.267,1.192,0.372,1.775c-0.089-0.547-0.178-1.06-0.267-1.536C93.207,50.087,93.003,49.16,92.755,48.276z
			 M78.293,31.511c0,0.018,0,0.036,0,0.054c0.035-0.069,0.054-0.13,0.055-0.186C78.346,31.417,78.329,31.46,78.293,31.511z
			 M79.91,29.684c-0.033,0.018-0.07,0.035-0.104,0.053c0,0.036-0.011,0.07-0.028,0.106C79.814,29.789,79.857,29.736,79.91,29.684z
			 M79.486,30.134c-0.211,0.283-0.412,0.582-0.608,0.9c0.159-0.247,0.335-0.468,0.53-0.663L79.486,30.134z M79.037,30.876
			c0.123-0.124,0.247-0.256,0.371-0.398v-0.026C79.284,30.593,79.16,30.734,79.037,30.876z M80.864,28.624
			c-0.018,0-0.035,0.009-0.053,0.026c-0.016,0-0.034,0.009-0.053,0.026c-0.159,0.141-0.302,0.282-0.422,0.424
			c0.032-0.035,0.077-0.062,0.13-0.079c0.106-0.125,0.239-0.247,0.397-0.371V28.624z M99.723,40.914
			c-0.018-0.053-0.046-0.088-0.08-0.106c0.088,0.177,0.159,0.353,0.212,0.53C99.821,41.196,99.775,41.055,99.723,40.914z
			 M99.458,39.881h-0.054c0.054,0.194,0.097,0.388,0.133,0.582c0.053,0.037,0.097,0.071,0.131,0.106
			C99.598,40.358,99.528,40.128,99.458,39.881z M99.325,39.696h0.027c-0.037-0.089-0.062-0.158-0.08-0.211
			c0,0.053,0.008,0.105,0.027,0.158L99.325,39.696z M98.821,35.272c-0.105-0.264-0.245-0.521-0.423-0.768
			c-0.16-0.229-0.336-0.46-0.529-0.689c0.193,0.441,0.335,0.822,0.424,1.139C98.503,35.061,98.681,35.166,98.821,35.272z
			 M97.869,34.504c0.017,0,0.026,0.009,0.026,0.026c0-0.034-0.018-0.052-0.052-0.053C97.859,34.479,97.869,34.487,97.869,34.504z
			 M97.92,34.769c0.072,0.354,0.062,0.724-0.025,1.113c0.265,0.194,0.512,0.574,0.741,1.138c0.088,0.16,0.159,0.309,0.212,0.451
			c0.123,0.264,0.255,0.503,0.397,0.715c0.246-0.159,0.388-0.283,0.422-0.37c0-0.019,0.01-0.036,0.028-0.053
			c-0.071-0.318-0.159-0.619-0.265-0.901c-0.39-0.53-0.795-1.129-1.218-1.801C98.123,34.99,98.027,34.893,97.92,34.769z
			 M98.848,35.298l-0.344-0.053c0.23,0.459,0.485,0.865,0.768,1.219C99.13,36.058,98.99,35.67,98.848,35.298z M98.715,33.895
			c-0.476-0.689-1.058-1.307-1.748-1.854c0.107,0.142,0.204,0.292,0.291,0.451c0.812,0.883,1.501,1.801,2.066,2.754
			c0.159,0.282,0.292,0.548,0.398,0.795C99.564,35.386,99.227,34.672,98.715,33.895z M96.201,31.458
			c0-0.018-0.019-0.044-0.055-0.079h-0.025C96.156,31.396,96.182,31.423,96.201,31.458z M94.771,30.319
			c0.316,0.106,0.598,0.248,0.846,0.424c-0.688-0.741-1.579-1.351-2.674-1.828c0.316,0.265,0.608,0.521,0.872,0.769
			C94.151,29.896,94.469,30.108,94.771,30.319z M86.717,26.744c-0.087-0.035-0.169-0.062-0.238-0.08
			c-0.672-0.212-1.412-0.149-2.225,0.186C85.137,26.621,85.958,26.584,86.717,26.744z M83.91,27.115l0.688,0.186
			c0.497-0.16,1.042-0.301,1.645-0.425c0.122,0,0.228-0.009,0.317-0.025C85.674,26.762,84.793,26.85,83.91,27.115z M84.864,27.671
			l-0.106-0.027c-0.018-0.019-0.043-0.026-0.078-0.026c-0.197,0.106-0.416,0.221-0.662,0.344c0.052-0.017,0.096-0.026,0.131-0.026
			C84.414,27.812,84.651,27.724,84.864,27.671z M85.473,27.432c-0.053,0.018-0.115,0.035-0.188,0.053v0.026
			C85.377,27.494,85.437,27.467,85.473,27.432z M83.063,27.432c-0.124,0.07-0.265,0.167-0.426,0.291
			c-0.017-0.017-0.492,0.354-1.429,1.113c0.971-0.424,1.669-0.742,2.092-0.954c0.282-0.159,0.575-0.309,0.875-0.45l-0.346-0.106
			C83.547,27.344,83.292,27.379,83.063,27.432z M83.036,27.087c0.194-0.089,0.398-0.176,0.609-0.265
			c1.535-0.759,2.71-0.768,3.521-0.025c0.407,0,0.653,0.088,0.742,0.264c0.319,0.035,0.61,0.114,0.875,0.239l0.08-0.027
			c0.741,0.211,1.128,0.344,1.165,0.397c0.618,0.105,1.175,0.265,1.668,0.476c0.247,0.106,0.477,0.221,0.689,0.344
			c1.377,0.406,2.162,0.663,2.356,0.769c0.07,0.264,0.354,0.599,0.849,1.005c0.336,0.3,0.644,0.654,0.926,1.06
			c0.69,0.476,1.299,1.016,1.829,1.616c1.182,1.394,1.738,2.666,1.667,3.813c0.089,0.3,0.105,0.53,0.054,0.689v0.027
			c0.282,0.759,0.352,1.341,0.212,1.748l-0.398,0.769c0.143,0.458,0.249,0.927,0.319,1.402c0.777,1.077,1.854,2.631,3.231,4.662
			c-0.812-0.972-1.879-2.436-3.205-4.396c0.053,0.406,0.062,0.811,0.026,1.218c0.019,0.142,0.061,0.273,0.134,0.397
			c1.782,2.49,3.027,4.609,3.733,6.357c0.073,0.176,0.143,0.379,0.212,0.609c0.144-1.466-0.36-3.02-1.508-4.662
			c1.358,1.659,1.897,3.311,1.614,4.953c0.229,0.688,0.389,1.378,0.477,2.066c0.459,0.618,0.838,1.104,1.14,1.457l-0.345-0.054
			c-0.247-0.335-0.486-0.688-0.716-1.059c0.053,0.335,0.071,0.671,0.053,1.006c0.372,0.176,0.742,0.318,1.113,0.423
			c0.901-0.317,1.396-0.582,1.483-0.794c0.054-0.142-0.017-0.344-0.213-0.609c-0.316-0.354-0.52-0.591-0.607-0.715
			c0.478,0.406,0.776,0.68,0.9,0.822c0.088,0.176,0.105,0.353,0.052,0.528c-0.07,0.177-0.308,0.362-0.714,0.558
			c-0.23,0.105-0.54,0.247-0.927,0.423l-0.928-0.212c0.406,0.496,0.663,0.849,0.769,1.06c1.219,1.801,1.686,3.063,1.402,3.788
			c-0.088,0.229-0.192,0.265-0.316,0.106c-0.09-0.124-0.187-0.275-0.292-0.451c-0.052,0.301-0.158,0.601-0.317,0.901
			c0.068,0.106,0.131,0.212,0.185,0.317l-0.132,0.053c-0.071-0.017-0.133-0.035-0.186-0.053l-0.133-0.053
			c-0.337-0.124-0.609-0.239-0.822-0.344c-0.601-0.283-0.961-0.46-1.085-0.53c-0.019,0.036-0.054,0.062-0.105,0.079
			c-0.143,0.089-0.266,0.168-0.371,0.24c0,0.193-0.018,0.362-0.052,0.503c0.157-0.229,0.298-0.477,0.423-0.743
			c-0.212,0.495-0.398,0.884-0.556,1.166l-0.08,0.212c-0.035,0-0.07,0-0.106,0c-0.088,0.141-0.186,0.221-0.291,0.238
			c0.069-0.053,0.134-0.124,0.186-0.211c-0.143,0-0.266-0.018-0.372-0.054l-0.422-1.139l-0.45-0.105
			c-0.037-0.106-0.062-0.194-0.08-0.265c-0.072,0.194-0.167,0.468-0.292,0.821c-0.034,0.035-0.186,0.398-0.451,1.086
			c-0.422,0.619-1.034,0.812-1.827,0.583c-0.441-0.141-1.017-1.175-1.723-3.099c0.105,0.637,0.169,1.016,0.187,1.14
			c0.017,0.512-0.124,1.121-0.424,1.828c0,0.017-0.273,0.539-0.82,1.562c-0.636,0.988-1.167,1.421-1.591,1.297
			c-0.247-0.07-0.557-0.741-0.927-2.012c-0.071,0.017-0.14,0.009-0.211-0.027c-0.335-0.105-0.645-0.555-0.928-1.35
			c-0.158,0.142-0.308,0.247-0.45,0.317c-1.536-3.814-2.596-7.186-3.179-10.118c-0.053-0.194-0.087-0.388-0.106-0.583l0.134-1.244
			c-0.99,0.158-2.217,0.334-3.683,0.529c-1.27,0.194-2.41,0.318-3.417,0.372c0.106,0.158,0.213,0.282,0.318,0.371l0.025-0.054
			v-0.317c0.09,0.176,0.107,0.353,0.055,0.529l-0.45-0.079c-0.02-0.053-0.115-0.194-0.291-0.424
			c-0.229,0.018-0.459,0.044-0.688,0.079c0.051,0.106,0.078,0.212,0.078,0.318c-0.036-0.089-0.089-0.194-0.158-0.318
			c-0.319,0-0.628,0.009-0.928,0.026c0.018,0.071,0.018,0.15,0,0.239l-0.081-0.027c0.019-0.053,0.011-0.124-0.025-0.212
			c-0.266-0.017-0.529-0.026-0.794-0.026c0.017,0.124,0.035,0.247,0.053,0.371l-0.08,0.052c-0.069-0.122-0.132-0.264-0.184-0.423
			c-0.46-0.018-0.894-0.052-1.301-0.105c-0.016,0.105-0.024,0.177-0.024,0.211l-0.133-0.026c0.017-0.054,0.026-0.124,0.026-0.212
			c-0.354-0.036-0.689-0.097-1.006-0.185c-0.037,0.141-0.037,0.327,0,0.556l-0.08-0.053c-0.105-0.142-0.123-0.327-0.054-0.557
			c-0.14-0.088-0.326-0.265-0.556-0.529c-0.035,0.071-0.07,0.141-0.105,0.212c-0.036-0.053-0.044-0.096-0.027-0.132l0.053-0.106
			v-0.027c-0.193-0.229-0.388-0.511-0.582-0.847c0.018-0.477-0.106-0.866-0.371-1.166c-0.229-0.053-0.503-0.124-0.82-0.212
			c-0.143-0.211-0.223-0.521-0.238-0.927c0.034-0.142,0.043-0.274,0.024-0.397c-0.141-0.495-0.175-0.884-0.105-1.166
			c0.073-0.124,0.143-0.282,0.211-0.477c0.019-0.07,0.027-0.132,0.027-0.186c0.106-0.194,0.23-0.45,0.371-0.768
			c-0.865-0.283-1.333-0.706-1.402-1.271c-0.071-0.177-0.054-0.45,0.053-0.821c0.034-0.106,0.097-0.186,0.185-0.239
			c0.089-0.088,0.16-0.158,0.212-0.211c0.123-0.071,0.229-0.142,0.318-0.212c0.246-0.124,0.46-0.256,0.635-0.397
			c0.689-0.496,1.077-0.91,1.166-1.246v-0.026c0.052-0.053,0.08-0.098,0.08-0.133l0.027-0.026c0.069-0.054,0.123-0.107,0.157-0.159
			c0.018-0.089,0.027-0.169,0.027-0.238c0.07-0.229,0.114-0.416,0.131-0.557c0.018-0.211-0.035-0.379-0.158-0.503
			c0.018-0.123,0.018-0.247,0-0.371l-0.608-0.266l-0.054-0.052c0.035-0.018,0.265,0.018,0.689,0.106c0-0.054,0-0.097,0-0.132
			c-0.089-0.053-0.176-0.107-0.268-0.16c-0.157-0.141-0.334-0.282-0.528-0.424h0.318c0.159,0.106,0.317,0.194,0.478,0.264
			l-0.027-0.132l-0.291-0.264h0.291c0.035,0.035,0.07,0.071,0.105,0.106c0.053-0.036,0.107-0.106,0.16-0.212l-0.08-0.08
			c0.035,0.018,0.08,0.035,0.132,0.053c0.267,0,0.565-0.211,0.901-0.636c0.088-0.141,0.176-0.273,0.266-0.397
			c-0.035-0.087-0.054-0.185-0.054-0.292c-0.036-0.247,0.088-0.821,0.371-1.721c0.246-0.883,0.424-1.447,0.529-1.695
			c0.054-0.512,0.087-0.936,0.105-1.271c0.019,0.248,0.027,0.592,0.027,1.034c0.122-0.212,0.274-0.407,0.45-0.583
			c0.246-0.459,0.643-0.918,1.193-1.377l0.024,0.079c0.071-0.017,0.123-0.035,0.158-0.053c0.213-0.265,0.451-0.503,0.717-0.715
			C81.509,27.467,82.222,27.175,83.036,27.087z"/>
	</g>
	<g id="Layer_3_18_">
		<path id="path8_19_" fill="#010101" d="M82.242,106.521c0.018-0.036,0.034-0.089,0.052-0.16c-0.032-0.034-0.07-0.061-0.106-0.078
			C82.206,106.389,82.222,106.469,82.242,106.521z M78.587,100.588c0.035-0.107,0.051-0.238,0.051-0.398
			c-0.07-0.141-0.14-0.281-0.211-0.423c0.037,0.354,0.079,0.653,0.132,0.9L78.587,100.588z M76.521,94.681
			c0.018-0.07,0.027-0.141,0.027-0.211c0.016-0.036,0.008-0.062-0.027-0.081l-0.026,0.292H76.521z M87.354,43.721
			c3.548-2.083,6.329-2.092,8.342-0.026c1.307,0.636,2.059,1.395,2.253,2.278c-0.036,0.953,0.007,1.633,0.132,2.04
			c0.371,1.359,1.403,3.062,3.1,5.112c1.43,1.765,2.543,3.601,3.338,5.508c0.671,2.067,1.164,3.559,1.483,4.477
			c0.882,2.631,1.236,5.411,1.059,8.343c-0.089,1.712-0.389,4.168-0.901,7.363c-0.582,4.891-0.705,9.103-0.37,12.634
			c0.018,0.017,0.035,0.035,0.052,0.053c1.344,1.713,2.502,3.628,3.471,5.748c1.043,2.278,1.562,4.176,1.562,5.695
			c0,1.536-0.309,3.195-0.926,4.979c-0.106,0.3-0.222,0.583-0.345,0.847c-0.23,0.866-0.547,1.696-0.953,2.49
			c-1.855,3.603-5.166,5.404-9.934,5.404c-1.641,0-2.746-0.257-3.311-0.77c-0.354-0.3-0.529-0.794-0.529-1.482
			c0-0.23,0.053-0.433,0.159-0.609c-2.261-0.354-4.345-0.988-6.251-1.907c-1.131-0.53-2.588-1.651-4.37-3.364
			c0.089,0.354,0.212,0.671,0.371,0.953l-0.105,0.027c-0.177-0.354-0.335-0.742-0.478-1.166c-0.742-0.759-1.342-1.377-1.801-1.854
			c-0.053,0.176-0.116,0.354-0.187,0.529c-0.105,0.195-0.15,0.221-0.132,0.08c0-0.265,0.008-0.592,0.026-0.98
			c-0.194-0.266-0.345-0.477-0.45-0.636c-0.089-0.177-0.186-0.415-0.292-0.715c-0.158-0.212-0.318-0.397-0.475-0.556
			c0.033,0.053,0.051,0.097,0.051,0.133l-0.078-0.054c-0.02-0.053-0.036-0.124-0.054-0.212c-0.336-0.459-0.662-0.963-0.98-1.51
			c-0.054,0.423-0.096,0.68-0.131,0.768c-0.089,0.195-0.178,0.283-0.267,0.266c0.019-0.441,0.036-0.989,0.052-1.643
			c-0.174-0.371-0.432-0.91-0.767-1.615c-0.018,0.264-0.071,0.485-0.159,0.662l-0.21-0.053c-0.02-0.408-0.063-0.971-0.134-1.695
			c-0.019-0.053-0.035-0.098-0.053-0.133c0,0.6-0.053,1.007-0.158,1.219l-0.081,0.185c-0.033,0-0.07-0.009-0.105-0.026
			c0.053-0.548,0.062-1.2,0.026-1.959c-0.07-0.195-0.141-0.379-0.212-0.557c-0.211-0.424-0.432-1.042-0.661-1.854
			c-0.212,1.059-0.354,1.678-0.424,1.854c-0.107,0.176-0.151,0.23-0.133,0.159l-0.106-0.105c0.142-0.672,0.273-1.643,0.397-2.914
			c-0.018-0.088-0.045-0.194-0.079-0.318c-0.123,0.847-0.257,1.413-0.397,1.695c-0.089,0.194-0.168,0.309-0.239,0.344L75.86,96.8
			c0.016-0.035,0.167-0.927,0.449-2.676c0.035-0.122,0.062-0.264,0.079-0.423c-0.105-0.494-0.193-0.971-0.264-1.431l-0.159,0.345
			l-0.08-0.054c0.052-0.229,0.124-0.458,0.212-0.688c-0.07-0.495-0.123-0.962-0.16-1.403c-0.069-1.837,0.16-3.938,0.69-6.304
			c0.725-2.667,1.254-4.636,1.589-5.907h-0.053c-0.089,0-0.345,0.105-0.77,0.317c-0.6,0.107-1.466-0.105-2.595-0.635
			c-0.829-0.406-1.367-1.023-1.615-1.854c-0.018,0-0.037-0.008-0.054-0.026c-0.034-0.018-0.069-0.035-0.105-0.053
			c-0.018,0-0.043-0.009-0.08-0.026c-0.158-0.07-0.193-0.115-0.105-0.132c-0.018,0-0.026-0.009-0.026-0.026l0.238-0.53
			c0-0.018,0.01-0.027,0.027-0.027c-0.036-0.847,0.088-1.581,0.371-2.198l0.026-0.026c-0.018-0.053,0.016-0.168,0.105-0.344
			c0.07-0.177,0.203-0.354,0.397-0.53c0.283-0.494,0.695-1.148,1.244-1.96c1.024-1.624,1.555-2.472,1.591-2.543
			c0.052-0.124,0.325-1.333,0.819-3.628c0.478-2.279,1.13-4.273,1.962-5.986c0.406-0.865,1.084-2.004,2.037-3.417
			c0.884-1.271,1.334-1.934,1.353-1.987c0.07-0.14-0.124-0.75-0.583-1.827c-0.424-1.077-0.468-1.986-0.133-2.728
			c0.159-0.336,0.697-0.918,1.616-1.748C85.013,45.302,86.171,44.428,87.354,43.721L87.354,43.721z"/>
	</g>
	<g id="Layer_4_20_">
		<path id="path11_17_" fill="#010101" d="M105.55,75.082c0,0.089,0,0.195,0,0.318c0.054,0.106,0.089,0.159,0.106,0.159
			L105.55,75.082z M97.974,52.939c1.43-0.229,2.693-0.035,3.789,0.583c1.041,0.565,1.97,2.931,2.781,7.098
			c0.511,2.596,0.864,5.129,1.06,7.602c0.28,0.423,0.466,0.847,0.556,1.27l-0.079-0.052c-0.105-0.211-0.256-0.468-0.451-0.768
			c0.02,0.07,0.027,0.142,0.027,0.212c0.053,0.495,0.079,1.077,0.079,1.749c0.212,0.265,0.362,0.512,0.45,0.741
			c-0.16-0.141-0.309-0.273-0.45-0.396c-0.019,0.353-0.027,0.724-0.027,1.112c0.494,1.006,0.821,1.73,0.979,2.172
			c-0.141-0.211-0.467-0.82-0.979-1.828c0,0.16-0.008,0.328-0.026,0.504c0.424,0.565,0.742,1.041,0.953,1.43l0.053-0.105
			c0.02,0.105,0.046,0.194,0.081,0.265h-0.134c-0.088-0.142-0.414-0.565-0.979-1.271c0,0.088,0,0.186,0,0.291
			c0.281,0.513,0.511,0.962,0.688,1.351l-0.078-0.026c-0.212-0.371-0.417-0.706-0.609-1.006c-0.018,0-0.018,0.009,0,0.026
			c0.069,0.354,0.142,0.724,0.211,1.113c0.247,1.218,0.398,1.942,0.451,2.172l-0.053,0.026c-0.301-0.617-0.558-1.121-0.771-1.51
			c-0.033,0.336-0.077,0.706-0.132,1.113c-0.175,1.448-0.256,2.49-0.237,3.125c0.035,1.606-0.405,3.453-1.324,5.536
			c-0.495,1.112-0.856,2.41-1.087,3.894c-0.175,1.094-1.191,3.293-3.047,6.595c-0.176,0.334-0.388,0.679-0.633,1.032
			c-0.036,0.283-0.088,0.486-0.161,0.61c-0.017-0.124-0.034-0.22-0.053-0.291c-0.388,0.565-0.847,1.183-1.375,1.853l-0.028,0.027
			h-0.026c-0.143,0.159-0.266,0.317-0.371,0.477c-0.087,0.317-0.177,0.644-0.264,0.979c-0.371,0.566-0.655,1.21-0.849,1.934
			c-0.496,1.66-0.432,3.011,0.185,4.053c0,0.105,0.009,0.221,0.028,0.345c0,1.253-0.204,2.419-0.61,3.496
			c-0.317-0.035-0.53,0.034-0.635,0.212c-0.054,0.105,0.052,0.291,0.317,0.557c-0.088,0.193-0.186,0.379-0.291,0.555
			c-0.106,0.213-0.302,0.443-0.582,0.689c-0.143-0.123-0.248-0.202-0.318-0.238c-0.531-0.211-0.875,0.178-1.033,1.166
			c-0.106,0.053-0.213,0.105-0.319,0.158c-1.253,0.689-2.222,0.945-2.912,0.769c-0.424-0.105-0.82-0.229-1.192-0.37
			c-1.183-1.502-1.81-2.562-1.88-3.179c-0.159-0.425-0.274-0.804-0.345-1.14c-0.177-0.619-0.194-1.094-0.053-1.43
			c1.076-2.418,1.713-3.867,1.906-4.344c0.212-0.123,0.449-0.23,0.716-0.316c0.177-0.037,0.336-0.071,0.477-0.107
			c-0.053-0.176-0.087-0.345-0.106-0.503c0.265-0.317,0.521-0.698,0.77-1.14c0.282-0.494,0.556-1.367,0.82-2.621
			c0.053-0.301,0.097-0.584,0.133-0.848c-0.16,0.194-0.309,0.415-0.45,0.662l-0.054-0.052c0.176-0.264,0.354-0.521,0.53-0.769
			c0.036-0.194,0.052-0.379,0.052-0.556c0.124-0.354,0.24-0.688,0.345-1.006c-0.211,0.301-0.414,0.636-0.609,1.006h-0.079
			c-0.018-0.035,0.186-0.397,0.611-1.086c0.069-0.106,0.14-0.203,0.21-0.292c0.071-0.335,0.151-0.645,0.24-0.928
			c-0.089-0.07-0.249-0.194-0.478-0.37c0,0.017-0.009,0.035-0.027,0.053l-0.079-0.027c0.019-0.017,0.035-0.044,0.053-0.08
			c-0.124-0.089-0.248-0.186-0.37-0.291c0.212-0.39,0.512-0.821,0.901-1.299c0.051-0.053,0.104-0.105,0.156-0.159l-0.052-0.026
			c-0.16-0.088-0.257-0.168-0.29-0.238l1.005-1.854c0.336-1.343,0.539-2.605,0.609-3.788c0.053-0.124,0.107-0.248,0.158-0.371
			c0.99-1.943,1.599-3.205,1.829-3.788c0.671-1.606,0.952-2.852,0.847-3.734c0-0.143-0.044-0.354-0.132-0.636
			c-0.124-0.265-0.248-0.53-0.371-0.794c-0.53-1.254-0.883-2.199-1.06-2.834c-0.229-0.847-0.292-2.516-0.185-5.005
			c0-0.23,0-0.451,0-0.662c-0.071-0.177-0.16-0.335-0.266-0.478c-0.105-0.512-0.203-0.9-0.291-1.166
			c-0.494-1.254-0.962-3.063-1.403-5.429c-0.478-2.561-0.583-4.071-0.317-4.529c0.034-0.088,0.069-0.229,0.106-0.424
			c0.017-0.194,0.051-0.336,0.105-0.424c0.459-0.618,0.748-1.059,0.873-1.324l-0.026-0.026c-0.071-0.018-0.116-0.036-0.132-0.054
			c-0.055,0-0.088-0.017-0.106-0.053C94.567,54.113,96.28,53.256,97.974,52.939z M92.386,91.9l-0.584,1.034
			c0.018,0.016,0.089,0.062,0.214,0.132c0.088-0.106,0.166-0.203,0.236-0.292c0-0.176,0.01-0.344,0.026-0.503
			C92.315,92.13,92.351,92.006,92.386,91.9z M91.829,95.185c0.105-0.459,0.196-0.874,0.266-1.246
			c-0.372,0.283-0.617,0.574-0.741,0.875C91.547,94.938,91.706,95.062,91.829,95.185z M92.173,93.251
			c-0.034,0.036-0.062,0.07-0.079,0.106c-0.478,0.546-0.813,0.98-1.006,1.298c0.068,0.035,0.133,0.07,0.185,0.106
			c0.142-0.388,0.424-0.733,0.85-1.033C92.155,93.551,92.173,93.392,92.173,93.251z"/>
	</g>
	<g id="Layer_5_22_">
		<path id="path14_17_" fill="#010101" d="M100.702,76.248c0,0.088-0.009,0.185-0.026,0.291c0.035,0.106,0.062,0.159,0.08,0.159
			L100.702,76.248z M101.391,72.194c-0.053,0.353-0.104,0.715-0.159,1.085c0.37,1.06,0.602,1.819,0.688,2.278
			c-0.086-0.229-0.335-0.874-0.738-1.933c-0.02,0.159-0.046,0.326-0.08,0.502c0.354,0.6,0.618,1.113,0.794,1.537l0.026-0.106
			c0,0.106,0.019,0.194,0.055,0.265h-0.106c-0.07-0.159-0.346-0.626-0.821-1.403c-0.019,0.087-0.035,0.185-0.053,0.291
			c0.228,0.548,0.406,1.033,0.529,1.457l-0.078-0.054c-0.158-0.388-0.32-0.75-0.477-1.085c-0.018,0-0.018,0.008,0,0.025
			c0.018,0.371,0.044,0.75,0.08,1.14c0.087,1.235,0.149,1.968,0.185,2.198l-0.052,0.026c-0.231-0.653-0.423-1.183-0.583-1.589
			c-0.088,0.317-0.187,0.681-0.293,1.086c-0.335,1.43-0.539,2.454-0.608,3.072c-0.158,1.607-0.821,3.391-1.986,5.35
			c-0.618,1.042-1.13,2.287-1.537,3.735c-0.3,1.059-1.579,3.116-3.839,6.171c-0.194,0.318-0.442,0.627-0.741,0.927
			c-0.072,0.282-0.15,0.476-0.239,0.583c0-0.124,0-0.221,0-0.291c-0.459,0.511-0.997,1.076-1.615,1.693l-0.026,0.028h-0.026
			c-0.161,0.141-0.3,0.281-0.426,0.423c-0.122,0.301-0.255,0.609-0.396,0.927c-0.425,0.513-0.777,1.122-1.06,1.828
			c-0.688,1.572-0.795,2.922-0.319,4.053c-0.016,0.105-0.025,0.221-0.025,0.344c-0.142,1.237-0.476,2.366-1.007,3.391
			c-0.298-0.071-0.511-0.026-0.635,0.132c-0.071,0.106,0.01,0.309,0.238,0.609c-0.105,0.16-0.229,0.317-0.371,0.477
			c-0.124,0.193-0.344,0.406-0.661,0.636c-0.124-0.142-0.222-0.238-0.293-0.292c-0.492-0.282-0.882,0.062-1.165,1.032
			c-0.106,0.054-0.221,0.099-0.344,0.133c-1.307,0.53-2.297,0.671-2.967,0.425c-0.406-0.159-0.786-0.336-1.14-0.529
			c-0.987-1.643-1.482-2.764-1.482-3.365c-0.106-0.458-0.177-0.855-0.212-1.191c-0.105-0.637-0.062-1.113,0.133-1.43
			c1.359-2.278,2.17-3.639,2.438-4.08c0.21-0.088,0.45-0.158,0.714-0.212c0.177-0.017,0.344-0.035,0.503-0.053
			c-0.035-0.177-0.053-0.354-0.053-0.53c0.301-0.281,0.601-0.626,0.9-1.033c0.336-0.459,0.716-1.287,1.14-2.489
			c0.088-0.299,0.167-0.582,0.238-0.847c-0.177,0.176-0.353,0.379-0.53,0.609l-0.053-0.053c0.212-0.248,0.424-0.487,0.636-0.716
			c0.054-0.176,0.088-0.353,0.106-0.529c0.176-0.352,0.334-0.671,0.477-0.953c-0.248,0.265-0.495,0.565-0.742,0.9h-0.079
			c-0.019-0.035,0.229-0.361,0.741-0.979c0.088-0.106,0.176-0.195,0.265-0.265c0.105-0.335,0.22-0.636,0.343-0.9
			c-0.087-0.088-0.237-0.229-0.449-0.424c0,0.018-0.01,0.036-0.026,0.052l-0.079-0.052c0.018-0.018,0.043-0.044,0.079-0.08
			c-0.123-0.088-0.237-0.194-0.343-0.317c0.264-0.371,0.617-0.759,1.058-1.166c0.054-0.053,0.115-0.098,0.188-0.132l-0.054-0.053
			c-0.16-0.106-0.248-0.194-0.267-0.265l1.192-1.721c0.513-1.29,0.874-2.525,1.088-3.708c0.069-0.106,0.131-0.221,0.183-0.344
			c1.236-1.802,2.005-2.977,2.305-3.523c0.848-1.518,1.272-2.728,1.272-3.628c0.019-0.142,0-0.345-0.054-0.609
			c-0.07-0.283-0.157-0.565-0.263-0.848c-0.372-1.325-0.611-2.304-0.718-2.94c-0.122-0.865,0.02-2.534,0.426-5.006
			c0.034-0.229,0.061-0.45,0.079-0.662c-0.036-0.176-0.106-0.344-0.213-0.504c-0.035-0.512-0.08-0.899-0.132-1.165
			c-0.354-1.324-0.599-3.187-0.742-5.588c-0.159-2.596-0.078-4.106,0.238-4.529c0.054-0.088,0.105-0.222,0.158-0.398
			c0.053-0.176,0.106-0.309,0.161-0.397c0.511-0.564,0.848-0.971,1.005-1.218l-0.026-0.026c-0.053-0.037-0.088-0.063-0.104-0.081
			c-0.054,0-0.089-0.018-0.106-0.052c1.889-1.165,3.698-1.81,5.43-1.934c1.43-0.053,2.658,0.3,3.682,1.06
			c0.953,0.671,1.588,3.126,1.906,7.363c0.196,2.649,0.239,5.201,0.133,7.656c0.231,0.458,0.362,0.909,0.398,1.351l-0.08-0.081
			c-0.07-0.211-0.185-0.485-0.345-0.82c0,0.071,0,0.141,0,0.212c-0.016,0.512-0.061,1.104-0.131,1.774
			c0.176,0.283,0.292,0.548,0.344,0.795C101.646,72.486,101.516,72.336,101.391,72.194z M85.579,91.344l-0.662,0.954
			c0.017,0.017,0.078,0.071,0.186,0.159c0.105-0.088,0.194-0.176,0.266-0.265c0.034-0.176,0.069-0.345,0.105-0.504
			C85.509,91.547,85.543,91.432,85.579,91.344z M84.229,94.098c0.176,0.142,0.315,0.284,0.422,0.424
			c0.176-0.44,0.319-0.847,0.425-1.218C84.67,93.551,84.386,93.815,84.229,94.098z M85.129,93.092
			c0.051-0.158,0.087-0.3,0.105-0.424c-0.036,0.018-0.063,0.036-0.08,0.053c-0.548,0.496-0.937,0.893-1.165,1.193
			c0.07,0.035,0.123,0.079,0.158,0.132C84.343,93.675,84.67,93.357,85.129,93.092z"/>
	</g>
	<g id="Layer_6_14_">
		<path id="path17_19_" fill="#010101" d="M90.001,99.846c1.801-0.582,4.326-0.927,7.575-1.032c0,0.141,0.646,0.167,1.934,0.079
			c1.341-0.142,2.058-0.204,2.146-0.186c0.106,0.018,0.388,0.088,0.848,0.211l1.721,0.927c0.638,0.459,1.078,1.166,1.325,2.119
			c0.248,1.113,0.45,1.935,0.609,2.463c0.018,0.124,0,0.715-0.054,1.775c-0.053,0.778-0.457,3.338-1.218,7.682
			c-0.213,1.147-0.849,2.393-1.907,3.734c-0.654,0.795-1.925,2.145-3.815,4.052c-0.017,0.018-0.035,0.036-0.053,0.054
			c-0.193,0.406-0.39,0.839-0.584,1.297c-1.395,3.09-2.349,5.094-2.859,6.013c-1.061,1.854-3.081,4.476-6.066,7.866
			c-0.142,0.178-0.281,0.346-0.424,0.504c0,0.055,0.008,0.124,0.026,0.213c-0.069,0.265-0.124,0.607-0.158,1.032
			c-0.018,0.336,0.034,0.989,0.158,1.96c0.16,1.13,0.362,1.846,0.609,2.145c0.406,0.548,0.98,1.227,1.722,2.041
			c1.077,2.947,1.58,4.996,1.51,6.145c0,0.035-0.318,3.002-0.953,8.899c-0.212,3.638,0.158,7.425,1.112,11.362
			c0.494,1.961,0.988,3.824,1.483,5.59l-0.504,1.668c-0.458,1.129-0.971,1.703-1.536,1.721c-0.069,0-0.132-0.008-0.185-0.026
			c-0.195,0.054-0.441,0.099-0.742,0.133l-3.444,0.079c-0.527-0.105-2.452-0.142-5.773-0.105c-2.754,0.105-4.449,0.23-5.085,0.369
			c-0.636,0.16-1.606,0.258-2.915,0.293c-0.281,0-0.792-0.158-1.534-0.477c-0.76-0.336-1.351-0.521-1.774-0.557
			c-1.714-0.07-2.764-0.202-3.152-0.396c-0.229-0.088-0.327-0.326-0.29-0.717c0.069-1.182,0.635-2.02,1.692-2.516
			c0.866-0.406,2.968-0.953,6.304-1.642c1.608-0.318,3.224-1.104,4.849-2.358h0.025c1.167-0.033,1.917-0.545,2.253-1.535
			l0.078-0.848c0.177-0.3,0.273-0.574,0.293-0.82c0.104-1.891-0.407-4.566-1.537-8.027c-1.342-3.689-2.199-6.25-2.568-7.68
			c-0.105-0.406-0.424-1.519-0.955-3.338c-0.069-0.353-0.14-0.75-0.212-1.192c-0.459-2.241-0.714-3.521-0.768-3.84
			c-0.229-1.13-0.661-2.366-1.297-3.708c-0.071-0.178-0.176-0.344-0.318-0.504c-0.528-1.925-0.786-2.974-0.768-3.15
			c0.016-0.441,0.919-4.874,2.7-13.297c0.02-0.123,0.266-1.475,0.743-4.053c0.547-2.754,0.943-4.705,1.19-5.854
			c0.248-1.234,1.06-3.125,2.438-5.668c1.483-2.701,2.534-4.061,3.152-4.078c0.035-0.055,0.071-0.125,0.105-0.213
			c0.97-1.554,1.475-2.357,1.51-2.41C87.263,101.092,88.377,100.357,90.001,99.846z"/>
	</g>
	<g id="Layer_7_20_">
		<path id="path20_5_" fill="#010101" d="M128.752,154.514c0.424,0.249,0.884,0.486,1.378,0.717
			c0.971,0.512,1.571,1.209,1.802,2.092c0.246,0.336,0.352,1.025,0.316,2.066c0,0.018-0.035,0.291-0.104,0.82
			c-0.089,0.336-0.249,0.564-0.478,0.688c-0.104,0.231-0.267,0.495-0.477,0.795c-0.143,0.388-0.362,0.83-0.662,1.324
			c-0.654,1.095-0.998,2.021-1.033,2.781c0,0.124,0.045,0.3,0.133,0.529c0.07,0.23,0.105,0.39,0.105,0.478
			c0,0.369-0.113,0.873-0.344,1.509c-0.193,0.583-0.389,1.051-0.584,1.404c-0.052,0.105-0.299,0.68-0.74,1.722l-0.027,0.027
			c0.037,0.123,0.045,0.202,0.027,0.236c0,0.213-0.149,0.443-0.452,0.689h-0.024c-0.106,0.143-0.194,0.213-0.266,0.213
			c-0.194,0-0.362-0.027-0.504-0.08c0,0.212,0.037,0.706,0.107,1.483c-0.143,0.759-0.742,1.139-1.801,1.139h-0.028
			c0,0.017,0,0.044,0,0.079c-0.212,0.583-0.501,0.873-0.872,0.873c-0.195,0-0.372-0.053-0.53-0.158
			c0.034,0.229,0.079,0.477,0.134,0.742c-0.019,0.281-0.062,0.502-0.134,0.662c-0.141,0.406-0.46,0.608-0.953,0.608
			c-0.317,0-0.593-0.203-0.821-0.608c-0.019,0.158-0.045,0.343-0.079,0.557c-0.23,0.582-0.77,0.873-1.616,0.873
			c-0.601,0-1.068-0.486-1.404-1.457c-0.159-0.477-0.266-0.909-0.317-1.297c0.158-0.76,0.299-1.634,0.424-2.623
			c0.407-3.92,0.608-5.889,0.608-5.906c0.055-1.643-0.044-3.002-0.291-4.079l0.159-1.376c0.053-1.891-0.97-3.674-3.072-5.352
			c-3.162-2.154-5.793-4.177-7.894-6.064c-0.035-0.036-2.534-2.084-7.495-6.146c-2.103-1.73-3.612-3.046-4.53-3.945
			c-0.972-0.211-2.173-0.998-3.603-2.357c-0.158-0.23-0.326-0.459-0.503-0.689c-2.506-3.391-4.247-6.312-5.218-8.768
			c-0.301-0.775-0.512-1.861-0.637-3.257c-0.105-1.554-0.193-2.684-0.264-3.39c-0.301-2.119-0.874-3.831-1.721-5.139
			c-0.229-0.354-0.434-0.582-0.61-0.689c-0.353-0.777-0.705-1.509-1.059-2.197c-1.043-1.837-1.52-4.273-1.432-7.311
			c0.089-2.561,0.468-4.592,1.14-6.093c1.147-2.578,3.205-4.263,6.171-5.058c2.843-1.625,5.466-1.845,7.866-0.663
			c0.812,0.388,1.588,0.945,2.33,1.669c0.707,0.724,1.166,1.174,1.379,1.35c1.819,1.731,2.834,2.798,3.045,3.206
			c0.178,0.334,0.248,1.201,0.213,2.596c-0.019,0.211-0.133,1.297-0.344,3.258c-0.036,1.041-0.01,3.98,0.078,8.82
			c-0.072,0.123-0.124,0.264-0.158,0.422c-0.158,0.53-0.257,1.369-0.292,2.518c-0.088,2.859-0.036,5.288,0.158,7.283
			c0.32,3.195,0.962,5.043,1.935,5.535c0.035,0.035,0.061,0.08,0.079,0.133c0.018,0.018,0.035,0.025,0.052,0.025
			c0.283,0.178,0.549,0.337,0.797,0.479c0.494,0.387,1.244,0.873,2.251,1.456c0.156,0.106,1.059,0.759,2.7,1.96
			c0.32,0.212,0.592,0.406,0.821,0.584c0.106,0.141,0.231,0.291,0.372,0.45c2.047,2.612,3.832,5.067,5.35,7.362
			c0.336,0.494,0.68,0.988,1.033,1.482c0.725,1.291,1.563,2.508,2.515,3.656C123.242,151.973,125.874,153.756,128.752,154.514
			L128.752,154.514z"/>
	</g>
</g>
</svg>
