<?xml version="1.0" encoding="utf-8"?>
<!-- Generator: Adobe Illustrator 15.0.0, SVG Export Plug-In . SVG Version: 6.00 Build 0)  -->
<svg version="1.2" baseProfile="tiny" id="Layer_1" xmlns="http://www.w3.org/2000/svg" xmlns:xlink="http://www.w3.org/1999/xlink"
	 x="0px" y="0px" width="200px" height="200px" viewBox="0 0 200 200" overflow="inherit" xml:space="preserve">
<g id="g3335" transform="matrix(7.9036172,0,0,-7.9036172,5.8012034,1018.4522)">
	<g id="g3337">
		<g id="g3339" transform="matrix(1,0,0,-1,0,128.125)">
			<path id="path3341" fill="#010101" stroke="#010101" stroke-width="0.3563" d="M15.445,2.256l-0.301,0.008l-0.236-0.072
				l-0.079-0.029l-0.028-0.142L14.72,1.957l-0.086,0.127l-0.103-0.14l-0.197-0.035l-0.217,0.046l-0.232,0.022l-0.05,0.107
				l-0.143,0.008l-0.304,0.016l-0.239,0.056L12.96,2.15l-0.152-0.033l-0.144-0.011L12.62,2.123l-0.4-0.037l0.021-0.065l0.02-0.121
				l0.174-0.077l0.043-0.092l-0.046-0.021l-0.1,0.037l-0.027-0.003l-0.23,0.096l-0.03,0.126l-0.089,0.089L11.85,2.081L11.767,2.06
				l-0.109,0.033L11.535,2.12l-0.127,0.014l-0.11-0.004l-0.243,0.025l-0.061-0.009l-0.208-0.032l-0.134,0.03L10.48,2.113
				l-0.236,0.028L10.16,2.122l-0.033-0.09l-0.11-0.061l-0.103,0L9.761,1.982L9.719,1.992L9.671,2.015L9.616,2.055L9.57,2.135
				L9.541,2.177L9.443,2.206L9.279,2.222L9.23,2.228L9.198,2.297L9.003,2.354l-0.135,0.29l0.035,0.044L8.964,2.68l0.107-0.052
				l0.124-0.027l0.101-0.036l0.079-0.009l0.088-0.033l0.08,0.009L9.63,2.525l0.03,0.014L9.589,2.673L9.539,2.78l-0.093,0.3
				L9.407,3.266L9.46,3.189l0.005,0.068L9.441,3.309L9.426,3.423L9.417,3.66L9.394,3.929L9.352,4.02L9.348,4.148l0.015,0.09
				l0.005,0.049L9.356,4.374L9.337,4.514L9.323,4.564l0.021,0.074l0.002,0.094L9.325,4.899l0,0.139l0,0.121l0.019-0.02L9.39,5.04
				L9.373,5.134L9.349,5.226L9.314,5.422L9.299,5.573L9.337,5.59L9.321,5.686l-0.01,0.06L9.309,5.811L9.272,5.95L9.291,5.95
				L9.39,5.735l0.029-0.004L9.402,5.789L9.3,6.029l0.031-0.005L9.356,5.99L9.41,5.912l0.032,0.015L9.418,5.935L9.356,5.99
				L9.324,6.059L9.285,6.041L9.239,6.14l0.065,0.021l0.071-0.032l0.053,0.025L9.48,6.121l0.002,0.038l0.079-0.01l0.071-0.032
				L9.599,6.223l0.027,0.003l0.045,0.002l0.03-0.023l0.046,0.021l0.13-0.041L9.93,6.21l0.083-0.018l0.031,0.032l0.068,0.014
				l0.055,0.043l0.027,0.041l0.023,0.01l0.052-0.051l0.06,0.028l0.053-0.012l0.068,0.031l0.042-0.028l0.027,0.022l-0.009,0.06
				l-0.018,0.038l0.038,0.018l0.087-0.006l0.022,0.011l0.053,0.007l0.018,0.064l-0.004,0.026l0.005,0.031l0.045,0.086l0.019,0.017
				l-0.043,0.073l0.068-0.005l-0.037,0.121l-0.1-0.064l-0.098,0.01l-0.082-0.001l-0.074,0.04l-0.123,0.025l-0.154,0.032
				l-0.018,0.038l0.027,0.022l-0.063,0.017L10.01,7.017L9.992,7.036L9.966,7.071L9.884,7.107l-0.055,0.04L9.788,7.173L9.715,7.233
				L9.657,7.317l0.019,0.038L9.652,7.407L9.611,7.436l-0.01,0.041l0.027,0.022L9.537,7.475L9.445,7.496L9.268,7.414L9.247,7.322
				L9.205,7.274L9.161,7.207L9.114,7.148L9.022,7.087L8.946,7.052l-0.102-0.02L8.711,7.018L8.588,7.043L8.529,7.071L8.495,7.103
				L8.465,7.125L8.451,7.156L8.396,7.195l0.009,0.06l-0.014,0.05L8.42,7.346l0.068,0.032L8.576,7.39l0.06,0.028l0.079-0.01
				l0.069,0.032l0.035,0.045l0.005,0.048L8.799,7.587L8.747,7.6L8.699,7.624L8.688,7.647l0.028,0.059l0.027,0.041l0.03,0.014
				l0.047,0.04l0.008,0.004L8.9,7.829l0.057,0.017L9.01,7.833L9.029,7.87l0.028,0.059l0.028,0.042L9.082,8.016l0.04,0.074
				l0.023,0.011L9.28,8.209l0.073,0.043l0.073,0.062l0.046-0.017l0.022,0.01l0.08-0.074l0.09-0.032L9.7,8.145l0.074-0.04L9.86,8.061
				l0.093-0.039l0.07-0.052l0.101-0.037l0.055-0.04l0.073-0.058l0.013,0.071l-0.037,0.14l0,0.12l0.017,0.063l0.039,0.056l0.03,0.097
				l-0.021,0.065l0.052,0.108l0.051,0.051L10.394,8.69l0.018,0.101l0.066,0.076l0.074,0.063l0.032,0.051l0.092,0.043l0.051,0.052
				l0.029,0.134l0.025,0.086l0.013,0.071l0.036,0.063l-0.005,0.053l-0.109,0.032L10.616,9.47l-0.073-0.042l-0.096-0.073L10.36,9.343
				l-0.11-0.005l-0.107,0.033l-0.05,0.107L10.027,9.54L9.893,9.57L9.785,9.679L9.747,9.744L9.687,9.81l-0.05,0.069l-0.046,0.08
				l0.056,0.119L9.7,10.103l0.093-0.022l0.088,0.012l0.174-0.077l0.097-0.029l0.063-0.036l0.112-0.04l0.159,0.018l0.098,0.008
				l0.127-0.033l0.102,0.001l0.122-0.064l0.168-0.062l0.202-0.017l0.053-0.031l0.092-0.059l0.073-0.079l0.003-0.064l0.024-0.052
				l0.078-0.029l0.072-0.077l0.083-0.157l0.071-0.116l0.064-0.137l0.007-0.154l0.043,0.029l0.192-0.412l-0.008,0.154L12.18,8.6
				l0.021-0.046l0.025-0.136l0.067-0.082l0.079-0.091l0.157-0.337l0.001-0.102L12.519,7.71l0.061,0.009l0.02-0.121l0.014,0.007
				l0.04-0.064l0.026-0.036l0.025-0.053L12.687,7.37l0.046-0.099L12.69,7.203l0.056-0.122L12.72,6.857l0.057-0.123l0.113-0.04
				l0.044-0.017l0.064-0.137l0.068,0.013l0.099,0.046l0.028-0.024l-0.002-0.094l0.062-0.035l0.151-0.144l0.102,0.02l0.056-0.058
				l0.124-0.007l0.028-0.023l0.104-0.082l0.038-0.103l0.103,0.038l0.048-0.005l0.064-0.035l0.025-0.054l0.197-0.084l0.084,0
				l0.053,0.025l0.101-0.018l0.099-0.213l0.005-0.053l0.007-0.212l0.05-0.107l0.002-0.082l0.021-0.045l0.009-0.08l0.035-0.076
				l-0.021-0.094l0.055-0.058l0.036-0.16l0.002-0.202L14.827,4.28l0.018-0.178l-0.006-0.206l0.007-0.136l-0.025-0.226l-0.002-0.177
				l-0.026-0.261l0.02-0.084l0.004-0.128l0.02-0.064l0.02-0.084l-0.012-0.153l-0.014-0.11l0.014-0.03l-0.021-0.038l0.337,0.074
				l0.218-0.01l0.061-0.213L15.445,2.256L15.445,2.256L15.445,2.256z M14.253,2.323l0.076,0.277l0.021,0.233l0.03,0.236L14.34,3.014
				l-0.022,0.168l-0.033-0.007l-0.024,0.37l-0.026-0.022l-0.063,0.333l-0.023,0.211l-0.083,0.278L14.03,4.523l0.008,0.18
				l-0.109,0.116l0.049,0.014l-0.026,0.016L13.867,4.93l-0.021,0.046l-0.04-0.074l-0.081,0.175l-0.043,0.055l-0.138,0.075
				L13.375,5.23l-0.163,0.091l-0.063,0.017l-0.065-0.021l-0.116-0.008l-0.082,0.036l-0.03-0.014l-0.119,0.094L12.666,5.42
				l-0.008-0.105L12.6,5.242l0.006-0.053l-0.051-0.052l0-0.037l-0.073-0.063l0.014-0.03l-0.042,0.008l-0.012-0.033l0.01-0.041
				l-0.031-0.014l-0.043-0.049l-0.023-0.029l-0.027-0.022L12.32,4.805l-0.088-0.051l-0.067,0.025l-0.012-0.052l-0.049,0.023
				L12.058,4.73l-0.015-0.026l-0.039-0.036l-0.059,0.009l-0.069-0.032l-0.072-0.005l-0.008-0.022l-0.052,0.012l-0.046-0.021
				L11.7,4.582l-0.044,0.016l-0.038-0.018l-0.042-0.029l-0.038,0.02l-0.03-0.033l-0.022,0.026l-0.073-0.024l-0.036,0.077
				l-0.011-0.014L11.32,4.582L11.283,4.62l-0.041-0.01l-0.07,0.051l-0.045,0.035l-0.051,0.051l-0.033,0.05l-0.039,0.001l-0.031,0.05
				l-0.061,0.008l0.037,0.101l-0.078,0.028l0.009,0.041l-0.025,0.034l-0.043,0.091l-0.031,0.106l-0.153,0.049l-0.122-0.057
				l-0.031,0.024l-0.149-0.098l0.038,0.157l-0.129-0.144l0.012-0.105l-0.099-0.046l-0.088-0.152l-0.028-0.179l-0.007-0.264
				L9.965,4.501l0.027-0.137l0.004-0.128L9.933,4.29l0.068-0.265l-0.03-0.014l0.034-0.254l0.002-0.166L9.932,3.612l0.05-0.227
				L9.931,3.157l0.24-0.715l0.332,0.024l0.207-0.025l0.395,0.007l0.162,0.01l0.207-0.025l0.292-0.069l0.1-0.055l0.122,0.038
				l0.346,0.013l0.442,0.01l0.216,0.054L13.215,2.4l0.236-0.067l0.117,0.026l0.249,0.023l0.142-0.045l0.125,0.048L14.253,2.323
				L14.253,2.323L14.253,2.323z"/>
		</g>
	</g>
</g>
</svg>
