<?xml version="1.0" encoding="utf-8"?>
<!-- Generator: Adobe Illustrator 15.0.0, SVG Export Plug-In . SVG Version: 6.00 Build 0)  -->
<svg version="1.2" baseProfile="tiny" id="Layer_1" xmlns="http://www.w3.org/2000/svg" xmlns:xlink="http://www.w3.org/1999/xlink"
	 x="0px" y="0px" width="200px" height="200px" viewBox="0 0 200 200" overflow="inherit" xml:space="preserve">
<path fill-rule="evenodd" d="M92.365,130.045c0.025-0.078,0.064,0.066,0.115,0.058c0.053-0.054-0.091-0.158-0.087-0.261
	c0.004-0.136,0.042,0.032,0.116,0c0.011-0.126-0.101-0.132-0.174-0.174c-0.005-0.122,0.044,0.001,0.087,0
	c-0.005-0.082-0.053-0.12-0.058-0.202c0.055-0.055,0.072-0.004,0.145,0c0.004-0.158,0.059-0.318-0.087-0.551
	c0.166,0.072,0.053-0.01,0.058-0.145c0.071-0.029,0.062-0.01,0.174-0.029c0.086-0.025-0.067-0.043-0.028-0.116
	c0.066-0.009,0.111,0.005,0.145,0.029c0.036-0.094-0.094-0.022-0.058-0.116c0.104,0.018,0.194,0.049,0.289,0
	c-0.013-0.025-0.025-0.052-0.058-0.058c0.06-0.03,0.135,0.014,0.145-0.116c0.072,0.024,0.155,0.038,0.261,0.029
	c-0.018-0.06-0.146-0.008-0.115-0.116c0.4-0.015,0.646,0.127,1.043,0.116c-0.11-0.045-0.253-0.057-0.406-0.058
	c0.069-0.162,0.519,0.033,0.551-0.087c-0.004-0.142-0.234-0.056-0.318-0.116c0.03-0.065,0.182-0.011,0.261-0.029
	c0.064-0.004-0.038-0.072,0-0.145c0.067,0,0.135,0,0.202,0c-0.006-0.09-0.144-0.049-0.231-0.058c0.09-0.068,0.531-0.097,0.666-0.059
	c-0.028-0.097-0.227-0.024-0.289-0.087c0.184-0.077,0.466-0.003,0.666,0c0.156-0.138,0.478-0.235,0.666-0.174
	c-0.003-0.103-0.164-0.048-0.202-0.115c0.229,0.037,0.696,0.053,0.956,0.087c0.043-0.013-0.012-0.037,0-0.087
	c0.088,0.027,0.116,0.115,0.261,0.087c0.071-0.075-0.062-0.108-0.058-0.203c0.109,0.006,0.109,0.122,0.231,0.116
	c0.039-0.01,0.023-0.073,0.028-0.116c0.067,0.02,0.078,0.096,0.146,0.116c0.087-0.151,0.279-0.025,0.348-0.174
	c0.052,0.025,0.037,0.117,0.145,0.087c0.061-0.008,0.008-0.128,0.058-0.146c0.009,0.086,0.23,0.142,0.262,0.029
	c0.051,0.026,0.101,0.054,0.087,0.145c0.06-0.007,0.008-0.127,0.058-0.145c0.045,0.042,0.061,0.113,0.058,0.203
	c0.099-0.019,0.047-0.186,0.174-0.174c0,0.077,0,0.154,0,0.231c0.056,0.054,0.118-0.131,0.174-0.174
	c0.098,0.091-0.059,0.172-0.058,0.261c0.093-0.183,0.24-0.151,0.347-0.29c0.08,0.026-0.051,0.102,0.029,0.146
	c0.113,0.007,0.107-0.105,0.232-0.087c-0.01,0.059-0.078,0.057-0.088,0.115c0.166,0.068,0.248-0.041,0.377-0.087
	c0.139,0.011-0.062,0.087-0.059,0.146c0.363,0.016,0.395-0.141,0.695-0.203c0.014,0.061-0.02,0.076-0.027,0.116
	c0.146,0.03,0.164-0.066,0.289-0.059c-0.029,0.067-0.1,0.094-0.203,0.087c0.223,0.012,0.461,0.196,0.754,0.116
	c0.029,0.187,0.352,0.043,0.578,0.087c-0.029,0.066-0.133,0.06-0.23,0.058c0.162,0.078,0.445,0.036,0.637,0.087
	c-0.031,0.066-0.182,0.012-0.26,0.029c-0.023,0.11,0.137,0.037,0.201,0.058c0.025,0.093-0.045,0.09-0.057,0.146
	c0.105,0,0.213,0,0.318,0c-0.049,0.125-0.369-0.022-0.348,0.174c0.09,0.062,0.498-0.092,0.58,0.058
	c-0.199-0.015-0.316,0.052-0.521,0.029c0.402,0.103,0.729-0.121,1.158-0.087c0.008,0.076-0.041,0.095-0.115,0.087
	c0.057,0.083,0.18-0.011,0.26,0c0.041,0.096,0.016,0.121,0.145,0.087c-0.012,0.025-0.025,0.052-0.057,0.058
	c0.059,0.105,0.172,0.024,0.289,0.029c-0.025,0.089-0.098,0.086,0.059,0.087c-0.055,0.1-0.021,0.189,0.115,0.174
	c-0.07,0.041-0.004,0.271,0.059,0.174c-0.084,0.101-0.051,0.334-0.029,0.463c0.023,0.085,0.072-0.037,0.145,0
	c-0.049,0.111-0.08,0.22,0.029,0.203c-0.07,0.104-0.254,0.095-0.232,0.29c0.047,0.063,0.104-0.106,0.145-0.146
	c-0.123,0.327-0.047,0.46-0.23,0.812c0.01,0.041,0.051,0.003,0.057-0.029c0.053,0.009-0.029,0.122-0.057,0.146
	c0.025,0.082,0.182,0.095,0.057,0.174c0.047,0.063,0.105-0.106,0.145-0.146c0.02,0.193-0.176,0.422-0.289,0.58
	c0.162,0.056-0.02,0.105-0.059,0.261c0.059,0.065,0.098-0.134,0.203-0.116c-0.086,0.165-0.188,0.315-0.26,0.492
	c0.02,0.073,0.076-0.054,0.145-0.028c-0.074,0.253-0.367,0.439-0.262,0.638c-0.053,0.149-0.26,0.146-0.289,0.318
	c0.08,0.136,0.252-0.055,0.406-0.029c-0.191,0.291-0.68,0.287-0.84,0.608c0.113,0.051,0.184,0.014,0.174,0.146
	c0.074-0.023,0.203-0.077,0.26-0.029c-0.059,0.066-0.174,0.078-0.289,0.087c0.021,0.095,0.162,0.069,0.23,0.116
	c-0.09,0.025-0.143,0.089-0.23,0.115c-0.014,0.1,0.012,0.163,0.029,0.232c0.051,0.054,0.072-0.023,0.174,0
	c-0.008,0.139-0.041,0.248-0.174,0.261c0.016,0.099,0.094,0.137,0.23,0.115c-0.033,0.043-0.033,0.073,0,0.116
	c0.283,0.004,0.424,0.25,0.666,0.203c0,0.027-0.035,0.022-0.057,0.028c0.039,0.066,0.201,0.011,0.289,0.029
	c-0.004,0.063-0.072,0.062-0.145,0.058c0.09,0.074,0.227,0.102,0.406,0.087c0.033,0.038,0.01,0.046,0,0.087c0.096,0,0.193,0,0.289,0
	c-0.01,0.242,0.188,0.275,0.436,0.261c-0.021,0.107,0.049,0.125,0.027,0.232c0.162,0.041,0.299,0.107,0.436,0.174
	c-0.035,0.088-0.111-0.043-0.145,0.028c0.252,0.192,0.652,0.236,0.955,0.377c0.102,0.237,0.576,0.1,0.609,0.405
	c-0.104-0.013-0.158-0.073-0.232-0.115c0.098,0.179,0.334,0.356,0.58,0.435c0.113,0.47,0.449,0.563,0.666,0.897
	c0.014,0.062-0.041,0.056-0.088,0.059c0.066,0.108,0.129,0.127,0.088,0.289c0.07,0.103,0.248,0.1,0.289,0.232
	c-0.01,0.144-0.076-0.024-0.145,0c0.102,0.227,0.334,0.322,0.492,0.492c-0.107,0.021-0.123-0.049-0.23-0.028
	c0.066,0.212,0.27,0.289,0.348,0.492c-0.16-0.028-0.078-0.042-0.262,0.058c-0.035,0.301,0.244,0.396,0.318,0.667
	c-0.078,0.021-0.059-0.058-0.115-0.059c-0.006,0.085,0.184,0.221,0.203,0.377c-0.055-0.003-0.02-0.096-0.088-0.087
	c0.006,0.11,0.123,0.11,0.117,0.231c0.045,0.104-0.1,0.018-0.088,0.087c-0.006,0.21,0.178,0.229,0.174,0.435
	c-0.133,0.028-0.023-0.188-0.145-0.174c-0.029,0.454,0.434,0.667,0.58,1.043c-0.012,0.13-0.119-0.075-0.174-0.087
	c0.199,0.428,0.471,1.035,0.898,1.333c0,0.067-0.002,0.136,0,0.203c0.463,0.578,0.898,1.186,1.273,1.854
	c0.006,0.072-0.064,0.07-0.086,0.115c0.166,0.138-0.094,0.522,0.115,0.608c-0.152,0.13,0.1,0.404,0.289,0.695
	c0.143,0.217,0.256,0.359,0.377,0.551c-0.146-0.018-0.148-0.181-0.26-0.231c-0.078,0.212,0.197,0.423,0.289,0.695
	c0.037,0.108-0.008,0.241,0.029,0.348c0.061,0.171,0.23,0.258,0.26,0.405c-0.133,0.131,0.049,0.221,0.059,0.377
	c-0.221,0.114-0.064,0.437-0.174,0.637c-0.066,0.01-0.111-0.004-0.145-0.028c0.061,0.15,0.205,0.22,0.289,0.348
	c-0.127,0.115,0.109,0.303-0.086,0.348c0.018,0.119,0.121,0.199,0.057,0.318c0.166,0.166,0.24,0.391,0.377,0.58
	c0.244,0.337,0.631,0.606,0.783,1.014c0.023,0.065,0.006,0.136,0.029,0.203c0.115,0.352,0.523,0.532,0.549,0.956
	c-0.107,0.012-0.102-0.091-0.174-0.116c0.211,0.472,0.35,0.85,0.494,1.391c-0.1,0.012-0.088-0.087-0.146-0.116
	c0.061,0.311,0.244,0.575,0.232,0.956c-0.006,0.165,0.096,0.312,0.115,0.492c0.035,0.309-0.016,0.662,0,0.957
	c0.041,0.721,0.26,1.414,0.232,2.057c-0.037,0.035-0.045,0.012-0.086,0c0.039,0.501,0.096,0.978,0.145,1.361
	c-0.029,0-0.059,0-0.088,0c0.115,0.529,0.223,0.977,0.203,1.449c-0.082-0.053-0.094-0.178-0.115-0.29
	c0.314,1.022-0.188,3.086,1.1,3.419c-0.033-0.129-0.26-0.068-0.26-0.231c0.289,0.136,0.566,0.284,0.928,0.348
	c0.029,0.038,0.027,0.106,0.057,0.145c0.107-0.021,0.125,0.05,0.232,0.028c-0.008,0.06-0.078,0.058-0.088,0.117
	c0.078,0,0.156,0,0.232,0c-0.156,0.2,0.396,0.074,0.521,0.174c-0.02,0.076-0.014,0.179-0.145,0.145
	c0.152,0.138,0.375,0.203,0.609,0.26c0,0.051-0.023,0.076-0.059,0.088c0.135,0.098,0.332,0.131,0.377,0.318
	c0.02,0.113-0.102,0.002-0.145,0c0.154,0.115,0.316,0.224,0.375,0.435c-0.051,0.004-0.061-0.035-0.115-0.028
	c0.084,0.299,0.346,0.711,0.115,1.129c0.027,0.1,0.127,0.127,0.117,0.262c-0.039-0.03-0.107-0.029-0.145-0.059
	c0.039,0.119,0.15,0.396,0.057,0.464c0.035,0.042,0.111,0.044,0.145,0.087c0.152,0.533-0.162,0.684-0.463,0.84
	c-0.523,0.031-0.834-0.15-0.955-0.521c-0.041-0.066-0.121-0.093-0.176-0.145c-0.014-0.18,0.008-0.321,0.117-0.377
	c-0.125-0.072-0.055-0.277-0.029-0.435c-0.061-0.276-0.453-0.222-0.725-0.29c0.008,0.074-0.137,0.146-0.26,0.174
	c-0.072,0.348,0.01,0.726,0.26,0.841c0.131,0.198,0.098,0.56,0.289,0.695c0.01,0.076-0.039,0.095-0.115,0.087
	c-0.008,0.395-0.006,0.777,0.232,0.928c-0.021,0.051-0.053,0.004-0.088,0c0.141,0.273-0.002,0.93,0.203,1.217
	c-0.043-0.016-0.072-0.043-0.115-0.059c0.016,0.138,0.154,0.154,0.26,0.203c-0.02,0.026-0.125,0.016-0.115,0.145
	c0.1,0.004,0.248,0.111,0.174,0.29c-0.092,0.024-0.09-0.046-0.145-0.058c0.055,0.055-0.018,0.052,0,0.145
	c0.035,0.129,0.26,0.068,0.26,0.231c-0.027,0-0.057,0-0.086,0c0.186,0.19,0.213,0.438,0.23,0.667c-0.047,0-0.096,0-0.145,0
	c0.186,0.789,0.152,1.772-0.115,2.463c-0.025,0.021-0.064,0.03-0.115,0.028c-0.008,0.106-0.041,0.111,0,0.202
	c-0.18,0.107-0.316,0.223-0.551,0.146c-0.057-0.021,0.008-0.161-0.059-0.174c-0.184,0.048-0.102,0.36-0.232,0.464
	c0.072,0.041,0.15-0.158,0.146-0.29c0.127,0.186,0.002,0.428-0.146,0.493c0.189,0.368-0.689,0.566-0.695,0.145
	c-0.35-0.203-0.365-0.786-0.318-1.305c-0.174-0.121-0.359-0.265-0.404-0.434c0.1-0.064,0.078-0.237,0.086-0.319
	c-0.176,0.011-0.203,0.246-0.26,0.377c-0.062,0.142-0.125,0.277-0.203,0.405c-0.246,0.402-0.457,0.947-1.043,0.783
	c0.01-0.09-0.068-0.139,0-0.203c0-0.087-0.076-0.1-0.088-0.174c0.045-0.619,0.26-1.355,0.406-1.971
	c0.039-0.168,0.207-0.457-0.088-0.521c-0.279,0.474-0.643,0.863-1.014,1.246c-0.195,0.053-0.357-0.006-0.492-0.087
	c0.004-0.034-0.006-0.052-0.029-0.058c0.049-0.336-0.053-0.572,0.029-0.928c0.17-0.197,0.285-0.449,0.463-0.637
	c0.045-0.371,0.033-0.799,0.203-1.043c-0.326-0.797-0.635-1.805-0.578-2.927c-0.041-0.066-0.121-0.093-0.174-0.146
	c0.119-0.044,0.188-0.139,0.174-0.318c-0.027-0.079-0.102,0.052-0.146-0.029c0.002-0.098-0.051-0.123,0.029-0.174
	c-0.004-0.053-0.098-0.018-0.115-0.058c0.014-0.366-0.17-0.913-0.059-1.274c-0.025-0.051-0.105-0.048-0.115-0.116
	c-0.062-0.514,0.08-1.092-0.059-1.593c-0.008-0.04-0.072-0.024-0.115-0.029c-0.023-0.1,0.016-0.147-0.088-0.203
	c-0.01-0.098,0.051-0.123,0.088-0.174c-0.156-0.039-0.049-0.183,0-0.261c-0.006-0.034-0.053-0.024-0.088-0.028
	c-0.016-0.113,0.074-0.12,0.088-0.203c-0.021-0.016-0.066,0.02-0.059,0.029c-0.209-0.237,0.076-1.468-0.145-1.912
	c-0.189-0.246-0.297-0.574-0.289-1.015c-0.055-0.09-0.188-0.103-0.174-0.261c-0.088,0.061,0.037,0.152,0,0.261
	c-0.203-0.028,0.043-0.579-0.262-0.579c-0.006-0.188-0.102-0.285-0.232-0.348c0-0.074,0.023-0.035,0.059-0.029
	c-0.18-0.207-0.107-0.665-0.348-0.812c-0.043-0.466-0.367-0.629-0.26-1.13c-0.061-0.115-0.162-0.186-0.146-0.377
	c-0.029,0.02-0.029,0.066-0.086,0.059c-0.053-0.129-0.02-0.371-0.174-0.318c0.037-0.396-0.201-0.514-0.232-0.841
	c-0.09,0.054,0.029,0.231-0.029,0.261c-0.141-0.09,0.014-0.477-0.115-0.58c-0.021-0.071-0.086,0.096-0.145,0
	c0.039-0.146-0.086-0.277,0-0.376c-0.297-0.108-0.094-0.718-0.318-0.898c-0.045-0.624-0.145-1.238,0.057-1.709
	c-0.049-0.011-0.055,0.022-0.057,0.058c-0.129-0.196,0.029-0.411,0.029-0.637c-0.002-0.464-0.225-0.885-0.291-1.304
	c-0.045-0.071-0.115-0.116-0.174-0.174c-0.006-0.602-0.609-0.608-0.607-1.217c-0.129-0.042-0.076,0.098-0.174,0.086
	c0.014-0.202,0.053-0.482-0.145-0.435c0.066-0.232-0.039-0.534-0.232-0.521c0.061,0.056,0.012,0.452,0,0.174
	c-0.064-0.124-0.188-0.326-0.174-0.435c0.004-0.062-0.104-0.013-0.145-0.028c0.037-0.348-0.215-0.404-0.203-0.725
	c-0.025-0.043-0.072-0.062-0.145-0.058c0.037-0.087,0.029-0.222,0.029-0.348c-0.045,0.062-0.051,0.163-0.059,0.261
	c-0.105-0.021-0.041-0.212-0.059-0.319c-0.117-0.04-0.092,0.063-0.174,0.059c0.066-0.307-0.17-0.313-0.115-0.608
	c-0.033-0.021-0.125,0.057-0.232,0c-0.047-0.205-0.203-0.299-0.23-0.521c-0.059,0.107-0.117,0.036-0.174,0.058
	c-0.137-0.057-0.053-0.335-0.117-0.464c-0.025-0.061-0.164-0.01-0.174-0.087c-0.156,0.751-0.357,1.458-0.607,2.115
	c-0.252,1.053,0.277,2.052,0.057,2.927c-0.002,0.779,0.039,1.788-0.057,2.607c-0.029,0-0.059,0-0.088,0
	c-0.168,0.607,0.234,1.13,0.262,1.68c0.002,0.047-0.041,0.15-0.029,0.203c0.045,0.23,0.408,0.682,0.492,1.014
	c0.029,0.114,0.441,0.231,0.203,0.492c0.359,0.511,0.598,1.141,0.955,1.652c0.025,0.082-0.041,0.074-0.027,0.145
	c0.131,0.178,0.143,0.475,0.26,0.666c-0.023-0.016-0.047-0.029-0.086-0.028c0,0.231,0.172,0.291,0.201,0.492
	c-0.068-0.009-0.053-0.101-0.145-0.087c0.314,0.472,0.51,1.055,0.609,1.594c-0.172,0.006-0.107-0.221-0.232-0.261
	c0.086,0.302,0.279,0.493,0.377,0.782c-0.117,0.002-0.053-0.18-0.174-0.174c-0.076,0.086,0.145,0.246,0.059,0.348
	c0.004,0.054,0.098,0.018,0.115,0.059c0.123,0.504,0.316,0.938,0.492,1.391c-0.076-0.146-0.178-0.268-0.232-0.436
	c-0.035,0.269,0.35,0.641,0.203,0.928c0.303,0.316,0.01,0.869,0.291,1.158c0.02,0.021,0.115,0.02,0.145,0.059
	c0.223,0.311,0.277,0.783,0.404,1.158c-0.057,0.049-0.035-0.002-0.115,0c-0.021,0.089,0.051,0.086,0.029,0.174
	c-0.043,0.034-0.072,0.034-0.115,0c0,0.068,0,0.136,0,0.203c-0.094,0.025-0.09-0.045-0.146-0.058
	c0.066,0.174,0.025,0.434-0.027,0.579c-0.125,0.038-0.092-0.082-0.146-0.115c0.014,0.113-0.02,0.368-0.057,0.521
	c-0.088,0.002-0.148-0.086-0.088-0.146c-0.467,0.44-0.23,1.585-0.578,2.144c-0.08,0.021-0.059-0.057-0.117-0.057
	c-0.031,0.268,0.025,0.595-0.23,0.578c0.076,0.291-0.105,0.743-0.291,0.957c0-0.059,0-0.116,0-0.174
	c-0.07,0.078-0.072,0.16-0.086,0.231c-0.039-0.009-0.025-0.072-0.029-0.116c-0.07,0.164-0.041,0.262-0.059,0.493
	c-0.105,0.068-0.301,0.135-0.203,0.318c-0.059,0.063-0.094-0.003-0.145-0.028c0.004,0.119,0.006,0.236-0.057,0.289
	c-0.1,0.021-0.049-0.106-0.117-0.115c-0.047-0.009-0.049,0.027-0.086,0.028c-0.049,0.072-0.041,0.309-0.029,0.348
	c0.027-0.021,0.043-0.053,0.059-0.087c0.088,0.035-0.033,0.1,0,0.174c-0.066-0.056-0.088-0.066-0.117,0.029
	c-0.041-0.007-0.01-0.086-0.057-0.087c-0.094,0.461-0.154,0.776-0.406,1.159c-0.064-0.005-0.062-0.073-0.059-0.146
	c-0.373,0.228-0.275,0.692-0.404,1.072c-0.084-0.013,0.025-0.219-0.059-0.231c-0.08,0.251,0.045,0.529-0.059,0.753
	c-0.127,0.042-0.076-0.099-0.174-0.087c-0.033,0.024-0.039,0.149,0.059,0.174c-0.062,0.083-0.215,0.075-0.289,0.145
	c0.025,0.295,0.025,0.426-0.146,0.551c0.166,0.326,0.354,0.849,0.146,1.13c0.477,0.401,1.092,0.665,1.621,1.015
	c0.184,0.009,0.32,0.066,0.521,0.058c0.156,0.288,0.787,0.103,0.869,0.464c0.27,0.002,0.445,0.096,0.695,0.115
	c-0.117,0.064-0.586-0.008-0.752-0.087c0.164,0.192,0.801,0.165,1.1,0.319c-0.111,0.052-0.305-0.062-0.463-0.059
	c0.072,0.189,0.609,0.162,0.754,0.377c-0.178-0.026-0.299-0.108-0.465-0.145c0.131,0.208,0.504,0.172,0.725,0.289
	c0,0.029,0,0.059,0,0.087c0.293,0.065,0.447,0.268,0.783,0.29c0.057,0.211,0.418,0.271,0.637,0.406
	c0.141,0.342,0.529,0.436,0.725,0.724c0.029,0.126-0.061,0.134-0.088,0.202c0.068,0.146,0.152,0.273,0.262,0.377
	c0.049,0.66-1.273,0.224-1.564,0.116c0.061,0.17,0.195,0.269,0.289,0.405c-0.285,0.439-0.957,0.105-1.188-0.174
	c-0.072-0.005-0.07,0.064-0.115,0.088c-0.24-0.029-0.428-0.205-0.695-0.117c-0.318-0.156-0.746-0.08-0.957-0.376
	c-0.85-0.104-1.221-1.001-2.145-1.043c-0.107,0.036-0.178,0.11-0.23,0.202c0.129,0.395,0.602,0.559,0.463,1.131
	c-0.117,0.072-0.184,0.177-0.289,0.203c-0.826,0.199-1.014-0.775-1.479-1.015c-0.129-0.46-0.477-0.701-0.725-1.043
	c-0.223-0.087-0.416-0.202-0.578-0.348c-0.07-0.012-0.064,0.053-0.146,0.028c-0.018-0.078-0.121-0.072-0.115-0.174
	c-0.055,0.013-0.053,0.084-0.145,0.059c-0.059-0.086-0.105-0.184-0.174-0.261c-0.094,0.05,0.074,0.075,0.029,0.174
	c-0.141-0.042-0.145-0.224-0.232-0.319c-0.045,0.013-0.025,0.092-0.115,0.059c-0.049-0.098-0.098-0.193-0.145-0.29
	c-0.07-0.012-0.064,0.054-0.147,0.029c-0.221-0.295-0.479-0.601-0.404-1.043c-0.006-0.054-0.1-0.019-0.117-0.058
	c0.096-0.354,0.082-0.646,0.262-0.898c-0.039-0.125-0.014-0.184,0-0.318c0.327-0.214,0.299-0.805,0.407-1.16
	c-0.057-0.091-0.082-0.203,0-0.289c0.008-0.066-0.084-0.032-0.088-0.087c0.034-0.198,0.159-0.305,0.204-0.493
	c-0.029-0.039-0.098-0.037-0.115-0.086c0.182-0.225-0.122-0.621,0.086-0.841c-0.172-0.138,0.043-0.418-0.115-0.579
	c0.096-0.588,0.221-0.923,0.23-1.478c0.025-1.252,0.135-2.249,0.377-3.158c0.023-0.089,0.057-0.192,0.088-0.29
	c0.166-0.529,0.619-0.883,0.607-1.594c-0.004-0.234-0.004-0.537-0.029-0.84c-0.135-0.126-0.109-0.41-0.23-0.551
	c-0.146,0,0.055,0.17-0.117,0.146c0.004-0.129-0.08-0.171-0.057-0.319c-0.23,0.142-0.102-0.495-0.291-0.579
	c-0.09,0.103,0.035,0.29-0.027,0.376c-0.137-0.153-0.172-0.408-0.262-0.607c-0.088,0.062,0.027,0.163,0,0.26
	c-0.24-0.174-0.176-0.654-0.377-0.869c-0.078-0.02-0.055,0.061-0.086,0.088c-0.09-0.045-0.141-0.131-0.145-0.262
	c-0.137-0.066-0.264-0.141-0.232-0.376c-0.07-0.012,0.016,0.132-0.088,0.087c0.027-0.133-0.072-0.141-0.057-0.261
	c-0.092,0.021-0.119-0.003-0.145,0.028c-0.072-0.043-0.133-0.099-0.146-0.202c-0.436-0.171-0.691-0.751-0.781-1.362
	c-0.07-0.012-0.062,0.053-0.145,0.029c0-0.077,0-0.154,0-0.231c-0.078-0.028-0.133-0.081-0.232-0.087c0-0.059,0-0.116,0-0.174
	c-0.146-0.096-0.285-0.029-0.406-0.203c-0.041,0.051-0.179,0.214-0.202,0.029c-0.079-0.021,0.021,0.137-0.059,0.115
	c-0.121,0.035-0.052-0.121-0.116-0.145c-0.033,0.062-0.06,0.133-0.086,0.203c-0.08-0.026,0.051-0.102-0.029-0.145
	c-0.265,0.816-0.493,1.67-0.84,2.404c-0.034,0.024-0.078,0.038-0.146,0.029c0.019,0.172-0.112,0.195-0.116,0.348
	c-0.057,0.048-0.036-0.003-0.115,0c-0.004,0.131-0.082,0.188-0.116,0.289c-0.039-0.009-0.024-0.072-0.028-0.115
	c-0.012,0.16,0.026,0.416-0.175,0.521c-0.017-0.113,0.025-0.168,0.059-0.232c-0.163,0.137-0.204,0.395-0.319,0.58
	c-0.033-0.005-0.023-0.053-0.028-0.088c-0.232,0.15-0.194,0.707-0.493,0.695c-0.151,0.235-0.304,0.591-0.521,0.667
	c-0.646,0.431-0.151,1.78,0.029,2.579c0.014,0.059-0.016,0.126,0,0.174c0.084,0.249,0.197,0.389,0.261,0.725
	c0.031,0.162,0.122,0.322,0.145,0.463c0.081,0.502-0.038,1.004,0,1.507c-0.008,0.076,0.113,0.022,0.087,0.116
	c-0.028,0-0.058,0-0.087,0c-0.026,0.35,0.059,0.5,0.029,0.811c-0.091,0.033-0.07-0.045-0.116-0.058
	c0.174,0.231,0.321,0.401,0.29,0.782c-0.061-0.018-0.094-0.061-0.145-0.087c-0.006,0.122,0.11,0.122,0.115,0.231
	c-0.028,0-0.058,0-0.087,0c0.068,0.164,0.297,0.168,0.29,0.406c-0.079,0.021-0.059-0.059-0.116-0.059
	c-0.037,0.164,0.115,0.137,0.116,0.261c-0.079,0.021-0.059-0.058-0.116-0.058c-0.049,0.047-0.035,0.157-0.087,0.203
	c0.023,0.102,0.177,0.074,0.175,0.202c-0.102,0.011-0.11-0.147-0.203-0.058c0.026,0.089,0.115,0.115,0.174,0.174
	c-0.043,0.068-0.155-0.036-0.174-0.087c-0.117,0.028-0.081,0.209-0.116,0.318c0.112,0.042,0.207,0.103,0.29,0.174
	c-0.088,0.076-0.19-0.079-0.261-0.116c-0.066,0.051-0.011,0.222-0.029,0.319c0.042,0.103,0.213,0.077,0.231,0.202
	c-0.062-0.062-0.157-0.093-0.231-0.145c0.021,0.201,0.245,0.199,0.319,0.348c-0.039,0.16,0.028,0.745,0.26,0.898
	c-0.007,0.051-0.05,0.066-0.115,0.059c0.03,0.441,0.413,0.589,0.463,0.984c0.03,0.238,0.061,0.457,0.059,0.754
	c-0.105,0.164-0.153,0.387-0.203,0.607c-0.135,0.127-0.234,0.287-0.318,0.464c-0.131-0.005-0.165,0.086-0.174,0.203
	c-0.176-0.011-0.123,0.205-0.261,0.231c-0.027,0.291-0.16,0.479-0.348,0.608c-0.274,0.722-0.354,1.636-0.898,2.087
	c-0.228,0.033-0.294-0.093-0.521-0.059c-0.158-0.25-0.194-0.574-0.116-1.014c0.052-0.287,0.307-0.566,0.261-0.754
	c-0.084-0.345-0.586-0.09-0.724,0.116c-0.05,0.001-0.075-0.021-0.087-0.058c-0.433,0.272-0.63,0.779-1.188,0.927
	c-0.295,0.353-0.622,0.671-1.217,0.724c-0.438,0.369-0.94,1.088-1.709,0.841c0.004-0.063,0.072-0.062,0.145-0.058
	c-0.003-0.074-0.113-0.042-0.115-0.116c-0.109,0.022-0.002,0.102-0.059,0.146c-0.099-0.021-0.065-0.283-0.029-0.348
	c-0.258-0.095-0.386,0.171-0.579,0.202c-0.554,0.089-0.867-0.474-0.492-0.869c-0.153-0.058-0.34-0.075-0.319-0.231
	c-0.094-0.036-0.021,0.094-0.115,0.058c-0.285-0.384,0.172-0.693,0.318-0.927c-0.021-0.076-0.132-0.062-0.145-0.146
	c0.026-0.305,0.293-0.501,0.521-0.666c1.032-0.745,2.4-1.03,3.65-1.564c0.074-0.007-0.04-0.05,0-0.116
	c0.151-0.051,0.286-0.119,0.405-0.203c0.125,0.041-0.029,0.142-0.116,0.146c0.098,0.085,0.217-0.053,0.29-0.087
	c-0.094-0.356,0.461-0.483,0.58-0.812c-0.013-0.056-0.112-0.022-0.087-0.116c0.059-0.047,0.072-0.139,0.115-0.203
	c-0.135-0.388-0.398-0.662-0.348-1.158c-0.252-0.08-0.221-0.291-0.231-0.58c-0.015-0.033-0.151,0.035-0.116-0.115
	c-0.099-0.021-0.037,0.117-0.145,0.087c-0.026-0.151,0.009-0.407-0.174-0.377c-0.032-0.128-0.102-0.292-0.174-0.405
	c-0.023-0.036-0.09-0.027-0.116-0.059c-0.065-0.079-0.036-0.23-0.087-0.318c-0.067-0.117-0.191-0.182-0.289-0.261
	c0-0.058,0.078-0.036,0.058-0.116c-0.298-0.268-0.264-0.948-0.638-1.217c0.021-0.089,0.021-0.055,0-0.145
	c-0.534-0.537-0.571-1.572-1.072-2.145c-0.011-0.111-0.046-0.201-0.145-0.289c-0.033-0.324-0.25-0.465-0.231-0.84
	c-0.311-0.607-0.321-1.282-0.348-2c-0.365-0.688,0.012-1.398,0.116-2.086c0.404-0.541,0.29-1.263,0.55-1.912
	c-0.028,0.001-0.022,0.035-0.029,0.059c0.159-1.001,0.596-1.975,0.841-2.984c0.092-0.152,0.256-0.364,0.145-0.551
	c0.214-0.201,0.181-0.65,0.406-0.84c0-0.068-0.051-0.086-0.029-0.174c0.371-0.305,0.322-1.029,0.608-1.42
	c0.035-0.24,0.088-0.471,0.145-0.695c0.222-0.871,0.886-1.542,1.043-2.521c0.008-0.095-0.112-0.062-0.115-0.145
	c0.068-0.5-0.246-0.991-0.116-1.507c0.005-0.072-0.065-0.07-0.087-0.116c-0.041-0.496,0.08-0.991,0.145-1.448
	c0.051-0.359-0.018-0.681,0.029-1.015c0.088-0.624-0.353-1.357-0.608-1.883c-0.092-0.188-0.18-0.28-0.261-0.492
	c-0.334,0.062-0.429,0.362-0.521,0.666c-0.059,0.01-0.091-0.006-0.087-0.058c-0.115,0.329-0.451,0.438-0.464,0.869
	c-0.171,0.031-0.166,0.239-0.202,0.405c-0.163,0.026-0.198,0.262-0.232,0.492c-0.198,0.029-0.341,0.408-0.318,0.667
	c-0.106,0.026-0.053-0.153-0.029-0.174c-0.126,0.048-0.089,0.259-0.174,0.348c-0.087,0.029-0.051-0.064-0.058-0.116
	c-0.15,0.078-0.049,0.23-0.087,0.406c-0.282-0.021-0.202,0.319-0.319,0.463c-0.186,0.008-0.282,0.104-0.289,0.29
	c-0.052-0.007-0.066-0.05-0.059-0.116c-0.232,0.204-0.262,0.603-0.318,1.043c-0.057-0.288-0.156,0.447-0.203,0.667
	c-0.031,0.148-0.118,0.324-0.087,0.405c-0.034,0.033-0.102,0.033-0.174,0.029c-0.064,0.116,0.069,0.146,0.059,0.289
	c-0.029,0-0.059,0-0.087,0c-0.039,0.331,0.092,0.534-0.087,0.753c0.126,0.063,0.014,0.035,0.058,0.203
	c-0.059,0.01-0.091-0.006-0.087-0.058c-0.081,0.039-0.017,0.185-0.174,0.202c-0.008,0.066,0.007,0.109,0.058,0.116
	c-0.022,0.064-0.101,0.073-0.145,0.116c-0.008,0.338,0.035,0.631-0.174,0.869c-0.009,0.301,0.046,0.664-0.174,0.754
	c-0.018,0.159-0.14,0.421-0.058,0.607c-0.061,0.063-0.094-0.025-0.146,0.029c-0.008,0.271,0.061,0.459-0.115,0.58
	c0.001-0.096,0.049-0.145,0.028-0.262c-0.11,0.156-0.125,0.277-0.145,0.521c-0.031,0.379-0.143,0.61-0.261,0.985
	c-0.273,0.872-0.483,2.003-0.869,3.042c-0.305,0.818-0.457,1.506-0.579,2.348c-0.056,0.378-0.203,0.733-0.232,1.101
	c-0.012,0.146,0.026,0.29,0,0.435c-0.14,0.764-0.006,1.855,0.174,2.578c-0.119,0.199,0.041,0.602,0.145,0.695
	c-0.041,0.064-0.07-0.036-0.086,0.029c0.045,0.269,0.274,0.516,0.405,0.725c0.096,0.153,0.037,0.205,0,0.377
	c-0.079,0.021-0.059-0.059-0.116-0.059c0.026,0.133-0.048,0.164-0.058,0.261c0.091,0.005,0.1-0.074,0.116-0.146
	c-0.125,0.407-0.209,1.105-0.551,1.392c0.034,0.052,0.15,0.022,0.203,0.058c0.268,0.312,0.299,0.801,0.202,1.217
	c-0.146,0.634-0.413,1.459-0.812,1.738c-0.147,0.469-0.861,0.645-1.188,0.318c-0.105,0.021-0.141,0.11-0.231,0.146
	c-0.274,0.048-0.382-0.204-0.608-0.348c-0.098-0.062-0.219-0.062-0.29-0.116c-0.226-0.171-0.337-0.463-0.405-0.695
	c-0.36-0.24-0.306-0.679-0.377-1.072c-0.237-1.303-0.429-2.849-0.377-4.316c0.01-0.282-0.036-0.631,0.146-0.869
	c-0.037-0.24-0.057-0.565,0.087-0.754c0.012-0.069-0.054-0.062-0.029-0.145c0.055-0.032,0.062-0.111,0.116-0.145
	c-0.063-0.19,0.065-0.332,0.145-0.464c-0.017-0.065-0.045,0.035-0.087-0.028c0.169-0.389,0.193-0.73,0.29-1.188
	c-0.005-0.054-0.099-0.018-0.116-0.058c0.283-0.467,0.076-1.609,0.318-2c0.014-0.09-0.078-0.076-0.087-0.145
	c0.146-0.111,0.09-0.477,0.029-0.637c0.028,0,0.022,0.035,0.029,0.058c0.055-0.326,0.075-0.743,0.115-1.13
	c0.041-0.395,0.131-0.779-0.028-1.014c0.183-0.149,0.042-0.465,0.145-0.638c-0.153-0.171-0.11-0.567-0.029-0.812
	c-0.152-0.028-0.076-0.266,0.029-0.289c-0.012-0.057-0.112-0.023-0.087-0.117c0.111-0.188,0.009-0.428,0.145-0.607
	c-0.017-0.061-0.044-0.109-0.145-0.088c0.036-0.137,0.095-0.252,0.203-0.318c0.019-0.105-0.139-0.035-0.146-0.115
	c-0.066-0.075,0.06-0.135,0.087-0.203c-0.007-0.031-0.058-0.02-0.058-0.059c-0.008-0.176,0.174-0.32,0.029-0.404
	c0.116-0.342,0.183-0.936,0.145-1.334c0.164-0.387,0.133-0.836,0.318-1.158c-0.025-0.086-0.043,0.066-0.115,0.029
	c0.048-0.175,0.159-0.285,0.203-0.464c-0.008-0.036-0.059-0.029-0.059,0c0.093-0.456,0.225-0.969,0.464-1.159
	c-0.138,0.013,0.167-0.214,0.028-0.376c0.077-0.144,0.072-0.267,0.174-0.261c-0.07-0.04-0.018-0.059-0.058-0.087
	c0.385-0.709,1.101-1.135,1.274-1.971c-0.014-0.082-0.09-0.103-0.174-0.116c0.107-0.211,0.223-0.414,0.29-0.666
	c-0.094-0.025-0.04,0.095-0.087,0.116c-0.06-0.315,0.288-0.693,0.29-1.13c0.001-0.161,0.01-0.335,0.145-0.464
	c0.118-1.101,0.311-2.254,0.812-3.101c0.023-0.081-0.041-0.074-0.029-0.145c0.11-0.122,0.189-0.273,0.261-0.435
	c-0.007-0.036-0.058-0.029-0.058,0c-0.077-0.106,0.124-0.171,0.029-0.318c0.645-1.104,1.424-2.072,2.057-3.188
	c0.059-0.414,0.313-0.633,0.435-0.984c-0.133-0.176-0.005-0.4,0.058-0.551c-0.111,0.062-0.069,0.277-0.231,0.29
	c0.232-0.622,0.255-1.243,0.667-1.71c0.035-0.094-0.095-0.022-0.059-0.116c0.264-0.441,0.672-0.738,0.812-1.304
	c0.188-0.159,0.386-0.309,0.608-0.435c0.005-0.082-0.189,0.035-0.145-0.087c0.31-0.114,0.547-0.302,0.869-0.405
	c-0.014-0.025-0.026-0.052-0.059-0.058c0.406-0.097,0.588-0.417,1.072-0.435c-0.07-0.117,0.029-0.139,0.145-0.146
	c-0.004-0.102-0.177-0.035-0.174-0.145c0.163,0.055,0.346,0.013,0.435-0.087c-0.113-0.12,0.132-0.239,0.029-0.435
	c0.207,0.049,0.183-0.106,0.202-0.174c0.09-0.021,0.057-0.021,0.146,0c0.05-0.095,0.005-0.285,0.145-0.29
	c0-0.058-0.079-0.036-0.058-0.115c0.047-0.009,0.05,0.027,0.087,0.028c0.031-0.108-0.072-0.082-0.058-0.174
	c0.092-0.017,0.089,0.055,0.145,0c0.037-0.071-0.085-0.12,0-0.145c-0.111-0.141-0.32-0.183-0.435-0.318
	c0.117-0.049,0.328,0.058,0.464,0.087c-0.07-0.259-0.375-0.283-0.464-0.522c0.116-0.207-0.257-0.417-0.231-0.724
	c0.067,0.009,0.064,0.09,0.115,0.116c-0.03-0.153-0.143-0.225-0.145-0.406c0.047-0.008,0.05,0.027,0.087,0.029
	c0.044-0.297-0.263-0.386-0.261-0.725c0.067,0.009,0.119,0.057,0.174,0c-0.05-0.114-0.113-0.216-0.174-0.318
	c0.021-0.056,0.136,0.035,0.174,0.058C92.498,130.314,92.517,130.179,92.365,130.045z M105.636,173.186
	c-0.018,0.085-0.119,0.277,0,0.318C105.597,173.364,105.755,173.228,105.636,173.186z M87.758,181.065
	c0.078-0.002,0.14-0.065,0.087-0.115C87.769,180.941,87.75,180.99,87.758,181.065z M108.618,140.243
	c-0.041-0.055-0.041-0.15-0.115-0.174C108.489,140.163,108.606,140.273,108.618,140.243z M108.765,141.373
	c-0.021-0.021-0.043-0.107-0.088-0.058C108.858,141.55,108.964,141.572,108.765,141.373z M110.53,144.184
	c-0.174-0.191-0.301-0.432-0.463-0.638C110.171,143.791,110.347,144.117,110.53,144.184z M111.11,145.053
	c-0.051-0.075-0.041-0.21-0.145-0.231C110.987,144.925,111.04,144.997,111.11,145.053z M111.372,146.415
	c-0.023-0.113-0.082-0.189-0.146-0.261C111.2,146.315,111.294,146.356,111.372,146.415z M106.099,159.018
	c-0.094-0.081-0.119-0.228-0.232-0.29C105.901,158.849,106.024,159.032,106.099,159.018z M114.849,160.872
	c-0.016-0.236-0.113-0.389-0.174-0.58C114.696,160.522,114.745,160.724,114.849,160.872z M118.007,169.071
	c-0.102-0.006-0.238-0.129-0.291-0.087C117.751,169.049,118.118,169.137,118.007,169.071z M106.88,170.896
	c0.09,0.044,0.09-0.188,0-0.146C106.88,170.8,106.88,170.849,106.88,170.896z M84.079,171.853c0.31-0.182,0.483-0.501,0.463-1.014
	C84.135,170.946,84.101,171.437,84.079,171.853z M117.341,172.577c-0.02-0.088-0.047-0.168-0.146-0.174
	C117.224,172.479,117.243,172.567,117.341,172.577z M113.399,173.33c0.004-0.065,0.174-0.112,0.088-0.174
	C113.483,173.222,113.312,173.269,113.399,173.33z M81.79,173.938c-0.032-0.113-0.015-0.275-0.087-0.348
	C81.702,173.737,81.717,173.866,81.79,173.938z M112.327,173.881c-0.047-0.052-0.051-0.296-0.086-0.261
	C112.247,173.729,112.212,173.882,112.327,173.881z M85.063,174.431c0.03-0.201,0.311-0.43,0.203-0.579
	C85.23,174.058,85.037,174.259,85.063,174.431z M82.485,175.069c-0.086-0.041-0.117-0.135-0.203-0.175
	C82.272,175.012,82.437,175.106,82.485,175.069z M84.137,175.503c0.168-0.025,0.303-0.083,0.376-0.203
	C84.413,175.278,84.243,175.435,84.137,175.503z M83.151,175.445c-0.116-0.001-0.195-0.189-0.289-0.116
	C82.93,175.378,83.068,175.508,83.151,175.445z M116.122,176.488c0.113,0.058,0.18-0.153,0.059-0.146
	C116.185,176.415,116.136,176.433,116.122,176.488z M91.38,178.748c-0.01,0.072,0.23-0.067,0.348-0.058
	c0.01-0.071,0.326-0.155,0.174-0.116C91.703,178.608,91.548,178.685,91.38,178.748z M88.569,179.937
	c0.081-0.074,0.202-0.107,0.29-0.174C88.736,179.776,88.538,179.864,88.569,179.937z M109.663,180.168
	c-0.24-0.09-0.531-0.282-0.754-0.29C109.138,179.979,109.421,180.177,109.663,180.168z M103.259,180.603
	c-0.043-0.111-0.18-0.283-0.26-0.261C103.122,180.392,103.161,180.526,103.259,180.603z M107.634,181.935
	c-0.105-0.164-0.342-0.199-0.492-0.318C107.251,181.776,107.431,181.868,107.634,181.935z"/>
</svg>
