<?xml version="1.0" encoding="utf-8"?>
<!-- Generator: Adobe Illustrator 15.0.0, SVG Export Plug-In . SVG Version: 6.00 Build 0)  -->
<svg version="1.2" baseProfile="tiny" id="Layer_1" xmlns="http://www.w3.org/2000/svg" xmlns:xlink="http://www.w3.org/1999/xlink"
	 x="0px" y="0px" width="200px" height="200px" viewBox="0 0 200 200" overflow="inherit" xml:space="preserve">
<g id="g3335" transform="matrix(7.9036172,0,0,-7.9036172,5.8012034,1018.4522)">
	<g id="g3337">
		<g id="g3339" transform="matrix(1,0,0,-1,0,128.125)">
			<path id="path3341" fill="#010101" stroke="#010101" stroke-width="0.3563" d="M8.39,2.256L8.39,2.256h0.005l0.061,0.213
				l0.218,0.01l0.337-0.074L8.99,2.443l0.014,0.03L8.99,2.583L8.978,2.736l0.02,0.084l0.02,0.064l0.004,0.128l0.02,0.084
				L9.016,3.357L9.014,3.534L8.989,3.76l0.007,0.136L8.99,4.102L9.008,4.28L9.004,4.534l0.002,0.202l0.036,0.16l0.055,0.058
				L9.076,5.048l0.035,0.076l0.009,0.08l0.021,0.045l0.002,0.082l0.05,0.107L9.2,5.65l0.005,0.053l0.099,0.213l0.101,0.018
				l0.053-0.025h0.084l0.197,0.084l0.025,0.054l0.064,0.035l0.048,0.005l0.103-0.038l0.038,0.103l0.104,0.082l0.028,0.023
				l0.124,0.007l0.056,0.058l0.102-0.02l0.151,0.144l0.062,0.035l-0.002,0.094l0.028,0.024l0.099-0.046l0.068-0.013l0.064,0.137
				l0.044,0.017l0.113,0.04l0.057,0.123l-0.026,0.224l0.056,0.122l-0.043,0.068l0.046,0.099L11.13,7.452l0.025,0.053l0.026,0.036
				l0.04,0.064l0.014-0.007l0.02,0.121l0.061-0.009l-0.011,0.096l0.001,0.102l0.157,0.337l0.079,0.091l0.067,0.082l0.025,0.136
				L11.655,8.6l0.028-0.022l-0.008-0.154l0.192,0.412l0.043-0.029l0.007,0.154l0.064,0.137l0.071,0.116l0.083,0.157l0.072,0.077
				l0.078,0.029l0.024,0.052l0.003,0.064l0.073,0.079l0.092,0.059l0.053,0.031l0.202,0.017L12.9,9.841l0.122,0.064l0.102-0.001
				l0.127,0.033l0.098-0.008l0.159-0.018l0.112,0.04l0.063,0.036l0.097,0.029l0.174,0.077l0.088-0.012l0.093,0.022l0.053-0.025
				l0.056-0.119l-0.046-0.08l-0.05-0.069l-0.06-0.066L14.05,9.679L13.942,9.57l-0.134-0.03l-0.066-0.062l-0.05-0.107l-0.107-0.033
				l-0.11,0.005l-0.087,0.012l-0.096,0.073L13.219,9.47l-0.1,0.045L13.01,9.483L13.005,9.43l0.036-0.063l0.013-0.071l0.025-0.086
				l0.029-0.134l0.051-0.052l0.092-0.043l0.032-0.051l0.074-0.063l0.066-0.076l0.018-0.101l-0.002-0.084l0.051-0.051l0.052-0.108
				l-0.021-0.065l0.03-0.097l0.039-0.056l0.017-0.063v-0.12l-0.037-0.14l0.013-0.071l0.073,0.058l0.055,0.04l0.101,0.037l0.07,0.052
				l0.093,0.039l0.086,0.044l0.074,0.04l0.036,0.056l0.09,0.032l0.08,0.074l0.022-0.01l0.046,0.017l0.073-0.062l0.073-0.043
				l0.135-0.108l0.023-0.011l0.04-0.074L14.75,7.971l0.028-0.042l0.028-0.059l0.019-0.037l0.053,0.013l0.057-0.017l0.072-0.024
				l0.008-0.004l0.047-0.04l0.03-0.014l0.027-0.041l0.028-0.059l-0.011-0.023L15.088,7.6l-0.052-0.013l-0.025-0.054l0.005-0.048
				l0.035-0.045l0.069-0.032l0.079,0.01l0.06-0.028l0.088-0.012l0.068-0.032l0.029-0.041l-0.014-0.05l0.009-0.06l-0.055-0.039
				L15.37,7.125l-0.03-0.022l-0.034-0.032l-0.059-0.028l-0.123-0.025l-0.133,0.014l-0.102,0.02l-0.076,0.035l-0.092,0.061
				l-0.047,0.059L14.63,7.274l-0.042,0.048l-0.021,0.092L14.39,7.496l-0.092-0.021l-0.091,0.024l0.027-0.022l-0.01-0.041
				l-0.041-0.029l-0.024-0.052l0.019-0.038L14.12,7.233l-0.073-0.06l-0.041-0.026l-0.055-0.04l-0.082-0.036l-0.026-0.035
				l-0.018-0.019l-0.068-0.035l-0.063-0.017l0.027-0.022l-0.018-0.038l-0.154-0.032l-0.123-0.025l-0.074-0.04L13.27,6.809
				l-0.098-0.01l-0.1,0.064l-0.037-0.121l0.068,0.005L13.06,6.674l0.019-0.017l0.045-0.086l0.005-0.031l-0.004-0.026l0.018-0.064
				l0.053-0.007l0.022-0.011l0.087,0.006l0.038-0.018l-0.018-0.038l-0.009-0.06L13.343,6.3l0.042,0.028l0.068-0.031l0.053,0.012
				l0.06-0.028l0.052,0.051l0.023-0.01l0.027-0.041l0.055-0.043l0.068-0.014l0.031-0.032l0.083,0.018l0.053-0.025l0.13,0.041
				l0.046-0.021l0.03,0.023l0.045-0.002l0.027-0.003l-0.033-0.106l0.071,0.032l0.079,0.01l0.002-0.038l0.052,0.033l0.053-0.025
				l0.071,0.032l0.065-0.021L14.55,6.041l-0.039,0.018L14.479,5.99l-0.062-0.055l-0.024-0.008l0.032-0.015l0.054,0.078l0.025,0.034
				l0.031,0.005l-0.102-0.24l-0.017-0.058l0.029,0.004l0.099,0.215h0.019l-0.037-0.139l-0.002-0.065l-0.01-0.06L14.498,5.59
				l0.038-0.017l-0.015-0.151l-0.035-0.196l-0.024-0.092L14.445,5.04l0.046,0.099l0.019,0.02V5.038V4.899l-0.021-0.167l0.002-0.094
				l0.021-0.074l-0.014-0.05l-0.019-0.14l-0.012-0.087l0.005-0.049l0.015-0.09L14.483,4.02l-0.042-0.091L14.418,3.66l-0.009-0.237
				l-0.015-0.114L14.37,3.257l0.005-0.068l0.053,0.077L14.389,3.08l-0.093-0.3l-0.05-0.107l-0.071-0.134l0.03-0.014l0.087,0.007
				l0.08-0.009l0.088,0.033l0.079,0.009l0.101,0.036l0.124,0.027l0.107,0.052l0.061,0.008l0.035-0.044l-0.135-0.29l-0.195-0.057
				l-0.032-0.069l-0.049-0.006l-0.164-0.016l-0.098-0.029l-0.029-0.042l-0.046-0.08l-0.055-0.04l-0.048-0.023l-0.042-0.01
				l-0.153-0.011h-0.103l-0.11,0.061l-0.033,0.09l-0.084,0.019l-0.236-0.028l-0.172,0.031l-0.134-0.03l-0.208,0.032L12.78,2.155
				L12.537,2.13l-0.11,0.004L12.3,2.12l-0.123-0.027L12.068,2.06l-0.083,0.021l-0.106-0.026L11.79,1.966L11.76,1.84l-0.23-0.096
				l-0.027,0.003l-0.1-0.037l-0.046,0.021L11.4,1.823L11.574,1.9l0.02,0.121l0.021,0.065l-0.4,0.037l-0.044-0.017l-0.144,0.011
				L10.875,2.15l-0.189,0.014l-0.239-0.056l-0.304-0.016L10,2.084L9.95,1.977L9.718,1.955L9.501,1.909L9.304,1.944l-0.103,0.14
				L9.115,1.957L9.034,2.021L9.006,2.163L8.927,2.192L8.691,2.264L8.39,2.256L8.39,2.256z M9.582,2.323L9.582,2.323l0.169,0.062
				l0.125-0.048l0.142,0.045l0.249-0.023l0.117-0.026L10.62,2.4l0.223,0.024l0.216-0.054l0.442-0.01l0.346-0.013l0.122-0.038
				l0.1,0.055l0.292,0.069l0.207,0.025l0.162-0.01l0.395-0.007l0.207,0.025l0.332-0.024l0.24,0.715l-0.051,0.228l0.05,0.227
				l-0.075-0.021l0.002,0.166l0.034,0.254l-0.03,0.014l0.068,0.265l-0.063-0.054l0.004,0.128l0.027,0.137l-0.06-0.059l-0.007,0.264
				l-0.028,0.179l-0.088,0.152l-0.099,0.046L13.6,5.188l-0.129,0.144l0.038-0.157L13.36,5.273l-0.031-0.024l-0.122,0.057
				l-0.153-0.049l-0.031-0.106L12.98,5.06l-0.025-0.034l0.009-0.041l-0.078-0.028l0.037-0.101l-0.061-0.008l-0.031-0.05
				l-0.039-0.001l-0.033-0.05l-0.051-0.051l-0.045-0.035l-0.07-0.051l-0.041,0.01l-0.037-0.038l-0.046,0.021l-0.011,0.014
				L12.422,4.54l-0.073,0.024l-0.022-0.026l-0.03,0.033l-0.038-0.02L12.217,4.58l-0.038,0.018l-0.044-0.016l0.002,0.027L12.091,4.63
				l-0.052-0.012L12.031,4.64l-0.072,0.005L11.89,4.677l-0.059-0.009l-0.039,0.036L11.777,4.73l-0.046,0.02l-0.049-0.023
				L11.67,4.779l-0.067-0.025l-0.088,0.051l-0.008,0.022L11.48,4.849l-0.023,0.029l-0.043,0.049l-0.031,0.014l0.01,0.041
				l-0.012,0.033l-0.042-0.008l0.014,0.03L11.28,5.1v0.037l-0.051,0.052l0.006,0.053l-0.058,0.073L11.169,5.42l-0.071,0.005
				l-0.119-0.094l-0.03,0.014l-0.082-0.036l-0.116,0.008l-0.065,0.021l-0.063-0.017L10.46,5.23l-0.169-0.023l-0.138-0.075
				L10.11,5.077l-0.081-0.175l-0.04,0.074L9.968,4.93L9.883,4.849L9.857,4.833l0.049-0.014L9.797,4.703l0.008-0.18L9.769,4.345
				L9.686,4.067L9.663,3.856L9.6,3.523L9.574,3.545L9.55,3.175L9.517,3.182L9.495,3.014l-0.04,0.055l0.03-0.236L9.506,2.6
				L9.582,2.323L9.582,2.323z"/>
		</g>
	</g>
</g>
</svg>
