<?xml version="1.0" encoding="utf-8"?>
<!-- Generator: Adobe Illustrator 15.0.0, SVG Export Plug-In . SVG Version: 6.00 Build 0)  -->
<svg version="1.2" baseProfile="tiny" id="Layer_1" xmlns="http://www.w3.org/2000/svg" xmlns:xlink="http://www.w3.org/1999/xlink"
	 x="0px" y="0px" width="200px" height="200px" viewBox="0 0 200 200" overflow="inherit" xml:space="preserve">
<g>
	<path fill-rule="evenodd" d="M104.176,40.342c-0.08,0.071-0.589,0.218-1.522,0.441c0.985-0.009,2.228,0.098,3.731,0.32
		c0.031,0.041,0.056,0.101,0.076,0.183c1.005,0.05,1.902,0.32,2.694,0.807c-0.01,0.031,0.015,0.083,0.076,0.153
		c-0.427-0.031-1.021,0-1.78,0.091c0.213,0.071,0.481,0.183,0.806,0.335c0.791,0.011,1.7,0.096,2.727,0.258
		c0.021,0.062,0.056,0.138,0.104,0.229c-0.293,0.264-0.545,0.508-0.759,0.732c0.343-0.164,0.547-0.229,0.608-0.2
		c0.102,0.02,0.223,0.055,0.366,0.107c0.222,0.093,0.36,0.177,0.41,0.259c-0.345,0.122-0.675,0.259-0.989,0.411
		c0.039,0.04,0.075,0.082,0.106,0.122c0.588-0.131,0.93-0.208,1.021-0.228c0.121,0.02,0.243,0.055,0.365,0.106
		c0.232,0.071,0.366,0.142,0.396,0.213c-0.213,0.091-0.629,0.22-1.248,0.382c0.081,0.091,0.177,0.182,0.29,0.272
		c0.568-0.313,1.054-0.329,1.462-0.044c0.121,0.081,0.262,0.223,0.425,0.426c0.225,0,0.445,0.101,0.67,0.305
		c0.468,0.436,0.712,1.193,0.73,2.269c-0.01,1.168-0.352,2.595-1.021,4.28c-0.688,1.674-0.35,3.33,1.021,4.964
		c-0.03,0.06-0.04,0.158-0.03,0.289c-0.041,0.092-0.023,0.225,0.046,0.397c-0.017,0.526-0.022,1.065-0.021,1.613
		c0.1,0.593,0.157,0.994,0.174,1.204c-0.004,0.185-0.05,0.397-0.139,0.639c0.012,0.246,0.021,0.495,0.031,0.746
		c0.286,0.803,0.426,2.026,0.426,3.67c-0.018,0.275-0.159,0.752-0.426,1.432c-0.07,0.192-0.141,0.527-0.213,1.005
		c-0.7,0.538-1.277,1.112-1.734,1.721c-0.873,1.055-0.973,2.782-0.305,5.177c0.244,0.233,0.522,0.508,0.838,0.822
		c0.984,1.016,1.482,1.788,1.491,2.315c-0.019,0.294-0.065,0.422-0.138,0.381c-0.049-0.082-0.099-0.149-0.152-0.199
		c-0.062-0.214-0.141-0.391-0.243-0.533c-0.214-0.253-0.507-0.385-0.883-0.396c0.072,0.285,0.382,0.747,0.927,1.386
		c0.48,0.58,0.729,0.995,0.749,1.249c-0.021,0.304-0.168,0.462-0.442,0.473c-0.163-0.041-0.309-0.082-0.442-0.122
		c0.194,0.294,0.423,0.726,0.686,1.294c-0.232-0.091-0.673-0.325-1.324-0.701c0.162,0.406,0.361,0.847,0.593,1.325
		c0.356,0.386,0.609,0.685,0.763,0.898c-0.092,0.03-0.208,0.037-0.351,0.014c0.081,0.205,0.179,0.408,0.289,0.61
		c0.997,2.264,1.543,4.223,1.645,5.878c0.053,1.401,0.266,3.589,0.639,6.563c0.134,1.076,0.261,1.985,0.382,2.725
		c0.429,0.762,0.645,1.397,0.655,1.904c0,0.152-0.043,0.487-0.137,1.007c-0.122,0.445-0.167,0.888-0.136,1.323
		c0,0.407,0.197,1.517,0.593,3.336c0.162,0.914,0.346,1.822,0.549,2.726c0,0.294-0.047,0.422-0.138,0.38
		c-0.041-0.071-0.089-0.141-0.137-0.214c-0.134-0.07-0.289-0.329-0.473-0.776c-0.182-0.446-0.289-0.688-0.321-0.73
		c0.173,0.721,0.565,2.173,1.174,4.356c-0.052,0.061-0.103,0.136-0.152,0.229c-0.528-0.143-1.017-0.556-1.462-1.234
		c-0.325-0.487-0.609-1.061-0.854-1.722c-0.02,0.144-0.045,0.285-0.074,0.427c0.02,0.284,0.02,0.589,0,0.913
		c0.05,0.236,0.176,0.732,0.38,1.495c0.163,0.718,0.324,1.318,0.488,1.795c0,0.538,0,1.095,0,1.675
		c-0.072,0.061-0.143,0.117-0.213,0.168c-0.284-0.223-0.513-0.549-0.688-0.975c-0.304-0.721-0.465-1.096-0.487-1.127
		c-0.039,0-0.065,0-0.075,0c0.242,0.895,0.548,1.948,0.913,3.168c-0.061,0.062-0.106,0.142-0.136,0.243
		c-0.407-0.182-0.753-0.63-1.036-1.34c-0.132-0.354-0.244-0.67-0.337-0.944c-0.05,0.133-0.102,0.285-0.15,0.456
		c0.091,0.458,0.219,1.015,0.38,1.677c0.284,1.39,0.421,2.355,0.411,2.892c-0.021,0.386-0.041,0.59-0.061,0.609
		c-0.136-0.01-0.309-0.018-0.518-0.029c0.242,0.022,0.354,0.344,0.335,0.959c-0.083,0.954-0.105,1.462-0.076,1.523
		c-0.101,0.183-0.31,0.264-0.625,0.244c-0.335-1.28-0.572-2.212-0.716-2.804c-0.02,0.203-0.08,0.509-0.182,0.915
		c-0.142,0.415-0.203,0.771-0.184,1.064c-0.02,0.234,0.121,0.89,0.426,1.965c0.266,1.056,0.4,1.618,0.413,1.69
		c-0.021,0.347-0.062,0.503-0.124,0.472c-0.031-0.062-0.061-0.123-0.091-0.183c-0.567-0.201-0.999-0.689-1.294-1.461
		c-0.254-0.904-0.432-1.486-0.532-1.752c-0.041,0-0.065,0-0.077,0c0.215,1.615,0.529,3.797,0.944,6.549
		c-0.071,0.041-0.142,0.096-0.213,0.168c-0.376-0.193-0.63-0.609-0.761-1.249c-0.203-0.854-0.371-1.38-0.502-1.584
		c-0.042-0.05-0.062-0.106-0.062-0.168c-0.011,0.569,0.162,1.401,0.519,2.497c0.183,0.61,0.502,1.542,0.957,2.801
		c-0.08,0.062-0.146,0.123-0.197,0.185c-0.385-0.345-0.668-0.857-0.853-1.537c-0.233-0.722-0.392-1.104-0.473-1.142
		c0.062,0.344,0.264,1.053,0.61,2.13c0.344,1.118,0.542,1.827,0.593,2.133c-0.08,0.082-0.147,0.143-0.196,0.182
		c-0.327-0.273-0.555-0.647-0.686-1.126c-0.204-0.659-0.347-1.061-0.427-1.203c-0.021,0.285,0.095,0.913,0.35,1.887
		c0.214,0.915,0.325,1.458,0.336,1.632c-0.043,0.364-0.087,0.588-0.138,0.67c-0.112,0.101-0.162,0.156-0.151,0.168
		c-0.112,0.03-0.205,0.062-0.275,0.091c-0.06-0.376-0.302-0.914-0.729-1.614c-0.022,0-0.043-0.007-0.062-0.016
		c0.132,0.588,0.441,1.701,0.93,3.334c0.404,1.564,0.686,2.696,0.837,3.396c-0.051,0.071-0.103,0.158-0.151,0.261
		c-0.793-0.803-1.569-2.214-2.332-4.234c0.082,1.594,0.158,3.752,0.229,6.472c-0.081,0.02-0.162,0.042-0.245,0.06
		c-0.1-0.679-0.283-1.785-0.547-3.319c-0.334-1.593-0.534-2.644-0.595-3.151c-0.02,0.051-0.041,0.122-0.06,0.213
		c0.13,1.808,0.183,3.208,0.15,4.203c-0.03,0.701-0.101,1.931-0.213,3.686c-0.152,1.767-0.229,3.065-0.229,3.899
		c-0.018,0.334-0.105,0.467-0.259,0.394c-0.17-0.109-0.268-0.16-0.288-0.151c0.377,1.655,0.563,2.656,0.563,3.001
		c-0.031,0.192-0.101,0.664-0.214,1.416c-0.019,0.314,0.057,0.629,0.229,0.944c0.194,0.376,0.301,0.604,0.32,0.685
		c-0.06,0.183-0.086,0.347-0.076,0.487c-0.213-0.345-0.507-1.142-0.884-2.391c-0.193-0.618-0.385-1.142-0.578-1.567
		c0.011,0.445,0.043,0.913,0.091,1.401c0.326,1.004,0.584,1.861,0.776,2.571c0.235,0.682,0.509,1.503,0.823,2.468
		c-0.041,0.029-0.087,0.083-0.137,0.152c-0.061-0.061-0.107-0.161-0.138-0.304c-0.051-0.113-0.079-0.188-0.092-0.229
		c-0.019,0.021-0.019,0.055,0,0.106c-0.029,0.265-0.084,0.405-0.168,0.426c0,0.01,0,0.021,0,0.032
		c-0.079,0.242-0.16,0.426-0.242,0.547c0.265,1.128,0.649,2.538,1.156,4.233c0.449,1.562,0.667,2.477,0.655,2.742
		c-0.009,0.261-0.065,0.421-0.167,0.472c-0.132-0.061-0.243-0.082-0.335-0.061c0.326,0.436,0.604,1.109,0.839,2.023
		c0.303,1.259,0.501,2.01,0.594,2.254c-0.062,0.052-0.209,0.101-0.442,0.154c0.314,0.283,0.704,0.602,1.173,0.959
		c1.116,0.822,2.249,1.44,3.396,1.856c1.227,0.438,2.165,0.89,2.817,1.355c0.131-0.11,0.305-0.223,0.518-0.336
		c0.893-0.597,1.618-0.734,2.177-0.411c-0.05,0.021-0.081,0.037-0.092,0.047c-0.092-0.062-0.223-0.087-0.396-0.076
		c-0.354-0.03-0.999,0.285-1.934,0.945c-0.011,0.009-0.021,0.015-0.03,0.015c0.08,0.069,0.156,0.136,0.228,0.197
		c1.625-0.619,3.024-0.959,4.203-1.021c0.74-0.558,1.177-0.878,1.31-0.96c-0.133,0.227-0.431,0.529-0.897,0.913
		c1.053-0.018,1.922,0.199,2.604,0.656c0.812-0.143,1.437-0.025,1.873,0.35c0.052,0.062,0.102,0.121,0.151,0.184
		c-0.426,0.04-0.853,0.115-1.279,0.229c1.522,1.653,2.519,2.842,2.985,3.562c0.244,0.395,0.507,0.812,0.794,1.248
		c0.2,0.265,0.136,0.523-0.199,0.775c-0.456,0.315-1.278,0.468-2.468,0.459c-0.467-0.011-1.076-0.146-1.829-0.411
		c-1.003-0.417-1.906-0.717-2.708-0.899c-0.306,0.072-0.509,0.204-0.61,0.395c-0.131,0.235-0.224,0.388-0.273,0.457
		c-0.519,0.326-2.153,0.51-4.903,0.55c-0.416-0.021-1.828-0.065-4.234-0.137c-2.649-0.062-5.224-0.129-7.721-0.198
		c-0.761,0-1.361,0.015-1.797,0.046c-0.386,0.04-0.675,0.055-0.869,0.045c-0.323-0.008-0.608-0.021-0.852-0.029
		c-0.093-0.032-0.169-0.041-0.23-0.032c-0.029-0.02-0.06-0.065-0.09-0.136c-0.08-0.04-0.102-0.145-0.061-0.305
		c-0.02-0.314,0.157-0.649,0.531-1.006c-1.236-0.519-2.479-1.385-3.729-2.602c0.112,0.16,0.178,0.322,0.199,0.486
		c0.039,0.05-1.407,0.236-4.342,0.563c-3.167,0.304-5.994,0.364-8.481,0.183c-2.467-0.183-4.833-0.103-7.096,0.242
		c-2.335,0.295-3.884,0.265-4.646-0.091c-0.812-0.455-1.182-1.138-1.111-2.04c0.101-0.802,0.426-2.239,0.975-4.31
		c0.375-1.636,0.888-3.413,1.538-5.331c0.041-1.217,0.021-2.396-0.06-3.531c0.07,0.008,0.141,0.014,0.213,0.014
		c0.061,0.467,0.157,1.03,0.289,1.691c0.03-0.213,0.116-0.832,0.258-1.859c0.122-0.892,0.184-1.48,0.184-1.767
		c-0.01-0.253-0.107-0.351-0.29-0.289c-0.192,0.051-0.284-0.047-0.273-0.29c-0.03-1.167,0.359-2.558,1.172-4.171
		c0.446-1.006,1.295-2.523,2.543-4.554c1.198-2.121,2.026-3.682,2.481-4.674c0.732-1.716,1.071-3.188,1.021-4.417
		c-0.041-0.324-0.183-0.427-0.426-0.305c-0.285,0.092-0.432,0-0.442-0.273c0.508-3.39,0.751-5.26,0.731-5.605
		c-0.02-0.233-0.081-0.369-0.183-0.41c-0.143-0.051-0.228-0.102-0.259-0.151c-0.184-0.205-0.126-0.977,0.167-2.316
		c-0.213,0-0.411,0.021-0.594,0.062c-0.131-0.062-0.202-0.087-0.212-0.076c-0.041-0.021-0.066-0.204-0.076-0.548
		c-0.021-0.306,0.076-0.771,0.289-1.402c0.183-0.62,0.28-1.077,0.29-1.369c-0.05-0.274-0.188-0.408-0.411-0.396
		c-0.264,0.018-0.406-0.107-0.426-0.38c-0.031-0.54,0.101-1.145,0.396-1.813c0.284-0.681,0.421-1.097,0.41-1.25
		c-0.05-0.589-0.229-1.115-0.532-1.584c-0.284-0.376-0.365-0.992-0.244-1.856c-0.062-0.012-0.142,0.034-0.244,0.137
		c-0.122,0.101-0.243,0.163-0.365,0.184c-0.233-0.021-0.371-0.027-0.412-0.016c-0.092-0.031-0.147-0.203-0.167-0.518
		c-0.02-0.133,0.203-0.798,0.67-1.996c0.435-1.197,0.665-1.854,0.685-1.965c0-0.102-0.122-0.406-0.365-0.912
		c-0.224-0.47-0.345-0.793-0.365-0.974c-0.011-0.397,0.055-0.921,0.197-1.57c0.122-0.64,0.283-1.204,0.488-1.69
		c-0.082,0.092-0.205,0.239-0.366,0.441c-0.182,0.164-0.346,0.285-0.487,0.365c-0.224-0.08-0.371-0.188-0.442-0.32
		c-0.091-0.152-0.141-0.411-0.152-0.776c-0.031-0.345,0.218-1.365,0.747-3.061c0.507-1.623,0.767-2.456,0.776-2.499
		c-0.03-0.252-0.147-0.363-0.35-0.334c-0.284-0.01-0.406-0.125-0.365-0.351c-0.011-0.414,0.096-0.873,0.32-1.37
		c0.416-0.954,0.645-1.486,0.685-1.599c0-0.091,0-0.166,0-0.229c-0.152,0.213-0.427,0.809-0.821,1.783
		c-0.438,0.852-0.819,1.396-1.143,1.627c-0.245-0.041-0.387-0.079-0.428-0.121c-0.08-0.07-0.126-0.264-0.137-0.579
		c0-0.444,0.468-1.928,1.401-4.446c0.701-1.878,1.198-3.188,1.493-3.929c-0.031-0.131-0.041-0.248-0.031-0.351
		c-0.791,1.565-1.67,3.413-2.635,5.544c-0.202,0.03-0.39,0.056-0.563,0.077c-0.05,0.029-0.085,0.054-0.106,0.074
		c-0.082-0.03-0.122-0.203-0.122-0.518c-0.02-0.701,0.63-3.05,1.95-7.049c0.325-1.017,0.61-1.894,0.853-2.636v-0.015
		c-0.417,1.046-0.838,1.742-1.264,2.087c0.274-1.046,0.604-2.179,0.991-3.397c-0.621-2.883-1.326-6.72-2.118-11.513
		c-1.157-6.132-1.766-10.539-1.827-13.218c-0.041-0.528-0.02-0.995,0.061-1.4c-0.081-0.163-0.147-0.346-0.198-0.548
		c-0.132-0.944-0.163-1.406-0.091-1.386c-0.072-1.877,0.528-3.737,1.796-5.574c0.67-1.035,1.458-1.975,2.361-2.816
		c-0.01-0.041,0-0.066,0.03-0.077c-0.172,0.03-0.33,0.081-0.472,0.152c-0.224-0.071-0.391-0.122-0.502-0.152
		c-0.091,0.081-0.183,0.157-0.274,0.229c0.01-0.102,0.041-0.203,0.091-0.305c-0.132-0.07-0.187-0.122-0.167-0.152
		c0.05-0.031,0.137-0.045,0.259-0.045c0.273-0.579,0.888-0.975,1.843-1.188c0.029-0.071,0.06-0.106,0.09-0.106
		c0.071-0.335,0.26-0.65,0.563-0.944v-0.015h0.016c0.011,0,0.02-0.004,0.031-0.016c-0.315-0.102-0.61-0.168-0.884-0.198
		c0.456-0.102,0.914-0.168,1.371-0.198c0.588-0.417,1.3-0.716,2.132-0.899c0.122-0.03,0.259-0.061,0.412-0.091
		c0.061-0.051,0.137-0.082,0.228-0.091c0.111-0.164,0.279-0.35,0.503-0.563c0.03-0.021,0.061-0.046,0.092-0.077
		c-0.011-0.152-0.006-0.264,0.014-0.335c0.102-0.609,0.305-1.02,0.609-1.232c-0.021-0.123-0.005-0.204,0.046-0.245
		c0.102-0.244,0.365-0.431,0.792-0.563c-0.021-0.183-0.021-0.35,0-0.502c0.082-0.133,0.157-0.249,0.228-0.351
		c0-0.061,0-0.122,0-0.183c-0.03-0.397,0.042-0.772,0.213-1.128c-0.03-0.03-0.06-0.066-0.091-0.106
		c0.021,0.011,0.062,0.021,0.122,0.031c0.062-0.192,0.158-0.365,0.291-0.518c0.314-0.527,0.726-0.817,1.233-0.868
		c0.325-0.69,0.645-1.259,0.958-1.707c0.387-0.68,0.772-1.278,1.158-1.796c0.66-0.549,1.498-1.042,2.513-1.478
		c0.162-0.142,0.365-0.285,0.608-0.426c0.396-0.254,0.746-0.448,1.051-0.578c0.325-0.58,1.177-0.956,2.558-1.128
		C101.354,39.24,102.887,39.53,104.176,40.342z M88.749,50.773c-0.04,0.031-0.061,0.083-0.061,0.153c0.021,0,0.041,0,0.061,0
		C88.729,50.875,88.729,50.825,88.749,50.773z M85.415,54.062c-0.122,0.052-0.243,0.097-0.365,0.137c0.07-0.021,0.157-0.021,0.259,0
		C85.328,54.139,85.364,54.093,85.415,54.062z M113.77,80.926c0.213,0.131,0.447,0.32,0.701,0.562
		c-0.124-0.243-0.324-0.549-0.609-0.913C113.811,80.697,113.78,80.814,113.77,80.926z M114.362,80.271
		c0.174-0.041,0.348-0.066,0.521-0.076c-0.479-0.711-0.92-1.366-1.326-1.965c0.122,0.609,0.219,1.132,0.288,1.569
		C114.119,80.001,114.292,80.159,114.362,80.271z M82.201,114.9c0.082-0.133,0.223-0.508,0.427-1.125
		c0.145-0.492,0.257-0.825,0.334-1.001c-0.162,0.328-0.421,1.011-0.776,2.049C82.196,114.836,82.201,114.859,82.201,114.9z
		 M117.348,109.828c0.457,1.058,0.955,1.846,1.494,2.363c-0.455-1.474-0.858-2.79-1.204-3.945c-0.12-0.335-0.208-0.652-0.259-0.944
		c-0.111,0.609-0.207,1.213-0.289,1.812C117.161,109.316,117.247,109.554,117.348,109.828z M117.746,104.484
		c-0.022,0.122-0.043,0.259-0.061,0.411c0.181,0.447,0.303,0.69,0.363,0.73C117.929,105.312,117.826,104.931,117.746,104.484z
		 M116.358,112.997c0.306,1.036,0.632,1.679,0.976,1.934c-0.192-0.996-0.406-2.198-0.641-3.608
		C116.603,111.879,116.49,112.438,116.358,112.997z M115.171,116.819c-0.031,0.04-0.045,0.097-0.045,0.167
		c-0.013,0.092,0,0.162,0.028,0.212c-0.009,0.022,0.017-0.005,0.076-0.076C115.213,117.062,115.191,116.962,115.171,116.819z
		 M112.217,122.62c0.07,0.397,0.122,0.649,0.151,0.763c0.051,0.052,0.098,0.021,0.139-0.092c-0.041-0.183-0.107-0.467-0.199-0.854
		C112.278,122.479,112.247,122.539,112.217,122.62z M110.938,124.877c0.306,1.156,0.584,1.982,0.838,2.48
		c0.031,0.051,0.076,0.02,0.137-0.092c-0.111-0.467-0.248-1.156-0.411-2.07c-0.06-0.366-0.129-0.73-0.197-1.096
		c-0.132,0.172-0.27,0.381-0.412,0.622C110.913,124.772,110.929,124.823,110.938,124.877z M111.654,123.564
		c0.08,0.297,0.197,0.712,0.351,1.25c0.252,1.006,0.526,1.766,0.821,2.283c-0.021-0.11-0.286-0.994-0.792-2.649
		c-0.144-0.375-0.245-0.709-0.306-1.005C111.688,123.463,111.664,123.505,111.654,123.564z M113.647,120.094
		c0.152,0.486,0.319,0.934,0.502,1.34c0.011,0,0.038,0,0.076,0c-0.009-0.59,0.042-1.386,0.152-2.392
		c0.021-0.192,0.043-0.363,0.062-0.518C114.195,119.013,113.933,119.534,113.647,120.094z M113.116,121.082
		c0.161,0.672,0.339,1.24,0.531,1.706c0.012,0.031,0.036,0.056,0.077,0.076c-0.224-0.861-0.393-1.525-0.502-1.995
		C113.171,120.899,113.135,120.973,113.116,121.082z M111.212,130.297c0.02,0.111,0.055,0.244,0.106,0.396
		c0.132,0.63,0.264,1.01,0.396,1.144c-0.173-0.752-0.304-1.302-0.396-1.646c-0.04-0.082-0.061-0.161-0.061-0.244
		C111.247,130.046,111.231,130.165,111.212,130.297z M110.19,136.038c-0.091,0.385-0.183,0.771-0.272,1.157
		c0.049,0.507,0.142,1.11,0.272,1.812c0.152,1.065,0.306,1.888,0.457,2.467c0.01,0.437,0.038,0.366,0.077-0.213
		c0.021-1.349-0.006-2.66-0.077-3.93c-0.131-0.354-0.269-0.729-0.411-1.125C110.228,136.135,110.212,136.077,110.19,136.038z
		 M108.181,142.511c-0.081,0.17-0.161,0.344-0.244,0.518c0.021,0.03,0.021,0.076,0,0.136v0.015c0.172,1.271,0.381,2.235,0.625,2.895
		c0.011-0.021,0.036-0.021,0.075,0c-0.17-1.433-0.309-2.501-0.41-3.213C108.195,142.748,108.181,142.633,108.181,142.511z
		 M108.684,142.982c-0.02,0.161,0.041,0.787,0.183,1.871c-0.021-0.322-0.046-0.688-0.076-1.095c-0.05-0.425-0.087-0.715-0.106-0.868
		C108.684,142.922,108.684,142.952,108.684,142.982z M109.034,141.063c0.041,1.693,0.081,2.639,0.121,2.833
		c0.021,0,0.042-0.005,0.062-0.017c0.03-1.512,0.057-3.01,0.075-4.493c-0.101,0.325-0.201,0.646-0.306,0.96
		C108.986,140.551,109.004,140.788,109.034,141.063z M107.906,144.977c0,0.073-0.005,0.158-0.016,0.257
		c0.021,0.022,0.035,0.06,0.046,0.108c0.012,0.011,0.035,0.014,0.076,0.014C107.963,145.256,107.926,145.128,107.906,144.977z
		 M108.759,152.697c0.104,0.305,0.183,0.482,0.245,0.533c-0.163-0.751-0.324-1.238-0.488-1.463c0,0.012,0,0.042,0,0.091
		C108.578,152.124,108.658,152.402,108.759,152.697z M84.318,142.022c-0.102,0.212-0.204,0.481-0.305,0.808
		c0.092-0.234,0.198-0.433,0.32-0.596C84.313,142.164,84.308,142.092,84.318,142.022z M93.653,169.021
		c-0.365,1.046-0.69,1.965-0.976,2.758c0.184,0.152,0.381,0.319,0.595,0.503c1.502,1.34,2.213,2.518,2.132,3.531
		c0.355,0.193,0.747,0.442,1.172,0.746c0.772,0.518,1.375,0.97,1.813,1.356c-1.909-2.041-3.375-4.655-4.401-7.844
		C93.856,169.708,93.745,169.356,93.653,169.021z M81.09,153.946c0.111-0.326,0.244-0.629,0.396-0.912
		c-0.233,0.271-0.467,0.586-0.701,0.943C80.927,153.966,81.028,153.956,81.09,153.946z"/>
	<path fill-rule="evenodd" d="M75.318,59.941c2.761-3.32,5.935-3.731,9.518-1.233c0.985,0.822,2.705,3.177,5.162,7.065
		c2.346,3.717,3.519,5.777,3.519,6.183c0,0.833-0.31,1.482-0.929,1.95c-0.853,0.638-2.193,0.812-4.021,0.517
		c0.051,0.509,0.076,1.336,0.076,2.484c0,0.66-0.223,1.821-0.668,3.487c-0.251,0.956-0.529,1.878-0.839,2.771
		c1.109,0.237,2.246,0.648,3.412,1.233c2.599,1.716,4.669,3.524,6.213,5.422c0.628,0.762,2.035,2.838,4.219,6.228
		c1.125,1.756,3.136,3.7,6.029,5.834c0.669,0.497,3.401,2.344,8.191,5.543c3.321,2.214,5.722,4.057,7.204,5.528
		c1.992,1.983,3.024,3.866,3.092,5.649c1.311,1.122,2.133,2.107,2.467,2.952c0.234,0.601,0.351,1.973,0.351,4.112
		c0,0.256,0.021,0.864,0.062,1.828c-0.011,0.965-0.159,1.803-0.442,2.513c-0.864,2.132-2.97,3.198-6.32,3.198
		c-0.254,0-0.595,0.117-1.021,0.349c-0.438,0.226-0.781,0.336-1.035,0.336c-1.93,0-2.893-1.051-2.893-3.151
		c0-0.6,0.045-0.953,0.137-1.065c0.144-0.184,0.706-0.527,1.69-1.037l2.512-0.075c0.132-0.457,0.228-0.822,0.289-1.098
		c0.113-0.485,0.167-0.893,0.167-1.217c0-0.255-0.125-0.94-0.381-2.057c-0.018-0.082-0.035-0.162-0.052-0.237
		c-0.271-0.175-0.502-0.392-0.694-0.646c-0.335-0.444-0.535-0.977-0.601-1.6c-0.585-0.276-1.237-0.622-1.957-1.034
		c-0.398,0.378-0.846,0.8-1.34,1.264l-0.456-0.457c0.201-0.337,0.529-0.764,0.989-1.279c-0.209-0.126-0.425-0.258-0.646-0.396
		c-0.332,0.321-0.724,0.702-1.182,1.141c-0.354-0.101-0.61-0.228-0.762-0.379c0.216-0.274,0.588-0.703,1.112-1.287
		c-0.091-0.058-0.183-0.115-0.274-0.175c-0.04-0.028-0.081-0.058-0.121-0.085c-1.103,1.026-1.873,1.567-2.312,1.622
		c0.539-0.584,1.023-1.106,1.453-1.567c-0.381,0.276-0.788,0.569-1.228,0.884c-0.354-0.052-0.608-0.153-0.761-0.304
		c0.355-0.345,0.724-0.692,1.104-1.045c-0.381,0.321-0.798,0.669-1.257,1.045c-0.355-0.053-0.608-0.154-0.762-0.306
		c0.246-0.374,0.614-0.82,1.104-1.341c-0.276,0.121-0.567,0.237-0.875,0.352c-0.04,0.069-0.075,0.11-0.106,0.121
		c-0.083,0.009-0.122-0.144-0.122-0.457c0-0.236,0.229-0.603,0.687-1.104c-0.205-0.137-0.396-0.266-0.578-0.388
		c-1.047,0.799-1.845,1.28-2.394,1.447c0.22-0.478,0.778-1.117,1.677-1.92c-0.249-0.162-0.469-0.305-0.662-0.426
		c-0.646,0.51-1.235,0.962-1.777,1.354c-0.018,0.052-0.044,0.069-0.074,0.062c-0.049-0.032-0.076-0.203-0.076-0.518
		c0-0.218,0.361-0.684,1.082-1.401c-0.034-0.018-0.065-0.033-0.094-0.047c-0.04-0.018-0.082-0.038-0.127-0.062
		c-0.588,0.531-1.051,0.906-1.394,1.129l-0.167-0.077c-0.042-0.019-0.062-0.182-0.062-0.487c0-0.229,0.169-0.57,0.51-1.021
		c-0.326-0.124-0.693-0.262-1.104-0.409c-0.244,0.245-0.503,0.505-0.777,0.775l-0.382-0.153c-0.017-0.225,0.097-0.53,0.337-0.912
		c-0.207-0.072-0.419-0.145-0.639-0.222c-0.798,0.727-1.584,1.307-2.362,1.743c-0.354-0.051-0.609-0.152-0.762-0.305
		c0.178-0.235,0.351-0.464,0.525-0.684c-0.223-0.089-0.372-0.19-0.449-0.304c-0.86,0.151-1.851,0.228-2.969,0.228
		c-0.396,0-0.843-0.046-1.34-0.137c-0.519-0.103-0.833-0.21-0.944-0.32c1.055-0.379,2.468-0.891,4.241-1.539
		c-0.31-0.094-0.623-0.191-0.944-0.289c-0.742,0.311-1.414,0.582-2.01,0.809c-1.264,0.554-2.354,0.869-3.267,0.944
		c-0.305-0.104-0.508-0.229-0.61-0.382c0.323-0.223,0.646-0.438,0.968-0.648c-0.173-0.078-0.292-0.168-0.357-0.266
		c0.419-0.261,0.975-0.692,1.667-1.294c-1.676,0.645-2.536,0.975-2.581,0.991c-0.377-0.022-0.684-0.054-0.922-0.094
		c-0.405,0.179-0.706,0.312-0.906,0.396c-0.305-0.051-0.507-0.152-0.61-0.303c0.191-0.258,0.79-0.644,1.798-1.159
		c-0.236-0.098-0.379-0.22-0.428-0.365c0.298-0.253,0.623-0.466,0.976-0.639c-0.284-0.096-0.556-0.187-0.815-0.275h-0.007
		c-0.023,0-0.049,0-0.075,0c-0.835,0.255-1.52,0.38-2.057,0.38c-0.842,0-1.351-0.125-1.523-0.38
		c0.157-0.077,0.313-0.153,0.473-0.229c-0.389-0.033-0.672-0.06-0.854-0.075c0-0.102-0.076-0.229-0.229-0.382
		c0.115-0.121,0.235-0.236,0.359-0.349c-0.291-0.081-0.632-0.183-1.028-0.305c-1.229-0.376-1.868-0.59-1.919-0.64
		c0.499-0.387,1.067-0.685,1.706-0.897c-0.255-0.236-0.509-0.472-0.761-0.71c-0.206-0.006-0.424-0.014-0.656-0.022
		c-1.705-0.061-2.853-0.075-3.442-0.045l-0.381-0.153c0.379-0.349,0.773-0.594,1.181-0.729c-0.188-0.03-0.378-0.075-0.571-0.138
		c-0.334-0.112-0.564-0.229-0.686-0.352c0.104-0.133,0.305-0.29,0.602-0.471c-0.333-0.027-0.711-0.078-1.134-0.152
		c-0.711-0.122-1.244-0.27-1.599-0.442c-0.016-0.022-0.031-0.046-0.046-0.067c-0.074-0.026-0.161-0.053-0.259-0.085v-0.007
		c-0.394,0.229-0.8,0.461-1.217,0.692c-0.091-0.062-0.148-0.107-0.168-0.137c-0.041-0.049-0.061-0.231-0.061-0.549
		c0-0.314,0.258-0.754,0.776-1.316c-0.086,0.016-0.167,0.022-0.244,0.022c-0.325,0-0.527-0.034-0.609-0.105
		c-0.052-0.102-0.101-0.194-0.151-0.274c0.394-0.593,1.137-1.242,2.23-1.95c-0.163-0.165-0.319-0.327-0.473-0.487
		c-0.542,0.354-1.178,0.76-1.911,1.219c-0.457,0-0.735-0.076-0.837-0.229c0.235-0.234,0.504-0.488,0.808-0.76
		c-0.028-0.004-0.053-0.006-0.076-0.008c-0.489,0.29-0.859,0.494-1.112,0.617l-0.167-0.076c-0.04-0.02-0.062-0.183-0.062-0.487
		c0-0.365,0.648-0.949,1.942-1.751c-0.221-0.239-0.434-0.47-0.639-0.693c-0.537,0.533-1.149,1.129-1.835,1.791
		c-0.162,0-0.264-0.005-0.304-0.017c-0.051-0.009-0.076-0.166-0.076-0.472c0-0.598,0.416-1.39,1.249-2.375
		c-0.121-0.138-0.238-0.271-0.351-0.403c-0.923,1.354-1.452,2.111-1.583,2.276l-0.153-0.792c0.399-0.851,0.768-1.594,1.104-2.23
		c-0.016-0.02-0.03-0.038-0.045-0.054c-0.187,0.243-0.388,0.508-0.602,0.792h-0.38l-0.168-0.076
		c-0.041-0.02-0.061-0.184-0.061-0.488c0-0.419,0.104-0.886,0.312-1.401c-0.074-0.095-0.143-0.189-0.206-0.282
		c-0.067-0.03-0.133-0.064-0.198-0.099c-0.397,0.931-0.62,1.56-0.67,1.888l-0.304,0.151c-0.192-0.192-0.33-0.401-0.412-0.623
		c-0.081-0.224-0.122-0.524-0.122-0.899c0-0.225,0.137-0.668,0.412-1.333c-0.031-0.028-0.062-0.059-0.092-0.091
		c-0.445,1.293-0.831,2.351-1.156,3.176c-0.204,0-0.356-0.077-0.458-0.229c0.033-0.397,0.064-0.781,0.1-1.148
		c-0.029,0.03-0.063,0.058-0.1,0.084c-0.111-0.518-0.218-1.188-0.32-2.012c-0.091-0.812-0.137-1.412-0.137-1.796
		c0-0.453,0.049-1.101,0.145-1.941c-0.041-0.148-0.079-0.297-0.114-0.449c-0.481,1.751-0.744,3.106-0.792,4.065l-0.061,0.137
		c-0.07,0.102-0.152,0.184-0.244,0.244c-0.254-0.51-0.402-1.078-0.441-1.705l-0.167,0.106c-0.144-0.233-0.225-0.38-0.244-0.441
		c-0.042-0.142-0.062-0.386-0.062-0.732c0-0.346,0.031-0.764,0.091-1.256c-0.01-0.154-0.014-0.319-0.014-0.495
		c0-0.474,0.22-1.469,0.661-2.984c0.09-0.399,0.189-0.818,0.297-1.256c-0.464,0.948-0.758,1.687-0.883,2.216l-0.304,0.076
		l-0.137-0.822c-0.107,0.348-0.213,0.699-0.32,1.05c-0.102-0.213-0.172-0.38-0.213-0.501c-0.06-0.205-0.091-0.467-0.091-0.792
		c0-0.932,0.545-2.86,1.637-5.787c-0.309,0.652-0.625,1.312-0.952,1.979h-0.228c-0.041-0.041-0.061-0.065-0.061-0.077
		c-0.01-0.009-0.015-0.172-0.015-0.487c0-0.509,0.33-1.524,0.989-3.045c0-0.487,0.533-1.801,1.599-3.943
		c0.009-0.163,0.016-0.325,0.024-0.488c-0.531,0.922-1.173,2.029-1.927,3.321l-0.304,0.076c0.402-0.996,1.166-2.615,2.291-4.858
		c0.046-1.384,0.069-2.745,0.069-4.081c0-0.854,0.279-2,0.837-3.442C73.5,62.576,74.324,61.139,75.318,59.941z M71.465,79.914
		c0.019-0.299,0.039-0.615,0.061-0.944c-0.312,0.952-0.622,1.915-0.93,2.886C70.848,81.25,71.136,80.603,71.465,79.914z
		 M80.922,103.168c0.855-0.176,1.65-0.455,2.383-0.839c-0.128-0.126-0.257-0.25-0.388-0.372c-0.024,0.014-0.049,0.028-0.076,0.047
		c-0.573,0.353-1.18,0.718-1.819,1.094c-0.009,0.01-0.016,0.021-0.023,0.031L80.922,103.168z"/>
	<path fill-rule="evenodd" d="M93.272,61.708c1.4-1.128,2.832-1.96,4.294-2.498c4.05-1.503,7.005-0.279,8.864,3.669
		c0.436,1.219,0.745,4.122,0.929,8.71c0.182,4.387,0.171,6.757-0.03,7.113c-0.417,0.721-1.012,1.132-1.782,1.233
		c-1.065,0.122-2.315-0.401-3.747-1.569c-0.213,0.458-0.608,1.183-1.187,2.178c-0.325,0.58-1.098,1.478-2.316,2.696
		c-0.689,0.701-1.389,1.36-2.101,1.98c0.833,0.75,1.61,1.674,2.331,2.771c1.39,2.792,2.279,5.395,2.665,7.811
		c0.172,0.976,0.354,3.473,0.547,7.493c0.092,2.092,0.859,4.782,2.301,8.071c0.335,0.763,1.776,3.728,4.324,8.895
		c1.768,3.583,2.924,6.379,3.474,8.389c0.73,2.713,0.679,4.854-0.153,6.428c0.579,1.646,0.796,2.909,0.655,3.791
		c-0.092,0.651-0.675,1.898-1.752,3.747c-0.122,0.223-0.405,0.763-0.853,1.613c-0.487,0.834-1.031,1.484-1.631,1.95
		c-1.816,1.422-4.177,1.295-7.079-0.382c-0.214-0.131-0.568-0.202-1.066-0.213c-0.487-0.019-0.843-0.095-1.066-0.229
		c-1.666-0.962-1.97-2.354-0.913-4.171c0.294-0.518,0.513-0.8,0.654-0.853c0.213-0.092,0.874-0.111,1.98-0.062l2.206,1.203
		c0.347-0.335,0.61-0.604,0.793-0.807c0.345-0.365,0.6-0.69,0.762-0.975c0.131-0.213,0.365-0.873,0.7-1.979
		c0.021-0.081,0.04-0.152,0.062-0.212c-0.144-0.295-0.229-0.601-0.259-0.915c-0.071-0.559,0.021-1.121,0.273-1.69
		c-0.366-0.526-0.762-1.153-1.188-1.874c-0.527,0.123-1.121,0.266-1.781,0.426l-0.168-0.622c0.335-0.185,0.834-0.393,1.493-0.625
		c-0.123-0.203-0.238-0.422-0.351-0.653c-0.456,0.12-0.995,0.252-1.613,0.395c-0.255-0.264-0.407-0.503-0.456-0.715
		c0.313-0.121,0.847-0.306,1.596-0.55c-0.048-0.102-0.094-0.196-0.137-0.289c-0.028-0.052-0.055-0.091-0.075-0.122
		c-1.473,0.315-2.411,0.397-2.816,0.244c0.763-0.254,1.446-0.467,2.056-0.641c-0.478,0.053-0.98,0.103-1.507,0.155
		c-0.286-0.225-0.453-0.443-0.504-0.656c0.478-0.113,0.971-0.223,1.479-0.335c-0.499,0.081-1.035,0.167-1.615,0.258
		c-0.284-0.212-0.451-0.427-0.502-0.641c0.395-0.202,0.939-0.399,1.63-0.592c-0.305-0.041-0.62-0.087-0.946-0.137
		c-0.07,0.041-0.12,0.056-0.15,0.045c-0.071-0.041-0.031-0.192,0.122-0.457c0.12-0.203,0.502-0.407,1.142-0.61
		c-0.111-0.222-0.213-0.43-0.304-0.622c-1.301,0.161-2.23,0.177-2.788,0.044c0.427-0.304,1.228-0.578,2.406-0.82
		c-0.132-0.266-0.248-0.495-0.35-0.687c-0.823,0.111-1.563,0.203-2.225,0.274c-0.039,0.032-0.075,0.034-0.106,0.015
		c-0.019-0.051,0.045-0.213,0.198-0.487c0.112-0.183,0.654-0.406,1.629-0.669c-0.009-0.041-0.023-0.072-0.045-0.092
		c-0.021-0.03-0.046-0.066-0.076-0.108c-0.771,0.162-1.361,0.255-1.766,0.274l-0.123-0.151c-0.02-0.04,0.045-0.192,0.198-0.457
		c0.123-0.203,0.442-0.412,0.959-0.625c-0.234-0.264-0.486-0.563-0.761-0.898c-0.335,0.082-0.685,0.172-1.052,0.273l-0.258-0.318
		c0.091-0.204,0.341-0.411,0.747-0.626c-0.142-0.16-0.29-0.328-0.442-0.502c-1.055,0.234-2.03,0.342-2.923,0.319
		c-0.285-0.221-0.452-0.441-0.503-0.654c0.264-0.102,0.527-0.208,0.792-0.319c-0.144-0.182-0.224-0.345-0.244-0.486
		c-0.812-0.304-1.7-0.738-2.665-1.296c-0.346-0.191-0.716-0.456-1.112-0.791c-0.397-0.335-0.609-0.585-0.64-0.747
		c1.097,0.204,2.573,0.473,4.433,0.809c-0.225-0.244-0.442-0.488-0.656-0.731c-0.812-0.102-1.533-0.203-2.163-0.305
		c-1.371-0.153-2.473-0.427-3.305-0.823c-0.213-0.242-0.325-0.457-0.334-0.64c0.396-0.031,0.786-0.05,1.172-0.061
		c-0.122-0.162-0.183-0.305-0.183-0.427c0.499-0.011,1.193-0.101,2.088-0.273c-1.777-0.285-2.687-0.431-2.727-0.441
		c-0.315-0.203-0.563-0.38-0.747-0.532c-0.437-0.051-0.767-0.092-0.99-0.122c-0.244-0.193-0.366-0.382-0.366-0.563
		c0.285-0.121,0.995-0.158,2.133-0.106c-0.153-0.204-0.214-0.381-0.183-0.532c0.375-0.062,0.761-0.083,1.157-0.062
		c-0.203-0.222-0.391-0.437-0.563-0.639l-0.016-0.017c-0.021-0.01-0.04-0.021-0.06-0.029c-0.853-0.192-1.513-0.429-1.98-0.7
		c-0.73-0.416-1.106-0.781-1.126-1.098c0.172,0.012,0.344,0.026,0.517,0.045c-0.314-0.213-0.542-0.375-0.684-0.486
		c0.05-0.092,0.045-0.244-0.016-0.456c0.152-0.042,0.314-0.081,0.487-0.123c-0.212-0.212-0.457-0.47-0.731-0.774
		c-0.883-0.936-1.335-1.438-1.356-1.51c0.629-0.08,1.27-0.056,1.919,0.077c-0.091-0.326-0.193-0.655-0.304-0.989
		c-0.164-0.112-0.346-0.229-0.55-0.352c-1.451-0.902-2.436-1.493-2.954-1.768l-0.244-0.319c0.496-0.111,0.959-0.125,1.385-0.045
		c-0.152-0.111-0.299-0.248-0.441-0.411c-0.224-0.255-0.361-0.462-0.411-0.625c0.152-0.07,0.405-0.106,0.761-0.106
		c-0.274-0.203-0.579-0.441-0.914-0.715c-0.56-0.457-0.945-0.848-1.158-1.172c-0.01-0.031-0.015-0.062-0.015-0.091
		c-0.05-0.05-0.106-0.118-0.167-0.198c-0.458-0.01-0.929-0.016-1.416-0.016c-0.04-0.101-0.06-0.173-0.06-0.213
		c-0.021-0.06,0.05-0.229,0.213-0.502c0.152-0.274,0.599-0.517,1.339-0.73c-0.091-0.042-0.167-0.078-0.229-0.107
		c-0.283-0.164-0.441-0.295-0.472-0.396c0.011-0.122,0.011-0.228,0-0.319c0.64-0.314,1.615-0.507,2.924-0.579
		c-0.061-0.223-0.116-0.442-0.167-0.655c-0.66,0.042-1.417,0.077-2.27,0.107c-0.396-0.234-0.604-0.442-0.624-0.625
		c0.325-0.081,0.685-0.167,1.082-0.258c-0.031-0.02-0.051-0.035-0.061-0.046c-0.568,0.011-0.995,0.005-1.279-0.015l-0.091-0.151
		c-0.031-0.042,0.03-0.193,0.182-0.457c0.183-0.316,1.035-0.499,2.559-0.549c-0.071-0.315-0.137-0.62-0.198-0.915
		c-0.731,0.193-1.564,0.406-2.498,0.641c-0.143-0.082-0.224-0.137-0.244-0.168c-0.041-0.041,0.016-0.193,0.168-0.458
		c0.304-0.518,1.061-0.995,2.268-1.432c-0.04-0.182-0.075-0.355-0.105-0.517c-1.472,0.709-2.306,1.102-2.497,1.172l0.258-0.761
		c0.772-0.537,1.461-0.995,2.071-1.371c-0.011-0.031-0.016-0.051-0.016-0.061c-0.285,0.101-0.589,0.229-0.914,0.38l-0.335-0.198
		l-0.106-0.153c-0.031-0.03,0.03-0.177,0.183-0.442c0.213-0.365,0.539-0.72,0.975-1.065c-0.021-0.122-0.035-0.238-0.046-0.35
		c-0.041-0.061-0.076-0.123-0.106-0.184c-0.812,0.608-1.319,1.045-1.522,1.309l-0.335-0.03c-0.082-0.263-0.102-0.513-0.061-0.745
		c0.04-0.234,0.156-0.514,0.35-0.838c0.111-0.193,0.451-0.507,1.02-0.943c-0.009-0.041-0.025-0.082-0.046-0.122
		c-1.026,0.894-1.883,1.615-2.573,2.163c-0.183-0.102-0.274-0.244-0.274-0.427c0.214-0.335,0.432-0.651,0.656-0.943
		c-0.042,0.019-0.082,0.029-0.122,0.029c0.152-0.518,0.391-1.158,0.716-1.918c0.335-0.742,0.599-1.28,0.792-1.614
		c0.223-0.397,0.583-0.929,1.081-1.6c0.051-0.151,0.092-0.304,0.122-0.457c-1.279,1.279-2.183,2.32-2.71,3.122l-0.122,0.091
		c-0.112,0.051-0.223,0.082-0.334,0.091c0.03-0.568,0.187-1.137,0.472-1.706l-0.199,0.016c-0.01-0.274-0.004-0.441,0.016-0.502
		c0.031-0.143,0.133-0.365,0.305-0.671c0.172-0.293,0.407-0.639,0.701-1.035c0.07-0.142,0.152-0.289,0.244-0.442
		c0.233-0.416,0.927-1.167,2.085-2.253c0.254-0.305,0.543-0.615,0.869-0.93c-0.883,0.59-1.508,1.082-1.874,1.479l-0.305-0.091
		l0.305-0.792c-0.274,0.254-0.548,0.508-0.822,0.762c0.031-0.233,0.055-0.416,0.076-0.549c0.051-0.203,0.157-0.446,0.319-0.73
		c0.467-0.801,1.909-2.198,4.325-4.188c-0.599,0.405-1.208,0.816-1.826,1.233l-0.199-0.107l-0.015-0.091
		c0-0.02,0.076-0.168,0.228-0.442c0.254-0.446,1.046-1.156,2.376-2.132c0.244-0.427,1.365-1.304,3.365-2.634
		c0.091-0.132,0.183-0.264,0.274-0.396c-0.934,0.529-2.046,1.163-3.335,1.905l-0.32-0.077c0.854-0.66,2.33-1.685,4.432-3.075
		c0.73-1.168,1.431-2.336,2.102-3.503C91.262,63.52,92.075,62.672,93.272,61.708z M80.8,99.444c0.833,0.274,1.66,0.432,2.482,0.472
		c-0.04-0.184-0.086-0.362-0.137-0.532c-0.031,0-0.065,0.005-0.106,0.014c-0.66,0.021-1.366,0.031-2.117,0.031
		c0,0.01-0.011,0.015-0.031,0.015H80.8z M84.76,73.784c-0.742,0.669-1.488,1.351-2.24,2.041c0.529-0.406,1.101-0.823,1.722-1.249
		C84.404,74.323,84.577,74.058,84.76,73.784z"/>
</g>
</svg>
