<?xml version="1.0" encoding="utf-8"?>
<!-- Generator: Adobe Illustrator 15.0.0, SVG Export Plug-In . SVG Version: 6.00 Build 0)  -->
<svg version="1.2" baseProfile="tiny" id="Layer_1" xmlns="http://www.w3.org/2000/svg" xmlns:xlink="http://www.w3.org/1999/xlink"
	 x="0px" y="0px" width="200px" height="200px" viewBox="0 0 200 200" overflow="inherit" xml:space="preserve">
<g>
	<path d="M90.852,96.618c1.335-0.253,2.692-0.281,4.071-0.089c1.217,0.133,2.269,0.43,3.16,0.89
		c1.484,0.623,1.781,0.987,0.889,1.091c0.462-0.015,0.758,0.066,0.893,0.244c0.785,0.222,1.371,0.453,1.757,0.69l-0.021,0.199
		l-0.29,0.045c-0.09-0.074-0.186-0.126-0.289-0.156c0.061,0.089,0.105,0.208,0.134,0.356c0.563,0.238,0.847,0.453,0.847,0.646
		c0.015,0.118,0.006,0.192-0.023,0.222l-0.021,0.045c0.742,0.415,1.135,0.77,1.18,1.067c0.016,0.118,0.009,0.185-0.021,0.2
		c-0.016,0-0.074,0.016-0.179,0.046c-0.267-0.136-0.481-0.23-0.646-0.29c0.014,0.029,0.021,0.06,0.021,0.089
		c0.016,0,0.016,0.022,0,0.065c0.431,0.328,0.652,0.61,0.668,0.847c0.016,0.209-0.008,0.252-0.066,0.135
		c-0.459-0.312-0.859-0.571-1.201-0.778c0.875,0.623,1.32,1.074,1.334,1.356c0,0.087-0.021,0.207-0.065,0.354
		c-0.074-0.104-0.187-0.178-0.334-0.223c0.519,0.564,0.778,0.965,0.778,1.202c0.029,0.118,0.037,0.215,0.021,0.289
		c-0.029,0-0.104,0.037-0.222,0.11c0.015,0.03,0.015,0.061,0,0.09c0.03,0.104,0.022,0.178-0.023,0.223l-0.088,0.045
		c0.088,0.104,0.134,0.207,0.134,0.311c0.016,0.193-0.082,0.342-0.289,0.445c-0.045-0.103-0.127-0.184-0.244-0.244
		c0,0.016,0.006,0.029,0.021,0.045c0.016,0.117,0.007,0.185-0.021,0.199l-0.135,0.045l0.412,0.489
		c-0.058-0.063-0.113-0.116-0.167-0.155c-0.178-0.119-0.296-0.148-0.356-0.09c0,0.016,0.045,0.067,0.135,0.156
		c0.148,0.104,0.415,0.275,0.801,0.512c-0.281,0.357-0.318,0.764-0.109,1.225c0.088,0.045,0.185,0.104,0.289,0.179
		c0.814,0.489,1.217,0.866,1.2,1.135c0,0.207-0.089,0.274-0.267,0.199l-0.312-0.111c0.312,0.401,0.928,1.373,1.848,2.916
		c1.037,1.794,1.558,2.884,1.558,3.271c0,0.089-0.045,0.15-0.135,0.179c-0.074,0.015-0.118,0.074-0.134,0.178
		c0.016,0.074,0.06,0.14,0.134,0.2c0.073,0.029,0.11,0.105,0.11,0.223c0.017,0.148-0.11,0.371-0.377,0.668
		c0.088,0.029,0.191,0.142,0.312,0.334c0.118,0.178,0.178,0.334,0.178,0.467c0,0.09-0.015,0.164-0.045,0.224
		c-0.03,0-0.104,0.037-0.224,0.11c-0.073-0.045-0.141-0.088-0.198-0.133c-0.104-0.074-0.172-0.119-0.201-0.133
		c0.06,0.072,0.274,0.451,0.646,1.135c-0.014,0.623,0.029,1.498,0.134,2.625l-0.312,0.557c0,0.059-0.029,0.443-0.089,1.156
		c-0.12,0.668-0.431,1.047-0.936,1.137v0.064c0.297,0.09,0.444,0.195,0.444,0.312c0,0.089-0.11,0.245-0.332,0.467
		c-0.015-0.014-0.067-0.021-0.156-0.021c-0.061-0.014-0.105-0.008-0.135,0.021c-0.014,0.475-0.162,0.75-0.444,0.824
		c-0.015,0-0.058-0.007-0.134-0.021c0.016,0.06,0.009,0.117-0.021,0.178c0.623,1.099,1.165,1.892,1.624,2.382
		c0.46,0.459,1.995,0.985,4.606,1.58c0.846,0.188,1.621,0.354,2.324,0.5c0.312,0.03,0.567,0.102,0.769,0.212l-0.065-0.18
		c1.541,0.297,2.76,0.521,3.648,0.668c0.683-0.135,1.21-0.178,1.58-0.135c0.134,0,0.207,0.022,0.223,0.068
		c0.016,0.029,0.008,0.074-0.021,0.133c-0.074,0.044-0.209,0.127-0.4,0.244c0.089,0.016,0.164,0.021,0.223,0.021
		c0.133-0.088,0.305-0.17,0.512-0.244c0.283-0.133,0.563-0.186,0.846-0.154c0.119,0.014,0.179,0.045,0.179,0.088
		c0.015,0.029,0.015,0.061,0,0.089c-0.044,0.046-0.192,0.173-0.444,0.38c0.015,0,0.029,0,0.045,0
		c0.162-0.031,0.414-0.127,0.757-0.291c0.519-0.235,0.846-0.348,0.979-0.334c0.118,0,0.179,0.022,0.179,0.068l-0.03,0.014
		l0.022,0.111l-0.668,0.489c0.09,0.014,0.266-0.044,0.533-0.177c0.148-0.09,0.282-0.172,0.4-0.246
		c0.609-0.461,1.076-0.859,1.402-1.201l0.09,0.09c-0.254,0.282-0.728,0.689-1.426,1.223c0.52-0.236,0.854-0.342,1.002-0.311
		c0.119,0.014,0.245,0.088,0.379,0.223c0.088,0.059,0.133,0.104,0.133,0.133c0.09-0.029,0.201-0.111,0.334-0.244
		c0.164-0.135,0.371-0.18,0.623-0.135c0.414-0.355,0.72-0.668,0.912-0.934l0.045,0.045c0.016,0.029,0.029,0.082,0.043,0.154
		c0.047,0.119-0.191,0.387-0.711,0.803c0.179,0.014,0.268,0.088,0.268,0.221c0,0.045-0.201,0.275-0.602,0.691
		c0.09-0.031,0.155-0.047,0.201-0.047h0.021c0.312-0.252,0.623-0.525,0.934-0.822c0.95-0.979,1.59-1.542,1.914-1.691
		c-0.177,0.178-0.756,0.883-1.734,2.114v0.022c0.221-0.252,0.512-0.459,0.867-0.623c0.387-0.238,0.674-0.348,0.867-0.334
		c-0.074,0.148-0.162,0.305-0.267,0.469c1.142-0.965,1.817-1.723,2.024-2.271h0.066c-0.148,0.609-0.831,1.432-2.048,2.471
		c0.073-0.059,0.141-0.096,0.2-0.111c0.371-0.207,0.711-0.334,1.023-0.379c0.074,0.061,0.111,0.165,0.111,0.312
		c-0.016,0.03-0.111,0.088-0.289,0.179c-0.104,0.073-0.127,0.11-0.066,0.11c0.191-0.029,0.399-0.111,0.623-0.244
		c0.178-0.135,0.37-0.18,0.577-0.135l0.067,0.045c0.355-0.31,0.564-0.615,0.623-0.912l0.089,0.021l0.021,0.178
		c0,0.164-0.207,0.432-0.621,0.803l0.045,0.065c0,0.03-0.053,0.074-0.156,0.134c0.222-0.029,0.451-0.06,0.689-0.088
		c0.549-0.386,1.09-0.572,1.623-0.557c0.521-0.209,1.062-0.318,1.625-0.334c0.564-0.162,1.104-0.223,1.625-0.178
		c-0.461,0.133-0.949,0.326-1.469,0.578c1.068-0.431,1.877-0.603,2.426-0.513c-0.06,0.017-0.461,0.208-1.201,0.578
		c0.237,0.015,0.453,0.062,0.645,0.133c0.475-0.043,0.957,0,1.447,0.134l-0.066,0.09c-0.163-0.03-0.408-0.006-0.734,0.067
		c0.118,0.043,0.215,0.095,0.289,0.154c0.697-0.103,1.269-0.043,1.713,0.18c-0.028,0.013-0.125,0.05-0.289,0.109
		c-0.252-0.03-0.564-0.007-0.935,0.067c0.134,0.06,0.282,0.164,0.444,0.312c0.268,0.028,0.49,0.11,0.668,0.244
		c0.134,0.03,0.259,0.073,0.379,0.135c0.415,0.178,0.822,0.379,1.224,0.601l-0.022,0.045c-0.045,0-0.125,0-0.243,0l-0.111-0.045
		c0.267,0.178,0.521,0.379,0.757,0.602c-0.312-0.059-0.802-0.208-1.47-0.445c0.06,0.09,0.126,0.171,0.201,0.245
		c0.653,0.237,1.319,0.489,2.002,0.757c-0.044,0.074-0.237,0.096-0.578,0.066c-0.089-0.014-0.429-0.133-1.022-0.355
		c1.513,0.713,2.262,1.217,2.248,1.514c0.014,0.104,0.014,0.179,0,0.223h-0.136c0.489,0.326,0.734,0.564,0.734,0.712
		c0,0.119-0.022,0.194-0.067,0.224l-0.044,0.021c-0.459-0.387-1.03-0.803-1.713-1.247c0.267,0.356,0.511,0.728,0.733,1.112
		c0.104,0.076,0.216,0.164,0.334,0.269c1.128,0.89,1.699,1.416,1.714,1.578c0.015,0.269-0.118,0.342-0.4,0.224
		c-0.118-0.252-0.497-0.662-1.136-1.224c0.223,0.34,0.432,0.711,0.624,1.113c0.073,0.104,0.134,0.229,0.178,0.377
		c0.326,0.296,0.683,0.638,1.068,1.022l-0.29,0.066c-0.133-0.162-0.266-0.281-0.4-0.355c0.135,0.239,0.26,0.504,0.379,0.801
		c0.118,0.074,0.217,0.173,0.291,0.291l-0.113,0.021c0.09,0.133,0.148,0.26,0.179,0.379c0.134,0.117,0.26,0.266,0.379,0.445
		c0.623,0.785,0.935,1.222,0.935,1.312v0.178l-0.134,0.021c-0.192-0.31-0.399-0.586-0.622-0.821
		c0.059,0.073,0.082,0.153,0.065,0.243c0-0.028-0.015-0.045-0.044-0.045c0.043,0.017,0.051,0.045,0.021,0.091
		c0.267,0.311,0.57,0.741,0.911,1.291c0.64,0.92,0.951,1.444,0.937,1.579c0.031,0.222,0.021,0.287-0.022,0.199l-0.045-0.022
		c0.015,0.03,0.022,0.051,0.022,0.067l-0.022,0.021c0.269,0.445,0.394,0.75,0.379,0.914c0.029,0.134,0.029,0.199,0,0.199
		c-0.015,0.014-0.045,0.037-0.089,0.066h-0.09c-0.278-0.545-0.559-1.023-0.834-1.436c0.025,0.055,0.044,0.11,0.056,0.166
		c0.253,0.371,0.386,0.596,0.4,0.67c0.549,0.873,0.815,1.475,0.802,1.801c0.03,0.209,0.023,0.268-0.023,0.178l-0.154-0.045
		c-0.09-0.355-0.311-0.86-0.667-1.512c0.044,0.178,0.088,0.348,0.134,0.512c0.4,0.906,0.602,1.477,0.602,1.713
		c0.014,0.074,0.021,0.156,0.021,0.244c0.027,0.076,0.037,0.172,0.021,0.291c0.016,0.207,0,0.326-0.045,0.355l-0.111-0.021
		c-0.016-0.15-0.045-0.283-0.09-0.402c0,0.031-0.006,0.074-0.021,0.135c0.06,0.252,0.104,0.438,0.134,0.558
		c-0.016,0.178-0.029,0.317-0.045,0.422v0.045c0,0.029-0.007,0.082-0.021,0.156c0.015,0.133,0.008,0.223-0.022,0.266
		c-0.075-0.03-0.147-0.088-0.223-0.178c0.015-0.058,0.015-0.14,0-0.244c-0.073,0.371-0.171,0.838-0.289,1.401
		c0,0.044-0.007,0.104-0.021,0.179c0.028,0.459,0.036,0.8,0.021,1.022h-0.065c-0.046-0.103-0.082-0.237-0.113-0.399
		c-0.072,0.385-0.168,0.793-0.289,1.226c-0.354,1.793-0.932,3.239-1.734,4.338c-0.771,1.082-1.661,1.824-2.67,2.225
		c-1.023,0.341-2.723,0.906-5.098,1.691l-1.646-0.199c-0.147-0.045-0.245-0.09-0.289-0.135c-0.059-0.072-0.096-0.229-0.11-0.468
		c-0.016-0.237,0.015-0.407,0.088-0.512c0.104-0.119,0.149-0.199,0.135-0.244c-0.416,0.563-1.01,0.802-1.781,0.711
		c-0.697-0.133-0.979-0.532-0.846-1.2l0.09-0.046c0.191-0.459,0.527-0.661,1.001-0.6c0.178,0.013,0.334,0.036,0.468,0.065
		c0.415-0.222,0.831-0.453,1.246-0.688c0.194-0.252,0.409-0.511,0.645-0.779l0.356-0.489c0.179-0.162,0.415-0.224,0.712-0.177
		c0.297-0.062,0.542-0.092,0.734-0.092c0.059-0.043,0.096-0.065,0.111-0.065c0.074-0.224,0.133-0.363,0.179-0.423
		c0.133-0.206,0.354-0.475,0.667-0.801c0.387-0.341,0.668-0.569,0.846-0.688c0-0.029,0.141-0.135,0.424-0.312
		c0.176-0.148,0.295-0.275,0.355-0.377c0.117-0.371,0.259-0.655,0.423-0.846c0.327-0.344,0.541-0.602,0.646-0.779
		c0.06-0.074,0.11-0.113,0.155-0.113c0.046-0.101,0.073-0.183,0.089-0.244c-0.029-0.058-0.066-0.108-0.111-0.154
		c-0.088-0.147-0.133-0.266-0.133-0.356c-0.016-0.132,0.037-0.377,0.155-0.733c-0.103-0.355-0.222-0.801-0.356-1.334v-0.312
		c0.031-0.119,0.082-0.186,0.156-0.199c-0.045-0.029-0.177-0.238-0.4-0.623c-0.236-0.4-0.319-0.764-0.244-1.092
		c-0.045-0.252,0.036-0.443,0.244-0.576c-0.178-0.017-0.305-0.052-0.379-0.111c-0.072-0.061-0.295-0.217-0.666-0.469
		c-0.401-0.326-0.564-0.623-0.49-0.891l-0.021-0.021c-0.963-0.147-1.455-0.422-1.469-0.824c-0.014-0.088-0.023-0.155-0.023-0.198
		c-0.014-0.017-0.043-0.017-0.088,0c-0.178-0.075-0.281-0.037-0.312,0.11c-0.028,0.207-0.074,0.342-0.133,0.4
		c-0.045,0.029-0.192,0.111-0.444,0.244c-0.209,0.105-0.306,0.186-0.29,0.244c0,0.045,0.044,0.193,0.134,0.447
		c-0.06,0.191-0.23,0.584-0.512,1.18c-0.223,0.578-0.557,0.748-1.002,0.51c-0.4-0.223-0.638-0.732-0.712-1.535
		c-0.03-0.846-0.119-1.379-0.267-1.602c-0.119-0.252-0.237-0.951-0.356-2.092c-0.073-0.623-0.119-1.157-0.134-1.603
		c-0.133-0.073-0.571-0.222-1.312-0.444h-0.043l-0.091,0.088l0.579,0.779v0.178c-0.104-0.045-0.579-0.096-1.425-0.154
		c-0.623-0.045-1.193-0.098-1.714-0.156c-0.119,0.014-0.223,0.037-0.312,0.066c0.267,0.059,0.579,0.133,0.935,0.223l0.201,0.178
		l-0.067,0.133l-0.957-0.133c-0.179-0.029-0.556-0.09-1.136-0.178l0.18,0.088c0.281,0.12,0.488,0.209,0.622,0.268
		c0.297,0.148,0.469,0.268,0.513,0.355l-0.044,0.156l-0.603-0.045l-1.401-0.443l-0.021,0.021h0.021
		c0.758,0.342,1.172,0.549,1.247,0.623c-0.045,0.074-0.148,0.111-0.312,0.111c-0.164-0.046-0.386-0.009-0.666,0.108
		c-0.342,0.075-1.418,0.024-3.228-0.154c0.179,0.252,0.237,0.4,0.179,0.445h-0.602c-0.074-0.029-0.282-0.095-0.623-0.199
		c-0.385-0.086-0.889-0.177-1.516-0.278v0.021c0.18,0.06,0.401,0.151,0.67,0.278c0.592,0.222,0.964,0.445,1.111,0.668
		c-0.253-0.014-0.66-0.036-1.224-0.065c-0.697-0.06-1.356-0.097-1.979-0.11c0.015,0.012,0,0.049-0.045,0.11
		c-0.031,0.074-0.074,0.125-0.135,0.154l-0.689-0.066l-0.012-0.032c-0.205,0.037-0.378,0.057-0.521,0.057l-1.447-0.111v0.244
		c-0.029,0.119-0.141,0.199-0.333,0.244l-1.669-0.512c-0.488,0.312-0.875,0.467-1.156,0.467c-0.533,0-0.976-0.15-1.324-0.455
		l-0.211-0.033c0.015,0.074,0.006,0.125-0.022,0.156c0.015,0.029-0.007,0.08-0.067,0.154c0.074,0,0.12,0.022,0.135,0.065
		c0.179,0.06,0.289,0.133,0.334,0.224c-0.03,0.015-0.074,0.037-0.135,0.067c-0.059,0.06-0.148,0.072-0.267,0.043
		c-0.074,0-0.216-0.043-0.423-0.133c0.015-0.017,0.015-0.029,0-0.045c-0.075-0.06-0.164-0.097-0.268-0.111
		c-0.045-0.014-0.082-0.014-0.111,0l-0.51,0.134c-0.344,0.09-0.566,0.127-0.67,0.112c-0.193-0.017-0.393-0.017-0.601,0
		c-0.163,0-0.327,0.006-0.489,0.021c-0.059-0.043-0.4-0.236-1.023-0.576c-0.104,0.133-0.215,0.223-0.334,0.266
		c-0.029-0.016-0.066-0.016-0.11,0c0,0.016-0.007,0.09-0.022,0.223c-0.029,0.088-0.207,0.119-0.533,0.088
		c-0.074-0.014-0.164-0.057-0.269-0.133c-0.073,0.09-0.17,0.133-0.288,0.133c-0.119-0.026-0.222,0.033-0.312,0.181
		c-0.489,1.69-0.638,3.21-0.444,4.562l-0.199,0.512c-1.143,0.326-1.878,1.238-2.203,2.736c-0.119,0.519-0.186,1.039-0.201,1.56
		c0.104,0.353,0.156,0.694,0.156,1.022c0.073,0.103,0.17,0.207,0.289,0.312c-0.133-0.06-0.268-0.156-0.4-0.289l-0.021-0.021
		c-0.029-0.031-0.037-0.053-0.023-0.066c0-0.016-0.014-0.039-0.043-0.068c-0.045,0.326-0.104,0.817-0.18,1.469
		c-0.015,0.119-0.021,0.238-0.021,0.355c0.132,0.193,0.28,0.379,0.444,0.557c-0.031,0.09-0.061,0.156-0.09,0.201
		c-0.148-0.089-0.298-0.209-0.445-0.357c-0.045,0.148-0.088,0.261-0.133,0.334l-0.289-0.266c-0.09-0.045-0.164-0.223-0.224-0.535
		c-0.028-0.146-0.065-0.252-0.11-0.311c-0.029-0.059-0.066-0.119-0.11-0.18l-0.112,0.268c0.029,0.386,0.096,0.936,0.2,1.646
		c0,0.074,0.007,0.148,0.022,0.223c0.074,0.105,0.133,0.23,0.178,0.379l-0.045,0.045c-0.028-0.061-0.074-0.127-0.133-0.201
		c0,0.09,0,0.164,0,0.223c0.191,0.328,0.416,0.653,0.668,0.979c-0.252-0.178-0.482-0.369-0.69-0.578
		c0,0.091-0.006,0.173-0.021,0.246c-0.076,0-0.195-0.082-0.356-0.246c0,0.074,0,0.14,0,0.201c0.058,0.19,0.126,0.431,0.2,0.711
		l-0.111,0.136c-0.014,0.252-0.051,0.495-0.111,0.733l-0.021,0.133l-0.046-0.021c0.179,0.488,0.289,0.896,0.334,1.223v0.068
		c-0.148-0.268-0.281-0.514-0.399-0.736c0,0.208,0,0.423,0,0.646l-0.246,0.733l-0.065-0.021c0,0.177-0.016,0.34-0.045,0.487
		l-0.043,0.046c0-0.029-0.084-0.238-0.246-0.623h-0.049c-0.016-0.104-0.037-0.186-0.067-0.244c-0.179-0.504-0.459-1.248-0.847-2.228
		c0.031,0.297,0.076,0.617,0.135,0.957c0.224,0.535,0.521,1.246,0.891,2.138l-0.021,0.043c0.089,0,0.029,0.016-0.178,0.047
		c-0.193-0.031-0.371-0.148-0.535-0.357c-0.014,0.342-0.037,0.676-0.065,1.002l-0.09,0.066c-0.103-0.386-0.252-1.144-0.444-2.271
		c-0.178-0.489-0.334-1.076-0.468-1.758c-0.029,0.059-0.051,0.133-0.066,0.223v0.021c0.193,0.875,0.475,2.271,0.844,4.185
		c0.076,0.134,0.156,0.267,0.246,0.399l-0.09,0.091c-0.117-0.179-0.215-0.326-0.289-0.445c-0.088-0.209-0.178-0.362-0.268-0.467
		c0.119,0.324,0.246,0.66,0.378,1c-0.267-0.578-0.503-1.119-0.711-1.623c-0.104-0.194-0.209-0.379-0.312-0.558
		c0.029,0.459,0.074,0.869,0.133,1.226c0.118,0.279,0.282,0.586,0.491,0.91l-0.022,0.045c-0.089-0.06-0.171-0.133-0.245-0.222
		c0.09,0.177,0.164,0.363,0.223,0.556c0.313,0.371,0.707,0.838,1.18,1.401c0.016,0.089-0.081,0.127-0.288,0.111
		c-0.164,0-0.32-0.043-0.468-0.133c-0.43-0.061-0.832-0.222-1.203-0.49c-0.029,0.209-0.05,0.4-0.066,0.58
		c0.431,0.459,0.987,1.045,1.67,1.756c-0.03,0.062-0.133,0.074-0.312,0.045c-0.401,0-0.793-0.17-1.179-0.512
		c0.184,0.184,0.4,0.401,0.646,0.645c0.072,0.074,0.146,0.147,0.223,0.224l0.045,0.334l-0.09,0.156
		c-0.045,0.016-0.082,0.059-0.111,0.133c-0.045,0-0.104,0.007-0.178,0.022c0.104,0.088,0.23,0.186,0.379,0.289
		c-0.104,0.104-0.252,0.164-0.446,0.179c-0.208-0.013-0.415-0.082-0.623-0.199c-0.044-0.031-0.074-0.045-0.088-0.045
		c0.044,0.133,0.125,0.244,0.244,0.334h-0.022c0.104,0.116,0.214,0.215,0.334,0.289c0.059,0.073,0.052,0.14-0.022,0.198
		c0.164-0.028,0.296-0.049,0.4-0.065c0.01,0.065,0.014,0.136,0.012,0.211c-0.004,0.036-0.008,0.069-0.012,0.103
		c-0.038,0.102-0.116,0.188-0.233,0.256c0.988,0.109,2.156,0.121,3.504,0.033c1.47,0.385,2.582,0.771,3.338,1.155
		c0.846,0.388,2.492,0.943,4.939,1.669c0.713,0.877,1.855,1.924,3.428,3.139c0.771,0.549,1.03,1.305,0.778,2.27
		c-0.208,0.742-0.795,1.18-1.759,1.312c-0.979,0.135-2.426-0.022-4.339-0.467l-5.829-0.156c-0.742-0.178-1.174-0.422-1.291-0.734
		c-0.044-0.117-0.038-0.303,0.021-0.555c0.075-0.238,0.482-0.514,1.225-0.824c0.83-0.371,1.543-0.49,2.136-0.355
		c-0.044-0.209-0.134-0.363-0.267-0.469c-1.246,0.371-3.998,0.439-8.257,0.201c-6.438-0.4-10.258-0.586-11.459-0.557l-2.381-0.558
		c-0.432-0.149-0.668-0.385-0.713-0.713c-0.029-0.103,0-0.31,0.088-0.621c0.061-0.325,0.209-0.571,0.445-0.735
		c0.027-0.012,0.064-0.025,0.111-0.043c0-0.037,0-0.074,0-0.111c0-0.195,0.123-0.641,0.367-1.334
		c-0.188,0.146-0.383,0.295-0.59,0.443c-0.058,0.119-0.065,0.073-0.021-0.133c0.029-0.102,0.296-0.373,0.801-0.812
		c0.008-0.02,0.016-0.039,0.021-0.055c-0.012-0.016-0.025-0.023-0.043-0.023c-0.074,0-0.127-0.021-0.156-0.066
		c-0.016,0.075,0,0.149,0.045,0.224c-0.18-0.074-0.355-0.207-0.535-0.4c-0.163-0.028-0.304-0.045-0.422-0.045l-0.734-0.354
		c0.178,0.637,0.395,1.336,0.646,2.092l-0.199,0.268c-0.06,0.029-0.097,0.043-0.11,0.043c-0.031,0.016-0.074,0.016-0.136,0
		c-0.058-0.029-0.163-0.223-0.312-0.578l-0.022,0.111c-0.252,0.133-0.474,0.193-0.667,0.178l-0.021-0.021
		c-0.09,0.016-0.162,0.028-0.224,0.045c0,0.162,0.037,0.294,0.111,0.397c0,0.119,0.038,0.225,0.112,0.312l-0.135,0.156
		c-0.06,0.016-0.148,0.006-0.267-0.021c-0.074-0.015-0.136-0.121-0.179-0.312c-0.164-0.045-0.305-0.094-0.424-0.155
		c-0.235-0.103-0.459-0.334-0.666-0.688c-0.18-0.076-0.357-0.149-0.535-0.224c0.148,0.521,0.343,0.897,0.578,1.135l-0.11,0.179
		c-0.192-0.104-0.354-0.236-0.489-0.4c0.208,0.623,0.467,1.016,0.778,1.18l-0.021,0.066c-0.283,0.254-0.498,0.334-0.646,0.244
		c-0.045,0-0.096-0.027-0.155-0.088c-0.119,0-0.216-0.045-0.29-0.133c-0.006-0.005-0.014-0.009-0.021-0.013
		c-0.523-0.269-0.969-1.198-1.336-2.793c-0.028,0.03-0.037,0.024-0.021-0.021c-0.104,0.028-0.177,0.065-0.223,0.11v0.021
		c0.061,0.312,0.104,0.632,0.134,0.957c0.118,0.149,0.282,0.32,0.489,0.513c-0.014,0.164-0.065,0.215-0.155,0.153
		c-0.089-0.043-0.163-0.092-0.224-0.153c0.119,0.858,0.185,1.535,0.201,2.024l-0.09,0.134c-0.014,0-0.029,0-0.044,0
		c-0.045,0.028-0.09,0.016-0.135-0.044c-0.132-0.061-0.289-0.551-0.466-1.469c-0.119-0.431-0.186-0.815-0.201-1.158
		c-0.223-0.207-0.422-0.422-0.602-0.645l-0.066,0.111c0.029,0.058,0.061,0.111,0.09,0.154c0.119,1.648,0.268,2.805,0.445,3.473
		l-0.178,0.244c-0.062,0.042-0.121,0.05-0.18,0.021c-0.104-0.013-0.184-0.132-0.244-0.354c-0.104-0.016-0.179-0.053-0.223-0.111
		c-0.223-0.043-0.357-0.238-0.4-0.578c0.014,0.149,0.036,0.303,0.066,0.467l-0.111,0.111c-0.045,0.045-0.104,0.016-0.179-0.09
		c-0.119-0.043-0.222-0.281-0.312-0.711l-0.043,0.023c0-0.062-0.017-0.093-0.047-0.093h-0.021l-0.091,0.181
		c-0.014-0.119-0.021-0.23-0.021-0.334c-0.073-0.117-0.141-0.23-0.2-0.334c-0.014,0.016-0.051,0.061-0.111,0.135
		c-0.088,0.384-0.149,0.756-0.178,1.111l-0.066,0.088c-0.059-0.133-0.073-0.289-0.045-0.468c-0.045-0.014-0.096-0.028-0.155-0.045
		c-0.104,0.771-0.058,1.255,0.134,1.447c-0.016,0.03-0.044,0.09-0.09,0.178c0,0.074,0.03,0.119,0.09,0.136l-0.09,0.133
		c-0.044-0.045-0.074-0.096-0.089-0.156c-0.104,0.044-0.199,0.052-0.289,0.023c-0.06-0.029-0.088-0.127-0.088-0.291
		c-0.356-0.4-0.616-0.927-0.779-1.578c-0.046,0.043-0.073,0.08-0.09,0.108c-0.03,0.283-0.022,0.521,0.022,0.713l-0.178,0.136
		c-0.016-0.18-0.009-0.439,0.021-0.779c-0.015,0-0.021-0.008-0.021-0.023c-0.104-0.029-0.141-0.207-0.111-0.533
		c-0.192,1.291-0.192,2.219,0,2.781l-0.155,0.09c-0.253-0.623-0.297-1.565-0.134-2.826c0.014-0.09,0.021-0.185,0.021-0.289
		c-0.211,0.177-0.434,0.263-0.668,0.257c0.026,0.271,0.057,0.556,0.09,0.854c-0.016,1.381-0.513,2.508-1.492,3.383
		c-0.019,0-0.043,0-0.064,0c-0.016,0.181-0.029,0.366-0.046,0.558h-0.333c-0.043-0.197-0.087-0.42-0.135-0.668
		c-0.141-0.039-0.305-0.091-0.489-0.156c-0.504-0.19-0.778-0.289-0.822-0.289c-0.118,0.224-0.253,0.616-0.401,1.181
		c-0.148,0.549-0.273,0.935-0.377,1.157l-0.778-0.11c-0.134-0.269-0.261-0.603-0.38-1.002l-0.289-1.002c-0.016,0-0.029,0-0.045,0
		c-0.406,0.397-0.844,0.728-1.312,0.989c-0.058,0.787-0.126,1.459-0.2,2.015l-0.223-0.224l-0.045-1.567
		c-0.471,0.199-0.971,0.332-1.502,0.399c-0.004,0.021-0.008,0.039-0.012,0.058c-0.014-0.017-0.028-0.029-0.043-0.045
		c-0.203,0.024-0.411,0.041-0.623,0.045c0.197-0.019,0.395-0.051,0.589-0.103c-0.052-0.067-0.093-0.153-0.123-0.256l-0.021-0.199
		c-0.009-0.263-0.02-0.521-0.033-0.778c-0.502,0.131-1.031,0.25-1.592,0.354c-0.017,0.03-0.029,0.062-0.045,0.09
		c0-0.026,0-0.053,0-0.078c-0.121,0.021-0.244,0.046-0.367,0.066c-0.17,0.082-0.381,0.123-0.634,0.123
		c-0.743,0-1.151-0.037-1.224-0.111c-0.02-0.308-0.042-0.612-0.066-0.912c-0.361,0.571-0.746,1.173-1.156,1.804l-0.224-0.224
		c0.163-0.512,0.575-1.446,1.234-2.805c-0.013-0.086-0.022-0.173-0.034-0.257c-0.621,0.845-1.393,1.789-2.312,2.839l-0.111-0.224
		c0.921-1.482,1.668-2.721,2.236-3.717c-0.14-0.716-0.306-1.39-0.5-2.025c-0.418-1.379-0.623-2.936-0.623-4.672
		c0-0.815,0.064-1.535,0.199-2.157c0.131-0.621,0.32-1.082,0.566-1.38c-2.155-7.53-0.723-22.719,4.295-45.572
		c0.898-9.229,3.453-17.913,7.666-26.058c0.43-0.817,0.882-1.629,1.357-2.438c3.127-2.679,6.086-3.996,8.879-3.949
		c-0.252,1.587,0.541,3.427,2.381,5.518c1.633,0,3.115,0.149,4.449,0.446C88.972,95.647,90.144,96.084,90.852,96.618z
		 M116.547,135.492c0.002,0.027,0.006,0.057,0.012,0.09c0.02,0.042,0.042,0.082,0.066,0.123L116.547,135.492z M94.505,130.977
		c-0.015-0.432-0.022-0.81-0.022-1.136c-0.104-0.297-0.215-0.571-0.334-0.823c0.149,0.578,0.209,1.336,0.179,2.27
		C94.372,131.139,94.431,131.035,94.505,130.977z M94.081,133.779c-0.297,2.062-0.703,3.863-1.224,5.406
		c-0.192,0.64-0.431,1.359-0.712,2.16c0.816-0.4,1.662-0.779,2.537-1.135c-0.029-0.135-0.037-0.275-0.021-0.424
		c0.311-2.284,0.533-4.072,0.666-5.362h-0.021c-0.103,0.103-0.253,0.185-0.445,0.245c-0.207,0.029-0.282,0-0.222-0.09
		c0-0.355-0.008-0.689-0.023-1.001c-0.191-0.386-0.304-0.868-0.333-1.446C94.253,132.637,94.187,133.188,94.081,133.779z
		 M96.354,134.424c-0.044,0.326-0.125,0.721-0.244,1.18c-0.192,0.904-0.317,1.559-0.378,1.959c-0.148,0.028-0.253,0.028-0.312,0
		c-0.016-0.061-0.029-0.133-0.045-0.224c0.045-0.371,0.061-0.705,0.045-1.002c-0.015,0.283-0.051,0.608-0.11,0.979
		c-0.089,0.816-0.216,1.735-0.38,2.759c0.195-0.075,0.38-0.149,0.559-0.224c0.044-0.607,0.186-1.431,0.422-2.469
		c0.029-0.074,0.037-0.126,0.021-0.156c0.045-0.147,0.082-0.297,0.111-0.444c0.029-0.074,0.045-0.14,0.045-0.199
		c0.045-0.045,0.06-0.082,0.045-0.112c0.029-0.029,0.037-0.051,0.021-0.066c0.118-0.652,0.199-1.178,0.244-1.579
		c0.016-0.163,0.021-0.296,0.021-0.4C96.403,134.425,96.382,134.425,96.354,134.424z M57.945,118.447
		c-0.623-0.965-1.039-2.031-1.246-3.204c-0.045-0.252-0.067-0.505-0.067-0.757c0.015-3.277,1.455-5.859,4.317-7.743l-0.401,3.204
		l2.16-3.871l1.067-0.312L57.945,118.447z M142.838,136.628c-0.045-0.282-0.631-0.712-1.758-1.29
		c0.073,0.118,0.139,0.229,0.199,0.333c0.045,0,0.075,0.015,0.09,0.044C142.008,136.07,142.496,136.375,142.838,136.628z
		 M128.262,142.68l0.022,0.023c0.013-0.014,0.033-0.014,0.056,0C128.314,142.688,128.289,142.68,128.262,142.68z M82.154,173.568
		c0.017,0.029,0.045,0.037,0.091,0.022c0.014,0,0.006,0.037-0.023,0.111c0.148,0.223,0.32,0.332,0.513,0.332
		c-0.074-0.162-0.171-0.364-0.29-0.601c-0.311-0.103-0.475-0.207-0.488-0.312l-0.045,0.065
		C81.97,173.352,82.052,173.479,82.154,173.568z M85.359,171.052v-0.022c-0.312-0.118-0.578-0.223-0.801-0.312
		c0.073,0.179,0.187,0.364,0.334,0.558C85.025,171.215,85.182,171.141,85.359,171.052z M82.155,172.498
		c-0.014-0.029-0.037-0.08-0.066-0.156l-0.045-0.043C82.074,172.387,82.11,172.453,82.155,172.498z M84.87,169.736
		c0.074,0.078,0.148,0.132,0.223,0.156c0.258,0.203,0.521,0.39,0.791,0.558c0.026-0.068,0.054-0.13,0.078-0.189
		c-0.052-0.061-0.103-0.131-0.155-0.211c-0.046-0.06-0.091-0.14-0.136-0.243c-0.229,0.036-0.471,0.016-0.724-0.068
		c-0.04-0.012-0.081-0.027-0.121-0.043C84.839,169.711,84.854,169.727,84.87,169.736z M69.683,172.465
		c0.05-0.018,0.109-0.033,0.179-0.045l-0.301-0.299C69.602,172.23,69.643,172.346,69.683,172.465z M74.122,175.348
		c0,0.043-0.007,0.111-0.022,0.199c0.046,0.075,0.089,0.148,0.134,0.223c0-0.135,0-0.273,0-0.422
		C74.218,175.348,74.182,175.348,74.122,175.348z M74.591,176.639c0,0.043,0.029,0.08,0.088,0.109
		c-0.014-0.148-0.008-0.34,0.022-0.578C74.642,176.379,74.604,176.533,74.591,176.639z M73.722,176.395
		c0.091,0.578,0.23,1.061,0.425,1.445c0-0.117,0.014-0.244,0.043-0.377l-0.089,0.133c0-0.311,0.007-0.637,0.021-0.979l-0.111,0.023
		l0.068-0.271c-0.045-0.103-0.097-0.192-0.156-0.267c-0.029,0.074-0.073,0.133-0.133,0.179c0,0.013-0.016,0.036-0.045,0.065
		C73.745,176.363,73.737,176.379,73.722,176.395z M76.036,176.682c-0.074-0.281-0.104-0.652-0.089-1.113l-0.11,0.246
		C75.865,176.082,75.933,176.369,76.036,176.682z M74.146,176.48l0.021-0.021h-0.021V176.48z M65.611,180.266
		c-0.118,0.064-0.237,0.123-0.356,0.178c-0.004,0.074-0.008,0.148-0.01,0.221C65.367,180.539,65.49,180.406,65.611,180.266z
		 M63.431,180.52c-0.049,0.449-0.111,0.896-0.189,1.336c0.521-0.138,1.014-0.383,1.479-0.733l-0.021-0.97
		c-0.033-0.004-0.066-0.008-0.102-0.01C64.23,180.277,63.841,180.402,63.431,180.52z M61.583,180.754c-0.037,0-0.07,0-0.1,0
		c-0.012,0.021-0.021,0.045-0.033,0.066C61.495,180.797,61.54,180.775,61.583,180.754z M61.339,180.742c-0.012,0-0.021,0-0.035,0
		c-0.051,0.096-0.117,0.176-0.199,0.246c0.078-0.039,0.156-0.076,0.234-0.111C61.337,180.832,61.337,180.787,61.339,180.742z
		 M62.296,179.675c-0.125-0.036-0.229-0.069-0.312-0.1c-0.078,0.194-0.163,0.397-0.256,0.61
		C61.949,179.99,62.138,179.818,62.296,179.675z M97.511,170.006c-0.074-0.029-0.133-0.05-0.178-0.066
		c0,0.016,0.021,0.051,0.065,0.111c0.06,0.059,0.127,0.111,0.201,0.156c0.014,0,0.036,0,0.067,0
		C97.591,170.117,97.54,170.051,97.511,170.006z M99.044,168.092c-0.014-0.043-0.037-0.095-0.066-0.154
		c-0.074-0.18-0.17-0.35-0.288-0.514c0.015,0.09,0.015,0.201,0,0.334C98.822,167.848,98.94,167.959,99.044,168.092z M98.866,166.045
		c0.047,0.297,0.096,0.57,0.157,0.824c0.015,0.014,0.044,0.029,0.088,0.043C99.023,166.646,98.94,166.357,98.866,166.045z
		 M99.468,164.398c0.06,0.193,0.105,0.395,0.134,0.602c0,0.014,0.03,0.045,0.09,0.088l0.088,0.111
		c-0.029-0.09-0.044-0.186-0.044-0.289c-0.029-0.059-0.044-0.125-0.044-0.199C99.602,164.592,99.526,164.488,99.468,164.398z
		 M99.558,163.285c0.016,0.045,0.03,0.113,0.044,0.201c0,0.015,0.007,0.037,0.023,0.065c0-0.147,0-0.267,0-0.354
		C99.564,163.213,99.542,163.242,99.558,163.285z M99.981,162.816c0,0.033,0.022,0.091,0.066,0.179
		c0.045,0.119,0.111,0.246,0.2,0.379c-0.119-0.342-0.222-0.756-0.312-1.246c-0.028,0.045-0.045,0.104-0.045,0.179
		c-0.014,0.028,0,0.073,0.045,0.133C99.936,162.545,99.95,162.67,99.981,162.816z M100.914,159.302
		c0.133,0.239,0.273,0.536,0.422,0.892c-0.014-0.164-0.037-0.334-0.066-0.512c0-0.09-0.016-0.193-0.044-0.312
		c-0.075-0.178-0.14-0.305-0.2-0.379l-0.023-0.021C100.975,159.043,100.944,159.154,100.914,159.302z M104.363,155.454
		c-0.015,0.015-0.021,0.037-0.021,0.065c0.016,0,0.029,0.008,0.043,0.021C104.371,155.514,104.363,155.482,104.363,155.454z
		 M85.315,171.797c-0.077-0.008-0.15-0.017-0.223-0.033c0.056,0.07,0.101,0.148,0.133,0.234
		C85.255,171.932,85.283,171.863,85.315,171.797z M85.516,171.342c-0.046,0.022-0.082,0.037-0.111,0.045
		c0.024,0.006,0.052,0.012,0.078,0.021C85.491,171.387,85.503,171.363,85.516,171.342z"/>
	<path d="M92.144,98.286c1.126,0.044,2.105,0.259,2.938,0.646c1.364,0.488,1.639,0.822,0.822,1c0.415-0.044,0.689,0.015,0.823,0.178
		c0.728,0.149,1.269,0.327,1.624,0.535l-0.021,0.201l-0.267,0.064c-0.09-0.059-0.179-0.096-0.269-0.11
		c0.059,0.073,0.097,0.187,0.11,0.334c0.535,0.192,0.802,0.386,0.802,0.578c0.017,0.119,0.008,0.193-0.021,0.224l-0.022,0.043
		c0.682,0.357,1.045,0.683,1.091,0.98c0.014,0.117,0.007,0.186-0.023,0.199c-0.013,0-0.066,0.016-0.155,0.045
		c-0.252-0.104-0.454-0.178-0.602-0.223c0.015,0.028,0.022,0.06,0.022,0.09c0.014,0,0.014,0.021,0,0.066
		c0.385,0.28,0.586,0.54,0.601,0.777c0.016,0.208,0,0.252-0.044,0.134c-0.431-0.268-0.802-0.489-1.113-0.668
		c0.801,0.55,1.209,0.966,1.224,1.246c0,0.088-0.022,0.207-0.067,0.354c-0.059-0.088-0.156-0.154-0.29-0.198
		c0.475,0.532,0.713,0.92,0.713,1.155c0.029,0.105,0.036,0.194,0.021,0.269c-0.028,0.015-0.096,0.06-0.2,0.133
		c0.015,0.03,0.015,0.062,0,0.091c0.015,0.104,0.008,0.178-0.022,0.223l-0.089,0.065c0.089,0.091,0.135,0.185,0.135,0.289
		c0,0.194-0.098,0.351-0.29,0.468c-0.03-0.088-0.104-0.162-0.223-0.223c0,0.016,0.006,0.03,0.021,0.044
		c0.016,0.119,0.008,0.185-0.021,0.201l-0.111,0.065l0.267,0.355c-0.014-0.016-0.029-0.029-0.044-0.044
		c-0.162-0.104-0.273-0.126-0.334-0.067c0,0.016,0.045,0.067,0.133,0.156c0.135,0.089,0.381,0.238,0.737,0.445
		c-0.267,0.371-0.304,0.779-0.112,1.225c0.09,0.043,0.179,0.096,0.268,0.154c0.757,0.416,1.127,0.757,1.112,1.023
		c0,0.209-0.082,0.283-0.244,0.223l-0.29-0.066c0.297,0.371,0.869,1.291,1.715,2.76c0.964,1.705,1.445,2.752,1.445,3.139
		c0,0.089-0.036,0.148-0.111,0.178c-0.073,0.029-0.118,0.096-0.134,0.2c0.016,0.073,0.061,0.134,0.134,0.178
		c0.06,0.03,0.089,0.104,0.089,0.224c0.016,0.147-0.103,0.377-0.354,0.689c0.089,0.03,0.187,0.134,0.29,0.312
		c0.117,0.178,0.177,0.334,0.177,0.467c0,0.09-0.015,0.164-0.044,0.223c-0.03,0-0.096,0.045-0.2,0.133
		c-0.073-0.045-0.141-0.088-0.2-0.133c-0.09-0.059-0.148-0.097-0.178-0.111c0.059,0.074,0.26,0.438,0.602,1.092
		c-0.017,0.623,0.021,1.49,0.11,2.603l-0.29,0.58c0,0.06-0.021,0.451-0.066,1.181c-0.118,0.666-0.407,1.065-0.866,1.199v0.066
		c0.266,0.06,0.399,0.148,0.399,0.268c0,0.09-0.103,0.26-0.312,0.512c0-0.014-0.044-0.021-0.134-0.021
		c-0.059,0-0.104,0.016-0.133,0.045c0,0.475-0.133,0.756-0.4,0.846c-0.016,0.016-0.061,0.016-0.135,0
		c0.017,0.059,0.008,0.118-0.021,0.178c0.577,1.054,1.082,1.804,1.513,2.248c0.43,0.416,1.854,0.816,4.272,1.201
		c0.786,0.119,1.498,0.221,2.136,0.312c0.297,0,0.543,0.044,0.734,0.133l-0.066-0.178c1.424,0.178,2.551,0.303,3.383,0.377
		c0.623-0.194,1.104-0.282,1.446-0.266c0.134-0.017,0.208,0,0.222,0.043c0.017,0.029,0.008,0.073-0.021,0.133
		c-0.072,0.045-0.199,0.136-0.379,0.27c0.091,0.014,0.156,0.021,0.201,0.021c0.133-0.103,0.297-0.2,0.488-0.289
		c0.252-0.162,0.513-0.243,0.779-0.243c0.104,0.014,0.156,0.044,0.156,0.088c0.016,0.028,0.016,0.06,0,0.09
		c-0.029,0.043-0.163,0.177-0.4,0.399c0.014,0,0.028,0,0.045,0c0.147-0.045,0.377-0.162,0.689-0.356
		c0.488-0.265,0.793-0.399,0.911-0.399c0.104-0.015,0.155,0,0.155,0.045l-0.021,0.021l0.021,0.113l-0.601,0.555
		c0.073,0,0.237-0.075,0.489-0.223c0.133-0.103,0.252-0.199,0.355-0.288c0.564-0.504,1-0.942,1.312-1.312l0.066,0.09
		c-0.222,0.295-0.66,0.74-1.312,1.334c0.49-0.281,0.801-0.416,0.936-0.4c0.103,0,0.223,0.066,0.355,0.201
		c0.072,0.045,0.111,0.08,0.111,0.111c0.089-0.033,0.193-0.121,0.312-0.269c0.147-0.149,0.341-0.209,0.578-0.179
		c0.388-0.399,0.669-0.742,0.847-1.022l0.045,0.043c0.014,0.031,0.028,0.083,0.045,0.156c0.028,0.118-0.193,0.409-0.668,0.869
		c0.162,0,0.244,0.065,0.244,0.198c0,0.045-0.187,0.289-0.557,0.734c0.089-0.045,0.148-0.066,0.178-0.066h0.022
		c0.297-0.28,0.586-0.586,0.866-0.911c0.89-1.056,1.483-1.671,1.781-1.849c-0.164,0.194-0.697,0.951-1.603,2.271v0.021
		c0.208-0.267,0.475-0.496,0.801-0.69c0.356-0.281,0.623-0.423,0.802-0.423c-0.074,0.162-0.156,0.326-0.244,0.49
		c1.053-1.054,1.674-1.862,1.869-2.426l0.066-0.021c-0.135,0.619-0.762,1.498-1.883,2.636c0.058-0.054,0.111-0.095,0.168-0.121
		c0.341-0.237,0.66-0.385,0.957-0.446c0.06,0.047,0.089,0.144,0.089,0.291c-0.015,0.029-0.103,0.096-0.267,0.2
		c-0.088,0.088-0.111,0.125-0.067,0.111c0.192-0.045,0.387-0.144,0.579-0.291c0.178-0.149,0.363-0.207,0.556-0.179l0.045,0.045
		c0.343-0.34,0.534-0.666,0.579-0.979l0.089,0.021l0.021,0.179c0,0.163-0.19,0.446-0.577,0.845l0.045,0.066
		c0,0.031-0.052,0.083-0.156,0.156c0.208-0.059,0.423-0.111,0.646-0.156c0.504-0.43,1.01-0.66,1.515-0.689
		c0.474-0.252,0.972-0.406,1.489-0.467c0.521-0.207,1.025-0.312,1.515-0.312c-0.429,0.164-0.882,0.395-1.356,0.691
		c0.978-0.52,1.728-0.758,2.246-0.713c-0.059,0.03-0.43,0.259-1.111,0.689c0.207-0.015,0.408,0.007,0.601,0.065
		c0.431-0.075,0.875-0.065,1.335,0.022l-0.066,0.089c-0.147-0.013-0.377,0.03-0.688,0.135c0.119,0.029,0.207,0.074,0.267,0.134
		c0.654-0.162,1.188-0.156,1.603,0.021c-0.029,0.031-0.119,0.074-0.269,0.134c-0.235,0-0.524,0.052-0.865,0.157
		c0.119,0.043,0.251,0.133,0.398,0.266c0.254,0.016,0.461,0.082,0.623,0.201c0.12,0.016,0.238,0.045,0.356,0.088
		c0.387,0.148,0.765,0.32,1.135,0.512l-0.022,0.045c-0.043,0-0.119,0.008-0.222,0.023l-0.11-0.047
		c0.252,0.163,0.49,0.343,0.711,0.533c-0.297-0.028-0.756-0.133-1.379-0.312c0.059,0.089,0.127,0.163,0.201,0.224
		c0.607,0.179,1.223,0.377,1.846,0.601c-0.043,0.074-0.223,0.11-0.534,0.11c-0.073-0.015-0.392-0.104-0.956-0.266
		c1.408,0.578,2.107,1.016,2.092,1.312c0.016,0.104,0.016,0.178,0,0.222l-0.134,0.022c0.46,0.281,0.688,0.498,0.688,0.646
		c0,0.119-0.021,0.192-0.066,0.224l-0.045,0.021c-0.413-0.342-0.941-0.705-1.579-1.091c0.252,0.325,0.481,0.675,0.69,1.046
		c0.088,0.059,0.192,0.14,0.312,0.244c1.039,0.787,1.563,1.262,1.579,1.425c0.016,0.267-0.11,0.356-0.379,0.267
		c-0.104-0.252-0.451-0.63-1.045-1.135c0.207,0.326,0.399,0.684,0.578,1.068c0.074,0.089,0.127,0.208,0.156,0.355
		c0.311,0.268,0.645,0.58,1.001,0.936l-0.267,0.089c-0.135-0.149-0.262-0.253-0.379-0.312c0.117,0.223,0.236,0.475,0.355,0.756
		c0.104,0.076,0.193,0.164,0.268,0.268l-0.111,0.045c0.089,0.117,0.148,0.237,0.18,0.355c0.117,0.103,0.229,0.235,0.332,0.399
		c0.579,0.742,0.868,1.158,0.868,1.246v0.179l-0.11,0.022c-0.179-0.283-0.371-0.535-0.578-0.759
		c0.043,0.061,0.065,0.142,0.065,0.246c-0.001-0.028-0.017-0.045-0.045-0.045c0.029,0.002,0.036,0.031,0.022,0.09
		c0.238,0.281,0.52,0.682,0.846,1.201c0.578,0.875,0.859,1.379,0.846,1.513c0.029,0.224,0.029,0.291,0,0.2l-0.045-0.021
		c0.014,0.029,0.021,0.05,0.021,0.065l-0.021,0.021c0.236,0.416,0.35,0.711,0.334,0.891c0.03,0.117,0.03,0.186,0,0.199
		c0,0.016-0.021,0.039-0.066,0.066h-0.104c-0.248-0.467-0.493-0.887-0.733-1.256c0.008,0.02,0.015,0.039,0.021,0.057
		c0.222,0.355,0.341,0.571,0.356,0.645c0.519,0.83,0.771,1.41,0.757,1.736c0.03,0.192,0.022,0.252-0.022,0.176l-0.154-0.043
		c-0.074-0.342-0.283-0.824-0.625-1.446c0.045,0.179,0.09,0.342,0.135,0.489c0.369,0.875,0.557,1.433,0.557,1.67
		c0.014,0.074,0.021,0.154,0.021,0.242c0.029,0.076,0.037,0.172,0.022,0.291c0.015,0.207,0,0.326-0.045,0.355l-0.11-0.021
		c-0.016-0.135-0.037-0.26-0.066-0.379c0,0.031-0.008,0.074-0.023,0.133c0.045,0.252,0.082,0.431,0.112,0.535
		c-0.015,0.178-0.03,0.326-0.045,0.443v0.045c0,0.031,0,0.082,0,0.156c0,0.133-0.006,0.223-0.022,0.268
		c-0.076-0.029-0.148-0.08-0.223-0.156c0.016-0.071,0.016-0.153,0-0.244c-0.059,0.371-0.148,0.847-0.268,1.425
		c0,0.045-0.006,0.104-0.021,0.178c0.029,0.461,0.037,0.8,0.021,1.022h-0.045c-0.043-0.103-0.08-0.235-0.109-0.399
		c-0.076,0.399-0.164,0.815-0.268,1.246c-0.328,1.826-0.861,3.321-1.603,4.496c-0.728,1.14-1.558,1.957-2.493,2.446
		c-0.936,0.43-2.507,1.135-4.718,2.113l-1.513-0.066c-0.135-0.028-0.223-0.065-0.268-0.11c-0.059-0.058-0.096-0.207-0.111-0.444
		c-0.015-0.236,0.016-0.416,0.088-0.533c0.092-0.119,0.127-0.201,0.113-0.246c-0.385,0.594-0.935,0.883-1.647,0.869
		c-0.636-0.09-0.897-0.467-0.778-1.135l0.09-0.068c0.178-0.473,0.481-0.697,0.911-0.666c0.179,0,0.327,0.005,0.446,0.021
		c0.385-0.252,0.77-0.521,1.156-0.801c0.179-0.265,0.377-0.541,0.601-0.824l0.312-0.532c0.179-0.179,0.399-0.252,0.668-0.224
		c0.281-0.09,0.511-0.14,0.689-0.155c0.044-0.046,0.073-0.066,0.088-0.066c0.075-0.236,0.135-0.385,0.18-0.445
		c0.119-0.221,0.319-0.512,0.601-0.867c0.371-0.371,0.64-0.623,0.802-0.756c0-0.031,0.125-0.141,0.377-0.334
		c0.164-0.164,0.275-0.305,0.334-0.424c0.12-0.371,0.252-0.66,0.401-0.867c0.297-0.371,0.497-0.652,0.601-0.846
		c0.045-0.074,0.09-0.111,0.133-0.111c0.045-0.12,0.074-0.207,0.09-0.268c-0.028-0.045-0.065-0.088-0.11-0.133
		c-0.074-0.148-0.11-0.268-0.11-0.355c-0.016-0.134,0.028-0.379,0.133-0.734c-0.088-0.356-0.199-0.793-0.334-1.312V148.6
		c0.029-0.119,0.082-0.194,0.155-0.224c-0.044-0.017-0.17-0.207-0.378-0.578c-0.223-0.386-0.297-0.741-0.223-1.067
		c-0.044-0.252,0.031-0.453,0.223-0.601c-0.162,0-0.281-0.03-0.357-0.092c-0.058-0.043-0.258-0.177-0.6-0.399
		c-0.371-0.296-0.527-0.578-0.468-0.845l-0.021-0.021c-0.89-0.076-1.344-0.313-1.358-0.713c-0.015-0.09-0.021-0.156-0.021-0.201
		c-0.016,0-0.045,0.007-0.09,0.022c-0.162-0.06-0.259-0.015-0.289,0.134c-0.014,0.207-0.051,0.34-0.111,0.399
		c-0.043,0.045-0.186,0.142-0.422,0.289c-0.194,0.12-0.283,0.209-0.268,0.269c0,0.043,0.044,0.192,0.133,0.444
		c-0.06,0.192-0.215,0.603-0.468,1.226c-0.207,0.592-0.521,0.785-0.935,0.575c-0.371-0.176-0.594-0.665-0.668-1.469
		c-0.029-0.844-0.11-1.371-0.244-1.58c-0.104-0.235-0.215-0.925-0.334-2.067c-0.059-0.607-0.096-1.136-0.11-1.58
		c-0.134-0.06-0.542-0.17-1.224-0.334h-0.047l-0.064,0.09l0.533,0.734v0.178c-0.105-0.029-0.549-0.045-1.335-0.045
		c-0.579,0.016-1.104,0.016-1.579,0c-0.104,0.028-0.201,0.061-0.29,0.09c0.252,0.045,0.542,0.095,0.868,0.154l0.177,0.155
		l-0.044,0.136l-0.891-0.046c-0.162-0.016-0.519-0.045-1.067-0.09l0.179,0.067c0.252,0.104,0.445,0.179,0.578,0.222
		c0.268,0.119,0.423,0.222,0.467,0.312l-0.044,0.156h-0.556l-1.292-0.312l-0.021,0.022h0.021c0.698,0.266,1.083,0.438,1.157,0.512
		c-0.045,0.074-0.141,0.117-0.288,0.134c-0.149-0.029-0.356,0.03-0.623,0.178c-0.312,0.103-1.306,0.14-2.981,0.11
		c0.162,0.238,0.215,0.38,0.155,0.425l-0.558,0.043c-0.072-0.015-0.267-0.06-0.578-0.134c-0.355-0.057-0.822-0.11-1.401-0.155v0.022
		c0.163,0.028,0.371,0.104,0.623,0.224c0.548,0.178,0.89,0.369,1.022,0.578c-0.221,0-0.601,0.007-1.135,0.021
		c-0.638,0-1.246,0.023-1.824,0.066c0.016,0.015,0,0.052-0.045,0.111c-0.029,0.073-0.074,0.127-0.133,0.155h-0.625l-0.021-0.021
		c-0.179,0.045-0.334,0.074-0.468,0.088h-1.357v0.246c-0.031,0.133-0.134,0.228-0.312,0.289l-1.535-0.379
		c-0.459,0.355-0.815,0.541-1.067,0.557c-0.505,0.043-0.92-0.068-1.247-0.334l-0.178-0.021c0.016,0.074,0.009,0.125-0.021,0.154
		c0.016,0.031-0.006,0.082-0.066,0.156c0.074,0,0.119,0.021,0.135,0.066c0.163,0.045,0.268,0.11,0.311,0.201
		c-0.029,0.014-0.074,0.036-0.134,0.065c-0.058,0.058-0.14,0.082-0.243,0.065c-0.074,0.017-0.209-0.014-0.4-0.088
		c0.015-0.016,0.015-0.029,0-0.045c-0.059-0.061-0.141-0.09-0.245-0.09c-0.045-0.014-0.074-0.014-0.089,0l-0.49,0.178
		c-0.311,0.119-0.518,0.18-0.622,0.18c-0.178,0-0.364,0.015-0.558,0.044c-0.147,0.015-0.297,0.038-0.444,0.067
		c-0.06-0.047-0.378-0.209-0.957-0.492c-0.088,0.136-0.185,0.232-0.288,0.291c-0.029-0.014-0.066-0.014-0.111,0
		c0,0.017-0.008,0.09-0.021,0.224c-0.03,0.09-0.193,0.133-0.489,0.133c-0.073,0-0.157-0.037-0.245-0.11
		c-0.074,0.104-0.164,0.155-0.268,0.155c-0.119-0.015-0.215,0.06-0.289,0.224c-0.46,1.721-0.602,3.248-0.424,4.584l-0.178,0.533
		c-1.067,0.416-1.75,1.387-2.047,2.916c-0.104,0.534-0.164,1.06-0.179,1.579c0.088,0.343,0.134,0.677,0.134,1.003
		c0.075,0.103,0.163,0.198,0.268,0.286c-0.118-0.043-0.237-0.125-0.356-0.243l-0.021-0.021c-0.03-0.031-0.037-0.051-0.022-0.066
		c0-0.015-0.015-0.037-0.045-0.068c-0.044,0.326-0.097,0.824-0.155,1.492c-0.014,0.117-0.021,0.236-0.021,0.355
		c0.119,0.178,0.253,0.35,0.4,0.512c-0.029,0.09-0.061,0.164-0.091,0.223c-0.132-0.09-0.266-0.2-0.399-0.332
		c-0.045,0.147-0.088,0.267-0.133,0.354l-0.267-0.244c-0.074-0.045-0.141-0.215-0.2-0.512c-0.03-0.149-0.067-0.252-0.112-0.312
		c-0.014-0.061-0.044-0.119-0.088-0.18l-0.111,0.289c0.031,0.387,0.088,0.928,0.179,1.625c0,0.075,0.007,0.148,0.021,0.223
		c0.075,0.104,0.135,0.223,0.179,0.355l-0.044,0.068c-0.031-0.061-0.074-0.127-0.135-0.201c0,0.09,0,0.164,0,0.223
		c0.179,0.312,0.387,0.624,0.624,0.936c-0.237-0.164-0.454-0.342-0.645-0.534c0,0.09,0,0.17,0,0.245
		c-0.075,0.015-0.187-0.053-0.334-0.2c0,0.073,0,0.14,0,0.2c0.044,0.178,0.103,0.406,0.177,0.689l-0.111,0.133
		c-0.014,0.252-0.044,0.504-0.089,0.756l-0.022,0.136l-0.044-0.023c0.164,0.476,0.267,0.878,0.313,1.203v0.065
		c-0.133-0.268-0.26-0.504-0.379-0.713c0,0.209,0,0.424,0,0.646l-0.223,0.756l-0.066-0.021c0,0.177-0.015,0.34-0.045,0.487
		l-0.021,0.068c0-0.031-0.083-0.23-0.245-0.604h-0.023c-0.013-0.102-0.037-0.184-0.064-0.244c-0.164-0.488-0.424-1.209-0.78-2.158
		c0.015,0.297,0.052,0.615,0.111,0.957c0.209,0.504,0.483,1.188,0.823,2.049l-0.021,0.043c0.09,0,0.037,0.023-0.156,0.066
		c-0.177-0.014-0.341-0.12-0.488-0.312c-0.015,0.343-0.037,0.677-0.066,1l-0.09,0.091c-0.088-0.388-0.221-1.136-0.399-2.248
		c-0.178-0.476-0.325-1.045-0.446-1.713c-0.027,0.061-0.049,0.133-0.064,0.223v0.021c0.178,0.861,0.445,2.234,0.8,4.117
		c0.062,0.133,0.134,0.26,0.224,0.379l-0.09,0.11c-0.104-0.18-0.191-0.319-0.267-0.422c-0.089-0.209-0.171-0.356-0.245-0.446
		c0.104,0.312,0.223,0.633,0.355,0.957c-0.252-0.548-0.475-1.069-0.666-1.558c-0.104-0.192-0.201-0.371-0.291-0.533
		c0.031,0.459,0.076,0.869,0.134,1.224c0.104,0.267,0.253,0.556,0.444,0.867l-0.021,0.045c-0.09-0.058-0.164-0.127-0.224-0.201
		c0.074,0.166,0.142,0.345,0.201,0.535c0.295,0.342,0.66,0.771,1.09,1.291c0.014,0.088-0.074,0.14-0.268,0.155
		c-0.148,0-0.289-0.036-0.423-0.11c-0.399-0.017-0.771-0.144-1.112-0.379c-0.029,0.207-0.051,0.399-0.066,0.578
		c0.4,0.43,0.912,0.973,1.535,1.625c-0.016,0.058-0.11,0.082-0.289,0.065c-0.37,0.029-0.735-0.111-1.09-0.422
		c0.164,0.162,0.363,0.364,0.601,0.6c0.075,0.074,0.142,0.141,0.2,0.201l0.045,0.334l-0.066,0.156
		c-0.045,0.029-0.082,0.08-0.111,0.154c-0.045,0-0.096,0.007-0.155,0.023c0.089,0.088,0.2,0.178,0.334,0.266
		c-0.089,0.119-0.222,0.193-0.4,0.223c-0.192,0-0.386-0.05-0.577-0.154c-0.045-0.03-0.076-0.045-0.091-0.045
		c0.046,0.133,0.119,0.237,0.224,0.312h-0.022c0.104,0.12,0.208,0.209,0.312,0.269c0.061,0.073,0.054,0.139-0.021,0.2
		c0.163-0.045,0.288-0.075,0.378-0.09c0.016,0.06,0.016,0.133,0,0.224c0,0.028,0,0.059,0,0.088
		c-0.045,0.104-0.119,0.201-0.223,0.291c0.92,0.013,2.002-0.078,3.249-0.269c1.365,0.252,2.396,0.541,3.094,0.867
		c0.787,0.312,2.314,0.726,4.584,1.246c0.652,0.815,1.706,1.772,3.16,2.87c0.725,0.475,0.971,1.209,0.734,2.203
		c-0.193,0.756-0.734,1.238-1.625,1.445c-0.904,0.223-2.248,0.193-4.027-0.088l-5.407,0.311c-0.684-0.103-1.076-0.311-1.18-0.623
		c-0.044-0.104-0.038-0.289,0.023-0.557c0.057-0.236,0.429-0.541,1.112-0.912c0.771-0.445,1.43-0.623,1.979-0.533
		c-0.029-0.209-0.11-0.354-0.244-0.444c-1.157,0.476-3.702,0.772-7.632,0.892c-5.966,0.131-9.504,0.264-10.617,0.399l-2.224-0.354
		c-0.386-0.119-0.601-0.343-0.646-0.668c-0.03-0.104,0-0.312,0.09-0.623c0.044-0.328,0.176-0.586,0.4-0.779
		c0.028-0.016,0.065-0.029,0.11-0.045c0-0.029,0-0.066,0-0.111c0-0.193,0.111-0.652,0.334-1.379
		c-0.178,0.164-0.364,0.332-0.558,0.512c-0.043,0.119-0.051,0.074-0.021-0.133c0.029-0.105,0.282-0.395,0.756-0.869
		c0.016-0.029,0.023-0.052,0.023-0.066c-0.016-0.015-0.03-0.022-0.044-0.022c-0.075,0-0.127-0.021-0.156-0.063
		c0,0.072,0.015,0.148,0.044,0.221c-0.164-0.059-0.326-0.178-0.488-0.355c-0.148-0.014-0.283-0.014-0.4,0l-0.667-0.289
		c0.162,0.623,0.362,1.297,0.601,2.025l-0.201,0.289c-0.045,0.029-0.074,0.045-0.088,0.045c-0.031,0.015-0.074,0.021-0.135,0.021
		c-0.044-0.031-0.141-0.216-0.29-0.558l-0.021,0.11c-0.223,0.148-0.424,0.23-0.6,0.244l-0.023-0.021
		c-0.088,0.017-0.162,0.031-0.223,0.045c0,0.162,0.036,0.296,0.111,0.399c0,0.121,0.036,0.224,0.109,0.312l-0.133,0.156
		c-0.059,0.017-0.141,0.017-0.244,0c-0.074,0-0.127-0.097-0.156-0.289c-0.163-0.03-0.296-0.074-0.398-0.135
		c-0.225-0.072-0.432-0.281-0.625-0.621c-0.162-0.062-0.326-0.119-0.488-0.181c0.134,0.506,0.311,0.869,0.533,1.092l-0.111,0.179
		c-0.178-0.089-0.325-0.207-0.444-0.356c0.192,0.608,0.431,0.979,0.712,1.112l-0.021,0.065c-0.252,0.283-0.445,0.387-0.578,0.312
		c-0.045,0-0.096-0.029-0.156-0.09c-0.104,0.016-0.193-0.021-0.268-0.111H77.86c-0.475-0.235-0.882-1.134-1.225-2.69
		c-0.029,0.043-0.037,0.038-0.021-0.023c-0.105,0.048-0.179,0.091-0.223,0.136v0.021c0.058,0.312,0.105,0.631,0.133,0.957
		c0.104,0.133,0.253,0.291,0.443,0.467c-0.014,0.164-0.059,0.224-0.133,0.179c-0.088-0.043-0.154-0.096-0.201-0.154
		c0.105,0.859,0.164,1.535,0.18,2.023l-0.088,0.135c-0.016,0-0.03,0-0.045,0c-0.029,0.029-0.066,0.021-0.111-0.021
		c-0.134-0.061-0.281-0.543-0.445-1.447c-0.104-0.416-0.162-0.793-0.178-1.135c-0.208-0.193-0.393-0.395-0.556-0.6l-0.067,0.133
		c0.029,0.043,0.059,0.09,0.088,0.133c0.104,1.646,0.239,2.797,0.401,3.449l-0.156,0.244c-0.06,0.061-0.11,0.074-0.153,0.045
		c-0.104,0-0.186-0.111-0.246-0.334c-0.088-0.014-0.155-0.045-0.2-0.088c-0.208-0.032-0.326-0.215-0.355-0.558
		c0,0.149,0.015,0.306,0.044,0.468l-0.088,0.11c-0.046,0.062-0.105,0.038-0.179-0.065c-0.103-0.029-0.2-0.26-0.29-0.689
		l-0.043,0.021c0-0.059-0.008-0.082-0.023-0.066h-0.021l-0.09,0.178c-0.012-0.119-0.021-0.23-0.021-0.334
		c-0.072-0.12-0.133-0.223-0.177-0.311c-0.015,0.014-0.052,0.059-0.111,0.133c-0.09,0.4-0.141,0.779-0.157,1.135l-0.064,0.09
		c-0.061-0.135-0.074-0.291-0.045-0.469c-0.045,0-0.09-0.005-0.133-0.021c-0.106,0.772-0.068,1.246,0.109,1.424
		c-0.016,0.029-0.044,0.097-0.09,0.201c0,0.074,0.03,0.111,0.09,0.111l-0.09,0.154c-0.027-0.043-0.05-0.096-0.066-0.154
		c-0.103,0.059-0.192,0.074-0.267,0.043c-0.06-0.029-0.089-0.125-0.089-0.289c-0.326-0.371-0.57-0.875-0.734-1.512
		c-0.029,0.059-0.052,0.104-0.066,0.133c-0.03,0.281-0.022,0.52,0.023,0.713l-0.179,0.133c-0.017-0.177-0.008-0.437,0.021-0.778
		c-0.014,0-0.021-0.007-0.021-0.021c-0.091-0.016-0.119-0.186-0.091-0.512c-0.178,1.304-0.178,2.231,0,2.781l-0.154,0.088
		c-0.236-0.593-0.273-1.528-0.111-2.804c0.015-0.09,0.021-0.185,0.021-0.289c-0.268,0.252-0.549,0.349-0.846,0.289l-0.268-0.2
		l0.334-1.669l-2.736-2.735c-12.435,7.92-14.092-9.971-4.975-53.673c0.276-9.096,2.875-17.359,7.801-24.79
		c0.223-0.357,0.459-0.694,0.711-1.013c2.512-2.277,4.898-3.498,7.166-3.66c-0.236,1.602,0.498,3.374,2.203,5.318
		c1.512-0.149,2.885-0.126,4.116,0.067c1.513,0.207,2.604,0.548,3.271,1.023C89.617,98.362,90.87,98.213,92.144,98.286z
		 M112.24,135.671l-0.066-0.223c0,0.03,0,0.06,0,0.089C112.188,135.582,112.211,135.626,112.24,135.671z M91.747,131.643
		c-0.104-0.281-0.209-0.55-0.312-0.802c0.134,0.579,0.186,1.335,0.156,2.271c0.045-0.163,0.096-0.273,0.156-0.334
		C91.747,132.35,91.747,131.969,91.747,131.643z M93.46,136.07c-0.029,0.328-0.104,0.728-0.224,1.203
		c-0.176,0.918-0.296,1.58-0.354,1.979c-0.135,0.043-0.229,0.06-0.289,0.043c0-0.06-0.006-0.132-0.022-0.221
		c0.029-0.371,0.037-0.705,0.022-1.002c0,0.282-0.03,0.608-0.09,0.979c-0.088,0.832-0.207,1.759-0.355,2.781
		c0.179-0.088,0.348-0.179,0.512-0.267c0.045-0.608,0.178-1.438,0.401-2.491c0.028-0.074,0.036-0.127,0.021-0.156
		c0.045-0.163,0.074-0.319,0.09-0.467c0.028-0.074,0.045-0.142,0.045-0.201c0.043-0.044,0.059-0.081,0.043-0.11
		c0.031-0.029,0.039-0.051,0.023-0.066c0.104-0.668,0.178-1.202,0.223-1.604c0.014-0.162,0.021-0.296,0.021-0.4
		C93.511,136.07,93.488,136.07,93.46,136.07z M92.524,136.159h-0.021c-0.104,0.118-0.246,0.215-0.424,0.29
		c-0.191,0.044-0.26,0.021-0.199-0.067c0-0.356-0.008-0.69-0.022-1.002c-0.177-0.37-0.282-0.845-0.312-1.424
		c-0.029,0.505-0.088,1.062-0.178,1.669c-0.281,2.077-0.66,3.909-1.135,5.497c-0.178,0.653-0.4,1.396-0.668,2.226
		c0.755-0.475,1.543-0.926,2.359-1.357c-0.03-0.119-0.037-0.26-0.023-0.422C92.184,139.268,92.391,137.466,92.524,136.159
		L92.524,136.159z M135.096,133.557c0.029,0,0.051,0.016,0.066,0.045c0.592,0.312,1.045,0.578,1.356,0.801
		c-0.029-0.281-0.571-0.668-1.624-1.157C134.967,133.363,135.034,133.468,135.096,133.557z M123.078,141.68
		c-0.015-0.015-0.029-0.022-0.044-0.022l0.022,0.022H123.078z M82.82,172.342c0.075,0.076,0.149,0.119,0.224,0.135
		c0.224,0.193,0.459,0.355,0.713,0.49c0.029-0.076,0.059-0.135,0.088-0.18c-0.045-0.074-0.096-0.141-0.155-0.199
		c-0.029-0.061-0.067-0.141-0.11-0.246c-0.222,0.076-0.453,0.076-0.689,0c-0.03-0.014-0.061-0.029-0.09-0.043
		C82.8,172.312,82.808,172.328,82.82,172.342z M80.263,175.189l-0.043-0.043c0.029,0.09,0.059,0.148,0.089,0.178
		C80.294,175.295,80.278,175.25,80.263,175.189z M83.333,173.945c0.018,0,0.03,0.007,0.047,0.021
		c0.014-0.028,0.027-0.05,0.043-0.065C83.38,173.93,83.351,173.943,83.333,173.945z M83.29,173.59
		c-0.297-0.09-0.549-0.172-0.756-0.246c0.075,0.178,0.178,0.357,0.311,0.535c0.134-0.074,0.283-0.164,0.445-0.268V173.59z
		 M83.247,174.391c-0.074-0.016-0.141-0.029-0.201-0.047c0.045,0.076,0.082,0.158,0.111,0.246
		C83.187,174.516,83.216,174.449,83.247,174.391z M74.657,180.02c-0.074-0.268-0.105-0.631-0.09-1.09l-0.111,0.244
		C74.485,179.441,74.552,179.723,74.657,180.02z M80.13,175.971l-0.045,0.065c0.061,0.164,0.135,0.282,0.224,0.356
		c0.016,0.029,0.044,0.037,0.089,0.021c0.016,0,0.008,0.039-0.021,0.113c0.133,0.207,0.289,0.303,0.467,0.287
		c-0.06-0.148-0.148-0.34-0.268-0.578C80.294,176.162,80.146,176.074,80.13,175.971z M72.876,178.863
		c0,0.044-0.006,0.111-0.021,0.199c0.044,0.059,0.088,0.127,0.133,0.201c0-0.135,0-0.273,0-0.424
		C72.972,178.84,72.936,178.848,72.876,178.863z M72.921,179.954h-0.022v0.021L72.921,179.954z M72.831,179.889
		c-0.043-0.104-0.088-0.193-0.134-0.268c-0.028,0.074-0.073,0.14-0.133,0.201c0,0.015-0.015,0.035-0.044,0.066
		c0,0.014-0.008,0.028-0.021,0.045c0.088,0.577,0.221,1.045,0.399,1.399c0-0.119,0.015-0.244,0.044-0.377l-0.088,0.153
		c0-0.311,0.006-0.637,0.021-0.979l-0.111,0.021L72.831,179.889z M94.55,171.564c-0.073-0.031-0.133-0.053-0.178-0.068
		c0,0.015,0.022,0.052,0.066,0.113c0.061,0.059,0.119,0.104,0.178,0.133c0.014,0,0.038,0,0.067,0
		C94.609,171.668,94.565,171.609,94.55,171.564z M95.951,169.516c0-0.043-0.015-0.096-0.044-0.154
		c-0.074-0.164-0.162-0.326-0.267-0.49c0.014,0.09,0.014,0.201,0,0.334C95.759,169.293,95.863,169.398,95.951,169.516z
		 M95.796,167.492c0.045,0.281,0.097,0.549,0.155,0.801c0,0.014,0.022,0.029,0.067,0.043
		C95.944,168.07,95.87,167.787,95.796,167.492z M96.597,166.268c-0.029-0.043-0.045-0.104-0.045-0.178
		c-0.074-0.119-0.139-0.223-0.2-0.311c0.062,0.191,0.104,0.393,0.134,0.6c0,0.016,0.021,0.045,0.066,0.088l0.09,0.09
		C96.611,166.467,96.597,166.371,96.597,166.268z M96.442,164.666c0.014,0.045,0.027,0.109,0.043,0.201
		c0,0.013,0.007,0.037,0.021,0.066c0-0.148,0-0.268,0-0.357C96.449,164.592,96.427,164.621,96.442,164.666z M96.798,163.799
		c0,0.104,0.008,0.221,0.022,0.355c0,0.029,0.022,0.09,0.067,0.178c0.043,0.117,0.104,0.238,0.177,0.355
		c-0.103-0.326-0.192-0.727-0.267-1.201c-0.03,0.045-0.045,0.104-0.045,0.178C96.738,163.695,96.753,163.738,96.798,163.799z
		 M97.688,160.568c0.133,0.223,0.267,0.506,0.399,0.846c-0.014-0.162-0.037-0.326-0.066-0.488c0-0.089-0.016-0.193-0.044-0.312
		c-0.06-0.177-0.119-0.296-0.179-0.355l-0.021-0.021C97.747,160.311,97.716,160.422,97.688,160.568z M100.869,156.499
		c0.016,0,0.03,0.009,0.045,0.022c-0.014-0.028-0.021-0.061-0.021-0.09C100.877,156.447,100.869,156.469,100.869,156.499z
		 M73.409,179.619c-0.059,0.222-0.096,0.385-0.109,0.49c0,0.043,0.029,0.074,0.088,0.088
		C73.374,180.064,73.38,179.871,73.409,179.619z"/>
	<path d="M80.39,87.348c3.025-1.781,5.34-2.619,6.941-2.515c0.506-0.193,1.047-0.364,1.625-0.512c0.09-0.074,0.17-0.134,0.244-0.178
		c-0.326,0.06-0.57,0.119-0.734,0.178c0.92-0.356,2.145-0.667,3.672-0.935c0.06-0.014,0.127-0.029,0.201-0.044
		c0.178-0.133,0.318-0.252,0.422-0.356h0.09c-0.09,0.119-0.186,0.223-0.289,0.312c1.454-0.253,2.3-0.416,2.535-0.49
		c-0.443,0.312-1.096,0.556-1.956,0.734v0.022c0.206-0.029,0.399-0.059,0.579-0.089c0.918-0.355,1.481-0.519,1.689-0.489
		c-0.193,0.133-0.468,0.267-0.824,0.4c0.594-0.029,1.143,0.037,1.647,0.201c-0.104,0.06-0.438,0.119-1.001,0.178
		c0.252-0.015,0.52-0.03,0.801-0.044c0.92-0.031,1.654,0.081,2.202,0.333c0.476,0.029,0.892,0.155,1.247,0.378
		c0.075,0.03,0.135,0.074,0.179,0.134c0.252-0.015,0.4-0.023,0.444-0.023c-0.014,0.015-0.007,0.03,0.023,0.045
		c-0.09,0.029-0.201,0.059-0.334,0.089c0.118,0.088,0.216,0.193,0.289,0.311c0.045-0.015,0.081-0.015,0.111,0
		c-0.03,0.015-0.06,0.015-0.09,0c0.134,0.179,0.245,0.364,0.334,0.557c0.045,0.029,0.09,0.052,0.135,0.066
		c0.146,0,0.297,0.008,0.444,0.023c0.178,0.014,0.319,0.029,0.423,0.044l-0.021,0.022c0.119,0.03,0.223,0.052,0.312,0.067
		c0.133,0.015,0.251,0.037,0.354,0.066c-0.474-0.237-1.022-0.408-1.646-0.512c0.787,0.03,1.462,0.223,2.024,0.579
		c0.252,0.059,0.438,0.111,0.557,0.156c0.447,0.118,0.839,0.289,1.181,0.511l-0.046,0.023c-0.445-0.149-0.859-0.282-1.246-0.401
		c0.061,0.059,0.105,0.119,0.135,0.178c0.237,0.208,0.431,0.401,0.578,0.579c0.074,0.029,0.118,0.044,0.133,0.044l-0.021,0.023
		c0.371,0.103,0.711,0.185,1.022,0.244c0,0.074-0.236,0.066-0.713-0.022c-0.074,0-0.147-0.015-0.222-0.045
		c0.03,0.12,0.074,0.216,0.134,0.29c0.311,0.089,0.543,0.163,0.69,0.222c0.235,0.044,0.858,0.341,1.868,0.89
		c-0.489-0.118-1.172-0.356-2.047-0.711c-0.074,0.029-0.201,0.059-0.379,0.089c0.326,0.074,0.608,0.134,0.846,0.178l-0.066,0.089
		c-0.193,0.015-0.349,0.015-0.467,0l-0.268-0.044c0,0.03-0.008,0.067-0.022,0.112c0.388,0.074,0.586,0.111,0.601,0.111v0.022
		c0.09-0.03,0.201-0.052,0.334-0.067l0.112,0.044c-0.06,0.015-0.194,0.059-0.401,0.133c-0.133,0.059-0.311,0.134-0.533,0.223
		c0.029,0.015,0.066,0.045,0.111,0.089c0.489-0.089,0.785-0.141,0.89-0.156c0,0.014,0.022,0.029,0.067,0.044
		c-0.312,0.09-0.595,0.156-0.847,0.201c0.044,0.06,0.091,0.119,0.134,0.178c0.014,0.074,0.021,0.156,0.021,0.245
		c0.119-0.059,0.244-0.111,0.379-0.156c0.029-0.044,0.059-0.081,0.089-0.111h0.044v0.022c0.148-0.075,0.305-0.163,0.469-0.267
		l0.065,0.044c-0.179,0.149-0.431,0.297-0.757,0.446c-0.074,0.059-0.17,0.118-0.289,0.177l0.021,0.022
		c0.192-0.043,0.356-0.103,0.489-0.177c0.461-0.237,0.733-0.356,0.824-0.356l-0.022,0.045c-0.223,0.104-0.525,0.267-0.912,0.489
		c-0.119,0-0.23,0.03-0.334,0.09c0,0.045,0.006,0.097,0.022,0.156c0.31-0.104,0.489-0.148,0.532-0.134l0.068,0.023
		c0.014,0,0.036-0.008,0.066-0.023l0.088,0.067c-0.266,0.074-0.511,0.163-0.734,0.267c0.016,0.118,0.26,0.393,0.734,0.823
		c0.475,0.431,0.49,1.172,0.045,2.226c-0.224,0.593-0.415,1.054-0.578,1.38c0.133,0.311,0.289,0.652,0.467,1.023
		c0.178,0.252,0.41,0.579,0.689,0.979c0.387,0.431,0.646,0.742,0.779,0.935c0.045,0.029,0.154,0.341,0.334,0.935
		c0.207,0.593,0.304,0.964,0.287,1.112c-0.014,0.015-0.027,0.046-0.043,0.09c0.994,0.34,1.736,0.949,2.226,1.823
		c0.028,0,0.051,0,0.065,0c0,0.015-0.015,0.037-0.043,0.068c0.014,0,0.021,0.006,0.021,0.021c0.223,0,0.395,0.075,0.512,0.223
		c-0.117,0.015-0.244,0.037-0.379,0.067c0.03,0.044,0.051,0.096,0.066,0.154h0.021c0.014,0.06,0.039,0.133,0.067,0.224
		c0.192-0.017,0.364,0.007,0.513,0.065c-0.119,0.06-0.275,0.111-0.469,0.156c0.016,0.045,0.03,0.074,0.045,0.088
		c0.074,0.194,0.126,0.379,0.155,0.557c0.133,0.031,0.252,0.091,0.356,0.179c0.133,0.104,0.192,0.208,0.178,0.312
		c-0.061,0.164-0.326,0.393-0.801,0.689h0.021c0.281,0.074,0.408,0.207,0.378,0.4c0,0.074-0.222,0.416-0.667,1.022
		c-0.477,0.668-0.773,1.165-0.891,1.492c0,0.028-0.016,0.08-0.045,0.153c0.104,0.148,0.215,0.283,0.334,0.4
		c-0.133-0.104-0.26-0.207-0.379-0.311c-0.045,0.058-0.08,0.14-0.11,0.244c0.178,0.371,0.252,0.623,0.222,0.757
		c-0.029,0.149-0.058,0.179-0.088,0.089c-0.029-0.104-0.074-0.199-0.134-0.289c0.06,0.164,0.118,0.334,0.178,0.512
		c-0.089-0.119-0.178-0.273-0.267-0.467c-0.029,0.075-0.066,0.163-0.111,0.268c-0.029,0.119-0.066,0.215-0.111,0.289
		c0.164,0.414,0.291,0.733,0.379,0.957c-0.179-0.238-0.334-0.475-0.468-0.713c0,0.029-0.015,0.045-0.045,0.045
		c0.045,0.104,0.082,0.215,0.111,0.334l-0.045,0.021c0.03,0.164,0.081,0.35,0.155,0.557l-0.199,0.066
		c0.029-0.178,0-0.438-0.09-0.779l-0.021-0.021c0,0.017-0.017,0.029-0.046,0.045c0.059,0.119,0.096,0.244,0.111,0.379
		c-0.014,0.134-0.065,0.214-0.156,0.244c0-0.133-0.02-0.281-0.066-0.444c-0.029,0.028-0.074,0.065-0.133,0.11
		c0.148,0.207,0.215,0.349,0.199,0.423c-0.014,0.045-0.029,0.082-0.043,0.112c0.104,0.295,0.14,0.504,0.109,0.621
		c-0.028,0.121-0.051,0.209-0.066,0.269l-0.11-0.091c-0.03-0.266-0.11-0.578-0.243-0.934h-0.022l-0.045-0.201
		c-0.03,0.03-0.074,0.067-0.134,0.111c0.043,0.09,0.066,0.156,0.066,0.201c-0.029,0.088-0.051,0.156-0.066,0.201
		c0.016,0.013,0.016,0.021,0,0.021c0.223,0.341,0.394,0.623,0.513,0.847c-0.194-0.224-0.349-0.424-0.47-0.603
		c0.017,0.074,0.01,0.14-0.021,0.201v0.133c-0.017,0-0.028,0.007-0.044,0.021l-0.066-0.021c0.104,0.343,0.155,0.579,0.155,0.713
		c-0.045,0.149-0.081,0.179-0.11,0.089c-0.015-0.252-0.133-0.623-0.356-1.113c-0.06,0.074-0.119,0.156-0.179,0.246
		c0.09,0.281,0.193,0.555,0.312,0.822l-0.134,0.022c-0.162-0.238-0.334-0.513-0.513-0.824c0.135,0.578,0.186,0.949,0.156,1.113
		c-0.015,0.015-0.021,0.028-0.021,0.045c0.089,0.266,0.125,0.437,0.111,0.511l-0.045,0.155c-0.029-0.015-0.045-0.015-0.045,0
		l-0.134-0.021c-0.014-0.06-0.133-0.371-0.356-0.936c0.135,0.402,0.195,0.615,0.179,0.646c-0.015,0.104-0.037,0.17-0.065,0.2
		c-0.015,0.029-0.037,0.043-0.068,0.043l-0.154-0.043c-0.207-0.815-0.371-1.469-0.488-1.959c-0.061,0.015-0.119,0.037-0.18,0.066
		c0.016,0.045,0.016,0.09,0,0.134c0.223,0.667,0.453,1.438,0.689,2.312L106,113.133l-0.201-0.045
		c-0.104-0.311-0.207-0.592-0.312-0.846v0.023c0.045,0.104,0.082,0.215,0.111,0.334l-0.111,0.178
		c-0.09-0.09-0.163-0.186-0.224-0.289c0.061,0.252,0.091,0.422,0.091,0.512c-0.06,0.178-0.112,0.296-0.156,0.355l-0.223-0.043
		c-0.075-0.238-0.149-0.469-0.224-0.691l-0.178-0.021c0-0.029-0.007-0.097-0.023-0.201l-0.021-0.021c0-0.029,0-0.051,0-0.066
		c0-0.088,0-0.192,0-0.312c-0.03,0-0.062-0.015-0.09-0.045c-0.03-0.104-0.11-0.401-0.244-0.89c-0.015-0.06-0.037-0.11-0.065-0.155
		c-0.061,0.028-0.143,0.051-0.246,0.065c0.488,1.439,0.734,2.27,0.734,2.492c0.043,0.09,0.08,0.156,0.11,0.2
		c-0.06,0.06-0.11,0.081-0.155,0.067c-0.016,0.074-0.029,0.117-0.044,0.133c-0.12-0.059-0.231-0.119-0.334-0.178
		c0.06,0.028,0.149,0.045,0.267,0.045v-0.045c-0.016-0.06-0.029-0.111-0.045-0.156c-0.045-0.118-0.119-0.178-0.222-0.178
		c0-0.119-0.053-0.289-0.157-0.513c-0.014,0-0.043,0.007-0.088,0.023c0.031,0.088,0.022,0.274-0.021,0.555
		c0.089,0.208,0.134,0.356,0.134,0.445c-0.015,0.073-0.037,0.127-0.067,0.155c-0.014,0-0.043,0-0.089,0
		c-0.207-0.297-0.37-0.578-0.489-0.845c-0.028-0.03-0.065-0.046-0.111-0.046l0.223,0.512c0,0.135-0.014,0.209-0.044,0.224
		c-0.03-0.015-0.089-0.015-0.179,0c-0.268-0.356-0.52-0.72-0.756-1.091c0.045,0.207,0.089,0.438,0.133,0.689
		c-0.059,0.163-0.118,0.209-0.178,0.135c-0.074-0.164-0.148-0.49-0.223-0.979c-0.016,0.045-0.029,0.082-0.045,0.11
		c-0.074,0.104-0.186,0.156-0.334,0.156c0.09,0.534,0.135,0.816,0.135,0.846l-0.067,0.179c-0.013-0.017-0.021-0.017-0.021,0
		c-0.133-0.236-0.251-0.585-0.354-1.045c-0.09-0.031-0.141-0.068-0.156-0.111c-0.045-0.032-0.082-0.121-0.111-0.269
		c-0.029,0.046-0.052,0.074-0.066,0.089c0.045,0.668,0.06,1.039,0.045,1.112c-0.03,0.179-0.061,0.289-0.09,0.334l-0.133-0.045
		c-0.06-0.43-0.11-0.824-0.156-1.18c-0.118,0.016-0.236,0.016-0.354,0c-0.045,0-0.082-0.005-0.112-0.021
		c-0.013,0.371-0.036,0.645-0.066,0.824c-0.045,0.191-0.082,0.311-0.111,0.355l-0.134-0.023c0.045-0.295,0.029-0.703-0.045-1.223
		c-0.029,0-0.051,0.021-0.066,0.066c-0.089,0.059-0.193,0.104-0.312,0.133l0.067,1.113c-0.044,0.119-0.074,0.17-0.09,0.154
		c-0.029,0.014-0.081,0.022-0.155,0.022l-0.179-0.179c0.031-0.326,0.008-0.695-0.066-1.112c-0.147-0.043-0.266-0.095-0.354-0.154
		c0.03,0.429,0.022,0.711-0.022,0.847c-0.014,0.146-0.051,0.236-0.11,0.266h-0.155c-0.074-0.252-0.171-0.941-0.289-2.068
		c0,0.029,0,0.081,0,0.154c-0.015,0.045-0.061,0.082-0.135,0.111c0.016,0.135,0.021,0.26,0.021,0.379
		c0.089,0.623,0.111,1.037,0.068,1.246l-0.046,0.178H97.97c-0.075-0.549-0.164-1.127-0.268-1.734
		c-0.089-0.015-0.162-0.037-0.223-0.068c0.044,0.326,0.089,0.766,0.134,1.313c-0.015,0.118-0.036,0.179-0.067,0.179
		c-0.028,0.029-0.11,0.045-0.244,0.045l-0.178-0.18c-0.015-0.428-0.067-0.979-0.156-1.646c-0.014-0.059-0.021-0.116-0.021-0.178
		c-0.074-0.029-0.14-0.037-0.199-0.021c-0.029,0.133-0.052,0.289-0.068,0.467c-0.029,0.179-0.088,0.319-0.178,0.424
		c0.016,0.298,0.022,0.675,0.022,1.136c-0.017,0.116-0.045,0.185-0.088,0.198c-0.046,0.046-0.113,0.066-0.201,0.066
		c-0.089-0.371-0.155-0.78-0.2-1.224c-0.045-0.015-0.09-0.022-0.134-0.022c-0.134-0.015-0.229-0.045-0.289-0.088
		c0,0.311,0,0.497,0,0.555c-0.03,0.104-0.062,0.172-0.089,0.201c-0.044,0.044-0.127,0.081-0.245,0.11
		c-0.075-0.015-0.149-0.051-0.224-0.11c-0.014-0.49-0.036-0.919-0.066-1.291c-0.088,0.103-0.215,0.155-0.378,0.155
		c-0.044,0.236-0.081,0.416-0.11,0.533c-0.09,0.58-0.342,0.809-0.758,0.69l-0.177-0.065c-0.031-0.506,0.007-1.188,0.11-2.047
		c-0.029,0-0.065,0-0.11,0c-0.03,0.059-0.052,0.11-0.067,0.154c-0.089,0.163-0.193,0.281-0.312,0.355l-0.044,0.09
		c0.015,0.386,0.007,0.658-0.023,0.822c-0.059,0.312-0.199,0.52-0.422,0.625c-0.074-0.017-0.148-0.047-0.223-0.09
		c0.074-0.298,0.089-0.498,0.044-0.603l-0.044-0.021c-0.029,0.072-0.037,0.185-0.021,0.332c-0.031,0.135-0.134,0.223-0.312,0.27
		c-0.178-0.535-0.184-1.254-0.022-2.16c0-0.029-0.021-0.066-0.065-0.111c0,0.074-0.008,0.172-0.022,0.29
		c-0.192,0.845-0.476,1.521-0.846,2.024c-0.163-0.43-0.207-0.941-0.134-1.535l-0.021-0.021c-0.09,0-0.156-0.006-0.201-0.022
		c-0.162,0.416-0.365,0.787-0.601,1.112c-0.119-0.416-0.119-0.936,0-1.558c-0.045-0.015-0.091-0.03-0.134-0.044
		c-0.03,0-0.061-0.007-0.09-0.023c-0.029,0.091-0.066,0.186-0.11,0.289c-0.326,0.936-0.571,1.396-0.734,1.381
		c-0.163-0.045-0.223-0.073-0.179-0.09c0.029-0.52,0.061-0.867,0.09-1.045c0.059-0.297,0.164-0.689,0.312-1.18
		c-0.061,0.045-0.105,0.074-0.135,0.089c-0.014-0.044-0.021-0.118-0.021-0.223c-0.342,0.935-0.659,1.698-0.956,2.292
		c-0.091-0.045-0.157-0.082-0.201-0.111l0.224-1.023c0.059-0.221,0.148-0.563,0.267-1.022h-0.021
		c-0.074-0.016-0.111,0.022-0.111,0.111c-0.03,0.089-0.119,0.161-0.268,0.223c-0.06,0.149-0.105,0.274-0.134,0.378l-0.224-0.044
		c-0.029-0.209,0-0.549,0.09-1.022c0.029-0.254,0.096-0.521,0.199-0.803c-0.014-0.015-0.037-0.015-0.065,0
		c-0.045-0.015-0.11-0.029-0.201-0.043c-0.251,0.562-0.481,0.991-0.688,1.289c-0.09-0.074-0.148-0.111-0.178-0.111
		c0.014-0.267-0.007-0.467-0.067-0.601c-0.074-0.133-0.097-0.267-0.066-0.399c0.031-0.149,0.022-0.416-0.021-0.803
		c-0.461-0.177-0.758-0.496-0.891-0.957c-0.135-0.369-0.164-0.764-0.09-1.179c0.09-0.504,0.2-0.994,0.334-1.469
		c0.016-0.103,0.029-0.208,0.043-0.312c-1.496-1.425-2.595-3.472-3.292-6.142c-0.163-0.668-0.304-1.358-0.423-2.07
		c-0.639,0.297-1.216,0.445-1.736,0.445c-0.488,0-1.178-0.252-2.067-0.757c-0.875-0.504-1.743-0.764-2.604-0.779v1.068
		c-0.021,0-0.045,0-0.066,0c-0.178,0-1.157,0.815-2.938,2.447c-0.545,0.496-1.027,0.925-1.445,1.291l-1.869,1.558
		c-1.469,5.979-3.391,11.853-5.764,17.624l0.912-0.223l-0.134,2.336l1.778-3.672l-0.232,3.896c-0.154,0.501-0.343,1.065-0.566,1.69
		c-1.35,3.797-2.181,6.164-2.492,7.098c-0.248,0.783-0.481,1.562-0.7,2.337c-0.075,1.978-0.183,4.226-0.323,6.743
		c-0.133,2.373-0.326,5.926-0.579,10.658h-0.333c-0.369-1.551-0.703-3.871-1.001-6.965c-0.444,3.198-0.668,6.373-0.668,9.522
		c0,1.381,0.224,3.317,0.668,5.81c0.445,2.477,0.89,4.286,1.334,5.43c0.12-0.578,0.853-2.811,2.204-6.699
		c1.201-3.426,1.803-5.658,1.803-6.697c0-0.445-0.045-1.113-0.134-2.002c-0.104-1.01-0.171-1.736-0.2-2.18l0.334,0.111
		c0.297,1.778,0.444,3.112,0.444,4.004c0,2.24-0.394,4.806-1.181,7.701c-0.771,2.905-1.155,4.403-1.155,4.493
		c0,0.785,0.414,1.58,1.246,2.38c0.073,0.06,0.994,0.778,2.759,2.159c2.67,2.093,4.006,4.449,4.006,7.074
		c0,0.595-0.021,0.967-0.066,1.112c-0.06,0.193-0.221,0.342-0.489,0.445c-1.515-0.43-2.374-0.844-2.581-1.246
		c-0.104-0.207-0.578-0.312-1.424-0.312c0,0.222-0.067,0.438-0.201,0.646c-0.162,0.269-0.393,0.422-0.689,0.467
		c-0.326-0.34-0.6-0.784-0.822-1.334c-0.266-0.371-0.846-0.557-1.735-0.557c-0.415,0-0.653,0.117-0.712,0.355
		c-0.061,0.31-0.156,0.49-0.289,0.535c-0.387-0.387-0.973-1.121-1.759-2.203c-0.726-0.994-1.179-1.559-1.357-1.691
		c0,0.668-0.147,1.077-0.444,1.225c-0.428-0.809-0.873-2.532-1.334-5.176c-0.071,0.338-0.145,0.692-0.224,1.06h-0.334
		c-0.772-2.314-1.216-3.73-1.335-4.25c-0.268-1.173-0.379-2.574-0.335-4.207c-0.044,0.073-0.11,0.254-0.198,0.534
		c-0.104,0.236-0.223,0.355-0.357,0.355c-0.281-0.965-0.488-2.188-0.623-3.672c-0.104-1.66-0.192-2.885-0.266-3.672l-0.111,0.223
		c0.104,1.217,0.029,2.514-0.223,3.896l-0.224-0.224c0-1.201-0.245-3.574-0.733-7.121c-0.476-3.545-0.713-6.268-0.713-8.166
		c0-0.949,0.045-2.062,0.133-3.338c0.033-0.504,0.069-0.982,0.111-1.436c-0.139-0.684-0.275-1.344-0.41-1.979
		c0.229-0.99,0.516-2.151,0.855-3.484c0.855-3.338,1.631-5.871,2.324-7.6c-0.055,0.012-0.11,0.024-0.166,0.033
		c-0.267-0.014-0.4-0.259-0.4-0.734c0-0.275,0.07-0.662,0.212-1.155c0.378-11.677,5.427-20.413,15.144-26.214
		c0.533-0.312,1.074-0.611,1.623-0.901c1.523-1.431,3.006-2.729,4.451-3.894v-0.612C77.548,89.097,78.988,88.155,80.39,87.348z
		 M103.406,86.916c-0.222-0.326-0.512-0.586-0.867-0.779c-0.074-0.044-0.156-0.066-0.244-0.066c-0.224-0.03-0.543-0.067-0.957-0.111
		c0.059,0.029,0.119,0.066,0.178,0.111c0.09,0.059,0.171,0.126,0.244,0.201c0.119,0.014,0.185,0.029,0.201,0.044
		c-0.045,0.015-0.09,0.029-0.135,0.044c0.09,0.059,0.155,0.141,0.2,0.245c0.118,0,0.229,0.014,0.334,0.044c0.029,0,0.06,0,0.09,0
		c0.341,0.059,0.533,0.111,0.577,0.156h-0.021C103.139,86.834,103.273,86.872,103.406,86.916z M103.518,87.162
		c-0.268-0.075-0.586-0.156-0.957-0.245c-0.044,0-0.096-0.007-0.155-0.022l0.021,0.022c-0.014,0-0.028,0.007-0.043,0.022
		c0,0.044,0.015,0.081,0.043,0.111c0.313,0,0.483,0.007,0.513,0.022c-0.103,0.015-0.235,0.037-0.399,0.067
		c0.43,0.103,0.777,0.185,1.047,0.244c0.014-0.029,0.014-0.052,0-0.067C103.569,87.242,103.549,87.191,103.518,87.162z
		 M104.051,87.739c0.045,0,0.08,0.007,0.111,0.021c-0.029-0.015-0.06-0.029-0.088-0.044c-0.016,0-0.029-0.007-0.045-0.022
		L104.051,87.739z M103.651,87.585c-0.192-0.074-0.431-0.134-0.712-0.178c0.016,0.014,0.029,0.029,0.045,0.044
		c-0.045-0.015-0.119-0.015-0.223,0c0.059,0,0.111,0.015,0.154,0.045c0.133,0.044,0.364,0.089,0.69,0.133
		c0.015,0.014,0.028,0.022,0.044,0.022C103.666,87.636,103.666,87.614,103.651,87.585z M103.43,88.029
		c0.103,0.075,0.199,0.156,0.287,0.245c0.031,0,0.053,0,0.067,0c0-0.045-0.015-0.104-0.044-0.178L103.43,88.029z M104.118,88.497
		c-0.015,0-0.015,0.015,0,0.044l-0.022,0.022c0.091-0.029,0.201-0.051,0.334-0.066C104.312,88.497,104.209,88.497,104.118,88.497z
		 M94.462,83.845c0.015,0,0.028,0.007,0.045,0.022c0.082-0.027,0.146-0.042,0.188-0.044C94.636,83.824,94.56,83.831,94.462,83.845z
		 M96.819,83.979c-0.236,0.044-0.467,0.067-0.689,0.067c0.461,0.029,0.846,0.051,1.158,0.066c0.072-0.015,0.118-0.022,0.133-0.022
		C97.228,84.046,97.026,84.009,96.819,83.979z M97.063,84.402l0.468,0.111c0.104,0,0.193,0.007,0.269,0.022
		c0.178,0.015,0.363,0.037,0.556,0.067c0.119-0.015,0.237-0.022,0.356-0.022c-0.223-0.105-0.481-0.215-0.778-0.334
		c-0.238,0.044-0.536,0.089-0.892,0.133C97.057,84.379,97.063,84.387,97.063,84.402z M96.263,83.868
		c-0.014,0-0.036,0.007-0.065,0.022c0.029,0,0.058,0,0.088,0L96.263,83.868z M101.002,85.759c0.061,0.029,0.111,0.059,0.157,0.089
		c0.253,0.029,0.468,0.044,0.646,0.044c-0.268-0.044-0.506-0.089-0.711-0.133C101.063,85.759,101.032,85.759,101.002,85.759z
		 M102.092,87.005c0.016,0,0.031,0.006,0.045,0.021l-0.021-0.044c-0.015,0-0.036-0.007-0.067-0.022L102.092,87.005z M100.892,86.137
		c0.118,0,0.215,0.008,0.288,0.023c-0.117-0.075-0.252-0.135-0.399-0.179C100.825,86.041,100.862,86.093,100.892,86.137z
		 M101.449,86.382c-0.074-0.014-0.164-0.022-0.268-0.022c0.133,0.03,0.267,0.06,0.4,0.089
		C101.537,86.419,101.493,86.397,101.449,86.382z M98.999,84.691c0.09,0,0.194,0.007,0.312,0.022
		c-0.016-0.029-0.045-0.044-0.09-0.044c-0.043-0.014-0.088-0.022-0.133-0.022c-0.029,0-0.065,0.007-0.111,0.022L98.999,84.691z
		 M99.089,84.914c-0.043,0.014-0.094,0.021-0.156,0.022c0.049,0.001,0.099,0.016,0.156,0.044c0.207-0.015,0.393-0.022,0.557-0.022
		c-0.045-0.045-0.096-0.074-0.156-0.089C99.386,84.869,99.253,84.884,99.089,84.914z M99.089,84.602
		c-0.074-0.044-0.148-0.082-0.223-0.111c0,0.029,0.021,0.067,0.066,0.111C98.993,84.602,99.046,84.602,99.089,84.602z
		 M99.758,85.069c-0.061,0.015-0.15,0.037-0.269,0.067c0.148,0.075,0.297,0.156,0.445,0.245c0.03,0.015,0.074,0.022,0.134,0.022
		C99.995,85.299,99.891,85.188,99.758,85.069z M91.946,83.778h0.021c0.209,0,0.379-0.022,0.513-0.066
		c0.089-0.015,0.185-0.038,0.289-0.067c0.016-0.015,0.03-0.03,0.045-0.044c-0.224,0.029-0.444,0.073-0.668,0.133
		c-0.044,0-0.089,0-0.134,0C91.982,83.749,91.962,83.764,91.946,83.778z M92.593,111.795c-0.03,0.236-0.045,0.414-0.045,0.534
		l0.11-0.491C92.63,111.838,92.606,111.824,92.593,111.795z M107.145,110.37h-0.021v0.022c0.014,0.027,0.027,0.061,0.045,0.1
		C107.151,110.453,107.146,110.412,107.145,110.37z M53.718,143.793c0.011,0.432,0.024,0.861,0.045,1.291h0.111
		c0.002-0.012,0.006-0.025,0.01-0.045c0.017-0.154,0.029-0.307,0.045-0.457c-0.047-0.283-0.094-0.564-0.146-0.844
		C53.763,143.758,53.741,143.777,53.718,143.793z M56.544,144.416c-0.15,0.297-0.224,0.557-0.224,0.777
		c0.079-0.152,0.155-0.316,0.224-0.488V144.416z M61.64,140.411c0.104-2.06,0.222-3.862,0.355-5.406
		c-0.324,1.25-0.613,2.496-0.867,3.738c-0.008,0.05-0.015,0.101-0.022,0.155c-0.224,1.779-0.333,3.012-0.333,3.693
		c0,0.742,0.146,2.238,0.443,4.494h0.111C61.462,144.133,61.565,141.91,61.64,140.411z M54.763,151.648
		c0-0.74,0.004-1.438,0.011-2.092c-0.028-0.179-0.06-0.355-0.089-0.535C54.704,150.074,54.731,150.951,54.763,151.648z
		 M56.876,161.217h0.112v-0.602c-0.026-0.225-0.055-0.447-0.078-0.668C56.888,160.229,56.876,160.65,56.876,161.217z M61.55,167.111
		v-0.11c-0.06,0.06-0.082,0.269-0.066,0.623c0.016,0.372,0.074,0.683,0.177,0.937v-0.113
		C61.66,167.781,61.624,167.336,61.55,167.111z M65.667,172.341c0,0.298,0.223,0.817,0.668,1.56v-0.111l-0.224-1.336L65.667,172.341
		z"/>
</g>
</svg>
