<?xml version="1.0" encoding="utf-8"?>
<!-- Generator: Adobe Illustrator 15.0.0, SVG Export Plug-In . SVG Version: 6.00 Build 0)  -->
<svg version="1.2" baseProfile="tiny" id="Layer_1" xmlns="http://www.w3.org/2000/svg" xmlns:xlink="http://www.w3.org/1999/xlink"
	 x="0px" y="0px" width="200px" height="200px" viewBox="0 0 200 200" overflow="inherit" xml:space="preserve">
<g>
	<path d="M61.29,31.878c-0.013-1.936,0.648-3.958,1.979-6.065c3.126-2.053,5.735-3.092,7.827-3.114
		c1.141-0.329,1.783-0.474,1.927-0.436c0.13,0.023,0.179,0.043,0.151,0.058c0,0.014,0.009,0.036,0.022,0.064
		c-0.291,0.195-0.584,0.356-0.878,0.481c0.172,0.05,0.359,0.093,0.561,0.128c0.802-0.286,1.266-0.417,1.395-0.394
		c0.13,0.037,0.195,0.064,0.195,0.078l-0.104,0.046c-0.065,0.117-0.19,0.228-0.372,0.334c0.145,0.037,0.266,0.048,0.364,0.029
		c1.056-0.339,1.626-0.503,1.711-0.492c0.101,0.038,0.11,0.088,0.026,0.148c-0.067,0.074-0.037,0.122,0.092,0.146
		c0.1,0.04,0.389-0.064,0.865-0.31c0.6-0.293,0.914-0.454,0.94-0.484c0.011,0.285-0.216,0.514-0.678,0.688
		c-0.099,0.076-0.203,0.129-0.313,0.161c0.211-0.007,0.403-0.028,0.573-0.063c0.296-0.097,0.632-0.223,1.011-0.38
		c0.955-0.391,1.474-0.582,1.559-0.571c0.102,0.039,0.146,0.066,0.132,0.081l-0.042,0.023c-0.232,0.222-0.51,0.424-0.831,0.607
		c0.368-0.042,0.756-0.121,1.165-0.236c1.082-0.397,1.658-0.582,1.73-0.557c0.129,0.024,0.166,0.073,0.113,0.146
		c-0.027,0.057-0.021,0.079,0.021,0.063c0.184-0.007,0.347-0.028,0.488-0.062c0.226-0.079,0.549-0.234,0.965-0.463
		c0.828-0.358,1.283-0.533,1.369-0.522c0.1,0.025,0.094,0.068-0.018,0.129c-0.066,0.074-0.053,0.116,0.049,0.126
		c0.1,0.025,0.569-0.164,1.408-0.565c0.421-0.173,0.882-0.397,1.385-0.672l0.047,0.105c0.004,0.142-0.039,0.273-0.135,0.39
		l0.021,0.02c1.326-0.747,2.078-1.117,2.264-1.11c0.129,0.023,0.18,0.043,0.152,0.058l-0.021,0.044
		c-0.094,0.132-0.226,0.216-0.396,0.25c-0.084,0.032-0.16,0.142-0.225,0.329l-0.242,0.394c0.312-0.054,0.602-0.122,0.869-0.204
		c1.344-0.649,2.133-1.027,2.371-1.136c-0.145,0.29-0.392,0.549-0.74,0.775c0.185-0.022,0.375-0.057,0.572-0.107
		c0.754-0.384,1.195-0.572,1.324-0.562c0.287,0.06,0.771-0.129,1.452-0.568c0.711-0.397,1.089-0.596,1.131-0.597
		c0.144,0.023,0.201,0.042,0.172,0.057c0.03,0.013,0.046,0.048,0.048,0.105c-0.234,0.222-0.602,0.478-1.104,0.767
		c-0.166,0.134-0.305,0.225-0.417,0.272c0.071,0.012,0.135,0.024,0.194,0.036c1.365-0.778,2.229-1.131,2.586-1.059
		c0.129,0.023,0.174,0.043,0.131,0.059h-0.021c-0.218,0.264-0.333,0.419-0.345,0.462c0.18-0.121,0.308-0.14,0.382-0.057
		c-0.165,0.163-0.359,0.305-0.582,0.428c0.2,0.006,0.413-0.009,0.641-0.046c1.498-0.683,2.331-1.013,2.503-0.992
		c0.114,0.024,0.172,0.044,0.172,0.058l-0.062,0.045c0.003,0.071-0.044,0.144-0.142,0.219c0.141-0.048,0.261-0.109,0.357-0.184
		c0.182-0.078,0.389-0.199,0.627-0.365c0.553-0.391,0.889-0.575,1.002-0.55c0.131,0.023,0.188,0.042,0.174,0.057l-0.041,0.044
		c-0.016,0.029-0.104,0.11-0.269,0.245c0.197-0.023,0.396-0.058,0.593-0.108c0.322-0.155,0.727-0.384,1.213-0.687l0.076,0.274
		c-0.068,0.074-0.174,0.142-0.312,0.204c0.17-0.006,0.311-0.033,0.423-0.08c1.285-0.661,2.787-1.408,4.507-2.242l-0.109,0.496
		l-0.541,0.341c0.127-0.034,0.252-0.089,0.379-0.165c0.418-0.243,0.912-0.539,1.481-0.888c2.089-1.233,3.312-1.82,3.671-1.762
		c0.071,0.012,0.262-0.031,0.572-0.128c0.309-0.112,0.499-0.162,0.57-0.15c0.113,0.024,0.166,0.052,0.152,0.08l-0.041,0.087
		c0-0.014-0.021,0.008-0.061,0.067c0.059,0.026,0.115,0.038,0.172,0.036c0.096-0.061,0.201-0.115,0.312-0.162
		c0.197-0.065,0.332-0.091,0.403-0.08l0.194,0.057l-0.039,0.087c0.001,0.043-0.012,0.071-0.041,0.087
		c0.072,0.012,0.145,0.015,0.216,0.013c0.265-0.139,0.433-0.195,0.505-0.169c0.44-0.031,0.719-0.033,0.834-0.01
		c0.155,0.023,0.215,0.078,0.176,0.165l-0.061,0.109c-0.027,0.029-0.062,0.059-0.104,0.089c0.158,0.037,0.302,0.06,0.431,0.069
		c0.069-0.017,0.133-0.033,0.19-0.05c0.364-0.113,0.604-0.165,0.719-0.155c0.144,0.038,0.188,0.1,0.135,0.187l-0.04,0.088
		c0.019,0.127,0.045,0.233,0.076,0.317c0.173,0.065,0.339,0.13,0.498,0.195c0.472,0.024,0.801,0.083,0.989,0.176
		c-0.01,0.086-0.045,0.144-0.101,0.175l-0.042,0.001c0.146,0.079,0.275,0.138,0.391,0.177c0.217,0.063,0.367,0.107,0.455,0.132
		c0.073,0.07,0.125,0.11,0.153,0.123l1.642-0.083c0.229,0.034,0.49,0.167,0.783,0.397c-0.027,0.03-0.082,0.047-0.169,0.05
		c0.144,0.023,0.272,0.025,0.386,0.006c0.508-0.091,0.856-0.104,1.045-0.04c0.314,0.06,0.551,0.064,0.705,0.016
		c0.242-0.023,0.627-0.144,1.16-0.364c0.088,0.04,0.131,0.103,0.135,0.188l0.002,0.085c-0.053,0.074-0.137,0.119-0.25,0.138
		c-0.012,0.014-0.039,0.03-0.082,0.046c0.056-0.002,0.092-0.004,0.106-0.004c0.195-0.093,0.386-0.121,0.573-0.086l1.438,0.181
		l0.194,0.057l-0.041,0.044c-0.039,0.101-0.071,0.18-0.098,0.239c0.129,0.051,0.251,0.083,0.366,0.092l0.02-0.043
		c0.023-0.086,0.107-0.125,0.251-0.116c0.158,0.037,0.252,0.083,0.283,0.139c0.003,0.071,0.005,0.12,0.006,0.149
		c0,0.014-0.034,0.029-0.104,0.046c0.826,0.382,1.426,0.843,1.804,1.384c0.487,0.85,0.921,1.595,1.302,2.236
		c0.787,1.251,1.787,3.043,3,5.375c-0.068,0.415-0.488,0.837-1.255,1.264c-0.751,0.441-1.315,0.227-1.688-0.641
		c-0.359-0.798-0.766-1.929-1.219-3.392c-0.439-1.436-1.027-2.14-1.768-2.112c-0.738,0.071-1.407,0.231-2.012,0.482
		c0.004,0.47,0.431,1.557,1.276,3.262c0.905,1.717,1.108,3.297,0.606,4.739c-0.01,0.1-0.043,0.187-0.098,0.26
		c-0.449,1.299-0.947,2.086-1.49,2.363c-0.601,0.308-0.914-0.1-0.943-1.224c-0.028-1.125,0.167-1.622,0.583-1.496
		c-0.663-0.616-1.159-1.331-1.49-2.144c-0.729-2.023-1.759-3.222-3.082-3.599c0.485,1.178-0.222,2.628-2.121,4.351
		c-0.838,0.801-1.521,1.417-2.045,1.85l-0.958,0.613c-1.016,0.266-1.654,0.298-1.919,0.094c0.082,0.296-0.151,0.49-0.705,0.582
		l-0.853-0.501c-1.5,0.228-2.7,0.117-3.6-0.334c-0.869-0.394-1.556-0.66-2.059-0.797c-0.518-0.094-0.912-0.214-1.188-0.361
		c-0.465-0.21-0.726-0.528-0.785-0.953c-0.328-0.045-0.771-0.07-1.326-0.078c0.029,0.041,0.029,0.062,0.002,0.063
		c-0.014-0.013-0.023-0.027-0.023-0.042c-0.385-0.013-0.811,0.009-1.279,0.07c0.297,0.301,0.472,0.58,0.523,0.834L105.01,28.1
		c-0.066-0.268-0.262-0.545-0.586-0.832c-0.012,0.086-0.043,0.165-0.098,0.239l-0.097-0.317c-0.228,0.008-0.483,0.025-0.767,0.05
		c0.533,0.564,0.83,0.872,0.889,0.927l-0.02,0.043c-0.277-0.146-0.645-0.453-1.104-0.919c-0.156-0.008-0.319,0.005-0.489,0.04
		c0.082,0.296,0.12,0.551,0.114,0.764c0.367,0.67,0.566,1.019,0.595,1.046l-0.082,0.089c-0.091-0.154-0.272-0.424-0.544-0.813
		c-0.012,0.057-0.023,0.121-0.035,0.193c-0.031-0.112-0.088-0.281-0.168-0.506c-0.105-0.167-0.229-0.376-0.365-0.627
		c-0.016-0.028-0.037-0.049-0.067-0.062c-0.282,0.068-0.579,0.114-0.892,0.14c0.307,0.586,0.563,0.976,0.771,1.167l-0.021,0.086
		c-0.262-0.175-0.574-0.576-0.94-1.203c-0.013,0.028-0.048,0.037-0.104,0.025c0.229,0.845,0.338,1.41,0.319,1.696
		c-0.134-0.165-0.249-0.346-0.341-0.542c-0.141-0.351-0.283-0.701-0.424-1.052c-0.17,0.049-0.354,0.077-0.552,0.084
		c0.171,0.763,0.257,1.151,0.257,1.165l-0.021,0.001c0.013,0.014,0.029,0.035,0.044,0.062l0.023,0.042h-0.021
		c0.08,0.225,0.12,0.351,0.121,0.38l-0.147,0.048c-0.265-0.246-0.578-0.76-0.934-1.545c-0.155,0.035-0.312,0.062-0.467,0.082
		c0.073,0.453,0.129,0.792,0.166,1.019c0.049,0.183,0.075,0.282,0.076,0.296l0.022,0.063c0.096-0.089,0.158-0.148,0.187-0.178
		c0.071,0.013,0.057,0.212-0.042,0.6l-0.127,0.047c-0.016-0.071-0.041-0.141-0.072-0.211l-0.02,0.022
		c-0.205-0.121-0.5-0.622-0.891-1.504c0.081,0.637,0.145,1.005,0.189,1.103c0.043-0.03,0.105-0.082,0.188-0.156
		c0.086-0.004,0.077,0.132-0.027,0.406l-0.082,0.046c-0.03-0.027-0.062-0.105-0.094-0.231c0.139,0.692,0.123,1.213-0.049,1.561
		c-0.017-0.014-0.201-0.42-0.559-1.218c-0.002-0.015-0.029-0.02-0.088-0.018c0.305,0.914,0.51,1.611,0.613,2.091
		c-0.027,0.001-0.043,0.008-0.041,0.023l-0.216-0.014c-0.301-0.073-0.772-0.696-1.415-1.868l-0.128,0.603l-0.021,0.022
		c0.14,0.664,0.181,1.175,0.123,1.533c-0.254-0.29-0.547-0.692-0.879-1.206c-0.041,0.044-0.082,0.103-0.121,0.175
		c-0.207,0.178-0.357,0.341-0.452,0.487l-0.089-0.083c0.025-0.144,0.029-0.585,0.015-1.325L94.771,31.3
		c0.07,0.353,0.104,0.637,0.097,0.851l-0.194-0.036c-0.312-0.416-0.615-0.86-0.902-1.333c-0.035,0.243-0.083,0.466-0.146,0.668
		c0.096,0.253,0.213,0.533,0.354,0.841c0.263,0.588,0.382,0.946,0.359,1.075l-0.278-0.053c-0.187-0.05-0.449-0.374-0.784-0.974
		l-0.044-0.02c-0.015-0.027-0.017-0.056-0.003-0.085c-0.073-0.083-0.143-0.201-0.205-0.355c0.002,0.043,0.003,0.072,0.003,0.086
		l-0.071,0.365l0.518,1.283c0.217,0.034,0.283,0.152,0.205,0.355l-0.34,0.034c-0.467-0.323-0.924-0.74-1.371-1.25
		c0.442,1.165,0.746,1.851,0.91,2.059c-0.023,0.115-0.078,0.174-0.162,0.177c-0.297-0.274-0.633-0.703-1.012-1.286l-0.037,0.129
		l-0.324-0.094c-0.072-0.069-0.375-0.356-0.907-0.863c-0.041,0.044-0.111,0.075-0.209,0.093c0.887,1.248,1.351,1.878,1.396,1.891
		c0.115,0.039,0.188,0.078,0.217,0.12l0.138,0.208l-0.06,0.109l-0.324-0.052c-0.308-0.245-0.604-0.525-0.885-0.842l0.002,0.085
		c0.246,0.475,0.441,0.917,0.586,1.324l-0.19,0.071c0.015,0.028,0.037,0.056,0.067,0.083l-0.039,0.13
		c-0.176-0.178-0.435-0.425-0.775-0.74l-0.277-0.031c0.119,0.166,0.219,0.312,0.293,0.437l-0.062,0.002
		c-0.189-0.121-0.36-0.278-0.51-0.472c-0.032,0.258-0.099,0.388-0.198,0.392c-0.28-0.26-0.606-0.831-0.981-1.714
		c-0.002-0.029-0.039-0.07-0.111-0.124c0.113,0.394,0.19,0.74,0.23,1.038l-0.146,0.07c-0.168-0.307-0.371-0.734-0.604-1.28
		c-0.069,0.016-0.183,0.042-0.339,0.077c0.016,0.042,0.039,0.077,0.068,0.104c0.593,1.017,0.898,1.767,0.918,2.25
		c-0.121-0.18-0.588-0.874-1.403-2.082c-0.03-0.056-0.062-0.105-0.091-0.146c-0.141,0.048-0.303,0.083-0.486,0.104
		c0.045,0.097,0.055,0.168,0.028,0.212c0.597,0.704,0.983,1.166,1.163,1.387l-0.229,0.116c-0.129-0.009-0.231-0.084-0.309-0.224
		c0.128,0.338,0.224,0.64,0.291,0.908c0.057,0.041,0.11,0.074,0.153,0.101l-0.02,0.086c-0.027-0.013-0.059-0.019-0.085-0.018
		c0.097,0.338,0.124,0.651,0.078,0.937c-0.038-0.212-0.259-0.637-0.668-1.277c-0.046-0.069-0.099-0.167-0.161-0.293
		c-0.229-0.361-0.507-0.806-0.841-1.334c-0.058-0.056-0.117-0.11-0.177-0.165c0.029,0.042,0.024,0.077-0.018,0.107l-0.021-0.021
		c0.082,0.651,0.129,1.347,0.144,2.087c-0.188-0.805-0.345-1.56-0.472-2.267c-0.038,0.115-0.098,0.224-0.18,0.327
		c-0.014,0.028-0.013,0.05,0.002,0.063c0.022,0.184,0.028,0.348,0.02,0.491l0.043,0.019c0.018,0.028,0.003,0.057-0.039,0.087
		c0.046,0.824-0.003,1.409-0.146,1.757c-0.029-0.441-0.086-0.966-0.166-1.575c-0.033-0.098-0.08-0.21-0.142-0.335
		c-0.055,0.072-0.124,0.111-0.21,0.114l-0.046-0.105l0.08-0.708c-0.072,0.003-0.163,0.021-0.274,0.053
		c0.045,1.209,0.027,2.098-0.05,2.671c-0.056-0.353-0.103-1.235-0.144-2.643c0.002,0.413-0.12,0.923-0.368,1.53
		c-0.06-0.055-0.136-0.166-0.226-0.333c-0.054,0.885-0.16,1.665-0.318,2.34l-0.149-0.016c0.005-0.214,0.041-0.984,0.104-2.311
		l-0.043,0.001c0-0.014,0-0.035-0.002-0.064c-0.067,0.117-0.18,0.164-0.336,0.141c-0.055,0.813-0.234,1.702-0.539,2.668
		l-0.064-0.019c0.152-0.831,0.323-1.791,0.51-2.88c-0.018-0.086-0.072-0.204-0.164-0.357c-0.074,0.245-0.174,0.441-0.297,0.588
		c0.018,0.069,0.004,0.113-0.037,0.129H82.31c-0.096,0.16-0.184,0.249-0.268,0.266c0.002,0.071-0.011,0.129-0.037,0.173
		c-0.209,0.905-0.41,1.446-0.601,1.624c-0.021-0.141-0.044-0.211-0.071-0.21c0.108-0.475,0.283-1.321,0.522-2.54l-0.004-0.107
		c-0.32,0.581-0.58,1.061-0.779,1.439c-0.014-0.014-0.022-0.056-0.026-0.127c-0.076,0.216-0.162,0.397-0.256,0.543
		c-0.09-0.068-0.109-0.238-0.062-0.51c0.062-0.174,0.115-0.339,0.15-0.497c-0.125,0.062-0.238,0.088-0.338,0.077
		c-0.029-0.013-0.08-0.054-0.154-0.122c-0.062,0.23-0.111,0.417-0.149,0.561l-0.087-0.04c-0.005-0.113-0.008-0.205-0.012-0.277
		c-0.029-0.041-0.047-0.118-0.051-0.232c0.041-0.045,0.061-0.095,0.059-0.152c-0.002-0.043,0.011-0.1,0.037-0.172
		c-0.018-0.042-0.047-0.097-0.094-0.167c-0.1,0.375-0.197,0.777-0.295,1.208L79.3,38.333c0-0.014,0.074-0.494,0.225-1.439
		c0.146-0.674,0.248-1.155,0.309-1.442c-0.025,0.029-0.056,0.038-0.084,0.025c-0.355,0.767-0.565,1.252-0.629,1.454
		c-0.059-0.026-0.089-0.075-0.092-0.146c-0.18,0.847-0.314,1.443-0.402,1.788c-0.027-0.013-0.065-0.076-0.111-0.188
		c0.012-0.057,0.018-0.107,0.016-0.15l0.334-1.871c-0.025,0.072-0.038,0.115-0.037,0.13c-0.016-0.028-0.029-0.056-0.046-0.084
		c-0.19,0.278-0.471,0.367-0.844,0.267l-0.045-0.041c-0.065,0.13-0.162,0.248-0.287,0.352c-0.058-0.054-0.07-0.182-0.034-0.382
		c0.012-0.058,0.023-0.122,0.035-0.194c-0.029-0.013-0.072-0.055-0.133-0.123c-0.104,0.214-0.203,0.417-0.299,0.609
		c-0.03,0.77-0.08,1.697-0.149,2.782c0.046,0.112,0.073,0.24,0.079,0.382c0.135-0.546,0.253-0.963,0.357-1.252l0.217,0.142
		c0.007,0.141-0.077,1.476-0.252,4.003c0.076,0.879,0.076,1.677,0.005,2.391c-0.193,2.086-0.308,3.165-0.349,3.238
		c0.043-0.001,0.072,0.019,0.088,0.061c0.024-0.1,0.035-0.186,0.033-0.257c-0.035-0.156-0.047-0.262-0.033-0.32
		c0.022-0.129,0.063-0.222,0.117-0.281l0.043-0.002c0.168-0.79,0.358-1.608,0.569-2.456l0.085,0.018l-0.302,1.592
		c0.075,0.154,0.233,0.51,0.467,1.071c0.041-0.029,0.062-0.037,0.062-0.023c0.121,0.195,0.304,0.658,0.545,1.389
		c0.115,0.053,0.224,0.113,0.326,0.18c-0.349-1.325-0.512-2.088-0.49-2.288c0.037-0.129,0.07-0.188,0.099-0.174l0.087,0.018
		c0.091,0.125,0.176,0.306,0.256,0.546c0.027-0.073,0.061-0.124,0.102-0.154c0.078,0.225,0.166,0.477,0.264,0.758
		c0-0.027,0.006-0.042,0.021-0.042c0.055-0.031,0.076-0.053,0.061-0.067c0.336,0.215,0.736,0.862,1.205,1.941
		c-0.141-0.707-0.189-1.289-0.151-1.746c0.251,0.602,0.507,1.34,0.767,2.213c0.074,0.04,0.139,0.095,0.199,0.163
		c-0.1-0.352-0.143-0.557-0.129-0.614c0.021-0.157,0.061-0.252,0.116-0.282c0.101-0.004,0.171-0.013,0.212-0.029
		c0.047,0.069,0.146,0.286,0.305,0.65c-0.06-0.439-0.098-0.687-0.115-0.743c0.039-0.13,0.064-0.195,0.078-0.195l0.002,0.021
		c0.242,0.417,0.488,1.07,0.734,1.958c-0.046-0.469-0.07-0.945-0.074-1.429c0.176,0.506,0.326,1.105,0.453,1.798
		c0.031-0.271,0.051-0.486,0.061-0.643l0.037-0.172c0.014,0.014,0.041,0.013,0.082-0.003c0.146,0.394,0.234,0.867,0.27,1.421
		c0.012-0.057,0.025-0.1,0.038-0.129c0.011-0.114,0.043-0.173,0.101-0.175l0.065,0.04c0.085,0.368,0.128,0.949,0.13,1.747
		c0.032-0.271,0.067-0.472,0.104-0.602c0.024-0.144,0.058-0.23,0.099-0.26l0.065,0.019c0.014,0.042,0.022,0.277,0.025,0.704
		l0.064,0.019c-0.023,0.143-0.043,0.336-0.063,0.579c0.021,0.213,0.031,0.476,0.03,0.789c-0.025,0.1-0.037,0.179-0.034,0.236
		c0.027,0.039,0.036,0.077,0.024,0.116c0.025-0.081,0.039-0.141,0.037-0.183c0.037-0.144,0.062-0.216,0.076-0.216
		c0.041-0.015,0.063-0.031,0.062-0.045c0.034,0.156,0.055,0.325,0.062,0.51l2.709-1.17c2.013,2.757,4.744,6.27,8.193,10.539
		c1.576,0.268,3.014,0.648,4.313,1.14c1.588,0.58,2.737,1.185,3.442,1.813c1.281-0.034,2.592,0.151,3.93,0.556
		c1.181,0.312,2.207,0.757,3.084,1.336c1.461,0.844,1.761,1.246,0.899,1.205c0.444,0.055,0.733,0.179,0.868,0.373
		c0.766,0.327,1.341,0.64,1.723,0.939l-0.015,0.171l-0.276,0.011c-0.09-0.082-0.185-0.15-0.285-0.203
		c0.061,0.097,0.106,0.216,0.141,0.357c0.554,0.321,0.834,0.573,0.841,0.758c0.019,0.113,0.015,0.184-0.013,0.214l-0.02,0.043
		c0.731,0.513,1.123,0.912,1.178,1.194c0.019,0.128,0.014,0.192-0.015,0.193c-0.015,0.001-0.071,0.01-0.17,0.028
		c-0.262-0.175-0.474-0.302-0.634-0.382c0.016,0.027,0.025,0.056,0.025,0.084c0.013-0.001,0.014,0.021,0.002,0.064
		c0.427,0.382,0.651,0.687,0.674,0.914c0.023,0.198,0.003,0.234-0.059,0.109c-0.455-0.367-0.852-0.68-1.188-0.938
		c0.868,0.736,1.313,1.246,1.34,1.53c0.003,0.085-0.015,0.192-0.052,0.322c-0.076-0.111-0.188-0.199-0.332-0.265
		c0.523,0.62,0.787,1.044,0.796,1.272c0.032,0.113,0.043,0.205,0.03,0.277c-0.026,0.001-0.097,0.025-0.209,0.072
		c0.014,0.028,0.015,0.056,0.002,0.085c0.033,0.112,0.029,0.184-0.014,0.214l-0.084,0.024c0.09,0.11,0.137,0.215,0.141,0.315
		c0.021,0.198-0.065,0.33-0.262,0.394c-0.048-0.113-0.13-0.202-0.246-0.269c0,0.014,0.008,0.028,0.022,0.042
		c0.021,0.112,0.015,0.177-0.015,0.192l-0.127,0.005l0.66,0.818c-0.162-0.193-0.3-0.341-0.412-0.443
		c-0.176-0.15-0.293-0.203-0.348-0.158c0.001,0.015,0.047,0.069,0.135,0.166h0.01c0.142,0.132,0.402,0.344,0.783,0.632
		c-0.26,0.295-0.279,0.68-0.062,1.156c0.087,0.054,0.182,0.121,0.285,0.203c0.805,0.611,1.207,1.037,1.201,1.279
		c0.008,0.199-0.075,0.252-0.25,0.159l-0.307-0.159c0.316,0.429,0.946,1.459,1.889,3.089c1.068,1.882,1.609,3.008,1.623,3.377
		c0.004,0.085-0.039,0.136-0.121,0.154c-0.072,0.002-0.112,0.053-0.123,0.153c0.018,0.071,0.062,0.141,0.137,0.209
		c0.072,0.04,0.109,0.117,0.113,0.23c0.021,0.141-0.092,0.331-0.34,0.568c0.086,0.053,0.19,0.178,0.312,0.372
		c0.12,0.195,0.184,0.356,0.188,0.484c0.004,0.085-0.008,0.15-0.035,0.194c-0.027,0.001-0.098,0.024-0.211,0.072
		c-0.072-0.056-0.139-0.103-0.197-0.143c-0.104-0.096-0.169-0.15-0.198-0.163c0.06,0.082,0.282,0.48,0.665,1.191
		c0.008,0.584,0.082,1.429,0.225,2.534l-0.283,0.479c0.003,0.057-0.012,0.421-0.043,1.091c-0.09,0.631-0.375,0.947-0.86,0.951
		l0.002,0.064c0.29,0.131,0.437,0.253,0.44,0.367c0.004,0.085-0.098,0.217-0.307,0.396c-0.013-0.028-0.064-0.048-0.15-0.058
		c-0.057-0.026-0.101-0.024-0.127,0.005c0.002,0.455-0.131,0.695-0.401,0.72c-0.013,0.001-0.058-0.013-0.128-0.038
		c0.016,0.056,0.011,0.113-0.016,0.171c0.64,1.142,1.19,1.98,1.654,2.511c0.463,0.53,1.965,1.28,4.506,2.255
		c2.543,0.975,4.42,1.666,5.631,2.071c0.711-0.013,1.24,0.031,1.586,0.134c0.129,0.021,0.187,0.049,0.174,0.078
		c0.015,0.042-0.006,0.085-0.061,0.131c-0.084,0.031-0.238,0.08-0.464,0.146c0.071,0.026,0.138,0.045,0.194,0.057
		c0.169-0.05,0.365-0.093,0.593-0.13c0.31-0.082,0.595-0.086,0.854-0.01c0.113,0.037,0.166,0.072,0.151,0.101
		c0.001,0.028-0.012,0.058-0.038,0.089c-0.056,0.028-0.238,0.121-0.545,0.275c0.014,0,0.028-0.001,0.042-0.001
		c0.157-0.006,0.433-0.054,0.828-0.14c0.579-0.135,0.933-0.183,1.062-0.146c0.115,0.023,0.158,0.051,0.133,0.081l-0.021,0.021
		l-0.017,0.108l-0.8,0.328c0.072,0.026,0.265,0.005,0.574-0.063c0.17-0.063,0.323-0.119,0.463-0.168
		c0.742-0.312,1.33-0.598,1.763-0.855l0.046,0.083c-0.333,0.228-0.928,0.521-1.782,0.879c0.579-0.12,0.935-0.162,1.063-0.125
		c0.115,0.038,0.211,0.128,0.287,0.267c0.074,0.069,0.104,0.117,0.091,0.146c0.099-0.018,0.231-0.072,0.399-0.165
		c0.211-0.092,0.432-0.101,0.661-0.024c0.517-0.262,0.914-0.496,1.19-0.705l0.025,0.062c0,0.028,0.002,0.078,0.004,0.147
		c-0.01,0.102-0.33,0.297-0.959,0.592c0.157,0.052,0.217,0.135,0.18,0.25c-0.012,0.043-0.283,0.217-0.812,0.521
		c0.084-0.018,0.149-0.02,0.192-0.007l0.021-0.001c0.394-0.172,0.793-0.365,1.196-0.579c1.24-0.731,2.043-1.138,2.41-1.224
		c-0.224,0.137-1.021,0.679-2.394,1.629c-0.015,0.015-0.043,0.029-0.084,0.045l-0.021,0.021c0.333-0.211,0.719-0.369,1.157-0.471
		c0.449-0.158,0.767-0.214,0.955-0.164c-0.123,0.118-0.262,0.245-0.413,0.379c1.426-0.695,2.329-1.271,2.711-1.727l0.063,0.02
		c-0.349,0.51-1.285,1.133-2.812,1.868c0.095-0.024,0.172-0.038,0.233-0.04c0.422-0.13,0.797-0.193,1.125-0.193
		c0.045,0.071,0.041,0.172-0.011,0.301c-0.026,0.029-0.14,0.068-0.337,0.119c-0.127,0.048-0.16,0.076-0.104,0.09
		c0.199,0.007,0.426-0.037,0.678-0.133c0.225-0.08,0.432-0.086,0.619-0.023l0.047,0.062c0.447-0.229,0.75-0.469,0.912-0.718
		l0.064,0.021l-0.037,0.172c-0.051,0.145-0.342,0.347-0.873,0.609l0.023,0.063c-0.013,0.028-0.074,0.065-0.188,0.112
		c0.228,0.006,0.457,0.012,0.685,0.018c0.674-0.254,1.263-0.332,1.765-0.238c0.578-0.105,1.141-0.121,1.685-0.041
		c0.595-0.064,1.137-0.037,1.626,0.088c-0.482,0.047-1.02,0.146-1.612,0.297c1.173-0.217,2.013-0.239,2.517-0.074
		c-0.058,0.002-0.508,0.111-1.354,0.328c0.214,0.05,0.41,0.119,0.584,0.214c0.472,0.039,0.917,0.155,1.338,0.354l-0.083,0.066
		c-0.16-0.051-0.408-0.07-0.75-0.059c0.102,0.055,0.182,0.115,0.242,0.185c0.698,0.017,1.23,0.161,1.596,0.433
		c-0.041,0.015-0.147,0.033-0.318,0.055c-0.229-0.064-0.536-0.094-0.92-0.094c0.103,0.082,0.207,0.199,0.312,0.351
		c0.244,0.077,0.435,0.182,0.567,0.319c0.115,0.054,0.224,0.121,0.326,0.203c0.338,0.215,0.658,0.451,0.967,0.709l-0.041,0.045
		c-0.043-0.013-0.12-0.023-0.235-0.033l-0.088-0.062c0.192,0.207,0.372,0.429,0.538,0.664c-0.289-0.104-0.717-0.317-1.284-0.636
		c0.032,0.084,0.069,0.168,0.116,0.251c0.554,0.319,1.113,0.649,1.682,0.983c-0.07,0.06-0.262,0.052-0.578-0.021
		c-0.087-0.025-0.377-0.186-0.871-0.479c1.215,0.879,1.77,1.449,1.666,1.709c-0.025,0.1-0.052,0.164-0.078,0.194l-0.129-0.017
		c0.354,0.369,0.508,0.621,0.455,0.751c-0.039,0.114-0.078,0.18-0.121,0.196l-0.063,0.002c-0.313-0.414-0.724-0.877-1.228-1.383
		c0.144,0.362,0.25,0.736,0.321,1.118c0.089,0.082,0.17,0.179,0.246,0.29c0.791,0.981,1.161,1.543,1.108,1.688
		c-0.074,0.245-0.229,0.286-0.463,0.124c-0.024-0.24-0.246-0.66-0.668-1.256c0.1,0.338,0.17,0.697,0.213,1.08
		c0.048,0.112,0.065,0.24,0.058,0.383c0.211,0.307,0.438,0.666,0.681,1.084l-0.298,0.013c-0.077-0.169-0.168-0.3-0.271-0.396
		c0.052,0.24,0.082,0.502,0.094,0.787c0.088,0.08,0.148,0.186,0.184,0.312l-0.107,0.004c0.033,0.128,0.046,0.247,0.035,0.362
		c0.09,0.125,0.16,0.277,0.209,0.462c0.345,0.798,0.502,1.241,0.478,1.327l-0.08,0.152l-0.128,0.006
		c-0.083-0.312-0.193-0.592-0.331-0.843c0.031,0.069,0.027,0.146-0.012,0.235c0.012-0.029,0.004-0.051-0.024-0.064
		c0.03,0.028,0.024,0.059-0.018,0.088c0.154,0.321,0.306,0.756,0.455,1.308c0.306,0.926,0.425,1.448,0.357,1.565
		c-0.035,0.2-0.061,0.258-0.078,0.174l-0.043-0.021c0.015,0.028,0.016,0.049,0.002,0.063l-0.021,0.022
		c0.102,0.437,0.12,0.728,0.055,0.873c-0.025,0.114-0.051,0.172-0.08,0.173c-0.013,0.018-0.049,0.031-0.104,0.049l-0.085-0.019
		c-0.092-0.567-0.204-1.067-0.334-1.505l0.001,0.021c0.017,0.084,0.021,0.155,0.008,0.213c0.127,0.379,0.187,0.605,0.175,0.678
		c0.231,0.873,0.283,1.455,0.151,1.744c-0.037,0.187-0.063,0.237-0.08,0.152l-0.13-0.059c0.027-0.344-0.018-0.833-0.143-1.469
		c-0.006,0.17-0.022,0.328-0.047,0.472c0.092,0.88,0.098,1.427,0.021,1.646c-0.013,0.069-0.037,0.144-0.078,0.215
		c0.003,0.072-0.022,0.158-0.075,0.261c-0.05,0.186-0.104,0.295-0.158,0.325l-0.087-0.039c0.023-0.144,0.031-0.272,0.027-0.385
		c0.001,0.027-0.019,0.071-0.06,0.129c-0.019,0.229-0.041,0.4-0.064,0.516c-0.066,0.158-0.126,0.281-0.18,0.37l-0.02,0.043
		c0.001,0.028-0.02,0.071-0.061,0.131c-0.036,0.129-0.076,0.21-0.118,0.239c-0.06-0.041-0.111-0.104-0.157-0.187
		c0.041-0.058,0.066-0.138,0.077-0.239c-0.187,0.336-0.435,0.746-0.745,1.226c-0.012,0.044-0.038,0.093-0.079,0.151
		c-0.127,0.418-0.235,0.729-0.327,0.933l-0.064-0.021c-0.004-0.099,0.005-0.228,0.027-0.385c-0.201,0.335-0.431,0.693-0.687,1.072
		c-0.952,1.544-2.003,2.745-3.151,3.6c-1.107,0.854-2.22,1.379-3.336,1.579c-1.09,0.155-2.919,0.396-5.482,0.72l-1.512-0.436
		c-0.131-0.066-0.211-0.12-0.242-0.161c-0.031-0.085-0.016-0.233,0.047-0.45c0.063-0.216,0.15-0.361,0.261-0.437
		c0.14-0.093,0.209-0.158,0.208-0.199c-0.598,0.435-1.246,0.552-1.952,0.349c-0.635-0.23-0.771-0.631-0.409-1.201l0.084-0.022
		c0.344-0.384,0.736-0.513,1.184-0.387c0.172,0.036,0.314,0.08,0.432,0.133c0.479-0.132,0.957-0.271,1.436-0.416
		c0.264-0.196,0.555-0.399,0.873-0.61l0.521-0.383c0.225-0.109,0.473-0.124,0.746-0.049c0.3,0.002,0.541,0.016,0.729,0.036
		c0.084-0.017,0.133-0.027,0.147-0.028c0.134-0.189,0.237-0.307,0.308-0.353c0.191-0.163,0.497-0.366,0.915-0.611
		c0.489-0.246,0.839-0.407,1.05-0.487c0.014-0.027,0.182-0.101,0.504-0.211c0.224-0.109,0.385-0.207,0.48-0.297
		c0.244-0.308,0.479-0.537,0.7-0.688c0.431-0.258,0.723-0.454,0.875-0.588c0.083-0.061,0.146-0.092,0.188-0.092
		c0.082-0.076,0.137-0.142,0.164-0.199c-0.004-0.057-0.02-0.106-0.049-0.147c-0.035-0.155-0.04-0.271-0.013-0.342
		c0.036-0.129,0.172-0.341,0.401-0.636c0.017-0.342,0.049-0.764,0.103-1.264l0.118-0.281c0.066-0.103,0.136-0.153,0.207-0.155
		c-0.029-0.028-0.088-0.233-0.172-0.614c-0.086-0.396-0.041-0.732,0.133-1.009c0.047-0.244,0.191-0.406,0.43-0.486
		c-0.173-0.05-0.281-0.103-0.326-0.159c-0.046-0.068-0.209-0.248-0.49-0.535c-0.27-0.347-0.324-0.637-0.162-0.869l-0.021-0.021
		c-0.878-0.279-1.261-0.607-1.146-0.982c0.025-0.07,0.045-0.129,0.057-0.172c-0.014-0.015-0.042-0.021-0.085-0.02
		c-0.146-0.092-0.259-0.074-0.34,0.057c-0.107,0.174-0.196,0.285-0.265,0.33c-0.057,0.03-0.226,0.086-0.506,0.168
		c-0.24,0.053-0.367,0.107-0.38,0.164c-0.012,0.044-0.013,0.188-0.004,0.428c-0.122,0.162-0.423,0.487-0.903,0.974
		c-0.408,0.485-0.789,0.586-1.142,0.301c-0.31-0.26-0.362-0.756-0.163-1.489c0.255-0.763,0.352-1.259,0.285-1.484
		c-0.038-0.24,0.081-0.885,0.355-1.934c0.147-0.562,0.287-1.045,0.414-1.449c-0.104-0.095-0.475-0.301-1.113-0.619l-0.043,0.002
		l-0.125,0.07l0.308,0.776l-0.058,0.174c-0.088-0.067-0.534-0.192-1.338-0.377c-0.574-0.135-1.106-0.271-1.596-0.409
		c-0.113,0.004-0.22,0.008-0.32,0.012c0.232,0.093,0.508,0.209,0.826,0.354l0.135,0.188l-0.104,0.109l-0.886-0.266
		c-0.159-0.066-0.505-0.18-1.038-0.346l0.152,0.102c0.22,0.148,0.388,0.264,0.504,0.344c0.234,0.178,0.361,0.313,0.379,0.413
		l-0.102,0.132l-0.562-0.149l-1.22-0.615l-0.021,0.022l0.021-0.002c0.615,0.42,0.945,0.67,0.99,0.754
		c-0.067,0.06-0.182,0.078-0.34,0.055c-0.144-0.064-0.371-0.071-0.684-0.016c-0.355,0.013-1.373-0.197-3.057-0.633
		c0.08,0.252,0.086,0.396,0.017,0.426l-0.581-0.104c-0.059-0.042-0.232-0.134-0.523-0.28c-0.361-0.143-0.846-0.31-1.449-0.5
		c0.153,0.082,0.357,0.211,0.611,0.383c0.51,0.293,0.799,0.553,0.863,0.778c-0.245-0.047-0.632-0.134-1.163-0.255
		c-0.644-0.16-1.265-0.293-1.862-0.398c0.01,0.008-0.021,0.037-0.092,0.088c-0.055,0.059-0.117,0.098-0.188,0.113l-1.037-0.281
		l-0.086,0.004c0.029-0.014,0.029-0.021,0-0.021l-0.41-0.134c0.016,0.07,0.011,0.12-0.018,0.148
		c0.018,0.028-0.002,0.071-0.059,0.133c0.07,0.011,0.116,0.037,0.131,0.08c0.176,0.093,0.286,0.181,0.331,0.265
		c-0.026,0.015-0.069,0.031-0.126,0.047c-0.054,0.046-0.141,0.05-0.256,0.011c-0.071-0.011-0.208-0.078-0.412-0.197
		c0.014-0.017,0.014-0.029-0.002-0.043c-0.075-0.067-0.161-0.123-0.262-0.16c-0.045-0.016-0.08-0.02-0.108-0.02l-0.487,0.062
		c-0.326,0.025-0.541,0.027-0.642,0.003c-0.188-0.05-0.381-0.086-0.581-0.106c-0.158-0.023-0.314-0.037-0.471-0.047
		c-0.059-0.055-0.397-0.298-1.012-0.73c-0.095,0.117-0.199,0.185-0.312,0.205c-0.029-0.015-0.064-0.021-0.105-0.019
		c0,0.015-0.006,0.086-0.016,0.216c-0.025,0.086-0.195,0.084-0.512-0.004c-0.072-0.025-0.16-0.078-0.264-0.16
		c-0.068,0.072-0.16,0.099-0.273,0.074c-0.115-0.038-0.221,0.01-0.314,0.141c-0.096,0.103-0.26,0.131-0.488,0.082
		c-0.174-0.064-0.289-0.117-0.348-0.156l0.096-0.282c0.054-0.116,0.1-0.202,0.141-0.263c-0.016-0.027-0.045-0.047-0.088-0.061
		c-0.053,0.102-0.135,0.204-0.245,0.309c-0.233,0.222-0.423,0.315-0.567,0.277c-0.156-0.037-0.201-0.07-0.131-0.103
		c0.023-0.144,0.074-0.28,0.155-0.411c0.092-0.189,0.131-0.289,0.117-0.305c-0.026,0.102-0.242,0.201-0.651,0.304
		c-0.337,0.097-0.564,0.134-0.678,0.11c-0.09-0.039-0.133-0.08-0.135-0.123c0.013-0.071,0.011-0.121-0.004-0.148
		c0.125-0.091,0.193-0.141,0.207-0.158c-0.142,0.021-0.402,0.116-0.779,0.285c-0.336,0.141-0.656,0.168-0.958,0.079
		c-0.101-0.024-0.181-0.071-0.24-0.14c0.013-0.059,0.003-0.101-0.026-0.127c0.098-0.062,0.153-0.106,0.166-0.135
		c-1.261,0.545-2.162,1-2.703,1.362c0.521-0.532,1.523-1.097,3.011-1.694c0.014-0.017,0.028-0.028,0.041-0.045
		c-0.044-0.025-0.08-0.039-0.108-0.039c-0.142,0.006-0.348,0.043-0.615,0.109c-0.437,0.117-0.727,0.163-0.869,0.141
		c-0.104-0.082-0.17-0.146-0.201-0.186c0-0.027-0.016-0.043-0.043-0.042c-0.029-0.028-0.073-0.047-0.131-0.06
		c-0.535,0.268-1.162,0.57-1.888,0.905c-0.095,0.046-0.192,0.093-0.292,0.138c-0.156,0.396-0.322,0.723-0.498,0.98
		c-0.05,0.158-0.087,0.152-0.107-0.018c-0.006-0.16,0.084-0.584,0.271-1.271c-0.102,0.063-0.191,0.125-0.271,0.181l-0.051-0.254
		c0.094-0.181,0.264-0.361,0.502-0.543c0.02-0.062,0.039-0.127,0.057-0.193c-0.182,0.05-0.311,0.087-0.391,0.111l0.369-0.367
		c-0.232-0.121-0.35-0.221-0.353-0.297c0.007-0.199,0.052-0.514,0.135-0.944c0.11-0.487,0.162-0.781,0.158-0.88l-0.041,0.041
		c-0.174,0.308-0.285,0.768-0.333,1.382l-0.148,0.006c-0.009-0.228-0.031-0.447-0.068-0.66c-0.264,1.306-0.465,2.153-0.608,2.543
		c-0.075-0.11-0.123-0.251-0.144-0.421c0.006-0.627,0.154-1.572,0.449-2.837c0.111-0.416,0.197-0.769,0.258-1.058
		c0.027-0.07,0.031-0.149,0.014-0.233c0.012-0.03-0.01-0.05-0.066-0.062c-0.008,0.201-0.035,0.428-0.082,0.687
		c-0.08,0.485-0.182,0.847-0.301,1.078c-0.074-0.054-0.117-0.087-0.132-0.103c-0.017-0.041-0.034-0.132-0.054-0.275
		c0.013-0.07,0.066-0.706,0.164-1.905c-0.031-0.071-0.084-0.132-0.157-0.188c0.004,0.086-0.007,0.188-0.031,0.303
		c-0.069,0.4-0.179,0.746-0.325,1.035c-0.111,0.789-0.229,1.449-0.351,1.979c-0.045-0.041-0.083-0.097-0.114-0.167l-0.072-0.766
		c-0.004-0.498,0.059-1.105,0.188-1.822c-0.021-0.127-0.046-0.24-0.078-0.339c0.007-0.571,0.005-1.004-0.006-1.304
		c-0.034,0.613-0.074,1.072-0.119,1.371l-0.233,0.01c0.012-0.057-0.004-0.092-0.047-0.104c-0.07,0.457-0.158,0.959-0.264,1.504
		l-0.111-0.123c-0.035-0.142-0.057-0.297-0.062-0.469c-0.006-0.171,0.027-0.406,0.102-0.708l-0.064-0.02
		c-0.033-0.142-0.075-0.267-0.12-0.38c0.009,0.242-0.004,0.484-0.037,0.728l-0.063,0.003c-0.137-0.578-0.213-1.125-0.232-1.636
		c-0.023-0.599,0.086-1.499,0.326-2.704c0.025-0.07,0.031-0.122,0.015-0.148c0.038-0.144,0.069-0.279,0.093-0.408
		c0.025-0.072,0.036-0.137,0.034-0.194c0.042-0.03,0.056-0.06,0.04-0.087c0.027-0.03,0.033-0.051,0.02-0.064
		c0.092-0.615,0.15-1.109,0.179-1.479c0.008-0.157,0.01-0.285,0.007-0.386c-0.014,0.002-0.035,0.002-0.062,0.004
		c-0.031,0.3-0.098,0.658-0.195,1.074c-0.152,0.847-0.251,1.455-0.294,1.825c-0.142,0.005-0.242-0.012-0.3-0.053
		c-0.018-0.056-0.033-0.127-0.051-0.211c0.029-0.356,0.03-0.679,0.006-0.962c-0.004,0.271-0.027,0.578-0.071,0.922
		c-0.067,0.872-0.165,1.85-0.296,2.938l-0.063,0.002c-0.12-0.209-0.179-0.436-0.174-0.677c0.219-2.13,0.368-3.808,0.45-5.034h-0.021
		c-0.098,0.088-0.238,0.144-0.421,0.164c-0.2-0.007-0.274-0.046-0.219-0.119c-0.013-0.34-0.032-0.66-0.058-0.959
		c-0.201-0.405-0.326-0.883-0.375-1.438c-0.01,0.472-0.055,0.985-0.135,1.544c-0.212,1.93-0.541,3.594-0.984,4.991
		c-0.391,1.339-0.979,3.097-1.766,5.276c-0.775,2.123-1.347,3.354-1.719,3.696c0.76,1.993,1.663,4.257,2.713,6.795
		c1.078,2.523,1.986,4.888,2.725,7.095c0.352,1.025,0.604,2.221,0.754,3.582c0.23,0.416,0.507,0.955,0.83,1.611l-0.106,0.004
		c-0.187-0.406-0.408-0.812-0.665-1.214c0.053,0.269,0.078,0.567,0.076,0.896c0.201,0.42,0.39,0.888,0.564,1.408l-0.127,0.006
		c-0.051-0.184-0.175-0.463-0.373-0.84c0,0.027,0.002,0.062,0.004,0.106c0.043,0.026,0.066,0.067,0.068,0.124
		c0.098,0.367,0.323,1.22,0.674,2.561l-0.064,0.002c-0.098-0.268-0.303-0.844-0.621-1.729c0.018,0.127,0.018,0.271-0.005,0.428
		c0.065,0.182,0.129,0.387,0.194,0.612c0.276,0.944,0.379,1.764,0.307,2.465c-0.021,0.2-0.067,0.315-0.137,0.347l-0.023-0.041
		c0.072-1.1-0.036-2.099-0.327-2.998c0.021,0.512,0.019,1.06-0.001,1.645l0.002,0.043c0.078,0.21,0.131,0.457,0.156,0.74
		c0.083,0.339,0.138,0.642,0.163,0.912c0.251,1.016,0.354,1.666,0.308,1.953l-0.015,0.172c-0.015,0-0.035,0.016-0.062,0.045
		l-0.027-0.127c-0.104-0.494-0.275-1.271-0.514-2.33c0.008,0.199,0.008,0.404,0.002,0.619c0.067,0.297,0.139,0.715,0.217,1.252
		c0.172,1.16,0.248,1.828,0.226,1.998l-0.03,0.146l-0.064,0.021l-0.042-0.019c-0.075-0.454-0.155-0.877-0.241-1.272
		c0.021,0.156,0.027,0.312,0.018,0.471c0.03,0.026,0.039,0.061,0.026,0.104c0.278,1.342,0.396,2.206,0.354,2.594
		c0.002,0.084-0.002,0.147-0.015,0.192c0.058,0.353,0.119,0.692,0.188,1.017c0.385,1.508,0.627,2.654,0.728,3.434
		c0.075,0.467,0.433,1.635,1.071,3.505c0.51,1.446,0.531,2.748,0.062,3.905c-0.156,0.418-0.305,0.994-0.447,1.726
		c0,0.015,0.008,0.026,0.022,0.042c0.095,0.252,0.224,0.646,0.386,1.182l-0.127,0.004c-0.099-0.323-0.216-0.623-0.354-0.902
		c-0.034,0.213-0.062,0.457-0.079,0.727c0.076,0.111,0.167,0.252,0.271,0.418c0.183,0.278,0.424,0.682,0.73,1.211l-0.127,0.026
		c-0.295-0.274-0.587-0.655-0.877-1.142c-0.014-0.043-0.031-0.084-0.046-0.127c-0.033,0.285-0.071,0.601-0.115,0.944
		c0.271,0.359,0.468,0.693,0.593,1.003c0.028-0.002,0.029,0.004,0.002,0.021c0.364,0.243,0.781,0.541,1.25,0.893l-0.062,0.065
		c-0.782-0.355-1.397-0.665-1.849-0.934c0.002,0.086-0.002,0.198-0.01,0.344c0.073,0.066,0.148,0.164,0.225,0.289
		c0.22,0.162,0.455,0.361,0.705,0.592c0.647,0.561,0.961,0.926,0.939,1.098c-0.014,0.057-0.025,0.102-0.039,0.129
		c0.147,0.11,0.244,0.213,0.289,0.309c-0.158-0.034-0.629-0.28-1.416-0.733l0.001,0.021c-0.012,0.072-0.03,0.145-0.056,0.217
		c-0.028,0.029-0.062,0.066-0.102,0.109c-0.223-0.177-0.441-0.332-0.66-0.467c0.016,0.042,0.011,0.086-0.018,0.131
		c0.189,0.09,0.378,0.197,0.568,0.319c1.094,0.67,1.617,1.176,1.574,1.521c-0.01,0.144-0.029,0.172-0.062,0.088
		c-1.01-0.758-1.597-1.184-1.756-1.278c0.117,0.124,0.222,0.262,0.313,0.415c0.705,0.586,1.144,1.066,1.314,1.445l-0.081,0.131
		c-0.114-0.079-0.231-0.16-0.351-0.242c0.059,0.042,0.097,0.099,0.113,0.166l-0.252,0.115c-0.352-0.284-0.668-0.528-0.945-0.732
		c0.074,0.083,0.143,0.182,0.203,0.292c0.732,0.542,1.16,0.916,1.283,1.127c-0.176-0.108-0.365-0.222-0.57-0.342
		c0.119,0.124,0.166,0.213,0.14,0.271c-0.01,0.158-0.028,0.188-0.062,0.09c-0.394-0.256-0.752-0.491-1.074-0.707
		c0.382,0.326,0.648,0.566,0.797,0.719l-0.041,0.064c0.117,0.08,0.227,0.168,0.331,0.266c0.141-0.006,0.228-0.002,0.256,0.011
		l-0.034,0.235c-0.203-0.12-0.414-0.233-0.632-0.34c0.233,0.162,0.496,0.33,0.788,0.506c-0.418-0.141-0.869-0.387-1.352-0.739
		c-0.191-0.179-0.354-0.313-0.485-0.407c0.001,0.012-0.005,0.035-0.019,0.062c0.072,0.041,0.125,0.089,0.154,0.145
		c1.004,0.932,1.887,1.65,2.646,2.165l-0.17,0.047c-0.789-0.554-1.5-1.08-2.131-1.584c0.371,0.427,0.657,0.794,0.853,1.099
		c0.176,0.123,0.338,0.26,0.485,0.41c0.174,0.094,0.285,0.159,0.328,0.2l-0.041,0.065c0.147,0.107,0.293,0.244,0.442,0.41
		c-0.202-0.077-0.435-0.19-0.696-0.336c0.004,0.084-0.01,0.135-0.037,0.149c-0.014-0.013-0.035-0.012-0.063,0.003
		c-0.206-0.178-0.406-0.355-0.597-0.531c-0.248-0.148-0.547-0.309-0.895-0.479c0.119,0.123,0.223,0.231,0.312,0.329
		c0,0.027-0.075,0.066-0.23,0.115l0.001,0.021c0.297,0.331,0.464,0.643,0.505,0.941c0.545,0.107,0.91,0.166,1.096,0.173
		c0.112-0.019,0.185-0.021,0.213-0.009c0.056-0.031,0.098-0.045,0.125-0.047l-0.017,0.106l-0.422,0.166
		c0.517,0.106,0.854,0.188,1.015,0.239c-0.117-0.081-0.178-0.15-0.18-0.207l0.501,0.279l-0.062,0.066
		c-0.098,0.047-0.297,0.075-0.594,0.087c-0.215,0.009-0.5-0.024-0.858-0.096c0.418,0.155,0.794,0.296,1.127,0.427
		c0.284-0.011,0.575-0.021,0.875-0.033c-0.132-0.066-0.198-0.127-0.2-0.186l0.521,0.258c-0.039,0.059-0.123,0.111-0.25,0.16
		l-0.789,0.029c-0.127,0.006-0.248,0.01-0.363,0.015c1.355,0.076,2.1,0.333,2.23,0.769l-0.041,0.088
		c-0.15-0.235-0.668-0.401-1.557-0.496c-0.07-0.012-0.135-0.017-0.191-0.014c0.101,0.053,0.182,0.119,0.242,0.204
		c0.129,0.037,0.238,0.075,0.324,0.115c0.865,0.295,1.307,0.44,1.319,0.44c0.099-0.017,0.17-0.027,0.213-0.029
		c0.04-0.029,0.075-0.045,0.104-0.047l-0.017,0.15l-0.444,0.123c-0.287-0.074-0.591-0.154-0.906-0.244
		c0.086,0.055,0.162,0.123,0.222,0.207c0.13,0.053,0.261,0.111,0.392,0.178c0.809,0.311,1.235,0.5,1.28,0.57
		c-0.028,0-0.063,0.002-0.106,0.004c-0.013,0.027-0.047,0.065-0.103,0.109c0.351,0.215,0.737,0.486,1.164,0.811l-0.062,0.09
		c-0.318-0.131-0.908-0.45-1.767-0.961c0.267,0.276,0.504,0.545,0.714,0.808c0.436,0.24,0.795,0.476,1.073,0.707
		c-0.015,0.001-0.028,0.002-0.043,0.002c0.438,0.296,0.69,0.558,0.756,0.781c-0.379-0.241-0.75-0.448-1.112-0.618
		c0.664,0.984,0.953,1.857,0.867,2.615c-0.02,0.228-0.248,0.57-0.686,1.029c0.471,0.424,0.688,0.756,0.656,1
		c-2.189,1.605-3.49,2.424-3.9,2.455c-3.385,0.112-5.405,0.153-6.062,0.12c-1.029-0.103-1.559-0.411-1.593-0.922
		c-1.075,0.567-1.996,0.866-2.764,0.894c-0.454,0.019-0.705,0.021-0.748,0.008c-0.042-0.012-0.036-0.047,0.019-0.106
		c-0.029-0.013-0.052-0.026-0.066-0.04c-0.047-0.084-0.07-0.16-0.072-0.232c0.031-0.271,0.297-0.615,0.793-1.033
		c0.374-0.299,0.743-0.469,1.111-0.512c1.183-1.156,2.377-2.66,3.59-4.514c-0.11-0.24-0.414-0.576-0.914-1.013
		c-0.516-0.435-0.871-0.642-1.07-0.621c-0.312,0.011-0.667,0.045-1.064,0.104c-0.475,0.274-0.979,0.429-1.52,0.463
		c-1.181,0.029-2.388-0.066-3.62-0.291c-1.22-0.268-2.35-0.381-3.387-0.342c-1.407,0.451-2.408,0.711-3.004,0.775
		c-0.582,0.05-0.908-0.072-0.977-0.37c-0.068-0.338,0.049-0.612,0.354-0.825c0.332-0.24,2.299-1.09,5.903-2.549
		c1.248-0.519,2.286-0.904,3.116-1.165c0.131-0.319,0.252-0.559,0.358-0.719l0.058-0.151c-0.619,0.536-1.135,0.825-1.547,0.869
		c-0.242-0.019-0.387-0.049-0.43-0.09l-0.002-0.062c0.67-0.354,1.33-0.799,1.979-1.336c0.084-0.061,0.139-0.104,0.166-0.133
		c0.051-0.16,0.082-0.296,0.092-0.41c-0.166,0.121-0.36,0.269-0.582,0.448c-0.613,0.707-1.119,1.074-1.518,1.104
		c-0.184,0.007-0.306-0.018-0.366-0.072l-0.005-0.148c0.423-0.115,0.944-0.478,1.562-1.084c-0.139,0.104-0.271,0.194-0.395,0.271
		c-0.084,0.046-0.16,0.112-0.229,0.201l-0.046-0.106l-0.001-0.021c-0.098,0.062-0.189,0.094-0.275,0.097
		c-0.384,0.015-0.612-0.013-0.685-0.08l0.252-0.096c0.584-0.335,1.167-0.714,1.75-1.136c0.26-0.266,0.485-0.529,0.674-0.793
		c0.04-0.072,0.06-0.137,0.058-0.194c-0.099,0.062-0.201,0.129-0.312,0.205c-0.398,0.356-0.883,0.786-1.447,1.292
		c0.178-0.248,0.338-0.482,0.487-0.701c-0.444,0.316-0.822,0.486-1.134,0.512c-0.172-0.007-0.215-0.027-0.131-0.059l0.062-0.044
		c0.483-0.404,0.903-0.769,1.263-1.095c-0.266,0.153-0.525,0.241-0.781,0.265c-0.242,0.009-0.386-0.021-0.43-0.091l0.062-0.066
		c0.166-0.12,0.332-0.247,0.498-0.382c0.369-0.37,0.697-0.709,0.986-1.021l-0.068-0.082c0.148-0.22,0.502-0.682,1.059-1.387
		c0.027-0.057,0.025-0.122-0.007-0.191c-0.233,0.236-0.474,0.467-0.722,0.689c-0.014,0.043-0.053,0.094-0.123,0.153
		c0-0.015-0.014-0.021-0.043-0.019c-0.344,0.312-0.697,0.588-1.058,0.829c0.425-0.429,0.796-0.812,1.109-1.151
		c0.134-0.235,0.403-0.644,0.808-1.228c0.028-0.045,0.04-0.081,0.039-0.108c-0.436,0.527-0.951,1.184-1.549,1.959
		c-0.07-0.039-0.117-0.08-0.132-0.123c0.241-0.407,0.788-1.147,1.646-2.219c0.008-0.156,0.004-0.3-0.016-0.427
		c-0.367,0.47-0.823,1.013-1.37,1.632l-0.042-0.041c0.541-0.719,1.002-1.332,1.381-1.846c-0.016-0.426-0.052-0.838-0.111-1.234
		c-1.092,1.621-1.655,2.476-1.695,2.562l-0.043-0.04c0.25-0.508,0.82-1.434,1.709-2.777c-0.016-0.043-0.018-0.078-0.004-0.105
		c-0.473,0.645-0.998,1.298-1.571,1.96l-0.001-0.043c0.35-0.54,0.848-1.308,1.494-2.298c-0.209-1.375-0.543-2.686-1.002-3.936
		c-0.543-1.547-1.209-2.973-1.999-4.281c0.031,0.07,0.033,0.135,0.007,0.192l-0.128,0.005c-0.094-0.225-0.154-0.465-0.177-0.721
		c-0.03-0.057-0.068-0.098-0.111-0.124c0.051,0.225,0.065,0.403,0.042,0.532c0.004,0.101-0.009,0.172-0.036,0.215l-0.083,0.047
		c-0.018-0.085-0.042-0.155-0.072-0.211c-0.025,0.043-0.053,0.115-0.076,0.216l-0.064,0.003c-0.131-0.436-0.318-1.12-0.568-2.051
		c-0.002-0.071-0.039-0.126-0.113-0.165v0.021c0.065,0.197,0.109,0.388,0.13,0.571c0.05,0.169,0.106,0.337,0.168,0.507
		c-0.015-0.029-0.044-0.068-0.089-0.125c0.121,0.564,0.176,0.911,0.166,1.041c-0.022,0.157-0.043,0.187-0.061,0.088
		c-0.193-0.273-0.392-0.748-0.599-1.432c0.024,0.102,0.039,0.208,0.043,0.32c-0.021,0.185-0.095,0.302-0.222,0.349l-0.088-0.081
		c-0.012-0.683-0.088-1.427-0.233-2.234c-0.119-0.149-0.238-0.274-0.354-0.369v0.021c0.149,0.948,0.242,1.729,0.28,2.341
		c-0.024,0.058-0.067,0.086-0.125,0.088c-0.19-0.875-0.345-1.617-0.469-2.225c0.021,0.156,0.04,0.319,0.062,0.49
		c-0.09-0.098-0.172-0.194-0.246-0.291c0.082,0.695,0.118,1.07,0.106,1.128c-0.011,0.158-0.056,0.258-0.14,0.305l-0.043-0.042
		c-0.203-1.23-0.351-2.094-0.439-2.588c-0.005-0.129-0.023-0.242-0.057-0.34c-0.029-0.057-0.066-0.098-0.11-0.124l-0.271,1.868
		l-0.088-0.039l0.072-2.075c-0.061-0.067-0.134-0.137-0.223-0.204c-0.032,0.271-0.094,0.516-0.186,0.732
		c-0.01,0.13-0.019,0.242-0.031,0.344c0.004,0.085-0.008,0.134-0.035,0.148c-0.016,0.002-0.043,0.018-0.084,0.048
		c0.013-0.044,0.012-0.087-0.006-0.128c-0.037,0.129-0.098,0.244-0.18,0.349l0.061-0.687c-0.133-0.521-0.223-0.987-0.266-1.399
		c-0.016-0.013-0.029-0.026-0.045-0.04c0.006,0.54-0.006,0.982-0.035,1.325c-0.023,0.171-0.086,0.202-0.188,0.093l-0.045-0.042
		c-0.041-0.325-0.073-0.587-0.093-0.786c-0.078,0.245-0.159,0.512-0.25,0.801l-0.105,0.004l0.014-0.235
		c-0.039,0.114-0.105,0.224-0.201,0.327l0.218-2.144c-0.03-0.043-0.066-0.083-0.111-0.125c-0.079,0.531-0.127,0.953-0.146,1.267
		c-0.219-0.178-0.282-0.709-0.188-1.596l-0.001-0.021c-0.045-0.056-0.089-0.104-0.133-0.144l-0.19,1.159l-0.063,0.003
		c-0.005-0.1-0.017-0.248-0.039-0.447c-0.125,0.433-0.271,0.766-0.433,0.998c0.15-0.93,0.26-1.646,0.326-2.146
		c-0.033-0.085-0.092-0.152-0.18-0.207c-0.23,0.691-0.484,1.15-0.76,1.374c0.195-0.463,0.395-1.012,0.599-1.646
		c-0.104-0.182-0.226-0.349-0.36-0.498c-0.207,0.549-0.369,0.926-0.49,1.127l-0.106,0.005l-0.028-0.191
		c0.055-0.103,0.209-0.491,0.47-1.171c-1.076-1.725-1.589-3.578-1.534-5.557c-0.044-0.016-0.086-0.021-0.129-0.019
		c0.004,0.099,0.007,0.191,0.01,0.277c0.02,0.127,0.01,0.219-0.031,0.278c-0.027,0.029-0.08,0.088-0.164,0.177l-0.107-0.038
		c-0.068-0.282-0.135-0.543-0.2-0.782c-0.086-0.024-0.188-0.036-0.301-0.032c-0.06,0.303-0.132,0.668-0.216,1.098l-0.104,0.004
		l0.255-1.141l-0.043-0.021c-0.016-0.042-0.066-0.062-0.152-0.06c0.004,0.072-0.006,0.157-0.031,0.258
		c-0.025,0.131-0.055,0.244-0.094,0.346c-0.025,0.087-0.08,0.167-0.162,0.242c0,0.014-0.026,0.043-0.082,0.088
		c-0.03-0.028-0.061-0.055-0.09-0.081c0.002,0.015-0.004,0.042-0.018,0.085l-0.107,0.005c0.025-0.101,0.035-0.2,0.031-0.301
		c-0.08-0.196-0.168-0.513-0.271-0.95c-0.015-0.015-0.03-0.021-0.044-0.021c0.004,0.07,0.007,0.143,0.01,0.215l0.057,0.959
		c-0.011,0.469-0.1,0.758-0.267,0.863c0.062,0.098,0.114,0.182,0.159,0.25c0.691,0.941,1.181,1.856,1.471,2.742l-0.062,0.065
		c-0.269-0.744-0.763-1.579-1.482-2.507c0.18,0.25,0.273,0.46,0.281,0.632c0,0.014,0,0.026,0.002,0.042
		c0.18,0.234,0.324,0.472,0.433,0.709l-0.129,0.005c-0.077-0.196-0.198-0.405-0.364-0.627c-0.016-0.015-0.044-0.019-0.087-0.019
		c0.329,0.799,0.564,1.574,0.707,2.324c0.091,0.15,0.132,0.285,0.122,0.398c0.02,0.143,0.01,0.242-0.031,0.302
		c0.017,0.069,0.027,0.155,0.03,0.255l-0.062,0.002c-0.004-0.1-0.023-0.185-0.053-0.254c-0.06-0.025-0.103-0.04-0.131-0.039
		c-0.058-0.408-0.304-0.892-0.736-1.445c0.002,0.057,0.004,0.121,0.006,0.192c0.105,0.14,0.182,0.292,0.23,0.461l-0.062,0.003
		c-0.24-0.318-0.493-0.621-0.762-0.91c0.112,0.323,0.195,0.647,0.25,0.973c0.017,0.027,0.032,0.062,0.047,0.105l-0.021,0.021
		c0.22,0.534,0.333,0.884,0.34,1.056c0.021,0.171,0.017,0.255-0.012,0.256l-0.106,0.004c-0.048-0.168-0.111-0.33-0.189-0.483
		l-0.021,0.001c0.17,0.365,0.256,0.703,0.252,1.016c0.021,0.114,0.025,0.229,0.014,0.344c0.109,0.28,0.16,0.489,0.152,0.635
		c0.018,0.099,0.006,0.154-0.037,0.172l-0.17-0.016c-0.33-0.814-0.918-2.037-1.764-3.672c-0.031-0.099-0.072-0.21-0.119-0.337
		c-0.014,0.015-0.025,0.036-0.04,0.065c0.101,0.422,0.181,0.861,0.242,1.314c0.183,0.334,0.383,0.762,0.604,1.279
		c0.449,1.023,0.688,1.646,0.711,1.874c0.002,0.086-0.004,0.144-0.016,0.172c-0.015,0.028-0.035,0.05-0.062,0.065l-0.063,0.003
		c-0.233-0.49-0.571-1.175-1.017-2.054c0.016,0.111,0.027,0.227,0.033,0.338c0.02,0.172-0.015,0.201-0.104,0.092
		c-0.058-0.412-0.121-0.764-0.19-1.062c-0.153-0.32-0.322-0.664-0.506-1.027l-0.002-0.041c-0.015,0.043-0.041,0.107-0.078,0.195
		c0.014,0.012,0.015,0.034,0.002,0.063c0.797,1.892,1.221,3.271,1.267,4.137c0.021,0.157,0.019,0.3-0.005,0.429
		c0.018,0.112,0.027,0.197,0.031,0.256c0.023,0.254-0.055,0.441-0.235,0.562l-0.044-0.039c-0.049-0.512-0.217-1.168-0.502-1.969
		c0.068,0.282,0.107,0.573,0.119,0.872l-0.106,0.004c-0.091-0.495-0.262-1.072-0.515-1.73c0.025,0.297,0.043,0.588,0.054,0.871
		c0.165,0.578,0.247,1.045,0.245,1.401c0.023,0.198,0.023,0.397,0.002,0.598c0.08,0.238,0.115,0.415,0.104,0.529
		c0.021,0.171,0.019,0.285-0.006,0.343l-0.107,0.004c-0.049-0.154-0.104-0.287-0.166-0.4c-0.034-0.184-0.092-0.353-0.168-0.506
		c-0.012,0.06-0.031,0.131-0.055,0.218h-0.022c-0.019,0.256-0.089,0.472-0.209,0.647l-0.068-0.082
		c0.177,0.506,0.267,0.809,0.271,0.908c0.002,0.085-0.002,0.143-0.016,0.172c0,0.028-0.019,0.057-0.061,0.088l-0.194-0.037
		c-0.349-0.955-0.667-1.832-0.952-2.633l0.045,1.215c-0.024,0.115-0.039,0.28-0.045,0.494c0.072,0.381,0.111,0.707,0.123,0.979
		c0,0.015,0,0.027,0,0.043c-0.031-0.113-0.07-0.205-0.115-0.273c0.002,0.057,0.004,0.135,0.008,0.234
		c-0.021,0.57-0.195,1.054-0.521,1.449l-0.066-0.062c0.09-0.272,0.136-0.602,0.135-0.985c-0.018-0.102-0.035-0.187-0.053-0.256
		l-0.084,0.004c-0.027,0.086-0.043,0.043-0.049-0.127c-0.019-0.113-0.031-0.233-0.035-0.361c-0.049-0.182-0.1-0.344-0.146-0.485
		c-0.027,0.429-0.064,0.935-0.113,1.521l-0.107,0.004l-0.055-0.915c0.006-0.185,0.021-0.364,0.043-0.536
		c-0.041,0.046-0.08,0.094-0.121,0.154c0.002,0.07,0.004,0.143,0.008,0.213l-0.03,1.453c-0.009,0.172-0.011,0.334-0.004,0.49
		l-0.063,0.004c-0.078-0.153-0.139-0.287-0.186-0.398c0.006,0.172-0.016,0.342-0.064,0.516l-0.086,0.004
		c0.012-0.045,0.004-0.078-0.025-0.106c-0.012,0.114-0.084,0.26-0.219,0.437c-0.105-0.14-0.193-0.222-0.267-0.246l-0.03,0.875
		l-0.106,0.006c0.013-0.059-0.023-0.241-0.106-0.553l-0.025,0.43l-0.063,0.002c-0.049-0.539-0.103-1.029-0.162-1.469
		c-0.003-0.07-0.026-0.154-0.073-0.252l0.006,0.191l-0.188,0.05l-0.067-0.083c-0.154-1.09-0.297-2.017-0.426-2.781
		c-0.014,0-0.027,0.008-0.041,0.022c0.002,0.043-0.005,0.086-0.017,0.129c-0.007,0.172-0.015,0.356-0.022,0.556
		c0.137,0.594,0.211,1.053,0.223,1.381c0.029,0.34,0.006,0.867-0.066,1.582c0.033,0.142,0.051,0.239,0.053,0.297
		c0.051,0.582-0.012,0.977-0.188,1.183c0.062,0.126,0.11,0.258,0.144,0.399l-0.062,0.047c-0.061-0.111-0.129-0.231-0.205-0.356
		l-0.042,0.024c-0.104-0.125-0.187-0.25-0.248-0.377h0.021c0.016-0.014,0.008-0.022-0.021-0.021
		c-0.021-0.154-0.067-0.43-0.138-0.826c-0.049-0.177-0.105-0.359-0.172-0.55c0.01,0.035,0.004,0.072-0.017,0.108
		c-0.002,0.341-0.024,0.697-0.065,1.07c0.106,0.577,0.164,0.982,0.174,1.209c0.004,0.101-0.002,0.172-0.015,0.215
		c0,0.015-0.02,0.043-0.062,0.088l-0.172-0.036c-0.084-0.339-0.195-0.854-0.336-1.545c-0.058-0.015-0.107-0.04-0.152-0.081
		c0.01-0.1,0.018-0.277,0.023-0.535c0.01-0.071,0-0.134-0.029-0.189c-0.027,0.072-0.073,0.158-0.141,0.262
		c0.03,1.209,0.043,1.884,0.033,2.027l-0.105-0.019c-0.156-0.336-0.256-0.729-0.303-1.185c-0.066,0.487-0.138,0.867-0.213,1.141
		c-0.003,0.285-0.021,0.533-0.058,0.749l-0.046-0.104l-0.143-0.937c0.008-0.896-0.02-1.621-0.082-2.175
		c0.024-0.086,0.022-0.144-0.006-0.17c-0.013-0.299-0.037-0.569-0.074-0.81c-0.002,1.081-0.021,2.308-0.054,3.675l-0.108-0.039
		c-0.121-0.591-0.211-1.308-0.272-2.146c0.013-0.058,0.011-0.113-0.007-0.171c-0.008,0.13-0.046,0.265-0.112,0.41
		c0.024,0.256,0.019,0.506-0.014,0.748c0.262,0.887,0.397,1.494,0.409,1.822c0.025,0.295-0.022,0.553-0.141,0.773
		c-0.074-0.041-0.117-0.076-0.133-0.104c-0.041-0.299-0.087-0.58-0.139-0.848c-0.024-0.215-0.067-0.426-0.131-0.637
		c0,0.027-0.006,0.057-0.02,0.086l-0.107-0.018c-0.008-0.201-0.014-0.385-0.021-0.555c-0.021-0.214-0.064-0.417-0.131-0.615
		c0.01,0.584,0.02,1.047,0.031,1.389l-0.105,0.004c-0.139-0.692-0.218-1.096-0.238-1.209c-0.051,0.158-0.109,0.297-0.177,0.412
		c0.036,0.197,0.058,0.402,0.067,0.617c0.025,0.338-0.006,0.612-0.1,0.815c-0.043-0.028-0.065-0.077-0.068-0.147
		c-0.033-0.127-0.066-0.254-0.1-0.381c0.004,0.114,0.01,0.234,0.015,0.363c0.005,0.555,0.028,0.988,0.069,1.3l-0.106,0.005
		c-0.115-0.382-0.271-1.108-0.468-2.184c-0.01-0.271-0.039-0.497-0.09-0.682c-0.039,0.103-0.121,0.178-0.248,0.224
		c0.066-0.499-0.004-1.081-0.215-1.742c-0.055,0.045-0.119,0.091-0.187,0.136c0.004,0.1,0,0.2-0.011,0.299
		c0.017,0.099,0.016,0.25-0.006,0.449c0.227,0.688,0.447,1.465,0.666,2.324c0.03,0.098,0.013,0.184-0.057,0.258l-0.127,0.006
		c-0.066-0.24-0.179-0.57-0.337-0.992c0.021,0.141,0.026,0.291,0.017,0.449c0.021,0.141,0.017,0.248-0.009,0.318l-0.063,0.003
		c-0.068-0.323-0.182-0.67-0.338-1.032c-0.015,0-0.027,0.021-0.039,0.064l-0.067-0.104c0.009-0.102,0.006-0.187-0.01-0.256
		c-0.144-0.38-0.302-0.779-0.474-1.201c-0.056,0.045-0.119,0.097-0.187,0.157c0.429,0.822,0.803,1.834,1.116,3.032
		c-0.225-0.359-0.514-0.828-0.862-1.396c0.201,0.446,0.351,0.799,0.444,1.051l-0.104,0.045c-0.442-0.809-0.856-1.561-1.237-2.26
		c-0.069,0.033-0.141,0.078-0.209,0.138c0.867,1.135,1.322,2.051,1.362,2.745c0.021,0.143-0.014,0.173-0.104,0.09
		c-0.168-0.32-0.438-0.737-0.814-1.25c0.08,0.224,0.146,0.47,0.199,0.738l-0.215-0.033c-0.176-0.465-0.371-0.963-0.59-1.494
		c-0.107-0.153-0.219-0.305-0.338-0.457c-0.028,0.016-0.063,0.039-0.104,0.068c0.153,0.306,0.265,0.593,0.332,0.863l-0.062,0.043
		c0.369,0.371,0.556,0.605,0.56,0.705c0.021,0.114,0.007,0.172-0.035,0.174c-0.101,0.004-0.155,0.006-0.171,0.006
		c-0.119-0.109-0.249-0.203-0.395-0.284c0.107,0.237,0.209,0.499,0.306,0.778c-0.013,0.043-0.046,0.065-0.103,0.067
		c-0.02-0.084-0.057-0.155-0.117-0.209l-0.104,0.048c-0.44-0.354-0.916-0.742-1.433-1.164c-0.012,0.016-0.033,0.045-0.061,0.09
		l-0.185,0.197c1.036,1.827,1.724,3.651,2.065,5.475c0.041,0.026,0.08,0.067,0.109,0.125c0.105,0.152,0.221,0.332,0.341,0.541
		c0.5,0.793,0.837,1.408,1.011,1.842l-0.106,0.004c-0.125-0.279-0.347-0.671-0.664-1.171l-0.045-0.062
		c-0.185-0.321-0.364-0.604-0.544-0.854c0.031,0.084,0.048,0.17,0.051,0.255c0.168,0.263,0.32,0.563,0.462,0.899
		c0.677,1.342,1.06,2.096,1.153,2.264l-0.106,0.004c-0.577-0.975-1.005-1.713-1.28-2.217c-0.045-0.096-0.098-0.188-0.158-0.271
		c0.061,0.468,0.093,0.946,0.097,1.429c0.106,0.181,0.198,0.369,0.276,0.565c0.229,0.403,0.514,0.97,0.854,1.698
		c0.138,0.236,0.261,0.486,0.371,0.754c0.029,0.042,0.052,0.089,0.069,0.146l-0.063,0.002c0.015,0.07,0.011,0.127-0.016,0.172
		l-0.13-0.039c-0.576-0.916-1.045-1.652-1.408-2.209c0.003,0.07-0.001,0.156-0.012,0.258c0.257,0.416,0.6,0.994,1.027,1.732
		c-0.027,0.029-0.084,0.039-0.171,0.027c-0.257-0.374-0.512-0.734-0.768-1.081c0.466,1.007,0.747,1.687,0.847,2.039l-0.105,0.004
		c-0.188-0.42-0.498-1.069-0.93-1.95l0.002,0.043c0.062,0.096,0.108,0.201,0.141,0.314c0.029,0.013,0.037,0.04,0.023,0.084
		c0.264,0.531,0.643,1.342,1.139,2.436l-0.062,0.043c-0.063-0.14-0.137-0.25-0.226-0.332c0.015,0.026,0.016,0.049,0.002,0.063
		c0.021,0.185,0.013,0.319-0.027,0.407l-0.107-0.039c-0.068-0.268-0.389-1.045-0.965-2.334c-0.01,0.1-0.033,0.208-0.072,0.324
		c0.002,0.069-0.016,0.162-0.053,0.277c0.11,0.324,0.209,0.633,0.291,0.93c0.282,0.33,0.588,0.66,0.912,0.99
		c-0.262-0.147-0.539-0.371-0.838-0.674c0.133,0.451,0.223,0.818,0.278,1.102c0.088,0.096,0.179,0.213,0.271,0.353
		c0.129,0.081,0.262,0.162,0.393,0.241c0.007,0.185-0.049,0.209-0.168,0.07c-0.117-0.08-0.278-0.23-0.486-0.451l0.001,0.021
		c0.019,0.113,0.008,0.199-0.034,0.257l-0.062,0.004c0,0.014,0,0.035,0.002,0.063c-0.062,0.244-0.12,0.396-0.176,0.454
		c0.092,0.138,0.176,0.299,0.254,0.482c0.076,0.096,0.136,0.193,0.183,0.291c-0.132-0.138-0.351-0.408-0.649-0.808
		c0.205,0.533,0.316,0.877,0.338,1.033c0.422,0.638,0.664,1.006,0.726,1.104c-0.224-0.209-0.458-0.441-0.699-0.701l0.013,0.021
		l-0.063,0.023c-0.222-0.234-0.446-0.476-0.668-0.724c0.108,0.267,0.19,0.534,0.243,0.804c-0.026,0.057-0.061,0.094-0.102,0.11
		c-0.129-0.378-0.324-0.786-0.592-1.228c0.018,0.039,0.01,0.087-0.027,0.14c0.029,0.026,0.037,0.047,0.024,0.063
		c0.044,0.056,0.075,0.119,0.092,0.188c0.212,0.335,0.372,0.634,0.482,0.9c0.364,0.244,0.825,0.566,1.383,0.974l-0.104,0.024
		c-0.258-0.047-0.599-0.19-1.021-0.432c0.061,0.084,0.107,0.174,0.141,0.272c0.027-0.001,0.035,0.019,0.021,0.063
		c0.988,0.887,1.484,1.402,1.488,1.545c0.022,0.17,0.01,0.213-0.037,0.129c-0.5-0.422-0.963-0.824-1.391-1.207
		c-0.022,0.129-0.103,0.261-0.24,0.395l0.039-0.088c-0.051-0.196-0.152-0.442-0.307-0.734c-0.074-0.098-0.148-0.174-0.222-0.228
		c-0.163-0.179-0.321-0.337-0.468-0.474c0.047,0.084,0.07,0.16,0.074,0.231l0.045,0.681c0.594,0.619,1.094,1.062,1.504,1.332
		c0-0.029,0.006-0.043,0.02-0.044c0.027-0.043,0.055-0.059,0.085-0.045c-0.015,0.015-0.007,0.035,0.022,0.062
		c-0.014,0.016-0.11,0.084-0.291,0.205c-0.25-0.205-0.514-0.408-0.793-0.611c0.265,0.246,0.555,0.542,0.867,0.887l-0.062,0.044
		c-0.514-0.422-1.03-0.879-1.546-1.372c0.016,0.412,0.03,0.797,0.043,1.15c0.207,1.73,0,2.627-0.624,2.693
		c1.72,0.662,2.682,1.08,2.889,1.258c0.176,0.164,0.264,0.39,0.26,0.674c0.025,0.283,0.019,0.477-0.021,0.576
		c-0.091,0.261-0.339,0.428-0.75,0.5l-2.132,0.08c-1.047-0.217-4.398-0.696-10.049-1.437c-3.723-0.514-6.099-1.036-7.129-1.567
		c-0.127,0.062-0.229,0.188-0.308,0.375c0.542-0.021,1.14,0.205,1.799,0.681c0.599,0.375,0.901,0.685,0.91,0.927
		c0.022,0.198,0.007,0.348-0.046,0.45c-0.162,0.247-0.577,0.392-1.245,0.43l-5.112-0.831c-1.735,0.051-3.006-0.064-3.814-0.347
		c-0.809-0.269-1.245-0.743-1.314-1.425c-0.074-0.879,0.271-1.499,1.041-1.854c1.564-0.784,2.728-1.499,3.485-2.139
		c2.242-0.199,3.758-0.406,4.548-0.621c0.719-0.213,1.751-0.358,3.102-0.438c1.539,0.398,2.826,0.599,3.867,0.603
		c0.014-0.017,0.057-0.017,0.127-0.005l0.064-0.002l0.078-0.153c-0.115-0.022-0.258-0.032-0.428-0.026
		c-0.172-0.021-0.287-0.045-0.344-0.071c-0.127,0.048-0.261,0.073-0.404,0.079c-0.112,0.004-0.219-0.028-0.322-0.096
		c-0.117-0.066-0.184-0.143-0.2-0.227c-0.004-0.1,0.006-0.188,0.032-0.258c0.099,0.009,0.221,0.02,0.363,0.027
		c-0.059-0.054-0.061-0.103-0.006-0.148c0.125-0.076,0.244-0.158,0.354-0.247H62.04c0.125-0.09,0.221-0.194,0.287-0.31
		c-0.014,0-0.041,0.008-0.082,0.023c-0.226,0.107-0.429,0.172-0.613,0.193c-0.172-0.008-0.295-0.06-0.369-0.156
		c0.152-0.092,0.285-0.167,0.396-0.229c-0.07-0.013-0.129-0.023-0.172-0.037c-0.016-0.056-0.039-0.09-0.066-0.104l-0.051-0.146
		l0.098-0.281c0.346-0.299,0.656-0.559,0.932-0.782c-0.416,0.313-0.809,0.478-1.178,0.492c-0.156,0.006-0.242-0.013-0.26-0.054
		c0.717-0.625,1.311-1.146,1.778-1.562c0.007-0.156,0.017-0.314,0.025-0.471c-0.363,0.228-0.741,0.369-1.138,0.428
		c-0.153,0.076-0.31,0.117-0.467,0.123c-0.184,0.007-0.263-0.025-0.238-0.098c0.523-0.502,0.955-0.911,1.301-1.225
		c0.093-0.174,0.186-0.341,0.279-0.501c-0.067,0.073-0.151,0.14-0.248,0.202l-0.002-0.043c0.23-0.279,0.435-0.55,0.609-0.812
		c0.09-0.303,0.182-0.648,0.282-1.037c-0.108,0.16-0.239,0.322-0.39,0.486c-0.252,0.434-0.549,0.902-0.887,1.399
		c0.189-0.292,0.356-0.583,0.502-0.873c-0.096,0.116-0.197,0.256-0.305,0.417c-0.098,0.104-0.212,0.234-0.35,0.396l-0.047-0.084
		c0.098-0.119,0.185-0.234,0.267-0.352c0.663-1.664,1.144-2.877,1.442-3.643l0.021-0.022c-0.003-0.085-0.013-0.147-0.028-0.19
		c-0.232,0.592-0.471,1.1-0.711,1.521c-0.347,0.995-0.607,1.654-0.779,1.975l-0.045-0.043c0.019-0.271,0.058-0.564,0.115-0.88
		c-0.191,0.193-0.379,0.308-0.562,0.341c-0.173-0.02-0.222-0.031-0.151-0.035l-0.021-0.043c0.482-0.785,0.865-1.42,1.145-1.899
		c0.105-0.274,0.195-0.542,0.27-0.802c-1.002,1.732-1.523,2.636-1.562,2.707l-0.044-0.041c0.001-0.312,0.101-0.715,0.295-1.207
		c-0.015-0.041-0.038-0.077-0.067-0.104c0.344-0.697,0.627-1.312,0.849-1.849c-0.433,0.614-0.953,1.34-1.562,2.173l-0.002-0.041
		c0.104-0.275,0.276-0.63,0.516-1.066l-0.043,0.022l-0.004-0.128c-0.021-0.184-0.016-0.391,0.021-0.62l-0.092-0.124
		c0.106-0.232,0.204-0.443,0.296-0.631c0.05-0.201,0.1-0.395,0.148-0.581c-0.371,0.34-0.758,0.66-1.158,0.96
		c0.546-0.645,1.029-1.213,1.451-1.697c0.053-0.131,0.098-0.254,0.137-0.369c-0.395,0.527-0.713,0.916-0.96,1.168l-0.043-0.039
		c0.433-0.588,0.839-1.149,1.216-1.691c0.041-0.072,0.066-0.13,0.079-0.175c0.222-0.521,0.411-0.976,0.567-1.366
		c0.01-0.1,0-0.191-0.031-0.275l-0.043,0.022c-0.965,1.204-1.795,2.026-2.489,2.464c-0.03-0.027-0.047-0.09-0.052-0.189
		c0.961-0.989,1.74-1.832,2.34-2.522c0.068-0.088,0.13-0.168,0.184-0.242c-0.045-0.452-0.096-0.849-0.15-1.19
		c-0.807,0.899-1.422,1.551-1.85,1.949c0.014,0,0.008,0.021-0.02,0.065l-0.021,0.001c-0.139,0.119-0.271,0.209-0.396,0.271
		c0.124-0.105,0.227-0.195,0.31-0.27c0.154-0.846,0.777-1.844,1.874-2.996c-0.065-0.595-0.097-1.035-0.093-1.32
		c0.018-0.982,0.068-2.125,0.146-3.424c0.135-1.328,0.189-2.178,0.16-2.547c-0.144-1.916-0.275-3.869-0.392-5.857
		c-0.188,0.263-0.407,0.535-0.652,0.814l-0.046-0.042c0.042-0.043,0.27-0.385,0.688-1.028c-0.017-0.47,0.014-0.982,0.092-1.541
		c-0.557,0.732-0.944,1.196-1.165,1.39l-0.002-0.063c0.475-0.615,0.882-1.158,1.221-1.627c0.027-0.029,0.025-0.064-0.004-0.105
		c-0.29,0.281-0.616,0.498-0.979,0.656c0,0.014-0.026,0.049-0.082,0.108l0.062-0.088c-0.055,0.019-0.125,0.048-0.209,0.094
		c0.14-0.104,0.255-0.202,0.353-0.291c0.445-0.614,0.818-1.127,1.117-1.537c0.062-0.215,0.118-0.425,0.168-0.626
		c-0.478,0.561-0.852,1.037-1.121,1.432l-0.045-0.062c0.281-0.48,0.701-1.015,1.264-1.605c0.051-0.146,0.09-0.274,0.113-0.389
		c-0.33,0.297-0.656,0.553-0.975,0.762l-0.066-0.104c0.547-0.576,0.984-1.048,1.312-1.416c-0.371,0.384-0.821,0.707-1.353,0.969
		l-0.068-0.146c0.63-0.678,1.074-1.15,1.335-1.416c0.165-0.163,0.323-0.319,0.474-0.467c0.458-1.057,0.992-2.203,1.6-3.436
		c2.156-4.365,4.189-7.107,6.097-8.218c1.922-1.155,2.961-1.714,3.119-1.677c-0.953-0.362-1.765-1.092-2.433-2.192
		c-0.654-1.129-1.39-2.497-2.205-4.104c-0.772-1.65-1.271-2.764-1.492-3.338c-0.148-0.521-0.733-3.02-1.758-7.494l-0.084,0.002
		c-0.017-0.039-0.033-0.133-0.054-0.273c0.011-0.115,0.007-0.208-0.011-0.277c-0.157-0.748-0.322-1.525-0.494-2.33
		c-0.361-1.639-0.688-3.1-0.979-4.385c0.016,0.385,0.018,0.626,0.008,0.727l-0.106,0.004c-0.001-0.014-0.016-0.021-0.044-0.02
		l0.016-0.193c-0.024-0.283-0.019-0.659,0.021-1.131c-0.394-2.122-0.679-3.785-0.851-4.987c-0.09,0.63-0.191,1.181-0.301,1.656
		l-0.106,0.004c0.12-0.546,0.245-1.255,0.368-2.128c-0.037-0.611-0.049-1.088-0.032-1.43c0.055-0.443,0.093-0.914,0.118-1.414
		c-0.36,1.765-0.594,2.949-0.7,3.55l-0.106,0.004c0.1-0.743,0.362-2.099,0.787-4.065c0.051-0.173,0.079-0.33,0.09-0.473
		c0.102-1.086,0.189-2.321,0.266-3.705c0.072-0.729,0.139-1.4,0.201-2.015c-0.041,0.044-0.09,0.089-0.145,0.134
		c-0.125,0.104-0.264,0.223-0.415,0.357c-0.463,0.914-0.946,1.652-1.452,2.212c0.041-0.059,0.074-0.117,0.1-0.175
		c-0.014,0.014-0.025,0.036-0.041,0.065c0.085-0.444,0.193-0.897,0.334-1.358c-0.225,0.109-0.42,0.173-0.59,0.194
		c-0.172-0.009-0.295-0.025-0.365-0.051l0.041-0.044c0.335-0.141,0.691-0.318,1.068-0.531c0.037-0.115,0.063-0.217,0.073-0.302
		c-0.308,0.125-0.562,0.206-0.759,0.242c-0.2-0.007-0.277-0.017-0.236-0.033l0.295-0.118c0.319-0.183,0.599-0.343,0.836-0.48
		c0.127-0.389,0.27-0.786,0.426-1.19c-0.057,0.002-0.144,0.012-0.256,0.031c-0.198,0.406-0.432,0.835-0.699,1.287L62.72,86.84
		c0.142-0.419,0.298-0.823,0.468-1.214c-0.185,0.006-0.399,0.022-0.64,0.045c-0.041,0.045-0.09,0.11-0.143,0.197l-0.002-0.063
		c0.04-0.058,0.066-0.102,0.08-0.131c-0.043,0.001-0.113,0.004-0.213,0.008c-0.157-0.009-0.456-0.005-0.896,0.012
		c-0.455-0.026-0.722-0.051-0.793-0.077c0.815-0.258,1.549-0.45,2.199-0.574c0.077-0.188,0.169-0.39,0.273-0.608
		c-1.051,0.381-1.758,0.579-2.111,0.592c-0.072-0.011-0.15-0.008-0.234,0.009c-0.029,0.001-0.063,0.002-0.105,0.004
		c-0.043-0.013-0.087-0.019-0.129-0.017c-0.342-0.001-0.557-0.021-0.645-0.061l0.063-0.045c0.224-0.079,0.456-0.152,0.696-0.218
		l0.293-0.139c0.15-0.176,0.433-0.429,0.847-0.758c-0.099,0.004-0.192,0.015-0.274,0.032c-0.186,0.006-0.244-0.019-0.176-0.079
		l0.041-0.066c0.195-0.107,0.53-0.268,1.006-0.486c0.092-0.217,0.17-0.427,0.232-0.628c-0.112,0.019-0.239,0.037-0.381,0.057
		c-0.189,0.278-0.422,0.536-0.697,0.774c0.08-0.146,0.138-0.29,0.177-0.434c-0.168,0.106-0.3,0.162-0.401,0.165
		c-0.17,0.007-0.213-0.013-0.129-0.059c0.123-0.118,0.274-0.26,0.453-0.423c-0.058-0.013-0.128-0.024-0.215-0.035
		c-0.145-0.038-0.244-0.07-0.303-0.096c0.238-0.08,0.525-0.184,0.863-0.31c0.026-0.043,0.041-0.079,0.039-0.108
		c-0.056,0.017-0.133,0.034-0.233,0.052c0.099-0.032,0.185-0.071,0.252-0.116c0.015-0.029,0.026-0.058,0.04-0.087
		c-0.783,0.357-1.402,0.545-1.859,0.562c-0.326,0.012-0.562-0.036-0.709-0.144c0.604-0.222,1.229-0.474,1.872-0.754
		c0.136-0.205,0.263-0.452,0.378-0.741c-0.195,0.122-0.382,0.242-0.562,0.363c-0.143-0.009-0.221-0.041-0.238-0.098
		c0.357-0.299,0.704-0.582,1.035-0.851c0.014-0.044,0.027-0.072,0.04-0.087c-0.211,0.08-0.427,0.166-0.651,0.26
		c-0.027,0.029-0.068,0.073-0.123,0.133c-0.045-0.027-0.074-0.047-0.089-0.061c-0.407,0.129-0.725,0.199-0.952,0.207
		c-0.199,0.008-0.371-0.022-0.517-0.087c0.435-0.173,0.946-0.377,1.536-0.613l-0.047-0.062c0.043-0.044,0.084-0.081,0.125-0.111
		c-0.334,0.169-0.685,0.347-1.049,0.531c0.392-0.228,0.78-0.471,1.168-0.727c0.141-0.433,0.275-0.836,0.404-1.211
		c-0.971,0.35-1.552,0.586-1.746,0.707l-0.002-0.042c0.412-0.4,0.939-0.776,1.581-1.128c0.095-0.118,0.218-0.25,0.369-0.398
		c-1.01,0.778-2.149,1.505-3.421,2.179l0.271-0.16c0.748-0.54,1.435-1.051,2.058-1.53c-0.022-0.17-0.056-0.318-0.104-0.444
		c-0.013,0.014-0.039,0.058-0.08,0.131c-0.07,0.002-0.115-0.038-0.131-0.123c0.065-0.117,0.104-0.239,0.112-0.368
		c-0.044-0.027-0.115-0.039-0.215-0.035c-1.095,0.767-1.882,1.239-2.359,1.413l-0.003-0.064c0.309-0.154,1.018-0.615,2.126-1.383
		c-0.101-0.067-0.231-0.098-0.388-0.092c0.14-0.062,0.422-0.137,0.846-0.224c0.014-0.014,0.027-0.029,0.041-0.044
		c0.004-0.27,0.028-0.563,0.074-0.878c-0.002-0.043-0.023-0.049-0.064-0.019c-1.33,0.961-2.261,1.409-2.789,1.344
		c0.852-0.417,1.652-0.875,2.403-1.373l0.021-0.022c-0.156-0.022-0.25-0.04-0.279-0.053c0.152-0.119,0.221-0.179,0.208-0.179
		c0.041-0.015,0.077-0.024,0.104-0.025c-0.015-0.014-0.037-0.013-0.063,0.002c-0.171,0.006-0.213-0.006-0.13-0.038l0.145-0.134
		c0.055-0.03,0.09-0.046,0.105-0.046c0.074-0.287,0.142-0.568,0.201-0.84h-0.021c-0.116,0.246-0.259,0.48-0.421,0.699l-0.066-0.04
		c0.078-0.202,0.17-0.42,0.274-0.651c-0.101-0.01-0.228-0.02-0.386-0.028l0.042-0.066c0.151-0.077,0.319-0.168,0.501-0.275
		l-0.001-0.021c-0.044-0.013-0.085-0.011-0.128,0.005c0.07-0.06,0.132-0.098,0.188-0.115c0.067-0.13,0.127-0.246,0.18-0.348
		c-1.607,1.142-2.644,1.794-3.107,1.954c0.557-0.32,1.641-1.08,3.245-2.28l0.041-0.065c0.063-0.187,0.128-0.382,0.19-0.584
		c-0.402,0.243-0.711,0.404-0.921,0.483c0.245-0.279,0.513-0.546,0.802-0.799c-0.084-0.012-0.149-0.023-0.191-0.036
		c-0.029-0.027-0.059-0.055-0.09-0.082c0.056-0.073,0.109-0.139,0.164-0.198c-0.305,0.211-0.578,0.335-0.819,0.373
		c-0.028-0.013-0.071-0.019-0.128-0.017c-0.164,0.177-0.295,0.268-0.396,0.271c-0.127,0.005-0.213-0.006-0.257-0.033l-0.091-0.125
		c-0.6,0.364-1.213,0.673-1.844,0.924c0.808-0.486,1.591-1.014,2.354-1.583c0.325-0.44,0.623-0.836,0.896-1.188
		c-1.046,0.552-2.083,1.046-3.104,1.484c0.391-0.228,1.547-0.877,3.473-1.946l0.02-0.044c-1.691,0.805-2.938,1.357-3.738,1.658
		c1.498-0.697,2.791-1.301,3.881-1.812c0.586-0.734,1.041-1.306,1.367-1.717c-0.098,0.047-0.223,0.123-0.377,0.228
		c-0.056,0.016-0.123,0.055-0.207,0.115c-0.334,0.255-0.714,0.525-1.146,0.812c-1.431,0.951-2.737,1.556-3.925,1.814
		c0.731-0.271,1.514-0.641,2.35-1.114c-0.475,0.246-0.895,0.454-1.258,0.624l-0.002-0.064c0.013-0.015,0.027-0.029,0.039-0.044
		c-0.278,0.124-0.545,0.248-0.797,0.372c1.883-1.111,3.281-1.94,4.199-2.487c0.5-0.332,0.924-0.626,1.271-0.881
		c0.276-0.209,0.519-0.417,0.723-0.625c-0.071-0.04-0.206-0.013-0.401,0.08c-0.232,0.279-0.512,0.575-0.842,0.886
		c-0.143,0.006-0.244-0.026-0.304-0.095c0.038-0.116,0.07-0.223,0.095-0.324c-1.576,0.9-2.662,1.482-3.266,1.747l-0.001-0.043
		c1.188-0.558,2.284-1.14,3.286-1.747c0.049-0.187,0.113-0.381,0.191-0.584c-0.181,0.12-0.375,0.235-0.586,0.342
		c-1.404,0.851-2.844,1.581-4.315,2.192l-0.003-0.064c1.912-1.041,3.516-1.941,4.81-2.702c-0.465,0.118-0.915,0.248-1.353,0.393
		c-0.858,0.231-1.868,0.441-3.029,0.627c1.743-0.593,3.1-1.043,4.07-1.35c0.127-0.048,0.227-0.073,0.297-0.075
		c-0.002-0.029-0.003-0.057-0.004-0.086c0.109-0.161,0.211-0.293,0.306-0.396l-0.062,0.045c-0.912,0.348-1.854,0.668-2.826,0.961
		c-0.916,0.263-1.867,0.498-2.856,0.706c0.832-0.215,2.089-0.691,3.771-1.423c0.365-0.171,0.714-0.319,1.05-0.446l-0.274,0.032
		c0.084-0.046,0.146-0.077,0.188-0.093c-0.467,0.06-1.055,0.153-1.762,0.28c-0.241,0.024-0.504,0.055-0.787,0.094
		c-2.125,0.265-3.461,0.373-4.002,0.322c1.332-0.121,2.621-0.277,3.869-0.466c0.679-0.096,1.26-0.19,1.739-0.279
		c0.523-0.134,0.945-0.249,1.269-0.347c-0.143-0.023-0.305-0.024-0.491-0.003c-0.257-0.005-0.541-0.001-0.853,0.011
		c-1.94-0.07-3.348-0.195-4.223-0.375c-0.173-0.036-0.259-0.068-0.26-0.097c2.482,0.148,4.072,0.224,4.771,0.226
		c0.426-0.002,0.805-0.002,1.131,0c0.058-0.002,0.092-0.003,0.106-0.004l0.021-0.043l-0.004-0.107
		c0.027-0.044,0.117-0.125,0.27-0.245c0.057-0.003,0.084-0.018,0.083-0.046c-0.086-0.025-0.167-0.065-0.24-0.119
		c-0.013,0.015-0.041,0.024-0.084,0.025c-0.265,0.153-0.522,0.326-0.771,0.521l-0.066-0.062c0.109-0.132,0.24-0.265,0.393-0.399
		c-0.683,0.082-1.293,0.063-1.84-0.059c-0.229-0.034-0.367-0.079-0.41-0.135l0.062-0.044c0.085-0.004,0.22-0.009,0.405-0.016
		c-0.471-0.039-0.916-0.108-1.332-0.206c-0.172-0.051-0.26-0.082-0.26-0.097c0.756,0.043,1.398,0.083,1.926,0.12
		c0.056-0.073,0.123-0.126,0.207-0.157c-0.055,0.03-0.104,0.082-0.144,0.155c0.286,0.017,0.521,0.023,0.706,0.016l0.043-0.002
		c-0.044-0.04-0.061-0.089-0.049-0.147c0.051-0.173,0.311-0.432,0.782-0.777c0.485-0.346,0.743-0.512,0.771-0.499
		c0.014-0.014,0.028-0.008,0.043,0.02c-0.014,0-0.02,0.022-0.019,0.064c0.042-0.015,0.079-0.009,0.106,0.018
		c0.185-0.008,0.334-0.02,0.447-0.039c0.055-0.044,0.119-0.082,0.188-0.113c0.058,0.026,0.096,0.053,0.111,0.081
		c0.055-0.059,0.109-0.09,0.166-0.092c0.023-0.114,0.051-0.186,0.077-0.216c-0.14,0.048-0.272,0.096-0.399,0.143
		c-0.1,0.019-0.205,0.051-0.317,0.098c0.099-0.047,0.196-0.086,0.296-0.118c0.152-0.105,0.307-0.182,0.461-0.231
		c0.023-0.129,0.049-0.215,0.075-0.259c-0.099,0.018-0.212,0.051-0.338,0.099c-1.696,0.676-3.021,0.918-3.966,0.726
		c-0.202-0.063-0.225-0.104-0.069-0.125l0.062-0.066c1.285-0.305,2.336-0.566,3.153-0.781c0.509-0.119,0.937-0.242,1.288-0.369
		c0.068-0.117,0.111-0.239,0.137-0.368c-0.438,0.087-0.99,0.158-1.658,0.212c-1.545,0.201-2.61,0.234-3.198,0.099
		c-0.173-0.05-0.218-0.07-0.132-0.059c0.338-0.084,0.658-0.119,0.957-0.101c0-0.043,0.006-0.05,0.021-0.022
		c1.521-0.427,2.712-0.757,3.572-0.989c-0.094-0.253-0.161-0.471-0.196-0.655c-0.069,0.045-0.153,0.077-0.252,0.095
		c-1.085,0.326-2.217,0.497-3.397,0.513c1.121-0.099,2.139-0.322,3.049-0.67c0.227-0.079,0.436-0.158,0.633-0.237
		c0.012-0.086,0.023-0.122,0.039-0.109l0.043,0.021l0.129,0.016c0.041-0.029,0.062-0.037,0.062-0.023
		c-0.016-0.042-0.031-0.056-0.045-0.041l-0.045-0.062c-0.087-0.04-0.125-0.124-0.115-0.252c0.024-0.072,0.022-0.128-0.006-0.17
		c-0.004-0.099-0.037-0.198-0.099-0.295c-0.198,0.036-0.431,0.095-0.696,0.176c-1.058,0.268-1.83,0.383-2.314,0.344
		c0.664-0.111,1.398-0.281,2.201-0.511c0.279-0.096,0.527-0.169,0.738-0.22c-0.052-0.24-0.066-0.425-0.043-0.554
		c0.026-0.115,0.045-0.165,0.061-0.151l0.021,0.02c0.218,0.078,0.392,0.142,0.521,0.194c0.072-0.002,0.121-0.004,0.15-0.005
		c-0.002-0.028-0.018-0.056-0.047-0.084c-0.145-0.079-0.224-0.126-0.24-0.14c0.086-0.018,0.156-0.013,0.215,0.013
		c-0.002-0.07-0.026-0.155-0.073-0.253l-0.063,0.002c-0.638,0.082-1.337,0.044-2.098-0.113c-0.188-0.035-0.361-0.1-0.521-0.194
		l-0.006-0.17c0.416,0.084,1.131,0.163,2.146,0.239c0.2,0.006,0.362,0.008,0.491,0.003c0.011-0.071-0.004-0.142-0.051-0.211
		c-0.074-0.111-0.172-0.207-0.287-0.288c-0.485,0.018-0.877,0.003-1.178-0.042c-0.432-0.112-0.699-0.215-0.803-0.311
		c-0.075-0.111-0.158-0.25-0.251-0.417l0.042-0.045c0.074,0.097,0.127,0.166,0.156,0.208c0.089,0.096,0.263,0.168,0.521,0.215
		c0.33,0.058,0.645,0.103,0.945,0.135c-0.116-0.052-0.239-0.083-0.367-0.093l0.038-0.15c0.108-0.089,0.358-0.078,0.749,0.036
		c0.07-0.002,0.17,0.022,0.301,0.074c-0.039-0.27-0.098-0.537-0.181-0.805c-0.313-0.016-0.585-0.049-0.815-0.097l-0.927-0.264
		c-0.123-0.208-0.185-0.341-0.187-0.398l0.107,0.038c0.418,0.141,0.938,0.279,1.553,0.412c0.103,0.011,0.158,0.023,0.174,0.036
		c-0.023-0.213-0.067-0.438-0.135-0.678l-1.14-0.234c-0.651-0.289-0.999-0.439-1.042-0.452l0.404,0.006l1.681,0.364
		c-0.14-0.692-0.317-1.433-0.532-2.222c-0.283-1.114-0.549-2.286-0.795-3.515c-0.15-0.237-0.324-0.494-0.521-0.771l0.36-0.099
		c-0.616-0.845-0.919-1.311-0.907-1.397l0.058-0.172l0.024,0.063c0.242,0.033,0.459,0.117,0.649,0.253
		c-0.243-1.884-0.469-3.933-0.681-6.146c-0.109-0.194-0.236-0.389-0.387-0.583l0.254-0.052l0.09,0.082
		c0.041-0.044,0.041-0.065-0.002-0.064c-0.351-0.585-0.532-0.898-0.549-0.94c0.039-0.086,0.065-0.131,0.08-0.131l0.045,0.042
		c0.143,0.008,0.279,0.082,0.414,0.219c0.01-0.157-0.004-0.305-0.039-0.447l-0.795-1.272c0.024-0.129,0.072-0.18,0.145-0.155
		l0.13,0.059c0.164,0.194,0.312,0.359,0.446,0.496c-0.008-0.227-0.01-0.448-0.004-0.662c-0.481-0.68-0.729-1.041-0.746-1.083
		c0.039-0.115,0.072-0.166,0.102-0.153l0.086,0.018c0.188,0.093,0.35,0.208,0.483,0.345c-0.003-0.071,0.001-0.142,0.014-0.214
		c-0.519-0.877-0.765-1.38-0.741-1.509c0.041-0.087,0.066-0.131,0.08-0.131c0.072,0.025,0.137,0.037,0.194,0.035l0.196,0.121
		l-0.022-0.042c-0.03-0.013-0.038-0.048-0.024-0.106c0.024-0.1,0.059-0.137,0.102-0.11c0.031,0.042,0.074,0.076,0.133,0.102
		c-0.02-0.127-0.029-0.227-0.033-0.298c-0.074-0.097-0.141-0.187-0.201-0.27c-0.404-0.554-0.733-0.948-0.984-1.18l0.062-0.088
		c0.172,0.093,0.541,0.385,1.1,0.876c0.008-0.556-0.006-1.118-0.041-1.686c-0.02-0.027-0.039-0.055-0.057-0.083
		c-0.013-0.016-0.022-0.033-0.035-0.052C60.519,31.461,60.9,31.674,61.29,31.878z M61.482,47.137
		c-0.021-0.17-0.048-0.304-0.08-0.403c-0.075-0.111-0.163-0.193-0.265-0.246l-0.018,0.107C61.195,46.72,61.316,46.901,61.482,47.137
		z M62.116,65.072c0.057-0.016,0.098-0.011,0.129,0.017c0.055-0.073,0.129-0.126,0.229-0.158c-0.003-0.043,0.003-0.085,0.016-0.128
		l-0.001-0.021l-0.234,0.009c-0.028,0.015-0.062,0.066-0.101,0.153c-0.014,0.014-0.026,0.05-0.039,0.108L62.116,65.072z
		 M61.255,74.48c-0.086,0.032-0.162,0.056-0.233,0.073c-0.117,0.276-0.22,0.529-0.312,0.76c0.11-0.061,0.215-0.108,0.314-0.14
		C61.114,74.928,61.19,74.697,61.255,74.48z M61.735,73.097c-0.135,0.19-0.257,0.372-0.363,0.547
		c0.11-0.061,0.209-0.115,0.291-0.161c0.066-0.159,0.125-0.311,0.176-0.455C61.826,73.029,61.792,73.051,61.735,73.097z
		 M61.641,76.24c0.067-0.073,0.138-0.126,0.208-0.157c0.066-0.132,0.127-0.219,0.183-0.264c-0.057,0.017-0.127,0.033-0.212,0.051
		C61.767,75.985,61.708,76.109,61.641,76.24z M62.491,76.142c-0.121,0.161-0.238,0.308-0.346,0.44
		c0.098-0.046,0.195-0.071,0.296-0.075l-0.001-0.021C62.45,76.344,62.466,76.229,62.491,76.142z M62.374,75.272l0.02-0.065
		c-0.085,0.032-0.184,0.064-0.297,0.096l-0.02,0.044C62.188,75.3,62.288,75.275,62.374,75.272z M61.062,77.308
		c-0.021,0.229-0.04,0.464-0.06,0.707c0.359-0.284,0.699-0.546,1.017-0.786c-0.156-0.008-0.319,0.005-0.488,0.04
		c-0.028,0.029-0.055,0.059-0.082,0.088c-0.101-0.011-0.173-0.029-0.217-0.056C61.204,77.288,61.146,77.29,61.062,77.308z
		 M61.341,76.762c0.041-0.002,0.086-0.01,0.125-0.026c0.069-0.102,0.129-0.197,0.183-0.284c-0.056,0.045-0.124,0.09-0.208,0.136
		C61.415,76.632,61.38,76.69,61.341,76.762z M62.872,78.883c-0.049,0.187-0.113,0.368-0.19,0.541
		c0.026-0.015,0.046-0.023,0.062-0.024c0.064-0.173,0.113-0.352,0.149-0.539L62.872,78.883z M62.464,78.771
		c0.012-0.043,0.024-0.093,0.037-0.151c-0.028,0.058-0.062,0.123-0.101,0.196C62.427,78.786,62.447,78.771,62.464,78.771z
		 M62.214,79.549c0.039-0.13,0.063-0.223,0.076-0.28c-0.058,0.016-0.119,0.061-0.188,0.135c-0.014,0.001-0.035,0.016-0.062,0.045
		c-0.068,0.102-0.147,0.22-0.242,0.351c0.153-0.078,0.287-0.132,0.398-0.165C62.21,79.592,62.214,79.563,62.214,79.549z
		 M62.583,80.24c-0.123,0.119-0.254,0.223-0.394,0.314c-0.157,0.391-0.315,0.702-0.478,0.936c0.14-0.048,0.258-0.102,0.355-0.163
		c0.098-0.075,0.188-0.149,0.27-0.224c0.105-0.231,0.182-0.447,0.232-0.649C62.593,80.368,62.6,80.296,62.583,80.24z M62.958,82.831
		c0.207-0.179,0.414-0.351,0.621-0.515c-0.127,0.047-0.267,0.096-0.422,0.144C63.104,82.577,63.038,82.7,62.958,82.831z
		 M62.072,83.719c-0.36,0.284-0.657,0.508-0.892,0.674l0.838-0.437c0.038-0.088,0.062-0.167,0.074-0.238L62.072,83.719z
		 M63.003,83.45c-0.185,0.049-0.347,0.098-0.486,0.146c-0.014,0.028-0.026,0.065-0.038,0.108L63.003,83.45z M63.466,84.97
		c0.132-0.291,0.257-0.558,0.375-0.805c-0.069,0.017-0.142,0.04-0.209,0.072c-0.071,0.031-0.155,0.062-0.254,0.094
		c-0.133,0.233-0.274,0.467-0.422,0.7C63.154,84.995,63.323,84.975,63.466,84.97z M62.47,143.436
		c-0.256,0.311-0.557,0.648-0.899,1.018c0.304-0.239,0.573-0.469,0.808-0.692C62.429,143.645,62.462,143.537,62.47,143.436z
		 M62.388,159.906c-0.944,1.003-1.535,1.794-1.77,2.371c0.633-0.635,1.193-1.248,1.684-1.836c0.056-0.045,0.09-0.094,0.1-0.153
		C62.396,160.146,62.392,160.02,62.388,159.906z M62.95,164.005c-0.098,0.104-0.208,0.208-0.332,0.312
		c0.016,0.041-0.003,0.106-0.057,0.193c-0.498,1.116-0.867,1.941-1.102,2.479c0.306-0.54,0.703-1.145,1.189-1.818
		c0.136-0.191,0.25-0.373,0.343-0.547l0.021-0.021C63.005,164.389,62.985,164.189,62.95,164.005z M63.102,165.217
		c-0.066,0.09-0.147,0.206-0.242,0.352c-0.131,0.318-0.301,0.703-0.513,1.152c0.066-0.132,0.146-0.264,0.242-0.395
		c0.215-0.321,0.403-0.6,0.565-0.834c-0.019-0.112-0.028-0.212-0.032-0.297L63.102,165.217z M63.569,167.953
		c-0.158,0.404-0.314,0.76-0.475,1.064c0.098-0.104,0.179-0.213,0.244-0.33c0.056-0.072,0.08-0.123,0.08-0.152
		c0.053-0.13,0.092-0.238,0.116-0.325c0.026-0.042,0.039-0.079,0.038-0.106C63.587,168.046,63.585,167.996,63.569,167.953z
		 M63.687,168.846c-0.01,0.086-0.034,0.193-0.072,0.323c0.014-0.03,0.026-0.049,0.04-0.065c0.024-0.071,0.052-0.123,0.079-0.151
		C63.747,168.909,63.73,168.874,63.687,168.846z M63.376,170.184c-0.014,0.058-0.033,0.107-0.061,0.15
		c-0.025,0.102-0.057,0.195-0.096,0.281l0.104-0.09c0.055-0.059,0.081-0.094,0.081-0.108c0.065-0.174,0.138-0.347,0.216-0.521
		C63.552,169.982,63.47,170.079,63.376,170.184z M63.615,172.032c0.106-0.218,0.204-0.45,0.294-0.695
		c-0.132,0.274-0.258,0.531-0.376,0.763C63.574,172.068,63.602,172.047,63.615,172.032z M63.847,172.535
		c-0.137,0.134-0.26,0.281-0.366,0.439c-0.026,0.045-0.056,0.088-0.081,0.133c0.123-0.118,0.249-0.217,0.373-0.291
		C63.796,172.702,63.822,172.607,63.847,172.535z M64.365,174.93c0.083-0.048,0.159-0.099,0.229-0.16
		c0.025-0.043,0.039-0.07,0.039-0.086c-0.028,0.002-0.08,0.019-0.148,0.049c-0.038,0.072-0.093,0.145-0.161,0.22
		C64.337,174.938,64.353,174.932,64.365,174.93z M94.568,30.34c0.062,0.14,0.103,0.259,0.12,0.358l0.168-0.625
		c0.012-0.057,0.023-0.114,0.037-0.172c-0.083,0.06-0.182,0.114-0.294,0.16C94.618,30.174,94.607,30.267,94.568,30.34z
		 M92.604,31.525l0.164,0.378c-0.02-0.156-0.032-0.312-0.038-0.468C92.689,31.493,92.648,31.523,92.604,31.525z M91.046,32.65
		c0.153,0.322,0.276,0.559,0.367,0.712l0.021-0.064c-0.108-0.195-0.222-0.418-0.347-0.67C91.087,32.643,91.075,32.65,91.046,32.65z
		 M77.583,47.681c0.012-0.085-0.004-0.135-0.048-0.147l-0.018,0.108l0.042-0.001C77.574,47.625,77.581,47.64,77.583,47.681z
		 M98.054,28.222c0.019,0.099,0.035,0.176,0.053,0.232c-0.003-0.07-0.012-0.148-0.031-0.233L98.054,28.222z M96.29,30.126
		c0.066-0.117,0.117-0.268,0.153-0.455c-0.121-0.181-0.228-0.376-0.321-0.586c-0.041,0.016-0.084,0.039-0.125,0.069
		C96.138,29.505,96.235,29.829,96.29,30.126z M115.725,24.522c-0.812,0.358-1.542,0.82-2.19,1.385
		c0.162,0.136,0.177,0.306,0.041,0.511c0.181,0.249,0.401,0.448,0.664,0.594c0.535,0.236,0.913,0.429,1.132,0.577
		c0.336-0.909,0.707-1.642,1.112-2.199C116.836,24.921,116.584,24.632,115.725,24.522z M63.8,59.906
		c-0.015-0.015-0.029-0.028-0.045-0.041l-0.021-0.021C63.751,59.872,63.771,59.892,63.8,59.906z M62.673,61.165
		c0.34-0.069,0.701-0.126,1.082-0.169c-0.045-0.069-0.09-0.125-0.133-0.166c-0.184,0.05-0.388,0.107-0.613,0.173
		C62.882,61.037,62.77,61.091,62.673,61.165z M64.363,65.799h0.021v-0.042L64.363,65.799z M64.132,66.449
		c-0.224,0.123-0.486,0.29-0.791,0.5c-0.058,0.016-0.111,0.069-0.166,0.156c0.197-0.064,0.346-0.063,0.449,0.004
		c0.178-0.178,0.334-0.354,0.471-0.53C64.107,66.521,64.12,66.479,64.132,66.449z M63.913,66.286
		c-0.068,0.075-0.15,0.177-0.244,0.309c0.164-0.149,0.31-0.268,0.435-0.358C64.048,66.253,63.983,66.27,63.913,66.286z
		 M66.37,79.841c-0.141,0.091-0.294,0.196-0.459,0.317c-0.152,0.119-0.318,0.233-0.501,0.339c-0.094,0.118-0.196,0.228-0.307,0.332
		c0.294-0.125,0.553-0.242,0.776-0.35c0.066-0.117,0.112-0.232,0.137-0.347l0.085-0.003c-0.013,0.043-0.024,0.108-0.034,0.193
		C66.159,80.147,66.259,79.987,66.37,79.841z M63.622,78.898c0.068-0.046,0.117-0.09,0.144-0.134
		c0.143-0.375,0.321-0.702,0.54-0.981c-0.098,0.075-0.201,0.157-0.312,0.247l-0.256,0.564
		C63.698,78.681,63.659,78.783,63.622,78.898z M63.6,79.497c-0.056,0.017-0.118,0.041-0.188,0.072l-0.021,0.022
		c-0.089,0.287-0.185,0.605-0.285,0.95c0.14-0.105,0.265-0.203,0.374-0.292c0.027-0.058,0.045-0.116,0.059-0.173
		C63.559,79.89,63.579,79.697,63.6,79.497z M64.589,81.937c-0.024,0.1-0.084,0.209-0.18,0.327c0.197-0.079,0.365-0.142,0.506-0.19
		c0.108-0.146,0.189-0.271,0.242-0.372C64.962,81.78,64.771,81.858,64.589,81.937z M63.654,82.612
		c0.112-0.061,0.216-0.108,0.315-0.14c0.039-0.058,0.065-0.123,0.076-0.195c-0.109,0.09-0.233,0.187-0.371,0.292L63.654,82.612z
		 M64.097,83.6c-0.014,0-0.027,0.015-0.04,0.044c0.013-0.015,0.026-0.023,0.04-0.023V83.6z M64.893,83.72
		c-0.115,0.346-0.259,0.715-0.429,1.105l0.002,0.021c0.134-0.232,0.26-0.458,0.379-0.676c0.021-0.172,0.045-0.329,0.068-0.473
		L64.893,83.72z M63.935,84.93c0.013-0.043,0.025-0.079,0.037-0.108c0.08-0.174,0.171-0.391,0.275-0.651
		c-0.133,0.247-0.281,0.502-0.441,0.764C63.863,84.933,63.906,84.931,63.935,84.93z M64.271,86.477v0.021
		c0.027-0.015,0.041-0.03,0.041-0.045L64.271,86.477z M64.466,86.021c0.043-0.03,0.078-0.053,0.105-0.068
		c0.038-0.088,0.043-0.166,0.012-0.236C64.544,85.818,64.505,85.919,64.466,86.021z M150.971,112.928
		c0.044,0.014,0.072,0.033,0.088,0.062c0.484,0.423,0.855,0.771,1.107,1.048c0.047-0.258-0.377-0.734-1.271-1.428
		C150.928,112.725,150.952,112.829,150.971,112.928z M136.055,117.186c0.027,0,0.049,0.006,0.064,0.021
		c-0.016-0.015-0.037-0.028-0.064-0.041V117.186z M87.988,141.085c0,0.015-0.013,0.06-0.038,0.13
		c0.004,0.086-0.009,0.163-0.033,0.236c0.073,0.068,0.11,0.13,0.112,0.188c0.009-0.199-0.001-0.434-0.026-0.703
		C88.005,140.979,88.001,141.027,87.988,141.085z M87.497,142.791c0.299,0.372,0.553,0.732,0.768,1.08
		c-0.133-0.479-0.322-0.977-0.568-1.494c-0.038,0.143-0.098,0.268-0.179,0.369C87.531,142.761,87.525,142.773,87.497,142.791z
		 M107.846,101.424c-0.03-0.412-0.051-0.773-0.062-1.087c-0.111-0.309-0.229-0.59-0.352-0.841c0.164,0.578,0.248,1.309,0.254,2.191
		C107.723,101.557,107.776,101.471,107.846,101.424z M109.844,110.211c-0.014,0.059-0.023,0.129-0.036,0.216
		c0.014-0.058,0.024-0.114,0.038-0.173C109.846,110.239,109.844,110.225,109.844,110.211z M112.073,113.246l0.042-0.002
		c0.064-0.201,0.113-0.41,0.146-0.625c-0.029-0.042-0.072-0.076-0.131-0.104c0.004,0.129-0.019,0.279-0.068,0.452L112.073,113.246z
		 M112.709,116.531c-0.02,0.058-0.039,0.111-0.058,0.162c0.035-0.039,0.072-0.079,0.112-0.12c-0.028-0.007-0.047-0.013-0.055-0.021
		V116.531z M114.127,115.645c-0.33,0.147-0.627,0.287-0.892,0.416l-0.101,0.188C113.405,116.046,113.736,115.846,114.127,115.645z
		 M129.348,117.184c-0.016-0.041-0.038-0.076-0.068-0.104c-0.057-0.014-0.129-0.018-0.213-0.016
		C129.183,117.119,129.275,117.158,129.348,117.184z M117.264,116.125c0.015-0.016,0.027-0.029,0.041-0.044l-0.043,0.022
		L117.264,116.125z M103.279,168.227c-0.288,0.311-0.562,0.605-0.822,0.885c0.291-0.238,0.559-0.482,0.805-0.733
		C103.291,168.334,103.295,168.283,103.279,168.227z M113.023,167.816c0-0.015-0.008-0.021-0.023-0.021
		c0.002,0.015,0.01,0.028,0.024,0.041L113.023,167.816z M111.575,166.824c0.046,0.042,0.075,0.091,0.093,0.146
		c0.057,0.012,0.113,0.038,0.172,0.079C111.768,166.966,111.678,166.893,111.575,166.824z M111.178,170.459
		c-0.018-0.036-0.055-0.059-0.108-0.07l-0.021,0.021C111.116,170.408,111.159,170.424,111.178,170.459z M111.207,171.751
		l-0.066-0.082c0.029,0.056,0.025,0.104-0.018,0.149c0.088,0.011,0.152,0.037,0.196,0.078l0.021-0.002
		C111.311,171.839,111.267,171.79,111.207,171.751z M111.529,181.434c-0.521,0.518-1.245,1.144-2.171,1.875
		c-0.028,0.015-0.063,0.039-0.104,0.068c0.679-0.139,1.213-0.316,1.604-0.531c0.468-0.457,0.777-0.748,0.93-0.867
		C111.78,181.822,111.695,181.643,111.529,181.434z M79.425,153.518l0.104,1.686l-0.014,0.191c0.015,0.027,0.009,0.07-0.017,0.129
		l0.01,0.233c0.01,0.257,0.008,0.606-0.004,1.048c0.053-0.488,0.1-0.966,0.139-1.438c-0.057-0.752-0.116-1.37-0.178-1.852
		C79.466,153.501,79.452,153.501,79.425,153.518z M83.122,150.773c0.002,0.426-0.02,0.783-0.065,1.068
		c0.151,0.606,0.254,1.115,0.313,1.526c-0.027-0.712-0.09-1.423-0.188-2.128C83.175,151.083,83.157,150.927,83.122,150.773z
		 M77.136,155.141c0.102,0.424,0.188,0.819,0.259,1.187c-0.073-0.438-0.147-0.849-0.218-1.229
		C77.163,155.109,77.15,155.127,77.136,155.141z M77.528,157.004c0.018,0.128,0.036,0.255,0.055,0.383
		c0.024-0.101,0.051-0.193,0.076-0.279L77.528,157.004z M81.214,155.136c-0.019-0.128-0.045-0.255-0.078-0.382
		c0.023,0.242,0.039,0.497,0.051,0.768C81.21,155.395,81.22,155.264,81.214,155.136z M81.224,156.802
		c0.053,0.015,0.101,0.048,0.143,0.103c-0.014-0.072-0.053-0.133-0.113-0.188C81.269,156.781,81.259,156.811,81.224,156.802z
		 M81.296,155.582c0.004,0.128-0.006,0.234-0.03,0.32c0.081,0.311,0.149,0.608,0.204,0.891
		C81.472,156.492,81.415,156.09,81.296,155.582z M73.238,158.811c0.236,0.221,0.481,0.494,0.736,0.828
		c-0.169-0.337-0.345-0.65-0.527-0.943c-0.192-0.176-0.391-0.34-0.595-0.488l-0.042,0.023
		C72.988,158.409,73.13,158.604,73.238,158.811z M88.653,145.117c-0.076-0.111-0.173-0.223-0.29-0.33
		c0.12,0.166,0.224,0.332,0.317,0.5C88.677,145.216,88.669,145.159,88.653,145.117z M89.13,145.312
		c0.09,0.111,0.166,0.223,0.227,0.334c-0.279-0.959-0.723-1.98-1.332-3.067c0.264,0.616,0.465,1.22,0.602,1.813l0.021,0.021
		c0.225,0.319,0.415,0.618,0.568,0.897L89.13,145.312z M87.354,144.675c0.036,0.171,0.069,0.331,0.104,0.487
		c0.437,0.609,0.756,1.158,0.959,1.65c-0.221-0.604-0.439-1.114-0.654-1.535C87.654,145.068,87.52,144.867,87.354,144.675z
		 M85.085,150.186c-0.006-0.119-0.024-0.232-0.055-0.34l-0.02,0.064C85.056,150.016,85.079,150.105,85.085,150.186z M85.482,150.489
		c0.032,0.099,0.049,0.382,0.053,0.854c0.112,0.337,0.208,0.632,0.29,0.886c0.006-0.244-0.029-0.541-0.099-0.894
		c-0.06-0.026-0.089-0.054-0.089-0.082c0.027-0.044,0.035-0.094,0.016-0.149c-0.033-0.203-0.088-0.422-0.163-0.656
		C85.492,150.459,85.489,150.475,85.482,150.489z M83.698,151.35c0.029,0.368,0.045,0.78,0.047,1.235l0.022,0.021
		c0.079-0.146,0.146-0.276,0.198-0.393C83.882,151.902,83.796,151.614,83.698,151.35z M94.513,149.294
		c0.025-0.071,0.052-0.151,0.076-0.237c-0.015-0.014-0.029-0.035-0.045-0.062C94.548,149.096,94.538,149.193,94.513,149.294z
		 M74.483,173.672c-0.091-0.523-0.275-1.064-0.553-1.624c-0.023,0.114-0.049,0.222-0.072,0.323
		C74.04,172.663,74.249,173.098,74.483,173.672z M73.962,171.749l-0.021,0.043c0.12,0.151,0.22,0.312,0.297,0.481
		c-0.034-0.172-0.099-0.312-0.188-0.422C74.035,171.809,74.005,171.773,73.962,171.749z M73.927,173.648
		c0.089,0.097,0.164,0.201,0.226,0.312c-0.108-0.281-0.243-0.596-0.397-0.945c0.004,0.1-0.016,0.199-0.054,0.301
		C73.792,173.427,73.866,173.538,73.927,173.648z M74.864,173.016c0.014,0,0.021,0.006,0.021,0.021
		c-0.002-0.029-0.008-0.049-0.022-0.062C74.863,172.988,74.864,173.002,74.864,173.016z"/>
	
		<line fill="none" stroke="#FFFFFF" stroke-linecap="round" stroke-linejoin="round" stroke-miterlimit="3" x1="55.638" y1="31.512" x2="60.132" y2="31.224"/>
	<path d="M86.245,46.372c-0.166,0.12-0.33,0.248-0.496,0.382c-0.027,0.029-0.062,0.052-0.105,0.068
		c-0.012,0.029-0.025,0.05-0.04,0.066l0.022-0.001c0.152-0.091,0.284-0.181,0.395-0.271c0.068-0.06,0.138-0.126,0.207-0.2
		C86.241,46.401,86.247,46.386,86.245,46.372z M87.766,45.888c0.071-0.06,0.132-0.112,0.187-0.157
		c-0.07,0.046-0.145,0.098-0.229,0.159C87.737,45.889,87.753,45.889,87.766,45.888z M86.505,46.189
		c0.139-0.119,0.276-0.231,0.416-0.336c0.584-0.72,0.976-1.112,1.172-1.176c-0.092,0.203-0.26,0.451-0.506,0.745
		c0.488-0.289,0.979-0.464,1.476-0.526c-0.068,0.088-0.325,0.282-0.769,0.584c0.209-0.136,0.424-0.265,0.647-0.387
		c0.737-0.412,1.394-0.615,1.962-0.608c0.406-0.186,0.811-0.251,1.21-0.195c0.071-0.002,0.144,0.009,0.216,0.035
		c0.194-0.122,0.307-0.19,0.334-0.205c0,0.014,0.022,0.027,0.064,0.04c-0.069,0.06-0.159,0.135-0.27,0.224
		c0.143,0.023,0.279,0.074,0.412,0.155c0.027-0.015,0.057-0.023,0.086-0.024c-0.015,0.014-0.035,0.022-0.063,0.023
		c0.2,0.092,0.37,0.214,0.504,0.365c0.058-0.003,0.106-0.004,0.149-0.006c0.14-0.048,0.272-0.095,0.4-0.143
		c0.153-0.063,0.273-0.11,0.357-0.142l0.002,0.043c0.097-0.033,0.189-0.065,0.273-0.096c0.111-0.033,0.217-0.058,0.316-0.076
		c-0.485-0.024-1.016,0.053-1.594,0.231h-0.021c0.673-0.295,1.33-0.406,1.974-0.331c0.226-0.051,0.401-0.085,0.53-0.105
		c0.425-0.072,0.829-0.08,1.218-0.024l-0.043,0.044c-0.438,0.059-0.843,0.117-1.211,0.174c0.072,0.026,0.137,0.052,0.195,0.078
		c0.303,0.103,0.557,0.207,0.76,0.313c0.086-0.018,0.133-0.026,0.148-0.027l-0.021,0.022c0.34-0.07,0.657-0.139,0.952-0.207
		c0.032,0.07-0.17,0.171-0.606,0.301c-0.057,0.031-0.125,0.054-0.211,0.072c0.088,0.068,0.177,0.137,0.265,0.204
		c0.282-0.067,0.502-0.104,0.657-0.11c0.226-0.051,0.882-0.04,1.966,0.033c-0.466,0.088-1.14,0.157-2.021,0.204
		c-0.041,0.058-0.132,0.134-0.271,0.224l0.001,0.021c0.311-0.069,0.578-0.137,0.804-0.202l-0.038,0.108
		c-0.152,0.121-0.277,0.197-0.375,0.229l-0.255,0.052c0.029,0.027,0.052,0.069,0.068,0.125c0.337-0.112,0.513-0.169,0.526-0.169
		l0.002,0.021c0.068-0.059,0.145-0.126,0.227-0.201l0.129-0.005c-0.025,0.045-0.107,0.147-0.244,0.309
		c-0.097,0.103-0.212,0.242-0.348,0.418c0.043,0.014,0.092,0.026,0.148,0.038c0.346-0.298,0.561-0.477,0.645-0.537
		c0,0.015,0.029,0.028,0.086,0.04c-0.221,0.208-0.428,0.387-0.62,0.536c0.072,0.041,0.138,0.074,0.196,0.1
		c0.044,0.07,0.096,0.139,0.156,0.208c0.068-0.102,0.143-0.204,0.224-0.307c-0.002-0.042,0.005-0.086,0.017-0.129l0.043-0.022v0.021
		c0.094-0.132,0.182-0.27,0.262-0.416l0.063-0.024c-0.063,0.216-0.19,0.463-0.378,0.74c-0.04,0.088-0.093,0.182-0.16,0.284h0.021
		c0.137-0.119,0.24-0.229,0.308-0.332c0.269-0.423,0.445-0.65,0.529-0.682l0.002,0.042c-0.15,0.191-0.332,0.462-0.546,0.811
		c-0.07,0.074-0.146,0.155-0.227,0.244c0.043,0.041,0.08,0.089,0.112,0.145c0.205-0.221,0.328-0.347,0.37-0.377l0.062-0.002
		c0.016-0.001,0.028-0.015,0.041-0.044l0.108,0.017c-0.177,0.207-0.334,0.398-0.47,0.574c0.076,0.095,0.41,0.239,1,0.432
		c0.59,0.199,0.96,0.879,1.113,2.04c0.084,0.658,0.146,1.165,0.185,1.52c0.249,0.253,0.54,0.506,0.872,0.758
		c0.248,0.162,0.591,0.362,1.027,0.602c0.521,0.237,0.875,0.416,1.066,0.537c0.059,0.026,0.301,0.266,0.732,0.72
		c0.459,0.466,0.711,0.777,0.761,0.932c0,0.014,0.002,0.043,0.003,0.085c0.992-0.095,1.893,0.156,2.697,0.752
		c0.027-0.015,0.048-0.023,0.062-0.023c0.001,0.014-0.005,0.035-0.02,0.064c0.016-0.001,0.029,0.006,0.045,0.02
		c0.195-0.093,0.365-0.1,0.512-0.02c-0.083,0.075-0.166,0.148-0.248,0.223c0.029,0.028,0.066,0.069,0.109,0.124
		c0.057-0.03,0.104-0.047,0.148-0.048c-0.044,0.015-0.085,0.031-0.127,0.047c0.045,0.04,0.096,0.089,0.155,0.144
		c0.151-0.092,0.308-0.133,0.464-0.125c-0.066,0.088-0.17,0.192-0.309,0.311c0.029,0.028,0.061,0.055,0.09,0.082
		c0.133,0.138,0.26,0.29,0.38,0.456c0.112-0.034,0.233-0.031,0.364,0.007c0.156,0.037,0.252,0.111,0.285,0.224
		c0.049,0.155-0.054,0.472-0.306,0.951l0.021-0.001c0.271-0.038,0.437,0.033,0.5,0.216c0.017,0.057-0.004,0.47-0.061,1.241
		c-0.055,0.813-0.062,1.39-0.02,1.73c0.015,0.042,0.025,0.099,0.027,0.17c0.174,0.093,0.334,0.173,0.479,0.238
		c-0.145-0.051-0.303-0.095-0.475-0.131c0.018,0.07,0.035,0.155,0.053,0.254c0.324,0.273,0.502,0.473,0.535,0.599
		c0.05,0.17,0.043,0.219-0.016,0.151c-0.089-0.083-0.178-0.158-0.266-0.225c0.119,0.123,0.246,0.253,0.378,0.391
		c-0.13-0.066-0.284-0.174-0.461-0.324c0.032,0.098,0.063,0.204,0.097,0.316c0.018,0.099,0.029,0.198,0.033,0.298
		c0.325,0.315,0.577,0.554,0.754,0.719c-0.248-0.133-0.486-0.281-0.721-0.443c0.013,0.028,0.014,0.049,0.002,0.064
		c0.072,0.069,0.154,0.151,0.242,0.248l-0.019,0.043c0.104,0.139,0.238,0.283,0.4,0.434l-0.144,0.155
		c-0.078-0.182-0.229-0.412-0.453-0.688c0-0.014-0.008-0.014-0.021,0.001c0,0.014-0.006,0.036-0.017,0.074
		c0.088,0.083,0.178,0.179,0.267,0.289c0.049,0.141,0.045,0.241-0.009,0.3c-0.075-0.111-0.165-0.235-0.271-0.374
		c-0.012,0.043-0.023,0.101-0.035,0.172c0.205,0.121,0.315,0.217,0.33,0.287c0.018,0.056,0.026,0.106,0.028,0.148
		c0.235,0.205,0.37,0.371,0.403,0.497c0.033,0.127,0.05,0.219,0.052,0.276l-0.127-0.018c-0.152-0.25-0.361-0.513-0.629-0.787h-0.021
		l-0.133-0.123c-0.015,0.029-0.032,0.072-0.06,0.13c0.072,0.069,0.119,0.124,0.134,0.166c0.032,0.098,0.049,0.169,0.051,0.212
		c0.015,0,0.022,0.006,0.022,0.021c0.351,0.229,0.621,0.417,0.812,0.567c-0.247-0.119-0.474-0.239-0.676-0.359
		c0.046,0.069,0.075,0.132,0.092,0.188l0.069,0.147c-0.014,0-0.027,0.008-0.041,0.022l-0.062,0.024
		c0.252,0.261,0.4,0.447,0.448,0.56c0.048,0.168,0.037,0.218-0.038,0.15c-0.136-0.237-0.404-0.533-0.802-0.888
		c-0.009,0.101-0.027,0.208-0.052,0.323c0.222,0.205,0.442,0.41,0.664,0.616l-0.082,0.088c-0.265-0.161-0.541-0.343-0.832-0.545
		c0.388,0.47,0.604,0.782,0.654,0.937c0.002,0.013,0.008,0.035,0.023,0.063c0.178,0.207,0.283,0.352,0.314,0.437l0.049,0.147
		c-0.014,0-0.027,0.008-0.041,0.023l-0.105,0.046c-0.044-0.07-0.296-0.31-0.752-0.719c0.296,0.302,0.451,0.474,0.467,0.517
		c0.031,0.098,0.042,0.169,0.029,0.212c0.001,0.028-0.012,0.05-0.04,0.065l-0.127,0.026c-0.582-0.676-1.035-1.2-1.362-1.572
		c-0.027,0.029-0.062,0.067-0.104,0.111c0.044,0.041,0.066,0.082,0.068,0.125c0.489,0.508,1.047,1.121,1.672,1.837l-0.017,0.15
		l-0.212,0.029c-0.223-0.22-0.438-0.432-0.645-0.638v0.021c0.088,0.082,0.179,0.179,0.268,0.29l-0.016,0.171
		c-0.101-0.038-0.209-0.092-0.325-0.158c0.178,0.207,0.282,0.352,0.315,0.436c0.049,0.184,0.067,0.311,0.057,0.383l-0.213,0.05
		c-0.161-0.193-0.332-0.365-0.51-0.514l-0.146,0.048c-0.016-0.042-0.061-0.104-0.135-0.187l-0.022,0.001
		c-0.014-0.028-0.022-0.049-0.022-0.063c-0.047-0.084-0.101-0.182-0.162-0.293c-0.026,0.016-0.055,0.017-0.084,0.003
		c-0.09-0.081-0.297-0.323-0.625-0.723c-0.047-0.056-0.09-0.097-0.133-0.123c-0.043,0.044-0.097,0.103-0.166,0.177
		c1.082,1.113,1.685,1.773,1.806,1.982c0.073,0.054,0.132,0.101,0.177,0.143c-0.025,0.072-0.061,0.115-0.104,0.132
		c0.017,0.056,0.026,0.098,0.027,0.127c-0.115,0.004-0.236-0.006-0.365-0.03c0.071-0.003,0.147-0.019,0.232-0.051l-0.023-0.042
		c-0.029-0.056-0.067-0.104-0.11-0.146c-0.074-0.069-0.155-0.094-0.238-0.077c-0.06-0.097-0.187-0.227-0.378-0.391
		c-0.014,0.015-0.035,0.036-0.062,0.066c0.061,0.069,0.146,0.244,0.256,0.524c0.162,0.151,0.259,0.261,0.289,0.331
		c0.033,0.099,0.043,0.162,0.029,0.191c-0.014,0.001-0.033,0.009-0.062,0.024c-0.308-0.188-0.577-0.369-0.812-0.545
		c-0.029-0.014-0.063-0.012-0.105,0.004l0.439,0.368c0.049,0.111,0.065,0.182,0.053,0.211c-0.028,0.015-0.077,0.046-0.146,0.09
		c-0.393-0.227-0.765-0.462-1.115-0.705c0.121,0.181,0.256,0.382,0.406,0.604c0.049,0.169,0.03,0.234-0.056,0.195
		c-0.148-0.137-0.371-0.406-0.673-0.808c0.018,0.056,0.027,0.099,0.027,0.127c-0.011,0.129-0.078,0.224-0.203,0.286
		c0.33,0.443,0.504,0.686,0.519,0.728l0.049,0.169c-0.015,0-0.028,0.007-0.042,0.022c-0.22-0.176-0.479-0.444-0.777-0.803
		c-0.07,0.003-0.137-0.016-0.195-0.057c-0.043-0.013-0.108-0.075-0.198-0.185c-0.015,0.043-0.019,0.079-0.019,0.107
		c0.363,0.584,0.555,0.911,0.571,0.982c0.065,0.197,0.091,0.317,0.077,0.36l-0.146,0.027c-0.242-0.375-0.477-0.722-0.701-1.041
		c-0.068,0.074-0.159,0.127-0.272,0.16c-0.041,0.015-0.075,0.024-0.104,0.025c0.168,0.335,0.285,0.608,0.352,0.819
		c0.062,0.183,0.089,0.302,0.078,0.36l-0.107,0.025c-0.111-0.295-0.324-0.664-0.64-1.107c-0.015,0.014-0.019,0.043-0.019,0.085
		c-0.039,0.101-0.1,0.189-0.182,0.263l0.571,1.004c0.034,0.112,0.042,0.169,0.028,0.169c-0.014,0.028-0.055,0.059-0.125,0.09
		l-0.26-0.097c-0.127-0.308-0.317-0.636-0.572-0.982c-0.127,0.019-0.25,0.016-0.363-0.007c0.229,0.404,0.359,0.67,0.393,0.797
		c0.049,0.14,0.061,0.239,0.034,0.297l-0.147,0.048c-0.164-0.207-0.564-0.797-1.199-1.77c0.016,0.028,0.031,0.071,0.048,0.127
		s0.004,0.113-0.037,0.172c0.062,0.111,0.13,0.223,0.205,0.333c0.362,0.542,0.575,0.918,0.64,1.129l0.051,0.169
		c0,0.014-0.014,0.029-0.043,0.044l-0.209,0.072c-0.332-0.457-0.684-0.942-1.06-1.455c-0.069,0.017-0.141,0.034-0.212,0.051
		c0.182,0.264,0.432,0.646,0.749,1.146c0.031,0.098,0.034,0.162,0.007,0.192c-0.013,0.029-0.062,0.066-0.146,0.112l-0.258-0.055
		c-0.215-0.404-0.518-0.891-0.908-1.46c-0.047-0.056-0.084-0.111-0.114-0.167c-0.056,0.016-0.112,0.039-0.168,0.07
		c0.062,0.14,0.126,0.294,0.188,0.462c0.063,0.169,0.076,0.325,0.039,0.469c0.152,0.264,0.342,0.606,0.573,1.024
		c0.032,0.113,0.042,0.19,0.029,0.234c-0.028,0.044-0.075,0.088-0.146,0.134c-0.254-0.304-0.502-0.651-0.744-1.04
		c-0.041,0.015-0.084,0.031-0.125,0.047c-0.099,0.032-0.19,0.043-0.276,0.032c0.153,0.279,0.235,0.447,0.253,0.503
		c0.033,0.112,0.043,0.19,0.031,0.234c-0.014,0.057-0.061,0.13-0.143,0.218c-0.07,0.017-0.15,0.006-0.236-0.033
		c-0.244-0.432-0.465-0.823-0.664-1.171c-0.036,0.143-0.125,0.254-0.266,0.33c0.096,0.239,0.159,0.414,0.191,0.527
		c0.193,0.577,0.099,0.901-0.283,0.972l-0.191,0.007c-0.273-0.459-0.568-1.103-0.885-1.931c-0.028,0.015-0.063,0.031-0.105,0.046
		c0.002,0.057,0.012,0.114,0.028,0.17c0.007,0.185-0.023,0.342-0.089,0.473l0.024,0.085c0.199,0.349,0.323,0.607,0.373,0.776
		c0.096,0.31,0.077,0.553-0.06,0.729c-0.069,0.031-0.139,0.041-0.211,0.029c-0.098-0.309-0.184-0.505-0.258-0.588l-0.043,0.002
		c0.003,0.085,0.051,0.197,0.142,0.336c0.033,0.141-0.011,0.271-0.136,0.389c-0.4-0.426-0.746-1.09-1.035-1.99
		c-0.031-0.041-0.066-0.075-0.111-0.102c0.033,0.085,0.063,0.176,0.096,0.274c0.247,0.874,0.339,1.617,0.277,2.232
		c-0.326-0.315-0.605-0.767-0.842-1.356h-0.021c-0.07,0.031-0.126,0.047-0.17,0.049c0.061,0.468,0.07,0.901,0.027,1.301
		c-0.297-0.33-0.543-0.812-0.737-1.445c-0.042,0.002-0.085,0.01-0.126,0.025c-0.028,0.016-0.064,0.025-0.107,0.026
		c0.02,0.085,0.037,0.184,0.055,0.297c0.194,1.004,0.222,1.53,0.08,1.578c-0.168,0.049-0.23,0.044-0.192-0.014
		c-0.229-0.475-0.371-0.805-0.421-0.988c-0.096-0.295-0.203-0.697-0.322-1.205c-0.014,0.057-0.033,0.1-0.061,0.13
		c-0.029-0.042-0.067-0.111-0.113-0.209c0.166,1.019,0.262,1.863,0.287,2.531c-0.086,0.003-0.157-0.009-0.215-0.035l-0.293-0.993
		c-0.067-0.254-0.151-0.614-0.256-1.079h-0.021c-0.085,0.031-0.104,0.081-0.06,0.151c0.03,0.099,0,0.207-0.095,0.324
		c0.021,0.156,0.039,0.291,0.058,0.404l-0.211,0.051c-0.135-0.18-0.275-0.509-0.422-0.988c-0.08-0.239-0.147-0.514-0.201-0.825
		c-0.016,0-0.028,0.007-0.043,0.022c-0.057,0.017-0.119,0.033-0.189,0.05c0.052,0.624,0.062,1.115,0.035,1.472
		c-0.102-0.025-0.159-0.03-0.174-0.015c-0.123-0.252-0.243-0.425-0.359-0.52c-0.132-0.095-0.216-0.213-0.249-0.354
		c-0.048-0.14-0.179-0.384-0.392-0.732c-0.467,0.046-0.873-0.124-1.215-0.51c-0.281-0.288-0.486-0.636-0.615-1.044
		c-0.174-0.492-0.323-0.985-0.44-1.479c-0.034-0.127-0.067-0.239-0.099-0.337c-1.92-0.667-3.803-2.091-5.648-4.271
		c-1.104-1.283-2.127-2.753-3.07-4.412c-0.658-1.171-1.051-1.975-1.182-2.412c-0.583-1.885-0.669-3.548-0.252-4.988
		c0.402-1.396,1.264-2.724,2.583-3.984c0.054-0.087,0.101-0.174,0.14-0.261c-0.233,0.208-0.414,0.365-0.537,0.469
		c0.599-0.692,1.459-1.493,2.578-2.404c0.056-0.045,0.104-0.082,0.146-0.112c0.092-0.218,0.149-0.398,0.172-0.541l0.063-0.023
		c-0.01,0.143-0.032,0.286-0.069,0.43c1.063-0.866,1.678-1.38,1.842-1.543c-0.209,0.477-0.631,0.984-1.266,1.521L86.505,46.189z
		 M94.156,44.898c0.211-0.078,0.396-0.15,0.548-0.212c-0.24,0.051-0.467,0.103-0.678,0.153c-0.016,0.015-0.035,0.03-0.062,0.045
		C94.035,44.896,94.1,44.901,94.156,44.898z M92.429,44.942c0.171,0.008,0.336,0.03,0.494,0.067c0.041-0.015,0.082-0.03,0.125-0.047
		c-0.116-0.081-0.254-0.147-0.412-0.198C92.595,44.808,92.526,44.868,92.429,44.942z M92.312,44.692
		c-0.083,0.06-0.187,0.135-0.312,0.225c-0.029,0.029-0.062,0.059-0.104,0.089c0.042-0.016,0.084-0.031,0.127-0.048
		c0.167-0.091,0.32-0.168,0.459-0.23C92.427,44.701,92.37,44.688,92.312,44.692z M95.173,44.603
		c-0.184,0.078-0.448,0.187-0.801,0.329c0.057-0.002,0.113,0.003,0.172,0.015c0.1,0.025,0.201,0.049,0.303,0.074
		c0.111-0.032,0.175-0.05,0.188-0.05c-0.028,0.03-0.063,0.06-0.104,0.09c0.116,0.038,0.217,0.084,0.305,0.138
		c0.084-0.031,0.175-0.056,0.274-0.074c0.027-0.015,0.056-0.023,0.084-0.024c0.297-0.097,0.479-0.139,0.552-0.127l-0.022,0.021
		c0.113-0.033,0.234-0.052,0.362-0.057c-0.321-0.201-0.675-0.33-1.062-0.386C95.339,44.556,95.255,44.573,95.173,44.603z
		 M94.77,45.281c-0.058-0.012-0.103-0.025-0.13-0.038c-0.069,0.032-0.146,0.07-0.23,0.116C94.535,45.326,94.655,45.3,94.77,45.281z
		 M95.464,45.576c0.015,0,0.028-0.001,0.043-0.001l-0.021-0.021c-0.016,0-0.036,0.001-0.064,0.002L95.464,45.576z M95.759,45.458
		c0.265-0.124,0.412-0.187,0.44-0.188c-0.097,0.061-0.194,0.136-0.288,0.225c0.395-0.087,0.719-0.156,0.973-0.208
		c0-0.028-0.017-0.056-0.045-0.083c-0.045-0.041-0.09-0.075-0.133-0.102c-0.255,0.053-0.558,0.107-0.912,0.163
		c-0.023,0.024-0.054,0.043-0.094,0.057l0.012,0.01c-0.015,0.014-0.027,0.036-0.041,0.065C95.7,45.424,95.729,45.445,95.759,45.458z
		 M96.216,45.696c0.059-0.002,0.115-0.004,0.17-0.006c0.113-0.033,0.318-0.09,0.613-0.172c0.028-0.001,0.049-0.009,0.063-0.024
		c0-0.014-0.009-0.028-0.022-0.042c-0.214,0.023-0.445,0.067-0.701,0.133c0.029-0.001,0.051-0.002,0.064-0.002
		C96.362,45.599,96.298,45.636,96.216,45.696z M93.91,45.186c0.06,0.026,0.109,0.052,0.154,0.079
		c0.099-0.032,0.183-0.056,0.254-0.074C94.188,45.168,94.052,45.167,93.91,45.186z M91.861,44.623
		c-0.087-0.012-0.172-0.009-0.257,0.009c0.029,0.013,0.072,0.033,0.131,0.059C91.777,44.675,91.82,44.653,91.861,44.623z
		 M91.886,44.665c-0.028,0.015-0.057,0.038-0.084,0.067l0.022,0.021c0.083-0.047,0.173-0.086,0.272-0.118
		c-0.043-0.013-0.078-0.012-0.106,0.004C91.962,44.64,91.927,44.648,91.886,44.665z M91.527,44.784
		c-0.214-0.02-0.47-0.017-0.769,0.008c-0.191,0.133-0.418,0.302-0.676,0.506c0.012-0.004,0.021-0.001,0.032,0.01l0.425-0.123
		c0.084-0.032,0.159-0.056,0.23-0.073c0.152-0.063,0.314-0.119,0.484-0.168C91.353,44.884,91.442,44.831,91.527,44.784z
		 M90.251,44.876c-0.187,0.021-0.369,0.064-0.553,0.127c-0.18,0.135-0.354,0.263-0.52,0.383c0.391-0.171,0.721-0.319,0.986-0.443
		C90.206,44.898,90.233,44.876,90.251,44.876z M89.148,45.194c0.028-0.015,0.058-0.03,0.084-0.046l-0.021,0.001
		C89.184,45.165,89.163,45.18,89.148,45.194z M97.425,45.416c0.039-0.014,0.074-0.023,0.104-0.025
		c-0.029,0.001-0.064,0.003-0.105,0.004c-0.016,0-0.028,0.001-0.043,0.001L97.425,45.416z M97.354,45.889l-0.295,0.075
		c0.113,0.01,0.229,0.041,0.344,0.093c0.028-0.015,0.049-0.023,0.064-0.023C97.437,45.978,97.398,45.929,97.354,45.889z
		 M97.833,46.085c0,0.013,0.006,0.034,0.022,0.062l0.001,0.021c0.068-0.074,0.145-0.14,0.229-0.201
		C97.999,46,97.917,46.038,97.833,46.085z M110.784,65.028c0.028,0.026,0.058,0.057,0.089,0.093
		c-0.031-0.036-0.054-0.074-0.068-0.114h-0.021L110.784,65.028z M99.557,72.522c0.093,0.21,0.171,0.378,0.233,0.504l-0.148-0.507
		C99.628,72.533,99.602,72.534,99.557,72.522z"/>
</g>
</svg>
