<?xml version="1.0" encoding="utf-8"?>
<!-- Generator: Adobe Illustrator 15.0.0, SVG Export Plug-In . SVG Version: 6.00 Build 0)  -->
<!DOCTYPE svg PUBLIC "-//W3C//DTD SVG 1.1//EN" "http://www.w3.org/Graphics/SVG/1.1/DTD/svg11.dtd">
<svg version="1.1" id="Layer_1" xmlns="http://www.w3.org/2000/svg" xmlns:xlink="http://www.w3.org/1999/xlink" x="0px" y="0px"
	 width="200px" height="200px" viewBox="0 0 200 200" enable-background="new 0 0 200 200" xml:space="preserve">
<g>
	<g>
		<path d="M84.479,148.63c0.519-0.291,1.09-0.231,1.717,0.177c0.713,0.463,1.533,0.943,2.461,1.438
			c0.552,0.3,1.453,0.773,2.703,1.421c0.049,0.024,0.102,0.054,0.153,0.087c0.231,0.059,0.492,0.122,0.782,0.193
			c0.712,0.178,1.252,0.328,1.624,0.453c0.558,0.196,1.03,0.42,1.416,0.67c0.046,0.031,0.774,0.533,2.185,1.512
			c1.516,1.051,2.64,1.824,3.379,2.32l-0.131,0.134c-0.412-0.187-0.666-0.298-0.762-0.331c-0.115-0.047-0.221-0.075-0.316-0.086
			c0.097,0.076,0.232,0.193,0.411,0.346c0.025,0.016,0.05,0.036,0.072,0.057c0.074,0.043,0.153,0.086,0.233,0.131
			c0.392,0.205,0.72,0.404,0.982,0.596l-0.079,0.124c-0.162-0.046-0.289-0.079-0.387-0.099c0.075,0.086,0.146,0.168,0.211,0.248
			c0.057,0.037,0.102,0.069,0.133,0.099c0.186,0.142,0.334,0.288,0.446,0.442c-0.045,0.035-0.09,0.061-0.138,0.075
			c0.63,0.986,0.705,1.847,0.228,2.581c-0.328,0.503-0.737,0.911-1.235,1.225c0.129,0.084,0.176,0.146,0.147,0.193
			c-0.021,0.032-0.051,0.051-0.093,0.061c-0.234,0.135-0.407,0.214-0.52,0.242c-0.314,0.065-0.531,0.119-0.652,0.158
			c0.015,0.022,0.068,0.072,0.166,0.149c0.077,0.073,0.125,0.134,0.145,0.183c-0.331,0.172-0.691,0.164-1.08-0.023
			c-0.195-0.104-0.341-0.174-0.436-0.207c-0.016-0.008-0.033-0.018-0.053-0.021c-0.039,0.003-0.078,0.008-0.117,0.012
			c-0.053,0.002-0.101,0.002-0.145,0.004c0.251,0.164,0.417,0.303,0.498,0.412l-0.074,0.116c-0.209,0.017-0.514-0.05-0.912-0.2
			c-0.408-0.178-0.684-0.283-0.824-0.315l-0.034,0.053c0.024,0.03,0.071,0.087,0.142,0.171c0.075,0.076,0.121,0.139,0.139,0.188
			l-0.129,0.134c-0.651-0.234-1.354-0.547-2.104-0.943l0.114,0.162c0.258,0.197,0.439,0.344,0.544,0.442
			c0.213,0.19,0.38,0.372,0.501,0.546l-0.127,0.126c-0.201-0.095-0.453-0.24-0.758-0.438c-0.271-0.176-0.818-0.586-1.641-1.231
			c-0.023-0.009-0.05-0.019-0.078-0.03c-1.375-0.449-2.812-1.055-4.316-1.822c-0.899-0.461-1.553-0.824-1.963-1.093
			c-0.453-0.295-1.137-1.016-2.058-2.161c-0.879-1.1-1.394-1.852-1.545-2.258c-0.262-0.732-0.387-1.557-0.377-2.469
			c0.026-0.891,0.17-1.691,0.435-2.403C83.646,149.417,84.018,148.902,84.479,148.63z M95.953,163.066
			c-0.061-0.01-0.118-0.02-0.18-0.029c0.164,0.077,0.328,0.154,0.494,0.234L95.953,163.066z M98.751,163.114
			c0.095,0.032,0.188,0.067,0.28,0.104c-0.061-0.039-0.129-0.08-0.205-0.121C98.802,163.104,98.775,163.107,98.751,163.114z"/>
	</g>
	<g>
		<path d="M97.803,166.758c-0.039-0.119-0.088-0.217-0.143-0.294c0,0.117,0,0.292,0.002,0.527c0.005,0.03,0.009,0.063,0.01,0.097
			c0.016,0.082,0.033,0.167,0.05,0.258c0.097,0.43,0.155,0.809,0.177,1.139l-0.149,0.024c-0.065-0.151-0.121-0.274-0.163-0.364
			c-0.021,0.114-0.04,0.224-0.053,0.328c0.008,0.064,0.006,0.117,0,0.162c0.019,0.232,0.004,0.441-0.039,0.625
			c-0.062-0.015-0.112-0.033-0.151-0.054c-0.341,1.121-0.946,1.737-1.819,1.851c-0.598,0.07-1.18,0.019-1.74-0.16
			c0.019,0.152,0.004,0.229-0.043,0.236c-0.039,0.008-0.074,0-0.104-0.021c-0.255-0.094-0.428-0.178-0.519-0.252
			c-0.258-0.189-0.441-0.321-0.547-0.395c-0.014,0.031-0.017,0.105-0.012,0.227c-0.005,0.105-0.017,0.183-0.035,0.229
			c-0.349-0.138-0.58-0.416-0.69-0.837c-0.044-0.215-0.084-0.373-0.123-0.477c-0.001-0.018-0.005-0.029-0.015-0.039
			c-0.027-0.032-0.057-0.062-0.082-0.088c-0.041-0.035-0.075-0.071-0.102-0.104c0.041,0.295,0.047,0.513,0.012,0.647l-0.136,0.014
			c-0.149-0.154-0.296-0.428-0.442-0.821c-0.125-0.433-0.222-0.712-0.287-0.84l-0.07,0.009c-0.002,0.04-0.012,0.115-0.029,0.223
			c-0.013,0.105-0.033,0.181-0.058,0.225l-0.188-0.014c-0.242-0.649-0.455-1.387-0.641-2.217l-0.053,0.191
			c0.018,0.325,0.025,0.561,0.023,0.707c-0.015,0.287-0.05,0.531-0.102,0.732l-0.176-0.012c-0.051-0.217-0.103-0.5-0.151-0.854
			c-0.039-0.327-0.079-1.016-0.122-2.062c-0.004-0.021-0.014-0.048-0.029-0.076c-0.55-1.334-1.017-2.824-1.399-4.469
			c-0.234-0.982-0.38-1.719-0.438-2.205c-0.07-0.531,0.035-1.522,0.315-2.972c0.272-1.377,0.511-2.255,0.722-2.636
			c0.389-0.676,0.934-1.301,1.633-1.879c0.698-0.557,1.405-0.967,2.125-1.229c0.756-0.271,1.387-0.315,1.891-0.141
			c0.555,0.202,0.881,0.676,0.979,1.417c0.103,0.846,0.269,1.781,0.497,2.808c0.128,0.61,0.346,1.604,0.658,2.984
			c0.018,0.051,0.031,0.11,0.039,0.174c0.104,0.212,0.222,0.45,0.354,0.714c0.326,0.658,0.56,1.172,0.705,1.538
			c0.213,0.546,0.346,1.05,0.405,1.511c0.011,0.055,0.101,0.93,0.267,2.637c0.18,1.838,0.314,3.199,0.412,4.078l-0.191-0.012
			C97.916,167.109,97.838,166.848,97.803,166.758z M90.332,167.783c-0.034-0.055-0.067-0.109-0.1-0.165
			c0.049,0.181,0.102,0.36,0.152,0.54L90.332,167.783z M92.168,169.993c-0.023-0.013-0.043-0.026-0.061-0.043
			c0.032,0.088,0.065,0.18,0.096,0.274C92.191,170.154,92.18,170.079,92.168,169.993z"/>
	</g>
	<g>
		<path d="M100.896,156.734c0.812,0.217,1.453,0.75,1.926,1.603c0.303,0.548,0.867,2.05,1.697,4.511l0.668,1.09l-0.104,0.059
			c-0.118-0.174-0.235-0.348-0.351-0.52c0.008,0.015,0.015,0.025,0.017,0.031c0.075,0.238,0.153,0.479,0.231,0.723
			c0.236,0.389,0.451,0.756,0.644,1.103c0.356,0.644,0.596,1.128,0.719,1.451l-0.101-0.029c-0.226-0.356-0.51-0.782-0.854-1.278
			c0.091,0.277,0.181,0.555,0.269,0.826c0.547,0.986,1.029,1.954,1.451,2.904l-0.146,0.039c-0.023-0.014-0.066-0.068-0.13-0.159
			c-0.05-0.065-0.079-0.092-0.091-0.086c0.211,0.381,0.507,0.963,0.884,1.747l-0.058,0.031c0.139,0.211,0.238,0.365,0.301,0.464
			c0.586,0.985,0.742,1.764,0.464,2.338c0.298,0.954,0.444,1.742,0.437,2.362c-0.01,0.865-0.314,1.466-0.916,1.797
			c-0.798,0.441-1.695-0.118-2.693-1.68c-0.284-0.451-0.655-1.108-1.109-1.969c-0.426-0.82-0.713-1.338-0.859-1.55
			c-0.453-0.659-1.013-1.369-1.672-2.13l-0.029,0.004c-0.004-0.025-0.012-0.044-0.022-0.061c-0.042-0.053-0.087-0.103-0.134-0.146
			l-0.116,0.034l-0.241-0.435c-0.08-0.094-0.162-0.188-0.25-0.281c-0.003-0.006-0.008-0.012-0.014-0.023
			c0.018,0.207,0.021,0.404,0.013,0.592l-0.1-0.029c-0.003-0.235-0.025-0.476-0.063-0.719c-0.11-0.125-0.213-0.24-0.311-0.355
			c0.028,0.152,0.052,0.304,0.072,0.453l-0.17-0.021c-0.04-0.237-0.093-0.485-0.158-0.741c-0.225-0.283-0.433-0.562-0.623-0.843
			c0.214,0.616,0.346,1.089,0.396,1.418l-0.101-0.028c-0.276-0.854-0.477-1.478-0.604-1.869c-0.093-0.152-0.181-0.307-0.268-0.461
			c-0.105-0.194-0.21-0.387-0.312-0.584l-0.086,0.016c-0.05-0.154-0.099-0.316-0.143-0.486c-0.282-0.607-0.51-1.203-0.686-1.785
			c-0.322-1.242-0.644-2.377-0.959-3.404c-0.194-0.754-0.076-1.485,0.352-2.19c0.395-0.667,0.962-1.166,1.701-1.498
			C99.426,156.615,100.172,156.539,100.896,156.734z"/>
	</g>
	<g>
		<path d="M95.756,172.926c-0.559,0.284-2.079,0.805-4.561,1.562l-1.114,0.63l-0.056-0.104c0.181-0.109,0.359-0.219,0.541-0.328
			c-0.018,0.01-0.028,0.014-0.035,0.014c-0.24,0.064-0.483,0.135-0.728,0.205c-0.397,0.227-0.772,0.431-1.126,0.611
			c-0.652,0.336-1.143,0.561-1.471,0.67l0.029-0.096c0.362-0.211,0.799-0.482,1.31-0.812c-0.289,0.082-0.567,0.164-0.836,0.244
			c-1.004,0.516-1.988,0.97-2.956,1.36l-0.033-0.153c0.023-0.015,0.079-0.054,0.165-0.117c0.07-0.049,0.101-0.08,0.093-0.092
			c-0.386,0.201-0.979,0.48-1.775,0.838l-0.024-0.062c-0.215,0.131-0.375,0.225-0.481,0.283c-0.993,0.552-1.775,0.686-2.344,0.4
			c-0.965,0.267-1.757,0.39-2.373,0.367c-0.871-0.035-1.463-0.361-1.776-0.972c-0.414-0.812,0.175-1.692,1.767-2.646
			c0.46-0.277,1.126-0.627,1.997-1.052c0.83-0.401,1.354-0.674,1.576-0.817c0.673-0.432,1.399-0.965,2.177-1.604l-0.003-0.026
			c0.024-0.002,0.044-0.008,0.062-0.023c0.057-0.041,0.108-0.083,0.154-0.125l-0.029-0.126l0.441-0.226
			c0.096-0.076,0.189-0.155,0.281-0.237c0.005-0.002,0.014-0.005,0.025-0.013c-0.207,0.012-0.404,0.011-0.592-0.01l0.028-0.096
			c0.242,0.002,0.483-0.012,0.726-0.039c0.127-0.104,0.25-0.204,0.369-0.301c-0.156,0.025-0.31,0.043-0.455,0.051l0.021-0.168
			c0.235-0.034,0.485-0.076,0.743-0.124c0.287-0.224,0.572-0.424,0.859-0.604c-0.617,0.199-1.089,0.315-1.418,0.353l0.028-0.095
			c0.856-0.252,1.485-0.437,1.887-0.555c0.158-0.086,0.314-0.172,0.466-0.254c0.2-0.099,0.398-0.197,0.592-0.294l-0.01-0.083
			c0.15-0.044,0.313-0.087,0.487-0.128c0.615-0.266,1.216-0.475,1.806-0.628c1.248-0.287,2.392-0.572,3.436-0.859
			c0.76-0.168,1.486-0.033,2.178,0.406c0.648,0.415,1.129,1.001,1.445,1.758c0.331,0.77,0.383,1.515,0.16,2.237
			C97.169,171.85,96.617,172.475,95.756,172.926z"/>
	</g>
	<g>
		<path d="M72.964,183.223c0.089,0.258,0.168,0.42,0.231,0.484c0.156,0.154,0.406,0.173,0.754,0.051
			c0.029-0.01,0.672-0.559,1.93-1.646c1.27-1.094,2.046-1.69,2.335-1.791c0.212-0.071,0.705-0.092,1.478-0.062
			c0.774,0.394,1.699,0.824,2.774,1.29c0.804,0.354,1.604,0.684,2.403,0.994c0.683,0.279,1.031,0.415,1.048,0.406
			c0.147-0.047,0.241-0.096,0.284-0.146l0.029-0.051c-0.113-0.33-0.295-0.618-0.543-0.865c-0.146-0.145-0.391-0.328-0.736-0.555
			c-0.354-0.236-0.603-0.43-0.75-0.581c-0.116-0.112-0.217-0.233-0.297-0.364c0.039,0.026,0.08,0.041,0.119,0.049
			c0.858,0.35,1.394,0.562,1.604,0.635c0.676,0.242,1.37,0.447,2.084,0.615c0.045-0.11,0.109-0.238,0.191-0.381
			c0.039-0.068,0.056-0.111,0.045-0.129c-0.022-0.064-0.096-0.146-0.224-0.244c-0.161-0.123-0.37-0.254-0.627-0.387l-0.112-0.066
			c0.031-0.011,0.117-0.012,0.26-0.004c0.146,0.017,0.283,0.004,0.414-0.035c0.269-0.097,0.416-0.23,0.438-0.401
			c0.006-0.049-0.011-0.142-0.05-0.271c-0.065-0.183-0.282-0.341-0.649-0.476c-0.332-0.11-0.744-0.187-1.226-0.229l-0.271-0.006
			c0.155-0.029,0.404-0.043,0.746-0.041c0.27,0.016,0.467,0.002,0.598-0.045c0.135-0.046,0.252-0.096,0.348-0.156l0.102-0.069
			c-0.004-0.019,0.002-0.048,0.015-0.087s-0.003-0.12-0.048-0.243c-0.012-0.031-0.383-0.134-1.116-0.312
			c-0.88-0.205-1.765-0.392-2.651-0.557c-2.537-0.465-4.41-0.605-5.615-0.426c-0.045-0.018-0.098-0.033-0.155-0.051
			c-0.257-0.09-0.452-0.192-0.589-0.309c-0.217-0.176-0.395-0.435-0.527-0.772c-0.577-0.531-0.998-0.466-1.262,0.194
			c-0.068,0.198-0.139,0.48-0.213,0.852c-0.064,0.376-0.106,0.59-0.125,0.643c-0.086,0.236-0.102,0.478-0.045,0.723
			c0.043,0.156,0.115,0.361,0.218,0.617c0.079,0.242,0.093,0.447,0.038,0.616c-0.069,0.235-0.256,0.478-0.565,0.729
			c-0.983,0.816-1.594,1.375-1.832,1.68C72.92,182.43,72.835,182.822,72.964,183.223z"/>
	</g>
	<g>
		<path d="M105.572,176.089c-0.004-0.62,0.141-1.006,0.428-1.159c0.253-0.14,0.525,0.069,0.814,0.631
			c0.008-0.004,0.014-0.006,0.022-0.01c0.343-0.174,0.538-0.273,0.587-0.298c0.195-0.153,0.423-0.233,0.68-0.241
			c0.158-0.001,0.377,0.014,0.651,0.043c0.11,0.006,0.208,0.002,0.299-0.014l-0.005-0.023l0.009,0.006
			c0.009,0.004,0.019,0.006,0.028,0.013h0.005c1.097,0.457,1.659,0.702,1.688,0.737c0.16,0.193,0.427,0.348,0.801,0.455
			c1.221,0.381,1.996,0.668,2.328,0.862c0.43,0.243,0.658,0.576,0.684,0.998c0.01,0.282-0.004,0.466-0.034,0.552
			c-0.085,0.196-0.312,0.305-0.678,0.325c-0.028,0-0.705-0.226-2.028-0.677c-0.025,0.093-0.072,0.211-0.142,0.354
			c-0.093,0.191-0.196,0.322-0.312,0.393c0.502,0.564,1.055,1.218,1.662,1.964c0.356,0.433,0.705,0.862,1.043,1.291
			c0.174-0.099,0.385-0.149,0.635-0.149c0.324-0.002,0.568,0.086,0.734,0.264c0.124,0.135,0.186,0.293,0.188,0.477l-0.221,0.405
			c-0.203,0.259-0.48,0.396-0.834,0.407c-0.022,0.023-0.051,0.043-0.082,0.064c-0.17,0.111-0.418,0.168-0.742,0.169
			c-0.188,0-0.397-0.059-0.625-0.177c0.072,0.102,0.137,0.188,0.188,0.256c0.139-0.016,0.305-0.021,0.492-0.016
			c0.74,0.021,1.111,0.207,1.113,0.556c0,0.142-0.051,0.286-0.154,0.433c-0.171,0.246-0.445,0.369-0.824,0.373
			c-0.084-0.002-0.163-0.008-0.238-0.021c0.006,0.042,0.01,0.086,0.01,0.13c-0.002,0.116-0.026,0.211-0.082,0.285
			c-0.121,0.165-0.37,0.249-0.743,0.251c-0.153,0-0.294-0.009-0.425-0.03c-0.008,0.016-0.021,0.03-0.034,0.041
			c-0.097,0.087-0.282,0.131-0.552,0.131c-0.33,0.002-0.575-0.086-0.736-0.262c-0.055-0.061-0.098-0.128-0.129-0.203
			c-0.082,0.026-0.165,0.053-0.247,0.08c-0.418-0.758-0.813-1.527-1.187-2.306c-0.752-1.534-1.289-2.824-1.615-3.874
			c-0.655-0.114-1.24-0.68-1.762-1.696c-0.15-0.3-0.287-0.62-0.408-0.963c-0.113-0.136-0.159-0.271-0.14-0.41
			C105.607,176.277,105.57,176.139,105.572,176.089z"/>
	</g>
	<g>
		<path d="M90.717,125.495c-0.501,0.382-0.97,0.694-1.411,0.935c-0.028-0.043-0.044-0.082-0.036-0.119
			c0.153-0.129,0.324-0.264,0.512-0.405c0.006-0.017,0.008-0.032,0.002-0.037c0.151-0.147,0.316-0.312,0.492-0.488
			c-0.013,0.009-0.025,0.015-0.045,0.019c-0.013-0.019-0.02-0.043-0.02-0.074c-0.006-0.006-0.006-0.012,0-0.018
			c0.134-0.074,0.275-0.15,0.423-0.232c0.274-0.245,0.578-0.503,0.914-0.774c0.233-0.196,0.446-0.379,0.642-0.545
			c0.03-0.037,0.063-0.073,0.102-0.11c0.262-0.266,0.496-0.502,0.703-0.711c-0.305,0.235-0.586,0.42-0.842,0.556
			c-0.062,0.044-0.117,0.081-0.166,0.11c-0.006-0.006-0.012-0.018-0.019-0.035c-0.024,0.012-0.049,0.025-0.073,0.045
			c0.018-0.024,0.043-0.053,0.073-0.082c-0.001-0.014,0.003-0.02,0.011-0.02l0.024-0.111c0.081-0.084,0.336-0.317,0.769-0.7
			c0.262-0.281,0.479-0.5,0.65-0.654c0.171-0.153,0.341-0.287,0.514-0.396c-0.008-0.02-0.007-0.041,0-0.064
			c-0.164,0.146-0.519,0.451-1.062,0.914c-0.036-0.037-0.061-0.071-0.073-0.102c-0.013,0-0.017-0.006-0.009-0.02
			c0.013-0.018,0.023-0.034,0.035-0.046c-0.024-0.036-0.036-0.072-0.035-0.108c0.346-0.396,0.65-0.715,0.914-0.961
			c0.107-0.104,0.215-0.199,0.318-0.285c0.067-0.221,0.198-0.619,0.392-1.195c0.288-0.896,0.483-1.434,0.579-1.611
			c0.414-0.773,1.115-1.346,2.105-1.717c0.84-0.322,1.781-0.471,2.828-0.444c0.122,0.007,0.24,0.013,0.349,0.019
			c0.038-0.062,0.074-0.116,0.109-0.166c0.032-0.062,0.105-0.207,0.22-0.434c0.121-0.234,0.246-0.445,0.375-0.636
			c0.375-0.606,0.78-1.093,1.215-1.456c1.33-1.107,2.824-1.081,4.482,0.082c0.727,0.682,1.018,1.718,0.877,3.109
			c-0.052,0.533-0.167,1.08-0.341,1.638c-0.099,0.325-0.206,0.616-0.328,0.874c0.104,0.098,0.209,0.202,0.313,0.311
			c0.504,0.539,0.904,1.101,1.201,1.687c0.34,0.653,0.477,1.237,0.412,1.752c-0.195,1.582-0.582,2.909-1.16,3.983
			c-0.158,0.258-0.332,0.506-0.521,0.746c-0.274,1.508-0.642,2.801-1.095,3.881c-0.109,0.271-0.264,0.845-0.461,1.721
			c-0.104,0.521-0.285,1.406-0.551,2.656c-0.221,1.051-0.43,1.942-0.627,2.682c-0.009,0.107-0.021,0.218-0.039,0.336
			c0.002,0.023-0.062,0.591-0.187,1.7c-0.165,1.09-0.36,1.636-0.58,1.637c-0.343,0.002-0.806,0.715-1.387,2.138
			c-0.517,1.258-0.813,2.187-0.89,2.787l-0.229-0.045c-0.031-0.183-0.048-0.412-0.049-0.688h-0.048
			c0.002,0.365-0.012,0.611-0.041,0.734l-0.176-0.013c-0.022,0.171-0.057,0.345-0.099,0.519c-0.192-0.142-0.339-0.311-0.443-0.508
			c0.126,0.379,0.197,0.639,0.215,0.785l-0.045,0.275l-0.138,0.001c-0.05-0.085-0.109-0.198-0.177-0.345
			c-0.022,0.172-0.038,0.289-0.049,0.354c0.016,0.026,0.029,0.056,0.042,0.082l-0.045,0.276c-0.026-0.01-0.334,0.14-0.921,0.443
			l0.464,0.018c0,0.152-0.029,0.275-0.089,0.367c-0.228,0.112-0.842,0.269-1.846,0.469c-0.074,0.015-0.148,0.027-0.216,0.041
			c-0.421,0.22-0.759,0.389-1.019,0.506c0.022,0.033,0.052,0.074,0.088,0.117c0.072,0.1,0.105,0.17,0.094,0.213
			c-0.049,0.148-0.598,0.287-1.643,0.42c0.096,0.025,0.26,0.029,0.485,0.016c0.073-0.006,0.111,0.08,0.111,0.258
			c0.001,0.162-0.736,0.483-2.209,0.975c-1.396,0.465-2.188,0.697-2.377,0.699c-0.08,0-0.15-0.002-0.211-0.01
			c-0.989,0.504-1.88,0.868-2.671,1.096c-1.185,0.361-2.082,0.377-2.689,0.049c-0.447-0.237-0.775-0.666-0.979-1.291
			c-0.155-0.449-0.25-1.018-0.282-1.703c-0.103,0.134-0.216,0.257-0.339,0.374c-0.051-0.231-0.223-0.761-0.518-1.588
			c-0.046,0.14-0.087,0.254-0.123,0.341c-0.092,0.239-0.199,0.441-0.326,0.607c-0.066-0.734-0.099-1.332-0.101-1.791
			c-0.001-0.178,0.022-0.389,0.071-0.635c0.039-0.189,0.066-0.332,0.085-0.427l-0.005-0.097c-0.059,0.076-0.127,0.182-0.211,0.312
			c-0.086,0.135-0.143,0.219-0.174,0.248l-0.092-0.092c0.24-0.919,0.36-1.547,0.358-1.885c-0.036,0.062-0.151,0.279-0.347,0.654
			c-0.176,0.33-0.287,0.527-0.338,0.59c-0.023-0.026-0.037-0.045-0.035-0.057c-0.006-0.005-0.01-0.104-0.012-0.293
			c0.254-0.996,0.48-1.816,0.68-2.461c-0.008-0.794-0.051-1.421-0.127-1.877c-0.076-0.484-0.115-0.99-0.118-1.518
			c-0.001-0.342,0.123-0.657,0.373-0.947c0.389-0.454,0.675-0.875,0.858-1.264c-0.013-0.022-0.093-0.031-0.24-0.025
			c-0.146,0.006-0.235-0.014-0.266-0.062c0.407-0.615,0.832-1.373,1.276-2.274c0.101-0.215,0.196-0.417,0.286-0.606
			c0.016-0.211,0.039-0.447,0.066-0.707c0.11-1.135,0.199-1.84,0.266-2.115c0-0.012,0.004-0.032,0.01-0.055
			c0.046-0.803,0.277-1.595,0.697-2.375c0.072-0.134,0.252-0.358,0.539-0.67c0.146-0.168,0.259-0.306,0.338-0.416
			c-0.27,0.221-0.525,0.408-0.77,0.563l-0.027-0.047c0.17-0.166,0.398-0.357,0.686-0.572c0.129-0.101,0.246-0.188,0.35-0.269
			c0.104-0.135,0.271-0.332,0.504-0.59c-0.197,0.131-0.401,0.256-0.615,0.379l0.009-0.055c0.19-0.154,0.431-0.335,0.724-0.545
			c0.074-0.062,0.145-0.113,0.211-0.156c0.043-0.051,0.086-0.097,0.129-0.14c-0.123,0.075-0.244,0.149-0.367,0.222
			c-0.036-0.023-0.057-0.055-0.064-0.091c-0.005-0.007-0.006-0.013,0.001-0.021c0.324-0.244,0.675-0.529,1.054-0.848
			c-0.026,0.012-0.045,0.02-0.057,0.027l-0.025-0.057l0.024-0.118c0.19-0.144,0.547-0.449,1.072-0.925
			c0.116-0.141,0.231-0.271,0.347-0.387c-0.372,0.277-0.663,0.463-0.87,0.555l-0.01-0.063c0.342-0.246,0.87-0.666,1.584-1.256
			C90.604,125.605,90.658,125.552,90.717,125.495z M93.771,121.479c-0.316,0.332-0.603,0.598-0.859,0.795
			c0.306-0.181,0.628-0.437,0.97-0.769c0.026-0.019,0.043-0.032,0.056-0.047c0-0.054,0.002-0.104,0.008-0.155
			C93.893,121.364,93.834,121.423,93.771,121.479z M82.746,145.852c-0.037,0.119-0.065,0.222-0.086,0.312l0.046-0.046
			c0.017-0.026,0.034-0.06,0.051-0.101L82.746,145.852z M83.058,142.396c-0.122,0.244-0.196,0.429-0.227,0.552
			c0.06-0.062,0.137-0.232,0.228-0.507L83.058,142.396z M83.014,149.303c-0.035,0.246-0.041,0.454-0.016,0.625l0.045-0.046
			l0.109-0.28c-0.047-0.147-0.086-0.287-0.121-0.414C83.025,149.227,83.02,149.266,83.014,149.303z M84.023,150.135
			c0.021,0.049,0.049,0.098,0.084,0.147c0.002-0.073,0.002-0.153,0.002-0.234C84.08,150.076,84.051,150.105,84.023,150.135z
			 M83.738,151.165h0.139c0.016-0.036,0.033-0.069,0.05-0.103c-0.058,0.033-0.104,0.051-0.144,0.057
			c-0.057-0.096-0.108-0.204-0.152-0.329c-0.01,0.033-0.02,0.065-0.031,0.101L83.738,151.165z M92.296,152.159
			c-0.073,0.042-0.146,0.086-0.22,0.129c0.263-0.077,0.441-0.126,0.533-0.147C92.581,152.139,92.477,152.146,92.296,152.159z"/>
	</g>
	<g>
		<path d="M118.227,139.077c0.389-0.222,0.625-0.335,0.7-0.345c0.084-0.035,0.173-0.065,0.265-0.09
			c0.181-0.039,0.367-0.033,0.562,0.017c-0.01,0.063-0.055,0.151-0.135,0.267l0.104-0.031c0.27-0.131,0.436-0.178,0.501-0.136
			c0.017,0.071,0.034,0.109,0.058,0.114c-0.113,0.205-0.172,0.309-0.17,0.316c0.115-0.059,0.242-0.148,0.383-0.271
			c0.132-0.115,0.207-0.174,0.23-0.177c0.066-0.008,0.098,0.019,0.094,0.082c-0.01,0.062,0.021,0.09,0.092,0.08
			c0.057-0.006,0.115-0.051,0.177-0.133c0.062-0.086,0.256-0.15,0.579-0.189c0.119-0.014,0.338-0.079,0.652-0.191
			c0.313-0.119,0.5-0.182,0.562-0.188c0.263,0.091,0.403,0.135,0.425,0.132c0.066-0.007,0.154-0.049,0.262-0.124
			c0.103-0.074,0.189-0.115,0.26-0.124c0.084-0.009,0.146-0.005,0.186,0.015c0.025,0.021,0.04,0.031,0.046,0.03
			c-0.016,0.181-0.055,0.316-0.116,0.403c0.188-0.049,0.338-0.084,0.444-0.11c0.2-0.048,0.375-0.057,0.524-0.026
			c-0.049,0.109-0.146,0.266-0.29,0.472c0.005,0.032,0,0.065-0.017,0.104c0.113-0.059,0.299-0.186,0.553-0.384
			c0.326-0.249,0.574-0.384,0.746-0.405c0.043-0.006,0.267-0.072,0.668-0.201l0.104,0.033l0.025,0.209l-0.071,0.102
			c0.069-0.026,0.146-0.035,0.229-0.027c0.086,0.008,0.129,0.025,0.133,0.049c-0.064,0.047-0.211,0.137-0.439,0.268
			c0.016-0.002,0.031-0.006,0.045-0.008c-0.033,0.015-0.07,0.027-0.107,0.043c-0.039,0.02-0.078,0.041-0.121,0.064l0.068,0.071
			c0.01-0.003,0.016-0.005,0.014-0.013c0.007,0-0.008,0.025-0.041,0.08l0.002,0.009c0.248-0.068,0.49-0.124,0.723-0.173
			c0.688-0.299,1.409-0.551,2.163-0.754l0.039,0.041l-0.032,0.078c-0.122,0.051-0.249,0.106-0.38,0.166
			c0.213-0.048,0.435-0.084,0.662-0.113l0.007,0.061c0.693-0.115,1.818,0.237,3.374,1.055c1.556,0.818,2.922,1.684,4.106,2.599
			c0.562,0.436,0.983,0.749,1.263,0.938c-0.058,0-0.104-0.008-0.142-0.025c-0.119-0.053-0.248-0.102-0.394-0.146l0.048,0.058
			c0.059,0.054,0.129,0.117,0.204,0.188c0.004,0.006,0.009,0.013,0.015,0.017c0.295,0.289,0.707,0.72,1.235,1.293
			c0.708,0.777,1.065,1.217,1.079,1.32c0.002,0.012,0.004,0.027,0.007,0.047c0.149,0.303,0.277,0.758,0.384,1.367
			c0.053,0.29,0.133,0.875,0.239,1.758c0.002,0.014,0.037,0.478,0.104,1.395c-0.026,0.923-0.262,1.41-0.707,1.466
			c-0.362,0.044-0.575-0.201-0.641-0.735c-0.002-0.02-0.005-0.037-0.008-0.056c-0.205,0.002-0.371-0.103-0.496-0.31
			c-0.103-0.159-0.166-0.332-0.188-0.514c0.109-0.428,0.223-0.771,0.342-1.033c-0.088,0.017-0.158,0.029-0.214,0.037
			c-0.032,0.002-0.244-0.477-0.636-1.439c-0.41-1.031-0.709-1.639-0.899-1.825c-0.418-0.418-1.086-0.965-2.005-1.644
			c-0.416-0.301-1.102-0.784-2.059-1.45l-0.011,0.038c0.011,0.084,0.011,0.209,0.003,0.369c-0.008,0.168-0.007,0.281,0,0.343
			c0.012,0.097,0.18,0.397,0.504,0.901c0.328,0.502,0.518,0.961,0.568,1.375c0.001,0.004,0.014,0.108,0.039,0.31
			c-0.027,0.194-0.161,0.306-0.403,0.336c-0.235,0.028-0.639-0.372-1.207-1.203c-0.768-1.128-1.184-1.731-1.249-1.812
			c-0.031-0.031-0.42-0.349-1.16-0.949c-0.092-0.014-0.19-0.047-0.297-0.102c-0.086-0.035-0.177,0.109-0.271,0.432l0.005-0.023
			c-0.041-0.006-0.08-0.005-0.117-0.001c-0.006,0.001-0.038,0.049-0.101,0.144c-0.062,0.086-0.109,0.134-0.141,0.138
			c-0.109,0.013-0.271-0.032-0.484-0.136c-0.367-0.172-0.637-0.291-0.812-0.354l-0.299,0.083l0.045,0.021
			c0.074,0.021,0.15,0.061,0.23,0.119c0.002,0.008,0.056,0.059,0.16,0.156c-0.051,0.069-0.17,0.114-0.357,0.137
			c-0.182,0.022-0.521,0.039-1.021,0.051c-0.416,0.008-0.746,0.002-0.983-0.014c-0.064,0.016-0.132,0.028-0.199,0.043l0.001,0.004
			c0.125,0.108,0.191,0.193,0.198,0.254l-0.06,0.072c-0.021,0.002-0.092-0.022-0.209-0.076c-0.113-0.054-0.207-0.076-0.283-0.067
			c-0.043,0.006-0.117-0.015-0.217-0.065c-0.016-0.004-0.031-0.008-0.05-0.013c-0.037,0.007-0.075,0.015-0.116,0.024
			c-0.008,0.006-0.017,0.012-0.027,0.017c0.011,0.013,0.021,0.024,0.033,0.038c-0.019,0.025-0.031,0.054-0.039,0.079
			c-0.017,0.014-0.066,0.024-0.155,0.036c-0.06,0.008-0.099,0.025-0.11,0.051c0.039,0.047,0.07,0.093,0.092,0.138l-0.058,0.07
			c-0.058,0.003-0.134-0.022-0.231-0.077c-0.023-0.001-0.049-0.002-0.07-0.006c0.002,0.021,0.006,0.048,0.01,0.083
			c0.008,0.062-0.001,0.104-0.023,0.132l-0.004,0.002c0.036,0.05,0.057,0.087,0.059,0.112c0.019,0.153,0.011,0.2-0.024,0.142
			c-0.151-0.012-0.313-0.104-0.483-0.273c-0.067-0.067-0.127-0.127-0.182-0.178c-0.01-0.004-0.02-0.009-0.031-0.014
			c-0.037-0.002-0.076-0.005-0.117-0.009l0.256,0.348c0.003,0.019-0.008,0.054-0.028,0.104c-0.067,0-0.155-0.039-0.265-0.119
			c0.007,0.076,0.001,0.119-0.02,0.127c-0.016,0.002-0.051,0.007-0.105,0.013l-0.006-0.003c0.019,0.042,0.031,0.086,0.035,0.129
			c0.019,0.152-0.01,0.184-0.088,0.094c-0.053-0.026-0.127-0.074-0.227-0.146c0.01,0.122-0.006,0.158-0.055,0.107
			c-0.137-0.025-0.289-0.123-0.461-0.287c-0.058-0.055-0.11-0.103-0.155-0.146c-0.126-0.008-0.291-0.02-0.495-0.025
			c0.08,0.135,0.123,0.229,0.13,0.284c0.013,0.097,0.015,0.152,0.004,0.164c-0.005,0.009-0.03,0.017-0.08,0.03
			c-0.149-0.076-0.319-0.201-0.509-0.374c-0.085-0.015-0.191-0.03-0.318-0.048c0.021,0.027,0.045,0.058,0.068,0.09
			c0.118,0.15,0.184,0.275,0.195,0.373s0.017,0.152,0.012,0.165c0.002,0.013-0.006,0.028-0.025,0.05
			c-0.148-0.074-0.293-0.199-0.438-0.373c-0.038-0.014-0.075-0.027-0.113-0.041c0.037,0.07,0.058,0.139,0.065,0.203
			c0.014,0.092,0.016,0.141,0.011,0.148c0.001,0.006-0.009,0.016-0.03,0.031c-0.175-0.029-0.345-0.121-0.51-0.279
			c-0.145-0.142-0.248-0.236-0.311-0.283c-0.013,0.004-0.026,0.006-0.041,0.006c0.019,0.167,0.021,0.296,0.006,0.385
			c-0.157-0.051-0.35-0.142-0.578-0.281c0.012,0.055,0.008,0.106-0.014,0.158c-0.022,0.04-0.08,0.113-0.174,0.217
			c-0.033-0.011-0.074-0.039-0.123-0.088l-0.043,0.09c-0.066-0.013-0.136-0.025-0.207-0.041c0.002,0.1,0,0.157-0.004,0.178
			c-0.07-0.034-0.156-0.098-0.257-0.191c-0.024-0.021-0.044-0.043-0.062-0.062c-0.031-0.006-0.063-0.014-0.096-0.021
			c-0.007,0.086-0.009,0.204-0.003,0.353c-0.002,0.166-0.049,0.287-0.14,0.359c-0.154-0.215-0.266-0.378-0.335-0.486
			c-0.093-0.14-0.146-0.252-0.163-0.342c-0.008,0.002-0.016,0.002-0.021,0.004c0.008,0.078,0.032,0.215,0.074,0.406
			c0.021,0.221-0.039,0.36-0.182,0.42c-0.072-0.047-0.156-0.181-0.251-0.404l-0.15-0.351c0.001,0.005,0.003,0.119,0.007,0.341
			c0.008,0.142-0.029,0.271-0.109,0.385c-0.07-0.018-0.129-0.09-0.178-0.221c-0.062-0.146-0.112-0.236-0.149-0.27
			c-0.019,0.201-0.03,0.304-0.029,0.311c-0.024,0.127-0.067,0.23-0.13,0.312c-0.068-0.021-0.132-0.045-0.191-0.069
			c0,0.315-0.006,0.501-0.016,0.558l-0.15-0.008c-0.027-0.133-0.059-0.337-0.09-0.609l-0.025,0.003
			c0.007,0.245-0.016,0.434-0.074,0.565c-0.139-0.003-0.23-0.093-0.273-0.273c-0.023-0.188-0.041-0.301-0.05-0.338l-0.026,0.006
			c0.002,0.006,0.002,0.052,0.002,0.138c-0.004,0.063-0.01,0.11-0.024,0.142c-0.211-0.084-0.351-0.228-0.42-0.43
			c-0.042-0.193-0.086-0.342-0.131-0.445c-0.013,0-0.026-0.002-0.04,0c0.031,0.308,0.006,0.598-0.078,0.865
			c-0.172,0.002-0.33-0.08-0.475-0.248c-0.059-0.072-0.135-0.201-0.229-0.388c-0.002,0.036,0.002,0.104,0.008,0.202
			c0.009,0.074,0.007,0.122-0.006,0.148c-0.178-0.119-0.302-0.228-0.375-0.324c-0.013,0.027-0.021,0.074-0.022,0.143
			c-0.01,0.069-0.017,0.116-0.025,0.143c-0.104-0.03-0.321-0.147-0.65-0.347c-0.182-0.106-0.408-0.245-0.68-0.417
			c0.02,0.146-0.009,0.264-0.081,0.354c-0.181-0.107-0.36-0.239-0.542-0.396c-0.174-0.152-0.296-0.281-0.363-0.391
			c-0.119,0.169-0.242,0.15-0.367-0.057c-0.069-0.115-0.166-0.279-0.287-0.494c-0.006,0.026-0.012,0.035-0.021,0.03
			c0.002,0.007,0.009,0.054,0.019,0.146c0.01,0.077,0.018,0.141,0.023,0.182c0,0.007-0.012,0.021-0.037,0.042
			c-0.072-0.041-0.146-0.117-0.229-0.23c-0.088-0.125-0.137-0.232-0.148-0.324c-0.013-0.121-0.021-0.243-0.023-0.367
			c-0.498-0.434-0.793-0.816-0.887-1.15c-0.055-0.164-0.059-0.33-0.013-0.498c0.026-0.102,0.087-0.227,0.181-0.373
			c0.057-0.082,0.264-0.35,0.619-0.808c0.362-0.457,0.547-0.692,0.557-0.706c0.121-0.15,0.301-0.242,0.535-0.27
			c0.191-0.018,0.451,0.001,0.773,0.053c0.364,0.061,0.639,0.111,0.82,0.15c0.308,0.055,0.545,0.072,0.709,0.052
			c0.16-0.013,0.381,0.017,0.662,0.086c0.131,0.026,0.42,0.103,0.863,0.228c0.373,0.09,0.713,0.172,1.022,0.244
			c0.329-0.042,0.649-0.074,0.961-0.095C117.949,139.252,118.081,139.17,118.227,139.077z M111.35,142.999
			c-0.019-0.149-0.046-0.263-0.084-0.332l-0.019-0.024c-0.017,0.125,0.01,0.244,0.087,0.359L111.35,142.999z M111.799,143.01
			c-0.093-0.061-0.184-0.124-0.27-0.189c0.218,0.324,0.367,0.544,0.445,0.658l-0.005-0.045
			C111.932,143.291,111.874,143.148,111.799,143.01z M115.908,144.148c0.043,0.172,0.072,0.287,0.094,0.346l0.029-0.096
			c-0.006-0.08-0.014-0.16-0.021-0.248C115.977,144.148,115.941,144.148,115.908,144.148z M115.484,144.372l-0.004-0.026
			c-0.016-0.065-0.026-0.136-0.037-0.209c-0.01,0-0.02-0.001-0.029-0.001C115.438,144.219,115.46,144.297,115.484,144.372z
			 M115.119,144.116h-0.004c0.008,0.042,0.015,0.087,0.02,0.133C115.13,144.203,115.124,144.159,115.119,144.116z M119.303,143.874
			c0.002,0.054,0.003,0.106,0.006,0.151c0.076,0.026,0.149,0.055,0.219,0.08c-0.023-0.027-0.049-0.061-0.078-0.098
			c-0.037-0.044-0.073-0.092-0.108-0.14C119.328,143.87,119.316,143.87,119.303,143.874z M117.98,144.012
			c0.016,0.037,0.031,0.074,0.047,0.114c0-0.04,0-0.081-0.002-0.12C118.011,144.008,117.994,144.01,117.98,144.012z
			 M117.474,144.066c0.021,0.037,0.038,0.07,0.058,0.102c-0.004-0.037-0.008-0.07-0.012-0.105
			C117.505,144.064,117.488,144.066,117.474,144.066z M116.347,144.143c0.024,0.123,0.052,0.26,0.079,0.412l0.041-0.006
			c0-0.156,0-0.294,0-0.412C116.428,144.139,116.387,144.141,116.347,144.143z M118.683,144.042
			c-0.06-0.017-0.122-0.034-0.186-0.051c0.056,0.147,0.124,0.252,0.196,0.312C118.697,144.248,118.693,144.161,118.683,144.042z
			 M123.496,138.645c-0.324,0.125-0.557,0.25-0.698,0.371c-0.028,0.029-0.067,0.062-0.112,0.103c0.096,0.001,0.19,0.003,0.281,0.008
			c0.018-0.015,0.037-0.028,0.057-0.044c0.254-0.198,0.407-0.334,0.461-0.408L123.496,138.645z M119.779,139.191
			c-0.027,0.021-0.057,0.041-0.084,0.062c0.017-0.002,0.035-0.006,0.054-0.007C119.758,139.229,119.768,139.21,119.779,139.191z
			 M119.173,139.594c0.084,0.002,0.171,0.002,0.263,0.002c0.029-0.008,0.057-0.017,0.082-0.02c0.021-0.025,0.043-0.055,0.069-0.087
			c-0.104,0.014-0.21,0.028-0.317,0.042c-0.027,0.02-0.057,0.037-0.084,0.058C119.18,139.591,119.177,139.593,119.173,139.594z
			 M120.829,143.709l-0.005,0.001l0.005,0.005V143.709z M120.169,143.78c0.028,0.024,0.055,0.04,0.079,0.055l-0.01-0.063
			C120.217,143.775,120.193,143.777,120.169,143.78z M119.668,143.88l-0.002-0.021c-0.001-0.006-0.002-0.016-0.004-0.025
			c-0.014,0.001-0.024,0.003-0.037,0.004C119.639,143.852,119.652,143.864,119.668,143.88z M121.096,143.672
			c0.027,0.039,0.057,0.083,0.092,0.133c0.019,0.024,0.033,0.049,0.047,0.072c0.039,0.02,0.078,0.037,0.117,0.057
			c-0.078-0.102-0.146-0.189-0.205-0.268C121.128,143.668,121.111,143.67,121.096,143.672z M122.54,139.258
			c0.12-0.029,0.241-0.058,0.362-0.082c0.02-0.017,0.041-0.033,0.064-0.05c-0.087,0.021-0.215,0.051-0.387,0.093
			C122.568,139.23,122.554,139.244,122.54,139.258z M128.598,138.564c0.18-0.018,0.352-0.028,0.514-0.035
			c0.041-0.094,0.1-0.17,0.177-0.229c-0.267,0.071-0.534,0.161-0.798,0.271C128.535,138.576,128.572,138.576,128.598,138.564z"/>
	</g>
	<g>
		<path d="M85.224,133.585c-0.051,0.087-0.104,0.179-0.159,0.279c-0.014,0.147,0,0.295,0.034,0.438l0.015,0.045
			C85.136,134.215,85.173,133.96,85.224,133.585z M85.477,133.675l0.018-0.011c0.015-0.126-0.014-0.239-0.088-0.342l-0.006,0.029
			C85.396,133.425,85.423,133.532,85.477,133.675z M85.499,133.027c0.055,0.108,0.106,0.22,0.151,0.332
			c0.035,0.089,0.043,0.203,0.023,0.35c-0.021,0.133-0.059,0.229-0.111,0.291c-0.033-0.008-0.05-0.016-0.051-0.021
			c-0.015-0.041-0.037-0.098-0.064-0.168c-0.036-0.088-0.055-0.136-0.057-0.141c-0.004,0.006-0.018,0.001-0.037-0.016
			c-0.014,0.238-0.025,0.42-0.035,0.552c-0.021,0.229-0.127,0.295-0.318,0.194c-0.021,0.127-0.078,0.291-0.17,0.494
			c-0.092,0.209-0.199,0.396-0.319,0.565c-0.112-0.054-0.194-0.147-0.248-0.284c-0.178,0.264-0.327,0.475-0.45,0.639
			c-0.215,0.31-0.363,0.498-0.449,0.563c-0.02-0.015-0.053-0.052-0.096-0.108c-0.037-0.062-0.068-0.102-0.089-0.117
			c-0.004,0.016-0.008,0.031-0.014,0.047c-0.187,1.166-0.571,1.783-1.149,1.854c-0.1,0.012-0.181,0.072-0.248,0.178
			c-0.072,0.108-0.191,0.172-0.356,0.192c-0.091,0.011-0.154,0.003-0.187-0.022l-0.054-0.041c-0.013,0.046-0.026-0.008-0.046-0.16
			c-0.012-0.09,0.004-0.17,0.045-0.235c0.02-0.03,0.037-0.058,0.05-0.082c-0.015-0.024-0.03-0.053-0.047-0.086l-0.144,0.009
			c-0.096,0.01-0.275,0.016-0.535,0.01c-0.23-0.01-0.42-0.008-0.568,0.006c-0.008,0.072-0.025,0.127-0.051,0.162
			c-0.116,0.002-0.213-0.047-0.291-0.148l-0.244,0.002c-0.014,0.105-0.036,0.234-0.062,0.387c-0.121-0.021-0.221-0.104-0.299-0.248
			c-0.048-0.098-0.092-0.179-0.133-0.244c-0.021-0.004-0.043-0.004-0.064-0.002c-0.008,0.002-0.036,0.022-0.09,0.062l-0.004,0.005
			c-0.048,0.118-0.098,0.208-0.151,0.271c-0.013-0.014-0.034-0.049-0.064-0.109c-0.053,0.044-0.114,0.093-0.181,0.146
			c-0.346,0.254-0.628,0.393-0.848,0.42c-0.109,0.013-0.229,0.004-0.363-0.03c-0.057-0.013-0.105-0.027-0.149-0.046
			c-0.034,0.068-0.071,0.128-0.116,0.182c0.006,0.069,0.016,0.151,0.025,0.246c-0.025,0.25-0.163,0.391-0.411,0.421
			c-0.092,0.011-0.163,0.003-0.217-0.021l-0.069-0.039c-0.015-0.045-0.029-0.116-0.048-0.215c-0.003-0.004-0.004-0.006-0.007-0.01
			c-0.006-0.01-0.027-0.06-0.064-0.147v-0.007c-0.031,0.104-0.078,0.222-0.142,0.356c-0.126,0.281-0.269,0.429-0.428,0.449
			c-0.089,0.01-0.158,0.003-0.204-0.021l-0.061-0.039l-0.072-0.196c0.015-0.05,0.011-0.142-0.006-0.275
			c-0.016,0.015-0.064,0.062-0.148,0.14c-0.074,0.064-0.135,0.109-0.188,0.134l-0.143-0.029c-0.013-0.021-0.027-0.042-0.042-0.063
			c-0.045,0.063-0.095,0.115-0.151,0.152c-0.017,0.064-0.051,0.04-0.102-0.072c-0.061,0.103-0.111,0.176-0.148,0.225
			c-0.029,0.102-0.072,0.082-0.127-0.059c-0.018-0.041-0.023-0.082-0.016-0.119h-0.008c-0.061,0.02-0.096,0.031-0.108,0.033
			c-0.03,0.002-0.059-0.031-0.085-0.102c-0.066,0.111-0.132,0.184-0.197,0.209c-0.047-0.037-0.072-0.066-0.074-0.083l0.08-0.408
			c-0.041,0.019-0.078,0.039-0.113,0.06c-0.012,0.002-0.018,0.009-0.016,0.021c-0.035,0.064-0.067,0.143-0.094,0.233
			c-0.078,0.213-0.189,0.356-0.335,0.428c-0.005,0.065-0.034,0.024-0.089-0.117c-0.01-0.024-0.009-0.063,0.004-0.12h-0.01
			c-0.033-0.019-0.059-0.056-0.078-0.109c-0.016-0.035-0.029-0.062-0.037-0.078c-0.017,0.014-0.037,0.029-0.061,0.043
			c-0.075,0.085-0.137,0.138-0.184,0.16l-0.088-0.043c-0.007-0.047,0-0.098,0.018-0.15c-0.026-0.021-0.069-0.021-0.129-0.002
			c-0.09,0.023-0.147,0.033-0.172,0.029c-0.021-0.021-0.045-0.043-0.074-0.064c0.012-0.014,0.017-0.025,0.015-0.039
			c-0.006-0.005-0.017-0.011-0.03-0.014c-0.039,0.015-0.078,0.027-0.113,0.031c-0.02,0.009-0.037,0.019-0.055,0.035
			c-0.068,0.082-0.125,0.129-0.167,0.141c-0.077,0.021-0.159,0.081-0.245,0.178c-0.076,0.08-0.125,0.127-0.148,0.145v0.004
			l-0.01,0.002l-0.099-0.045c-0.019-0.051,0.005-0.145,0.068-0.275l-0.001-0.005c0.002-0.004,0.005-0.009,0.008-0.015h-0.01
			c-0.071,0.016-0.143,0.026-0.209,0.035c-0.221,0.088-0.536,0.205-0.938,0.346c-0.485,0.172-0.819,0.281-1.005,0.328
			c-0.188,0.039-0.324,0.041-0.417-0.006c0.06-0.123,0.088-0.188,0.086-0.195c0.047-0.079,0.104-0.143,0.172-0.187l0.025-0.032
			l-0.321,0.03c-0.14,0.116-0.343,0.316-0.611,0.603c-0.158,0.168-0.291,0.264-0.398,0.289c-0.036,0.004-0.104-0.018-0.202-0.067
			c-0.106-0.067-0.164-0.101-0.17-0.099c-0.042,0.011-0.077,0.023-0.106,0.041c-0.055-0.051-0.104-0.094-0.146-0.131
			c-0.056-0.006-0.115-0.008-0.177-0.006c0.021,0.182-0.008,0.312-0.09,0.391c-0.123-0.09-0.223-0.193-0.297-0.307
			c-0.41,0.791-0.623,1.201-0.638,1.233c-0.015,0.065-0.065,0.36-0.149,0.89c0.009,0.313,0.021,0.706,0.043,1.18
			c0.039,0.926-0.059,1.418-0.291,1.479c-0.234,0.055-0.432,0.001-0.594-0.158c-0.109-0.184-0.164-0.279-0.164-0.285
			c-0.233-0.386-0.363-0.855-0.395-1.414c-0.02-0.299-0.042-0.531-0.066-0.695c0.006-0.143,0-0.234-0.017-0.276
			c-0.024-0.058-0.082-0.161-0.168-0.312c-0.093-0.143-0.152-0.256-0.183-0.338l-0.021-0.034c-0.601,0.937-1.026,1.614-1.278,2.034
			c-0.552,0.938-0.928,1.668-1.129,2.192c-0.029,0.066-0.048,0.165-0.056,0.304c0.009,0.332,0.089,0.875,0.237,1.627
			c0.235-0.022,0.399,0.158,0.49,0.541c0.016,0.061-0.015,0.156-0.084,0.289c-0.011,0.02-0.022,0.041-0.039,0.062
			c0.205,0.122,0.336,0.306,0.393,0.553c0.016,0.084,0.015,0.153-0.003,0.204c-0.041,0.122-0.159,0.191-0.354,0.21
			c0.166,0.147,0.346,0.316,0.534,0.509c0.088,0.161,0.13,0.332,0.127,0.512c0.005,0.233-0.091,0.385-0.286,0.451
			c0.006,0.013,0.016,0.027,0.023,0.045c0.246,0.506,0.189,0.804-0.169,0.891c-0.444,0.104-0.946-0.249-1.509-1.057
			c-0.467-0.844-0.705-1.271-0.711-1.281c-0.41-0.821-0.672-1.37-0.785-1.645c-0.256-0.586-0.402-1.041-0.436-1.363
			c-0.014-0.018-0.021-0.032-0.023-0.043c-0.022-0.037-0.021-0.137,0.009-0.308c0.06-0.268,0.182-0.69,0.364-1.267
			c0.224-0.692,0.408-1.223,0.555-1.586c0.007-0.006,0.011-0.014,0.018-0.021c0.03-0.089,0.062-0.168,0.092-0.232l0.019-0.075
			c-0.114,0.087-0.216,0.178-0.31,0.269c-0.027,0.028-0.065,0.055-0.111,0.079c0.163-0.28,0.414-0.712,0.749-1.295
			c0.692-1.245,1.589-2.505,2.692-3.78c0.724-0.854,1.364-1.457,1.926-1.811c0.207-0.223,0.531-0.432,0.971-0.628l-0.002-0.009
			l0.009-0.002c0.345-0.164,0.757-0.316,1.24-0.457c0.487-0.115,0.933-0.219,1.341-0.312l-0.029-0.089l0.084-0.075
			c0.447-0.023,0.691-0.041,0.733-0.052c0.028-0.009,0.06-0.017,0.09-0.021c0.599-0.153,1.093-0.295,1.483-0.422
			c0.104-0.039,0.203-0.074,0.293-0.109c-0.043-0.047-0.086-0.1-0.131-0.16c0.007-0.001,0.016-0.016,0.033-0.041
			c0.031-0.035,0.088-0.064,0.174-0.087c0.072-0.021,0.172-0.021,0.306,0c0.139,0.026,0.241,0.03,0.308,0.009
			c0.023-0.009,0.137-0.105,0.344-0.292c0.058-0.015,0.262-0.032,0.612-0.056c0.437-0.159,0.778-0.272,1.022-0.338
			c0.373-0.103,0.779-0.174,1.223-0.215c0.08-0.037,0.244-0.055,0.494-0.052l0.109-0.014c-0.133-0.072-0.217-0.132-0.254-0.183
			c0.158-0.119,0.334-0.194,0.526-0.23c0.103-0.018,0.203-0.028,0.302-0.028c0.076-0.021,0.355-0.017,0.834,0.009
			c0.182,0.022,0.344,0.049,0.49,0.08c0.309-0.111,0.629-0.216,0.963-0.312c0.26-0.193,0.545-0.403,0.856-0.632
			c0.366-0.287,0.604-0.467,0.711-0.541c0.239-0.178,0.437-0.291,0.597-0.342c0.167-0.051,0.383-0.16,0.646-0.328
			c0.158-0.113,0.396-0.269,0.71-0.469c0.288-0.17,0.528-0.285,0.718-0.347c0.238-0.071,0.451-0.065,0.641,0.015
			c0.014,0.01,0.305,0.145,0.873,0.402c0.561,0.26,0.889,0.413,0.981,0.464c0.159,0.093,0.276,0.177,0.346,0.253
			c0.134,0.127,0.214,0.273,0.238,0.443C85.865,131.994,85.77,132.45,85.499,133.027z"/>
	</g>
	<g>
		<path d="M99.363,119.082c0.241,0.439,0.354,0.736,0.34,0.896c-0.004,0.047-0.01,0.094-0.021,0.136
			c0.001,0.006,0.003,0.013,0.009,0.019c0.057,0.189,0.08,0.406,0.065,0.65c-0.028,0.251-0.043,0.41-0.049,0.476
			c0.009,0.628-0.134,1.218-0.433,1.771c-0.002,0.008-0.004,0.01-0.011,0.01c-0.022,0.066-0.051,0.131-0.081,0.195
			c-0.395,0.834-0.838,1.229-1.333,1.188c-0.049-0.004-0.129-0.028-0.241-0.075c-0.453,0.123-0.978,0.159-1.576,0.109
			c-0.123-0.01-0.241-0.021-0.355-0.038c-0.391,0.711-0.814,1.392-1.268,2.042c-1.032,1.488-2.116,2.637-3.254,3.446
			c-0.867,0.61-1.739,1.007-2.613,1.192c-0.076,0.098-0.161,0.19-0.256,0.275c-0.729,0.664-2.09,0.914-4.079,0.748
			c-0.354-0.027-0.644-0.091-0.868-0.189c-0.208,0.123-0.461,0.172-0.76,0.148c-0.409-0.035-0.682-0.209-0.813-0.521
			c-0.073-0.17-0.098-0.375-0.077-0.613c0.029-0.366,0.188-0.789,0.473-1.268c0.186-0.312,0.384-0.589,0.595-0.83
			c-0.006,0-0.015,0-0.019,0c-0.067-0.007-0.106-0.018-0.117-0.037c-0.006-0.006-0.01-0.016-0.008-0.028
			c0.158-0.275,0.377-0.548,0.658-0.812c0.041-0.07,0.082-0.142,0.118-0.212c-0.146,0.122-0.33,0.275-0.555,0.462l-0.009-0.012
			c-0.053,0.051-0.104,0.105-0.15,0.163c-0.031-0.015-0.051-0.032-0.062-0.054c-0.004-0.012-0.006-0.022-0.006-0.034
			c0.114-0.121,0.231-0.234,0.353-0.343c0.12-0.135,0.262-0.278,0.421-0.426c-0.146,0.069-0.283,0.129-0.41,0.181
			c0.186-0.089,0.365-0.188,0.54-0.298c0.007-0.006,0.017-0.008,0.028-0.006c0.061-0.062,0.123-0.121,0.189-0.17
			c0.021-0.035,0.045-0.066,0.071-0.096c-0.079,0.055-0.151,0.107-0.216,0.158l-0.014-0.059c-0.166,0.135-0.26,0.201-0.285,0.198
			c-0.078-0.006-0.116-0.015-0.116-0.028l0.019,0.002l-0.016-0.037c0.093-0.078,0.329-0.262,0.71-0.551
			c-0.038,0.008-0.069,0.019-0.097,0.028c-0.12,0.071-0.233,0.13-0.336,0.177c0.174-0.177,0.336-0.336,0.481-0.478l-0.024-0.039
			c0.105-0.097,0.203-0.183,0.289-0.263c-0.026,0.017-0.051,0.033-0.076,0.05l-0.023-0.065c0.137-0.08,0.305-0.212,0.502-0.392
			c0.027-0.022,0.055-0.045,0.081-0.067c-0.104,0.053-0.203,0.102-0.298,0.141c-0.035-0.025-0.051-0.062-0.047-0.104
			c0.05-0.026,0.115-0.062,0.193-0.103l-0.011-0.012c-0.005-0.006-0.008-0.016-0.006-0.027c0.212-0.198,0.488-0.4,0.824-0.605
			c0.135-0.08,0.271-0.156,0.405-0.224c0.06-0.069,0.129-0.14,0.201-0.214c0.142-0.131,0.28-0.26,0.42-0.389
			c-0.024-0.004-0.052-0.006-0.082-0.009c-0.08-0.008-0.131-0.015-0.153-0.03c-0.019-0.002-0.027-0.008-0.025-0.021
			c0.163-0.042,0.337-0.102,0.521-0.178c0.326-0.286,0.652-0.563,0.982-0.831c-0.007,0-0.015-0.003-0.027-0.003
			c-0.082-0.006-0.129-0.016-0.146-0.03c0-0.006,0-0.013,0.002-0.019c0.158-0.061,0.33-0.137,0.515-0.225
			c0.309-0.227,0.619-0.447,0.932-0.661c-0.312,0.134-0.574,0.226-0.787,0.276l0.032-0.053c0.243-0.061,0.563-0.182,0.96-0.363
			c0.338-0.225,0.672-0.426,1-0.609c-0.135-0.018-0.236-0.043-0.307-0.08c0.02-0.023,0.086-0.043,0.197-0.057
			c0.17-0.023,0.379-0.086,0.633-0.188c0.071-0.025,0.189-0.074,0.354-0.146c0.012,0,0.021-0.001,0.029-0.006
			c-0.057,0.007-0.119,0.014-0.187,0.021l-0.179-0.07l0.029-0.033c0.149-0.012,0.347-0.062,0.594-0.154
			c0.1-0.029,0.292-0.104,0.57-0.22c-0.006-0.002-0.012-0.002-0.019-0.003c-0.078-0.006-0.14-0.03-0.179-0.069
			c-0.016-0.014-0.027-0.028-0.031-0.048c0.102-0.036,0.195-0.068,0.283-0.098l0.002-0.02c0.029-0.053,0.125-0.137,0.287-0.252
			c-0.053-0.01-0.107-0.031-0.159-0.059c-0.06-0.029-0.093-0.045-0.099-0.047l0.008-0.101c0.115,0.027,0.273-0.022,0.474-0.145
			c0.028-0.023,0.074-0.058,0.138-0.109c0.01-0.028,0.021-0.057,0.034-0.08c-0.173,0.099-0.356,0.187-0.547,0.269
			c-0.034-0.028-0.051-0.06-0.047-0.096c0.073-0.061,0.188-0.168,0.351-0.32l-0.021-0.002c-0.08-0.006-0.127-0.018-0.144-0.03
			c-0.008-0.007-0.008-0.013,0-0.019c0.135-0.076,0.306-0.196,0.51-0.363c0.257-0.219,0.42-0.355,0.486-0.412
			c-0.147,0.055-0.315,0.119-0.506,0.189c-0.304,0.103-0.527,0.17-0.671,0.201c0.487-0.224,0.951-0.423,1.396-0.595
			c0.031-0.011,0.063-0.022,0.096-0.037c0.047-0.046,0.1-0.097,0.16-0.151c-0.458,0.181-0.69,0.272-0.696,0.272
			c-0.073-0.006-0.122-0.022-0.144-0.049c-0.034,0.041-0.053,0.085-0.057,0.133c-0.008,0.075-0.05,0.108-0.129,0.101
			c-0.043-0.004-0.081-0.016-0.117-0.037c-0.022-0.014-0.043-0.037-0.059-0.068c-0.004-0.014-0.012-0.041-0.021-0.085
			c0.123-0.052,0.299-0.126,0.535-0.224c0.137-0.094,0.331-0.188,0.586-0.283c-0.099,0.011-0.162,0.014-0.186,0.013
			c-0.066-0.007-0.109-0.022-0.125-0.048c-0.006-0.012-0.01-0.043-0.014-0.092c0.031-0.041,0.072-0.084,0.133-0.129
			c0-0.006-0.002-0.015-0.008-0.027c-0.01-0.026-0.018-0.045-0.021-0.057v-0.011c0.096-0.034,0.186-0.069,0.275-0.106
			c0,0.013-0.004,0.021-0.01,0.027c0.145-0.043,0.301-0.082,0.469-0.117c0.121-0.039,0.25-0.074,0.388-0.106
			c0.006-0.005,0.013-0.008,0.021-0.008c-0.117-0.009-0.193-0.019-0.229-0.028c-0.073-0.012-0.11-0.031-0.114-0.055l0.04-0.053
			c0.341-0.008,0.64-0.021,0.907-0.035c0.031-0.027,0.062-0.051,0.088-0.066c-0.136,0.014-0.255,0.025-0.354,0.035
			c0.099-0.028,0.191-0.051,0.272-0.068c0.056-0.008,0.111-0.016,0.168-0.022c0.085-0.054,0.168-0.106,0.252-0.155
			c0.488-0.242,1.005-0.252,1.552-0.027c0.457,0.187,0.916,0.519,1.375,0.998C98.77,118.163,99.09,118.602,99.363,119.082z
			 M84.174,126.561c-0.118,0.088-0.232,0.17-0.343,0.239c0.05-0.021,0.101-0.043,0.153-0.069c0.053-0.045,0.107-0.09,0.168-0.135
			C84.158,126.591,84.166,126.579,84.174,126.561z"/>
	</g>
	<g>
		<path d="M104.515,122.296c-0.409,0.476-0.672,1.024-0.79,1.646c0.002,0.01,0.004,0.017,0.006,0.021
			c-0.022,0.063-0.045,0.129-0.067,0.192c-0.22,0.896-0.124,1.488,0.286,1.774c0.041,0.026,0.119,0.054,0.23,0.082
			c0.278,0.388,0.664,0.751,1.159,1.091c0.099,0.067,0.199,0.133,0.301,0.195c-0.151,0.799-0.257,1.591-0.317,2.377
			c-0.144,1.807-0.031,3.387,0.338,4.738c0.281,1.02,0.705,1.877,1.27,2.574c-0.002,0.121,0.004,0.242,0.02,0.363
			c0.143,0.983,1.035,2.039,2.679,3.172c0.294,0.203,0.56,0.334,0.797,0.396c0.086,0.231,0.252,0.433,0.499,0.603
			c0.339,0.227,0.658,0.265,0.961,0.111c0.162-0.089,0.309-0.23,0.444-0.426c0.21-0.305,0.354-0.73,0.437-1.283
			c0.057-0.359,0.077-0.695,0.062-1.013c0.004,0.005,0.011,0.006,0.02,0.007c0.055,0.04,0.092,0.057,0.11,0.048
			c0.012-0.003,0.021-0.012,0.024-0.026c0.055-0.306,0.057-0.653,0.004-1.045c0.015-0.074,0.028-0.149,0.045-0.232
			c0.035,0.188,0.08,0.422,0.14,0.705l0.007-0.006c0.008,0.078,0.014,0.154,0.016,0.228c0.035,0.011,0.061,0.011,0.078,0.001
			c0.017-0.007,0.027-0.018,0.032-0.031c-0.013-0.164-0.034-0.324-0.062-0.476c-0.004-0.19-0.021-0.39-0.053-0.599
			c0.071,0.145,0.143,0.275,0.213,0.395c-0.096-0.188-0.176-0.379-0.24-0.57c0-0.008-0.004-0.017-0.014-0.027
			c-0.006-0.086-0.021-0.168-0.047-0.246c0.006-0.04,0.008-0.078,0.004-0.117c0.027,0.092,0.055,0.176,0.078,0.255l0.039-0.024
			c0.039,0.201,0.07,0.307,0.092,0.32c0.068,0.045,0.106,0.062,0.114,0.055l-0.019-0.006l0.039-0.026
			c-0.027-0.117-0.096-0.404-0.202-0.862c0.018,0.027,0.034,0.053,0.051,0.079c0.054,0.128,0.104,0.245,0.155,0.349
			c-0.026-0.248-0.045-0.474-0.063-0.677l0.039-0.015c-0.026-0.144-0.047-0.271-0.063-0.383c0.01,0.025,0.019,0.055,0.031,0.086
			l0.061-0.045c-0.059-0.148-0.105-0.354-0.143-0.614c-0.01-0.035-0.015-0.071-0.019-0.111c0.046,0.112,0.093,0.213,0.144,0.31
			c0.039-0.004,0.072-0.022,0.099-0.056c-0.021-0.049-0.048-0.116-0.079-0.204l0.014,0.002c0.008,0,0.016-0.008,0.02-0.021
			c-0.043-0.29-0.127-0.619-0.258-0.986c-0.053-0.15-0.107-0.298-0.166-0.439c-0.008-0.086-0.014-0.18-0.02-0.284
			c-0.027-0.196-0.057-0.384-0.086-0.567c0.021,0.014,0.046,0.029,0.07,0.047c0.064,0.04,0.111,0.063,0.142,0.068
			c0.013,0.014,0.021,0.013,0.026,0.001c-0.094-0.133-0.187-0.288-0.283-0.468c-0.076-0.426-0.155-0.846-0.238-1.26
			c0.004,0.004,0.012,0.011,0.02,0.02c0.07,0.044,0.115,0.064,0.136,0.062c0.005-0.004,0.009-0.01,0.013-0.015
			c-0.088-0.151-0.173-0.321-0.255-0.505c-0.096-0.367-0.196-0.732-0.301-1.1c0.153,0.304,0.296,0.539,0.427,0.711l0.016-0.063
			c-0.158-0.2-0.33-0.493-0.521-0.889c-0.111-0.384-0.24-0.748-0.384-1.095c0.114,0.069,0.211,0.11,0.29,0.131
			c0-0.034-0.04-0.094-0.121-0.178c-0.109-0.125-0.233-0.303-0.371-0.535c-0.038-0.066-0.098-0.182-0.182-0.349
			c0.031,0.033,0.069,0.073,0.115,0.12l0.18,0.055l0.008-0.045c-0.109-0.104-0.233-0.271-0.372-0.496
			c-0.06-0.086-0.158-0.267-0.302-0.539c0.007,0.006,0.011,0.011,0.015,0.015c0.067,0.044,0.131,0.065,0.187,0.062
			c0.026,0.002,0.047-0.005,0.061-0.018c-0.059-0.088-0.115-0.174-0.17-0.258l0.014-0.012c0.014-0.058-0.006-0.184-0.058-0.379
			c0.051,0.026,0.104,0.047,0.161,0.062c0.062,0.01,0.093,0.017,0.098,0.021l0.061-0.082c-0.107-0.05-0.199-0.188-0.271-0.416
			c-0.004-0.029-0.018-0.084-0.042-0.162c0.012-0.029,0.021-0.06,0.022-0.084c0.078,0.18,0.164,0.363,0.26,0.551
			c0.044,0.002,0.076-0.012,0.1-0.043c-0.016-0.096-0.041-0.254-0.074-0.477l0.021,0.008c0.063,0.049,0.108,0.073,0.134,0.073
			c0.009,0,0.014-0.003,0.014-0.012c-0.058-0.149-0.113-0.351-0.168-0.603c-0.062-0.33-0.102-0.539-0.117-0.627
			c0.076,0.133,0.168,0.285,0.275,0.461c0.168,0.274,0.296,0.469,0.385,0.588c-0.232-0.482-0.468-0.932-0.705-1.349
			c-0.018-0.026-0.031-0.055-0.045-0.085c-0.01-0.064-0.02-0.141-0.025-0.229c0.236,0.433,0.357,0.654,0.361,0.658
			c0.064,0.039,0.113,0.057,0.147,0.049c0,0.052-0.015,0.1-0.042,0.142c-0.044,0.06-0.034,0.114,0.029,0.163
			c0.039,0.021,0.076,0.036,0.115,0.041c0.026,0.002,0.055-0.004,0.086-0.018c0.017-0.008,0.041-0.028,0.072-0.058
			c-0.058-0.114-0.15-0.285-0.273-0.513c-0.045-0.152-0.135-0.346-0.273-0.577c0.072,0.065,0.119,0.106,0.141,0.12
			c0.056,0.039,0.097,0.056,0.121,0.048c0.014-0.003,0.035-0.024,0.066-0.063c0.005-0.056,0.001-0.119-0.016-0.188
			c0.006-0.005,0.011-0.012,0.021-0.021c0.022-0.012,0.042-0.021,0.06-0.029l0.008-0.006c-0.055-0.094-0.105-0.178-0.151-0.252
			c-0.007,0.006-0.008,0.015-0.003,0.022c-0.093-0.123-0.189-0.252-0.294-0.387c-0.067-0.105-0.144-0.216-0.228-0.33
			c-0.004-0.004-0.008-0.009-0.013-0.013c0.093,0.062,0.158,0.103,0.192,0.121c0.066,0.035,0.111,0.045,0.128,0.027l-0.004-0.07
			c-0.259-0.219-0.487-0.416-0.683-0.594c-0.009-0.044-0.017-0.08-0.031-0.111c0.104,0.099,0.188,0.183,0.256,0.254
			c-0.055-0.084-0.108-0.159-0.164-0.227c-0.043-0.043-0.083-0.086-0.121-0.125c-0.025-0.096-0.055-0.189-0.092-0.281
			c-0.223-0.5-0.619-0.832-1.187-1c-0.469-0.146-1.034-0.178-1.692-0.096c-0.539,0.066-1.064,0.199-1.575,0.398
			c-0.468,0.195-0.746,0.354-0.836,0.484c-0.026,0.043-0.05,0.079-0.067,0.114c0,0.008-0.006,0.015-0.021,0.019
			c-0.161,0.104-0.313,0.256-0.457,0.451C104.646,122.1,104.558,122.232,104.515,122.296z M113.224,136.484
			c-0.016-0.068-0.032-0.139-0.048-0.209c-0.004-0.012-0.002-0.026,0.007-0.045c0.036,0.144,0.073,0.279,0.108,0.405
			C113.271,136.587,113.248,136.537,113.224,136.484z"/>
	</g>
	<g>
		<path d="M106.199,111.335c0.051,0.056,0.108,0.138,0.17,0.245c0.008-0.012,0.013-0.021,0.019-0.028
			c0-0.006,0.009-0.017,0.027-0.036c0.051,0.06,0.116,0.151,0.196,0.272c-0.014-0.062-0.02-0.099-0.021-0.11
			c0-0.043,0.003-0.063,0.009-0.063c0.024-0.001,0.039-0.005,0.045-0.011c0.049,0.035,0.141,0.16,0.273,0.373
			c-0.008-0.031-0.016-0.065-0.029-0.102l0.035-0.057c0.062,0.049,0.184,0.193,0.366,0.436c-0.026-0.066-0.038-0.105-0.039-0.117
			c0-0.033,0.006-0.05,0.019-0.058c0.019,0,0.032-0.003,0.045-0.011c0.094,0.104,0.176,0.203,0.243,0.301
			c-0.011-0.043-0.022-0.083-0.028-0.119c0.037-0.001,0.125,0.061,0.271,0.18c0.099,0.092,0.202,0.19,0.308,0.299
			c-0.045-0.078-0.066-0.133-0.067-0.164c-0.001-0.043,0.003-0.07,0.009-0.082l0.027-0.037c0.104,0.039,0.25,0.186,0.438,0.433
			c0.067,0.085,0.149,0.185,0.243,0.3c-0.077-0.146-0.115-0.259-0.115-0.338c-0.002-0.037,0.002-0.068,0.008-0.093
			c0.004-0.013,0.014-0.034,0.025-0.063l0.037-0.002c0.021,0.178,0.082,0.375,0.184,0.594c0.049-0.049,0.151,0.017,0.307,0.197
			c-0.012-0.048-0.024-0.09-0.038-0.127c0.048,0.023,0.14,0.148,0.272,0.372c0.073,0.054,0.151,0.12,0.232,0.198
			c-0.02-0.049-0.029-0.092-0.029-0.129c0-0.042,0.006-0.061,0.018-0.055l0.01,0.019c0.087,0.028,0.162,0.117,0.225,0.263
			c0.051,0.104,0.09,0.186,0.114,0.246c0.099,0.11,0.194,0.209,0.281,0.299c0.043,0.029,0.086,0.061,0.13,0.09
			c-0.057-0.078-0.126-0.166-0.206-0.264c-0.207-0.266-0.349-0.472-0.424-0.617c0.087,0.097,0.231,0.277,0.432,0.545
			c0.013,0.012,0.116,0.147,0.31,0.408c0.051,0.029,0.095,0.059,0.131,0.09c-0.038-0.062-0.078-0.131-0.123-0.211
			c-0.014-0.023-0.025-0.041-0.038-0.055c-0.056-0.078-0.118-0.168-0.188-0.271c0.012,0.006,0.022,0.013,0.028,0.019
			c-0.063-0.103-0.121-0.181-0.179-0.235c0.113,0.065,0.244,0.219,0.394,0.461c0.026,0.03,0.054,0.069,0.085,0.118
			c0.151,0.201,0.297,0.326,0.438,0.38l-0.082,0.012c-0.08-0.043-0.151-0.092-0.215-0.154c0.008,0.007,0.011,0.016,0.012,0.027
			c0.097,0.066,0.179,0.123,0.24,0.17c0.73,0.025,1.275,0.277,1.64,0.755c0.192,0.102,0.317,0.182,0.38,0.243
			c0.18,0.148,0.273,0.371,0.277,0.666c0.002,0.164-0.008,0.303-0.03,0.414c-0.011,0.072-0.036,0.172-0.077,0.295
			c-0.023,0-0.053,0-0.083,0c0.002,0.088,0.003,0.181,0.005,0.285c0.002,0.073-0.015,0.239-0.047,0.498
			c-0.031,0.258-0.049,0.42-0.048,0.487c0.003,0.158-0.003,0.351-0.019,0.578c-0.01,0.123-0.023,0.229-0.041,0.321
			c0.115,0.342,0.176,0.564,0.178,0.669c0.003,0.184-0.139,0.434-0.42,0.752c-0.072,0.116-0.162,0.259-0.27,0.426
			c0.157,0.292,0.236,0.453,0.237,0.483c0.001,0.072-0.038,0.142-0.115,0.203c-0.019,0.008-0.034,0.016-0.046,0.029
			c0.08,0.035,0.148,0.092,0.205,0.17c0.094,0.11,0.141,0.237,0.145,0.383c0,0.088-0.01,0.174-0.033,0.26
			c-0.018,0.066-0.045,0.123-0.08,0.166c0.001,0.093-0.032,0.273-0.102,0.544c-0.098,0.381-0.227,0.735-0.388,1.062
			c-0.491,1.001-1.16,1.507-2.005,1.521c-0.988-0.058-1.502-0.087-1.545-0.084c-0.051,0-0.159,0.011-0.33,0.032
			c-0.184,0.026-0.303,0.045-0.357,0.052l-0.771,0.012c-0.285,0.213-0.623,0.323-1.016,0.33c-0.006,0-0.015,0-0.027,0
			c-0.275,0.078-0.571,0.119-0.889,0.125c-0.037,0-0.08-0.007-0.129-0.024c-0.027-0.007-0.068-0.022-0.131-0.045
			c0.002-0.019,0.006-0.046,0.018-0.082c0.012-0.027,0.019-0.045,0.019-0.057l0.093-0.001c-0.049,0.03-0.058,0.052-0.027,0.063
			c0.049,0.03,0.279,0.041,0.689,0.035c0.037,0,0.098-0.018,0.184-0.05c-0.031-0.012-0.06-0.022-0.084-0.034
			c-0.055-0.031-0.092-0.061-0.111-0.091c-0.158,0.04-0.299,0.06-0.421,0.062c-0.05,0-0.097-0.014-0.14-0.043
			c-0.03-0.017-0.052-0.039-0.064-0.062c-0.115,0.038-0.217,0.058-0.303,0.06c-0.185,0.002-0.377-0.037-0.582-0.119
			c-0.172-0.07-0.283-0.154-0.334-0.252c-0.03-0.006-0.092-0.026-0.184-0.062c-0.148-0.054-0.244-0.101-0.287-0.143l0.018-0.037
			c0.031,0.017,0.06,0.039,0.083,0.062c0.032,0.019,0.065,0.033,0.102,0.045c0.044,0.006,0.12,0.012,0.23,0.023
			c0-0.006,0-0.012,0-0.018c-0.031-0.031-0.054-0.062-0.065-0.092c-0.08-0.012-0.148-0.021-0.203-0.033
			c-0.048-0.019-0.098-0.045-0.147-0.08v-0.01c-0.037-0.004-0.064-0.014-0.083-0.025c-0.012,0-0.033-0.012-0.064-0.036
			c-0.031-0.011-0.062-0.026-0.098-0.044c-0.042,0.012-0.079,0.02-0.115,0.02c-0.074,0.002-0.135-0.006-0.184-0.022
			c-0.012-0.007-0.024-0.015-0.037-0.027c-0.018,0-0.037,0-0.055,0c-0.043,0.026-0.086,0.039-0.129,0.039
			c-0.037,0.002-0.064-0.007-0.082-0.024c-0.008-0.008-0.016-0.019-0.029-0.037c0.013-0.014,0.02-0.027,0.019-0.047l0.009-0.045
			c0.104-0.045,0.209-0.127,0.317-0.244c-0.019,0.012-0.036,0.02-0.056,0.02c-0.036,0-0.057-0.002-0.064-0.009
			c0.001-0.007,0-0.013,0-0.019h-0.009c-0.024,0-0.045-0.003-0.063-0.009c-0.031,0.013-0.06,0.029-0.082,0.047
			c-0.013,0.001-0.024-0.006-0.037-0.017c-0.006-0.008-0.016-0.018-0.027-0.036c0.012-0.019,0.021-0.041,0.033-0.063
			c-0.006,0-0.012-0.004-0.018-0.011c-0.031-0.036-0.047-0.071-0.047-0.101c-0.002-0.03,0.001-0.047,0.008-0.047
			c0.012-0.025,0.023-0.043,0.035-0.055c0.006-0.062,0.042-0.213,0.112-0.453v-0.009c-0.077,0.161-0.138,0.24-0.181,0.241
			c-0.037,0.001-0.058-0.002-0.064-0.008l-0.018-0.01h-0.01c-0.008-0.006-0.01-0.014-0.011-0.027
			c-0.055-0.004-0.089-0.025-0.103-0.062c0.013-0.031,0.023-0.066,0.035-0.11c0.006-0.024,0.012-0.062,0.018-0.11l0.02,0.01
			c0,0.062,0.008,0.094,0.02,0.101c-0.001-0.013,0.003-0.024,0.01-0.037c-0.007-0.013-0.011-0.022-0.011-0.036
			c0-0.007,0-0.021-0.001-0.046c-0.018,0-0.03-0.002-0.037-0.009c-0.006-0.006-0.012-0.014-0.02-0.026
			c-0.007-0.001-0.009-0.003-0.01-0.01c-0.011,0.006-0.025,0.01-0.045,0.01c-0.037,0.001-0.059,0.001-0.064,0.002
			c0-0.006-0.004-0.019-0.01-0.037l-0.011-0.046c0.013-0.05,0.069-0.249,0.174-0.602c-0.01-0.006-0.021-0.008-0.026-0.01
			l-0.027-0.035l-0.01-0.008c0-0.013,0-0.037-0.002-0.074c0-0.023,0.019-0.076,0.054-0.155l-0.011-0.001
			c-0.041,0.001-0.061-0.005-0.055-0.018c0-0.006,0.002-0.014,0.01-0.02c0.029-0.037,0.057-0.076,0.08-0.12
			c-0.054,0.08-0.105,0.12-0.154,0.122c-0.037,0-0.062-0.007-0.082-0.027c-0.008-0.012-0.012-0.026-0.01-0.045
			c-0.002-0.013-0.002-0.023-0.002-0.035l-0.01-0.002c-0.037,0.002-0.072-0.01-0.102-0.035c-0.03-0.028-0.047-0.065-0.047-0.108
			c-0.002-0.03,0.053-0.149,0.158-0.36l-0.008,0.002c-0.002-0.014-0.002-0.021-0.002-0.029c0-0.006-0.002-0.03-0.002-0.072
			c0-0.043,0.119-0.229,0.359-0.559c0.012-0.019,0.027-0.037,0.045-0.056l-0.027-0.026c0.018-0.032,0.031-0.065,0.043-0.103
			c-0.013-0.043-0.027-0.086-0.049-0.128c-0.094,0.155-0.166,0.232-0.215,0.232c-0.037,0-0.062-0.006-0.074-0.018
			c-0.007-0.011-0.006-0.021-0.001-0.027c0.084-0.111,0.162-0.227,0.233-0.344c-0.084-0.268-0.166-0.586-0.245-0.951
			c-0.187-0.898-0.284-1.707-0.296-2.432c-0.001-0.052-0.002-0.105-0.003-0.154c-0.027-0.141-0.042-0.272-0.044-0.395
			c-0.002-0.123,0.01-0.258,0.031-0.404c-0.027-0.148-0.043-0.297-0.045-0.449c0-0.008,0.021-0.148,0.065-0.424
			c0.051-0.265,0.126-0.4,0.224-0.408c0-0.024,0.002-0.049,0.008-0.073c0.07-0.541,0.127-0.875,0.168-1.005h0.037
			c0.008,0.214,0.018,0.397,0.027,0.551c0.016-0.123,0.037-0.26,0.064-0.405c0.086-0.418,0.187-0.644,0.303-0.676l0.009,0.026
			c0.093-0.338,0.183-0.61,0.272-0.821h0.037c0.013,0.049,0.02,0.103,0.021,0.164c0.001,0.079-0.019,0.241-0.058,0.487
			c0.02-0.024,0.033-0.045,0.046-0.063c0.041-0.106,0.091-0.235,0.151-0.39c0.099-0.239,0.176-0.455,0.227-0.646h0.037
			c-0.051,0.252-0.096,0.479-0.135,0.69c0.028-0.037,0.057-0.068,0.08-0.094c0.012-0.031,0.02-0.059,0.026-0.082
			c0.11-0.334,0.226-0.664,0.343-0.99l0.062-0.002c0.001,0.031,0.005,0.053,0.011,0.065c0.007,0.025,0.011,0.054,0.011,0.093
			c0.002,0.061-0.045,0.264-0.137,0.607c0.012-0.008,0.021-0.014,0.025-0.02c0.025-0.056,0.045-0.113,0.062-0.176
			c0.141-0.425,0.229-0.768,0.26-1.033c0.049,0.013,0.084,0.055,0.104,0.127c0.013,0.047,0.02,0.097,0.021,0.146
			c0,0.032-0.018,0.138-0.051,0.323c-0.004,0.072-0.015,0.145-0.033,0.212c0.03-0.037,0.061-0.074,0.092-0.111
			c0.08-0.313,0.175-0.661,0.285-1.043c0.012,0.013,0.034,0.062,0.066,0.146c0.012,0.039,0.021,0.07,0.029,0.102
			c0.045-0.215,0.088-0.412,0.128-0.59c0.049,0.018,0.084,0.066,0.104,0.146c0,0.023,0,0.062,0,0.117
			c-0.013,0.289-0.037,0.574-0.076,0.856c0.037,0,0.07-0.007,0.101-0.021c0.114-0.511,0.205-0.9,0.274-1.17
			c0.043,0.018,0.071,0.059,0.086,0.127c0.006,0.055,0.011,0.084,0.01,0.092c-0.004,0.074-0.012,0.15-0.023,0.229
			c0.026,0.111,0.051,0.26,0.071,0.45c0.005-0.128,0.006-0.239,0.005-0.331c-0.001-0.049-0.001-0.088-0.002-0.119
			c-0.014-0.037-0.033-0.066-0.057-0.092c0.065,0.012,0.121,0.057,0.166,0.137c0-0.049-0.002-0.093-0.002-0.13
			c-0.002-0.146,0.012-0.255,0.041-0.322c0.029-0.056,0.068-0.067,0.119-0.038c0.043,0.029,0.086,0.084,0.131,0.164
			c0.006-0.051,0.008-0.119,0.006-0.213c0.051,0.086,0.104,0.247,0.164,0.485l0.016-0.203c-0.001-0.042-0.007-0.079-0.02-0.108
			c-0.008-0.019-0.02-0.043-0.039-0.074c0.024,0.006,0.053,0.018,0.082,0.035c0.006-0.117,0.028-0.195,0.07-0.24
			c0.035-0.043,0.079-0.01,0.131,0.101C106.224,111.395,106.214,111.366,106.199,111.335z M109.758,114.227
			c0.023,0.013,0.049,0.027,0.074,0.045c-0.051-0.054-0.102-0.104-0.158-0.152C109.703,114.148,109.732,114.186,109.758,114.227z
			 M102.848,122.609c-0.014,0.024-0.027,0.047-0.045,0.064c-0.076,0.204-0.148,0.364-0.214,0.48c0.03-0.049,0.062-0.1,0.09-0.157
			c0.019-0.043,0.035-0.086,0.054-0.129C102.779,122.775,102.818,122.689,102.848,122.609z M103.271,124.973
			c-0.018,0.034-0.033,0.063-0.051,0.088c0.018-0.022,0.037-0.051,0.061-0.08C103.275,124.98,103.271,124.979,103.271,124.973z
			 M106.93,126.292c-0.078,0.056-0.188,0.116-0.326,0.181c-0.031,0.018-0.062,0.033-0.092,0.047h0.018
			c0.16-0.004,0.355-0.076,0.584-0.222C107.054,126.292,106.992,126.29,106.93,126.292z M106.398,126.29
			c0.067-0.013,0.129-0.022,0.183-0.029c-0.024-0.006-0.05-0.012-0.073-0.018C106.471,126.255,106.436,126.271,106.398,126.29z
			 M106.639,126.342c-0.109,0.025-0.232,0.039-0.367,0.041c-0.029,0.002-0.061-0.004-0.092-0.016
			c-0.074,0.031-0.148,0.056-0.229,0.076c0.011,0.006,0.021,0.009,0.027,0.01c0.062,0.029,0.154,0.05,0.276,0.061
			c0.073-0.033,0.157-0.068,0.256-0.104C106.554,126.391,106.595,126.366,106.639,126.342z"/>
	</g>
</g>
</svg>
