<?xml version="1.0" encoding="utf-8"?>
<!-- Generator: Adobe Illustrator 15.0.0, SVG Export Plug-In . SVG Version: 6.00 Build 0)  -->
<svg version="1.2" baseProfile="tiny" id="Layer_1" xmlns="http://www.w3.org/2000/svg" xmlns:xlink="http://www.w3.org/1999/xlink"
	 x="0px" y="0px" width="200px" height="200px" viewBox="0 0 200 200" overflow="inherit" xml:space="preserve">
<g>
	<g id="Layer_2_2_">
		<path id="path5_3_" fill="#010101" d="M113.614,92.961l-0.291-0.03c1.214,0.349,1.82,0.653,1.817,0.914
			c-0.001,0.185-0.011,0.228-0.028,0.128c0,0.055-0.037,0.091-0.112,0.109c-0.261-0.387-0.995-0.779-2.208-1.178
			c-0.039-0.012-0.08-0.025-0.118-0.039l-0.125-0.013l0.127,0.079c0.054,0.045,0.165,0.134,0.331,0.27
			c0.141,0.072,0.288,0.151,0.443,0.236c0.248,0.136,0.477,0.27,0.691,0.396c0.649,0.244,1.231,0.477,1.744,0.699
			c-0.021-0.006-0.481-0.162-1.382-0.473c0.175,0.115,0.336,0.224,0.479,0.33c0.142,0.053,0.283,0.109,0.43,0.167v0.083
			c-0.055-0.016-0.109-0.03-0.164-0.045c0.296,0.239,0.506,0.459,0.631,0.66l-0.029,0.166c-0.057,0.046-0.166,0.068-0.331,0.07
			c0.196,0.189,0.323,0.351,0.385,0.484l-0.058,0.25c-0.037,0-0.084,0.02-0.141,0.055l-0.082-0.014
			c0.818,0.836,1.33,1.54,1.54,2.107l-0.028,0.056c-0.004-0.006-0.008-0.012-0.011-0.02c0.043,0.095,0.083,0.188,0.118,0.282
			c0.01,0.006,0.021,0.011,0.029,0.016l-0.012,0.025c0.004,0.011,0.006,0.021,0.012,0.03c-0.006-0.007-0.012-0.014-0.017-0.021
			l-0.012,0.021c-0.271-0.12-0.54-0.249-0.808-0.386c0.23,0.166,0.473,0.341,0.723,0.525v0.082
			c-0.138-0.102-0.322-0.234-0.553-0.396v0.058c-0.107-0.064-0.215-0.133-0.321-0.203c0.147,0.199,0.282,0.395,0.409,0.585
			c0.553,0.526,1.158,0.96,1.816,1.3c-0.555-0.236-1.061-0.512-1.517-0.826c0.067,0.105,0.128,0.212,0.188,0.316l-0.029,0.166
			h-0.009c0.092,0.115,0.177,0.219,0.256,0.308c-0.107-0.097-0.215-0.199-0.326-0.308h-0.004c-0.004-0.004-0.004-0.008-0.006-0.012
			c-0.035-0.035-0.071-0.072-0.107-0.109l-0.054,0.036c-0.14-0.169-0.317-0.369-0.534-0.599c0.283,0.438,0.422,0.797,0.418,1.082
			c0.001,0.117-0.014,0.209-0.039,0.271c-0.014,0.035-0.039,0.085-0.079,0.152c0.259,0.502,0.388,0.824,0.388,0.966
			c0,0.114-0.004,0.175-0.008,0.179c0.002,0.006-0.006,0.018-0.021,0.033l-0.084-0.002c-0.143-0.338-0.391-0.829-0.742-1.471
			c-0.132-0.112-0.261-0.227-0.389-0.342c0.165,0.505,0.321,0.951,0.471,1.338c0.31,0.479,0.464,0.775,0.464,0.891
			c-0.001,0.133-0.016,0.244-0.042,0.333c-0.026,0.077-0.07,0.161-0.13,0.249l-0.083-0.001c0-0.011,0.019-0.054,0.057-0.133
			c0.037-0.081,0.057-0.175,0.059-0.283c0-0.114-0.183-0.452-0.549-1.015l-0.004,0.4l-0.038,0.011l-0.017,0.017
			c-0.002-0.004-0.002-0.008-0.002-0.012l-0.048,0.012c0.003,0.008,0.006,0.018,0.011,0.027c0.148,0.2,0.289,0.396,0.423,0.586
			l-0.056,0.055c-0.127-0.129-0.25-0.258-0.37-0.382c-0.004,0.02-0.009,0.025-0.016,0.018l-0.111,0.028
			c-0.048-0.111-0.097-0.223-0.146-0.334c-0.023-0.027-0.049-0.056-0.074-0.082c-0.05,0.104-0.119,0.188-0.209,0.256
			c0.242,0.435,0.42,0.783,0.533,1.049c-0.02,0.028-0.037,0.051-0.057,0.069l0.056,0.126l-0.112,0.027
			c-0.015-0.029-0.027-0.061-0.041-0.087c-0.042,0.014-0.092,0.022-0.15,0.026c0.084,0.174,0.148,0.295,0.189,0.365
			c0.019,0.014,0.023,0.03,0.017,0.045c-0.015,0.025-0.079,0.038-0.196,0.038c-0.234-0.003-0.463-0.126-0.682-0.372
			c-0.07-0.048-0.138-0.097-0.201-0.146c0,0.004,0.001,0.008,0.001,0.012c0.274,0.371,0.479,0.688,0.613,0.949l-0.057,0.055
			c-0.086-0.052-0.174-0.111-0.265-0.176c0.244,0.305,0.451,0.586,0.621,0.845l0.027,0.045c-0.004,0.026-0.063,0.038-0.178,0.038
			c-0.125-0.002-0.312-0.084-0.559-0.252c0.003,0.007,0.006,0.014,0.01,0.02c0.053,0.07,0.102,0.137,0.144,0.201l-0.017,0.03
			c0.049,0.089,0.1,0.175,0.148,0.259c-0.058-0.084-0.111-0.161-0.16-0.232c-0.064-0.023-0.129-0.049-0.191-0.075
			c0.096,0.145,0.182,0.272,0.262,0.38c-0.009,0.021-0.154-0.131-0.433-0.453c-0.043-0.021-0.085-0.041-0.127-0.062
			c0.017,0.028,0.035,0.06,0.058,0.095c0.036,0.062,0.074,0.123,0.112,0.181c0.258,0.235,0.521,0.454,0.787,0.659l-0.028,0.055
			c-0.224-0.09-0.438-0.189-0.64-0.299c0.03,0.07,0.046,0.119,0.045,0.146c-0.001,0.048-0.004,0.075-0.011,0.083
			c-0.016,0-0.025-0.001-0.033-0.001c-0.051-0.114-0.093-0.214-0.129-0.298c-0.023-0.012-0.048-0.026-0.072-0.039
			c0.028,0.082,0.052,0.135,0.069,0.158c-0.06-0.045-0.097-0.074-0.11-0.09c0.021,0.041,0.178,0.244,0.468,0.609l-0.228-0.186
			l0.273,0.524c-0.156-0.271-0.252-0.429-0.283-0.475c-0.02-0.024-0.082-0.091-0.188-0.196c0.072,0.124,0.109,0.196,0.108,0.219
			c0.019,0.033,0.14,0.206,0.362,0.52l-0.254-0.23l0.021,0.028c0.056,0.067,0.147,0.2,0.275,0.402
			c0.146,0.228,0.227,0.364,0.237,0.412l-0.403-0.446c0.078,0.15,0.156,0.289,0.236,0.413l-0.094-0.097
			c0.018,0.027,0.064,0.08,0.144,0.162c0.069,0.071,0.115,0.116,0.138,0.135l-0.134-0.095c-0.2-0.122-0.323-0.206-0.372-0.254
			l0.084,0.103c0.096,0.1,0.411,0.381,0.945,0.845c-0.004,0.015-0.082-0.028-0.233-0.129c-0.144-0.095-0.264-0.179-0.359-0.253
			l0.073,0.061c0.054,0.045,0.298,0.223,0.729,0.534c0.432,0.313,0.704,0.528,0.817,0.645c-0.696-0.438-1.053-0.661-1.067-0.669
			c0.166,0.124,0.331,0.273,0.496,0.449c0.082,0.084,0.149,0.157,0.205,0.217c0.053,0,0.104,0.037,0.152,0.111
			c0.043,0.023,0.102,0.088,0.174,0.197c-0.001,0.008-0.001,0.016-0.002,0.022c-0.004,0-0.01-0.001-0.016-0.001
			c0.006,0,0.011,0.002,0.017,0.004c0.111,0.027,0.338,0.316,0.683,0.863c0,0.023,0.001,0.039-0.001,0.053
			c0.577,0.158,1.091,0.646,1.545,1.463c0.391,0.703,0.782,1.742,1.171,3.12c0.215,0.761,0.57,2.189,1.069,4.286
			c0.493,2.091,0.911,3.75,1.259,4.975c0.039,0.135,0.167,0.556,0.385,1.264c0.238,0.795,0.447,1.549,0.627,2.262
			c0.559,2.236,0.832,4.114,0.822,5.633c-0.004,0.396-0.031,0.689-0.085,0.883c-0.054,0.195-0.082,0.352-0.082,0.467
			c-0.001,0.073,0.036,0.486,0.108,1.238c-0.008,1.029-0.1,3.164-0.274,6.404c-0.175,3.143-0.286,4.831-0.332,5.064
			c-0.396,1.951-0.782,3.608-1.164,4.969c-0.183,0.662-0.278,1.277-0.29,1.848c-0.086,4.084-0.593,6.945-1.519,8.583
			c-0.71,1.259-1.759,1.882-3.147,1.872c-0.338-0.002-0.807,0.131-1.409,0.4c-0.195,0.087-0.788,0.383-1.772,0.888
			c-1.688,0.861-2.994,1.289-3.92,1.282c-0.023,0-0.241-0.026-0.656-0.077c-0.414-0.051-0.714-0.077-0.899-0.079
			c-0.385-0.002-0.901,0.051-1.55,0.16c-0.648,0.111-1.242,0.164-1.779,0.16c-0.367-0.002-0.799-0.152-1.296-0.448
			c-0.499-0.288-0.975-0.67-1.426-1.144c-1.076-1.123-1.61-2.234-1.603-3.334c0.001-0.178,0.037-0.598,0.109-1.26
			c0.066-0.623,0.097-1.076,0.087-1.361c-0.01-0.221,0.038-0.52,0.146-0.893c0.106-0.385,0.159-0.6,0.16-0.645
			c0.001-0.136-0.336-1.059-1.014-2.768c-0.729-1.843-1.122-2.848-1.172-3.014c-0.231-0.776-0.438-1.575-0.616-2.399
			c-0.183-0.847-0.272-1.423-0.271-1.729c0.003-0.438,0.087-1.09,0.253-1.961c0.166-0.868,0.248-1.312,0.249-1.337
			c0.002-0.28-0.033-0.575-0.104-0.883c-0.072-0.312-0.106-0.774-0.102-1.39c0.008-1.122,0.162-2.102,0.46-2.936
			c0.395-1.104,1.077-2.139,2.05-3.103c-0.217-0.179-0.384-0.438-0.499-0.78c-0.08-0.249-0.12-0.471-0.118-0.668
			c0.001-0.229,0.071-0.533,0.207-0.915c0.105-0.306,0.222-0.577,0.351-0.813c-0.775,0.115-1.323-0.311-1.646-1.279
			c-0.094-0.285-0.183-0.671-0.265-1.157c-0.073-0.46-0.127-0.73-0.16-0.812c-0.091-0.238-0.378-0.469-0.862-0.69
			c-0.346-0.157-0.661-0.253-0.944-0.29c-0.163-0.126-0.29-0.257-0.381-0.391c-0.137-0.02-0.244-0.033-0.324-0.043
			c-0.002-0.305,0.022-0.545,0.077-0.727c0.016-0.057,0.037-0.109,0.064-0.154c-0.003-0.465-0.02-0.89-0.048-1.283
			c0.002-0.019,0.007-0.038,0.012-0.057c0.034-0.174,0.24-1.172,0.615-2.99c0.331-1.611,0.564-2.804,0.698-3.572
			c0.07-0.4,0.135-1.166,0.196-2.299c0.056-1.081,0.145-1.935,0.269-2.56c0.011-0.056,0.023-0.111,0.034-0.165
			c1.085-3.24,1.746-4.736,1.986-4.488c-0.316-0.443-0.599-0.826-0.849-1.148c-0.114-0.142-0.219-0.267-0.314-0.375
			c-0.053-0.049-0.102-0.098-0.149-0.14c-0.269-0.276-0.48-0.419-0.636-0.433c0.066,0.02,0.062,0.029-0.011,0.027
			c-0.016-0.002-0.046-0.033-0.093-0.09c-0.06-0.062-0.158-0.109-0.3-0.141l-0.001,0.217l-0.033-0.078
			c-0.026-0.044-0.046-0.075-0.06-0.095c-0.025-0.03-0.064-0.045-0.117-0.046c-0.26,0.14-0.396,0.209-0.407,0.209
			c-0.044-0.001-0.066-0.008-0.066-0.023c0.006-0.014,0.01-0.021,0.006-0.021l0.001-0.15l-0.014,0.262l-0.022-0.018
			c-0.018-0.055-0.033-0.163-0.042-0.322c-0.025,0.004-0.051,0.054-0.072,0.148c-0.008,0.037-0.013,0.068-0.013,0.102
			c0-0.023-0.001-0.041-0.005-0.051c-0.007-0.037-0.035-0.056-0.083-0.056c-0.041,0.015-0.072,0.017-0.095,0.005
			c-0.032-0.02-0.083-0.082-0.154-0.184c-0.01,0.037-0.022,0.16-0.035,0.371l-0.005-0.077c-0.033-0.095-0.062-0.157-0.087-0.19
			c-0.038-0.041-0.095-0.08-0.172-0.118l0.017,0.056l0.234,0.513c-0.007,0.022-0.022,0.03-0.044,0.028
			c-0.074-0.041-0.133-0.121-0.176-0.24c-0.033-0.115-0.048-0.178-0.049-0.184l-0.005,0.027c-0.021,0.085-0.039,0.125-0.057,0.121
			c-0.029-0.086-0.06-0.162-0.098-0.228c0,0.003,0.005,0.026,0.017,0.066c0.006,0.011-0.012,0.017-0.057,0.017
			s-0.08-0.025-0.104-0.074l-0.028-0.071l-0.056,0.116l0.188,0.307l-0.266-0.268c-0.01-0.013-0.032-0.018-0.065-0.019
			c-0.022-0.001-0.037-0.002-0.045-0.005l0.077,0.095c0.019-0.022,0.027-0.038,0.028-0.05l0.015,0.088
			c0.012,0,0.018,0.021,0.017,0.062c-0.122-0.116-0.196-0.191-0.227-0.223c-0.046-0.047-0.11-0.092-0.188-0.137l0.07,0.317
			c-0.086-0.034-0.144-0.04-0.177-0.019c-0.008,0.034-0.016,0.051-0.023,0.051c-0.012,0-0.062-0.031-0.154-0.091
			c-0.111-0.071-0.218-0.151-0.321-0.24c0.095,0.22,0.145,0.367,0.152,0.444c-0.007,0.012-0.014,0.018-0.022,0.018l-0.011-0.006
			c-0.017-0.026-0.055-0.096-0.109-0.207c-0.047-0.1-0.077-0.166-0.087-0.2l-0.012,0.128c0.001,0.103-0.016,0.166-0.045,0.188
			c-0.011-0.015-0.037-0.067-0.077-0.155c-0.036-0.087-0.089-0.166-0.16-0.24c-0.003,0.076-0.024,0.137-0.062,0.177
			c-0.079-0.124-0.165-0.209-0.253-0.258c-0.073-0.04-0.174-0.066-0.305-0.074c-0.003,0.063-0.015,0.1-0.034,0.112
			c-0.047-0.123-0.25-0.252-0.609-0.383c-0.383-0.137-0.64-0.306-0.768-0.506c-0.325-0.488-0.564-1.015-0.71-1.583
			c-0.1-0.39-0.144-0.694-0.132-0.911c0.009-0.121,0.04-0.207,0.096-0.262c0.057-0.06,0.086-0.09,0.09-0.094
			c-0.029-0.056-0.055-0.111-0.077-0.167c-0.051-0.112-0.075-0.195-0.07-0.251c0.012-0.207,0.051-0.359,0.114-0.454
			c0.042-0.062,0.13-0.141,0.262-0.231c0.369-0.249,0.708-0.64,1.015-1.17l-0.067-0.629l0.001-0.04
			c0.595-0.657,1.087-1.203,1.472-1.634c0.377-0.434,0.622-0.743,0.735-0.928c0.021-0.035,0.077-0.071,0.161-0.104
			c0.045-0.229,0.028-0.592-0.053-1.089c-0.085-0.501,0.001-0.967,0.26-1.398c0.251-0.435,0.848-0.938,1.79-1.511
			c0.937-0.569,2.238-1.168,3.9-1.792c0.078-0.029,0.158-0.058,0.24-0.089c1.372-0.344,2.759-0.628,4.16-0.852
			c0.666-0.106,1.26-0.187,1.78-0.242c0.679-0.066,1.362,0.113,2.052,0.536c0.135,0.047,0.26,0.095,0.375,0.145
			c0.071,0.032,0.142,0.065,0.207,0.099c0.141,0.031,0.28,0.062,0.421,0.093l-0.007,0.062c-0.073-0.016-0.143-0.03-0.21-0.041
			c0.007,0.008,0.019,0.015,0.034,0.021c0.055,0.01,0.113,0.02,0.178,0.035c0.019,0.107,0.037,0.213,0.059,0.317l0.002-0.319
			c0.197,0.043,0.43,0.124,0.695,0.242c0.027,0.009,0.055,0.021,0.082,0.03l0.121,0.009c-0.199-0.08-0.366-0.149-0.506-0.206
			c-0.137-0.034-0.268-0.063-0.393-0.089V92.43c0.016,0.005,0.031,0.008,0.047,0.012c-0.015-0.006-0.03-0.012-0.047-0.018
			l0.001-0.088C111.983,92.535,112.756,92.744,113.614,92.961z M113.386,95.254c-0.016-0.009-0.029-0.011-0.041-0.007
			c-0.004,0.003-0.008,0.004-0.012,0.006c-0.01,0.005-0.012,0.018-0.006,0.033c0.012-0.007,0.023-0.013,0.031-0.019l0.086,0.048
			c-0.029-0.018-0.057-0.033-0.084-0.048c0.004-0.002,0.007-0.004,0.01-0.006C113.376,95.258,113.381,95.256,113.386,95.254z
			 M115.003,95.043c0.14,0.112,0.265,0.216,0.375,0.313c0.022-0.017,0.042-0.034,0.059-0.05c-0.109-0.094-0.238-0.195-0.391-0.305
			C115.031,95.021,115.017,95.035,115.003,95.043z M114.911,94.906c-0.149-0.102-0.314-0.209-0.498-0.322v0.024
			c0.176,0.12,0.343,0.244,0.505,0.37C114.914,94.958,114.912,94.934,114.911,94.906z M114.181,94.44
			c-0.057-0.035-0.116-0.071-0.176-0.106c0.045,0.028,0.088,0.057,0.132,0.086C114.153,94.427,114.167,94.434,114.181,94.44z
			 M110.237,92.097l0.189-0.015c0.188,0.061,0.4,0.127,0.637,0.199c0.06,0.019,0.119,0.038,0.182,0.058l-0.006,0.089
			c-0.21-0.084-0.443-0.166-0.7-0.247c-0.044-0.015-0.089-0.028-0.135-0.044L110.237,92.097z M115.37,96.826
			c0.261,0.324,0.554,0.699,0.881,1.126l-0.017,0.094c0.38,0.259,0.698,0.463,0.952,0.613c-0.312-0.384-0.772-0.945-1.385-1.683
			c-0.131-0.156-0.257-0.305-0.375-0.447c-0.082-0.076-0.166-0.154-0.253-0.234c0.131,0.209,0.197,0.365,0.197,0.467
			C115.37,96.786,115.37,96.808,115.37,96.826z M115.573,97.445c-0.126-0.126-0.25-0.246-0.369-0.361H115.2l-0.001-0.006
			c-0.017-0.015-0.032-0.03-0.048-0.045c0.047,0.052,0.09,0.104,0.135,0.156C115.388,97.277,115.483,97.363,115.573,97.445z
			 M115.191,97.699c0.022,0.025,0.046,0.051,0.071,0.073c-0.025-0.036-0.051-0.073-0.076-0.112c-0.027-0.016-0.056-0.031-0.08-0.05
			C115.133,97.641,115.162,97.67,115.191,97.699L115.191,97.699z M116.808,99.559c0.021,0.025,0.039,0.051,0.057,0.076
			c0.016,0.014,0.028,0.028,0.043,0.041c-0.078-0.139-0.167-0.284-0.268-0.438c-0.057-0.045-0.115-0.092-0.17-0.141
			c0.035,0.052,0.072,0.1,0.106,0.148C116.665,99.359,116.743,99.463,116.808,99.559z M115.581,98.684
			c0.072,0.145,0.135,0.289,0.188,0.432l-0.031,0.044c0.356,0.601,0.642,1.101,0.854,1.501c0.003-0.552-0.313-1.191-0.953-1.918
			C115.62,98.723,115.601,98.703,115.581,98.684L115.581,98.684z M115.266,101.115c-0.028-0.068-0.06-0.141-0.093-0.215
			c0.019,0.059,0.037,0.112,0.055,0.167C115.239,101.083,115.252,101.098,115.266,101.115z M108.187,91.46
			c0.045,0.011,0.045,0.043-0.001,0.101L108.187,91.46z M115.876,101.796c0.021,0.058,0.045,0.114,0.068,0.17
			c-0.002-0.056-0.01-0.122-0.024-0.2h-0.034c-0.001,0.002-0.002,0.004-0.002,0.006
			C115.881,101.779,115.877,101.788,115.876,101.796z M115.423,101.693c0.02,0.068,0.037,0.123,0.049,0.164
			c-0.001-0.004,0-0.008,0-0.012c0-0.031-0.004-0.068-0.012-0.109C115.448,101.723,115.436,101.708,115.423,101.693z
			 M115.378,102.11l0.003-0.003c0.02-0.022,0.037-0.047,0.051-0.076c-0.03-0.134-0.075-0.294-0.138-0.479
			c-0.053-0.056-0.104-0.111-0.155-0.166c0.007,0.068,0.009,0.139,0.007,0.21l0.197,0.448
			C115.354,102.068,115.365,102.09,115.378,102.11z M114.57,104.967c-0.005-0.006-0.011-0.014-0.017-0.021
			c0.004,0.005,0.008,0.01,0.009,0.014C114.564,104.963,114.568,104.965,114.57,104.967z M114.743,106.369
			c-0.002,0.051,0.066,0.17,0.209,0.357l-0.107-0.219L114.743,106.369z M115.078,106.988c-0.031-0.066-0.114-0.17-0.242-0.308
			l-0.012,0.105C114.824,106.797,114.908,106.865,115.078,106.988z M96.116,108.061l-0.11-0.123c0.033,0.07,0.061,0.133,0.088,0.184
			C96.101,108.133,96.108,108.113,96.116,108.061L96.116,108.061z M96.499,108.08c0.017-0.022,0.019-0.037,0.012-0.045
			c-0.023-0.014-0.052-0.029-0.09-0.044l0.078,0.1C96.499,108.088,96.499,108.084,96.499,108.08z M117.517,99.322
			c-0.033-0.178-0.1-0.368-0.197-0.568c0.141,0.212,0.244,0.393,0.309,0.543L117.517,99.322z M117.644,110.018
			c-0.002-0.003-0.004-0.006-0.004-0.012l-0.016,0.006C117.628,110.014,117.637,110.016,117.644,110.018z"/>
	</g>
	<g id="Layer_4_3_">
		<path id="path8_3_" fill="#010101" d="M101.43,111.338c0.035-0.025,0.192-0.064,0.474-0.118c0.123-0.04,0.249-0.088,0.379-0.142
			c0.509-1.219,1.857-2.281,4.045-3.188c2.192-0.902,3.621-1.24,4.285-1.014c0.67,0.221,1.271,0.467,1.806,0.742
			c0.544,0.267,1.305,1.041,2.284,2.321c0.361,0.478,0.594,0.96,0.693,1.45c0.086,0.463,0.072,1.008-0.038,1.633
			c-0.097,0.487-0.3,1.199-0.61,2.134c-0.406,1.216-0.732,2.212-0.983,2.987c-0.456,1.46-0.554,2.801-0.296,4.021
			c0.094,0.394,0.252,0.89,0.473,1.493c0.258,0.713,0.422,1.203,0.494,1.475c0.264,0.958,0.324,2.352,0.182,4.185
			c-0.03,0.529-0.086,1.07-0.168,1.622c0.068,0.334,0.155,0.771,0.263,1.312c-0.037-0.023-0.132-0.106-0.286-0.253
			c-0.037-0.036-0.073-0.069-0.105-0.101c-0.012,0.055-0.021,0.109-0.024,0.162c0.213,0.742,0.354,1.398,0.426,1.969l-0.084,0.077
			c-0.175-0.526-0.325-0.983-0.452-1.37c-0.041,0.229-0.086,0.469-0.133,0.717c0.129,0.67,0.205,1.11,0.229,1.318
			c-0.001,0.029-0.003,0.043-0.013,0.043c-0.01,0.016-0.05-0.02-0.114-0.105c-0.022-0.029-0.079-0.29-0.173-0.779
			c-0.033,0.145-0.063,0.285-0.086,0.422c0.061,0.367,0.123,0.703,0.188,1.007l-0.072,0.05l-0.105-0.112
			c-0.047-0.146-0.087-0.288-0.119-0.429c-0.031,0.125-0.059,0.248-0.086,0.366c0.121,0.63,0.197,1.063,0.229,1.295l-0.061,0.056
			l-0.105-0.072c-0.043-0.176-0.094-0.35-0.152-0.523c0.014,0.422,0.008,0.833-0.014,1.232c0.091,0.212,0.18,0.408,0.268,0.586
			l-0.006,0.066c-0.029,0.004-0.051,0.002-0.061-0.006c-0.019-0.008-0.062-0.06-0.127-0.156c-0.025-0.041-0.057-0.09-0.088-0.145
			c-0.037,0.568-0.09,1.125-0.156,1.665c-0.279,2.198-0.873,3.901-1.783,5.114c-0.275,0.391-0.584,0.607-0.926,0.648
			c-0.383,0.746-0.821,1.447-1.315,2.107c-0.217,0.258-0.396,0.488-0.532,0.69c-0.128,0.169-0.241,0.329-0.338,0.476
			c-0.059-0.016-0.147-0.031-0.266-0.047c-0.295,0.092-0.586,0.131-0.873,0.119l-0.036-0.063l0.036,0.065
			c-0.628,0.479-1.972,0.223-4.033-0.768c-1.016-0.834-1.733-1.342-2.149-1.526c-2.241-1.065-3.847-1.851-4.816-2.358l-0.04,0.023
			c-0.54-0.148-0.964-0.217-1.276-0.205l0.012-0.111c0.311,0.037,0.621,0.067,0.932,0.091c-0.288-0.169-0.493-0.292-0.619-0.37
			c-0.118-0.098-0.24-0.188-0.364-0.271c-0.687-0.249-1.27-0.37-1.748-0.362l0.028-0.111l0.539-0.001
			c0.193,0.067,0.479,0.136,0.861,0.206c-0.047-0.038-0.101-0.07-0.155-0.102c-0.65-0.119-1.148-0.182-1.493-0.189l0.001-0.104
			c0.055-0.011,0.174-0.018,0.355-0.021c0.034-0.008,0.344,0.042,0.931,0.146c-0.13-0.105-0.27-0.215-0.414-0.33
			c-0.766-0.106-1.508-0.193-2.226-0.262l0.051-0.055h1.477l-0.038-0.045c-0.477-0.044-0.978-0.062-1.499-0.056l0.027-0.104
			c0.522-0.004,0.915-0.014,1.18-0.031c0.106,0.008,0.203,0.003,0.288-0.014c-0.004-0.008-0.009-0.012-0.017-0.012
			c-0.078-0.016-0.161-0.033-0.25-0.052c-0.74-0.054-1.292-0.087-1.655-0.101l0.001-0.084l1.24-0.086
			c-0.233-0.042-0.506-0.083-0.822-0.121c-0.181-0.021-0.428-0.043-0.744-0.067l0.039-0.044c0.43-0.03,0.872-0.088,1.324-0.174
			c-0.034-0.041-0.079-0.072-0.139-0.096c-0.129-0.012-0.289-0.033-0.482-0.064c-0.4-0.047-0.715-0.08-0.949-0.096l0.006-0.062
			c0.208-0.042,0.389-0.064,0.544-0.066l-0.065-0.023c-0.244,0.016-0.582,0.002-1.011-0.041l0.027-0.105
			c0.16,0.002,0.242-0.006,0.245-0.02c-0.214-0.039-0.323-0.103-0.327-0.191l0.818-0.111c0.078-0.007,0.159-0.015,0.245-0.025
			c-0.081-0.071-0.161-0.143-0.237-0.213c-0.009-0.004-0.019-0.006-0.034-0.006c-0.374-0.014-0.663-0.033-0.867-0.057l0.029-0.105
			l0.528-0.102l-0.005-0.006c-0.304-0.08-0.769-0.145-1.394-0.192l-0.01-0.072c0.096-0.044,0.343-0.091,0.74-0.14
			c0.056-0.011,0.102-0.029,0.139-0.055c-0.066-0.055-0.142-0.129-0.226-0.219l-0.323,0.016c-0.155,0.035-0.362,0.053-0.622,0.056
			l-0.033-0.155c0.253-0.047,0.439-0.078,0.557-0.097c0.057-0.021,0.106-0.038,0.151-0.049c-0.03-0.03-0.063-0.054-0.1-0.072
			c-0.215,0.038-0.339,0.056-0.372,0.052c-0.268,0.01-0.482-0.076-0.643-0.26c-0.011-0.011-0.021-0.021-0.027-0.033
			c0.01-0.004,0.022-0.008,0.033-0.012c0.078-0.04,0.214-0.1,0.406-0.18c0.021-0.021,0.049-0.039,0.079-0.049
			c-0.047-0.038-0.09-0.076-0.126-0.113c-0.086,0.015-0.188,0.028-0.307,0.043c-0.036,0.008-0.075,0.012-0.116,0.016
			c-0.419,0.06-0.688,0.098-0.807,0.111c-0.038-0.338,0.169-0.567,0.623-0.689c-0.044-0.053-0.094-0.1-0.149-0.141
			c-0.533,0.133-0.818,0.19-0.851,0.172l-0.01-0.067c0.097-0.065,0.288-0.164,0.575-0.296c0.017-0.008,0.034-0.016,0.048-0.026
			c-0.062-0.05-0.119-0.103-0.17-0.157c-0.048,0.018-0.1,0.037-0.156,0.06c-0.158,0.058-0.231-0.073-0.219-0.394
			c0.068,0.107,0.12,0.152,0.155,0.131c-0.037-0.029-0.073-0.062-0.11-0.1c-0.014-0.012-0.029-0.022-0.044-0.033l-0.003-0.004
			l0.01-1.014c-0.05-0.029-0.098-0.059-0.144-0.086c-0.052-0.033-0.102-0.064-0.149-0.094c-0.8-0.499-1.016-0.688-0.649-0.566
			c-0.023-0.016-0.048-0.035-0.074-0.056c0.06-0.077,0.174-0.184,0.341-0.319c-0.08-0.079-0.161-0.157-0.241-0.235
			c-0.298,0.142-0.467,0.219-0.507,0.229l-0.102-0.028c-0.003-0.019,0.015-0.052,0.052-0.1c0.041-0.032,0.051-0.059,0.027-0.077
			c-0.1,0.021-0.162,0.035-0.188,0.042c-0.071-0.001-0.13-0.021-0.178-0.062c0.071-0.084,0.226-0.194,0.469-0.33
			c0.016-0.004,0.029-0.013,0.045-0.027c-0.023-0.029-0.051-0.056-0.088-0.079c-0.061,0.03-0.122,0.063-0.185,0.104
			c-0.268,0.135-0.443,0.219-0.524,0.246c-0.011-0.007-0.021-0.015-0.028-0.022l0.058-0.288c0.03-0.021,0.065-0.04,0.106-0.055
			l0.302-0.099c0.025-0.011,0.055-0.028,0.088-0.055c-0.071-0.062-0.136-0.124-0.199-0.185c-0.134,0.188-0.231,0.301-0.291,0.338
			l0.11-0.633c-0.026-0.029-0.051-0.079-0.077-0.145c0.042-0.045,0.081-0.08,0.118-0.106l0.011-0.049
			c-0.008-0.001-0.015-0.001-0.022,0c-0.071,0.011-0.095-0.013-0.073-0.067c0.042-0.062,0.031-0.094-0.032-0.096
			c-0.023,0.008-0.071,0.047-0.145,0.116c-0.071,0.058-0.114,0.089-0.129,0.093c-0.071,0.004-0.106-0.008-0.105-0.033
			c0-0.004,0.005-0.01,0.016-0.017c0.001-0.13,0.031-0.222,0.086-0.277c0.083-0.073,0.136-0.133,0.158-0.177
			c0-0.089,0.004-0.176,0.012-0.26c-0.047,0.047-0.121,0.115-0.216,0.203l-0.201-0.053c-0.002-0.032-0.008-0.092-0.016-0.177
			c-0.159,0.019-0.332-0.009-0.517-0.081c-0.058-0.023-0.13-0.054-0.215-0.092l0.002-0.11c-0.074-0.005-0.155-0.007-0.241-0.007
			c0.012,0.415-0.017,0.725-0.089,0.932c-0.159,0.488-0.57,0.92-1.232,1.297c0.109,0.234,0.282,0.695,0.518,1.383
			c0.024,0.311,0.032,0.492,0.025,0.543c-0.04,0.264-0.188,0.402-0.443,0.42c-0.329,0.02-0.604-0.146-0.824-0.501
			c-0.005,0.171-0.008,0.395-0.01,0.673c-0.017,0.385-0.103,0.68-0.256,0.887c-0.224,0.32-0.562,0.722-1.015,1.204
			c-0.172,0.185-0.49,0.481-0.957,0.894c0.187,0.342,0.217,0.611,0.09,0.811c-0.083,0.117-0.222,0.315-0.416,0.592
			c0.148,0.067,0.48,0.264,0.996,0.59c0.708,0.402,1.223,0.794,1.546,1.178c0.163,0.143,0.328,0.224,0.499,0.242
			c0.096,0.061,0.183,0.115,0.26,0.164c0.042-0.022,0.094-0.04,0.156-0.055c0.498-0.129,0.929-0.154,1.295-0.074
			c0.395,0.089,0.604,0.287,0.623,0.6c0.007,0.096-0.132,0.313-0.416,0.652c-0.146,0.176-0.296,0.346-0.454,0.508
			c0.062,0.078,0.312,0.173,0.748,0.283c0.433,0.106,0.539,0.295,0.318,0.562c-0.224,0.273-0.394,0.432-0.509,0.475
			c-0.119,0.041-0.265,0.063-0.439,0.068c-0.076,0.008-0.152,0.01-0.233,0.004c0.04,0.049,0.082,0.091,0.126,0.123
			c0.003,0.016,0.009,0.029,0.017,0.04c0.024,0.116,0.012,0.221-0.037,0.317c-0.048,0.117-0.278,0.174-0.689,0.166
			c-0.492-0.015-0.992-0.156-1.498-0.426c-0.032-0.023-0.062-0.049-0.088-0.074c-0.463-0.358-0.947-0.727-1.453-1.099
			c-1.086-0.827-1.946-1.409-2.581-1.747c-0.652-0.354-1.166-0.832-1.539-1.439c-0.327-0.51-0.44-0.87-0.342-1.08
			c0.154-0.34,0.422-0.84,0.801-1.5c0.096-0.066,0.305-0.356,0.627-0.873c0.386-0.619,0.648-1.102,0.789-1.449
			c0.236-0.551,0.336-1.105,0.296-1.666c-0.034-0.496,0.027-1.356,0.18-2.582c0.027-0.162,0.055-0.318,0.086-0.471
			c0.232-0.917,0.543-1.557,0.931-1.921c0.153-0.14,0.244-0.255,0.275-0.349c0.163-0.153,0.342-0.354,0.537-0.6
			c0.195-0.248,0.465-0.615,0.814-1.105c0.348-0.487,0.754-0.977,1.222-1.469c0.471-0.498,1.146-0.736,2.027-0.719
			c0.17-0.006,0.334,0.004,0.489,0.031c0.495,0.093,1.387,0.482,2.674,1.17v0.088c0.138,0.074,0.28,0.151,0.426,0.23
			c1.957,1.086,3.203,1.719,3.735,1.9c0.063,0.023,0.806,0.291,2.227,0.805c1.481,0.6,2.474,1.135,2.979,1.605
			c0.327,0.229,0.707,0.503,1.137,0.824c0.659,0.49,1.445,1.078,2.36,1.762c0.182,0.142,0.362,0.279,0.536,0.415
			c-0.033-0.157-0.064-0.318-0.091-0.483c-0.299-1.74-0.324-3.709-0.079-5.908c0.12-1.16,0.291-2.193,0.517-3.1
			c0.1-0.414,0.21-0.801,0.331-1.159c0.038-0.222,0.09-0.458,0.155-0.71c0.297-1.176,0.521-2.068,0.668-2.678
			c0.146-0.581,0.259-1.117,0.341-1.609c-0.031,0.082-0.066,0.166-0.107,0.255c0.007,0.045,0.002,0.084-0.013,0.117
			c-0.026,0.048-0.074,0.026-0.144-0.062c-0.041-0.063,0.064-0.495,0.314-1.298c-0.104,0.232-0.186,0.41-0.242,0.531l-0.061-0.045
			c0.15-0.487,0.303-0.936,0.454-1.348c-0.091,0.205-0.176,0.378-0.255,0.521l-0.094-0.018c0.069-0.311,0.184-0.688,0.343-1.131
			c-0.005-0.025-0.005-0.054-0.006-0.084c-0.393,0.983-0.601,1.519-0.628,1.607c-0.084-0.179-0.08-0.475,0.011-0.889
			c-0.048,0.096-0.094,0.18-0.134,0.249c-0.128-0.253,0-0.861,0.385-1.825c-0.061,0.111-0.116,0.186-0.168,0.227
			c0.009-0.152,0.053-0.373,0.133-0.666c-0.021-0.06-0.04-0.109-0.054-0.15c-0.275,0.658-0.46,1.109-0.555,1.357
			c-0.091-0.322,0.04-0.953,0.391-1.891c-0.014-0.06-0.031-0.121-0.048-0.185c-0.087,0.229-0.163,0.421-0.227,0.576l-0.09,0.011
			c0.092-0.34,0.184-0.642,0.274-0.904c-0.018-0.155-0.03-0.311-0.036-0.465c-0.139,0.248-0.233,0.422-0.281,0.513l-0.066-0.006
			c0.102-0.358,0.207-0.671,0.312-0.937c-0.119,0.117-0.233,0.215-0.34,0.292c-0.086,0.066-0.183,0.13-0.286,0.192l-0.117,0.056
			c0.232-0.406,0.486-0.822,0.766-1.251c0.007-0.036,0.011-0.077,0.011-0.121c-0.201,0.143-0.356,0.248-0.469,0.318
			c-0.007-0.02-0.064-0.008-0.171,0.031c0.026-0.1,0.175-0.271,0.446-0.52c-0.181,0.118-0.368,0.238-0.558,0.357l-0.25,0.016
			l0.067-0.089l0.873-0.671c-0.227,0.079-0.482,0.152-0.764,0.217c0.093-0.107,0.325-0.267,0.698-0.479
			c0.141-0.083,0.266-0.163,0.374-0.235c0.005-0.03,0.012-0.061,0.022-0.094c-0.037,0.006-0.072,0.014-0.105,0.021
			c-0.35,0.098-0.574,0.149-0.673,0.155L101.43,111.338L101.43,111.338z M85.428,133.037c0-0.003-0.004-0.014-0.011-0.027
			c-0.023,0.041-0.037,0.083-0.045,0.128C85.38,133.1,85.399,133.066,85.428,133.037z M114.464,131.85
			c-0.025-0.166-0.05-0.326-0.074-0.479c-0.016,0.127-0.031,0.252-0.048,0.379C114.387,131.771,114.427,131.805,114.464,131.85z
			 M86.669,134.196l0.107,0.477c0.004,0,0.009-0.001,0.011-0.001C86.756,134.539,86.715,134.38,86.669,134.196z M86.625,134.668
			c0.01,0.007,0.02,0.012,0.03,0.019l-0.005-0.022c0.003,0.007,0.006,0.014,0.008,0.021c0.031-0.005,0.062-0.008,0.098-0.011
			c0.021-0.062-0.001-0.087-0.067-0.077c-0.007,0.007-0.02,0.029-0.039,0.066C86.642,134.667,86.634,134.668,86.625,134.668
			L86.625,134.668z M87.013,134.504c-0.038,0.03-0.066,0.051-0.084,0.067l0.022-0.006c0.03-0.011,0.058-0.022,0.083-0.032
			C87.03,134.524,87.022,134.516,87.013,134.504z M87.134,134.684c0.022,0.002,0.043,0.004,0.065,0.006
			c-0.007-0.008-0.016-0.014-0.022-0.021C87.163,134.674,87.149,134.679,87.134,134.684z M92.554,140.861
			c-0.025-0.025-0.061-0.054-0.105-0.084c-0.089,0.018-0.162,0.043-0.217,0.071C92.316,140.849,92.425,140.854,92.554,140.861z
			 M81.708,142.438c0.005,0.008,0.016,0.012,0.035,0.012c-0.115-0.093-0.125-0.101-0.034-0.021
			C81.709,142.431,81.709,142.435,81.708,142.438z"/>
	</g>
	<g id="Layer_6_2_">
		<path id="path11_2_" fill="#010101" d="M121.866,160.364c-0.007,1.114-0.23,2.276-0.67,3.484
			c-0.445,1.229-1.062,2.364-1.852,3.402c-0.838,1.104-1.793,1.991-2.865,2.657c-1.176,0.732-2.416,1.153-3.719,1.262
			c-0.026-0.033-0.043-0.095-0.049-0.184c0.119,0.004,0.188-0.008,0.205-0.038c-0.135,0.012-0.33,0.026-0.584,0.047
			c-0.489,0.041-0.799,0.067-0.928,0.083c0.095,0.215,0.213,0.949,0.356,2.201c0.136,1.172,0.202,1.922,0.199,2.252
			c-0.007,0.896-0.212,1.578-0.62,2.046c-0.361,0.415-0.926,0.704-1.689,0.864c-0.547,0.111-1.396,0.186-2.551,0.221
			c-1.594,0.052-2.658,0.1-3.196,0.144l-3.334-0.257l-0.252,0.025c-0.075,0.202-0.188,0.365-0.337,0.486
			c-0.141,0.113-0.317,0.189-0.529,0.229c-0.578,0.104-1.277,0.062-2.098-0.121c-0.826-0.179-1.358-0.248-1.599-0.205
			c-0.072,0.014-0.582,0.168-1.531,0.461c-0.854,0.26-1.529,0.411-2.026,0.452c0.006,0.317-0.082,0.62-0.262,0.903
			c-0.165,0.265-0.34,0.414-0.526,0.445c-0.248,0.047-0.45,0.025-0.605-0.064c-0.121-0.072-0.217-0.193-0.286-0.363
			c-0.08-0.205-0.084-0.473-0.01-0.806c0.106-0.487,0.382-0.937,0.826-1.345c-0.245-0.02-0.402-0.023-0.472-0.008
			c-0.127,0.02-0.362,0.23-0.705,0.627c-0.168,0.199-0.327,0.395-0.478,0.586c-0.325-0.043-0.51-0.062-0.554-0.055
			c-0.038,0.008-0.101,0.047-0.19,0.116c-0.1,0.062-0.167,0.097-0.201,0.104c-0.211,0.039-0.411,0.018-0.599-0.066
			c-0.192-0.076-0.317-0.188-0.376-0.336c-0.099-0.241-0.072-0.539,0.079-0.895c0.163-0.38,0.443-0.754,0.842-1.121
			c1.002-0.911,2.426-1.535,4.269-1.867c0.068-0.012,0.331-0.02,0.789-0.023l-0.038-0.066c-0.014-0.023-0.022-0.045-0.021-0.067
			c-0.007-0.045,0.008-0.07,0.05-0.077c0.015-0.004,0.152-0.001,0.411,0.008c0.285,0.01,0.479,0.012,0.582,0.005l0.017-0.005
			c-0.048-0.039-0.09-0.074-0.126-0.107c-0.078-0.062-0.123-0.115-0.138-0.156c0.013-0.137,0.013-0.263,0.003-0.379l2.218,0.518
			c0.03-0.092,0.044-0.165,0.04-0.217c0.001-0.049,0.017-0.107,0.046-0.178c0.41,0.151,0.648,0.221,0.715,0.206
			c0.071-0.011,0.215-0.046,0.434-0.103c-0.076-0.111-0.145-0.203-0.203-0.275l-0.04-0.031c0.229,0.068,0.444,0.123,0.639,0.171
			c0.27,0.063,0.509,0.11,0.721,0.138c0.007,0,0.017,0.002,0.028,0.006c0.144,0.016,0.288,0.03,0.433,0.043
			c0.147,0.008,0.298,0.013,0.45,0.014l0.027,0.066c0.268,0.029,0.544,0.044,0.828,0.046c0.551,0.004,0.943-0.192,1.175-0.586
			c0.188-0.321,0.284-0.81,0.288-1.465l-0.006-0.545c-0.011-0.001-0.031,0.01-0.057,0.028c-0.041,0.028-0.064,0.046-0.071,0.049
			c-0.054-0.037-0.077-0.104-0.077-0.2c0.053-0.141,0.107-0.29,0.164-0.448c0.106-0.322,0.159-0.548,0.16-0.678
			c0.001-0.029-0.044-0.089-0.132-0.178c-0.11-0.113-0.192-0.244-0.246-0.396c-0.016,0.078-0.024,0.12-0.022,0.127
			c-0.01,0.022-0.021,0.035-0.035,0.039c-0.085-0.057-0.196-0.199-0.336-0.43c-0.128-0.228-0.197-0.352-0.208-0.368
			c-0.017,0.1-0.025,0.195-0.029,0.288c-0.008,0-0.035,0.045-0.085,0.139l-1.41-2.355l-0.067-0.094
			c0.048,0.199,0.076,0.358,0.086,0.478l0,0.038c-0.322-0.318-0.598-0.635-0.828-0.949c-0.051-0.072-0.102-0.143-0.148-0.213
			c-0.109-0.162-0.231-0.361-0.368-0.598c-0.399-0.694-0.913-1.709-1.54-3.044c-0.066,0.067-0.141,0.125-0.222,0.176
			c-0.576-1.271-1.3-2.909-2.17-4.915c-1.024-2.359-1.792-4.119-2.306-5.278c-0.273-0.612-0.732-1.364-1.379-2.253
			c-0.417-0.582-0.624-1.14-0.62-1.673c0.045-0.091,0.089-0.187,0.129-0.282c0.087-0.191,0.132-0.355,0.132-0.488
			c0.001-0.24-0.04-0.471-0.123-0.695c-0.113-0.256-0.202-0.459-0.268-0.607c-0.266-0.594-0.396-1.338-0.389-2.23
			c0.001-0.166,0.056-0.572,0.163-1.221c0.107-0.651,0.158-1.053,0.159-1.205c0.007-0.896,0.646-1.709,1.918-2.44
			c1.165-0.666,2.292-0.995,3.385-0.987c0.078,0.001,0.211,0.029,0.399,0.087c0.192,0.058,0.303,0.085,0.333,0.087l1.9-0.271
			c1.315,0.012,2.768,0.764,4.355,2.26c0.892,0.84,2.474,2.647,4.75,5.424c0.999,1.215,2.266,2.621,3.803,4.216
			c1.414,1.478,2.602,2.644,3.557,3.499c1.252,1.119,2.438,1.932,3.56,2.438c0.661,0.294,1.415,0.512,2.263,0.654
			c0.633,0.109,1.025,0.252,1.18,0.426C121.762,158.885,121.873,159.465,121.866,160.364z M98.705,166.69
			c0.004-0.034-0.002-0.077-0.016-0.134c-0.029-0.101-0.11-0.251-0.246-0.451L98.705,166.69z M94.144,175.673l-0.349-0.041
			l0.077,0.022C93.938,175.67,94.03,175.676,94.144,175.673z M96.997,175.311l0.105-0.01l-0.321-0.113L96.997,175.311z
			 M97.877,174.939l0.044,0.094l0.06,0.029l0.107-0.017l0.093,0.001C98.086,175.021,97.984,174.984,97.877,174.939z M94.61,175.132
			l-0.011,0.005l-0.013,0.052c0.044,0.029,0.112,0.116,0.204,0.263c0.136,0.118,0.37,0.146,0.701,0.081
			c-0.2-0.104-0.355-0.184-0.466-0.235C94.822,175.191,94.684,175.136,94.61,175.132z M99.689,168.014
			c-0.007-0.033-0.03-0.104-0.071-0.211c-0.042-0.115-0.077-0.197-0.104-0.246L99.689,168.014L99.689,168.014z M101.186,169.986
			c-0.095-0.301-0.323-0.677-0.686-1.128l0.81,1.551C101.274,170.275,101.233,170.133,101.186,169.986z M101.628,170.244l0.226,0.44
			c-0.03-0.091-0.05-0.157-0.061-0.194c-0.022-0.055-0.055-0.115-0.099-0.179L101.628,170.244z M102.211,172.521l0.005,0.018
			c0.006,0.015,0.01,0.024,0.018,0.027L102.211,172.521z M111.511,170.945c-0.029-0.001-0.057-0.002-0.082-0.002
			c-0.053,0.004-0.075,0.016-0.067,0.032L111.511,170.945z"/>
	</g>
	<g id="Layer_5_2_">
		<path id="path14_2_" fill="#010101" d="M120.76,158.217c0.733,0.139,1.247,0.606,1.546,1.4c0.236,0.635,0.35,1.553,0.34,2.754
			c-0.02,2.75-0.594,4.852-1.723,6.303c-1.029,1.32-2.73,2.338-5.105,3.058c-0.037-0.03-0.068-0.089-0.088-0.179l0.205-0.021
			l0.206-0.059c-0.065,0.005-0.328,0.043-0.784,0.11c-0.479,0.07-0.777,0.117-0.895,0.143c0.246,0.813,0.648,1.979,1.208,3.492
			c0.278,0.762,0.417,1.408,0.413,1.941c-0.005,0.689-0.279,1.223-0.824,1.602c-0.513,0.355-1.324,0.611-2.432,0.771
			c-0.927,0.134-2.267,0.222-4.02,0.265c-2.308,0.031-4.168,0.057-5.582,0.076c-0.288,0.249-0.49,0.407-0.604,0.473
			c-0.135,0.081-0.278,0.12-0.434,0.119c-0.639-0.004-1.342-0.124-2.115-0.359c-0.777-0.238-1.308-0.36-1.598-0.361
			c-0.167-0.002-0.542,0.062-1.13,0.191c-0.652,0.141-1.091,0.222-1.318,0.246c-0.263-0.006-0.509-0.002-0.74,0.012
			c-0.447,0.025-0.69,0.102-0.729,0.228c-0.099,0.313-0.262,0.567-0.49,0.758c-0.196,0.169-0.388,0.252-0.573,0.251
			c-0.519-0.004-0.777-0.209-0.774-0.617c0.002-0.28,0.092-0.59,0.268-0.924c0.24-0.463,0.58-0.773,1.017-0.932
			c-0.243-0.04-0.403-0.059-0.477-0.061c-0.081-0.001-0.367,0.172-0.86,0.517c-0.246,0.172-0.487,0.345-0.725,0.516
			c-0.039,0.001-0.11-0.019-0.217-0.056c-0.111-0.042-0.184-0.063-0.221-0.063c-0.339,0.112-0.513,0.169-0.524,0.168
			c-0.355-0.002-0.601-0.089-0.735-0.261c-0.088-0.111-0.133-0.273-0.131-0.483c0.002-0.315,0.093-0.556,0.271-0.722
			c0.306-0.204,0.585-0.4,0.838-0.588c0.358-0.26,0.621-0.479,0.788-0.655c0.104-0.113,0.174-0.175,0.207-0.182
			c0.048-0.015,0.237-0.036,0.567-0.062c0.485-0.052,1.11-0.149,1.875-0.292c0.589-0.107,1.152-0.152,1.69-0.139
			c0.25,0.007,0.483-0.082,0.695-0.266c0.064-0.033,0.249-0.043,0.556-0.029c0.164,0.008,0.347,0.021,0.55,0.037
			c-0.152-0.112-0.225-0.206-0.225-0.279c0-0.111,0.028-0.231,0.085-0.36l2.162,0.738c0.071-0.093,0.106-0.175,0.107-0.249
			c0-0.045,0.01-0.074,0.028-0.09c0.019-0.011,0.032-0.02,0.04-0.027c0.387,0.181,0.618,0.271,0.69,0.272
			c0.075-0.001,0.229-0.016,0.462-0.047l-0.147-0.284l-0.039-0.041c1.012,0.412,2.211,0.622,3.596,0.633
			c0.337,0.002,0.609-0.152,0.819-0.467c0.183-0.269,0.277-0.572,0.28-0.914c0-0.158-0.031-0.416-0.096-0.767
			c-0.063-0.36-0.113-0.541-0.15-0.54c-0.037-0.001-0.051,0.014-0.039,0.043c0.01,0.027-0.003,0.039-0.039,0.039
			c-0.094,0-0.139-0.17-0.137-0.506c0.066-0.486,0.102-0.765,0.102-0.838c0-0.034-0.058-0.094-0.172-0.18
			c-0.142-0.109-0.251-0.232-0.324-0.369l0.011,0.155c-0.108-0.03-0.256-0.155-0.442-0.376c-0.074-0.085-0.171-0.21-0.293-0.373
			c0.01,0.17,0.013,0.289,0.004,0.36l-0.029,0.073c-0.938-1.142-1.569-1.895-1.888-2.266l-0.082-0.095l0.186,0.474l0.005,0.039
			c-0.77-0.689-1.225-1.115-1.363-1.277c-0.551-0.609-1.384-1.725-2.498-3.346c-0.053,0.104-0.103,0.169-0.151,0.194
			c-0.402-0.614-1.333-2.001-2.786-4.165c-1.235-1.842-2.458-3.693-3.672-5.554c-0.204-0.313-0.499-0.685-0.879-1.113
			c-0.441-0.478-0.767-0.829-0.978-1.056c-0.741-0.832-1.11-1.494-1.106-1.987c0-0.036,0.018-0.142,0.051-0.315
			c0.035-0.174,0.053-0.279,0.053-0.317c0.001-0.111-0.256-0.708-0.77-1.788c-0.518-1.096-0.787-1.913-0.806-2.449
			c-0.002-0.083-0.033-0.407-0.092-0.974c-0.055-0.519-0.081-0.905-0.08-1.156c0.006-0.8,0.547-1.564,1.622-2.294
			c1.05-0.711,2.105-1.062,3.163-1.055c0.321,0.088,0.489,0.131,0.5,0.133c0.214,0.002,0.554-0.063,1.018-0.193
			c0.463-0.134,0.729-0.201,0.796-0.201c0.714,0.006,1.454,0.175,2.219,0.506c0.768,0.336,1.665,0.883,2.693,1.643
			c1.532,1.133,4.437,3.658,8.71,7.574c5.81,5.332,9.972,7.756,12.486,7.274L120.76,158.217L120.76,158.217z M98.076,175.951
			c-0.008-0.003-0.011,0.018-0.012,0.061c-0.001,0.061,0.03,0.139,0.091,0.236c0.092,0.129,0.211,0.195,0.355,0.195l0.405-0.002
			c-0.187-0.124-0.333-0.22-0.437-0.286c-0.192-0.124-0.322-0.187-0.393-0.187C98.083,175.957,98.079,175.951,98.076,175.951
			L98.076,175.951z M97.506,176.431l-0.345-0.08l0.057,0.056L97.506,176.431z M104.966,171.946
			c-0.041-0.085-0.118-0.206-0.236-0.362l-0.077-0.062L104.966,171.946z M104.159,171.291c-0.153-0.29-0.457-0.652-0.914-1.084
			l1.128,1.502C104.303,171.575,104.232,171.436,104.159,171.291z M102.267,169.416c-0.075-0.186-0.165-0.335-0.268-0.447
			L102.267,169.416z M101.021,168.15c-0.007-0.032-0.023-0.077-0.049-0.133c-0.055-0.1-0.169-0.246-0.341-0.436L101.021,168.15z
			 M100.505,176.397l0.112,0.001c-0.052-0.023-0.102-0.046-0.149-0.068c-0.101-0.041-0.145-0.057-0.134-0.045L100.505,176.397z
			 M101.479,176.144c0.007,0.007,0.019,0.038,0.033,0.094c0.04,0.052,0.127,0.066,0.26,0.042
			C101.677,176.24,101.579,176.195,101.479,176.144z M114.539,171.584c-0.028,0-0.056,0-0.082,0.004
			c-0.056,0.008-0.076,0.02-0.062,0.038L114.539,171.584z"/>
	</g>
	<g id="Layer_7_2_">
		<path id="path17_4_" fill="#010101" d="M111.185,107.76c1.051,0.158,1.995,0.625,2.834,1.404c0.452,0.414,0.807,0.872,1.062,1.373
			c0.256,0.494,0.381,0.969,0.378,1.421c-0.003,0.433-0.116,1.063-0.337,1.892c-0.106,0.398-0.349,1.212-0.729,2.439
			c-0.705,2.279-1.061,3.883-1.068,4.809c-0.003,0.507,0.066,1.025,0.211,1.558c0.072,0.263,0.232,0.731,0.479,1.407
			c0.465,1.271,0.693,2.436,0.686,3.495c-0.004,0.633-0.027,1.216-0.068,1.749c-0.028,0.344-0.09,0.937-0.186,1.776l0.264,1.269
			c-0.121-0.072-0.217-0.14-0.287-0.202c-0.02-0.015-0.037-0.022-0.057-0.022c-0.035,0-0.061,0.035-0.072,0.104
			c0.069,0.204,0.147,0.494,0.238,0.868c0.107,0.449,0.17,0.791,0.186,1.024l-0.082,0.093l-0.452-1.292l-0.133,0.739
			c0.075,0.318,0.136,0.617,0.182,0.896c0.031,0.204,0.048,0.337,0.048,0.399c-0.002,0.075-0.004,0.084-0.012,0.027l-0.006,0.006
			c-0.069-0.029-0.117-0.09-0.143-0.18c-0.032-0.166-0.066-0.328-0.103-0.488l-0.038-0.172l-0.086,0.432l0.188,0.974l-0.072,0.066
			c-0.07-0.063-0.146-0.229-0.225-0.502l-0.041,0.149c-0.029,0.108-0.045,0.184-0.044,0.229c-0.002,0.118,0.033,0.342,0.104,0.668
			c0.078,0.355,0.12,0.553,0.123,0.589l-0.061,0.067c-0.07-0.039-0.156-0.223-0.258-0.552c0.008,0.573,0.002,0.983-0.015,1.231
			l0.269,0.543c-0.004,0.044-0.018,0.068-0.039,0.076c-0.077-0.061-0.157-0.152-0.242-0.273c-0.026,1.937-0.42,3.77-1.185,5.501
			c-0.283,0.636-0.585,1.185-0.907,1.649c-0.276,0.397-0.492,0.635-0.648,0.712c-0.156,0.073-0.596,0.707-1.314,1.902
			c-0.705,1.165-1.128,1.758-1.27,1.779c-0.516,0.081-0.936,0.227-1.258,0.436c-0.265,0.171-0.59,0.257-0.975,0.253
			c-0.582-0.004-1.089-0.061-1.526-0.172c-0.333-0.088-0.737-0.241-1.213-0.465c-1.55-0.723-2.883-1.258-3.999-1.606
			c-1.234-0.42-2.075-0.691-2.522-0.812c-0.703-0.191-1.273-0.227-1.71-0.109l0.012-0.109L96,146.742
			c-0.236-0.143-0.616-0.287-1.142-0.436c-0.714-0.206-1.245-0.24-1.593-0.106c0.305-0.168,0.555-0.234,0.751-0.2
			c0.319,0.054,0.544,0.072,0.678,0.055c-0.152-0.104-0.7-0.109-1.65-0.012c0.126-0.113,0.244-0.176,0.352-0.187
			c0.094-0.011,0.338-0.013,0.738-0.005l0.201-0.005l-0.415-0.265c-0.752,0.031-1.496,0.071-2.229,0.118l0.211-0.06
			c0.264-0.064,0.703-0.148,1.317-0.251c-0.1-0.104-0.227-0.157-0.378-0.165c0.181-0.037,0.292-0.063,0.337-0.081
			c-0.016-0.011-0.104-0.017-0.266-0.019c-0.101,0-0.38,0.037-0.841,0.111c-0.422,0.066-0.696,0.092-0.817,0.071l0.002-0.324
			c-0.105,0.007-0.214,0.014-0.328,0.022c0.109-0.151,0.31-0.254,0.603-0.307c0.459-0.078,0.714-0.127,0.763-0.145
			c-0.02-0.049-0.066-0.074-0.141-0.073l-1.433,0.083c0.075-0.072,0.174-0.131,0.295-0.17c0.041-0.011,0.126-0.029,0.256-0.053
			c-0.093,0.006-0.214,0.022-0.361,0.047c-0.148,0.024-0.388,0.049-0.717,0.072c0.071-0.07,0.123-0.111,0.156-0.125
			c0.022-0.008,0.059-0.019,0.107-0.028l0.011-0.017c-0.122-0.008-0.188-0.015-0.195-0.018c-0.048-0.012-0.092-0.051-0.132-0.118
			l1.062-0.319c-0.095-0.111-0.18-0.168-0.254-0.169c-0.037-0.001-0.176,0.013-0.417,0.041c-0.252,0.031-0.407,0.046-0.467,0.046
			c0.004-0.018,0.03-0.043,0.078-0.076c0.101-0.069,0.261-0.145,0.479-0.225c-0.307,0.009-0.562,0.016-0.765,0.017
			c-0.386,0.009-0.601-0.007-0.645-0.05c0.545-0.172,0.838-0.285,0.88-0.338c-0.019-0.014-0.055-0.055-0.111-0.123
			c-0.032-0.041-0.072-0.061-0.115-0.061c-0.142-0.002-0.293,0.029-0.456,0.091c-0.204,0.075-0.368,0.122-0.491,0.14l-0.032-0.149
			c0.413-0.142,0.647-0.228,0.707-0.261l-0.1-0.057c-0.054,0.01-0.149,0.039-0.282,0.086c-0.104,0.037-0.198,0.055-0.279,0.054
			c-0.056-0.001-0.133-0.02-0.232-0.058c-0.115-0.044-0.198-0.094-0.249-0.146l0.519-0.329c-0.211-0.038-0.486-0.005-0.824,0.101
			c-0.315,0.115-0.493,0.178-0.534,0.185c0.008-0.104,0.059-0.239,0.153-0.404c0.105-0.188,0.21-0.291,0.314-0.31l0.155-0.081
			l-0.149-0.112c-0.126,0.061-0.4,0.169-0.819,0.321c-0.021-0.005-0.036-0.028-0.043-0.072l0.626-0.429
			c-0.04-0.082-0.098-0.123-0.172-0.124c-0.133-0.001-0.265,0.056-0.396,0.169c-0.149,0.126-0.304,0.203-0.463,0.23
			c0-0.012-0.005-0.025-0.015-0.045c0.42-0.346,0.638-0.519,0.653-0.522l-0.327-0.225c-0.022,0.019-0.103,0.056-0.238,0.108
			c-0.131,0.055-0.209,0.086-0.235,0.094c-0.033-0.012-0.041-0.071-0.025-0.178l-0.056-0.012c-0.015,0.011-0.032,0.033-0.051,0.066
			c-0.022,0.029-0.055,0.043-0.1,0.043c-0.085,0-0.187-0.043-0.305-0.13c0.239-0.28,0.374-0.43,0.403-0.452
			c-0.117-0.152-0.212-0.23-0.288-0.229c-0.12-0.002-0.22,0.065-0.294,0.202c-0.068,0.129-0.21,0.184-0.428,0.162
			c0.022-0.069,0.06-0.132,0.11-0.187c0-0.016-0.005-0.029-0.016-0.045c-0.055,0.029-0.099,0.052-0.128,0.065
			c-0.056,0.026-0.108,0.038-0.156,0.038c-0.043,0-0.07-0.002-0.078-0.006c0-0.004-0.01-0.01-0.027-0.017l-0.05-0.028
			c0.127-0.145,0.221-0.246,0.279-0.304c0.102-0.106,0.204-0.171,0.308-0.192l0.022-0.028c0.004-0.052-0.031-0.077-0.105-0.077
			c-0.041-0.001-0.146,0.074-0.319,0.225c-0.192,0.166-0.378,0.27-0.557,0.313c0.043-0.216,0.134-0.368,0.275-0.46
			c0.171-0.077,0.3-0.158,0.384-0.241l-0.236-0.18c-0.015,0.044-0.061,0.122-0.136,0.233c-0.09,0.121-0.158,0.193-0.207,0.22
			c0.084-0.437,0.126-0.69,0.127-0.766c0-0.037-0.013-0.063-0.043-0.078c-0.029-0.019-0.045-0.047-0.044-0.084
			c0-0.04,0.024-0.081,0.073-0.121c0.047-0.045,0.074-0.074,0.079-0.089l-0.078,0.021c-0.037-0.011-0.04-0.066-0.004-0.166
			c0.029-0.016,0.008-0.023-0.067-0.023c-0.022,0-0.075,0.048-0.162,0.145c-0.096,0.102-0.168,0.16-0.217,0.174
			c-0.041-0.006-0.065-0.018-0.072-0.033c0.124-0.121,0.208-0.232,0.253-0.336c0.074-0.162,0.099-0.359,0.07-0.588
			c-0.167,0.19-0.255,0.286-0.262,0.285c-0.167,0-0.251-0.018-0.25-0.051c-0.004-0.114-0.004-0.175-0.005-0.178
			c-0.123,0.033-0.22,0.049-0.294,0.049c-0.002-0.002-0.173-0.245-0.511-0.732c-0.34,1.039-0.682,1.795-1.028,2.27
			c0.015,0.057,0.033,0.113,0.048,0.173c0.062,0.216,0.117,0.449,0.167,0.701c-0.001,0.151-0.046,0.276-0.136,0.376
			c-0.011,0.016-0.024,0.03-0.04,0.045c-0.104,0.092-0.243,0.137-0.417,0.136c-0.137-0.001-0.255-0.038-0.356-0.112
			c-0.041-0.03-0.125-0.115-0.252-0.253c-0.006,0.292-0.046,0.579-0.118,0.86c-0.157,0.629-0.475,1.231-0.957,1.809
			c-0.173,0.203-0.414,0.455-0.722,0.756c-0.216,0.214-0.325,0.343-0.326,0.387c0,0.012,0.07-0.014,0.213-0.078
			c0.14-0.065,0.178-0.009,0.115,0.167c-0.063,0.177-0.185,0.39-0.363,0.642c-0.178,0.252-0.268,0.464-0.269,0.635
			c0.336,0.635,0.521,0.954,0.56,0.954c0.007,0,0.057,0.075,0.148,0.224c0.125,0.182,0.262,0.338,0.413,0.469
			c0.052,0.049,0.105,0.092,0.16,0.129c0.339,0.248,0.71,0.348,1.114,0.303c0.116-0.015,0.234-0.041,0.355-0.081
			c0.084-0.048,0.267-0.177,0.554-0.39c0.033-0.02,0.067-0.035,0.1-0.05c0.933-0.468,1.422-0.659,1.465-0.577
			c0.059,0.11,0.087,0.268,0.086,0.473c-0.002,0.254-0.043,0.547-0.123,0.876c0.011,0.022,0.092,0.092,0.244,0.207
			c0.142,0.153,0.213,0.347,0.211,0.579c-0.001,0.156-0.066,0.278-0.197,0.366c-0.145,0.106-0.433,0.223-0.864,0.349l-0.072,0.045
			c0.111,0.022,0.248,0.129,0.414,0.319c0.158,0.183,0.237,0.301,0.237,0.356c-0.064,0.219-0.231,0.371-0.499,0.458
			c-0.204,0.065-0.514,0.161-0.93,0.288c-0.125,0.035-0.26,0.076-0.401,0.119c-0.634,0.188-0.974,0.281-1.019,0.281
			c-0.144-0.002-0.378-0.096-0.703-0.283c-0.304-0.172-0.68-0.426-1.134-0.758c-0.994-0.773-1.61-1.248-1.852-1.419
			c-0.382-0.272-0.789-0.717-1.217-1.332c-0.396-0.573-0.593-0.95-0.592-1.132c0-0.281,0.14-0.638,0.413-1.068
			c0.382-0.539,0.677-0.977,0.888-1.316c0.539-0.865,0.889-1.776,1.048-2.73c0.085-0.525,0.114-1.066,0.083-1.621
			c-0.087-1.594,0.54-3.248,1.881-4.959c0.261-0.332,0.599-0.812,1.01-1.443c0.378-0.578,0.669-0.986,0.87-1.221
			c0.262-0.312,0.552-0.561,0.867-0.744c0.312-0.184,0.651-0.305,1.013-0.361l0-0.027c0.152-0.016,0.308-0.023,0.467-0.022
			c0.478,0.005,1.646,0.365,3.503,1.087c1.932,0.748,3.276,1.155,4.035,1.225c1.462,0.132,3.186,0.694,5.171,1.688
			c1.066,0.529,2.365,1.232,3.896,2.111c-0.113-0.354-0.199-0.948-0.259-1.786c-0.052-0.667-0.074-1.263-0.07-1.789
			c0.016-2.236,0.297-4.532,0.844-6.888c0.659-2.439,1.103-4.265,1.33-5.473c-0.068,0.203-0.103,0.312-0.104,0.331l-0.034,0.089
			c-0.09,0-0.132-0.036-0.132-0.106c0.088-0.414,0.181-0.798,0.281-1.153l0.038-0.161c-0.144,0.454-0.244,0.634-0.304,0.537
			c0.152-0.491,0.305-0.966,0.455-1.419c-0.049,0.122-0.134,0.31-0.253,0.559h-0.096l0.343-1.187
			c-0.242,0.558-0.449,1.095-0.623,1.612l-0.011,0.016c-0.023-0.074-0.033-0.18-0.038-0.315c-0.002-0.142,0.006-0.278,0.021-0.411
			l0.029-0.162l-0.136,0.271c-0.029-0.07-0.043-0.152-0.042-0.244c0.001-0.311,0.145-0.857,0.429-1.641l-0.085,0.154l-0.085,0.1
			c0.009-0.078,0.016-0.143,0.024-0.193c0.013-0.094,0.048-0.258,0.108-0.494l-0.055-0.141l-0.555,1.447
			c-0.015-0.074-0.021-0.145-0.02-0.213c0.001-0.225,0.04-0.48,0.116-0.766c0.022-0.088,0.121-0.412,0.296-0.975l-0.049-0.179
			l-0.17,0.487c-0.037,0.086-0.087,0.137-0.146,0.154c0.125-0.328,0.206-0.584,0.245-0.771c0.015-0.121,0.022-0.186,0.022-0.193
			c0.001-0.089-0.01-0.236-0.03-0.444c-0.123,0.25-0.205,0.406-0.241,0.465c-0.038,0.062-0.072,0.095-0.107,0.099l0.312-0.985
			c-0.144,0.168-0.298,0.32-0.458,0.457c-0.123,0.104-0.21,0.166-0.264,0.191l-0.021,0.012c0.418-0.696,0.662-1.129,0.734-1.301
			c0.007-0.014,0.012-0.027,0.015-0.038c0.015-0.056,0.024-0.108,0.029-0.162c-0.035,0.036-0.114,0.101-0.238,0.2
			c-0.013,0.008-0.023,0.018-0.035,0.026c-0.15,0.114-0.241,0.177-0.275,0.188l-0.094,0.044c0.039-0.062,0.101-0.149,0.186-0.26
			c0.044-0.061,0.098-0.129,0.157-0.205l0.096-0.113c-0.041,0.044-0.14,0.119-0.297,0.229c-0.05,0.032-0.095,0.062-0.14,0.088
			c-0.141,0.084-0.262,0.146-0.362,0.181l0.146-0.155c0.009-0.008,0.018-0.018,0.027-0.026c0.169-0.169,0.425-0.416,0.768-0.739
			c-0.012,0.008-0.132,0.064-0.362,0.171c-0.231,0.101-0.364,0.159-0.402,0.173c0.003-0.002,0.102-0.083,0.291-0.241
			c0.238-0.198,0.476-0.406,0.711-0.622l0.095-0.128c-0.131,0.066-0.282,0.136-0.458,0.208c-0.137,0.055-0.235,0.089-0.294,0.104
			l-0.028-0.001c0.353-0.137,0.636-0.319,0.848-0.543c0.113-0.118,0.289-0.362,0.528-0.735c0.539-0.832,1.289-1.588,2.251-2.267
			c2.396-1.697,4.185-2.542,5.361-2.532C110.669,107.699,110.93,107.721,111.185,107.76L111.185,107.76z M114.462,131.994
			l-0.073-0.467c-0.021,0.166-0.021,0.287-0.003,0.359C114.396,131.922,114.423,131.957,114.462,131.994z M92.421,144.639
			l-0.219,0.11c0.215-0.014,0.324-0.028,0.323-0.044L92.421,144.639z M85.032,139.335l-0.056,0.155l0.067-0.133L85.032,139.335
			L85.032,139.335z M86.961,140.821l-0.028-0.033l-0.101,0.099L86.961,140.821z M92.448,145.302
			c-0.33,0.132-0.585,0.215-0.766,0.248c0.081-0.088,0.309-0.166,0.684-0.233C92.394,145.311,92.42,145.307,92.448,145.302z"/>
	</g>
	<g id="Layer_3_3_">
		<path id="path20_2_" fill="#010101" d="M97.201,177.846c0.537-0.074,1.027-0.172,1.468-0.295c0.494-0.093,1.976-0.35,4.444-0.768
			c0.289,0.002,0.854-0.084,1.691-0.26c1.001-0.208,2.188-0.505,3.562-0.891c0.02,0.363,0.028,0.707,0.026,1.033
			c-0.01,1.267-0.231,2.209-0.666,2.829c-0.397,0.56-0.949,0.837-1.655,0.831c-0.045,0-0.501-0.064-1.371-0.192
			c-0.288-0.003-0.913-0.069-1.87-0.203c-0.955-0.132-1.447-0.198-1.477-0.2c-0.448-0.002-0.858,0.041-1.229,0.131
			c-0.371,0.086-0.871,0.127-1.501,0.123c-0.522-0.005-0.986,0.102-1.392,0.316c-0.405,0.213-0.746,0.317-1.023,0.314
			c-0.305-0.002-0.565-0.19-0.785-0.566c-0.213-0.36-0.317-0.767-0.313-1.219c0.002-0.273,0.086-0.475,0.254-0.604
			c0.142-0.109,0.38-0.191,0.719-0.245C96.287,177.949,96.66,177.904,97.201,177.846L97.201,177.846z"/>
	</g>
	<g id="Layer_8_1_">
		<path id="path23_3_" fill="#010101" d="M111.048,175.774c0.071,0.367,0.106,0.745,0.104,1.134
			c-0.006,0.845-0.236,1.462-0.691,1.852c-0.361,0.307-0.942,0.518-1.743,0.631c-1.009,0.085-1.788,0.162-2.341,0.233
			c-0.997,0.122-1.83,0.338-2.499,0.648c-0.167,0.08-0.602,0.208-1.303,0.384c-0.671,0.166-1.074,0.289-1.209,0.369
			c-0.062,0.037-0.22,0.214-0.47,0.531c-0.287,0.296-0.589,0.445-0.903,0.443c-0.36-0.004-0.695-0.238-1.006-0.703
			c-0.265-0.395-0.396-0.716-0.394-0.963c0.001-0.241,1.481-1.086,4.435-2.535c4.271-2.091,6.799-3.35,7.583-3.777
			C110.839,174.856,110.983,175.44,111.048,175.774z"/>
	</g>
</g>
</svg>
