<?xml version="1.0" encoding="utf-8"?>
<!-- Generator: Adobe Illustrator 15.0.0, SVG Export Plug-In . SVG Version: 6.00 Build 0)  -->
<!DOCTYPE svg PUBLIC "-//W3C//DTD SVG 1.1//EN" "http://www.w3.org/Graphics/SVG/1.1/DTD/svg11.dtd">
<svg version="1.1" id="Layer_1" xmlns="http://www.w3.org/2000/svg" xmlns:xlink="http://www.w3.org/1999/xlink" x="0px" y="0px"
	 width="200px" height="200px" viewBox="0 0 200 200" enable-background="new 0 0 200 200" xml:space="preserve">
<g>
	<g id="Layer_2_1_">
		<path id="path5_2_" fill="#010101" d="M60.872,32.449c-0.026-0.089-0.024-0.116,0.015-0.085l0.056-0.011
			c0.045,0.093,0.143,0.245,0.295,0.455c-0.009-0.037-0.013-0.063-0.013-0.078l0.084,0.006c0.037,0.099,0.076,0.206,0.115,0.321
			c0.008,0.007,0.014,0.016,0.019,0.028c-0.022-0.118-0.05-0.239-0.078-0.361c-0.015-0.047-0.034-0.096-0.056-0.144
			c-0.022-0.037-0.035-0.068-0.039-0.094l0.05-0.011c0.045,0.082,0.13,0.274,0.256,0.577c-0.013-0.081-0.022-0.166-0.033-0.255
			c-0.004-0.026-0.008-0.05-0.012-0.072c0-0.007-0.004-0.014-0.011-0.022c-0.137-0.163-0.325-0.393-0.565-0.688
			c0.162,0.122,0.353,0.295,0.569,0.521c-0.004-0.093-0.002-0.174,0.007-0.244c-0.134-0.155-0.302-0.359-0.505-0.61
			c0.111,0.074,0.283,0.222,0.517,0.444c0.026-0.144,0.074-0.222,0.146-0.233c0.065-0.011,0.105-0.024,0.121-0.039
			c-0.004-0.004-0.008-0.008-0.012-0.011c-0.167-0.126-0.386-0.307-0.66-0.544c0.262,0.04,0.562,0.177,0.898,0.41
			c0.02,0.015,0.035,0.03,0.05,0.045c0.037,0,0.076,0.002,0.117,0.005c-0.276-0.184-0.425-0.279-0.444-0.283
			c0-0.018,0.055-0.045,0.161-0.078c-0.004-0.003-0.008-0.005-0.012-0.005c0-0.02,0.043-0.04,0.128-0.062
			c0.129,0.066,0.346,0.151,0.648,0.255c0.045-0.012,0.101-0.025,0.166-0.039c-0.41-0.178-0.664-0.278-0.76-0.3
			c0-0.018,0.043-0.041,0.127-0.066c0.09,0.007,0.287,0.057,0.594,0.149c-0.252-0.103-0.434-0.204-0.549-0.305
			c0.066,0.019,0.41,0.091,1.031,0.216c0.053-0.014,0.11-0.016,0.172-0.005c-0.15-0.047-0.412-0.16-0.781-0.338
			c0.467,0.047,0.865,0.09,1.197,0.127c0.045-0.026,0.09-0.05,0.135-0.072c-0.02-0.004-0.037-0.01-0.057-0.017
			c-0.499-0.103-0.807-0.165-0.921-0.183l-0.005-0.027c0.365,0.026,0.702,0.055,1.01,0.088c0.062,0.004,0.126,0.011,0.188,0.022
			c0.033-0.018,0.063-0.032,0.091-0.039c-0.24-0.041-0.504-0.084-0.789-0.128c-0.003-0.018,0.037-0.04,0.123-0.066
			c0.323,0.029,0.627,0.057,0.903,0.083c0.033-0.015,0.063-0.029,0.088-0.044c-0.092-0.026-0.187-0.053-0.287-0.078
			c-0.045,0.007-0.073,0.013-0.09,0.016v-0.021c0.05-0.012,0.201,0.003,0.461,0.044c0.016-0.004,0.027-0.009,0.039-0.017
			c0.203-0.033,0.404-0.063,0.6-0.089c0.191-0.018,0.355-0.035,0.493-0.05c-0.089-0.07-0.142-0.137-0.16-0.2
			c0.081,0.03,0.213,0.087,0.394,0.173c0.033-0.009,0.064-0.012,0.09-0.012c0-0.004,0-0.008,0-0.011
			c-0.107-0.041-0.186-0.074-0.233-0.1c0.048,0.007,0.12,0.022,0.217,0.044c-0.006-0.037,0.22-0.048,0.683-0.033
			c-0.244-0.07-0.416-0.096-0.516-0.077c-0.06,0.011-0.095,0.022-0.105,0.033c0-0.026,0.011-0.052,0.033-0.078
			c0.125-0.041,0.394,0.006,0.805,0.139c0.015,0,0.027,0,0.039,0c-0.312-0.085-0.469-0.129-0.473-0.133
			c0.012-0.026,0.059-0.058,0.139-0.095c0.32,0.026,0.687,0.115,1.104,0.266c0.009,0,0.015,0,0.019,0
			c0.133,0.005,0.244,0.015,0.338,0.034c0.451-0.019,0.75-0.026,0.898-0.022c0.219,0.011,0.375,0.045,0.471,0.105
			c0.037,0,0.076,0.002,0.117,0.005l0.948-0.088c0.101-0.011,0.173,0.015,0.216,0.078c0.03-0.007,0.059-0.013,0.084-0.017
			c0.02-0.002,0.19,0.018,0.516,0.062c0.33,0.048,0.523,0.068,0.583,0.061c-0.292-0.081-0.48-0.147-0.562-0.199l0.028-0.05
			c0.133,0.018,0.326,0.048,0.582,0.089c0.315,0.056,0.522,0.088,0.627,0.1c-0.049-0.078-0.065-0.131-0.051-0.161
			c0.131,0.033,0.315,0.104,0.555,0.211c0.127,0.055,0.222,0.098,0.283,0.127c0.021,0,0.04,0.004,0.062,0.011
			c-0.07-0.048-0.098-0.091-0.082-0.128l0.127-0.021c0.145,0.093,0.303,0.174,0.478,0.244c0.055-0.092,0.118-0.119,0.188-0.083
			c0.062,0.056,0.096,0.081,0.104,0.078c0.012,0,0.024,0,0.039,0c-0.056-0.086-0.103-0.163-0.14-0.233
			c0.107,0.032,0.24,0.131,0.398,0.293c0.006,0,0.012,0,0.018-0.002c-0.006,0.003-0.008,0.008-0.006,0.014
			c0.004,0.004,0.008,0.008,0.012,0.011c0.027,0.021,0.125,0.049,0.3,0.083c-0.041-0.074-0.082-0.154-0.127-0.238
			c-0.029-0.101-0.044-0.195-0.039-0.284l0.032-0.005c0.056,0.137,0.127,0.29,0.218,0.46c0.024-0.062,0.053-0.112,0.082-0.149
			c0.034,0.018,0.065,0.036,0.096,0.055c0-0.008,0-0.013,0-0.017c0.003-0.004,0.009-0.013,0.017-0.028
			c0.033,0.037,0.074,0.081,0.123,0.133c0.137,0.096,0.268,0.212,0.393,0.349c0.023,0.023,0.042,0.043,0.062,0.062
			c0.014,0,0.029,0.002,0.049,0.005c-0.049-0.096-0.08-0.166-0.094-0.21c-0.023-0.075-0.037-0.158-0.046-0.25l0.039-0.006
			c0,0.074,0.062,0.209,0.188,0.405c0.015,0.022,0.029,0.047,0.043,0.072c0.123,0.014,0.222,0.033,0.296,0.055
			c0.006,0.004,0.015,0.005,0.026,0.005c0.045,0,0.088,0,0.127,0c0.035-0.018,0.067-0.033,0.101-0.044
			c0.269-0.103,0.575-0.151,0.928-0.144c0.935,0.019,1.517,0.407,1.746,1.165c0.09,0.292,0.147,0.494,0.173,0.604
			c0.073,0.367,0.047,0.561-0.083,0.583c-0.028,0.004-0.094-0.022-0.194-0.078c0.008,0.023,0.014,0.045,0.018,0.067
			c0.406,0.159,0.688,0.497,0.843,1.015c0.104-0.022,0.169-0.029,0.194-0.022l-0.045,0.089c-0.055,0.011-0.125,0.03-0.211,0.056
			c0,0.011-0.002,0.022-0.01,0.033c0.018,0.045,0.039,0.101,0.061,0.167c0.021,0.059,0.041,0.124,0.055,0.194
			c0.119-0.019,0.24-0.033,0.361-0.044c0,0.019-0.061,0.047-0.184,0.083c-0.059,0.019-0.111,0.033-0.16,0.044
			c0,0.023,0,0.045,0,0.067c0.056,0.066,0.096,0.14,0.121,0.221c0,0.005,0,0.026,0,0.067c0.09,0.074,0.17,0.139,0.24,0.195
			c0.166,0.148,0.303,0.273,0.409,0.377c0.399,0.126,0.696,0.289,0.888,0.488c0.058-0.089,0.166-0.147,0.321-0.177
			c0.296-0.059,0.692-0.012,1.188,0.139c0.494,0.152,0.939,0.358,1.336,0.621c0.049,0.033,0.095,0.065,0.139,0.095
			c0.116,0.14,0.258,0.31,0.428,0.51c0.074,0.085,0.146,0.163,0.211,0.233c0.004,0.014,0.01,0.03,0.017,0.044
			c0.019,0.044,0.026,0.093,0.022,0.144c0.1,0.059,0.207,0.147,0.321,0.261c0.218,0.226,0.373,0.429,0.466,0.61
			c0.051,0.037,0.098,0.078,0.139,0.122c0.088,0.107,0.179,0.307,0.267,0.599c0.045,0.104,0.074,0.204,0.089,0.3
			c0.005,0.012,0.006,0.022,0.006,0.033c0.045,0.021,0.092,0.049,0.139,0.083c0.248,0.174,0.394,0.332,0.438,0.477
			c0.048,0.163,0.002,0.381-0.139,0.654c-0.05,0.095-0.101,0.181-0.161,0.255c0,0.007,0,0.014,0,0.022
			c-0.04,0.39-0.085,0.705-0.135,0.943l0.146,0.482l-0.044,0.005c-0.052-0.147-0.1-0.268-0.139-0.36
			c-0.022,0.095-0.051,0.176-0.083,0.238l0.021,0.078c-0.007,0.026-0.017,0.046-0.033,0.061c-0.018,0.016-0.033,0.016-0.045,0
			c-0.002-0.012-0.004-0.021-0.004-0.033c-0.02,0.025-0.035,0.054-0.051,0.083l0.078,0.255l-0.045,0.012
			c-0.025-0.071-0.051-0.143-0.072-0.217c-0.041,0.066-0.081,0.13-0.121,0.189l0.049,0.16l-0.043,0.006
			c-0.016-0.033-0.031-0.068-0.045-0.105c-0.037,0.063-0.076,0.124-0.117,0.184l0.058,0.184l-0.062-0.007
			c-0.012-0.037-0.023-0.073-0.039-0.11c-0.011,0.022-0.023,0.043-0.037,0.061c0.017,0.191,0.029,0.346,0.031,0.461
			c0.02,0.325-0.046,0.559-0.193,0.705c0.066-0.146,0.096-0.384,0.09-0.717c0-0.115-0.006-0.219-0.018-0.311
			c-0.02,0.034-0.041,0.067-0.062,0.1c-0.011,0.02-0.021,0.036-0.028,0.051c-0.019,0.037-0.05,0.103-0.095,0.199
			c0.008,0.111,0.013,0.207,0.013,0.289c0.012,0.333-0.041,0.59-0.156,0.771c-0.033-0.011-0.053-0.026-0.062-0.044
			c-0.004-0.082,0.003-0.201,0.022-0.361c0.018-0.158,0.027-0.259,0.027-0.299c-0.003,0.01-0.011,0.025-0.021,0.044
			c-0.03,0.147-0.09,0.339-0.178,0.571c-0.107,0.273-0.178,0.412-0.211,0.416l-0.027,0.006c0.021,0,0.035,0,0.039,0
			c0.007,0.014-0.051,0.051-0.174,0.111c-0.021,0.034-0.043,0.067-0.065,0.1c-0.065,0.228-0.162,0.352-0.288,0.371
			c-0.089,0.015-0.122,0.014-0.102-0.006l-0.01-0.033l-0.029-0.127c-0.021,0.048-0.043,0.096-0.064,0.145
			c-0.004,0-0.009-0.002-0.018-0.006c-0.045,0.074-0.088,0.143-0.133,0.205c-0.033,0.004-0.065,0.014-0.096,0.033
			c-0.003,0-0.007-0.002-0.01-0.006c-0.031,0.094-0.062,0.168-0.096,0.223l-0.043-0.018c-0.012-0.055-0.019-0.139-0.019-0.25
			c-0.007,0.02-0.019,0.09-0.038,0.213c-0.007,0.07-0.043,0.118-0.104,0.144c-0.027-0.012-0.058-0.042-0.095-0.089
			c-0.004,0.017-0.01,0.052-0.017,0.105c-0.016,0.048-0.043,0.076-0.084,0.083c-0.122,0.018-0.203,0.067-0.243,0.149
			c-0.049,0.083-0.111,0.129-0.185,0.145c-0.056,0.008-0.089,0.005-0.101-0.006c-0.01-0.008-0.019-0.011-0.026-0.011
			c-0.033-0.089-0.065-0.182-0.095-0.282c-0.004,0.003-0.008,0.005-0.012,0.005c0.004,0.026,0.006,0.046,0.006,0.061
			c-0.004,0.044-0.029,0.108-0.078,0.194c-0.041-0.011-0.069-0.033-0.088-0.066l-0.018-0.05c-0.014-0.041-0.025-0.062-0.033-0.062
			l0.006,0.012c-0.017-0.004-0.045-0.002-0.078,0.006c0,0.087-0.014,0.166-0.043,0.232c-0.031-0.018-0.052-0.041-0.067-0.066
			l-0.027-0.133c-0.032,0.014-0.065,0.029-0.094,0.043c-0.029,0.137-0.045,0.23-0.045,0.278l-0.033,0.011
			c-0.01-0.014-0.017-0.021-0.021-0.021l-0.022-0.084c-0.004-0.013-0.002-0.05,0.005-0.111c-0.018,0.016-0.039,0.034-0.061,0.056
			c-0.004-0.003-0.033-0.037-0.088-0.1c-0.058,0.052-0.145,0.085-0.263,0.1c0,0.011,0.005,0.02,0.013,0.028h-0.062
			c0-0.008-0.002-0.013-0.005-0.017c-0.041-0.007-0.073-0.023-0.097-0.044c-0.01,0.021-0.021,0.049-0.032,0.082l-0.017-0.027
			c0.012-0.026,0.017-0.059,0.017-0.1c-0.005-0.016-0.005-0.029-0.005-0.044c0-0.004,0-0.009,0-0.011
			c-0.004,0.002-0.01,0.004-0.018,0.004c0.008,0,0.012-0.004,0.012-0.01c0-0.019-0.004-0.043-0.012-0.072
			c-0.048-0.004-0.107-0.004-0.178,0c-0.051,0.121-0.118,0.224-0.199,0.305l-0.006-0.039c0.008-0.014,0.014-0.029,0.021-0.044
			v-0.005c-0.012-0.037-0.023-0.078-0.039-0.123c-0.051,0.152-0.117,0.262-0.199,0.327c0-0.007,0.037-0.124,0.111-0.349
			c-0.02-0.022-0.041-0.047-0.062-0.072c-0.022-0.004-0.045-0.006-0.067-0.006c-0.043,0.062-0.071,0.103-0.082,0.121
			c-0.041-0.017-0.064-0.041-0.072-0.072c-0.008,0.057-0.014,0.086-0.021,0.09c-0.008,0.022-0.019,0.041-0.033,0.056
			c0.006,0.038,0.014,0.071,0.021,0.1l-0.055-0.005c-0.008-0.037-0.02-0.082-0.034-0.134l-0.011-0.017
			c0-0.008,0.002-0.012,0.006-0.012c-0.004-0.014-0.006-0.027-0.006-0.039c-0.041,0.237-0.078,0.406-0.111,0.506l-0.066-0.006
			c0.03-0.122,0.062-0.321,0.094-0.594c-0.077,0-0.125,0-0.145,0c-0.002,0.004-0.007,0.006-0.01,0.006
			c-0.012,0.074-0.021,0.127-0.034,0.16v0.006c0.019,0.094,0.026,0.164,0.022,0.217l-0.033-0.027
			c-0.025-0.103-0.053-0.198-0.078-0.283c-0.004-0.015-0.007-0.025-0.012-0.033c-0.002-0.008-0.006-0.014-0.006-0.018
			c-0.019,0.004-0.035,0.008-0.056,0.012c-0.026,0.041-0.073,0.098-0.139,0.172c-0.015-0.01-0.046-0.018-0.095-0.021l0.045,0.178
			l-0.057-0.006c-0.014-0.066-0.029-0.129-0.043-0.189c-0.035-0.015-0.055-0.043-0.062-0.082c0-0.004-0.002-0.008-0.006-0.012
			c-0.025,0-0.051,0.004-0.076,0.012c0.051,0.144,0.08,0.262,0.088,0.354l-0.061-0.004c-0.016-0.086-0.053-0.201-0.111-0.346
			c-0.062,0.005-0.12,0.008-0.172,0.012c-0.17,0.025-0.34,0.051-0.51,0.072l0.055,0.232l-0.039,0.006
			c-0.025-0.075-0.051-0.151-0.072-0.227c-0.068,0.002-0.141,0.01-0.211,0.021c0,0.016-0.004,0.027-0.016,0.039
			c-0.037,0-0.074,0-0.111,0l0.006,0.011c0.004,0.085-0.008,0.153-0.033,0.206l-0.039-0.034c-0.004-0.063-0.004-0.124,0-0.183
			c-0.248,0.011-0.457,0.073-0.627,0.183c-0.154,0.126-0.302,0.245-0.443,0.36c-0.232,0.067-0.426,0.227-0.576,0.482l-0.012-0.021
			l0.033,0.123c-0.007,0.01-0.015,0.021-0.021,0.032c-0.178,0.259-0.307,0.566-0.383,0.921c-0.055,0.293-0.065,0.568-0.028,0.826
			c-0.033,0.116-0.049,0.219-0.049,0.311c0.004,0.434,0.123,0.904,0.36,1.414c0.031,0.082,0.07,0.16,0.115,0.234
			c-0.012,0.05-0.023,0.103-0.039,0.154c0,0.007,0.004,0.015,0.012,0.023c0.207,0.354,0.472,0.73,0.793,1.125
			c0.266,0.334,0.847,0.98,1.742,1.941c1.265,1.338,2.328,2.804,3.189,4.4c0.052,0.103,0.105,0.204,0.16,0.305
			c0.134,0.196,0.267,0.393,0.404,0.594c0.297,0.422,0.953,1.351,1.971,2.79c0.88,1.253,1.34,1.948,1.381,2.085l0.006,0.039
			c0.029,0,0.053,0.004,0.072,0.012c0.177,0.029,0.297,0.148,0.359,0.354c0.004,0.014,0.029,0.106,0.078,0.272
			c0,0.162-0.121,0.262-0.361,0.299c-0.006,0.004-0.012,0.006-0.017,0.006c0.019,0.281,0.017,0.547-0.006,0.799
			c-0.091,1.191-0.585,1.86-1.479,2.008c-0.149,0.023-0.336,0-0.562-0.066c0.007,0.08,0.015,0.166,0.021,0.256
			c0.064,0.68,0.098,1.154,0.101,1.425c0,0.14,0,0.275,0,0.405c0.078,1.257,0.117,2.033,0.117,2.33
			c-0.013,0.195-0.025,0.391-0.044,0.588c0.025,0.266,0.054,0.656,0.083,1.17c0.104,1.502,0.092,3.309-0.033,5.42
			c-0.037,0.633-0.067,1.258-0.089,1.875c0.061,0.284,0.113,0.565,0.167,0.838c0.019,0.037,0.04,0.079,0.062,0.127
			c0.409,0.865,0.633,1.347,0.666,1.447c0.036,0.127,0.059,0.238,0.071,0.334c0.011,0.103,0.022,0.182,0.039,0.238l-0.117-0.022
			c-0.166-0.313-0.333-0.632-0.5-0.954c0.011,0.048,0.021,0.092,0.027,0.127c0.06,0.123,0.123,0.25,0.188,0.383
			c0.074,0.164,0.157,0.348,0.25,0.555c0.01,0.016,0.018,0.032,0.021,0.051c0.004,0.003,0.006,0.011,0.006,0.021
			c0.211,0.489,0.461,1.092,0.748,1.809c-0.021,0.033-0.074,0.033-0.16,0c-0.037-0.014-0.076-0.029-0.115-0.044
			c0.221,0.673,0.451,1.426,0.692,2.258l-0.116-0.005c-0.093-0.148-0.197-0.326-0.311-0.533c0.003,0.008,0.006,0.013,0.006,0.017
			l-0.123,0.022c0.074,0.162,0.133,0.303,0.178,0.421l-0.105-0.011c0.263,0.671,0.438,1.11,0.527,1.321
			c-0.021,0.029-0.072,0.027-0.15-0.006c-0.041-0.019-0.082-0.037-0.127-0.055c-0.092-0.281-0.272-0.722-0.543-1.321
			c0.011,0.125,0.021,0.264,0.033,0.417c0.113,0.236,0.221,0.455,0.32,0.654l0.934,3.084c0.019,0.055,0.033,0.111,0.049,0.166
			c0.109,0.348,0.127,0.627,0.057,0.838c-0.064-0.137-0.124-0.266-0.184-0.389c0.16,0.371,0.318,0.757,0.478,1.16
			c0.045,0.148,0.063,0.238,0.056,0.271c-0.011,0.022-0.041,0.046-0.095,0.072c-0.14-0.166-0.552-0.909-1.235-2.225
			c-0.008-0.014-0.018-0.031-0.027-0.049c0.035,0.261,0.08,0.535,0.133,0.82c0.006,0.033,0.012,0.072,0.016,0.116
			c0.012,0.011,0.022,0.024,0.033,0.039c0.027,0.044,0.057,0.091,0.09,0.139c0.783,1.175,1.217,1.899,1.297,2.169
			c0.041,0.129,0.061,0.211,0.058,0.244c-0.003,0.014-0.011,0.037-0.022,0.066l-0.111-0.018c-0.232-0.199-0.49-0.48-0.775-0.843
			c-0.082-0.102-0.164-0.21-0.25-0.321c0.041,0.159,0.08,0.313,0.117,0.461c0.146,0.207,0.253,0.361,0.316,0.465
			c0.021,0.033,0.037,0.065,0.049,0.09c0.004-0.093,0-0.176-0.012-0.25l0.077-0.017c0.017,0.122,0.009,0.263-0.021,0.422
			c0.012,0.04,0.013,0.069,0.006,0.089c-0.004,0.013-0.01,0.021-0.018,0.021c-0.004,0-0.008,0-0.012,0
			c-0.025,0.108-0.062,0.224-0.109,0.35c0.106,0.082,0.213,0.157,0.32,0.228c0.146,0.103,0.301,0.193,0.454,0.267
			c-0.01,0.04-0.024,0.081-0.044,0.121l0.062,0.123c-0.045,0.104-0.115,0.22-0.211,0.35c-0.06,0.08-0.127,0.162-0.205,0.244
			c-0.023,0.281-0.121,0.622-0.295,1.025c-0.125,0.3-0.273,0.588-0.443,0.865c-0.03,0.215-0.077,0.39-0.139,0.527
			c0.008-0.005,0.014-0.007,0.017-0.007c0.112-0.049,0.187-0.063,0.222-0.045c-0.188,0.529-0.457,1.272-0.804,2.229
			c0.019,0.271,0.037,0.508,0.056,0.711h-0.139c0.059,0.455,0.145,1.119,0.254,1.99c0.1,0.885-0.045,1.86-0.438,2.924
			c0,0.016-0.006,0.031-0.018,0.045c-0.288,0.211-0.6,0.531-0.932,0.959c-0.444,0.574-0.811,1.173-1.104,1.798
			c-0.247,0.536-0.364,0.948-0.35,1.237c-0.24,0.779-0.521,1.443-0.839,1.99c-0.049,0.186-0.1,0.344-0.147,0.473
			c-0.202,0.449-0.573,0.761-1.108,0.938c-0.334,0.222-0.689,0.366-1.07,0.433c-0.027,0.004-0.053,0.008-0.078,0.012
			c-0.004,0.082-0.008,0.158-0.012,0.232c-0.281,0.211-0.686,0.391-1.215,0.539c-0.576,0.158-1.215,0.262-1.914,0.311l-1.06-0.174
			c-3.757,0.175-7.321-1.25-10.694-4.275c-0.34-0.307-0.684-0.609-1.031-0.91c-1.995-0.283-3.541-2.797-4.645-7.539
			c-1.099-4.744-1.535-9.353-1.31-13.828c0.226-4.475,0.552-7.864,0.981-10.163c0.188-1.024,0.34-1.905,0.455-2.641
			c-0.045-0.575-0.09-1.239-0.133-1.992c-0.086-1.494-0.16-2.479-0.223-2.957c-0.104-0.731-0.471-2.746-1.098-6.04
			c-0.563-2.965-0.845-4.585-0.845-4.86c0-0.813,0.155-1.918,0.466-3.312c0.24-1.064,0.515-2.064,0.824-3.003
			c-0.008-0.06-0.016-0.112-0.025-0.158c-0.039,0.141-0.074,0.27-0.104,0.389l-0.022-0.018c0.017-0.14,0.035-0.275,0.058-0.404
			c-0.085,0.15-0.177,0.305-0.272,0.459l0.006-0.032c0.066-0.171,0.168-0.405,0.306-0.704c0.007-0.011,0.009-0.021,0.005-0.028
			c0.004-0.243,0.016-0.49,0.034-0.737c-0.048,0.063-0.095,0.123-0.14,0.182c-0.154,0.426-0.234,0.653-0.238,0.678l0.078,0.078
			l-0.101,0.016c-0.036-0.055-0.063-0.114-0.084-0.177c-0.01-0.034-0.008-0.093,0.007-0.178c-0.041,0.051-0.082,0.101-0.127,0.149
			c0.051-0.08,0.1-0.16,0.145-0.238c0.05-0.24,0.169-0.623,0.354-1.148c-0.004-0.007-0.007-0.013-0.011-0.021
			c-0.019,0.025-0.04,0.05-0.062,0.072l-0.012-0.022c-0.041,0.118-0.076,0.227-0.105,0.327l-0.055-0.021c0-0.012,0-0.025,0-0.039
			c-0.026,0.07-0.055,0.144-0.084,0.222c-0.014,0.085-0.025,0.165-0.033,0.238l-0.026-0.022c-0.004-0.011-0.006-0.02-0.006-0.027
			c-0.022,0.059-0.046,0.121-0.066,0.183h-0.062c0.039-0.193,0.102-0.433,0.183-0.721c0.074-0.428,0.22-0.922,0.438-1.481
			c-0.03-0.015-0.049-0.036-0.057-0.061c0.026-0.034,0.094-0.135,0.199-0.306c0.025-0.063,0.053-0.122,0.078-0.177
			c0.038-0.074,0.07-0.143,0.1-0.205c0.127-0.309,0.232-0.559,0.316-0.756c0.074-0.166,0.152-0.314,0.238-0.449
			c0.025-0.058,0.053-0.11,0.078-0.154c-0.063,0.066-0.125,0.12-0.185,0.16c-0.04-0.025-0.067-0.049-0.082-0.072
			c-0.026,0-0.046-0.003-0.062-0.01c-0.014-0.012-0.035-0.03-0.062-0.051c0.037-0.095,0.072-0.187,0.104-0.271l-0.016-0.022
			c0.021-0.048,0.047-0.093,0.076-0.133c0.049-0.115,0.098-0.219,0.15-0.316c-0.016-0.01-0.029-0.02-0.045-0.028
			c-0.06-0.044-0.092-0.068-0.1-0.071c0.1-0.248,0.197-0.462,0.295-0.644c-0.057-0.037-0.096-0.093-0.117-0.166
			c-0.041-0.127,0.008-0.342,0.145-0.645c-0.007,0-0.016,0.002-0.027,0.006c-0.09,0.014-0.135,0.011-0.139-0.011l-0.066-0.122
			c0.236-0.471,0.428-0.824,0.576-1.06c0.104-0.183,0.217-0.337,0.338-0.466c0.017-0.049,0.029-0.099,0.045-0.156
			c0-0.018,0.002-0.035,0.006-0.049c-0.004,0.007-0.01,0.012-0.017,0.016v0.002l-0.011,0.006c-0.023,0.025-0.042,0.051-0.062,0.078
			c0.013-0.029,0.025-0.059,0.039-0.084l-0.033-0.006c0.004-0.025,0.009-0.051,0.013-0.078c-0.022,0.049-0.048,0.096-0.078,0.139
			c-0.011,0.098-0.021,0.178-0.033,0.245l-0.038-0.006l-0.033-0.077v-0.006c-0.17,0.256-0.373,0.492-0.604,0.71l-0.028-0.028
			c0.008-0.121,0.031-0.256,0.071-0.404h-0.005c-0.053,0.008-0.085,0.004-0.1-0.012c-0.004-0.007-0.011-0.024-0.022-0.049
			c0.081-0.173,0.231-0.446,0.455-0.815c0.055-0.197,0.166-0.532,0.332-1.01c-0.003-0.023-0.003-0.041,0-0.056
			c-0.007-0.066-0.013-0.122-0.017-0.166l-0.006,0.011c-0.17,0.495-0.354,0.981-0.549,1.459c0.018-0.296,0.111-0.694,0.277-1.192
			c-0.066,0.113-0.133,0.213-0.2,0.294c-0.118,0.132-0.231,0.208-0.339,0.228c-0.059,0.011-0.102,0.004-0.127-0.023
			c-0.018-0.017-0.035-0.044-0.051-0.076c0.067-0.089,0.211-0.32,0.434-0.693c0.004-0.015,0.004-0.027,0-0.034
			c-0.125,0.085-0.259,0.141-0.398,0.167c-0.061,0.007-0.102,0-0.123-0.023c-0.012-0.013-0.022-0.037-0.039-0.066
			c0.049-0.108,0.181-0.277,0.396-0.51c0.058-0.063,0.108-0.121,0.149-0.172c-0.301,0.303-0.543,0.47-0.728,0.5
			c-0.055,0.01-0.09,0.01-0.104,0c-0.004-0.008-0.01-0.026-0.018-0.051c0.223-0.266,0.416-0.495,0.582-0.683
			c-0.004,0-0.008,0-0.011,0c-0.06,0.011-0.11,0.004-0.155-0.021c-0.029-0.014-0.062-0.037-0.1-0.067
			c0.092-0.076,0.181-0.15,0.266-0.215c-0.029-0.009-0.061-0.019-0.094-0.035c-0.203,0.182-0.42,0.348-0.65,0.5
			c0.291-0.248,0.561-0.531,0.812-0.848c-0.084,0.04-0.161,0.065-0.228,0.076c-0.059,0.011-0.113,0.008-0.162-0.011
			c-0.025-0.007-0.059-0.02-0.1-0.039l-0.006-0.05c0.061-0.022,0.125-0.053,0.195-0.094c-0.041-0.012-0.084-0.021-0.129-0.033
			v-0.051c0.226-0.062,0.474-0.224,0.744-0.488c-0.008-0.066-0.015-0.135-0.021-0.205c-0.156,0.203-0.295,0.314-0.416,0.334
			c-0.061,0.01-0.107,0.012-0.145,0.005c-0.021,0-0.037-0.004-0.057-0.011c0.018-0.031,0.053-0.089,0.104-0.178
			c-0.209,0.199-0.373,0.308-0.486,0.327c-0.088,0.015-0.11,0.003-0.066-0.034c0.063-0.05,0.127-0.101,0.188-0.148
			c-0.033,0.007-0.065,0.01-0.095,0.01c0.191-0.17,0.367-0.329,0.526-0.477c-0.052,0-0.097-0.01-0.134-0.033
			c0.164-0.232,0.311-0.441,0.443-0.627c0-0.019,0-0.035-0.004-0.049c-0.211,0.158-0.344,0.242-0.396,0.248
			c-0.067,0.012-0.196,0.025-0.39,0.039c-0.194,0.012-0.299,0.016-0.315,0.012c0-0.018,0.041-0.043,0.123-0.072
			c0.278-0.07,0.588-0.231,0.933-0.482c-0.004-0.022-0.011-0.045-0.019-0.066c-0.207,0.096-0.45,0.192-0.728,0.287l-0.01-0.043
			c0.077-0.033,0.316-0.166,0.715-0.399c-0.008-0.051-0.018-0.109-0.033-0.172c-0.227,0.1-0.407,0.163-0.549,0.188
			c-0.016,0.004-0.063-0.014-0.145-0.055c-0.049-0.026-0.085-0.044-0.111-0.055c-0.181,0.022-0.275-0.008-0.283-0.089
			c0.271-0.049,0.597-0.198,0.978-0.449c-0.069,0.003-0.147,0.01-0.231,0.017c-0.278,0.025-0.438,0.031-0.478,0.016
			c-0.004-0.014,0-0.029,0.01-0.044c-0.092-0.006-0.174-0.016-0.243-0.027c-0.056-0.011-0.13-0.045-0.222-0.1l-0.012-0.055
			l0.045-0.011c0.073,0.004,0.362-0.083,0.871-0.261c-0.146,0.022-0.285,0.028-0.423,0.017c-0.073,0.011-0.16,0.022-0.262,0.033
			c-0.15,0.019-0.231,0.026-0.244,0.022c0.281-0.099,0.535-0.217,0.76-0.354c-0.103,0.007-0.202,0.007-0.299,0
			c-0.357-0.018-0.549-0.025-0.569-0.022c0.121-0.03,0.278-0.06,0.471-0.094c-0.051-0.007-0.101-0.015-0.149-0.022
			c-0.192,0.067-0.352,0.115-0.478,0.144c0.007-0.03,0.045-0.063,0.111-0.1c0.054-0.026,0.116-0.053,0.188-0.083
			c-0.008-0.004-0.014-0.005-0.018-0.005c0.012-0.004,0.021-0.004,0.033,0c0.065-0.03,0.137-0.062,0.211-0.095
			c-0.004-0.004-0.01-0.004-0.018,0c-0.229-0.026-0.404-0.087-0.521-0.183c-0.143,0.004-0.23,0-0.268-0.011
			c-0.014-0.055-0.021-0.096-0.021-0.122c0.228,0.06,0.556-0.009,0.981-0.205c-0.156-0.055-0.246-0.12-0.272-0.194
			c-0.003-0.022-0.005-0.037-0.005-0.044c-0.026-0.003-0.051-0.005-0.072-0.005c-0.062,0.018-0.126,0.035-0.188,0.05
			c0.047-0.015,0.094-0.032,0.139-0.05c-0.112-0.011-0.186-0.021-0.223-0.027v-0.05c0.181-0.024,0.354-0.044,0.521-0.062
			c0.151-0.067,0.298-0.132,0.438-0.194c-0.233-0.045-0.416-0.065-0.549-0.062l0.01-0.044c0.031,0,0.059,0,0.084,0
			c-0.156-0.033-0.299-0.07-0.428-0.11c0.152-0.082,0.328-0.141,0.527-0.178c-0.443-0.189-0.682-0.326-0.711-0.41
			c-0.025-0.089-0.014-0.119,0.034-0.089c0.014,0.003,0.036,0.003,0.065,0c-0.029-0.026-0.058-0.05-0.082-0.072
			c0.088-0.004,0.174-0.005,0.254-0.005c0.03-0.015,0.061-0.024,0.09-0.028c-0.004-0.007-0.008-0.015-0.012-0.022
			c0.014,0.008,0.026,0.012,0.033,0.012c0.152-0.041,0.294-0.075,0.428-0.1c-0.015-0.008-0.029-0.015-0.045-0.022
			c-0.324-0.171-0.507-0.26-0.543-0.267c0.004-0.023,0.018-0.043,0.038-0.061c-0.058-0.042-0.093-0.063-0.104-0.067l0.018-0.034
			c0.139-0.036,0.305-0.03,0.492,0.023c-0.303-0.304-0.467-0.5-0.492-0.589c-0.02-0.056-0.025-0.088-0.018-0.1
			c0.015-0.004,0.025-0.015,0.033-0.033c0.191,0.092,0.43,0.246,0.711,0.46c-0.112-0.106-0.239-0.232-0.383-0.377
			c0.194,0.122,0.438,0.29,0.73,0.505c0.005-0.022,0.007-0.041,0.011-0.056c-0.284-0.258-0.481-0.43-0.588-0.515l0.028-0.044
			c0.078-0.004,0.181,0.028,0.311,0.094c-0.066-0.074-0.121-0.146-0.167-0.217c0.048,0.019,0.099,0.041,0.15,0.067
			c-0.166-0.142-0.257-0.23-0.267-0.267c-0.019-0.06-0.026-0.094-0.022-0.105c0.012-0.004,0.024-0.015,0.039-0.034
			c0.19,0.066,0.411,0.199,0.672,0.399c0-0.018,0.002-0.033,0.006-0.044c-0.297-0.233-0.483-0.416-0.562-0.549
			c0.156,0.062,0.358,0.186,0.61,0.372c0-0.005,0.001-0.009,0.005-0.012c-0.14-0.13-0.277-0.281-0.41-0.455
			c0.013-0.023,0.033-0.043,0.062-0.062l0.045-0.033c0.089,0.048,0.213,0.131,0.371,0.249c0.011-0.029,0.019-0.059,0.022-0.088
			c0-0.007,0-0.013,0-0.017c-0.012-0.034-0.016-0.111-0.012-0.233c-0.086-0.082-0.133-0.139-0.145-0.172
			c-0.026-0.089-0.018-0.119,0.027-0.089c0.077,0.004,0.116,0.002,0.116-0.005c-0.056-0.082-0.077-0.151-0.062-0.206
			c0.015,0,0.045,0.007,0.089,0.022c0.004,0.004,0.01,0.007,0.017,0.011c0.004-0.019,0.006-0.03,0.006-0.034l0.09-0.011
			c-0.012-0.026-0.021-0.048-0.027-0.067c-0.016-0.063-0.023-0.1-0.028-0.111c0-0.007,0.005-0.026,0.011-0.055l0.058-0.012
			c0.019,0.041,0.092,0.173,0.221,0.399c0.048-0.074,0.099-0.151,0.149-0.233c-0.051-0.099-0.088-0.188-0.11-0.266
			c0.052,0.025,0.103,0.076,0.156,0.15c0.018-0.193,0.034-0.39,0.049-0.594l-0.017-0.05c-0.041-0.003-0.032-0.039,0.027-0.105
			c0.045,0.026,0.1,0.087,0.166,0.183c0.045-0.284,0.096-0.619,0.155-1.004l0.05-0.011c0.033,0.23,0.062,0.442,0.084,0.638
			c0.018-0.055,0.04-0.101,0.061-0.138c-0.008-0.167-0.021-0.287-0.045-0.361c-0.002-0.022-0.013-0.048-0.032-0.078
			c0-0.029,0.018-0.085,0.051-0.166c0.03,0.011,0.063,0.031,0.101,0.061c-0.029-0.136-0.055-0.249-0.072-0.338
			C61.148,32.859,61.016,32.667,60.872,32.449L60.872,32.449z M60.322,35.628c0.004-0.003,0.008-0.008,0.012-0.014
			c-0.004,0.005-0.008,0.008-0.012,0.008V35.628z M60.328,35.473c0.016,0.018,0.029,0.037,0.045,0.055
			c0.012-0.022,0.021-0.042,0.033-0.061c-0.012-0.022-0.023-0.048-0.039-0.078c-0.02-0.033-0.033-0.063-0.045-0.088
			C60.326,35.33,60.328,35.388,60.328,35.473z M64.373,30.807c-0.037,0.011-0.074,0.025-0.111,0.039
			c0.051,0,0.102,0.004,0.149,0.011c0.006-0.015,0.015-0.027,0.022-0.039C64.415,30.814,64.395,30.812,64.373,30.807z
			 M62.569,31.645c-0.253-0.126-0.455-0.206-0.611-0.239c0.231,0.096,0.431,0.178,0.601,0.244
			C62.562,31.646,62.566,31.645,62.569,31.645z M62.665,31.695c-0.017-0.007-0.03-0.011-0.051-0.011
			c0.041,0.011,0.08,0.024,0.116,0.039c-0.008-0.004-0.014-0.008-0.016-0.012C62.699,31.708,62.682,31.702,62.665,31.695z
			 M59.457,39.051c0.104-0.011,0.205-0.022,0.305-0.034c-0.002-0.022-0.008-0.044-0.016-0.066
			C59.654,38.984,59.557,39.017,59.457,39.051z M59.352,40.021c-0.004,0-0.006,0.002-0.006,0.005c0-0.003,0.004-0.003,0.012,0
			L59.352,40.021z M59.152,39.755c0.191-0.026,0.426-0.068,0.699-0.128c-0.004-0.022-0.008-0.043-0.012-0.061
			c-0.07-0.007-0.138-0.016-0.199-0.028C59.396,39.657,59.234,39.729,59.152,39.755z M59.969,40.299
			c-0.067,0.048-0.133,0.09-0.195,0.127l0.217-0.022C59.982,40.367,59.975,40.332,59.969,40.299L59.969,40.299z M74.357,30.907
			c0.066,0.063,0.107,0.1,0.121,0.111l-0.01-0.028l-0.147-0.116C74.332,30.883,74.344,30.894,74.357,30.907z M75.229,30.902
			c0.049,0.04,0.09,0.075,0.127,0.105c-0.01-0.023-0.02-0.041-0.027-0.056C75.283,30.922,75.25,30.905,75.229,30.902z
			 M75.372,31.117l0.022,0.039c0.019,0.027,0.076,0.08,0.172,0.162c0.004,0,0.008,0.001,0.012,0.005
			c-0.041-0.056-0.076-0.103-0.105-0.144C75.439,31.16,75.406,31.14,75.372,31.117z M79.838,36.205h-0.006l0.012,0.005
			L79.838,36.205z M84.793,45.974l0.021-0.023c0-0.044-0.002-0.098-0.006-0.16c-0.016,0.04-0.033,0.079-0.056,0.116
			C84.768,45.944,84.781,45.965,84.793,45.974z M82.756,46.783c0.004,0,0.008,0.002,0.012,0.006
			c-0.004-0.004-0.006-0.008-0.006-0.011L82.756,46.783L82.756,46.783z M82.141,46.861v0.006c0.01,0.029,0.018,0.055,0.021,0.078
			h0.021c0.011-0.03,0.021-0.061,0.028-0.09C82.189,46.855,82.165,46.857,82.141,46.861L82.141,46.861z M81.652,46.945
			c0.008,0.039,0.011,0.074,0.011,0.105c0.033-0.052,0.065-0.113,0.095-0.183c-0.029-0.004-0.062-0.004-0.095,0l-0.005,0.006
			c-0.004,0.003,0,0.027,0.011,0.072H81.652L81.652,46.945z M86.915,94.328c-0.021-0.125-0.048-0.25-0.078-0.377
			c0.009,0.075,0.015,0.149,0.019,0.223c0.004,0.021,0.006,0.046,0.006,0.072C86.879,94.271,86.898,94.299,86.915,94.328z
			 M87.256,96.025c-0.016-0.072-0.031-0.145-0.045-0.215c-0.027-0.037-0.057-0.078-0.09-0.123c0.033,0.109,0.068,0.221,0.105,0.338
			H87.256z M87.154,96.01c-0.066-0.17-0.133-0.354-0.199-0.549c0.007,0.108,0.014,0.209,0.021,0.305
			C87.037,95.844,87.096,95.926,87.154,96.01z M87.256,97.197c0.15,0.141,0.301,0.274,0.448,0.398
			c0.037-0.099,0.067-0.195,0.089-0.287c-0.029,0.006-0.068,0.013-0.117,0.021c-0.107-0.078-0.262-0.211-0.465-0.399
			C87.229,97.023,87.244,97.111,87.256,97.197L87.256,97.197z M87.35,98.493c-0.017,0.034-0.035,0.068-0.058,0.102
			c0.004,0.014,0.007,0.028,0.007,0.043c0.162-0.082,0.313-0.146,0.454-0.193c-0.099-0.029-0.204-0.07-0.315-0.123
			C87.412,98.379,87.383,98.436,87.35,98.493z M87.271,98.395c0.029-0.041,0.056-0.079,0.078-0.115
			c-0.033-0.02-0.066-0.035-0.101-0.051c0.004,0.011,0.007,0.024,0.011,0.039C87.264,98.312,87.268,98.354,87.271,98.395z
			 M87.416,100.475c0.006-0.01,0.014-0.02,0.021-0.028c0.232-0.431,0.387-0.791,0.461-1.076l0.017-0.045
			c-0.163,0.196-0.327,0.416-0.493,0.66C87.43,100.168,87.428,100.331,87.416,100.475z M86.684,103.443
			c0.045-0.131,0.082-0.24,0.11-0.334c-0.04,0.037-0.079,0.082-0.116,0.135C86.678,103.312,86.68,103.381,86.684,103.443z
			 M86.639,104.785l-0.133-0.432c0.004,0.021,0.004,0.041,0,0.061c0.012,0.018,0.018,0.037,0.021,0.055
			c0.031,0.1,0.062,0.221,0.096,0.361L86.639,104.785z M86.328,107.648c0.018,0.174,0.045,0.385,0.078,0.631
			c0.221-0.191,0.33-0.646,0.326-1.363c-0.059,0.166-0.156,0.357-0.293,0.576C86.398,107.54,86.361,107.593,86.328,107.648z
			 M85.827,108.659c-0.003,0.013-0.001,0.048,0.006,0.104l0.007-0.006c0.008-0.057,0.012-0.111,0.012-0.167
			C85.844,108.613,85.836,108.635,85.827,108.659z"/>
	</g>
	<g id="Layer_4_2_">
		<path id="path8_2_" fill="#010101" d="M105.998,19.619c0.119,0.066,0.223,0.134,0.314,0.199l0.017-0.044
			c0.052,0.06,0.099,0.115,0.14,0.167c0.114,0.1,0.2,0.206,0.26,0.316c0.015,0.026,0.029,0.058,0.045,0.094
			c0.125,0.208,0.287,0.566,0.488,1.077c0,0.011,0.032,0.127,0.1,0.35c0.166,0.207,0.373,0.455,0.621,0.743
			c0.195,0.21,0.361,0.468,0.498,0.771c0.008,0.018,0.022,0.044,0.045,0.077c0.074,0.108,0.128,0.198,0.16,0.272
			c0.013,0.045,0.024,0.095,0.039,0.15c0.057,0.044,0.136,0.114,0.24,0.21c0.172,0.159,0.299,0.282,0.377,0.367
			c0.01,0.018,0.027,0.045,0.049,0.078c0.045,0.07,0.102,0.185,0.172,0.344c0.13,0.23,0.211,0.363,0.244,0.4
			c0.029,0.036,0.088,0.079,0.172,0.127c0.093,0.048,0.152,0.087,0.178,0.117c0.008,0.008,0.132,0.15,0.372,0.427
			c0.181,0.345,0.12,0.647-0.183,0.91c-0.164,0.152-0.351,0.161-0.562,0.028c-0.085-0.011-0.187-0.045-0.306-0.1
			c-0.11-0.074-0.221-0.176-0.332-0.305c-0.049-0.052-0.168-0.211-0.355-0.478c0.018,0.137,0.047,0.338,0.088,0.604
			c0.051,0.241,0.116,0.434,0.194,0.578c0.181,0.348,0.278,0.542,0.294,0.582c0.096,0.315,0.023,0.575-0.216,0.782
			c-0.315,0.282-0.638,0.232-0.972-0.149c-0.162-0.184-0.27-0.34-0.322-0.466c-0.014-0.048-0.059-0.281-0.133-0.698
			c-0.028-0.104-0.063-0.2-0.104-0.289c-0.041-0.033-0.076-0.068-0.104-0.105c-0.176,1.542-0.64,2.837-1.394,3.883
			c0.037,0.015,0.07,0.032,0.101,0.05c0.207,0.133,0.353,0.243,0.438,0.328c0.062,0.062,0.098,0.112,0.105,0.149
			c0.025,0.089-0.017,0.209-0.127,0.361c-0.082,0.008-0.213-0.021-0.396-0.083c-0.176-0.067-0.297-0.1-0.36-0.1l0.09,0.127
			c0.17,0.074,0.244,0.202,0.222,0.383c0.473,0.103,0.76,0.205,0.86,0.305c0.073,0.074,0.1,0.121,0.078,0.139
			c-0.009,0.007-0.025,0.007-0.051,0c-0.311,0-0.64-0.039-0.988-0.117c-0.018,0.052-0.039,0.108-0.065,0.167
			c0.235,0.089,0.425,0.163,0.565,0.222c0.348-0.063,0.537-0.08,0.565-0.05c0.078,0.073,0.117,0.114,0.117,0.122
			c0,0.008-0.005,0.024-0.011,0.05l0.017,0.011c0,0.026-0.037,0.076-0.111,0.15c-0.022,0.025-0.163,0.075-0.427,0.149
			c-0.326,0.089-0.583,0.176-0.771,0.261l0.088,0.022c0.06-0.038,0.134-0.05,0.223-0.039c0.055,0.01,0.137,0.033,0.244,0.066
			c0.014,0.063,0.003,0.137-0.034,0.222c-0.003,0-0.052,0.018-0.144,0.055c-0.041,0.025-0.06,0.048-0.057,0.067
			c0.016,0.047,0.057,0.157,0.123,0.327c0.018,0,0.036,0.002,0.055,0.005c0.004-0.01,0.014-0.02,0.027-0.027
			c0.521-0.51,0.823-0.754,0.904-0.732c-0.041,0.081-0.045,0.144-0.012,0.188c0.029,0.041,0.037,0.08,0.022,0.117
			c-0.022,0.07-0.124,0.209-0.306,0.416c0.082-0.007,0.164-0.014,0.244-0.022c0,0.045-0.037,0.133-0.115,0.262
			c-0.061,0.11-0.128,0.213-0.206,0.305l-0.333,0.327c0.004,0.037,0.01,0.072,0.018,0.105c0.202-0.188,0.379-0.32,0.526-0.394
			c0.003,0.007,0.024,0.057,0.065,0.15c0.026,0.068,0.047,0.108,0.062,0.123c-0.074,0.081-0.17,0.211-0.288,0.388
			c-0.023,0.078-0.045,0.154-0.066,0.228c0.01,0.015,0.021,0.035,0.027,0.061c0.02,0.07-0.003,0.218-0.066,0.444
			c0.063-0.088,0.131-0.182,0.201-0.283l0.088,0.089c-0.053,0.066-0.168,0.302-0.345,0.709c0.007-0.011,0.019-0.023,0.033-0.039
			c0.074-0.074,0.13-0.113,0.167-0.116l0.033,0.022l0.056,0.055c-0.011,0.07-0.024,0.148-0.039,0.233
			c0.171-0.417,0.267-0.712,0.289-0.882l0.022,0.022c0.076,0.218-0.039,0.718-0.35,1.498c-0.06,0.148-0.121,0.289-0.184,0.422
			c-0.012,0.055-0.021,0.109-0.033,0.161c0.077-0.03,0.156-0.041,0.238-0.034c0.092-0.229,0.191-0.44,0.299-0.633
			c-0.062,0.196-0.128,0.416-0.193,0.66c0.035,0.007,0.071,0.022,0.104,0.044c-0.015,0.019-0.032,0.045-0.05,0.078
			c0.011,0.015,0.029,0.036,0.055,0.061c-0.02,0.111-0.039,0.244-0.061,0.399c0.047-0.059,0.098-0.114,0.149-0.166
			c0.015,0.014,0.031,0.033,0.05,0.055c0.2-0.517,0.416-1.009,0.649-1.475c0.022,0.007,0.046,0.02,0.071,0.038
			c0.016,0.015,0.025,0.028,0.029,0.039c-0.057,0.2-0.119,0.418-0.189,0.655c0.015,0,0.027,0.002,0.039,0.005
			c0.1,0.026,0.191,0.079,0.271,0.161c0.012,0.01,0.008,0.048-0.011,0.111h0.006c-0.082,0.529-0.31,1.341-0.683,2.435
			c-0.01,0.037-0.021,0.074-0.027,0.111c0.374-0.729,0.753-1.376,1.137-1.942l-0.232,0.122c-0.008-0.018,0.007-0.066,0.044-0.144
			l0.061-0.105c0.05-0.007,0.115-0.011,0.2-0.011c0.089,0.004,0.148,0.013,0.184,0.028c0.032,0.163-0.183,0.828-0.645,1.997
			c0.008,0.145-0.014,0.37-0.066,0.677l0.028,0.011c0,0.019,0,0.041,0,0.067c0.004-0.014,0.009-0.026,0.017-0.033l0.101,0.011
			c-0.037,0.119-0.074,0.23-0.111,0.333c-0.004,0.079-0.005,0.162-0.005,0.25c0.008-0.018,0.02-0.037,0.039-0.055l0.061,0.017
			c-0.037,0.107-0.078,0.23-0.121,0.372c-0.022,0.274-0.057,0.582-0.101,0.927c0.044-0.079,0.089-0.155,0.134-0.229
			c0.166-0.443,0.328-0.818,0.487-1.126c0.071,0.027,0.13,0.065,0.179,0.117c-0.06,0.233-0.133,0.541-0.218,0.927l0.122-0.233
			l0.061,0.038c-0.1,0.252-0.226,0.607-0.377,1.064c-0.041,0.174-0.08,0.357-0.121,0.545c0.043-0.096,0.088-0.182,0.133-0.256
			c0.099-0.218,0.229-0.51,0.388-0.875l0.101,0.01c-0.041,0.091-0.08,0.185-0.117,0.277c0.07-0.078,0.132-0.133,0.184-0.166
			l0.012-0.027l0.061-0.023c-0.004,0.008-0.006,0.014-0.006,0.018c0.063-0.018,0.121,0,0.173,0.056
			c-0.138,0.38-0.388,1.074-0.748,2.079c0.034,0.107,0.065,0.217,0.101,0.328c0.039-0.095,0.078-0.188,0.115-0.277
			c0.074-0.315,0.117-0.483,0.128-0.505c0.067-0.163,0.12-0.265,0.161-0.306l0.05,0.028c0.032-0.081,0.056-0.144,0.066-0.183
			c0.014,0.014,0.028,0.014,0.044,0c0.055,0.059,0.107,0.102,0.154,0.127c-0.051,0.219-0.185,0.644-0.398,1.281
			c-0.037,0.227-0.062,0.477-0.078,0.755c0.033,0.14,0.07,0.277,0.111,0.41c0.021,0.104,0.044,0.247,0.066,0.433
			c0.104-0.414,0.215-0.743,0.332-0.986c0.022,0.132,0.032,0.271,0.028,0.415l0.044,0.006c-0.014,0.033-0.031,0.072-0.05,0.116
			c-0.013,0.252-0.044,0.529-0.101,0.832c-0.041,0.203-0.09,0.404-0.149,0.605c0.751,1.247,1.014,2.46,0.788,3.644
			c-0.223,1.194-0.276,2.176-0.161,2.946c0.731,1.225,0.853,2.311,0.36,3.262c0.107,0.406-0.438,0.893-1.637,1.459
			c-1.197,0.561-2.966,1.474-5.303,2.74c-0.604,0.074-1.25,0.109-1.941,0.105c-0.521,0-1.059-0.022-1.614-0.067
			c0.052,0.035,0.094,0.068,0.128,0.101c0.081,0.082,0.127,0.129,0.139,0.145c0.003,0.014,0.001,0.035-0.006,0.061h-0.072
			c-0.159-0.115-0.331-0.228-0.516-0.339c-0.392-0.037-0.79-0.081-1.193-0.132c0.171,0.073,0.33,0.146,0.482,0.215l0.061,0.089
			l-0.055,0.056c-0.214-0.052-0.583-0.164-1.104-0.338l-0.082,0.016c-0.029-0.022-0.059-0.04-0.084-0.055
			c-0.1,0.007-0.205,0.014-0.311,0.021c0.125,0.053,0.258,0.112,0.398,0.178l0.084,0.117l-0.051,0.055
			c-0.285-0.085-0.596-0.189-0.933-0.311c-0.144,0.007-0.288,0.015-0.433,0.023c0.459,0.158,0.701,0.25,0.728,0.276
			c0.074,0.074,0.106,0.116,0.095,0.128c-0.008,0.008-0.02,0.008-0.039,0c-0.203-0.045-0.617-0.172-1.242-0.383
			c-0.24,0.013-0.48,0.025-0.717,0.033c0.358,0.166,0.784,0.366,1.276,0.6l-0.101,0.071c-0.537-0.132-1.15-0.349-1.842-0.648
			c-0.045,0-0.093,0-0.145,0c0.021,0.036,0.049,0.071,0.078,0.104c0.113,0.165,0.184,0.268,0.205,0.312
			c-0.514-0.175-0.924-0.312-1.227-0.416c-0.222,0-0.439-0.003-0.654-0.005c0.347,0.154,0.539,0.25,0.576,0.287
			c0.077,0.078,0.121,0.123,0.129,0.134c0,0.011-0.002,0.032-0.006,0.061c-0.363-0.089-1.111-0.274-2.246-0.554
			c-0.017-0.004-0.035-0.01-0.058-0.018c-0.519-0.045-0.987-0.098-1.414-0.16c0.108,0.047,0.183,0.092,0.224,0.133
			c0.072,0.073,0.109,0.115,0.109,0.122c-0.003,0.01-0.014,0.032-0.033,0.066l-0.082,0.089c-0.578-0.211-1.418-0.574-2.523-1.088
			c-0.938-0.428-1.721-0.744-2.354-0.943c0.069,0.144,0.069,0.254,0,0.328c-0.449-0.097-0.939-0.327-1.476-0.688
			c0.014,0.04,0.04,0.077,0.077,0.111c0.134,0.129,0.199,0.241,0.199,0.338c-0.056,0.04-0.117,0.075-0.184,0.1
			c-0.066,0.022-0.102,0.037-0.105,0.045c-0.172-0.144-0.43-0.318-0.771-0.521c-0.187-0.116-0.34-0.205-0.454-0.268
			c-0.037,0-0.074,0-0.109,0c0.137,0.104,0.33,0.231,0.582,0.378c0.248,0.193,0.373,0.431,0.377,0.716
			c-0.145,0.033-0.268,0.014-0.371-0.056c-0.107-0.093-0.204-0.165-0.289-0.216l0.016,0.055c0.066,0.096,0.206,0.229,0.417,0.395
			c0.167,0.154,0.224,0.316,0.172,0.482c-0.047,0.019-0.097,0.033-0.149,0.044c-0.049,0-0.075,0.003-0.084,0.011
			c-0.19-0.191-0.478-0.385-0.858-0.576c-0.506-0.255-0.81-0.416-0.91-0.482l-0.049,0.055c0.077,0.082,0.347,0.331,0.804,0.748
			c0.391,0.408,0.528,0.672,0.41,0.795c-0.076,0.079-0.093,0.181-0.044,0.311c0.045,0.133,0.026,0.237-0.05,0.311
			c-0.075,0.073-0.123,0.106-0.145,0.094c-0.015,0-0.026-0.006-0.033-0.016c-0.155-0.135-0.321-0.289-0.5-0.467l-0.021,0.011
			c0.004,0.037,0.021,0.102,0.051,0.194c0.019,0.09,0.004,0.157-0.045,0.205c-0.08,0.079-0.143,0.112-0.183,0.1l-0.14-0.1
			c-0.189-0.217-0.432-0.567-0.727-1.049l-0.078-0.043c0.037,0.117,0.139,0.388,0.305,0.814c0.131,0.381,0.158,0.61,0.084,0.684
			c-0.073,0.077-0.125,0.111-0.149,0.1c-0.011,0-0.019-0.006-0.021-0.018c0.01,0.033-0.043-0.008-0.156-0.121
			c-0.145-0.142-0.279-0.311-0.404-0.512l-0.014,0.027c0.066,0.133,0.109,0.226,0.129,0.283c0.039,0.166,0.01,0.298-0.09,0.398
			c-0.074,0.074-0.123,0.106-0.149,0.095c-0.015-0.002-0.026-0.01-0.034-0.022c-0.121-0.1-0.236-0.201-0.344-0.305
			c-0.145-0.149-0.282-0.371-0.416-0.672c-0.129-0.299-0.208-0.463-0.238-0.493c-0.078-0.073-0.125-0.103-0.144-0.083
			c-0.009,0.007-0.009,0.026-0.007,0.055c0.041,0.1,0.201,0.455,0.479,1.066c0.217,0.59,0.24,0.974,0.066,1.146
			c-0.07,0.071-0.127,0.109-0.166,0.117l-0.067,0.006l-0.2-0.128c-0.121-0.236-0.268-0.599-0.438-1.087
			c-0.178-0.497-0.318-0.849-0.422-1.06c0.119,0.473,0.18,0.719,0.184,0.737c0.059,0.352,0.04,0.578-0.057,0.678
			c-0.074,0.07-0.135,0.105-0.184,0.105h-0.07c0.021,0.045-0.028,0.005-0.15-0.117c-0.115-0.115-0.275-0.457-0.482-1.026
			c-0.166-0.482-0.27-0.82-0.311-1.015c-0.082,0.129-0.064,0.42,0.049,0.871c0.104,0.422,0.064,0.727-0.121,0.915
			c-0.074,0.069-0.14,0.108-0.199,0.116l-0.084-0.006c0.013,0.041-0.043,0.003-0.16-0.115c-0.119-0.123-0.235-0.442-0.35-0.961
			c-0.136-0.617-0.214-0.947-0.232-0.986l-0.033,0.039c0,0.287-0.014,0.621-0.039,0.998c-0.041,0.522-0.096,0.813-0.161,0.876
			c-0.071,0.075-0.129,0.12-0.178,0.139l-0.089,0.022l-0.194-0.117c-0.06-0.118-0.092-0.379-0.101-0.781
			c0-0.016,0.004-0.298,0.013-0.85c-0.146,0.19-0.249,0.555-0.312,1.1c-0.033,0.276-0.055,0.535-0.065,0.776
			c-0.103,0.102-0.224,0.13-0.361,0.077c-0.069-0.029-0.134-0.074-0.192-0.133c-0.086-0.086-0.133-0.44-0.14-1.065
			c0.007-0.636,0.007-0.981,0-1.037c-0.008,0.007-0.053,0.286-0.133,0.837c-0.082,0.51-0.151,0.795-0.211,0.855
			c-0.106,0.108-0.233,0.14-0.378,0.1c-0.096-0.029-0.166-0.066-0.21-0.111c-0.017-0.016-0.084-0.227-0.205-0.633
			c-0.142-0.489-0.261-0.952-0.361-1.393c-0.237-1.094-0.298-1.837-0.184-2.229c-0.692-1.051-1.041-2.249-1.048-3.596
			c-0.014-1.672,0.464-3.211,1.437-4.621c0.897-1.305,1.966-2.121,3.201-2.451c0.071-0.116,0.131-0.231,0.185-0.35
			c0.088-0.259,0.146-0.402,0.176-0.428l0.051,0.012c-0.012,0.092-0.083,0.299-0.217,0.621c-0.014,0.037-0.031,0.074-0.049,0.111
			c0.033-0.007,0.066-0.014,0.1-0.023c0.081-0.099,0.17-0.206,0.266-0.32c0.262-0.337,0.451-0.544,0.566-0.622
			c-0.104,0.262-0.205,0.495-0.305,0.699l0.748-0.749l0.095-0.055l-0.039,0.255c-0.147,0.167-0.286,0.327-0.416,0.481
			c0.155-0.125,0.28-0.22,0.378-0.282c0.145-0.211,0.326-0.351,0.549-0.421c0.2,0.2,0.4,0.319,0.604,0.354
			c0.004-0.007,0.011-0.008,0.019-0.004v0.004c0.106,0.016,0.215,0.005,0.321-0.032c0.007-0.003,0.107-0.05,0.3-0.139
			c0.087-0.04,0.151-0.042,0.188-0.005c0.072,0.074,0.086,0.131,0.037,0.172c-0.018,0.01-0.047,0.019-0.088,0.027
			c-0.037,0.012-0.305,0.086-0.805,0.227l0.05,0.023c0.448,0.088,0.765,0.129,0.948,0.121c-0.034,0.082-0.109,0.146-0.227,0.195
			c-0.062,0.033-0.172,0.082-0.328,0.148h0.11c0.019-0.004,0.072-0.002,0.161,0.006c0.152-0.021,0.309-0.047,0.473-0.072
			l-0.022,0.084c-0.022,0.006-0.044,0.015-0.067,0.027c0.211,0.019,0.361,0.033,0.45,0.045c0.515-0.075,0.87-0.069,1.071,0.021
			c-0.245,0.056-0.705,0.17-1.383,0.344h0.006c0.318-0.054,0.689-0.132,1.115-0.232c0.86-0.211,1.315-0.291,1.364-0.238
			c0.021,0.021,0.089,0.047,0.199,0.076c0.115,0.03,0.179,0.054,0.194,0.072c0.076,0.074,0.101,0.125,0.07,0.15
			c-0.021,0.019-0.088,0.08-0.199,0.184c-0.1,0.037-0.187,0.073-0.26,0.11c0.096,0.004,0.18,0.011,0.25,0.022
			c0.098-0.029,0.193-0.052,0.281-0.072c0.37-0.089,0.587-0.104,0.65-0.045c0.074,0.078,0.099,0.129,0.076,0.15
			c-0.019,0.015-0.065,0.054-0.139,0.117c-0.011,0.003-0.21,0.08-0.594,0.232c-0.007,0.004-0.014,0.008-0.018,0.012
			c0.097-0.026,0.192-0.046,0.289-0.062c0.584-0.196,1.019-0.338,1.303-0.426c0.652-0.204,1.076-0.206,1.275-0.006
			c0.026,0.025,0.09,0.046,0.189,0.066c0.104,0.022,0.166,0.045,0.188,0.066c0.073,0.074,0.104,0.115,0.09,0.123
			c-0.008,0.007-0.021,0.004-0.039-0.006v0.033c-0.012,0.033-0.053,0.086-0.127,0.16l-0.396,0.111
			c-0.276,0.058-0.451,0.052-0.521-0.017c-0.037-0.037-0.325,0.019-0.865,0.167c0.322-0.024,0.666-0.055,1.031-0.096
			c0.603-0.067,1.485-0.168,2.651-0.305c0.244-0.022,0.478-0.041,0.704-0.055c1.243-0.064,2.893,0.144,4.954,0.621
			c2.063,0.476,3.594,0.779,4.593,0.91c0.998,0.125,1.893,0.278,2.686,0.459c-0.541-0.614-0.938-1.272-1.193-1.975
			c-0.264-0.705-0.406-1.845-0.434-3.416c-0.025-1.568,0.086-2.82,0.334-3.756c0.248-0.936,0.294-2.025,0.144-3.268
			c-0.144-1.238-0.174-2.148-0.089-2.729c0.085-0.584-0.023-1.14-0.327-1.665c-1.942-5.435-2.06-8.412-0.356-8.93
			c-0.021-0.263-0.017-0.501,0.013-0.716c-0.044-0.078-0.087-0.177-0.128-0.3c0-0.007-0.002-0.016-0.006-0.028
			c-0.045-0.159-0.06-0.311-0.045-0.455c-0.209-0.532-0.277-1.172-0.205-1.919c0.086-0.813,0.311-1.581,0.678-2.302
			c0.24-0.458,0.488-0.81,0.743-1.054l0.017-0.039l0.022,0.012c0.132-0.126,0.273-0.218,0.421-0.278
			c0.47-0.211,0.871-0.015,1.203,0.588c0.06,0.107,0.105,0.194,0.14,0.26l0.133,0.045c0.714-0.91,1.351-1.196,1.908-0.86
			c0.325,0.192,0.573,0.533,0.743,1.021C105.111,19.194,105.628,19.408,105.998,19.619L105.998,19.619z M106.354,36.76
			c-0.021,0.022-0.043,0.046-0.062,0.072c-0.041,0.103-0.091,0.211-0.149,0.321c0.008,0.015,0.011,0.028,0.011,0.039
			c0.019-0.011,0.036-0.024,0.056-0.039c0.004-0.007,0.008-0.013,0.012-0.016C106.262,37.03,106.305,36.904,106.354,36.76
			L106.354,36.76z M106.676,37.077l0.105-0.178c0-0.022,0-0.042,0-0.061l-0.039,0.105c-0.004,0.003-0.03,0.031-0.078,0.083
			C106.661,37.055,106.664,37.071,106.676,37.077z M106.809,36.692c-0.01,0.023-0.023,0.048-0.039,0.078
			c0.008,0.008,0.016,0.013,0.022,0.017C106.795,36.75,106.801,36.719,106.809,36.692z M106.77,38.957
			c0.012-0.056,0.023-0.102,0.039-0.139c-0.022,0.029-0.041,0.057-0.056,0.083C106.758,38.916,106.762,38.934,106.77,38.957z
			 M107.896,38.102c0.088-0.148,0.173-0.28,0.255-0.394c-0.019-0.015-0.056-0.036-0.111-0.062
			C107.992,37.788,107.944,37.939,107.896,38.102z M78.234,47.615c-0.088,0.09-0.197,0.179-0.326,0.272
			c0.279-0.063,0.594-0.118,0.941-0.167v0.069c-0.096,0.029-0.271,0.098-0.525,0.204c0.059,0.007,0.117,0.015,0.177,0.023
			c-0.011-0.02-0.013-0.033-0.005-0.045c0.05-0.016,0.088-0.041,0.109-0.078c0.046-0.014,0.103-0.036,0.174-0.061
			c0.072-0.033,0.123-0.063,0.148-0.088C78.725,47.636,78.494,47.594,78.234,47.615L78.234,47.615z M93.768,62.232
			c0.137,0.041,0.283,0.081,0.438,0.122c-0.033-0.032-0.059-0.075-0.078-0.127C94.006,62.23,93.885,62.232,93.768,62.232z"/>
	</g>
	<g id="Layer_6_1_">
		<path id="path11_1_" fill="#010101" d="M62.236,112.646c0.062-0.496,0.126-0.852,0.193-1.074c-1.071-0.141-1.49-1.447-1.254-3.922
			c0.229-2.477,1.211-5.495,2.945-9.053s3.798-3.839,6.191-0.843c2.396,2.995,4.191,5.34,5.387,7.033
			c1.193,1.686,3.611,3.652,7.254,5.896c3.648,2.24,7.18,4.688,10.596,7.338c2.286,1.777,3.639,3.291,4.062,4.55
			c0.032,0.123,0.059,0.246,0.077,0.372c0.027,0.121,0.043,0.246,0.051,0.371c0.011,0.244-0.023,0.488-0.105,0.732
			c-0.029,0.074-0.056,0.146-0.078,0.211c0.281-0.136,0.722,0.536,1.32,2.019c0.6,1.473,0.812,4.138,0.638,7.993
			c0.097,0.597,0.18,1.132,0.25,1.604c0.018,0.108,0.037,0.254,0.055,0.438c0.03,0.078,0.061,0.16,0.094,0.244
			c0.352,0.918,0.622,1.649,0.811,2.196l-0.111-0.011c-0.166-0.348-0.403-0.868-0.71-1.564c0.004,0.069,0.008,0.142,0.011,0.211
			c0.134,0.375,0.305,0.858,0.516,1.459c0.307,0.85,0.529,1.5,0.666,1.946l0.018,0.023c-0.012,0.021-0.064,0.053-0.161,0.094
			c-0.088,0.041-0.149,0.056-0.183,0.044l-0.051-0.021c-0.074-0.17-0.213-0.429-0.416-0.771c0.074,0.204,0.233,0.555,0.477,1.055
			c0.196,0.465,0.266,0.85,0.211,1.153c-0.119,0.065-0.226,0.047-0.322-0.058c-0.06-0.059-0.1-0.131-0.122-0.215v0.056
			c0,0.004,0,0.008,0,0.012c0.014,0.033,0.029,0.065,0.045,0.095c0.121,0.284,0.266,0.643,0.432,1.075
			c0.255,0.666,0.427,1.181,0.516,1.543c-0.033-0.005-0.068-0.018-0.105-0.039c-0.033-0.019-0.054-0.028-0.062-0.028
			c-0.026-0.056-0.09-0.187-0.194-0.394c-0.007,0.041-0.017,0.083-0.027,0.127c0.232,0.599,0.42,1.095,0.561,1.486l-0.089-0.017
			c-0.065-0.086-0.207-0.33-0.421-0.731c0.014,0.067,0.029,0.144,0.044,0.228c0.521,0.899,1.087,1.889,1.696,2.967
			c0.046,0.105,0.068,0.176,0.068,0.213l-0.018,0.1l-0.167,0.045c-0.353-0.541-0.74-1.181-1.165-1.92
			c0.036,0.188,0.062,0.352,0.077,0.493c-0.052-0.073-0.101-0.14-0.144-0.2c0.066,0.129,0.131,0.254,0.193,0.372l-0.105,0.017
			c-0.086-0.15-0.194-0.348-0.328-0.588c0.418,1.369,0.434,2.137,0.045,2.31c-0.022,0.009-0.049,0.019-0.078,0.026
			c0.011,0.084,0.023,0.182,0.039,0.287c0.021,0.209,0.025,0.379,0.011,0.512c0.011,0.078,0.024,0.16,0.039,0.25
			c0.014,0.043,0.028,0.086,0.044,0.127l0.018-0.032c0.029-0.097,0.041-0.222,0.039-0.371c-0.009-0.175-0.009-0.276,0-0.302
			l0.071,0.052c0.037,0.114,0.044,0.287,0.022,0.517c-0.016,0.203-0.049,0.363-0.101,0.477c0.011,0.041,0.021,0.082,0.028,0.121
			c0.052,0.293,0.015,0.551-0.111,0.777c-0.003-0.006-0.009-0.014-0.016-0.021c0.085,0.377,0.096,0.645,0.033,0.805
			c-0.152-0.271-0.293-0.525-0.422-0.766c0.004,0.191,0.004,0.379,0.004,0.561c0.315,0.865,0.56,1.508,0.733,1.924l-0.194,0.084
			c-0.029-0.041-0.062-0.084-0.1-0.127c0.174,0.799,0.249,1.312,0.227,1.541c-0.043,0.008-0.084,0.006-0.121-0.006
			c-0.02-0.008-0.053-0.027-0.101-0.061c-0.067-0.229-0.139-0.473-0.216-0.732c0.1,0.562,0.081,0.873-0.057,0.932
			c-0.092,0.041-0.147,0.054-0.166,0.033l0.005-0.043l-0.111-0.123c-0.052-0.203-0.112-0.428-0.183-0.672
			c-0.092,0.5-0.211,1.047-0.355,1.643c0.112,0.518,0.346,1.004,0.705,1.453c0,0.008,0.006,0.018,0.018,0.027
			c1.283,0.504,2.129,0.873,2.541,1.109c0.236,0.057,0.49,0.104,0.76,0.146c-0.021,0.007-0.113,0.068-0.271,0.183
			c0.125,0.089,0.252,0.189,0.377,0.3l0.693,0.106c0.003,0.006,0.014,0.036,0.033,0.088c-0.004,0.056-0.045,0.144-0.122,0.261
			c0.032,0.021,0.069,0.045,0.11,0.067c0.142,0.028,0.397,0.082,0.771,0.16c0.744,0.143,1.189,0.234,1.337,0.271l-0.005,0.183
			c-0.023,0.034-0.041,0.091-0.057,0.173c-0.041,0.071-0.125,0.117-0.25,0.139l-0.049,0.011c0.051,0.038,0.211,0.114,0.481,0.229
			c0.052,0.025,0.097,0.045,0.133,0.061c0.175,0.066,0.278,0.107,0.312,0.121l0.017,0.146c-0.003,0.022-0.019,0.046-0.044,0.072
			c0.089,0.044,0.178,0.093,0.266,0.144v-0.005c0.363,0.144,0.592,0.286,0.688,0.427v0.09c0.044,0.039,0.089,0.082,0.133,0.127
			c0.267,0.256,0.547,0.5,0.843,0.738c0.525,0.44,1.053,0.887,1.582,1.342c0.151,0.107,0.275,0.246,0.371,0.416
			c0.301,0.455,0.514,0.945,0.639,1.466c0.049,0.181,0.121,0.36,0.222,0.536c0.263,0.447,0.222,0.848-0.122,1.199
			c-0.037,0.025-0.078,0.037-0.122,0.033c-0.448,0.062-0.795-0.119-1.043-0.543c-0.069-0.011-0.133-0.021-0.188-0.029
			c-0.322-0.08-0.539-0.295-0.654-0.643c-0.145-0.406-0.307-0.796-0.488-1.165c-0.012-0.022-0.021-0.038-0.033-0.044
			c-0.146-0.066-0.293-0.133-0.438-0.195c0.041,0.08,0.082,0.155,0.123,0.229c0.221,0.446,0.349,0.88,0.382,1.297
			c0.026,0.384-0.029,0.699-0.166,0.942c-0.155,0.281-0.423,0.316-0.8,0.105c-0.246-0.136-0.418-0.421-0.51-0.854
			c-0.052-0.276-0.072-0.562-0.061-0.854c-0.703-0.373-1.553-1.008-2.553-1.907c-0.196-0.175-0.375-0.337-0.538-0.488
			c-0.632-0.104-1.318-0.326-2.058-0.67l-1.276-0.5c-0.253-0.152-0.429-0.332-0.533-0.537c-0.077-0.248-0.147-0.45-0.211-0.601
			l-2.047-0.805c-0.466-0.222-1.413-0.396-2.841-0.521c-0.629,0.092-1.562-0.029-2.801-0.365c-1.236-0.338-2.012-3.033-2.33-8.09
			l-0.389,0.684l-0.166-0.117l0.083-0.654c0.04-0.354,0.077-0.652,0.11-0.893c0.057-0.477,0.111-0.893,0.167-1.248
			c-0.233,0.68-0.388,1.172-0.46,1.475c-0.071,0.017-0.118,0-0.141-0.043c0.041-0.268,0.143-0.664,0.301-1.188
			c0.078-0.256,0.142-0.482,0.192-0.678c-0.04-0.006-0.069-0.016-0.088-0.027c-0.041,0.145-0.103,0.234-0.185,0.271
			c-0.094,0.041-0.172,0.047-0.231,0.022c-0.012-0.011-0.021-0.021-0.032-0.028c-0.017,0.01-0.029,0.021-0.045,0.028
			c-0.101,0.044-0.169,0.047-0.205,0.01c-0.045-0.054-0.08-0.104-0.101-0.147c0.015-1.314,0.096-2.67,0.244-4.066
			c-0.074-0.408-0.134-0.844-0.179-1.309c-0.006-0.119-0.014-0.238-0.021-0.356c-0.019-0.225-0.026-0.438-0.022-0.638
			c-0.037-0.186-0.071-0.375-0.101-0.571c-0.015,0.503-0.019,0.925-0.01,1.265c-0.005,0.094-0.005,0.176,0,0.25l-0.073,0.027
			c0-0.081-0.001-0.162-0.005-0.244c-0.019-0.584-0.028-1.047-0.033-1.387c0-0.207,0.005-0.395,0.017-0.564c0-0.016,0-0.031,0-0.051
			c-0.125-0.854-0.34-2.408-0.644-4.66c-0.303-2.252-0.271-3.945,0.101-5.08c0.1-0.309,0.185-0.574,0.254-0.799
			c-0.34,0.199-1.144-0.66-2.412-2.58c0.07,0.215,0.15,0.463,0.238,0.748l-0.16,0.066c-0.115-0.158-0.264-0.391-0.449-0.697
			c-0.045-0.082-0.09-0.156-0.133-0.223c-0.061-0.012-0.123-0.025-0.185-0.045c0.058,0.164,0.125,0.361,0.199,0.594
			c0.119,0.361,0.215,0.629,0.289,0.799l-0.185,0.078c-0.254-0.341-0.564-0.888-0.926-1.643c-0.003-0.008-0.011-0.012-0.021-0.012
			c-0.004,0.026-0.004,0.047,0,0.066c0.031,0.23,0.033,0.389,0.011,0.479l-0.149,0.088c-0.078-0.092-0.154-0.203-0.232-0.332
			l-0.111,0.072l-0.199,0.026c-0.062-0.106-0.144-0.242-0.244-0.404c-0.006,0.007-0.015,0.013-0.026,0.017
			c-0.152-0.137-0.271-0.293-0.361-0.465c-0.036-0.021-0.073-0.037-0.11-0.058c0,0.009,0,0.015,0,0.019
			c0.022,0.043,0.045,0.09,0.067,0.139c0.199,0.465,0.278,0.843,0.238,1.131c-0.063,0.016-0.119,0.014-0.167-0.006
			c-0.2-0.241-0.434-0.551-0.704-0.932c-0.11-0.141-0.181-0.219-0.205-0.232c-0.005,0.014-0.008,0.031-0.012,0.049
			c0.146,0.206,0.229,0.335,0.256,0.395c0.04,0.096,0.048,0.162,0.026,0.199c-0.022,0.021-0.068,0.053-0.139,0.101
			c-0.232-0.104-0.469-0.276-0.705-0.517c-0.137-0.039-0.261-0.094-0.371-0.16c0.196,0.26,0.312,0.424,0.344,0.494
			c0.037,0.088,0.056,0.19,0.056,0.305c0.004,0.134-0.028,0.258-0.095,0.371c-0.186-0.049-0.367-0.157-0.549-0.332
			c-0.097-0.107-0.178-0.193-0.244-0.256c0.066,0.375,0.033,0.638-0.1,0.789c-0.045,0-0.09-0.014-0.133-0.039
			c-0.023-0.011-0.059-0.035-0.105-0.071c-0.025-0.108-0.066-0.248-0.123-0.423c-0.135,0.025-0.295,0.007-0.481-0.055
			c0.056,0.18,0.093,0.338,0.11,0.471c-0.065,0.021-0.133,0.029-0.198,0.021h-0.09c0.004,0.045-0.028-0.009-0.095-0.16
			c-0.066-0.147-0.151-0.349-0.256-0.604c-0.326-0.224-0.705-0.543-1.143-0.966c-0.227-0.232-0.438-0.459-0.639-0.676
			c0.111,0.424,0.158,0.787,0.14,1.086c-0.069-0.004-0.124-0.023-0.161-0.061l-0.1-0.161c-0.157-0.465-0.342-0.989-0.561-1.569
			c-0.451-0.459-0.849-0.85-1.193-1.17c0.061,0.174,0.121,0.36,0.184,0.561c0.025,0.081,0.173,0.566,0.443,1.459l-0.139,0.061
			c-0.162-0.291-0.371-0.695-0.625-1.214c-0.22-0.442-0.365-0.739-0.435-0.894c-0.013-0.03-0.021-0.059-0.033-0.084
			c-0.032,0.049-0.065,0.08-0.094,0.095c-0.034,0.012-0.117-0.024-0.25-0.11c0.108,0.399,0.179,0.746,0.216,1.043
			c-0.07-0.062-0.128-0.115-0.172-0.16c-0.074-0.082-0.132-0.17-0.172-0.267c-0.07-0.164-0.167-0.469-0.288-0.916
			c-0.146-0.11-0.33-0.25-0.556-0.416c-0.832-0.596-1.457-0.897-1.875-0.909c-0.402-0.005-0.834-0.315-1.293-0.933
			c-0.08-0.11-0.157-0.224-0.231-0.339c-1.084-0.543-2.119-1.145-3.106-1.803c-0.361,0.033-0.664-0.14-0.904-0.517
			c-0.034-0.065-0.067-0.129-0.1-0.188c-0.171-0.125-0.341-0.254-0.511-0.383c-0.062,0.02-0.126,0.029-0.188,0.033
			c0.096,0.256,0.203,0.535,0.322,0.838l-0.066,0.033c-0.153-0.266-0.252-0.455-0.301-0.564c-0.028-0.063-0.069-0.172-0.121-0.321
			c-0.111-0.028-0.229-0.073-0.355-0.14c0.078,0.188,0.145,0.358,0.201,0.511l-0.105,0.016c-0.093-0.192-0.199-0.417-0.322-0.676
			c-0.236-0.17-0.489-0.416-0.76-0.738c-0.252-0.307-0.472-0.604-0.66-0.887c0,0.04-0.004,0.062-0.012,0.065
			c-0.015,0.008-0.041,0.018-0.078,0.033h-0.006c0.115,0.629,0.186,1.074,0.211,1.338c-0.047-0.023-0.08-0.057-0.1-0.102
			c-0.003-0.01-0.042-0.213-0.115-0.609c-0.064-0.377-0.117-0.617-0.162-0.721c-0.048-0.104-0.094-0.213-0.139-0.328
			c-0.018-0.045-0.037-0.087-0.055-0.127c0-0.008-0.004-0.014-0.012-0.018c-0.029-0.03-0.058-0.062-0.082-0.094
			c-0.021,0.041-0.054,0.069-0.103,0.088c-0.005,0.008-0.013,0.012-0.021,0.012c-0.029,0.029-0.054,0.053-0.072,0.072l-0.049-0.033
			c-0.017,0.004-0.028,0.002-0.039-0.006c-0.017-0.008-0.021-0.019-0.019-0.033l-0.26-0.604l-0.006,0.004
			c0.004,0.104-0.021,0.153-0.072,0.149c-0.019-0.008-0.043-0.017-0.071-0.033l-0.046-0.021c-0.032,0.113-0.067,0.208-0.1,0.281
			l-0.104-0.039c-0.059-0.133-0.098-0.373-0.115-0.721c0-0.015,0.002-0.027,0.006-0.039c-0.057-0.01-0.09-0.033-0.102-0.066
			c0.02-0.133,0.039-0.34,0.062-0.621c0-0.014,0-0.027,0-0.039l-0.244,0.179c-0.096,0.07-0.167,0.103-0.211,0.101l-0.051-0.057
			c-0.062-0.173-0.1-0.445-0.11-0.814c-0.015-0.383-0.04-0.627-0.077-0.738c-0.037,0.072-0.115,0.13-0.232,0.178
			c-0.061,0.027-0.119,0.045-0.179,0.057C62.117,113.732,62.166,113.204,62.236,112.646L62.236,112.646z M87.021,128.971
			c-0.033-0.007-0.066-0.012-0.1-0.015c0.062,0.122,0.127,0.242,0.194,0.36l0.026-0.006c-0.037-0.115-0.072-0.227-0.109-0.334
			C87.029,128.973,87.025,128.971,87.021,128.971L87.021,128.971z M62.854,114.926c0.002-0.019,0.004-0.035,0.004-0.051l-0.01-0.005
			C62.848,114.885,62.848,114.904,62.854,114.926z M101.092,146.245c0.106,0.211,0.211,0.415,0.315,0.61
			c-0.004-0.008-0.002-0.014,0.005-0.019l0.044-0.004c0.011,0.013,0.039,0.053,0.083,0.115c0.044,0.056,0.075,0.09,0.094,0.1
			l-0.011-0.021c-0.126-0.267-0.246-0.522-0.36-0.767c-0.037,0.009-0.093,0-0.166-0.021L101.092,146.245z M101.117,149.357
			c0.012,0.029,0.023,0.062,0.034,0.1l0.021-0.012c-0.003-0.025-0.003-0.053,0-0.082
			C101.158,149.359,101.141,149.357,101.117,149.357z M101.323,150.855c-0.007-0.041-0.013-0.088-0.017-0.139
			c-0.082-0.152-0.19-0.367-0.328-0.644c0.09,0.237,0.188,0.479,0.3,0.727C101.346,150.955,101.359,150.975,101.323,150.855z
			 M107.752,161.949l0.061-0.012c-0.11-0.047-0.215-0.08-0.315-0.1C107.582,161.868,107.667,161.904,107.752,161.949
			L107.752,161.949z M106.293,161.141c0.107,0.059,0.219,0.125,0.332,0.2c0.111,0.013,0.235,0.023,0.372,0.039
			c0.007-0.057,0.065-0.127,0.177-0.211c0.012-0.028,0.018-0.045,0.018-0.058c-0.004-0.01-0.057-0.024-0.161-0.043
			c-0.081-0.008-0.274,0.009-0.582,0.05C106.393,161.125,106.342,161.133,106.293,161.141L106.293,161.141z M104.85,160.225
			c0.031,0.018,0.063,0.036,0.101,0.055c0.122-0.002,0.194-0.01,0.216-0.021C105.057,160.246,104.95,160.234,104.85,160.225z
			 M103.924,159.52c0.053,0.025,0.106,0.061,0.161,0.1c0.022-0.008,0.056-0.021,0.101-0.044l0.033-0.032
			C104.111,159.543,104.014,159.535,103.924,159.52z"/>
	</g>
	<g id="Layer_5_1_">
		<path id="path14_1_" fill="#010101" d="M69.143,99.504c2.479-0.514,4.789-1.496,6.933-2.948c2.524-1.708,5.056-3.548,7.595-5.524
			l7.008-5.669c0.666-0.519,1.289-0.964,1.868-1.338c0.308-0.425,0.993-0.922,2.06-1.492c1.146-0.606,2.16-0.983,3.043-1.131
			c1.008-0.189,2.005,0.089,2.992,0.832c0.518,0.112,1.107,0.424,1.77,0.938c0.406,0.318,0.754,0.652,1.043,1.004
			c0.292,0.355,0.457,0.64,0.494,0.859c0.045,0.244,0.204,0.853,0.479,1.826c0.088,0.313,0.156,0.603,0.204,0.871
			c0.314,0.169,0.531,0.527,0.649,1.075c0.074,0.333,0.111,0.915,0.111,1.748c0,0.015-0.231,1.391-0.694,4.127
			c-0.155,0.791-0.304,1.471-0.449,2.036c-0.085,1.688-0.129,2.927-0.133,3.722c-0.011,1.683-0.187,3.638-0.527,5.865
			c0.005,0.254,0.005,0.445,0,0.57c0.029-0.007,0.048-0.006,0.05,0.006c0.008,0.018-0.041,0.049-0.145,0.088
			c-0.004,0-0.008,0.002-0.012,0.006c-0.041,0.256-0.084,0.517-0.127,0.783v0.006l0.088,0.209c0.019,0.078,0.031,0.131,0.039,0.156
			c0.004,0.044-0.045,0.09-0.149,0.139c-0.026,0.01-0.05,0.021-0.071,0.027c-0.013,0.066-0.024,0.131-0.039,0.194
			c0.262,0.735,0.407,1.196,0.438,1.381c0.025,0.147-0.01,0.308-0.105,0.478c-0.088-0.033-0.201-0.127-0.338-0.283l0.572,1.427
			c-0.018,0.026-0.025,0.056-0.021,0.089c0.004,0.011-0.043,0.037-0.14,0.077c-0.106,0.048-0.176,0.056-0.205,0.022
			c-0.022-0.02-0.056-0.063-0.1-0.134c-0.156-0.333-0.31-0.64-0.461-0.921c-0.025,0.255-0.048,0.493-0.066,0.715
			c0.136,0.34,0.3,0.738,0.488,1.193c0.026,0.088-0.054,0.246-0.239,0.471c-0.078-0.025-0.152-0.074-0.222-0.148
			c-0.037-0.09-0.078-0.181-0.122-0.277c-0.004,0.13-0.004,0.24,0,0.333l-0.033,0.045c0.299,0.961,0.357,1.481,0.178,1.56
			c-0.076,0.036-0.094,0.182-0.057,0.433c0.07,0.343,0.126,0.618,0.167,0.827c0.167,0.871,0.138,1.473-0.088,1.802l-0.128,0.028
			c-0.104-0.041-0.219-0.131-0.344-0.268c0.254,0.301,0.324,0.68,0.209,1.139c-0.094,0.395-0.202,0.619-0.32,0.67
			c-0.107,0.049-0.172,0.069-0.193,0.062c-0.013-0.011-0.031-0.024-0.057-0.038c0,0.003-0.001,0.01-0.005,0.018
			c0.055,0.065,0.157,0.138,0.305,0.215c0.185,0.108,0.326,0.267,0.423,0.472c0.047,0.104,0.064,0.178,0.049,0.224
			c-0.021,0.019-0.028,0.03-0.021,0.038c-0.148,0.022-0.312,0.011-0.494-0.038c-0.133-0.037-0.223-0.074-0.271-0.111
			c0.096,0.123,0.215,0.248,0.36,0.377c0.159,0.134,0.294,0.219,0.405,0.256c0.037-0.004,0.062,0,0.078,0.012
			c0.025,0.012,0.009,0.033-0.051,0.066c0.463,0.099,0.924,0.182,1.381,0.244c0.766,0.096,1.437,0.121,2.014,0.078
			c0.684-0.153,1.374-0.229,2.068-0.229c0.799,0.004,2.076-0.097,3.834-0.299l1.048,0.282c1.487,0.392,2.448,0.627,2.885,0.709
			c-0.019,0.045-0.044,0.084-0.078,0.117c0.166,0.074,0.331,0.154,0.494,0.243c1.002,0.54,1.742,1.084,2.22,1.632
			c0.518,0.613,0.563,1.099,0.139,1.453c-0.26,0.219-0.903,0.012-1.932-0.621c0.188,0.226,0.352,0.453,0.488,0.682
			c0.366,0.625,0.405,1.061,0.116,1.305c-0.162,0.134-0.382,0.221-0.66,0.262c-0.388,0.055-0.729-0.061-1.021-0.345l0.244,0.549
			c0.004,0.009,0.006,0.015,0.006,0.019c0.033,0.516-0.065,0.873-0.295,1.063c-0.174,0.147-0.328,0.226-0.466,0.238
			c-0.308,0.03-0.641-0.171-0.999-0.604c-0.158-0.205-0.271-0.418-0.338-0.644c-0.059-0.231-0.105-0.369-0.139-0.422l-0.021-0.011
			c0,0.022,0,0.041,0,0.062c-0.005,0.396,0.045,0.937,0.148,1.625c0.062,0.388,0.025,0.64-0.111,0.754
			c-0.078,0.074-0.285,0.113-0.621,0.117c-0.43,0.019-0.742-0.093-0.938-0.334c-0.333-0.396-0.504-0.875-0.51-1.437
			c0.039-0.496,0.049-0.76,0.026-0.793c0-0.004-0.092-0.056-0.276-0.156l-1.359-0.731l-0.311,0.134l-0.127-0.062l-0.295,0.133
			l-0.354-0.185l-2.302,0.757c-0.183,0.011-0.346,0.009-0.494-0.007l-3.801-0.012c-0.262-0.007-0.608,0.035-1.041,0.129
			c-0.053,0.01-0.106,0.021-0.162,0.031c-1.812,0.438-3.334,0.229-4.564-0.625c-1.223-0.863-1.833-1.449-1.824-1.759
			c-0.053-0.3-0.078-0.458-0.078-0.472c-0.012-0.123-0.039-0.244-0.084-0.366c0.008,0,0.012-0.004,0.012-0.011
			c0.012-0.397,0.031-0.844,0.056-1.344c0.017-0.296,0.028-0.572,0.039-0.832c-0.044,0.125-0.093,0.258-0.146,0.399
			c-0.112,0.358-0.19,0.683-0.231,0.971c-0.207-0.625-0.203-1.206,0.012-1.741c0.111-0.215,0.208-0.416,0.293-0.604
			c-0.055,0.01-0.098,0.022-0.127,0.037c0.015-0.043,0.025-0.104,0.033-0.183c-0.008,0.033-0.019,0.065-0.033,0.095
			c-0.153,0.288-0.284,0.45-0.396,0.487l-0.094-0.104c0.037-0.197,0.162-0.558,0.377-1.082c0.08-0.194,0.14-0.392,0.185-0.588
			c-0.011-0.104-0.036-0.229-0.072-0.377c-0.024,0.054-0.052,0.116-0.077,0.188c-0.134,0.344-0.238,0.53-0.312,0.561
			c-0.066,0.029-0.109,0.031-0.127,0.005c-0.017-0.015-0.036-0.06-0.062-0.134c0.019-0.114,0.063-0.288,0.133-0.521
			c-0.065-0.146-0.106-0.3-0.123-0.467c-0.01-0.056-0.019-0.248-0.026-0.581l-0.006-0.005c-0.007-0.024-0.022-0.054-0.044-0.09
			c0.007-0.087,0.013-0.166,0.017-0.232c-0.008-0.082-0.019-0.161-0.032-0.237c-0.008,0.017-0.015,0.039-0.021,0.065
			c-0.067,0.151-0.107,0.228-0.123,0.231c-0.074,0.037-0.125,0.037-0.154,0c-0.016-0.019-0.043-0.064-0.084-0.139
			c-0.044-0.203-0.023-0.4,0.061-0.594c0.062-0.095,0.106-0.173,0.14-0.232c-0.019-0.037-0.04-0.076-0.062-0.117
			c-0.041-0.021-0.088-0.055-0.149-0.1c-0.125-0.096-0.212-0.195-0.261-0.299c-0.073-0.174-0.03-0.502,0.127-0.982
			c0.025-0.062,0.043-0.119,0.062-0.172c-0.007-0.074-0.013-0.146-0.017-0.217c-0.071,0.194-0.12,0.295-0.146,0.307
			c-0.078,0.033-0.137,0.035-0.178,0.011c-0.016-0.005-0.057-0.054-0.127-0.155c0.033-0.35,0.129-0.891,0.288-1.62
			c-0.142-0.588-0.292-1.218-0.454-1.891c-0.375-1.568-0.68-3.023-0.916-4.366c-0.152,0.055-0.297,0.105-0.438,0.155
			c0,0.015-0.002,0.03-0.006,0.049c0.147,0.005,0.289,0.024,0.426,0.058c-0.351,0.131-0.662,0.25-0.933,0.354l-0.166,0.166
			l0.078,0.416l-0.487,0.032l-1.477,1.148l0.021,0.229l-0.129,0.061l0.067,0.55l-0.144,0.082l-0.277-0.094l-1.171,0.754l0.282,0.133
			c-2.822,4.384-5.45,7.069-7.883,8.06c-2.432,0.988-6.236,0.061-11.416-2.781c-1.172-2.02-1.856-3.682-2.053-4.988
			c-0.061-0.377-0.102-0.723-0.128-1.037c-0.323-0.455-0.629-0.935-0.909-1.44c-0.892-1.58-1.361-3.251-1.414-5.017
			c-0.055-1.693,0.729-2.766,2.352-3.217C67.152,99.942,68.148,99.705,69.143,99.504L69.143,99.504z M102.482,112.407
			c0-0.067-0.004-0.13-0.012-0.189c-0.006,0.03-0.015,0.062-0.021,0.095C102.459,112.339,102.471,112.371,102.482,112.407z
			 M91.864,106.249c-0.14,0.049-0.278,0.09-0.415,0.127c0.018,0.041,0.031,0.082,0.043,0.123c0.152-0.033,0.298-0.06,0.439-0.078
			c-0.008-0.051-0.016-0.101-0.023-0.149C91.895,106.266,91.879,106.258,91.864,106.249z M90.639,107.027l0.238-0.029
			c0.227-0.055,0.447-0.102,0.666-0.139c-0.061,0-0.297,0.029-0.711,0.09L90.639,107.027z M90.288,107.836l-0.448,0.028
			l-0.072,0.183L90.288,107.836z M93.59,113.982c0.008,0.056,0.01,0.113,0.006,0.172c0.014-0.021,0.025-0.045,0.033-0.066
			c-0.004-0.033-0.013-0.062-0.027-0.089l-0.006-0.026C93.596,113.977,93.594,113.979,93.59,113.982z M94.012,116.711
			c0.002,0.035,0.006,0.068,0.01,0.102c0,0.011,0.002,0.021,0.006,0.027c0.008-0.029,0.01-0.061,0.006-0.09
			c0.004-0.037,0.008-0.074,0.012-0.115C94.041,116.648,94.029,116.676,94.012,116.711z M94.223,117.416
			c0,0.139-0.002,0.268-0.006,0.389c0.002,0.029,0.01,0.057,0.021,0.078c-0.011,0.037-0.017,0.064-0.021,0.083
			c0,0.134,0,0.25,0,0.351c0.028-0.078,0.059-0.162,0.088-0.25c0.012-0.1,0.028-0.209,0.051-0.327
			c-0.045-0.104-0.082-0.222-0.111-0.351C94.236,117.404,94.229,117.412,94.223,117.416z"/>
	</g>
	<g id="Layer_7_1_">
		<path id="path17_3_" fill="#010101" d="M99.348,54.117c0.039,0,0.078,0,0.123,0c0.78,0.025,1.291,0.023,1.531-0.006l0.105-0.027
			c-0.289-0.06-0.668-0.106-1.138-0.139C99.765,54,99.558,54.058,99.348,54.117z M97.229,54.827
			c-0.114,0.01-0.211,0.016-0.289,0.016c0.048,0.012,0.099,0.021,0.15,0.033c0.271-0.041,0.493-0.079,0.672-0.116
			C97.561,54.787,97.385,54.808,97.229,54.827z M98.348,54.372c-0.028,0.006-0.053,0.014-0.071,0.022
			c0.069-0.004,0.12-0.004,0.149,0h0.012C98.408,54.382,98.378,54.375,98.348,54.372z M103.098,53.212
			c0.307-0.017,0.487-0.035,0.543-0.05c0-0.018-0.02-0.032-0.061-0.039c-0.218,0.011-0.418,0.022-0.6,0.034
			C103.021,53.175,103.061,53.194,103.098,53.212L103.098,53.212z M102.504,53.245c-0.055-0.013-0.115-0.025-0.177-0.033
			c-0.06,0.015-0.119,0.034-0.179,0.055C102.208,53.264,102.327,53.257,102.504,53.245z M95.486,55.143
			c0.081,0.023,0.145,0.034,0.189,0.04c-0.033-0.049-0.127-0.081-0.283-0.095l-0.017,0.022L95.486,55.143L95.486,55.143z
			 M94.926,55.131c0.666-0.069,1.23-0.131,1.692-0.188c-0.119-0.025-0.249-0.053-0.394-0.083
			C95.799,54.949,95.366,55.039,94.926,55.131z M70.936,65.901l0.039,0.027c0.022-0.072,0.035-0.145,0.043-0.223
			c0-0.078-0.004-0.12-0.016-0.127C70.957,65.644,70.934,65.751,70.936,65.901z M70.219,64.695c0.029-0.07,0.058-0.137,0.084-0.199
			c0.063-0.159,0.121-0.31,0.178-0.455c-0.045,0.016-0.086,0.031-0.122,0.051c-0.025,0.117-0.052,0.236-0.078,0.354
			C70.262,64.527,70.242,64.61,70.219,64.695L70.219,64.695z M75.289,63.369c-0.029,0.012-0.052,0.023-0.072,0.034
			c0.067,0.44,0.211,0.794,0.435,1.065c0.032-0.166,0.067-0.346,0.104-0.539c-0.062-0.385-0.119-0.771-0.166-1.158
			c-0.104-0.148-0.224-0.38-0.361-0.693c-0.004,0.066-0.01,0.133-0.017,0.199C75.252,62.642,75.278,63.007,75.289,63.369z
			 M77.459,60.069c-0.004-0.005-0.008-0.005-0.012-0.005l0.006,0.01c0.292,0.066,0.555,0.117,0.787,0.15
			c-0.051-0.025-0.092-0.048-0.121-0.066c-0.034-0.022-0.131-0.119-0.289-0.289C77.697,59.935,77.572,60.001,77.459,60.069z
			 M77.607,59.719c-0.014-0.04-0.027-0.085-0.039-0.133c-0.025-0.026-0.049-0.052-0.071-0.078
			C77.527,59.58,77.564,59.649,77.607,59.719z M77.363,61.293c-0.184-0.269-0.408-0.654-0.67-1.154
			c-0.057-0.013-0.107-0.023-0.156-0.027c-0.029,0.02-0.059,0.037-0.088,0.056c0.033,0.13,0.066,0.255,0.1,0.378
			C76.844,60.824,77.116,61.074,77.363,61.293z M78.822,59.997c-0.295-0.193-0.57-0.408-0.826-0.644
			c-0.037-0.019-0.075-0.035-0.115-0.049c0.129,0.1,0.262,0.199,0.398,0.299c-0.02,0.013-0.037,0.025-0.055,0.033
			c0.262,0.252,0.5,0.467,0.715,0.643c0.17,0,0.314-0.014,0.433-0.043C79.176,60.187,78.993,60.108,78.822,59.997z M79.705,58.792
			c0.455,0.174,0.84,0.235,1.154,0.184c-0.111-0.033-0.232-0.076-0.361-0.128c-0.263-0.1-0.543-0.224-0.843-0.372
			c-0.085,0.037-0.173,0.076-0.261,0.117C79.494,58.66,79.598,58.726,79.705,58.792z M78.952,59.202
			c-0.004-0.007-0.008-0.008-0.013-0.005c0.007,0.003,0.014,0.011,0.022,0.02L78.952,59.202z M80.182,58.176
			c0.086,0.045,0.179,0.087,0.283,0.127c-0.048-0.047-0.098-0.099-0.15-0.154c-0.006-0.011-0.014-0.019-0.021-0.022
			C80.256,58.146,80.219,58.163,80.182,58.176z M77.701,47.797c0.034-0.025,0.068-0.05,0.102-0.072
			c-0.098,0.026-0.187,0.057-0.269,0.094c-0.006,0-0.013,0.002-0.021,0.006c-0.066,0.034-0.129,0.067-0.189,0.1
			c0.035,0.004,0.066,0.01,0.096,0.018C77.52,47.891,77.613,47.843,77.701,47.797z M117.876,40.563
			c0.222-0.111,0.444-0.225,0.666-0.343l0.022,0.05c0.199-0.163,0.379-0.309,0.537-0.438c-0.385,0.211-0.734,0.405-1.049,0.583
			C117.994,40.463,117.934,40.513,117.876,40.563z M123.296,33.802c0.007-0.007,0.017-0.008,0.027-0.005
			c-0.007-0.003-0.015-0.005-0.022-0.005C123.301,33.795,123.299,33.799,123.296,33.802z M123.09,34.207
			c-0.057,0.022-0.109,0.043-0.162,0.061c-0.024,0.048-0.047,0.092-0.065,0.134C122.943,34.335,123.02,34.271,123.09,34.207z
			 M123.9,33.259c-0.071,0.063-0.145,0.127-0.223,0.194c0.049,0.022,0.096,0.048,0.14,0.078c0.144-0.148,0.276-0.291,0.394-0.427
			C124.141,33.145,124.037,33.197,123.9,33.259L123.9,33.259z M125.314,31.28c0.125-0.129,0.223-0.235,0.289-0.317
			c-0.082,0.019-0.209,0.048-0.383,0.089c0.002,0.011,0.03,0.039,0.082,0.083C125.325,31.179,125.329,31.227,125.314,31.28z
			 M124.776,31.795c0.004-0.003,0.008-0.003,0.011,0v-0.006C124.784,31.789,124.78,31.791,124.776,31.795z M128.903,25.955
			c-0.033,0.062-0.07,0.133-0.111,0.21c0.011,0.037,0.025,0.078,0.044,0.122c0.041,0.122,0.074,0.234,0.1,0.338
			c0.008-0.134,0.016-0.255,0.022-0.366C128.936,26.133,128.918,26.031,128.903,25.955z M125.352,30.375
			c0.152-0.064,0.295-0.121,0.428-0.173c-0.145,0.034-0.301,0.069-0.471,0.106l-0.066,0.017
			C125.275,30.343,125.312,30.36,125.352,30.375z M123.428,17.117c0.285-0.692,0.607-1.104,0.963-1.237
			c0.184-0.081,0.336,0.011,0.455,0.278c0.347,0.702,0.438,1.283,0.271,1.742c-0.237,0.325-0.372,0.504-0.405,0.538
			c-0.134,0.17-0.213,0.529-0.238,1.076c-0.004,0.1-0.002,0.196,0.006,0.289c-0.107,0.325-0.143,0.604-0.105,0.837
			c0.057,0.022,0.104,0.047,0.145,0.072c0.152,0.085,0.261,0.121,0.328,0.106c0.019,0,0.035-0.005,0.049-0.012l0.482-0.704
			c0.196-0.112,0.538-0.532,1.026-1.26c0.073-0.107,0.149-0.224,0.228-0.35c0.473-0.718,0.914-1.238,1.32-1.559
			c0.033-0.085,0.085-0.19,0.155-0.316c0.155-0.273,0.368-0.482,0.638-0.626c0.096-0.056,0.239-0.126,0.428-0.211
			c0.25-0.477,0.577-1.013,0.98-1.608c0.093-0.096,0.416-0.466,0.971-1.11c0.219-0.255,0.411-0.475,0.577-0.66
			c0.156-0.16,0.293-0.296,0.411-0.411c0.008-0.008,0.02-0.018,0.033-0.033c0.182-0.119,0.598-0.396,1.248-0.833
			c0.555-0.399,0.99-0.66,1.304-0.782c0.433-0.185,0.885-0.39,1.358-0.616c0.138-0.059,0.283-0.114,0.438-0.166
			c0.237-0.075,0.494-0.141,0.771-0.2c0.104-0.011,0.188,0.009,0.25,0.061c0.074,0.034,0.115,0.095,0.123,0.184
			c-0.026,0.38-0.314,0.674-0.865,0.881c-0.178,0.082-0.336,0.147-0.477,0.195c-0.13,0.118-0.311,0.27-0.543,0.455
			c-0.414,0.288-0.681,0.487-0.8,0.594c-0.03,0.026-0.052,0.047-0.067,0.061c-0.166,0.156-0.453,0.336-0.859,0.539
			c-0.307,0.166-0.532,0.324-0.676,0.472c-0.02,0.033-0.039,0.066-0.062,0.1c-0.051,0.115-0.129,0.259-0.233,0.433
			c-0.203,0.333-0.498,0.765-0.887,1.298c-0.662,0.918-1.095,1.411-1.298,1.481c-0.022-0.004-0.041,0-0.056,0.011
			c-0.02,0.027-0.037,0.047-0.057,0.062c0.026,0.048,0.051,0.104,0.072,0.167c0.1,0.256,0.227,0.403,0.377,0.444
			c0.115-0.108,0.312-0.259,0.594-0.455c0.264-0.178,0.478-0.344,0.645-0.5c0.244-0.225,0.627-0.589,1.148-1.092
			c0.226-0.2,0.433-0.381,0.621-0.544c0.305-0.148,0.573-0.263,0.811-0.344c0.033-0.018,0.227-0.109,0.576-0.271
			c0.072-0.026,0.146-0.062,0.229-0.111c0.492-0.221,1.213-0.55,2.163-0.987c0.171-0.078,0.337-0.152,0.5-0.222
			c0.433-0.152,0.813-0.275,1.144-0.372c0.783-0.236,1.273-0.351,1.47-0.344c0.303,0.015,0.483,0.034,0.544,0.056
			c0.17,0.048,0.264,0.142,0.283,0.283c0.018,0.063,0.021,0.132,0.011,0.206c-0.019,0.063-0.035,0.12-0.05,0.172
			c-0.045,0.199-0.127,0.375-0.244,0.526c-0.199,0.237-0.484,0.412-0.854,0.527c-0.617,0.096-1.08,0.17-1.388,0.222
			c-0.262,0.186-0.541,0.36-0.837,0.527c-0.074,0.033-0.145,0.07-0.211,0.111c-0.033,0.012-0.057,0.022-0.072,0.034
			c-0.137,0.074-0.277,0.14-0.422,0.199c-0.133,0.062-0.271,0.124-0.416,0.183c-0.092,0.033-0.177,0.063-0.255,0.089
			c-0.069,0.018-0.138,0.035-0.2,0.05c-0.384,0.196-0.77,0.386-1.158,0.571c-0.296,0.259-0.593,0.518-0.888,0.777
			c-0.573,0.496-1.049,0.892-1.426,1.187c-0.585,0.6-0.942,0.99-1.071,1.171c0.04,0.022,0.172,0.033,0.395,0.033
			c0.248,0.011,0.397,0.005,0.449-0.017c0.166-0.063,0.569-0.267,1.209-0.61c0.045-0.022,0.086-0.031,0.123-0.028
			c0.236-0.162,0.485-0.339,0.748-0.532c0.022,0,0.035,0,0.039,0c0.008-0.011,0.014-0.024,0.018-0.039
			c0.045-0.055,0.091-0.109,0.139-0.161c0.219-0.266,0.402-0.426,0.555-0.482c0.092-0.037,0.19-0.074,0.295-0.111
			c0.121-0.03,0.258-0.078,0.41-0.144c0.014,0.004,0.026,0.004,0.033,0c0.227-0.144,0.421-0.266,0.588-0.366
			c0.145-0.104,0.322-0.221,0.533-0.35c0.07-0.026,0.15-0.044,0.238-0.055c0.052-0.023,0.141-0.044,0.267-0.062
			c0.151-0.077,0.301-0.122,0.449-0.133c0.036-0.018,0.073-0.025,0.11-0.022c0.056,0,0.113,0.002,0.172,0.006
			c0.012,0.004,0.025,0.004,0.045,0c0.093-0.037,0.187-0.078,0.283-0.122c0.047-0.023,0.094-0.043,0.139-0.061
			c0.369-0.166,0.578-0.263,0.626-0.289c0.147-0.048,0.354-0.079,0.622-0.094c0.547-0.015,0.754,0.18,0.621,0.583
			c-0.086,0.281-0.301,0.496-0.649,0.643c-0.003-0.003-0.011,0-0.022,0.012c-0.051,0.015-0.293,0.07-0.727,0.167
			c-0.04,0.014-0.081,0.025-0.122,0.033c-0.159,0.04-0.344,0.11-0.555,0.21c-0.063,0.033-0.124,0.064-0.183,0.094
			c-0.148,0.159-0.266,0.283-0.351,0.372c-0.033,0.036-0.063,0.075-0.094,0.116c-0.163,0.167-0.314,0.315-0.455,0.444
			c-0.322,0.308-0.61,0.542-0.865,0.705c-0.034,0.022-0.067,0.04-0.101,0.055c-0.125,0.079-0.239,0.134-0.344,0.167
			c-0.065,0.027-0.137,0.056-0.211,0.089c-0.019,0.012-0.037,0.021-0.056,0.028c-0.065,0.036-0.214,0.087-0.442,0.149
			c0,0.004-0.006,0.008-0.018,0.011c-0.652,0.544-0.984,0.825-0.999,0.844c-0.489,0.355-0.842,0.591-1.06,0.71
			c-0.174,0.092-0.492,0.214-0.955,0.365c-0.004,0.008-0.012,0.024-0.027,0.045c-0.029,0.045-0.059,0.091-0.089,0.139
			c-0.106,0.126-0.167,0.203-0.179,0.228c0.037,0.029,0.233,0.12,0.588,0.271c0.166-0.078,0.369-0.16,0.604-0.249
			c0.189-0.07,0.433-0.112,0.732-0.127c0.159-0.012,0.305-0.019,0.438-0.023c0.059-0.011,0.116-0.028,0.172-0.05
			c0.025-0.015,0.051-0.024,0.078-0.028c0.077-0.037,0.154-0.07,0.232-0.1c0.072-0.033,0.145-0.067,0.21-0.1
			c0.229-0.104,0.435-0.185,0.616-0.245c0.033-0.018,0.072-0.03,0.117-0.033c0.006-0.004,0.183-0.073,0.526-0.206
			c0.374-0.122,0.597-0.184,0.666-0.188c0.11-0.03,0.209-0.036,0.294-0.017c0.018,0.011,0.036,0.03,0.055,0.056
			c0.066,0.085,0.113,0.179,0.14,0.283c0.129,0.118,0.166,0.351,0.11,0.699c-0.1,0.614-0.277,0.959-0.532,1.037
			c-0.23-0.048-0.353-0.074-0.372-0.078c-0.026-0.011-0.067-0.052-0.122-0.122c-0.052-0.052-0.093-0.081-0.122-0.088
			c-0.027-0.016-0.13,0.007-0.311,0.066c-0.098,0.037-0.174,0.064-0.229,0.083c-0.057,0.018-0.096,0.03-0.117,0.033
			c-0.089,0.022-0.232,0.034-0.433,0.034c-0.13,0.004-0.222,0.001-0.277-0.006c-0.032,0.044-0.071,0.08-0.116,0.106
			c-0.062,0.044-0.152,0.085-0.267,0.122c-0.013,0.004-0.024,0.01-0.039,0.017c-0.015,0.011-0.028,0.021-0.039,0.028
			c-0.13,0.073-0.257,0.136-0.383,0.188c-0.147,0.077-0.292,0.14-0.433,0.188c-0.244,0.082-0.461,0.158-0.649,0.228
			c-0.274,0.096-0.493,0.176-0.66,0.239c-0.081,0.036-0.368,0.34-0.86,0.909c-0.392,0.177-0.719,0.311-0.981,0.399
			c-0.151,0.115-0.325,0.232-0.521,0.35c-0.135,0.081-0.637,0.333-1.51,0.754c-0.015,0.055-0.027,0.104-0.039,0.144
			c-0.1,0.426-0.137,0.818-0.111,1.176l-0.088,0.034c-0.115-0.237-0.141-0.559-0.078-0.965c0.012-0.067,0.029-0.154,0.056-0.261
			c-0.073,0.041-0.153,0.08-0.238,0.116c0.009,0.223,0.005,0.41-0.011,0.561c0.037,0.237,0.051,0.37,0.044,0.399
			c-0.026,0.041-0.078,0.046-0.156,0.017c-0.032,0.047-0.058,0.075-0.077,0.083c0.019,0.085,0.033,0.166,0.045,0.244
			c0.051,0.059,0.103,0.122,0.154,0.188v0.094c-0.003,0.019-0.018,0.033-0.044,0.045c-0.037,0.022-0.094,0.011-0.172-0.034
			c-0.007-0.003-0.015-0.008-0.022-0.011c-0.226-0.148-0.424-0.304-0.594-0.471c-0.011,0.007-0.021,0.015-0.033,0.022
			c0.199,0.426,0.314,0.696,0.344,0.81l-0.043,0.067c0.007,0.015,0.007,0.025,0,0.028c-0.016,0.003-0.041-0.003-0.078-0.022
			l-0.006,0.028c0,0.019-0.006,0.03-0.021,0.034c-0.033,0.011-0.094-0.012-0.184-0.067c-0.029-0.022-0.09-0.166-0.182-0.432
			c-0.104,0.036-0.221,0.023-0.351-0.039c-0.041,0.141-0.136,0.251-0.283,0.333c-0.167,0.074-0.28,0.134-0.344,0.178l-0.122,0.011
			c0.145,0.107,0.25,0.215,0.316,0.322c0.059,0.089,0.088,0.16,0.088,0.216c-0.118,0.037-0.215,0.114-0.289,0.233
			c-0.069,0.136-0.129,0.234-0.176,0.293c-0.041,0.06-0.093,0.106-0.156,0.139c0.43-0.022,0.837-0.022,1.221,0
			c-0.311,0.06-0.8,0.141-1.471,0.245c0.341,0.096,0.593,0.178,0.756,0.244c0.081,0.089,0.123,0.142,0.127,0.161
			c0.011,0.041-0.018,0.11-0.083,0.206c-0.004,0.007-0.067,0.028-0.188,0.061l-0.029,0.083c-0.185,0.036-0.371,0.079-0.56,0.127
			c0.025,0.07,0.054,0.144,0.083,0.222l-0.05,0.105l-0.155-0.022c-0.021-0.056-0.056-0.137-0.1-0.244
			c-0.219,0.059-0.438,0.135-0.66,0.227c0.118-0.018,0.197-0.014,0.239,0.012c0.014,0.095,0.032,0.192,0.055,0.288
			c0.007,0.048,0.007,0.078,0,0.089c-0.051,0.077-0.144,0.136-0.276,0.177c-0.004,0-0.033,0.007-0.084,0.022l0.051,0.033
			c-0.037,0.078-0.072,0.152-0.106,0.222c0.037-0.011,0.073-0.018,0.106-0.022c0.033-0.026,0.062-0.055,0.088-0.089l0.061,0.039
			l0.006,0.005c0.141-0.03,0.267-0.05,0.377-0.061c-0.096,0.033-0.199,0.072-0.311,0.116c0,0.029-0.02,0.074-0.061,0.133
			c-0.022,0.034-0.135,0.093-0.338,0.178c-0.049,0.037-0.099,0.072-0.15,0.105c-0.067,0.115-0.135,0.22-0.2,0.317
			c-0.118,0.177-0.313,0.4-0.588,0.671l0.005,0.005c0-0.004,0.002-0.008,0.006-0.011c0.008-0.004,0.016-0.003,0.021,0.005
			c0.061-0.019,0.117-0.035,0.173-0.05c0.467-0.145,0.89-0.261,1.271-0.35c-0.384,0.185-0.845,0.389-1.381,0.615
			c-0.029,0.193-0.1,0.37-0.211,0.533c-0.085,0.122-0.191,0.258-0.316,0.405c0.016,0.012,0.021,0.022,0.018,0.034
			c0,0.01-0.012,0.018-0.033,0.021l-0.021,0.072c-0.022,0.004-0.049,0.006-0.078,0.006c-0.094,0.107-0.196,0.216-0.311,0.327
			c0.502-0.244,0.809-0.447,0.92-0.61l0.062,0.045c-0.086,0.184-0.173,0.341-0.261,0.471l-0.006,0.005
			c0.026-0.004,0.051-0.011,0.072-0.022c-0.154,0.111-0.312,0.22-0.471,0.327c0.004,0.003,0.009,0.003,0.018,0l-0.045,0.061
			c-0.008-0.003-0.015-0.012-0.021-0.027c-0.607,0.403-1.17,0.749-1.688,1.037c-0.029,0.015-0.057,0.032-0.083,0.051
			c-0.036,0.029-0.071,0.057-0.104,0.083c-0.107,0.085-0.209,0.166-0.305,0.244c-0.013,0.019-0.023,0.037-0.035,0.056
			c0.06,0.007,0.113,0.018,0.162,0.033c-0.061,0.025-0.14,0.053-0.24,0.083c-0.006,0.015-0.014,0.028-0.021,0.039
			c-0.041,0.056-0.081,0.115-0.121,0.178c0.059-0.026,0.117-0.05,0.178-0.072c0.226-0.108,0.429-0.19,0.609-0.25
			c0.456-0.181,0.879-0.341,1.271-0.482l0.033-0.005c0.008,0.018-0.021,0.071-0.084,0.16c-0.209,0.308-1.015,0.779-2.412,1.415
			c-0.059,0.081-0.116,0.16-0.172,0.238l0.062,0.073c-0.06,0.021-0.116,0.046-0.171,0.071c-0.037,0.049-0.076,0.101-0.117,0.156
			c0.484-0.199,0.952-0.38,1.402-0.543c-0.418,0.318-1.029,0.682-1.836,1.092c-0.096,0.115-0.193,0.23-0.293,0.344l0.004,0.012
			c-0.014,0.006-0.025,0.013-0.032,0.016c-0.052,0.059-0.103,0.116-0.149,0.172l0.043,0.077c-0.062,0.026-0.125,0.054-0.188,0.083
			c-0.07,0.078-0.143,0.155-0.217,0.233c0.74-0.292,1.279-0.512,1.615-0.66c-0.004,0.029,0.002,0.044,0.017,0.044
			c0,0.004-0.03,0.05-0.089,0.139c-0.129,0.184-0.448,0.412-0.954,0.682c0.038-0.011,0.071-0.02,0.1-0.027
			c-0.065,0.037-0.127,0.072-0.183,0.105c-0.041,0.099-0.09,0.192-0.15,0.277c-0.048,0.067-0.133,0.161-0.255,0.283
			c0.106-0.033,0.207-0.063,0.299-0.089c-0.28,0.285-0.655,0.562-1.126,0.833c-0.025,0.022-0.052,0.044-0.078,0.066
			c0.536-0.244,0.854-0.403,0.954-0.477l0.062,0.039l-0.066,0.139c-0.359,0.377-0.873,0.734-1.542,1.07
			c-0.114,0.057-0.243,0.117-0.383,0.184c-0.211,0.13-0.442,0.266-0.692,0.411c0.062,0.062,0.094,0.113,0.094,0.154
			c-0.192,0.07-0.395,0.152-0.604,0.244c-0.385,0.3-0.696,0.546-0.933,0.738c1.117-0.558,1.894-0.845,2.33-0.859
			c-0.787,0.362-1.576,0.812-2.369,1.354c-0.442,0.302-1.123,0.811-2.041,1.525c-0.291,0.392-0.659,0.965-1.104,1.72
			c-0.211,1.301-0.822,2.127-1.836,2.479c-0.197,0.177-0.256,0.299-0.178,0.365c0.018,0.025-0.42,0.27-1.314,0.732l0.017,0.012
			c-0.308,0.248-0.737,0.574-1.292,0.977c-0.055,0.041-0.114,0.083-0.178,0.127c-0.443,0.1-0.859,0.201-1.248,0.305
			c-0.451,0.115-0.992,0.27-1.621,0.467c0.072,0.085,0.134,0.179,0.189,0.282c-0.422-0.003-0.771-0.007-1.048-0.011
			c-0.263,0.085-0.538,0.177-0.827,0.277c0.034-0.004,0.075-0.01,0.123-0.017c0.329-0.044,0.621-0.021,0.876,0.072l0.039-0.017
			c0.019,0.008-0.003,0.054-0.065,0.139c-0.057,0.081-0.237,0.17-0.545,0.267c0.016,0.002,0.028,0.01,0.039,0.021l-0.021,0.071
			c-0.055-0.018-0.115-0.035-0.178-0.055c-0.215,0.055-0.474,0.111-0.776,0.166c-0.366,0.067-0.66,0.119-0.882,0.156
			c0.076,0.084,0.109,0.149,0.094,0.193c-0.107-0.03-0.305-0.078-0.593-0.144l-0.017,0.005c0.066,0.025,0.146,0.078,0.238,0.156
			c0.1,0.088,0.15,0.151,0.15,0.188c-0.178,0.062-0.645,0.112-1.398,0.149c-0.266,0.008-0.507,0.026-0.721,0.055
			c0.089,0.104,0.127,0.18,0.116,0.229c-0.229-0.049-0.445-0.09-0.648-0.129c-0.142,0.034-0.265,0.074-0.372,0.123
			c-0.34,0.133-0.714,0.25-1.121,0.35c0.016,0.004,0.032,0.008,0.051,0.011c0.104,0.108,0.152,0.181,0.145,0.223
			c-0.133-0.048-0.318-0.098-0.555-0.15c-0.469,0.096-0.799,0.161-0.987,0.194l0.039,0.017c0.028,0.004,0.065,0,0.11-0.011
			l0.095,0.077c0.065,0.06,0.101,0.108,0.104,0.144c-0.668,0-1.57,0.021-2.701,0.062c-0.365,0.007-0.709,0.019-1.031,0.038
			c-1.035,0.178-2.121,0.352-3.256,0.521c0.262,0.094,0.479,0.187,0.654,0.283c-0.423-0.009-0.941-0.062-1.554-0.154
			c-0.2,0.029-0.405,0.059-0.614,0.089c-0.041,0.003-0.08,0.009-0.117,0.017c0.533,0.143,0.844,0.238,0.938,0.282
			c-0.436-0.026-1.018-0.087-1.742-0.183h-0.006c-0.117,0.016-0.244,0.031-0.377,0.05c0.367,0.111,0.674,0.22,0.922,0.327
			c-0.285,0.008-0.908-0.063-1.87-0.211c-0.276,0.037-0.569,0.072-0.876,0.105c0.188,0.085,0.416,0.182,0.682,0.289l0.019-0.023
			c0.153,0.149,0.226,0.246,0.21,0.295c-0.232-0.066-0.461-0.133-0.688-0.199c-0.078-0.029-0.444-0.113-1.099-0.25
			c-0.178,0.021-0.356,0.045-0.538,0.066c0.094,0.108,0.188,0.224,0.288,0.35c-0.174,0.022-0.435-0.039-0.786-0.184
			c-0.131,0.056-0.257,0.109-0.378,0.162c0.203,0.206,0.399,0.424,0.589,0.654c-0.166-0.045-0.505-0.202-1.011-0.473
			c-0.126,0.052-0.246,0.103-0.36,0.156c0.223,0.148,0.463,0.308,0.722,0.482c-0.052,0.013-0.111,0.025-0.179,0.033
			c-0.121,0.015-0.263,0.006-0.42-0.027c0.25,0.214,0.418,0.404,0.498,0.57c-0.121-0.025-0.451-0.162-0.986-0.41
			c-0.215-0.096-0.399-0.178-0.549-0.244c-0.115,0.045-0.229,0.092-0.34,0.145c0.073,0.074,0.143,0.151,0.205,0.232
			c-0.037,0.016-0.068,0.027-0.095,0.039l0.754,0.494l0.039,0.083c0.026,0.071,0.039,0.122,0.039,0.155
			c-0.106-0.008-0.229-0.028-0.371-0.061c-0.019,0.022-0.041,0.053-0.065,0.094c-0.082,0.115-0.234,0.17-0.461,0.166
			c0.015,0.007,0.028,0.015,0.045,0.022c0.17,0.107,0.283,0.198,0.338,0.272c-0.123-0.015-0.262-0.011-0.422,0.011
			c-0.117,0.015-0.228,0.006-0.328-0.028c-0.039-0.01-0.086-0.03-0.139-0.055c-0.15-0.008-0.304-0.033-0.453-0.078
			c-0.152-0.044-0.33-0.112-0.533-0.205c-0.025,0.016-0.053,0.031-0.078,0.051c0.033,0.01,0.064,0.021,0.09,0.032
			c0.431,0.215,0.72,0.343,0.865,0.384l0.082,0.1c0.052,0.07,0.072,0.121,0.062,0.154c-0.237-0.037-0.515-0.098-0.832-0.182
			c0.158,0.113,0.324,0.222,0.498,0.326c0.011-0.011,0.021-0.023,0.028-0.039l0.062,0.039v0.05c0.066,0.038,0.132,0.073,0.193,0.106
			c-0.054,0.025-0.121,0.041-0.199,0.043v0.072c-0.123,0.074-0.31,0.117-0.562,0.128c-0.004,0.007,0.009,0.036,0.033,0.083
			c0.022,0.056,0.035,0.095,0.039,0.117c-0.089-0.029-0.254-0.099-0.494-0.205c-0.377-0.023-0.838-0.088-1.387-0.195l-0.006,0.006
			c0.723,0.548,1.086,0.826,1.094,0.832c0.082,0.053,0.211,0.094,0.389,0.128c0.093,0.015,0.197,0.03,0.312,0.044
			c-0.2,0.061-0.351,0.081-0.455,0.061c-0.215-0.028-0.511-0.166-0.889-0.41c-0.06-0.041-0.117-0.078-0.177-0.115
			c0.006,0.011,0.014,0.021,0.021,0.033c0.262,0.414,0.493,0.66,0.688,0.737c0.013,0.059,0.013,0.122,0,0.188
			c-0.016,0.074-0.041,0.136-0.077,0.189c-0.011-0.004-0.078-0.028-0.205-0.072c0.103,0.08,0.198,0.154,0.289,0.216
			c-0.108-0.04-0.183-0.054-0.224-0.039c-0.037,0.027-0.063,0.046-0.082,0.062c-0.069,0.033-0.304-0.08-0.699-0.339
			c-0.012-0.007-0.031-0.025-0.062-0.05c-0.011,0.018-0.026,0.043-0.044,0.072c-0.066,0.099-0.129,0.15-0.189,0.15
			c-0.037,0-0.112-0.037-0.227-0.111c-0.186-0.123-0.412-0.426-0.683-0.91c0.352,0.732,0.606,1.227,0.765,1.486
			c-0.003,0-0.008,0.002-0.016,0.006c0.054,0,0.145,0.002,0.271,0.006c-0.056,0.004-0.097,0.033-0.123,0.089
			c-0.033,0.066-0.062,0.104-0.082,0.116c-0.097,0.048-0.367-0.067-0.812-0.344c-0.003,0.03-0.005,0.063-0.005,0.1
			c0.076,0.16,0.145,0.281,0.205,0.366l-0.051,0.155c-0.021,0-0.047,0.004-0.071,0.012c0.041,0.159,0.083,0.318,0.127,0.477
			l0.006,0.072c-0.013,0.029-0.063,0.016-0.149-0.039c-0.066-0.045-0.125-0.106-0.177-0.184c-0.004,0.037-0.01,0.074-0.019,0.111
			c-0.021,0.14-0.045,0.277-0.071,0.41c0.011,0.248,0.019,0.502,0.022,0.76l-0.105,0.029c-0.012-0.074-0.025-0.146-0.044-0.211
			c-0.017,0.078-0.031,0.153-0.05,0.227c0.01,0.007,0.02,0.017,0.027,0.028c-0.016,0.044-0.043,0.101-0.084,0.171
			c-0.123,0.404-0.254,0.707-0.395,0.91c-0.062,0.092-0.126,0.168-0.188,0.228c-0.004,0-0.064,0.044-0.179,0.134l-0.095-0.029
			c0.004-0.002,0.066-0.056,0.183-0.16c0.074-0.07,0.14-0.147,0.2-0.232c0.114-0.166,0.221-0.439,0.32-0.821
			c-0.043-0.018-0.108-0.055-0.192-0.11c-0.151-0.098-0.274-0.236-0.372-0.416c-0.007,0.11-0.02,0.221-0.039,0.332
			c-0.062,0.037-0.113,0.06-0.154,0.072c-0.074,0.018-0.155,0-0.244-0.056c-0.162-0.106-0.299-0.343-0.41-0.71
			c0,0.015-0.004,0.031-0.012,0.05c-0.041,0.211-0.094,0.474-0.16,0.788c0.043,0.129,0.098,0.252,0.16,0.365l-0.045,0.062
			c-0.047,0.025-0.082,0.039-0.104,0.039c-0.027,0.003-0.061-0.003-0.102-0.023c-0.022,0.088-0.039,0.179-0.056,0.271
			c-0.054,0.025-0.091,0.041-0.11,0.045c-0.041,0.008-0.08,0.004-0.121-0.011c-0.029-0.185-0.055-0.409-0.072-0.671
			c-0.066-0.129-0.112-0.291-0.133-0.482c-0.021,0.063-0.037,0.126-0.057,0.188l-0.011,0.012c-0.026,0.118-0.053,0.236-0.078,0.354
			c-0.045,0.252-0.094,0.519-0.145,0.8c0.014,0.01,0.036,0.009,0.065-0.006c0.055-0.033,0.09-0.055,0.105-0.066
			c-0.004,0.059-0.045,0.144-0.122,0.255c0.015,0.014,0.021,0.025,0.017,0.032c-0.004,0.004-0.033-0.012-0.088-0.049
			c-0.064,0.422-0.102,0.826-0.117,1.215c-0.056-0.414-0.059-0.855-0.012-1.326c-0.1-0.178-0.102-0.555-0.006-1.132
			c0-0.617,0.047-1.311,0.139-2.08c-0.018,0.015-0.035,0.028-0.055,0.039c-0.029,0.1-0.055,0.205-0.078,0.311
			c-0.258,1.04-0.355,1.929-0.293,2.668c0.055-0.023,0.082,0.057,0.082,0.239l-0.033,0.044c0.016,0.014,0.022,0.024,0.018,0.027
			c-0.004,0.007-0.049-0.016-0.133-0.071c-0.101-0.067-0.176-0.169-0.232-0.306c-0.027,0.271-0.043,0.536-0.051,0.799l-0.045,0.027
			c0.013,0.011,0.015,0.02,0.007,0.028c-0.005,0-0.048-0.028-0.134-0.084c-0.155-0.1-0.252-0.272-0.289-0.516
			c-0.07,0.159-0.145,0.326-0.223,0.5c-0.107,0.041-0.219,0.046-0.338,0.016c0-0.039,0.002-0.086,0.006-0.139
			c-0.058,0.07-0.125,0.091-0.199,0.062c-0.045-0.012-0.104-0.055-0.178-0.129c-0.016,0.047-0.043,0.138-0.084,0.272
			c-0.037,0.111-0.062,0.2-0.076,0.267c-0.041,0.033-0.096,0.056-0.162,0.071c0.054-0.706,0.162-1.429,0.328-2.169
			c-0.129,0.395-0.311,0.931-0.545,1.609l-0.061,0.043c-0.045-0.342,0.064-1.017,0.328-2.023c-0.025,0.076-0.055,0.158-0.084,0.244
			c-0.258,0.732-0.477,1.261-0.654,1.586c-0.033,0.156-0.074,0.32-0.122,0.494l-0.028,0.045c0.017,0.013,0.022,0.023,0.019,0.027
			c-0.009,0.007-0.056-0.017-0.14-0.072c-0.019-0.015-0.032-0.037-0.045-0.066c-0.025,0.03-0.057,0.049-0.094,0.061
			c0.021-0.055,0.045-0.111,0.066-0.166c-0.034-0.26,0.058-0.784,0.277-1.576c0.049-0.17,0.101-0.332,0.148-0.488
			c-0.048,0.023-0.096,0.042-0.139,0.062c-0.203,0.688-0.366,1.199-0.487,1.535c-0.082,0.063-0.165,0.08-0.25,0.051
			c0.037-0.26,0.166-0.744,0.39-1.454c-0.101,0.037-0.195,0.074-0.283,0.111c-0.215,0.762-0.414,1.281-0.601,1.554
			c-0.063,0.088-0.096,0.133-0.101,0.133c-0.008-0.014-0.02-0.021-0.038-0.021c-0.011-0.371,0.089-0.873,0.3-1.51
			c-0.68,0.237-1.066,0.324-1.159,0.261c-2.321-1.587-3.938-3.598-4.843-6.035c-0.114-0.311-0.213-0.612-0.294-0.905
			c-0.647-0.654-0.802-1.439-0.461-2.357c0.077-0.203,0.176-0.406,0.295-0.609c0.028-0.082,0.063-0.15,0.104-0.205
			c0.029-0.041,0.06-0.076,0.088-0.105c-0.231-0.197-0.293-0.452-0.188-0.766c0.041-0.103,0.1-0.213,0.178-0.327
			c0.07-0.101,0.108-0.155,0.116-0.167c0.199-0.278,0.763-0.729,1.692-1.354c0.932-0.629,1.515-1.108,1.746-1.437
			c1.072-1.491,2.932-2.407,5.574-2.751c1.389-0.178,2.9-0.198,4.539-0.056l0.006-0.017c0.08-0.045,0.309-0.149,0.683-0.311
			c0.332-0.144,0.528-0.24,0.588-0.289l0.062,0.039c0.016,0.041,0.041,0.086,0.078,0.133c0.004,0.016,0.006,0.029,0.006,0.045
			c0.066-0.023,0.141-0.041,0.221-0.055c0.09-0.065,0.203-0.139,0.345-0.223c0.288-0.17,0.461-0.24,0.521-0.211
			c-0.177,0.119-0.369,0.238-0.576,0.36c0.015-0.003,0.029-0.005,0.045-0.005c0.24-0.123,0.398-0.212,0.477-0.271l-0.066,0.144
			c-0.025,0.015-0.056,0.033-0.088,0.056c0.043-0.012,0.086-0.023,0.127-0.033c0.133-0.215,0.246-0.407,0.338-0.578
			c0.027-0.003,0.06,0.008,0.101,0.034c0.013-0.022,0.024-0.044,0.045-0.066l0.062,0.044c0.004,0.089-0.008,0.166-0.033,0.233
			c-0.021,0.048-0.074,0.131-0.155,0.249c-0.004,0.008-0.007,0.014-0.011,0.018c0.037-0.011,0.07-0.019,0.1-0.023
			c0.008-0.004,0.014-0.007,0.021-0.01c0.074-0.027,0.143-0.053,0.205-0.078c0.193-0.211,0.304-0.364,0.334-0.461l0.061,0.045
			c-0.004,0.107-0.021,0.212-0.055,0.316c0.543-0.164,1.039-0.226,1.486-0.189c0.041,0,0.08,0,0.121,0
			c0.137-0.174,0.256-0.336,0.36-0.488l0.062,0.039c-0.041,0.097-0.127,0.239-0.261,0.428c0,0.004-0.002,0.008-0.006,0.012
			c0.041-0.004,0.079-0.004,0.116,0c0.218-0.131,0.429-0.246,0.632-0.35c0.008-0.041,0.024-0.08,0.045-0.117l0.062,0.045
			c-0.004,0.003-0.004,0.007,0,0.01c0.455-0.25,0.852-0.454,1.188-0.609c0.471-0.336,0.917-0.576,1.342-0.721
			c0.209-0.111,0.398-0.18,0.572-0.205l-0.045,0.11c-0.398,0.289-0.699,0.503-0.898,0.644c-0.215,0.148-0.428,0.265-0.638,0.35
			l-0.233,0.16c-0.024,0.03-0.053,0.059-0.082,0.084c0.056-0.025,0.11-0.053,0.166-0.078c0.133-0.063,0.263-0.121,0.389-0.172
			v-0.012c0.27-0.244,0.658-0.514,1.165-0.809c0.514-0.297,0.92-0.49,1.221-0.583c-0.19,0.274-0.514,0.54-0.978,0.799
			c2.312-0.929,4.802-1.663,7.468-2.202c1.844-0.373,3.467-0.6,4.864-0.677c0.776-0.262,1.829-0.514,3.156-0.754
			c0.91-0.156,1.84-0.292,2.791-0.411c0.81-0.096,1.275-0.133,1.397-0.111c0.032-0.603,0.243-1.177,0.632-1.725
			c0.98-1.368,2.461-3.025,4.443-4.97c0.539-0.532,1.357-1.333,2.451-2.402c0.944-0.929,1.735-1.748,2.375-2.458
			c1.326-1.457,2.72-2.785,4.184-3.983c0.119-0.363,0.227-0.616,0.322-0.76c0.055-0.075,0.119-0.151,0.188-0.228
			c0.066-0.071,0.116-0.13,0.149-0.178l0.066,0.039c-0.142,0.266-0.295,0.57-0.461,0.91c0.004-0.004,0.01-0.01,0.016-0.017
			c0.138-0.112,0.275-0.215,0.412-0.311c0.055-0.104,0.117-0.218,0.188-0.344c0.096-0.167,0.184-0.321,0.262-0.466
			c0.032-0.184,0.067-0.306,0.104-0.366c0.06-0.085,0.096-0.127,0.11-0.127l-0.012,0.027l0.023,0.016
			c0.018-0.044,0.035-0.085,0.05-0.122l0.144,0.094c0,0.015-0.006,0.041-0.021,0.078c0.016-0.023,0.027-0.044,0.039-0.062
			c0.113-0.166,0.176-0.252,0.183-0.255c0.03-0.029,0.058-0.051,0.083-0.066c0.008-0.029,0.014-0.06,0.018-0.089l0.062,0.044
			l0.005,0.006c0.041-0.011,0.088-0.011,0.139,0c-0.041,0.144-0.09,0.291-0.149,0.443c-0.008,0.037-0.013,0.074-0.017,0.111
			c0.052-0.058,0.104-0.116,0.16-0.171c0.023-0.037,0.045-0.074,0.067-0.111c0.019-0.055,0.035-0.112,0.05-0.171
			c0.016-0.078,0.035-0.196,0.061-0.355l0.084,0.017c-0.004,0.062-0.014,0.14-0.028,0.232c0.06-0.103,0.128-0.213,0.205-0.327
			c0.005-0.004,0.056-0.078,0.155-0.223c0.012-0.01,0.022-0.02,0.033-0.027c0.097-0.092,0.203-0.122,0.316-0.089
			c-0.003,0.037-0.011,0.076-0.021,0.116c0.037-0.037,0.072-0.07,0.104-0.1c0.063-0.163,0.209-0.54,0.438-1.131
			c0.125-0.252,0.172-0.675,0.138-1.271c-0.036-0.644-0.007-1.104,0.089-1.381c0.025-0.074,0.053-0.144,0.083-0.211
			C123.032,18.252,123.178,17.69,123.428,17.117L123.428,17.117z"/>
	</g>
	<g id="Layer_3_2_">
		<path id="path20_1_" fill="#010101" d="M95.786,161.768c-0.256-0.271-0.627-0.611-1.116-1.023l0.018-0.083
			c-2.098-1.21-1.894-2.884,0.609-5.026c1.357,2.646,2.178,4.065,2.459,4.26c0.157,0.139,0.305,0.347,0.442,0.629
			c0.037,0.065,0.083,0.252,0.139,0.56c0.214,0.442,0.491,0.849,0.827,1.222c0.337,0.354,0.71,0.976,1.121,1.862
			c0,0.022,0.129,0.201,0.389,0.539c0.266,0.324,0.48,0.66,0.644,1.004c0.178,0.403-0.081,0.769-0.776,1.092
			c-0.474,0.235-0.864,0.212-1.171-0.065c-0.196-0.35-0.298-0.528-0.306-0.531c-0.025-0.048-0.059-0.196-0.1-0.443
			c-0.033-0.236-0.049-0.356-0.045-0.361c-0.025-0.055-0.22-0.274-0.582-0.659c-0.408-0.447-0.648-0.726-0.721-0.832
			c-0.02-0.004-0.161-0.255-0.428-0.755c-0.163-0.307-0.396-0.54-0.699-0.699C96.395,162.411,96.159,162.182,95.786,161.768
			L95.786,161.768z"/>
	</g>
	<g id="Layer_8">
		<path id="path23_2_" fill="#010101" d="M107.291,126.669c-0.018-0.003-0.048-0.002-0.089,0.004c-0.079,0-0.535,0.037-1.371,0.111
			c-0.565,0.034-1.022,0.052-1.375,0.056c-0.233-0.01-0.429,0.008-0.588,0.057c0.003-0.012,0.003-0.019,0-0.021
			c-0.13-0.119-0.319-0.158-0.572-0.117c-0.073,0.012-0.157,0.033-0.25,0.066c-0.024,0.016-0.055,0.029-0.088,0.045
			c-0.226-0.059-0.517-0.094-0.871-0.105c-0.313-0.018-0.634-0.013-0.959,0.018c-0.28-0.094-0.481-0.154-0.599-0.184
			c-0.103-0.031-0.209-0.049-0.316-0.057c-0.196-0.1-0.457-0.143-0.781-0.127c-0.108,0-0.357-0.055-0.75-0.161
			c-0.074-0.044-0.147-0.083-0.217-0.116c-0.004-0.004-0.006-0.004-0.006,0c-0.259-0.199-0.654-0.429-1.182-0.688l0.011-0.096
			c-2.237-0.562-2.003-2.217,0.705-4.965c0.478,0.731,0.892,1.344,1.243,1.832c0.085,0.073,0.156,0.144,0.216,0.211
			c0.67,0.518,1.142,0.823,1.415,0.92l0.51,0.166c0.03,0.018,0.062,0.041,0.1,0.066c0.386,0.182,0.828,0.285,1.326,0.311
			c0.096,0.016,0.194,0.032,0.295,0.051c0.217,0.052,0.461,0.128,0.731,0.228c0.358,0.101,0.755,0.231,1.188,0.394
			c0.028,0.013,0.308,0.052,0.836,0.117c0.541,0.07,1.104,0.166,1.688,0.289c0.58,0.117,0.708,0.485,0.383,1.104
			C107.799,126.291,107.587,126.488,107.291,126.669L107.291,126.669z"/>
	</g>
</g>
</svg>
