<?xml version="1.0" encoding="utf-8"?>
<!-- Generator: Adobe Illustrator 15.0.0, SVG Export Plug-In . SVG Version: 6.00 Build 0)  -->
<svg version="1.2" baseProfile="tiny" id="Layer_1" xmlns="http://www.w3.org/2000/svg" xmlns:xlink="http://www.w3.org/1999/xlink"
	 x="0px" y="0px" width="200px" height="200px" viewBox="0 0 200 200" overflow="inherit" xml:space="preserve">
<g>
	<g id="Layer_2_1_">
		<path id="path5_2_" fill="#010101" d="M139.122,32.449c-0.144,0.218-0.277,0.41-0.399,0.577c-0.018,0.089-0.043,0.202-0.072,0.338
			c0.037-0.03,0.07-0.05,0.1-0.061c0.033,0.081,0.051,0.137,0.051,0.166c-0.02,0.03-0.03,0.056-0.033,0.078
			c-0.023,0.074-0.037,0.194-0.045,0.361c0.021,0.037,0.043,0.083,0.061,0.138c0.022-0.196,0.051-0.408,0.084-0.638l0.05,0.011
			c0.06,0.385,0.11,0.72,0.155,1.004c0.066-0.096,0.121-0.157,0.166-0.183c0.06,0.066,0.068,0.102,0.027,0.105l-0.016,0.05
			c0.014,0.204,0.031,0.401,0.049,0.594c0.053-0.074,0.104-0.125,0.156-0.15c-0.022,0.078-0.06,0.167-0.111,0.266
			c0.052,0.082,0.102,0.159,0.15,0.233c0.129-0.226,0.203-0.358,0.221-0.399l0.057,0.012c0.007,0.029,0.011,0.048,0.011,0.055
			c-0.004,0.011-0.013,0.048-0.028,0.111c-0.007,0.019-0.016,0.041-0.027,0.067l0.089,0.011c0,0.004,0.002,0.015,0.006,0.034
			c0.007-0.004,0.013-0.007,0.017-0.011c0.044-0.015,0.074-0.022,0.088-0.022c0.016,0.055-0.005,0.124-0.061,0.206
			c0,0.007,0.039,0.009,0.117,0.005c0.044-0.03,0.053,0,0.027,0.089c-0.012,0.033-0.059,0.09-0.145,0.172
			c0.004,0.122,0,0.199-0.012,0.233c0,0.004,0,0.01,0,0.017c0.004,0.029,0.012,0.059,0.023,0.088
			c0.158-0.118,0.282-0.201,0.371-0.249l0.045,0.033c0.029,0.019,0.049,0.039,0.061,0.062c-0.133,0.174-0.27,0.325-0.41,0.455
			c0.004,0.003,0.005,0.007,0.005,0.012c0.252-0.186,0.455-0.309,0.61-0.372c-0.078,0.133-0.264,0.316-0.561,0.549
			c0.004,0.011,0.006,0.026,0.006,0.044c0.26-0.2,0.482-0.333,0.672-0.399c0.014,0.019,0.027,0.03,0.039,0.034
			c0.004,0.011-0.004,0.045-0.023,0.105c-0.01,0.037-0.1,0.125-0.266,0.267c0.052-0.026,0.102-0.048,0.15-0.067
			c-0.045,0.071-0.1,0.143-0.167,0.217c0.13-0.066,0.233-0.098,0.311-0.094l0.028,0.044c-0.107,0.085-0.304,0.257-0.588,0.515
			c0.004,0.015,0.006,0.034,0.011,0.056c0.292-0.215,0.536-0.383,0.731-0.505c-0.144,0.145-0.271,0.271-0.383,0.377
			c0.281-0.214,0.519-0.368,0.711-0.46c0.008,0.018,0.018,0.029,0.033,0.033c0.007,0.012,0.002,0.044-0.018,0.1
			c-0.025,0.089-0.189,0.285-0.492,0.589c0.188-0.053,0.353-0.059,0.492-0.023l0.018,0.034c-0.012,0.004-0.047,0.025-0.105,0.067
			c0.021,0.018,0.035,0.038,0.039,0.061c-0.037,0.007-0.219,0.096-0.544,0.267c-0.015,0.007-0.03,0.014-0.044,0.022
			c0.133,0.025,0.275,0.059,0.427,0.1c0.007,0,0.019-0.004,0.034-0.012c-0.004,0.007-0.008,0.015-0.012,0.022
			c0.029,0.004,0.059,0.013,0.089,0.028c0.081,0,0.166,0.001,0.255,0.005c-0.025,0.022-0.054,0.046-0.083,0.072
			c0.029,0.003,0.052,0.003,0.066,0c0.048-0.03,0.06,0,0.034,0.089c-0.03,0.084-0.268,0.221-0.711,0.41
			c0.199,0.037,0.375,0.096,0.527,0.178c-0.129,0.04-0.271,0.077-0.428,0.11c0.026,0,0.054,0,0.084,0l0.011,0.044
			c-0.134-0.003-0.316,0.017-0.55,0.062c0.141,0.062,0.287,0.127,0.439,0.194c0.166,0.018,0.34,0.038,0.521,0.062v0.05
			c-0.037,0.006-0.111,0.016-0.223,0.027c0.045,0.018,0.091,0.035,0.139,0.05c-0.062-0.015-0.126-0.032-0.188-0.05
			c-0.022,0-0.046,0.002-0.072,0.005c0,0.007-0.002,0.022-0.005,0.044c-0.027,0.074-0.117,0.139-0.272,0.194
			c0.425,0.196,0.753,0.265,0.981,0.205c0,0.026-0.007,0.067-0.021,0.122c-0.037,0.011-0.125,0.015-0.267,0.011
			c-0.118,0.096-0.292,0.157-0.521,0.183c-0.008-0.004-0.014-0.004-0.018,0c0.074,0.033,0.145,0.065,0.211,0.095
			c0.012-0.004,0.021-0.004,0.033,0c-0.004,0-0.01,0.001-0.017,0.005c0.071,0.03,0.134,0.057,0.188,0.083
			c0.066,0.037,0.104,0.07,0.111,0.1c-0.126-0.029-0.285-0.077-0.477-0.144c-0.049,0.007-0.099,0.015-0.15,0.022
			c0.192,0.034,0.35,0.064,0.471,0.094c-0.021-0.003-0.212,0.004-0.57,0.022c-0.096,0.007-0.196,0.007-0.299,0
			c0.225,0.137,0.479,0.255,0.76,0.354c-0.012,0.004-0.094-0.003-0.244-0.022c-0.101-0.011-0.188-0.022-0.262-0.033
			c-0.137,0.011-0.277,0.005-0.422-0.017c0.508,0.178,0.798,0.265,0.871,0.261l0.045,0.011l-0.012,0.055
			c-0.092,0.055-0.166,0.089-0.221,0.1c-0.07,0.011-0.152,0.021-0.244,0.027c0.01,0.015,0.014,0.03,0.01,0.044
			c-0.039,0.015-0.199,0.009-0.477-0.016c-0.084-0.007-0.162-0.014-0.232-0.017c0.381,0.251,0.706,0.4,0.977,0.449
			c-0.008,0.081-0.102,0.111-0.283,0.089c-0.026,0.011-0.062,0.029-0.111,0.055c-0.081,0.041-0.129,0.059-0.145,0.055
			c-0.141-0.025-0.322-0.088-0.549-0.188c-0.015,0.063-0.025,0.121-0.033,0.172c0.399,0.233,0.638,0.366,0.715,0.399l-0.01,0.043
			c-0.277-0.095-0.52-0.191-0.727-0.287c-0.008,0.021-0.014,0.044-0.018,0.066c0.344,0.251,0.654,0.412,0.932,0.482
			c0.082,0.029,0.123,0.054,0.123,0.072c-0.016,0.004-0.121,0-0.316-0.012c-0.192-0.014-0.322-0.027-0.389-0.039
			c-0.052-0.006-0.184-0.09-0.395-0.248c-0.004,0.014-0.005,0.03-0.005,0.049c0.133,0.186,0.28,0.395,0.444,0.627
			c-0.037,0.023-0.082,0.033-0.134,0.033c0.159,0.148,0.335,0.307,0.526,0.477c-0.029,0-0.061-0.003-0.094-0.01
			c0.062,0.047,0.125,0.098,0.189,0.148c0.043,0.037,0.021,0.049-0.067,0.034c-0.114-0.019-0.277-0.128-0.487-0.327
			c0.051,0.089,0.086,0.147,0.104,0.178c-0.019,0.007-0.036,0.011-0.056,0.011c-0.037,0.007-0.084,0.005-0.145-0.005
			c-0.121-0.02-0.26-0.131-0.416-0.334c-0.007,0.07-0.014,0.139-0.021,0.205c0.27,0.264,0.518,0.426,0.743,0.488v0.051
			c-0.044,0.012-0.087,0.021-0.128,0.033c0.07,0.041,0.135,0.072,0.195,0.094l-0.006,0.05c-0.041,0.019-0.074,0.032-0.1,0.039
			c-0.049,0.019-0.103,0.022-0.162,0.011c-0.066-0.011-0.143-0.036-0.227-0.076c0.251,0.317,0.521,0.6,0.811,0.848
			c-0.23-0.152-0.447-0.318-0.65-0.5c-0.033,0.016-0.064,0.026-0.094,0.035c0.085,0.065,0.174,0.139,0.266,0.215
			c-0.037,0.03-0.07,0.053-0.1,0.067c-0.044,0.025-0.096,0.032-0.155,0.021c-0.003,0-0.007,0-0.011,0
			c0.166,0.188,0.36,0.417,0.582,0.683c-0.008,0.025-0.013,0.043-0.017,0.051c-0.015,0.01-0.05,0.01-0.105,0
			c-0.185-0.03-0.427-0.197-0.727-0.5c0.04,0.051,0.091,0.109,0.149,0.172c0.215,0.233,0.346,0.402,0.395,0.51
			c-0.016,0.029-0.027,0.053-0.039,0.066c-0.021,0.023-0.062,0.03-0.122,0.023c-0.14-0.026-0.274-0.082-0.399-0.167
			c-0.004,0.007-0.004,0.019,0,0.034c0.223,0.373,0.366,0.604,0.434,0.693c-0.016,0.032-0.033,0.059-0.051,0.076
			c-0.025,0.027-0.068,0.034-0.127,0.023c-0.107-0.02-0.221-0.096-0.339-0.228c-0.067-0.081-0.134-0.181-0.2-0.294
			c0.166,0.498,0.26,0.896,0.277,1.192c-0.195-0.478-0.379-0.964-0.549-1.459l-0.006-0.011c-0.004,0.044-0.009,0.1-0.016,0.166
			c0.003,0.015,0.003,0.033,0,0.056c0.166,0.478,0.277,0.813,0.332,1.01c0.223,0.369,0.374,0.642,0.455,0.815
			c-0.012,0.025-0.019,0.042-0.022,0.049c-0.015,0.016-0.048,0.02-0.1,0.012h-0.005c0.04,0.148,0.064,0.283,0.071,0.404
			l-0.028,0.028c-0.232-0.218-0.434-0.454-0.604-0.71v0.006l-0.033,0.077l-0.039,0.006c-0.012-0.067-0.022-0.147-0.033-0.245
			c-0.03-0.043-0.056-0.09-0.078-0.139c0.004,0.027,0.008,0.053,0.012,0.078l-0.033,0.006c0.014,0.025,0.027,0.055,0.039,0.084
			c-0.02-0.027-0.039-0.053-0.062-0.078l-0.011-0.006V47.06c-0.007-0.004-0.013-0.009-0.017-0.016
			c0.004,0.014,0.006,0.031,0.006,0.049c0.016,0.057,0.029,0.107,0.045,0.156c0.121,0.129,0.234,0.283,0.338,0.466
			c0.148,0.236,0.34,0.589,0.576,1.06l-0.066,0.122c-0.004,0.022-0.049,0.025-0.139,0.011c-0.011-0.004-0.02-0.006-0.027-0.006
			c0.137,0.303,0.186,0.518,0.145,0.645c-0.022,0.073-0.061,0.129-0.117,0.166c0.097,0.182,0.195,0.396,0.295,0.644
			c-0.008,0.003-0.041,0.027-0.1,0.071c-0.016,0.008-0.03,0.018-0.045,0.028c0.052,0.097,0.102,0.201,0.15,0.316
			c0.029,0.04,0.055,0.085,0.077,0.133l-0.017,0.022c0.033,0.084,0.068,0.176,0.105,0.271c-0.026,0.021-0.047,0.039-0.061,0.051
			c-0.016,0.007-0.035,0.01-0.062,0.01c-0.014,0.023-0.042,0.047-0.082,0.072c-0.06-0.04-0.121-0.094-0.184-0.16
			c0.025,0.044,0.052,0.096,0.078,0.154c0.085,0.135,0.164,0.283,0.238,0.449c0.084,0.197,0.189,0.447,0.316,0.756
			c0.029,0.062,0.062,0.131,0.1,0.205c0.025,0.055,0.052,0.114,0.078,0.177c0.106,0.171,0.173,0.272,0.199,0.306
			c-0.008,0.025-0.026,0.046-0.056,0.061c0.218,0.559,0.364,1.053,0.438,1.481c0.081,0.288,0.143,0.528,0.183,0.721h-0.062
			c-0.021-0.062-0.044-0.124-0.066-0.183c0,0.007-0.002,0.016-0.006,0.027l-0.027,0.022c-0.007-0.073-0.019-0.153-0.033-0.238
			c-0.029-0.078-0.057-0.152-0.083-0.222c0,0.014,0,0.027,0,0.039l-0.056,0.021c-0.029-0.1-0.064-0.209-0.105-0.327l-0.011,0.022
			c-0.022-0.022-0.043-0.047-0.062-0.072c-0.004,0.008-0.007,0.014-0.011,0.021c0.185,0.525,0.304,0.908,0.354,1.148
			c0.045,0.078,0.093,0.158,0.145,0.238c-0.045-0.048-0.086-0.098-0.127-0.149c0.014,0.085,0.016,0.144,0.006,0.178
			c-0.02,0.063-0.047,0.122-0.084,0.177l-0.1-0.016l0.078-0.078c-0.004-0.025-0.084-0.252-0.238-0.678
			c-0.045-0.059-0.092-0.119-0.14-0.182c0.019,0.247,0.03,0.494,0.034,0.737c-0.004,0.007-0.002,0.017,0.005,0.028
			c0.137,0.299,0.239,0.533,0.306,0.704l0.005,0.032c-0.096-0.154-0.187-0.309-0.272-0.459c0.023,0.129,0.041,0.264,0.057,0.404
			l-0.022,0.018c-0.03-0.119-0.065-0.248-0.105-0.389c-0.009,0.046-0.017,0.098-0.025,0.158c0.31,0.939,0.584,1.939,0.824,3.003
			c0.311,1.394,0.466,2.499,0.466,3.312c0,0.275-0.281,1.895-0.844,4.86c-0.628,3.294-0.994,5.309-1.098,6.04
			c-0.062,0.478-0.137,1.463-0.223,2.957c-0.043,0.753-0.087,1.417-0.133,1.992c0.116,0.736,0.268,1.617,0.455,2.641
			c0.43,2.299,0.757,5.688,0.982,10.163c0.226,4.475-0.211,9.084-1.31,13.828c-1.103,4.742-2.649,7.255-4.644,7.539
			c-0.348,0.3-0.691,0.604-1.031,0.91c-3.373,3.025-6.938,4.45-10.695,4.276l-1.059,0.173c-0.699-0.049-1.338-0.152-1.914-0.311
			c-0.529-0.148-0.934-0.328-1.215-0.539c-0.004-0.074-0.008-0.15-0.012-0.232c-0.025-0.004-0.051-0.008-0.078-0.011
			c-0.381-0.067-0.736-0.212-1.07-0.433c-0.535-0.178-0.906-0.49-1.109-0.938c-0.047-0.13-0.098-0.287-0.148-0.473
			c-0.318-0.547-0.598-1.211-0.838-1.99c0.014-0.289-0.103-0.701-0.35-1.238c-0.293-0.625-0.66-1.223-1.104-1.797
			c-0.333-0.429-0.644-0.748-0.932-0.959c-0.011-0.015-0.017-0.03-0.017-0.045c-0.393-1.064-0.538-2.039-0.438-2.924
			c0.109-0.872,0.195-1.536,0.254-1.99h-0.139c0.019-0.204,0.037-0.44,0.056-0.711c-0.347-0.957-0.616-1.701-0.804-2.23
			c0.036-0.018,0.11-0.004,0.222,0.045c0.003,0,0.009,0.002,0.017,0.006c-0.062-0.137-0.109-0.312-0.139-0.527
			c-0.17-0.277-0.318-0.565-0.444-0.865c-0.173-0.403-0.271-0.744-0.294-1.025c-0.078-0.082-0.146-0.164-0.205-0.244
			c-0.096-0.13-0.166-0.246-0.211-0.35l0.062-0.123c-0.019-0.04-0.034-0.081-0.044-0.121c0.154-0.074,0.307-0.164,0.454-0.267
			c0.107-0.071,0.214-0.146,0.321-0.228c-0.047-0.126-0.084-0.242-0.11-0.35c-0.004,0-0.007,0-0.011,0
			c-0.008,0-0.014-0.008-0.018-0.021c-0.007-0.02-0.006-0.049,0.006-0.089c-0.029-0.159-0.037-0.3-0.021-0.422l0.077,0.017
			c-0.011,0.074-0.015,0.157-0.011,0.25c0.011-0.025,0.027-0.057,0.049-0.09c0.063-0.104,0.169-0.258,0.316-0.465
			c0.037-0.148,0.076-0.302,0.117-0.461c-0.086,0.111-0.168,0.219-0.25,0.321c-0.285,0.363-0.543,0.644-0.776,0.843l-0.111,0.018
			c-0.011-0.029-0.019-0.052-0.022-0.066c-0.003-0.033,0.016-0.115,0.057-0.244c0.08-0.27,0.514-0.994,1.298-2.169
			c0.032-0.048,0.062-0.095,0.089-0.139c0.011-0.015,0.021-0.028,0.033-0.039c0.004-0.044,0.01-0.083,0.016-0.116
			c0.053-0.285,0.097-0.559,0.133-0.82c-0.01,0.018-0.02,0.035-0.027,0.049c-0.684,1.316-1.096,2.059-1.236,2.225
			c-0.053-0.026-0.084-0.05-0.094-0.072c-0.008-0.033,0.01-0.123,0.055-0.271c0.159-0.403,0.318-0.789,0.477-1.16
			c-0.059,0.123-0.119,0.252-0.183,0.389c-0.07-0.211-0.052-0.49,0.056-0.838c0.016-0.055,0.031-0.111,0.05-0.166l0.933-3.084
			c0.1-0.199,0.207-0.418,0.32-0.654c0.012-0.153,0.023-0.292,0.034-0.417c-0.271,0.599-0.452,1.04-0.544,1.321
			c-0.044,0.018-0.086,0.036-0.127,0.055c-0.078,0.033-0.128,0.035-0.15,0.006c0.089-0.211,0.265-0.65,0.527-1.321l-0.105,0.011
			c0.045-0.118,0.104-0.259,0.178-0.421l-0.123-0.022c0-0.004,0.003-0.009,0.006-0.017c-0.114,0.207-0.218,0.385-0.311,0.533
			l-0.116,0.005c0.241-0.832,0.472-1.585,0.693-2.258c-0.04,0.015-0.079,0.03-0.116,0.044c-0.086,0.033-0.139,0.033-0.16,0
			c0.287-0.717,0.537-1.32,0.748-1.809c0-0.01,0.002-0.018,0.006-0.021c0.004-0.019,0.011-0.035,0.021-0.051
			c0.093-0.207,0.176-0.391,0.25-0.555c0.066-0.133,0.129-0.26,0.189-0.383c0.006-0.035,0.016-0.079,0.027-0.127
			c-0.167,0.322-0.334,0.641-0.5,0.954l-0.117,0.022c0.016-0.056,0.029-0.135,0.039-0.238c0.012-0.096,0.035-0.207,0.072-0.334
			c0.033-0.1,0.256-0.582,0.666-1.447c0.021-0.048,0.043-0.09,0.061-0.127c0.053-0.273,0.107-0.554,0.167-0.838
			c-0.022-0.617-0.052-1.242-0.089-1.875c-0.125-2.111-0.137-3.918-0.033-5.42c0.029-0.514,0.058-0.904,0.083-1.17
			c-0.019-0.197-0.032-0.393-0.044-0.588c0-0.297,0.039-1.073,0.117-2.33c0-0.13,0-0.265,0-0.405c0.003-0.271,0.036-0.745,0.1-1.425
			c0.007-0.09,0.014-0.176,0.021-0.256c-0.226,0.066-0.412,0.089-0.561,0.066c-0.895-0.148-1.389-0.817-1.48-2.008
			c-0.022-0.252-0.024-0.518-0.006-0.799c-0.004,0-0.01-0.002-0.017-0.006c-0.24-0.037-0.36-0.137-0.36-0.299
			c0.048-0.166,0.074-0.258,0.078-0.272c0.062-0.206,0.182-0.325,0.359-0.354c0.02-0.008,0.043-0.012,0.072-0.012l0.006-0.039
			c0.041-0.137,0.501-0.832,1.381-2.085c1.018-1.439,1.674-2.368,1.97-2.79c0.138-0.201,0.271-0.398,0.405-0.594
			c0.055-0.101,0.108-0.202,0.16-0.305c0.861-1.596,1.925-3.062,3.189-4.4c0.896-0.961,1.477-1.607,1.742-1.941
			c0.322-0.395,0.586-0.771,0.793-1.125c0.008-0.008,0.012-0.016,0.012-0.023c-0.016-0.051-0.027-0.104-0.039-0.154
			c0.045-0.074,0.084-0.152,0.116-0.234c0.237-0.51,0.356-0.98,0.36-1.414c0-0.092-0.016-0.195-0.049-0.311
			c0.037-0.258,0.027-0.533-0.028-0.826c-0.077-0.355-0.206-0.662-0.383-0.921c-0.007-0.011-0.015-0.022-0.022-0.032l0.033-0.123
			l-0.011,0.021c-0.151-0.255-0.344-0.415-0.577-0.482c-0.141-0.115-0.289-0.234-0.443-0.36c-0.17-0.11-0.379-0.172-0.627-0.183
			c0.004,0.059,0.004,0.12,0,0.183l-0.039,0.034c-0.025-0.053-0.037-0.121-0.033-0.206l0.006-0.011c-0.037,0-0.074,0-0.111,0
			c-0.012-0.012-0.016-0.023-0.016-0.039c-0.07-0.011-0.142-0.019-0.211-0.021c-0.022,0.076-0.047,0.152-0.072,0.227l-0.039-0.006
			l0.055-0.232c-0.17-0.021-0.34-0.047-0.51-0.072c-0.052-0.004-0.109-0.007-0.172-0.012c-0.059,0.145-0.096,0.26-0.111,0.346
			l-0.061,0.004c0.008-0.092,0.037-0.21,0.088-0.354c-0.025-0.008-0.051-0.012-0.077-0.012c-0.003,0.004-0.005,0.008-0.005,0.012
			c-0.008,0.039-0.028,0.067-0.062,0.082c-0.015,0.06-0.03,0.123-0.044,0.189l-0.056,0.006l0.044-0.178
			c-0.048,0.003-0.08,0.011-0.094,0.021c-0.066-0.074-0.113-0.131-0.139-0.172c-0.02-0.004-0.037-0.008-0.056-0.012
			c0,0.004-0.003,0.01-0.006,0.018c-0.004,0.008-0.007,0.018-0.011,0.033c-0.026,0.085-0.053,0.18-0.078,0.283l-0.033,0.027
			c-0.004-0.053,0.004-0.123,0.022-0.217v-0.006c-0.012-0.033-0.022-0.086-0.034-0.16c-0.003,0-0.008-0.002-0.01-0.006
			c-0.02,0-0.067,0-0.145,0c0.033,0.273,0.064,0.472,0.094,0.594l-0.066,0.006c-0.033-0.1-0.07-0.269-0.111-0.506
			c0,0.012-0.002,0.025-0.006,0.039c0.004,0,0.006,0.004,0.006,0.012l-0.011,0.017c-0.015,0.052-0.026,0.097-0.034,0.134
			l-0.055,0.005c0.008-0.029,0.016-0.062,0.022-0.1c-0.015-0.015-0.026-0.034-0.034-0.056c-0.007-0.004-0.014-0.033-0.021-0.09
			c-0.008,0.031-0.031,0.055-0.072,0.072c-0.011-0.018-0.039-0.059-0.083-0.121c-0.022,0-0.044,0.002-0.067,0.006
			c-0.021,0.025-0.042,0.05-0.061,0.072c0.074,0.225,0.111,0.342,0.111,0.349c-0.082-0.065-0.148-0.175-0.199-0.327
			c-0.016,0.045-0.028,0.086-0.039,0.123v0.005c0.007,0.015,0.014,0.03,0.021,0.044l-0.006,0.039
			c-0.081-0.081-0.148-0.184-0.199-0.305c-0.07-0.004-0.13-0.004-0.178,0c-0.008,0.029-0.011,0.053-0.011,0.072
			c0,0.006,0.003,0.01,0.011,0.01c-0.008,0-0.014-0.002-0.017-0.004c0,0.002,0,0.007,0,0.011c0,0.015-0.001,0.028-0.005,0.044
			c0,0.041,0.005,0.074,0.016,0.1l-0.016,0.027c-0.012-0.033-0.023-0.061-0.033-0.082c-0.023,0.021-0.055,0.037-0.096,0.044
			c-0.003,0.004-0.005,0.009-0.005,0.017h-0.062c0.008-0.008,0.012-0.017,0.012-0.028c-0.118-0.015-0.205-0.048-0.262-0.1
			c-0.055,0.063-0.084,0.097-0.088,0.1c-0.022-0.022-0.043-0.04-0.061-0.056c0.007,0.061,0.009,0.098,0.005,0.111l-0.022,0.084
			c-0.004,0-0.011,0.007-0.021,0.021l-0.033-0.011c0-0.048-0.016-0.141-0.045-0.278c-0.029-0.014-0.061-0.029-0.094-0.043
			l-0.027,0.133c-0.016,0.025-0.037,0.048-0.067,0.066c-0.03-0.066-0.044-0.145-0.044-0.232c-0.033-0.008-0.061-0.01-0.078-0.006
			l0.006-0.012c-0.008,0-0.02,0.021-0.033,0.062l-0.018,0.05c-0.018,0.033-0.047,0.055-0.088,0.066
			c-0.049-0.086-0.074-0.15-0.078-0.194c0-0.015,0.002-0.035,0.006-0.061c-0.004,0-0.008-0.002-0.012-0.005
			c-0.029,0.1-0.061,0.193-0.094,0.282c-0.008,0-0.017,0.003-0.027,0.011c-0.012,0.011-0.045,0.014-0.1,0.006
			c-0.074-0.016-0.136-0.062-0.184-0.145c-0.041-0.082-0.122-0.131-0.244-0.149c-0.041-0.007-0.068-0.035-0.084-0.083
			c-0.006-0.053-0.012-0.088-0.016-0.105c-0.037,0.047-0.068,0.077-0.095,0.089c-0.062-0.026-0.098-0.074-0.104-0.144
			c-0.02-0.123-0.032-0.193-0.039-0.213c0,0.111-0.006,0.195-0.018,0.25l-0.044,0.018c-0.033-0.055-0.064-0.129-0.095-0.223
			c-0.003,0.004-0.007,0.006-0.01,0.006c-0.03-0.019-0.062-0.029-0.096-0.033c-0.044-0.062-0.088-0.131-0.133-0.205
			c-0.008,0.004-0.013,0.006-0.017,0.006c-0.022-0.049-0.044-0.097-0.065-0.145l-0.029,0.127l-0.01,0.033
			c0.021,0.02-0.012,0.021-0.101,0.006c-0.126-0.019-0.222-0.143-0.288-0.371c-0.022-0.033-0.045-0.066-0.066-0.1
			c-0.123-0.06-0.18-0.097-0.173-0.111c0.004,0,0.017,0,0.039,0l-0.027-0.006c-0.034-0.004-0.104-0.143-0.211-0.416
			c-0.089-0.232-0.148-0.424-0.178-0.571c-0.011-0.019-0.019-0.034-0.022-0.044c0,0.04,0.01,0.141,0.027,0.299
			c0.02,0.16,0.027,0.279,0.023,0.361c-0.008,0.018-0.028,0.033-0.062,0.044c-0.114-0.181-0.167-0.438-0.155-0.771
			c0-0.082,0.004-0.178,0.012-0.289c-0.045-0.096-0.076-0.162-0.095-0.199c-0.007-0.015-0.017-0.031-0.028-0.051
			c-0.021-0.033-0.042-0.066-0.061-0.1c-0.012,0.092-0.018,0.196-0.018,0.311c-0.006,0.333,0.023,0.571,0.09,0.717
			c-0.148-0.146-0.213-0.38-0.194-0.705c0.003-0.115,0.015-0.27,0.032-0.461c-0.014-0.018-0.027-0.039-0.038-0.061
			c-0.015,0.037-0.027,0.073-0.038,0.11l-0.062,0.007l0.057-0.184c-0.041-0.06-0.08-0.121-0.117-0.184
			c-0.014,0.037-0.029,0.072-0.044,0.105l-0.044-0.006l0.049-0.16c-0.04-0.059-0.08-0.123-0.121-0.189
			c-0.022,0.074-0.047,0.146-0.072,0.217l-0.045-0.012l0.078-0.255c-0.016-0.029-0.031-0.058-0.051-0.083
			c0,0.012-0.002,0.021-0.004,0.033c-0.012,0.016-0.027,0.016-0.045,0c-0.016-0.015-0.026-0.035-0.033-0.061l0.021-0.078
			c-0.033-0.062-0.061-0.143-0.083-0.238c-0.04,0.092-0.087,0.213-0.139,0.36l-0.044-0.005l0.145-0.482
			c-0.049-0.238-0.094-0.553-0.134-0.943c0-0.008,0-0.015,0-0.022c-0.06-0.074-0.112-0.16-0.161-0.255
			c-0.141-0.273-0.187-0.491-0.139-0.654c0.045-0.145,0.19-0.303,0.438-0.477c0.048-0.034,0.095-0.062,0.139-0.083
			c0-0.011,0.001-0.021,0.006-0.033c0.015-0.096,0.044-0.196,0.089-0.3c0.088-0.292,0.178-0.492,0.266-0.599
			c0.041-0.044,0.088-0.085,0.139-0.122c0.093-0.181,0.248-0.384,0.466-0.61c0.114-0.114,0.222-0.202,0.322-0.261
			c-0.004-0.051,0.003-0.1,0.022-0.144c0.007-0.014,0.012-0.03,0.016-0.044c0.066-0.07,0.137-0.148,0.211-0.233
			c0.17-0.2,0.312-0.37,0.428-0.51c0.044-0.03,0.09-0.062,0.139-0.095c0.396-0.263,0.842-0.469,1.336-0.621
			c0.496-0.151,0.893-0.198,1.188-0.139c0.155,0.03,0.264,0.088,0.322,0.177c0.191-0.199,0.488-0.362,0.887-0.488
			c0.107-0.104,0.244-0.229,0.41-0.377c0.07-0.056,0.15-0.121,0.239-0.195c0-0.041,0-0.062,0-0.067
			c0.026-0.081,0.066-0.155,0.122-0.221c0-0.022,0-0.044,0-0.067c-0.049-0.011-0.102-0.025-0.16-0.044
			c-0.123-0.036-0.184-0.064-0.184-0.083c0.121,0.011,0.242,0.025,0.361,0.044c0.014-0.07,0.033-0.135,0.055-0.194
			c0.021-0.066,0.043-0.122,0.061-0.167c-0.008-0.011-0.01-0.022-0.01-0.033c-0.086-0.026-0.156-0.045-0.211-0.056l-0.045-0.089
			c0.025-0.007,0.09,0,0.194,0.022c0.155-0.518,0.437-0.856,0.843-1.015c0.004-0.022,0.01-0.044,0.018-0.067
			c-0.101,0.056-0.166,0.082-0.195,0.078c-0.129-0.022-0.156-0.216-0.083-0.583c0.026-0.11,0.083-0.312,0.173-0.604
			c0.229-0.758,0.811-1.146,1.746-1.165c0.352-0.007,0.66,0.041,0.928,0.144c0.033,0.011,0.066,0.026,0.1,0.044
			c0.04,0,0.083,0,0.127,0c0.012,0,0.021-0.001,0.027-0.005c0.074-0.022,0.172-0.041,0.295-0.055
			c0.014-0.025,0.029-0.05,0.044-0.072c0.126-0.196,0.188-0.331,0.188-0.405l0.039,0.006c-0.008,0.092-0.022,0.175-0.045,0.25
			c-0.014,0.044-0.046,0.114-0.094,0.21c0.019-0.003,0.035-0.005,0.049-0.005c0.02-0.019,0.039-0.039,0.062-0.062
			c0.125-0.137,0.256-0.253,0.393-0.349c0.049-0.052,0.09-0.096,0.123-0.133c0.008,0.015,0.013,0.024,0.016,0.028
			c0,0.004,0,0.009,0,0.017c0.03-0.019,0.062-0.037,0.096-0.055c0.029,0.037,0.057,0.087,0.082,0.149
			c0.09-0.17,0.162-0.323,0.217-0.46l0.033,0.005c0.004,0.089-0.01,0.183-0.039,0.284c-0.045,0.084-0.086,0.164-0.127,0.238
			c0.174-0.034,0.273-0.062,0.299-0.083c0.004-0.003,0.008-0.007,0.012-0.011c0.002-0.006,0.001-0.011-0.006-0.014
			c0.006,0.002,0.012,0.002,0.018,0.002c0.158-0.162,0.291-0.261,0.398-0.293c-0.037,0.07-0.084,0.147-0.139,0.233
			c0.015,0,0.027,0,0.039,0c0.008,0.003,0.043-0.022,0.105-0.078c0.07-0.036,0.133-0.009,0.188,0.083
			c0.174-0.07,0.333-0.151,0.478-0.244l0.127,0.021c0.015,0.037-0.013,0.08-0.083,0.128c0.022-0.007,0.042-0.011,0.062-0.011
			c0.062-0.029,0.156-0.072,0.283-0.127c0.239-0.107,0.424-0.178,0.555-0.211c0.014,0.03-0.002,0.083-0.051,0.161
			c0.104-0.012,0.312-0.044,0.627-0.1c0.256-0.041,0.449-0.071,0.582-0.089l0.028,0.05c-0.081,0.052-0.269,0.118-0.561,0.199
			c0.06,0.007,0.253-0.013,0.583-0.061c0.325-0.044,0.496-0.064,0.516-0.062c0.025,0.004,0.053,0.01,0.083,0.017
			c0.044-0.063,0.116-0.089,0.216-0.078l0.949,0.088c0.041-0.003,0.079-0.005,0.116-0.005c0.097-0.06,0.253-0.094,0.472-0.105
			c0.148-0.004,0.447,0.003,0.898,0.022c0.093-0.019,0.205-0.029,0.338-0.034c0.004,0,0.01,0,0.018,0
			c0.418-0.151,0.785-0.24,1.104-0.266c0.081,0.037,0.127,0.069,0.139,0.095c-0.004,0.004-0.16,0.048-0.472,0.133
			c0.011,0,0.024,0,0.039,0c0.411-0.133,0.679-0.18,0.804-0.139c0.023,0.026,0.033,0.052,0.033,0.078
			c-0.01-0.011-0.045-0.022-0.105-0.033c-0.1-0.019-0.271,0.007-0.516,0.077c0.463-0.015,0.689-0.004,0.683,0.033
			c0.097-0.022,0.169-0.037,0.217-0.044c-0.048,0.026-0.126,0.059-0.233,0.1c0,0.003,0,0.007,0,0.011
			c0.025,0,0.056,0.003,0.09,0.012c0.18-0.086,0.312-0.143,0.393-0.173c-0.018,0.063-0.072,0.13-0.16,0.2
			c0.137,0.015,0.301,0.032,0.493,0.05c0.196,0.026,0.396,0.056,0.599,0.089c0.012,0.008,0.024,0.013,0.039,0.017
			c0.26-0.041,0.412-0.056,0.461-0.044v0.021c-0.016-0.003-0.045-0.009-0.089-0.016c-0.101,0.025-0.196,0.052-0.288,0.078
			c0.025,0.015,0.055,0.029,0.088,0.044c0.277-0.026,0.58-0.054,0.904-0.083c0.086,0.026,0.126,0.048,0.123,0.066
			c-0.285,0.044-0.549,0.087-0.789,0.128c0.027,0.007,0.057,0.021,0.09,0.039c0.062-0.011,0.125-0.018,0.188-0.022
			c0.308-0.033,0.645-0.062,1.01-0.088l-0.005,0.027c-0.114,0.018-0.422,0.08-0.921,0.183c-0.02,0.007-0.037,0.013-0.056,0.017
			c0.044,0.022,0.089,0.046,0.134,0.072c0.332-0.037,0.731-0.08,1.197-0.127c-0.369,0.178-0.63,0.291-0.781,0.338
			c0.062-0.011,0.119-0.009,0.172,0.005c0.621-0.125,0.965-0.197,1.031-0.216c-0.115,0.101-0.297,0.202-0.549,0.305
			c0.307-0.092,0.504-0.142,0.594-0.149c0.085,0.025,0.127,0.048,0.127,0.066c-0.096,0.022-0.35,0.122-0.76,0.3
			c0.066,0.014,0.122,0.027,0.166,0.039c0.304-0.104,0.52-0.189,0.649-0.255c0.085,0.022,0.128,0.042,0.128,0.062
			c-0.004,0-0.008,0.002-0.012,0.005c0.107,0.033,0.161,0.06,0.161,0.078c-0.019,0.004-0.167,0.099-0.444,0.283
			c0.041-0.003,0.08-0.005,0.117-0.005c0.015-0.015,0.031-0.03,0.05-0.045c0.337-0.233,0.636-0.37,0.898-0.41
			c-0.274,0.237-0.493,0.418-0.66,0.544c-0.003,0.003-0.007,0.007-0.011,0.011c0.015,0.015,0.055,0.028,0.121,0.039
			c0.071,0.011,0.119,0.089,0.145,0.233c0.234-0.222,0.405-0.37,0.517-0.444c-0.204,0.251-0.372,0.455-0.505,0.61
			c0.008,0.07,0.01,0.151,0.006,0.244c0.218-0.226,0.408-0.399,0.57-0.521c-0.24,0.295-0.428,0.525-0.565,0.688
			c-0.007,0.008-0.011,0.015-0.011,0.022c-0.004,0.022-0.008,0.046-0.012,0.072c-0.011,0.089-0.021,0.174-0.033,0.255
			c0.126-0.303,0.211-0.495,0.256-0.577l0.049,0.011c-0.004,0.026-0.016,0.057-0.038,0.094c-0.022,0.048-0.041,0.097-0.056,0.144
			c-0.029,0.122-0.056,0.243-0.078,0.361c0.004-0.012,0.01-0.021,0.018-0.028c0.04-0.115,0.079-0.222,0.116-0.321l0.083-0.006
			c0,0.015-0.004,0.041-0.012,0.078c0.152-0.21,0.25-0.362,0.295-0.455l0.055,0.011C139.146,32.333,139.148,32.36,139.122,32.449
			L139.122,32.449z M139.672,35.622c-0.004,0-0.008-0.003-0.012-0.008c0.004,0.006,0.008,0.011,0.012,0.014V35.622z M139.672,35.301
			c-0.012,0.025-0.026,0.055-0.045,0.088c-0.016,0.03-0.027,0.056-0.039,0.078c0.012,0.019,0.022,0.039,0.033,0.061
			c0.016-0.018,0.029-0.037,0.045-0.055C139.666,35.388,139.668,35.33,139.672,35.301z M135.561,30.818
			c0.008,0.012,0.016,0.024,0.022,0.039c0.048-0.007,0.099-0.011,0.149-0.011c-0.037-0.014-0.074-0.028-0.111-0.039
			C135.6,30.812,135.579,30.814,135.561,30.818z M137.436,31.65c0.17-0.066,0.369-0.148,0.6-0.244
			c-0.156,0.033-0.359,0.113-0.611,0.239C137.428,31.645,137.432,31.646,137.436,31.65z M137.28,31.711
			c-0.003,0.004-0.009,0.008-0.017,0.012c0.037-0.015,0.076-0.028,0.117-0.039c-0.02,0-0.035,0.004-0.051,0.011
			C137.312,31.702,137.295,31.708,137.28,31.711z M140.248,38.951c-0.008,0.022-0.013,0.044-0.016,0.066
			c0.1,0.012,0.201,0.023,0.305,0.034C140.438,39.017,140.34,38.984,140.248,38.951z M140.637,40.026
			c0.008-0.003,0.011-0.003,0.011,0c0-0.003-0.002-0.005-0.005-0.005L140.637,40.026z M140.354,39.538
			c-0.062,0.012-0.129,0.021-0.199,0.028c-0.004,0.018-0.008,0.039-0.012,0.061c0.273,0.06,0.507,0.102,0.699,0.128
			C140.76,39.729,140.598,39.657,140.354,39.538z M140.026,40.299c-0.007,0.033-0.015,0.068-0.022,0.105l0.217,0.022
			C140.158,40.389,140.093,40.347,140.026,40.299L140.026,40.299z M125.673,30.874l-0.147,0.116l-0.011,0.028
			c0.015-0.011,0.056-0.048,0.122-0.111C125.65,30.894,125.662,30.883,125.673,30.874z M124.666,30.951
			c-0.008,0.015-0.018,0.033-0.027,0.056c0.037-0.03,0.078-0.065,0.127-0.105C124.744,30.905,124.711,30.922,124.666,30.951z
			 M124.521,31.179c-0.029,0.041-0.064,0.088-0.105,0.144c0.004-0.004,0.008-0.005,0.012-0.005c0.096-0.082,0.153-0.135,0.172-0.162
			l0.022-0.039C124.588,31.14,124.555,31.16,124.521,31.179z M120.15,36.21l0.012-0.005h-0.006L120.15,36.21z M115.241,45.907
			c-0.022-0.037-0.04-0.076-0.056-0.116c-0.004,0.062-0.006,0.116-0.006,0.16l0.022,0.023
			C115.213,45.965,115.227,45.944,115.241,45.907z M117.238,46.783l-0.006-0.005c0,0.003-0.002,0.007-0.006,0.011
			C117.23,46.785,117.234,46.783,117.238,46.783L117.238,46.783z M117.854,46.861c-0.025-0.004-0.049-0.006-0.072-0.006
			c0.008,0.029,0.018,0.06,0.028,0.09h0.022c0.004-0.023,0.012-0.049,0.021-0.078V46.861z M118.342,46.945h-0.017
			c0.011-0.045,0.015-0.069,0.011-0.072l-0.005-0.006c-0.033-0.004-0.065-0.004-0.095,0c0.029,0.07,0.062,0.131,0.095,0.183
			C118.331,47.019,118.334,46.984,118.342,46.945L118.342,46.945z M113.133,94.246c0-0.026,0.002-0.051,0.006-0.072
			c0.004-0.074,0.01-0.148,0.018-0.223c-0.03,0.127-0.057,0.252-0.078,0.377C113.096,94.299,113.115,94.271,113.133,94.246z
			 M112.768,96.025c0.037-0.117,0.072-0.229,0.105-0.338c-0.033,0.045-0.063,0.086-0.09,0.123c-0.014,0.07-0.029,0.143-0.044,0.215
			H112.768z M113.018,95.766c0.007-0.096,0.014-0.197,0.021-0.305c-0.066,0.195-0.133,0.379-0.199,0.549
			C112.898,95.926,112.957,95.844,113.018,95.766z M112.739,97.197c0.011-0.086,0.026-0.174,0.044-0.267
			c-0.203,0.188-0.357,0.321-0.465,0.399c-0.049-0.008-0.088-0.015-0.117-0.021c0.021,0.092,0.052,0.188,0.089,0.287
			C112.438,97.471,112.588,97.338,112.739,97.197L112.739,97.197z M112.557,98.322c-0.111,0.053-0.217,0.094-0.316,0.123
			c0.141,0.047,0.292,0.111,0.455,0.193c0-0.015,0.002-0.029,0.006-0.043c-0.023-0.034-0.041-0.068-0.057-0.102
			C112.611,98.436,112.582,98.379,112.557,98.322z M112.734,98.268c0.004-0.015,0.007-0.028,0.011-0.039
			c-0.034,0.016-0.067,0.031-0.101,0.051c0.023,0.036,0.049,0.074,0.078,0.115C112.727,98.354,112.73,98.312,112.734,98.268z
			 M112.572,99.986c-0.166-0.244-0.33-0.464-0.493-0.66l0.017,0.045c0.074,0.285,0.228,0.645,0.461,1.076
			c0.008,0.008,0.015,0.018,0.021,0.028C112.567,100.331,112.565,100.168,112.572,99.986z M113.316,103.244
			c-0.037-0.053-0.076-0.098-0.116-0.135c0.029,0.094,0.065,0.204,0.11,0.334C113.314,103.381,113.316,103.313,113.316,103.244z
			 M113.371,104.83c0.034-0.141,0.065-0.262,0.096-0.361c0.003-0.018,0.01-0.037,0.021-0.055c-0.004-0.02-0.004-0.039,0-0.061
			l-0.133,0.432L113.371,104.83z M113.555,107.492c-0.137-0.219-0.234-0.41-0.293-0.576c-0.004,0.717,0.105,1.172,0.326,1.363
			c0.033-0.246,0.06-0.457,0.078-0.631C113.633,107.593,113.596,107.54,113.555,107.492z M114.143,108.591
			c0,0.056,0.004,0.11,0.012,0.167l0.006,0.005c0.007-0.056,0.009-0.091,0.006-0.104
			C114.158,108.635,114.15,108.613,114.143,108.591z"/>
	</g>
	<g id="Layer_4_2_">
		<path id="path8_2_" fill="#010101" d="M93.996,19.619c0.37-0.211,0.887-0.425,1.553-0.644c0.17-0.488,0.418-0.829,0.743-1.021
			c0.558-0.336,1.194-0.05,1.908,0.86l0.133-0.045c0.034-0.066,0.08-0.153,0.139-0.26c0.333-0.603,0.734-0.799,1.204-0.588
			c0.148,0.06,0.289,0.152,0.421,0.278l0.022-0.012l0.017,0.039c0.255,0.244,0.503,0.596,0.743,1.054
			c0.367,0.721,0.592,1.489,0.677,2.302c0.073,0.747,0.005,1.387-0.205,1.919c0.015,0.144,0,0.296-0.045,0.455
			c-0.003,0.012-0.005,0.021-0.005,0.028c-0.041,0.123-0.084,0.222-0.128,0.3c0.029,0.215,0.033,0.453,0.012,0.716
			c1.704,0.518,1.586,3.495-0.356,8.93c-0.303,0.525-0.412,1.081-0.327,1.665c0.085,0.581,0.055,1.491-0.089,2.729
			c-0.151,1.243-0.104,2.332,0.144,3.268c0.248,0.936,0.359,2.188,0.333,3.756c-0.026,1.571-0.17,2.711-0.433,3.416
			c-0.255,0.703-0.653,1.361-1.193,1.975c0.792-0.181,1.687-0.334,2.685-0.459c0.999-0.131,2.529-0.434,4.593-0.91
			c2.061-0.477,3.711-0.685,4.954-0.621c0.226,0.014,0.46,0.033,0.704,0.055c1.166,0.137,2.049,0.238,2.652,0.305
			c0.365,0.041,0.709,0.072,1.031,0.096c-0.54-0.148-0.828-0.204-0.865-0.167c-0.07,0.069-0.244,0.075-0.521,0.017l-0.395-0.111
			c-0.074-0.074-0.116-0.127-0.127-0.16v-0.033c-0.019,0.01-0.031,0.013-0.039,0.006c-0.015-0.008,0.016-0.049,0.089-0.123
			c0.022-0.021,0.085-0.044,0.188-0.066c0.1-0.02,0.163-0.041,0.189-0.066c0.199-0.2,0.624-0.198,1.275,0.006
			c0.285,0.088,0.719,0.23,1.303,0.426c0.097,0.016,0.193,0.036,0.289,0.062c-0.004-0.004-0.01-0.008-0.017-0.012
			c-0.384-0.152-0.583-0.229-0.594-0.232c-0.073-0.063-0.12-0.102-0.138-0.117c-0.023-0.021,0.002-0.072,0.076-0.15
			c0.063-0.059,0.28-0.044,0.65,0.045c0.088,0.02,0.183,0.043,0.282,0.072c0.07-0.011,0.153-0.018,0.249-0.022
			c-0.073-0.037-0.16-0.073-0.26-0.11c-0.111-0.104-0.178-0.165-0.199-0.184c-0.03-0.025-0.006-0.076,0.071-0.15
			c0.015-0.018,0.079-0.042,0.194-0.072c0.111-0.029,0.178-0.055,0.199-0.076c0.049-0.053,0.504,0.027,1.365,0.238
			c0.425,0.1,0.797,0.178,1.115,0.232h0.005c-0.677-0.174-1.137-0.288-1.382-0.344c0.201-0.09,0.557-0.096,1.071-0.021
			c0.089-0.012,0.239-0.026,0.45-0.045c-0.023-0.012-0.045-0.021-0.067-0.027l-0.022-0.084c0.163,0.025,0.32,0.051,0.472,0.072
			c0.089-0.008,0.142-0.01,0.161-0.006h0.111c-0.156-0.066-0.266-0.115-0.328-0.148c-0.118-0.049-0.193-0.113-0.227-0.195
			c0.184,0.008,0.5-0.033,0.948-0.121l0.05-0.023c-0.5-0.141-0.768-0.215-0.805-0.227c-0.041-0.008-0.07-0.017-0.088-0.027
			c-0.049-0.041-0.035-0.098,0.038-0.172c0.037-0.037,0.101-0.035,0.188,0.005c0.192,0.089,0.293,0.136,0.3,0.139
			c0.106,0.037,0.214,0.048,0.321,0.032v-0.004c0.008-0.004,0.014-0.003,0.018,0.004c0.203-0.035,0.404-0.154,0.604-0.354
			c0.223,0.07,0.405,0.21,0.549,0.421c0.098,0.062,0.223,0.157,0.378,0.282c-0.13-0.154-0.269-0.314-0.416-0.481l-0.039-0.255
			l0.095,0.055l0.748,0.749c-0.1-0.204-0.201-0.437-0.305-0.699c0.115,0.078,0.304,0.285,0.566,0.622
			c0.096,0.114,0.185,0.221,0.266,0.32c0.033,0.009,0.066,0.016,0.1,0.023c-0.018-0.037-0.035-0.074-0.049-0.111
			c-0.134-0.322-0.206-0.529-0.217-0.621l0.05-0.012c0.03,0.026,0.089,0.169,0.177,0.428c0.053,0.119,0.113,0.234,0.184,0.35
			c1.235,0.33,2.303,1.146,3.201,2.451c0.973,1.41,1.451,2.949,1.437,4.621c-0.007,1.347-0.356,2.545-1.048,3.596
			c0.114,0.392,0.053,1.135-0.184,2.229c-0.1,0.441-0.22,0.904-0.361,1.393c-0.121,0.406-0.189,0.617-0.205,0.633
			c-0.044,0.045-0.114,0.082-0.21,0.111c-0.145,0.04-0.271,0.008-0.378-0.1c-0.059-0.06-0.129-0.345-0.211-0.855
			c-0.08-0.551-0.125-0.83-0.133-0.837c-0.007,0.056-0.007,0.401,0,1.037c-0.007,0.625-0.053,0.979-0.139,1.065
			c-0.059,0.059-0.123,0.104-0.193,0.133c-0.137,0.053-0.258,0.025-0.361-0.077c-0.011-0.241-0.033-0.5-0.066-0.776
			c-0.062-0.545-0.166-0.91-0.311-1.1c0.008,0.552,0.012,0.834,0.012,0.85c-0.008,0.402-0.041,0.663-0.1,0.781l-0.195,0.117
			l-0.088-0.022c-0.049-0.019-0.107-0.064-0.178-0.139c-0.066-0.063-0.12-0.354-0.161-0.876c-0.026-0.377-0.039-0.711-0.039-0.998
			l-0.033-0.039c-0.019,0.039-0.097,0.369-0.233,0.986c-0.114,0.519-0.23,0.838-0.35,0.961c-0.117,0.118-0.172,0.156-0.16,0.115
			l-0.084,0.006c-0.059-0.008-0.125-0.047-0.199-0.116c-0.185-0.188-0.225-0.493-0.121-0.915c0.113-0.451,0.131-0.742,0.049-0.871
			c-0.041,0.195-0.145,0.533-0.311,1.015c-0.207,0.569-0.367,0.911-0.482,1.026c-0.122,0.122-0.172,0.162-0.15,0.117h-0.071
			c-0.048,0-0.109-0.035-0.183-0.105c-0.097-0.1-0.115-0.326-0.057-0.678c0.004-0.018,0.064-0.264,0.184-0.737
			c-0.104,0.211-0.244,0.563-0.422,1.06c-0.17,0.488-0.316,0.851-0.438,1.087l-0.2,0.128l-0.067-0.006
			c-0.04-0.008-0.096-0.046-0.166-0.117c-0.174-0.172-0.151-0.556,0.066-1.146c0.277-0.611,0.438-0.966,0.478-1.066
			c0.003-0.029,0.002-0.048-0.006-0.055c-0.019-0.02-0.066,0.01-0.144,0.083c-0.03,0.03-0.109,0.194-0.238,0.493
			c-0.134,0.301-0.271,0.523-0.416,0.672c-0.107,0.104-0.223,0.205-0.344,0.305c-0.008,0.012-0.02,0.02-0.034,0.022
			c-0.026,0.011-0.075-0.021-0.149-0.095c-0.1-0.1-0.129-0.232-0.09-0.398c0.02-0.057,0.062-0.15,0.129-0.283L120,62.642
			c-0.125,0.201-0.26,0.37-0.404,0.512c-0.114,0.113-0.166,0.154-0.156,0.121c-0.003,0.012-0.01,0.018-0.021,0.018
			c-0.025,0.011-0.076-0.023-0.15-0.1c-0.073-0.074-0.046-0.303,0.084-0.684c0.166-0.426,0.268-0.697,0.305-0.814l-0.078,0.043
			c-0.295,0.482-0.537,0.832-0.727,1.049l-0.139,0.1c-0.04,0.012-0.102-0.021-0.183-0.1c-0.048-0.048-0.063-0.115-0.044-0.205
			c0.029-0.092,0.046-0.157,0.05-0.194l-0.022-0.011c-0.178,0.178-0.344,0.332-0.499,0.467c-0.007,0.01-0.019,0.016-0.033,0.016
			c-0.022,0.012-0.07-0.021-0.145-0.094c-0.077-0.074-0.095-0.178-0.05-0.311c0.049-0.13,0.033-0.232-0.044-0.311
			c-0.118-0.123,0.019-0.387,0.411-0.795c0.457-0.417,0.726-0.666,0.803-0.748l-0.049-0.055c-0.1,0.066-0.404,0.227-0.91,0.482
			c-0.381,0.191-0.668,0.385-0.859,0.576c-0.008-0.008-0.035-0.011-0.084-0.011c-0.052-0.011-0.102-0.025-0.149-0.044
			c-0.052-0.166,0.005-0.328,0.172-0.482c0.211-0.166,0.35-0.299,0.417-0.395l0.016-0.055c-0.085,0.051-0.182,0.123-0.289,0.216
			c-0.104,0.07-0.227,0.089-0.371,0.056c0.004-0.285,0.129-0.523,0.377-0.716c0.252-0.147,0.445-0.274,0.582-0.378
			c-0.036,0-0.073,0-0.11,0c-0.114,0.063-0.267,0.152-0.454,0.268c-0.341,0.203-0.598,0.377-0.771,0.521
			c-0.004-0.008-0.039-0.023-0.105-0.045c-0.066-0.025-0.128-0.06-0.184-0.1c0-0.097,0.066-0.209,0.2-0.338
			c0.037-0.034,0.063-0.071,0.077-0.111c-0.536,0.361-1.027,0.591-1.475,0.688c-0.07-0.074-0.07-0.184,0-0.328
			c-0.633,0.199-1.417,0.515-2.354,0.943c-1.105,0.514-1.946,0.877-2.523,1.088l-0.083-0.089c-0.019-0.034-0.03-0.056-0.033-0.066
			c0-0.007,0.037-0.049,0.11-0.122c0.041-0.041,0.115-0.086,0.223-0.133c-0.426,0.062-0.896,0.115-1.414,0.16
			c-0.023,0.008-0.041,0.014-0.057,0.018c-1.135,0.28-1.884,0.465-2.246,0.554c-0.004-0.029-0.006-0.05-0.006-0.061
			c0.008-0.011,0.051-0.056,0.129-0.134c0.036-0.037,0.229-0.133,0.576-0.287c-0.215,0.002-0.433,0.005-0.654,0.005
			c-0.304,0.104-0.713,0.241-1.227,0.416c0.021-0.044,0.091-0.147,0.205-0.312c0.029-0.033,0.056-0.068,0.078-0.104
			c-0.052,0-0.1,0-0.145,0c-0.691,0.299-1.305,0.516-1.841,0.648l-0.101-0.071c0.492-0.234,0.918-0.434,1.276-0.6
			c-0.236-0.008-0.476-0.02-0.716-0.033c-0.625,0.211-1.039,0.338-1.242,0.383c-0.02,0.008-0.032,0.008-0.039,0
			c-0.012-0.012,0.02-0.054,0.094-0.128c0.026-0.026,0.269-0.118,0.728-0.276c-0.145-0.008-0.289-0.016-0.433-0.023
			c-0.337,0.122-0.647,0.226-0.933,0.311l-0.05-0.055l0.083-0.117c0.141-0.066,0.274-0.125,0.399-0.178
			c-0.106-0.007-0.211-0.014-0.311-0.021c-0.025,0.015-0.054,0.033-0.083,0.055l-0.083-0.016c-0.521,0.174-0.89,0.286-1.104,0.338
			l-0.055-0.056l0.061-0.089c0.152-0.069,0.312-0.142,0.482-0.215c-0.403,0.051-0.801,0.095-1.193,0.132
			c-0.185,0.111-0.357,0.224-0.516,0.339h-0.072c-0.007-0.026-0.009-0.047-0.006-0.061c0.012-0.016,0.058-0.063,0.139-0.145
			c0.034-0.033,0.076-0.066,0.128-0.101c-0.555,0.045-1.093,0.067-1.614,0.067c-0.691,0.004-1.338-0.031-1.941-0.105
			c-2.337-1.266-4.105-2.179-5.303-2.74c-1.198-0.566-1.744-1.053-1.636-1.459c-0.492-0.951-0.372-2.037,0.36-3.262
			c0.115-0.77,0.061-1.752-0.161-2.946c-0.226-1.184,0.037-2.397,0.788-3.644c-0.06-0.201-0.109-0.402-0.15-0.605
			c-0.056-0.303-0.088-0.58-0.1-0.832c-0.019-0.044-0.036-0.083-0.05-0.116l0.044-0.006c-0.004-0.144,0.006-0.283,0.028-0.415
			c0.118,0.243,0.229,0.572,0.333,0.986c0.022-0.186,0.044-0.329,0.066-0.433c0.041-0.133,0.078-0.27,0.111-0.41
			c-0.015-0.278-0.041-0.528-0.078-0.755c-0.214-0.637-0.348-1.062-0.399-1.281c0.048-0.025,0.1-0.068,0.155-0.127
			c0.015,0.014,0.03,0.014,0.044,0c0.011,0.039,0.034,0.102,0.066,0.183l0.05-0.028c0.041,0.041,0.094,0.143,0.161,0.306
			c0.011,0.022,0.054,0.19,0.128,0.505c0.037,0.089,0.076,0.182,0.116,0.277c0.034-0.111,0.066-0.221,0.1-0.328
			C90.937,44.074,90.687,43.38,90.55,43c0.052-0.056,0.109-0.074,0.172-0.056c0-0.004-0.002-0.01-0.005-0.018l0.061,0.023
			l0.011,0.027c0.052,0.033,0.113,0.088,0.184,0.166c-0.037-0.092-0.076-0.186-0.117-0.277l0.1-0.01
			c0.159,0.365,0.289,0.657,0.388,0.875c0.045,0.074,0.089,0.16,0.133,0.256c-0.041-0.188-0.081-0.371-0.122-0.545
			c-0.151-0.457-0.277-0.812-0.377-1.064l0.061-0.038l0.122,0.233c-0.085-0.386-0.158-0.694-0.217-0.927
			c0.048-0.052,0.107-0.09,0.178-0.117c0.159,0.308,0.322,0.683,0.488,1.126c0.044,0.074,0.089,0.15,0.133,0.229
			c-0.044-0.345-0.078-0.653-0.1-0.927c-0.044-0.142-0.085-0.265-0.122-0.372l0.061-0.017c0.019,0.018,0.031,0.037,0.039,0.055
			c0-0.088-0.001-0.171-0.005-0.25c-0.037-0.103-0.074-0.214-0.111-0.333l0.1-0.011c0.008,0.007,0.013,0.019,0.017,0.033
			c0-0.026,0-0.048,0-0.067l0.028-0.011c-0.052-0.307-0.074-0.532-0.066-0.677c-0.462-1.169-0.677-1.834-0.644-1.997
			c0.034-0.015,0.094-0.024,0.183-0.028c0.085,0,0.151,0.004,0.2,0.011l0.061,0.105c0.037,0.078,0.052,0.126,0.044,0.144
			l-0.233-0.122c0.384,0.566,0.763,1.213,1.137,1.942c-0.007-0.037-0.017-0.074-0.027-0.111c-0.374-1.094-0.601-1.906-0.683-2.435
			h0.006c-0.019-0.063-0.022-0.101-0.011-0.111c0.081-0.082,0.172-0.135,0.272-0.161c0.011-0.003,0.024-0.005,0.039-0.005
			c-0.07-0.237-0.133-0.455-0.189-0.655c0.003-0.011,0.013-0.024,0.028-0.039c0.026-0.018,0.05-0.031,0.072-0.038
			c0.233,0.466,0.449,0.958,0.649,1.475c0.019-0.022,0.035-0.041,0.05-0.055c0.052,0.052,0.102,0.107,0.15,0.166
			c-0.022-0.155-0.042-0.288-0.061-0.399c0.026-0.025,0.044-0.046,0.055-0.061c-0.018-0.033-0.035-0.059-0.05-0.078
			c0.033-0.022,0.069-0.037,0.105-0.044c-0.066-0.244-0.131-0.464-0.194-0.66c0.107,0.193,0.207,0.404,0.299,0.633
			c0.082-0.007,0.161,0.004,0.238,0.034c-0.011-0.052-0.022-0.106-0.033-0.161c-0.062-0.133-0.124-0.274-0.183-0.422
			c-0.311-0.78-0.427-1.28-0.35-1.498l0.022-0.022c0.022,0.17,0.119,0.465,0.289,0.882c-0.015-0.085-0.028-0.163-0.039-0.233
			l0.056-0.055l0.033-0.022c0.037,0.003,0.093,0.042,0.167,0.116c0.015,0.016,0.026,0.028,0.033,0.039
			c-0.177-0.407-0.292-0.643-0.344-0.709l0.088-0.089c0.07,0.101,0.137,0.195,0.2,0.283c-0.063-0.226-0.085-0.374-0.066-0.444
			c0.007-0.026,0.017-0.046,0.028-0.061c-0.022-0.074-0.044-0.15-0.067-0.228c-0.118-0.177-0.214-0.307-0.288-0.388
			c0.015-0.015,0.035-0.055,0.061-0.123c0.041-0.093,0.063-0.143,0.066-0.15c0.148,0.074,0.324,0.206,0.527,0.394
			c0.007-0.033,0.013-0.068,0.017-0.105l-0.333-0.327c-0.078-0.092-0.146-0.195-0.206-0.305c-0.078-0.129-0.116-0.217-0.116-0.262
			c0.081,0.008,0.163,0.015,0.244,0.022c-0.181-0.207-0.283-0.346-0.305-0.416c-0.015-0.037-0.007-0.076,0.022-0.117
			c0.033-0.044,0.03-0.107-0.011-0.188c0.081-0.022,0.383,0.222,0.904,0.732c0.014,0.007,0.024,0.017,0.027,0.027
			c0.019-0.003,0.037-0.005,0.055-0.005c0.067-0.17,0.107-0.28,0.123-0.327c0.003-0.019-0.015-0.042-0.056-0.067
			c-0.092-0.037-0.141-0.055-0.144-0.055c-0.037-0.085-0.048-0.159-0.034-0.222c0.107-0.033,0.189-0.056,0.244-0.066
			c0.089-0.011,0.163,0.001,0.222,0.039l0.088-0.022c-0.188-0.085-0.445-0.172-0.771-0.261c-0.263-0.074-0.405-0.124-0.427-0.149
			c-0.074-0.074-0.111-0.124-0.111-0.15l0.017-0.011c-0.007-0.026-0.011-0.042-0.011-0.05c0-0.008,0.039-0.049,0.117-0.122
			c0.029-0.03,0.218-0.013,0.566,0.05c0.14-0.059,0.329-0.133,0.565-0.222c-0.026-0.059-0.048-0.115-0.066-0.167
			c-0.348,0.078-0.677,0.117-0.988,0.117c-0.026,0.007-0.042,0.007-0.05,0c-0.022-0.018,0.004-0.065,0.078-0.139
			c0.1-0.1,0.387-0.202,0.86-0.305c-0.022-0.181,0.052-0.309,0.222-0.383l0.089-0.127c-0.063,0-0.184,0.033-0.36,0.1
			c-0.182,0.062-0.313,0.091-0.395,0.083c-0.111-0.152-0.153-0.272-0.127-0.361c0.007-0.037,0.042-0.087,0.105-0.149
			c0.085-0.085,0.231-0.195,0.438-0.328c0.03-0.018,0.063-0.035,0.1-0.05c-0.754-1.046-1.218-2.341-1.393-3.883
			c-0.029,0.037-0.064,0.072-0.105,0.105c-0.041,0.089-0.076,0.185-0.105,0.289c-0.074,0.417-0.119,0.65-0.133,0.698
			c-0.052,0.126-0.159,0.282-0.322,0.466c-0.333,0.381-0.656,0.431-0.971,0.149c-0.24-0.207-0.312-0.467-0.216-0.782
			c0.015-0.04,0.113-0.234,0.294-0.582c0.078-0.144,0.143-0.337,0.194-0.578c0.041-0.266,0.07-0.467,0.088-0.604
			c-0.188,0.267-0.307,0.426-0.355,0.478c-0.111,0.129-0.222,0.231-0.333,0.305c-0.119,0.055-0.22,0.089-0.305,0.1
			c-0.211,0.133-0.398,0.124-0.561-0.028c-0.303-0.263-0.364-0.565-0.183-0.91c0.24-0.277,0.364-0.419,0.372-0.427
			c0.026-0.03,0.085-0.069,0.177-0.117c0.085-0.048,0.143-0.091,0.172-0.127c0.034-0.037,0.115-0.17,0.245-0.4
			c0.07-0.159,0.127-0.274,0.171-0.344c0.022-0.033,0.039-0.06,0.05-0.078c0.078-0.085,0.204-0.208,0.377-0.367
			c0.104-0.096,0.183-0.166,0.239-0.21c0.015-0.055,0.027-0.105,0.039-0.15c0.033-0.074,0.087-0.164,0.161-0.272
			c0.022-0.033,0.037-0.059,0.044-0.077c0.137-0.303,0.303-0.561,0.499-0.771c0.248-0.288,0.455-0.536,0.621-0.743
			c0.067-0.223,0.1-0.339,0.1-0.35c0.2-0.511,0.362-0.869,0.488-1.077c0.015-0.036,0.03-0.068,0.044-0.094
			c0.06-0.11,0.146-0.216,0.261-0.316c0.041-0.052,0.087-0.107,0.139-0.167l0.017,0.044C93.773,19.753,93.877,19.685,93.996,19.619
			L93.996,19.619z M93.641,36.76c0.048,0.144,0.092,0.27,0.133,0.377c0.004,0.003,0.007,0.009,0.011,0.016
			c0.019,0.015,0.037,0.028,0.056,0.039c0-0.011,0.003-0.024,0.011-0.039c-0.059-0.11-0.109-0.218-0.15-0.321
			C93.683,36.806,93.662,36.782,93.641,36.76L93.641,36.76z M93.33,37.026c-0.048-0.052-0.074-0.08-0.078-0.083l-0.039-0.105
			c0,0.019,0,0.039,0,0.061l0.106,0.178C93.33,37.071,93.333,37.055,93.33,37.026z M93.202,36.787
			c0.007-0.004,0.015-0.009,0.022-0.017c-0.015-0.03-0.028-0.055-0.039-0.078C93.193,36.719,93.199,36.75,93.202,36.787z
			 M93.241,38.901c-0.015-0.026-0.033-0.054-0.055-0.083c0.015,0.037,0.027,0.083,0.039,0.139
			C93.232,38.934,93.237,38.916,93.241,38.901z M91.954,37.646c-0.056,0.026-0.093,0.047-0.111,0.062
			c0.082,0.114,0.167,0.246,0.255,0.394C92.05,37.939,92.002,37.788,91.954,37.646z M121.76,47.615
			c-0.26-0.021-0.49,0.021-0.693,0.129c0.025,0.025,0.075,0.055,0.148,0.088c0.071,0.025,0.128,0.047,0.173,0.061
			c0.022,0.037,0.06,0.062,0.11,0.078c0.008,0.012,0.006,0.025-0.005,0.045c0.06-0.008,0.118-0.016,0.177-0.023
			c-0.254-0.106-0.43-0.175-0.526-0.204V47.72c0.348,0.049,0.662,0.104,0.942,0.167C121.957,47.794,121.848,47.705,121.76,47.615
			L121.76,47.615z M105.867,62.227c-0.02,0.052-0.045,0.095-0.078,0.127c0.155-0.041,0.301-0.081,0.438-0.122
			C106.109,62.232,105.988,62.23,105.867,62.227z"/>
	</g>
	<g id="Layer_6_1_">
		<path id="path11_1_" fill="#010101" d="M137.758,112.646c0.07,0.558,0.119,1.086,0.149,1.586c-0.06-0.012-0.118-0.029-0.178-0.056
			c-0.118-0.048-0.196-0.106-0.233-0.178c-0.037,0.111-0.062,0.356-0.077,0.738c-0.011,0.37-0.048,0.642-0.11,0.815l-0.051,0.056
			c-0.044,0.003-0.115-0.03-0.211-0.1l-0.244-0.179c0,0.012,0,0.025,0,0.039c0.023,0.281,0.043,0.488,0.062,0.621
			c-0.011,0.034-0.044,0.057-0.101,0.067c0.004,0.011,0.006,0.024,0.006,0.039c-0.018,0.348-0.057,0.588-0.115,0.721l-0.105,0.039
			c-0.033-0.074-0.067-0.169-0.1-0.282l-0.045,0.021c-0.029,0.016-0.054,0.025-0.072,0.033c-0.052,0.004-0.076-0.046-0.072-0.15
			l-0.006-0.004l-0.26,0.604c0.003,0.015-0.002,0.026-0.018,0.033c-0.011,0.008-0.023,0.01-0.039,0.006l-0.049,0.033
			c-0.019-0.019-0.043-0.043-0.072-0.072c-0.008,0-0.016-0.004-0.021-0.011c-0.049-0.019-0.082-0.048-0.102-0.089
			c-0.025,0.033-0.053,0.064-0.082,0.094c-0.008,0.004-0.012,0.01-0.012,0.018c-0.018,0.04-0.037,0.082-0.055,0.127
			c-0.045,0.115-0.091,0.224-0.139,0.328c-0.045,0.104-0.098,0.344-0.162,0.721c-0.073,0.396-0.112,0.599-0.115,0.609
			c-0.02,0.045-0.053,0.078-0.1,0.101c0.025-0.263,0.096-0.708,0.211-1.337h-0.006c-0.037-0.016-0.063-0.025-0.078-0.033
			c-0.008-0.004-0.012-0.026-0.012-0.066c-0.188,0.283-0.408,0.58-0.66,0.887c-0.27,0.322-0.523,0.568-0.76,0.738
			c-0.122,0.259-0.229,0.484-0.321,0.676l-0.106-0.016c0.057-0.152,0.123-0.322,0.201-0.511c-0.127,0.067-0.244,0.112-0.355,0.14
			c-0.052,0.15-0.093,0.258-0.122,0.321c-0.048,0.11-0.147,0.299-0.3,0.565l-0.066-0.033c0.119-0.303,0.226-0.582,0.322-0.838
			c-0.063-0.004-0.127-0.014-0.189-0.033c-0.17,0.129-0.34,0.258-0.51,0.383c-0.033,0.059-0.066,0.123-0.1,0.188
			c-0.24,0.377-0.543,0.55-0.904,0.517c-0.988,0.658-2.023,1.259-3.107,1.802c-0.074,0.115-0.151,0.228-0.232,0.339
			c-0.459,0.617-0.89,0.928-1.293,0.932c-0.418,0.012-1.043,0.314-1.875,0.91c-0.225,0.166-0.41,0.305-0.555,0.416
			c-0.121,0.447-0.218,0.752-0.288,0.916c-0.04,0.096-0.098,0.184-0.172,0.266c-0.044,0.045-0.102,0.098-0.172,0.16
			c0.037-0.296,0.108-0.643,0.216-1.043c-0.133,0.086-0.216,0.123-0.25,0.111c-0.029-0.015-0.061-0.046-0.094-0.094
			c-0.012,0.025-0.021,0.053-0.033,0.083c-0.07,0.155-0.215,0.452-0.434,0.894c-0.254,0.518-0.463,0.922-0.625,1.214l-0.14-0.061
			c0.271-0.892,0.418-1.378,0.444-1.459c0.062-0.2,0.123-0.386,0.183-0.56c-0.344,0.32-0.741,0.711-1.192,1.17
			c-0.219,0.58-0.404,1.104-0.561,1.569l-0.1,0.161c-0.037,0.037-0.091,0.057-0.161,0.061c-0.019-0.299,0.028-0.662,0.139-1.087
			c-0.2,0.218-0.412,0.444-0.638,0.677c-0.437,0.422-0.817,0.742-1.143,0.965c-0.104,0.256-0.189,0.457-0.256,0.605
			c-0.066,0.151-0.098,0.205-0.094,0.16h-0.09c-0.065,0.008-0.133,0-0.199-0.021c0.019-0.133,0.056-0.291,0.111-0.472
			c-0.186,0.062-0.346,0.081-0.482,0.056c-0.056,0.174-0.097,0.314-0.123,0.422c-0.047,0.037-0.082,0.061-0.105,0.071
			c-0.043,0.026-0.088,0.039-0.133,0.039c-0.133-0.151-0.166-0.414-0.1-0.788c-0.066,0.062-0.147,0.148-0.244,0.256
			c-0.181,0.174-0.363,0.283-0.549,0.332c-0.066-0.114-0.098-0.238-0.094-0.371c0-0.115,0.018-0.217,0.055-0.306
			c0.033-0.069,0.148-0.234,0.344-0.493c-0.11,0.066-0.234,0.12-0.371,0.16c-0.236,0.24-0.472,0.412-0.705,0.516
			c-0.07-0.047-0.116-0.08-0.139-0.1c-0.021-0.037-0.013-0.104,0.027-0.199c0.027-0.06,0.111-0.189,0.256-0.395
			c-0.004-0.018-0.007-0.035-0.012-0.049c-0.025,0.014-0.094,0.092-0.205,0.232c-0.27,0.381-0.504,0.691-0.704,0.932
			c-0.048,0.019-0.104,0.021-0.167,0.006c-0.04-0.288,0.039-0.666,0.238-1.131c0.023-0.049,0.045-0.096,0.067-0.139
			c0-0.004,0-0.01,0-0.018c-0.037,0.02-0.074,0.037-0.11,0.057c-0.09,0.173-0.209,0.328-0.361,0.465
			c-0.012-0.004-0.02-0.009-0.027-0.016c-0.1,0.162-0.182,0.297-0.244,0.404l-0.199-0.027l-0.111-0.072
			c-0.078,0.129-0.155,0.24-0.233,0.332l-0.149-0.088c-0.022-0.089-0.02-0.248,0.011-0.478c0.004-0.019,0.004-0.04,0-0.067
			c-0.011,0-0.019,0.005-0.022,0.012c-0.361,0.755-0.671,1.302-0.926,1.643l-0.184-0.078c0.074-0.17,0.17-0.437,0.289-0.799
			c0.074-0.232,0.141-0.43,0.199-0.594c-0.062,0.02-0.124,0.033-0.184,0.045c-0.043,0.066-0.088,0.141-0.133,0.223
			c-0.185,0.307-0.334,0.539-0.449,0.697l-0.16-0.066c0.088-0.285,0.168-0.533,0.238-0.748c-1.269,1.92-2.073,2.779-2.413,2.58
			c0.07,0.225,0.155,0.49,0.255,0.799c0.37,1.135,0.403,2.828,0.1,5.08c-0.303,2.252-0.518,3.806-0.643,4.66
			c0,0.019,0,0.035,0,0.051c0.011,0.169,0.016,0.357,0.016,0.564c-0.004,0.34-0.014,0.803-0.033,1.387
			c-0.004,0.082-0.005,0.163-0.005,0.244l-0.073-0.027c0.005-0.074,0.005-0.157,0-0.25c0.008-0.34,0.005-0.762-0.01-1.265
			c-0.029,0.196-0.063,0.386-0.1,0.571c0.003,0.2-0.004,0.413-0.023,0.638c-0.007,0.118-0.014,0.237-0.021,0.356
			c-0.045,0.465-0.104,0.901-0.178,1.309c0.148,1.396,0.229,2.752,0.244,4.066c-0.021,0.044-0.056,0.094-0.1,0.148
			c-0.037,0.037-0.105,0.034-0.205-0.01c-0.016-0.008-0.029-0.018-0.045-0.029c-0.012,0.009-0.021,0.018-0.033,0.029
			c-0.059,0.025-0.137,0.018-0.232-0.022c-0.082-0.037-0.143-0.128-0.184-0.272c-0.019,0.012-0.048,0.021-0.088,0.028
			c0.051,0.195,0.115,0.421,0.193,0.677c0.158,0.524,0.259,0.92,0.3,1.188c-0.022,0.043-0.069,0.059-0.14,0.043
			c-0.073-0.303-0.227-0.795-0.46-1.475c0.056,0.355,0.11,0.771,0.167,1.248c0.033,0.24,0.07,0.538,0.11,0.893l0.083,0.654
			l-0.166,0.117l-0.389-0.683c-0.318,5.056-1.094,7.751-2.33,8.089c-1.238,0.336-2.172,0.458-2.801,0.365
			c-1.427,0.126-2.374,0.3-2.84,0.521l-2.047,0.805c-0.063,0.15-0.134,0.352-0.211,0.6c-0.104,0.206-0.281,0.385-0.533,0.537
			l-1.276,0.5c-0.74,0.344-1.426,0.567-2.058,0.67c-0.163,0.152-0.342,0.314-0.539,0.488c-0.999,0.9-1.849,1.535-2.552,1.908
			c0.011,0.293-0.009,0.578-0.061,0.854c-0.092,0.433-0.263,0.718-0.51,0.854c-0.377,0.211-0.644,0.176-0.799-0.105
			c-0.137-0.244-0.192-0.559-0.166-0.943c0.033-0.417,0.161-0.85,0.382-1.297c0.041-0.074,0.082-0.15,0.123-0.229
			c-0.145,0.062-0.291,0.129-0.438,0.195c-0.011,0.006-0.022,0.021-0.033,0.044c-0.181,0.369-0.344,0.758-0.488,1.165
			c-0.115,0.348-0.333,0.562-0.655,0.643c-0.055,0.008-0.118,0.018-0.188,0.029c-0.248,0.424-0.595,0.605-1.043,0.543
			c-0.044,0.004-0.085-0.008-0.122-0.033c-0.344-0.352-0.385-0.752-0.122-1.199c0.1-0.177,0.173-0.356,0.222-0.537
			c0.125-0.521,0.338-1.01,0.638-1.465c0.096-0.17,0.22-0.309,0.372-0.416c0.528-0.455,1.056-0.902,1.581-1.343
			c0.296-0.237,0.577-0.482,0.843-0.737c0.044-0.045,0.089-0.088,0.133-0.127v-0.09c0.096-0.141,0.325-0.283,0.688-0.427v0.005
			c0.088-0.051,0.177-0.1,0.266-0.144c-0.026-0.026-0.041-0.05-0.044-0.072l0.017-0.146c0.033-0.014,0.137-0.055,0.311-0.121
			c0.037-0.016,0.081-0.035,0.133-0.061c0.27-0.115,0.431-0.191,0.482-0.229l-0.05-0.011c-0.125-0.021-0.209-0.067-0.25-0.138
			c-0.015-0.082-0.033-0.139-0.056-0.173l-0.005-0.183c0.147-0.037,0.593-0.128,1.337-0.271c0.374-0.078,0.63-0.132,0.771-0.16
			c0.042-0.023,0.078-0.046,0.111-0.068c-0.078-0.117-0.118-0.205-0.122-0.26c0.019-0.052,0.03-0.082,0.033-0.089l0.694-0.106
			c0.125-0.11,0.251-0.211,0.377-0.299c-0.159-0.115-0.25-0.176-0.272-0.183c0.27-0.042,0.523-0.089,0.76-0.146
			c0.411-0.236,1.258-0.605,2.541-1.109c0.011-0.01,0.017-0.02,0.017-0.027c0.359-0.45,0.593-0.936,0.705-1.453
			c-0.145-0.596-0.263-1.143-0.355-1.643c-0.07,0.244-0.131,0.469-0.183,0.672l-0.111,0.123l0.005,0.043
			c-0.019,0.02-0.074,0.008-0.167-0.033c-0.137-0.059-0.155-0.369-0.056-0.932c-0.077,0.26-0.149,0.503-0.216,0.732
			c-0.048,0.033-0.081,0.053-0.1,0.061c-0.037,0.012-0.078,0.014-0.122,0.006c-0.022-0.229,0.054-0.743,0.227-1.542
			c-0.037,0.044-0.07,0.087-0.1,0.128l-0.194-0.084c0.174-0.417,0.418-1.059,0.733-1.924c0-0.182,0.001-0.369,0.005-0.561
			c-0.129,0.24-0.27,0.495-0.422,0.766c-0.063-0.16-0.052-0.428,0.033-0.805c-0.007,0.008-0.013,0.016-0.016,0.021
			c-0.126-0.226-0.163-0.484-0.111-0.776c0.007-0.04,0.017-0.081,0.028-0.122c-0.052-0.113-0.085-0.273-0.1-0.477
			c-0.022-0.229-0.015-0.402,0.022-0.516l0.072-0.051c0.008,0.025,0.008,0.127,0,0.301c-0.003,0.15,0.009,0.275,0.039,0.371
			l0.017,0.033c0.015-0.041,0.03-0.084,0.044-0.127c0.015-0.09,0.028-0.173,0.039-0.25c-0.015-0.133-0.011-0.303,0.011-0.512
			c0.015-0.106,0.028-0.203,0.039-0.287c-0.03-0.008-0.056-0.018-0.078-0.027c-0.389-0.172-0.374-0.94,0.044-2.309
			c-0.133,0.24-0.242,0.437-0.327,0.588l-0.106-0.017c0.063-0.118,0.127-0.243,0.194-0.372c-0.044,0.06-0.093,0.127-0.144,0.2
			c0.014-0.141,0.041-0.306,0.077-0.493c-0.425,0.739-0.813,1.379-1.165,1.92l-0.167-0.045l-0.017-0.1
			c0-0.037,0.022-0.107,0.067-0.212c0.61-1.079,1.176-2.068,1.697-2.968c0.015-0.084,0.03-0.16,0.044-0.227
			c-0.214,0.402-0.355,0.646-0.421,0.732l-0.089,0.016c0.141-0.391,0.328-0.887,0.561-1.486c-0.011-0.044-0.021-0.086-0.028-0.127
			c-0.104,0.207-0.168,0.338-0.194,0.394c-0.008,0-0.028,0.009-0.062,0.028c-0.037,0.021-0.072,0.034-0.105,0.039
			c0.089-0.363,0.261-0.877,0.516-1.543c0.166-0.433,0.31-0.791,0.432-1.076c0.015-0.029,0.03-0.061,0.044-0.094
			c0-0.004,0-0.008,0-0.012v-0.055c-0.022,0.084-0.062,0.156-0.122,0.215c-0.096,0.104-0.203,0.123-0.322,0.057
			c-0.055-0.304,0.015-0.688,0.211-1.154c0.244-0.5,0.403-0.85,0.477-1.054c-0.203,0.343-0.342,0.601-0.416,0.771l-0.05,0.022
			c-0.034,0.011-0.095-0.003-0.183-0.044c-0.096-0.041-0.15-0.072-0.161-0.094l0.017-0.023c0.137-0.447,0.359-1.097,0.666-1.947
			c0.211-0.6,0.382-1.084,0.516-1.459c0.003-0.069,0.007-0.141,0.011-0.211c-0.307,0.697-0.544,1.217-0.71,1.565l-0.111,0.011
			c0.188-0.547,0.458-1.279,0.81-2.196c0.033-0.085,0.064-0.167,0.094-0.245c0.018-0.184,0.037-0.33,0.055-0.438
			c0.07-0.473,0.153-1.008,0.25-1.604c-0.174-3.856,0.039-6.521,0.638-7.994c0.599-1.482,1.039-2.154,1.32-2.018
			c-0.022-0.066-0.049-0.137-0.078-0.211c-0.081-0.244-0.116-0.488-0.105-0.732c0.008-0.126,0.024-0.25,0.05-0.372
			c0.019-0.126,0.045-0.249,0.078-0.372c0.422-1.258,1.775-2.773,4.061-4.549c3.416-2.65,6.948-5.098,10.596-7.338
			c3.642-2.245,6.061-4.211,7.254-5.897c1.195-1.693,2.99-4.038,5.387-7.033c2.393-2.996,4.457-2.715,6.191,0.843
			s2.717,6.576,2.945,9.053c0.236,2.475-0.182,3.781-1.254,3.922C137.632,111.795,137.695,112.15,137.758,112.646L137.758,112.646z
			 M112.973,128.971c-0.004,0-0.008,0.002-0.012,0.006c-0.037,0.107-0.073,0.219-0.11,0.333l0.027,0.006
			c0.067-0.118,0.132-0.238,0.194-0.36C113.039,128.959,113.006,128.964,112.973,128.971L112.973,128.971z M137.147,114.87
			l-0.011,0.005c0,0.016,0.002,0.032,0.005,0.051C137.146,114.904,137.147,114.885,137.147,114.87z M98.899,146.24
			c-0.074,0.021-0.129,0.029-0.167,0.021c-0.114,0.244-0.234,0.5-0.36,0.766l-0.011,0.021c0.019-0.01,0.05-0.044,0.094-0.1
			c0.044-0.062,0.072-0.102,0.083-0.115l0.044,0.004c0.007,0.005,0.009,0.01,0.005,0.018c0.104-0.195,0.209-0.399,0.316-0.61
			L98.899,146.24z M98.822,149.363c0.003,0.029,0.003,0.057,0,0.082l0.021,0.012c0.011-0.037,0.022-0.07,0.034-0.1
			C98.854,149.357,98.836,149.359,98.822,149.363z M98.716,150.8c0.111-0.247,0.21-0.49,0.299-0.727
			c-0.137,0.277-0.246,0.491-0.328,0.644c-0.003,0.051-0.009,0.098-0.016,0.139C98.635,150.974,98.649,150.955,98.716,150.8z
			 M92.242,161.949c0.085-0.044,0.17-0.081,0.255-0.111c-0.1,0.02-0.205,0.053-0.316,0.1L92.242,161.949L92.242,161.949z
			 M93.701,161.141c-0.048-0.008-0.1-0.016-0.155-0.023c-0.307-0.041-0.501-0.057-0.582-0.049c-0.104,0.018-0.158,0.033-0.161,0.043
			c0,0.012,0.005,0.029,0.017,0.057c0.111,0.084,0.17,0.154,0.177,0.211c0.137-0.016,0.261-0.027,0.372-0.039
			C93.483,161.266,93.594,161.199,93.701,161.141L93.701,161.141z M94.828,160.258c0.022,0.012,0.094,0.019,0.216,0.021
			c0.037-0.018,0.07-0.037,0.1-0.055C95.044,160.235,94.938,160.246,94.828,160.258z M95.776,159.543l0.033,0.032
			c0.045,0.022,0.078,0.037,0.1,0.044c0.055-0.039,0.109-0.074,0.161-0.1C95.981,159.535,95.883,159.543,95.776,159.543z"/>
	</g>
	<g id="Layer_5_1_">
		<path id="path14_1_" fill="#010101" d="M130.852,99.504c0.994,0.201,1.99,0.438,2.99,0.711c1.623,0.451,2.406,1.523,2.352,3.217
			c-0.053,1.765-0.523,3.436-1.415,5.016c-0.28,0.506-0.585,0.986-0.909,1.441c-0.026,0.314-0.068,0.66-0.128,1.037
			c-0.196,1.307-0.88,2.969-2.052,4.988c-5.18,2.842-8.985,3.77-11.417,2.781c-2.432-0.99-5.06-3.676-7.882-8.059l0.282-0.133
			l-1.171-0.754l-0.277,0.094l-0.144-0.082l0.067-0.55l-0.129-0.061l0.022-0.228l-1.476-1.148l-0.488-0.033l0.078-0.416
			l-0.166-0.166c-0.271-0.104-0.582-0.223-0.933-0.355c0.137-0.033,0.279-0.052,0.427-0.057c-0.004-0.018-0.006-0.034-0.006-0.049
			c-0.141-0.049-0.285-0.1-0.438-0.155c-0.236,1.343-0.541,2.798-0.916,4.366c-0.162,0.673-0.313,1.303-0.454,1.891
			c0.159,0.729,0.255,1.27,0.288,1.62c-0.07,0.101-0.112,0.151-0.127,0.155c-0.041,0.025-0.1,0.022-0.178-0.011
			c-0.025-0.011-0.074-0.112-0.145-0.306c-0.004,0.07-0.01,0.143-0.017,0.217c0.019,0.053,0.038,0.109,0.062,0.172
			c0.158,0.48,0.201,0.808,0.127,0.982c-0.048,0.104-0.135,0.203-0.26,0.299c-0.061,0.045-0.109,0.078-0.15,0.1
			c-0.021,0.041-0.043,0.08-0.061,0.117c0.033,0.059,0.078,0.137,0.139,0.232c0.084,0.193,0.105,0.391,0.061,0.594
			c-0.041,0.074-0.068,0.12-0.084,0.139c-0.029,0.037-0.08,0.037-0.154,0c-0.016-0.004-0.056-0.081-0.123-0.232
			c-0.007-0.026-0.014-0.049-0.021-0.066c-0.015,0.076-0.025,0.156-0.033,0.238c0.004,0.066,0.01,0.145,0.017,0.232
			c-0.022,0.037-0.037,0.066-0.044,0.09l-0.006,0.005c-0.008,0.333-0.017,0.526-0.027,0.581c-0.016,0.167-0.057,0.322-0.123,0.467
			c0.07,0.232,0.115,0.406,0.134,0.521c-0.026,0.074-0.046,0.119-0.062,0.133c-0.018,0.027-0.061,0.025-0.127-0.005
			c-0.074-0.03-0.178-0.216-0.311-0.561c-0.026-0.071-0.053-0.134-0.078-0.188c-0.036,0.148-0.061,0.273-0.072,0.377
			c0.045,0.196,0.105,0.393,0.184,0.588c0.215,0.525,0.34,0.885,0.377,1.082l-0.094,0.105c-0.111-0.037-0.242-0.199-0.395-0.488
			c-0.015-0.029-0.025-0.061-0.033-0.095c0.008,0.078,0.019,0.14,0.033,0.183c-0.029-0.014-0.072-0.027-0.127-0.037
			c0.085,0.188,0.182,0.389,0.293,0.604c0.215,0.536,0.219,1.117,0.012,1.742c-0.041-0.289-0.119-0.613-0.232-0.971
			c-0.053-0.141-0.101-0.274-0.145-0.399c0.011,0.259,0.023,0.536,0.039,0.831c0.025,0.5,0.044,0.947,0.056,1.344
			c0,0.007,0.003,0.011,0.011,0.011c-0.045,0.122-0.072,0.243-0.084,0.366c0,0.014-0.025,0.172-0.077,0.472
			c0.008,0.31-0.602,0.896-1.825,1.759c-1.231,0.854-2.753,1.062-4.565,0.625c-0.055-0.01-0.109-0.021-0.161-0.032
			c-0.433-0.093-0.78-0.135-1.042-0.128l-3.8,0.012c-0.148,0.015-0.312,0.017-0.494,0.006l-2.302-0.756l-0.355,0.184l-0.294-0.133
			l-0.127,0.061l-0.311-0.133l-1.359,0.732c-0.185,0.1-0.277,0.152-0.277,0.155c-0.022,0.034-0.013,0.298,0.027,0.794
			c-0.007,0.561-0.177,1.041-0.51,1.436c-0.196,0.241-0.508,0.352-0.938,0.334c-0.336-0.004-0.543-0.043-0.621-0.117
			c-0.137-0.114-0.174-0.366-0.111-0.754c0.104-0.688,0.153-1.229,0.149-1.625c0-0.02,0-0.039,0-0.062l-0.022,0.011
			c-0.033,0.053-0.08,0.191-0.139,0.422c-0.066,0.226-0.179,0.439-0.338,0.643c-0.358,0.434-0.691,0.635-0.999,0.605
			c-0.137-0.012-0.292-0.091-0.466-0.238c-0.229-0.191-0.328-0.548-0.294-1.064c0-0.004,0.002-0.01,0.006-0.018l0.244-0.549
			c-0.292,0.284-0.633,0.399-1.021,0.344c-0.278-0.041-0.498-0.127-0.66-0.261c-0.289-0.244-0.25-0.679,0.116-1.304
			c0.137-0.229,0.3-0.457,0.488-0.682c-1.028,0.632-1.671,0.839-1.931,0.621c-0.425-0.355-0.379-0.84,0.139-1.453
			c0.477-0.548,1.217-1.092,2.219-1.632c0.163-0.089,0.328-0.169,0.494-0.243c-0.034-0.033-0.059-0.072-0.078-0.117
			c0.436-0.082,1.397-0.318,2.885-0.71l1.048-0.282c1.757,0.203,3.035,0.303,3.833,0.299c0.695,0,1.385,0.076,2.069,0.229
			c0.577,0.043,1.248,0.018,2.013-0.078c0.458-0.062,0.919-0.145,1.381-0.244c-0.059-0.033-0.076-0.055-0.05-0.066
			c0.015-0.012,0.041-0.016,0.078-0.012c0.111-0.037,0.246-0.122,0.405-0.255c0.145-0.13,0.265-0.255,0.36-0.377
			c-0.048,0.036-0.138,0.073-0.271,0.11c-0.181,0.049-0.346,0.061-0.494,0.039c0.007-0.008,0-0.02-0.022-0.039
			c-0.015-0.045,0.002-0.119,0.05-0.223c0.096-0.205,0.237-0.363,0.422-0.471c0.148-0.078,0.25-0.15,0.305-0.216
			c-0.004-0.007-0.005-0.014-0.005-0.017c-0.026,0.014-0.044,0.027-0.056,0.038c-0.022,0.008-0.087-0.013-0.194-0.062
			c-0.118-0.051-0.226-0.275-0.321-0.67c-0.115-0.459-0.045-0.838,0.21-1.138c-0.125,0.137-0.241,0.226-0.344,0.267l-0.128-0.028
			c-0.226-0.329-0.255-0.931-0.088-1.802c0.041-0.208,0.096-0.484,0.167-0.827c0.037-0.251,0.019-0.396-0.056-0.433
			c-0.181-0.078-0.122-0.598,0.177-1.559l-0.033-0.045c0.004-0.092,0.004-0.203,0-0.333c-0.044,0.097-0.085,0.188-0.122,0.278
			c-0.07,0.073-0.144,0.123-0.222,0.148c-0.185-0.225-0.265-0.383-0.239-0.471c0.189-0.455,0.352-0.853,0.488-1.193
			c-0.019-0.222-0.041-0.46-0.066-0.715c-0.152,0.281-0.305,0.588-0.461,0.921c-0.044,0.07-0.077,0.114-0.1,0.133
			c-0.029,0.034-0.098,0.026-0.205-0.022c-0.096-0.04-0.143-0.066-0.139-0.077c0.004-0.033-0.004-0.063-0.022-0.089l0.572-1.426
			c-0.137,0.155-0.25,0.25-0.338,0.283c-0.096-0.17-0.131-0.33-0.105-0.478c0.03-0.185,0.176-0.645,0.438-1.381
			c-0.015-0.063-0.027-0.128-0.039-0.194c-0.022-0.007-0.046-0.017-0.072-0.027c-0.104-0.049-0.153-0.095-0.15-0.139
			c0.008-0.026,0.021-0.078,0.039-0.156l0.089-0.21v-0.005c-0.044-0.267-0.087-0.527-0.128-0.783
			c-0.003-0.004-0.007-0.006-0.011-0.006c-0.104-0.04-0.152-0.07-0.145-0.088c0.003-0.012,0.021-0.013,0.05-0.006
			c-0.004-0.125-0.004-0.316,0-0.571c-0.34-2.226-0.516-4.181-0.527-5.864c-0.004-0.795-0.048-2.035-0.133-3.722
			c-0.145-0.565-0.294-1.245-0.449-2.036c-0.463-2.736-0.694-4.112-0.694-4.127c0-0.833,0.037-1.415,0.111-1.748
			c0.118-0.548,0.335-0.906,0.649-1.075c0.048-0.268,0.117-0.558,0.205-0.871c0.274-0.973,0.433-1.582,0.478-1.826
			c0.037-0.219,0.202-0.504,0.494-0.859c0.289-0.352,0.636-0.686,1.043-1.004c0.662-0.514,1.252-0.826,1.77-0.938
			c0.987-0.743,1.984-1.021,2.991-0.832c0.884,0.148,1.898,0.525,3.044,1.131c1.066,0.57,1.752,1.067,2.059,1.492
			c0.58,0.374,1.203,0.819,1.869,1.338l7.007,5.669c2.54,1.976,5.071,3.816,7.595,5.524
			C126.062,98.008,128.373,98.99,130.852,99.504L130.852,99.504z M97.545,112.312c-0.007-0.032-0.015-0.064-0.022-0.094
			c-0.007,0.06-0.011,0.122-0.011,0.189C97.523,112.371,97.535,112.339,97.545,112.312z M108.086,106.271
			c-0.008,0.049-0.016,0.099-0.023,0.15c0.141,0.019,0.287,0.045,0.439,0.078c0.011-0.041,0.025-0.082,0.043-0.123
			c-0.137-0.037-0.275-0.078-0.415-0.127C108.115,106.258,108.1,106.266,108.086,106.271z M109.162,106.949
			c-0.414-0.06-0.651-0.09-0.711-0.09c0.219,0.037,0.44,0.084,0.666,0.139l0.238,0.029L109.162,106.949z M110.227,108.047
			l-0.072-0.183l-0.449-0.028L110.227,108.047z M106.398,113.972l-0.005,0.027c-0.015,0.026-0.024,0.056-0.028,0.089
			c0.008,0.022,0.02,0.045,0.033,0.066c-0.004-0.059-0.002-0.116,0.006-0.172C106.4,113.979,106.398,113.976,106.398,113.972z
			 M105.949,116.635c0.004,0.041,0.008,0.078,0.012,0.115c-0.004,0.03-0.002,0.061,0.006,0.09c0.003-0.007,0.006-0.017,0.006-0.027
			c0.003-0.034,0.007-0.067,0.01-0.102C105.965,116.676,105.953,116.648,105.949,116.635z M105.75,117.389
			c-0.029,0.129-0.066,0.246-0.111,0.35c0.022,0.119,0.039,0.228,0.051,0.327c0.029,0.089,0.059,0.172,0.088,0.25
			c0-0.1,0-0.217,0-0.35c-0.004-0.019-0.011-0.046-0.021-0.083c0.011-0.021,0.018-0.049,0.021-0.078
			c-0.004-0.121-0.006-0.251-0.006-0.389C105.765,117.412,105.758,117.404,105.75,117.389z"/>
	</g>
	<g id="Layer_7_1_">
		<path id="path17_3_" fill="#010101" d="M100.025,53.945c-0.47,0.033-0.849,0.079-1.138,0.139l0.105,0.027
			c0.241,0.029,0.751,0.031,1.532,0.006c0.044,0,0.084,0,0.122,0C100.436,54.058,100.229,54,100.025,53.945z M102.233,54.76
			c0.178,0.037,0.401,0.075,0.671,0.116c0.052-0.012,0.103-0.021,0.15-0.033c-0.078,0-0.174-0.006-0.289-0.016
			C102.61,54.808,102.433,54.787,102.233,54.76z M101.557,54.394h0.011c0.03-0.004,0.08-0.004,0.15,0
			c-0.019-0.008-0.043-0.016-0.072-0.022C101.616,54.375,101.586,54.382,101.557,54.394z M96.896,53.212
			c0.037-0.018,0.076-0.037,0.117-0.055c-0.181-0.012-0.381-0.023-0.599-0.034c-0.041,0.007-0.061,0.021-0.061,0.039
			C96.409,53.177,96.59,53.195,96.896,53.212L96.896,53.212z M97.845,53.267c-0.059-0.021-0.119-0.04-0.178-0.055
			c-0.062,0.008-0.122,0.02-0.177,0.033C97.667,53.257,97.786,53.264,97.845,53.267z M104.508,55.143l0.11-0.033l-0.016-0.022
			c-0.156,0.014-0.25,0.046-0.283,0.095C104.363,55.177,104.427,55.166,104.508,55.143L104.508,55.143z M103.77,54.86
			c-0.145,0.03-0.275,0.058-0.394,0.083c0.462,0.057,1.026,0.119,1.692,0.188C104.628,55.039,104.195,54.949,103.77,54.86z
			 M128.992,65.578c-0.011,0.007-0.016,0.049-0.016,0.127c0.008,0.078,0.021,0.151,0.044,0.223l0.039-0.027
			C129.06,65.751,129.037,65.644,128.992,65.578z M129.775,64.695c-0.023-0.085-0.043-0.168-0.061-0.249
			c-0.027-0.118-0.053-0.237-0.078-0.354c-0.037-0.02-0.078-0.035-0.123-0.051c0.057,0.145,0.115,0.296,0.178,0.455
			C129.718,64.558,129.746,64.625,129.775,64.695L129.775,64.695z M124.782,62.277c-0.007-0.066-0.013-0.133-0.017-0.199
			c-0.137,0.313-0.256,0.545-0.36,0.693c-0.048,0.387-0.104,0.773-0.167,1.158c0.037,0.193,0.072,0.373,0.105,0.539
			c0.223-0.271,0.367-0.625,0.434-1.065c-0.02-0.011-0.043-0.022-0.072-0.034C124.716,63.007,124.742,62.642,124.782,62.277z
			 M122.164,59.869c-0.158,0.17-0.255,0.267-0.289,0.289c-0.029,0.018-0.07,0.041-0.121,0.066c0.232-0.033,0.495-0.084,0.787-0.15
			l0.006-0.01c-0.004,0-0.008,0-0.012,0.005C122.422,60.001,122.297,59.935,122.164,59.869z M122.497,59.508
			c-0.022,0.026-0.046,0.052-0.071,0.078c-0.012,0.048-0.025,0.093-0.039,0.133C122.43,59.649,122.467,59.58,122.497,59.508z
			 M123.445,60.546c0.033-0.123,0.066-0.248,0.1-0.378c-0.029-0.019-0.059-0.036-0.088-0.056c-0.049,0.004-0.1,0.014-0.156,0.027
			c-0.262,0.5-0.486,0.885-0.67,1.154C122.878,61.074,123.15,60.824,123.445,60.546z M120.622,60.236
			c0.118,0.029,0.263,0.043,0.433,0.043c0.215-0.176,0.453-0.391,0.715-0.643c-0.018-0.008-0.036-0.02-0.055-0.033
			c0.137-0.1,0.27-0.199,0.399-0.299c-0.041,0.014-0.079,0.03-0.116,0.049c-0.256,0.236-0.531,0.451-0.826,0.644
			C121.001,60.108,120.818,60.187,120.622,60.236z M120.6,58.593c-0.088-0.041-0.176-0.08-0.261-0.117
			c-0.3,0.148-0.58,0.272-0.843,0.372c-0.129,0.052-0.25,0.095-0.361,0.128c0.314,0.051,0.699-0.01,1.154-0.184
			C120.396,58.726,120.5,58.66,120.6,58.593z M121.032,59.217c0.009-0.009,0.016-0.017,0.022-0.02
			c-0.004-0.003-0.008-0.002-0.012,0.005L121.032,59.217z M119.701,58.127c-0.008,0.003-0.016,0.011-0.022,0.022
			c-0.052,0.055-0.102,0.107-0.149,0.154c0.104-0.04,0.197-0.082,0.283-0.127C119.775,58.163,119.738,58.146,119.701,58.127z
			 M122.574,47.943c0.029-0.008,0.061-0.014,0.096-0.018c-0.061-0.033-0.123-0.066-0.189-0.1c-0.008-0.004-0.015-0.006-0.021-0.006
			c-0.082-0.037-0.171-0.068-0.268-0.094c0.033,0.022,0.067,0.047,0.101,0.072C122.381,47.843,122.475,47.891,122.574,47.943z
			 M81.941,40.415c-0.314-0.178-0.664-0.372-1.049-0.583c0.159,0.129,0.338,0.275,0.538,0.438l0.022-0.05
			c0.222,0.118,0.444,0.232,0.666,0.343C82.06,40.513,82,40.463,81.941,40.415z M76.693,33.792c-0.007,0-0.015,0.002-0.022,0.005
			c0.011-0.003,0.02-0.002,0.027,0.005C76.696,33.799,76.693,33.795,76.693,33.792z M77.132,34.402
			c-0.019-0.042-0.041-0.086-0.066-0.134c-0.052-0.018-0.105-0.039-0.161-0.061C76.975,34.271,77.051,34.335,77.132,34.402z
			 M76.094,33.259c-0.137-0.062-0.24-0.114-0.311-0.155c0.118,0.136,0.25,0.279,0.394,0.427c0.044-0.03,0.09-0.056,0.139-0.078
			C76.239,33.386,76.165,33.322,76.094,33.259L76.094,33.259z M74.691,31.135c0.052-0.044,0.08-0.072,0.083-0.083
			c-0.174-0.041-0.302-0.07-0.383-0.089c0.066,0.082,0.163,0.188,0.288,0.317C74.665,31.227,74.669,31.179,74.691,31.135z
			 M75.207,31.789v0.006c0.003-0.003,0.007-0.003,0.011,0C75.214,31.791,75.21,31.789,75.207,31.789z M71.036,26.259
			c0.007,0.111,0.015,0.232,0.022,0.366c0.026-0.104,0.059-0.216,0.1-0.338c0.019-0.044,0.034-0.085,0.044-0.122
			c-0.041-0.077-0.078-0.148-0.111-0.21C71.076,26.031,71.058,26.133,71.036,26.259z M74.752,30.325l-0.066-0.017
			c-0.17-0.037-0.327-0.072-0.471-0.106c0.133,0.052,0.275,0.109,0.427,0.173C74.682,30.36,74.719,30.343,74.752,30.325z
			 M76.566,17.117c0.251,0.573,0.396,1.135,0.433,1.686c0.03,0.067,0.058,0.137,0.083,0.211c0.096,0.277,0.125,0.737,0.089,1.381
			c-0.034,0.596,0.013,1.019,0.138,1.271c0.229,0.591,0.375,0.968,0.438,1.131c0.033,0.03,0.068,0.063,0.105,0.1
			c-0.011-0.04-0.019-0.079-0.022-0.116c0.114-0.033,0.22-0.003,0.316,0.089c0.011,0.007,0.022,0.017,0.033,0.027
			c0.1,0.145,0.151,0.219,0.156,0.223c0.077,0.114,0.146,0.224,0.205,0.327c-0.015-0.092-0.024-0.17-0.028-0.232l0.083-0.017
			c0.026,0.159,0.046,0.277,0.061,0.355c0.015,0.059,0.031,0.116,0.05,0.171c0.022,0.037,0.044,0.074,0.067,0.111
			c0.056,0.055,0.109,0.113,0.161,0.171c-0.004-0.037-0.009-0.074-0.017-0.111c-0.059-0.152-0.109-0.299-0.15-0.443
			c0.052-0.011,0.098-0.011,0.139,0l0.005-0.006l0.062-0.044c0.004,0.029,0.009,0.06,0.017,0.089
			c0.026,0.015,0.053,0.037,0.083,0.066c0.007,0.003,0.069,0.089,0.183,0.255c0.011,0.018,0.024,0.039,0.039,0.062
			c-0.015-0.037-0.022-0.063-0.022-0.078l0.144-0.094c0.015,0.037,0.032,0.078,0.05,0.122l0.023-0.016l-0.012-0.027
			c0.015,0,0.052,0.042,0.111,0.127c0.037,0.06,0.072,0.182,0.105,0.366c0.077,0.145,0.165,0.299,0.261,0.466
			c0.07,0.126,0.133,0.24,0.188,0.344c0.137,0.096,0.274,0.199,0.411,0.311c0.007,0.007,0.013,0.013,0.016,0.017
			c-0.166-0.34-0.319-0.644-0.46-0.91l0.066-0.039c0.033,0.048,0.083,0.107,0.149,0.178c0.07,0.077,0.134,0.153,0.189,0.228
			c0.096,0.144,0.203,0.397,0.322,0.76c1.464,1.198,2.858,2.526,4.183,3.983c0.64,0.71,1.431,1.529,2.375,2.458
			c1.094,1.069,1.912,1.87,2.452,2.402c1.982,1.945,3.463,3.602,4.443,4.97c0.388,0.548,0.599,1.122,0.632,1.725
			c0.122-0.022,0.588,0.015,1.397,0.111c0.951,0.119,1.881,0.255,2.791,0.411c1.328,0.24,2.38,0.492,3.157,0.754
			c1.397,0.077,3.02,0.304,4.864,0.677c2.666,0.539,5.156,1.273,7.467,2.202c-0.463-0.259-0.787-0.525-0.977-0.799
			c0.301,0.093,0.707,0.286,1.221,0.583c0.507,0.295,0.895,0.565,1.165,0.809v0.012c0.126,0.051,0.255,0.109,0.388,0.172
			c0.056,0.025,0.111,0.053,0.167,0.078c-0.03-0.025-0.058-0.054-0.083-0.084l-0.233-0.16c-0.21-0.085-0.423-0.202-0.638-0.35
			c-0.199-0.141-0.499-0.355-0.898-0.644l-0.045-0.11c0.174,0.025,0.364,0.094,0.572,0.205c0.425,0.145,0.872,0.385,1.342,0.721
			c0.336,0.155,0.732,0.359,1.188,0.609c0.004-0.003,0.004-0.007,0-0.01l0.061-0.045c0.021,0.037,0.037,0.076,0.045,0.117
			c0.203,0.104,0.414,0.219,0.632,0.35c0.037-0.004,0.075-0.004,0.116,0c-0.004-0.004-0.006-0.008-0.006-0.012
			c-0.133-0.189-0.219-0.331-0.26-0.428l0.061-0.039c0.104,0.152,0.224,0.314,0.36,0.488c0.042,0,0.081,0,0.122,0
			c0.447-0.037,0.943,0.025,1.486,0.189c-0.033-0.104-0.051-0.209-0.055-0.316l0.061-0.045c0.03,0.097,0.141,0.25,0.333,0.461
			c0.063,0.025,0.132,0.051,0.206,0.078c0.007,0.003,0.014,0.006,0.021,0.01c0.029,0.004,0.062,0.012,0.1,0.023
			c-0.004-0.004-0.007-0.01-0.011-0.018c-0.081-0.118-0.133-0.201-0.155-0.249c-0.026-0.067-0.037-0.144-0.033-0.233l0.061-0.044
			c0.02,0.022,0.033,0.044,0.045,0.066c0.041-0.026,0.074-0.037,0.1-0.034c0.092,0.171,0.205,0.363,0.338,0.578
			c0.041,0.01,0.084,0.021,0.128,0.033c-0.033-0.023-0.063-0.041-0.089-0.056l-0.066-0.144c0.078,0.059,0.236,0.148,0.477,0.271
			c0.016,0,0.03,0.002,0.045,0.005c-0.207-0.122-0.4-0.241-0.577-0.36c0.06-0.029,0.233,0.041,0.521,0.211
			c0.141,0.084,0.255,0.158,0.345,0.223c0.08,0.014,0.154,0.032,0.221,0.055c0-0.016,0.002-0.029,0.006-0.045
			c0.037-0.047,0.062-0.092,0.078-0.133l0.061-0.039c0.059,0.049,0.256,0.145,0.588,0.289c0.374,0.162,0.602,0.266,0.683,0.311
			l0.005,0.017c1.639-0.142,3.151-0.122,4.539,0.056c2.643,0.344,4.502,1.26,5.574,2.751c0.232,0.329,0.815,0.808,1.747,1.437
			c0.929,0.625,1.493,1.076,1.692,1.354c0.008,0.012,0.046,0.066,0.116,0.167c0.078,0.114,0.137,0.224,0.178,0.327
			c0.106,0.314,0.044,0.569-0.188,0.766c0.029,0.029,0.059,0.064,0.089,0.105c0.04,0.055,0.075,0.123,0.104,0.205
			c0.119,0.203,0.217,0.406,0.295,0.609c0.34,0.918,0.187,1.703-0.461,2.357c-0.081,0.293-0.18,0.594-0.294,0.905
			c-0.905,2.437-2.521,4.448-4.843,6.035c-0.092,0.063-0.479-0.024-1.159-0.261c0.211,0.637,0.311,1.139,0.3,1.51
			c-0.019,0-0.031,0.007-0.039,0.021c-0.004,0-0.037-0.045-0.1-0.133c-0.186-0.273-0.385-0.792-0.6-1.554
			c-0.088-0.037-0.183-0.074-0.283-0.111c0.223,0.71,0.352,1.194,0.389,1.454c-0.085,0.029-0.168,0.012-0.25-0.051
			c-0.121-0.336-0.284-0.848-0.487-1.535c-0.044-0.02-0.091-0.039-0.139-0.062c0.048,0.156,0.099,0.318,0.149,0.488
			c0.219,0.792,0.311,1.316,0.277,1.576c0.022,0.055,0.045,0.111,0.066,0.166c-0.037-0.012-0.068-0.031-0.094-0.061
			c-0.012,0.029-0.026,0.051-0.045,0.066c-0.084,0.055-0.131,0.079-0.139,0.072c-0.004-0.004,0.002-0.014,0.018-0.027l-0.028-0.045
			c-0.048-0.174-0.089-0.338-0.122-0.494c-0.178-0.325-0.396-0.854-0.654-1.586c-0.029-0.086-0.059-0.168-0.084-0.244
			c0.264,1.006,0.373,1.681,0.328,2.023l-0.061-0.043c-0.234-0.678-0.415-1.214-0.545-1.609c0.167,0.74,0.275,1.463,0.328,2.169
			c-0.066-0.015-0.121-0.038-0.161-0.071c-0.015-0.067-0.04-0.156-0.077-0.267c-0.041-0.134-0.068-0.225-0.084-0.272
			c-0.074,0.074-0.133,0.117-0.178,0.129c-0.074,0.029-0.141,0.008-0.199-0.062c0.004,0.053,0.006,0.1,0.006,0.139
			c-0.119,0.03-0.231,0.025-0.338-0.016c-0.078-0.174-0.152-0.341-0.223-0.5c-0.037,0.244-0.133,0.416-0.289,0.516
			c-0.085,0.056-0.129,0.084-0.133,0.084c-0.008-0.008-0.006-0.017,0.006-0.028l-0.045-0.027c-0.007-0.263-0.023-0.528-0.05-0.799
			c-0.056,0.137-0.132,0.239-0.232,0.306c-0.085,0.055-0.13,0.078-0.134,0.071c-0.004-0.003,0.002-0.013,0.018-0.027l-0.033-0.044
			c0-0.182,0.027-0.262,0.082-0.239c0.063-0.739-0.035-1.628-0.293-2.668c-0.023-0.106-0.049-0.211-0.078-0.311
			c-0.019-0.011-0.037-0.024-0.055-0.039c0.092,0.769,0.139,1.463,0.139,2.08c0.096,0.577,0.094,0.954-0.006,1.132
			c0.047,0.471,0.044,0.912-0.012,1.326c-0.015-0.389-0.053-0.793-0.117-1.215c-0.055,0.037-0.084,0.053-0.088,0.049
			c-0.004-0.007,0.002-0.018,0.017-0.032c-0.077-0.111-0.118-0.196-0.122-0.255c0.015,0.011,0.05,0.033,0.105,0.066
			c0.029,0.015,0.052,0.016,0.066,0.006c-0.051-0.281-0.1-0.548-0.145-0.8c-0.025-0.118-0.051-0.236-0.078-0.354l-0.01-0.012
			c-0.02-0.062-0.037-0.125-0.057-0.188c-0.021,0.191-0.066,0.353-0.133,0.482c-0.018,0.262-0.043,0.486-0.072,0.671
			c-0.041,0.015-0.08,0.019-0.121,0.011c-0.02-0.004-0.057-0.02-0.111-0.045c-0.016-0.092-0.033-0.183-0.056-0.271
			c-0.04,0.02-0.073,0.026-0.101,0.023c-0.021,0-0.057-0.014-0.104-0.039l-0.044-0.062c0.062-0.113,0.116-0.236,0.16-0.365
			c-0.066-0.314-0.12-0.577-0.16-0.788c-0.008-0.019-0.012-0.035-0.012-0.05c-0.111,0.367-0.248,0.604-0.41,0.71
			c-0.089,0.056-0.17,0.074-0.244,0.056c-0.041-0.012-0.092-0.035-0.155-0.072c-0.019-0.111-0.032-0.222-0.039-0.332
			c-0.097,0.18-0.22,0.318-0.372,0.416c-0.084,0.055-0.149,0.092-0.193,0.11c0.1,0.382,0.207,0.655,0.321,0.821
			c0.06,0.085,0.126,0.162,0.2,0.232c0.117,0.104,0.179,0.158,0.183,0.16l-0.095,0.029c-0.114-0.09-0.174-0.134-0.178-0.134
			c-0.062-0.06-0.125-0.136-0.188-0.228c-0.141-0.203-0.272-0.506-0.395-0.91c-0.041-0.07-0.068-0.127-0.083-0.171
			c0.007-0.011,0.017-0.021,0.027-0.028c-0.019-0.074-0.034-0.149-0.05-0.227c-0.019,0.065-0.033,0.137-0.044,0.211l-0.105-0.029
			c0.003-0.258,0.011-0.512,0.022-0.76c-0.026-0.133-0.051-0.27-0.072-0.41c-0.008-0.037-0.014-0.074-0.018-0.111
			c-0.051,0.078-0.11,0.139-0.177,0.184c-0.085,0.055-0.136,0.068-0.149,0.039l0.006-0.072c0.044-0.159,0.086-0.318,0.127-0.477
			c-0.025-0.008-0.05-0.012-0.072-0.012l-0.05-0.155c0.06-0.085,0.128-0.206,0.205-0.366c0-0.037-0.002-0.07-0.005-0.1
			c-0.444,0.277-0.715,0.392-0.811,0.344c-0.021-0.012-0.05-0.05-0.083-0.116c-0.026-0.056-0.067-0.085-0.122-0.089
			c0.126-0.004,0.217-0.006,0.271-0.006c-0.008-0.004-0.013-0.006-0.016-0.006c0.158-0.259,0.413-0.754,0.765-1.486
			c-0.271,0.484-0.497,0.787-0.683,0.91c-0.114,0.074-0.189,0.111-0.227,0.111c-0.06,0-0.123-0.051-0.189-0.15
			c-0.018-0.029-0.033-0.054-0.044-0.072c-0.03,0.025-0.05,0.043-0.062,0.05c-0.395,0.259-0.629,0.372-0.699,0.339
			c-0.018-0.016-0.045-0.035-0.082-0.062c-0.041-0.015-0.115-0.001-0.223,0.039c0.09-0.062,0.186-0.136,0.289-0.216
			c-0.127,0.044-0.194,0.068-0.205,0.072c-0.037-0.053-0.062-0.115-0.078-0.189c-0.012-0.066-0.012-0.129,0-0.188
			c0.195-0.077,0.426-0.323,0.688-0.737c0.008-0.012,0.016-0.022,0.022-0.033c-0.06,0.037-0.118,0.074-0.177,0.115
			c-0.378,0.244-0.674,0.382-0.889,0.41c-0.104,0.02-0.255,0-0.455-0.061c0.115-0.014,0.219-0.029,0.311-0.044
			c0.178-0.034,0.308-0.075,0.389-0.128c0.008-0.006,0.372-0.284,1.094-0.832l-0.006-0.006c-0.548,0.107-1.01,0.172-1.387,0.195
			c-0.24,0.106-0.405,0.176-0.494,0.205c0.004-0.022,0.017-0.061,0.039-0.117c0.025-0.047,0.037-0.076,0.033-0.083
			c-0.252-0.011-0.438-0.054-0.561-0.128v-0.072c-0.078-0.002-0.145-0.018-0.199-0.043c0.062-0.033,0.127-0.068,0.193-0.106v-0.05
			l0.062-0.039c0.007,0.016,0.017,0.028,0.028,0.039c0.174-0.104,0.34-0.213,0.498-0.326c-0.317,0.084-0.595,0.145-0.832,0.182
			c-0.011-0.033,0.01-0.084,0.062-0.154l0.082-0.1c0.145-0.041,0.434-0.169,0.865-0.384c0.026-0.011,0.057-0.022,0.09-0.032
			c-0.026-0.02-0.053-0.035-0.078-0.051c-0.203,0.093-0.381,0.161-0.533,0.205c-0.15,0.045-0.303,0.07-0.454,0.078
			c-0.052,0.025-0.099,0.045-0.139,0.055c-0.1,0.034-0.21,0.043-0.327,0.028c-0.16-0.022-0.3-0.026-0.422-0.011
			c0.055-0.074,0.168-0.165,0.338-0.272c0.016-0.007,0.03-0.015,0.045-0.022c-0.227,0.004-0.379-0.051-0.461-0.166
			c-0.025-0.041-0.048-0.072-0.066-0.094c-0.141,0.033-0.264,0.053-0.371,0.061c0-0.033,0.012-0.084,0.039-0.155l0.039-0.083
			l0.754-0.494c-0.026-0.012-0.058-0.023-0.095-0.039c0.063-0.081,0.132-0.158,0.205-0.232c-0.11-0.053-0.224-0.1-0.339-0.145
			c-0.15,0.066-0.334,0.148-0.549,0.244c-0.535,0.248-0.865,0.385-0.986,0.41c0.08-0.166,0.247-0.356,0.498-0.57
			c-0.158,0.033-0.299,0.042-0.421,0.027c-0.067-0.008-0.126-0.02-0.178-0.033c0.259-0.174,0.499-0.334,0.722-0.482
			c-0.115-0.053-0.235-0.104-0.361-0.156c-0.506,0.271-0.844,0.428-1.01,0.473c0.189-0.23,0.385-0.448,0.588-0.654
			c-0.121-0.053-0.247-0.106-0.377-0.162c-0.352,0.145-0.613,0.206-0.787,0.184c0.1-0.126,0.195-0.242,0.288-0.35
			c-0.181-0.021-0.36-0.045-0.538-0.066c-0.654,0.137-1.021,0.221-1.098,0.25c-0.227,0.066-0.455,0.133-0.688,0.199
			c-0.015-0.049,0.056-0.146,0.21-0.295l0.018,0.023c0.266-0.107,0.494-0.204,0.682-0.289c-0.307-0.033-0.599-0.068-0.876-0.105
			c-0.962,0.148-1.585,0.219-1.87,0.211c0.248-0.107,0.555-0.216,0.922-0.327c-0.133-0.019-0.26-0.034-0.377-0.05h-0.006
			c-0.725,0.096-1.306,0.157-1.742,0.183c0.093-0.044,0.405-0.139,0.938-0.282c-0.037-0.008-0.076-0.014-0.117-0.017
			c-0.21-0.03-0.415-0.06-0.615-0.089c-0.613,0.092-1.131,0.145-1.553,0.154c0.174-0.096,0.392-0.189,0.654-0.283
			c-1.135-0.169-2.221-0.343-3.256-0.521c-0.322-0.019-0.666-0.031-1.032-0.038c-1.131-0.041-2.032-0.062-2.701-0.062
			c0.004-0.036,0.039-0.084,0.105-0.144l0.095-0.077c0.044,0.011,0.081,0.015,0.11,0.011l0.039-0.017
			c-0.188-0.033-0.518-0.098-0.987-0.194c-0.237,0.052-0.422,0.102-0.555,0.15c-0.008-0.042,0.041-0.115,0.144-0.223
			c0.019-0.003,0.035-0.007,0.051-0.011c-0.407-0.1-0.781-0.217-1.121-0.35c-0.107-0.049-0.23-0.089-0.372-0.123
			c-0.203,0.039-0.419,0.08-0.648,0.129c-0.011-0.049,0.027-0.125,0.116-0.229c-0.214-0.029-0.455-0.047-0.721-0.055
			c-0.754-0.037-1.221-0.087-1.398-0.149c0-0.037,0.05-0.1,0.15-0.188c0.092-0.078,0.172-0.131,0.239-0.156l-0.017-0.005
			c-0.288,0.066-0.486,0.114-0.593,0.144c-0.015-0.044,0.017-0.109,0.094-0.193c-0.222-0.037-0.516-0.089-0.882-0.156
			c-0.303-0.055-0.562-0.111-0.777-0.166c-0.062,0.02-0.122,0.037-0.177,0.055l-0.022-0.071c0.011-0.011,0.024-0.019,0.039-0.021
			c-0.307-0.097-0.488-0.186-0.544-0.267c-0.063-0.085-0.085-0.131-0.066-0.139l0.039,0.017c0.255-0.093,0.547-0.116,0.876-0.072
			c0.048,0.007,0.089,0.013,0.123,0.017c-0.289-0.1-0.564-0.192-0.827-0.277c-0.277,0.004-0.626,0.008-1.048,0.011
			c0.056-0.103,0.118-0.197,0.189-0.282c-0.628-0.197-1.169-0.352-1.62-0.467c-0.389-0.104-0.805-0.205-1.249-0.305
			c-0.063-0.044-0.122-0.086-0.177-0.127c-0.555-0.403-0.985-0.729-1.292-0.977l0.017-0.012c-0.895-0.462-1.333-0.707-1.315-0.732
			c0.078-0.066,0.019-0.188-0.178-0.365c-1.013-0.352-1.625-1.178-1.836-2.479c-0.444-0.755-0.812-1.328-1.104-1.72
			c-0.917-0.714-1.598-1.223-2.041-1.525c-0.792-0.541-1.581-0.992-2.369-1.354c0.437,0.014,1.213,0.301,2.33,0.859
			c-0.236-0.192-0.547-0.438-0.932-0.738c-0.21-0.092-0.412-0.174-0.604-0.244c0-0.041,0.031-0.092,0.094-0.154
			c-0.251-0.145-0.482-0.281-0.693-0.411c-0.14-0.067-0.268-0.127-0.383-0.184c-0.669-0.336-1.183-0.693-1.542-1.07l-0.066-0.139
			l0.061-0.039c0.1,0.074,0.418,0.233,0.954,0.477c-0.026-0.022-0.052-0.044-0.078-0.066c-0.47-0.271-0.845-0.548-1.126-0.833
			c0.092,0.026,0.192,0.056,0.299,0.089c-0.122-0.122-0.207-0.216-0.255-0.283c-0.06-0.085-0.109-0.178-0.15-0.277
			c-0.056-0.033-0.117-0.068-0.183-0.105c0.029,0.007,0.062,0.016,0.1,0.027c-0.506-0.27-0.825-0.498-0.954-0.682
			c-0.059-0.089-0.089-0.135-0.089-0.139c0.015,0,0.021-0.015,0.017-0.044c0.336,0.148,0.875,0.368,1.614,0.66
			c-0.074-0.078-0.146-0.155-0.216-0.233c-0.063-0.029-0.126-0.057-0.188-0.083l0.044-0.077c-0.048-0.056-0.098-0.113-0.15-0.172
			c-0.007-0.003-0.018-0.01-0.033-0.016l0.005-0.012c-0.1-0.114-0.198-0.229-0.294-0.344c-0.806-0.41-1.418-0.774-1.836-1.092
			c0.451,0.163,0.919,0.344,1.403,0.543c-0.041-0.055-0.08-0.107-0.117-0.156c-0.055-0.025-0.112-0.05-0.171-0.071l0.061-0.073
			c-0.055-0.078-0.113-0.157-0.171-0.238c-1.398-0.636-2.203-1.107-2.413-1.415c-0.063-0.089-0.091-0.142-0.083-0.16l0.033,0.005
			c0.392,0.141,0.815,0.301,1.271,0.482c0.181,0.06,0.384,0.142,0.61,0.25c0.06,0.022,0.118,0.046,0.178,0.072
			c-0.041-0.063-0.081-0.122-0.122-0.178c-0.007-0.011-0.015-0.024-0.022-0.039c-0.1-0.03-0.179-0.058-0.239-0.083
			c0.048-0.015,0.102-0.026,0.161-0.033c-0.011-0.019-0.022-0.037-0.034-0.056c-0.096-0.078-0.198-0.159-0.305-0.244
			c-0.033-0.026-0.069-0.054-0.105-0.083c-0.026-0.019-0.054-0.036-0.083-0.051c-0.518-0.288-1.08-0.634-1.687-1.037
			c-0.007,0.015-0.014,0.024-0.022,0.027l-0.044-0.061c0.008,0.003,0.013,0.003,0.017,0c-0.159-0.107-0.316-0.216-0.471-0.327
			c0.022,0.011,0.046,0.018,0.072,0.022l-0.005-0.005c-0.089-0.13-0.175-0.287-0.261-0.471l0.061-0.045
			c0.111,0.163,0.418,0.366,0.921,0.61c-0.115-0.111-0.218-0.22-0.311-0.327c-0.03,0-0.056-0.002-0.078-0.006l-0.022-0.072
			c-0.022-0.003-0.033-0.011-0.033-0.021c-0.003-0.012,0.002-0.022,0.017-0.034c-0.125-0.147-0.231-0.283-0.316-0.405
			c-0.111-0.163-0.181-0.34-0.211-0.533c-0.536-0.226-0.997-0.43-1.381-0.615c0.381,0.089,0.804,0.205,1.271,0.35
			c0.055,0.015,0.112,0.031,0.172,0.05c0.007-0.008,0.015-0.009,0.022-0.005c0.004,0.003,0.006,0.007,0.006,0.011l0.005-0.005
			c-0.274-0.271-0.47-0.494-0.588-0.671c-0.066-0.097-0.133-0.202-0.2-0.317c-0.052-0.033-0.102-0.068-0.15-0.105
			c-0.203-0.085-0.316-0.144-0.338-0.178c-0.041-0.059-0.061-0.104-0.061-0.133c-0.111-0.044-0.215-0.083-0.311-0.116
			c0.111,0.011,0.237,0.031,0.377,0.061l0.006-0.005l0.061-0.039c0.026,0.034,0.055,0.063,0.088,0.089
			c0.033,0.004,0.069,0.011,0.106,0.022c-0.034-0.07-0.069-0.144-0.106-0.222l0.05-0.033c-0.051-0.015-0.079-0.022-0.083-0.022
			c-0.133-0.041-0.226-0.1-0.277-0.177c-0.007-0.011-0.007-0.041,0-0.089c0.022-0.096,0.041-0.193,0.055-0.288
			c0.042-0.026,0.121-0.03,0.239-0.012c-0.222-0.092-0.441-0.168-0.66-0.227c-0.044,0.107-0.078,0.188-0.1,0.244l-0.155,0.022
			l-0.05-0.105c0.029-0.078,0.058-0.152,0.083-0.222c-0.188-0.048-0.375-0.091-0.56-0.127l-0.028-0.083
			c-0.122-0.033-0.185-0.054-0.189-0.061c-0.066-0.096-0.094-0.165-0.083-0.206c0.004-0.019,0.046-0.072,0.127-0.161
			c0.163-0.066,0.415-0.148,0.755-0.244c-0.67-0.104-1.16-0.185-1.47-0.245c0.384-0.022,0.791-0.022,1.22,0
			c-0.063-0.033-0.115-0.079-0.155-0.139c-0.048-0.059-0.107-0.157-0.177-0.293c-0.074-0.119-0.17-0.196-0.289-0.233
			c0-0.056,0.03-0.127,0.089-0.216c0.066-0.107,0.172-0.215,0.316-0.322l-0.122-0.011c-0.063-0.044-0.177-0.104-0.344-0.178
			c-0.148-0.082-0.242-0.192-0.283-0.333c-0.13,0.062-0.247,0.075-0.35,0.039c-0.092,0.266-0.153,0.41-0.183,0.432
			c-0.089,0.055-0.15,0.078-0.183,0.067c-0.015-0.004-0.022-0.015-0.022-0.034l-0.005-0.028c-0.037,0.019-0.063,0.025-0.078,0.022
			c-0.007-0.003-0.007-0.013,0-0.028l-0.044-0.067c0.03-0.114,0.145-0.384,0.344-0.81c-0.011-0.007-0.022-0.015-0.033-0.022
			c-0.17,0.167-0.368,0.323-0.594,0.471c-0.008,0.003-0.015,0.008-0.022,0.011c-0.078,0.045-0.135,0.056-0.172,0.034
			c-0.026-0.012-0.041-0.026-0.044-0.045v-0.094c0.052-0.066,0.104-0.129,0.155-0.188c0.011-0.078,0.026-0.159,0.044-0.244
			c-0.019-0.008-0.044-0.036-0.077-0.083c-0.078,0.029-0.13,0.024-0.156-0.017c-0.007-0.029,0.007-0.162,0.044-0.399
			c-0.015-0.151-0.019-0.338-0.011-0.561c-0.085-0.036-0.165-0.075-0.238-0.116c0.026,0.107,0.044,0.194,0.056,0.261
			c0.062,0.406,0.037,0.728-0.078,0.965l-0.089-0.034c0.026-0.358-0.011-0.75-0.111-1.176c-0.011-0.04-0.024-0.089-0.039-0.144
			c-0.873-0.421-1.375-0.673-1.509-0.754c-0.196-0.118-0.37-0.235-0.521-0.35c-0.263-0.088-0.59-0.222-0.982-0.399
			c-0.492-0.569-0.779-0.873-0.86-0.909c-0.167-0.063-0.386-0.143-0.66-0.239c-0.188-0.07-0.405-0.146-0.649-0.228
			c-0.141-0.048-0.285-0.111-0.433-0.188c-0.126-0.052-0.253-0.115-0.383-0.188c-0.011-0.007-0.024-0.017-0.039-0.028
			c-0.015-0.007-0.027-0.013-0.039-0.017c-0.115-0.037-0.204-0.078-0.267-0.122c-0.044-0.026-0.083-0.062-0.116-0.106
			c-0.055,0.007-0.147,0.01-0.277,0.006c-0.2,0-0.344-0.012-0.433-0.034c-0.022-0.003-0.061-0.015-0.117-0.033
			c-0.055-0.019-0.131-0.046-0.228-0.083c-0.181-0.059-0.284-0.082-0.311-0.066c-0.029,0.007-0.07,0.036-0.122,0.088
			c-0.055,0.07-0.096,0.111-0.122,0.122c-0.019,0.004-0.142,0.03-0.372,0.078c-0.255-0.078-0.433-0.423-0.533-1.037
			c-0.055-0.348-0.018-0.581,0.111-0.699c0.026-0.104,0.073-0.198,0.139-0.283c0.019-0.026,0.037-0.045,0.055-0.056
			c0.085-0.019,0.184-0.013,0.294,0.017c0.07,0.004,0.292,0.066,0.666,0.188c0.344,0.133,0.52,0.202,0.527,0.206
			c0.044,0.003,0.083,0.015,0.117,0.033c0.181,0.06,0.386,0.141,0.616,0.245c0.066,0.033,0.137,0.067,0.21,0.1
			c0.078,0.03,0.155,0.063,0.233,0.1c0.026,0.004,0.052,0.013,0.078,0.028c0.055,0.022,0.113,0.039,0.172,0.05
			c0.133,0.004,0.279,0.011,0.438,0.023c0.299,0.015,0.543,0.057,0.732,0.127c0.236,0.089,0.438,0.171,0.604,0.249
			c0.355-0.151,0.551-0.242,0.588-0.271c-0.011-0.025-0.071-0.102-0.178-0.228c-0.03-0.048-0.059-0.094-0.089-0.139
			c-0.015-0.021-0.024-0.037-0.028-0.045c-0.462-0.151-0.78-0.273-0.954-0.365c-0.218-0.119-0.571-0.355-1.06-0.71
			c-0.015-0.019-0.347-0.3-0.999-0.844c-0.011-0.003-0.017-0.007-0.017-0.011c-0.229-0.062-0.377-0.113-0.443-0.149
			c-0.019-0.007-0.037-0.016-0.056-0.028c-0.074-0.033-0.145-0.062-0.211-0.089c-0.104-0.033-0.218-0.088-0.344-0.167
			c-0.033-0.015-0.066-0.033-0.1-0.055c-0.255-0.163-0.543-0.397-0.865-0.705c-0.141-0.129-0.292-0.277-0.455-0.444
			c-0.03-0.041-0.061-0.08-0.094-0.116c-0.085-0.089-0.202-0.213-0.35-0.372c-0.059-0.03-0.12-0.061-0.183-0.094
			c-0.211-0.1-0.396-0.17-0.555-0.21c-0.041-0.008-0.082-0.019-0.122-0.033c-0.433-0.097-0.675-0.152-0.727-0.167
			c-0.011-0.012-0.019-0.015-0.022-0.012c-0.348-0.147-0.564-0.362-0.649-0.643c-0.133-0.403,0.074-0.598,0.621-0.583
			c0.267,0.015,0.474,0.046,0.622,0.094c0.048,0.026,0.257,0.123,0.626,0.289c0.044,0.018,0.091,0.038,0.139,0.061
			c0.096,0.044,0.19,0.085,0.283,0.122c0.019,0.004,0.033,0.004,0.044,0c0.059-0.004,0.117-0.006,0.172-0.006
			c0.037-0.003,0.074,0.004,0.111,0.022c0.148,0.011,0.298,0.056,0.449,0.133c0.126,0.018,0.215,0.039,0.266,0.062
			c0.089,0.011,0.168,0.029,0.239,0.055c0.211,0.129,0.389,0.246,0.533,0.35c0.167,0.1,0.362,0.222,0.588,0.366
			c0.007,0.004,0.019,0.004,0.033,0c0.152,0.066,0.289,0.114,0.411,0.144c0.104,0.037,0.202,0.074,0.294,0.111
			c0.152,0.056,0.336,0.216,0.555,0.482c0.048,0.052,0.094,0.106,0.139,0.161c0.003,0.015,0.009,0.028,0.017,0.039
			c0.004,0,0.017,0,0.039,0c0.263,0.193,0.512,0.37,0.749,0.532c0.037-0.003,0.077,0.006,0.122,0.028
			c0.64,0.343,1.043,0.547,1.209,0.61c0.052,0.022,0.202,0.028,0.45,0.017c0.222,0,0.354-0.011,0.394-0.033
			c-0.129-0.181-0.486-0.571-1.071-1.171c-0.377-0.295-0.853-0.691-1.426-1.187c-0.295-0.259-0.592-0.518-0.887-0.777
			c-0.389-0.185-0.775-0.375-1.159-0.571c-0.063-0.015-0.13-0.032-0.2-0.05c-0.078-0.026-0.163-0.056-0.255-0.089
			c-0.144-0.059-0.283-0.121-0.416-0.183c-0.145-0.059-0.285-0.125-0.422-0.199c-0.015-0.012-0.039-0.022-0.072-0.034
			c-0.067-0.041-0.137-0.078-0.211-0.111c-0.296-0.167-0.575-0.341-0.837-0.527c-0.307-0.052-0.77-0.126-1.387-0.222
			c-0.37-0.115-0.655-0.29-0.854-0.527c-0.118-0.151-0.2-0.327-0.244-0.526c-0.015-0.052-0.031-0.109-0.05-0.172
			c-0.011-0.074-0.007-0.143,0.011-0.206c0.019-0.141,0.113-0.235,0.283-0.283c0.06-0.022,0.241-0.041,0.544-0.056
			c0.196-0.007,0.686,0.108,1.47,0.344c0.33,0.097,0.71,0.22,1.143,0.372c0.163,0.07,0.329,0.144,0.5,0.222
			c0.95,0.437,1.671,0.766,2.163,0.987c0.082,0.048,0.157,0.085,0.228,0.111c0.351,0.162,0.543,0.253,0.577,0.271
			c0.237,0.081,0.506,0.196,0.81,0.344c0.189,0.163,0.396,0.344,0.622,0.544c0.521,0.503,0.904,0.867,1.148,1.092
			c0.167,0.156,0.381,0.322,0.644,0.5c0.281,0.196,0.479,0.347,0.594,0.455c0.151-0.041,0.277-0.188,0.377-0.444
			c0.022-0.063,0.046-0.119,0.072-0.167c-0.019-0.015-0.037-0.035-0.056-0.062c-0.015-0.011-0.033-0.015-0.056-0.011
			c-0.203-0.07-0.636-0.563-1.298-1.481c-0.388-0.533-0.684-0.965-0.887-1.298c-0.104-0.174-0.182-0.318-0.233-0.433
			c-0.022-0.034-0.042-0.067-0.061-0.1c-0.144-0.148-0.37-0.306-0.676-0.472c-0.407-0.203-0.693-0.383-0.86-0.539
			c-0.015-0.014-0.037-0.035-0.067-0.061c-0.119-0.107-0.385-0.306-0.799-0.594c-0.233-0.185-0.414-0.337-0.543-0.455
			c-0.141-0.048-0.3-0.113-0.477-0.195c-0.551-0.207-0.839-0.501-0.865-0.881c0.007-0.089,0.048-0.15,0.122-0.184
			c0.063-0.052,0.146-0.072,0.25-0.061c0.277,0.059,0.534,0.125,0.771,0.2c0.155,0.052,0.301,0.107,0.438,0.166
			c0.474,0.226,0.927,0.431,1.359,0.616c0.314,0.122,0.749,0.383,1.303,0.782c0.651,0.437,1.067,0.714,1.248,0.833
			c0.015,0.015,0.026,0.025,0.034,0.033c0.118,0.115,0.255,0.251,0.411,0.411c0.166,0.185,0.358,0.405,0.577,0.66
			c0.555,0.644,0.878,1.014,0.971,1.11c0.403,0.595,0.73,1.131,0.981,1.608c0.188,0.085,0.331,0.155,0.427,0.211
			c0.27,0.144,0.482,0.353,0.638,0.626c0.07,0.126,0.122,0.231,0.155,0.316c0.407,0.321,0.847,0.841,1.32,1.559
			c0.078,0.126,0.154,0.243,0.228,0.35c0.488,0.728,0.83,1.148,1.026,1.26l0.482,0.704c0.015,0.007,0.031,0.012,0.05,0.012
			c0.067,0.015,0.176-0.021,0.328-0.106c0.041-0.025,0.088-0.05,0.144-0.072c0.037-0.233,0.002-0.512-0.105-0.837
			c0.007-0.093,0.009-0.189,0.006-0.289c-0.026-0.547-0.105-0.906-0.239-1.076c-0.033-0.034-0.168-0.213-0.405-0.538
			c-0.167-0.459-0.076-1.04,0.271-1.742c0.119-0.267,0.271-0.359,0.455-0.278C75.959,16.013,76.281,16.425,76.566,17.117
			L76.566,17.117z"/>
	</g>
	<g id="Layer_3_2_">
		<path id="path20_1_" fill="#010101" d="M104.208,161.767c-0.373,0.414-0.608,0.644-0.704,0.688
			c-0.304,0.159-0.536,0.392-0.699,0.699c-0.267,0.5-0.409,0.751-0.428,0.755c-0.073,0.107-0.313,0.385-0.721,0.832
			c-0.362,0.385-0.557,0.604-0.582,0.66c0.004,0.004-0.012,0.124-0.045,0.36c-0.041,0.248-0.074,0.396-0.1,0.444
			c-0.007,0.003-0.109,0.181-0.305,0.531c-0.307,0.277-0.697,0.301-1.171,0.066c-0.695-0.324-0.954-0.689-0.776-1.092
			c0.163-0.344,0.377-0.68,0.644-1.004c0.259-0.338,0.388-0.516,0.388-0.539c0.411-0.887,0.784-1.508,1.121-1.863
			c0.336-0.373,0.613-0.779,0.827-1.221c0.056-0.307,0.102-0.494,0.139-0.56c0.137-0.282,0.285-0.49,0.443-0.628
			c0.281-0.195,1.101-1.615,2.458-4.26c2.503,2.142,2.707,3.816,0.61,5.026l0.017,0.083
			C104.835,161.156,104.464,161.497,104.208,161.767L104.208,161.767z"/>
	</g>
	<g id="Layer_8">
		<path id="path23_2_" fill="#010101" d="M92.703,126.669c-0.296-0.181-0.507-0.378-0.632-0.593
			c-0.326-0.618-0.198-0.986,0.382-1.104c0.584-0.122,1.146-0.218,1.687-0.288c0.529-0.066,0.808-0.105,0.837-0.117
			c0.433-0.162,0.829-0.293,1.188-0.394c0.27-0.1,0.514-0.176,0.732-0.228c0.1-0.018,0.198-0.035,0.294-0.051
			c0.499-0.025,0.941-0.129,1.326-0.31c0.037-0.026,0.07-0.049,0.1-0.067l0.51-0.166c0.273-0.096,0.745-0.402,1.415-0.92
			c0.059-0.067,0.131-0.137,0.216-0.211c0.352-0.488,0.766-1.1,1.243-1.832c2.708,2.749,2.942,4.404,0.705,4.965l0.011,0.096
			c-0.528,0.259-0.923,0.488-1.182,0.688c0-0.004-0.002-0.004-0.006,0c-0.069,0.033-0.142,0.072-0.216,0.116
			c-0.393,0.106-0.642,0.161-0.75,0.161c-0.325-0.016-0.586,0.027-0.782,0.127c-0.107,0.008-0.213,0.026-0.316,0.057
			c-0.118,0.029-0.318,0.09-0.599,0.183c-0.325-0.03-0.646-0.035-0.959-0.017c-0.355,0.012-0.646,0.047-0.871,0.105
			c-0.033-0.015-0.063-0.029-0.088-0.045c-0.093-0.033-0.176-0.055-0.25-0.066c-0.252-0.041-0.442-0.002-0.572,0.117
			c-0.003,0.003-0.003,0.01,0,0.021c-0.159-0.049-0.355-0.066-0.588-0.056c-0.352-0.004-0.81-0.021-1.375-0.056
			c-0.836-0.074-1.292-0.111-1.371-0.111C92.751,126.667,92.721,126.666,92.703,126.669L92.703,126.669z"/>
	</g>
</g>
</svg>
