<?xml version="1.0" encoding="utf-8"?>
<!-- Generator: Adobe Illustrator 15.0.0, SVG Export Plug-In . SVG Version: 6.00 Build 0)  -->
<svg version="1.2" baseProfile="tiny" id="Layer_1" xmlns="http://www.w3.org/2000/svg" xmlns:xlink="http://www.w3.org/1999/xlink"
	 x="0px" y="0px" width="200px" height="200px" viewBox="0 0 200 200" overflow="inherit" xml:space="preserve">
<path fill-rule="evenodd" d="M72.979,97.564c0.473-0.092,0.587-1.047,1.004-1.386c-0.009-0.454,0.232-0.657,0.43-0.907
	c0.018-0.177-0.194-0.125-0.143-0.334c0.295,0.189,0.291-0.414,0.094-0.478c0.611-1.543,1.105-3.065,2.388-4.011
	c-0.036-0.705,0.527-0.81,0.717-1.289c0.224-0.11,0.375-0.294,0.621-0.383c-0.008-0.067-0.045-0.248,0-0.477
	c1.742-0.789,3.805-1.256,5.587-2.006c-0.109-0.137-0.28,0.067-0.479,0c0.481-0.348,1.366-0.289,1.958-0.525
	c-0.005-0.105-0.202-0.02-0.286-0.047c0.353-0.523,1.341-0.41,1.72-0.908c1.056-0.344,1.959-0.841,2.672-1.527
	c-0.234-0.606-0.238-1.188-0.476-1.862c-0.038-0.048-0.167,0.019-0.24-0.096c0.125-0.302-0.192-0.354-0.095-0.765
	c-0.268-0.24-0.494-0.523-0.812-0.715c-0.178-0.467-0.784-1.024-0.334-1.671c-0.404-1.07-0.667-2.94-0.047-3.963
	c0.533-0.367,1.277-0.958,2.053-0.526c0.724-0.772,1.4-1.593,2.387-2.101c0.015-0.126-0.267,0.045-0.19-0.143
	c0.476-0.098,0.772-0.374,1.241-0.478c-0.135-0.147-0.33,0.05-0.525,0c0.465-0.283,1.041-0.455,1.671-0.573
	c-0.001-0.174-0.249-0.102-0.191-0.334c0.318,0.031,0.362-0.211,0.478-0.382c0.555,0.059,0.955-0.009,1.432,0.143
	c0.069-0.181-0.131-0.092-0.096-0.239c0.292-0.042,0.458-0.032,0.717,0.048c-0.039-0.248,0.23-0.248,0.238-0.43
	c0.178-0.126,0.39,0.167,0.573,0.047c0.075-0.202-0.265,0.011-0.191-0.191c0.492-0.026,0.644,0.527,0.955,0.525
	c0.195,0.015-0.008-0.066,0.049-0.191c0.125,0.081,0.314,0.1,0.381,0.239c-0.042,0.129-0.167-0.049-0.238-0.048
	c0.026,0.182,0.204,0.21,0.382,0.239c0.134-0.199,0.276-0.391,0.239-0.764c0.246,0.151,0.182,0.613,0.429,0.764
	c0.202-0.325,0.521,0.326,0.62-0.048c0.144,0.107,0.003,0.221,0.096,0.334c0.265-0.069,0.373-0.295,0.573-0.43
	c0.154,0.132,0.072,0.332-0.048,0.43c0.492,0.11,1.108-0.249,1.481-0.143c0.014,0.172-0.324-0.005-0.239,0.238
	c0.511,0.015,0.807,0.197,1.337,0.287c0.096,0.097-0.021,0.093-0.047,0.19c0.285,0.048,0.692-0.024,0.859,0.144
	c0.045,0.173-0.207,0.048-0.24,0.143c0.147,0.188,0.562,0.107,0.621,0.382c-0.208,0.033-0.269-0.082-0.477-0.048
	c1.08,0.384,2.052,0.877,2.961,1.432c0.062,0.206-0.137,0.151-0.192,0.239c0.018,0.158,0.144,0.208,0.24,0.287
	c1.217-0.567,2.674,0.005,2.77,1.289c0.089,1.205-0.412,2.286-0.766,3.199c0.117,0.642,0.199,1.381-0.096,1.719
	c-0.117,0.006-0.229,0.008-0.285-0.047c0.218,0.201,0.113,0.842,0.43,1.098c-0.184,0.068-0.4-0.191-0.574-0.286
	c-0.41,0.69,0.578,1.199,0.334,2.005c-0.04,0.037-0.106,0.051-0.189,0.048c-0.029,0.161,0.061,0.443-0.048,0.525
	c0.048,0.144-0.106,0.085-0.19,0.096c-0.085,0.065,0.117,0.246,0,0.382c-0.105,0.008-0.152-0.039-0.145-0.143
	c0.006,0.244-0.219,0.258-0.238,0.477c1.117,1.4,3.339,1.738,5.396,2.292c0.629,0.169,1.314,0.292,1.813,0.669
	c0.469,0.104,1.063,0.082,1.29,0.43c0.443,0.057,0.945,0.23,1.002,0.524c0.347,0.036,0.5,0.265,0.908,0.239
	c0.056,0.286,0.559,0.297,0.477,0.572c0.578,0.298,1.247,0.504,1.718,0.908c0.021,0.1-0.03,0.126-0.048,0.19
	c0.438,0.108,0.552,0.501,0.812,0.812c0.529,0.631,1.377,1.117,1.576,2.148c-0.273,0.051-0.279-0.166-0.478-0.19
	c0.188,0.37,0.614,0.914,0.858,1.384c-0.186,0.248-0.018,0.721,0.145,0.908c-0.119,0.244-0.027,0.355,0.096,0.572
	c-0.015,0.098-0.096,0.128-0.144,0.191c0.331,0.422,0.144,0.967,0.286,1.385c0.21,0.612,1.104,1.338,1.241,2.148
	c-0.299-0.193-0.333-0.652-0.667-0.812c0.24,0.524,0.73,1.049,0.811,1.576c-0.153,0.042-0.064-0.157-0.191-0.144
	c0.213,0.617,0.632,1.276,0.621,1.958c0.841,1.28,0.768,3.032,1.48,4.44c-0.251-0.13-0.243-0.521-0.382-0.764
	c-0.158,0.393,0.464,1.008,0.334,1.528c-0.11,0.015-0.054-0.14-0.143-0.145c0.187,0.985,0.547,2.108,0.381,3.151
	c-0.085,0.006-0.101-0.059-0.19-0.047c0.089,0.166,0.1,0.408,0.239,0.525c0.087-0.046-0.075-0.241-0.049-0.383
	c0.266,0.375,0.335,0.877,0.191,1.338c0.171,0.779,0.241,1.373,0.334,2.196c0.79,0.687,1.222,1.815,1.911,2.722
	c-0.173,0.393,0.267,0.793,0.333,1.24c-0.011,0.196-0.161,0.252-0.19,0.43c0.285,0.988,0.727,1.82,0.859,2.961
	c0.022,0.206-0.129,0.062-0.144,0.145c0.179,0.998,0.556,1.799,0.573,2.959c-0.078-0.098-0.072-0.277-0.191-0.334
	c-0.009,0.248,0.016,0.715,0.191,0.621c0.174,0.709,0.594,1.479,0.43,2.578c0.371,0.621,0.799,1.257,0.668,2.244
	c-0.118-0.072-0.061-0.322-0.143-0.43c-0.077,0.617,0.34,1.156,0.334,1.861c-0.219-0.051-0.104-0.436-0.238-0.572
	c0.008,0.602,0.15,1.102,0.286,1.672c0.135,0.566,0.526,0.914,0.716,1.432c0.268,0.729,0.213,1.605,0.573,2.244
	c0.022,0.102-0.068,0.092-0.144,0.096c0.594,1.315,1.101,2.704,1.862,3.867c0.728,1.112,0.794,2.66,1.671,3.772
	c0.332,1.029-0.394,1.663-0.572,2.483c0.063,0.233,0.184,0.629,0.095,0.859c-0.149-0.072-0.097-0.348-0.144-0.525
	c-0.16,0.66,0.112,1.361-0.047,1.861c0.007,0.81,0.627,1.562,0.478,2.627c-0.117,0.829-0.366,1.338-0.287,2.291
	c0.113,1.342,0.542,3.178-0.524,3.773c-0.433,0.019-0.711,0.427-1.193,0.238c-0.059,0.49,0.205,1.333-0.191,1.623
	c0.343,1.414,0.228,3.284,0.096,4.822c0.021,0.123,0.066,0.221,0.143,0.287c-0.01,0.15-0.261,0.309-0.143,0.43
	c-0.182,0.045-0.525,0.036-0.717,0.191c-0.315-0.083-0.319-0.476-0.621-0.573c-0.152-0.929-0.895-1.27-0.811-2.435
	c-0.002-0.144-0.124-0.163-0.143-0.287c0.15-0.494-0.074-0.891-0.145-1.289c-0.254-1.437,0.219-3.033-0.143-4.537
	c-0.232,0.605-0.105,1.33-0.24,2.006c-0.06,0.303-0.164,0.51-0.19,1.003c-0.063,1.218-0.231,2.513-0.431,3.772
	c-0.036,0.237,0.014,0.485-0.046,0.717c-0.112,0.432-0.392,0.761-0.431,1.193c-0.438-0.084-0.543-0.274-1.05-0.334
	c-0.413-0.64-0.46-1.57-0.382-2.818c0.074-1.2-0.061-2.229,0.047-3.438c0.079-0.869,0.122-2.033,0.19-3.056
	c-0.169,0.116-0.202,0.37-0.286,0.573c-0.768,0.568-0.672,2.001-1.241,2.77c0.015,0.761-0.693,0.803-0.906,1.336
	c-0.368-0.025-0.66-0.014-0.956-0.189c-0.058-2.143,0.623-4.07,1.193-5.826c0.116-0.354,0.543-0.948,0.239-1.193
	c0.054-0.105,0.159-0.158,0.19-0.287c-0.125-0.609-0.211-1.447-0.381-1.862c0.129-0.878,0.649-1.846,0.764-2.864
	c0.074-0.664-0.096-1.338-0.096-2.102c0-1.35,0.281-2.77-0.048-4.011c0.022-0.149-0.128-0.126-0.144-0.238c0-0.111,0-0.224,0-0.335
	c-0.161-0.331-0.357-0.629-0.381-1.098c-0.263-0.096-0.193-0.408-0.239-0.62c-0.056-0.088-0.041,0.109-0.191,0
	c-0.06-0.29-0.178-0.522-0.286-0.765c-0.026-0.105,0.092-0.068,0.096-0.143c-0.275-1.111-0.75-2.021-0.955-3.199
	c-0.205,0.006,0.08,0.203-0.144,0.189c-0.101-0.504-0.163-1.045-0.382-1.432c-0.14,0.041,0.062,0.12,0,0.238
	c-0.231-0.834-0.706-1.426-1.002-2.195c-0.398-0.111-0.246-0.773-0.621-0.908c0.144,0.025,0.072-0.196,0-0.334
	c-0.141,0.041,0.062,0.121,0,0.239c-0.275-0.187-0.584-0.34-0.621-0.765c-0.02-0.107-0.254-0.001-0.286-0.095
	c-0.012-0.657-0.388-0.95-0.479-1.528c-0.12,0.32,0.269,0.773,0.191,1.051c-0.29-0.147-0.224-0.509-0.334-0.764
	c-0.133-0.307-0.435-0.567-0.478-0.908c-0.078-0.128-0.202-0.211-0.285-0.334c0.011-0.172-0.09-0.23-0.098-0.382
	c-0.82-1.565-2.01-2.765-2.578-4.584c-0.374-1.208-0.539-2.467-0.572-3.868c-0.02-0.819,0.104-1.633,0.096-2.434
	c-0.002-0.23-0.019-0.584-0.096-0.812c-0.061-0.182-0.266-0.311-0.334-0.478c-0.157-0.382-0.222-0.828-0.383-1.241
	c-0.225-0.578-0.391-1.061-0.621-1.672c-0.059,0.012-0.048,0.096,0,0.096c-0.299-0.178-0.482-0.885-0.572-1.432
	c0.008-0.104-0.17-0.022-0.238-0.049c-0.02-1.266-0.842-2.067-1.051-3.295c-0.187,0.048,0.068,0.24-0.143,0.239
	c0.033-0.177-0.081-0.205-0.049-0.382c-0.159,0.029-0.163,0.141-0.334,0.049c-0.084,0.145-0.177,0.694,0,0.667
	c-0.471,0.924,0.436,2.162-0.238,2.961c-0.041,0.888,0.496,1.474,0.381,2.244c-0.045,0.313-0.336,0.614-0.381,1.003
	c-0.047,0.4,0.09,0.72,0.049,1.193c0.021,0.102-0.07,0.091-0.145,0.096c0.046,1.009-0.283,1.816-0.19,2.722
	c-0.138-0.007-0.088-0.199-0.096-0.335c0.012,1.51-0.424,2.569-0.573,3.916c-0.254,0.014-0.102-0.375-0.144-0.573
	c-0.149,0.505-0.042,0.734-0.095,1.337c-0.115-0.043-0.127-0.191-0.144-0.334c-0.136-0.008,0.058,0.312-0.144,0.238
	c0.379,1.035,0.566,2.169,0.573,3.248c-0.151-0.137-0.167-0.407-0.191-0.669c-0.115,0.714,0.201,1.729-0.238,2.388
	c-0.135,0.008,0.039-0.295-0.096-0.287c0.097,0.697-0.184,1.762,0.047,2.436c0.166,0.479,0.624,0.5,0.86,0.812
	c-0.177,0.331,0.146,0.955-0.144,1.099c0.13,1.266,0.72,2.128,1.29,3.199c1.123,2.113,2.16,4.282,3.055,6.637
	c0.189,0.496,0.518,0.938,0.717,1.432c0.246,0.608,0.399,1.312,0.621,2.006c0.646,2.034,1.283,4.232,1.479,6.685
	c0.009,0.1,0.048,0.198,0.048,0.286c0.008,1.144-0.215,2.404-0.048,3.438c-0.103,0.347-0.173,1.017,0.048,1.337
	c-0.161,3.23,0.018,7.154-1.288,9.789c-0.086-0.036-0.008-0.088,0-0.144c-0.552-0.091-0.316,1.225-0.669,1.29
	c-0.232,0.041-0.209,0.763-0.621,0.858c-0.002,0.65-0.42,0.886-0.621,1.337c-0.127-0.13,0.013-0.399,0.048-0.525
	c-0.416,0.363-0.295,1.266-0.812,1.528c-0.266,0.483-0.305,1.191-0.764,1.479c-0.109,0.448-0.222,0.893-0.621,1.051
	c-0.007,0.217-0.117,0.328-0.143,0.525c-0.119-0.006-0.23-0.007-0.287,0.048c-0.139,0.46,0.005,1.425-0.43,1.433
	c0.251,1.42,1.576,1.758,2.961,2.053c0.254,0.055,0.65,0.041,1.002,0c0.526-0.062,1.136-0.406,1.576-0.047
	c-0.22,0.098-0.624,0.012-0.812,0.143c0.671,0.095,1.594,0.204,2.436,0.286c0.004,0.3-0.325,0.003-0.429,0.144
	c1.254,0.318,2.365,1.061,3.819,1.193c0.312,0.029,0.635-0.057,0.955,0c0.264,0.047,0.586,0.279,0.906,0.43
	c0.869,0.407,2.008,0.737,2.578,1.385c-0.105,0.236-0.289,0.141-0.19,0.525c-0.077,0.082-0.2,0.119-0.382,0.096
	c0.018,0.346,0.151,0.932-0.191,1.289c-0.184,0.054-0.22,0.113-0.43,0.049c0.117,0.553-0.135,0.918-0.478,1.145
	c-0.641-0.059-1.107-0.292-1.528-0.572c-0.309,0.12-0.529,0.077-0.859,0c0.127,0.239,0.395,0.338,0.336,0.764
	c-0.088,0.104-0.296,0.087-0.383,0.19c-0.028,0.179,0.122,0.303,0,0.431c-1.106,0.373-1.583-0.512-2.196-0.859
	c-0.417-0.238-0.923-0.256-1.146-0.717c-0.825,0.008-1.9-0.134-2.436-0.572c-0.681,0.177-0.959-0.159-1.719-0.383
	c-0.471-0.139-1.056-0.164-1.337-0.286c-0.202-0.087-0.837-0.484-1.003,0.048c-0.108-0.035-0.244-0.043-0.334-0.096
	c0.609,0.631,1.678,1.219,2.053,2.244c0.107,0.822-0.629,0.803-1.002,1.146c-1.002-0.215-1.797-0.922-2.627-1.289
	c-0.136-0.061-0.265-0.019-0.382-0.096c-0.172-0.114-0.233-0.344-0.382-0.478c-0.652-0.588-1.551-0.951-2.148-1.575
	c-0.764-0.141-1.355-0.387-1.815-0.717c-0.009,0.248,0.358,0.32,0.239,0.525c-0.271-0.144-0.387-0.441-0.621-0.621
	c-0.068-0.004-0.135-0.008-0.143,0.048c-0.931-0.636-2.043-1.525-1.671-3.151c0.038-0.166-0.054-0.201-0.097-0.287
	c0.035-0.154,0.087-0.295,0.145-0.429c-0.16-1.055,0.241-2.386,0.19-3.581c0.069-0.074,0.159-0.129,0.19-0.239
	c-0.152-1.014-0.123-2.157-0.096-3.295c0.031-1.247-0.084-2.483,0-3.677c-0.358-0.771,0.193-1.749-0.19-2.482
	c0.076-0.386,0.132-0.79,0.144-1.242c0.041-0.152-0.123-0.099-0.144-0.189c-0.073-0.44,0.327-0.898,0-1.146
	c0.036-0.327,0.211-0.526,0.048-0.812c0.152,0.042,0.149-0.073,0.19-0.143c0.034-0.241-0.177-0.238-0.19-0.43
	c0.249-0.61,0.41-1.31,0.668-1.91c-0.096-1.176,0.122-2.49,0.668-3.295c-0.041-1.231-1.042-1.503-1.336-2.482
	c-0.75-0.156-1.097-1.09-1.528-1.72c-0.104-0.007-0.021,0.17-0.048,0.239c-0.198-0.137-0.167-0.502-0.334-0.668
	c-0.265-0.001,0.086,0.318-0.096,0.381c-0.29-0.378-0.602-0.734-0.764-1.24c-0.229,0.107,0.018,0.378,0.048,0.524
	c-0.233-0.165-0.222-0.573-0.383-0.812c-0.134-0.039-0.123,0.067-0.238,0.047c-0.16-0.412-0.365-0.78-0.621-1.098
	c-0.133,0.047,0.07,0.127-0.047,0.191c-0.17-0.006-0.192-0.158-0.191-0.334c-0.203,0.02-0.469-0.208-0.334-0.525
	c-0.012-0.123-0.083,0.065-0.191,0c-0.237-0.539-0.281-1.067-0.525-1.528c-0.05-0.095-0.181-0.155-0.239-0.238
	c-0.071-0.104-0.072-0.256-0.143-0.382c-0.199-0.354-0.637-0.827-0.573-1.528c-0.183-0.104-0.289-0.284-0.334-0.525
	c-0.18,0.212-0.396-0.12-0.573,0.144c-0.059-0.387-0.184-0.707-0.572-0.764c-0.104,0.061,0.159,0.154,0.096,0.334
	c-0.097-0.014-0.094-0.129-0.19-0.144c-0.204,0.577-0.648,0.912-0.621,1.719c-0.086,0.006-0.101-0.059-0.191-0.048
	c-0.12,0.485-0.506,0.705-0.524,1.289c-0.092,0.09-0.087-0.028-0.239,0c-0.028,0.26-0.18,0.395-0.144,0.717
	c-0.427-0.061-0.458,0.473-0.573,0.859c-0.147,0.033-0.092,0.033-0.238,0c-0.516,0.934-1.363,1.534-1.671,2.674
	c-0.125,0.014-0.206-0.018-0.191-0.143c-0.117,0.168-0.201,0.371-0.239,0.62c-0.079,0-0.16,0-0.239,0
	c-0.054,0.392-0.198,0.693-0.381,0.955c-0.222,0.046-0.153-0.198-0.239-0.286c-0.527,0.719-1.022,1.437-1.67,2.148
	c-0.504,0.551-1.302,0.986-1.242,1.862c0.017,0.237,0.241,0.53,0.334,0.812c0.262,0.789,0.284,1.658,0.669,2.34
	c0.059,0.154-0.155,0.035-0.097,0.191c0.177,0.814,0.874,1.35,0.765,2.291c0.012,0.1,0.211,0.012,0.191,0.144
	c0.042,0.234,0.031,0.581,0.143,0.859c-0.005,0.122-0.087,0.167-0.143,0.238c0.137,1.929,0.228,3.868,0.048,5.729
	c-0.122,1.248,0.13,2.531,0.19,3.868c0.082,1.782,0.46,3.157,0.478,4.87c0.005,0.475,0.129,0.949,0.143,1.434
	c-0.069,0.073-0.158,0.127-0.19,0.238c0.166,0.814-0.111,1.79,0.526,2.148c0.034,0.146-0.132,0.092-0.097,0.238
	c0.792,0.609,0.666,2.136,1.242,2.961c0.035,0.146-0.082,0.14-0.048,0.286c0.057,0.15,0.161,0.253,0.19,0.43
	c-0.346,0.203-0.463,0.923-1.241,0.812c-0.256-0.036-0.732-0.115-1.003-0.286c-0.467-0.296-0.639-1.02-1.002-1.337
	c-0.405-0.354-1.029-0.883-1.767-1.003c-0.833-0.136-1.796,0.14-2.817,0c-0.732-0.1-1.741-0.538-2.625-0.382
	c-0.104,0.019-0.236,0.136-0.334,0.144c-0.389,0.03-0.687-0.169-1.051-0.19c-0.401-0.025-0.754,0.164-1.193,0.047
	c-0.478,0.816,0.111,2.527-0.86,2.914c-0.401,0.082-0.791-0.326-1.146-0.288c-0.299,0.033-0.503,0.476-0.764,0.525
	c-0.642,0.124-1.347-0.906-1.862-0.095c-0.199-0.041-0.413-0.066-0.573-0.143c-0.585,0.266-1.207-0.299-1.576-0.67
	c-0.69-0.693-1.211-1.828-1.29-2.816c0.086-0.007,0.101,0.058,0.192,0.047c0.075-0.187-0.125-0.099-0.145-0.191
	c-0.1-0.59,0.658-0.611,0.955-0.906c0.189-0.188,0.197-0.559,0.43-0.717c0.257-0.173,0.569-0.037,0.86-0.143
	c0.276-0.102,0.307-0.406,0.573-0.621c0.274-0.221,0.708-0.354,1.051-0.525c0.366-0.184,0.644-0.451,0.954-0.573
	c0.455,0.193,1.087-0.048,1.576,0.144c-0.11-0.112-0.363-0.082-0.478-0.191c0.509-0.023,0.738-0.039,1.242-0.096
	c0.123-0.012-0.065-0.082,0-0.19c0.38,0.118,0.769-0.105,1.146-0.143c0.071-0.021-0.019-0.062,0-0.144
	c0.52,0.086,0.494-0.131,0.908-0.096c0.136-0.223,0.806-0.126,0.907-0.43c0.034,0.057,0.357-0.006,0.478-0.048
	c0.746-0.261,0.979-1.101,0.668-2.053c-0.272-0.835-0.844-1.788-1.289-2.722c-0.448-0.938-1.011-1.852-1.528-2.436
	c-0.507-0.83-0.857-1.817-1.576-2.436c-0.3-0.861-0.645-1.678-0.956-2.531c-0.516-0.581-0.51-1.686-0.955-2.339
	c-0.491-1.743-0.46-3.946-0.811-5.682c0.025-0.134,0.07-0.249,0.096-0.382c-0.2-0.449-0.065-1.223-0.239-1.768
	c-0.034-0.107-0.159-0.213-0.191-0.334c-0.105-0.393-0.03-0.902-0.096-1.289c-0.088-0.519,0.15-1.259,0.192-1.91
	c0.139-2.228,0.917-4.41,1.575-6.303c0.281-0.805,0.759-1.705,1.099-2.53c0.295-0.718,0.812-1.167,0.908-1.813
	c0.401-0.475,0.628-1.123,1.002-1.625c0.419-1.109,1.221-1.835,1.672-2.912c0.25-0.666,0.41-1.392,0.716-2.101
	c0.25-0.579,0.403-1.177,0.621-1.671c0.069-0.157,0.137-0.314,0.334-0.383c0.692-1.576-0.407-2.691-0.334-4.345
	c-0.362-0.378,0.037-0.935,0-1.433c-0.044-0.131-0.089,0.127-0.239,0.048c-0.03-0.398-0.174-0.697,0.096-0.955
	c-0.049-0.063-0.13-0.094-0.143-0.19c0.239-0.821,0.474-1.611,0.382-2.77c-0.301-0.102-0.312-0.641-0.43-1.051
	c-0.259,0.341-0.055-0.857-0.43-0.859c0.062-0.854-0.337-1.046-0.191-1.91c-0.181-0.242-0.142-0.675-0.381-0.955
	c-0.06-1.627-0.802-3.162-0.526-4.918c0.012-0.14-0.09-0.165-0.143-0.238c0.024-0.246,0.027-0.492,0.048-0.621
	c-0.137,0.049-0.314-0.218-0.191-0.43c0.003-0.234,0.11,0.107,0.191-0.048c0.022-0.206-0.128-0.062-0.143-0.144
	c0.002-0.156,0.135-0.183,0.095-0.382c-0.072-0.09-0.164,0.202-0.334,0.048c0.131-0.544,0.353-1.008,0.334-1.576
	c-0.203,0.005-0.242,0.173-0.382,0c-0.671,1.252-1.108,2.756-1.719,4.059c-0.588,1.256-1.301,2.407-2.053,3.629
	c-0.076,0.777,0.109,1.291,0.286,1.814c-0.229,0.506-0.023,1.465-0.144,2.148c-0.149,0.854-0.438,1.719-0.668,2.483
	c-0.7,2.334-2.238,3.977-3.199,6.112c-0.12,0.071-0.234,0.147-0.382,0.191c-0.728,1.57-1.647,3.1-2.436,4.774
	c-0.785,1.67-1.336,3.474-1.767,5.442c-0.151,0.69-0.271,1.541-0.191,2.436c0.137,1.505,1.397,2.33,1.958,3.582
	c0.039,0.703,0.318,2.363,0.287,3.342c-0.036,1.103-0.885,1.432-1.767,0.859c-0.38,0.498,0.417,0.956,0.573,1.385
	c0.168-0.137,0.425-0.41,0.669-0.191c0.207-0.19,0.169-0.626,0.429-0.764c0.287-0.135,0.474,0.224,0.812,0.048
	c0.206,0.001,0.176,0.237,0.381,0.239c-0.081,0.602,0.412,0.771,0.573,1.289c0.199,0.639-0.136,1.271-0.096,1.957
	c0.028,0.477,0.048,1.112-0.144,1.576c-0.241,0.543-0.872,0.438-1.288,0.716c-0.501,0.334-0.61,1.114-1.242,1.29
	c-0.359,0.062-0.696-0.109-0.812,0.143c-0.173-0.098-0.391-0.15-0.573-0.238c-0.088,0.309-0.344,0.45-0.812,0.382
	c-0.488-0.546-1.217,0.067-1.719-0.431c-0.276-0.273-0.424-0.697-0.668-1.098c-0.543-0.886-1.641-2.434-2.054-3.199
	c-0.06-0.111-0.073-0.281-0.047-0.478c-0.301-0.351-0.354-0.909-0.43-1.337c-0.043-0.13-0.148,0.066-0.287,0
	c0.137-0.848-0.278-1.514-0.143-2.34c-0.122-0.118-0.133,0.279-0.333,0.239c0.014-0.243,0.077-0.464,0.047-0.717
	c-0.011-0.099-0.209-0.013-0.238-0.095c0.097-0.301,0.145-0.651,0.191-1.003c-0.057-0.087-0.25-0.038-0.335-0.096
	c0.151-0.343,0.418-0.921,0.048-1.146c0.051-0.258,0.157-0.898-0.143-0.955c0.253-0.384-0.044-0.764,0.191-1.193
	c-0.126-0.146-0.101,0.205-0.239,0.047c-0.133-0.247,0.159-0.432,0.143-0.716c-0.178-0.173-0.14,0.38-0.333,0.19
	c-0.106-0.233,0.209-0.415,0.286-0.621c-0.14-0.098-0.148-0.328-0.334-0.381c0.035-0.221,0.26-0.25,0.382-0.383
	c-0.084-0.43,0.303-1.281,0-1.623c0.426-0.471,0.258-1.432,0.478-2.005c-0.017-0.067-0.083-0.005-0.096,0.047
	c0.134-0.461,0.485-1.213,0.382-1.813c-0.142-0.05-0.273-0.109-0.287-0.287c0.287-0.621,0.939-0.875,0.955-1.768
	c-0.005-0.092-0.178,0.075-0.238-0.047c0.255-0.707,0.314-1.332,0.716-1.91c0.034-0.13-0.225,0.035-0.19-0.096
	c-0.04-0.537,0.114-0.785,0.286-1.193c-0.183-0.568,0.088-1.037,0.335-1.48c0.014-0.109-0.138-0.053-0.144-0.143
	c0.065-0.27,0.247-0.422,0.334-0.668c-0.111-0.185-0.061-0.199-0.047-0.479c0.338-0.189,0.112-0.57,0.334-0.717
	c-0.091-0.126-0.203,0.303-0.334,0.145c0.158-0.35,0.447-0.488,0.573-0.955c-0.229,0.072-0.252,0.353-0.573,0.334
	c0.04-0.469,0.435-0.584,0.573-0.955c-0.014-0.101-0.128,0.069-0.192-0.048c-0.048-0.208,0.099-0.22,0.144-0.334
	c-0.012-0.099-0.21-0.013-0.239-0.096c0.575-0.681,0.293-2.01,0.716-2.77c0.043-0.234-0.2-0.182-0.19-0.382
	c0.114-0.459,0.315-0.83,0.524-1.193c-0.082-0.623,0.201-1.207,0.383-1.814c-0.198-0.022-0.282-0.408-0.526-0.525
	c0.007-0.3,0.207-0.308,0.096-0.621c0.742-0.891,1.412-1.986,2.196-2.961c-0.235-0.283,0.112-0.424,0.19-0.668
	c-0.188-0.115-0.238,0.254-0.525,0.191c0.022-0.412,0.588-0.683,0.764-1.098c0.062-0.189-0.139-0.116-0.143-0.24
	c0.194-0.69,0.155-1.713,0.381-2.195c-0.134-0.129-0.286,0.233-0.478,0.047c0.204-0.623,0.542-1.113,0.859-1.622
	c-0.02-0.108-0.253-0.002-0.287-0.097c-0.047-0.189,0.143-0.144,0.096-0.334c-0.058-0.068-0.183-0.072-0.238-0.144
	c0.383-2.763,1.228-4.843,2.053-7.209c-0.042-0.844,0.569-1.433,0.716-2.245c0.052-0.178-0.119-0.136-0.095-0.286
	c0.175-0.245,0.294-0.778,0.573-0.765C73.229,97.148,73.212,97.378,72.979,97.564z"/>
</svg>
