<?xml version="1.0" encoding="utf-8"?>
<!-- Generator: Adobe Illustrator 15.0.0, SVG Export Plug-In . SVG Version: 6.00 Build 0)  -->
<svg version="1.2" baseProfile="tiny" id="Layer_1" xmlns="http://www.w3.org/2000/svg" xmlns:xlink="http://www.w3.org/1999/xlink"
	 x="0px" y="0px" width="200px" height="200px" viewBox="0 0 200 200" overflow="inherit" xml:space="preserve">
<g>
	<path id="path3_2_" fill="#010101" d="M80.193,116.438c0.339-0.183,0.639-0.346,0.9-0.49c0.064-0.105,0.162-0.201,0.292-0.287
		c0.46-0.233,0.901-0.479,1.323-0.736c0.132-0.082,0.278-0.164,0.439-0.246c0.033-0.029,0.062-0.057,0.087-0.082h0.035
		c0.008,0.008,0.016,0.008,0.023,0v0.006c0.019-0.01,0.039-0.02,0.059-0.029c0.094-0.119,0.141-0.197,0.141-0.234
		c0-0.038-0.002-0.065-0.005-0.082c0.011,0.004,0.025,0.008,0.041,0.012c0.019,0.008,0.033,0.02,0.041,0.035
		c0.012-0.059,0.018-0.12,0.018-0.188c0-0.038-0.004-0.077-0.012-0.116c-0.007-0.015-0.004-0.031,0.012-0.047
		c0.046,0.031,0.093,0.121,0.14,0.269c0.004,0.016,0.009,0.031,0.012,0.047c0.099-0.138,0.183-0.267,0.251-0.385l-0.018-0.013
		c0.03-0.011,0.057-0.019,0.083-0.022c0.002-0.082,0.015-0.133,0.035-0.152c0.116,0.029,0.205,0.128,0.269,0.292
		c0.016-0.022,0.033-0.044,0.047-0.064c0.001-0.06,0.009-0.104,0.023-0.134l0.018-0.018c-0.004-0.008-0.006-0.014-0.006-0.018
		c0-0.086,0.028-0.156,0.082-0.211c0.024,0.016,0.098,0.113,0.223,0.292c0.043-0.084,0.086-0.17,0.128-0.257
		c0.061,0.053,0.107,0.105,0.141,0.158c0.004-0.014,0.008-0.027,0.012-0.041c0.08,0,0.127,0.057,0.14,0.17
		c0.023-0.004,0.046-0.008,0.07-0.013c-0.084-0.192-0.135-0.304-0.152-0.333c0.129-0.03,0.273,0.068,0.432,0.299
		c0.041-0.005,0.079-0.006,0.117-0.006h0.007c-0.017-0.045-0.019-0.076-0.007-0.095c0.042,0.028,0.075,0.062,0.101,0.101
		c0.047,0.004,0.096,0.008,0.146,0.012c-0.068-0.068-0.151-0.133-0.246-0.193c0.017-0.023,0.052-0.039,0.105-0.047l0.07-0.012
		c0.133,0.069,0.252,0.158,0.357,0.27c0.133,0.004,0.272,0.011,0.421,0.018c-0.05-0.129-0.075-0.225-0.075-0.287
		c0-0.055,0.003-0.082,0.012-0.082l0.023,0.023c0.06,0.016,0.159,0.125,0.297,0.328c0.036-0.023,0.093-0.058,0.17-0.105
		c0.11-0.07,0.195-0.105,0.257-0.105c0.007,0,0.014,0,0.018,0c-0.011-0.082-0.018-0.152-0.018-0.211
		c0.09,0.105,0.164,0.207,0.223,0.305c0.021,0.017,0.04,0.037,0.059,0.059c0.058,0.057,0.235,0.097,0.532,0.117
		c0.145-0.164,0.245-0.254,0.298-0.27c0-0.016,0.004-0.023,0.011-0.023c0.008,0,0.012,0.027,0.012,0.082
		c0,0.037-0.037,0.11-0.111,0.223c0.046,0.002,0.095,0.004,0.146,0.005c0.044-0.062,0.083-0.114,0.117-0.157
		c0.156-0.195,0.292-0.297,0.41-0.305l0.035,0.082c-0.015,0.023-0.096,0.151-0.24,0.387c0.006,0,0.012,0,0.018,0
		c0.164,0,0.332-0.002,0.503-0.007c0.03-0.035,0.061-0.072,0.094-0.11c0.187-0.211,0.39-0.328,0.608-0.352
		c-0.099,0.105-0.195,0.254-0.292,0.445c0.147-0.006,0.297-0.014,0.451-0.023c0.039-0.018,0.08-0.033,0.123-0.048
		c0.507-0.179,0.795-0.354,0.865-0.526c0.047,0.008,0.074,0.016,0.083,0.023c0.023,0.023,0.035,0.066,0.035,0.129
		c0,0.094-0.086,0.208-0.258,0.345c0.081-0.01,0.163-0.02,0.246-0.028c0.097-0.041,0.203-0.084,0.316-0.129
		c0.366-0.148,0.588-0.289,0.667-0.422c0.093,0,0.141,0.059,0.141,0.176c0,0.029-0.109,0.121-0.328,0.275
		c0.128-0.016,0.256-0.033,0.386-0.053c0.049-0.027,0.1-0.055,0.153-0.082c0.405-0.211,0.666-0.336,0.784-0.375v0.059
		c-0.05,0.076-0.146,0.169-0.287,0.281c0.047-0.027,0.096-0.055,0.146-0.082c0.458-0.248,0.795-0.334,1.012-0.258
		c0.274-0.136,0.568-0.291,0.883-0.467v0.081c-0.015,0.015-0.208,0.164-0.579,0.45c0.247-0.062,0.44-0.123,0.579-0.182h0.006
		c0.356-0.163,0.677-0.233,0.964-0.21v0.035c-0.029,0.011-0.123,0.062-0.28,0.152h0.011c0.424-0.075,0.994-0.071,1.708,0.011
		c0.567-0.252,0.953-0.404,1.159-0.455l0.023,0.058c-0.072,0.114-0.292,0.278-0.661,0.491c0.014,0.004,0.027,0.006,0.041,0.006
		c0.083-0.029,0.169-0.059,0.257-0.088c0.445-0.14,0.8-0.229,1.065-0.269l-0.023,0.094c-0.134,0.071-0.261,0.138-0.38,0.198
		c0.072,0.003,0.153,0.007,0.239,0.013c0.074,0.005,0.144,0.011,0.21,0.017c0.325-0.111,0.527-0.188,0.609-0.228
		c-0.035,0.082-0.093,0.164-0.176,0.245c0.027,0.005,0.055,0.009,0.081,0.012c0.008,0.001,0.016,0.001,0.024,0
		c0.074-0.032,0.144-0.059,0.21-0.082v0.059c-0.009,0.018-0.018,0.035-0.029,0.053c0.15,0.029,0.276,0.074,0.381,0.135v-0.035
		c0.015,0,0.034,0.02,0.058,0.059c0.021-0.039,0.041-0.078,0.059-0.117l0.035,0.023c-0.008,0.051-0.026,0.105-0.053,0.164
		c0.027,0.024,0.059,0.053,0.094,0.088c0.083,0.015,0.164,0.03,0.245,0.047c0.28,0.009,0.528,0.058,0.743,0.146
		c0.195-0.008,0.415-0.01,0.661-0.006c0.049-0.025,0.094-0.059,0.135-0.1c0.048-0.047,0.09-0.023,0.129,0.07
		c-0.03,0.01-0.058,0.019-0.081,0.029c0.062,0.002,0.13,0.004,0.198,0.006c0.073-0.014,0.206,0.007,0.397,0.059h0.573l0.06,0.023
		c-0.094,0.062-0.129,0.116-0.105,0.164c0.047,0.027,0.07,0.051,0.07,0.069c0,0.04-0.005,0.067-0.012,0.082
		c0.313,0.001,0.496,0.017,0.55,0.046c-0.024,0.056-0.015,0.09,0.023,0.105c-0.046-0.007-0.19-0.011-0.433-0.011
		c-0.145,0-0.246-0.005-0.311-0.012l-0.141,0.005c0.4,0.1,0.859,0.184,1.375,0.252c-0.172-0.039-0.195-0.051-0.07-0.035
		c0.055,0.008,0.109,0.039,0.164,0.094c-0.085,0.033-0.189,0.053-0.311,0.059c0.346,0.102,0.624,0.203,0.837,0.305
		c0.483,0.304,0.96,0.572,1.427,0.807c1.592,0.788,2.762,1.4,3.51,1.837c1.218,0.695,1.973,1.241,2.264,1.638
		c0.044,0.016,0.09,0.031,0.135,0.047c2.072,0.726,3.953,1.546,5.639,2.463c0.355,0.022,0.729,0.036,1.124,0.041v0.117l-0.151,0.023
		c-0.246-0.01-0.481-0.022-0.709-0.035c0.022,0.012,0.044,0.023,0.064,0.035c0.309,0.025,0.559,0.061,0.749,0.105
		c0.671,0.163,1.213,0.265,1.626,0.304v0.035c-0.102,0.039-0.297,0.059-0.584,0.059c-0.009,0-0.492-0.082-1.451-0.245
		c-0.027-0.006-0.055-0.01-0.082-0.013c0.293,0.073,0.58,0.152,0.859,0.239c0.611,0.124,1.09,0.215,1.434,0.275
		c0,0.039-0.109,0.059-0.328,0.059c-0.029,0-0.131-0.018-0.303-0.053c0.404,0.158,0.795,0.332,1.169,0.521
		c0.161,0.021,0.292,0.021,0.397,0c0,0.037-0.096,0.056-0.287,0.06c0.101,0.053,0.199,0.107,0.299,0.163
		c0.693,0.39,1.408,0.882,2.141,1.474c0.78,0.688,1.357,1.186,1.732,1.498c0.365,0.305,0.717,0.799,1.053,1.486
		c0.069,0.148,0.245,0.362,0.525,0.643c0.336,0.336,0.59,0.621,0.761,0.854c0.608,0.836,0.968,1.354,1.076,1.557
		c0.259,0.469,0.387,0.963,0.387,1.486c0,0.012,0,0.023,0,0.035c0.079,0.116,0.149,0.276,0.21,0.479
		c0.039,0.148,0.117,0.602,0.234,1.357c0.055,0.352,0.148,0.788,0.28,1.311c0.07,0.289,0.181,0.71,0.327,1.264v2.691
		c0.039,0.101,0.09,0.327,0.153,0.678c0.054,0.344,0.081,0.581,0.081,0.714c0,0.499-0.094,1.1-0.28,1.802
		c-0.233,0.85-0.374,1.482-0.422,1.895c-0.054,0.391-0.132,1.015-0.233,1.873c-0.117,0.74-0.254,1.356-0.41,1.848
		c-0.207,0.621-0.469,1.514-0.789,2.68c0.215-0.08,0.352-0.135,0.416-0.164v0.023c-0.037,0.04-0.184,0.115-0.439,0.229
		c-0.034,0.119-0.069,0.24-0.105,0.363c0.168-0.042,0.252-0.084,0.252-0.123c-0.013-0.018-0.021-0.031-0.029-0.041
		c0.036,0.017,0.111,0.03,0.228,0.041c-0.075,0.078-0.235,0.154-0.479,0.228c-0.024,0.095-0.051,0.19-0.076,0.286
		c0.19-0.025,0.316-0.029,0.381-0.011c-0.071,0.067-0.213,0.129-0.428,0.188c-0.002,0.008-0.004,0.015-0.006,0.022
		c-0.051,0.139-0.105,0.272-0.163,0.404c0.276-0.033,0.524-0.133,0.749-0.299l-0.035-0.082c0.062,0.024,0.094,0.07,0.094,0.141
		c-0.152,0.168-0.443,0.297-0.872,0.387c-0.013,0.025-0.023,0.051-0.035,0.076c0.266-0.004,0.556-0.002,0.872,0.005
		c0-0.077,0.031-0.085,0.094-0.022c-0.205,0.176-0.409,0.287-0.614,0.333c-0.095,0.032-0.202,0.063-0.322,0.093v0.064
		c-0.046,0.023-0.089,0.045-0.129,0.064c0.062,0.029,0.104,0.069,0.129,0.123c0.093-0.044,0.211-0.107,0.352-0.188
		c-0.063-0.023-0.094-0.051-0.094-0.082l0.151,0.094l-0.012,0.07c-0.124,0.033-0.256,0.072-0.392,0.117
		c0.012,0.031,0.019,0.066,0.019,0.105c0,0.019-0.008,0.047-0.024,0.082c0.154-0.026,0.259-0.049,0.316-0.07
		c0,0.008,0.011,0.02,0.035,0.035c-0.118,0.047-0.255,0.094-0.41,0.141c-0.035,0.059-0.082,0.129-0.141,0.21
		c0.167-0.05,0.29-0.097,0.375-0.14v0.081l-0.38,0.07c-0.037,0.052-0.078,0.108-0.123,0.17c0.248-0.067,0.396-0.116,0.444-0.146
		v0.081c-0.173,0.044-0.336,0.085-0.491,0.123c-0.004,0.006-0.008,0.012-0.012,0.017c-0.09,0.117-0.17,0.215-0.24,0.293
		c0.921-0.246,1.586-0.43,1.994-0.55c2.209,0.215,3.641,0.346,4.294,0.392c0.655,0.046,1.108,0.406,1.357,1.082
		c0.19,0.182,0.327,0.385,0.41,0.609c0.077,0.226,0.116,0.592,0.116,1.099c0,0.812-0.316,1.662-0.947,2.551
		c-0.249,0.347-0.521,0.663-0.819,0.948c-0.032,0.072-0.06,0.127-0.082,0.163c-0.28,0.483-0.737,1.054-1.368,1.708
		c-0.359,0.367-0.905,0.908-1.639,1.627c-0.818,0.85-2.008,1.973-3.568,3.369c-1.934,1.73-3.065,2.597-3.393,2.597
		c-0.203,0-0.355-0.062-0.457-0.187c-0.085-0.164-0.148-0.277-0.187-0.34c-0.179,0.047-0.444,0.125-0.796,0.234
		c-0.28,0.078-0.464,0.117-0.549,0.117c-0.844,0-1.264-0.23-1.264-0.691c0-0.108,0.008-0.179,0.023-0.209
		c-0.297,0.218-0.676,0.14-1.135-0.234c-0.43-0.352-0.645-0.64-0.645-0.865c0-0.109,0.013-0.184,0.035-0.223
		c0.023-0.047,0.11-0.125,0.258-0.234c-0.873-0.328-1.311-0.775-1.311-1.346c0-0.141,0.047-0.272,0.141-0.397
		c0.188-0.241,0.512-0.362,0.971-0.362c0.242,0,0.406,0.039,0.492,0.117c0.093,0.078,0.155,0.117,0.188,0.117
		c0.801-0.316,1.42-0.58,1.859-0.791l-0.035-0.006c-0.561,0.195-1.951-0.287-4.17-1.444s-3.51-2.596-3.873-4.317
		c-0.363-1.721-0.051-3.548,0.941-5.48c0.379-1.014,0.662-1.77,0.849-2.27c-0.183-0.057-0.399-0.17-0.649-0.34
		c-0.073-0.052-0.144-0.098-0.211-0.141c-0.006,0.012-0.014,0.023-0.023,0.035c0.056,0.033,0.113,0.067,0.176,0.105
		c0.336,0.211,0.503,0.355,0.503,0.434c0,0.102-0.02,0.179-0.058,0.233c-0.103,0.031-0.199,0.02-0.293-0.035
		c0,0.125-0.039,0.215-0.117,0.269c0.086,0.063,0.145,0.129,0.176,0.199c-0.219,0.086-0.328,0.137-0.328,0.152
		c0,0.031,0.004,0.055,0.012,0.07c0,0.008-0.03,0.055-0.093,0.141h-0.585c-0.102-0.008-0.297-0.043-0.585-0.105
		c-0.024-0.006-0.05-0.012-0.076-0.018l-0.013,0.006c-0.012,0.018-0.023,0.035-0.035,0.053c0.208,0.027,0.468,0.061,0.778,0.1
		c0.267,0.039,0.397,0.113,0.397,0.223c0,0.102-0.011,0.121-0.033,0.059c-0.133,0.062-0.215,0.132-0.246,0.21
		c-0.008,0.023-0.148,0.031-0.422,0.023c0.102,0.257,0.094,0.39-0.023,0.397c-0.062,0-0.133-0.004-0.211-0.012
		c0,0.242-0.085,0.383-0.257,0.422c-0.033,0.011-0.333,0.046-0.901,0.105c-0.018,0.026-0.035,0.054-0.053,0.082h0.919
		c0.124,0.062,0.194,0.148,0.21,0.257c-0.008,0.008-0.078,0.039-0.21,0.094l-0.433,0.058h0.199c0.078,0.031,0.117,0.098,0.117,0.199
		h-0.176c-0.094,0-0.141,0.031-0.141,0.094c0,0.094-0.234,0.183-0.701,0.27c-0.205,0.039-0.381,0.079-0.527,0.121
		c-0.046,0.072-0.091,0.141-0.135,0.205c0.148-0.059,0.268-0.105,0.357-0.14c0.195-0.07,0.393-0.105,0.597-0.105
		c0.132,0,0.198,0.046,0.198,0.14c-0.039,0.04-0.137,0.071-0.292,0.094c0.116,0,0.175,0.039,0.175,0.117
		c0,0.102-0.011,0.121-0.035,0.059c-0.124,0.062-0.326,0.121-0.607,0.176h0.176c0.078,0.031,0.116,0.078,0.116,0.141
		c-0.022,0.023-0.081,0.055-0.176,0.094h0.586c0.077,0.031,0.116,0.078,0.116,0.14c-0.103,0.099-0.257,0.169-0.462,0.211h0.052
		c0.079,0.031,0.118,0.077,0.118,0.14l-0.118,0.071l-0.408,0.022c0.047,0,0.078,0,0.094,0c0.015,0.008,0.022,0.043,0.022,0.105
		c0,0.008-0.078,0.062-0.233,0.164c-0.164,0.109-0.308,0.195-0.433,0.258c0.03,0.047,0.046,0.137,0.046,0.27l-0.315,0.023h0.059
		c0.077,0.077,0.117,0.147,0.117,0.21c-0.024,0.031-0.062,0.059-0.117,0.082h-0.89c-0.004,0.007-0.008,0.015-0.011,0.022
		c0.224,0.143,0.391,0.221,0.503,0.234c0.053,0,0.09,0.024,0.104,0.07c-0.023,0.031-0.062,0.059-0.116,0.082
		c-0.257,0.016-0.433,0.035-0.526,0.059c0,0.039-0.012,0.129-0.035,0.27c0,0.016,0.035,0.07,0.105,0.163
		c0.07,0.086,0.105,0.222,0.105,0.409c-0.078,0.023-0.215,0.035-0.41,0.035c0.008,0.016,0.031,0.027,0.07,0.035
		c0.031,0.023,0.047,0.066,0.047,0.129c0,0.055-0.179,0.207-0.538,0.457c-0.194,0.129-0.344,0.225-0.45,0.286
		c0.218,0.076,0.391,0.156,0.521,0.239c-0.016,0.031-0.073,0.051-0.176,0.059c-0.028-0.007-0.164-0.014-0.409-0.023
		c-0.002,0.077-0.014,0.112-0.035,0.105h-0.104c-0.007,0.014-0.013,0.027-0.019,0.041c0.027,0.023,0.041,0.063,0.041,0.123
		c0,0.093-0.012,0.137-0.035,0.129h-0.141c0.196,0.07,0.329,0.121,0.398,0.152c0.125,0.046,0.188,0.117,0.188,0.209
		c0,0.026,0,0.048,0,0.064c0.03,0.004,0.062,0.006,0.094,0.006c0,0.01-0.033,0.017-0.1,0.023c-0.007,0.031-0.016,0.047-0.029,0.047
		l-0.397,0.023c0.008,0.148-0.078,0.277-0.259,0.387c0.035,0,0.07,0,0.105,0c-0.006,0.021-0.078,0.038-0.215,0.053
		c-0.049,0.021-0.094,0.036-0.135,0.047c-0.081,0.088-0.16,0.154-0.24,0.198c0.087,0.026,0.146,0.044,0.182,0.054
		c-0.031,0.054-0.109,0.082-0.234,0.082c-0.036,0-0.072-0.003-0.111-0.007c-0.031,0.054-0.062,0.106-0.094,0.158
		c0.165,0.056,0.312,0.103,0.439,0.141c-0.024,0.039-0.121,0.059-0.293,0.059c-0.083,0-0.168-0.008-0.258-0.023
		c-0.079,0.125-0.152,0.238-0.223,0.339c0.091,0.023,0.181,0.035,0.27,0.035h0.129l-0.059,0.035c-0.07,0.055-0.16,0.082-0.27,0.082
		c-0.049,0-0.102-0.01-0.157-0.029c-0.105,0.146-0.197,0.257-0.275,0.333c0.075,0.167,0.15,0.339,0.222,0.515
		c0.328,0.788,0.801,1.958,1.416,3.51c0.515,1.092,0.987,2.164,1.416,3.218c0.641,1.548,1.023,2.677,1.152,3.387
		c0.096,0.136,0.188,0.286,0.275,0.45c0.319,0.601,0.479,1.135,0.479,1.604c0,0.249-0.07,0.562-0.21,0.936
		c-0.188,0.484-0.418,0.796-0.69,0.936c-0.46,0.234-1.159,0.508-2.095,0.819c-1.037,0.352-1.723,0.526-2.059,0.526
		c-0.023,0-0.045,0-0.064,0c-0.4,0.312-0.775,0.469-1.129,0.469c-0.074,0-0.147-0.002-0.223-0.006
		c-1.197,0.37-2.247,0.555-3.146,0.555c-0.336,0-0.504-0.159-0.504-0.479c0-0.297,0.219-0.555,0.656-0.773
		c0.044-0.021,0.086-0.043,0.129-0.063c-0.164-0.031-0.391-0.083-0.678-0.158c-0.508-0.141-0.875-0.21-1.102-0.21
		c-0.102,0-0.725-0.031-1.871-0.094c-0.054,0-0.358,0.098-0.913,0.293c-0.376,0.133-0.688,0.22-0.936,0.263
		c-0.255,0.94-0.671,1.749-1.252,2.428c0.32-0.039,0.562,0.104,0.725,0.433c0.102,0.211,0.152,0.402,0.152,0.573
		c0,0.304-0.097,0.593-0.292,0.866c-0.327,0.444-0.861,0.666-1.603,0.666c-0.078,0-0.281-0.047-0.609-0.141
		c-0.147,0.289-0.245,0.465-0.292,0.527c-0.257,0.296-0.608,0.444-1.052,0.444c-0.336,0-0.687-0.055-1.053-0.164
		c-0.367-0.108-0.625-0.163-0.773-0.163c-0.14,0-0.229,0.035-0.268,0.105c-0.047,0.069-0.102,0.104-0.165,0.104h-1.053
		c-0.67-0.312-1.423-0.55-2.257-0.714c-0.445-0.086-0.667-0.397-0.667-0.936c0-0.414,0.179-0.819,0.539-1.217
		c0.444-0.499,0.752-1.018,0.923-1.557c0.094-0.326,0.172-0.795,0.234-1.403c0.078-0.733,0.136-1.201,0.176-1.403
		c0.187-1.264,0.332-2.211,0.433-2.843c0.171-1.132,0.389-2.056,0.655-2.772c0.21-0.57,0.706-1.518,1.486-2.844
		c0.709-1.209,1.146-2.133,1.31-2.773c0.195-0.779,0.8-1.715,1.813-2.807c0.43-0.297,0.819-0.761,1.171-1.393
		c0.232-0.418,0.427-0.742,0.584-0.971c-0.049-0.127-0.096-0.251-0.141-0.375c0,0.154-0.008,0.275-0.024,0.363h-0.034
		c-0.118-0.414-0.18-0.655-0.188-0.726c-0.006-0.044-0.01-0.185-0.011-0.421c-0.034-0.117-0.065-0.229-0.093-0.34
		c-0.055-0.227-0.083-0.628-0.083-1.205c0-0.545-0.039-0.951-0.116-1.217c-0.164-0.545-0.278-0.967-0.34-1.264
		c-0.086-0.428-0.128-0.834-0.128-1.217c-0.002-0.014-0.004-0.029-0.006-0.046c-0.024,0.167-0.042,0.304-0.052,0.409h-0.035
		c-0.039-0.093-0.058-0.238-0.058-0.433c0-0.1,0.023-0.31,0.069-0.632c-0.008-0.083-0.011-0.142-0.011-0.176
		c0-0.122,0.008-0.28,0.023-0.473c0-0.019,0-0.036,0-0.054c0-0.095,0.009-0.216,0.029-0.362h-0.018
		c0.012-0.057,0.025-0.115,0.041-0.176c0.001-0.014,0.003-0.03,0.005-0.047c0.01-0.059,0.019-0.111,0.029-0.164
		c0.027-0.237,0.061-0.502,0.1-0.795c-0.298,0.516-0.494,0.871-0.585,1.064h-0.035c-0.008-0.008-0.015-0.008-0.023,0v-0.082
		c0-0.141,0.202-0.541,0.609-1.205c0.03-0.05,0.059-0.099,0.087-0.146c0.106-0.73,0.245-1.606,0.415-2.626
		c0.03-0.18,0.057-0.361,0.082-0.545c-0.141,0.371-0.207,0.697-0.199,0.977h-0.059v-0.443c0.109-0.383,0.198-0.676,0.269-0.879
		c0.012-0.031,0.023-0.062,0.035-0.093c0.034-0.37,0.056-0.749,0.064-1.141c-0.009,0.04-0.015,0.073-0.017,0.1h-0.059l-0.012-0.187
		c0-0.059,0.032-0.173,0.094-0.346c0-0.376,0.083-0.743,0.245-1.1c-0.508-0.529-0.836-0.867-0.982-1.012
		c-0.011,0.042-0.019,0.065-0.023,0.07c-0.055,0-0.102-0.012-0.141-0.035c-0.144-0.176-0.236-0.316-0.275-0.422
		c-0.009-0.008-0.018-0.015-0.029-0.023c-0.001,0.044,0.007,0.098,0.024,0.164c0,0.078-0.055,0.133-0.164,0.164
		c-0.219-0.109-0.34-0.18-0.363-0.211c-0.009-0.023-0.032-0.078-0.07-0.164c-0.016,0.125-0.074,0.203-0.176,0.234
		c-0.055-0.117-0.191-0.387-0.409-0.808c-0.076-0.147-0.143-0.29-0.2-0.427c-0.073-0.054-0.147-0.105-0.222-0.158
		c-0.023,0.022-0.051,0.046-0.082,0.07c-0.023-0.062-0.044-0.12-0.064-0.176c-0.113-0.078-0.228-0.158-0.345-0.239v0.006
		l-0.036-0.023v-0.006c-0.027-0.021-0.054-0.04-0.082-0.059c-0.039,0.063-0.082,0.132-0.129,0.205
		c-0.28,0.452-0.577,0.679-0.889,0.679c-0.476,0-0.772-0.129-0.889-0.387c-0.04-0.078-0.059-0.269-0.059-0.572
		c0-0.33,0.067-0.684,0.2-1.06c-0.017-0.011-0.034-0.022-0.053-0.035c-0.026,0.051-0.063,0.1-0.11,0.146l-0.024-0.023v-0.204
		c-0.015-0.011-0.031-0.02-0.046-0.029c-0.021,0.139-0.055,0.248-0.105,0.327c-0.078-0.039-0.137-0.059-0.176-0.059
		c0-0.203-0.007-0.331-0.023-0.386c-0.008,0.117-0.02,0.312-0.035,0.584l-0.117-0.022c0-0.2-0.002-0.369-0.006-0.509l-0.03-0.018
		c-0.014,0.243-0.023,0.368-0.023,0.374H89.88c-0.017-0.115-0.029-0.258-0.035-0.427c-0.01,0.012-0.03,0.018-0.058,0.018
		c-0.094,0-0.145,0-0.153,0c0.016,0.031,0.008,0.07-0.023,0.117c-0.116-0.047-0.183-0.121-0.199-0.223
		c0.008-0.125,0.008-0.215,0-0.27c-0.125-0.008-0.21-0.035-0.257-0.082c0-0.008-0.012-0.043-0.035-0.104
		c-0.024,0.062-0.074,0.085-0.152,0.069v-0.304c-0.405-0.252-0.701-0.444-0.883-0.579c-0.01,0.016-0.02,0.032-0.029,0.047
		c0.059,0.66,0.145,1.513,0.257,2.557c0.086,0.779,0.129,1.669,0.129,2.667c0,0.148-0.305,0.651-0.913,1.509
		c-0.312,0.438-0.64,0.897-0.982,1.381c-0.156,0.304-0.281,0.787-0.375,1.451c-0.101,0.701-0.21,1.193-0.327,1.474
		c-0.062,0-0.105-0.048-0.129-0.141c0.008-0.038,0.022-0.116,0.041-0.233c-0.133,0.478-0.212,0.836-0.239,1.076h-0.082
		c-0.04-0.234-0.06-0.594-0.06-1.076c-0.078,0.265-0.17,0.568-0.28,0.912c-0.085,0.28-0.141,0.589-0.164,0.924
		c-0.039,0-0.059-0.023-0.059-0.07c-0.008-0.047-0.035-0.07-0.082-0.07c-0.054,0-0.086,0.004-0.094,0.012
		c-0.008,0-0.039-0.035-0.093-0.105c-0.016,0.031-0.023,0.117-0.023,0.258c0.008,0.109-0.032,0.191-0.117,0.246l-0.094-0.035
		c-0.085,0.18-0.136,0.387-0.152,0.62c-0.046,0.147-0.218,0.222-0.514,0.222c-0.078,0-0.117-0.027-0.117-0.082
		c-0.016,0.078-0.027,0.195-0.036,0.352c-0.132,0-0.264,0.008-0.397,0.023c-0.016,0.055-0.012,0.16,0.011,0.315
		c0,0.141-0.054,0.23-0.163,0.27l-0.117-0.047c-0.016-0.117-0.023-0.265-0.023-0.444l-0.035,0.082
		c-0.008,0.031-0.004,0.121,0.012,0.269c-0.008,0.133-0.07,0.199-0.188,0.199c-0.054,0-0.086,0.023-0.093,0.07
		c0,0.062-0.046,0.117-0.141,0.163l-0.094-0.046c-0.008-0.017-0.034-0.117-0.082-0.305h-0.023l-0.012,0.971l-0.164,0.024
		c-0.112,0-0.182-0.084-0.211-0.252c-0.026,0.145-0.104,0.268-0.234,0.368l-0.117-0.046c0,0.155-0.046,0.315-0.141,0.479
		c-0.078,0.148-0.148,0.223-0.21,0.223c-0.055,0-0.085-0.008-0.093-0.023c-0.009-0.008-0.016-0.02-0.024-0.035
		c-0.008,0.031,0,0.113,0.024,0.246c0,0.109-0.075,0.164-0.222,0.164c-0.062,0-0.11-0.016-0.141-0.047
		c-0.047-0.039-0.078-0.062-0.093-0.07c-0.04,0.047-0.098,0.125-0.176,0.234c-0.078,0.078-0.167,0.117-0.268,0.117
		c-0.094,0-0.157-0.039-0.188-0.117c-0.015-0.039-0.023-0.109-0.023-0.211l-0.024,0.023c0,0.031,0.012,0.145,0.035,0.339
		c0,0.171-0.09,0.258-0.27,0.258c-0.054,0-0.085-0.008-0.093-0.024c-0.008-0.007-0.016-0.019-0.023-0.034
		c0,0.108-0.117,0.319-0.351,0.632l-0.141-0.082v-0.211c-0.001,0.016-0.035,0.027-0.105,0.035c-0.039,0-0.074,0-0.105,0l0.012,0.34
		c0,0.133-0.063,0.222-0.187,0.269l-0.094-0.047c-0.04-0.085-0.059-0.202-0.059-0.351l-0.023,0.023
		c-0.023,0.086-0.027,0.223-0.012,0.409c-0.031,0.148-0.164,0.237-0.397,0.27l-0.176-0.06c-0.016-0.141-0.023-0.327-0.023-0.561
		l-0.035,0.023v1.229c-0.023,0.016-0.044,0.031-0.06,0.047c-0.015,0.015-0.054,0.023-0.116,0.023c-0.094,0-0.141-0.023-0.141-0.07
		c-0.008-0.297-0.031-0.57-0.07-0.819c-0.016,0.086,0,0.304,0.047,0.655c-0.008,0.312-0.156,0.468-0.444,0.468
		c-0.062,0-0.102-0.007-0.117-0.023c-0.016-0.008-0.027-0.019-0.035-0.034c0,0.047,0.012,0.179,0.035,0.396
		c-0.008,0.195-0.086,0.293-0.234,0.293c-0.109,0-0.167-0.07-0.175-0.211c-0.016-0.233-0.027-0.357-0.035-0.374h-0.035
		c-0.032,0.031-0.066,0.062-0.105,0.094c-0.023,0.023-0.034,0.062-0.034,0.116c0,0.078,0.031,0.191,0.092,0.34
		c0.024,0.133-0.026,0.223-0.152,0.269c-0.078-0.007-0.136-0.07-0.175-0.187c-0.024-0.125-0.043-0.199-0.059-0.223l-0.176,0.034
		c0,0.117,0.035,0.354,0.105,0.714c0.031,0.304-0.043,0.456-0.223,0.456c-0.093,0-0.121-0.012-0.081-0.035
		c-0.054-0.179-0.152-0.409-0.292-0.69l-0.012,0.047c0.008,0.07,0.062,0.207,0.164,0.41c0.093,0.195,0.141,0.335,0.141,0.421
		c0,0.078-0.04,0.137-0.118,0.175c-0.109,0.047-0.179,0.094-0.21,0.141l-0.082-0.023l-0.305-0.584
		c0.024,0.147,0.071,0.351,0.141,0.607c0.024,0.086,0.035,0.234,0.035,0.445c0,0.109-0.046,0.195-0.14,0.258
		c-0.055-0.017-0.18-0.121-0.375-0.316c-0.008,0.078-0.016,0.121-0.024,0.129c-0.023,0.047-0.066,0.07-0.129,0.07
		c-0.046,0-0.09-0.02-0.128-0.059c-0.039-0.04-0.082-0.059-0.128-0.059c-0.133,0-0.208,0.055-0.223,0.163
		c-0.007,0.102-0.07,0.151-0.187,0.151c-0.054,0-0.102-0.012-0.141-0.034c-0.039-0.031-0.07-0.047-0.094-0.047
		c-0.015,0.078-0.027,0.121-0.035,0.129c-0.023,0.031-0.07,0.046-0.14,0.046c-0.055,0-0.105-0.019-0.152-0.058
		c-0.054-0.039-0.105-0.06-0.152-0.06c-0.055,0-0.098,0.024-0.129,0.071c-0.039,0.046-0.082,0.07-0.128,0.07
		c-0.07,0-0.214-0.055-0.433-0.163c-0.088,0-0.205-0.024-0.351-0.071c-0.024,0.037-0.035,0.062-0.035,0.071
		c0.086,0.015,0.14,0.025,0.164,0.033c0.023,0.024,0.034,0.07,0.034,0.142c0,0.108-0.05,0.226-0.152,0.351
		c-0.194,0.227-0.299,0.352-0.315,0.375c0.842,0.592,1.399,0.998,1.673,1.217c0.429,0.343,0.643,0.713,0.643,1.111
		c0,0.171-0.063,0.276-0.187,0.315c-0.25,0.086-0.87,0.133-1.86,0.141c0,0.108,0.027,0.382,0.082,0.819
		c0.001,0.031,0.001,0.063,0,0.093c0.436,0.131,0.919,0.411,1.451,0.843c0.709,0.585,1.525,0.982,2.445,1.193h0.386
		c0.383-0.234,1.124-0.585,2.223-1.053c1.007-0.429,1.541-0.644,1.604-0.644c0.312,0,0.468,0.108,0.468,0.327
		c0,0.328-0.031,0.577-0.094,0.749c-0.072,0.2-0.194,0.38-0.368,0.538h0.005c0.211,0.094,0.316,0.28,0.316,0.561
		c0,0.125-0.05,0.273-0.152,0.445c-0.101,0.18-0.152,0.281-0.152,0.305c0,0.031,0.024,0.094,0.07,0.187
		c0.055,0.094,0.082,0.152,0.082,0.175c0,0.414-0.042,0.699-0.128,0.855c-0.07,0.147-0.312,0.514-0.726,1.1
		c-0.195,0.312-0.558,0.686-1.088,1.123c-0.57,0.475-0.975,0.713-1.217,0.713c-0.647,0-1.26-0.23-1.837-0.689
		c-0.164-0.132-0.305-0.261-0.421-0.387c-0.303-0.119-0.653-0.264-1.053-0.433c-1.396-0.585-2.371-1.068-2.925-1.45
		c-0.584-0.406-1.193-0.886-1.825-1.439c-0.595-0.535-1.104-1.043-1.526-1.521c-0.193-0.07-0.612-0.461-1.258-1.169
		c-0.702-0.765-1.104-1.268-1.205-1.509c-0.036-0.086-0.071-0.17-0.105-0.252c-0.067-0.115-0.12-0.244-0.158-0.387
		c-0.027-0.068-0.055-0.137-0.082-0.204h-0.007c-0.003-0.015-0.008-0.032-0.011-0.046c-0.155-0.391-0.278-0.727-0.369-1.007
		c0.009,0.212,0.031,0.396,0.064,0.55c-0.102-0.039-0.168-0.152-0.199-0.34c-0.001-0.017-0.004-0.04-0.006-0.07
		c-0.16-0.006-0.239-0.268-0.239-0.783c0.033-0.214,0.064-0.403,0.093-0.568c-0.052-0.17-0.095-0.334-0.129-0.49
		c-0.014,0.084-0.029,0.172-0.046,0.263h-0.058v-0.27c0-0.005,0.017-0.104,0.052-0.298c-0.019-0.146-0.029-0.285-0.029-0.416
		c0-0.226,0.172-0.811,0.516-1.754c0.146-0.404,0.272-0.734,0.374-0.989c-0.19,0.145-0.331,0.217-0.421,0.217
		c-0.062,0-0.102-0.008-0.117-0.023c-0.008-0.009-0.016-0.02-0.023-0.035c0.186-0.089,0.415-0.245,0.69-0.468
		c0.01-0.021,0.02-0.043,0.029-0.064c-0.394,0.277-0.645,0.415-0.755,0.415c-0.093,0-0.132-0.019-0.117-0.059
		c0.265-0.167,0.492-0.312,0.679-0.433c0.088-0.091,0.172-0.176,0.251-0.258c-0.056,0.037-0.112,0.072-0.17,0.105v-0.035
		c0.194-0.183,0.385-0.364,0.573-0.543c0.047-0.073,0.094-0.144,0.141-0.211c-0.319,0.324-0.596,0.578-0.83,0.766
		c-0.023-0.023-0.035-0.047-0.035-0.07c0.253-0.293,0.758-0.801,1.515-1.521c0.061-0.065,0.121-0.13,0.182-0.191
		c0.266-0.366,0.484-0.697,0.655-0.995c-0.201,0.196-0.442,0.437-0.726,0.719c-0.554,0.546-0.956,0.929-1.205,1.147
		c0.28-0.367,0.647-0.769,1.099-1.205c0.315-0.305,0.624-0.58,0.924-0.825c0.09-0.165,0.165-0.319,0.222-0.462
		c0.142-0.348,0.393-0.763,0.755-1.246c0.028-0.037,0.057-0.076,0.087-0.117c0.091-0.118,0.188-0.24,0.292-0.368
		c0.67-0.78,1.15-1.342,1.439-1.685c0.069-0.083,0.14-0.188,0.211-0.315c-0.049,0-0.1,0-0.153,0c-0.148,0-0.253-0.032-0.315-0.095
		l0.199-0.058c0.122,0.011,0.234,0.021,0.34,0.029c0.034-0.069,0.069-0.143,0.105-0.223c-0.034-0.001-0.069-0.003-0.105-0.006
		c-0.196-0.015-0.297-0.026-0.305-0.035c0.098-0.015,0.246-0.028,0.444-0.04c0.016-0.032,0.033-0.065,0.047-0.1
		c0.029-0.07,0.058-0.137,0.087-0.199c-0.214-0.008-0.36-0.012-0.438-0.012c0.029-0.003,0.059-0.005,0.087-0.006
		c0.022,0.004,0.052,0.006,0.088,0.006c0.022,0,0.063-0.008,0.123-0.023c0.049-0.005,0.099-0.009,0.146-0.012
		c-0.019-0.004-0.038-0.008-0.058-0.012h-0.006c0.107-0.039,0.234-0.062,0.38-0.07c0.094-0.016,0.153-0.055,0.176-0.117
		c-0.023-0.023-0.074-0.035-0.152-0.035c-0.038,0.005-0.113,0.01-0.228,0.018c0.059-0.131,0.112-0.238,0.158-0.322l-0.48,0.012
		l-0.023-0.023c0.011-0.011,0.187-0.021,0.526-0.029c0.011-0.023,0.023-0.045,0.035-0.064c0.248-0.384,0.607-0.643,1.076-0.777
		c0.021-0.08,0.071-0.226,0.152-0.438c0.125-0.319,0.191-0.499,0.199-0.538c0.008-0.024,0.016-0.048,0.024-0.07
		c0-0.08,0.002-0.162,0.005-0.246c-0.125,0.206-0.282,0.459-0.474,0.761l-0.023-0.035l0.515-0.971
		c0.022-0.197,0.055-0.399,0.099-0.608c-0.054,0.102-0.114,0.219-0.181,0.351c-0.165,0.312-0.321,0.569-0.468,0.772
		c-0.04-0.039-0.058-0.078-0.058-0.117c0.129-0.254,0.252-0.479,0.368-0.672c-0.076,0.081-0.145,0.158-0.205,0.228
		c-0.05,0.091-0.105,0.188-0.163,0.292l-0.029-0.047c-0.036,0.065-0.053,0.051-0.053-0.047c0-0.112,0.078-0.268,0.234-0.461
		c0.12-0.232,0.182-0.352,0.187-0.357c0.116-0.182,0.246-0.328,0.392-0.439c0.005-0.036,0.01-0.073,0.017-0.11
		c-0.164,0.074-0.352,0.164-0.561,0.269c-0.281,0.141-0.491,0.207-0.632,0.199c0.046-0.055,0.144-0.119,0.292-0.193
		c-0.009-0.01-0.006-0.023,0.012-0.041c0.255-0.09,0.511-0.271,0.766-0.543c-0.013,0.006-0.026,0.012-0.041,0.018
		c-0.024,0-0.043-0.012-0.058-0.035c-0.008-0.025-0.014-0.051-0.018-0.076c-0.095,0.056-0.207,0.132-0.333,0.229
		c-0.281,0.21-0.496,0.318-0.643,0.327l-0.024-0.059l0.024-0.059c0.061-0.007,0.246-0.114,0.556-0.321l-0.907,0.345v-0.035
		c0.109-0.108,0.406-0.253,0.89-0.433c0.156-0.056,0.293-0.1,0.409-0.135c0.011-0.004,0.021-0.008,0.029-0.012
		c0.006-0.017,0.015-0.035,0.024-0.053l-1.469,0.035c-0.418,0.073-0.856,0.147-1.311,0.223c0.104-0.053,0.366-0.123,0.784-0.211
		h-0.011c-0.094,0-0.137-0.008-0.129-0.023c0.047-0.014,0.094-0.027,0.14-0.041c-0.009-0.005-0.018-0.011-0.023-0.018
		c-0.155,0.021-0.272,0.049-0.351,0.082c-0.171,0.078-0.328,0.109-0.468,0.094c0.398-0.297,0.975-0.453,1.731-0.469
		c0.602-0.01,1.084-0.037,1.445-0.081c0.045-0.034,0.088-0.06,0.128-0.077c0.002-0.006,0.003-0.011,0.005-0.018h0.457
		c0.094,0,0.202-0.038,0.328-0.116v-0.023l-0.737-0.018c0.026-0.081,0.053-0.163,0.082-0.245c-0.115-0.006-0.24-0.016-0.375-0.029
		c-0.094,0-0.179-0.012-0.257-0.035l0.257-0.059c0.13-0.011,0.272-0.024,0.427-0.041c0.021-0.061,0.043-0.123,0.064-0.188
		c-0.448,0.012-1.013,0.018-1.696,0.018c-0.101,0-0.156-0.008-0.164-0.023c0.429-0.109,0.947-0.176,1.555-0.199
		c0.028,0,0.152,0,0.375,0c0.004-0.012,0.008-0.023,0.012-0.035h-1.393c-0.428-0.023-0.65-0.043-0.666-0.059
		c0.039-0.039,0.261-0.059,0.666-0.059h1.434c0.009-0.025,0.02-0.051,0.029-0.076l-1.229,0.019c-0.109-0.008-0.214-0.008-0.315,0
		c-0.07,0.008-0.109,0.008-0.117,0c0.109-0.078,0.253-0.117,0.432-0.117l1.275-0.018c0.016-0.04,0.032-0.079,0.047-0.117
		c-0.06-0.013-0.123-0.026-0.187-0.04c-0.48-0.103-0.899-0.188-1.258-0.258c-0.282-0.018-0.604-0.036-0.966-0.059v-0.07l0.047-0.029
		c-0.042,0.002-0.085,0.004-0.129,0.006c0-0.039,0.059-0.078,0.176-0.117c0.274-0.022,0.578-0.052,0.913-0.088l0.023-0.052
		c0.021,0.007,0.117,0.015,0.287,0.022c0.277-0.027,0.571-0.059,0.883-0.094c0.089-0.009,0.172-0.017,0.251-0.023
		c-0.163,0-0.344,0-0.544,0c-0.008,0-0.25-0.026-0.726-0.081c-0.38-0.048-0.647-0.089-0.802-0.123
		c-0.151-0.008-0.286-0.018-0.403-0.029c0.208-0.094,0.652-0.146,1.333-0.157c-0.005-0.007-0.009-0.014-0.012-0.018l0.023-0.035
		c0.056-0.004,0.108-0.008,0.158-0.012l-0.333-0.047c-0.046,0-0.132,0.023-0.257,0.07c-0.116,0.039-0.199,0.059-0.246,0.059
		c-0.101,0-0.148-0.013-0.14-0.035c0.335-0.281,0.748-0.359,1.239-0.234c0.008,0,0.016,0,0.024,0c0.088,0,0.332-0.01,0.731-0.029
		c0.192-0.115,0.338-0.184,0.438-0.205l-0.011-0.035c-0.141-0.147-0.227-0.241-0.257-0.28c-0.024-0.047-0.036-0.121-0.036-0.222
		c0-0.328,0.125-0.668,0.375-1.019c0.203-0.272,0.519-0.593,0.947-0.959c-0.093-0.125-0.285-0.305-0.573-0.538
		c-0.164-0.125-0.246-0.297-0.246-0.516c0-0.047,0.098-0.145,0.292-0.292c0.266-0.194,0.473-0.39,0.621-0.585
		c0-0.012,0.003-0.026,0.005-0.041c-0.001-0.011-0.003-0.022-0.005-0.035c-0.013,0.043-0.024,0.079-0.036,0.111l-0.059-0.07
		c-0.015-0.055-0.023-0.113-0.023-0.176c0-0.055,0.012-0.159,0.035-0.31c-0.05,0.101-0.104,0.177-0.164,0.228
		c0.028-0.223,0.06-0.438,0.094-0.643c-0.027-0.106-0.055-0.244-0.083-0.416c-0.013,0.049-0.026,0.096-0.041,0.141
		c0.003,0.014,0.005,0.027,0.006,0.041l-0.017,0.006c-0.099,0.345-0.19,0.564-0.274,0.66l-0.035-0.023
		c0.038-0.107,0.072-0.24,0.105-0.397l-0.035-0.011c-0.062,0.062-0.132,0.1-0.211,0.116c0.026-0.226,0.052-0.425,0.076-0.597
		c-0.027-0.084-0.059-0.176-0.093-0.274l-0.182,0.813h-0.035c-0.039-0.094-0.059-0.191-0.059-0.293c0-0.052,0.018-0.169,0.053-0.352
		c-0.051,0.136-0.107,0.283-0.17,0.445l-0.058-0.07v-0.141c0-0.196,0.062-0.525,0.187-0.988c-0.032-0.064-0.062-0.129-0.094-0.193
		v0.047c-0.015,0.304-0.047,0.538-0.093,0.701l-0.093-0.011c0.002-0.22,0.006-0.423,0.012-0.608
		c-0.009-0.014-0.012-0.033-0.012-0.059c-0.016-0.016-0.024-0.074-0.024-0.176c0-0.037,0.006-0.08,0.018-0.129
		c-0.088,0.311-0.171,0.51-0.252,0.598c0.069-0.273,0.134-0.568,0.193-0.89c-0.007-0.019-0.015-0.036-0.023-0.053
		c-0.066,0.036-0.133,0.061-0.199,0.075c-0.049,0.172-0.086,0.285-0.11,0.34h-0.06c0.042-0.1,0.08-0.211,0.118-0.333
		c-0.025,0.003-0.048,0.006-0.07,0.006c-0.101,0-0.137-0.008-0.105-0.023c0.034-0.023,0.115-0.099,0.24-0.229
		c0.012-0.055,0.023-0.111,0.034-0.169c-0.011-0.028-0.023-0.055-0.034-0.082c-0.095,0.142-0.147,0.224-0.159,0.245
		c-0.07-0.016-0.117-0.054-0.14-0.116l-0.012-0.082c0.062-0.151,0.118-0.278,0.164-0.381c-0.002-0.006-0.004-0.013-0.006-0.018
		c-0.075,0.072-0.14,0.139-0.193,0.199c-0.083,0.336-0.156,0.547-0.222,0.632c0.041-0.158,0.079-0.323,0.117-0.497
		c-0.04,0.055-0.067,0.104-0.082,0.146h-0.058c-0.008-0.008-0.012-0.047-0.012-0.117c0-0.029,0.004-0.061,0.012-0.094
		c-0.012,0.012-0.024,0.023-0.035,0.035c-0.039-0.023-0.059-0.051-0.059-0.082l-0.023-0.059c-0.047-0.008-0.079-0.027-0.094-0.059
		l-0.023-0.094c0,0.02,0,0.039,0,0.059c0,0.055,0.002,0.092,0.006,0.111c-0.029-0.016-0.051-0.033-0.064-0.053l-0.024-0.339
		l-0.029-0.013c-0.016,0.072-0.029,0.123-0.041,0.152l-0.041-0.047c-0.006,0.012-0.012,0.023-0.017,0.035
		c-0.024-0.016-0.044-0.043-0.059-0.082v-0.116c0-0.109,0.012-0.224,0.035-0.345l-0.006-0.152c-0.092,0.223-0.161,0.361-0.204,0.415
		l-0.035-0.035l-0.024-0.104c0.088-0.321,0.167-0.598,0.234-0.832c0-0.057,0.007-0.121,0.018-0.192
		c-0.165,0.444-0.256,0.75-0.275,0.919h-0.035c-0.024-0.097-0.041-0.187-0.052-0.27c-0.083,0.207-0.123,0.328-0.123,0.362
		c0,0.055,0.008,0.09,0.023,0.105c0.016,0.016,0.02,0.027,0.012,0.035h-0.035c-0.023-0.016-0.047-0.031-0.07-0.047
		c-0.016-0.015-0.023-0.054-0.023-0.116c0-0.053,0.08-0.28,0.239-0.686c0.031-0.127,0.087-0.296,0.17-0.509
		c-0.023,0.035-0.047,0.07-0.07,0.105c-0.041,0.093-0.072,0.151-0.094,0.176l-0.011-0.019c-0.229,0.324-0.405,0.486-0.527,0.486
		c-0.101,0-0.128-0.012-0.082-0.035v-0.047c0.124-0.113,0.275-0.3,0.45-0.562c0.009-0.091,0.034-0.173,0.076-0.245
		c0.1-0.157,0.174-0.291,0.222-0.404c-0.051,0.064-0.105,0.125-0.164,0.182c-0.031-0.008-0.066-0.035-0.104-0.082
		c-0.047-0.055-0.071-0.113-0.071-0.176c0-0.272,0.078-0.643,0.234-1.111c0.156-0.468,0.234-0.795,0.234-0.982
		c-0.037-0.141-0.072-0.273-0.105-0.398c-0.046,0.09-0.098,0.16-0.152,0.211c-0.023-0.023-0.035-0.09-0.035-0.199
		c0-0.039,0.035-0.154,0.105-0.345c-0.024-0.106-0.049-0.204-0.07-0.292c-0.011,0.041-0.023,0.073-0.035,0.1
		c-0.052,0-0.101-0.012-0.146-0.035c-0.027,0.07-0.057,0.141-0.087,0.21c-0.04-0.016-0.067-0.035-0.083-0.058l-0.012-0.246
		c0-0.045,0.01-0.116,0.029-0.217c-0.007-0.01-0.013-0.02-0.017-0.029v-0.111c-0.024,0.043-0.055,0.076-0.094,0.1l-0.117-0.059
		c-0.001-0.018-0.003-0.035-0.005-0.053l-0.018-0.029c0.004-0.008,0.008-0.016,0.011-0.023c-0.016-0.137-0.043-0.271-0.082-0.403
		c0.023-0.101,0.035-0.153,0.035-0.157c0-0.234-0.04-0.379-0.117-0.434c-0.051-0.04-0.123-0.069-0.217-0.088
		c-0.117-0.187-0.259-0.367-0.427-0.543c-0.484-0.516-0.726-1.003-0.726-1.463c0-0.555,0.3-0.8,0.901-0.737
		c0.473,0.044,0.948,0.263,1.427,0.661c0.061-0.174,0.182-0.377,0.363-0.608c0.051-0.141,0.097-0.259,0.141-0.357
		c0.083-0.171,0.205-0.327,0.369-0.468c-0.07,0.025-0.134,0.043-0.193,0.059c0.046-0.094,0.273-0.234,0.679-0.421
		c0.007-0.028,0.015-0.053,0.023-0.07c0.019-0.053,0.044-0.109,0.076-0.169c-0.268,0.141-0.417,0.263-0.45,0.367
		c-0.04,0-0.059-0.019-0.059-0.058c0.05-0.063,0.227-0.183,0.533-0.357c0.141-0.247,0.388-0.546,0.743-0.895
		c0.664-0.671,1.018-1.034,1.065-1.088c0.023-0.031,0.167-0.168,0.433-0.409c0.234-0.219,0.421-0.426,0.562-0.621
		c0.163-0.265,0.304-0.46,0.421-0.584c0.187-0.211,0.444-0.383,0.772-0.516c1.014-0.227,1.728-0.39,2.141-0.49
		c0.709-0.156,1.178-0.402,1.404-0.738c-0.171,0.281-0.406,0.543-0.702,0.784C80.335,116.328,80.264,116.385,80.193,116.438z
		 M72.057,129.641c-0.013,0.017-0.027,0.033-0.042,0.047l0.024,0.006C72.045,129.676,72.051,129.658,72.057,129.641z
		 M73.748,133.186c-0.004-0.01-0.008-0.02-0.012-0.029v0.088c0.034,0.082,0.069,0.166,0.105,0.252v-0.006
		c0.003-0.012,0.007-0.023,0.012-0.035C73.818,133.369,73.783,133.279,73.748,133.186z M72.46,131.793
		c-0.006,0.07-0.01,0.141-0.012,0.211c0.21-0.312,0.335-0.495,0.375-0.549c-0.004-0.004-0.009-0.008-0.012-0.013
		c-0.004-0.005-0.008-0.012-0.012-0.017c-0.146,0.188-0.255,0.314-0.327,0.38L72.46,131.793z M73.344,132.238l-0.006,0.012v0.006
		C73.341,132.25,73.343,132.244,73.344,132.238z M73.414,132.443c0.021-0.02,0.042-0.041,0.063-0.064
		c-0.02-0.028-0.042-0.058-0.063-0.088c-0.007,0.029-0.015,0.061-0.024,0.094C73.397,132.403,73.405,132.422,73.414,132.443z
		 M73.572,132.986c-0.003,0.014-0.007,0.027-0.012,0.041c0.004-0.012,0.009-0.023,0.012-0.035V132.986z M73.601,132.858
		c-0.003,0.011-0.007,0.022-0.012,0.035l0.006,0.006C73.597,132.886,73.598,132.872,73.601,132.858z M70.518,148.793
		c0.016,0.047,0.062,0.086,0.141,0.117c0.04,0,0.066-0.004,0.082-0.012c0.008,0,0.012-0.031,0.012-0.094s-0.02-0.098-0.058-0.105
		c-0.023,0-0.062,0.004-0.117,0.012L70.518,148.793z M72.747,140.954c0.298,0.025,0.576,0.043,0.831,0.052
		c0.008-0.021,0.016-0.043,0.023-0.063C73.395,140.949,73.11,140.953,72.747,140.954z M73.489,141.234
		c-0.111,0.017-0.235,0.032-0.368,0.047c0.133,0.006,0.249,0.01,0.345,0.012C73.474,141.273,73.481,141.254,73.489,141.234z
		 M73.209,142.24c-0.187,0.016-0.324,0.035-0.41,0.06c0.024,0.022,0.148,0.035,0.375,0.035c0.07,0,0.141-0.013,0.211-0.035
		c0.069-0.024,0.109-0.044,0.117-0.06v-0.022C73.447,142.218,73.35,142.226,73.209,142.24z M73.711,140.645
		c-0.112,0.008-0.241,0.014-0.386,0.018c0.134,0.027,0.252,0.051,0.357,0.069C73.692,140.699,73.703,140.67,73.711,140.645z
		 M73.466,142.92l-0.035,0.082c0.032,0.055,0.062,0.086,0.093,0.094h0.316c0.023,0.038,0.035,0.007,0.035-0.094
		c0-0.055-0.004-0.086-0.012-0.094s-0.012-0.008-0.012,0C73.657,142.908,73.529,142.912,73.466,142.92z M72.372,144.411
		c0.036-0.011,0.069-0.021,0.1-0.028c0.006-0.035,0.012-0.071,0.018-0.105c-0.013,0.018-0.026,0.037-0.041,0.058
		C72.424,144.362,72.398,144.388,72.372,144.411z M72.425,144.803c-0.004-0.004-0.008-0.008-0.012-0.012v-0.012
		c-0.027,0.032-0.055,0.065-0.082,0.1C72.363,144.852,72.395,144.826,72.425,144.803L72.425,144.803z M66.862,154.52
		c-0.025,0.041-0.05,0.082-0.076,0.123c0.116-0.117,0.229-0.234,0.339-0.352C67.039,154.361,66.952,154.437,66.862,154.52z
		 M64.288,161.86c-0.043-0.169-0.064-0.3-0.064-0.397c0-0.027,0-0.053,0-0.076c-0.007-0.026-0.015-0.052-0.023-0.076
		c-0.024,0.167-0.035,0.288-0.035,0.363c0,0.229,0.04,0.466,0.117,0.713c0-0.07,0-0.16,0-0.268
		C64.282,162.031,64.284,161.945,64.288,161.86z M100.62,113.449v0.006h0.006L100.62,113.449z M100.539,113.332
		c-0.076-0.038-0.223-0.065-0.439-0.082c-0.022,0.025-0.048,0.05-0.076,0.076c0.011,0.013,0.021,0.026,0.029,0.041
		c0.017,0.002,0.032,0.004,0.047,0.006c0.265,0.002,0.413-0.006,0.444-0.023C100.543,113.344,100.541,113.338,100.539,113.332z
		 M102.926,113.93c-0.063,0-0.187-0.011-0.369-0.029c0.144,0.048,0.264,0.097,0.356,0.146c0.332-0.011,0.558-0.019,0.679-0.023
		c-0.072-0.017-0.178-0.044-0.316-0.082c-0.02-0.005-0.041-0.008-0.064-0.011C103.129,113.93,103.032,113.93,102.926,113.93z
		 M128.395,152.98c0.02-0.004,0.039-0.008,0.058-0.012c-0.016-0.002-0.033-0.006-0.052-0.012
		C128.398,152.966,128.396,152.974,128.395,152.98z M89.822,139.865c0,0.026,0.007,0.064,0.023,0.112c0-0.037,0-0.073,0-0.112
		H89.822z M90.594,140.264c0.003,0.02,0.008,0.035,0.012,0.047c0.003-0.011,0.007-0.022,0.012-0.035
		C90.608,140.272,90.602,140.269,90.594,140.264z M93.858,142.463c-0.036-0.025-0.07-0.051-0.105-0.076
		c0.007,0.037,0.015,0.078,0.023,0.123c0.046,0.211,0.101,0.355,0.164,0.434c-0.031-0.211-0.058-0.367-0.082-0.469V142.463z
		 M94.203,142.727c-0.033-0.025-0.066-0.05-0.1-0.076c0.059,0.154,0.121,0.279,0.187,0.374
		C94.254,142.91,94.225,142.811,94.203,142.727z M81.832,153.18v0.035c-0.019,0.092-0.021,0.219-0.006,0.381
		C81.836,153.383,81.837,153.244,81.832,153.18z M115.583,149.611c-0.067,0-0.11-0.004-0.128-0.012
		c0.055,0.068,0.145,0.142,0.269,0.223l-0.022,0.082c-0.078,0-0.126,0.008-0.141,0.023l0.174,0.188c0,0.031-0.02,0.073-0.058,0.128
		c-0.03,0.035-0.056,0.063-0.076,0.082c0.003,0.017,0.005,0.034,0.006,0.054c0.04,0.058,0.11,0.133,0.21,0.228l0.059-0.164
		c0-0.277-0.057-0.586-0.169-0.924c-0.003,0.007-0.005,0.015-0.007,0.023C115.678,149.588,115.639,149.611,115.583,149.611z
		 M115.788,150.688c-0.035,0.01-0.052,0.041-0.052,0.094c0,0.018,0,0.032,0,0.047L115.788,150.688z M115.642,150.957
		c0.017,0.003,0.03,0.005,0.041,0.006c0.009-0.02,0.017-0.039,0.024-0.059C115.691,150.915,115.671,150.933,115.642,150.957z
		 M115.561,150.623l-0.006,0.006c0.017,0.012,0.035,0.023,0.053,0.035L115.561,150.623z M113.834,152.01c0.012,0,0.021,0,0.029,0
		c-0.004-0.001-0.011-0.004-0.018-0.006L113.834,152.01z M101.346,173.455c-0.765-0.727-1.162-1.104-1.194-1.136
		c-0.184-0.191-0.337-0.364-0.462-0.521c0.009,0.033,0.018,0.071,0.029,0.111c-0.016,0.152-0.358,0.254-1.029,0.304
		c-0.02,0.022-0.04,0.046-0.059,0.071c0.327-0.018,0.518-0.018,0.573,0l-0.023,0.046c-0.062,0.024-0.164,0.054-0.304,0.094
		l0.035,0.022c0.116,0.039,0.175,0.091,0.175,0.152c-0.054,0.086-0.155,0.133-0.304,0.141c-0.156,0.016-0.289,0.074-0.398,0.176
		c0.031,0.031,0.086,0.113,0.164,0.246c0.085,0.141,0.128,0.23,0.128,0.269c0,0.07-0.031,0.145-0.093,0.223
		c-0.019,0.021-0.039,0.04-0.059,0.058c0.262-0.074,0.569-0.145,0.924-0.21c0.525-0.099,0.938-0.132,1.24-0.1
		C100.879,173.346,101.098,173.363,101.346,173.455z"/>
</g>
</svg>
