<?xml version="1.0" encoding="utf-8"?>
<!-- Generator: Adobe Illustrator 15.0.0, SVG Export Plug-In . SVG Version: 6.00 Build 0)  -->
<svg version="1.2" baseProfile="tiny" id="Layer_1" xmlns="http://www.w3.org/2000/svg" xmlns:xlink="http://www.w3.org/1999/xlink"
	 x="0px" y="0px" width="200px" height="200px" viewBox="0 0 200 200" overflow="inherit" xml:space="preserve">
<g>
	<g id="Layer_4_12_">
	</g>
	<g id="Layer_2_8_">
		<path id="path6" fill="#010101" d="M118.521,88.035l-0.336,0.297l-0.119,0.049c0.606,0.08,0.957,0.162,1.05,0.248l0.021,0.06
			c0,0.04-0.043,0.087-0.129,0.139c-0.111,0.053-0.182,0.086-0.208,0.099l-0.247,0.051l0.237,0.039
			c0.165,0.033,0.251,0.068,0.258,0.109c-0.007,0.065-0.057,0.118-0.147,0.158c-0.066,0.033-0.146,0.049-0.238,0.049l0.188-0.197
			l-0.396-0.051c0.086-0.138,0.198-0.244,0.337-0.316c0.025-0.02,0.102-0.049,0.229-0.089l-0.972-0.089
			c0-0.033-0.132-0.066-0.396-0.1c-0.151,0.007-0.112-0.039,0.119-0.139c0.146-0.06,0.293-0.115,0.445-0.168l0.108-0.139
			l-0.595-0.05v-0.198l0.276-0.01c-0.11-0.007-0.225-0.02-0.337-0.039c-0.23-0.027-0.35-0.061-0.355-0.1
			c0.039-0.026,0.142-0.093,0.307-0.198c0.158-0.105,0.271-0.188,0.338-0.248c-0.033,0-0.1-0.003-0.199-0.01
			c-0.171,0.218-0.419,0.374-0.742,0.466c-0.158,0.614-0.373,1.295-0.645,2.041c-0.6,1.611-1.391,3.289-2.367,5.032
			c-0.438,0.78-0.869,1.496-1.298,2.15c-0.039,0.548-0.119,1.194-0.237,1.941c-0.23,1.599-0.564,3.055-1,4.369
			c-0.1,0.297-0.203,0.58-0.309,0.852c0.061,0.682,0.062,1.65,0.01,2.913c0.027,1.004,0.09,1.599,0.188,1.783
			c0.106,0.178,0.174,0.831,0.199,1.961c0,0.065,0.006,0.225,0.021,0.476c0.006,0.008,0.013,0.018,0.021,0.03
			c1.143,1.545,1.736,3.183,1.782,4.913c0.007,0.111,0.065,0.628,0.179,1.546c0.08,1.037,0.014,1.958-0.199,2.765
			c-0.659,2.543-2.627,3.813-5.903,3.813c-0.567,0-1.003-0.156-1.308-0.468c-1.108,0.377-1.93,0.565-2.457,0.565
			c-0.316,0-0.635-0.022-0.95-0.069c-0.093,0.39-0.323,0.797-0.693,1.22c-0.674,0.799-1.562,0.993-2.666,0.584
			c-0.012,0.071,0,0.323,0.04,0.753c0.027,0.297,0.04,0.559,0.04,0.781c-0.614,0.478-1.01,0.773-1.188,0.893
			c-0.243-0.297-0.463-0.743-0.653-1.337c-0.198-0.66-0.339-1.119-0.427-1.377c-0.092-0.265-0.182-0.489-0.268-0.674
			c0.008-0.146,0.01-0.281,0.01-0.406c-0.02,0.015-0.043,0.026-0.068,0.039c-0.033-0.032-0.053-0.147-0.061-0.347
			c0-0.151,0.012-0.402,0.03-0.754c-0.112,0.105-0.231,0.205-0.356,0.299c-0.053,0.521-0.047,0.986,0.021,1.396
			c-0.06-0.079-0.118-0.286-0.178-0.624c-0.04-0.271-0.06-0.472-0.06-0.604c0-0.014,0-0.026,0-0.039
			c-0.08,0.046-0.162,0.089-0.248,0.128c-0.033-0.039-0.054-0.158-0.061-0.354c-0.014-0.021-0.044-0.015-0.09,0.02
			c-0.025,0.013-0.061,0.039-0.1,0.078c-0.225-0.369-0.373-0.742-0.444-1.119c-0.026,0.094-0.04,0.169-0.04,0.229v0.039
			c0,0.027-0.01,0.051-0.029,0.07c-0.066-0.191-0.061-0.395,0.02-0.604c-0.007-0.008-0.01-0.015-0.01-0.021v-0.01
			c-0.033,0.007-0.076,0.033-0.129,0.08c-0.046-0.041-0.09-0.08-0.129-0.119c-0.033,0.013-0.046,0.035-0.04,0.068
			c0.007,0.08,0,0.129-0.02,0.148c-0.264-0.361-0.498-0.732-0.703-1.109l-0.079-0.021c0.007-0.039,0.013-0.076,0.02-0.108
			c-0.02-0.033-0.036-0.068-0.049-0.109c0.013,0.033,0.029,0.066,0.049,0.101c0.026-0.344,0.057-0.651,0.089-0.922
			c-0.086-0.04-0.182-0.072-0.287-0.099v0.039c-0.014,0.283,0.004,0.506,0.05,0.664c0.013,0.06,0.032,0.119,0.06,0.178
			c-0.139-0.277-0.262-0.555-0.367-0.832c-0.323-0.879-0.62-1.607-0.892-2.189c0-0.059-0.013-0.105-0.04-0.139
			c-0.006,0.1-0.032,0.328-0.078,0.684l-0.01,0.051c-0.027,0.032-0.093,0.049-0.198,0.049c-0.219,0-0.37-0.276-0.456-0.832
			c-0.126-0.739-0.208-1.155-0.248-1.247c-0.006-0.021-0.125-0.136-0.356-0.349l-0.089,0.01c-0.007-0.024-0.01-0.059-0.01-0.099
			c-0.178-0.165-0.291-0.327-0.337-0.485c-0.026,0.015-0.05,0.023-0.069,0.029c-0.119-0.158-0.195-0.32-0.229-0.484
			c-0.013-0.071-0.022-0.219-0.029-0.437c-0.007-0.31,0.043-0.778,0.148-1.407c-0.025,0.015-0.096,0.119-0.208,0.317
			c-0.132,0.205-0.225,0.334-0.277,0.388c-0.059-0.133-0.089-0.269-0.089-0.406c0-0.061,0.069-0.266,0.208-0.614
			c0.138-0.345,0.234-0.563,0.287-0.664l-0.04-0.049c-0.139,0.282-0.221,0.448-0.247,0.495c-0.158,0.25-0.287,0.365-0.387,0.347
			c0.021-0.047,0.149-0.313,0.387-0.804c0.185-0.383,0.277-0.646,0.277-0.793l-0.01-0.107c0-0.054-0.017-0.096-0.05-0.129
			c-0.026,0.1-0.092,0.298-0.197,0.595c-0.1,0.277-0.188,0.492-0.269,0.644H90.18c-0.007-0.006-0.01-0.06-0.01-0.157
			c-0.007-0.093,0.079-0.36,0.258-0.804c0.171-0.437,0.25-0.801,0.236-1.1l-0.01-0.426c-0.151,0.488-0.34,0.9-0.564,1.238
			c-0.105,0-0.171-0.03-0.198-0.09c0.344-0.681,0.596-1.284,0.753-1.812c-0.013-0.166-0.022-0.334-0.029-0.506
			c-0.046,0.14-0.099,0.304-0.158,0.495c-0.152,0.48-0.317,0.855-0.496,1.12l-0.089-0.052c0.126-0.271,0.301-0.726,0.525-1.367
			c0.08-0.223,0.148-0.424,0.207-0.604v-0.01c-0.098,0.172-0.257,0.303-0.475,0.396c0.065-0.211,0.208-0.905,0.426-2.082
			c0.014-0.064,0.026-0.131,0.039-0.197l-0.029-3.635c-0.013-0.457,0.097-1.131,0.327-2.021c0.132-0.477,0.265-0.889,0.396-1.238
			c-0.072-0.324-0.121-0.654-0.147-0.99c-0.198-0.654-0.313-1.486-0.348-2.498c-0.039-1.129-0.071-1.898-0.099-2.308
			c0.079-0.126,0.183-0.244,0.308-0.356c0.032-0.244,0.065-0.499,0.099-0.763c0.014-0.079,0.026-0.159,0.04-0.238
			c-0.073,0.066-0.172,0.096-0.298,0.089c0.093-0.197,0.136-0.326,0.13-0.386c-0.034-0.026-0.05-0.046-0.05-0.06
			c0-0.053,0.043-0.143,0.129-0.268c0.06-0.099,0.129-0.188,0.207-0.268c0-0.026,0-0.049,0-0.069
			c-0.072,0.079-0.138,0.132-0.197,0.158c-0.027,0.106-0.044,0.077-0.05-0.089c-0.007-0.092,0.056-0.228,0.188-0.406
			c0.053-0.059,0.096-0.115,0.129-0.168c0.013-0.053,0.022-0.105,0.029-0.158c-0.046,0.045-0.1,0.099-0.158,0.158
			c-0.179,0.191-0.344,0.313-0.496,0.366c0.008-0.151,0.06-0.304,0.158-0.456c0.04-0.053,0.09-0.115,0.149-0.188
			c-0.158-0.04-0.277-0.139-0.357-0.297c-0.052-0.285-0.079-0.437-0.079-0.457c-0.02-0.633,0.176-1.23,0.585-1.793
			c0.013-0.02,0.03-0.039,0.05-0.059c-0.073-0.291-0.109-0.477-0.109-0.555c0-0.191,0.007-0.373,0.021-0.545
			c-0.027-0.014-0.04-0.061-0.04-0.139c0.02-0.007,0.04-0.018,0.06-0.03c0.04-0.251,0.099-0.485,0.179-0.703
			c0.125-0.317,0.297-0.577,0.515-0.782c0.06-0.363,0.119-0.671,0.179-0.922c0.112-0.449,0.267-0.832,0.465-1.149l0.01,0.05
			c0.007,0.027,0.021,0.043,0.04,0.049h0.148c0.013-0.045,0.026-0.088,0.04-0.128c-0.027-0.021-0.047-0.036-0.06-0.05
			c-0.053-0.053-0.083-0.142-0.089-0.268c-0.008-0.105,0.039-0.215,0.139-0.326c0.059-0.072,0.135-0.136,0.228-0.188
			c0.053-0.198,0.108-0.38,0.168-0.545c-0.053-0.065-0.093-0.148-0.119-0.247c-0.046-0.403-0.069-0.607-0.069-0.615
			c-0.02-0.158-0.029-0.28-0.029-0.366c0.014-0.165,0.073-0.278,0.179-0.337c-0.04,0.158-0.057,0.38-0.05,0.664
			c0.007,0.271,0.023,0.452,0.05,0.545c0.025,0.072,0.062,0.139,0.108,0.198c0.211-0.575,0.453-0.978,0.724-1.209
			c0-0.37,0.046-0.601,0.139-0.693c-0.033,0.151-0.043,0.356-0.029,0.614c0.145-0.112,0.409-0.268,0.792-0.466
			c0.021-0.013,0.04-0.026,0.06-0.04c0.066-0.033,0.138-0.068,0.218-0.108c-0.007-0.033-0.01-0.069-0.01-0.109
			c-0.007-0.105,0.165-0.228,0.516-0.366c0.354-0.139,0.538-0.442,0.545-0.912c0.021,0,0.056-0.016,0.108-0.049
			c0.06-0.04,0.136-0.06,0.228-0.06c0.087,0,0.202,0.036,0.347,0.108c0.152,0.066,0.269,0.1,0.348,0.1
			c0.066-0.06,0.143-0.119,0.229-0.178c0.079-0.066,0.18-0.119,0.297-0.16c0.033-0.059,0.053-0.115,0.061-0.168
			c0.007-0.065,0.018-0.129,0.029-0.188c-0.072-0.146-0.162-0.33-0.269-0.555c-0.085-0.186-0.157-0.344-0.218-0.477
			c-0.032,0.027-0.064,0.057-0.1,0.09c-0.139,0.145-0.234,0.231-0.287,0.258c-0.021-0.046-0.033-0.079-0.039-0.1
			c-0.014-0.033-0.047-0.053-0.1-0.06c-0.08-0.006-0.148-0.017-0.209-0.029c-0.039-0.007-0.072-0.01-0.099-0.01
			c-0.013,0-0.046,0.02-0.099,0.06c-0.053,0.039-0.106,0.06-0.158,0.06c-0.174,0-0.309-0.036-0.407-0.109
			c-0.06-0.065-0.092-0.099-0.101-0.099c-0.024,0-0.049,0.01-0.067,0.029c-0.013,0.026-0.033,0.039-0.06,0.039
			c-0.172,0-0.331-0.039-0.477-0.119c-0.112-0.072-0.172-0.108-0.178-0.108c-0.04,0-0.097,0.017-0.168,0.05l-0.109,0.049
			c-0.238,0-0.446-0.059-0.624-0.178c-0.093-0.06-0.179-0.112-0.258-0.158v0.01c0,0.007,0.003,0.013,0.01,0.02
			c-0.007,0-0.026,0-0.06,0c-0.1,0-0.221-0.053-0.366-0.158c0.112,0.086,0.251,0.198,0.416,0.337
			c-0.061-0.026-0.215-0.143-0.466-0.347c-0.014,0.006-0.033,0.01-0.06,0.01c-0.093-0.072-0.179-0.155-0.258-0.248
			c-0.151-0.125-0.276-0.23-0.376-0.316c0.02,0.032,0.04,0.062,0.06,0.089c-0.007,0.013-0.027,0.022-0.06,0.029
			c-0.04-0.065-0.079-0.136-0.119-0.208c0.026,0.165,0.09,0.304,0.188,0.416c-0.099-0.033-0.165-0.111-0.198-0.237
			c-0.006-0.04-0.01-0.116-0.01-0.228c-0.086-0.08-0.129-0.133-0.129-0.158v-0.04c0.006,0.013,0.014,0.02,0.02,0.02V75.85
			l0.021,0.01c0-0.006-0.004-0.014-0.011-0.02c-0.06-0.126-0.111-0.287-0.158-0.485c-0.053-0.093-0.103-0.245-0.148-0.456
			c-0.059-0.219-0.089-0.369-0.089-0.455v-0.011c-0.008-0.032-0.014-0.069-0.02-0.108c-0.02-0.033-0.044-0.07-0.069-0.109
			c0.046,0.337,0.075,0.525,0.089,0.564l-0.02,0.011c-0.02-0.066-0.06-0.278-0.119-0.634c-0.007-0.007-0.011-0.018-0.011-0.03
			c-0.185-0.265-0.426-0.601-0.723-1.011c-0.449-0.614-0.674-0.931-0.674-0.951c0-0.092,0.056-0.221,0.168-0.386
			c0.054-0.073,0.109-0.129,0.169-0.169c-0.053-0.053-0.093-0.109-0.119-0.168c-0.04-0.027-0.076-0.073-0.108-0.139
			c-0.06-0.092-0.093-0.155-0.1-0.188c0-0.086,0.011-0.191,0.03-0.317c0.032-0.138,0.053-0.248,0.06-0.327c0-0.053,0-0.103,0-0.148
			c-0.033,0.033-0.054,0.062-0.06,0.089c-0.007,0.026-0.01,0.013-0.01-0.04c0-0.02,0.022-0.049,0.069-0.089
			c-0.007-0.053-0.01-0.096-0.01-0.129c-0.04,0.033-0.073,0.066-0.1,0.099h-0.039c0.032-0.046,0.079-0.096,0.139-0.149
			c0-0.006,0-0.013,0-0.02c0.006-0.02,0.01-0.036,0.01-0.05c-0.047,0.04-0.087,0.079-0.119,0.119h-0.029
			c0.025-0.053,0.085-0.122,0.178-0.208c0.007-0.014,0.017-0.027,0.029-0.04c0.007-0.04,0.02-0.083,0.039-0.129
			c-0.02,0.013-0.035,0.027-0.049,0.04l-0.078-0.01c0.059-0.033,0.117-0.069,0.177-0.109c0.014-0.026,0.03-0.056,0.05-0.089
			c-0.079,0.053-0.165,0.109-0.257,0.168c0.065-0.053,0.147-0.112,0.247-0.178c-0.013,0.007-0.026,0.013-0.04,0.02l-0.02-0.02
			c0.04-0.02,0.083-0.043,0.129-0.069c0.054-0.072,0.109-0.152,0.169-0.237c0.006,0,0.01-0.004,0.01-0.011
			c-0.046,0.027-0.1,0.054-0.159,0.08c0.046-0.026,0.106-0.059,0.179-0.099c0.026-0.033,0.053-0.069,0.08-0.109
			c-0.027,0.02-0.057,0.037-0.09,0.05l-0.02-0.01c0.046-0.034,0.105-0.07,0.179-0.11c0.052-0.059,0.108-0.119,0.167-0.178
			c-0.052,0.026-0.107,0.056-0.167,0.089c-0.034,0.04-0.05,0.033-0.05-0.02c0.032-0.02,0.069-0.04,0.109-0.059
			c-0.06,0.026-0.117,0.049-0.169,0.069c0.145-0.072,0.28-0.138,0.405-0.198c0.08-0.079,0.159-0.159,0.238-0.237
			c0.284-0.258,0.599-0.532,0.941-0.822c0.146-0.119,0.274-0.222,0.386-0.308c0-0.006-0.003-0.013-0.01-0.02
			c-0.065-0.112-0.102-0.192-0.108-0.238v-0.01c-0.007-0.02-0.017-0.043-0.03-0.069c-0.046-0.178-0.072-0.271-0.079-0.277
			c0-0.152,0.033-0.284,0.099-0.396c0.008-0.079,0.066-0.178,0.179-0.297c0.06-0.065,0.115-0.125,0.169-0.177
			c0.039-0.08,0.089-0.149,0.148-0.208c0.118-0.119,0.205-0.198,0.257-0.238c0-0.007,0-0.013,0-0.021
			c0-0.06,0.063-0.103,0.188-0.128l-0.02-0.05c0-0.039,0.02-0.069,0.06-0.089c0.006-0.007,0.02-0.01,0.04-0.01l-0.03-0.05
			c-0.007-0.099,0.03-0.155,0.109-0.169c0-0.013,0-0.026,0-0.039c0-0.079,0.006-0.126,0.02-0.139c0.02-0.026,0.053-0.04,0.1-0.04
			c0.013-0.046,0.02-0.089,0.02-0.129c-0.007-0.112-0.083-0.261-0.229-0.446c-0.139-0.185-0.211-0.373-0.218-0.564
			c-0.007-0.278,0.079-0.575,0.258-0.892c0.258-0.462,0.64-0.694,1.148-0.694c0.027,0,0.06,0.01,0.1,0.03
			c0.046,0.02,0.083,0.03,0.109,0.03c0.046,0,0.132-0.016,0.259-0.05c0.098-0.178,0.461-0.495,1.088-0.951
			c0.086-0.06,0.174-0.115,0.258-0.168c0.072-0.146,0.176-0.281,0.308-0.407c0.312-0.303,0.767-0.524,1.368-0.664
			c0.02-0.026,0.042-0.056,0.068-0.089c0.191-0.178,0.416-0.271,0.674-0.277c0.111-0.006,0.218,0.006,0.316,0.04
			c0.025-0.007,0.061-0.013,0.1-0.02c0.025-0.006,0.054-0.01,0.08-0.01c0.006-0.099,0.035-0.198,0.088-0.297
			c0.047-0.099,0.093-0.162,0.14-0.188c0.422,0.033,0.763,0.112,1.021,0.237c0.039-0.007,0.08-0.007,0.119,0
			c0.025,0.007,0.112,0.033,0.258,0.079c0.104,0.033,0.205,0.05,0.297,0.05c0.027,0,0.072-0.01,0.139-0.03
			c0.073-0.02,0.119-0.03,0.141-0.03c0.217,0,0.451,0.053,0.703,0.158c0.111,0.007,0.215,0.037,0.307,0.089
			c-0.039-0.006-0.086-0.01-0.139-0.01c0.092,0.046,0.188,0.099,0.286,0.159c0-0.007,0-0.013,0-0.02v-0.01
			c0.021,0.02,0.037,0.04,0.05,0.06c0.008,0,0.01,0.003,0.01,0.01c0.015-0.245,0.086-0.307,0.22-0.188
			c0.024,0.026,0.085,0.096,0.179,0.208c0.085,0.079,0.139,0.119,0.157,0.119c0.026,0,0.06-0.013,0.101-0.04
			c0.047-0.02,0.082-0.03,0.107-0.03c0.126,0,0.311,0.08,0.557,0.238c0.163,0.112,0.28,0.201,0.346,0.267
			c0.033,0.033,0.076,0.086,0.129,0.159c0.053,0.046,0.119,0.062,0.199,0.05c0.196-0.034,0.321-0.03,0.375,0.01
			c0.026,0.02,0.051,0.082,0.069,0.188c0.033,0.159,0.086,0.261,0.159,0.307c0.02,0.013,0.045,0.033,0.079,0.06h0.147
			c0.06,0.092,0.115,0.185,0.168,0.277c-0.039-0.046-0.096-0.106-0.168-0.178H106c0.055,0.059,0.105,0.145,0.158,0.257l0.06,0.109
			c0.007-0.02,0.017-0.04,0.03-0.06c0.072,0.105,0.139,0.211,0.197,0.317c-0.006,0.013-0.014,0.03-0.02,0.05
			c0.032,0.04,0.072,0.083,0.119,0.128c0.111,0.119,0.178,0.211,0.197,0.277c0.007,0.013,0.014,0.036,0.02,0.069
			c0.04,0.073,0.086,0.143,0.139,0.208c-0.024-0.026-0.049-0.049-0.068-0.069l0.01,0.04c-0.013,0.013-0.021,0.03-0.029,0.05
			c0.008,0.053,0.018,0.105,0.029,0.159h0.109c0.021-0.021,0.014-0.06-0.02-0.119c0.164,0.277,0.307,0.508,0.426,0.693
			c0.053,0.132,0.072,0.413,0.06,0.842l-0.01-0.386c-0.013-0.014-0.033-0.02-0.06-0.02c0.012,0.046,0.022,0.088,0.029,0.128
			c0,0.152-0.054,0.36-0.159,0.625c0.033,0.092,0.044,0.194,0.03,0.307h0.148c0,0.046-0.004,0.095-0.01,0.148
			c0.006,0.125,0.131,0.485,0.375,1.08c0.086,0.006,0.176,0.013,0.268,0.02c0.324,0.225,0.503,0.356,0.535,0.396
			c0.072,0.066,0.109,0.179,0.109,0.337c0.006,0.086-0.054,0.311-0.179,0.673c-0.021,0.066-0.04,0.126-0.06,0.178
			c0.1,0.211,0.19,0.423,0.276,0.634c0,0.086-0.028,0.162-0.089,0.228c-0.055,0.066-0.079,0.138-0.079,0.218
			c0,0.046,0.036,0.142,0.108,0.287c0.072-0.013,0.147-0.026,0.228-0.04v-0.049l0.159,0.01c0.111,0.013,0.175,0.03,0.188,0.049
			c-0.186,0.053-0.354,0.099-0.506,0.139c0.072,0.119,0.168,0.264,0.287,0.436c0.305,0.449,0.459,0.733,0.467,0.853
			c0.006,0.376,0.164,0.693,0.476,0.951c0.291,0.264,0.442,0.528,0.454,0.792c0,0.125-0.021,0.281-0.068,0.466
			c0.021,0.026,0.044,0.056,0.068,0.089c0.537-0.145,0.863-0.152,0.982-0.02c0.006,0.02,0.006,0.029,0,0.029
			c-0.021-0.014-0.076-0.02-0.17-0.02c-0.211,0-0.465,0.029-0.763,0.089c0.086,0.139,0.175,0.313,0.269,0.525
			c0.053,0.006,0.082,0.017,0.09,0.029l-0.051,0.039c-0.007,0-0.01,0.004-0.01,0.011v0.01c0.064,0.185,0.128,0.376,0.188,0.574
			c0.158,0.1,0.265,0.215,0.316,0.348c-0.021,0.032-0.046,0.052-0.078,0.059c-0.054,0-0.104,0-0.15,0
			c0.055,0.211,0.101,0.41,0.14,0.594c0.021,0.066,0.03,0.113,0.03,0.14c0,0.007,0,0.013,0,0.02
			c0.007,0.046,0.017,0.096,0.029,0.148c-0.014-0.013-0.029-0.026-0.051-0.04c0,0.04-0.002,0.083-0.01,0.129
			c0.027,0.172,0.105,0.403,0.238,0.693l0.02,0.04c0.008-0.013,0.014-0.032,0.021-0.06c0.02,0.072,0.041,0.139,0.068,0.198
			c0.079,0.054,0.172,0.116,0.277,0.188c0.48,0.363,0.729,0.75,0.742,1.159c0.441-0.14,0.723-0.142,0.842-0.01
			c0.034,0.032,0.05,0.125,0.05,0.276c0.015,0.18-0.003,0.308-0.05,0.387c-0.052,0.086-0.154,0.169-0.307,0.248v0.039
			c0.146,0,0.316-0.003,0.516-0.01c0.502-0.026,0.816,0.178,0.941,0.614c0.006,0.021,0.082,0.086,0.228,0.198
			c0.198,0.146,0.406,0.39,0.624,0.732c0.111,0.192,0.236,0.404,0.376,0.635c0.021,0.014,0.04,0.029,0.06,0.049
			c0.199,0.186,0.377,0.42,0.535,0.703c0.073,0.034,0.144,0.08,0.209,0.14c-0.055-0.026-0.113-0.05-0.18-0.069
			c0.027,0.033,0.047,0.066,0.061,0.099c0.072,0.152,0.168,0.36,0.287,0.624c0.014,0.007,0.026,0.01,0.039,0.01
			c0.014-0.132,0.018-0.241,0.012-0.326c0.07,0.172,0.111,0.389,0.117,0.654c0.41,0.706,0.7,1.287,0.871,1.743
			c0.192,0.542,0.295,1.112,0.31,1.714c0.006,0.422-0.066,0.766-0.22,1.029c0.14,0.04,0.23,0.087,0.277,0.14
			c0.008,0.146-0.05,0.261-0.169,0.347l-0.188,0.039l0.625,0.01l0.021,0.139c-0.013,0.04-0.136,0.09-0.366,0.149l0.229,0.04
			C118.436,87.959,118.516,87.995,118.521,88.035L118.521,88.035z M95.865,61.812c-0.014,0-0.025,0.003-0.04,0.01l-0.021-0.02
			c0.027-0.013,0.076-0.04,0.149-0.079v-0.01c-0.06,0.02-0.103,0.043-0.13,0.069c-0.02,0.013-0.035,0.036-0.049,0.069v0.03
			c0.047-0.02,0.082-0.037,0.108-0.05l-0.021-0.01v-0.009H95.865z M95.775,61.742c-0.071,0.086-0.111,0.139-0.118,0.159
			c-0.007,0.013-0.011,0.043-0.011,0.089c0.021-0.007,0.039-0.013,0.062-0.02c0.024-0.08,0.056-0.156,0.088-0.229L95.775,61.742
			L95.775,61.742z M95.887,61.891c-0.027,0.013-0.051,0.026-0.07,0.04c0.021-0.006,0.043-0.014,0.07-0.02
			C95.887,61.904,95.887,61.897,95.887,61.891z M95.618,61.95c-0.048,0.007-0.076,0.033-0.089,0.079
			c0.025-0.006,0.056-0.016,0.089-0.029C95.618,61.98,95.618,61.964,95.618,61.95z M97.798,60.276
			c0.14-0.139,0.298-0.248,0.476-0.327c-0.072,0.02-0.144,0.043-0.209,0.069c-0.117,0.046-0.299,0.155-0.543,0.327v0.02
			C97.573,60.346,97.665,60.316,97.798,60.276z M97.995,60.207c0.054-0.02,0.112-0.04,0.179-0.059
			c0.014-0.006,0.023-0.014,0.029-0.02v-0.01c-0.053-0.006-0.119,0.02-0.198,0.079c-0.006,0.007-0.017,0.014-0.028,0.02
			C97.982,60.216,97.988,60.213,97.995,60.207z M97.521,60.455c-0.015-0.007-0.024-0.007-0.03,0c-0.025,0.02-0.05,0.043-0.069,0.07
			c0.006,0,0.014-0.004,0.02-0.011c0.033-0.02,0.063-0.039,0.091-0.059H97.521z M97.312,60.563
			c-0.111,0.072-0.205,0.148-0.276,0.228c0.071-0.053,0.147-0.106,0.228-0.159C97.275,60.613,97.292,60.59,97.312,60.563z
			 M97.48,60.752l0.01,0.04c0.006-0.007,0.014-0.01,0.02-0.01c-0.006-0.026-0.014-0.04-0.02-0.04L97.48,60.752z M97.184,60.959V60.9
			c-0.039,0-0.068,0.037-0.088,0.109C97.12,60.996,97.15,60.979,97.184,60.959z M97.212,60.841c0.009,0,0.015,0.003,0.021,0.01
			c0-0.02,0-0.04,0-0.06c-0.025,0.006-0.043,0.016-0.049,0.03L97.212,60.841z M96.966,61.039c-0.026,0.013-0.06,0.049-0.1,0.109
			c0.032-0.02,0.065-0.04,0.1-0.06V61.039z M96.708,61.218c-0.021,0.013-0.037,0.033-0.05,0.059c0.02-0.014,0.039-0.026,0.06-0.04
			C96.711,61.237,96.708,61.23,96.708,61.218z M96.736,61.198l0.029-0.03c0-0.04,0.008-0.076,0.021-0.109
			c-0.025,0.02-0.046,0.057-0.061,0.109L96.736,61.198z M96.618,61.405l0.01-0.01c0-0.007-0.003-0.01-0.01-0.01l-0.011,0.01
			L96.618,61.405z M96.607,61.168c-0.025,0-0.064,0.02-0.119,0.06c-0.045,0.039-0.077,0.069-0.098,0.089l-0.021,0.03
			c0.092,0,0.147-0.02,0.168-0.06C96.579,61.214,96.604,61.174,96.607,61.168z M96.568,61.485c0-0.007,0.004-0.013,0.011-0.02
			c0-0.007,0.003-0.01,0.01-0.01h-0.021l-0.01,0.03H96.568L96.568,61.485z M96.391,61.396l-0.078,0.05l0.01,0.03
			c0.021,0,0.046-0.01,0.08-0.03c0.039-0.02,0.064-0.036,0.078-0.05H96.391z M96.123,61.515c-0.006,0-0.014,0-0.02,0l-0.061,0.02
			c0.04,0,0.068-0.007,0.089-0.02H96.123z M96.391,61.495c0.002-0.013,0.012-0.026,0.03-0.04h-0.01
			C96.396,61.455,96.393,61.468,96.391,61.495z M96.271,61.644v0.01c0.006,0,0.011-0.003,0.011-0.01H96.271z M96.432,61.644
			c0,0.006,0,0.016,0,0.029l0.01,0.02c0-0.006,0.002-0.01,0.01-0.01C96.443,61.669,96.438,61.657,96.432,61.644z M100.234,59.603
			c0.007-0.007,0.017-0.013,0.029-0.02c-0.021-0.02-0.033-0.02-0.039,0L100.234,59.603z M100.878,59.395l0.011,0.01
			c0.032,0.007,0.072,0.014,0.118,0.02c0.033,0.007,0.066,0.014,0.101,0.021c-0.033-0.026-0.061-0.053-0.08-0.08
			c-0.065-0.006-0.135-0.01-0.207-0.01l-0.01,0.01C100.836,59.371,100.857,59.381,100.878,59.395z M100.76,59.315
			c0.047-0.026,0.096-0.043,0.147-0.05c-0.099-0.079-0.185-0.129-0.257-0.148c-0.112,0.007-0.225,0.017-0.338,0.03
			c-0.225,0.02-0.34,0.042-0.347,0.069v0.049c0.173,0.026,0.327,0.06,0.466,0.099c0.073-0.013,0.148-0.026,0.229-0.04
			C100.693,59.319,100.727,59.315,100.76,59.315z M101.273,59.335h-0.078c0.006,0.006,0.014,0.013,0.02,0.02
			c0.034,0.006,0.07,0.016,0.109,0.03v-0.01C101.324,59.361,101.309,59.348,101.273,59.335z M101.295,59.414v-0.01h-0.01
			L101.295,59.414z M101.482,59.494c-0.021-0.007-0.037-0.01-0.049-0.01c0.031,0.006,0.06,0.013,0.078,0.02
			C101.506,59.497,101.496,59.494,101.482,59.494z M101.514,59.444h0.01c0.025,0.013,0.049,0.023,0.067,0.029
			c0.021,0.007,0.037,0.017,0.05,0.03v-0.049c-0.013-0.014-0.056-0.02-0.127-0.02V59.444z M101.811,59.513
			c-0.033-0.02-0.062-0.033-0.09-0.04c0,0.02,0,0.04,0,0.06c0.033,0.014,0.062,0.026,0.09,0.04c0.02,0,0.035,0,0.049,0v-0.01
			C101.859,59.55,101.843,59.533,101.811,59.513z M101.909,59.503h0.437c0.006,0,0.012,0,0.02,0l0.01-0.01
			c-0.059-0.04-0.109-0.063-0.148-0.07c-0.053-0.02-0.186-0.023-0.396-0.01L101.909,59.503z M101.641,59.533v-0.03
			c-0.006,0-0.013,0-0.02,0C101.628,59.51,101.635,59.52,101.641,59.533z M101.73,59.563c0.02,0,0.039,0.003,0.06,0.01
			c-0.021-0.013-0.04-0.023-0.06-0.03C101.73,59.55,101.73,59.557,101.73,59.563z M98.956,59.612
			c-0.19,0.066-0.326,0.139-0.405,0.218c-0.007,0.006-0.014,0.013-0.02,0.02c0.013-0.006,0.025-0.01,0.039-0.01
			c0.025-0.006,0.06-0.016,0.099-0.03c0.112-0.092,0.218-0.161,0.317-0.208L98.956,59.612L98.956,59.612z M98.867,59.761
			c0.04-0.033,0.105-0.066,0.197-0.099c-0.014,0.02-0.028,0.04-0.049,0.06c0.146-0.033,0.307-0.069,0.484-0.109
			c-0.15,0-0.268,0.007-0.346,0.02c0.052-0.02,0.111-0.037,0.178-0.049c-0.047,0.006-0.094,0.017-0.139,0.029
			c-0.205,0.047-0.369,0.113-0.496,0.198C98.745,59.791,98.802,59.774,98.867,59.761z M99.462,59.553c-0.139,0-0.231,0-0.276,0
			c-0.041,0-0.074,0.006-0.1,0.02l-0.029,0.01c0.025,0,0.148-0.007,0.365-0.02C99.436,59.557,99.448,59.553,99.462,59.553z
			 M99.491,59.751c0.007-0.007,0.014-0.01,0.021-0.01c0.014-0.007,0.022-0.01,0.029-0.01h-0.04L99.491,59.751z M99.738,59.811
			c0.027-0.013,0.054-0.029,0.08-0.049c-0.008-0.013-0.01-0.026-0.01-0.04c-0.026,0.006-0.057,0.02-0.09,0.04
			C99.721,59.774,99.727,59.791,99.738,59.811z M99.729,59.692c0.015,0,0.026-0.003,0.039-0.01h-0.01
			C99.753,59.682,99.743,59.685,99.729,59.692z M99.62,59.86c-0.015-0.013-0.022-0.023-0.03-0.029
			c-0.013,0.006-0.021,0.017-0.029,0.029c0.021,0.007,0.037,0.014,0.051,0.02l0.01-0.01L99.62,59.86L99.62,59.86z M102.038,59.583
			c0.024,0,0.052,0,0.079,0l0.01-0.01c-0.025,0-0.047,0-0.061,0C102.055,59.573,102.044,59.576,102.038,59.583z M102.206,59.583
			l0.01-0.01c-0.014,0-0.026,0.003-0.039,0.01C102.184,59.583,102.191,59.583,102.206,59.583z M102.643,59.692
			c0.014,0.02,0.025,0.042,0.039,0.069c0.065,0,0.129,0,0.188,0C102.805,59.735,102.729,59.711,102.643,59.692z M103.117,59.771
			c-0.026-0.013-0.057-0.029-0.09-0.049c-0.065-0.04-0.115-0.066-0.147-0.08c0.04,0.027,0.093,0.062,0.158,0.109
			c0.007,0.006,0.013,0.013,0.021,0.02C103.077,59.771,103.098,59.771,103.117,59.771L103.117,59.771z M103.256,59.791
			c0.026-0.06,0.086-0.093,0.18-0.099c-0.033-0.033-0.051-0.06-0.051-0.08c-0.072-0.007-0.119,0.02-0.139,0.08
			c-0.008,0.013-0.01,0.042-0.01,0.089C103.243,59.781,103.25,59.784,103.256,59.791z M103.504,59.82h0.01
			c-0.014-0.013-0.02-0.023-0.02-0.029c-0.086-0.04-0.146-0.04-0.18,0C103.389,59.797,103.45,59.807,103.504,59.82z M103.562,59.801
			c-0.026-0.04-0.037-0.049-0.028-0.03c0,0.02,0.006,0.04,0.021,0.06c0.024,0.006,0.045,0.013,0.059,0.02
			C103.605,59.837,103.59,59.82,103.562,59.801L103.562,59.801z M103.959,59.9l0.021-0.03c-0.08,0-0.127,0.007-0.141,0.02
			L103.959,59.9z M103.83,59.979c-0.025,0.007-0.046,0.013-0.061,0.02c0.021,0,0.037,0.003,0.051,0.01
			c0.06-0.013,0.093-0.023,0.1-0.03C103.913,59.972,103.884,59.972,103.83,59.979z M103.891,60.167l0.01-0.01h-0.021L103.891,60.167
			z M103.969,60.029c0.047,0.006,0.094,0.023,0.141,0.049h0.01c-0.055-0.04-0.1-0.066-0.139-0.079L103.969,60.029z M103.534,59.89
			c-0.062-0.013-0.119-0.026-0.181-0.04c0.062,0.04,0.117,0.08,0.17,0.119c0.006-0.02,0.011-0.033,0.011-0.04
			C103.534,59.917,103.534,59.903,103.534,59.89z M103.969,60.207l0.021,0.01c0.02,0.014,0.039,0.02,0.06,0.02
			c-0.021-0.02-0.04-0.033-0.06-0.04C103.982,60.197,103.977,60.201,103.969,60.207z M103.027,60.009
			c-0.039-0.007-0.072-0.01-0.098-0.01c0.031,0.013,0.074,0.023,0.127,0.03C103.045,60.022,103.035,60.016,103.027,60.009z
			 M102.909,60.059h-0.011v0.01h0.011V60.059z M102.463,59.959h-0.02v0.01c0.007,0,0.014,0,0.02,0V59.959z M105.257,60.782
			c0.027-0.007,0.043-0.017,0.05-0.03c-0.013-0.014-0.035-0.03-0.068-0.05c-0.026-0.02-0.057-0.033-0.09-0.04
			c0.008,0.026,0.031,0.069,0.069,0.129L105.257,60.782z M105.158,60.593c0.04,0.053,0.107,0.116,0.208,0.188
			c0.079,0.06,0.146,0.099,0.198,0.119v-0.139c-0.015-0.079-0.03-0.132-0.051-0.159c-0.025-0.04-0.121-0.049-0.287-0.03
			L105.158,60.593z M105.05,60.683c0.025,0.053,0.039,0.109,0.039,0.168h0.04c0.006,0.026,0.01,0.013,0.01-0.04
			c0-0.033-0.014-0.066-0.039-0.1C105.079,60.692,105.062,60.683,105.05,60.683z M105.475,61.009v-0.03h-0.099
			C105.423,61,105.455,61.009,105.475,61.009z M105.465,60.9c-0.04-0.033-0.074-0.053-0.109-0.059c-0.02,0-0.059,0.003-0.117,0.01
			l0.049,0.108C105.333,60.954,105.393,60.934,105.465,60.9z M104.207,60.019c0.04,0.066,0.079,0.099,0.119,0.099
			c0-0.026-0.027-0.066-0.079-0.119c-0.04-0.046-0.073-0.08-0.101-0.099C104.161,59.933,104.182,59.972,104.207,60.019z
			 M104.139,59.979c-0.027-0.02-0.043-0.033-0.051-0.04c-0.02-0.013-0.05-0.017-0.089-0.01l0.129,0.069L104.139,59.979z
			 M104.207,60.236c-0.02-0.006-0.036-0.01-0.05-0.01c0.014,0.014,0.026,0.023,0.04,0.03C104.197,60.25,104.2,60.243,104.207,60.236
			z M104.207,60.475c0.007,0.006,0.01,0.013,0.01,0.02h0.01c-0.006-0.014-0.013-0.026-0.02-0.04
			C104.207,60.461,104.207,60.468,104.207,60.475z M104.505,60.247c0.032,0.033,0.072,0.049,0.118,0.049
			c-0.053-0.06-0.107-0.095-0.169-0.109l0.01,0.01C104.473,60.204,104.482,60.22,104.505,60.247z M104.346,60.385
			c0.014-0.013,0.022-0.026,0.03-0.04c-0.026-0.033-0.05-0.043-0.069-0.03l-0.011,0.03
			C104.316,60.359,104.333,60.372,104.346,60.385z M104.436,60.464c0.014,0.013,0.022,0.023,0.028,0.03
			c0-0.014-0.002-0.026-0.01-0.04c-0.006-0.026-0.013-0.042-0.021-0.049v0.04c-0.007-0.013-0.01-0.01-0.01,0.01L104.436,60.464z
			 M104.831,60.494c-0.033-0.072-0.062-0.122-0.089-0.148c0.02,0.053,0.043,0.102,0.068,0.148H104.831z M104.971,60.534
			c-0.046-0.04-0.076-0.06-0.09-0.06l0.029,0.06H104.971z M105.02,60.633l0.021-0.02c-0.015-0.006-0.028-0.016-0.049-0.03
			c-0.026-0.006-0.05-0.006-0.069,0C104.954,60.597,104.986,60.613,105.02,60.633z M104.831,60.782
			c0.006,0.006,0.015,0.01,0.021,0.01c-0.021-0.034-0.033-0.05-0.039-0.05C104.812,60.748,104.816,60.762,104.831,60.782z
			 M104.871,60.841c-0.008-0.007-0.02-0.014-0.04-0.02l0.01,0.02H104.871z M105.793,61.208c0.032,0.059,0.075,0.142,0.128,0.248
			c0.079,0.119,0.158,0.188,0.237,0.208c0.007-0.02,0.014-0.036,0.02-0.05c-0.039-0.105-0.078-0.188-0.117-0.247
			c-0.047-0.066-0.097-0.123-0.148-0.168C105.865,61.198,105.825,61.201,105.793,61.208z M105.555,61.218c-0.014,0-0.025,0-0.039,0
			c0.014,0.02,0.022,0.029,0.029,0.029L105.555,61.218L105.555,61.218z M105.634,61.267c0,0.086,0.023,0.159,0.069,0.218l0.029-0.01
			c0.021-0.007,0.039-0.017,0.061-0.03l-0.159-0.198V61.267z M105.713,61.554l0.01,0.01c0.014,0,0.03,0,0.051,0
			c0.025-0.007,0.039-0.02,0.039-0.04c-0.026-0.007-0.047-0.007-0.06,0C105.738,61.524,105.727,61.535,105.713,61.554z
			 M105.574,61.455c0,0.007,0,0.017,0,0.03c0.006,0.006,0.014,0.013,0.02,0.02c0-0.027-0.006-0.046-0.02-0.06V61.455z
			 M105.771,61.673c0.014,0.007,0.022,0.017,0.03,0.03c0.007-0.013,0.017-0.043,0.029-0.089h-0.079
			C105.759,61.634,105.766,61.653,105.771,61.673z M105.523,61.425c0.008-0.013,0.011-0.037,0.011-0.069
			c0-0.013-0.011-0.03-0.029-0.05c-0.021-0.02-0.043-0.033-0.069-0.04l-0.029,0.02C105.439,61.326,105.479,61.373,105.523,61.425z
			 M105.971,61.852c0.014-0.02,0.021-0.056,0.021-0.109l-0.03,0.01l-0.01,0.069L105.971,61.852z M105.872,61.762
			c0-0.02-0.004-0.037-0.011-0.049v0.01c-0.008,0.007-0.014,0.013-0.021,0.02C105.85,61.749,105.857,61.756,105.872,61.762z
			 M106.396,62.01c-0.008-0.02-0.015-0.039-0.021-0.06c-0.007,0.007-0.011,0.013-0.011,0.021L106.396,62.01z M106.188,61.822
			c-0.021-0.02-0.035-0.037-0.049-0.05c-0.014-0.02-0.027-0.03-0.041-0.03c0,0.046,0.008,0.08,0.021,0.099l0.029-0.01
			C106.162,61.832,106.175,61.828,106.188,61.822z M106.277,62.178c0.065,0.013,0.109,0.02,0.129,0.02
			c-0.02-0.046-0.057-0.086-0.109-0.119c-0.025,0.026-0.056,0.053-0.089,0.08v0.01C106.229,62.175,106.251,62.178,106.277,62.178z
			 M106.357,62.268c-0.021-0.02-0.062-0.033-0.119-0.04c0.006,0.026,0.025,0.056,0.059,0.089
			C106.331,62.297,106.352,62.281,106.357,62.268z M106.445,61.931c0.066,0.119,0.143,0.261,0.228,0.426
			c0.015-0.006,0.027-0.01,0.04-0.01c-0.013-0.059-0.052-0.139-0.117-0.238C106.521,62.003,106.473,61.944,106.445,61.931z
			 M110.211,72.035c0,0.093-0.018,0.188-0.05,0.287c-0.015,0.033-0.021,0.062-0.021,0.09c0.026,0.026,0.053,0.053,0.08,0.079
			c0.059-0.093,0.088-0.218,0.088-0.376c-0.014-0.146-0.053-0.269-0.117-0.367c-0.041-0.06-0.088-0.105-0.141-0.139
			C110.145,71.735,110.197,71.877,110.211,72.035z M107.148,63.367c0.008,0.013,0.018,0.03,0.031,0.05h0.028
			c-0.007-0.08-0.033-0.162-0.079-0.248c-0.047-0.093-0.093-0.139-0.139-0.139c0,0.079,0.046,0.188,0.139,0.327L107.148,63.367z
			 M106.564,62.515c-0.014,0-0.022,0-0.029,0v0.03c0.021,0.013,0.04,0.03,0.061,0.049C106.588,62.568,106.578,62.542,106.564,62.515
			L106.564,62.515z M106.792,62.912c0.008,0.026,0.015,0.04,0.021,0.04v0.01c0,0.013,0.004,0.02,0.011,0.02
			c0-0.013-0.003-0.037-0.011-0.069v-0.01h-0.021V62.912z M106.893,62.912c0.006,0.026,0.016,0.053,0.028,0.079l0.03-0.07
			C106.932,62.915,106.911,62.912,106.893,62.912L106.893,62.912z M106.309,62.495l-0.012-0.01v0.01H106.309z M106.445,62.356
			c-0.008-0.02-0.014-0.036-0.02-0.049c-0.014,0.006-0.047,0.026-0.1,0.059c0.006,0.007,0.017,0.017,0.029,0.03
			C106.383,62.383,106.413,62.37,106.445,62.356L106.445,62.356z M106.348,62.584l-0.029,0.099c0.02,0.053,0.043,0.089,0.068,0.109
			h0.09v-0.069c-0.033-0.047-0.066-0.096-0.1-0.149C106.363,62.575,106.354,62.578,106.348,62.584z M106.812,63.06h0.01
			c0-0.006-0.004-0.013-0.01-0.02V63.06z M106.604,63.06c-0.006,0-0.01,0.004-0.01,0.011l0.01,0.01V63.06z M106.575,62.961
			c-0.015,0.007-0.023,0.013-0.029,0.02c0.013,0.02,0.022,0.036,0.029,0.049c0.021-0.02,0.028-0.043,0.028-0.069H106.575z
			 M107.012,63.812c-0.021,0-0.037,0.004-0.051,0.011c0.014,0.013,0.02,0.026,0.02,0.039c0.015,0.046,0.024,0.106,0.031,0.179
			c0.006,0.033,0.016,0.065,0.028,0.099h0.01c0.015-0.006,0.023-0.013,0.03-0.02c-0.025-0.139-0.051-0.235-0.068-0.288
			C107.012,63.826,107.012,63.819,107.012,63.812z M106.941,63.704c0.007,0,0.017,0,0.029,0c-0.021-0.046-0.039-0.083-0.061-0.109
			C106.919,63.628,106.93,63.665,106.941,63.704L106.941,63.704z M106.842,63.833c0,0.026-0.003,0.053-0.01,0.079v0.01
			c0.025,0.08,0.057,0.146,0.089,0.198c0.009,0.006,0.019,0.017,0.03,0.029c-0.026-0.119-0.047-0.204-0.061-0.257
			c-0.006-0.026-0.014-0.049-0.02-0.07c-0.014,0-0.023,0-0.03,0L106.842,63.833L106.842,63.833z M107.18,63.773
			c0.021,0.119,0.029,0.215,0.029,0.287c0,0.046-0.018,0.146-0.05,0.297c0.007,0.007,0.01,0.013,0.01,0.02
			c0.046-0.066,0.08-0.182,0.101-0.347c0.013-0.099,0.02-0.194,0.02-0.287c-0.027,0.006-0.053,0.013-0.079,0.02
			C107.195,63.764,107.186,63.767,107.18,63.773z M107.159,63.625c-0.013-0.025-0.022-0.045-0.029-0.059
			c0.007,0.014,0.015,0.037,0.021,0.069L107.159,63.625z M107.1,63.585c-0.025-0.092-0.078-0.125-0.158-0.099
			c0.047,0.053,0.09,0.113,0.129,0.179l0.011,0.01c0.013-0.007,0.026-0.013,0.039-0.02C107.111,63.628,107.105,63.605,107.1,63.585z
			 M107.119,65.814c0.015,0.013,0.025,0.027,0.04,0.04c0.04,0.033,0.065,0.06,0.079,0.08c0.047-0.073,0.072-0.132,0.08-0.179
			c-0.08,0.007-0.146,0.021-0.199,0.04V65.814z M107.328,65.923c-0.008,0.033-0.018,0.062-0.029,0.088c0.02,0,0.042,0,0.069,0
			c0-0.053-0.005-0.108-0.011-0.168C107.352,65.87,107.341,65.896,107.328,65.923z M106.893,65.091c0,0.033,0.006,0.066,0.02,0.099
			c0.014-0.006,0.027-0.01,0.04-0.01C106.932,65.141,106.911,65.111,106.893,65.091z M106.991,65.061
			c0.013,0.02,0.024,0.046,0.038,0.08h0.021c0-0.027-0.006-0.053-0.021-0.08C107.012,65.061,106.997,65.061,106.991,65.061z
			 M107.613,66.458h-0.01l0.01,0.01V66.458z M107.812,66.151c0.033,0.092,0.069,0.188,0.108,0.287
			c0.065-0.02,0.136-0.036,0.208-0.049c-0.007-0.033-0.021-0.079-0.049-0.139c-0.04-0.06-0.061-0.092-0.061-0.099H107.812z
			 M107.348,66.151h-0.099c0.006,0.013,0.013,0.03,0.021,0.049l0.068-0.01C107.344,66.178,107.348,66.164,107.348,66.151z
			 M107.417,66.458c-0.026-0.026-0.054-0.05-0.079-0.069c0.006,0.026,0.018,0.053,0.03,0.079
			C107.38,66.461,107.396,66.458,107.417,66.458z M107.525,66.398l0.05-0.05c-0.04,0-0.076,0-0.109,0
			C107.479,66.362,107.499,66.379,107.525,66.398z M107.477,66.686h0.06c-0.021-0.007-0.039-0.01-0.06-0.01V66.686z M107.456,66.676
			h-0.011v0.01h0.021L107.456,66.676z M107.596,67.072c0.008,0.026,0.018,0.056,0.029,0.089c0.007-0.006,0.014-0.01,0.02-0.01
			c0.008-0.026,0.008-0.056,0-0.089C107.625,67.069,107.607,67.072,107.596,67.072z M107.793,67.023
			c-0.033,0.013-0.064,0.023-0.1,0.029c0.015,0.04,0.029,0.083,0.051,0.128c0.013,0,0.029,0,0.049,0V67.023z M108.229,67.142
			c0.133,0,0.22-0.023,0.258-0.069c0.055-0.053,0.084-0.195,0.091-0.426l-0.04-0.06c-0.172,0.119-0.311,0.214-0.416,0.287
			C108.152,66.96,108.189,67.049,108.229,67.142z M108.141,66.686c0.026-0.06,0.039-0.106,0.039-0.139
			c-0.078-0.006-0.147-0.01-0.207-0.01c0.025,0.066,0.057,0.135,0.088,0.208C108.087,66.726,108.113,66.706,108.141,66.686z
			 M108.507,68.063c-0.053-0.007-0.079-0.003-0.079,0.01v-0.02c-0.007,0.006-0.011,0.062-0.011,0.168
			c0,0.099,0.021,0.158,0.06,0.178c0.033,0.013,0.051,0.022,0.051,0.029l0.039,0.04c0.033-0.033,0.051-0.165,0.051-0.396
			C108.568,68.066,108.533,68.063,108.507,68.063z M108.357,69.043c0.006,0,0.017,0,0.029,0c0-0.006,0-0.013,0-0.02
			C108.374,69.03,108.363,69.037,108.357,69.043z M109.189,70.183c-0.094-0.146-0.197-0.222-0.317-0.228
			c-0.006,0.033-0.032,0.103-0.078,0.208c0,0.007-0.004,0.023-0.01,0.049c0.118,0.007,0.237,0.053,0.356,0.139
			c0.064,0.046,0.129,0.099,0.188,0.158C109.329,70.417,109.282,70.309,109.189,70.183z M109.102,70.768
			c0.014,0.026,0.026,0.053,0.039,0.079v-0.1L109.102,70.768z M108.616,70.015c0.006,0.02,0.012,0.039,0.021,0.059
			c0.025-0.046,0.055-0.099,0.088-0.158C108.691,69.936,108.654,69.968,108.616,70.015z M109.021,70.45c-0.047,0-0.09,0-0.129,0
			c0.008,0.007,0.014,0.014,0.02,0.02c0-0.006,0.004-0.01,0.011-0.01L109.021,70.45z M108.902,70.866
			c0.02,0.073,0.037,0.146,0.05,0.219c0.032,0.006,0.069,0.013,0.108,0.02c-0.021-0.073-0.049-0.142-0.09-0.208
			c-0.013-0.02-0.021-0.036-0.029-0.05L108.902,70.866z M109.062,71.54h-0.012v0.01L109.062,71.54z M109.605,71.649v0.199
			l0.248,0.099v-0.089C109.809,71.705,109.725,71.636,109.605,71.649z M109.934,72.58c0,0.007,0.006,0.014,0.021,0.021
			c0.151,0,0.175-0.007,0.069-0.021C109.996,72.58,109.966,72.58,109.934,72.58z M109.734,72.561l-0.021-0.01
			c-0.013,0.02-0.021,0.043-0.021,0.069l0.07-0.01C109.752,72.59,109.742,72.574,109.734,72.561z M109.537,72.521
			c-0.008,0-0.014,0-0.02,0c0,0.006,0,0.016,0,0.029c0-0.007,0.002-0.014,0.01-0.02L109.537,72.521z M109.873,72.857
			c-0.006-0.013-0.01-0.022-0.01-0.029c-0.065,0-0.121,0-0.168,0c0.013,0.026,0.033,0.053,0.059,0.079
			c0.04-0.013,0.08-0.026,0.119-0.04V72.857z M109.854,72.907c-0.031,0.007-0.062,0.017-0.088,0.029
			c0.008,0.014,0.014,0.026,0.02,0.04c0.02-0.014,0.037-0.026,0.05-0.04L109.854,72.907z M109.744,73.294
			c-0.025,0.02-0.049,0.039-0.069,0.06c0.015,0.046,0.027,0.092,0.04,0.139c0.033-0.014,0.061-0.033,0.079-0.061h0.011
			c-0.007-0.006-0.013-0.012-0.021-0.02c-0.021-0.013-0.032-0.043-0.04-0.089V73.294L109.744,73.294z M109.805,73.264
			c0-0.006-0.003-0.01-0.011-0.01c-0.012,0.006-0.021,0.017-0.028,0.029h0.06C109.824,73.277,109.816,73.271,109.805,73.264z
			 M109.814,73.779v0.039c-0.008,0.02-0.012,0.04-0.012,0.06c0,0.013,0.004,0.03,0.012,0.05c0.006,0,0.02,0.007,0.039,0.02
			c0.006-0.026,0.014-0.049,0.021-0.069c0.013-0.026,0.022-0.056,0.028-0.089C109.877,73.782,109.848,73.779,109.814,73.779z
			 M110.398,73.273c-0.006-0.006-0.01-0.013-0.01-0.02c0-0.178-0.008-0.284-0.021-0.317c-0.012-0.04-0.035-0.082-0.068-0.128
			c-0.014,0-0.023,0-0.029,0c-0.014,0.039-0.026,0.082-0.039,0.128c-0.054,0.126-0.09,0.238-0.108,0.337h0.069
			C110.271,73.273,110.339,73.273,110.398,73.273z M110.389,73.441c-0.125,0.014-0.234,0.023-0.326,0.031
			c-0.006,0.046-0.014,0.088-0.021,0.129c0.187-0.041,0.297-0.08,0.337-0.12C110.387,73.475,110.389,73.462,110.389,73.441z
			 M110.062,73.779c0.013,0.059,0.035,0.125,0.068,0.198c0.006-0.007,0.016-0.011,0.029-0.011c-0.008-0.086-0.004-0.148,0.011-0.188
			L110.062,73.779L110.062,73.779z M110.964,74.363c-0.021,0-0.04,0-0.06,0c0.013,0.027,0.025,0.057,0.039,0.09
			c0.013,0.033,0.025,0.066,0.039,0.099C110.977,74.479,110.971,74.416,110.964,74.363z M110.825,74.186h0.108
			c-0.008-0.02-0.014-0.039-0.021-0.061c-0.047-0.025-0.093-0.049-0.14-0.068C110.788,74.09,110.807,74.133,110.825,74.186z
			 M110.527,74.819c-0.021-0.026-0.101-0.056-0.237-0.089l-0.011,0.148L110.527,74.819z M110.329,75.314l0.01,0.01
			c0.007-0.013,0.015-0.022,0.021-0.029c0.027-0.033,0.047-0.062,0.06-0.09c-0.039,0.014-0.071,0.03-0.099,0.051v0.01
			C110.318,75.278,110.322,75.295,110.329,75.314z M110.35,75.84h0.01v-0.01h-0.021L110.35,75.84L110.35,75.84z M111.143,76.453
			c-0.072-0.105-0.143-0.154-0.209-0.148c0.061,0.159,0.105,0.242,0.14,0.248h0.01C111.102,76.514,111.121,76.48,111.143,76.453z
			 M111.439,76.89c0.045,0.007,0.093,0.013,0.139,0.021c0.046-0.027,0.129-0.061,0.247-0.1c-0.026-0.033-0.054-0.076-0.078-0.129
			l-0.308-0.089C111.439,76.665,111.439,76.764,111.439,76.89z M111.756,76.682c0.021,0.039,0.046,0.082,0.079,0.129
			c0.013-0.007,0.026-0.014,0.039-0.02l-0.028-0.09L111.756,76.682z M113.23,78.039c0.061-0.139,0.078-0.254,0.051-0.347
			c-0.021-0.007-0.229-0.007-0.624,0c-0.007-0.013-0.013-0.017-0.021-0.01c-0.007,0-0.011,0.01-0.011,0.029
			c0.133,0.118,0.281,0.241,0.447,0.366v0.179C113.146,78.197,113.199,78.125,113.23,78.039z M112.073,77.038
			c-0.007-0.02-0.04-0.029-0.101-0.029c0.034,0.046,0.066,0.093,0.101,0.139V77.038z M112.093,77.444c-0.032,0-0.065,0-0.1,0
			c-0.007,0.014-0.013,0.026-0.021,0.04c0.041,0,0.08,0,0.119,0L112.093,77.444L112.093,77.444z M112.223,77.088l0.02,0.237
			c0.047,0.054,0.096,0.106,0.148,0.159l-0.021-0.287C112.316,77.157,112.268,77.121,112.223,77.088z M112.677,78.147
			c0.033,0.093,0.05,0.155,0.05,0.188l0.149-0.01c0.013-0.06,0.011-0.119-0.011-0.179c-0.039-0.093-0.108-0.155-0.208-0.188
			c0.007,0.026,0.01,0.056,0.01,0.089C112.674,78.082,112.677,78.115,112.677,78.147z M112.359,78.376v0.02
			c0.007-0.007,0.011-0.007,0.011,0c0-0.007,0-0.013,0-0.02H112.359z M111.727,77.197h-0.1l0.012,0.039l0.01,0.02
			C111.674,77.236,111.699,77.217,111.727,77.197z M111.775,77.82c0-0.02,0-0.035,0-0.049c-0.039,0-0.082,0.004-0.129,0.01
			C111.66,77.795,111.703,77.809,111.775,77.82z M115.253,80.1c-0.047-0.066-0.135-0.076-0.269-0.029
			c0.015,0.065,0.029,0.121,0.051,0.168c0.064,0.033,0.132,0.066,0.197,0.1l0.1-0.021C115.299,80.212,115.273,80.139,115.253,80.1z
			 M115.283,80.565c0.031,0.059,0.074,0.105,0.128,0.138c0.007-0.032,0.013-0.064,0.021-0.099l-0.011-0.01
			C115.369,80.568,115.323,80.559,115.283,80.565z M115.184,80.575l0.021,0.228h0.068c0.013-0.007,0.029-0.013,0.051-0.02
			c-0.027-0.066-0.061-0.123-0.1-0.169C115.21,80.595,115.195,80.582,115.184,80.575L115.184,80.575z M114.123,79.624h0.169
			c-0.046-0.139-0.119-0.244-0.218-0.317c0.033,0.061,0.049,0.139,0.049,0.238C114.123,79.571,114.123,79.598,114.123,79.624z
			 M114.5,80.545l0.01,0.01l0.07-0.02c0.012-0.02,0.025-0.039,0.039-0.06c-0.033-0.039-0.061-0.065-0.079-0.079
			C114.521,80.449,114.507,80.499,114.5,80.545z M114.659,80.317c0-0.026,0-0.053,0-0.079c-0.021-0.006-0.037-0.01-0.05-0.01
			c0,0.006-0.004,0.016-0.01,0.029L114.659,80.317z M114.984,80.674c0.021,0.02,0.041,0.047,0.061,0.08
			c0.006-0.047,0.004-0.109-0.01-0.188l-0.051-0.011V80.674z M114.807,80.674c-0.02,0.039-0.041,0.076-0.068,0.109
			c0.047,0.039,0.094,0.076,0.139,0.109l-0.01-0.179C114.848,80.693,114.827,80.681,114.807,80.674L114.807,80.674z M115.777,81.447
			c0.158,0.105,0.287,0.197,0.388,0.277c0.032,0.006,0.065,0.013,0.099,0.02c0.008-0.053,0.008-0.105,0-0.158
			c0.039,0.072,0.078,0.148,0.118,0.227c0-0.02,0-0.043,0-0.068c0-0.073-0.021-0.156-0.06-0.248
			c-0.047-0.014-0.096-0.026-0.147-0.039c0-0.021,0.011-0.033,0.029-0.041l0.021-0.02c0.02,0.008,0.043,0.014,0.068,0.02
			c-0.04-0.064-0.082-0.141-0.128-0.227c-0.126-0.219-0.244-0.354-0.356-0.406c0.045,0.079,0.096,0.165,0.148,0.258
			c-0.034-0.033-0.07-0.06-0.109-0.08H115.6c0,0.105-0.002,0.198-0.01,0.277C115.629,81.318,115.691,81.387,115.777,81.447z
			 M92.013,74.453c0.052,0.311,0.082,0.482,0.088,0.515l-0.01,0.01c-0.013-0.032-0.026-0.072-0.039-0.118
			c0.026,0.145,0.062,0.273,0.108,0.386c-0.013-0.093-0.026-0.191-0.039-0.297c-0.013-0.158-0.037-0.301-0.069-0.427
			C92.038,74.502,92.025,74.479,92.013,74.453z M92.249,74.958c0.014,0.086,0.037,0.194,0.07,0.327c0-0.021,0-0.037,0-0.05
			c0-0.007,0-0.013,0-0.021c-0.007-0.02-0.014-0.043-0.021-0.069C92.279,75.08,92.264,75.018,92.249,74.958z M92.22,74.869
			c-0.006-0.007-0.01-0.014-0.01-0.02c0,0.006,0,0.013,0,0.02H92.22z M92.418,75.483c0,0.026,0.004,0.053,0.01,0.079
			c0.007-0.014,0.01-0.023,0.01-0.03C92.432,75.52,92.425,75.503,92.418,75.483z M92.617,76.067c0.005,0,0.012,0.003,0.02,0.011
			c-0.008-0.008-0.015-0.014-0.02-0.021V76.067z M92.547,76.048c-0.007-0.007-0.014-0.017-0.02-0.03l-0.01,0.011
			c0.007,0.02,0.013,0.039,0.02,0.06c0.02,0.013,0.04,0.029,0.06,0.049c-0.014-0.02-0.027-0.043-0.04-0.069
			c-0.007,0-0.013-0.003-0.02-0.01C92.537,76.051,92.54,76.048,92.547,76.048z M92.656,76.137c0.013,0.026,0.026,0.053,0.039,0.079
			v0.011c0.013,0.013,0.03,0.029,0.05,0.049c-0.014-0.026-0.02-0.049-0.02-0.069c0-0.007,0-0.013,0-0.02
			C92.698,76.166,92.676,76.15,92.656,76.137z M92.438,75.83c-0.006-0.027-0.013-0.054-0.02-0.08c0.007,0.033,0.014,0.062,0.02,0.09
			V75.83z M92.458,75.909c0.006,0.006,0.013,0.013,0.02,0.02c-0.007-0.007-0.014-0.017-0.02-0.029V75.909z M92.379,75.89
			c-0.007,0-0.015,0.003-0.021,0.01c0.014,0.02,0.03,0.039,0.05,0.06C92.402,75.938,92.393,75.916,92.379,75.89z M93.964,76.999
			c0.065,0.046,0.148,0.079,0.248,0.099c-0.034-0.013-0.08-0.036-0.139-0.069c-0.034-0.007-0.069-0.02-0.109-0.039V76.999z
			 M99.361,76.533c-0.031,0.006-0.059,0.013-0.077,0.02c0.032,0,0.065,0,0.098,0C99.376,76.547,99.369,76.539,99.361,76.533z
			 M96.302,76.999l0.011-0.01c-0.008,0-0.015,0-0.021,0L96.302,76.999z M97.055,77.009c0,0.026-0.022,0.05-0.068,0.069h-0.01
			c0.012,0.047,0.031,0.086,0.06,0.119c0.06-0.093,0.089-0.143,0.089-0.148c0-0.021-0.004-0.04-0.01-0.06c-0.02,0-0.04,0-0.061,0
			C97.055,76.995,97.055,77.002,97.055,77.009z M97.191,77.168c0.021-0.014,0.035-0.027,0.041-0.041
			c-0.006-0.02-0.014-0.036-0.021-0.049c-0.012,0.02-0.02,0.046-0.02,0.078V77.168L97.191,77.168z M96.797,77.078
			c-0.02-0.007-0.043-0.014-0.068-0.021c0,0.021,0.004,0.037,0.01,0.05h0.039c0.007-0.007,0.015-0.01,0.021-0.01
			C96.797,77.091,96.797,77.084,96.797,77.078z M96.055,77.188c-0.015,0.006-0.033,0.016-0.061,0.029
			c-0.026,0.007-0.053,0.013-0.079,0.02c-0.015,0.007-0.022,0.017-0.028,0.03c0,0.013,0.002,0.02,0.01,0.02
			c0.013,0.007,0.037,0.01,0.068,0.01h0.307C96.173,77.23,96.1,77.193,96.055,77.188z M96.432,77.137v0.051l0.098-0.01
			c-0.045-0.047-0.071-0.07-0.078-0.07L96.432,77.137z M96.223,79.02c0.18,0.165,0.313,0.307,0.405,0.426
			c0.073-0.039,0.144-0.076,0.209-0.109c-0.026-0.025-0.046-0.056-0.06-0.088c-0.086-0.172-0.127-0.311-0.119-0.417
			c-0.151,0-0.284,0.033-0.396,0.099L96.223,79.02z M96.768,78.971h-0.039v0.158l0.049,0.01c0.025,0.014,0.039,0.039,0.039,0.079
			l0.061,0.01C96.811,79.096,96.773,79.01,96.768,78.971z M97.659,78.663c-0.033,0-0.05,0.003-0.05,0.01
			c0.006,0.007,0.017,0.011,0.029,0.011C97.639,78.676,97.646,78.67,97.659,78.663z M97.074,79.178
			c-0.008-0.033-0.076-0.102-0.208-0.207c0.026,0.025,0.071,0.111,0.139,0.257C97.025,79.207,97.048,79.191,97.074,79.178z
			 M95.549,77.236c0.026,0,0.051-0.01,0.069-0.029c-0.015-0.007-0.022-0.01-0.029-0.01L95.549,77.236z M95.182,77.127
			c-0.025-0.046-0.075-0.062-0.148-0.049l0.079,0.039C95.152,77.131,95.176,77.135,95.182,77.127z M95.391,77.217
			c0.059-0.007,0.102-0.02,0.128-0.039c-0.021-0.008-0.037-0.01-0.049-0.01L95.391,77.217z M95.281,77.157
			c0.046,0,0.086-0.007,0.119-0.021c-0.033-0.012-0.07-0.025-0.109-0.039c-0.006,0.007-0.014,0.014-0.02,0.02L95.281,77.157z
			 M94.419,77.117c0.027,0,0.066,0,0.119,0c-0.086-0.006-0.172-0.026-0.258-0.06v0.021c0.014,0.013,0.007,0.022-0.02,0.029
			C94.308,77.114,94.359,77.117,94.419,77.117z M95.936,79.793c0.014-0.014,0.026-0.021,0.039-0.021
			c-0.013-0.026-0.025-0.046-0.039-0.06V79.793z M95.646,79.732c-0.006,0.014-0.006,0.066,0,0.159c0,0.013,0,0.026,0,0.039
			c0.074-0.032,0.146-0.065,0.219-0.099c-0.02-0.047-0.029-0.083-0.029-0.109c-0.033-0.006-0.096,0.007-0.188,0.04v-0.03H95.646z
			 M95.36,80.029c-0.133,0.008-0.198,0.018-0.198,0.031c0,0.032,0.007,0.068,0.02,0.108c0.093-0.046,0.188-0.096,0.288-0.149
			C95.437,80.02,95.4,80.023,95.36,80.029z M96.549,79.495c-0.105-0.086-0.211-0.128-0.316-0.128
			c0.039,0.039,0.093,0.104,0.158,0.197C96.443,79.538,96.496,79.515,96.549,79.495z M98.473,77.068c0,0.006-0.005,0.01-0.011,0.01
			l-0.011,0.029c0.021-0.007,0.04-0.013,0.061-0.02C98.497,77.081,98.484,77.074,98.473,77.068z M92.774,83.329
			c0,0.007,0,0.017,0,0.03c0-0.014,0.004-0.023,0.01-0.03H92.774z M92.784,83.26c0.007-0.007,0.014-0.014,0.02-0.021
			c0-0.013,0.004-0.029,0.011-0.049C92.802,83.21,92.791,83.233,92.784,83.26z M92.508,84.379l-0.011,0.05
			c0.014,0,0.026-0.003,0.04-0.01c0.007-0.026,0.013-0.05,0.02-0.069C92.53,84.355,92.514,84.366,92.508,84.379z M92.626,83.973
			c0-0.006,0.003-0.013,0.011-0.02c-0.04-0.014-0.077-0.023-0.109-0.029c-0.007-0.027-0.014-0.04-0.02-0.04
			c-0.021-0.013-0.03,0.033-0.03,0.139c0,0.007,0.01,0.017,0.03,0.03C92.54,84.025,92.579,84,92.626,83.973z M91.407,86.499
			c-0.059,0.179-0.111,0.406-0.158,0.684c0.139-0.086,0.281-0.188,0.426-0.308h0.01c0.034-0.336,0.073-0.643,0.119-0.92
			C91.626,86.112,91.493,86.295,91.407,86.499z M91.864,86.36c0.185-0.185,0.303-0.343,0.355-0.476c0-0.072,0.004-0.145,0.01-0.218
			c-0.132,0.06-0.244,0.129-0.336,0.208c-0.027,0.139-0.04,0.284-0.04,0.436L91.864,86.36z M92.329,84.964
			c0.014,0.093,0.023,0.194,0.029,0.308c0.026-0.106,0.046-0.209,0.06-0.308C92.385,84.964,92.355,84.964,92.329,84.964z
			 M92.379,84.488c-0.007-0.047-0.015-0.082-0.021-0.109c-0.006,0.033-0.014,0.072-0.02,0.119
			C92.353,84.491,92.364,84.488,92.379,84.488z M92.131,85.191c-0.021-0.1-0.036-0.186-0.05-0.258
			c-0.039,0.105-0.059,0.234-0.059,0.387C92.062,85.273,92.098,85.23,92.131,85.191z M91.992,85.568
			c-0.013,0.026-0.023,0.053-0.029,0.079c0.032-0.026,0.069-0.054,0.108-0.079C92.038,85.561,92.013,85.561,91.992,85.568z
			 M92.052,86.885c-0.079-0.078-0.106-0.088-0.079-0.029v0.05c0.026,0.021,0.046,0.04,0.06,0.06
			C92.038,86.938,92.045,86.912,92.052,86.885L92.052,86.885z M91.794,87.004c-0.013,0.08-0.02,0.176-0.02,0.287v0.01
			c0-0.006,0.004-0.01,0.01-0.01c0.046-0.053,0.076-0.151,0.089-0.297c-0.033,0-0.059,0-0.079,0V87.004z M91.675,87.242
			c-0.025,0.059-0.053,0.129-0.079,0.208l-0.01,0.05l0.089-0.119V87.242z M91.22,87.352c-0.007,0.092-0.014,0.191-0.02,0.297
			l0.01,0.535l0.197,0.099c0-0.007,0.004-0.01,0.01-0.01c0.04-0.323,0.073-0.585,0.1-0.782c0.02-0.186,0.069-0.344,0.148-0.477
			c-0.105,0.021-0.182,0.057-0.228,0.11c-0.126,0.138-0.195,0.211-0.208,0.218C91.229,87.348,91.226,87.352,91.22,87.352z
			 M91.695,87.896c0.105-0.166,0.181-0.308,0.228-0.426l-0.119-0.011c-0.033,0.046-0.069,0.093-0.108,0.139L91.695,87.896
			L91.695,87.896z M91.546,88.471c-0.072,0.119-0.145,0.221-0.217,0.307v0.219c0.105-0.172,0.225-0.344,0.355-0.516
			c-0.039-0.007-0.075-0.01-0.108-0.01C91.563,88.471,91.554,88.471,91.546,88.471z M91.031,89.035
			c-0.212,0.436-0.33,0.882-0.357,1.338c0,0.152,0.018,0.268,0.05,0.347c0.047,0.119,0.133,0.201,0.258,0.247
			c0.191-0.527,0.367-0.967,0.525-1.316c-0.007-0.021-0.011-0.037-0.011-0.051l0.03,0.011c0.04-0.086,0.076-0.162,0.109-0.229
			c0.014-0.125,0.029-0.241,0.049-0.347c-0.046,0.047-0.099,0.109-0.158,0.188c-0.033,0.132-0.053,0.228-0.06,0.288
			c-0.02-0.054-0.032-0.104-0.04-0.149c-0.02,0.02-0.035,0.04-0.049,0.06c-0.158,0.218-0.314,0.37-0.466,0.455h-0.06
			c0.133-0.283,0.291-0.577,0.477-0.881c-0.014-0.06-0.027-0.119-0.041-0.178c-0.072,0.065-0.145,0.119-0.217,0.158
			C91.058,88.996,91.044,89.016,91.031,89.035z M91.546,89.788c-0.099,0.186-0.191,0.376-0.277,0.575v0.059
			c0.02-0.013,0.103-0.092,0.248-0.238c0.014-0.131,0.029-0.26,0.05-0.385C91.56,89.791,91.554,89.788,91.546,89.788z
			 M90.972,91.363c0.079-0.092,0.119-0.158,0.119-0.197l-0.04,0.039c-0.007,0.006-0.089,0.125-0.247,0.356
			C90.869,91.482,90.926,91.416,90.972,91.363z M91.239,91.156c-0.079,0.117-0.129,0.188-0.148,0.207c0.026,0,0.06-0.029,0.1-0.09
			c0.032-0.053,0.052-0.098,0.059-0.138L91.239,91.156z M91.229,92.205c0-0.02,0.003-0.043,0.01-0.068
			c-0.007,0.006-0.014,0.012-0.02,0.02v0.049L91.229,92.205L91.229,92.205z M116.175,82.101c-0.007-0.013-0.014-0.022-0.021-0.029
			c-0.026,0.02-0.049,0.039-0.069,0.06c0.007,0,0.013,0.006,0.021,0.02l0.069-0.01V82.101z M116.689,82.942v0.04
			c0.006,0.007,0.013,0.017,0.021,0.029v-0.049C116.702,82.956,116.695,82.949,116.689,82.942z M116.878,83.686
			c-0.015,0.014-0.026,0.027-0.039,0.039c0.007,0.047,0.013,0.094,0.021,0.14c0.006,0,0.01-0.004,0.01-0.01l0.029-0.089
			c0-0.021,0.002-0.033,0.01-0.041L116.878,83.686z M116.809,83.557c0.006-0.006,0.014-0.014,0.021-0.02c-0.013,0-0.022,0-0.029,0
			C116.799,83.543,116.802,83.551,116.809,83.557z M117.383,83.834c0.026,0.053,0.057,0.115,0.09,0.188
			c0.021-0.026,0.029-0.075,0.029-0.148c-0.008-0.02-0.014-0.036-0.02-0.05L117.383,83.834z M117.154,84.022l0.011,0.06
			c0.071,0,0.147-0.01,0.228-0.029c-0.045-0.086-0.082-0.159-0.108-0.219h-0.009c0,0.014-0.021,0.04-0.062,0.079
			C117.175,83.953,117.154,83.989,117.154,84.022z M117.175,84.379c0.039,0.072,0.093,0.155,0.159,0.248h0.061
			c0.02-0.066,0.028-0.198,0.028-0.396c-0.021-0.006-0.036-0.006-0.05,0l-0.198,0.1V84.379z M115.996,81.962
			c-0.014,0.007-0.025,0.011-0.039,0.011c0.006,0.012,0.016,0.025,0.029,0.039c0.006-0.014,0.017-0.023,0.029-0.029
			C116.009,81.975,116.003,81.969,115.996,81.962z M117.789,84.676l0.029,0.04l0.021-0.099c-0.053-0.152-0.108-0.294-0.169-0.426
			c0,0.079,0,0.154,0,0.228C117.709,84.498,117.749,84.584,117.789,84.676z M117.67,84.895c-0.007,0.053-0.01,0.102-0.01,0.148
			c0.099,0.139,0.158,0.228,0.178,0.268h0.021c-0.026-0.152-0.09-0.351-0.188-0.595C117.67,84.803,117.67,84.861,117.67,84.895z
			 M117.186,84.617l0.069,0.01c-0.034-0.039-0.062-0.069-0.08-0.09v0.051C117.182,84.594,117.186,84.604,117.186,84.617z
			 M117.402,85.617l0.119-0.02c0.117-0.013,0.201-0.039,0.246-0.079c-0.02-0.093-0.064-0.208-0.139-0.347
			c-0.046,0.191-0.121,0.336-0.227,0.436V85.617L117.402,85.617z M117.312,85.211v0.01c0,0.033,0,0.07,0,0.109
			c0.015-0.033,0.023-0.056,0.03-0.068L117.312,85.211z M117.928,85.697c-0.025-0.04-0.046-0.07-0.06-0.09
			c-0.065,0.04-0.147,0.08-0.248,0.119c0.172,0.02,0.291,0.086,0.356,0.197C117.971,85.818,117.954,85.743,117.928,85.697z
			 M117.789,85.965c-0.061-0.033-0.139-0.051-0.237-0.051c-0.047,0-0.089,0.01-0.129,0.03c0.046,0.152,0.069,0.304,0.069,0.456
			v0.108c0.172-0.032,0.297-0.099,0.376-0.198l-0.011-0.307C117.839,85.991,117.814,85.977,117.789,85.965z M117.305,86.004
			c-0.015,0.165-0.037,0.337-0.07,0.515c0.047,0,0.086,0,0.119,0c0.025-0.006,0.039-0.062,0.039-0.168
			c0-0.132-0.01-0.258-0.029-0.376C117.337,85.98,117.316,85.991,117.305,86.004z M117.214,86.648c-0.006,0-0.009,0.002-0.009,0.01
			c0.02,0,0.039,0,0.059,0C117.244,86.65,117.229,86.648,117.214,86.648z M117.868,86.449V86.42
			c-0.054,0.026-0.097,0.057-0.13,0.089c-0.038,0.034-0.075,0.076-0.108,0.13C117.717,86.605,117.796,86.543,117.868,86.449z
			 M117.979,86.639c-0.066,0.092-0.22,0.171-0.457,0.236c-0.006,0.008-0.01,0.014-0.01,0.021l-0.049,0.108c0.006,0,0.012,0,0.02,0
			c0.276-0.046,0.442-0.139,0.496-0.276C117.971,86.694,117.971,86.664,117.979,86.639z M117.075,87.42
			c0.047-0.026,0.093-0.053,0.139-0.078l0.05-0.149c-0.053-0.007-0.099-0.017-0.139-0.029
			C117.105,87.249,117.089,87.335,117.075,87.42z M90.893,112.762c-0.132,0.324-0.298,0.736-0.495,1.238
			c0.146-0.139,0.284-0.387,0.415-0.743c0.047-0.104,0.084-0.208,0.11-0.308C90.908,112.884,90.898,112.82,90.893,112.762z
			 M91.329,114.555c0,0.18,0.01,0.32,0.029,0.426c0-0.178,0.007-0.347,0.02-0.504c-0.007-0.014-0.013-0.026-0.02-0.041
			C91.352,114.469,91.342,114.508,91.329,114.555z M91.517,115.011c0.02,0.271,0.039,0.479,0.06,0.624l0.01,0.039
			c0.02-0.165,0.033-0.344,0.04-0.535c-0.026-0.072-0.057-0.139-0.09-0.197C91.53,114.961,91.523,114.984,91.517,115.011z
			 M90.972,114.693c-0.02,0.065-0.043,0.154-0.069,0.268c-0.046,0.199-0.065,0.357-0.06,0.477v0.049
			c0.06-0.118,0.105-0.247,0.139-0.387c-0.006-0.06-0.01-0.107-0.01-0.147C90.972,114.857,90.972,114.773,90.972,114.693z
			 M91.288,115.575c-0.02,0.026-0.052,0.079-0.098,0.157c0.025,0.205,0.071,0.367,0.139,0.485
			C91.308,116.041,91.296,115.826,91.288,115.575z M91.16,115.467c0.046-0.08,0.089-0.166,0.128-0.258
			c-0.006-0.039-0.013-0.08-0.02-0.119c-0.02-0.086-0.032-0.168-0.039-0.248c-0.039,0.18-0.066,0.334-0.079,0.467
			C91.15,115.354,91.153,115.406,91.16,115.467z M92.131,117.438c0.112,0.33,0.185,0.539,0.218,0.625h0.05
			c0.014-0.297,0.016-0.772,0.01-1.428c-0.132-0.185-0.244-0.363-0.337-0.535c-0.039,0.238-0.068,0.424-0.089,0.557
			c-0.014,0.117-0.02,0.191-0.02,0.218c0,0.006,0.003,0.022,0.01,0.049c0.032-0.006,0.079-0.032,0.138-0.077
			c0.067-0.033,0.1-0.041,0.1-0.021c-0.04,0.072-0.056,0.139-0.05,0.197l-0.039,0.041l-0.099-0.011
			C92.049,117.145,92.084,117.271,92.131,117.438z M92.2,118.161c0.007,0.021,0.037,0.104,0.089,0.257
			c0.06,0.159,0.133,0.268,0.219,0.327c0.079-0.19,0.135-0.456,0.168-0.792c0.026-0.377-0.007-0.592-0.099-0.645
			c-0.021,0.053-0.018,0.252,0.01,0.594C92.56,118.201,92.432,118.287,92.2,118.161L92.2,118.161z M93.974,119.646
			c0.165-0.006,0.258-0.039,0.277-0.1c-0.026-0.053-0.049-0.093-0.069-0.119c-0.039-0.053-0.079-0.082-0.119-0.089v0.011
			c-0.007,0.059-0.039,0.154-0.099,0.287L93.974,119.646L93.974,119.646z M94.568,120.469c0.006-0.013,0.006-0.072,0-0.178
			c0-0.02,0-0.04,0-0.061c-0.04,0.1-0.066,0.194-0.08,0.287c0.014,0,0.03,0.004,0.05,0.01
			C94.564,120.502,94.574,120.482,94.568,120.469L94.568,120.469z M94.508,120.004c-0.013-0.039-0.025-0.072-0.039-0.1
			c-0.032,0.179-0.06,0.369-0.08,0.574c0.008,0,0.018,0.004,0.03,0.01c0.027-0.146,0.063-0.29,0.109-0.437
			C94.522,120.039,94.515,120.023,94.508,120.004z M94.379,120.607c-0.013,0.065-0.025,0.136-0.039,0.209
			c0.014-0.066,0.029-0.133,0.049-0.199L94.379,120.607z M94.964,120.936c-0.033,0.23-0.062,0.459-0.089,0.684
			c0.007-0.008,0.013-0.014,0.021-0.02c0.059-0.16,0.107-0.342,0.147-0.545c0-0.094-0.006-0.14-0.02-0.14l-0.03,0.021H94.964z
			 M94.786,121.023v0.061c0.006-0.027,0.013-0.057,0.02-0.09L94.786,121.023L94.786,121.023z M94.449,120.668
			c-0.08,0.264-0.122,0.488-0.13,0.673c0.08-0.185,0.153-0.37,0.219-0.555C94.512,120.74,94.482,120.7,94.449,120.668z
			 M94.35,119.835c-0.099,0.04-0.225,0.073-0.376,0.099c0.072,0.213,0.172,0.371,0.297,0.478
			C94.297,120.191,94.323,120,94.35,119.835z M96.499,123.57l0.05-0.01c-0.013-0.027-0.021-0.052-0.029-0.07
			C96.514,123.518,96.507,123.543,96.499,123.57z M96.352,123.203v0.229c0.014-0.061,0.026-0.123,0.039-0.188
			C96.371,123.217,96.357,123.203,96.352,123.203z M95.053,121.717c-0.02,0.033-0.042,0.062-0.069,0.09
			c-0.039,0.146-0.075,0.297-0.108,0.457v0.068c-0.02-0.033-0.037-0.062-0.049-0.089l0.01,0.276
			c0.039-0.054,0.085-0.183,0.138-0.388c0.073-0.218,0.103-0.368,0.089-0.455L95.053,121.717z M94.598,121.271
			c0-0.072-0.004-0.136-0.01-0.188c-0.126,0.265-0.215,0.44-0.269,0.534c0.04,0.04,0.09,0.076,0.149,0.107
			c0.039-0.059,0.073-0.145,0.1-0.257C94.588,121.377,94.598,121.311,94.598,121.271z M94.261,121.471
			c0.013-0.033,0.029-0.062,0.049-0.09h-0.03C94.274,121.407,94.268,121.438,94.261,121.471z M95.757,123.016
			c-0.007,0.047-0.01,0.092-0.01,0.139v0.496c0.039-0.026,0.071-0.061,0.099-0.1C95.812,123.365,95.783,123.188,95.757,123.016z
			 M95.965,123.124c-0.025-0.079-0.046-0.147-0.061-0.208c-0.006,0.205-0.01,0.393-0.01,0.564
			C95.948,123.382,95.973,123.264,95.965,123.124z"/>
	</g>
	<g id="Layer_5_12_">
		<path id="path9" fill="#010101" d="M105.604,110.514c2.047,0.078,3.717,0.92,5.013,2.525c0.944,1.202,1.503,2.443,1.675,3.725
			c0.061,0.522,0.068,1.055,0.029,1.596c-0.021,0.277-0.039,0.552-0.061,0.822c0.053,0.442,0.172,0.961,0.356,1.555
			c0.165,0.535,0.294,1.174,0.387,1.912c0.04,0.392,0.136,0.955,0.287,1.694c0.021,0.093,0.039,0.188,0.06,0.287
			c0.086,0.442,0.188,0.896,0.309,1.356c0.093,0.82,0.264,2.457,0.515,4.914c0.278,3.078,0.396,5.1,0.356,6.062
			c-0.059,1.572-0.305,3.021-0.732,4.35c-0.357,1.062-0.826,2.047-1.406,2.951c-0.336,0.483-0.687,0.918-1.051,1.299
			c-0.072,0.479-0.109,0.969-0.109,1.467c0,1.037,0.199,1.875,0.596,2.516c0.191,0.311,0.631,0.786,1.316,1.428
			c0.606,0.573,1.045,1.148,1.31,1.723c0.391,0.849,0.589,1.965,0.594,3.35c0.065,0.148,0.099,0.305,0.099,0.467
			c0,0.766-0.086,1.614-0.263,2.551c0.111,1.11,0.103,2.084-0.024,2.918c-0.104,0.672-0.471,1.646-1.1,2.922
			c-0.588,1.162-0.953,2.285-1.1,3.369c-0.239,1.512-0.207,3.434,0.095,5.766c0.188,0.186,0.408,0.4,0.658,0.643
			c0.687,0.703,1.075,1.407,1.169,2.111c0.469,0.583,0.753,1.24,0.852,1.971c0.047,0.581-0.297,0.947-1.029,1.1
			c-1.116,0.152-2.691,0.238-4.727,0.259c-0.908,0.017-1.765,0.028-2.57,0.039c-0.396,0.09-0.908,0.17-1.541,0.237
			c-1.188,0.125-2.469,0.188-3.844,0.188c-1.332,0-2.143-0.131-2.427-0.396c-0.028-0.026-0.053-0.056-0.069-0.084
			c-0.359-0.023-0.724-0.051-1.09-0.084c-0.15-0.556-0.23-0.941-0.238-1.158c-0.02-0.213,0.021-0.334,0.119-0.367
			c0.119-0.105,0.528-0.158,1.229-0.158c0.092-0.007,0.19,0.021,0.296,0.089c0.066,0.065,0.165,0.104,0.298,0.108
			c0.345-0.02,1.427-0.359,3.249-1.02c2.081-0.767,3.256-1.18,3.527-1.238c0.031-0.008,0.062-0.014,0.089-0.021
			c-0.007-0.437,0.058-1.004,0.188-1.705c-0.312,0.14-0.672,0.274-1.08,0.406c0.377-0.187,0.688-0.688,0.94-1.517
			c0.026-0.032,0.065-0.065,0.118-0.099c-0.064,0-0.128,0.011-0.188,0.03c-0.139,0.012-0.211,0.021-0.218,0.029
			c0.132-0.152,0.271-0.305,0.415-0.457c0.021-0.125,0.046-0.24,0.08-0.346c0,0.006,0.014,0.012,0.039,0.02
			c0.025-0.033,0.049-0.066,0.068-0.1v-0.223c-0.022,0.036-0.045,0.081-0.068,0.135c-0.009-0.078-0.009-0.148,0-0.214
			c-0.119,0.013-0.26,0.062-0.426,0.144c-0.146,0.008-0.231,0.004-0.258-0.01c-0.025-0.006-0.039-0.119-0.039-0.338
			c0-0.149,0.268-0.496,0.803-1.039c-0.141-0.304-0.209-0.5-0.209-0.595c0-0.032-0.018-0.169-0.055-0.411
			c-0.016,0.006-0.029,0.012-0.045,0.016c-0.244,0.007-0.39,0.003-0.436-0.01c-0.04-0.008-0.061-0.119-0.061-0.338
			c0-0.268,0.123-0.517,0.367-0.748c-0.113-0.716-0.168-1.232-0.168-1.55c0-0.614,0.051-1.112,0.157-1.496
			c0.025-0.094,0.054-0.186,0.084-0.271c-0.118-0.099-0.247-0.146-0.387-0.146c0.046-0.375,0.137-0.675,0.272-0.9
			c-0.105-0.904-0.205-1.811-0.297-2.715c0.158-0.818,0.211-1.465,0.158-1.941c-0.014-0.186-0.238-0.938-0.674-2.258
			c-0.417-1.328-0.697-2.184-0.842-2.566c-0.317-0.857-0.516-1.664-0.596-2.417c-0.033-0.337-0.268-0.792-0.703-1.366
			c-0.437-0.602-0.653-0.912-0.653-0.932c0-0.363,0.017-0.688,0.05-0.971c-0.027-0.053-0.037-0.08-0.029-0.08
			c0-0.092,0.022-0.383,0.068-0.871c0.04-0.502,0.057-0.793,0.05-0.872c-0.013-0.046-0.297-0.624-0.853-1.733
			c-0.588-1.109-0.936-2.275-1.039-3.496c-0.061-0.549-0.045-0.981,0.049-1.299c-0.073-0.482-0.143-1.008-0.208-1.574
			c-0.132-1.123-0.205-1.854-0.218-2.189c-0.061-0.727-0.083-2.443-0.068-5.15c-0.008-2.734-0.023-4.451-0.05-5.152
			c-0.179-2.582-0.675-5.031-1.486-7.351c-0.772-1.868-1.163-2.893-1.17-3.071c-0.065-0.818-0.056-1.402,0.03-1.752
			c0.133-0.74,0.531-1.246,1.199-1.518c0.436-0.197,0.781-0.479,1.039-0.842c0.225-0.442,0.412-0.756,0.563-0.939
			c0.55-0.722,1.894-1.035,4.033-0.941C105.18,110.523,105.393,110.52,105.604,110.514L105.604,110.514z M106.98,166.99
			c0.06,0.008,0.09-0.092,0.09-0.297c0-0.316-0.133-0.477-0.397-0.477v0.743C106.771,166.947,106.876,166.958,106.98,166.99z
			 M106.842,168.729c0.02-0.092,0.03-0.187,0.03-0.281c-0.015,0-0.03,0.003-0.05,0.01c-0.032,0.007-0.051,0.02-0.051,0.039
			c-0.039,0.119-0.066,0.236-0.084,0.352C106.736,168.809,106.787,168.77,106.842,168.729L106.842,168.729z M106.887,169.686
			c0.18-0.026,0.373-0.092,0.579-0.192c-0.006-0.109-0.018-0.271-0.034-0.485c-0.238,0.317-0.425,0.543-0.56,0.68
			C106.877,169.688,106.881,169.688,106.887,169.686z M106.477,169.389v0.297c0.096,0.019,0.195,0.023,0.303,0.017
			c-0.024-0.14-0.051-0.3-0.08-0.481C106.602,169.281,106.525,169.337,106.477,169.389z M107.209,170.062
			c-0.04-0.008-0.068,0-0.09,0.02c-0.032,0.1-0.049,0.297-0.049,0.594h0.147c0.021-0.059,0.033-0.178,0.04-0.355l0.01-0.237
			C107.255,170.075,107.234,170.068,107.209,170.062z M107.193,171.221c-0.213,0.146-0.344,0.24-0.392,0.287
			c-0.04,0.041-0.149,0.192-0.327,0.456v0.147c0.207-0.144,0.389-0.31,0.541-0.494c-0.002-0.041-0.004-0.078-0.006-0.109v-0.004
			c0.039-0.041,0.075-0.082,0.108-0.124c0.03-0.039,0.059-0.084,0.085-0.134C107.2,171.238,107.197,171.23,107.193,171.221
			L107.193,171.221z M107.232,171.305c-0.004-0.01-0.01-0.02-0.015-0.029c-0.046,0.041-0.069,0.076-0.069,0.104
			c0.017-0.002,0.033-0.006,0.051-0.01C107.212,171.348,107.225,171.326,107.232,171.305z M106.842,174.134
			c0.055-0.021,0.104-0.054,0.149-0.099c0.024-0.152,0.056-0.309,0.089-0.467c-0.186,0.191-0.266,0.367-0.238,0.524V174.134z"/>
	</g>
	<g id="Layer_7_12_">
		<path id="path12" fill="#010101" d="M105.366,117.844c-0.072,0.482-0.188,1.008-0.347,1.575c-0.086,0.265-0.18,0.528-0.277,0.792
			c-0.055,0.449-0.057,0.965-0.01,1.547c0.025,0.527-0.008,1.158-0.101,1.893c-0.071,0.436-0.128,1.093-0.169,1.972
			c-0.046,0.437-0.064,0.885-0.059,1.349c-0.139,0.812-0.402,2.436-0.793,4.872c-0.567,3.052-0.978,5.05-1.229,5.994
			c-0.832,2.793-2.13,5.197-3.893,7.211c-0.801,0.841-1.605,1.533-2.418,2.081c-0.053,0.879,0.033,1.762,0.259,2.646
			c0.25,1.215,0.649,2.026,1.198,2.438c0.029,0.021,0.057,0.045,0.082,0.068c0.125,0.285,0.313,0.714,0.57,1.287
			c0.405,1,0.674,1.939,0.809,2.824c0.025,0.311,0.05,0.646,0.074,1.01c0.011,0.074,0.021,0.146,0.028,0.219c0,0.021,0,0.04,0,0.061
			c0,1.394-0.264,2.979-0.792,4.756c-0.404,1.355-0.654,2.354-0.748,2.996c-0.619,1.051-1.033,2.076-1.242,3.076
			c-0.369,1.578-0.498,3.639-0.388,6.182c0,0.297,0.113,0.578,0.339,0.843c0.024,0.086,0.264,0.34,0.713,0.763
			c0.698,0.693,1.043,1.516,1.028,2.467c-0.039,0.567-0.444,0.926-1.218,1.069c-1.162,0.151-2.764,0.241-4.805,0.269
			c-3.448,0.06-6.162,0.078-8.144,0.06c-1.136,0-2.292-0.054-3.467-0.158c-0.039-0.556-0.054-0.933-0.039-1.13
			c-0.008-0.219,0.052-0.337,0.177-0.355c0.133-0.119,0.556-0.172,1.269-0.16c0.072-0.012,0.161,0.015,0.268,0.08
			c0.06,0.065,0.154,0.103,0.287,0.108c0.337-0.032,1.477-0.366,3.418-1.001c2.18-0.752,3.418-1.154,3.715-1.208
			c0.026-0.007,0.05-0.017,0.069-0.028c0.073-0.424,0.209-0.976,0.406-1.656c-0.356,0.127-0.729,0.252-1.119,0.377
			c0.376-0.178,0.739-0.67,1.089-1.477c0.027-0.025,0.067-0.056,0.119-0.089c-0.072-0.026-0.135-0.017-0.188,0.029
			c-0.119,0-0.191,0.007-0.218,0.021c0.151-0.146,0.307-0.294,0.465-0.445c0.02-0.118,0.054-0.229,0.1-0.327
			c0,0.008,0.013,0.014,0.039,0.021c0.066-0.099,0.129-0.188,0.188-0.268c0.007-0.079,0.017-0.137,0.03-0.168
			c-0.027,0.006-0.03,0.013-0.01,0.02c-0.067,0.039-0.133,0.115-0.198,0.229c0.006-0.112,0.025-0.208,0.059-0.287
			c0.06-0.105,0.08-0.186,0.06-0.238h-0.029c-0.014-0.172-0.004-0.297,0.029-0.376c-0.02-0.099-0.065-0.201-0.139-0.308
			c0.014,0.008,0.03,0.018,0.05,0.029c0.179-0.276,0.34-0.504,0.485-0.684c-0.007-0.053-0.011-0.111-0.011-0.18
			c-0.304,0.191-0.465,0.309-0.484,0.349c-0.065,0.045-0.096,0.132-0.09,0.258c-0.006,0.099,0,0.161,0.021,0.188
			c-0.054-0.053-0.109-0.109-0.169-0.168c-0.225-0.244-0.334-0.438-0.326-0.575c-0.008-0.462,0.296-0.86,0.91-1.198
			c0-0.033,0-0.066,0-0.1h-0.029c-0.264-0.006-0.43-0.154-0.495-0.445c-0.026-0.152-0.026-0.294,0-0.426
			c-0.04-0.172-0.003-0.309,0.109-0.406c0.006,0.172,0.016,0.336,0.029,0.495c0.105-0.007,0.221-0.013,0.347-0.021
			c0-0.151-0.01-0.308-0.029-0.465c-0.047-0.015-0.093-0.005-0.139,0.028c-0.1-0.071-0.173-0.119-0.218-0.14
			c-0.112-0.06-0.159-0.096-0.14-0.108c-0.02-0.157-0.025-0.303-0.02-0.437c-0.026,0.027-0.042,0.054-0.05,0.08
			c-0.026,0.013-0.052,0.205-0.079,0.574c-0.046,0.006-0.092,0.014-0.138,0.021c0.032-0.351,0.121-0.611,0.267-0.783
			c-0.079-0.753-0.082-1.218-0.01-1.396c0.053-0.422,0.172-0.754,0.356-0.99c-0.072-0.885-0.122-1.771-0.148-2.656
			c0.185-0.798,0.271-1.426,0.258-1.882c-0.026-0.19-0.208-0.929-0.545-2.208c-0.356-1.301-0.588-2.137-0.693-2.508
			c-0.271-0.838-0.413-1.623-0.426-2.356c-0.007-0.337-0.198-0.782-0.574-1.338c-0.403-0.587-0.603-0.892-0.595-0.911
			c0.053-0.357,0.115-0.678,0.188-0.961c-0.02-0.039-0.026-0.061-0.02-0.061c-0.013-0.105,0.05-0.394,0.188-0.861
			c0.105-0.495,0.161-0.779,0.169-0.852c-0.015-0.061-0.215-0.627-0.604-1.705c-0.423-1.109-0.559-2.256-0.407-3.438
			c0.066-0.547,0.186-0.977,0.357-1.287c0.032-0.482,0.092-1.004,0.178-1.564c0.139-1.11,0.248-1.829,0.327-2.159
			c0.119-0.714,0.581-2.414,1.387-5.103c0.799-2.701,1.295-4.402,1.486-5.103c0.594-2.562,0.789-4.987,0.584-7.271
			c-0.304-1.856-0.438-2.871-0.405-3.043c0.111-0.824,0.254-1.402,0.425-1.731c0.298-0.734,0.816-1.232,1.556-1.496
			c0.477-0.212,0.876-0.486,1.199-0.822c0.297-0.442,0.555-0.753,0.772-0.932c0.675-0.733,2.078-1.044,4.21-0.933
			c0.218-0.013,0.433-0.016,0.645-0.01c2.061,0.079,3.59,0.912,4.586,2.497C105.186,115.331,105.484,116.557,105.366,117.844
			L105.366,117.844z M90.348,167.417c-0.119,0.171-0.179,0.313-0.179,0.426c0.021,0.007,0.024,0.026,0.011,0.06
			c0.139-0.02,0.25-0.028,0.337-0.028c-0.054-0.015-0.093-0.026-0.119-0.04c0.032-0.061,0.075-0.107,0.129-0.148
			c-0.02-0.164-0.023-0.316-0.01-0.455C90.45,167.262,90.394,167.324,90.348,167.417z M90.378,168.883
			c0.046-0.025,0.115-0.029,0.207-0.01c-0.013-0.092-0.016-0.186-0.01-0.277c-0.032-0.033-0.053-0.043-0.059-0.029
			c-0.027,0.014-0.079,0.039-0.159,0.08c-0.093,0.033-0.135,0.064-0.129,0.099C90.269,168.777,90.318,168.824,90.378,168.883z
			 M90.614,169.447c-0.059,0.014-0.105,0.05-0.138,0.109c-0.146,0.145-0.356,0.375-0.634,0.692c-0.007,0.198,0,0.394,0.02,0.585
			c0.105-0.105,0.225-0.219,0.356-0.337c-0.086,0.086-0.105,0.165-0.06,0.237c0.125-0.032,0.28-0.148,0.466-0.348
			c0.039-0.078,0.072-0.132,0.099-0.158c-0.039-0.244-0.075-0.469-0.109-0.674C90.602,169.511,90.602,169.475,90.614,169.447z
			 M90.595,169.021c-0.105-0.015-0.197-0.004-0.276,0.029c0.039,0.039,0.089,0.075,0.148,0.108c0.032-0.013,0.079-0.013,0.138,0
			C90.593,169.114,90.589,169.068,90.595,169.021z M90.754,170.982c-0.146,0.146-0.237,0.244-0.277,0.297
			c0.093-0.025,0.186-0.086,0.277-0.178C90.754,171.062,90.754,171.023,90.754,170.982z M90.685,171.35
			c-0.132,0.066-0.202,0.129-0.208,0.188c0.066-0.021,0.142-0.04,0.228-0.06c0-0.061,0.01-0.109,0.029-0.148
			C90.708,171.311,90.691,171.316,90.685,171.35z M90.507,171.975c0.046-0.008,0.102-0.026,0.167-0.061
			c0-0.119,0.011-0.219,0.03-0.297c-0.158,0.033-0.225,0.125-0.197,0.277C90.493,171.921,90.493,171.947,90.507,171.975z
			 M90.229,173.678c-0.218,0.178-0.313,0.35-0.287,0.516c-0.013,0.015-0.017,0.027-0.01,0.039c0.053-0.032,0.103-0.065,0.148-0.099
			C90.12,173.975,90.169,173.822,90.229,173.678z"/>
	</g>
	<g id="Layer_6_9_">
		<path id="path15_2_" fill="#010101" d="M119.482,91.423c0.086,0.429,0.211,1.596,0.377,3.497c0.086,1.037,0.225,2.605,0.416,4.706
			c0.119,1.71,0.115,3.106-0.01,4.19c0,0.078,0.006,0.16,0.021,0.246c0.048,0.508,0.053,1.061,0.014,1.655h0.007
			c-0.055,0.226-0.105,0.455-0.16,0.693c-0.119,0.495-0.248,0.907-0.385,1.237c0.131,0.806,0.206,1.492,0.227,2.062
			c0,0.283-0.032,1.238-0.1,2.862c-0.06,1.507-0.34,3.033-0.842,4.587c-0.013,0.032-0.023,0.071-0.029,0.118
			c-0.006,0.119-0.017,0.234-0.029,0.347c-0.021,0.535-0.111,1.25-0.277,2.142c-0.092,0.502-0.236,1.219-0.436,2.148
			c-0.152,0.768-0.4,1.575-0.742,2.428c-0.067,0.112-0.133,0.229-0.198,0.348l-0.765,1.326c-0.024,0.166-0.104,0.976-0.236,2.428
			c0.132,0.344,0.186,0.902,0.158,1.675c-0.047,0.692-0.146,1.403-0.297,2.13c-0.219,1.223-0.78,2.645-1.686,4.27
			c-1.215,2.188-2.47,3.256-3.765,3.211c-0.224,0.164-0.353,0.254-0.388,0.268c-0.117,0.072-0.244,0.107-0.375,0.107
			c-0.33,0-0.524-0.121-0.584-0.364c0.013-0.253,0.021-0.384,0.021-0.396c0.151-0.19,0.313-0.387,0.483-0.585
			c-0.025-0.02-0.045-0.04-0.06-0.06c-0.104-0.146-0.147-0.277-0.129-0.396c0.187-1.03,0.562-1.426,1.13-1.188
			c0.008,0.007,0.014,0.011,0.021,0.011c0.086-0.417,0.283-0.854,0.594-1.309c0.298-0.402,0.453-0.642,0.466-0.715
			c0.013-0.064-0.081-0.752-0.286-2.06c-0.213,0.19-0.668,0.782-1.367,1.772c-0.682,0.886-1.215,1.328-1.604,1.328
			c-0.351,0-0.552-0.151-0.604-0.457c0.026-0.304,0.039-0.459,0.039-0.465c0.086-0.502,0.219-0.843,0.396-1.021
			c0.66-0.646,1.126-1.14,1.396-1.476c0.164-0.213,0.301-0.664,0.405-1.356c0.06-0.661,0.093-1.002,0.099-1.021
			c0.055-0.277,0.303-0.646,0.744-1.101c0.258-0.276,0.539-0.524,0.842-0.743c-0.006-0.046-0.002-0.093,0.011-0.138
			c0.065-0.521,0.165-1.146,0.298-1.873c0.119-0.746,0.204-1.367,0.257-1.862c0.013-0.099,0.021-0.193,0.021-0.287
			c-0.04-0.556-0.115-1.082-0.227-1.585c-0.074-0.291-0.113-1.481-0.119-3.575c0-1.863,0.012-3.125,0.039-3.785
			c0-0.053,0.029-0.135,0.09-0.248c-0.055-0.846-0.061-1.406-0.021-1.685c0.1-0.793,0.251-1.539,0.456-2.237
			c-0.021-0.642-0.022-1.109-0.011-1.408c0.021-0.494-0.039-1.161-0.178-2c-0.014-0.021-0.022-0.037-0.031-0.051
			c-0.137-0.322-0.279-0.778-0.426-1.367c-0.064-0.276-0.121-0.504-0.168-0.682h-0.006c-0.076-0.193-0.139-0.328-0.183-0.406
			c-0.575-1.019-0.929-1.744-1.062-2.181c-0.072-0.271-0.154-0.916-0.248-1.932c-0.139-1.579-0.178-2.841-0.119-3.785
			c0.048-0.944,0.041-1.807-0.02-2.586c-0.158-1.842-0.666-3.493-1.525-4.953c-0.448-0.786-0.742-1.341-0.881-1.664
			c-0.283-0.681-0.463-1.449-0.535-2.309c-0.172-1.961,0.207-3.483,1.14-4.566c0.812-0.945,1.896-1.417,3.25-1.417
			c1.3,0,2.459,0.417,3.478,1.248c1.103,0.912,1.713,2.064,1.832,3.458c0.008,0.092-0.007,0.32-0.039,0.684
			c-0.041,0.363-0.058,0.588-0.051,0.674c0,0.006,0.043,0.121,0.129,0.346c0.403,0.588,0.713,1.116,0.932,1.586
			C118.766,88.933,119.238,90.102,119.482,91.423z"/>
	</g>
</g>
</svg>
