<?xml version="1.0" encoding="utf-8"?>
<!-- Generator: Adobe Illustrator 15.0.0, SVG Export Plug-In . SVG Version: 6.00 Build 0)  -->
<svg version="1.2" baseProfile="tiny" id="Layer_1" xmlns="http://www.w3.org/2000/svg" xmlns:xlink="http://www.w3.org/1999/xlink"
	 x="0px" y="0px" width="200px" height="200px" viewBox="0 0 200 200" overflow="inherit" xml:space="preserve">
<g>
	<g id="Layer_3_11_">
		<path id="path5_13_" fill="#010101" d="M106.744,57.598c-0.095,0-0.232-0.024-0.411-0.071c0.287,0.129,0.621,0.311,1.005,0.546
			c-0.015,0.038-0.036,0.062-0.062,0.072c-0.449-0.209-0.805-0.369-1.064-0.48c-0.134-0.058-0.262-0.109-0.385-0.152
			c0.053,0.035,0.105,0.069,0.156,0.105c0.399,0.276,0.723,0.566,0.973,0.872c0.488,0.291,0.809,0.493,0.963,0.606
			c-0.014,0.048-0.049,0.075-0.105,0.081c-0.223-0.121-0.428-0.236-0.613-0.347c0.08,0.132,0.148,0.266,0.205,0.402
			c0.477,0.423,0.789,0.758,0.939,1.005c0.039,0.006,0.019,0.01-0.061,0.01c-0.277-0.258-0.531-0.495-0.763-0.711
			c0.19,0.495,0.343,0.893,0.456,1.193c0.152,0.049,0.322,0.084,0.512,0.109c-0.192-0.018-0.359-0.045-0.502-0.081
			c0.004,0.01,0.008,0.019,0.012,0.03c0.188,0.246,0.291,0.479,0.312,0.697c0.523,0.369,0.785,0.59,0.785,0.668
			c0,0.05-0.006,0.083-0.015,0.095c-0.019,0.006-0.034,0.014-0.047,0.02c-0.103-0.009-0.196-0.017-0.285-0.024
			c-0.03-0.003-0.058-0.005-0.081-0.007c0.084,0.049,0.172,0.099,0.262,0.15c0,0.025-0.012,0.045-0.039,0.062
			c-0.165-0.079-0.338-0.17-0.521-0.277c0.145,0.149,0.256,0.262,0.336,0.34c-0.016-0.019-0.039-0.048-0.07-0.088
			c-0.051-0.063-0.084-0.116-0.1-0.156c0.034,0.013,0.093,0.074,0.176,0.185c0.069,0.096,0.127,0.185,0.17,0.267
			c0,0.025-0.012,0.046-0.037,0.062c-0.037-0.032-0.08-0.071-0.128-0.114c-0.05,0.027-0.099,0.06-0.149,0.103
			c0.07,0.013,0.122,0.025,0.158,0.035c-0.016,0.022-0.039,0.042-0.07,0.057h-0.193c-0.01,0.011-0.021,0.022-0.033,0.034
			c0.045,0.01,0.072,0.022,0.083,0.038c-0.001,0.003-0.003,0.006-0.005,0.007c0.259,0.004,0.529,0.033,0.812,0.088l-0.009,0.11
			c-0.003,0-0.01,0.006-0.019,0.019c-0.01,0.012-0.024,0.021-0.043,0.028c-0.016-0.016-0.043-0.044-0.08-0.086
			c-0.041-0.031-0.094-0.047-0.152-0.047c-0.2,0-0.385,0.006-0.557,0.017c-0.025,0.062-0.049,0.122-0.071,0.178
			c0.013,0.016,0.024,0.032,0.035,0.047c0.006-0.005,0.013-0.009,0.017-0.015c-0.004,0.007-0.008,0.014-0.012,0.021
			c0.008,0.01,0.016,0.021,0.023,0.031c0.021-0.018,0.039-0.032,0.055-0.043c0.15-0.101,0.305-0.141,0.459-0.123
			c-0.092,0.021-0.213,0.106-0.366,0.254c0.019-0.004,0.037-0.009,0.056-0.012c-0.029,0.024-0.062,0.049-0.096,0.076
			c0.076,0.11,0.137,0.208,0.183,0.292c0.028-0.008,0.046-0.012,0.056-0.012l0.014,0.039c-0.013,0.006-0.027,0.012-0.045,0.019
			c0.033,0.064,0.055,0.121,0.066,0.169c0.115-0.06,0.219-0.119,0.312-0.178c-0.055,0.084-0.153,0.173-0.3,0.268
			c-0.001,0.042-0.004,0.071-0.01,0.088c-0.007,0.026-0.014,0.049-0.023,0.071h-0.039c-0.003-0.034-0.008-0.068-0.017-0.105
			c-0.057,0.034-0.12,0.068-0.188,0.103c0.011,0.02,0.021,0.041,0.032,0.062c0.149-0.039,0.31-0.083,0.482-0.131
			c0.073,0.016,0.112,0.037,0.119,0.062c-0.12,0.04-0.237,0.077-0.353,0.112c-0.043,0.04-0.096,0.081-0.159,0.125
			c0.042,0.081,0.078,0.154,0.108,0.223l-0.049,0.062c-0.021-0.028-0.068-0.104-0.145-0.228c-0.194,0.128-0.459,0.274-0.793,0.437
			c-0.068,0.059-0.143,0.122-0.221,0.19c-0.018,0.015-0.033,0.029-0.049,0.043c-0.002,0.012-0.006,0.025-0.01,0.038
			c0.01,0.011,0.02,0.022,0.029,0.034c0.049,0.034,0.093,0.066,0.129,0.094c0.177-0.106,0.359-0.21,0.551-0.309
			c-0.035,0.125-0.255,0.321-0.661,0.59c0.016,0.015,0.031,0.029,0.048,0.045c0.342-0.089,0.537-0.126,0.59-0.111
			c-0.033,0.032-0.157,0.088-0.373,0.169c-0.025,0.024-0.051,0.048-0.079,0.071c0.06,0.056,0.118,0.114,0.181,0.173
			c-0.01,0.022-0.041,0.038-0.096,0.048c-0.061-0.029-0.122-0.062-0.186-0.098c0,0.043-0.004,0.069-0.013,0.079
			c-0.007,0.006-0.019,0.015-0.034,0.023l-0.047-0.014c0-0.014-0.008-0.032-0.021-0.053c-0.061,0.039-0.127,0.078-0.197,0.115
			c0.057,0.045,0.109,0.09,0.154,0.133c0.192-0.036,0.393-0.05,0.602-0.043c-0.136,0.061-0.291,0.124-0.467,0.187
			c0.059,0.07,0.101,0.136,0.124,0.198c-0.03-0.059-0.077-0.123-0.142-0.192c-0.038,0.014-0.076,0.027-0.115,0.04
			c-0.021,0.008-0.041,0.014-0.062,0.022c0.062,0.108,0.118,0.201,0.166,0.277c-0.009,0.025-0.018,0.042-0.022,0.052
			c-0.008,0.009-0.023,0.014-0.049,0.017c0.13,0.158,0.203,0.246,0.224,0.263c-0.218-0.112-0.423-0.254-0.615-0.425
			c-0.001,0.001-0.004,0.003-0.007,0.005c-0.004,0.009-0.008,0.019-0.012,0.029c0.025,0.114,0.047,0.218,0.064,0.311
			c0,0.002,0,0.004,0.002,0.008c0.017,0.03,0.033,0.061,0.053,0.09c0.076,0.082,0.152,0.156,0.23,0.221l-0.043,0.067
			c0.194,0.276,0.407,0.503,0.637,0.685c-0.013,0.028-0.023,0.049-0.033,0.062c-0.022,0.021-0.059,0.033-0.109,0.033
			c-0.178,0-0.365-0.139-0.564-0.417c0.014,0.053,0.027,0.108,0.041,0.167c0.035,0.058,0.066,0.111,0.094,0.161
			c0.133,0.193,0.229,0.341,0.287,0.446c-0.003,0.009-0.006,0.017-0.012,0.024c0.074,0.083,0.148,0.154,0.226,0.214l-0.011,0.033
			c0.017,0.016-0.016,0.024-0.094,0.024c-0.096,0-0.203-0.068-0.324-0.207c0.014,0.052,0.026,0.105,0.038,0.16
			c0.165,0.253,0.343,0.522,0.532,0.807l-0.01,0.039c-0.089-0.078-0.237-0.253-0.445-0.527c0.083,0.362,0.146,0.688,0.191,0.981
			c0.199,0.235,0.381,0.47,0.542,0.705c0,0.004,0,0.008,0,0.01h-0.021c-0.126-0.169-0.294-0.367-0.503-0.594
			c0.005,0.047,0.011,0.094,0.016,0.14c0.072,0.066,0.14,0.129,0.203,0.187c0.111,0.106,0.213,0.208,0.304,0.306
			c-0.001,0.041-0.003,0.084-0.003,0.128c-0.119-0.122-0.258-0.253-0.416-0.395c-0.021-0.019-0.043-0.039-0.061-0.057
			c0.141,0.244,0.273,0.482,0.394,0.713c0.034,0.039,0.067,0.078,0.101,0.117c0,0.01,0,0.02,0.002,0.029
			c0.273,0.232,0.455,0.457,0.548,0.671l-0.046,0.048c-0.152-0.121-0.305-0.246-0.46-0.379c0.019,0.113,0.04,0.227,0.06,0.338
			c0.021,0.014,0.044,0.027,0.067,0.041c-0.021-0.001-0.04-0.002-0.06-0.005c0.02,0.11,0.039,0.222,0.062,0.332
			c0.031,0.018,0.062,0.036,0.093,0.053l-0.078,0.024c0,0.002,0.002,0.006,0.002,0.01c0.059,0.027,0.115,0.047,0.172,0.061
			c-0.053,0.002-0.108-0.003-0.162-0.014c0.027,0.133,0.055,0.266,0.085,0.399c0.212,0.239,0.396,0.421,0.552,0.542
			c-0.143-0.072-0.314-0.199-0.514-0.381l-0.002-0.002c0.09,0.404,0.191,0.809,0.302,1.215c0.009,0.033,0.019,0.066,0.028,0.102
			c0.055,0.025,0.109,0.047,0.162,0.064v0.07c-0.043-0.004-0.086-0.015-0.131-0.027c0.403,1.42,0.813,2.268,1.23,2.543
			c0.02,0.226,0.077,0.738,0.174,1.539c0.12,1.021,0.214,1.74,0.28,2.162c0.26,2.094,0.39,3.359,0.39,3.798
			c-0.292,2.829-0.557,4.735-0.793,5.718c-0.066,0.291-0.127,0.551-0.182,0.779c-0.155,0.199-0.322,0.475-0.503,0.826
			c-0.38,0.84-0.583,1.283-0.608,1.331c-0.336,0.627-0.57,1.075-0.704,1.345c-0.113,0.231-0.214,0.436-0.299,0.613
			c-0.028,0.041-0.06,0.086-0.091,0.133c-0.041,0.057-0.077,0.111-0.108,0.162c-0.022,0.102-0.042,0.203-0.058,0.304
			c-0.037,0.11-0.057,0.192-0.057,0.243c0,0.012,0.004,0.026,0.01,0.041c-0.093,0.512-0.189,1.037-0.291,1.578
			c-0.244,1.307-0.454,2.498-0.631,3.574c-0.045,0.096-0.081,0.201-0.109,0.318c-0.025,0.115-0.067,0.291-0.124,0.527
			c-0.045,0.213-0.066,0.394-0.066,0.543c0.015,0.192,0.021,0.377,0.014,0.551c-0.032,0.225-0.058,0.441-0.081,0.651
			c-0.082,0.38-0.123,0.698-0.123,0.955c0,0.013,0.003,0.028,0.01,0.046c-0.125,1.228-0.155,2.174-0.096,2.844
			c0.134,1.467,1.04,4.432,2.719,8.893c0.27,0.26,0.514,0.531,0.732,0.816c0.596,0.77,0.906,1.488,0.932,2.154
			c0.318,1.182,0.508,1.938,0.566,2.266c0.074,0.443,0.113,1.099,0.113,1.963c0,2.01-0.262,3.697-0.784,5.066
			c-0.847,2.211-2.312,3.416-4.397,3.612h-1.572c-0.481-0.104-0.817-0.188-1.008-0.253c-0.317-0.104-0.475-0.258-0.475-0.461
			c0-0.033,0.005-0.066,0.014-0.094c-0.525-0.204-1.175-0.467-1.948-0.789c-0.078,0.155-0.147,0.389-0.205,0.703
			c-0.035,0.172-0.068,0.328-0.1,0.47c-0.124-0.051-0.221-0.063-0.29-0.042c-0.083,0.028-0.413,0.223-0.993,0.584
			c-0.552,0.346-0.849,0.518-0.893,0.518c-0.064,0-0.23-0.004-0.5-0.014c-0.278-0.01-0.439-0.016-0.48-0.02
			c0.016-0.136-0.011-0.242-0.081-0.318c-0.12-0.136-0.426-0.203-0.917-0.203c-0.253,0-0.567,0.104-0.94,0.312
			c0.006-0.229,0.015-0.453,0.028-0.675c-0.041,0.061-0.079,0.116-0.114,0.167c-0.003,0-0.008,0-0.014,0
			c-0.092,0.193-0.17,0.352-0.233,0.475c-0.054-0.008-0.104-0.02-0.152-0.028c-0.183,0.263-0.337,0.438-0.46,0.527
			c0.126-0.188,0.25-0.378,0.371-0.56c-0.035-0.014-0.065-0.027-0.091-0.043c-0.037,0.127-0.074,0.218-0.108,0.275
			c-0.029,0-0.047,0-0.053,0c-0.01-0.003-0.015-0.029-0.015-0.076c0-0.02,0.021-0.088,0.062-0.209
			c0.009-0.029,0.017-0.051,0.023-0.066c-0.01-0.017-0.018-0.032-0.023-0.048c-0.374,0.507-0.656,0.812-0.846,0.917
			c0.142-0.158,0.454-0.615,0.931-1.374c0.003-0.06,0.007-0.122,0.009-0.19c-0.062,0.055-0.126,0.107-0.189,0.158
			c0,0.025,0,0.051,0,0.075l-0.067-0.019c-0.281,0.232-0.539,0.426-0.77,0.584c-0.06,0.196-0.114,0.359-0.162,0.486h-0.028
			c0.031-0.141,0.061-0.279,0.09-0.418c-0.019,0.012-0.038,0.022-0.053,0.032l0.023-0.071c0.013-0.012,0.027-0.025,0.043-0.039
			c0.023-0.104,0.045-0.207,0.067-0.309l-0.053-0.057c0.044-0.146,0.09-0.287,0.138-0.428c-0.013,0-0.025,0-0.038,0
			c-0.01-0.013-0.02-0.027-0.034-0.043c-0.161,0.346-0.312,0.567-0.452,0.666h-0.032c0.129-0.339,0.245-0.666,0.346-0.979
			c-0.009-0.033-0.019-0.064-0.028-0.096c-0.003-0.007-0.005-0.012-0.005-0.014c-0.041,0.168-0.071,0.289-0.09,0.365
			c-0.061,0.226-0.121,0.396-0.181,0.508c0.051-0.232,0.077-0.482,0.077-0.746c0.002-0.113,0.007-0.225,0.014-0.332
			c-0.035-0.016-0.056-0.035-0.062-0.057c-0.073,0.117-0.152,0.211-0.238,0.279c0.111-0.236,0.208-0.504,0.291-0.802
			c-0.126-0.13-0.231-0.267-0.313-0.414c-0.044,0.134-0.098,0.276-0.162,0.433h-0.028c0.056-0.231,0.1-0.417,0.128-0.557
			c-0.006-0.006-0.014-0.012-0.02-0.02h-0.057c-0.143-0.049-0.247-0.122-0.309-0.219c-0.026-0.034-0.04-0.063-0.043-0.09
			c-0.022,0.27-0.04,0.58-0.052,0.933h-0.028c-0.016-0.324-0.023-0.524-0.023-0.604c0-0.068,0.008-0.219,0.023-0.447
			c0.006-0.177,0.016-0.33,0.028-0.459c-0.042-0.115-0.078-0.218-0.109-0.311c-0.01,0.035-0.019,0.07-0.028,0.105
			c-0.014-0.016-0.027-0.041-0.043-0.076c-0.006-0.022-0.012-0.035-0.019-0.039c-0.02,0.032-0.04,0.062-0.062,0.091
			c0.007-0.065,0.018-0.136,0.033-0.208c-0.006-0.042-0.011-0.084-0.014-0.129c-0.025,0.047-0.054,0.078-0.085,0.096
			c-0.032-0.073-0.057-0.153-0.075-0.238c-0.01,0.025-0.02,0.045-0.029,0.057c-0.021-0.02-0.06-0.089-0.114-0.209
			c-0.028-0.063-0.05-0.117-0.066-0.162c-0.007,0.049-0.017,0.1-0.033,0.158c-0.026-0.168-0.055-0.475-0.091-0.918
			c-0.028-0.025-0.056-0.056-0.081-0.09c-0.006,0.031-0.014,0.067-0.023,0.109c-0.003,0.009-0.006,0.017-0.006,0.023
			c-0.002,0.028-0.003,0.057-0.003,0.086c-0.014,0.329-0.028,0.587-0.043,0.773c-0.004,0.025-0.02,0.047-0.048,0.062
			c-0.057-0.25-0.11-0.764-0.157-1.541c0,0.064-0.005,0.137-0.014,0.215c-0.016,0.113-0.022,0.189-0.019,0.229l-0.028-0.01
			c0.041,0.633,0.115,1.146,0.223,1.535c0.026,0.031,0.002,0.047-0.071,0.047c-0.244,0-0.396-0.309-0.456-0.926
			c-0.016-0.621-0.024-0.938-0.024-0.951c0-0.164,0.002-0.336,0.005-0.514c-0.092-0.13-0.173-0.281-0.248-0.456
			c-0.053,1.251-0.124,2.122-0.209,2.609c-0.073-0.058-0.124-0.208-0.152-0.451c-0.022-0.146-0.033-0.276-0.033-0.39
			c0-0.209,0.017-0.551,0.052-1.021c-0.015-0.159-0.031-0.35-0.047-0.57c-0.006-0.023-0.013-0.045-0.019-0.066
			c-0.006,0.027-0.015,0.068-0.024,0.119h-0.061c-0.017-0.086-0.05-0.361-0.1-0.822c-0.063-0.299-0.122-0.619-0.176-0.966
			c-0.006,0.11-0.017,0.244-0.033,0.399c-0.013,0.104-0.024,0.201-0.034,0.289l0.019,0.666c0,0.089-0.006,0.232-0.019,0.434
			c-0.019,0.25-0.042,0.443-0.066,0.584c-0.079-0.344-0.135-0.932-0.167-1.769c-0.006-0.218-0.011-0.437-0.014-0.651
			c-0.059-0.353-0.114-0.696-0.168-1.031c-0.027,0.037-0.059,0.072-0.093,0.104c0.003,0.392,0.013,0.724,0.028,0.998
			c0.026,0.587,0.079,1.224,0.162,1.911c-0.158-0.361-0.264-0.795-0.313-1.299c-0.026-0.274-0.038-0.723-0.038-1.344
			c0-0.006,0-0.014,0-0.019c-0.016,0.031-0.035,0.061-0.058,0.089c0.039,0.622,0.058,0.951,0.058,0.99
			c0,0.098-0.007,0.145-0.019,0.143c-0.01-0.004-0.017-0.018-0.023-0.039l-0.081-0.023c-0.019-0.061-0.035-0.117-0.048-0.172
			c0.003,0.103,0.009,0.213,0.015,0.334c0.047,0.744,0.079,1.154,0.095,1.23c0.035,0.016,0.016,0.023-0.057,0.023
			c-0.136,0-0.219-0.268-0.247-0.803c-0.01-0.542-0.014-0.816-0.014-0.822c0-0.117,0-0.23,0-0.338
			c-0.02-0.193-0.032-0.469-0.039-0.826c0-0.014,0-0.027,0-0.043c-0.01-0.054-0.017-0.109-0.024-0.166v1.777
			c-0.006,0.089-0.023,0.252-0.052,0.494c-0.016,0.219,0.001,0.379,0.052,0.48c-0.117-0.051-0.18-0.168-0.19-0.348
			c0.013-0.171,0.019-0.262,0.019-0.271c0-0.054,0.006-0.135,0.02-0.242l-0.02,0.006c-0.037-0.197-0.077-0.497-0.118-0.898
			c-0.061-0.181-0.121-0.454-0.182-0.818l-0.075-0.023c-0.051-0.713-0.076-1.104-0.076-1.174c-0.025-0.275-0.039-0.512-0.039-0.709
			c0-0.12,0.021-0.294,0.062-0.521c0-0.098,0-0.203,0-0.314c-0.01-0.028-0.021-0.057-0.033-0.086
			c-0.034,0.381-0.073,0.701-0.114,0.961c-0.003,0.016-0.005,0.033-0.005,0.052c-0.024,0.644-0.043,1.499-0.057,2.565l-0.043,0.016
			l-0.023-1.198c-0.016-0.048-0.029-0.1-0.039-0.157c-0.025,0.232-0.051,0.541-0.081,0.928h-0.028c0-0.079-0.004-0.207-0.013-0.387
			c-0.014-0.176-0.02-0.281-0.02-0.312c0-0.047,0.004-0.1,0.014-0.156c0-0.004,0.002-0.006,0.006-0.006
			c-0.008-0.068-0.012-0.125-0.015-0.17c-0.022,0.244-0.058,0.461-0.109,0.651h-0.033c-0.007-0.032-0.01-0.087-0.01-0.167
			c0-0.23,0.016-0.558,0.048-0.979c0.041-0.484,0.064-0.806,0.07-0.961v-0.815c-0.003-0.008-0.006-0.017-0.009-0.024
			c-0.112,0.868-0.146,1.62-0.1,2.257l-0.02,0.023c-0.016-0.024-0.036-0.196-0.061-0.513c-0.026-0.288-0.038-0.479-0.038-0.566
			c0-0.031,0-0.062,0-0.095c-0.036,0.241-0.059,0.427-0.071,0.556c-0.042-0.256-0.062-0.48-0.062-0.67
			c0-0.168,0.119-0.818,0.356-1.953c0.004-0.006,0.004-0.012,0.004-0.02v-0.066c0.011-0.102,0.021-0.191,0.034-0.271
			c-0.006-0.023-0.013-0.051-0.019-0.075c-0.042,0.343-0.1,0.661-0.176,0.956c-0.073,0.424-0.146,0.742-0.219,0.955
			c-0.013-0.032-0.007-0.071,0.019-0.119c-0.028,0.016-0.043-0.055-0.043-0.215c0-0.104,0.003-0.221,0.009-0.352
			c-0.006-0.008-0.011-0.018-0.014-0.027c0.012-0.111,0.023-0.221,0.033-0.328h-0.019c-0.14,0.768-0.228,1.285-0.266,1.555
			l-0.042,0.014c-0.013-0.102-0.02-0.192-0.02-0.271c0-0.373,0.132-1.232,0.396-2.576c0.038-0.189,0.073-0.367,0.108-0.531
			c0.004-0.064,0.009-0.125,0.015-0.186c-0.003-0.018-0.006-0.03-0.009-0.043c-0.066,0.365-0.141,0.77-0.224,1.217l-0.051,0.014
			c0.045-0.252,0.113-0.701,0.208-1.348l-0.124-0.021v-0.541c-0.118,0.612-0.207,1.002-0.266,1.168
			c-0.032,0.177-0.06,0.345-0.086,0.505h-0.071c0.11-0.748,0.237-1.461,0.379-2.14c-0.031-0.142-0.061-0.28-0.09-0.413
			c-0.225,0.991-0.358,1.579-0.4,1.764l-0.042,0.023c-0.01-0.013-0.015-0.021-0.015-0.029c-0.002-0.01-0.004-0.042-0.004-0.1
			c0-0.054,0.061-0.357,0.185-0.912l-0.014-0.006v-0.246c0.051-0.302,0.103-0.586,0.154-0.854c-0.029-0.062-0.052-0.113-0.068-0.159
			c-0.03-0.077-0.05-0.151-0.06-0.222c-0.126,0.469-0.206,0.864-0.24,1.187l-0.004,0.02c-0.003,0.015-0.011,0.028-0.019,0.037
			c-0.011-0.013-0.015-0.022-0.015-0.028c-0.003-0.009-0.005-0.043-0.005-0.1c0-0.188,0.092-0.691,0.276-1.512
			c0.002-0.016,0.006-0.031,0.009-0.047c-0.057-0.258-0.086-0.387-0.086-0.39c-0.006-0.029-0.011-0.056-0.014-0.081
			c-0.06,0.254-0.116,0.486-0.166,0.699l-0.062-0.016v-0.246c0.042-0.152,0.102-0.392,0.181-0.718
			c-0.039-0.254-0.066-0.517-0.082-0.79c-0.003-0.031-0.005-0.068-0.005-0.108c-0.051,0.244-0.103,0.513-0.156,0.808v0.01
			c0.066-0.152,0.11-0.266,0.132-0.343l0.043-0.013c-0.012,0.101-0.046,0.233-0.1,0.398c-0.083,0.24-0.13,0.381-0.143,0.422
			l-0.042,0.01c0.102-0.643,0.187-1.18,0.257-1.611c-0.014-0.373-0.022-0.893-0.029-1.558c-0.009-1.468,0.061-2.915,0.21-4.345
			c0.046-0.436,0.099-0.836,0.157-1.204c-0.055-0.716-0.081-1.583-0.081-2.603c0-0.266,0.065-1.172,0.195-2.719
			c0.146-1.694,0.263-2.76,0.352-3.197c0.061-0.295,0.188-0.75,0.385-1.364c0.18-0.556,0.355-1.04,0.525-1.452
			c-0.01-0.068-0.018-0.135-0.026-0.197c-0.006,0.009-0.013,0.02-0.019,0.028c0.006-0.013,0.011-0.024,0.014-0.038
			c-0.013-0.082-0.025-0.16-0.038-0.232c-0.96-0.031-1.679-0.312-2.153-0.842c-0.053,0.146-0.14,0.219-0.256,0.219
			c-0.089,0-0.16-0.062-0.214-0.186c-0.034-0.086-0.052-0.156-0.052-0.213c0-0.178,0.053-0.299,0.161-0.361
			c-0.009-0.017-0.017-0.031-0.023-0.043c-0.106-0.229-0.182-0.514-0.227-0.854c-0.009-0.031-0.017-0.064-0.026-0.098
			c-0.032-0.133-0.047-0.465-0.047-0.997c0-0.448,0.344-1.176,1.035-2.187c0.554-0.816,1.08-1.454,1.576-1.913
			c0.215-0.397,0.43-0.802,0.644-1.214l0.003-0.004c0.156-0.203,0.321-0.437,0.491-0.699c0.127-0.197,0.38-0.619,0.761-1.265
			c0.062-0.103,0.214-0.325,0.456-0.669c0.072-0.343,0.16-0.68,0.262-1.01c-0.004,0.058-0.045,0.311-0.122,0.764l0.516-1.19
			c0.098-0.087,0.228-0.235,0.389-0.447v-0.075h0.058c0.064-0.086,0.133-0.18,0.207-0.283c0.012-0.027,0.023-0.054,0.036-0.081
			c-0.033-0.163-0.069-0.327-0.11-0.491h0.072c0.024,0.146,0.048,0.285,0.071,0.416c0.16-0.365,0.335-0.758,0.523-1.178
			c0.025-0.066,0.057-0.136,0.097-0.211c0.07-0.206,0.152-0.404,0.246-0.591c0.322-0.653,0.748-1.136,1.273-1.446
			c0.037-0.021,0.074-0.041,0.11-0.061c0.501-0.826,0.75-1.268,0.75-1.326c0-0.121-0.017-0.217-0.051-0.291
			c0.022-0.016,0.043-0.033,0.066-0.049c-0.028-0.023-0.048-0.051-0.062-0.084c-0.012-0.032-0.019-0.066-0.019-0.102
			c-0.107,0.053-0.214,0.101-0.319,0.145l-0.095-0.142c0.108-0.036,0.218-0.079,0.33-0.128c-0.019-0.02-0.014-0.084,0.015-0.196
			l-0.237-0.002c-0.082,0.06-0.165,0.121-0.25,0.183l-0.238-0.023c0.076-0.043,0.161-0.096,0.257-0.159l-0.437-0.005
			c-0.082,0.056-0.164,0.11-0.247,0.164l-0.048-0.048c0.048-0.034,0.099-0.073,0.153-0.116l-0.323-0.002
			c-0.079-0.02-0.157-0.037-0.233-0.053h-0.026c-0.147,0.093-0.29,0.166-0.426,0.219c0.014-0.01,0.099-0.086,0.258-0.229
			c-0.227-0.045-0.441-0.09-0.643-0.13c-0.091,0.062-0.186,0.118-0.28,0.169c0.062-0.049,0.134-0.109,0.216-0.184
			c-0.788-0.165-1.372-0.299-1.751-0.402c-0.903-0.239-1.363-0.568-1.378-0.982c-0.019-0.447-0.176-0.937-0.471-1.469
			c-0.055-0.098-0.11-0.189-0.166-0.276c-0.143-0.099-0.231-0.155-0.266-0.171c0.002-0.005,0.003-0.01,0.004-0.014
			c-0.011-0.002-0.022-0.004-0.032-0.006l-0.053-0.014v-0.252c0.006-0.006,0.037-0.021,0.092-0.051
			c0.042-0.101,0.137-0.197,0.287-0.291c0.029-0.017,0.054-0.031,0.08-0.043c-0.152-0.109-0.262-0.205-0.331-0.286
			c-0.011-0.01-0.022-0.021-0.033-0.033c-0.104-0.101-0.157-0.171-0.157-0.209c0-0.052,0.049-0.105,0.145-0.156
			c0.077-0.191,0.227-0.408,0.449-0.646c0.066-0.07,0.132-0.134,0.195-0.19c0.125-0.16,0.227-0.254,0.305-0.286
			c0.068-0.093,0.162-0.188,0.284-0.28c0.072-0.056,0.165-0.126,0.276-0.209c0-0.005,0-0.012,0-0.019
			c0-0.035,0.054-0.081,0.161-0.138c0.055-0.03,0.104-0.052,0.144-0.066c0.014-0.009,0.026-0.019,0.041-0.028
			c-0.008-0.021-0.013-0.042-0.013-0.063c0-0.028,0.003-0.052,0.01-0.073c0.036-0.026,0.072-0.057,0.11-0.092
			c0.007-0.008,0.015-0.014,0.021-0.022c0.013-0.002,0.027-0.002,0.041-0.002c0.032,0.002,0.064,0.009,0.097,0.021
			c0.081-0.079,0.156-0.155,0.226-0.23c0.001-0.014,0.002-0.025,0.004-0.034c0.023-0.054,0.07-0.097,0.144-0.13
			c0.22-0.257,0.371-0.485,0.452-0.683c0.053-0.136,0.097-0.319,0.136-0.549c-0.012-0.019-0.021-0.041-0.026-0.063
			c-0.019-0.064-0.019-0.13,0-0.201c0-0.189,0.051-0.339,0.154-0.448c0.086-0.318,0.341-0.602,0.767-0.849
			c0.134-0.075,0.25-0.122,0.35-0.138c-0.034-0.056-0.05-0.107-0.05-0.152c0-0.089,0.046-0.155,0.138-0.194
			c0.021-0.101,0.037-0.176,0.046-0.229c-0.018-0.037-0.026-0.073-0.026-0.108c0-0.041,0.008-0.079,0.024-0.113
			c-0.013-0.179-0.042-0.508-0.085-0.989c-0.179-0.086-0.328-0.391-0.448-0.915c-0.072-0.314-0.121-0.632-0.147-0.955
			c0-0.295,0.134-0.627,0.399-0.999c0.123-0.17,0.255-0.315,0.399-0.435c0.025-0.064,0.062-0.143,0.114-0.235
			c0.076-0.145,0.137-0.225,0.181-0.238l0.014,0.071c-0.057,0.086-0.106,0.161-0.146,0.224c-0.025,0.038-0.047,0.073-0.065,0.102
			c0.129-0.094,0.267-0.17,0.414-0.226c0.034-0.04,0.076-0.085,0.125-0.138c0.129-0.136,0.219-0.215,0.266-0.237
			c0.07,0.009,0.11,0.022,0.119,0.038c-0.123,0.102-0.232,0.194-0.328,0.281c0.026-0.008,0.051-0.014,0.077-0.019
			c0.065-0.014,0.163-0.025,0.294-0.036c0.041-0.038,0.083-0.078,0.128-0.121c0.219-0.209,0.332-0.315,0.338-0.319
			c-0.042,0.101-0.168,0.241-0.38,0.419c-0.006,0.005-0.013,0.01-0.02,0.016c0.055-0.004,0.114-0.009,0.179-0.012
			c0.074-0.074,0.159-0.159,0.254-0.257c0.209-0.212,0.388-0.363,0.537-0.452c-0.098,0.089-0.262,0.249-0.49,0.48
			c-0.082,0.083-0.156,0.158-0.223,0.224c0.004,0,0.007,0,0.011,0c0.207-0.13,0.494-0.309,0.862-0.538
			c0.007-0.004,0.013-0.008,0.02-0.011c0.139-0.159,0.365-0.433,0.674-0.82c-0.088,0.215-0.265,0.458-0.53,0.729
			c0.161-0.101,0.311-0.193,0.449-0.278c0.125-0.124,0.25-0.259,0.371-0.405c0.206-0.243,0.473-0.576,0.803-0.998
			c-0.288,0.466-0.529,0.81-0.722,1.032c-0.064,0.073-0.131,0.145-0.2,0.213c0.271-0.167,0.485-0.297,0.644-0.392
			c0.184-0.24,0.281-0.414,0.292-0.521h0.034c0.006,0.006,0.011,0.01,0.014,0.01c0,0.003,0,0.028,0,0.075
			c0,0.058-0.051,0.167-0.152,0.327c0.06-0.035,0.123-0.068,0.188-0.1c0.162-0.137,0.348-0.293,0.558-0.469
			c0.06,0.008,0.099,0.018,0.115,0.031c0.123-0.071,0.264-0.139,0.422-0.205c0.31-0.352,0.527-0.579,0.651-0.681
			c0.093,0.007,0.171,0.015,0.235,0.023c0.003-0.003,0.008-0.006,0.012-0.009c-0.004,0.003-0.007,0.006-0.01,0.009
			c0.142,0.016,0.217,0.03,0.228,0.043c0.005,0.006,0.012,0.011,0.019,0.016c-0.051-0.014-0.094-0.022-0.128-0.022l-0.164,0.006
			c-0.193,0.184-0.361,0.347-0.503,0.487c0.205-0.069,0.404-0.119,0.596-0.15c0.078-0.012,0.148-0.021,0.211-0.026
			c0.139-0.066,0.278-0.124,0.416-0.173c-0.121,0.051-0.241,0.108-0.36,0.171c0.108-0.003,0.189,0.01,0.242,0.038
			c0.516-0.303,1.078-0.52,1.688-0.652v0.039c-0.613,0.163-1.162,0.385-1.648,0.669c0.026-0.01,0.053-0.019,0.079-0.028
			c-0.116,0.068-0.224,0.132-0.325,0.192c0.019-0.003,0.04-0.008,0.062-0.012c0.514-0.241,1.054-0.401,1.618-0.48
			c0.082-0.092,0.139-0.151,0.166-0.175c-0.022,0.053-0.049,0.107-0.08,0.163c0.135-0.015,0.272-0.027,0.41-0.035
			c0.117-0.2,0.171-0.386,0.16-0.556h0.032c0.019,0.01,0.032,0.016,0.039,0.02c0.015,0.009,0.023,0.038,0.023,0.085
			c0,0.127-0.056,0.275-0.166,0.447c0.054-0.002,0.11-0.004,0.166-0.005c-0.059,0.004-0.116,0.008-0.174,0.015
			c-0.014,0.021-0.028,0.042-0.042,0.063c0.096-0.027,0.195-0.05,0.297-0.069c-0.138,0.066-0.269,0.13-0.394,0.19
			c-0.021,0.028-0.046,0.056-0.07,0.083l0.002,0.002h-0.005c-0.009,0.012-0.018,0.023-0.028,0.034h0.258
			c0.084-0.011,0.176-0.021,0.274-0.031c0.061-0.111,0.127-0.237,0.2-0.377c0.146-0.275,0.24-0.428,0.285-0.457
			c-0.018,0.247-0.066,0.493-0.148,0.74c0.158-0.058,0.318-0.114,0.481-0.169c-0.031,0.02-0.191,0.1-0.481,0.238
			c0.071-0.003,0.14-0.006,0.206-0.009c0.299-0.174,0.619-0.289,0.959-0.347c0.071-0.04,0.144-0.079,0.219-0.119
			c-0.028,0.027-0.068,0.062-0.118,0.101c0.069-0.009,0.142-0.016,0.213-0.021v0.039c-0.103,0.012-0.204,0.03-0.304,0.051
			c-0.091,0.068-0.207,0.148-0.347,0.241c0.008,0,0.015-0.001,0.021-0.003c0.263-0.073,0.493-0.11,0.691-0.111
			c0.2-0.088,0.37-0.145,0.513-0.168v0.038c-0.124,0.04-0.252,0.085-0.38,0.135c0.02,0.002,0.039,0.005,0.057,0.006
			c0,0.003,0.003,0.008,0.008,0.012c0.117-0.004,0.234-0.004,0.35-0.001l0.014,0.038c-0.09,0.012-0.186,0.027-0.287,0.045
			l0.003,0.003c-0.002,0-0.005-0.002-0.007-0.003c-0.094,0.018-0.194,0.037-0.301,0.06c0.271-0.034,0.677-0.085,1.219-0.153
			c-0.321,0.061-0.605,0.116-0.85,0.165c0.112-0.008,0.229-0.015,0.351-0.021c0.073,0.016,0.113,0.031,0.119,0.047
			c-0.437,0.064-0.792,0.125-1.067,0.178c0.025,0.006,0.051,0.012,0.076,0.017c0.25,0.001,0.485,0.012,0.71,0.033
			c0.218,0.021,0.383,0.043,0.498,0.069l0.281-0.012c0-0.01,0.156-0.01,0.471,0c0.327,0.009,0.526,0.024,0.6,0.047
			c-0.119,0.06-0.404,0.098-0.855,0.116c0.428,0.048,0.693,0.075,0.797,0.083v0.038c-0.033,0.013-0.134,0.027-0.297,0.043
			c-0.162,0.019-0.273,0.028-0.334,0.028c-0.007,0-0.236-0.017-0.689-0.05c0.059,0.026,0.115,0.052,0.172,0.081
			c0.242,0.018,0.461,0.049,0.655,0.092c0.216,0.048,0.526,0.133,0.933,0.257c0.062,0.016,0.102,0.034,0.117,0.057
			C106.874,57.585,106.823,57.598,106.744,57.598L106.744,57.598z M97.505,57.317c0.005-0.006,0.01-0.011,0.016-0.017
			c-0.01,0.009-0.021,0.017-0.031,0.025C97.495,57.323,97.5,57.32,97.505,57.317z M97.746,57.22
			c0.111-0.044,0.228-0.085,0.349-0.124c0.045-0.053,0.094-0.111,0.147-0.171c-0.137,0.059-0.258,0.124-0.361,0.193
			C97.833,57.149,97.788,57.183,97.746,57.22z M98.427,56.761c0.054-0.021,0.106-0.041,0.158-0.059
			c0.169-0.16,0.372-0.335,0.605-0.525l-0.197,0.005c-0.223,0.168-0.43,0.369-0.62,0.604C98.39,56.777,98.409,56.769,98.427,56.761z
			 M98.266,57.028c0.05-0.057,0.105-0.117,0.167-0.179c-0.056,0.021-0.11,0.042-0.162,0.064c-0.004,0.007-0.01,0.013-0.015,0.019
			c-0.033,0.05-0.065,0.098-0.098,0.143c0.03-0.008,0.059-0.017,0.088-0.025C98.253,57.042,98.259,57.034,98.266,57.028z
			 M98.339,57.021c0.137-0.04,0.28-0.076,0.427-0.112c0.147-0.097,0.293-0.186,0.438-0.266c-0.243,0.048-0.462,0.103-0.656,0.166
			c-0.069,0.069-0.13,0.131-0.184,0.186C98.356,57.003,98.348,57.012,98.339,57.021L98.339,57.021z M101.472,56.514h0.079
			c0.005-0.006,0.011-0.014,0.016-0.021c-0.026,0.004-0.054,0.01-0.081,0.014C101.48,56.509,101.476,56.512,101.472,56.514z
			 M101.601,56.453l0.001-0.002l-0.005,0.002H101.601z M101.198,56.491c0.166-0.076,0.337-0.139,0.513-0.19
			c0.019-0.028,0.036-0.056,0.053-0.083c-0.143,0.015-0.283,0.032-0.421,0.053C101.302,56.34,101.254,56.414,101.198,56.491z
			 M101.246,56.285c-0.52,0.088-1,0.229-1.443,0.421c0.356-0.059,0.771-0.124,1.246-0.193
			C101.125,56.425,101.19,56.349,101.246,56.285z M102.753,56.497c-0.006,0.003-0.012,0.007-0.017,0.01
			c0.015-0.004,0.033-0.008,0.05-0.013C102.774,56.497,102.764,56.497,102.753,56.497z M102.581,56.509
			c-0.02,0.001-0.04,0.004-0.06,0.004h0.053C102.577,56.513,102.579,56.511,102.581,56.509z M99.748,56.555
			c-0.15,0.02-0.294,0.042-0.43,0.066c-0.126,0.076-0.25,0.16-0.375,0.25c0.043-0.01,0.086-0.02,0.13-0.028
			c0.101-0.021,0.211-0.042,0.331-0.064c0.016-0.01,0.03-0.021,0.045-0.031C99.546,56.679,99.646,56.615,99.748,56.555z
			 M103.028,56.436c0.132-0.072,0.272-0.15,0.423-0.229c-0.202,0.057-0.398,0.136-0.59,0.235
			C102.918,56.438,102.975,56.437,103.028,56.436z M108.255,61.445c-0.023-0.102-0.066-0.211-0.132-0.326
			c0.034,0.095,0.058,0.168,0.075,0.219c0.01,0.025,0.017,0.053,0.025,0.083C108.233,61.429,108.245,61.437,108.255,61.445z
			 M108.268,61.659c0.001,0.005,0.001,0.011,0.003,0.017c0-0.005,0-0.009,0.002-0.014C108.271,61.66,108.269,61.659,108.268,61.659z
			 M108.291,61.865c0.005,0.048,0.009,0.099,0.012,0.153c0.092,0.055,0.188,0.111,0.288,0.171l0.387-0.021
			c-0.064-0.049-0.288-0.211-0.672-0.484C108.302,61.732,108.298,61.793,108.291,61.865z M108.321,62.652c0,0.004,0,0.008,0,0.012
			c0,0.02-0.001,0.04-0.002,0.062c0.039,0.005,0.075,0.011,0.109,0.016c0.1-0.049,0.193-0.077,0.283-0.083
			c-0.016-0.013-0.031-0.028-0.047-0.042c-0.004,0.01-0.008,0.018-0.01,0.024c-0.014,0.019-0.045,0.028-0.096,0.028
			C108.485,62.668,108.407,62.664,108.321,62.652z M108.321,62.509c0.121,0.033,0.223,0.056,0.305,0.071
			c-0.09-0.084-0.193-0.184-0.309-0.299C108.319,62.354,108.32,62.431,108.321,62.509z M108.319,63.154
			c0.027-0.031,0.053-0.059,0.08-0.083c-0.046,0.003-0.09,0.008-0.132,0.012v0.002C108.286,63.107,108.303,63.13,108.319,63.154z
			 M108.276,63.204c-0.009-0.013-0.018-0.025-0.027-0.038c-0.012,0.036-0.02,0.073-0.031,0.111
			C108.237,63.251,108.257,63.227,108.276,63.204z M108.357,63.32c-0.007,0.016-0.013,0.033-0.019,0.05
			c0.012-0.011,0.021-0.022,0.033-0.031C108.368,63.333,108.362,63.327,108.357,63.32z M108.386,63.363
			c-0.014,0.021-0.031,0.044-0.05,0.066c0.021-0.019,0.042-0.036,0.06-0.053C108.394,63.373,108.39,63.367,108.386,63.363z
			 M108.472,63.548c-0.008,0.007-0.014,0.016-0.021,0.024c-0.059,0.071-0.111,0.134-0.16,0.189c0.029,0.046,0.057,0.092,0.082,0.136
			c0.11-0.039,0.2-0.07,0.268-0.092c-0.039-0.087-0.088-0.179-0.146-0.273C108.485,63.537,108.479,63.542,108.472,63.548z
			 M108.093,64.299c0.033-0.032,0.066-0.064,0.101-0.096c-0.021,0.025-0.046,0.054-0.073,0.086c0.096-0.036,0.188-0.072,0.275-0.107
			c-0.034-0.055-0.07-0.114-0.109-0.178c-0.085,0.032-0.179,0.066-0.282,0.103c-0.061,0.106-0.124,0.201-0.19,0.287
			c0.009-0.002,0.019-0.006,0.029-0.009C107.929,64.356,108.013,64.327,108.093,64.299z M108.483,64.328
			c-0.008-0.013-0.016-0.026-0.023-0.041c-0.073,0.034-0.151,0.07-0.236,0.106C108.306,64.374,108.392,64.352,108.483,64.328z
			 M108.511,64.135c0.076-0.032,0.15-0.065,0.22-0.098c-0.017-0.058-0.04-0.117-0.065-0.178c-0.068,0.026-0.154,0.06-0.258,0.099
			C108.444,64.021,108.478,64.079,108.511,64.135z M108.249,63.942c-0.016-0.024-0.033-0.05-0.049-0.076
			c-0.049,0.057-0.09,0.103-0.123,0.14C108.138,63.984,108.195,63.963,108.249,63.942z M108.185,64.537
			c-0.127,0.034-0.249,0.064-0.367,0.092c-0.045,0.051-0.096,0.106-0.148,0.164c0.158-0.073,0.307-0.137,0.439-0.195
			C108.133,64.577,108.158,64.558,108.185,64.537z M107.692,64.66c-0.004,0.01-0.008,0.02-0.012,0.028
			c0.013-0.011,0.025-0.023,0.037-0.036C107.71,64.656,107.701,64.658,107.692,64.66z M107.688,65.358
			c-0.028-0.016-0.06-0.034-0.093-0.054c0.02,0.025,0.038,0.051,0.058,0.076C107.663,65.374,107.675,65.366,107.688,65.358z
			 M107.557,65.44c0.017-0.011,0.034-0.021,0.05-0.032c-0.031-0.032-0.062-0.062-0.093-0.093c-0.013,0.059-0.026,0.113-0.038,0.167
			l0.006,0.002C107.506,65.47,107.53,65.455,107.557,65.44z M107.303,66.167c0.017,0.03,0.032,0.059,0.048,0.085
			c0.007,0,0.014-0.002,0.021-0.004c0.032-0.007,0.065-0.016,0.098-0.021c-0.045-0.039-0.095-0.079-0.149-0.119
			C107.313,66.127,107.308,66.146,107.303,66.167z M109.425,86.925c0-0.012,0.002-0.037,0.004-0.074
			c0-0.035-0.006-0.062-0.018-0.082v0.156H109.425z M92.486,97.633h0.009c0-0.016,0-0.032,0-0.052
			C92.493,97.601,92.489,97.617,92.486,97.633z M87.163,114.462c-0.002-0.004-0.004-0.006-0.004-0.01
			c-0.038,0.093-0.07,0.218-0.096,0.375c0,0.014-0.015,0.158-0.047,0.434c0.035-0.079,0.068-0.217,0.1-0.414
			C87.141,114.695,87.157,114.567,87.163,114.462z M88.186,119.827v0.084c0.001-0.037,0.001-0.073,0.004-0.111
			C88.187,119.806,88.186,119.815,88.186,119.827z M88.29,120.854v0.156c0.006-0.037,0.012-0.076,0.018-0.116
			C88.301,120.882,88.295,120.868,88.29,120.854z M87.32,116.925c0.066-0.381,0.102-0.629,0.109-0.746
			c-0.07,0.402-0.109,0.65-0.119,0.746H87.32z M89.789,122.794c-0.002-0.014-0.005-0.029-0.006-0.043c0,0.02,0,0.041,0,0.062
			C89.784,122.806,89.787,122.8,89.789,122.794z M88.884,121.278c-0.013-0.02-0.022-0.037-0.028-0.053
			c0.01,0.437,0.049,1.036,0.119,1.796c0.031,0.374,0.059,0.7,0.08,0.979v-1.455c-0.006-0.037-0.014-0.074-0.023-0.109
			C88.961,122.073,88.913,121.687,88.884,121.278z M88.309,122.101l-0.005-0.01c-0.003,0.078-0.003,0.16,0,0.246
			C88.304,122.264,88.306,122.185,88.309,122.101z M88.75,122.827c-0.003,0.076-0.004,0.148-0.004,0.219
			c0.02,0.161,0.044,0.34,0.076,0.533c-0.01-0.09-0.019-0.182-0.028-0.277C88.777,123.128,88.763,122.97,88.75,122.827z
			 M90.889,125.394c0.004-0.057,0.009-0.114,0.015-0.172c-0.009-0.038-0.017-0.076-0.019-0.113
			C90.885,125.2,90.887,125.294,90.889,125.394z M93.355,128.915c-0.019,0.035-0.036,0.068-0.052,0.1
			c-0.003,0.086-0.005,0.169-0.005,0.252c0.003,0.105,0.01,0.204,0.019,0.299c0.017,0.064,0.038,0.125,0.068,0.186
			c0.005,0.01,0.011,0.021,0.013,0.033c0.013-0.088,0.024-0.166,0.034-0.232C93.404,129.381,93.378,129.168,93.355,128.915
			L93.355,128.915z M93.713,128.222c0.002-0.035,0.009-0.07,0.019-0.104c0.016-0.083,0.032-0.163,0.048-0.239
			c-0.016,0.049-0.035,0.096-0.057,0.143c-0.003,0.043-0.009,0.086-0.019,0.129C93.707,128.172,93.709,128.196,93.713,128.222z
			 M93.008,128.948c0.008,0.045,0.013,0.092,0.02,0.143c0.003-0.058,0.005-0.088,0.005-0.096c-0.004-0.047-0.006-0.096-0.01-0.146
			C93.018,128.88,93.012,128.914,93.008,128.948z M93.218,126.815c0.013-0.039,0.026-0.078,0.038-0.115
			c-0.012-0.024-0.023-0.049-0.033-0.071c-0.006,0.036-0.015,0.071-0.024,0.108C93.206,126.763,93.212,126.788,93.218,126.815z
			 M95.814,130.217c0.072-0.044,0.141-0.087,0.203-0.128c0.026-0.156,0.049-0.309,0.073-0.461c-0.02-0.041-0.043-0.08-0.073-0.119
			C95.942,129.763,95.873,129.999,95.814,130.217L95.814,130.217z M96.217,128.882c-0.01,0.035-0.022,0.07-0.038,0.104
			c-0.019,0.051-0.038,0.104-0.057,0.158c-0.029,0.094-0.057,0.189-0.081,0.285c0.024,0.016,0.048,0.037,0.066,0.065
			C96.143,129.288,96.179,129.084,96.217,128.882z M92.078,125.612c-0.022-0.023-0.046-0.045-0.071-0.066
			c0.016,0.053,0.03,0.107,0.043,0.161c0.061,0.27,0.109,0.547,0.147,0.831c0.025,0.102,0.049,0.196,0.072,0.285
			c0.003-0.098,0.008-0.2,0.014-0.308C92.196,126.157,92.128,125.856,92.078,125.612z M93.565,129.67
			c0.003,0.067,0.01,0.13,0.024,0.187c0.069,0,0.131,0.002,0.184,0.005c-0.002-0.014-0.007-0.024-0.013-0.034
			c-0.074-0.172-0.117-0.352-0.134-0.542c-0.002,0.06-0.008,0.106-0.014,0.138C93.604,129.497,93.587,129.579,93.565,129.67z
			 M93.779,130.05h-0.224c0.06,0.08,0.131,0.15,0.214,0.21C93.773,130.189,93.775,130.12,93.779,130.05z M95.105,130.835
			c-0.006,0.086-0.013,0.172-0.019,0.261c0.016,0.022,0.032,0.046,0.048,0.067c0.005-0.004,0.01-0.007,0.014-0.01
			c0.01-0.124,0.019-0.238,0.028-0.348C95.154,130.816,95.13,130.825,95.105,130.835z M94.768,131.324
			c-0.004-0.031-0.006-0.062-0.01-0.089c-0.048,0.094-0.094,0.189-0.138,0.289c-0.003-0.004-0.022-0.029-0.058-0.076
			c-0.01-0.02-0.021-0.033-0.033-0.039c-0.073,0.169-0.147,0.33-0.219,0.485c-0.073,0.247-0.138,0.466-0.195,0.656
			c0.264-0.226,0.501-0.431,0.713-0.613c-0.013-0.14-0.034-0.335-0.062-0.584c-0.039-0.003-0.046-0.011-0.024-0.019
			C94.75,131.331,94.758,131.327,94.768,131.324L94.768,131.324z M94.981,131.173c-0.003,0.021-0.008,0.043-0.014,0.066
			c0.019-0.01,0.04-0.02,0.062-0.029C95.014,131.198,94.998,131.185,94.981,131.173z M93.76,130.427c0-0.02,0.002-0.037,0.005-0.053
			c-0.102-0.038-0.19-0.088-0.267-0.146c0.06,0.12,0.135,0.236,0.224,0.35C93.734,130.526,93.747,130.478,93.76,130.427z
			 M95.299,131.717c0.007-0.013,0.013-0.022,0.019-0.031v-0.005c-0.006,0.006-0.011,0.011-0.014,0.015
			C95.304,131.704,95.303,131.71,95.299,131.717z M95.538,131.2c-0.01,0.042-0.02,0.082-0.033,0.119
			c0.029-0.027,0.055-0.054,0.081-0.076c0.019-0.031,0.036-0.061,0.052-0.09C95.603,131.169,95.569,131.185,95.538,131.2z
			 M95.148,130.498c-0.006,0.04-0.011,0.081-0.014,0.123c0.021-0.013,0.042-0.023,0.062-0.034c0.012-0.117,0.025-0.227,0.037-0.327
			c-0.009,0.028-0.022,0.056-0.037,0.081C95.18,130.395,95.164,130.447,95.148,130.498z M95.942,130.427
			c-0.08,0.037-0.154,0.076-0.224,0.113c-0.035,0.123-0.066,0.24-0.095,0.352c0.079-0.051,0.159-0.102,0.237-0.151
			c0.039-0.073,0.071-0.142,0.1-0.204c0.006-0.045,0.013-0.088,0.019-0.129C95.964,130.413,95.952,130.419,95.942,130.427z
			 M94.962,131.767l0.024,0.027c0.047-0.04,0.092-0.08,0.138-0.117c0.006-0.108,0.013-0.223,0.019-0.344
			c-0.064,0.014-0.126,0.021-0.19,0.025c-0.003,0.094-0.008,0.191-0.014,0.289C94.942,131.712,94.949,131.751,94.962,131.767z
			 M94.929,131.823c0.003,0.006,0.003,0.015,0,0.023c0.013-0.009,0.022-0.019,0.029-0.027L94.929,131.823z M95.19,132.36
			c0.032,0.035,0.077,0.08,0.134,0.137c0.002-0.002,0.005-0.006,0.009-0.009c0.107-0.284,0.222-0.595,0.342-0.931
			c-0.067,0.101-0.138,0.209-0.214,0.322c-0.086,0.124-0.166,0.24-0.242,0.352C95.209,132.276,95.199,132.319,95.19,132.36
			L95.19,132.36z"/>
	</g>
	<g id="Layer_4_13_">
		<path id="path8_12_" fill="#010101" d="M93.86,162.32v-0.042c-0.009,0.031-0.013,0.062-0.009,0.09
			C93.851,162.349,93.853,162.334,93.86,162.32z M102.865,114.182c0.727,0.388,1.088,0.854,1.085,1.401
			c-0.016,0.067-0.048,0.125-0.096,0.172c0.213,0.564,0.308,1.322,0.285,2.277c0.007,0.002-0.016,0.164-0.066,0.484
			c0.127,0.94,0.181,1.766,0.162,2.476c-0.045,1.745-0.176,3.758-0.395,6.036c-0.095,0.973-0.243,2.342-0.442,4.105
			c0.003,0.055,0.006,0.109,0.009,0.168c0,0.015-0.056,0.781-0.171,2.299c-0.157,1.804-0.354,3.46-0.588,4.971
			c-0.44,2.799-0.959,4.78-1.555,5.946c0.003,0.038,0.005,0.079,0.005,0.124c0.006,0.13-0.355,0.912-1.084,2.344
			c0,0.021,0.001,0.045,0.004,0.07c0,0.003,0.003,0.052,0.009,0.146c-0.006-0.012-0.012-0.025-0.019-0.037
			c0.009,0.151,0.02,0.305,0.033,0.457c0.01,0.012,0.019,0.024,0.029,0.037c0.016,0.148,0.035,0.291,0.056,0.428
			c-0.016-0.02-0.029-0.04-0.042-0.062c0.057,0.494,0.145,0.944,0.266,1.352c0.129,0.256,0.333,0.617,0.613,1.087
			c0.397,0.669,0.621,1.176,0.676,1.521c0.051,0.38,0.083,0.953,0.1,1.716c0.01,0.394,0.014,0.796,0.014,1.208
			c0.025,0.604,0.058,1.254,0.096,1.948c0.02,0.446,0.01,0.814-0.029,1.103c-0.031,0.285-0.115,0.733-0.251,1.344
			c-0.093,0.407-0.295,1.294-0.609,2.663c-0.076,0.349-0.153,0.685-0.228,1.007c-0.01,0.099-0.02,0.201-0.029,0.309
			c-0.104,1.182-0.176,1.854-0.214,2.011h-0.062c-0.002-0.009-0.007-0.023-0.014-0.044c-0.006-0.02-0.011-0.078-0.015-0.17
			c-0.006-0.123,0-0.398,0.02-0.822c-0.066,0.251-0.13,0.492-0.19,0.723c0.003,0.178,0.007,0.391,0.01,0.643
			c0.009,0.617,0.008,1.109-0.005,1.478h-0.056c-0.049-0.45-0.089-0.841-0.124-1.17c0.015,1.179,0.023,2.132,0.023,2.856
			l-0.081,0.023c-0.035-0.462-0.078-1.101-0.128-1.914c-0.073,0.377-0.216,0.992-0.428,1.848l0.047,1.373l-0.056,0.02
			c0.07,0.26,0.142,0.483,0.218,0.67c-0.159-0.18-0.302-0.559-0.433-1.136c-0.022,0.104-0.044,0.208-0.066,0.309
			c-0.01-0.019-0.021-0.036-0.034-0.052c0.009,0.022,0.021,0.045,0.034,0.066c-0.038,0.2-0.073,0.392-0.105,0.575
			c-0.019-0.038-0.041-0.075-0.066-0.114c0,0.041-0.003,0.084-0.01,0.129h0.057c0.003,0.01,0.008,0.021,0.014,0.033
			c-0.028,0.171-0.052,0.337-0.071,0.499c-0.032,0.298-0.057,0.616-0.076,0.955c0.063,0.251,0.133,0.479,0.209,0.685
			c-0.073-0.107-0.146-0.25-0.218-0.428c-0.007,0.143-0.01,0.289-0.01,0.438c-0.006,0.044-0.014,0.09-0.023,0.139
			c0.009,0.009,0.016,0.018,0.019,0.027c0.004,0.123,0.006,0.248,0.01,0.375c-0.026-0.031-0.049-0.064-0.072-0.095
			c0.004,0.011,0.004,0.018,0,0.023c0.022,0.028,0.046,0.059,0.072,0.091c0,0.295,0.006,0.601,0.019,0.918
			c0,0.006-0.003,0.065-0.009,0.18c0,0.137,0.011,0.26,0.033,0.371c0.015,0.069,0.036,0.131,0.062,0.186
			c-0.022-0.004-0.043-0.01-0.062-0.02c0.111,0.184,0.275,0.405,0.494,0.665c0.44,0.507,0.671,1.02,0.689,1.535
			c0,0.013-0.001,0.146-0.005,0.399c0.181,0.432,0.084,0.726-0.29,0.884c-0.37,0.155-1.017,0.371-1.939,0.646
			c-0.912,0.284-1.717,0.337-2.414,0.156c-0.577-0.149-1.053-0.253-1.431-0.313c-0.06-0.009-0.118-0.019-0.171-0.027l-0.009,0.004
			c-0.383-0.025-0.922,0.067-1.616,0.28c-0.675,0.22-1.322,0.347-1.94,0.384c-1.14,0.08-1.927-0.014-2.361-0.279
			c-0.184-0.089-0.318-0.221-0.404-0.395c-0.104,0.115-0.23,0.197-0.38,0.247c-0.272,0.103-0.477,0.108-0.613,0.021
			c-0.165,0.1-0.294,0.176-0.39,0.223c-0.164,0.082-0.329,0.069-0.494-0.039c-0.181-0.098-0.328-0.395-0.442-0.893
			c-0.089-0.438,0.425-1.002,1.54-1.692c0.126-0.066,0.261-0.13,0.403-0.19c0.545-0.234,1.01-0.356,1.393-0.365
			c0.01-0.004,0.03-0.006,0.062-0.01c0.368-0.257,0.792-0.472,1.273-0.646c-0.041-0.016-0.071-0.033-0.09-0.053
			c0.041,0.004,0.09,0.015,0.147,0.033c0.099-0.043,0.2-0.082,0.305-0.113c-0.073-0.055-0.134-0.102-0.181-0.143
			c0.088,0.016,0.193,0.046,0.313,0.091c0.247-0.077,0.504-0.147,0.77-0.215c-0.002-0.003-0.005-0.006-0.01-0.009
			c0.099-0.039,0.208-0.053,0.328-0.043c0.099-0.022,0.197-0.041,0.295-0.058c0.019-0.006,0.042-0.011,0.07-0.013
			c-0.303-0.068-0.501-0.127-0.593-0.178c0.098-0.019,0.356-0.002,0.774,0.049c-0.01-0.008-0.025-0.018-0.047-0.033
			c-0.041-0.029-0.072-0.044-0.09-0.044l-0.014-0.034c0.073,0.036,0.159,0.053,0.257,0.053c0.057,0,0.111-0.004,0.162-0.014
			l-0.214,0.082c0.025,0.002,0.049,0.004,0.072,0.004c0.063-0.028,0.128-0.061,0.194-0.095c0.18-0.048,0.327-0.159,0.437-0.337
			c0.022-0.02,0.045-0.041,0.067-0.062c-0.013,0.004-0.024,0.006-0.034,0.01c0.047-0.083,0.088-0.176,0.124-0.281
			c-0.26,0.168-0.543,0.353-0.851,0.552l-0.047-0.048c0.043-0.121,0.147-0.264,0.309-0.432c-0.007-0.006-0.015-0.014-0.024-0.02
			c-0.003,0.023-0.008,0.035-0.014,0.039c-0.013,0.002-0.021-0.045-0.029-0.145c-0.006-0.18,0.251-0.566,0.771-1.164
			c0-0.009,0.005-0.017,0.014-0.022c0-0.038,0-0.071,0-0.101c0.009-0.017,0.021-0.031,0.032-0.047
			c-0.011,0.002-0.021,0.004-0.028,0.004c0.003-0.037,0.003-0.07,0-0.1c0.165-0.25,0.308-0.469,0.428-0.655
			c0.013-0.034,0.024-0.069,0.034-0.101c-0.044-0.004-0.07-0.014-0.077-0.033c0.003-0.016,0.011-0.031,0.02-0.047
			c-0.114,0.171-0.214,0.305-0.3,0.404c0.072-0.199,0.19-0.486,0.351-0.856c-0.225,0.333-0.356,0.554-0.395,0.661h-0.057
			c0.012-0.117,0.04-0.242,0.082-0.371c-0.33,0.387-0.567,0.668-0.713,0.846c0.124-0.354,0.437-0.833,0.941-1.436
			c0.117-0.253,0.266-0.525,0.447-0.816c0.016-0.039,0.033-0.074,0.053-0.109c0.002-0.055,0.004-0.107,0.004-0.158
			c-0.003-0.053-0.004-0.109-0.004-0.17c0.028-0.051,0.06-0.102,0.095-0.152c-0.165,0.225-0.355,0.483-0.571,0.775
			c-0.288,0.412-0.444,0.657-0.47,0.736h-0.062c-0.028-0.02-0.049-0.033-0.062-0.043c-0.016-0.02-0.025-0.076-0.028-0.172
			c-0.004-0.061,0.09-0.292,0.28-0.699c0.095-0.205,0.198-0.414,0.309-0.626l-0.071,0.021c0.143-0.404,0.343-0.836,0.6-1.295
			c0.006-0.013,0.011-0.027,0.019-0.041c0.013-0.186,0.026-0.379,0.043-0.58c-0.165,0.233-0.331,0.428-0.494,0.584h-0.063
			c0.023-0.029,0.223-0.398,0.6-1.107c0.041-0.508,0.068-0.959,0.081-1.355c0.004-0.009,0.009-0.019,0.019-0.027
			c0.004-0.01,0.006-0.021,0.01-0.034c-0.012,0.011-0.022,0.021-0.029,0.034c0.009-0.289,0.012-0.547,0.004-0.775
			c0-0.004,0-0.006,0-0.01l-0.004-0.019c0-0.048-0.002-0.094-0.004-0.138c-0.004-0.079-0.022-0.273-0.058-0.58l-0.009-0.162
			c-0.003,0.01-0.004,0.021-0.004,0.035c-0.013-0.112-0.028-0.232-0.047-0.362c0.006-0.034,0.011-0.069,0.014-0.104l-0.076-1.074
			c-0.019,0.096-0.039,0.182-0.059,0.262c-0.002-0.029-0.004-0.045-0.004-0.049c-0.067-1.662,0.003-3.484,0.209-5.465
			c0.215-1.689,0.318-2.643,0.309-2.861c-0.014-0.307-0.081-0.652-0.205-1.035c-0.098-0.289-0.204-0.526-0.318-0.713
			c-0.006-0.073-0.014-0.146-0.023-0.219c-0.156-1.287-0.225-2.131-0.209-2.533c0.016-0.621-0.192-1.293-0.623-2.016
			c-0.443-0.709-0.667-1.094-0.67-1.154c-0.006-0.674,0.081-1.324,0.261-1.949c0.035-0.088,0.059-0.168,0.071-0.242
			c-0.092-0.095-0.175-0.191-0.251-0.289c0,0.006,0,0.013,0,0.023c-0.079,0.02-0.132,0.021-0.157,0.01l-0.024-0.062
			c-0.025-0.003-0.038-0.006-0.038-0.01c-0.013,0-0.032-0.025-0.058-0.08c-0.057-0.14-0.107-0.299-0.152-0.48
			c-0.016-0.028-0.035-0.061-0.057-0.094l-0.043-0.029c-0.002-0.025-0.007-0.049-0.013-0.071c-0.067-0.11-0.128-0.227-0.181-0.347
			c0,0.092-0.003,0.16-0.009,0.204l-0.048-0.011c-0.013,0-0.021,0.003-0.024,0.006l-0.029-0.062
			c-0.013-0.155-0.026-0.303-0.043-0.442c-0.038-0.089-0.076-0.18-0.113-0.271c-0.022,0.021-0.045,0.042-0.067,0.062
			c0.013,0.12,0.022,0.217,0.028,0.289c-0.062-0.021-0.101-0.072-0.113-0.152c-0.003-0.018-0.008-0.035-0.015-0.051
			c-0.006,0-0.011,0.002-0.014,0.004c0-0.01,0.003-0.02,0.005-0.033c-0.072-0.234-0.113-0.531-0.123-0.893
			c0-0.016-0.006-0.035-0.015-0.058c-0.01,0.104-0.021,0.218-0.033,0.337l-0.005-0.004c0.031,0.291,0.074,0.541,0.128,0.75
			c-0.004,0-0.006,0.002-0.009,0.006c-0.057-0.276-0.125-0.608-0.205-0.998c-0.028-0.141-0.054-0.274-0.076-0.405
			c-0.003-0.142-0.006-0.276-0.009-0.403c-0.073-0.278-0.146-0.557-0.219-0.832c0,0.004,0,0.007,0,0.01
			c-0.085-0.5-0.136-0.879-0.152-1.135c-0.061-0.146-0.099-0.371-0.114-0.676l-0.029-0.76c-0.022-0.229-0.077-0.404-0.162-0.528
			c0.006-0.025,0.011-0.053,0.015-0.081c-0.022-0.284-0.037-0.568-0.043-0.851c-0.017,0.038-0.028,0.069-0.038,0.095
			c0.003-0.082,0.012-0.188,0.029-0.317c0.002-0.231,0.008-0.46,0.014-0.685c0.02-0.649,0.077-1.449,0.171-2.396l-0.056,0.019
			c0.015-0.113,0.051-0.268,0.104-0.46c0.026-0.229,0.054-0.463,0.086-0.704c0.041-0.203,0.082-0.441,0.123-0.713
			c0.131-0.801,0.2-1.359,0.209-1.672c0.016-0.096,0.032-0.189,0.048-0.281c0.383-2.654,0.736-4.544,1.06-5.665
			c0.663-2.446,1.499-4.478,2.509-6.093c0.637-1.236,1.515-2.182,2.633-2.838c0.973-0.554,2.026-0.852,3.161-0.893
			C101.242,113.634,102.129,113.806,102.865,114.182z M99.397,170.024c-0.01-0.247-0.027-0.552-0.053-0.912
			c-0.025,0.104-0.049,0.209-0.071,0.312c0.022,0.149,0.057,0.324,0.105,0.523C99.384,169.974,99.389,169.999,99.397,170.024
			L99.397,170.024z M93.77,173.032c-0.013,0.018-0.027,0.035-0.042,0.059c-0.003,0.006-0.007,0.012-0.01,0.02
			c0.019-0.018,0.039-0.031,0.062-0.044c0.012-0.028,0.026-0.054,0.042-0.076C93.803,173.003,93.786,173.017,93.77,173.032
			L93.77,173.032z"/>
	</g>
	<g id="Layer_5_13_">
		<path id="path11_11_" fill="#010101" d="M106.9,115.992c0.019,0.061-0.006,0.114-0.075,0.163c0.39,0.569,0.659,1.324,0.808,2.262
			c0,0.002-0.003,0.162-0.009,0.479c0.328,0.937,0.545,1.753,0.646,2.448c0.164,1,0.309,2.087,0.432,3.26
			c-0.003,0.003-0.006,0.004-0.01,0.004c-0.229,0.131-0.352,0.36-0.371,0.689c-0.016,0.314,0.012,0.591,0.081,0.832
			c0.036,0.117,0.118,0.309,0.247,0.575c0.241,0.501,0.344,1.077,0.311,1.729c-0.02,0.38-0.15,1.629-0.392,3.744
			c-0.259,2.314-0.45,3.787-0.575,4.422c-0.211,1.073-0.426,2.451-0.641,4.133c-0.061,0.482-0.234,1.203-0.523,2.164
			c-0.26,0.87-0.402,1.527-0.428,1.972c0,0.003-0.003,0.058-0.01,0.162c-0.006,0.101,0,0.198,0.02,0.29
			c-0.006,0.049-0.012,0.105-0.014,0.166c-0.007,0.083,0.418,0.641,1.273,1.673c0.602,0.374,1.033,0.708,1.293,1.003
			c0.332,0.371,0.539,0.864,0.617,1.482c0.029,0.203,0.172,1.134,0.428,2.795c0.238,1.662,0.344,2.744,0.318,3.24
			c-0.004,0.052-0.064,0.34-0.184,0.865c0.012,0.464,0.007,0.903-0.016,1.321c-0.006,0.134-0.117,1.522-0.332,4.169
			c-0.004-0.035-0.004-0.071,0-0.109c-0.039,0.213-0.079,0.431-0.119,0.656c-0.004,0.018-0.005,0.037-0.005,0.057
			c0.042-0.141,0.077-0.285,0.109-0.438c-0.038,0.453-0.079,0.943-0.124,1.473c-0.014,0.152-0.03,0.324-0.053,0.514
			c-0.002-0.003-0.004-0.008-0.004-0.014c-0.025,0.084-0.046,0.164-0.062,0.236c-0.006,0.115-0.013,0.223-0.02,0.324
			c-0.062,0.364-0.141,0.778-0.23,1.24c-0.01-0.136-0.021-0.293-0.03-0.466c-0.051,0.225-0.099,0.421-0.142,0.585
			c0.009,0.228,0.014,0.426,0.014,0.593c-0.002,0.004-0.005,0.009-0.005,0.015c-0.003,0.01-0.005,0.02-0.005,0.029h-0.057
			c-0.01,0.06-0.015,0.12-0.015,0.18c-0.006,0.049-0.021,0.109-0.048,0.186l0.044-0.01c-0.038,0.169-0.075,0.332-0.11,0.49
			l-0.08,1.607c0.006,0.008,0.014,0.018,0.023,0.027l-0.004,0.07c-0.01-0.006-0.018-0.012-0.025-0.018l-0.023,0.451
			c0.115,0.278,0.25,0.713,0.41,1.302l-0.029,0.071c-0.095-0.24-0.23-0.527-0.408-0.859l-0.029,0.598
			c-0.013,0.133-0.027,0.259-0.043,0.376c0.016,0.028,0.033,0.059,0.053,0.091c0.016,0.037,0.123,0.379,0.323,1.021l-0.038,0.218
			c-0.01,0.032-0.021,0.058-0.037,0.077c-0.023-0.077-0.113-0.229-0.271-0.461c0.062,0.27,0.164,0.671,0.304,1.207
			c0.117,0.488,0.204,0.92,0.261,1.297c0.023,0,0.047,0,0.072,0s0.051,0,0.075,0c0.026,0.045,0.038,0.086,0.038,0.123
			c0.52,0.33,0.805,0.725,0.855,1.184c0.131,0.194,0.188,0.453,0.171,0.775c-0.024,0.463-0.071,0.81-0.142,1.04
			c-0.121,0.421-0.354,0.776-0.699,1.065c-0.922,0.773-2.724,1.159-5.403,1.159c-0.767,0-1.369-0.118-1.807-0.356
			c-0.054,0.003-0.1,0.004-0.137,0.004l-0.414,0.029v-0.01c-0.405,0.025-0.803,0.002-1.193-0.07
			c-0.297-0.045-0.804-0.092-1.521-0.138c-0.288-0.017-0.613-0.032-0.974-0.049c-1.438-0.069-2.62-0.081-3.546-0.032
			c-0.906,0.035-1.452-0.025-1.64-0.181c-0.263,0.034-0.743,0.044-1.44,0.028c-0.383-0.014-0.725-0.049-1.027-0.109
			c-0.003-0.041-0.003-0.068,0-0.081c0.02-0.298,0.104-0.515,0.253-0.651c0.383-0.351,0.779-0.654,1.188-0.908
			c0.016-0.008,0.03-0.017,0.042-0.023c1.188-0.012,2.02-0.085,2.495-0.218c0.393-0.396,1.36-1.022,2.904-1.878
			c0.028-0.012,0.62-0.332,1.772-0.959c-0.038,0.016-0.07,0.029-0.095,0.042l-0.104-0.143l-0.005-0.009
			c0.016-0.01,0.068-0.016,0.157-0.016c0.002,0,0.36-0.152,1.069-0.455c0.048-0.02,0.095-0.037,0.143-0.053
			c0.257-0.146,0.465-0.266,0.627-0.361c0.215-0.305,0.425-0.716,0.627-1.235c-0.884,0.829-1.44,1.39-1.667,1.677l-0.039-0.047
			c0.402-0.494,0.934-1.08,1.593-1.759c0.089-0.089,0.176-0.176,0.261-0.261c0.017-0.058,0.034-0.115,0.054-0.172
			c-0.685,0.631-1.386,1.186-2.102,1.668l-0.038-0.047c0.827-0.725,1.585-1.406,2.271-2.039c0.013-0.031,0.024-0.065,0.033-0.1
			c0.042-0.14,0.084-0.283,0.129-0.428c-0.294,0.342-0.543,0.611-0.746,0.809l-0.043-0.049c0.336-0.468,0.64-0.881,0.912-1.236
			c0.089-0.365,0.172-0.752,0.247-1.153c0.048-0.228,0.087-0.421,0.119-0.579c-0.099,0.125-0.221,0.299-0.366,0.518
			c-0.374,0.561-0.578,0.982-0.613,1.264h-0.066c0.058-0.463,0.274-0.972,0.651-1.525c-0.216,0.266-0.372,0.457-0.471,0.574
			l-0.043-0.047c0.248-0.343,0.572-0.758,0.975-1.246c0-0.051-0.003-0.097-0.009-0.143c-0.169,0.172-0.36,0.365-0.575,0.58
			c0.171-0.18,0.364-0.387,0.579-0.617c-0.027-0.795-0.06-1.459-0.095-1.992c0.038-0.271,0.065-0.57,0.081-0.893
			c0.05-0.963-0.042-2.484-0.276-4.562c-0.218-1.901-0.43-3.268-0.632-4.102c-0.139-0.572-0.361-1.276-0.666-2.11
			c-0.36-0.95-0.628-1.665-0.802-2.144c-0.621-1.727-0.918-3.145-0.889-4.258c-0.025-0.035-0.05-0.068-0.076-0.1
			c-0.368,0.086-0.677,0-0.927-0.257c-0.212-0.222-0.313-0.444-0.303-0.671c0.009-0.16,0.022-0.3,0.038-0.418
			c-0.155-0.184-0.232-0.289-0.228-0.312c-0.096-0.415-0.14-0.814-0.134-1.198c-0.411-0.292-0.821-0.642-1.23-1.05
			c-0.488-0.479-0.937-1.004-1.345-1.574c-0.308-0.424-0.511-0.744-0.608-0.959c-0.311-0.67-0.682-1.676-1.112-3.019
			c-0.383-1.198-0.574-1.845-0.57-1.938c0.017-0.298,0.09-0.533,0.224-0.703c0.054-0.07,0.117-0.127,0.19-0.167
			c-0.042-0.196-0.118-0.419-0.229-0.666c-0.003-0.006-0.006-0.013-0.009-0.019c0-0.006,0-0.013,0-0.019
			c-0.013-0.073-0.021-0.144-0.029-0.214c-0.209-1.369-0.316-3.391-0.322-6.064c0.01-2.592,0.104-4.432,0.285-5.518
			c0.409-2.357,1.093-4.302,2.053-5.832c0.586-1.166,1.534-2.027,2.842-2.586c1.134-0.473,2.419-0.682,3.85-0.631
			c1.318,0.039,2.474,0.27,3.466,0.688C106.271,114.961,106.821,115.45,106.9,115.992L106.9,115.992z"/>
	</g>
	<g id="Layer_7_13_">
		<path id="path14_11_" fill="#010101" d="M113.056,100.319c0.006-0.008,0.008-0.016,0.006-0.025v0.006
			C113.062,100.306,113.06,100.312,113.056,100.319z M113.707,97.153c-0.02-0.111-0.04-0.229-0.062-0.356c0,0.085,0,0.169,0,0.252
			c0.012,0.228,0.016,0.435,0.01,0.618C113.673,97.479,113.69,97.309,113.707,97.153z M113.759,96.417l-0.047-0.02
			c0-0.148-0.018-0.326-0.053-0.531c-0.01,0.199-0.016,0.387-0.02,0.564c0.035,0.156,0.066,0.298,0.09,0.428
			C113.743,96.69,113.752,96.544,113.759,96.417z M113.678,95.091c-0.003,0.066-0.003,0.133,0,0.2
			c0.021,0.069,0.034,0.138,0.044,0.204C113.712,95.353,113.698,95.218,113.678,95.091z M113.678,94.521
			c0.01,0.117,0.015,0.232,0.015,0.347c0.057,0.19,0.096,0.493,0.113,0.907c0.007,0.025,0.007,0.049,0,0.072
			c0.039,0.181,0.051,0.301,0.034,0.361c0,0.002,0.002,0.008,0.005,0.014c0.012,0.088,0.021,0.172,0.028,0.246
			c-0.007-0.236-0.017-0.463-0.033-0.678c-0.02-0.254-0.042-0.488-0.072-0.704C113.746,94.896,113.717,94.707,113.678,94.521
			L113.678,94.521z M113.659,93.509c0.01,0.053,0.012,0.102,0.004,0.146c0.045,0.113,0.086,0.225,0.125,0.332
			C113.757,93.823,113.713,93.663,113.659,93.509z M112.519,87.938c-0.076-0.158-0.176-0.367-0.294-0.628
			c0.085,0.264,0.166,0.532,0.241,0.808c0.004,0,0.006,0.006,0.01,0.016c0.076,0.136,0.146,0.258,0.209,0.365
			c-0.07-0.136-0.122-0.24-0.156-0.314c0.127,0.181,0.229,0.344,0.309,0.486C112.755,88.452,112.649,88.208,112.519,87.938z
			 M111.277,85.024c-0.05-0.069-0.098-0.139-0.142-0.209c0.088,0.172,0.176,0.344,0.261,0.519c0.058,0.075,0.112,0.148,0.167,0.218
			c0.079,0.074,0.154,0.133,0.229,0.182c-0.121-0.158-0.23-0.307-0.328-0.447c-0.016-0.006-0.033-0.014-0.053-0.023
			C111.366,85.18,111.322,85.101,111.277,85.024L111.277,85.024z M111.13,84.235c0.01-0.012,0.012-0.025,0.006-0.037
			c-0.004,0.004-0.006,0.004-0.01,0C111.132,84.214,111.134,84.226,111.13,84.235z M111.136,83.688
			c-0.004-0.084-0.01-0.17-0.02-0.256l-0.004-0.01c-0.003-0.01,0-0.021,0.009-0.037c-0.016-0.115-0.028-0.229-0.038-0.343
			c-0.012,0.226-0.033,0.452-0.062,0.68c0.018,0.066,0.034,0.14,0.053,0.22c0.02,0.066,0.036,0.126,0.048,0.18
			C111.128,83.976,111.132,83.833,111.136,83.688L111.136,83.688z M111.089,81.423c-0.011-0.045-0.025-0.096-0.043-0.152
			c0.016,0.127,0.025,0.252,0.027,0.375c0.014,0.076,0.026,0.152,0.039,0.229C111.109,81.731,111.101,81.581,111.089,81.423
			L111.089,81.423z M105.143,76.005c0.281-0.164,0.597-0.296,0.94-0.391c0.256-0.072,0.523-0.127,0.799-0.166
			c1.09-0.215,1.979,0.24,2.666,1.369c0.022,0.037,0.043,0.07,0.062,0.1c0.26,0.45,0.483,0.902,0.67,1.354l0.057-0.309
			c0.025,0.064,0.035,0.109,0.029,0.139c-0.01,0.048-0.01,0.102,0,0.161c0.329,0.336,0.533,0.583,0.612,0.741l-0.028,0.005
			c-0.066-0.069-0.197-0.202-0.391-0.399c0.238,0.355,0.413,0.671,0.523,0.946c-0.076-0.108-0.238-0.345-0.489-0.712l0.019,0.043
			c0,0.002,0.002,0.01,0.006,0.018c0.061,0.102,0.113,0.2,0.16,0.295c0.264,0.466,0.406,0.818,0.429,1.055
			c-0.029-0.047-0.2-0.387-0.514-1.018c-0.042-0.094-0.083-0.184-0.128-0.27l-0.028,0.004c0.081,0.225,0.151,0.457,0.209,0.694
			c0.019,0.022,0.036,0.049,0.052,0.08h0.005c-0.003,0.004-0.003,0.007,0,0.01c0.11,0.216,0.208,0.438,0.29,0.671
			c0.143,0.389,0.255,0.84,0.338,1.354l-0.023-0.009c-0.134-0.538-0.271-0.989-0.41-1.351c-0.045-0.136-0.095-0.271-0.151-0.408
			c-0.003,0-0.007,0-0.009,0c0.027,0.113,0.053,0.229,0.075,0.348c0,0.009,0.003,0.02,0.01,0.028
			c0.161,0.472,0.28,0.946,0.355,1.421c0.061,0.266,0.081,0.445,0.062,0.537c-0.007,0.035-0.015,0.054-0.024,0.057
			c-0.009,0.016-0.01,0.025-0.004,0.029l-0.029-0.006c-0.037-0.266-0.094-0.551-0.166-0.855c0.111,0.789,0.155,1.287,0.133,1.492
			c0.073,0.453,0.085,0.805,0.038,1.055c-0.021,0.105-0.049,0.211-0.081,0.314c0.004,0.006,0.007,0.015,0.01,0.023
			c0.339,0.605,0.508,0.931,0.504,0.975c0.074,0.102,0.146,0.211,0.219,0.328c-0.006-0.02-0.018-0.047-0.033-0.086
			c-0.014-0.031-0.018-0.055-0.014-0.066c0.072,0.086,0.126,0.149,0.16,0.189c0.008-0.002,0.012-0.002,0.016,0
			c0.003,0.008,0.003,0.01,0,0.01c0.012,0.017,0.021,0.031,0.027,0.043c0.02,0.026,0.025,0.074,0.016,0.148
			c-0.01,0.037-0.02,0.053-0.025,0.047c-0.006,0.003-0.021,0-0.047-0.01c-0.021-0.025-0.045-0.054-0.066-0.086
			c-0.02,0.008-0.041,0.006-0.066-0.004c-0.044-0.017-0.091-0.039-0.139-0.067c0.105,0.159,0.199,0.317,0.281,0.476
			c0.136,0.174,0.221,0.308,0.252,0.4c-0.021-0.026-0.051-0.059-0.086-0.096c0.134,0.275,0.223,0.521,0.266,0.736
			c0.27,0.514,0.404,0.852,0.404,1.012c0.134,0.324,0.188,0.543,0.166,0.656c0,0.004,0,0.007,0,0.01
			c0.027,0.076,0.037,0.13,0.034,0.161c-0.013,0.067-0.024,0.079-0.034,0.038c-0.027-0.06-0.066-0.139-0.113-0.237
			c0.054,0.12,0.078,0.2,0.07,0.243c-0.012,0.065-0.021,0.08-0.027,0.043c-0.035-0.068-0.068-0.125-0.101-0.172
			c0.026,0.066,0.04,0.125,0.044,0.176c0.393,0.719,0.738,1.605,1.035,2.656h-0.037c-0.232-0.539-0.462-1.05-0.689-1.534
			c0.105,0.278,0.231,0.612,0.38,1.002c-0.089-0.157-0.186-0.329-0.29-0.513c0.311,0.729,0.558,1.406,0.741,2.033l-0.038-0.01
			c-0.111-0.256-0.296-0.66-0.556-1.211c0.007,0.016,0.01,0.031,0.01,0.047c0.024,0.14,0.046,0.277,0.066,0.414
			c0.091,0.229,0.22,0.686,0.386,1.373c0.184,0.773,0.263,1.213,0.236,1.316c-0.009,0.039-0.018,0.06-0.023,0.062
			c-0.002-0.002-0.013-0.006-0.029-0.009c-0.233-1.162-0.418-2.018-0.551-2.566c0.021,0.154,0.039,0.313,0.048,0.476
			c0.085,0.291,0.161,0.576,0.223,0.854l-0.022,0.016c-0.055-0.117-0.105-0.232-0.156-0.344c0,0.01,0,0.025,0,0.043
			c0.117,0.293,0.205,0.602,0.266,0.932c0.076,0.197,0.141,0.394,0.193,0.59c0.105,0.326,0.2,0.648,0.287,0.964l-0.034,0.024
			c-0.089-0.082-0.155-0.187-0.2-0.313c-0.037-0.13-0.082-0.265-0.133-0.403c0.007,0.225,0.002,0.438-0.014,0.637
			c0.006,0.043,0.004,0.083-0.006,0.119l-0.032-0.016c-0.003-0.037-0.003-0.077,0-0.119c0-0.287-0.01-0.574-0.028-0.859
			c-0.073-0.209-0.154-0.431-0.242-0.665c0.106,0.47,0.172,0.969,0.193,1.501c0.014,0.292,0.012,0.595-0.004,0.908l-0.02-0.015
			c0.029,0.288,0.035,0.479,0.02,0.571c-0.016,0.069-0.03,0.113-0.043,0.133l-0.033-0.014c0.003-0.162,0.007-0.324,0.009-0.486
			c-0.009,0.143-0.021,0.273-0.032,0.391c0.031,0.174,0.041,0.287,0.029,0.337c-0.023,0.11-0.042,0.132-0.058,0.062
			c0-0.031-0.006-0.066-0.015-0.104c-0.029,0.178-0.066,0.304-0.115,0.38c-0.002,0.073-0.008,0.148-0.019,0.228
			c0.019,0.039,0.037,0.075,0.053,0.109l-0.062-0.023c-0.01,0.07-0.02,0.135-0.029,0.194c-0.016,0.083-0.039,0.156-0.07,0.219
			c-0.021,0.55-0.048,0.907-0.076,1.079c-0.022,0.105-0.038,0.175-0.048,0.209c-0.025,0.083-0.056,0.145-0.095,0.186l-0.029-0.029
			c0.01-0.145,0.021-0.281,0.034-0.408c-0.013,0.055-0.03,0.105-0.052,0.152c-0.023,0.385-0.047,0.639-0.072,0.766
			c-0.01,0.05-0.016,0.078-0.02,0.08c-0.002,0.008-0.006,0.012-0.009,0.016c-0.003,0.033-0.003,0.062,0,0.08
			c0.028,0.229,0.033,0.391,0.015,0.49c-0.013,0.085-0.039,0.145-0.077,0.18c0.032,0.33,0.061,0.816,0.087,1.463
			c0.148,0.504,0.213,0.813,0.193,0.928c-0.006,0.037-0.01,0.059-0.014,0.062c-0.003,0.006-0.01,0.011-0.018,0.015
			c-0.023-0.016-0.044-0.031-0.062-0.049c-0.004-0.012-0.012-0.031-0.023-0.057c-0.014-0.126-0.033-0.262-0.059-0.402
			c0.014,0.373,0.015,0.811,0.006,1.311c0.237,0.922,0.386,1.51,0.445,1.764c-0.062-0.154-0.145-0.407-0.246-0.756
			c0.099,0.399,0.184,0.801,0.258,1.202c-0.018,0.013-0.037,0.012-0.062-0.005c-0.096-0.443-0.23-0.98-0.404-1.611
			c0,0.025,0,0.049,0,0.072c0.045,0.167,0.09,0.344,0.137,0.531c0.178,0.745,0.311,1.374,0.396,1.887
			c-0.176-0.548-0.356-1.209-0.543-1.981c-0.006,0.104-0.012,0.212-0.014,0.323c0.047,0.225,0.1,0.467,0.156,0.728
			c-0.058-0.19-0.111-0.376-0.162-0.556c-0.004,0.211-0.011,0.428-0.023,0.646c0.406,1.104,0.631,1.758,0.676,1.957
			c-0.01,0.016-0.022,0.018-0.038,0.004c-0.128-0.299-0.249-0.588-0.361-0.865c0.034,0.115,0.065,0.223,0.09,0.324l-0.033-0.01
			c-0.07-0.256-0.175-0.576-0.313-0.96c-0.007-0.038-0.02-0.072-0.038-0.104c0,0.056-0.005,0.112-0.015,0.166
			c0.029,0.066,0.059,0.133,0.09,0.199c0.309,0.798,0.516,1.403,0.623,1.816c-0.006,0.019-0.023,0.022-0.053,0.014
			c0-0.015-0.027-0.095-0.085-0.237c0.019,0.082,0.026,0.144,0.019,0.186c-0.012,0.038-0.021,0.06-0.027,0.066
			c0,0.002,0,0.006,0,0.01l-0.096-0.038c0.029,0.085,0.057,0.161,0.086,0.228c0.054,0.117,0.104,0.234,0.152,0.352l-0.023,0.005
			c0.04,0.127,0.056,0.201,0.046,0.223c-0.002,0.042-0.009,0.062-0.019,0.062c-0.006-0.002-0.018-0.01-0.033-0.018
			c-0.207-0.473-0.382-0.883-0.527-1.231c-0.069-0.14-0.139-0.284-0.209-0.433c-0.003,0.08-0.006,0.158-0.01,0.238
			c0.289,0.604,0.477,1.082,0.566,1.43l-0.044-0.014c-0.097-0.22-0.278-0.605-0.541-1.16c0,0.048-0.002,0.099-0.005,0.152
			c0.075,0.158,0.138,0.307,0.186,0.442c0.012,0.009,0.021,0.024,0.027,0.042c0.15,0.361,0.252,0.653,0.305,0.875h-0.023
			c0.076,0.189,0.114,0.295,0.114,0.318c-0.003,0.01-0.009,0.02-0.015,0.028c0.016,0.048,0.027,0.087,0.033,0.118
			c0.195,0.488,0.292,0.746,0.285,0.775c-0.003,0.037-0.016,0.062-0.038,0.072l-0.056,0.004c-0.096-0.184-0.201-0.4-0.314-0.651
			c-0.021,0.022-0.052,0.036-0.086,0.043c0.004,0.013,0.01,0.028,0.02,0.048c-0.01-0.01-0.024-0.027-0.043-0.053
			c0.146,0.244,0.299,0.564,0.461,0.961c0.229,0.57,0.341,0.889,0.338,0.959c0.17,0.258,0.294,0.468,0.371,0.633
			c-0.276-0.368-0.502-0.676-0.682-0.922c-0.033-0.045-0.067-0.092-0.1-0.143c0.029,0.062,0.057,0.125,0.082,0.185
			c0.018,0.025,0.043,0.053,0.07,0.081c0.299,0.342,0.441,0.542,0.428,0.6c-0.012,0.041-0.023,0.07-0.033,0.09
			c-0.006,0.012-0.01,0.021-0.01,0.023l-0.023-0.006c-0.029-0.002-0.062-0.01-0.1-0.023c-0.035-0.012-0.123-0.078-0.266-0.199
			c0.003,0.041,0.004,0.082,0.004,0.124c0.049,0.075,0.099,0.163,0.153,0.262c0.038,0.047,0.073,0.098,0.108,0.151
			c0.244,0.352,0.441,0.664,0.594,0.936c-0.117-0.131-0.271-0.334-0.461-0.603c-0.01,0-0.023-0.002-0.042-0.005
			c-0.063-0.098-0.12-0.189-0.171-0.27c0.024,0.05,0.049,0.106,0.071,0.17c0.095,0.269,0.14,0.426,0.132,0.471
			c-0.005,0.035-0.013,0.052-0.019,0.052l-0.108-0.033v0.005c-0.014,0.038-0.025,0.055-0.033,0.053l-0.286-0.105
			c0.022,0.029,0.04,0.049,0.052,0.062c0.01,0.024,0.012,0.051,0.006,0.075c-0.02,0.108-0.059,0.126-0.119,0.058
			c-0.031-0.031-0.073-0.068-0.123-0.109c-0.017,0.076-0.027,0.117-0.033,0.123c-0.01,0-0.025,0-0.044,0
			c-0.079-0.037-0.146-0.067-0.199-0.09c0.067,0.129,0.135,0.266,0.204,0.408c-0.012,0.01-0.029,0.018-0.053,0.024
			c0.014,0.016,0.025,0.03,0.039,0.048c0.084,0.041,0.15,0.07,0.195,0.09c0.037,0.016,0.074,0.027,0.109,0.032l0.032,0.011
			c-0.019-0.029-0.073-0.094-0.161-0.195c-0.079-0.088-0.125-0.153-0.139-0.193c0.076,0.012,0.17,0.088,0.281,0.227
			c0.114,0.144,0.168,0.248,0.162,0.314c-0.01,0.037-0.018,0.057-0.025,0.057l-0.289-0.1c0.035,0.044,0.068,0.085,0.1,0.123
			c-0.016,0.008-0.023,0.012-0.023,0.015c-0.004,0.003-0.024-0.003-0.062-0.019c-0.031-0.008-0.058-0.024-0.08-0.053
			c-0.01-0.004-0.018-0.006-0.023-0.01c-0.067-0.022-0.145-0.073-0.233-0.152l-0.015,0.029c-0.041-0.02-0.079-0.033-0.113-0.043
			l-0.006,0.033c-0.006,0.006-0.017,0.014-0.032,0.02l0.089-0.005l-0.014,0.071c-0.003,0.021-0.004,0.041-0.004,0.061
			c0.13,0.064,0.23,0.115,0.299,0.152c0.12,0.068,0.177,0.139,0.168,0.219c-0.004,0.038-0.013,0.057-0.025,0.053l-0.398-0.137
			c-0.099-0.036-0.216-0.09-0.352-0.162l-0.238-0.092c-0.093,0.058-0.203,0.113-0.332,0.168c0.326,0.104,0.713,0.23,1.158,0.379
			c0,0.01-0.002,0.027-0.009,0.053c-0.007,0.032-0.013,0.048-0.019,0.048l-0.01,0.005c-0.117-0.028-0.229-0.056-0.332-0.081
			c0.068,0.034,0.115,0.06,0.138,0.071l0.142,0.291c-0.035,0.112-0.053,0.133-0.053,0.061h-0.094
			c-0.023-0.021-0.043-0.043-0.062-0.061c-0.342,0-0.799-0.037-1.368-0.109c-0.004,0.021-0.005,0.041-0.005,0.061
			c0.316,0.131,0.695,0.271,1.135,0.422c0.093,0.014,0.188,0.026,0.286,0.039c-0.003,0.016,0.015,0.035,0.052,0.057
			c-0.041-0.002-0.085-0.008-0.133-0.014l-0.014,0.02c0.095,0.016,0.195,0.033,0.299,0.052l-0.023,0.101
			c-0.016,0.006-0.025,0.012-0.028,0.019c-0.026,0-0.052,0-0.081,0l-0.014,0.052c-0.096,0.01-0.316,0.025-0.661,0.049
			c-0.126,0.031-0.277,0.066-0.451,0.104l0.038,0.105c-0.055,0.008-0.109,0.022-0.167,0.041c0.358-0.04,0.644-0.057,0.855-0.047
			l-0.01,0.096c-0.206,0.113-0.639,0.223-1.297,0.328c0.079,0.016,0.122,0.041,0.128,0.08c-0.069,0.079-0.212,0.159-0.428,0.238
			v0.004c0.25-0.066,0.451-0.121,0.604-0.161c0.348-0.095,0.511-0.083,0.485,0.038c0,0.057-0.116,0.129-0.347,0.213v0.028
			c-0.045,0.149-0.365,0.314-0.961,0.495c-0.025,0.086-0.053,0.168-0.084,0.248c0.053,0,0.104-0.008,0.15-0.025
			c0.947-0.186,1.314-0.203,1.104-0.051c-0.123,0.078-0.365,0.16-0.723,0.246c-0.158,0.096-0.314,0.184-0.471,0.266
			c0.709-0.174,1.139-0.264,1.288-0.27l-0.024,0.09c-0.23,0.088-0.6,0.206-1.106,0.352c-0.111,0.08-0.311,0.192-0.599,0.338
			c-0.02,0.037-0.035,0.077-0.048,0.119c0.979-0.387,1.457-0.516,1.436-0.385c-0.003,0.033-0.374,0.205-1.112,0.513
			c-0.051,0.022-0.103,0.045-0.157,0.071c-0.034,0.047-0.075,0.096-0.122,0.146c-0.008,0.029-0.016,0.061-0.024,0.096
			c-0.007,0.038-0.038,0.088-0.091,0.146l-0.006,0.023c0.562-0.199,0.898-0.298,1.009-0.298l-0.019,0.095
			c-0.232,0.092-0.58,0.229-1.046,0.412c-0.016,0.011-0.034,0.027-0.053,0.054c0.21-0.089,0.39-0.141,0.542-0.157
			c0.025-0.082,0.07-0.104,0.133-0.066l-0.004,0.062c0.06-0.007,0.113-0.006,0.161,0.004c-0.017,0.01-0.044,0.027-0.081,0.053
			c0.408-0.13,0.689-0.223,0.841-0.275l-0.009,0.086c-0.38,0.201-0.963,0.451-1.75,0.745c-0.027,0.01-0.051,0.021-0.066,0.034
			c-0.028,0.021-0.123,0.088-0.285,0.199c-0.012,0.047-0.032,0.093-0.061,0.138c0.285-0.165,0.496-0.282,0.632-0.353
			c-0.104,0.125-0.282,0.266-0.532,0.424c0.238-0.082,0.597-0.212,1.078-0.391c0.014,0.025,0.02,0.05,0.02,0.072
			c-0.143,0.082-0.307,0.168-0.494,0.256c0.006,0,0.012,0.004,0.014,0.01c0.02,0.01,0.023,0.034,0.015,0.072
			c-0.019,0.107-0.235,0.244-0.646,0.412c0,0.008,0,0.016,0,0.024c-0.14,0.073-0.276,0.152-0.409,0.237
			c-0.045,0.102-0.086,0.201-0.128,0.3c0.022-0.028,0.04-0.052,0.052-0.071c0.02,0.013,0.033,0.028,0.043,0.047
			c0.004,0.004,0.007,0.009,0.01,0.015c-0.057,0.085-0.132,0.17-0.223,0.253c-0.061,0.154-0.123,0.305-0.186,0.451
			c0.408-0.203,0.648-0.291,0.723-0.262c0.043,0.013,0.064,0.023,0.062,0.033c0,0.004-0.005,0.008-0.015,0.015l-0.01,0.028
			c-0.102,0.072-0.412,0.279-0.932,0.617l-0.119,0.28c0.305-0.183,0.484-0.286,0.537-0.308l0.005,0.032
			c-0.035,0.073-0.13,0.171-0.284,0.295c-0.199,0.155-0.309,0.239-0.329,0.252l0.011,0.009l0.232-0.133
			c0.021,0.029,0.035,0.057,0.037,0.081l-0.013,0.062c-0.008,0.051-0.147,0.209-0.419,0.477c-0.006,0.006-0.012,0.01-0.02,0.014
			c-0.016,0.066-0.029,0.137-0.043,0.209c0.042-0.032,0.068-0.046,0.082-0.043c0.035,0.016,0.054,0.029,0.057,0.043l-0.004-0.004
			c0,0.011-0.006,0.03-0.016,0.056c-0.006,0.052-0.066,0.128-0.181,0.233c-0.012,0.062-0.024,0.125-0.038,0.186l0.209-0.09
			c0.036,0.016,0.055,0.027,0.059,0.037c0.002,0.003,0.002,0.008,0,0.014c-0.004,0.016-0.007,0.029-0.01,0.039
			c0,0.016-0.005,0.041-0.016,0.075c0,0.019-0.086,0.061-0.261,0.124c0,0.003-0.005,0.006-0.015,0.006
			c-0.008,0.057-0.021,0.114-0.037,0.175c0.02-0.007,0.036-0.011,0.052-0.015c0.159-0.029,0.244-0.041,0.258-0.037
			c0.034,0.016,0.052,0.029,0.052,0.042c0,0.003-0.002,0.005-0.005,0.005c-0.009,0.031-0.013,0.072-0.009,0.124
			c0.006,0.057,0.007,0.1,0.004,0.128c-0.016,0.069-0.166,0.168-0.451,0.295c-0.058,0.304-0.109,0.6-0.156,0.889
			c0.158,0.317,0.318,0.676,0.479,1.074c0.197,0.484,0.338,0.891,0.424,1.217c0.098,0.357,0.146,0.594,0.143,0.707
			c-0.013,0.361-0.213,0.59-0.6,0.685c-0.199,0.052-0.471-0.164-0.817-0.646c-0.009,0.164-0.017,0.328-0.022,0.489
			c-0.089,1.669-0.034,2.624,0.166,2.862c0.203,0.232,0.324,0.384,0.365,0.45c0.469,0.713,0.43,1.44-0.117,2.181
			c0.527,0.967,0.307,1.545-0.667,1.736l-0.062-0.025c-0.141,0.128-0.301,0.187-0.484,0.176c-0.279-0.016-0.592-0.32-0.941-0.916
			c-0.007-0.014-0.014-0.029-0.023-0.047c-0.013,0.018-0.031,0.031-0.053,0.042c-0.355,0.127-0.654,0.054-0.897-0.22
			c-0.067-0.047-0.198-0.241-0.395-0.584c-0.222-0.367-0.562-1.119-1.021-2.252c-0.317-0.803-0.593-1.399-0.828-1.793
			c-0.019-0.116-0.042-0.217-0.071-0.299c-0.11-0.289-0.131-0.646-0.062-1.074c0.019,0.125,0.048,0.283,0.086,0.48
			c-0.032-0.244-0.067-0.458-0.104-0.643c0.009-0.043,0.012-0.078,0.009-0.104l-0.014,0.033c-0.038-0.301-0.064-0.516-0.08-0.646
			c-0.059,0.044-0.115,0.086-0.172,0.123c0.152-0.538,0.286-1.074,0.404-1.605c0.085-0.418,0.145-1.297,0.176-2.634
			c0.304-0.171,0.664-0.786,1.079-1.849c-0.102,0.184-0.157,0.273-0.167,0.266c-0.032-0.012-0.051-0.027-0.057-0.047l-0.015-0.033
			c0.025-0.13,0.035-0.211,0.028-0.247c0.007-0.044,0.016-0.093,0.029-0.147c0.013-0.063,0.059-0.184,0.138-0.361v-0.023
			c0.009-0.006,0.016-0.013,0.019-0.02c0.038-0.068,0.077-0.146,0.119-0.232l-0.005-0.023c0.076-0.133,0.147-0.26,0.214-0.381
			c-0.051,0.049-0.099,0.08-0.143,0.096c0.096-0.139,0.196-0.303,0.305-0.49c-0.028,0.032-0.061,0.064-0.096,0.096v-0.02
			c-0.013,0.031-0.014,0.017-0.004-0.047c0.006-0.029,0.092-0.211,0.256-0.547c-0.013,0.006-0.025,0.008-0.038,0.004
			c-0.037-0.016-0.058-0.027-0.062-0.037c0.006-0.01,0.008-0.021,0.005-0.038c0.143-0.231,0.29-0.505,0.441-0.821
			c0.028-0.168,0.062-0.363,0.1-0.585c-0.18,0.333-0.322,0.535-0.422,0.608c0.184-0.355,0.34-0.67,0.469-0.945
			c0.039-0.207,0.077-0.43,0.115-0.672c-0.096,0.166-0.193,0.34-0.295,0.523l-0.01-0.066c0.129-0.246,0.241-0.471,0.333-0.67
			c0.044-0.253,0.091-0.525,0.138-0.812c0-0.031,0.008-0.07,0.024-0.113c0-0.022,0.001-0.039,0.003-0.049
			c-0.25,0.485-0.42,0.783-0.512,0.894l-0.02-0.028c0.229-0.51,0.438-0.969,0.628-1.378c0-0.032,0.003-0.061,0.009-0.087
			c-0.066,0.125-0.135,0.257-0.208,0.4c-0.017-0.006-0.026-0.023-0.028-0.051l0.289-0.681c0.32-2.12,0.404-4.509,0.252-7.167
			c-0.178-3.146-0.162-5.637,0.043-7.472c0.219-1.837,0.09-3.962-0.385-6.373c-0.406-2.126-0.748-4.63-1.026-7.513
			c-0.045-0.447-0.086-0.9-0.124-1.361c-1.08-2.309-1.583-4.771-1.507-7.389C102.987,78.376,103.724,76.81,105.143,76.005
			L105.143,76.005z M112.989,100.396c0.01,0.221,0.018,0.439,0.023,0.654c0.02,0.059,0.037,0.168,0.058,0.334
			c0.012-0.061,0.017-0.137,0.014-0.229c0.003-0.051,0-0.105-0.011-0.162c-0.002-0.104-0.012-0.221-0.031-0.352
			c-0.02-0.092-0.035-0.178-0.049-0.256C112.993,100.389,112.992,100.392,112.989,100.396z M112.681,112.976l-0.006,0.004
			c0.006,0.006,0.015,0.014,0.025,0.02C112.689,112.989,112.683,112.981,112.681,112.976z M113.231,112.994
			c-0.057-0.058-0.123-0.118-0.199-0.187v0.01c0.031,0.035,0.055,0.072,0.07,0.109l0.234,0.376c0.012,0.019,0.022,0.04,0.031,0.066
			c0.014,0.007,0.023,0.015,0.029,0.024l0.186,0.332c0.089,0.148,0.176,0.299,0.262,0.451c-0.007-0.002-0.014-0.006-0.024-0.009
			c0.048,0.063,0.096,0.128,0.144,0.194l-0.038,0.066c0.05,0.051,0.109,0.115,0.176,0.189c0.038,0.052,0.063,0.099,0.075,0.144
			c0.01,0.003,0.019,0.008,0.024,0.014v-0.038c-0.025-0.098-0.07-0.236-0.134-0.418c-0.031-0.133-0.062-0.23-0.095-0.295
			c-0.019-0.031-0.037-0.06-0.057-0.085c-0.007,0-0.011-0.003-0.015-0.009C113.647,113.654,113.425,113.343,113.231,112.994
			L113.231,112.994z M113.312,111.454c-0.006-0.004-0.013-0.005-0.019-0.005c0.066,0.164,0.126,0.376,0.181,0.632
			c0.022,0.102,0.038,0.186,0.047,0.252c0.01,0.016,0.018,0.031,0.02,0.043c0.035,0.072,0.066,0.143,0.096,0.209
			c0.102,0.133,0.206,0.271,0.312,0.414c0.008,0.012,0.016,0.023,0.029,0.033c-0.113-0.227-0.232-0.488-0.352-0.789
			C113.502,111.927,113.397,111.663,113.312,111.454z M112.961,110.214c0.003,0.009,0.003,0.02,0,0.029
			c0.016,0.043,0.032,0.086,0.052,0.127l0.005-0.004C112.999,110.315,112.979,110.265,112.961,110.214L112.961,110.214z
			 M113.099,108.256c0.034,0.114,0.062,0.222,0.085,0.323c0.024,0.054,0.052,0.111,0.075,0.175c0.064,0.166,0.125,0.317,0.182,0.457
			C113.319,108.878,113.206,108.56,113.099,108.256z M112.547,113.85c0.042,0.028,0.081,0.061,0.119,0.095
			c-0.013-0.02-0.024-0.036-0.034-0.053l-0.07-0.076C112.556,113.822,112.55,113.833,112.547,113.85z M113.806,113.55
			c0.011,0.016,0.018,0.028,0.021,0.037c0.019,0.035,0.042,0.074,0.069,0.114c0-0.028-0.002-0.052-0.009-0.071
			C113.865,113.605,113.838,113.578,113.806,113.55L113.806,113.55z M113.722,113.578h0.004c-0.035-0.076-0.069-0.146-0.104-0.209
			c-0.025-0.019-0.048-0.042-0.066-0.066C113.611,113.403,113.667,113.496,113.722,113.578z M112.429,115.831
			c-0.061-0.004-0.145-0.01-0.252-0.02c-0.004,0.014-0.007,0.027-0.01,0.043c0.035,0.016,0.066,0.033,0.096,0.053
			C112.325,115.882,112.382,115.856,112.429,115.831z M111.977,116.934c-0.02-0.013-0.038-0.024-0.058-0.033
			c-0.008,0.019-0.014,0.04-0.014,0.062c0.107,0.038,0.207,0.073,0.299,0.104c0.121,0.017,0.275,0.036,0.462,0.062
			C112.305,117.034,112.075,116.968,111.977,116.934z M113.155,117.353c-0.174-0.039-0.293-0.061-0.355-0.068
			c-0.144-0.012-0.424-0.025-0.843-0.041c-0.038,0-0.08,0-0.128,0c-0.013,0.031-0.023,0.064-0.033,0.1
			C112.332,117.326,112.784,117.329,113.155,117.353L113.155,117.353z M112.856,116.515c-0.076,0.014-0.178,0.025-0.305,0.039
			c0.189,0.034,0.359,0.059,0.51,0.071C112.946,116.589,112.878,116.554,112.856,116.515z M113.013,116.521
			c-0.013-0.01-0.027-0.02-0.043-0.029c-0.021,0.004-0.049,0.007-0.08,0.01C112.933,116.511,112.976,116.517,113.013,116.521
			L113.013,116.521z M112.86,115.07c0.057,0.028,0.115,0.061,0.172,0.097c-0.035-0.046-0.07-0.09-0.105-0.135
			C112.903,115.046,112.88,115.058,112.86,115.07z M113.331,115.869c-0.016,0-0.037-0.003-0.062-0.009
			c0.068,0.027,0.139,0.057,0.215,0.085l-0.043-0.024c-0.028-0.018-0.054-0.042-0.076-0.07c0-0.008-0.002-0.014-0.005-0.02
			C113.347,115.879,113.338,115.892,113.331,115.869z M112.999,114.909l0.014,0.005c-0.022-0.042-0.043-0.078-0.062-0.109
			l-0.037-0.015C112.938,114.827,112.967,114.868,112.999,114.909L112.999,114.909z M113.042,114.946c0,0.004-0.004,0.008-0.01,0.01
			c0.037,0.041,0.07,0.079,0.1,0.114C113.103,115.032,113.072,114.991,113.042,114.946z M112.618,114.281
			c-0.012,0.009-0.031,0.014-0.057,0.009c0.006,0.011,0.011,0.02,0.014,0.029c0.028,0.01,0.057,0.02,0.086,0.029
			C112.649,114.325,112.634,114.304,112.618,114.281L112.618,114.281z M112.462,114.382l0.019,0.004
			c-0.003-0.006-0.007-0.012-0.015-0.018L112.462,114.382z M112.917,114.438c0.013,0,0.023,0.002,0.029,0.004
			c-0.022-0.031-0.043-0.064-0.066-0.098c-0.013-0.017-0.029-0.033-0.053-0.049C112.859,114.345,112.89,114.391,112.917,114.438z
			 M113.536,114.448c0.003,0.01,0.002,0.016-0.006,0.02c0.02,0.016,0.033,0.031,0.043,0.047c0.155,0.092,0.279,0.164,0.371,0.219
			c-0.129-0.124-0.268-0.264-0.414-0.418C113.54,114.375,113.542,114.419,113.536,114.448z M113.479,113.944
			c-0.02-0.028-0.043-0.053-0.071-0.072c-0.016,0.004-0.037,0.004-0.062,0c0.006,0.023,0.014,0.044,0.022,0.062
			c0.268,0.297,0.488,0.527,0.667,0.689c-0.011-0.016-0.021-0.033-0.034-0.053c-0.031-0.047-0.057-0.091-0.076-0.129l-0.004,0.006
			C113.79,114.302,113.644,114.134,113.479,113.944L113.479,113.944z M112.419,114.618c-0.01,0.059-0.021,0.118-0.033,0.182
			l0.427,0.071c-0.041-0.051-0.081-0.104-0.123-0.157L112.419,114.618z M112.305,115.189c-0.017,0.085-0.032,0.171-0.048,0.257
			l0.205,0.076c0.316,0.002,0.547,0.014,0.693,0.033C112.839,115.423,112.556,115.301,112.305,115.189z M112.22,116.13
			c-0.026,0.007-0.055,0.015-0.087,0.025c-0.009,0.002-0.022,0.007-0.042,0.014c-0.022,0.104-0.047,0.203-0.076,0.299
			c0.035,0.003,0.066,0.01,0.096,0.02c0.32-0.032,0.562-0.059,0.727-0.081c-0.107-0.069-0.233-0.142-0.375-0.214
			C112.379,116.171,112.298,116.149,112.22,116.13z M111.867,117.552c-0.042,0.003-0.085,0.006-0.132,0.01
			c-0.004,0.006-0.006,0.014-0.006,0.023C111.78,117.573,111.825,117.562,111.867,117.552z M108.389,126.767
			c0.073-0.035,0.124-0.062,0.157-0.082c-0.023,0.004-0.072,0.021-0.146,0.049C108.395,126.743,108.392,126.755,108.389,126.767z
			 M108.646,126.581c0.006-0.009,0.02-0.012,0.037-0.009h0.02l0.019-0.071c-0.04,0.012-0.075,0.037-0.104,0.076L108.646,126.581z
			 M108.76,124.923l-0.015,0.062c-0.004,0.009-0.006,0.017-0.01,0.019c0.095-0.066,0.164-0.118,0.205-0.156
			C108.876,124.874,108.816,124.901,108.76,124.923z M110.612,120.708c-0.016,0.015-0.032,0.024-0.052,0.027
			c-0.007,0.023-0.015,0.043-0.023,0.062C110.562,120.771,110.587,120.742,110.612,120.708z M111.036,119.644
			c-0.006,0-0.012,0.002-0.016,0.009c0.018-0.007,0.034-0.015,0.053-0.024C111.062,119.632,111.049,119.636,111.036,119.644z
			 M111.345,118.788c0,0.024-0.01,0.049-0.029,0.07c0.168-0.06,0.315-0.119,0.442-0.176c-0.106,0.025-0.224,0.054-0.351,0.086
			C111.387,118.769,111.366,118.774,111.345,118.788L111.345,118.788z M111.525,118.27c0.076-0.026,0.153-0.044,0.232-0.058
			l-0.032-0.038c-0.058,0.009-0.118,0.011-0.182,0.005C111.538,118.204,111.532,118.233,111.525,118.27z"/>
	</g>
	<g id="Layer_8_9_">
		<path id="path17_13_" fill="#010101" d="M90.581,123.569c-0.003,0.008-0.008,0.02-0.014,0.032c0.006-0.003,0.01-0.008,0.01-0.015
			C90.58,123.577,90.581,123.571,90.581,123.569L90.581,123.569z M90.804,123.012c0.003-0.006,0.003-0.011,0-0.015
			c0-0.008,0-0.02,0-0.033c-0.013,0.048-0.022,0.099-0.028,0.152C90.782,123.079,90.792,123.044,90.804,123.012z M90.667,122.946
			c-0.007-0.026-0.011-0.051-0.015-0.076c-0.18,0.225-0.275,0.555-0.285,0.988c-0.003,0.009,0.008,0.219,0.034,0.632
			c0.016-0.092,0.029-0.183,0.042-0.271c-0.01-0.039-0.018-0.074-0.024-0.105c-0.031-0.23,0.037-0.59,0.204-1.078
			C90.64,123.005,90.654,122.974,90.667,122.946z M90.818,122.546c0.003-0.009,0.003-0.018,0-0.023
			c0.019-0.096,0.039-0.184,0.057-0.266c-0.054,0.148-0.094,0.301-0.119,0.456c0.01-0.021,0.02-0.044,0.029-0.066
			C90.792,122.611,90.802,122.578,90.818,122.546z M91.023,122.257c-0.004,0.006-0.005,0.014-0.005,0.023
			c0.032-0.029,0.059-0.053,0.081-0.07c0.019-0.08,0.041-0.154,0.067-0.225C91.108,122.087,91.06,122.177,91.023,122.257z
			 M91.003,122.471c-0.032,0.051-0.058,0.101-0.081,0.146c-0.009,0.052-0.02,0.106-0.034,0.163
			C90.931,122.675,90.969,122.572,91.003,122.471z M91.113,121.857c0.034-0.069,0.071-0.138,0.11-0.204
			c0.022-0.041,0.049-0.088,0.08-0.138c0.003-0.017,0.008-0.032,0.014-0.049c-0.006,0.004-0.012,0.009-0.019,0.015
			C91.226,121.597,91.164,121.722,91.113,121.857z M96.341,78.313c0.498-0.217,1.058-0.352,1.683-0.398
			c1.04-0.098,1.806,0.418,2.3,1.549c0.506,1.156,0.791,2.318,0.85,3.484c0.022,0.443,0.021,0.894-0.004,1.35
			c-0.057,0.827-0.215,1.656-0.471,2.49c0.679,1.707,1.066,3.46,1.165,5.257c0.18,0.271,0.317,0.704,0.413,1.298
			c0.171,1.225,0.081,2.705-0.271,4.438c-0.323,1.587-0.512,2.511-0.565,2.771c-0.226,0.763-0.464,1.299-0.718,1.606
			c-0.028,0.215-0.047,0.421-0.057,0.618c0.032,0.209,0.067,0.432,0.104,0.669c0.358,2.694-0.127,6.341-1.454,10.94
			c-0.209,0.679-0.921,2.339-2.135,4.98c0.02,0.049,0.042,0.104,0.068,0.168c0.17,0.316,0.262,0.513,0.275,0.588
			c0.013,0.066,0.006,0.085-0.019,0.053c0.028,0.086,0.047,0.158,0.056,0.218c0.01,0.083,0.012,0.142,0.006,0.177
			c-0.013,0.062-0.066,0.12-0.157,0.172c-0.006,0-0.012,0-0.02,0c0.02,0.057,0.04,0.117,0.062,0.18l-0.038-0.004
			c-0.036-0.07-0.077-0.146-0.124-0.229c-0.028-0.016-0.061-0.037-0.095-0.062c0.288,0.473,0.439,0.745,0.452,0.818
			c0.012,0.066,0.011,0.084-0.005,0.053l-0.048-0.016c-0.009-0.006-0.094-0.132-0.251-0.38c0.105,0.185,0.162,0.305,0.171,0.361
			c0.006,0.042,0.003,0.071-0.01,0.091c-0.007,0-0.022,0.006-0.048,0.018c-0.028-0.009-0.048-0.018-0.062-0.027
			c0.031,0.051,0.049,0.087,0.053,0.109c0.002,0.047,0,0.077-0.011,0.09c0,0.002-0.021,0.014-0.061,0.029
			c-0.017-0.02-0.034-0.042-0.053-0.066c-0.035-0.035-0.074-0.081-0.114-0.139l-0.033,0.004l-0.167-0.184l0.029-0.02
			c0.016,0.01,0.03,0.018,0.042,0.023c-0.042-0.051-0.083-0.105-0.123-0.166c-0.026-0.035-0.055-0.076-0.086-0.124
			c-0.002,0.013-0.004,0.021-0.004,0.024c-0.009,0.015-0.021,0.035-0.033,0.057c0.013,0.021,0.022,0.041,0.028,0.058
			c0.146,0.233,0.258,0.432,0.338,0.593l-0.015,0.006c0.016,0.041,0.024,0.07,0.024,0.09c0.006,0.025,0.003,0.054-0.009,0.086
			c-0.016,0.016-0.036,0.043-0.057,0.08c-0.029-0.044-0.063-0.096-0.104-0.151c0,0.013-0.003,0.024-0.009,0.038
			c0.139,0.184,0.247,0.329,0.322,0.437l-0.019,0.024c-0.044-0.063-0.157-0.203-0.337-0.418c-0.016,0.004-0.026,0.011-0.028,0.023
			c-0.098-0.109-0.24-0.281-0.423-0.519c-0.016,0.013-0.038,0.025-0.066,0.038c0.054,0.07,0.102,0.133,0.143,0.191
			c0.266,0.316,0.454,0.574,0.565,0.773c-0.025-0.037-0.138-0.164-0.337-0.375c-0.006,0.012-0.021,0.039-0.043,0.08
			c0.074,0.107,0.113,0.203,0.119,0.285c0.009,0.042,0.013,0.065,0.009,0.072c0,0.002-0.004,0.008-0.015,0.014l-0.042,0.009
			c-0.007-0.03-0.019-0.062-0.038-0.09c0.006,0.028-0.002,0.05-0.024,0.062c-0.004,0.006-0.021,0.016-0.053,0.024
			c-0.225-0.257-0.415-0.478-0.569-0.661c0.104,0.178,0.154,0.277,0.151,0.299c0.01,0.064,0.01,0.094,0,0.086l-0.042,0.059
			c-0.003,0.009-0.024,0.017-0.062,0.022v0.005c-0.003,0.003-0.005,0.006-0.005,0.01c0.282,0.237,0.423,0.375,0.423,0.414
			c0.009,0.041,0.008,0.068-0.005,0.085l-0.048,0.032c0.102,0.055,0.153,0.083,0.153,0.087c0.006,0.041,0.002,0.069-0.009,0.085
			c-0.01,0.004-0.028,0.012-0.052,0.024c-0.071-0.036-0.137-0.068-0.201-0.101c0.177,0.146,0.27,0.24,0.276,0.281
			c0.007,0.045,0,0.066-0.019,0.066c-0.006,0.003-0.014,0.003-0.023,0c-0.235-0.117-0.482-0.271-0.742-0.461
			c-0.076-0.057-0.16-0.123-0.252-0.195c-0.003-0.004-0.004,0-0.004,0.01c0.066,0.07,0.111,0.121,0.133,0.152
			c0.01,0.016,0.02,0.035,0.029,0.061c0.044,0.041,0.071,0.086,0.081,0.134c0.009,0.065,0.004,0.101-0.015,0.104l-0.057,0.01
			l-0.043-0.005c-0.009,0.009-0.029,0.016-0.062,0.019c0.092,0.055,0.143,0.124,0.153,0.209c0.006,0.016,0.009,0.032,0.009,0.048
			c0.051,0.019,0.095,0.043,0.133,0.071c-0.029-0.006-0.083-0.004-0.162,0.009c-0.009,0.02-0.011,0.034-0.005,0.044l-0.194,0.027
			c-0.003,0.008,0.007,0.015,0.033,0.025l-0.808,0.146h0.005l-0.034,0.053c0.099-0.01,0.148-0.008,0.148,0.004l0.356,0.015
			c0.063-0.022,0.113-0.038,0.152-0.048c0.076,0.022,0.119,0.066,0.128,0.133c-0.026,0.039-0.061,0.073-0.104,0.105l-0.907,0.213
			c-0.02,0.029-0.035,0.057-0.048,0.082c0.032-0.01,0.065-0.018,0.1-0.024c0.469-0.151,0.804-0.239,1.003-0.261l0.009,0.09
			c-0.459,0.203-0.884,0.367-1.273,0.494c-0.025,0.054-0.05,0.104-0.076,0.152c0.248-0.019,0.467-0.008,0.661,0.033
			c-0.007,0.031-0.112,0.08-0.318,0.148c-0.019,0.008-0.173,0.022-0.461,0.041c-0.07,0.14-0.143,0.281-0.219,0.424
			c-0.009,0.028-0.011,0.055-0.005,0.081c0.07,0.535,0.113,0.894,0.129,1.073c0.002,0.021-0.036,0.605-0.115,1.749
			c-0.028,0.326-0.083,0.685-0.162,1.074l-0.718,2.366l-0.333,0.314c-0.333,0.535-0.561,1.023-0.684,1.465
			c0.006,0.477,0.087,0.906,0.242,1.287c0.333,0.725,0.198,1.418-0.403,2.076c0.358,0.992,0.087,1.547-0.813,1.664l-0.061-0.02
			c-0.143,0.108-0.299,0.152-0.471,0.133c-0.237-0.031-0.484-0.348-0.742-0.945c0.003-0.016,0-0.031-0.009-0.048
			c-0.015,0.013-0.037,0.019-0.062,0.019c-0.326,0.108-0.584,0.023-0.775-0.256c-0.047-0.066-0.141-0.271-0.28-0.613
			c-0.155-0.374-0.367-1.125-0.636-2.252c-0.003-0.01-0.006-0.016-0.01-0.02c-0.002,0.045-0.004,0.095-0.004,0.152l-0.019-0.02
			c0-0.057,0.001-0.125,0.004-0.203c-0.035-0.155-0.071-0.301-0.109-0.434c-0.044,0.143-0.072,0.232-0.082,0.271
			c-0.002-0.113,0.013-0.244,0.048-0.39c-0.032-0.13-0.067-0.254-0.105-0.372c-0.038,0.09-0.056,0.137-0.056,0.145
			c0.003,0.024,0.004,0.041,0.004,0.051c-0.025-0.002-0.042-0.012-0.053-0.027c0.035-0.08,0.069-0.146,0.101-0.199
			c-0.08-0.279-0.156-0.512-0.229-0.695c-0.042,0.086-0.066,0.143-0.076,0.166l-0.015-0.043c0.007-0.027,0.032-0.083,0.077-0.166
			c0.002-0.043,0.002-0.09,0-0.137c0.002-0.01,0.002-0.018,0-0.023c0,0.057,0,0.109,0,0.16c-0.004-0.107-0.012-0.201-0.024-0.285
			l-0.004-0.027c-0.067-0.277-0.04-0.618,0.081-1.027c-0.004,0.057-0.005,0.114-0.005,0.172c0.026-0.086,0.052-0.169,0.081-0.248
			c0.003-0.061,0.01-0.123,0.019-0.189c-0.064,0.076-0.136,0.164-0.219,0.266c0.026-0.051,0.104-0.172,0.233-0.366
			c0.021-0.177,0.042-0.349,0.057-0.519c-0.016,0.008-0.032,0.016-0.048,0.024v-0.033c0.016-0.03,0.032-0.064,0.048-0.099
			c0.022-0.232,0.046-0.451,0.071-0.656c-0.007,0.002-0.018,0.006-0.033,0.009c0.019-0.007,0.031-0.014,0.038-0.023
			c0.013-0.161,0.027-0.321,0.043-0.479c0.006-0.066,0.017-0.133,0.034-0.195c-0.026,0.016-0.047,0.031-0.062,0.047
			c-0.028-0.003-0.039-0.016-0.033-0.037c0.019-0.041,0.056-0.079,0.11-0.114c0.127-0.634,0.312-1.328,0.555-2.081
			c0.254-0.754,0.84-1.483,1.759-2.187c-0.006-0.038-0.013-0.075-0.019-0.109c-0.061-0.396-0.074-0.759-0.038-1.089
			c0.047-0.399,0.163-0.659,0.347-0.779c0-0.357,0.107-0.762,0.322-1.212c0.092-0.19,0.2-0.375,0.324-0.556
			c0.012-0.016,0.021-0.033,0.028-0.053c-0.07,0.058-0.138,0.098-0.204,0.119l-0.014-0.039c0.196-0.26,0.352-0.493,0.466-0.702
			c0.019-0.126,0.04-0.253,0.062-0.376c-0.171,0.359-0.296,0.566-0.375,0.623c0.015-0.032,0.107-0.225,0.275-0.58l-0.005-0.037
			c0.032-0.066,0.066-0.135,0.1-0.2l-0.004-0.005c-0.085,0.158-0.178,0.326-0.276,0.503c0.055-0.19,0.169-0.479,0.342-0.87
			c0.019-0.033,0.036-0.066,0.048-0.094c0.016-0.115,0.032-0.232,0.047-0.353c-0.151,0.321-0.272,0.517-0.36,0.59
			c0.149-0.295,0.275-0.571,0.38-0.833c0.031-0.348,0.057-0.699,0.075-1.055c0.112-1.381,0.194-3.086,0.248-5.113
			c0.114-3.98,0.542-6.771,1.283-8.379c0.729-1.619,1.023-3.593,0.884-5.922c-0.129-2.049-0.155-4.457-0.076-7.223
			c0.006-0.426,0.022-0.859,0.047-1.303c-0.719-2.288-0.886-4.674-0.499-7.158C94.088,80.396,94.947,78.968,96.341,78.313
			L96.341,78.313z M96.678,120.445c-0.005,0.013-0.011,0.026-0.014,0.038c0.063,0.079,0.131,0.164,0.204,0.252
			c0.044,0.072,0.087,0.138,0.128,0.195c-0.016-0.025-0.03-0.051-0.043-0.076c-0.066-0.117-0.145-0.241-0.237-0.371
			C96.704,120.472,96.691,120.458,96.678,120.445z M91.317,121.272c0.019-0.02,0.039-0.036,0.057-0.053
			c0.006-0.031,0.014-0.057,0.024-0.074C91.37,121.186,91.343,121.229,91.317,121.272z M94.981,123.763l0.689-0.109l-0.019-0.033
			l0.043-0.028c-0.171,0.013-0.396,0.038-0.675,0.076C95.007,123.7,94.994,123.731,94.981,123.763z M96.402,121.011
			c0.045,0.049,0.084,0.094,0.12,0.138c-0.028-0.056-0.059-0.112-0.09-0.166C96.424,120.992,96.415,121.001,96.402,121.011z
			 M95.728,123.411c0.012,0.004,0.019,0.008,0.019,0.015v-0.015H95.728z M96.037,122.537c-0.01,0.006-0.022,0.017-0.039,0.028
			l-0.004,0.033c0.076,0.048,0.155,0.094,0.238,0.138c0.08,0.051,0.151,0.095,0.213,0.128
			C96.337,122.788,96.202,122.68,96.037,122.537z"/>
	</g>
</g>
</svg>
