<?xml version="1.0" encoding="utf-8"?>
<!-- Generator: Adobe Illustrator 15.0.0, SVG Export Plug-In . SVG Version: 6.00 Build 0)  -->
<svg version="1.2" baseProfile="tiny" id="Layer_1" xmlns="http://www.w3.org/2000/svg" xmlns:xlink="http://www.w3.org/1999/xlink"
	 x="0px" y="0px" width="200px" height="200px" viewBox="0 0 200 200" overflow="inherit" xml:space="preserve">
<g>
	<g id="g10_1_">
		<g id="Layer_1_2_">
			<path id="path13" fill="#010101" d="M76.819,81.168c0,0.001-2.715-3.069-3.154-4.254c-0.441-1.185-3.701-5.42-4.084-6.298
				c-0.383-0.878-1.691-3.799-2.93-4.722s-4.9-6.138-6.016-6.98c-1.116-0.842-3.077-0.036-3.961,1.406
				c-0.885,1.441-0.813,3.439,0.582,5.708c1.394,2.27,5.644,7.794,7.191,11.938c1.547,4.146,4.268,9.967,4.288,13.879
				c0.021,3.913,0.847,5.975,1.613,7.202s-0.274,1.854,3.356,0.934c3.633-0.918,6.082-9.545,5.446-12.81
				C78.517,83.908,78.056,82.622,76.819,81.168L76.819,81.168z"/>
			<path id="path15_1_" fill="#010101" d="M60.136,63.017c1.064-0.206,2.721-2.127,1.266-5.303
				c-1.454-3.176-1.843-6.557-2.646-8.935c-0.805-2.379-2.363-4.521-3.467-8.079c-1.103-3.557-2.742-8.005-2.74-9.049
				c0-1.044-0.049-2.616-1.155-1.996c-1.107,0.618-3.218,0.823-3.126,3.025c0.091,2.202,1.283,7.962,2.343,14.022
				s2.646,13.112,3.265,14.218c0.618,1.108,3.43,3.272,4.174,3.137C58.792,63.924,60.138,63.016,60.136,63.017z"/>
			<path id="path17_2_" fill="#010101" d="M71.622,99.222c-1.558,3.533-5.922,8.314-5.818,14.754
				c0.105,6.442,1.039,12.467,2.183,14.858c1.144,2.39,4.468,6.858,7.793,8.937s3.015,3.947,5.3,2.285
				c2.286-1.662,11.948-9.975,12.779-11.015s3.223-3.533,3.43-8.728c0.207-5.195,0.104-8.104-0.416-10.287
				c-0.52-2.182-0.52-1.766-0.52-3.221s-1.871-9.144-9.561-10.391c-7.688-1.247-11.221-1.663-12.469-0.104
				C73.077,97.871,71.622,99.221,71.622,99.222z"/>
			<path id="path19_1_" fill="#010101" d="M89.408,97.265c0.987-2.293,7.122-3.401,8.757-2.131c1.633,1.271,9.802,7.25,11.913,9.578
				c2.114,2.33,7.186,7.666,6.744,8.854c-0.441,1.188,1.544,4.615,0.294,5.729c-1.25,1.116-1.009,1.833-4.802-1.104
				c-3.795-2.936-9.156-8.324-10.882-9.91C99.707,106.693,86.548,103.91,89.408,97.265z"/>
			<path id="path21_1_" fill="#010101" d="M143.316,109.268c-4.468,1.246-12.676,1.662-12.676,1.662
				c-2.702,0.207-14.998-0.347-16.452-1.178s0.762,0.971,0.14,3.463c-0.625,2.493-1.039,6.129,0.52,6.857
				c1.558,0.727,9.039,1.974,15.377-0.729c6.339-2.701,14.131-5.193,14.131-5.193l-0.624-3.637L143.316,109.268z"/>
			<path id="path23_1_" fill="#010101" d="M144.752,108.938c1.847-0.319,4.869,1.658,5.558,2.824
				c0.688,1.168,3.284,2.207,4.065,3.559c0.78,1.354,2.842,5.781,2.408,7.964c-0.432,2.181-1.104,5.289-2.223,5.84
				c-1.119,0.55-1.592,1.709-1.119,0.55c0.473-1.158-0.877-0.843-1.764-0.29c-0.887,0.552-2.274-0.386-1.014-1.354
				c1.262-0.967,1.406-1.85,1.406-1.85s-0.65,0.088-0.602-0.516c0.052-0.604,1.824-1.706,1.787-2.962
				c-0.039-1.254-0.724-3.117-0.998-3.679c-0.275-0.559,0.287-1.297-0.965-1.726c-1.25-0.426-0.888,0.784-0.75,1.063
				c0.139,0.281,1.568,1.777,0.643,1.306c-0.928-0.472-2.643-0.899-3.012-1.414c-0.369-0.514-2.582-3.131-3.832-3.558
				c-1.252-0.426-2.871-1.6-2.217-2.152C142.778,111.99,141.123,109.562,144.752,108.938z"/>
			<path id="path25_1_" fill="#010101" d="M48.951,33.168c0,0-1.178-1.789-2.304-3.052c-1.125-1.263-3.471-3.902-3.52-5.473
				c-0.051-1.571,0.777-3.576,1.367-4.247c0.592-0.672,2.535-1.312,4.293-1.134c1.758,0.177,2.348-0.494,3.793,0.696
				c1.447,1.19,1.248,2.11,1.579,2.979c0.33,0.869,0.95,0.931-0.187,0.817c-1.137-0.115-0.508-0.156-1.2,0.505
				c-0.692,0.66-0.961,0.216-1.985,0.008c-1.023-0.208,0.195,2.213,0.195,2.213l1.174,3.878L48.951,33.168z"/>
			<path id="path27_1_" fill="#010101" d="M51.865,32.206c0,0-0.267-1.488,0.687-3.69c0.953-2.2,2.983-6.799,1.795-6.397
				c-1.19,0.402-4.408,3.315-4.678,3.914c-0.269,0.6-0.22,2.172,0.008,3.03C49.903,29.921,51.865,32.206,51.865,32.206z"/>
			<path id="path29" fill="#010101" d="M87.716,74.789c-2.361-0.208-6.521,4.061-6.894,5.773c-0.368,1.713-2.937-0.096-3.092,1.036
				c-0.154,1.131-0.981,2.477,0.378,3.442c1.361,0.966-1.443,4.619-0.911,6.93s3.429,10.912,7.082,11.209
				c3.657,0.295,9.433-5.497,10.384-6.995c0.95-1.498,1.09-2.767,0.663-4.113c-0.428-1.348,0.388-4.085,0.45-4.789
				c0.061-0.703,0.154-1.131,0.154-1.131s0.098-4.192-0.146-5.141c-0.242-0.949-0.958-3.658-2.869-4.562
				C91.005,75.543,89.124,74.914,87.716,74.789L87.716,74.789z"/>
			<path id="path31" fill="#010101" d="M93.546,126.792c0,0,1.939,13.3,3.603,17.456c1.662,4.156,4.154,11.498,5.402,13.992
				c1.246,2.492,1.246,4.294,1.662,7.064s0.972,8.45,0.832,10.112c-0.4,4.81,9.732,3.325-3.602,3.325c-2.078,0-6.233,1.523-5.126,0
				c1.107-1.524,2.771-5.541,1.939-8.729c-0.832-3.185-1.662-8.312-2.91-9.697c-1.246-1.385-4.848-7.48-6.372-9.28
				c-1.524-1.802-1.247-3.05-3.603-4.295c-2.354-1.248-2.217-0.556-3.74-1.802s-4.295-12.053-4.295-12.053L93.546,126.792z"/>
			<path id="path33" fill="#010101" d="M74.311,126.999c0,0-1.94,13.299-3.603,17.455c-1.662,4.155-4.156,11.499-5.404,13.993
				c-1.245,2.492-1.245,4.295-1.661,7.064c-0.416,2.771-0.97,8.451-0.832,10.113c0.139,1.662,1.526,3.324,3.603,3.324
				c2.078,0,3.996,0.624,2.889-0.9c-1.109-1.523-0.533-4.64,0.299-7.826c0.831-3.187,1.662-8.312,2.908-9.697
				c1.248-1.387,4.849-7.481,6.373-9.282c1.525-1.802,1.248-3.048,3.604-4.295c2.354-1.246,2.216-0.554,3.74-1.802
				c1.523-1.246,4.294-12.053,4.294-12.053L74.311,126.999z"/>
			<path id="path35" fill="#010101" d="M95.665,94.624c0,0,0.702-1.516,1.517-1.676c0.812-0.163,1.137-0.433,1.137-0.433
				l-1.299,0.054l1.461-1.083h-0.866l-0.757-0.162c0,0,0.541-0.162,0.865-0.325c0.325-0.162-0.324-0.216-0.324-0.216l0.595-0.541
				l-0.974-0.109l0.595-0.596l-0.648,0.055c0,0,0.055-0.65,0.541-0.758s0.867-0.379,0.867-0.379s-0.326,0.271-0.867,0.217
				c-0.541-0.053-0.92-0.324-0.92-0.324s0.107-0.109,0.92-0.705c0.812-0.595,1.137-0.811,1.137-0.811s-0.107,0.216-0.648,0.324
				c-0.541,0.107-1.029,0.107-1.029,0.107l0.434-0.379l-0.434-0.054c0,0-0.649-0.704-0.217-0.812
				c0.434-0.107,1.246-0.161,1.246-0.161l-0.703-0.326c0,0,0.323-0.162,0.703-0.433c0.379-0.271,1.19-1.461,1.19-1.461
				s-1.461,1.19-1.679,1.19c-0.215,0-0.703-0.379-0.271-0.486c0.433-0.109,0.812-0.434,0.649-0.38
				c-0.162,0.055-0.379,0.271-0.541,0.055c-0.162-0.216,0.379-0.487,0.865-0.487c0.487,0,0.108-0.162,0.108-0.162l-1.028-0.325
				c0,0,0.164-0.326,0.976-0.433c0.811-0.108,1.028-0.542,1.028-0.542s-0.92,0.108-1.19,0.108s-0.704-0.055-0.704-0.055
				s0.434-0.974,1.299-1.082c0.865-0.109,1.732-0.217,1.732-0.217l-3.248,0.217l2.544-1.786c0,0-1.408,0.433-1.949,0.704
				c-0.541,0.27-1.245-0.109-1.245-0.109s3.302-0.974,3.844-0.974c0.54,0-0.271-0.597-0.867-0.597c-0.594,0-0.866,0.055-1.514,0.163
				c-0.652,0.108-1.734,0.217-1.354,0c0.379-0.216,4.113-2.22,4.113-2.22s-1.57,0.488-2.327,0.596
				c-0.758,0.108-2.437,0.866-2.6,0.704c-0.162-0.163,0.596-0.542,0.922-0.542c0.323,0,0.92-0.216,0.92-0.216
				s-0.867-0.055-1.354-0.055s-0.92-0.054-0.92-0.054l2.11-1.516l-1.19,0.217c0,0,0.92-1.354,1.083-1.354s-1.354,0.812-2.273,0.812
				s-0.324-0.541-0.162-0.812c0.162-0.27-0.541-0.324-1.679,0.056c-1.137,0.378-2.004,0.703-2.004,0.703s0.649-0.055,0-1.137
				c-0.647-1.083-0.864-0.92-0.647-1.3c0.217-0.379,0.432-1.137,0.432-1.137s0,0.324-0.541,0.758
				c-0.541,0.433-0.703,0.379-0.596,0.974c0.109,0.595-0.432,0.704-1.027-0.271c-0.596-0.973-1.139-1.461-0.921-0.649
				c0.216,0.812,0.487,1.029,0.487,1.246c0,0.215,0.434,1.082-0.271,0.648c-0.703-0.433-2.109-2.544-2.109-2.544
				s0.703,1.354,0.756,1.896c0.056,0.54-0.215,1.082-0.541,0.595c-0.323-0.487-0.432-0.216-1.027-1.245
				c-0.596-1.03-1.137-1.137-0.757-0.434c0.379,0.704,0.541,0.92,0.485,1.408c-0.054,0.486,0.65,1.461-0.434,1.028
				c-1.082-0.432-1.516-0.866-1.354-0.325c0.164,0.542-0.107,1.191-0.107,1.191s-0.055,0.488-0.434,0.055
				c-0.379-0.434-0.758-0.488-0.758,0c0,0.486-0.107,2.11-0.107,2.11s0.216,0.595-0.541,0.649c-0.76,0.055-1.192,0.434-1.137,0.596
				c0.052,0.162,0.377,1.571-0.056,1.678c-0.434,0.108-0.596,0.163-0.596,0.163l-0.056,0.812l0.326,0.217L95.665,94.624
				L95.665,94.624z"/>
			<path id="path37" fill="#010101" d="M73.087,134.564c0,0-0.814-0.465-2.215-0.181c-1.397,0.292-3.146,1.806-3.146,1.806
				l2.389-2.213l1.746-0.699c0,0-1.106-2.504-3.437-1.28s-3.086,1.571-3.319,2.33c-0.231,0.757-0.582-1.106,0.758-1.688
				c1.341-0.582,1.863-1.397,1.863-1.397s-1.048,0.349-1.632,0.407c-0.582,0.059-1.454,0.059-1.454,0.059s0.64,0.232,1.397-0.35
				c0.756-0.584,1.571-1.572,1.571-1.572s-1.224-0.583-2.329,0.058c-1.107,0.642-1.107,0.642-1.107,0.642s1.05-1.049,1.808-1.457
				c0.756-0.407-0.64-0.231-1.282-0.231c-0.64,0,1.456-0.583,1.456-0.583s-0.698-0.35-1.571-0.466s-1.863-0.99-1.863-0.99
				s1.923,0.582,2.679,0.351c0.756-0.232,1.339-0.758,0.233-0.699c-1.107,0.059-1.98,0.292-1.98,0.292s0.408-0.175,0.873-0.233
				c0.467-0.059,0.932-0.582,0.932-0.582s-1.164-0.64-1.455-0.699c-0.291-0.058,0.698,0.103,1.34-0.175
				c0.642-0.276,1.224-1.396,0.175-1.571c-1.05-0.176-1.632-0.291-2.33,0.115c-0.699,0.409-0.175-0.231-0.175-0.231
				s-1.047,0.231-1.397-0.175c-0.351-0.408-0.466-0.233,0.873-0.291s2.563-1.572,2.563-1.572l-2.737,1.048l1.104-0.99l-1.104-0.058
				c0,0,1.864-0.35,2.388-1.107c0.524-0.757,0.583-1.631,0.583-1.631l-0.989,0.176c0,0,0.814-0.117,1.047-0.699
				c0.233-0.582,1.164-1.806,0.233-1.806s-2.562,0.118-2.737,0.351c-0.174,0.231,1.397-0.408,2.154-0.933
				c0.758-0.524,1.747-1.28,1.747-1.28L73.087,134.564L73.087,134.564z"/>
			<path id="path39" fill="#010101" d="M68.429,105.27c0,0-0.815,1.223-1.34,1.396c-0.523,0.176,1.281-1.281,1.34-2.329
				s-0.758-1.224-1.688-0.349c-0.932,0.873-0.292,0.406,0.64-1.049c0.933-1.457,1.049-2.039,0.117-1.689
				c-0.931,0.35-1.688,0.583-1.688,0.583s1.571-0.815,2.271-1.631c0.699-0.815,2.213-2.33,0.699-2.155
				c-1.514,0.175-3.262,0.758-3.262,0.758s1.048-0.467,1.98-1.631c0.932-1.165,0.699-1.922,0.932-2.389
				c0.231-0.466,0.99-0.407,0.231-0.466c-0.756-0.057-2.386,0.758-2.735,0.933c-0.351,0.174,2.037-1.864,2.037-1.864
				s0.643-0.874,0.293-1.281c-0.351-0.407-3.846,0.874-3.846,0.874s3.611-1.632,3.67-2.33c0.059-0.699-0.408-0.873-1.105-0.758
				c-0.699,0.118-1.865,0.932-1.865,0.932s2.505-1.339,2.389-1.863c-0.117-0.523-0.291-1.863-1.164-1.456
				c-0.875,0.407-0.467,0.349-0.059-0.349c0.407-0.699,0.814-1.049-0.99-1.573c-1.807-0.525-2.971-0.641-2.971-0.641
				s2.795,0.407,2.971-0.116c0.174-0.526-0.234-1.515-0.467-1.515s0.583-0.466,0.816-0.583c0.231-0.117-0.291-1.223-0.291-1.223
				h0.697l4.95,10.018l1.806,9.085L68.429,105.27L68.429,105.27z"/>
			<polygon id="polygon41" fill="#010101" points="78.505,95.659 76.466,95.31 78.331,93.97 			"/>
			<path id="path43" fill="#010101" d="M46.704,29.67c0,0-0.757-0.35-1.339-0.35s0.407,0.408,1.165,1.165
				c0.758,0.757-0.583,0.757-0.583,0.757s1.166,0,1.515,0.699c0.35,0.699,0.523,1.806,0.523,1.806l-0.932-0.583
				c0,0,1.106,0.699,1.106,1.34s-0.407,0.641-0.407,0.641s0.756,0.35,0.814,0.932s0.757,1.281,0.757,1.281L48.802,32L46.704,29.67z"
				/>
			<path id="path45" fill="#010101" d="M80.253,80.516c0,0-1.049,0.292-1.107-0.465c-0.059-0.757-0.117-1.456-0.117-1.456
				s-0.232,1.224-0.35,1.514c-0.115,0.292-0.814,1.34-0.989-0.174c-0.175-1.515-0.874-3.67-0.874-3.67l0.059,1.573l-0.582-1.224
				l0.174,1.457c0,0-0.698-0.409-0.932-1.049c-0.232-0.64-1.922-2.562-1.922-2.562l0.758,1.572l-0.758-0.467v1.923l3.961,5.009
				l1.922-0.641L80.253,80.516L80.253,80.516z"/>
			<path id="path47" fill="#010101" d="M95.22,93.562c0,0,1.922,0.116,2.97,0.116s2.679,0.815,2.679,0.815l0.25,0.287l0.915,1.053
				c0,0-2.039-1.224-2.504-1.224c-0.466,0,2.096,1.515,2.096,1.515l1.922,0.059l-0.873,0.35c0,0,0.175,0.173,1.455,0.989
				c1.281,0.816,1.34,1.34,1.34,1.34s-0.582-0.641-1.28-0.641s1.864,2.154,1.864,2.154l-2.446-0.698l-8.969-4.718L95.22,93.562
				L95.22,93.562z"/>
			<path id="path49" fill="#010101" d="M113.508,109.229c0,0,2.037,0.467,3.086,0.525s2.33-0.699,2.33-0.699l-0.758,0.99
				c0,0,1.631-0.174,2.155-0.232s1.515-0.291,1.515-0.291l-0.582,0.523c0,0,1.515,0.232,1.979,0.232s1.63-0.174,1.63-0.174
				l-0.406,0.406l2.62-0.058l-1.048,0.64l-11.416-0.697L113.508,109.229L113.508,109.229z"/>
			<path id="path51" fill="#010101" d="M144.783,114.762c0,0,0.059-0.232-0.764,0.412c-0.816,0.641-1.223,0.758-1.223,0.758
				l0.35-0.758c0,0-0.99,0.874-1.514,1.105c-0.524,0.234,0-0.641,0-0.641s-0.933,1.456-1.748,1.633
				c-0.814,0.172,0.642-1.225,0.642-1.225l-1.339,0.641l0.059-0.873c0,0-1.34,2.271-1.632,2.445
				c-0.291,0.174,0.233-1.224,0.233-1.224s-0.233,0.291-1.049,0.698c-0.814,0.408-1.397,0.815-1.397,0.815l0.583-1.048
				c0,0-1.225,1.223-1.922,1.514c-0.698,0.291-1.281,0.873-1.281,0.873l0.35-0.988c0,0-1.025,0.174-1.396,0.523
				c-0.372,0.348-1.165,1.281-1.165,1.281l0.058-0.699l-2.562,2.271l0.351-1.107l-2.213,1.516l0.698-1.572
				c0,0-0.408,0.232-1.515,0.814c-1.105,0.583-1.397,0.699-1.397,0.699l0.642-1.223l-1.224,0.174l-2.038,0.99l0.465-0.873
				l-2.562,0.873l1.048-1.34c0,0-3.086,0-4.367-0.06c-1.281-0.058-3.67-0.058-3.67-0.058l1.631-0.698l-0.99-0.759l1.457-0.756
				l29.354-6L144.783,114.762L144.783,114.762z"/>
			<path id="path53" fill="#010101" d="M94.029,133.54c0,0,1.194,0.209,1.343,0.478c0.149,0.269,0.805,0.805,0.924,0.895
				c0.121,0.09-0.238-0.506-0.356-0.834c-0.12-0.328-0.418-0.805-0.508-0.865c-0.089-0.061,1.104,0,1.104,0
				s-1.164-0.447-1.193-0.596c-0.03-0.15-0.627-1.164-0.627-1.164s1.223,0.061,1.401,0.299s-0.657-0.895-0.806-0.954
				s0.597-0.537,1.283,0.03c0.686,0.566,0.775-0.148,0.209-0.775c-0.568-0.626-0.807-1.252-0.807-1.252s-0.059-1.133-0.029-1.223
				c0.031-0.09,1.312,1.104,1.432,1.49c0.119,0.389,0.418,0.687,0.418,0.687s0.088-0.387-0.27-1.491
				c-0.358-1.102-0.478-1.996-0.478-1.996s1.015,0.982,1.372,1.49c0.357,0.506,0.625,0.776,0.119-0.656
				c-0.508-1.431-0.389-1.609,0.029-1.281s0.834,0.625,0.834,0.625s-0.09-0.088-0.537-1.191c-0.445-1.102-0.893-1.549-0.982-1.609
				c-0.089-0.06,1.64,0.418,1.64,0.418s-1.311-0.985-1.401-1.015c-0.089-0.028,0.446-0.209,0.446-0.209l-0.387-0.417
				c0,0,1.848-0.061,1.848,0.327s0.566,0.774,0.447,0.149c-0.12-0.627,0.924-0.031-0.835-1.223
				c-1.758-1.193-1.818-1.938-1.818-1.938l0.418-0.745l-0.328-0.269l0.715-0.896c0,0-0.089,0.119-0.477-0.238
				c-0.387-0.358-0.149-0.655-0.149-0.655s-0.388-0.598-0.597-1.043c-0.209-0.447-0.209-0.447-0.209-0.447l-2.385,11.209l-1.4,1.789
				l0.119,2.982L94.029,133.54z"/>
			<path id="path55" fill="#010101" d="M72.985,160.432c0.059,0.26-0.059,0.693-0.057,0.696l0.463-1.012l0.49,0.549v-1.531
				l0.811,0.06l0.027-0.811l0.695-1.502l0.114,1.387l0.229-1.763l0.521,0.578l-0.115-1.127c0,0,0.375-0.837,0.549-0.086
				c0.172,0.751,0.492,0.664,0.317,1.155c-0.174,0.49,0.636,0.606,0.49-0.491c-0.146-1.099-0.146-1.646-0.146-1.791
				s0.348-0.636,0.405-0.724c0.058-0.086,0.317,0.318,0.317,0.492c0,0.172,0.059-0.925,0.059-0.925l0.316-0.347
				c0,0,0.174,0.172,0.492,0.23c0.316,0.059,1.127-0.289,1.127-0.289s-0.607,0-0.752,0c-0.146,0-0.75-0.375-0.75-0.375
				s0.635,0.229,1.414-0.521c0.78-0.751,1.416-1.242,1.416-1.242s-0.693,0.23-0.982,0.376s-1.184,0-0.664-0.203
				c0.52-0.202,0.779-0.172,0.896-0.229c0.115-0.06-0.463-0.348-0.463-0.348s0.606-0.318,0.982-0.434
				c0.375-0.117,0.115-0.116,0.029-0.145c-0.088-0.028-0.146,0.028-0.174-0.289c-0.029-0.318,1.561-0.637,1.561-0.637
				s-0.548,0-0.607-0.316c-0.058-0.318,0.145-0.637,0.404-0.637s0.723,0.404,0.751,0.491c0.03,0.087-0.202-0.317,0.058-0.838
				c0.262-0.521,0.435-1.099,0.752-0.81c0.316,0.289,0.605,0.664,0.605,0.664l0.29-0.809l0.722-0.576l-1.676-0.695l-4.42,2.139
				C79.485,147.749,72.927,160.171,72.985,160.432L72.985,160.432z"/>
			<path id="path57" fill="#010101" d="M96.066,161.047c-0.058,0.26,0.058,0.693,0.056,0.696l-0.462-1.013l-0.491,0.551v-1.531
				l-0.81,0.059l-0.028-0.81l-0.693-1.502l-0.115,1.386l-0.23-1.761l-0.521,0.577l0.114-1.127c0,0-0.375-0.838-0.549-0.088
				c-0.172,0.752-0.49,0.664-0.316,1.156c0.173,0.49-0.637,0.607-0.491-0.492c0.146-1.097,0.146-1.646,0.146-1.791
				c0-0.144-0.348-0.635-0.404-0.722c-0.059-0.087-0.318,0.317-0.318,0.491c0,0.173-0.057-0.925-0.057-0.925l-0.318-0.347
				c0,0-0.174,0.172-0.49,0.23c-0.317,0.059-1.127-0.289-1.127-0.289s0.605,0,0.75,0c0.146,0,0.752-0.376,0.752-0.376
				s-0.637,0.231-1.416-0.521s-1.416-1.241-1.416-1.241s0.693,0.229,0.982,0.375s1.186,0,0.664-0.202
				c-0.52-0.202-0.779-0.172-0.895-0.23c-0.116-0.059,0.461-0.347,0.461-0.347s-0.605-0.319-0.981-0.435
				c-0.376-0.116-0.116-0.115-0.028-0.145c0.086-0.029,0.145,0.029,0.174-0.289c0.027-0.318-1.561-0.636-1.561-0.636
				s0.549,0,0.605-0.317c0.059-0.318-0.145-0.637-0.404-0.637s-0.721,0.405-0.751,0.492c-0.029,0.086,0.202-0.318-0.058-0.838
				c-0.26-0.521-0.435-1.098-0.752-0.811c-0.316,0.289-0.605,0.666-0.605,0.666l-0.289-0.811l-0.723-0.577l1.676-0.692l4.42,2.137
				C89.565,148.364,96.124,160.787,96.066,161.047L96.066,161.047z"/>
			<g id="g59">
				<path id="path61" fill="#010101" d="M96.913,178.168c0,0-1.871,1.268-2.383,1.332c-0.507,0.064-3.9,1.363-2.568,1.84
					s1.649,0.666,3.107,0c1.459-0.666,3.807-0.855,4.536-0.951c0.73-0.095,2.125-0.824,2.792-0.063
					c0.665,0.762,1.554,0.604,1.205,1.682c-0.349,1.078-0.382,1.332-0.444,1.776c-0.062,0.443-1.681,1.459-0.634,1.586
					s1.81-0.35,2.062-0.539c0.254-0.191-1.84,2.379,0.16,1.617c1.997-0.762,2.441-1.27,2.441-1.27s-0.982,1.459,0.54,0.697
					c1.522-0.76,2.188-1.395,2.379-2.822s-0.38-2.792-0.634-3.045c-0.254-0.254-0.539-1.205-0.825-1.205
					c-0.285,0-2.632-0.824-2.632-0.824L96.913,178.168L96.913,178.168z"/>
			</g>
			<path id="path63" fill="#010101" d="M74.552,176.814c0,0,1.871,1.269,2.379,1.332c0.507,0.063,3.9,1.363,2.568,1.84
				c-1.332,0.476-1.648,0.666-3.107,0s-3.807-0.856-4.536-0.952c-0.729-0.095-2.485-0.048-3.151,0.713s-1.195-0.173-0.846,0.905
				s0.381,1.332,0.445,1.775c0.062,0.444,1.68,1.459,0.634,1.586c-1.048,0.127-1.808-0.348-2.062-0.539
				c-0.254-0.19,1.84,2.379-0.16,1.617c-1.996-0.761-2.441-1.269-2.441-1.269s0.984,1.459-0.539,0.698
				c-1.523-0.762-2.812-1.396-3.002-2.823c-0.189-1.427,0.381-2.791,0.635-3.046c0.254-0.252,1.543-3.375,1.829-3.375
				c0.285,0,2.251,1.347,2.251,1.347L74.552,176.814z"/>
		</g>
	</g>
</g>
</svg>
