<?xml version="1.0" encoding="utf-8"?>
<!-- Generator: Adobe Illustrator 15.0.0, SVG Export Plug-In . SVG Version: 6.00 Build 0)  -->
<svg version="1.2" baseProfile="tiny" id="Layer_1" xmlns="http://www.w3.org/2000/svg" xmlns:xlink="http://www.w3.org/1999/xlink"
	 x="0px" y="0px" width="200px" height="200px" viewBox="0 0 200 200" overflow="inherit" xml:space="preserve">
<path fill-rule="evenodd" d="M93.862,46.382c0.34-0.037,0.736,0.39,1.026,0.604c0.132-0.126-0.03-0.173,0-0.363
	c0.257,0.187,0.256-0.054,0.544,0.06c-0.013-0.214-0.022-0.607,0.181-0.422c0.045-0.222-0.148-0.336,0-0.483
	c0.175,0.047,0.15,0.292,0.242,0.423c0.127-0.304,0.268,0.05,0.482-0.242c0.183,0.472,0.687,0.212,1.026,0
	c0.394,0.029,0.359,0.486,0.725,0.543c0.281,0.059,0.082-0.361,0.362-0.302c-0.026,0.115-0.13,0.152-0.12,0.302
	c0.054-0.038,0.107-0.073,0.12,0c0.153,0.226,0.033-0.324,0.241-0.241c-0.047,0.209,0.091,0.232,0.062,0.422
	c0.245,0.024,0.421-0.021,0.423-0.241c0.239,0.143,0.358,0.406,0.543,0.604c0.438-0.062,0.932,0.199,1.268,0.423
	c0.016-0.177-0.137-0.186-0.121-0.362c0.458,0.37,0.927,0.725,1.39,1.087c0.143-0.017-0.005-0.225-0.061-0.241
	c0.354,0.029,0.521,0.766,0.906,0.966c0.086-0.071-0.167-0.313-0.242-0.423c0.808,0.174,1.36,1.397,2.174,1.57
	c0.192,0.412,0.419,0.789,0.664,1.147c0.145,0.024-0.033-0.275,0.181-0.182c0.211,0.354,0.475,0.653,0.604,1.087
	c0.748,0.683,1.064,1.794,1.691,2.597c0.338,1.669,1.777,3.293,2.416,4.952c0.203,0.531,0.28,1.258,0.604,1.69
	c0.664,0.888,3.184,0.474,4.709,0.725c0.637,0.104,1.303,0.035,1.872,0.181c0.487,0.398,1.409,0.362,1.993,0.664
	c-0.017,0.479,0.688,0.237,0.845,0.543c0.061,0.182-0.134,0.107-0.241,0.121c0.269,0.255,0.877,0.169,0.906,0.664
	c2.409,0.249,3.644,2.136,5.494,3.14c-0.055,0.107-0.223,0.1-0.241,0.242c0.518,0.589,1.368,0.845,1.812,1.509
	c-0.042,0.15-0.161-0.111-0.302-0.061c0.313,0.531,1.263,0.951,1.69,1.57c0.067,0.189,0.006,0.137,0,0.361
	c0.687,0.965,1.566,1.734,2.174,2.778c-0.397-0.429-0.738-0.913-1.147-1.329c0.136,0.449,0.753,0.938,0.966,1.51
	c-0.17-0.07-0.256-0.012-0.422,0.061c0.283,0.562,0.713,0.978,0.905,1.631c-0.384-0.361-0.55-0.939-0.967-1.268
	c0.663,1.289,1.533,2.371,1.993,3.863c-0.312-0.191-0.27-0.736-0.604-0.905c0.426,1.104,0.645,2.079,1.026,3.261
	c-0.335-0.35-0.435-0.934-0.604-1.449c-0.013,0.543,0.188,1.084,0.361,1.57c0.514,1.439,1.178,2.826,1.691,4.287
	c0.511,1.456,1.046,2.9,1.57,4.348c-0.256-0.229-0.335-0.633-0.484-0.967c-0.087,0.592,0.417,1.112,0.544,1.691
	c0.033,0.133-0.115,0.086-0.121,0.18c0.936,4.561,2.286,8.705,3.321,13.164c-0.073-0.026-0.124-0.077-0.121-0.182
	c-0.167,0.571,0.163,1.166,0.242,1.691c0.071-0.01,0.051-0.11,0.06-0.182c0.506,0.601,0.17,1.775,0.604,2.355
	c0.062-0.04,0.062-0.139,0.182-0.121c0.347,0.469,0.334,1.149,0.663,1.51c-0.084,0.123-0.207-0.06-0.361,0.061
	c0.083-0.387-0.642-0.955-0.967-1.329c-0.132,0.116,0.157,0.323,0.242,0.423c-0.167,0.104-0.287-0.355-0.483-0.423
	c0.06,0.505,0.229,1.422,0.725,1.691c-0.019,0.081-0.151,0.05-0.241,0.06c0.076,1.07,0.9,1.395,1.63,1.812
	c0.075,0.177-0.06,0.38,0.061,0.604c0.171,0.111,0.376,0.187,0.604,0.241c-0.171,0.187-0.374-0.105-0.604-0.061
	c-0.083,0.342-0.095,0.937,0.181,1.208c-0.078-0.021-0.094-0.106-0.181-0.121c-0.029,1.74,1.262,2.684,1.208,4.649
	c-0.055,0.047-0.137,0.065-0.242,0.06c0.319,1.254,0.743,2.649,0.785,4.228c0.04,1.526-0.047,3.29,0.846,4.106
	c-0.15,0.126-0.312-0.364-0.544-0.182c-0.58,1.422,0.801,1.83,0.906,2.959c-0.33-0.033-0.462-0.262-0.906-0.182
	c-0.114,0.433-0.178,1.022-0.12,1.51c0.069,0.594,0.686,1.099,0.846,1.811c0.085,0.383-0.084,0.837,0,1.209
	c0.156,0.699,0.986,1.165,1.146,1.63c-0.409-0.114-0.717-0.853-1.087-1.208c-0.131-0.01-0.027,0.215-0.06,0.303
	c-1.296,0.023-0.971,2.871-0.122,3.199c-0.063,0.138-0.38,0.023-0.543,0.061c-0.097,0.742,0.265,1.023,0.483,1.449
	c-0.164-0.037-0.15-0.252-0.362-0.242c0.223,0.504,0.546,0.903,0.845,1.329c-0.237,0.115-0.241-0.521-0.664-0.423
	c-0.289,1.135,0.431,1.691,1.268,2.416c0.659,0.568,1.217,0.821,1.812,1.328c-0.196-0.035-0.282,0.041-0.423,0.061
	c0.054,0.107,0.245,0.076,0.181,0.302c-0.715-0.12-1.737-1.024-2.415-0.241c0.092,0.129-0.045,0.415,0.121,0.241
	c-0.179,1.431,0.604,2.41,1.268,3.2c-0.416-0.128-0.747-0.863-1.147-1.208c0.046,1.464,0.777,2.242,1.691,2.839
	c-0.146,0.115-0.497,0.026-0.423,0.361c-0.126-0.155-0.343-0.221-0.665-0.181c0.498,1.052,0.979,2.12,1.993,2.657
	c-0.02,0.14,0.01,0.231,0.061,0.301c0.153,0.148,0.256,0.348,0.483,0.423c1.405,2.198,4.207,2.999,6.4,4.408
	c-0.243,0.462,0.636,0.69,0.482,1.448c-0.193-0.067-0.171-0.352-0.241-0.543c-0.046,0.219-0.124,0.487,0,0.543
	c-1.11,0.844-3.057,1.008-4.528,0.363c-0.135-0.033-0.087,0.115-0.182,0.121c-0.221-0.002-0.271-0.172-0.423-0.242
	c-0.475,0.582,0.399,0.789,0.604,1.088c-0.151,0.107-0.453-0.15-0.604-0.242c-0.296,0.086-0.1,0.665-0.422,0.725
	c0.091,0.09,0.018,0.344,0.241,0.302c-0.376,0.095,0.124,0.409-0.241,0.362c0.028,0.232,0.29,0.233,0.362,0.422
	c-0.321,0.229-0.185,0.494,0.06,0.725c-0.126,0.199-0.255-0.102-0.362-0.12c0.071,0.353,0.293,0.552,0.423,0.845
	c-0.126,0.026-0.159-0.041-0.241-0.061c0.711,1.75,0.58,4.047,1.207,5.797c-0.033,0.108-0.03,0.252-0.121,0.303
	c0.212,0.85,0.544,1.594,0.665,2.415c0.041,0.285-0.03,0.606,0.06,0.905c0.164,0.54,0.851,1.176,1.209,2.054
	c0.333,0.818,0.509,1.855,0.845,2.415c0.303,0.506,0.99,1.033,0.724,2.234c-0.195,0.045-0.264,0.219-0.361,0.362
	c-0.533,0.03-0.902-0.105-1.207-0.302c-0.17-0.025,0.15,0.225-0.062,0.241c-0.249,0.028-0.16-0.282-0.241-0.423
	c-0.24-0.06-0.182,0.181-0.422,0.121c-0.367-0.781-1.224-1.072-1.631-1.812c-0.294,0.09-0.505,0.261-0.846,0.303
	c-0.006,0.025,0.009,0.301,0,0.302c-0.104,0.009-0.024-0.237-0.06-0.241c-0.284-0.037,0.006,0.415-0.423,0.543
	c-0.001-0.16,0.033-0.355-0.121-0.361c-0.244,0.064,0.071,0.422-0.121,0.604c-0.222-0.147-0.166-0.398-0.361-0.664
	c-0.247-0.045-0.012,0.391-0.303,0.301c-0.068-0.454-0.814-0.232-1.087-0.482c-0.171-0.795-0.624-1.309-0.785-2.113
	c-0.246,0.115-0.423,0.301-0.362,0.725c-0.158,0.018-0.198-0.084-0.181-0.241c-0.124,0.161-0.109,0.177-0.362,0.12
	c-0.125,0.016-0.016,0.266-0.121,0.303c-0.074-0.027-0.124-0.078-0.12-0.182c-0.136,0.126,0.021,0.543-0.242,0.543
	c-0.266,0.086-0.001-0.361-0.181-0.361c-0.275-0.014,0.018,0.541-0.302,0.482c0.161-0.976-0.932-1.141-1.449-1.63
	c-0.175,0.001-0.144,0.341-0.302,0.181c-0.04-0.24,0.16-0.242,0.12-0.482c-0.275-0.125-1.358-0.464-1.812-0.121
	c-0.574-0.457-1.396-0.802-1.932-1.449c0.34-0.062,0.127-0.678,0.544-0.664c0.057-0.633-0.377-0.965-0.846-0.967
	c0.043-0.178,0.188-0.254,0.423-0.241c-0.101-0.142-0.338-0.146-0.303-0.423c0.225-0.023,0.112,0.291,0.303,0.303
	c-0.001-0.402-0.27-0.537-0.303-0.906c0.05,0.012,0.061,0.061,0.121,0.061c-0.138-0.567-0.033-1.9-0.543-2.295
	c0.139-1.487-0.616-2.081-1.088-2.959c-0.073-0.086-0.229-0.092-0.302-0.181c-0.155-1.896-0.533-4.635-0.181-6.401
	c-0.052-0.056-0.148-0.039-0.363-0.06c0.357-0.542,0.193-1.228,0.242-1.933c-0.153-0.148-0.509-0.095-0.482-0.422
	c-0.087,0.033-0.148,0.094-0.182,0.181c-0.062-0.427-0.12-1.163,0.061-1.63c0.009-0.19-0.244-0.117-0.302-0.242
	c0.073-0.633,0.251-0.488,0.302-1.207c-0.198-0.191-0.122,0.232-0.363,0.181c-0.057-0.745,0.699-1.19,0.786-1.992
	c-0.052-0.177-0.152,0.079-0.302,0c0.004-1.53-0.085-3.054-0.242-4.469c-0.019-0.081-0.151-0.05-0.242-0.06
	c0.136-1.065-0.139-2.082,0-3.201c-0.06-0.08-0.162-0.118-0.181-0.241c-0.233-0.066-0.215,0.214-0.361,0.061
	c0.076-0.549,0.487-1.558,0-1.933c-0.189-0.027-0.171,0.152-0.242,0.242c0.015-0.391,0.294-0.893,0.061-1.449
	c-0.247-0.176-0.388-0.314-0.726-0.543c0.131-1.328-0.338-2.346-0.604-3.08c-0.031-0.068-0.291,0.047-0.423-0.061
	c0.041-0.686-0.13-1.833-1.026-1.57c0.082-0.278,0.18-0.553,0-0.784c-0.103-0.003-0.156,0.045-0.181,0.12
	c0.148-0.193,0.09-0.57,0.121-0.905c-0.163-0.147-0.338,0.068-0.483-0.12c-0.033-0.135,0.115-0.086,0.121-0.182
	c-0.074-0.184-0.208,0.064-0.362,0c-0.312-0.789,0.122-1.702,0.061-2.536c-0.135-0.128-0.292,0.063-0.544,0
	c-0.126-0.669,0.33-1.238-0.12-1.751c-0.185-0.044-0.179,0.104-0.363,0.061c-0.172-0.202,0.166-0.281,0.182-0.483
	c-0.177-0.069-0.225,0.29-0.303,0.121c-0.136-0.595,0.454-1.228,0-1.69c-0.133,0.047-0.15,0.211-0.24,0.302
	c-0.137-0.046-0.024-0.339-0.062-0.483c-0.139-0.068-0.37,0.178-0.302-0.302c-0.506,0.157-0.34,0.988-0.784,1.207
	c0.033-0.731,0.428-1.101,0.302-1.992c-0.185-0.144-0.304,0.555-0.544,0.362c0.367-1.227,0.391-2.474,0.242-3.985
	c-0.026-0.196-0.251-0.191-0.302-0.362c-0.048-0.35,0.168-0.436,0.12-0.785c-0.019-0.223-0.341-0.142-0.482-0.241
	c-0.041-0.483,0.123-0.763,0.181-1.147c-0.249-0.059-0.488-0.688-0.604-0.482c-0.108-0.355-0.105-0.781-0.181-1.208
	c-0.097-0.222-0.479-0.066-0.302-0.423c-0.341,0.038-0.542-0.062-0.604-0.301c-0.392,0.11-0.579,0.427-0.967,0.543
	c0.312-0.615,1.266-0.58,1.329-1.57c-0.598,0.162-0.778,0.643-1.449,1.146c0.254-0.618,1.059-0.943,1.268-1.689
	c0.217-0.773-0.078-1.646,0.121-2.598c-0.021-0.26-0.334-0.229-0.242-0.604c-0.155,0.006-0.062,0.259-0.302,0.182
	c0.04-0.221-0.041-0.322-0.12-0.423c-0.18-0.013-0.206,0.224-0.362,0.061c0.183-0.94,0.335-1.957,0.482-2.597
	c-0.15-0.079-0.188,0.238-0.241,0.061c-0.001-0.203,0.083-0.319,0.182-0.423c-0.142-0.181-0.345-0.3-0.483-0.482
	c-0.16,0.001-0.355-0.034-0.362,0.12c0.108-0.591,0.223-1.904-0.664-1.992c-0.644-0.746-0.29-2.684-0.785-3.925
	c-0.157-0.395-0.675-0.707-0.725-1.026c-0.072-0.467,0.08-0.965-0.061-1.51c-0.185,0.006-0.31-0.05-0.302-0.302
	c-0.256,0.046-0.475,0.129-0.664,0.241c-0.062,0.632-0.508,1.104-0.423,2.053c0.036,0.398,0.194,0.764,0.182,1.208
	c-0.233,0.067-0.215-0.214-0.362-0.061c-0.508,0.669-0.111,2.438-0.303,3.623c-0.051,0.317-0.102,0.962-0.12,1.449
	c-0.16-0.021-0.055-0.308-0.181-0.362c-0.254,0.008-0.061,0.463-0.121,0.664c-0.08,0.062-0.223,0.059-0.303,0.121
	c0.03,0.271-0.03,0.452-0.06,0.664c-0.127,0.133-0.179-0.078-0.362-0.061c0.058,0.732-0.385,1.533,0,2.174
	c-0.238,0.077-0.146-0.176-0.303-0.182c-0.4,0.221-0.239,0.982-0.301,1.389c-0.203,0.062-0.095-0.188-0.121-0.301
	c-0.243,0.541-0.447,1.123-0.483,1.871c-0.165,0.044-0.122-0.119-0.241-0.121c-0.142,0.201,0.035,0.721-0.303,0.725
	c-0.035-0.195,0.042-0.281,0.062-0.422c-0.546,0.514-0.184,2.215-0.786,2.475c-0.028,0.918-0.14,1.623-0.361,2.477
	c-0.004,0.012-0.106-0.131-0.061-0.182c-0.152,0.166-0.014,0.624,0,0.846c0.087,1.482,0.793,3.485,1.69,4.348
	c-0.06,0.239-0.243-0.01-0.362-0.061c0.289,0.596,0.832,0.94,1.268,1.389c-0.149,0.266-0.312,0.174-0.543,0.302
	c0.074,0.349,0.25,0.595,0.423,0.846c-0.332,0.847,1.063,1.684,0.544,2.536c0.188,0.506,0.152,0.883,0.482,1.268
	c-0.049-0.012-0.061-0.061-0.121-0.061c0.232,0.433,0.649,0.68,0.785,1.208c-0.348-0.055-0.326-0.478-0.604-0.604
	c0.192,0.513,0.502,0.906,0.846,1.269c-0.36,0.057-0.511-0.616-0.967-0.664c-0.387,0.781,0.538,1.265,0.785,1.812
	c-0.238,0.156-0.31-0.373-0.543-0.423c-0.36,0.598,0.202,1.166,0.423,1.569c0.016,0.197-0.234,0.129-0.242,0.303
	c0.26,1.008,0.911,1.624,1.087,2.717c-0.299,0.006-0.33-0.586-0.543-0.846c-0.314-0.032-0.547,0.019-0.725,0.121
	c-0.012,1.602,0.504,2.676,0.664,4.105c-0.313-0.33-0.239-1.048-0.483-1.449c-0.056,0.34,0.202,0.885,0.242,1.33
	c-0.161,0-0.346-0.023-0.423,0.059c-0.021,0.282,0.047,0.477,0.12,0.665c0.044,0.265-0.12-0.049-0.12,0.12
	c0.421,1.352,0.041,3.969,0.482,5.556c0.061,0.214,0.253,0.399,0.303,0.604c0.016,0.064-0.122,0.104-0.121,0.181
	c0.01,0.554,0.354,0.982,0.663,1.328c-0.224-0.036-0.245-0.277-0.482-0.302c0.205,1.218-0.104,2.08-0.483,3.079
	c-0.01,0.151,0.094,0.189,0.182,0.242c-0.009,0.135-0.152-0.079-0.302,0c-0.331,0.756-0.265,1.909-0.362,2.897
	c0.476,0.511,1.015,0.958,1.63,1.329c-0.084,0.175-0.298-0.018-0.362-0.061c-0.127,0.019,0.087,0.187,0.121,0.241
	c-0.021,0.076-0.348-0.049-0.543,0c0.05,0.146-0.178,0.122-0.182,0.363c-0.23-0.053-0.4-0.164-0.725-0.121
	c-0.509,0.733,0.313,1.424,0.362,2.174c-0.271,0.139-0.505-0.213-0.845-0.061c0.038,0.062,0.138,0.062,0.12,0.182
	c-0.146,0.024-0.131-0.111-0.302-0.061c-0.436,0.892-0.844,2.227,0.241,2.656c-0.262,0.1-0.473-0.371-0.905-0.303
	c-0.217,0.695-0.753,1.491-0.543,2.234c-1.008,0.377-0.463,1.846,0.24,2.174c-0.328-0.174-0.555-0.449-0.905-0.604
	c-0.452,0.312-0.47,1.061-0.784,1.51c0.295,0.328,0.666,0.582,1.026,0.845c-0.331,0.551,0.325,0.838,0.241,1.147
	c-0.491,0.465-1.039-0.412-1.449,0c-0.129,0.77,0.51,0.679,0.302,1.389c0.138,0.326,0.426,0.5,0.664,0.725
	c-0.3,0.059-0.679-0.326-1.207-0.241c-0.156,0.046-0.211,0.192-0.182,0.423c-0.174-0.176-0.625-0.27-0.845-0.061
	c-0.136,0.708,0.894,1.326,0.06,1.872c0.064,0.196,0.28,0.244,0.363,0.423c-0.11,0.163-0.294-0.105-0.363-0.182
	c0.226,0.987,1.534,1.204,2.536,0.906c-0.054,0.106-0.146,0.176-0.182,0.302c0.5,0.37,1.224,0.186,1.873,0.241
	c1.395,0.119,2.948,0.496,4.227,0.182c0.071,0.275,0.77-0.002,1.026,0c2.645,0.014,3.142,2.57,5.072,3.502
	c0.607,0.083,0.888,0.186,1.449,0.362c-0.252,0.168-0.584-0.099-0.846-0.121c0.389,0.255,0.864,0.424,1.328,0.604
	c0.01,0.131-0.214,0.026-0.302,0.061c0.371,0.488,1.332,0.521,1.207,1.328c0.253,0.129,0.447,0.318,0.786,0.361
	c0.463,0.406,0.321,1.01,0.604,1.449c0.525,0.82,2.299,1.045,3.2,1.57c0,0.08,0,0.16,0,0.242c-0.33,0.156-0.314,0.818-0.665,1.086
	c-0.183,0.141-0.708,0.276-1.147,0.242c-0.14-0.012-0.201-0.141-0.361-0.182c-0.391-0.1-1.059,0.07-1.51,0.182
	c-1.431,0.353-2.962,1.326-4.106,0.543c-2.214-0.242-6.335,1.002-5.615-2.113c-0.54-0.568-2.747-1.154-4.287-1.449
	c-0.306-0.059-0.641-0.017-0.905-0.121c-0.83-0.326-2.22-0.746-2.777,0.061c-0.004,0.399-0.189,0.617-0.362,0.846
	c0.343,0.849,0.683,2.457-0.362,2.777c-1.954,0.184-2.041-1.503-2.898-2.416c-0.027-0.354-0.102-0.662-0.241-0.904
	c-0.179-0.115-0.374,0.018-0.483-0.061c0.36-1.206-0.289-1.945-1.268-2.053c-0.122-0.014-0.297,0.094-0.423,0.061
	c-0.306-0.084-0.346-0.267-0.604-0.484c-0.233-0.195-0.689-0.387-1.025-0.604c-0.293-0.188-0.346-0.5-0.846-0.302
	c-0.74-0.568-1.244-1.373-1.752-2.174c-0.148,0.008-0.29,0.009-0.362-0.06c0.023-0.421-0.056-0.941,0.062-1.269
	c-0.078-0.083-0.297-0.093-0.303,0.06c0.028-0.203,0.504-0.891,0-1.146c0.023-0.291,0.144-0.433,0.182-0.725
	c0.026-0.207-0.08-0.434-0.061-0.604c0.032-0.278,0.235-0.555,0.241-0.846c0.002-0.097-0.079-0.274-0.06-0.362
	c0.114-0.534,0.729-0.744,0.604-1.389c-0.117-0.226-0.261-0.425-0.362-0.664c-0.595-0.142-0.633,0.561-1.027,0.423
	c0.592-0.68,0.931-1.241,1.39-2.054c-0.359-0.325-1.003,0.021-1.208,0.241c0.494-0.477,1.639-1.131,1.389-2.354
	c-0.918-0.053-0.702,1.029-1.328,1.268c0.113-0.45,0.429-0.699,0.604-1.088c-0.007-0.153-0.202-0.119-0.362-0.119
	c0.285-0.42,0.688-0.723,0.845-1.27c-0.122-0.158-0.125,0.312-0.361,0.242c0.16-0.229,0.16-0.738,0-0.967
	c-0.704,0.165-0.841,1.209-1.329,1.389c0.152-0.732,0.525-1.246,0.785-1.871c0.109,0.193-0.165,0.518-0.181,0.785
	c0.562-0.775,0.837-1.799,0.06-2.477c-0.331,0.058-0.26,0.217-0.664,0.121c0.079-0.183,0.175-0.348,0.241-0.543
	c-0.913-0.412-0.193-1.813-0.06-2.596c-0.026-0.136-0.297-0.025-0.423-0.061c-0.072-0.697,0.298-0.951,0.362-1.51
	c-0.174,0.087-0.094,0.429-0.362,0.422c0.08-0.363,0.237-0.74-0.181-0.845c0.017-1.444,0.139-2.441,0.604-3.382
	c-0.096-0.169-0.271,0.085-0.482,0c0.734-0.378,1.136-1.391,1.268-2.174c0.937-0.684,0.668-2.578,0.906-3.804
	c-0.086-0.116-0.313-0.09-0.424-0.181c0.172-0.484,0.078-1.197-0.604-1.027c0.102-0.227-0.071-0.634-0.182-0.845
	c-0.321,0.005-0.446-0.093-0.664-0.302c-0.162-0.042-0.117,0.125-0.181,0.181c-0.339-0.417-0.657-1.139-1.329-1.026
	c-0.204-0.379-0.357-0.809-0.845-0.906c-0.086-0.221,0.033-0.271-0.12-0.422c-0.298,0.041-0.575,0.057-0.604-0.303
	c-0.242-0.023-0.579-0.035-0.725-0.301c-0.344,0.018-0.303,0.422-0.604,0.482c-0.017-0.238,0.258-0.185,0.242-0.423
	c-0.198,0.128-0.463,0.501-0.725,0.362c-0.146-0.18,0.242-0.835,0.362-1.146c-0.076-0.338,0.052-0.516,0.181-0.785
	c-0.067-0.133-0.155-0.247-0.12-0.482c-0.161,0-0.322,0-0.483,0c0.144-0.434,0.41-1.208,0.182-1.631
	c-0.262,0.02-0.212,0.352-0.483,0.361c-0.181-0.436,0.065-0.931,0-1.449c-0.061,0-0.12,0-0.181,0
	c-0.266,0.018-0.114,0.451-0.363,0.484c-0.246-0.418-0.055-1.273-0.482-1.51c0.104-0.828-0.107-1.344-0.604-1.57
	c-0.191,0.328-0.334,0.871-0.121,1.268c-0.049,0.053-0.165,0.037-0.181,0.121c0.055,1.034,0.525,1.967,0.422,2.959
	c-0.209-0.006-0.21-0.193-0.241-0.303c-0.208-0.754-0.249-1.674-0.604-2.354c-0.006-0.117-0.226,0.093-0.302-0.061
	c-0.06-0.651,0.13-1.049,0.06-1.691c-0.438,0.771-0.06,2.051,0.242,2.777c-0.473-0.553-0.693-1.36-1.026-2.053
	c-0.469,0.377-0.196,0.967-0.121,1.57c-0.199-0.003-0.23-0.172-0.241-0.363c-0.117,0.273,0.169,0.752-0.061,1.027
	c0.135,0.074,0.539,0.43,0.241,0.725c-0.26-0.062-0.347-0.297-0.483-0.482c-0.186,0.08,0.113,0.268-0.06,0.361
	c-0.147-0.154-0.248-0.355-0.302-0.604c-0.101,0-0.202,0-0.302,0c-0.117,0.984,0.514,1.721,0.423,2.838
	c-0.087-0.18-0.316,0.158-0.303-0.121c-0.156,0.103,0.117,0.281,0.061,0.482c-0.316-0.048-0.244-0.267-0.302-0.604
	c-0.124-0.716-0.696-1.289-0.967-1.871c-0.12,0.143,0.169,0.393,0.121,0.664c-0.29-0.134-0.215-0.63-0.544-0.725
	c-0.109,0.936,0.392,1.782,0.423,2.777c-0.155,0.16-0.086-0.115-0.241-0.121c0.152,0.557-0.009,1.084,0.121,1.691
	c-0.125-0.08-0.303-0.418-0.544-0.182c-0.12-0.08-0.134-0.268-0.181-0.422c-0.302,0.145-0.251-0.191-0.543-0.121
	c-0.301,0.072-0.163,0.221-0.303,0.482c-0.039,0.074-0.182,0.004-0.182,0c-0.196,0.586,0.024,1.506-0.06,2.234
	c-0.103,0.022-0.113-0.047-0.121-0.121c-0.142,0.948,0.543,1.59,0.905,2.234c-0.3,0.296-0.446-0.221-0.663-0.362
	c-0.14,0.048,0.031,0.284,0.12,0.302c-0.178,0.095-0.343-0.339-0.604-0.362c-0.155-0.227-0.274-0.489-0.543-0.604
	c-0.467-0.6-0.819-1.315-1.691-1.509c0.218,1.312,1.062,1.996,1.39,3.199c-0.289,0.091-0.38-0.494-0.544-0.725
	c-0.215,0.008,0.128,0.2-0.061,0.182c-0.172,0.128-0.221-0.271-0.424-0.302c0.091,0.132,0.119,0.325,0.242,0.423
	c-0.494-0.252-0.99-1.022-1.509-1.449c-0.247,0.264-0.582,0.961-0.062,1.146c-0.054,0.164-0.111-0.16-0.302-0.061
	c-0.319,0.244-0.15,0.977-0.482,1.208c0.21,0.444,0.575,0.479,0.362,1.087c-0.121-0.02-0.188,0.013-0.182,0.121
	c-0.255-0.047-0.344-0.26-0.725-0.182c-0.585,0.81,0.746,1.156,0.967,1.752c-0.49,0.041-0.654-0.48-1.087-0.665
	c-0.214,0.028-0.229,0.255-0.483,0.241c-0.043,0.506,0.192,0.734,0.363,1.027c-0.008,0.15-0.114,0.188,0,0.302
	c1.014,0.938,0.979,2.806,1.086,4.468c0.109,0.367,0.332,0.559,0.181,0.906c-0.22-0.039-0.321,0.041-0.423,0.121
	c0.311,1.355-0.156,2.498,0.363,3.683c-0.314,0.069-0.679,0.086-0.544,0.604c-0.208-0.049-0.255,0.066-0.361,0.12
	c-0.08,0.763,0.231,1.138,0.482,1.569c-0.294,0.418,0.002,0.959,0.181,1.269c-0.197,0.104-0.41,0.192-0.604,0.302
	c-0.197,0.635,0.466,0.867,0.182,1.208c-0.34-0.124-0.396-0.53-0.604-0.785c-0.121,0-0.241,0-0.361,0
	c-0.255,0.27-0.034,0.748,0.06,1.026c-0.079-0.021-0.095-0.105-0.181-0.121c-0.454,1.921,0.752,2.656,1.449,3.623
	c0.094,0.215-0.205,0.037-0.181,0.182c-0.553-0.174-0.579-0.871-1.208-0.967c-0.122,0.447-0.01,2.058,0.422,2.537
	c-0.354,1.068,0.592,1.855,1.088,2.476c-0.573,0.162-0.077,0.784-0.302,1.147c-0.072-0.07-0.215-0.068-0.363-0.061
	c0.31,2.924-1.762,3.471-2.777,5.072c-0.09-0.027,0.023-0.078,0-0.182c-0.341,0.027-0.55,0.059-0.846-0.061
	c-1.811,0.58-4.133,1.238-5.192,2.174c0.012,0.068,0.061,0.033,0.061,0c0.186,0.08-0.105,0.276-0.182,0.121
	c-0.079,0.021-0.095,0.105-0.181,0.121c-0.886,1.188-2.176,1.971-3.261,2.957c-1.083,0.125-1.523,0.893-2.295,1.329
	c-0.424,0.128-0.9,0.003-1.328,0c-0.829-0.005-1.218,0.013-1.51-0.725c-0.042-0.304,0.103-0.421,0.062-0.724
	c0.806-0.709,2.097-1.743,2.596-2.838c0.078-0.174,0.044-0.368,0-0.604c0.018-0.14-0.175-0.067-0.182-0.181
	c-1.987-0.047-3.223,1.01-4.891,1.328c-2.048,0.391-3.59,1.841-5.555,2.295c-0.162-0.147,0.371-0.109,0.363-0.303
	c-1.573,0.262-3.983,2.664-5.435,0.967c0.142-0.825,0.512-1.421,1.026-1.873c-1.33,0.061-3.875,1.279-4.227-0.482
	c0.042-0.162-0.125-0.117-0.181-0.182c0.365-0.6,1.288-0.645,1.872-1.025c-0.4-0.184-0.509-0.659-1.026-0.725
	c0.202-0.805,1.385-0.629,1.993-1.027c-0.32-0.242-0.592-0.535-0.725-0.966c0.24-0.484,0.994-0.455,1.57-0.604
	c0.03-0.078,0.064-0.125,0.121-0.302c3.284-0.002,5.567-1.559,8.816-1.933c0.124-0.077,0.307-0.097,0.302-0.302
	c0.358,0.193,0.601-0.079,0.905-0.121c0.012-0.271,0.03-0.553-0.241-0.543c1.726-0.234,3.762-0.456,5.435-0.544
	c0.09-0.026-0.023-0.077,0-0.181c0.222,0,0.443,0,0.664,0c0.119-0.4-0.226-0.338-0.423-0.423c1.304-0.218,2.85,0.125,3.623-0.664
	c-0.146-0.671,0.669-0.699,0.362-1.329c0.459-0.567,0.863-1.189,1.269-1.811c-0.182-0.275-0.149-0.412-0.121-0.846
	c-0.692-0.375-0.679,0.686-1.026,1.026c-0.117,0.114-0.334-0.073-0.302,0.181c-0.304-0.229-0.001-0.395,0-0.784
	c-0.159,0.144-0.151,0.453-0.242,0.664c-0.245-0.21-0.038-0.714,0.061-0.966c0.275-0.705,0.839-1.453,0.664-2.537
	c-0.303,0.143-0.103-0.885-0.664-0.845c-0.353,0.11-0.122,0.804-0.422,0.966c-0.029-0.371,0.106-0.576,0.06-0.966
	c-0.269-0.094-0.223-0.503-0.604-0.483c-0.025-0.635,0.238-1.061,0.181-1.871c-0.194-0.055-0.085,0.197-0.181,0.241
	c-0.067-0.056-0.02-0.112-0.061-0.302c-0.401,0.138-0.729,0.021-1.087,0.241c-0.029-0.19,0.086-0.235,0.121-0.362
	c-0.194,0.066-0.585,0.518-0.544,0.423c-0.01-0.071-0.109-0.051-0.181-0.061c0.214-0.772,0.463-1.511,0.725-2.233
	c-0.188,0.111-0.502-0.176-0.725,0.121c-0.015-0.225-0.41-0.518-0.483-0.303c-0.25-0.271,0.213-0.603,0-0.846
	c-0.245-0.023-0.278,0.165-0.423,0.242c-0.139-0.299-0.171-0.042-0.422-0.061c0.691-1.643,0.567-3.524,0.121-5.133
	c-0.056-0.165-0.213,0.107-0.302-0.061c-0.321-0.584-0.178-1.53-0.183-2.174c-0.09-0.129-0.147,0.043-0.302-0.061
	c0.051-0.303,0.132-0.601-0.241-0.604c0.079-0.36-0.114-0.449-0.182-0.664c0.397-0.854,0.254-1.934,0.062-2.597
	c-0.154,0.09-0.269-0.044-0.484-0.181c-0.034-0.217,0.07-0.292,0.121-0.423c-0.161-0.188-0.229,0.158-0.361,0
	c0.476-1.429-0.466-3.853,0.905-4.891c-0.047-0.892,0.237-1.668,0-2.295c0.125-0.584,0.234-1.421,0.181-1.993
	c-0.001-0.199-0.341-0.061-0.423-0.18c-0.053-0.959,0.182-1.631,0.423-2.295c-0.254-0.053,0.113-0.35-0.241-0.303
	c-0.046-0.914,0.624-1.424,0.362-2.354c-0.144,0.197-0.337,0.347-0.423,0.604c-0.071-0.355,0.229-0.857,0.302-1.269
	c-0.203,0.021-0.278-0.177-0.482-0.302c0.308-0.7,0.549-1.301,0.361-2.113c0.142-0.166,0.344-0.729,0-0.846
	c-0.303,0.039-0.3,0.385-0.604,0.423c0.064-1.108,2.114-1.797,1.812-3.261c-0.066-0.316,0.632-1.194,0.303-1.389
	c0.677-1.622,1.106-3.147,1.811-4.77c-0.008-0.133-0.152-0.13-0.302-0.121c0.031-0.386-0.091-0.577,0.061-0.785
	c0.182,0,0.362,0,0.543,0c0.402-0.083,0.697-1.859,0.363-2.656c-0.043-0.104-0.21-0.156-0.242-0.242
	c-0.129-0.354,0.013-0.703-0.302-0.785c0.022-0.934,0.061-2.118-0.604-2.174c-0.108-0.273-0.082-0.682-0.182-0.965
	c-0.015-0.127-0.265-0.018-0.302-0.121c-0.43-0.98-0.672-2.146-0.725-3.502c-0.167,0.073-0.112,0.371-0.12,0.604
	c-0.241-0.355,0.037-1.416-0.121-1.993c-0.312-0.011-0.218,0.387-0.302,0.604c-0.449-0.264,0.014-0.842,0-1.269
	c-0.009-0.256-0.274-0.37-0.121-0.604c-0.234,0.007-0.066,0.417-0.302,0.423c-0.066-0.4,0.274-0.811,0.242-1.208
	c-0.019-0.214-0.273-0.39-0.302-0.604c-0.018-0.127,0.099-0.264,0.119-0.422c0.05-0.36-0.144-0.625-0.181-1.026
	c-0.042-0.452,0.27-1.022-0.181-1.208c-0.046-0.408,0.235-0.488,0.181-0.905c-0.156-0.134-0.337,0.479-0.544,0.302
	c0.084-0.359,0.323-0.562,0.423-0.906c0.022-0.354-0.562-0.252-0.784-0.181c0.13-0.798,0.745-1.747,0.423-2.597
	c0.356-0.561,0.361-1.327,0.422-1.932c-0.156-0.105-0.354-0.168-0.362-0.424c-0.111,0.01-0.037,0.205-0.121,0.242
	c-0.133-0.008-0.024-0.256-0.06-0.362c-0.101,0-0.201,0-0.302,0c-0.243,0.261-0.277,0.729-0.423,1.087
	c-0.129,0.027-0.115-0.086-0.121-0.182c-0.469,0.599-0.755,1.379-1.086,2.113c-0.09,0.032-0.152,0.09-0.242,0.121
	c-0.556,1.779-1.745,2.924-1.993,5.012c-0.185-0.188,0.074-0.446,0-0.725c-0.267,0.418-0.256,1.112-0.302,1.751
	c-0.982,0.366,0.546,2.231-0.482,2.657c0.002,0.602-0.024,1.231,0.061,1.751c0.159,0.019-0.057-0.339,0.181-0.241
	c0.066,0.175,0.055,0.428,0.121,0.604c-0.079-0.021-0.096-0.105-0.182-0.121c-0.08,0.865,0.522,1.37,0.604,1.871
	c-0.403-0.279-0.664-0.703-0.784-1.268c-0.281,0.178-0.225,1.006-0.061,1.268c-0.155,0.066-0.29,0.153-0.362,0.303
	c0.269,1.756-0.139,3.08,0.06,4.951c-0.155-0.407-0.161-0.965-0.181-1.51c-0.345,0.094-0.248,0.471-0.241,0.664
	c0.031,0.891,0.781,2.021,0.604,3.08c-0.134,0.803-0.177,1.994,0.242,2.717c-0.224,0.043-0.151-0.211-0.242-0.302
	c-0.119,0.001-0.076,0.165-0.241,0.121c-0.221,0.303-0.125,0.922-0.664,0.905c0.002,0.432,0.308,0.845,0.181,1.208
	c-0.368-0.274-0.55-0.738-0.966-0.966c0.145-0.199,0.178,0.219,0.423,0.12c0.142-0.248-0.085-0.364-0.241-0.482
	c-0.082,0.019-0.051,0.151-0.061,0.241c-0.08-0.021-0.096-0.105-0.182-0.121c-0.108,0.214-0.262,0.383-0.302,0.664
	c-0.07-0.01-0.107,0.014-0.121,0.061c-0.177-0.024-0.244-0.158-0.362-0.241c-0.645,1.099-0.705,2.503-0.543,4.046
	c-0.202-0.543-0.129-1.361-0.241-1.993c-0.141,0.454-0.493,0.872-0.483,1.389c0.008,0.441,0.494,0.87,0.182,1.269
	c-0.241-0.102-0.171-0.514-0.303-0.725c-0.265,1.531-1.448,2.564-1.208,4.227c-0.121-0.08-0.135-0.268-0.181-0.423
	c-0.469,1.644-1.496,2.729-1.69,4.649c-0.036-0.008-0.115-0.096-0.182-0.061c-0.312,0.164-0.753,2.471-0.966,3.201
	c-0.315,1.082-1.07,1.848-0.845,2.777c-0.007,0.154-0.111,0.211-0.181,0.301c0.141,0.214,0.098,0.377,0.06,0.665
	c-0.106,0.151-0.1,0.042-0.241,0.12c-0.213,1.156-0.068,2.285-0.121,3.321c-0.254,0.093-0.01-0.312-0.181-0.302
	c-0.228,0.731,0.61,0.919,0.543,1.69c-0.573,0.612,0.004,1.99,0.423,2.536c0.534,1.623,1.422,3.449,1.449,5.615
	c0.014,1.125,0.01,2.615-0.845,3.382c-0.008,0.174,0.033,0.396-0.061,0.483c0.398-0.484,1.028-1.191,1.751-0.664
	c0.251,0.612,0.042,1.188,0.181,1.75c0.07,0.281,0.369,0.398,0.483,0.664c0.283,0.656,0.249,1.404,0.363,2.234
	c-0.948,1.159-2.27,2.74-3.382,3.926c-0.637,0.68-1.487,1.641-2.838,1.328c-0.385-0.09-0.852-0.428-1.328-0.664
	c-1.366-0.68-3.075-1.482-4.227-2.295c-0.053-0.193,0.199-0.082,0.181-0.242c-0.357-0.443-1.477-1.016-1.872-0.664
	c-0.293-0.045,0.248-0.155,0.241-0.301c0.065-0.729-0.837-0.492-1.389-0.604c0.07-0.284,0.174-0.821-0.302-0.725
	c0.062-0.364-0.053-0.551-0.423-0.483c0.181-0.842-0.589-1.732-0.422-2.959c-0.081-0.12-0.269-0.134-0.423-0.18
	c0.084-0.098,0.297-0.065,0.362-0.182c0.152-0.596-0.302-0.584-0.483-0.846c0.201,0,0.402,0,0.604,0
	c0.074-0.728,0.483-1.468,0.121-2.113c0.194,0.176,0.264-0.137,0.423-0.182c-0.165-1.352,0.876-2.447,0.423-3.683
	c0.142,0.001,0.177-0.104,0.362-0.061c0.133-0.86,0.549-1.523,0.181-2.415c0.186-0.045,0.116,0.166,0.302,0.121
	c0.145-0.162-0.036-0.275,0.061-0.483c0.081,0,0.161,0,0.241,0c0.089-0.718,0.415-1.491,0.121-2.234
	c0.197-0.016,0.128,0.234,0.302,0.241c0.277-0.207,0.062-0.83,0-1.086c0.098-0.018,0.104,0.057,0.182,0.061
	c-0.033-0.088,0.07-0.312-0.061-0.303c0.083-0.231,0.208-0.072,0.302-0.241c-0.434-1.005,0.484-1.566,0.061-2.778
	c0.16,0.062,0.164,0.279,0.302,0.363c-0.072-0.531-0.219-0.988-0.423-1.389c0.129,0.092,0.175,0.268,0.242,0.422
	c0.205-0.268-0.132-0.51-0.06-0.846c0.141,0,0.281,0,0.422,0c0.249-0.123,0.205-0.591,0-0.725c0.027-0.089,0.078,0.025,0.181,0
	c0.071-0.332-0.104-0.418-0.121-0.664c0.08,0.021,0.095,0.107,0.182,0.121c0.074-0.967-0.501-1.787-0.846-2.535
	c0.227,0.203,0.509,0.179,0.785,0.06c-0.078-0.574,0.042-0.628,0.121-1.087c0.101,0,0.201,0,0.302,0
	c0.123-0.525,0.031-1.006-0.181-1.449c-0.016-0.197,0.235-0.127,0.242-0.301c0.185-1.265,0.106-2.793,0.12-4.228
	c-0.671-0.688-0.412-2.032,0.061-2.777c0.157-1.237-0.194-2.185-0.905-2.718c0.101-0.162,0.167-0.273-0.061-0.362
	c0.153-0.108,0.395-0.128,0.423-0.362c-0.172-0.472-0.6-0.688-0.724-1.207c0.336-0.17,0.543-0.182,0.604-0.544
	c0.202,0.101,0.462,0.142,0.664,0.242c0.459-0.258-0.043-0.69-0.181-0.906c0.17-0.05,0.156,0.085,0.302,0.061
	c0.005-0.142-0.397-0.298,0-0.302c-0.027-0.234-0.276-0.248-0.423-0.362c0.052-0.124,0.42-0.063,0.483,0
	c0.207-0.65,0.04-1.034-0.543-1.269c-0.015-0.297,0.441-0.122,0.543-0.301c-0.072-0.17-0.066-0.418-0.06-0.665
	c-0.133-0.108-0.248-0.235-0.423-0.302c0.283-0.24,0.363-0.684,0.725-0.846c-0.067-0.154-0.467,0.024-0.543-0.121
	c0.147-0.162,0.482-0.002,0.664,0c0.049-0.011,0.061-0.06,0.121-0.06c0.056-0.325-0.261-0.399,0-0.604
	c-0.19,0.03-0.213-0.108-0.422-0.061c-0.113-0.114-0.006-0.15,0-0.301c-0.656-0.094-0.949,0.178-1.509,0.182
	c0.412-0.374,1.317-0.254,1.69-0.665c-0.058-0.149-0.232,0.083-0.423,0c0.108-0.355,0.757-0.169,0.785-0.604
	c-0.087-0.09-0.405,0.169-0.604,0c0.233-0.209,0.709-0.176,0.906-0.422c-0.137-1.219,0.685-2.336,0.845-3.502
	c0.022-0.162-0.042-0.35,0-0.484c0.117-0.371,0.696-0.667,0.242-1.146c-0.141,0.019-0.25,0.119-0.362,0
	c0.206-1.006,1.366-1.365,1.268-2.476c-0.36,0.042-0.43,0.375-0.725,0.483c-0.064-0.247,0.455-0.43,0.604-0.664
	c-0.261-0.344-0.744-0.464-0.724-1.087c0.915-0.191,1.81-0.405,1.872-1.449c-0.756-0.093-1.033,0.296-1.57,0.423
	c-0.132-0.164,0.16-0.287,0.302-0.363c-0.061-0.133-0.208,0.149-0.422,0.061c0.315-0.389,0.881-0.527,1.329-0.784
	c0.019-0.241,0.003-0.446-0.121-0.544c-0.742-0.037-0.932,0.478-1.449,0.664c0.285-0.336,0.635-0.77,1.026-0.905
	c0.085-0.03,0.126,0.09,0.181,0.061c0.6-0.322,0.713-1.034,1.329-1.449c-0.266-0.24,0.065-0.962-0.604-0.906
	c0.077-0.185,0.206-0.317,0.302-0.482c-0.293-0.072-0.268,0.174-0.362,0.302c0.108-0.457,0.688-0.963,0.846-1.57
	c-0.009-0.256-0.522,0.104-0.302-0.241c-0.482,0.243-0.682,0.768-1.027,1.147c-0.172-0.1,0.029-0.328,0.061-0.423
	c-0.124-0.159-0.126,0.312-0.362,0.241c0.203-0.682,0.559-1.213,0.906-1.751c-0.008-0.173-0.252-0.11-0.422-0.12
	c0.298-0.709,0.802-1.211,1.208-1.812c-0.019-0.082-0.151-0.05-0.242-0.061c0.08-0.161,0.162-0.32,0.242-0.482
	c-0.119-0.143-0.401-0.123-0.665-0.121c0.222-0.369,0.836-0.94,0.362-1.449c-0.144,0.037-0.438-0.075-0.483,0.061
	c-0.14-0.242,0.124-0.746,0.423-0.906c-0.067-0.641,0.628-0.959,0.845-1.508c-0.011-0.051-0.06-0.061-0.06-0.121
	c-0.093-0.148-0.417-0.02-0.483,0.061c-0.136-0.141,0.323-0.199,0.241-0.484c-0.026-0.089-0.077,0.024-0.181,0
	c0.086-0.556,2.211-0.982,1.147-1.689c0.283-0.361,0.986-0.303,0.845-1.088c-0.316,0.078-0.493-0.189-0.966-0.241
	c0.193-0.249,0.651-0.235,0.725-0.604c-0.179-0.373,0.052-0.648,0.302-0.904c-0.152-0.129-0.291,0.27-0.543,0.24
	c0.472-0.453,0.965-0.886,1.389-1.389c-0.083-0.261-0.339-0.031-0.483,0c0.053-0.504,0.793-1.165,1.087-1.811
	c-0.205-0.023-0.095,0.267-0.362,0.181c0.936-1.339,1.575-2.974,2.294-4.528c0.065,0.015,0.041,0.119,0.121,0.12
	c0.031-0.425,0.61-1.545,0.785-2.354c0.173-0.798,0.374-1.517,0.543-2.295c0.224-1.027,0.858-1.775,1.449-2.717
	c1.296-2.066,2.847-4.301,4.348-6.038c0.72-0.833,1.519-1.5,2.295-2.174c0.08,0,0.16,0,0.24,0c0.763-0.446,1.261-1.156,2.054-1.57
	c0.161-0.061,0.199-0.244,0.303-0.362c0.57-0.194,1.051-0.478,1.63-0.665c0.157-0.414,0.941-0.593,1.509-0.785
	c-0.044-0.057-0.109-0.092-0.181-0.121c0.719-0.388,1.621-0.593,2.476-0.846c0.067-0.086,0.064-0.147-0.061-0.181
	c0.756-0.051,1.546-0.523,2.415-0.665c0.407-0.066,0.846,0.051,1.269,0c0.347-0.042,0.928-0.09,1.146-0.181
	c0.602-0.25,0.396-1.014,0.905-1.51c0.071-1.145,0.612-1.714,0.786-3.019c0.172-1.3,1.079-2.151,1.63-3.08
	c0.083-0.138-0.155-0.227,0-0.242c0.498-0.548,0.849-1.245,1.39-1.751c0.023-0.146-0.111-0.131-0.062-0.302
	c0.331-0.212,0.666-0.421,0.905-0.725c0.018-0.106-0.284-0.187-0.119-0.241c0.008-0.213,0.27-0.172,0.422-0.241
	c0.171-0.191-0.379-0.326-0.182-0.544c0.142,0,0.281,0,0.423,0c-0.182-0.237,0.716-0.326,0.544-0.725
	c0.771-0.335,1.188-1.027,1.872-1.449c0.149,0.112,0.377,0.146,0.542,0.242c0.254-0.204,0.53-0.45,1.088-0.303
	c0.164-0.054-0.184-0.135,0-0.241c0.307,0.132,0.699-0.09,0.665-0.181c0.288-0.126,0.605,0.238,0.845,0.362
	C94.225,46.533,93.909,46.443,93.862,46.382z"/>
</svg>
