<?xml version="1.0" encoding="utf-8"?>
<!-- Generator: Adobe Illustrator 15.0.0, SVG Export Plug-In . SVG Version: 6.00 Build 0)  -->
<svg version="1.2" baseProfile="tiny" id="Layer_1" xmlns="http://www.w3.org/2000/svg" xmlns:xlink="http://www.w3.org/1999/xlink"
	 x="0px" y="0px" width="200px" height="200px" viewBox="0 0 200 200" overflow="inherit" xml:space="preserve">
<g>
	<g id="g10">
		<g id="Layer_1_1_">
			<g id="g13">
				<path id="path15" fill="#010101" d="M88.558,61.966c-0.841-1.12-3.502-2.521-4.062-3.642c-0.561-1.121-0.841-2.242-0.841-2.242
					l-0.7,2.102c0,0-2.101-1.261-2.942-2.521s0.7-3.362,0.7-3.362l-1.681,0.28v-1.12l-2.241,2.381l-1.821-4.062l-2.802,0.28
					c0,0-0.279-0.98-1.541-2.802c-1.26-1.821-1.121-3.222-1.121-3.222s-0.98,1.82-1.821,1.12c-0.841-0.7-3.643-2.381-6.864-4.903
					c-3.222-2.521-7.985-9.946-10.646-13.448c-2.662-3.503-2.942-1.401-5.324-2.662c-2.381-1.261-4.203,4.342-4.203,4.342
					l8.545,9.807c0,0,3.923,6.164,5.745,8.965c1.82,2.802,3.642,5.884,6.023,9.245c2.381,3.363,0,1.262,0,1.262H59.7l1.261,2.801
					l5.744,3.503l-0.841,0.421c0,0-2.942-0.841-0.84,0.42s3.782,1.12,3.782,1.12s-1.121,0.561-0.14,1.261s4.203,0.421,4.203,0.421
					l-1.681,0.56c0,0,6.584,1.401,8.826,2.521c2.242,1.121,3.642,7.846,4.763,11.207c1.121,3.362,1.401,7.705-0.14,10.928
					c-1.541,3.222-1.401,9.245-1.541,14.849c-0.14,5.604,6.724,14.149,7.845,15.409c1.121,1.262,3.502,2.242,5.043,3.783
					c1.541,1.541,6.163,7.984,6.443,8.965c0.28,0.981,0,1.962,0,1.962l1.262-3.083l0.56,0.53c0,0,0.141-3.051,1.121-3.19
					c0.98-0.141,2.521-4.203,5.744-7.565c3.222-3.362,3.222-6.444,3.502-8.405s-1.261-6.584-0.84-9.386
					c0.42-2.802,0.699-15.409,1.68-19.612s3.223-7.705,4.062-8.965c0.842-1.262,5.667-2.803,6.445-2.803
					c0.777,0,2.24,0.421,2.24,0.421s-0.279-0.981-0.84-2.102s-1.541-1.401-1.541-1.401s1.961-1.26,2.662-1.681
					c0.7-0.42,4.342,0.98,3.361-0.28s-2.381-0.7-1.961-1.12c0.42-0.421,4.482-0.841,5.743-0.841s2.382,0.28,1.541-0.141
					c-0.841-0.42-0.841-3.082-0.98-3.643c-0.14-0.56,3.362,0.141,3.362,0.141s1.821,0.141,1.261-0.279
					c-0.56-0.421-0.421-1.262-0.56-2.522c-0.141-1.261,1.26-3.923,1.26-3.923s0.561,0.981,0.561,0.421s0.141-0.98,0.141-0.98
					l1.12,1.12c0,0-0.14-1.681-0.14-2.521c0-0.84,1.681-1.541,1.681-1.541l0.421,1.541l1.4-5.603l1.4,0.981c0,0,0-1.401,0.28-1.962
					c0.28-0.56,2.241-1.541,2.241-1.541l0.841,1.401c0,0,0.841-1.541,0.981-0.981c0.139,0.561,1.12,0.42,0.84-0.14
					c-0.28-0.561-0.701-1.401,0.42-6.865c1.121-5.463,5.184-8.825,5.463-12.608c0.281-3.782-2.801-0.42-4.342-0.42
					s-3.223,2.241-3.502,2.801c-0.28,0.561-1.682,2.802-2.662,3.643c-0.98,0.84-0.42,0.98-1.82,1.541
					c-1.401,0.561-1.262,2.381-2.102,2.802c-0.842,0.42-3.362,2.661-4.623,3.642c-1.262,0.981-1.121,1.821-1.961,2.522
					c-0.842,0.7-2.522,3.782-5.324,6.164c-2.801,2.381-4.902,6.583-6.304,7.284c-1.401,0.7-2.661,0.561-3.222,0.84
					c-0.561,0.281-2.102,1.401-2.102,1.401s1.541-1.681,0.28-1.12s-2.521,2.941-3.362,4.062c-0.84,1.12-1.12,1.54-2.662,2.801
					c-1.541,1.261-4.482,1.541-5.043,1.401c-0.561-0.141-1.541-0.561-2.801-1.12c-1.262-0.561-2.803-1.682-4.063-2.383
					c-1.261-0.699-2.661-2.381-4.062-2.381s-2.662,0.98-3.222,1.261c-0.56,0.28-1.681,0.28-2.242,0.841
					c-0.56,0.561-2.381,1.821-2.381,1.821S89.398,63.086,88.558,61.966z"/>
				<path id="path17_1_" fill="#010101" d="M113.913,117.16c0,2.102,6.725,14.99,10.367,21.014s2.802,10.366,2.802,14.429
					s-2.102,6.163-1.681,7.985c0.42,1.82,2.102,6.023,2.381,9.666c0.281,3.642-0.42,6.023-2.241,7.564s-4.343,0.42-5.323,0.28
					c-0.98-0.141,0-1.542,0-1.542s-0.561-0.42-0.28-0.84s2.241-1.261,2.241-1.261s0-0.42,0.701-0.42c0.699,0,0.98-2.522,0.84-4.203
					s-4.062-0.42-5.323-0.14s-1.541-0.141-1.541-0.98c0-0.841,2.521-3.923,2.661-5.184c0.141-1.261-0.98-7.285-0.98-7.285
					l-0.279-1.82l-0.701,0.84c0,0,0.42-1.681,0.42-3.642c0-1.962,0.141-5.044,0.141-5.044s-6.023-7.145-7.004-7.844
					c-0.98-0.701-8.125-7.145-8.125-7.145S113.913,115.059,113.913,117.16z"/>
				<path id="path19" fill="#010101" d="M92.974,118.59c-0.213,2.091-8.208,14.231-12.441,19.855
					c-4.233,5.624-3.837,10.029-4.249,14.071c-0.411,4.042,1.467,6.345,0.864,8.114s-2.701,5.78-3.348,9.375
					c-0.647,3.596-0.191,6.035,1.464,7.753c1.655,1.718,4.278,0.858,5.268,0.817c0.99-0.039,0.156-1.533,0.156-1.533
					s0.6-0.361,0.364-0.808c-0.236-0.446-2.102-1.481-2.102-1.481s0.042-0.418-0.655-0.488c-0.697-0.071-0.72-2.607-0.411-4.267
					c0.309-1.657,4.084-0.007,5.31,0.4c1.226,0.405,1.547,0.017,1.632-0.82c0.085-0.836-2.111-4.157-2.123-5.426
					c-0.012-1.269,1.713-7.147,1.713-7.147l0.463-1.783l0.612,0.906c0,0-0.248-1.715-0.049-3.666
					c0.198-1.951,0.371-5.031,0.371-5.031s6.716-6.498,7.763-7.095c1.046-0.598,8.807-6.285,8.807-6.285S93.186,116.5,92.974,118.59
					z"/>
				<path id="path21" fill="#010101" d="M49.614,27.084c0,0-2.241-4.062-2.522-5.744c-0.28-1.681-1.96-2.241-2.101-3.222
					c-0.141-0.98-1.821-0.42-3.222-0.84c-1.402-0.42-2.242,0.561-3.223,0.42c-0.98-0.14-2.942,0.701-4.482,1.401
					c-1.541,0.7,0.14,1.26,0.14,1.26s1.261-0.56,1.96,0c0.701,0.561,1.262,4.343,1.262,4.343s-0.981,0-2.801-0.14
					c-1.821-0.14,0.14,0.98,1.54,1.261c1.402,0.28,6.025,3.502,6.025,3.502L49.614,27.084z"/>
				<path id="path23" fill="#010101" d="M147.675,37.451c0,0,4.953-13.449,5.232-15.129c0.281-1.681,1.962-2.241,2.102-3.222
					c0.141-0.981,1.822-0.421,3.223-0.841s2.241,0.56,3.222,0.42c0.98-0.14,2.942,0.701,4.483,1.401
					c1.541,0.7-0.141,1.26-0.141,1.26s-1.261-0.56-1.961,0c-0.701,0.561-1.262,4.343-1.262,4.343s0.98,0,2.803-0.141
					c1.82-0.14-0.141,0.981-1.541,1.262c-1.401,0.279-10.276,6.304-10.276,6.304L147.675,37.451z"/>
				<path id="path25" fill="#010101" d="M78.729,69.934c0,0,1.614-0.572,1.77-0.521c0.156,0.052,2.865,4.583,2.865,4.583
					L85.968,84.1l0.573,4.792l-1.771,6.613l3.385,23.385c0,0-0.156,0-0.781-0.156s-0.938-0.104-1.562,0.156
					c-0.626,0.261-0.521-0.208-1.199-1.198c-0.677-0.989-1.093-0.052-2.343,1.094c-1.25,1.146-0.208-0.677,0.573-2.812
					c0.781-2.135,0.052-3.02-0.782-2.655c-0.833,0.364-0.26-0.469-0.052-1.562c0.208-1.094-0.104-1.042-0.937-0.729
					s-0.104-0.572,0.521-1.354c0.625-0.781,0.364-0.365,0.208-1.25c-0.156-0.886-0.678,0.104-1.511,1.041s-0.521-0.156,0.521-2.031
					s0-4.01-0.573-4.01c-0.572,0-0.26-0.781,0.365-1.146c0.625-0.364,0.469-1.041-0.156-1.093c-0.625-0.052,0-0.104,1.458-2.083
					c1.458-1.979,0.521-2.188,0.208-2.293c-0.312-0.104-0.781-0.52,0-1.302c0.781-0.78-0.208-0.78-1.354-0.26
					c-1.146,0.521-0.729-0.364-0.105-0.677c0.625-0.312,0.625-0.521,1.302-1.354c0.677-0.833,0.781-1.093,1.406-2.396
					s-0.052-1.406-0.26-2.031s-0.833-1.302-1.146-2.084c-0.312-0.781,0.521-0.781,0.938-1.406c0.417-0.625-0.104-0.416-0.729-0.207
					c-0.625,0.207-0.572-0.209-0.572-0.209s0.937-0.469,1.614-1.042s-0.312-1.093-0.573-1.093s-0.938,0.104-1.615,0.208
					c-0.677,0.104-0.208-0.209,0.521-0.729c0.729-0.521,0.833-1.25,0.989-2.136c0.156-0.886-2.708,0.157-3.177,0.417
					c-0.469,0.261-1.614,0.416-2.5,0.677c-0.886,0.261-0.521-0.364,0.729-0.677c1.25-0.312,2.396-1.771,2.917-2.865
					c0.521-1.093-0.052-0.833-0.573-0.833c-0.521,0-1.146,0.209-1.146,0.209s-0.625,0,1.146-1.25
					c1.771-1.25,0.781-1.146,0.677-1.719c-0.104-0.573-0.99-0.47-1.458-0.364c-0.468,0.104-0.989,0.26-0.989,0.26
					S77.114,74.36,78,73.527c0.885-0.834,1.719-1.771,1.719-1.771s-1.979,0-3.385,0.104s-0.157-0.469,0.521-0.678
					c0.677-0.208,0.989-0.312,0.989-0.312s-1.354-0.521-2.188-0.572c-0.833-0.053-3.281-0.47-2.656-0.47
					c0.16,0,0.612,0.007,1.198,0.018C75.901,69.876,78.729,69.934,78.729,69.934L78.729,69.934z"/>
				<path id="path27" fill="#010101" d="M121.786,76.136l-3.445,0.229l-5.74,10.793l0.918,28.248l2.182,0.688
					c0,0-1.033-2.641,0.23-2.182c1.263,0.46-0.115-2.985-0.345-3.56s0-1.492,0-2.066s0.459-1.493,1.492-1.493c1.034,0,0,0,0-0.688
					c0-0.689-0.804-2.067-0.804-2.871s0.459-0.345,2.182,0c1.723,0.344-0.918-1.607-1.723-4.479
					c-0.804-2.87,0.115-0.688,1.148-0.459s0,0,0-0.918c0-0.92,0-0.689-0.804-2.182c-0.804-1.494-0.345-2.297-0.114-3.216
					c0.229-0.919,0.459,0,1.607,1.148s0.344-0.115,0.344-1.264c0-1.147-0.229-1.378-1.951-2.985s0.115-1.607,0.574-1.492
					c0.459,0.114,1.492,0.803,1.377,0.229c-0.114-0.574-0.459-2.183-0.459-3.33c0-1.148,0.115-0.804,1.378,0.46
					c1.263,1.262,0.804,1.148,0.804-1.034c0-2.182-0.689-1.837-1.148-2.066s0.459-1.378,1.723-1.378s0.689-0.229,0.345-1.033
					c-0.345-0.805,0.229-0.689,2.067-1.838c1.837-1.148,1.263,0,1.148-1.263C124.657,74.873,121.786,76.136,121.786,76.136
					L121.786,76.136z"/>
			</g>
		</g>
	</g>
</g>
</svg>
