<?xml version="1.0" encoding="utf-8"?>
<!-- Generator: Adobe Illustrator 15.0.0, SVG Export Plug-In . SVG Version: 6.00 Build 0)  -->
<svg version="1.2" baseProfile="tiny" id="Layer_1" xmlns="http://www.w3.org/2000/svg" xmlns:xlink="http://www.w3.org/1999/xlink"
	 x="0px" y="0px" width="200px" height="200px" viewBox="0 0 200 200" overflow="inherit" xml:space="preserve">
<g>
	<path id="path3" fill="#010101" d="M81.904,96.704c-0.116,0.014-0.224,0.175-0.282-0.001c0.174-0.089,0.305-0.22,0.395-0.396
		c-0.188-0.042-0.594,0.137-0.494-0.195c3.031-0.551,4.466-2.695,5.801-4.936c0.02-0.359,0.135-0.377-0.002-0.689
		c0.454-0.661,1.066-1.164,1.572-1.775c-0.34-0.655,0.492-0.758,0.589-1.281c-0.009-0.155-0.251-0.076-0.198-0.294
		c0.684-0.892,1.641-1.512,2.458-2.271c-0.431-0.075-0.768,0.268-1.083,0.002c0.684-0.671,1.264-0.308,1.869-0.693
		c0.609-0.386,0.797-1.295,1.18-1.972c0.752-1.339,1.592-1.862,2.555-2.763c-0.279-0.08-0.256,0.14-0.493,0.1
		c1.205-0.799,1.758-2.246,2.554-3.452c0.801-0.375,1.838-0.487,2.46-1.088c0.243-0.236,0.288-0.635,0.49-0.887
		c1.245-1.556,3.169-2.086,4.424-3.653c3.812-1.647,6.834-4.869,12.4-3.767c0.629,0.549,1.32,0.654,2.169,0.783
		c1.647,0.252,2.696,1.752,4.042,2.257c0.146,0.215,0.193,0.53,0.396,0.688c1.645,0.125,2.073,1.47,3.842,1.47
		c0.465,0.619,0.832,1.336,2.07,1.178c-0.092-0.74,1.15-0.929,2.067-0.694c0.914-0.682,5.987-0.446,5.612-0.109
		c1.896-0.6,4.365,0.007,5.418,1.368c0.951,0.427,1.809,0.949,2.27,1.867c0.034,1.764,0.094,2.859-0.287,4.138
		c1.456,0.922,2.062,2.506,2.766,4.426c0.719,1.955,0.393,3.609,0.504,5.71c0.121,2.252,0.758,4.438,0.408,6.696
		c-0.482,0.176-0.394,0.919-0.49,1.478c1.072,0.368,0.44,1.421,0.791,2.165c0.59,1.245,2.024,2.698,2.373,4.428
		c0.213,1.062,0.09,1.868,0.4,3.149c-0.751,0.728-2.21,0.748-3.051,1.386c-0.583,1.082-0.887,2.042,0.4,2.655
		c0.358-0.164,0.482-0.566,0.982-0.592c-0.117,0.67,0.277,1.371-0.094,2.068c0.505,0.264,0.341,0.74,0.199,1.279
		c-0.398,0.094-0.997,0.177-1.379,0.004c-1.147,1.281-1.152,3.699-1.563,5.714c-0.117,0.017-0.28-0.017-0.296,0.099
		c-0.133,0.786-0.467,1.37-0.686,2.07c-0.168-0.324-0.317-0.668-0.592-0.885c0.051,1.393-0.752,1.938-0.979,3.055
		c-0.303,0.074-0.19-0.27-0.493-0.195c-0.062,0.429-0.623,0.361-0.588,0.887c1.224,1.748,2.512,3.792,3.358,5.607
		c0.072,0.301-0.099,0.358-0.097,0.59c2.226,2.877,2.191,6.735,3.959,9.84c0.181,1.746,1.156,3.568,1.39,5.809
		c1.627,1.438,1.862,3.661,1.981,5.807c-0.001,0.195-0.271,0.127-0.196,0.395c0.055,1.023,0.553,2.043,0.596,2.953
		c0.019,0.371-0.235,0.736-0.193,1.183c0.124,1.308,1.23,2.72,0.698,4.431c-1.007,0.799-0.358,2.155-0.388,3.25
		c-0.043,1.521-1.103,2.825-1.271,4.14c-0.245,0.129-0.48-0.22-0.493,0.002c0.041,1.059,0.194,1.399,0.496,2.165
		c-0.338,1.507,1.036,2.103,0.401,3.74c0.455,1.328,0.752,3.709,0.01,4.924c-0.602,0.088-1.025,0.354-1.673,0.398
		c-0.312,0.047-0.038-0.49-0.396-0.395c-0.988,0.393-2.505,0.553-3.939,0.598c-2.203,0.071-4.829,0.247-6.5-0.773
		c-0.196,0-0.393,0-0.59,0c-1.578-1.336-1.957-4.336-1.491-6.891c0.62-0.365,0.635-1.623-0.201-1.771
		c-0.444,0.114-0.558,0.559-1.082,0.594c0-0.493,0.621-0.778,0.392-1.185c-0.51,0.516-0.986-0.08-1.574,0.398
		c0.109-0.451,0.549-1.088,0.49-1.381c-0.73,0.125-1.033,0.676-1.574,0.988c-0.481-0.043-0.545-0.508-1.183-0.393
		c0-0.328-0.001-0.656-0.002-0.984c-0.288,0.356-0.371,0.011-0.788,0.002c-0.281,0.244-0.339,0.712-0.688,0.888
		c0.369-1.286-0.063-1.919-0.889-0.981c-0.061-0.203-0.154-0.373-0.494-0.295c0.185-0.479,0-0.58-0.197-0.887
		c0.14-0.449,0.572-0.609,0.588-1.184c-0.366,0.062-0.618,0.236-0.984,0.298c-0.131-0.246,0.389-0.31,0.098-0.396
		c-0.396-0.32-0.549,0.254-0.984,0.2c-0.042-0.467,0.334-0.518,0.293-0.985c-0.479,0.519-1.006-0.282-1.771-0.095
		c0.281-0.506,1-0.573,1.08-1.282c-0.436-0.021-0.834,0.756-1.084,0.297c0.246-0.375,0.797-0.754,0.588-1.28
		c-0.332,0.19-0.639,0.829-1.181,0.495c-0.247-0.295,0.493-0.85,0.294-1.086c-0.519,0.141-1.007,0.31-1.477,0.496
		c-0.562-0.924,0.456-1.808-0.202-2.461c0.126-0.467,0.662-1.041,0.292-1.676c-0.05,1.315-0.906,2.161-1.372,3.252
		c-0.131,0.307-0.103,0.853-0.292,1.281c-0.175,0.396-0.561,0.618-0.589,0.987c-0.045,0.587,0.427,1.36,0.595,2.065
		c0.326,1.368,0.953,2.979,1.092,4.43c0.045,0.462-0.127,0.945-0.096,1.378c0.038,0.538,0.28,1.004,0.298,1.478
		c0.089,2.463-0.317,4.301-1.563,6.404c-1.78,1.697-5.008,1.518-7.577,2.083c-2.892,0.639-6.185,0.062-8.961,0.019
		c-0.253-0.175-0.433-0.423-0.789-0.49c-1.597,0.248-3.159-0.717-2.86-2.26c-0.277-0.019-0.271-0.322-0.494-0.394
		c-0.455-1.716-0.111-3.032,0.189-4.433c0.39-1.818,2.186-2.992,3.143-4.143c0.711-0.014,1.536,0.088,1.672-0.496
		c-0.317-0.568-0.797-1.387-1.479-1.277c0.061-0.555-0.007-0.98-0.298-1.181c0.163-0.624,0.583-0.991,0.686-1.676
		c-0.38,0.495-0.924,0.237-1.377,0.594c-0.004-0.562,0.451-0.665,0.49-1.183c-0.711,0.439-0.944,1.354-1.671,1.775
		c-0.035-0.69,0.474-0.838,0.488-1.478c-0.41-0.078-0.549,0.624-0.885,0.296c0.151-0.277,0.594-0.779,0.49-0.984
		c-0.921,0.555-1.191,1.76-2.359,2.071c-0.045-0.946,1.217-1.471,0.588-2.364c-0.336,0.127-0.373,0.547-0.789,0.594
		c-0.139-0.723-0.771,0.248-1.279,0.1c0.374-0.513,0.874-1.421,0.686-2.166c-0.817,0.102-1.404,0.957-1.967,0.988
		c0.243-0.316,0.539-0.577,0.49-1.184c-0.471,0.123-0.663,0.52-1.182,0.594c-0.135-0.225,0.254-0.373,0-0.396
		c-0.644,0.015-1.47,0.369-1.968,0.201c0.406-1.067,2.159-1.319,1.765-2.858c-0.67,0.051-0.776,0.668-1.476,0.691
		c0.312-0.49,0.141-0.868,0.194-1.379c-1.011,0.666-1.427,1.92-2.752,2.271c0.399-1.273,1.483-1.863,1.272-3.744
		c-0.32-0.113-0.605,0.302-0.789,0.002c0.787-0.43,1.308-1.123,1.078-2.564c-0.731-0.119-0.916-0.293-1.478-0.193
		c-0.056-0.172,0.118-0.578-0.101-0.59c-0.473,0.217-0.74,0.639-1.18,0.889c0.024-0.461-0.117-0.137-0.396-0.295
		c-0.199,0.193-0.006,0.777-0.391,0.787c-0.496-0.117,0.174-0.897-0.102-1.082c-0.254,0.107,0.096,0.816-0.393,0.691
		c-0.267,0.07,0.069-0.467-0.197-0.395c-0.006,0.287-0.036,0.554-0.393,0.492c-0.065-0.365,0.125-0.981-0.103-1.183
		c-0.036,0.293-0.17,0.487-0.394,0.592c-0.314-0.198,0.185-0.644-0.1-0.786c-0.701,0.514-0.334,2.092-1.177,2.465
		c-0.222-0.205-0.306-0.55-0.495-0.787c-0.163,1.889-1.403,3.31-1.762,4.729c-0.195,0.771-0.488,0.709-0.787,1.185
		c-0.473,0.756-0.529,1.651-0.881,2.463c-0.908,0.438-1.297,1.395-2.162,1.875c0.033,0.394-0.176,0.547-0.098,0.985
		c0.812,0.095,2.217,0.19,2.957,0.88c0.736-0.002,1.269,0.07,1.772,0.489c-0.026,1.04-0.224,2.277-0.091,3.545
		c0.045,0.452,0.348,0.921,0.396,1.38c0.156,1.483-0.456,2.527-1.272,3.547c0.274,0.282,0.154,0.963,0.396,1.278
		c-0.646,0.399-1.371,1.336-2.459,1.582c-0.207,0.045-0.492-0.11-0.689-0.098c-1.303,0.084-2.981,0.685-4.233,0.401
		c-0.724-0.164-1.104-0.684-1.676-1.08c-0.556,0.258-1.08-0.362-1.577-0.49c-0.264,0.003-0.523,0.003-0.788,0.003
		c-0.276-0.147-0.42-0.433-0.789-0.49c-0.762,0.421-1.067,1.239-1.769,1.479c-1.072,0.367-2.48-0.355-3.252-0.387
		c-0.793-0.033-1.45,0.549-2.166,0.201c-0.664,0.521-1.25,0.098-1.772,0.102c-1.28,0.014-2.342,1.193-3.543,0.795
		c-0.47,0.357-0.908,0.275-1.379,0.496c0.03-0.26-0.138-0.324-0.394-0.295c-2.478,0.635-6.102,0.969-8.174-0.082
		c-0.753-0.056-0.703,0.135-1.183-0.293c-0.819,0.364-1.987-0.966-2.956-0.783c-0.299-0.358-0.695-0.618-1.184-0.784
		c-0.656-1.052-1.147-2.269-2.174-2.949c0.029,0.224-0.021,0.37-0.195,0.394c-0.115-1.054,0.225-2.01-0.398-2.461
		c-0.166,0.4-0.588,0.275-0.887,0.102c0.037-0.817,0.76-1.471,0.587-2.168c-0.449,0.699-0.622,1.673-1.177,2.268
		c0.119-1.468,0.154-2.51,0.781-3.547c-0.304-0.158-0.836-0.084-1.084-0.293c-0.074-0.992,1.256-1.105,1.178-1.775
		c-0.737,0.282-1.358,0.678-2.264,0.793c0.146-0.478,0.881-0.369,1.082-0.789c-0.244,0.084-0.764,0.192-0.984,0
		c0.141-0.744,0.904-0.864,1.078-1.576c-0.279-0.278-0.95-0.163-0.887-0.786c0.775-0.374,2.229-0.073,2.657-0.793
		c-0.358-0.087-0.657,0.385-0.887,0.1c0.174-0.024,0.224-0.17,0.196-0.395c-0.674-0.167-1.361,0.208-2.266,0.104
		c0.488-0.435,0.76-0.767,0.686-1.577c0.549-0.324,1.945,0.123,1.871-0.595c-0.861-0.06-1.487-0.039-2.168-0.094
		c0.58-1.193,2.703-0.845,3.049-2.271c-0.822,0.098-1.27,0.571-2.166,0.596c-0.141-0.155-0.247-0.342-0.491-0.394
		c0.47-0.844,1.696-0.93,1.965-1.975c0.038-0.235-0.448,0.057-0.295-0.294c0.688-0.167,1.397-0.833,1.274-1.479
		c-0.477,0.08-0.666,0.447-1.08,0.593c0.058-0.256-0.039-0.354-0.297-0.295c0.377-0.742,1.15-1.082,1.375-1.973
		c-0.336,0.007-0.687,0.033-0.787-0.195c0.748-0.142,1.804-0.494,1.771-1.087c-0.28,0.021-0.653,0.458-0.885,0.198
		c0.45-0.629,1.062-1.104,1.274-1.973c-0.295,0.004-0.336,0.259-0.592,0.298c0.643-1.554,1.817-2.997,1.863-4.83
		c-0.197,0.002-0.126,0.269-0.395,0.198c0.213-0.965,0.801-1.561,0.979-2.562c-0.311,0.347-0.865,0.449-1.18,0.79
		c0.005-0.322,0.277-0.377,0.193-0.788c-0.092,0.06-0.361,0.228-0.295-0.1c-0.027-1.64,1.447-3.408,0.483-4.728
		c-0.255,0.27-0.278,0.772-0.589,0.985c0.092-0.915,0.328-1.722,0.191-2.364c-0.412-1.914,0.688-3.787,0.776-5.417
		c-0.42,0.304-0.354,1.087-0.785,1.38c0.083-3.373,1.259-5.815,1.56-8.865c-0.156,0.009-0.076,0.25-0.297,0.197
		c-0.053-1.298,0.821-2.195,0.883-3.055c-0.377-0.072-0.707,0.405-0.986,0.1c0.725-0.424,1.605-0.694,1.967-1.479
		c-0.148-0.017-0.363,0.036-0.395-0.099c1.429-1.162,1.83-3.082,3.045-4.535c0.189-0.229,0.232-0.508,0.293-0.788
		c0.852-0.724,1.544-1.605,2.062-2.664c1.347-0.789,2.265-2.004,3.146-3.257c3.063-2.616,6.142-5.217,9.734-7.307
		c-0.016,0.215,0.082,0.313,0.297,0.295c1-1.25,3.16-0.735,3.836-2.272c-0.174-0.056-0.578,0.121-0.59-0.097
		c0.141-0.057,0.238-0.153,0.293-0.297c-0.147-0.017-0.363,0.037-0.396-0.099C76.7,99.908,79.725,98.302,81.904,96.704
		L81.904,96.704z"/>
</g>
</svg>
