<?xml version="1.0" encoding="utf-8"?>
<!-- Generator: Adobe Illustrator 15.0.0, SVG Export Plug-In . SVG Version: 6.00 Build 0)  -->
<svg version="1.2" baseProfile="tiny" id="Layer_1" xmlns="http://www.w3.org/2000/svg" xmlns:xlink="http://www.w3.org/1999/xlink"
	 x="0px" y="0px" width="200px" height="200px" viewBox="0 0 200 200" overflow="inherit" xml:space="preserve">
<g>
	<g id="g10_1_">
		<g id="Layer_1_2_">
			<path id="path13" fill="#010101" d="M123.164,81.168c-1.236,1.454-1.697,2.74-2.333,6.003c-0.636,3.265,1.814,11.892,5.446,12.81
				c3.631,0.919,2.59,0.293,3.357-0.934s1.592-3.289,1.613-7.202c0.02-3.912,2.741-9.733,4.288-13.879
				c1.548-4.144,5.798-9.668,7.192-11.938c1.395-2.269,1.466-4.267,0.582-5.708c-0.884-1.442-2.845-2.248-3.961-1.406
				s-4.777,6.057-6.016,6.98c-1.238,0.923-2.547,3.844-2.93,4.722s-3.642,5.113-4.084,6.298
				C125.879,78.099,123.164,81.169,123.164,81.168L123.164,81.168z"/>
			<path id="path15_1_" fill="#010101" d="M141.936,64.057c0.744,0.135,3.555-2.029,4.174-3.137
				c0.619-1.106,2.205-8.158,3.264-14.218s2.252-11.82,2.343-14.022c0.091-2.202-2.019-2.407-3.126-3.025
				c-1.106-0.62-1.156,0.952-1.155,1.996c0.001,1.044-1.638,5.492-2.741,9.049c-1.103,3.558-2.662,5.7-3.466,8.079
				c-0.804,2.378-1.193,5.759-2.647,8.935c-1.455,3.176,0.201,5.097,1.266,5.303C139.846,63.016,141.191,63.924,141.936,64.057z"/>
			<path id="path17_2_" fill="#010101" d="M125.66,96.312c-1.248-1.559-4.78-1.143-12.469,0.104
				c-7.689,1.247-9.56,8.936-9.56,10.391s0,1.039-0.52,3.221s-0.623,5.091-0.416,10.286c0.208,5.195,2.599,7.688,3.43,8.728
				s10.493,9.352,12.78,11.014c2.285,1.663,1.974-0.207,5.299-2.285s6.649-6.546,7.793-8.936c1.143-2.391,2.077-8.416,2.182-14.858
				c0.104-6.441-4.26-11.222-5.818-14.755C128.361,99.221,126.906,97.871,125.66,96.312z"/>
			<path id="path19_1_" fill="#010101" d="M98.551,108.281c-1.726,1.586-7.087,6.975-10.882,9.911
				c-3.793,2.937-3.552,2.22-4.802,1.104c-1.25-1.114,0.736-4.542,0.294-5.73c-0.442-1.188,4.63-6.524,6.744-8.854
				c2.112-2.328,10.28-8.307,11.913-9.578c1.635-1.27,7.77-0.162,8.757,2.131C113.436,103.91,100.277,106.694,98.551,108.281z"/>
			<path id="path21_1_" fill="#010101" d="M56.252,110.513l-0.624,3.637c0,0,7.792,2.493,14.131,5.194
				c6.338,2.702,13.819,1.455,15.377,0.728c1.559-0.728,1.144-4.364,0.52-6.857c-0.623-2.493,1.593-4.294,0.139-3.463
				s-13.75,1.385-16.452,1.177c0,0-8.208-0.415-12.676-1.662L56.252,110.513z"/>
			<path id="path23_1_" fill="#010101" d="M57.858,112.543c0.654,0.553-0.964,1.727-2.216,2.152
				c-1.251,0.427-3.464,3.044-3.833,3.558c-0.368,0.514-2.084,0.943-3.011,1.414c-0.926,0.471,0.504-1.025,0.642-1.305
				c0.138-0.28,0.501-1.49-0.75-1.064c-1.252,0.428-0.689,1.167-0.964,1.726c-0.275,0.561-0.959,2.424-0.998,3.678
				c-0.038,1.256,1.735,2.359,1.786,2.962c0.05,0.604-0.601,0.516-0.601,0.516s0.145,0.882,1.406,1.849
				c1.261,0.969-0.126,1.907-1.013,1.355c-0.887-0.553-2.236-0.868-1.764,0.29c0.473,1.159,0,0-1.119-0.55
				c-1.119-0.551-1.791-3.659-2.223-5.84c-0.433-2.182,1.628-6.609,2.409-7.963c0.78-1.352,3.376-2.392,4.065-3.559
				c0.689-1.166,3.711-3.144,5.557-2.825C58.86,109.562,57.205,111.99,57.858,112.543z"/>
			<path id="path25_1_" fill="#010101" d="M147.826,30.358L149,26.48c0,0,1.219-2.421,0.195-2.213s-1.292,0.652-1.985-0.008
				c-0.693-0.661-0.063-0.62-1.2-0.505c-1.137,0.114-0.517,0.052-0.187-0.817c0.331-0.869,0.132-1.789,1.579-2.979
				c1.446-1.19,2.036-0.519,3.794-0.696c1.757-0.178,3.701,0.462,4.292,1.134c0.59,0.671,1.418,2.676,1.368,4.247
				s-2.395,4.21-3.52,5.473c-1.126,1.263-2.304,3.052-2.304,3.052L147.826,30.358z"/>
			<path id="path27_1_" fill="#010101" d="M150.307,29.063c0.227-0.858,0.276-2.43,0.008-3.03c-0.27-0.599-3.488-3.512-4.678-3.914
				c-1.189-0.402,0.842,4.197,1.795,6.397c0.953,2.202,0.686,3.69,0.686,3.69S150.08,29.921,150.307,29.063z"/>
			<path id="path29" fill="#010101" d="M112.268,74.789c-1.408,0.125-3.289,0.754-5.199,1.659c-1.912,0.905-2.627,3.614-2.87,4.563
				c-0.244,0.949-0.146,5.141-0.146,5.141s0.093,0.428,0.154,1.131c0.062,0.704,0.878,3.441,0.45,4.789
				c-0.427,1.346-0.287,2.615,0.664,4.113s6.726,7.289,10.383,6.994c3.654-0.297,6.55-8.898,7.082-11.209s-2.272-5.964-0.911-6.93
				c1.36-0.965,0.532-2.311,0.378-3.442c-0.155-1.132-2.723,0.677-3.092-1.036C118.789,78.85,114.629,74.581,112.268,74.789
				L112.268,74.789z"/>
			<path id="path31" fill="#010101" d="M122.646,132.887c0,0-2.771,10.806-4.295,12.052c-1.523,1.247-1.385,0.554-3.74,1.802
				c-2.355,1.246-2.078,2.493-3.602,4.295c-1.524,1.8-5.126,7.896-6.373,9.281s-2.078,6.512-2.909,9.697
				c-0.832,3.187,0.831,7.204,1.939,8.728c1.108,1.524-3.048,0-5.126,0c-13.334,0-3.201,1.485-3.602-3.325
				c-0.139-1.662,0.416-7.342,0.832-10.112c0.416-2.771,0.416-4.572,1.663-7.065c1.247-2.494,3.74-9.836,5.402-13.992
				c1.663-4.156,3.603-17.456,3.603-17.456L122.646,132.887z"/>
			<path id="path33" fill="#010101" d="M109.464,133.094c0,0,2.771,10.806,4.294,12.053c1.524,1.247,1.386,0.555,3.74,1.801
				c2.355,1.247,2.078,2.494,3.603,4.295s5.126,7.896,6.373,9.282c1.246,1.386,2.078,6.511,2.909,9.697
				c0.832,3.187,1.408,6.304,0.299,7.827c-1.108,1.524,0.81,0.9,2.888,0.9c2.077,0,3.464-1.662,3.603-3.324
				c0.138-1.662-0.416-7.343-0.832-10.113s-0.416-4.572-1.662-7.065c-1.247-2.494-3.741-9.837-5.403-13.993
				s-3.603-17.455-3.603-17.455L109.464,133.094z"/>
			<path id="path35" fill="#010101" d="M104.319,94.624l15.916-12.884l0.325-0.217l-0.055-0.812c0,0-0.162-0.055-0.596-0.163
				c-0.433-0.107-0.107-1.516-0.055-1.678c0.055-0.162-0.378-0.541-1.137-0.596c-0.757-0.054-0.541-0.649-0.541-0.649
				s-0.107-1.624-0.107-2.11c0-0.488-0.379-0.434-0.758,0c-0.38,0.433-0.434-0.055-0.434-0.055s-0.271-0.649-0.108-1.191
				c0.162-0.541-0.271-0.107-1.353,0.325c-1.084,0.433-0.38-0.542-0.434-1.028c-0.055-0.488,0.107-0.704,0.486-1.408
				c0.379-0.703-0.162-0.596-0.757,0.434c-0.596,1.029-0.704,0.758-1.028,1.245c-0.325,0.487-0.596-0.055-0.541-0.595
				c0.053-0.542,0.757-1.896,0.757-1.896s-1.407,2.111-2.11,2.544c-0.705,0.434-0.271-0.433-0.271-0.648
				c0-0.217,0.271-0.434,0.487-1.246c0.217-0.812-0.325-0.324-0.921,0.649c-0.596,0.975-1.137,0.866-1.027,0.271
				c0.107-0.595-0.055-0.541-0.596-0.974c-0.541-0.434-0.541-0.758-0.541-0.758s0.215,0.758,0.432,1.137
				c0.217,0.38,0,0.217-0.648,1.3c-0.65,1.082,0,1.137,0,1.137s-0.867-0.325-2.004-0.703c-1.137-0.38-1.84-0.326-1.678-0.056
				c0.162,0.271,0.758,0.812-0.162,0.812c-0.921,0-2.437-0.812-2.274-0.812s1.083,1.354,1.083,1.354l-1.191-0.217l2.111,1.516
				c0,0-0.433,0.054-0.92,0.054s-1.354,0.055-1.354,0.055s0.596,0.216,0.92,0.216c0.325,0,1.083,0.379,0.921,0.542
				c-0.163,0.162-1.841-0.596-2.599-0.704c-0.757-0.108-2.328-0.596-2.328-0.596s3.735,2.004,4.114,2.22
				c0.379,0.217-0.703,0.108-1.354,0c-0.649-0.108-0.92-0.163-1.515-0.163c-0.596,0-1.407,0.597-0.867,0.597
				c0.542,0,3.844,0.974,3.844,0.974s-0.704,0.379-1.245,0.109c-0.541-0.271-1.949-0.704-1.949-0.704l2.544,1.786l-3.248-0.217
				c0,0,0.867,0.108,1.732,0.217c0.866,0.108,1.299,1.082,1.299,1.082s-0.433,0.055-0.704,0.055c-0.271,0-1.19-0.108-1.19-0.108
				s0.217,0.434,1.028,0.542c0.812,0.107,0.975,0.433,0.975,0.433l-1.028,0.325c0,0-0.379,0.162,0.108,0.162
				s1.028,0.271,0.866,0.487c-0.162,0.216-0.379,0-0.542-0.055c-0.162-0.054,0.217,0.271,0.65,0.38
				c0.433,0.107-0.055,0.486-0.271,0.486c-0.217,0-1.678-1.19-1.678-1.19s0.811,1.19,1.191,1.461
				c0.379,0.271,0.703,0.433,0.703,0.433l-0.703,0.326c0,0,0.812,0.054,1.245,0.161c0.433,0.108-0.217,0.812-0.217,0.812
				l-0.433,0.054l0.433,0.379c0,0-0.487,0-1.028-0.107c-0.541-0.108-0.649-0.324-0.649-0.324s0.324,0.216,1.137,0.811
				c0.812,0.596,0.92,0.705,0.92,0.705s-0.379,0.271-0.92,0.324c-0.542,0.054-0.867-0.217-0.867-0.217s0.38,0.271,0.867,0.379
				c0.486,0.108,0.54,0.758,0.54,0.758l-0.648-0.055l0.595,0.596l-0.974,0.109l0.595,0.541c0,0-0.649,0.054-0.324,0.216
				c0.324,0.163,0.865,0.325,0.865,0.325l-0.757,0.162h-0.866l1.461,1.083l-1.299-0.054c0,0,0.325,0.27,1.137,0.433
				C103.616,93.108,104.319,94.624,104.319,94.624L104.319,94.624z"/>
			<path id="path37" fill="#010101" d="M126.896,134.564l6.349-20.209c0,0,0.99,0.757,1.747,1.281s2.329,1.164,2.155,0.932
				c-0.176-0.232-1.807-0.35-2.738-0.35s0,1.224,0.233,1.806c0.233,0.581,1.048,0.698,1.048,0.698l-0.99-0.175
				c0,0,0.059,0.874,0.583,1.631c0.524,0.758,2.388,1.107,2.388,1.107l-1.105,0.058l1.105,0.99l-2.737-1.048
				c0,0,1.224,1.515,2.563,1.572c1.339,0.058,1.223-0.117,0.873,0.291c-0.35,0.407-1.398,0.175-1.398,0.175s0.525,0.641-0.174,0.232
				c-0.699-0.407-1.281-0.291-2.33-0.115c-1.049,0.174-0.467,1.294,0.174,1.571c0.642,0.277,1.631,0.117,1.34,0.175
				c-0.291,0.059-1.455,0.699-1.455,0.699s0.465,0.523,0.932,0.582c0.465,0.059,0.873,0.233,0.873,0.233s-0.873-0.233-1.98-0.292
				c-1.106-0.058-0.523,0.467,0.233,0.699s2.679-0.35,2.679-0.35s-0.99,0.874-1.863,0.99s-1.572,0.466-1.572,0.466
				s2.096,0.583,1.456,0.583c-0.642,0-2.038-0.176-1.282,0.232c0.758,0.408,1.807,1.457,1.807,1.457s0,0-1.107-0.642
				c-1.106-0.641-2.329-0.058-2.329-0.058s0.815,0.989,1.572,1.572c0.757,0.582,1.397,0.35,1.397,0.35s-0.873,0-1.455-0.059
				c-0.583-0.058-1.631-0.407-1.631-0.407s0.523,0.815,1.863,1.397s0.99,2.446,0.758,1.689c-0.234-0.758-0.99-1.107-3.32-2.33
				c-2.33-1.224-3.436,1.281-3.436,1.281l1.746,0.699l2.389,2.213c0,0-1.748-1.514-3.146-1.806
				C127.711,134.099,126.896,134.564,126.896,134.564L126.896,134.564z"/>
			<path id="path39" fill="#010101" d="M131.555,105.27l-4.368-4.661l1.806-9.085l4.95-10.018h0.698c0,0-0.523,1.106-0.291,1.223
				c0.233,0.117,1.049,0.583,0.816,0.583c-0.233,0-0.641,0.989-0.467,1.515c0.176,0.523,2.971,0.116,2.971,0.116
				s-1.164,0.116-2.971,0.641c-1.805,0.524-1.397,0.874-0.99,1.573c0.408,0.698,0.816,0.756-0.058,0.349s-1.048,0.933-1.165,1.456
				c-0.116,0.524,2.389,1.863,2.389,1.863s-1.166-0.814-1.865-0.932c-0.697-0.115-1.164,0.059-1.105,0.758
				c0.058,0.698,3.669,2.33,3.669,2.33s-3.495-1.281-3.845-0.874s0.292,1.281,0.292,1.281s2.388,2.038,2.038,1.864
				c-0.35-0.175-1.98-0.99-2.736-0.933c-0.758,0.059,0,0,0.232,0.466c0.232,0.467,0,1.224,0.932,2.389
				c0.932,1.164,1.98,1.631,1.98,1.631s-1.748-0.583-3.262-0.758s0,1.34,0.699,2.155s2.271,1.631,2.271,1.631
				s-0.758-0.233-1.689-0.583s-0.815,0.233,0.117,1.689c0.932,1.456,1.572,1.922,0.64,1.049c-0.931-0.874-1.747-0.699-1.688,0.349
				s1.863,2.505,1.34,2.329C132.37,106.492,131.555,105.27,131.555,105.27L131.555,105.27z"/>
			<polygon id="polygon41" fill="#010101" points="121.653,93.97 123.518,95.31 121.479,95.659 			"/>
			<path id="path43" fill="#010101" d="M151.182,32l-0.523,5.358c0,0,0.699-0.699,0.757-1.281s0.815-0.932,0.815-0.932
				s-0.408,0-0.408-0.641s1.107-1.34,1.107-1.34l-0.932,0.583c0,0,0.174-1.107,0.523-1.806s1.515-0.699,1.515-0.699
				s-1.34,0-0.583-0.757c0.758-0.757,1.747-1.165,1.165-1.165s-1.339,0.35-1.339,0.35L151.182,32z"/>
			<path id="path45" fill="#010101" d="M119.73,80.516l0.758,1.34l1.922,0.641l3.961-5.009v-1.923l-0.758,0.467l0.758-1.572
				c0,0-1.689,1.922-1.922,2.562s-0.932,1.049-0.932,1.049l0.175-1.457l-0.583,1.224l0.059-1.573c0,0-0.699,2.155-0.874,3.67
				c-0.175,1.514-0.874,0.466-0.989,0.174c-0.117-0.29-0.35-1.514-0.35-1.514s-0.059,0.699-0.117,1.456S119.73,80.516,119.73,80.516
				L119.73,80.516z"/>
			<path id="path47" fill="#010101" d="M104.764,93.562l0.582,1.397l-8.969,4.718l-2.446,0.698c0,0,2.562-2.154,1.864-2.154
				s-1.281,0.641-1.281,0.641s0.059-0.524,1.34-1.34s1.456-0.989,1.456-0.989l-0.874-0.35l1.922-0.059c0,0,2.562-1.515,2.096-1.515
				c-0.465,0-2.504,1.224-2.504,1.224l0.915-1.053l0.25-0.287c0,0,1.631-0.815,2.679-0.815S104.764,93.562,104.764,93.562
				L104.764,93.562z"/>
			<path id="path49" fill="#010101" d="M86.476,109.229l-1.106,1.165l-11.416,0.698l-1.048-0.64l2.621,0.058l-0.407-0.407
				c0,0,1.165,0.174,1.63,0.174s1.98-0.232,1.98-0.232l-0.583-0.524c0,0,0.99,0.233,1.515,0.292
				c0.524,0.058,2.155,0.232,2.155,0.232l-0.757-0.99c0,0,1.281,0.758,2.33,0.699S86.476,109.229,86.476,109.229L86.476,109.229z"/>
			<path id="path51" fill="#010101" d="M55.2,114.762l1.049-1.863l29.354,5.999l1.456,0.757l-0.99,0.758l1.631,0.698
				c0,0-2.388,0-3.669,0.058c-1.282,0.059-4.368,0.059-4.368,0.059l1.048,1.34l-2.562-0.873l0.465,0.873l-2.038-0.99l-1.223-0.174
				l0.641,1.223c0,0-0.292-0.116-1.398-0.699c-1.106-0.582-1.514-0.815-1.514-0.815l0.699,1.573l-2.213-1.516l0.35,1.107
				l-2.562-2.271l0.058,0.699c0,0-0.793-0.933-1.165-1.281c-0.371-0.35-1.397-0.524-1.397-0.524l0.35,0.989
				c0,0-0.583-0.582-1.281-0.873s-1.922-1.514-1.922-1.514l0.583,1.048c0,0-0.583-0.407-1.398-0.815
				c-0.815-0.408-1.048-0.699-1.048-0.699s0.524,1.398,0.233,1.224c-0.292-0.175-1.631-2.446-1.631-2.446l0.058,0.873l-1.339-0.64
				c0,0,1.456,1.397,0.641,1.224c-0.815-0.176-1.747-1.632-1.747-1.632s0.524,0.874,0,0.641c-0.524-0.232-1.514-1.106-1.514-1.106
				l0.35,0.758c0,0-0.407-0.117-1.223-0.758C55.142,114.529,55.2,114.762,55.2,114.762L55.2,114.762z"/>
			<path id="path53" fill="#010101" d="M106.43,131.426l0.119-2.982l-1.4-1.789l-2.386-11.21c0,0,0,0-0.209,0.447
				c-0.208,0.446-0.596,1.043-0.596,1.043s0.238,0.298-0.149,0.656c-0.388,0.357-0.477,0.238-0.477,0.238l0.715,0.895l-0.328,0.269
				l0.418,0.745c0,0-0.06,0.745-1.818,1.938c-1.759,1.191-0.715,0.596-0.835,1.222c-0.119,0.626,0.447,0.239,0.447-0.149
				c0-0.387,1.849-0.327,1.849-0.327l-0.388,0.417c0,0,0.536,0.18,0.447,0.209c-0.09,0.029-1.401,1.014-1.401,1.014
				s1.729-0.477,1.64-0.418c-0.09,0.061-0.537,0.508-0.983,1.61c-0.447,1.104-0.537,1.192-0.537,1.192s0.417-0.298,0.835-0.626
				c0.417-0.328,0.536-0.149,0.029,1.282c-0.506,1.432-0.238,1.162,0.119,0.656c0.358-0.508,1.372-1.491,1.372-1.491
				s-0.119,0.895-0.478,1.997c-0.357,1.104-0.269,1.491-0.269,1.491s0.299-0.298,0.418-0.686s1.401-1.581,1.431-1.491
				c0.03,0.09-0.029,1.223-0.029,1.223s-0.238,0.626-0.806,1.252c-0.566,0.627-0.477,1.342,0.209,0.775s1.432-0.09,1.283-0.03
				c-0.149,0.06-0.985,1.192-0.806,0.954c0.179-0.238,1.401-0.299,1.401-0.299s-0.596,1.014-0.627,1.164
				c-0.029,0.148-1.192,0.596-1.192,0.596s1.192-0.06,1.104,0c-0.09,0.06-0.388,0.537-0.508,0.865
				c-0.118,0.328-0.477,0.924-0.357,0.834c0.12-0.09,0.775-0.626,0.925-0.895c0.148-0.268,1.342-0.477,1.342-0.477L106.43,131.426z"
				/>
			<path id="path55" fill="#010101" d="M126.998,160.432c0.058-0.261-6.5-12.683-6.5-12.684l-4.42-2.138l-1.676,0.694l0.722,0.577
				l0.29,0.808c0,0,0.289-0.375,0.605-0.663c0.318-0.289,0.491,0.288,0.752,0.809c0.26,0.521,0.028,0.925,0.058,0.838
				c0.028-0.087,0.491-0.491,0.751-0.491s0.462,0.318,0.404,0.636c-0.059,0.317-0.607,0.317-0.607,0.317s1.59,0.318,1.561,0.637
				c-0.029,0.317-0.086,0.26-0.174,0.289c-0.086,0.028-0.346,0.027,0.029,0.144c0.376,0.116,0.982,0.434,0.982,0.434
				s-0.578,0.288-0.462,0.347c0.116,0.058,0.376,0.028,0.896,0.23c0.52,0.203-0.375,0.348-0.664,0.203s-0.982-0.376-0.982-0.376
				s0.635,0.491,1.416,1.242c0.779,0.751,1.414,0.521,1.414,0.521s-0.605,0.375-0.75,0.375s-0.752,0-0.752,0s0.81,0.348,1.127,0.289
				c0.318-0.058,0.492-0.23,0.492-0.23l0.316,0.347c0,0,0.059,1.097,0.059,0.925c0-0.174,0.26-0.578,0.317-0.492
				c0.058,0.087,0.405,0.578,0.405,0.723s0,0.693-0.145,1.791s0.664,0.982,0.49,0.491s0.145-0.404,0.317-1.155
				c0.174-0.751,0.55,0.086,0.55,0.086l-0.116,1.127l0.521-0.578l0.23,1.763l0.115-1.387l0.694,1.502l0.028,0.81l0.81-0.059v1.531
				l0.491-0.549l0.462,1.012C127.056,161.125,126.939,160.691,126.998,160.432L126.998,160.432z"/>
			<path id="path57" fill="#010101" d="M103.917,161.047c-0.058-0.26,6.501-12.683,6.501-12.684l4.42-2.137l1.676,0.693
				l-0.723,0.577l-0.289,0.81c0,0-0.289-0.376-0.606-0.665c-0.317-0.288-0.491,0.289-0.751,0.81c-0.26,0.52-0.029,0.924-0.058,0.838
				c-0.03-0.087-0.491-0.492-0.751-0.492s-0.463,0.318-0.404,0.637c0.057,0.317,0.605,0.317,0.605,0.317s-1.588,0.317-1.56,0.636
				c0.029,0.318,0.087,0.26,0.174,0.289s0.347,0.028-0.029,0.145c-0.376,0.115-0.982,0.434-0.982,0.434s0.578,0.288,0.462,0.346
				c-0.115,0.059-0.375,0.029-0.895,0.231c-0.521,0.202,0.375,0.347,0.664,0.202s0.982-0.375,0.982-0.375s-0.636,0.49-1.416,1.242
				c-0.779,0.751-1.416,0.52-1.416,0.52s0.607,0.376,0.752,0.376s0.75,0,0.75,0s-0.809,0.347-1.126,0.289s-0.491-0.231-0.491-0.231
				l-0.318,0.347c0,0-0.057,1.098-0.057,0.925c0-0.174-0.26-0.578-0.318-0.491c-0.057,0.087-0.404,0.578-0.404,0.722
				c0,0.145,0,0.694,0.145,1.791c0.145,1.099-0.664,0.982-0.491,0.492c0.174-0.492-0.144-0.405-0.317-1.156
				s-0.549,0.087-0.549,0.087l0.115,1.127l-0.52-0.577l-0.231,1.761l-0.116-1.386l-0.693,1.502l-0.028,0.809l-0.81-0.058v1.531
				l-0.491-0.55l-0.462,1.012C103.859,161.74,103.975,161.307,103.917,161.047L103.917,161.047z"/>
			<g id="g59">
				<path id="path61" fill="#010101" d="M103.071,178.168l-9.103-0.19c0,0-2.347,0.825-2.632,0.825
					c-0.286,0-0.571,0.951-0.825,1.205c-0.254,0.253-0.825,1.617-0.634,3.045c0.19,1.427,0.856,2.062,2.379,2.822
					c1.522,0.762,0.54-0.697,0.54-0.697s0.444,0.508,2.442,1.269c1.999,0.762-0.095-1.808,0.159-1.617
					c0.253,0.19,1.015,0.666,2.062,0.539s-0.571-1.142-0.634-1.586s-0.095-0.698-0.444-1.776c-0.349-1.078,0.54-0.92,1.205-1.682
					c0.667-0.761,2.062-0.031,2.792,0.064c0.729,0.095,3.077,0.285,4.536,0.951c1.458,0.666,1.776,0.476,3.108,0
					s-2.062-1.776-2.569-1.84C104.942,179.436,103.071,178.168,103.071,178.168L103.071,178.168z"/>
			</g>
			<path id="path63" fill="#010101" d="M134.535,176.624c0,0,1.966-1.346,2.251-1.346c0.286,0,1.575,3.122,1.829,3.375
				c0.254,0.254,0.825,1.618,0.635,3.045c-0.189,1.428-1.479,2.062-3.002,2.823s-0.539-0.698-0.539-0.698s-0.445,0.508-2.442,1.269
				c-1.999,0.762,0.095-1.808-0.159-1.617s-1.014,0.666-2.062,0.539c-1.046-0.127,0.571-1.142,0.634-1.586
				c0.064-0.443,0.096-0.697,0.445-1.775c0.349-1.079-0.18-0.145-0.846-0.906c-0.666-0.761-2.422-0.808-3.151-0.713
				c-0.729,0.096-3.077,0.286-4.536,0.952c-1.459,0.667-1.775,0.476-3.108,0c-1.332-0.476,2.062-1.776,2.569-1.839
				c0.508-0.064,2.379-1.332,2.379-1.332L134.535,176.624z"/>
		</g>
	</g>
</g>
</svg>
