<?xml version="1.0" encoding="utf-8"?>
<!-- Generator: Adobe Illustrator 15.0.0, SVG Export Plug-In . SVG Version: 6.00 Build 0)  -->
<svg version="1.2" baseProfile="tiny" id="Layer_1" xmlns="http://www.w3.org/2000/svg" xmlns:xlink="http://www.w3.org/1999/xlink"
	 x="0px" y="0px" width="200px" height="200px" viewBox="0 0 200 200" overflow="inherit" xml:space="preserve">
<g>
	<g id="g10">
		<g id="Layer_1_1_">
			<g id="g13">
				<path id="path15" fill="#010101" d="M108.51,43.215c0,0-1.813-1.269-2.371-1.833c-0.557-0.564-1.678-0.57-2.237-0.853
					c-0.558-0.284-1.813-1.271-3.214-1.278c-1.402-0.007-2.81,1.668-4.075,2.36c-1.264,0.695-2.812,1.808-4.076,2.362
					c-1.262,0.553-2.246,0.968-2.807,1.105c-0.561,0.137-3.501-0.157-5.035-1.427c-1.535-1.269-1.812-1.69-2.646-2.814
					c-0.834-1.125-2.084-3.512-3.342-4.079c-1.258-0.567,0.274,1.121,0.274,1.121s-1.537-1.127-2.095-1.412
					c-0.56-0.282-1.822-0.149-3.219-0.856c-1.398-0.709-3.478-4.921-6.267-7.317c-2.789-2.397-4.451-5.487-5.291-6.192
					c-0.838-0.705-0.69-1.544-1.948-2.532c-1.255-0.988-3.764-3.241-4.604-3.666c-0.838-0.425-0.69-2.246-2.088-2.813
					c-1.395-0.568-0.836-0.705-1.812-1.55c-0.977-0.846-2.367-3.095-2.642-3.657c-0.277-0.562-1.946-2.811-3.487-2.819
					c-1.541-0.009-4.605-3.387-4.348,0.397c0.262,3.783,4.307,7.167,5.398,12.636c1.094,5.47,0.668,6.307,0.385,6.867
					c-0.283,0.559,0.696,0.705,0.842,0.145c0.143-0.559,0.974,0.986,0.974,0.986l0.849-1.396c0,0,1.957,0.991,2.232,1.552
					c0.279,0.562,0.271,1.963,0.271,1.963l1.404-0.974l1.372,5.61l0.427-1.54c0,0,1.678,0.71,1.674,1.55
					c-0.004,0.84-0.152,2.521-0.152,2.521l1.126-1.114c0,0,0.14,0.421,0.136,0.981c-0.003,0.56,0.562-0.418,0.562-0.418
					s1.387,2.67,1.24,3.929c-0.146,1.261-0.011,2.103-0.572,2.521c-0.562,0.417,1.258,0.285,1.258,0.285s3.507-0.683,3.363-0.124
					c-0.141,0.561-0.155,3.223-0.998,3.639c-0.844,0.416,0.279,0.142,1.541,0.149c1.26,0.005,5.318,0.447,5.736,0.87
					c0.418,0.422-0.979-0.145-1.967,1.11c-0.988,1.255,2.663-0.126,3.359,0.297c0.699,0.425,2.652,1.695,2.652,1.695
					s-0.981,0.275-1.547,1.393c-0.568,1.118-0.853,2.097-0.853,2.097s1.466-0.413,2.243-0.409c0.777,0.004,5.596,1.57,6.431,2.836
					c0.83,1.264,3.056,4.778,4.015,8.986s1.174,16.817,1.578,19.62c0.406,2.804-1.158,7.42-0.889,9.382s0.254,5.044,3.457,8.422
					c3.207,3.381,4.727,7.451,5.706,7.597c0.978,0.142,1.104,3.194,1.104,3.194l0.562-0.524l1.244,3.087
					c0,0-0.274-0.982,0.011-1.961c0.286-0.979,4.941-7.398,6.491-8.932c1.548-1.533,3.934-2.5,5.062-3.756
					c1.129-1.255,8.036-9.764,7.926-15.369c-0.111-5.605,0.059-11.626-1.465-14.857c-1.523-3.23-1.222-7.572-0.082-10.928
					c1.137-3.355,2.573-10.073,4.821-11.182c2.247-1.108,8.838-2.475,8.838-2.475l-1.678-0.569c0,0,3.22,0.296,4.205-0.399
					c0.985-0.695-0.134-1.262-0.134-1.262s1.681,0.15,3.789-1.1c2.109-1.25-0.838-0.424-0.838-0.424l-0.838-0.426l5.762-3.473
					l1.274-2.793l-1.261-0.007c0,0-2.391,2.088,0.007-1.263c2.399-3.347,4.237-6.421,6.071-9.213
					c1.837-2.791,5.792-8.935,5.792-8.935l8.596-9.763c0,0-1.793-5.612-4.18-4.363c-2.39,1.248-2.657-0.856-5.337,2.634
					c-2.68,3.488-7.482,10.888-10.717,13.392c-3.234,2.505-6.045,4.171-6.89,4.867c-0.845,0.696-1.815-1.129-1.815-1.129
					s0.132,1.401-1.137,3.215c-1.272,1.816-1.556,2.794-1.556,2.794l-2.801-0.294l-1.843,4.052l-2.229-2.393l-0.006,1.12
					l-1.68-0.289c0,0,1.531,2.11,0.683,3.366c-0.847,1.255-2.955,2.505-2.955,2.505l-0.688-2.106c0,0-0.287,1.12-0.854,2.238
					c-0.566,1.119-3.232,2.505-4.081,3.621C110.768,40.141,108.51,43.215,108.51,43.215z"/>
				<path id="path17_1_" fill="#010101" d="M96.82,108.57c0,0-7.179,6.408-8.163,7.103c-0.984,0.696-7.044,7.81-7.044,7.81
					s0.125,3.082,0.114,5.045c-0.01,1.959,0.4,3.644,0.4,3.644l-0.695-0.845l-0.289,1.818c0,0-1.153,6.02-1.02,7.28
					c0.135,1.261,2.641,4.357,2.635,5.198c-0.004,0.839-0.285,1.259-1.545,0.971c-1.26-0.285-5.176-1.568-5.326,0.114
					c-0.147,1.681,0.121,4.203,0.82,4.207c0.699,0.003,0.697,0.423,0.697,0.423s1.957,0.85,2.235,1.271s-0.284,0.84-0.284,0.84
					s0.971,1.404-0.008,1.543c-0.981,0.133-3.51,1.242-5.321-0.309s-2.502-3.936-2.203-7.576c0.3-3.641,2.002-7.836,2.433-9.653
					c0.43-1.819-1.66-3.931-1.64-7.993s-0.796-8.408,2.878-14.414c3.672-6.004,10.465-18.859,10.477-20.96
					C85.981,91.986,96.82,108.57,96.82,108.57z"/>
				<path id="path19" fill="#010101" d="M97.413,111.037c0,0,7.731,5.729,8.774,6.332c1.044,0.604,7.727,7.136,7.727,7.136
					s0.156,3.079,0.344,5.032c0.188,1.951-0.068,3.665-0.068,3.665l0.618-0.901l0.454,1.784c0,0,1.695,5.886,1.676,7.157
					c-0.02,1.266-2.232,4.578-2.15,5.412c0.079,0.839,0.398,1.228,1.627,0.83c1.228-0.4,5.012-2.031,5.312-0.373
					c0.299,1.662,0.263,4.199-0.434,4.266c-0.699,0.066-0.658,0.482-0.658,0.482s-1.871,1.027-2.109,1.473s0.359,0.811,0.359,0.811
					s-0.842,1.489,0.147,1.532c0.989,0.046,3.608,0.921,5.272-0.79c1.664-1.708,2.132-4.143,1.504-7.744
					c-0.629-3.599-2.705-7.621-3.299-9.394c-0.594-1.771,1.297-4.062,0.906-8.108c-0.392-4.043,0.028-8.447-4.177-14.093
					c-4.204-5.647-12.135-17.827-12.337-19.92C106.701,93.535,97.413,111.037,97.413,111.037z"/>
				<path id="path21" fill="#010101" d="M158.151,6.627c0,0,4.64-3.198,6.043-3.47c1.401-0.274,1.989-5.454,1.989-5.454
					s1.684-0.551,0.146-1.259s-3.496-1.559-4.476-1.424c-0.981,0.135-1.817-0.85-3.222-0.438c-1.402,0.413-3.08-0.155-3.226,0.823
					c-0.146,0.98-1.829,1.532-2.118,3.211c-0.291,1.681-2.552,5.731-2.552,5.731L158.151,6.627z"/>
				<path id="path23" fill="#010101" d="M46.763,9.831c0,0-8.842-6.07-10.242-6.357C35.122,3.186,34.587-2,34.587-2
					s-1.68-0.569-0.133-1.26c1.543-0.693,3.51-1.524,4.488-1.378c0.98,0.145,1.828-0.831,3.225-0.404
					c1.399,0.427,3.084-0.124,3.219,0.858c0.136,0.982,1.814,1.55,2.086,3.232c0.27,1.681,5.154,15.157,5.154,15.157L46.763,9.831z"
					/>
				<path id="path25" fill="#010101" d="M121.399,47.045c0,0,2.829-0.044,4.528-0.065c0.587-0.008,1.039-0.012,1.199-0.012
					c0.625,0.004-1.826,0.408-2.658,0.456c-0.834,0.048-2.19,0.561-2.19,0.561s0.312,0.105,0.987,0.317
					c0.677,0.212,1.923,0.792,0.518,0.68c-1.404-0.11-3.384-0.121-3.384-0.121s0.829,0.941,1.709,1.779
					c0.881,0.837-0.157,0.418-0.157,0.418s-0.521-0.158-0.988-0.265c-0.467-0.108-1.353-0.216-1.459,0.357
					c-0.107,0.573-1.098,0.463,0.668,1.722c1.765,1.26,1.14,1.256,1.14,1.256s-0.624-0.212-1.146-0.215
					c-0.52-0.002-1.093-0.266-0.576,0.831c0.515,1.096,1.652,2.561,2.901,2.879c1.248,0.32,1.61,0.948,0.726,0.682
					c-0.885-0.266-2.028-0.427-2.496-0.69c-0.467-0.262-3.326-1.32-3.174-0.434c0.149,0.887,0.25,1.617,0.977,2.142
					c0.727,0.523,1.195,0.839,0.518,0.731c-0.676-0.107-1.353-0.214-1.613-0.216c-0.262-0.002-1.254,0.513-0.579,1.09
					c0.674,0.576,1.608,1.05,1.608,1.05s0.051,0.417-0.572,0.206c-0.625-0.212-1.145-0.424-0.73,0.203
					c0.413,0.627,1.246,0.632,0.93,1.412c-0.316,0.78-0.944,1.453-1.156,2.078c-0.211,0.623-0.889,0.723-0.271,2.029
					c0.619,1.307,0.722,1.568,1.394,2.404c0.673,0.836,0.672,1.045,1.295,1.36c0.623,0.317,1.035,1.203-0.107,0.677
					c-1.143-0.526-2.133-0.531-1.355,0.253c0.777,0.786,0.307,1.2-0.008,1.304c-0.312,0.103-1.25,0.307,0.197,2.294
					c1.447,1.987,2.072,2.042,1.447,2.091c-0.625,0.047-0.785,0.724-0.162,1.091c0.623,0.368,0.93,1.152,0.359,1.148
					c-0.573-0.003-1.627,2.127-0.594,4.007c1.031,1.881,1.338,2.976,0.51,2.034c-0.828-0.941-1.344-1.934-1.506-1.049
					c-0.16,0.884-0.418,0.467,0.203,1.251c0.62,0.785,1.344,1.673,0.514,1.356c-0.832-0.317-1.144-0.371-0.941,0.724
					c0.203,1.094,0.771,1.931-0.061,1.562s-1.564,0.512-0.795,2.652c0.771,2.138,1.803,3.966,0.559,2.814
					c-1.244-1.152-1.654-2.091-2.337-1.107c-0.685,0.986-0.58,1.456-1.205,1.193c-0.624-0.265-0.937-0.318-1.562-0.165
					c-0.627,0.153-0.783,0.152-0.783,0.152l3.507-23.367l-1.737-6.622l0.598-4.79l2.657-10.09c0,0,2.733-4.517,2.89-4.568
					C119.789,46.464,121.399,47.045,121.399,47.045L121.399,47.045z"/>
				<path id="path27" fill="#010101" d="M78.311,53.023c0,0-2.863-1.278-2.985-0.02c-0.121,1.262-0.689,0.111,1.141,1.269
					c1.832,1.159,2.408,1.046,2.059,1.849c-0.348,0.803-0.925,1.028,0.34,1.035c1.264,0.007,2.178,1.161,1.717,1.387
					c-0.461,0.227-1.147-0.122-1.158,2.061c-0.013,2.182-0.472,2.293,0.797,1.039c1.27-1.258,1.388-1.6,1.381-0.453
					c-0.006,1.147-0.359,2.754-0.477,3.328c-0.119,0.572,0.918-0.111,1.379-0.222c0.459-0.113,2.295-0.104,0.565,1.494
					c-1.731,1.599-1.961,1.829-1.966,2.975c-0.008,1.15-0.818,2.409,0.336,1.266c1.154-1.142,1.391-2.06,1.611-1.14
					c0.228,0.921,0.683,1.726-0.129,3.216c-0.812,1.489-0.811,1.259-0.814,2.178c-0.005,0.917-1.041,1.14-0.005,0.917
					c1.034-0.223,1.961-2.401,1.146,0.465c-0.822,2.868-3.475,4.805-1.746,4.471c1.726-0.337,2.187-0.794,2.182,0.011
					c-0.006,0.805-0.815,2.178-0.819,2.867c-0.003,0.688-1.037,0.682-0.003,0.688c1.032,0.005,1.486,0.925,1.482,1.5
					c-0.002,0.574,0.223,1.493-0.01,2.066c-0.232,0.574-1.629,4.012-0.365,3.558c1.268-0.452,0.22,2.183,0.22,2.183l2.187-0.676
					l1.065-28.243l-5.685-10.823L78.311,53.023L78.311,53.023z"/>
			</g>
		</g>
	</g>
</g>
</svg>
