<?xml version="1.0" encoding="utf-8"?>
<!-- Generator: Adobe Illustrator 15.0.0, SVG Export Plug-In . SVG Version: 6.00 Build 0)  -->
<svg version="1.2" baseProfile="tiny" id="Layer_1" xmlns="http://www.w3.org/2000/svg" xmlns:xlink="http://www.w3.org/1999/xlink"
	 x="0px" y="0px" width="200px" height="200px" viewBox="0 0 200 200" overflow="inherit" xml:space="preserve">
<g>
	<g id="Layer_3_7_">
		<path id="path5_7_" fill="#010101" d="M109.034,72.666c-0.052,0.069-0.139,0.104-0.259,0.104c-0.108,0-0.396-0.082-0.86-0.246
			c0.059,0.04,0.091,0.074,0.098,0.104l-0.014,0.013c0.076,0.052,0.134,0.098,0.176,0.135c0.11,0.063,0.293,0.168,0.549,0.317
			c-0.018,0.061-0.043,0.09-0.078,0.09c-0.104-0.06-0.197-0.112-0.284-0.155c-0.116-0.059-0.224-0.095-0.323-0.11
			c0.053,0.04,0.109,0.081,0.168,0.123c0.25,0.175,0.54,0.373,0.873,0.595c-0.199-0.126-0.49-0.307-0.873-0.543
			c-0.094-0.059-0.186-0.115-0.271-0.168v0.006c0.021,0.016,0.043,0.031,0.064,0.045c0.069,0.06,0.135,0.116,0.195,0.168
			c0.197,0.129,0.297,0.216,0.297,0.259l-0.014,0.013c0.018,0.018,0.026,0.039,0.026,0.065c0.12,0.095,0.181,0.172,0.181,0.232
			c0,0.026-0.004,0.039-0.013,0.039c-0.034-0.009-0.077-0.026-0.13-0.052c0.035,0.026,0.061,0.056,0.078,0.09
			c0.096,0.121,0.139,0.215,0.129,0.285c-0.01,0.021-0.021,0.039-0.032,0.052c0.232,0.308,0.381,0.489,0.446,0.543
			c-0.008,0.01-0.017,0.018-0.025,0.025c0.227,0.245,0.455,0.473,0.686,0.686c-0.262-0.172-0.521-0.376-0.775-0.615
			c-0.005,0.003-0.009,0.006-0.014,0.007c-0.035-0.017-0.121-0.095-0.259-0.233c-0.008-0.007-0.017-0.014-0.026-0.02
			c0.014,0.06,0.027,0.122,0.039,0.188c0.086,0.345,0.237,0.633,0.453,0.866c-0.216-0.138-0.379-0.384-0.492-0.737
			c-0.055-0.167-0.102-0.308-0.142-0.427c-0.035-0.024-0.071-0.046-0.11-0.064c0.025,0.132,0.043,0.255,0.053,0.368
			c0.242,0.403,0.391,0.69,0.445,0.86l-0.025,0.025c0.119,0.15,0.248,0.314,0.387,0.492c-0.008,0.043-0.068,0.064-0.18,0.064
			c-0.082,0-0.194-0.06-0.337-0.181c0.187,0.379,0.341,0.633,0.466,0.763c-0.217-0.148-0.42-0.374-0.607-0.679l-0.078,0.162
			l-0.09-0.013c-0.009-0.172-0.07-0.375-0.182-0.608c-0.018,0.009-0.034,0.022-0.051,0.039c0.062,0.158,0.111,0.311,0.148,0.459
			c0.139,0.228,0.246,0.437,0.322,0.627c0.252,0.434,0.409,0.688,0.473,0.763l-0.014,0.026c-0.084-0.088-0.206-0.258-0.368-0.511
			c0.03,0.123,0.046,0.237,0.046,0.342c0,0.086-0.014,0.143-0.039,0.168l-0.064,0.025c-0.01-0.037-0.02-0.073-0.033-0.11
			c0.011,0.05,0.013,0.091,0.007,0.124c-0.008,0.028-0.015,0.053-0.02,0.077c0.212,0.285,0.417,0.54,0.614,0.763
			c-0.008,0.034-0.034,0.064-0.077,0.09c-0.24-0.148-0.494-0.354-0.763-0.614c-0.008-0.002-0.014-0.005-0.02-0.006
			c0.303,0.316,0.594,0.565,0.873,0.75c0.008,0.025-0.039,0.039-0.143,0.039c-0.061,0-0.121-0.011-0.182-0.032
			c0.14,0.158,0.291,0.328,0.453,0.51c-0.328-0.204-0.68-0.469-1.054-0.795c0.051,0.1,0.106,0.205,0.167,0.317l0.33,0.388
			c-0.007,0.072-0.02,0.12-0.039,0.143c0.046,0.082,0.089,0.162,0.131,0.238c0.09,0.098,0.176,0.186,0.258,0.266l-0.013,0.025
			c-0.044-0.031-0.094-0.069-0.149-0.116c0.031,0.056,0.062,0.109,0.091,0.161c0.034,0.028,0.06,0.048,0.071,0.059l-0.013,0.026
			l-0.013-0.007c0.082,0.142,0.16,0.273,0.232,0.395c-0.137-0.105-0.298-0.291-0.484-0.557c-0.07-0.041-0.14-0.085-0.207-0.129
			c-0.039,0.018-0.089,0.035-0.149,0.052c-0.06,0.018-0.116,0.03-0.168,0.039c0.083,0.096,0.132,0.169,0.149,0.22
			c0.037,0.049,0.076,0.097,0.115,0.143c0.117,0.062,0.236,0.119,0.355,0.168c0.01,0.018-0.038,0.025-0.142,0.025
			c-0.017,0-0.034,0-0.052,0c0.097,0.106,0.191,0.201,0.284,0.285c0.013,0.004,0.025,0.008,0.039,0.013
			c-0.011-0.002-0.021-0.004-0.032-0.007c0.035,0.032,0.07,0.062,0.104,0.091c0.146,0.047,0.295,0.088,0.445,0.123
			c-0.181,0.017-0.327,0.025-0.439,0.025c-0.027,0-0.055-0.002-0.084-0.007c0.266,0.311,0.463,0.516,0.588,0.615
			c-0.053-0.025-0.107-0.052-0.161-0.078c0.024,0.013,0.048,0.025,0.071,0.039l0.014,0.051c-0.503-0.119-0.889-0.335-1.158-0.646
			c-0.025,0.019-0.049,0.033-0.07,0.045c0.027,0.038,0.053,0.075,0.077,0.11c0.077,0.101,0.155,0.199,0.239,0.297
			c0.053,0.024,0.102,0.046,0.148,0.064c-0.029,0-0.062-0.002-0.098-0.006c0.164,0.182,0.34,0.352,0.524,0.51
			c0.31,0.026,0.47,0.053,0.479,0.078l-0.026,0.013h-0.49c-0.018-0.011-0.035-0.021-0.053-0.032
			c0.151,0.122,0.275,0.215,0.375,0.278c0.009,0.034-0.043,0.052-0.154,0.052c-0.13,0-0.346-0.129-0.646-0.389
			c-0.207-0.18-0.358-0.327-0.453-0.439h-0.006c0.06,0.098,0.122,0.202,0.188,0.311c0.292,0.448,0.604,0.807,0.931,1.073
			l-0.013,0.039c-0.303-0.173-0.561-0.419-0.776-0.737c-0.149-0.221-0.271-0.396-0.362-0.523l0.084,0.277
			c0.258,0.295,0.549,0.632,0.873,1.01l-0.014,0.038l-0.381-0.388c-0.016,0.049-0.031,0.099-0.045,0.148
			c0.224,0.317,0.461,0.609,0.711,0.873c-0.204-0.146-0.451-0.398-0.744-0.756c-0.027,0.099-0.051,0.193-0.07,0.283
			c0.003,0.01,0.006,0.02,0.006,0.027c0.438,0.508,0.768,0.833,0.99,0.976c-0.225-0.122-0.539-0.405-0.945-0.847
			c0.047,0.14,0.098,0.274,0.15,0.406c0.044,0.034,0.094,0.061,0.148,0.078c-0.01,0.046-0.037,0.078-0.078,0.098
			c0.223,0.512,0.49,0.94,0.802,1.286c-0.485-0.396-0.864-0.911-1.138-1.546c-0.006,0.109-0.002,0.207,0.013,0.292
			c0.015,0.05,0.038,0.191,0.071,0.426c0.228,0.419,0.471,0.829,0.73,1.229c-0.212-0.202-0.438-0.495-0.68-0.879
			c0.065,0.481,0.154,1.185,0.266,2.108c0.259,0.5,0.548,1.06,0.867,1.68c0.24,1.096,0.525,2.384,0.853,3.867
			c0.092,0.486,0.187,0.996,0.284,1.525l-0.193,1.797c-0.025,0.086-0.043,0.173-0.052,0.259c-0.241,1.741-0.413,2.827-0.517,3.259
			c-0.018,0.043-0.031,0.104-0.039,0.182c-0.025,0.086-0.039,0.168-0.039,0.245c-0.018,0.259-0.03,0.521-0.039,0.788
			c-0.104,1.44-0.375,3.466-0.814,6.078c0.009,0.077,0.021,0.158,0.039,0.245h-0.078c-0.018,0.034-0.025,0.069-0.025,0.104
			c0.025,0.069,0.047,0.173,0.064,0.311c0.034,0.232,0.052,0.375,0.052,0.427l0.013,0.09l-0.025,0.025
			c-0.018-0.016-0.025-0.033-0.025-0.051c0.008-0.121-0.027-0.336-0.104-0.646c-0.01,0.069-0.021,0.138-0.039,0.207
			c0.008,0.052,0.017,0.095,0.025,0.129l-0.014,0.361h-0.038c0-0.059-0.005-0.137-0.013-0.232c-0.025,0.146-0.057,0.303-0.091,0.466
			c0.018,0.146,0.013,0.259-0.013,0.337h-0.039c0.026-0.053,0.035-0.112,0.026-0.182c-0.009,0.069-0.026,0.134-0.052,0.194
			c0.068,0.241,0.104,0.439,0.104,0.595c-0.009,0.068-0.021,0.116-0.039,0.143l-0.129,0.013c-0.025,0-0.048,0-0.064,0l-0.014,0.013
			c0.053,0.155,0.078,0.268,0.078,0.336c-0.01,0.043-0.035,0.086-0.078,0.129c-0.043,0.053-0.064,0.108-0.064,0.169
			c-0.009,0.095,0.004,0.297,0.039,0.607c-0.009,0.095-0.026,0.159-0.053,0.194h-0.012c-0.018-0.078-0.031-0.15-0.039-0.221
			c-0.009,0.061-0.014,0.104-0.014,0.13c-0.008,0.026-0.025,0.044-0.051,0.052c0,0.225-0.018,0.486-0.053,0.789
			c0.07,0.284,0.104,0.512,0.104,0.685c0,0.018-0.008,0.044-0.025,0.078h0.013l-0.025,0.064h-0.013
			c-0.018,0.044-0.039,0.082-0.065,0.116c-0.009,0-0.021,0-0.038,0c-0.01,0.139-0.021,0.367-0.039,0.686
			c0.034,0.164,0.064,0.306,0.09,0.427c0.035,0.138,0.053,0.229,0.053,0.272c-0.018,0.051-0.031,0.086-0.039,0.103h-0.039
			c-0.018-0.146-0.025-0.272-0.025-0.375c-0.01-0.069-0.018-0.134-0.026-0.194c0-0.051-0.005-0.099-0.013-0.142
			c-0.009,0.103-0.018,0.215-0.025,0.336c0,0.052-0.005,0.108-0.014,0.168c0,0.018,0.005,0.039,0.014,0.065
			c0.016,0.094,0.051,0.228,0.103,0.4h-0.025c-0.026-0.078-0.056-0.194-0.091-0.35c-0.018,0.111-0.035,0.237-0.052,0.375
			c0.017,0.104,0.044,0.242,0.077,0.414l-0.038-0.014c-0.009-0.043-0.026-0.142-0.052-0.297c-0.009,0.018-0.014,0.035-0.014,0.052
			c0.018,0.173,0.039,0.375,0.065,0.608h-0.026c-0.018-0.044-0.034-0.19-0.051-0.439c-0.018,0.129-0.039,0.267-0.065,0.413
			c0.061,0.224,0.091,0.357,0.091,0.401h-0.025c-0.035-0.113-0.057-0.217-0.065-0.311c-0.025,0.121-0.043,0.245-0.052,0.375
			c0.018,0.181,0.047,0.318,0.091,0.413h-0.026c-0.018-0.034-0.047-0.138-0.09-0.31c-0.018,0.104-0.031,0.207-0.039,0.31
			c0.008,0.104,0.018,0.177,0.025,0.22l-0.025,0.014c-0.008-0.018-0.021-0.039-0.039-0.064c-0.008,0.051-0.012,0.107-0.012,0.168
			c0.017,0.104,0.021,0.193,0.012,0.271c0,0.033-0.004,0.06-0.012,0.077c-0.01,0.009-0.022,0.018-0.039,0.026
			c-0.01-0.009-0.014-0.018-0.014-0.026c-0.009,0.026-0.013,0.048-0.013,0.065c-0.017,0.129-0.017,0.258,0,0.387
			c0,0.018-0.005,0.035-0.013,0.052c0.121,0.198,0.215,0.44,0.284,0.725c0.06,0.173,0.099,0.418,0.116,0.737
			c0.052,0.414,0.082,0.646,0.091,0.698c0.043,0.259,0.064,0.56,0.064,0.905c0.017,0.086,0.039,0.176,0.064,0.271
			c0.164,0.724,0.233,1.564,0.208,2.521c-0.018,0.568-0.096,1.426-0.233,2.572c-0.155,1.319-0.306,2.237-0.453,2.754
			c-0.12,0.414-0.284,0.846-0.491,1.293c-0.225,0.561-0.521,1.143-0.893,1.746c-0.163,0.275-0.344,0.561-0.543,0.854
			c0,0.026,0,0.052,0,0.078c-0.025,0.725-0.383,1.12-1.072,1.189l-1.01,0.013c-0.758,0.25-1.827,0.375-3.206,0.375
			c-0.396,0-0.776-0.013-1.138-0.039c-0.181,0.112-0.448,0.169-0.802,0.169c-0.362,0-0.715-0.182-1.06-0.544
			c-0.379-0.129-0.72-0.288-1.021-0.479h-0.013c-0.577-0.37-1.003-0.854-1.28-1.448c-0.233-0.5-0.349-1.064-0.349-1.693
			c0.009-0.078,0.013-0.151,0.013-0.221c0.026-0.121,0.043-0.224,0.052-0.311c-0.069-0.137-0.138-0.275-0.207-0.413
			c-0.785-1.681-1.228-3.392-1.332-5.134c-0.508-0.888-0.982-2.004-1.422-3.349c-0.302-0.966-0.474-2.073-0.517-3.323
			c-0.078-0.664-0.06-1.393,0.052-2.186c0.06-0.344,0.078-0.607,0.052-0.789c-0.026-0.129-0.031-0.275-0.013-0.438
			c0.009-0.112,0.026-0.233,0.052-0.362c0.06-0.38,0.142-0.823,0.246-1.332c0-0.061-0.004-0.116-0.013-0.168l-0.207-1.682
			c-0.034,0.225-0.052,0.389-0.052,0.492h-0.039c-0.009-0.009-0.018-0.009-0.026,0v-0.078c-0.009-0.111,0.017-0.375,0.078-0.789
			l-0.129-1.189c-0.043,0.086-0.09,0.15-0.142,0.194v-0.013c-0.026-0.173-0.039-0.371-0.039-0.596c0-0.008-0.004-0.017-0.013-0.025
			c0-0.009,0-0.039,0-0.09c0-0.01,0.034-0.021,0.104-0.039c-0.009-0.009-0.018-0.021-0.026-0.039
			c0.061-0.129,0.151-0.293,0.271-0.491h-0.012c0.051-0.164,0.142-0.362,0.271-0.595l0.065-0.194c0.008-0.06,0.008-0.124,0-0.194
			c0-0.025,0.004-0.056,0.013-0.09c-0.138,0.284-0.258,0.457-0.362,0.518c0.104-0.233,0.181-0.428,0.232-0.582
			c-0.069,0.104-0.138,0.186-0.207,0.245l-0.025-0.026c0.104-0.154,0.207-0.326,0.311-0.517c-0.026-0.163-0.044-0.327-0.052-0.491
			c-0.026-0.293-0.047-0.586-0.065-0.879c0.086-1.069,0.134-1.625,0.142-1.668h-0.039c0-0.061,0.004-0.117,0.013-0.168
			c-0.035-0.475-0.048-0.953-0.04-1.436c-0.008-0.008-0.012-0.021-0.012-0.039v0.039c-0.802-0.216-1.225-0.672-1.268-1.371
			c-0.052,0.018-0.107,0.025-0.168,0.025c-0.095,0-0.16-0.047-0.194-0.142l0.026-0.129c0.043-0.208,0.146-0.311,0.31-0.311
			c0.104-0.621,0.513-1.414,1.229-2.379c1.12-1.552,1.991-2.69,2.612-3.414c0.086-0.12,0.155-0.229,0.207-0.323
			c0.146-0.215,0.291-0.413,0.433-0.595h0.006c0.302-0.405,0.607-0.729,0.918-0.97c0.129-0.146,0.258-0.293,0.388-0.439
			c0.354-0.346,0.651-0.651,0.892-0.918c0.069-0.07,0.129-0.139,0.181-0.207c0.13-0.191,0.251-0.354,0.362-0.492
			c0.06-0.068,0.207-0.293,0.44-0.672c0.134-0.143,0.276-0.218,0.427-0.227c0.125-0.116,0.255-0.227,0.388-0.329
			c0.233-0.182,0.427-0.302,0.582-0.362c0.034-0.052,0.064-0.104,0.091-0.155c-0.009-0.044-0.013-0.091-0.013-0.143
			c-0.069-0.37-0.147-0.646-0.233-0.827c-0.034-0.354-0.086-0.595-0.155-0.725c-0.086-0.12-0.25-0.529-0.491-1.229
			c-4.112-0.104-6.052-0.465-5.819-1.086c-0.181-0.197-0.418-0.706-0.711-1.525c-0.051-0.146-0.095-0.311-0.129-0.491
			c-0.061-0.095-0.108-0.186-0.142-0.271c-0.026-0.052-0.047-0.159-0.065-0.323c0.035-0.104,0.099-0.16,0.194-0.168
			c0.112,0,0.216,0.008,0.311,0.025c-0.112-0.121-0.173-0.211-0.181-0.271c-0.018-0.025-0.043-0.086-0.078-0.181
			c-0.052-0.095-0.069-0.151-0.052-0.169c0.018-0.025,0.194-0.206,0.53-0.542c0.328-0.354,0.616-0.561,0.867-0.621
			c0.181-0.138,0.379-0.271,0.594-0.401c-0.129-0.034-0.159-0.211-0.09-0.53c0.086-0.319,0.556-1,1.41-2.043
			c0.043-0.103,0.086-0.215,0.129-0.336c-0.164-0.517-0.263-0.952-0.297-1.306h0.013c-0.034-0.267,0.069-0.47,0.31-0.607
			c0.25-0.146,0.548-0.242,0.892-0.285c0.345-0.035,0.569-0.125,0.673-0.272c0.084-0.119,0.258-0.296,0.523-0.53
			c0.086-0.387,0.817-0.846,2.192-1.377v-0.006c0-0.125,0.299-0.228,0.898-0.311c0.017-0.007,0.033-0.014,0.052-0.02
			c0.198-0.088,0.396-0.138,0.595-0.148c0.285-0.054,0.501-0.058,0.646-0.013c0.05-0.014,0.099-0.027,0.149-0.039
			c0-0.034,0.004-0.022,0.012,0.039c0,0.008,0,0.017,0,0.026c0.495-0.097,1.111-0.158,1.85-0.182
			c0.621,0.155,0.971,0.25,1.047,0.284c0.146,0.064,0.242,0.148,0.292,0.253c0.29,0.022,0.556,0.038,0.794,0.045l0.065,0.065
			c0.028-0.001,0.06-0.001,0.091,0l0.064,0.103c0.052,0.06,0.021,0.091-0.09,0.091c-0.078,0-0.197-0.009-0.355-0.026h-0.162
			c0.061,0.017,0.121,0.039,0.181,0.065c0.706,0.065,1.14,0.201,1.3,0.407c0.285,0.066,0.504,0.163,0.652,0.291
			c0,0.026-0.021,0.052-0.064,0.078c-0.123-0.039-0.295-0.083-0.518-0.129c-0.006,0.039-0.023,0.073-0.051,0.104
			c0.35,0.12,0.669,0.253,0.957,0.401l0.012,0.039c0.012,0.01,0.018,0.019,0.02,0.025c0.018,0.006,0.033,0.01,0.046,0.013
			L109.034,72.666z M107.98,72.879l0.013-0.006c-0.017-0.007-0.034-0.016-0.052-0.026C107.954,72.858,107.967,72.87,107.98,72.879z
			 M108.245,74.192c0,0.014,0,0.026,0,0.038c0.018,0.029,0.035,0.056,0.053,0.084c-0.012-0.041-0.023-0.082-0.039-0.123h0.013
			c0-0.009-0.005-0.018-0.013-0.026c0,0.009,0,0.018,0,0.026H108.245z M108.361,73.533c-0.005-0.014-0.013-0.027-0.025-0.039
			c-0.087-0.078-0.173-0.151-0.259-0.221l-0.014-0.006C108.183,73.362,108.282,73.45,108.361,73.533z M108.465,74.205
			c0.003,0.003,0.005,0.008,0.007,0.013h0.006C108.476,74.212,108.47,74.208,108.465,74.205z M108.782,75.362
			c-0.031-0.051-0.063-0.109-0.098-0.175c-0.001,0.015-0.004,0.03-0.006,0.045C108.712,75.274,108.747,75.317,108.782,75.362z
			 M108.097,75.175h-0.006c0.017,0.026,0.025,0.052,0.025,0.077c0.008-0.008,0.013-0.017,0.013-0.025v-0.013
			C108.118,75.2,108.106,75.187,108.097,75.175z M108.452,77.799v-0.006c-0.018-0.017-0.035-0.034-0.052-0.052
			C108.418,77.761,108.435,77.781,108.452,77.799z M108.142,79.119c0.027,0.013,0.056,0.025,0.084,0.038
			c-0.035-0.022-0.068-0.044-0.104-0.064C108.129,79.102,108.136,79.109,108.142,79.119z M108.749,79.268
			c-0.029,0.003-0.063,0.005-0.104,0.006c0.086,0.069,0.162,0.132,0.232,0.188C108.836,79.4,108.792,79.335,108.749,79.268z
			 M108.446,80.457c-0.044-0.019-0.086-0.038-0.13-0.059c0.017,0.027,0.034,0.057,0.052,0.084c0.031,0.003,0.062,0.005,0.091,0.007
			C108.454,80.479,108.449,80.468,108.446,80.457z M108.349,80.806c-0.025,0.005-0.049,0.009-0.07,0.013
			c0.061,0.039,0.119,0.076,0.174,0.11C108.419,80.889,108.385,80.848,108.349,80.806z M108.646,81.143
			c-0.018-0.005-0.035-0.01-0.051-0.014c0.104,0.096,0.203,0.185,0.297,0.266C108.813,81.318,108.731,81.234,108.646,81.143z
			 M108.562,81.95c0.027,0.077,0.07,0.147,0.13,0.213c0.065,0.069,0.151,0.132,0.259,0.188L108.562,81.95z M109.04,80.45
			c-0.012-0.002-0.021-0.005-0.031-0.006c0.005,0.007,0.012,0.013,0.02,0.019c0.023,0.011,0.051,0.021,0.076,0.033
			C109.083,80.479,109.062,80.465,109.04,80.45z M102.782,70.662l0.007-0.012h-0.033c0.008,0.003,0.014,0.007,0.02,0.012H102.782z
			 M108.763,111.846v-0.026c-0.018-0.009-0.03-0.017-0.039-0.026c0.009-0.043,0.014-0.12,0.014-0.232
			c-0.018,0.096-0.031,0.189-0.039,0.285C108.724,111.846,108.745,111.846,108.763,111.846z M108.775,111.651l0.013-0.142
			c-0.018-0.086-0.029-0.182-0.039-0.285c-0.008,0.104-0.013,0.211-0.013,0.323C108.745,111.582,108.759,111.617,108.775,111.651z
			 M108.931,109.246c0.052-0.068,0.073-0.112,0.064-0.129c0-0.035-0.004-0.064-0.013-0.091
			C108.966,109.096,108.948,109.168,108.931,109.246z M109.048,108.651c0.016,0.018,0.033,0.034,0.051,0.052
			c0.035-0.008,0.061-0.021,0.078-0.039v-0.013c-0.01-0.104-0.025-0.237-0.053-0.4C109.091,108.38,109.063,108.514,109.048,108.651z
			 M109.435,106.375c0,0.01,0,0.021,0,0.039c0.009,0.018,0.018,0.031,0.025,0.039v-0.039
			C109.452,106.396,109.443,106.385,109.435,106.375z"/>
	</g>
	<g id="Layer_4_7_">
		<path id="path8_6_" fill="#010101" d="M94.94,174.222c-0.043,0.069-0.082,0.116-0.116,0.143c0.043-0.009,0.068-0.022,0.077-0.04
			l0.026-0.025c0.017,0,0.026-0.004,0.026-0.013c0.017-0.017,0.039-0.038,0.064-0.064H94.94z M93.84,175.127
			c0-0.009-0.012,0-0.039,0.025c-0.181,0.035-0.357,0.069-0.53,0.104c0,0.043,0,0.073,0,0.091c0,0.043-0.039,0.081-0.116,0.116
			l-0.285,0.078c0.025,0,0.052,0.004,0.078,0.013c0.207-0.069,0.418-0.159,0.633-0.272C93.677,175.248,93.763,175.195,93.84,175.127
			z M100.164,173.73v0.013c0.015,0,0.026,0.007,0.032,0.02C100.19,173.748,100.179,173.738,100.164,173.73z M101.34,171.57
			c0,0.01-0.004,0.021-0.013,0.039c0.052,0.061,0.104,0.125,0.155,0.193C101.448,171.727,101.4,171.648,101.34,171.57z
			 M100.94,170.484c-0.018-0.129-0.052-0.245-0.104-0.349c-0.017,0-0.026,0.009-0.026,0.026
			C100.854,170.256,100.897,170.364,100.94,170.484z M101.87,167.434c0-0.009-0.018-0.057-0.052-0.143
			c-0.017,0.051-0.043,0.111-0.077,0.181c0,0.026-0.014,0.056-0.039,0.091c0.086,0.215,0.198,0.448,0.336,0.698l0.013-0.026
			C101.957,167.787,101.896,167.52,101.87,167.434L101.87,167.434z M95.871,170.848c0-0.018,0.004-0.027,0.013-0.027
			c0.008-0.025,0.013-0.047,0.013-0.064c-0.026,0.026-0.039,0.052-0.039,0.078L95.871,170.848z M95.974,167.691l0.013-0.245
			c-0.061,0.173-0.116,0.327-0.168,0.466C95.879,167.843,95.931,167.77,95.974,167.691L95.974,167.691z M102.736,164.68
			c0.009,0.043,0.021,0.068,0.039,0.076c-0.009-0.051,0.004-0.099,0.039-0.142C102.779,164.632,102.754,164.653,102.736,164.68z
			 M103.629,147.068c-0.018,0.043-0.034,0.086-0.052,0.129c0.086,0.154,0.177,0.34,0.271,0.556c-0.043-0.146-0.1-0.315-0.168-0.505
			C103.672,147.197,103.654,147.137,103.629,147.068L103.629,147.068z M93.091,143.822c0-0.009-0.005-0.018-0.013-0.026
			c-0.051,0.173-0.086,0.371-0.103,0.595C93,144.184,93.039,143.994,93.091,143.822z M93.129,144.081
			c-0.008,0.009-0.017,0.03-0.026,0.065l0.039-0.014C93.134,144.107,93.129,144.09,93.129,144.081z M104.094,145.606
			c-0.033-0.025-0.051-0.047-0.052-0.065c0,0.035,0.005,0.057,0.014,0.065c0.018,0.069,0.064,0.164,0.143,0.285
			C104.163,145.805,104.129,145.711,104.094,145.606z M104.521,145.658c-0.018,0.043-0.03,0.078-0.039,0.104l0.104,0.22
			C104.568,145.869,104.547,145.762,104.521,145.658z M104.754,143.848c-0.009-0.025-0.013-0.047-0.013-0.064
			c-0.009,0.009-0.018,0.018-0.026,0.025C104.724,143.826,104.737,143.84,104.754,143.848z M104.353,145.076
			c-0.025-0.043-0.051-0.077-0.077-0.104c-0.026,0.052-0.06,0.113-0.104,0.182l0.168,0.258
			C104.323,145.318,104.327,145.205,104.353,145.076L104.353,145.076z M104.986,143.641c0.009,0.25,0.013,0.467,0.013,0.647
			l0.026,0.013c0.025-0.182,0.03-0.371,0.013-0.569C105.004,143.706,104.986,143.676,104.986,143.641L104.986,143.641z
			 M104.974,143.021c-0.026,0.026-0.03,0.048-0.013,0.064c0.009,0.018,0.021,0.039,0.038,0.065
			C104.991,143.098,104.982,143.055,104.974,143.021z M100.267,120.03c0.983-0.569,2.047-0.888,3.194-0.957
			c1.025-0.06,1.901,0.087,2.625,0.44c0.733,0.354,1.091,0.783,1.073,1.293c-0.018,0.061-0.061,0.115-0.129,0.168
			c0.215,0.534,0.301,1.258,0.258,2.172l-0.064,0.529c0.104,0.897,0.138,1.686,0.104,2.367c-0.086,1.689-0.254,3.638-0.504,5.844
			c-0.164,1.25-0.439,3.221-0.828,5.91c-0.043,0.301-0.09,0.596-0.143,0.879c0.139,0.362,0.221,0.611,0.246,0.75
			c0.086,0.361,0.064,0.611-0.064,0.75c0,0.121-0.018,0.241-0.052,0.361c0-0.033-0.009-0.056-0.026-0.064l-0.115-0.518
			c0.008,0.087,0.025,0.203,0.051,0.35c-0.043,0-0.086,0-0.129,0c-0.052-0.094-0.096-0.193-0.129-0.297
			c-0.018,0.061-0.026,0.125-0.026,0.193c0.104,0.225,0.181,0.405,0.233,0.544c0.077,0.224,0.12,0.392,0.129,0.504l-0.117,0.026
			l-0.012-0.039c-0.018-0.025-0.035-0.052-0.053-0.078c0.009,0.044,0.014,0.096,0.014,0.156l0.013,0.012
			c0.009,0.035,0.038,0.143,0.091,0.324c0.018,0.138,0.033,0.241,0.051,0.311c-0.076-0.061-0.133-0.134-0.168-0.221l-0.012,0.014
			c-0.044,0.017-0.078,0.013-0.104-0.014c-0.018-0.078-0.035-0.202-0.053-0.375c-0.025-0.103-0.034-0.198-0.025-0.285l-0.104-0.231
			c-0.018,0.129-0.047,0.245-0.09,0.349c0.033,0.026,0.055,0.061,0.064,0.104c0.232,0.621,0.365,0.982,0.4,1.086
			c-0.069-0.146-0.168-0.357-0.297-0.633c-0.044-0.086-0.092-0.164-0.143-0.232c0.018,0.061,0.029,0.116,0.039,0.168
			c0.104,0.163,0.197,0.361,0.283,0.594c0.044,0.13,0.121,0.385,0.233,0.764l-0.077,0.013c-0.096-0.216-0.221-0.474-0.375-0.776
			c0.008,0.035,0.013,0.065,0.013,0.091l-0.013-0.038c-0.061-0.052-0.096-0.134-0.104-0.246c-0.025-0.052-0.053-0.1-0.078-0.143
			c0.009,0.061,0.025,0.139,0.053,0.232c0,0.01-0.006,0.022-0.014,0.039c0.129,0.225,0.279,0.535,0.453,0.932
			c0.111,0.268,0.193,0.53,0.245,0.789h-0.064c-0.173-0.303-0.354-0.674-0.544-1.112c0.01,0.077,0.014,0.146,0.014,0.206
			c-0.025,0-0.047-0.021-0.064-0.064l-0.117-0.322c-0.025-0.121-0.047-0.232-0.064-0.337c-0.009-0.043-0.021-0.081-0.039-0.116
			c-0.034,0.086-0.056,0.189-0.064,0.311l0.207,0.568c0.25,0.466,0.396,0.746,0.439,0.841c0.018,0.06,0.026,0.142,0.026,0.245
			c-0.043,0-0.061-0.004-0.052-0.012c-0.232-0.328-0.409-0.647-0.53-0.957c0,0.138-0.005,0.254-0.014,0.349
			c0.405,0.638,0.622,0.987,0.647,1.048c0.018,0.034,0.034,0.121,0.052,0.258l-0.038,0.026c-0.07-0.12-0.135-0.229-0.195-0.323
			c0.026,0.104,0.061,0.264,0.104,0.479l-0.025,0.013c-0.242-0.396-0.427-0.741-0.557-1.034c-0.052,0.129-0.112,0.237-0.181,0.323
			c0.025,0.052,0.048,0.091,0.064,0.116c0.483,0.768,0.733,1.172,0.751,1.216c0.034,0.095,0.025,0.172-0.026,0.233
			c-0.19-0.242-0.457-0.643-0.802-1.203c-0.009,0.068-0.014,0.137-0.014,0.207c0.121,0.31,0.251,0.616,0.389,0.917
			c0.043,0.147,0.072,0.307,0.09,0.479c-0.033,0-0.064-0.013-0.09-0.039c-0.207-0.465-0.375-0.814-0.505-1.047
			c-0.068-0.199-0.142-0.38-0.22-0.543c0.061,0.24,0.121,0.495,0.181,0.762c0.026,0.164,0.052,0.307,0.078,0.428l0.414,1.047
			l0.013,0.104c0,0.051-0.03,0.094-0.091,0.129c-0.034-0.008-0.06-0.013-0.077-0.013c-0.018-0.018-0.034-0.03-0.052-0.038
			l0.013-0.169l-0.207-0.491c-0.017,0.061-0.034,0.096-0.052,0.104c-0.017-0.008-0.025-0.021-0.025-0.039
			c-0.009,0.061-0.014,0.107-0.014,0.143l0.104,0.285c0.052,0.12,0.082,0.188,0.091,0.207c0.035,0.077,0.03,0.154-0.013,0.232
			c-0.018-0.009-0.039-0.018-0.064-0.026c-0.026,0-0.043,0-0.052,0c-0.043-0.138-0.117-0.332-0.22-0.581
			c-0.018-0.018-0.026-0.031-0.026-0.039c-0.034-0.009-0.052-0.021-0.052-0.039c-0.009,0.025-0.004,0.039,0.014,0.039
			c0.043,0.129,0.081,0.236,0.116,0.322c0.017,0.035,0.025,0.073,0.025,0.117c0,0.086-0.009,0.15-0.025,0.193
			c-0.026,0.009-0.044,0.009-0.052,0c-0.035-0.077-0.125-0.224-0.272-0.439c0-0.034-0.008-0.052-0.025-0.052
			c-0.009-0.017-0.004-0.043,0.014-0.077c-0.044-0.043-0.078-0.1-0.104-0.168c-0.026-0.061-0.057-0.121-0.091-0.182
			c0.189,0.803,0.254,1.207,0.194,1.216c-0.026,0-0.044,0.005-0.053,0.013c0.026,0.13,0.044,0.242,0.053,0.336
			c-0.069,0.018-0.113,0.021-0.13,0.014l-0.052-0.078c-0.138-0.431-0.241-0.779-0.311-1.047c-0.018,0.018-0.038,0.029-0.064,0.039
			c-0.034,0.017-0.06,0.029-0.077,0.038c0.172,0.534,0.297,0.983,0.374,1.345c-0.008,0.009-0.017,0.018-0.025,0.026
			c0.034,0.06,0.078,0.138,0.129,0.232c0,0.009-0.017,0.052-0.051,0.13c-0.139-0.087-0.289-0.268-0.453-0.545
			c-0.12-0.206-0.229-0.435-0.323-0.684c0,0.033-0.009,0.068-0.025,0.103c0.138,0.276,0.31,0.625,0.517,1.048
			c0,0.008-0.018,0.051-0.052,0.129c-0.198-0.164-0.345-0.336-0.439-0.517c-0.052-0.079-0.111-0.194-0.181-0.35
			c-0.018,0-0.03,0.013-0.039,0.038c0.034,0.061,0.061,0.121,0.077,0.182c0.259,0.568,0.337,0.866,0.232,0.893
			c-0.06,0.034-0.072,0.029-0.038-0.014c-0.077-0.155-0.181-0.35-0.311-0.582c-0.086-0.172-0.142-0.297-0.168-0.375
			c-0.025,0.129-0.068,0.25-0.129,0.362l0.413,1.061c-0.017,0.026-0.021,0.06-0.013,0.103c0.009,0.044-0.009,0.087-0.052,0.13
			c-0.018,0.017-0.047-0.005-0.09-0.064l-0.014-0.077l-0.323-0.815c-0.025,0.104-0.047,0.212-0.064,0.323
			c0.043,0.096,0.091,0.194,0.143,0.297c0.034,0.078,0.064,0.189,0.09,0.337c0.034,0.173,0.048,0.288,0.039,0.349
			c-0.043,0-0.077-0.017-0.104-0.051c-0.043-0.129-0.121-0.318-0.232-0.568c-0.026,0.189-0.052,0.392-0.078,0.607l0.143,0.311
			c-0.009,0.051,0.013,0.129,0.064,0.232c0.026,0.06,0.009,0.115-0.052,0.168c0.018,0.061,0.043,0.111,0.078,0.155
			c0.034,0.077,0.06,0.185,0.077,0.323c0.061,0.189,0.069,0.314,0.026,0.375c-0.026,0.025-0.048,0.029-0.065,0.013
			c-0.086-0.189-0.186-0.439-0.297-0.75c0,0.077-0.004,0.168-0.013,0.271c0.025,0.026,0.043,0.052,0.052,0.077
			c0.25,0.415,0.418,0.738,0.504,0.971c0.026,0.043,0.039,0.068,0.039,0.078c-0.018,0.016-0.039,0.033-0.064,0.051
			c-0.146-0.121-0.285-0.323-0.414-0.607c-0.034-0.104-0.078-0.189-0.13-0.26c0.018,0.156,0.034,0.303,0.052,0.44
			c0.182,0.25,0.307,0.466,0.375,0.646l0.014,0.052c-0.018,0.018-0.034,0.035-0.052,0.051c-0.044-0.033-0.139-0.154-0.285-0.361
			c0.104,1.086,0.38,1.949,0.828,2.586c0.379,0.5,0.625,0.884,0.737,1.151h-0.014c0.232,0.284,0.396,0.556,0.491,0.813v0.014
			c0.009,0,0.021,0.004,0.039,0.014c0.018,0.086,0.039,0.211,0.065,0.374h-0.039c-0.078-0.163-0.16-0.31-0.246-0.438
			c-0.052-0.087-0.107-0.156-0.168-0.208c0.069,0.302,0.107,0.646,0.116,1.034l-0.013,0.027c0.172,0.465,0.267,0.758,0.284,0.879
			c0.146,0.439,0.168,0.689,0.065,0.749c-0.009-0.181-0.039-0.362-0.091-0.542l-0.259-0.712c0.017,0.077,0.013,0.155-0.014,0.232
			c0.044,0.121,0.091,0.251,0.143,0.388c0.035,0.172,0.087,0.574,0.155,1.203c0.069,0.689,0.061,1.164-0.025,1.422
			c-0.095-1.025-0.207-1.818-0.337-2.379c0.009,0.154,0,0.314-0.025,0.479c0.241,0.904,0.25,1.697,0.025,2.379
			c0.009-0.518-0.047-1.095-0.168-1.732c-0.017,0.146-0.043,0.293-0.077,0.439c0.009,0.068,0.009,0.155,0,0.258
			c0.052,0.785,0.03,1.281-0.065,1.488c0.044-0.526,0.035-1.022-0.025-1.488c-0.034,0.156-0.073,0.341-0.116,0.557
			c0,0.068,0,0.139,0,0.207c0.026,0.689,0.026,1.133,0,1.332l-0.091-0.053c-0.034,0.414-0.12,0.686-0.258,0.814
			c0.025-0.517,0.038-0.935,0.038-1.254c-0.069,0.182-0.138,0.384-0.207,0.607c-0.043,0.147-0.095,0.294-0.155,0.44
			c-0.025,0.604-0.111,1.021-0.258,1.255c-0.034,0.258-0.082,0.469-0.143,0.633c0.034,0.509,0.039,0.811,0.014,0.905
			c-0.018,0-0.026-0.013-0.026-0.039v-0.063c-0.044-0.104-0.069-0.212-0.078-0.324c-0.017,0.146-0.047,0.275-0.09,0.388
			c0.129,0.673,0.181,1.142,0.154,1.41c-0.025,0-0.056-0.005-0.09-0.014c-0.034-0.164-0.073-0.327-0.116-0.491
			c0.12,0.75,0.146,1.225,0.077,1.422l-0.013-0.025l-0.064-0.09c-0.078-0.423-0.143-0.755-0.194-0.996
			c-0.043-0.25-0.077-0.471-0.104-0.66c-0.061,0.232-0.138,0.453-0.232,0.66c0.043,0.129,0.082,0.258,0.116,0.388
			c0.155,0.518,0.202,0.961,0.143,1.331h0.025c0.112,0.346,0.155,0.639,0.129,0.88c-0.025-0.009-0.064-0.018-0.116-0.026
			c0.044,0.139,0.039,0.229-0.013,0.271c-0.216-0.077-0.384-0.275-0.504-0.595c-0.061-0.267-0.117-0.474-0.168-0.62
			c-0.044,0.034-0.078,0.064-0.104,0.09c-0.043-0.215-0.081-0.452-0.115-0.711c-0.044,0.182-0.108,0.38-0.194,0.595
			c0.025,0.078,0.056,0.173,0.091,0.285c0.181,0.396,0.31,0.668,0.388,0.813c0.068,0.199,0.107,0.333,0.116,0.402
			c0.034,0.154,0.018,0.263-0.052,0.322l-0.052,0.014c-0.026-0.018-0.043-0.039-0.052-0.064c-0.069-0.199-0.168-0.444-0.298-0.738
			c0.225,0.794,0.28,1.203,0.168,1.229c-0.043,0.027-0.072,0.027-0.09,0v-0.013c-0.009,0.017-0.025-0.004-0.052-0.064
			c-0.009,0-0.052-0.146-0.129-0.44c0.052,0.251,0.081,0.453,0.09,0.609c0.112,0.188,0.186,0.318,0.22,0.387
			c0.035,0.078,0.035,0.139,0,0.182l-0.051,0.025c0.095,0.112,0.154,0.186,0.181,0.221c0.017,0.068,0.025,0.107,0.025,0.116
			l-0.064,0.013c-0.034,0-0.069-0.025-0.104-0.078c0,0.009-0.013,0.035-0.038,0.078l-0.078-0.025
			c-0.009-0.018-0.057-0.065-0.143-0.143c0.009,0.052,0.014,0.09,0.014,0.116c0.163,0.198,0.267,0.345,0.31,0.438
			c0.018,0.044,0.021,0.079,0.014,0.104c0,0.017-0.009,0.034-0.026,0.052h-0.064c0.009,0.034,0.013,0.077,0.013,0.129l-0.078,0.039
			c0.026,0.121,0.04,0.202,0.04,0.245c-0.061-0.06-0.182-0.259-0.362-0.595c-0.225-0.327-0.444-0.634-0.66-0.918
			c0.112,0.241,0.263,0.53,0.453,0.866c0.189,0.362,0.375,0.702,0.556,1.021c0.018,0.026,0.021,0.043,0.014,0.052
			c0.008,0.009-0.009,0.018-0.053,0.025c-0.137-0.068-0.279-0.219-0.426-0.452l-0.014,0.026c-0.034,0-0.077-0.018-0.128-0.052
			c-0.018-0.087-0.069-0.211-0.156-0.375c-0.112-0.189-0.25-0.418-0.414-0.686c0,0.052-0.008,0.104-0.026,0.155
			c0.061,0.086,0.121,0.182,0.181,0.285c0.371,0.664,0.594,1.104,0.672,1.318c0.043,0.087,0.073,0.182,0.09,0.285
			c0.018,0.034,0.026,0.069,0.026,0.104c0.017,0.068,0.013,0.125-0.013,0.168l0.013,0.051c0.017,0.096,0.004,0.16-0.039,0.194
			l-0.052,0.013c-0.069-0.129-0.138-0.267-0.207-0.413h-0.051c-0.078-0.138-0.159-0.284-0.246-0.44v0.014l-0.013-0.052
			c-0.095-0.164-0.177-0.315-0.246-0.452c-0.078-0.121-0.146-0.225-0.207-0.311c0,0.034,0.004,0.061,0.013,0.078
			c0,0.111-0.018,0.219-0.052,0.322c0.104,0.13,0.216,0.285,0.336,0.466c0.069,0.087,0.134,0.177,0.194,0.271l0.091,0.013
			c0.129,0.207,0.258,0.418,0.387,0.634c0.034,0.112,0.026,0.198-0.025,0.259c-0.035-0.008-0.064-0.018-0.091-0.025
			c0.043,0.094,0.081,0.181,0.116,0.258c0.009,0.043,0.021,0.086,0.039,0.129c0.009,0.035,0.013,0.061,0.013,0.078l-0.013,0.025
			c-0.189-0.24-0.483-0.663-0.879-1.267h-0.116c0.509,0.63,0.792,1.065,0.853,1.306c0.018,0.078,0.03,0.135,0.039,0.168
			l-0.104,0.039c-0.086-0.138-0.224-0.323-0.414-0.556c0.155,0.216,0.254,0.375,0.298,0.479c0.025,0.034,0.034,0.065,0.025,0.091
			c0.009,0.034-0.013,0.064-0.064,0.09c-0.043-0.017-0.086-0.025-0.129-0.025c-0.06-0.104-0.211-0.336-0.452-0.698
			c0.008,0.034,0.021,0.069,0.039,0.104l0.039,0.168c0.017,0.095-0.004,0.142-0.064,0.142c-0.018,0.01-0.035,0.018-0.052,0.026
			c-0.009-0.017-0.017-0.026-0.026-0.026c-0.018-0.017-0.073-0.116-0.168-0.297c0.034,0.086,0.064,0.168,0.09,0.246
			c0.026,0.086,0.039,0.137,0.039,0.155c-0.008,0.017-0.039,0.038-0.09,0.064c-0.017-0.009-0.03-0.013-0.039-0.013
			c-0.009,0.008-0.013,0.017-0.013,0.025c-0.043-0.008-0.077-0.013-0.104-0.013c0.095,0.13,0.233,0.302,0.414,0.517
			c0.423,0.432,0.616,0.857,0.582,1.28c-0.009,0.009-0.021,0.125-0.039,0.35c0.138,0.336,0.018,0.569-0.362,0.698
			c-0.371,0.104-1.013,0.28-1.927,0.529c-0.914,0.199-1.707,0.212-2.379,0.039c-0.646-0.154-1.163-0.254-1.551-0.297
			c-0.465-0.018-1.125,0.056-1.978,0.22c-0.88,0.173-1.69,0.267-2.431,0.284c-1.405,0.043-2.358-0.047-2.858-0.271
			c-0.215-0.103-0.362-0.22-0.439-0.349c-0.146,0.077-0.307,0.142-0.479,0.194c-0.362,0.076-0.621,0.081-0.776,0.013
			c-0.215,0.086-0.375,0.142-0.478,0.167c-0.207,0.07-0.405,0.057-0.595-0.038c-0.241-0.095-0.401-0.345-0.479-0.749
			c-0.069-0.363,0.607-0.811,2.03-1.346c0.164-0.052,0.332-0.095,0.504-0.129c0.707-0.198,1.293-0.293,1.758-0.285
			c0.018-0.008,0.04-0.017,0.065-0.025c0.457-0.189,0.987-0.354,1.59-0.492c-0.034-0.016-0.064-0.034-0.091-0.051
			c0.061,0.017,0.121,0.025,0.181,0.025c0.112-0.034,0.233-0.06,0.362-0.077c-0.069-0.043-0.129-0.077-0.181-0.104
			c0.104,0.009,0.224,0.026,0.362,0.052c0.31-0.035,0.625-0.077,0.944-0.129c0.121-0.035,0.254-0.043,0.401-0.026
			c0.129-0.017,0.258-0.034,0.388-0.052c0.017,0,0.043-0.004,0.077-0.013c-0.37-0.069-0.612-0.12-0.724-0.155
			c0.138-0.018,0.444,0,0.918,0.052c-0.008-0.009-0.017-0.013-0.026-0.013c-0.052-0.026-0.086-0.039-0.104-0.039l0.013-0.052
			c0-0.009,0.039-0.026,0.116-0.052c-0.017-0.009-0.03-0.018-0.039-0.025l-0.013-0.053c0.181-0.06,0.388-0.133,0.621-0.22
			c-0.018-0.025-0.048-0.047-0.09-0.063c0.431-0.182,0.792-0.337,1.086-0.467c0.104-0.06,0.198-0.099,0.285-0.115h-0.026
			c0.017-0.078,0.039-0.146,0.065-0.207c-0.448,0.207-0.793,0.344-1.035,0.414c-0.112,0.008-0.181,0-0.207-0.027
			c0.172-0.094,0.332-0.193,0.479-0.297c0.043-0.043,0.108-0.103,0.194-0.182c-0.018,0-0.022-0.004-0.013-0.012l-0.013-0.039
			c0.043-0.078,0.125-0.168,0.245-0.271c-0.052,0.008-0.086,0.008-0.103,0c0.172-0.164,0.319-0.302,0.439-0.414
			c-0.043,0.035-0.09,0.064-0.142,0.091c0.095-0.121,0.181-0.237,0.259-0.35c0.25-0.327,0.461-0.591,0.633-0.788
			c0.061-0.104,0.129-0.203,0.207-0.298c-0.043,0.043-0.091,0.1-0.142,0.169c-0.319,0.396-0.617,0.693-0.893,0.892l0.194,0.025
			c-0.259,0.216-0.461,0.341-0.608,0.375c-0.069,0.009-0.108-0.004-0.116-0.038l0.194-0.155h-0.013
			c0.112-0.19,0.354-0.505,0.725-0.944c0.121-0.172,0.254-0.345,0.401-0.518c0.069-0.111,0.142-0.202,0.22-0.271
			c0.051-0.146,0.108-0.271,0.167-0.375l-0.012-0.013c0-0.034,0-0.06,0-0.077c-0.095,0.146-0.182,0.275-0.259,0.388
			c-0.052,0-0.082,0-0.091,0c0.061-0.146,0.129-0.298,0.207-0.452c-0.146,0.189-0.336,0.413-0.569,0.672
			c-0.448,0.552-0.832,0.979-1.151,1.28H93.84c0.078-0.138,0.229-0.354,0.453-0.646c0.077-0.104,0.146-0.194,0.207-0.272
			c-0.052,0.027-0.104,0.057-0.155,0.092c0.155-0.25,0.375-0.557,0.659-0.918c0.276-0.337,0.47-0.574,0.582-0.712
			c0.086-0.207,0.186-0.452,0.297-0.737c0.035-0.043,0.056-0.095,0.064-0.154l0.026-0.479c-0.129,0.31-0.25,0.577-0.362,0.801
			c-0.095,0.035-0.151,0.035-0.168,0c0.181-0.388,0.344-0.784,0.491-1.189c-0.017,0.034-0.043,0.064-0.078,0.09
			c-0.146,0.354-0.254,0.588-0.323,0.699h-0.052c0.061-0.189,0.112-0.361,0.155-0.518c-0.155,0.164-0.315,0.323-0.479,0.479
			l-0.013-0.025c0.258-0.319,0.482-0.6,0.672-0.841c0.052-0.198,0.103-0.371,0.155-0.518v-0.245
			c-0.095,0.121-0.186,0.225-0.271,0.311c-0.078,0.232-0.146,0.396-0.207,0.491c0.052-0.147,0.091-0.276,0.117-0.388
			c-0.026,0.017-0.052,0.043-0.078,0.077c-0.008,0.009-0.021,0.009-0.039,0l-0.025-0.026c0.077-0.094,0.15-0.177,0.22-0.245
			c0.086-0.319,0.186-0.664,0.297-1.034l-0.013-0.88c-0.069,0.216-0.125,0.384-0.168,0.505c-0.112,0.388-0.232,0.797-0.362,1.229
			l-0.104-0.053c0.189-0.784,0.336-1.4,0.44-1.848c0-0.018-0.013-0.035-0.04-0.053c0.061-0.129,0.121-0.275,0.181-0.439
			c0.018-0.181,0.039-0.354,0.065-0.518L96,164.033c-0.129,0.422-0.246,0.729-0.349,0.918c0.138-0.439,0.25-0.828,0.336-1.164
			c-0.069,0.078-0.129,0.125-0.181,0.143c-0.069,0.025-0.108,0.025-0.116,0l0.013-0.039c0.112-0.172,0.189-0.318,0.233-0.439
			c-0.138,0.104-0.263,0.178-0.375,0.221c-0.069,0.043-0.095,0.038-0.078-0.014c0.233-0.31,0.418-0.551,0.556-0.725
			c0.034-0.189,0.064-0.383,0.09-0.581c-0.198,0.138-0.354,0.254-0.465,0.349c0.172-0.181,0.332-0.349,0.478-0.504
			c0.069-0.879,0.121-1.625,0.156-2.236c-0.043,0.094-0.091,0.193-0.143,0.297l-0.039,0.013l-0.026-0.025
			c0.008-0.13,0.099-0.37,0.271-0.725c0.009-0.198,0.022-0.388,0.039-0.569c0-0.051,0-0.111,0-0.18
			c-0.129,0.25-0.246,0.436-0.349,0.555l-0.013-0.064l0.336-0.659c0-0.216-0.026-0.495-0.077-0.841
			c-0.121,0.242-0.281,0.488-0.479,0.738c0.181-0.346,0.323-0.643,0.427-0.893c0.017-0.035,0.03-0.074,0.039-0.117
			c0-0.06-0.004-0.124-0.013-0.193c-0.052,0.146-0.104,0.289-0.155,0.427c-0.043,0.009-0.069-0.005-0.078-0.039
			c0.086-0.216,0.155-0.417,0.207-0.607c0-0.078-0.009-0.173-0.026-0.285c-0.129-1.224-0.181-2.03-0.155-2.417
			c0.026-0.596-0.181-1.238-0.621-1.928c-0.414-0.689-0.625-1.056-0.634-1.099c0.018-0.655,0.125-1.288,0.323-1.901
			c0.018-0.06,0.039-0.142,0.064-0.245c-0.078-0.069-0.155-0.146-0.232-0.233c-0.104,0.018-0.164,0.027-0.181,0.027l-0.013-0.064
			c-0.034-0.01-0.047-0.018-0.039-0.027c-0.018,0.018-0.04-0.008-0.065-0.077c-0.061-0.13-0.104-0.275-0.129-0.44
			c-0.009-0.033-0.026-0.068-0.052-0.103l-0.039-0.038c-0.018-0.018-0.031-0.035-0.039-0.053c-0.043-0.12-0.095-0.229-0.155-0.322
			c-0.009,0.077-0.009,0.137,0,0.18H94.19c-0.018,0-0.026,0.01-0.026,0.027l-0.039-0.092c-0.009-0.138-0.018-0.271-0.026-0.4
			c-0.078-0.146-0.147-0.302-0.207-0.465c0.034,0.24,0.051,0.426,0.051,0.555c-0.051-0.033-0.09-0.086-0.116-0.154
			c-0.086-0.233-0.125-0.557-0.117-0.971c-0.009,0-0.013-0.004-0.013-0.012c-0.017,0.086-0.03,0.197-0.039,0.336
			c0.026,0.293,0.056,0.521,0.09,0.686c-0.034,0.025-0.06,0.012-0.077-0.039l-0.117-0.182c-0.026-0.465-0.047-0.818-0.064-1.06
			c0.009-0.155,0.013-0.312,0.013-0.466c-0.069-0.241-0.142-0.509-0.22-0.803c0.009,0.164,0.004,0.332-0.013,0.505
			c0.017,0.396,0.013,0.694-0.013,0.893l-0.052-0.026l-0.078-0.104c-0.008,0.018-0.017,0.035-0.026,0.052
			c0.026-0.207,0.039-0.461,0.039-0.763c0.009-0.095,0.013-0.189,0.013-0.285c0.008-0.111,0.008-0.207,0-0.283
			c-0.009,0.033-0.022,0.081-0.039,0.142c0.017-0.146,0.034-0.259,0.052-0.337c0-0.172-0.004-0.267-0.013-0.284
			c0-0.009-0.005-0.017-0.013-0.026l-0.052,0.026c0-0.052,0.013-0.116,0.039-0.194c-0.017-0.051-0.026-0.104-0.026-0.154
			c-0.051,0.336-0.125,0.62-0.219,0.853l-0.026-0.013c0-0.025,0.004-0.056,0.013-0.09l-0.039,0.012
			c0.017-0.033,0.025-0.076,0.025-0.129c-0.043,0.129-0.086,0.255-0.129,0.375l-0.013-0.013c0.069-0.371,0.134-0.841,0.194-1.409
			c0.026-0.285,0.056-0.521,0.09-0.711c-0.017-0.199-0.039-0.393-0.064-0.582c-0.018,0.103-0.031,0.189-0.04,0.258l-0.064,0.014
			c0-0.207,0.03-0.466,0.09-0.775c-0.009-0.242-0.018-0.51-0.026-0.803c-0.017,0.035-0.025,0.068-0.025,0.104
			c-0.018-0.078-0.009-0.177,0.025-0.297c0.009-0.225,0.022-0.444,0.04-0.66c0.008-0.629,0.077-1.396,0.207-2.301l-0.026,0.013
			c0.009-0.112,0.043-0.271,0.104-0.479c0.069-0.646,0.172-1.37,0.31-2.172c-0.086,0.225-0.189,0.457-0.31,0.699
			c0.078-0.44,0.224-0.914,0.439-1.423c0.034-0.112,0.056-0.224,0.065-0.337c0.431-2.576,0.828-4.422,1.189-5.533
			c0.715-2.371,1.599-4.345,2.651-5.922C98.22,121.625,99.121,120.686,100.267,120.03L100.267,120.03z"/>
	</g>
	<g id="Layer_5_6_">
		<path id="path11_5_" fill="#010101" d="M108.388,172.359c0.008,0.018,0.013,0.039,0.013,0.064l0.064-0.012
			c-0.025-0.061-0.056-0.13-0.091-0.207c-0.008,0.043-0.008,0.086,0,0.129C108.384,172.342,108.388,172.352,108.388,172.359z
			 M109.422,166.58c0.017-0.061,0.013-0.13-0.013-0.207c-0.035,0.172-0.082,0.35-0.143,0.53c0,0.017,0.004,0.025,0.014,0.025
			C109.341,166.809,109.388,166.691,109.422,166.58z M109.499,166.191c-0.008,0.069-0.017,0.135-0.025,0.195
			c0.025-0.096,0.052-0.199,0.078-0.312c0.018-0.069,0.021-0.129,0.013-0.181C109.538,165.989,109.517,166.088,109.499,166.191
			L109.499,166.191z M108.181,170.653v0.013c-0.009,0.078-0.004,0.142,0.014,0.193c-0.018,0.061-0.027,0.117-0.027,0.168
			c0.053,0.104,0.096,0.207,0.131,0.311c0,0.026,0.012,0.047,0.039,0.064C108.275,171.195,108.224,170.946,108.181,170.653
			L108.181,170.653z M110.405,163.36c0,0.034-0.005,0.06-0.014,0.077c-0.018,0.061-0.047,0.112-0.091,0.155
			c-0.034,0.233-0.073,0.431-0.116,0.595c0.009,0.095,0.021,0.177,0.039,0.246c0,0.112,0,0.22,0,0.322
			c0.025-0.033,0.039-0.068,0.039-0.103c0.061-0.345,0.121-0.642,0.181-0.892C110.444,163.605,110.431,163.473,110.405,163.36z
			 M102.75,172.075c-0.044,0.017-0.073,0.034-0.091,0.052c-0.025,0.025-0.06,0.047-0.104,0.064c0.052-0.018,0.099-0.039,0.143-0.064
			c0.017-0.018,0.034-0.03,0.052-0.039V172.075z M102.517,171.934c0.043-0.07,0.087-0.139,0.13-0.207
			c-0.112,0.086-0.221,0.18-0.323,0.284C102.374,171.977,102.439,171.95,102.517,171.934L102.517,171.934z M102.374,167.77v-0.014
			c-0.017,0.018-0.029,0.035-0.038,0.053C102.354,167.791,102.366,167.777,102.374,167.77z M102.439,166.102
			c0.052-0.053,0.124-0.112,0.22-0.182l-0.026-0.09C102.564,165.941,102.5,166.032,102.439,166.102L102.439,166.102z
			 M102.711,166.994c0.009-0.018,0.021-0.03,0.039-0.039v-0.014l-0.014,0.014C102.72,166.955,102.711,166.968,102.711,166.994z
			 M102.413,163.657l-0.013-0.13c-0.146,0.182-0.268,0.342-0.362,0.479C102.15,163.92,102.275,163.805,102.413,163.657z
			 M102.22,158.266c-0.009,0-0.005-0.009,0.013-0.025l-0.013-0.014l-0.22,0.491c0.034-0.069,0.073-0.143,0.116-0.22
			C102.159,158.438,102.193,158.36,102.22,158.266z M102.077,157.426c-0.086,0.094-0.164,0.154-0.232,0.181
			c-0.13,0.318-0.207,0.581-0.233,0.788c0.095-0.215,0.164-0.345,0.207-0.388c0.086-0.173,0.182-0.336,0.285-0.491
			C102.095,157.49,102.086,157.459,102.077,157.426z M102,157.192c-0.026,0.034-0.053,0.087-0.078,0.155
			c0.052-0.052,0.095-0.096,0.129-0.129c-0.017-0.018-0.025-0.035-0.025-0.053L102,157.192z M98.612,146.563
			c-0.026-0.017-0.047-0.043-0.064-0.077c0.017,0.086,0.021,0.181,0.013,0.284C98.586,146.71,98.604,146.641,98.612,146.563z
			 M98.211,145.853c-0.052-0.078-0.09-0.151-0.116-0.22c0.008,0.181,0.021,0.396,0.039,0.646
			C98.16,146.149,98.186,146.008,98.211,145.853z M97.565,144.649c-0.009-0.042-0.013-0.072-0.013-0.091l-0.013,0.014
			C97.547,144.589,97.556,144.615,97.565,144.649z M96.763,142.633c0.052-0.13,0.09-0.246,0.116-0.35
			c0.008-0.034,0.021-0.056,0.039-0.064c-0.044-0.104-0.073-0.193-0.091-0.271c-0.008,0.232-0.026,0.436-0.052,0.607
			C96.776,142.581,96.772,142.607,96.763,142.633z M110.249,137.629c0.027,0.017,0.039,0.029,0.039,0.038
			c0.078,0.06,0.146,0.112,0.207,0.155c0.078,0.053,0.139,0.1,0.182,0.143c-0.078-0.155-0.194-0.35-0.35-0.582
			c-0.018-0.025-0.039-0.052-0.064-0.078C110.254,137.426,110.249,137.533,110.249,137.629z M110.56,132.883
			c-0.025-0.06-0.047-0.115-0.064-0.168c-0.025-0.077-0.052-0.164-0.078-0.258c0,0.043,0,0.086,0,0.129
			C110.452,132.689,110.499,132.788,110.56,132.883z M105.31,119.216c1.13,0.13,2.086,0.427,2.871,0.892
			c0.871,0.5,1.314,1.014,1.332,1.539c0.018,0.069-0.009,0.121-0.078,0.155c0.285,0.569,0.466,1.319,0.543,2.25l-0.064,0.466
			c0.225,0.93,0.357,1.736,0.4,2.418c0.087,1.267,0.125,2.668,0.117,4.201c0.129,0.156,0.202,0.264,0.22,0.324
			c0.173,0.189,0.245,0.307,0.22,0.35c-0.018,0.034-0.025,0.061-0.025,0.077c-0.009,0-0.021,0-0.039,0
			c-0.121-0.13-0.246-0.276-0.375-0.439c-0.008,0.12-0.014,0.237-0.014,0.349c0.069,0.104,0.135,0.237,0.195,0.401
			c0.206,0.405,0.31,0.63,0.31,0.673c-0.044,0.043-0.069,0.043-0.077,0c-0.121-0.199-0.242-0.448-0.363-0.75
			c-0.033-0.026-0.055-0.061-0.064-0.104c0,0.026,0,0.043,0,0.052c0.087,0.155,0.182,0.345,0.285,0.569
			c0.258,0.619,0.357,0.995,0.297,1.125c-0.018,0.034-0.03,0.055-0.039,0.064c-0.008-0.018-0.021-0.025-0.038-0.025
			c-0.026-0.018-0.112-0.233-0.259-0.647c0.078,0.25,0.096,0.462,0.053,0.634c0.111,0.181,0.172,0.322,0.18,0.426l-0.116,0.26
			l-0.025,0.012c0,0.01,0,0.018,0,0.027l-0.116,0.297c-0.096-0.259-0.178-0.496-0.246-0.712c0,0.009-0.004,0.018-0.013,0.026
			c0.026,0.043,0.034,0.091,0.026,0.143c0.094,0.207,0.168,0.393,0.219,0.555l-0.09,0.182l0.154,0.039
			c0.018,0.104,0.018,0.168,0,0.194c-0.016,0.052-0.043,0.081-0.076,0.091c0.104,0.206,0.15,0.332,0.142,0.375
			c0.173,0.215,0.249,0.348,0.232,0.4c-0.017,0.043-0.03,0.068-0.038,0.078c-0.018,0-0.031,0-0.039,0l-0.104-0.027
			c-0.182-0.215-0.341-0.396-0.479-0.542l-0.014,0.038c0.285,0.268,0.418,0.436,0.402,0.504l-0.039,0.064
			c-0.018-0.008-0.039-0.012-0.064-0.012c-0.027-0.035-0.061-0.069-0.104-0.104c0,0.034-0.005,0.051-0.014,0.051
			c-0.025,0.078-0.034,0.091-0.025,0.039c-0.053-0.035-0.104-0.073-0.156-0.116c-0.017,0.345-0.038,0.702-0.064,1.073
			c0.052,0.086,0.104,0.155,0.156,0.207c0.207,0.328,0.354,0.573,0.439,0.736c0.172,0.13,0.254,0.203,0.245,0.221
			c-0.017,0.078-0.06,0.078-0.13,0c-0.111-0.069-0.211-0.125-0.297-0.168c0.199,0.284,0.35,0.529,0.453,0.736l-0.053,0.014
			c-0.25-0.345-0.486-0.651-0.711-0.918c-0.025-0.035-0.061-0.064-0.104-0.091c0.096,0.104,0.164,0.194,0.207,0.271l-0.039-0.013
			c-0.068-0.061-0.129-0.116-0.18-0.168c-0.01,0.052-0.014,0.107-0.014,0.168c0.345,0.404,0.568,0.707,0.672,0.904h-0.09
			c-0.232-0.275-0.439-0.517-0.621-0.724c0.018,0.078,0.025,0.146,0.025,0.207c0.285,0.327,0.483,0.595,0.596,0.802
			c-0.198-0.189-0.4-0.422-0.607-0.698c0.008,0.146,0.004,0.298-0.014,0.452c0.293,0.482,0.443,0.82,0.453,1.009
			c-0.018,0.026-0.061,0.026-0.129,0c-0.035-0.129-0.156-0.345-0.363-0.646c0.01,0.086,0.004,0.172-0.012,0.258
			c0.104,0.181,0.189,0.336,0.258,0.465l-0.091,0.064c-0.068-0.068-0.134-0.158-0.194-0.271c0,0.025-0.008,0.056-0.025,0.091
			c0.104,0.207,0.168,0.379,0.194,0.517c0.147,0.31,0.194,0.5,0.142,0.569l-0.038,0.09c-0.009,0-0.021,0.005-0.038,0.014
			l-0.078-0.014c-0.018-0.137-0.086-0.314-0.207-0.529c0,0.146-0.004,0.306-0.014,0.479c0.018,0.025,0.021,0.051,0.014,0.077
			c0.068,0.13,0.125,0.237,0.168,0.323c-0.052-0.095-0.117-0.197-0.193-0.311c-0.01,0.242-0.031,0.461-0.065,0.66
			c0.233,0.431,0.319,0.693,0.259,0.789c-0.025,0.025-0.047,0.047-0.064,0.064h-0.078c-0.025-0.112-0.077-0.259-0.154-0.439
			c-0.01,0.043-0.014,0.082-0.014,0.116c0.146,0.345,0.215,0.634,0.207,0.866l-0.052,0.052c-0.06-0.121-0.134-0.271-0.22-0.452
			c-0.034,0.111-0.057,0.215-0.064,0.311c0.061,0.18,0.073,0.305,0.039,0.374c-0.009,0-0.018,0.013-0.026,0.038
			c0.069,0.216,0.12,0.462,0.155,0.738l-0.078,0.025c-0.068-0.225-0.133-0.436-0.193-0.634c-0.069,0.224-0.129,0.453-0.182,0.687
			c0.061,0.231,0.078,0.374,0.053,0.426c-0.01,0.052-0.021,0.078-0.039,0.078l-0.039,0.013c0.111,0.327,0.16,0.517,0.143,0.568
			c-0.043,0.078-0.064,0.091-0.064,0.039c-0.086-0.198-0.16-0.393-0.221-0.583c-0.051,0.174-0.104,0.332-0.154,0.479
			c0.086,0.275,0.09,0.466,0.013,0.568v0.014c0.034,0.138,0.069,0.284,0.104,0.439c-0.044,0.017-0.091,0.017-0.142,0
			c-0.045-0.138-0.092-0.276-0.143-0.414v-0.013c-0.01-0.018-0.018-0.048-0.026-0.091c-0.009,0.043-0.017,0.069-0.026,0.077
			c0.173,0.414,0.225,0.678,0.155,0.789c-0.017,0.052-0.034,0.074-0.052,0.064c-0.025,0.01-0.068,0.018-0.129,0.026
			c-0.035-0.173-0.073-0.332-0.116-0.479c-0.018,0.044-0.034,0.087-0.052,0.13c0.129,0.301,0.181,0.482,0.154,0.543
			c-0.017,0.034-0.033,0.056-0.051,0.064c-0.018-0.009-0.043-0.004-0.078,0.013c-0.043-0.086-0.1-0.185-0.168-0.297
			c0.009,0.043,0.005,0.081-0.013,0.116c0.129,0.258,0.207,0.418,0.232,0.479h-0.052c-0.086-0.129-0.168-0.246-0.246-0.35
			c-0.008,0.009-0.017,0.026-0.025,0.052c0.182,0.241,0.254,0.414,0.22,0.517l-0.142,0.014c-0.061-0.061-0.121-0.134-0.182-0.221
			c-0.018,0.044-0.034,0.1-0.052,0.169c0.13,0.173,0.212,0.302,0.246,0.388c-0.034,0-0.061,0.004-0.077,0.014
			c0.267,0.379,0.387,0.607,0.361,0.685c-0.043,0.052-0.068,0.073-0.077,0.064c-0.052,0-0.087-0.008-0.104-0.026
			c-0.181-0.215-0.284-0.349-0.311-0.4c0.104,0.104,0.173,0.16,0.207,0.168v-0.014c-0.104-0.119-0.198-0.245-0.284-0.375
			c0.077,0.26,0.154,0.557,0.232,0.893l-0.064,0.078l-0.091-0.025c-0.009-0.044-0.026-0.087-0.052-0.13
			c0,0.025-0.008,0.048-0.025,0.064c-0.018,0.052-0.03,0.073-0.039,0.065c0.077,0.094,0.146,0.18,0.207,0.258
			c-0.189-0.086-0.357-0.197-0.504-0.336c-0.01,0.068-0.018,0.15-0.026,0.246c0.043,0.06,0.086,0.143,0.13,0.245
			c0.104,0.13,0.18,0.263,0.232,0.401c-0.035,0.086-0.048,0.103-0.039,0.051c-0.155-0.18-0.271-0.327-0.35-0.439
			c-0.025,0.156-0.034,0.314-0.025,0.479c0.009,0.018,0.018,0.021,0.025,0.014c0,0.008-0.004,0.017-0.012,0.025
			c0.24,0.225,0.361,0.354,0.361,0.389c-0.025,0.06-0.039,0.072-0.039,0.037c-0.009,0-0.035,0-0.078,0
			c-0.051-0.025-0.133-0.094-0.244-0.206c-0.01,0.061-0.014,0.134-0.014,0.22c0.121,2.121,0.612,3.732,1.475,4.836
			c0.482,0.604,0.801,1.043,0.957,1.319c0.206,0.474,0.348,1.069,0.426,1.784c0.052,0.112,0.086,0.229,0.104,0.35
			c0.035,0.086,0.057,0.164,0.064,0.232c0.052,0.189,0.117,0.393,0.194,0.607c0.163,0.543,0.228,0.846,0.194,0.905
			c-0.027,0.043-0.043,0.065-0.053,0.065l-0.013,0.025l-0.052-0.039c-0.034-0.267-0.111-0.611-0.232-1.034
			c-0.009,0-0.018,0.009-0.025,0.026l-0.026,0.013c-0.026-0.069-0.056-0.13-0.091-0.181c0,0.025-0.004,0.061-0.013,0.104
			c0.018,0.008,0.026,0.017,0.026,0.025l-0.014,0.026c0.009,0.103,0.005,0.198-0.013,0.284c0.018,0.052,0.034,0.095,0.052,0.129
			c0.182,0.526,0.254,0.819,0.22,0.88c-0.017,0.043-0.03,0.064-0.038,0.064l-0.026-0.013c-0.077-0.242-0.155-0.457-0.233-0.646
			c-0.008,0.197-0.025,0.409-0.051,0.633c0.121,0.5,0.164,0.785,0.129,0.854c-0.018,0.043-0.03,0.061-0.039,0.052
			c-0.018-0.009-0.043-0.013-0.077-0.013c-0.026-0.138-0.052-0.268-0.077-0.389c-0.01,0.018-0.014,0.035-0.014,0.053
			c0.01,0.172,0.01,0.311,0,0.413c0,0.259,0,0.561,0,0.905c-0.018,0.578-0.03,0.893-0.039,0.943
			c-0.017,0.035-0.056,0.065-0.115,0.091c-0.018,0.208-0.039,0.453-0.065,0.737c-0.043,0.354-0.086,0.646-0.13,0.879
			c0.053,0.501,0.048,0.793-0.013,0.88c-0.025,0.052-0.06,0.099-0.103,0.142l-0.039-0.025c0-0.095-0.004-0.189-0.014-0.285
			l-0.012,0.039c-0.01,0.009-0.031,0.009-0.065,0l-0.026-0.039c0.01-0.06,0.035-0.293,0.078-0.697c-0.009-0.371-0.009-0.678,0-0.919
			c-0.061,0.173-0.104,0.302-0.129,0.388l-0.026,0.039c-0.026,0.492-0.038,1.186-0.038,2.082l-0.078-0.013
			c-0.034-0.164-0.064-0.327-0.09-0.491c-0.07,0.543-0.164,0.939-0.285,1.189c-0.025,0-0.052,0.021-0.078,0.064
			c0.13,0.862,0.164,1.371,0.104,1.525c-0.025,0.035-0.047,0.057-0.064,0.064l-0.025,0.039l-0.064-0.025
			c-0.009-0.225-0.043-0.634-0.104-1.229c-0.026,0.068-0.061,0.133-0.104,0.194c-0.026,0.456-0.057,0.775-0.09,0.956
			c0.043,0.319,0.029,0.557-0.039,0.711c-0.018,0.044-0.031,0.061-0.039,0.052l-0.092-0.025c-0.016-0.129-0.047-0.405-0.09-0.827
			c-0.077,0.163-0.133,0.311-0.168,0.439c0.025,0.525,0.014,0.866-0.039,1.021c-0.025,0.051-0.06,0.086-0.104,0.103
			c0.01,0.009,0,0.018-0.025,0.026c-0.034-0.216-0.061-0.422-0.078-0.621c-0.018,0.035-0.033,0.061-0.051,0.078v0.026
			c0.033,0.146,0.056,0.301,0.064,0.466c0.146,0.792,0.22,1.193,0.22,1.201c-0.026,0.044-0.048,0.07-0.065,0.078
			c0.087,0.225,0.121,0.346,0.104,0.361c-0.017,0.035-0.038,0.053-0.064,0.053v0.013c0.121,0.241,0.178,0.38,0.168,0.413
			c-0.008,0.053-0.021,0.074-0.038,0.065c-0.034,0.034-0.069,0.052-0.104,0.052c-0.052-0.069-0.112-0.177-0.181-0.323h-0.091
			c-0.026,0.112-0.048,0.224-0.065,0.336c0.053,0.104,0.113,0.212,0.182,0.323c0.284,0.439,0.422,0.673,0.414,0.698
			c-0.009,0.043-0.018,0.069-0.026,0.077c-0.017,0.018-0.03,0.027-0.038,0.027l-0.117,0.025c0.035,0.051,0.052,0.082,0.052,0.09
			c-0.009,0.052-0.021,0.082-0.038,0.091c-0.01,0-0.014,0.005-0.014,0.013l-0.168,0.014c-0.172-0.121-0.35-0.268-0.529-0.439
			c0.008,0.138,0.004,0.293-0.014,0.465l0.388,0.401c-0.025,0.044-0.043,0.069-0.052,0.077v0.014h-0.039
			c-0.008,0.017-0.012,0.029-0.012,0.039c0.258,0.379,0.387,0.586,0.387,0.62c-0.008,0.017-0.029,0.034-0.064,0.052
			c-0.018,0.025-0.06,0.052-0.129,0.078c-0.182-0.164-0.371-0.38-0.568-0.646c-0.018,0.06-0.026,0.12-0.026,0.18
			c0.052,0.043,0.091,0.092,0.116,0.143c0.5,0.439,0.737,0.694,0.711,0.764c-0.025,0.025-0.043,0.043-0.051,0.051
			c0.094,0.156,0.125,0.271,0.09,0.35c-0.008,0.035-0.021,0.052-0.039,0.052c0,0.009-0.008,0.026-0.025,0.052l-0.025-0.013
			c-0.018,0.017-0.049,0.021-0.092,0.013c-0.025,0-0.047-0.005-0.064-0.013c0.069,0.095,0.1,0.167,0.091,0.22
			c0.431,0.302,0.669,0.654,0.712,1.061c0,0.008-0.005,0.099-0.014,0.271c-0.044,0.268,0.066,0.699,0.33,1.293
			c0.266,0.592-0.104,0.952-1.105,1.079c-1.003,0.128-1.762,0.171-2.275,0.13c-0.518-0.039-1.181-0.004-1.992,0.109
			c-0.784,0.112-1.293,0.178-1.525,0.194h-0.337c-0.327,0.026-0.65,0.017-0.97-0.026c-0.241-0.052-0.65-0.09-1.228-0.115
			c-0.242,0-0.517-0.014-0.827-0.039c-1.173-0.035-2.129-0.03-2.871,0.013c-0.741,0.026-1.189-0.026-1.345-0.155
			c-0.207,0.026-0.603,0.035-1.189,0.026c-0.422,0-0.78-0.052-1.073-0.155c-0.155-0.01-0.306-0.014-0.452-0.014
			c-0.458-0.017-0.754-0.047-0.893-0.09c-0.069-0.035-0.095-0.1-0.078-0.194c0.035-0.077,0.138-0.177,0.311-0.298
			c0.008-0.017,0.026-0.029,0.051-0.038c0.026-0.078,0.082-0.159,0.168-0.245c0.207-0.294,0.922-0.436,2.147-0.428
			c1.232-0.034,2.029-0.129,2.392-0.283c0.293-0.113,0.651-0.19,1.074-0.233l0.271-0.091c0.189,0.009,0.357,0.021,0.504,0.039
			c0.302-0.043,0.621-0.095,0.957-0.156l-0.724-0.038c-0.189,0.009-0.301-0.013-0.336-0.065c0.198-0.017,0.332-0.029,0.401-0.037
			c0.095,0,0.483,0,1.164,0c0.095-0.018,0.189-0.039,0.284-0.065c-0.155-0.026-0.328-0.038-0.518-0.038
			c-0.215,0-0.349-0.021-0.4-0.065c0.896-0.146,1.379-0.216,1.448-0.206c0.043-0.01,0.086-0.01,0.129,0
			c0.009-0.018,0.021-0.026,0.039-0.026c-0.06-0.026-0.09-0.048-0.09-0.064v-0.039c0-0.009-0.018-0.013-0.052-0.013l0.052-0.039
			c0.025-0.018,0.039-0.029,0.039-0.039c0.155-0.017,0.292-0.029,0.414-0.039c0.052-0.033,0.099-0.076,0.143-0.129
			c-0.034,0.009-0.073,0.021-0.117,0.039l-0.077-0.052l0.026-0.026c0.034-0.043,0.095-0.081,0.181-0.115
			c-0.034-0.01-0.057-0.018-0.064-0.026c-0.112,0.026-0.199,0.038-0.259,0.038c-0.051-0.008-0.095-0.029-0.129-0.064
			c-0.034-0.017-0.056-0.039-0.064-0.064c0.043-0.018,0.219-0.064,0.53-0.143c0.13-0.164,0.414-0.491,0.854-0.982
			c0.129-0.172,0.259-0.332,0.388-0.479c-0.215,0.198-0.388,0.302-0.518,0.311c-0.043-0.009-0.072-0.021-0.09-0.039
			c0-0.008-0.005-0.021-0.014-0.038c0.087-0.069,0.182-0.173,0.285-0.312c-0.259,0.26-0.436,0.423-0.53,0.492h-0.039
			c-0.008,0,0-0.021,0.026-0.065c0.017-0.042,0.172-0.236,0.465-0.581l-0.051-0.064c0.017-0.018,0.033-0.035,0.051-0.052
			c-0.017,0-0.034,0.004-0.051,0.013c-0.01,0.018-0.018,0.03-0.026,0.039l-0.039-0.014c-0.388,0.146-0.814,0.307-1.28,0.479
			c-0.138,0-0.228-0.018-0.271-0.051l-0.039-0.065c0.104-0.034,0.625-0.245,1.564-0.634l-0.025-0.013
			c0.068-0.104,0.129-0.198,0.181-0.284c-0.242,0-0.44-0.043-0.596-0.13c-0.404,0.198-0.71,0.371-0.917,0.517l-0.078-0.064
			c0.276-0.163,0.582-0.332,0.918-0.504c-0.086-0.061-0.155-0.143-0.207-0.245c-0.138,0.077-0.224,0.138-0.258,0.181l-0.323-0.013
			c0.095-0.061,0.267-0.155,0.517-0.284c-0.009-0.018-0.013-0.031-0.013-0.039c-0.018-0.069-0.03-0.289-0.039-0.66
			c0-0.12-0.082-0.176-0.245-0.167c-0.189,0.009-0.289,0-0.298-0.026l-0.064-0.078c0.569-0.284,1.15-0.529,1.745-0.736
			c0.018-0.035,0.039-0.069,0.064-0.104c-0.258,0.12-0.474,0.189-0.646,0.207c-0.086,0.008-0.159,0.008-0.22,0
			c-0.034-0.009-0.068-0.018-0.104-0.026c0.199-0.086,0.389-0.159,0.569-0.22v-0.026c-0.371,0.121-0.664,0.146-0.879,0.078
			c-0.069-0.017-0.099-0.052-0.091-0.103c0.181-0.035,0.414-0.109,0.698-0.221c0.198-0.112,0.38-0.225,0.543-0.337
			c-0.474,0.225-0.845,0.319-1.111,0.285c-0.035-0.026-0.048-0.044-0.039-0.052c0.931-0.439,1.409-0.659,1.435-0.659
			c0.018-0.009,0.034-0.022,0.052-0.039c-0.017-0.026-0.029-0.052-0.038-0.077c-0.009-0.01-0.014-0.018-0.014-0.026
			c-0.008,0-0.017,0.005-0.025,0.013c-0.62,0.448-1.061,0.625-1.319,0.531c-0.043-0.018-0.077-0.031-0.103-0.039
			c-0.018,0-0.022-0.021-0.014-0.064c0.345-0.121,0.625-0.238,0.841-0.35c0.095-0.086,0.198-0.168,0.311-0.246v-0.013
			c0.025-0.043,0.068-0.091,0.129-0.142c-0.025,0.008-0.047,0.013-0.064,0.013c-0.871,0.517-1.426,0.737-1.667,0.659
			c-0.044-0.009-0.074-0.014-0.091-0.014c-0.008-0.017-0.008-0.047,0-0.09c0.414-0.172,0.832-0.35,1.254-0.531
			c0.086-0.086,0.159-0.154,0.22-0.206l-0.013-0.013c0.086-0.121,0.172-0.237,0.258-0.35c-0.681,0.422-1.134,0.604-1.357,0.543
			c-0.034-0.008-0.047-0.038-0.039-0.09c0.009,0,0.013-0.014,0.013-0.039c0.793-0.396,1.211-0.608,1.254-0.633
			c0.104-0.053,0.193-0.096,0.271-0.13c0.018-0.052,0.034-0.099,0.052-0.143c-0.009,0.009-0.021,0.017-0.039,0.026
			c-0.845,0.543-1.396,0.758-1.655,0.646c-0.052-0.009-0.073-0.03-0.065-0.064l0.013-0.014c0.621-0.285,1.125-0.539,1.512-0.763
			c0.285-0.337,0.53-0.646,0.737-0.931h-0.013c-0.311,0.267-0.931,0.685-1.862,1.254c-0.018-0.025-0.03-0.052-0.038-0.078
			c0.052-0.077,0.293-0.258,0.724-0.543c-0.259,0.164-0.431,0.229-0.518,0.193c-0.043-0.008-0.073-0.021-0.09-0.038l0.013-0.052
			c0.155-0.138,0.496-0.379,1.021-0.724c0.336-0.216,0.573-0.423,0.711-0.62l-0.039-0.221c-0.06,0.061-0.107,0.107-0.142,0.143
			c-0.146,0.232-0.276,0.409-0.388,0.529l-0.091-0.076l0.168-0.363c-0.009,0.01-0.018,0.018-0.026,0.027l-0.038-0.027l-0.052,0.039
			c-0.482,0.482-0.764,0.716-0.841,0.699c-0.034-0.027-0.052-0.043-0.052-0.053h-0.013c-0.017,0.01-0.008-0.017,0.025-0.077
			c0.199-0.225,0.38-0.444,0.543-0.659c-0.172,0.163-0.318,0.229-0.439,0.193c-0.043-0.043-0.064-0.068-0.064-0.078l0.014-0.038
			c0.051-0.034,0.206-0.207,0.465-0.517v-0.027c-0.112,0.104-0.211,0.146-0.298,0.129c-0.052-0.025-0.081-0.043-0.09-0.051v-0.052
			c0.009-0.009,0.009-0.022,0-0.038l0.026-0.027c0.034-0.086,0.176-0.262,0.427-0.529l0.103-0.221c0-0.017,0.043-0.061,0.13-0.129
			l0.116-0.155l0.013-0.013l0.323-0.53c-0.207,0.138-0.457,0.302-0.75,0.491l-0.025-0.013c0.008-0.009,0.008-0.013,0-0.013
			l0.039-0.064c0.008-0.018,0.056-0.057,0.142-0.117l-0.026-0.026c0.189-0.181,0.375-0.427,0.557-0.736l-0.026-0.233
			c-0.068,0.052-0.116,0.092-0.142,0.117c-0.13,0.164-0.268,0.284-0.414,0.361L102,165.854l0.013-0.091
			c0.025-0.008,0.061-0.043,0.104-0.104c-0.043,0.053-0.082,0.083-0.116,0.092c-0.078-0.026-0.108-0.053-0.091-0.078
			c0.104-0.078,0.207-0.193,0.311-0.35l-0.014-0.038c0.061-0.086,0.13-0.181,0.207-0.284c0.061-0.035,0.1-0.091,0.116-0.168
			l-0.025-0.104c-0.052,0.052-0.104,0.095-0.155,0.129c-0.052-0.043-0.082-0.072-0.091-0.09l0.207-0.401l-0.013-0.479
			c-0.302,0.249-0.509,0.427-0.621,0.53c-0.095,0.035-0.116,0.004-0.064-0.091c0.026-0.044,0.104-0.134,0.233-0.272l-0.155-0.076
			v-0.027c0.189-0.249,0.366-0.469,0.529-0.658l-0.038-0.389c-0.146,0.164-0.311,0.354-0.491,0.569l-0.064-0.026
			c-0.026-0.018-0.018-0.052,0.025-0.104c0.052-0.111,0.107-0.207,0.168-0.285c-0.077,0.078-0.177,0.152-0.297,0.221l-0.014-0.025
			c-0.017-0.018-0.03-0.025-0.039-0.025l0.053-0.065c0.112-0.233,0.318-0.539,0.62-0.919c0.009-0.138,0.005-0.267-0.013-0.387
			c-0.112,0.154-0.198,0.254-0.259,0.297l-0.038-0.064l0.051-0.13c0.061-0.077,0.146-0.194,0.259-0.349c0-0.061,0-0.125,0-0.194
			c-0.207,0.241-0.332,0.418-0.375,0.53l-0.052-0.064l0.259-0.518c0.052-0.061,0.107-0.129,0.168-0.207
			c0-0.155-0.009-0.311-0.025-0.465c-0.233,0.318-0.388,0.518-0.466,0.595l-0.039-0.077l0.064-0.117
			c0.044-0.069,0.116-0.189,0.22-0.362c-0.025-0.025-0.038-0.042-0.038-0.052L102,160.617l0.258-0.582
			c0.018-0.034,0.021-0.064,0.014-0.09c-0.182,0.275-0.341,0.486-0.479,0.633c-0.009,0.009-0.018,0.014-0.026,0.014
			c-0.061,0.017-0.116,0.029-0.168,0.038c-0.008-0.043,0.107-0.37,0.349-0.983c0.112-0.275,0.216-0.521,0.311-0.736
			c-0.008-0.052-0.013-0.09-0.013-0.117c-0.009,0.01-0.017,0.018-0.025,0.027c-0.259,0.543-0.5,0.943-0.725,1.201
			c-0.025-0.033-0.048-0.064-0.064-0.09c0.009-0.061,0.039-0.125,0.09-0.193c-0.017,0.008-0.029,0.008-0.038,0l-0.091-0.014
			c0.034-0.104,0.069-0.229,0.104-0.375h-0.025c0.034-0.078,0.073-0.155,0.116-0.232c-0.095,0.086-0.186,0.138-0.271,0.155
			c-0.009-0.034-0.005-0.104,0.013-0.207l0.039-0.103c0.077-0.207,0.15-0.38,0.22-0.518h-0.078c0.018-0.069,0.021-0.151,0.013-0.246
			l-0.193,0.439c-0.009,0.035-0.034,0.086-0.077,0.155c-0.009,0.009-0.044,0.073-0.104,0.194c-0.061,0.104-0.125,0.143-0.194,0.116
			c-0.026-0.026-0.052-0.039-0.078-0.039l0.013-0.013c0.043-0.164,0.082-0.284,0.116-0.362c0.034-0.06,0.061-0.106,0.078-0.142
			l0.711-1.5c0.052-0.086,0.099-0.186,0.143-0.297c-0.044-0.13-0.087-0.276-0.13-0.44c-0.061,0.173-0.143,0.376-0.245,0.608
			c-0.216,0.5-0.449,0.866-0.699,1.099c-0.086-0.146-0.09-0.288-0.013-0.427c0.112-0.181,0.202-0.34,0.271-0.479
			c0.018-0.068,0.043-0.159,0.078-0.271c-0.096,0.155-0.194,0.307-0.297,0.453l0.31-0.764c0.025-0.121,0.064-0.275,0.116-0.465
			l-0.039-0.014c0.061-0.172,0.146-0.517,0.259-1.033c-0.018-0.113-0.034-0.203-0.052-0.272c-0.034,0.052-0.082,0.069-0.142,0.052
			l-0.014-0.039c-0.06,0.182-0.111,0.307-0.155,0.375c-0.034,0.087-0.056,0.134-0.064,0.143l-0.077-0.026
			c0.12-0.543,0.225-0.97,0.311-1.279c-0.026-0.173-0.035-0.315-0.026-0.427c-0.043-0.596-0.323-1.275-0.84-2.043
			c-0.543-0.776-0.806-1.189-0.789-1.242c-0.112-0.654-0.09-1.275,0.065-1.861c0.025-0.061,0.056-0.139,0.09-0.232
			c-0.146-0.146-0.284-0.289-0.414-0.428l-0.142,0.285c-0.034,0.086-0.06,0.086-0.078,0c0.043-0.155,0.078-0.297,0.104-0.426
			c-0.043-0.044-0.086-0.096-0.129-0.156c-0.069,0.173-0.112,0.289-0.129,0.35l-0.052-0.025c0.035-0.113,0.069-0.242,0.104-0.389
			c-0.025-0.068-0.073-0.138-0.142-0.207c-0.026,0.104-0.069,0.203-0.129,0.298c-0.026,0.061-0.039,0.064-0.039,0.013l-0.026-0.013
			c0.018-0.155,0.052-0.311,0.104-0.466c-0.025-0.034-0.047-0.068-0.064-0.104c0,0.053-0.004,0.104-0.013,0.156
			c-0.026,0.025-0.052,0.034-0.078,0.025c-0.008-0.053-0.021-0.104-0.039-0.155c-0.043,0.112-0.073,0.189-0.09,0.232
			c-0.025,0.069-0.043,0.087-0.052,0.052l-0.052-0.013c0.009-0.069,0.026-0.173,0.052-0.311h-0.039
			c0.009-0.044-0.03-0.284-0.117-0.724l-0.026-0.026c-0.104,0.482-0.16,0.749-0.167,0.802c-0.026,0.052-0.048,0.077-0.065,0.077
			c-0.018,0.009-0.039,0.013-0.065,0.013c0-0.086,0.017-0.254,0.052-0.504c-0.069-0.198-0.12-0.4-0.155-0.607
			c-0.112,0.475-0.181,0.759-0.207,0.854c-0.026,0.017-0.052,0.034-0.078,0.052c-0.017-0.009-0.039-0.013-0.064-0.013
			c0.095-0.535,0.181-1,0.258-1.396c0.009-0.087,0.009-0.155,0-0.207c-0.043-0.164-0.099-0.314-0.168-0.453
			c0.008,0.354,0.004,0.552-0.013,0.596c-0.034,0.076-0.052,0.09-0.052,0.039l-0.052-0.014c-0.008,0.043-0.021,0.061-0.039,0.051
			l-0.039,0.014c-0.026-0.104-0.052-0.203-0.078-0.297c-0.061,0.336-0.108,0.534-0.142,0.594c-0.018,0.07-0.035,0.07-0.052,0
			c0.017-0.396,0.047-0.788,0.09-1.176c-0.009-0.043-0.013-0.086-0.013-0.129c-0.043,0.076-0.086,0.154-0.129,0.232l-0.078-0.039
			c0.009-0.104,0.031-0.211,0.065-0.323c-0.043,0.077-0.082,0.125-0.116,0.142v-0.064c0.026-0.086,0.047-0.232,0.064-0.439
			c-0.026,0.018-0.052,0.03-0.078,0.039c0.026-0.095,0.061-0.289,0.104-0.582c0-0.061,0-0.125,0-0.193
			c0.017-0.035,0.017-0.061,0-0.078c-0.035,0.139-0.056,0.225-0.065,0.259c-0.034,0.077-0.073,0.134-0.116,0.167l-0.039-0.012
			c0.06-0.216,0.104-0.47,0.129-0.764c-0.009,0-0.021-0.014-0.039-0.038c-0.043,0.293-0.099,0.504-0.168,0.634
			c-0.086,0.189-0.155,0.332-0.207,0.426l-0.116-0.052c0.052-0.138,0.086-0.271,0.104-0.4l-0.04-0.052
			c0.018-0.121,0.052-0.242,0.104-0.361h-0.025l-0.013-0.092c-0.009,0.009-0.017,0.009-0.025,0c-0.104-0.517-0.151-0.931-0.143-1.24
			c0.017-0.043,0.026-0.082,0.026-0.117c0-0.078-0.005-0.177-0.013-0.297c0,0.051-0.004,0.099-0.013,0.142
			c-0.043-0.232-0.026-0.573,0.052-1.021c-0.043-0.232-0.078-0.479-0.104-0.737c0,0.034-0.009,0.06-0.026,0.077
			c-0.026,0.285-0.048,0.5-0.065,0.646c-0.026,0.069-0.039,0.125-0.039,0.168l0.013,0.014c0,0.086-0.008,0.138-0.025,0.154
			c-0.018,0.035-0.031,0.053-0.04,0.053h-0.051c-0.035-0.207-0.008-0.561,0.078-1.061c0.034-0.276,0.064-0.504,0.09-0.686
			c-0.008-0.086-0.008-0.155,0-0.207c-0.077-1.354-0.03-3.332,0.143-5.936c0.207-2.525,0.435-4.306,0.685-5.34
			c0.518-2.284,1.241-4.138,2.172-5.561c0.578-1.119,1.448-1.896,2.612-2.327C102.986,119.186,104.094,119.069,105.31,119.216
			L105.31,119.216z M108.038,173.523v0.013l0.35,0.35c0.086,0.087,0.159,0.159,0.22,0.22c-0.12-0.155-0.28-0.4-0.479-0.737
			C108.103,173.42,108.073,173.472,108.038,173.523z M102.568,172.695h-0.039c-0.12,0.035-0.275,0.1-0.465,0.195
			c-0.284,0.146-0.569,0.275-0.854,0.387l-0.168,0.064c0.12-0.043,0.254-0.081,0.4-0.115c-0.009-0.009-0.013-0.018-0.013-0.026
			l0.905-0.284c0.086-0.053,0.164-0.112,0.232-0.182V172.695L102.568,172.695z M107.806,175.825c-0.008,0.025-0.008,0.06,0,0.103
			c0.086,0.078,0.182,0.164,0.285,0.259c0.06,0.061,0.107,0.116,0.142,0.169c0.017,0,0.038-0.005,0.065-0.014
			C108.099,176.127,107.935,175.955,107.806,175.825z M101.34,173.536c0.13-0.009,0.264-0.048,0.401-0.116
			c0.086-0.043,0.143-0.078,0.168-0.104c-0.043,0.009-0.082,0.018-0.116,0.026h-0.013c-0.087,0.043-0.212,0.104-0.376,0.181
			L101.34,173.536L101.34,173.536z M102.465,174.959c0.009-0.035,0.03-0.069,0.064-0.104c-0.017,0-0.029,0-0.038,0
			c-0.043,0.043-0.078,0.086-0.104,0.129C102.413,174.977,102.439,174.967,102.465,174.959z"/>
	</g>
	<g id="Layer_7_6_">
		<path id="path14_5_" fill="#010101" d="M112.759,103.014c0.008,0.086,0.021,0.168,0.038,0.246
			c0.017,0.207,0.034,0.393,0.052,0.556c0-0.181,0-0.349,0-0.504C112.813,103.217,112.784,103.117,112.759,103.014z
			 M112.849,103.053c0-0.155-0.004-0.293-0.014-0.414l-0.064-0.014c-0.025-0.119-0.064-0.271-0.115-0.451
			c0.034,0.189,0.059,0.357,0.076,0.504C112.784,102.815,112.823,102.941,112.849,103.053z M112.629,101.643
			c0.034,0.061,0.061,0.121,0.077,0.182c-0.025-0.129-0.056-0.25-0.09-0.362C112.616,101.522,112.62,101.583,112.629,101.643z
			 M112.564,100.945c0.009,0.104,0.021,0.211,0.038,0.322c0.078,0.146,0.143,0.405,0.194,0.776c0.017,0.026,0.026,0.056,0.026,0.091
			c0.061,0.146,0.082,0.25,0.064,0.311l0.013,0.013c0.017,0.033,0.029,0.069,0.038,0.11c-0.033-0.178-0.064-0.354-0.09-0.524
			c-0.043-0.216-0.09-0.418-0.143-0.608C112.655,101.264,112.607,101.1,112.564,100.945z M112.435,100.053
			c0.009,0.043,0.014,0.082,0.014,0.116c0.061,0.086,0.111,0.173,0.154,0.259C112.552,100.307,112.495,100.182,112.435,100.053z
			 M110.301,94.803c0.13,0.207,0.246,0.427,0.35,0.66c0.009,0,0.013,0.004,0.013,0.013c0.096,0.103,0.173,0.194,0.232,0.271
			c-0.068-0.111-0.129-0.189-0.18-0.232c0.162,0.121,0.293,0.237,0.387,0.35c-0.094-0.189-0.236-0.384-0.426-0.582
			C110.59,95.161,110.466,95.002,110.301,94.803L110.301,94.803z M109.124,92.98c-0.051-0.044-0.115-0.1-0.193-0.168
			c0.111,0.146,0.229,0.275,0.35,0.387c0.061,0.061,0.119,0.121,0.18,0.182c0.096,0.051,0.178,0.086,0.246,0.104
			c-0.129-0.112-0.258-0.225-0.388-0.336c0,0.008-0.013,0.008-0.038,0C109.21,93.096,109.159,93.04,109.124,92.98z M108.736,91.648
			c0,0.077-0.005,0.15-0.013,0.219c0.018,0.061,0.039,0.117,0.064,0.169c0.026,0.06,0.043,0.116,0.052,0.168
			c0.009-0.138,0-0.275-0.025-0.413c0-0.044,0-0.092,0-0.143c-0.009-0.026-0.022-0.057-0.039-0.091
			c0.009-0.017,0.017-0.026,0.026-0.026c-0.035-0.095-0.07-0.193-0.104-0.297C108.716,91.363,108.728,91.502,108.736,91.648z
			 M107.263,86.825c0.025,0.052,0.039,0.086,0.039,0.103c0.008,0.061,0.017,0.109,0.025,0.143c0.379,0.232,0.612,0.405,0.698,0.518
			l-0.013,0.025c-0.078-0.034-0.229-0.125-0.453-0.271c0.303,0.259,0.526,0.5,0.673,0.725c-0.087-0.078-0.289-0.25-0.608-0.518
			c0.018,0.026,0.021,0.043,0.014,0.052l0.013,0.013c0.087,0.069,0.159,0.139,0.22,0.207c0.318,0.354,0.518,0.634,0.595,0.841
			c-0.043-0.044-0.267-0.311-0.673-0.802c-0.06-0.068-0.124-0.129-0.193-0.181h-0.013c0.12,0.189,0.224,0.379,0.31,0.568
			c0.027,0.026,0.044,0.048,0.053,0.065h0.013c0.146,0.172,0.275,0.354,0.388,0.543c0.207,0.318,0.379,0.703,0.518,1.15
			l-0.014-0.013c-0.207-0.44-0.408-0.815-0.607-1.126c-0.061-0.12-0.129-0.229-0.207-0.322h-0.013
			c0.06,0.094,0.099,0.193,0.116,0.297c0.018,0,0.021,0.005,0.014,0.014c0.232,0.396,0.413,0.797,0.543,1.202
			c0.104,0.225,0.154,0.375,0.154,0.452c0,0.053-0.008,0.078-0.025,0.078v0.025h-0.013c-0.078-0.232-0.173-0.465-0.284-0.698
			c-0.018-0.06-0.035-0.116-0.053-0.168c-0.008-0.034-0.029-0.073-0.064-0.116c0.035,0.104,0.061,0.215,0.078,0.336
			c0.025,0.052,0.056,0.117,0.09,0.194c-0.018-0.077-0.034-0.159-0.051-0.246c0.215,0.673,0.336,1.104,0.361,1.294
			c0.043,0.154,0.082,0.301,0.117,0.439c0.025,0.189,0.039,0.357,0.039,0.504c-0.01,0.104-0.035,0.203-0.078,0.297l0.025,0.025
			c0.414,0.458,0.621,0.712,0.621,0.764c0.077,0.069,0.159,0.139,0.246,0.207c-0.01-0.018-0.022-0.034-0.039-0.052
			c-0.018-0.017-0.031-0.03-0.039-0.038c0.095,0.043,0.164,0.076,0.207,0.104h0.013c0.009,0.008,0.009,0.017,0,0.025
			c0.017,0.008,0.026,0.018,0.026,0.025c0.025,0.018,0.038,0.057,0.038,0.117c-0.009,0.033-0.017,0.056-0.026,0.064
			c-0.008,0-0.021,0-0.038,0c-0.026-0.026-0.056-0.043-0.091-0.053c-0.017,0.01-0.039,0.01-0.064,0
			c-0.052,0.01-0.095,0.006-0.129-0.012c0.111,0.104,0.219,0.215,0.322,0.336c0.147,0.129,0.242,0.229,0.285,0.297
			c-0.008-0.008-0.039-0.025-0.09-0.052c0.172,0.216,0.293,0.405,0.361,0.569c0.336,0.414,0.513,0.686,0.53,0.814
			c0.163,0.268,0.241,0.457,0.232,0.568c0.026,0.061,0.044,0.112,0.052,0.156c-0.018,0.06-0.034,0.077-0.052,0.051
			c-0.026-0.06-0.081-0.143-0.168-0.245c0.087,0.12,0.13,0.206,0.13,0.259c-0.01,0.052-0.018,0.061-0.027,0.025
			c-0.043-0.034-0.081-0.078-0.115-0.129c0.034,0.061,0.057,0.112,0.064,0.155c0.475,0.56,0.918,1.271,1.332,2.134l-0.039,0.013
			c-0.285-0.423-0.568-0.828-0.854-1.216c0.146,0.232,0.303,0.5,0.465,0.801c-0.086-0.111-0.193-0.236-0.322-0.374
			c0.388,0.577,0.707,1.129,0.957,1.655h-0.039c-0.138-0.207-0.371-0.526-0.697-0.957c0.016,0.025,0.025,0.043,0.025,0.052
			c0.043,0.112,0.077,0.229,0.104,0.349c0.12,0.182,0.301,0.557,0.543,1.125c0.258,0.655,0.379,1.043,0.361,1.164
			c0,0.018,0,0.03,0,0.039h-0.025c-0.371-0.991-0.646-1.716-0.828-2.172c0.035,0.137,0.061,0.275,0.078,0.413
			c0.112,0.25,0.22,0.487,0.323,0.711l-0.026,0.013c-0.059-0.073-0.114-0.146-0.168-0.22c0.13,0.233,0.242,0.496,0.336,0.789
			c0.104,0.146,0.199,0.302,0.285,0.466c0.146,0.275,0.275,0.539,0.388,0.788l-0.038,0.026c-0.096-0.034-0.173-0.107-0.232-0.22
			c-0.061-0.112-0.131-0.22-0.207-0.323c0.051,0.197,0.072,0.393,0.064,0.582c0.008,0.043,0.008,0.077,0,0.104l-0.026-0.014
			c-0.009-0.034-0.017-0.068-0.026-0.104c-0.008-0.258-0.043-0.508-0.104-0.75c-0.086-0.181-0.189-0.361-0.309-0.543
			c0.154,0.38,0.271,0.811,0.348,1.293c0.035,0.276,0.065,0.548,0.091,0.814l-0.013,0.014c0.051,0.241,0.068,0.409,0.051,0.504
			c0,0.069-0.004,0.113-0.012,0.13h-0.026c-0.017-0.19-0.034-0.384-0.052-0.582c0.009,0.189,0.014,0.357,0.014,0.504
			c0.061,0.147,0.076,0.246,0.051,0.298c0,0.095-0.013,0.121-0.038,0.077c0-0.026-0.005-0.061-0.013-0.104
			c-0.018,0.163-0.053,0.289-0.104,0.375l-0.014-0.013c0.018,0.086,0.026,0.164,0.026,0.232c0.034,0.025,0.052,0.057,0.052,0.091
			h-0.052c-0.009,0.052-0.018,0.116-0.026,0.194c0.009,0.068-0.004,0.133-0.039,0.193c0.035,0.509,0.043,0.846,0.027,1.009
			c0,0.103-0.005,0.163-0.014,0.181c-0.018,0.078-0.047,0.143-0.091,0.194h-0.026c0-0.13,0.005-0.263,0.014-0.401
			c-0.025,0.061-0.052,0.117-0.078,0.169c0.018,0.353,0.026,0.586,0.026,0.698c0,0.043-0.005,0.072-0.013,0.09
			c0.008,0,0.004,0.009-0.014,0.025c0.01,0.027,0.014,0.049,0.014,0.065c0.051,0.181,0.072,0.323,0.064,0.427
			c-0.009,0.096-0.035,0.16-0.078,0.193c0.069,0.293,0.156,0.733,0.259,1.319c0.207,0.397,0.307,0.646,0.298,0.75
			c0,0.052-0.005,0.086-0.014,0.104h-0.012c-0.035,0-0.057-0.009-0.065-0.026c-0.009-0.008-0.021-0.025-0.038-0.051
			c-0.018-0.112-0.053-0.229-0.104-0.35c0.068,0.336,0.121,0.729,0.154,1.177c0.346,0.793,0.561,1.288,0.646,1.487
			c-0.086-0.129-0.202-0.332-0.349-0.607c0.155,0.318,0.293,0.654,0.414,1.008c-0.026,0.018-0.052,0.018-0.078,0
			c-0.146-0.361-0.345-0.807-0.595-1.332c0,0.018,0.004,0.039,0.014,0.064c0.06,0.13,0.12,0.285,0.181,0.466
			c0.267,0.62,0.474,1.151,0.62,1.591c-0.259-0.439-0.518-0.991-0.775-1.655c0.008,0.104,0.018,0.198,0.025,0.284
			c0.069,0.189,0.139,0.393,0.207,0.608c-0.061-0.155-0.129-0.302-0.207-0.44c0.018,0.189,0.035,0.384,0.053,0.582
			c0.543,0.906,0.844,1.432,0.904,1.578c-0.008,0.034-0.025,0.047-0.051,0.039c-0.165-0.25-0.315-0.483-0.453-0.699
			c0.034,0.096,0.072,0.198,0.116,0.311l-0.039-0.013c-0.103-0.216-0.241-0.491-0.413-0.827c-0.018-0.01-0.031-0.027-0.039-0.053
			c0,0.035,0,0.078,0,0.13c0.035,0.052,0.068,0.108,0.104,0.168c0.129,0.21,0.245,0.404,0.349,0.582
			c0.214,0.368,0.374,0.665,0.479,0.892c0,0.018-0.013,0.026-0.038,0.026c-0.009-0.009-0.053-0.073-0.129-0.194
			c0.033,0.078,0.051,0.129,0.051,0.156c0,0.043-0.004,0.068-0.014,0.076l-0.025,0.014l-0.09-0.014
			c0.034,0.07,0.068,0.139,0.103,0.208c0.061,0.086,0.126,0.167,0.194,0.245l-0.025,0.039c0.061,0.104,0.09,0.168,0.09,0.193
			c-0.008,0.035-0.021,0.052-0.039,0.052c0-0.009-0.013-0.013-0.039-0.013c-0.258-0.379-0.473-0.703-0.646-0.97
			c-0.077-0.12-0.164-0.237-0.259-0.349c0,0.068,0.004,0.143,0.013,0.22c0.354,0.474,0.587,0.862,0.698,1.163h-0.039
			c-0.111-0.181-0.332-0.486-0.659-0.918c0,0.035,0.005,0.082,0.013,0.143c0.087,0.111,0.164,0.225,0.233,0.336
			c0.009,0.009,0.021,0.021,0.038,0.039c0.189,0.293,0.324,0.53,0.401,0.711h-0.052c0.121,0.164,0.177,0.254,0.168,0.271
			l-0.014,0.014c0.027,0.043,0.044,0.081,0.053,0.115c0.241,0.38,0.361,0.591,0.361,0.634c0,0.034-0.004,0.052-0.013,0.052
			c0-0.008-0.021-0.004-0.064,0.014c-0.121-0.139-0.25-0.303-0.388-0.492c-0.018,0.035-0.052,0.053-0.104,0.053
			c0.018,0.018,0.029,0.033,0.039,0.051c0.154,0.173,0.331,0.414,0.529,0.725c0.293,0.447,0.439,0.707,0.439,0.775
			c0.19,0.182,0.342,0.341,0.453,0.479c-0.328-0.268-0.596-0.496-0.803-0.686c-0.042-0.018-0.081-0.047-0.115-0.09
			c0.034,0.061,0.068,0.107,0.104,0.143c0.034,0.025,0.064,0.047,0.09,0.064c0.328,0.224,0.487,0.366,0.479,0.426
			c0,0.026-0.004,0.057-0.013,0.091l-0.026,0.013l-0.038,0.014c-0.009,0.008-0.026,0.008-0.052,0c-0.043,0-0.143-0.035-0.297-0.104
			c0,0.034,0,0.068,0,0.104c0.06,0.051,0.125,0.121,0.193,0.207c0.043,0.034,0.091,0.064,0.143,0.09
			c0.268,0.276,0.49,0.509,0.672,0.699c-0.129-0.104-0.31-0.242-0.543-0.414c0,0.017-0.013,0.025-0.039,0.025
			c-0.051-0.068-0.095-0.129-0.129-0.181c0.009,0.017,0.018,0.048,0.025,0.091c0.139,0.206,0.203,0.327,0.195,0.361l-0.014,0.078
			l-0.129-0.014c-0.009,0.053-0.018,0.078-0.026,0.078l-0.298-0.014c0.018,0.01,0.039,0.021,0.065,0.039c0,0.009,0,0.025,0,0.052
			c0,0.112-0.038,0.138-0.116,0.078c-0.035,0-0.078-0.022-0.129-0.065c-0.01,0.078-0.018,0.121-0.026,0.13
			c-0.009-0.009-0.03-0.005-0.065,0.013c-0.068,0-0.129-0.004-0.18-0.013c0.068,0.103,0.15,0.206,0.245,0.31
			c-0.017,0.018-0.035,0.026-0.052,0.026c0.008,0.018,0.017,0.03,0.025,0.039c0.096,0.025,0.173,0.034,0.232,0.025
			c0.027,0,0.053,0,0.078,0h0.053c-0.027-0.018-0.087-0.06-0.182-0.129c-0.078-0.061-0.129-0.104-0.155-0.13
			c0.086-0.018,0.186,0.031,0.297,0.143c0.138,0.095,0.207,0.173,0.207,0.232c-0.009,0.044-0.022,0.064-0.038,0.064l-0.271-0.025
			c0.034,0.035,0.06,0.061,0.077,0.078c0,0.018-0.005,0.025-0.013,0.025c-0.009,0-0.03,0-0.064,0c-0.027,0-0.057-0.004-0.092-0.013
			c-0.008,0-0.017-0.005-0.025-0.013c-0.061-0.01-0.143-0.031-0.246-0.064v0.025c-0.033,0-0.077-0.004-0.129-0.014v0.026
			c0,0.009-0.004,0.017-0.014,0.026l0.078-0.014v0.052c-0.008,0.026-0.013,0.052-0.013,0.078c0.13,0,0.237,0.009,0.323,0.026
			c0.138,0.033,0.207,0.086,0.207,0.154c-0.009,0.034-0.021,0.057-0.039,0.064l-0.426-0.025c-0.104,0-0.229-0.014-0.375-0.039
			l-0.246-0.025c-0.078,0.086-0.182,0.168-0.311,0.245c0.319,0,0.729,0.009,1.229,0.026v-0.014c0.009,0,0.014,0.018,0.014,0.053
			c-0.018,0.043-0.027,0.072-0.027,0.09l-0.012-0.013c-0.13,0-0.255,0-0.375,0c0.086,0.017,0.143,0.026,0.168,0.026l0.154,0.232
			c-0.025,0.104-0.037,0.133-0.037,0.09h-0.078c-0.026,0-0.057-0.008-0.092-0.025c-0.336,0.086-0.801,0.168-1.396,0.246
			c-0.009,0.034-0.013,0.056-0.013,0.064c0.318,0.051,0.715,0.082,1.189,0.09c0.121,0,0.229-0.021,0.323-0.064
			c0,0.025,0.021,0.047,0.065,0.064c-0.035,0-0.092,0-0.169,0v0.026c0.095-0.009,0.198-0.013,0.31-0.013v0.077
			c-0.025,0.009-0.043,0.022-0.051,0.038c-0.035,0.01-0.057,0.01-0.064,0l0.013,0.053c-0.095,0.043-0.323,0.121-0.685,0.232
			c-0.146,0.061-0.303,0.125-0.467,0.193l0.053,0.117c-0.053,0.025-0.108,0.051-0.168,0.077c0.379-0.13,0.672-0.22,0.879-0.271
			v0.077c-0.199,0.156-0.634,0.371-1.307,0.646c0.096,0.009,0.146,0.027,0.156,0.053c-0.07,0.086-0.217,0.186-0.44,0.297
			l0.026,0.013c0.242-0.12,0.436-0.22,0.582-0.298c0.354-0.172,0.521-0.197,0.504-0.076c-0.008,0.043-0.117,0.129-0.323,0.258v0.026
			c-0.026,0.163-0.331,0.396-0.918,0.698c-0.026,0.086-0.057,0.176-0.091,0.271c0.052-0.026,0.107-0.048,0.168-0.064
			c0.949-0.414,1.319-0.531,1.112-0.35c-0.112,0.104-0.35,0.246-0.712,0.427c-0.137,0.112-0.288,0.228-0.451,0.349
			c0.706-0.354,1.146-0.543,1.318-0.568v0.091c-0.259,0.129-0.639,0.331-1.139,0.607c-0.111,0.095-0.306,0.245-0.581,0.452
			c0,0.035-0.013,0.078-0.039,0.13c0.966-0.62,1.444-0.866,1.437-0.737c0,0.035-0.363,0.284-1.088,0.75
			c-0.051,0.052-0.098,0.086-0.142,0.104c-0.034,0.068-0.069,0.129-0.103,0.181c-0.009,0.034-0.018,0.06-0.026,0.077
			c0,0.044-0.03,0.096-0.091,0.156v0.038c0.551-0.327,0.893-0.513,1.021-0.556l-0.039,0.116c-0.224,0.138-0.564,0.354-1.021,0.646
			c-0.008,0.017-0.018,0.034-0.025,0.052c0.197-0.121,0.375-0.215,0.529-0.285c0-0.068,0.039-0.094,0.117-0.077v0.052
			c0.061-0.034,0.121-0.047,0.181-0.039c0.354-0.181,0.599-0.318,0.737-0.414v0.092c-0.361,0.275-0.936,0.65-1.719,1.125
			c-0.01,0.008-0.031,0.029-0.065,0.064c-0.026,0.025-0.112,0.111-0.259,0.258c-0.018,0.043-0.034,0.086-0.052,0.129
			c0.276-0.232,0.482-0.392,0.62-0.478c-0.103,0.146-0.271,0.319-0.504,0.517c0.242-0.138,0.6-0.354,1.073-0.646
			c0.009,0.026,0.013,0.043,0.013,0.052c-0.129,0.13-0.289,0.255-0.479,0.375h0.014c0.008,0.018,0.018,0.039,0.025,0.065
			c-0.008,0.111-0.215,0.297-0.621,0.556v0.013c-0.146,0.104-0.279,0.211-0.4,0.324c-0.034,0.094-0.068,0.197-0.104,0.31
			c0.035-0.034,0.057-0.063,0.064-0.091c0.018,0.027,0.031,0.043,0.039,0.052c-0.043,0.087-0.107,0.186-0.193,0.298
			c-0.053,0.155-0.1,0.311-0.143,0.465c0.379-0.301,0.616-0.452,0.711-0.452c0.053,0,0.069,0.005,0.053,0.013l-0.014,0.064
			c-0.096,0.096-0.389,0.362-0.879,0.803l-0.091,0.284c0.293-0.241,0.457-0.388,0.491-0.44l0.039,0.053
			c-0.043,0.068-0.135,0.181-0.271,0.336c-0.199,0.189-0.297,0.297-0.297,0.323h0.012l0.207-0.181
			c0.018,0.018,0.035,0.034,0.053,0.051l-0.014,0.078c0,0.043-0.125,0.216-0.375,0.518c-0.018,0-0.025,0.008-0.025,0.025
			c-0.009,0.069-0.018,0.139-0.026,0.207c0.044-0.034,0.069-0.056,0.077-0.064l0.064,0.025v0.014c0,0.009,0,0.021,0,0.039
			c0,0.051-0.06,0.142-0.18,0.271c0.008,0.06,0.004,0.121-0.014,0.181l0.207-0.155c0.052,0.009,0.073,0.021,0.064,0.039v0.013
			c0.009,0.018,0.018,0.03,0.026,0.038c-0.009,0.01-0.013,0.026-0.013,0.053c-0.018,0.025-0.113,0.086-0.285,0.181l-0.014,0.013
			c-0.008,0.061-0.016,0.116-0.025,0.168c0.025-0.008,0.043-0.025,0.053-0.052c0.172-0.06,0.267-0.086,0.283-0.077
			c0.035-0.009,0.048-0.005,0.039,0.013v0.013c0,0.035,0,0.074,0,0.117c0.018,0.051,0.021,0.09,0.014,0.116
			c-0.01,0.077-0.146,0.206-0.414,0.388c-0.155,1.629-0.198,3.008-0.129,4.138c0.086,1.552,0.236,2.405,0.452,2.56
			c0.25,0.173,0.396,0.276,0.44,0.311c0.56,0.518,0.586,1.182,0.076,1.992c0.656,0.748,0.496,1.34-0.478,1.771l-0.091-0.013
			c-0.121,0.146-0.268,0.246-0.439,0.297c-0.303,0.052-0.664-0.138-1.086-0.568c0-0.008-0.01-0.021-0.025-0.039
			c-0.01,0.018-0.027,0.031-0.053,0.039c-0.345,0.207-0.664,0.22-0.957,0.039c-0.061-0.035-0.211-0.178-0.453-0.427
			c-0.249-0.276-0.676-0.867-1.279-1.772c-0.414-0.654-0.754-1.125-1.021-1.408c-0.034-0.113-0.073-0.189-0.117-0.232
			c-0.154-0.251-0.21-0.578-0.167-0.984c0.034,0.113,0.086,0.251,0.154,0.414c-0.068-0.215-0.129-0.4-0.181-0.555
			c-0.009-0.018-0.013-0.039-0.013-0.064c-0.087-0.26-0.138-0.44-0.155-0.545c-0.207,0.182-0.418,0.351-0.634,0.505l-0.621,0.414
			c-1.086-0.552-1.211-1.138-0.375-1.759c0.182-0.121,0.341-0.241,0.479-0.361c-0.034-0.129-0.038-0.268-0.013-0.414
			c0.164-0.328,0.289-0.617,0.375-0.866c0.104-0.259,0.194-0.557,0.271-0.893c0.034-0.146,0.057-0.302,0.064-0.466
			c0.44,0.311,0.897-0.345,1.371-1.965c-0.086,0.189-0.133,0.279-0.142,0.271c-0.044-0.009-0.069-0.021-0.078-0.039l-0.013-0.039
			c0.008-0.094,0.013-0.168,0.013-0.22c0-0.034,0-0.077,0-0.129s0.038-0.173,0.116-0.362h-0.013
			c0.009-0.025,0.021-0.034,0.039-0.025c0.009-0.078,0.034-0.164,0.077-0.259v-0.013c0.078-0.164,0.143-0.298,0.193-0.401
			c-0.051,0.052-0.094,0.091-0.129,0.116c0.061-0.146,0.139-0.318,0.232-0.518c-0.025,0.035-0.051,0.069-0.076,0.104l-0.014-0.012
			c-0.008,0.033-0.018,0.016-0.025-0.053c0.018-0.034,0.095-0.22,0.232-0.556c-0.009,0.009-0.025,0.013-0.052,0.013
			c-0.018-0.009-0.03-0.013-0.038-0.013c0.008-0.026,0.008-0.048,0-0.065c0.12-0.232,0.241-0.512,0.361-0.84
			c0.008-0.155,0.021-0.34,0.039-0.557c-0.164,0.346-0.289,0.57-0.375,0.673c0.146-0.379,0.279-0.711,0.4-0.995
			c0-0.189,0.005-0.4,0.014-0.634c-0.053,0.164-0.13,0.353-0.233,0.569v-0.078c0.087-0.25,0.177-0.479,0.272-0.686
			c0.008-0.24,0.025-0.496,0.051-0.762c0-0.053,0.004-0.091,0.014-0.117c-0.01-0.017-0.01-0.043,0-0.078
			c-0.199,0.526-0.342,0.854-0.428,0.982l-0.051-0.025c0.197-0.525,0.375-1,0.529-1.422c-0.008-0.035-0.012-0.068-0.012-0.104
			c-0.053,0.146-0.109,0.289-0.169,0.427c-0.017,0.017-0.03,0.013-0.038-0.013l0.232-0.686c0.111-2.018-0.048-4.211-0.479-6.582
			c-0.5-2.801-0.737-5.061-0.711-6.775c0.025-1.715-0.319-3.611-1.035-5.689c-0.268-0.732-0.526-1.534-0.776-2.404
			c-0.379-1.242-0.741-2.612-1.086-4.112c-0.095-0.414-0.181-0.819-0.258-1.216c-0.354-0.482-0.673-0.99-0.957-1.525l-0.711-2.134
			l0.349,2.276c-0.233-0.716-0.392-1.462-0.478-2.237c-0.216-0.733-0.367-1.495-0.453-2.288c-0.026-0.121-0.043-0.246-0.052-0.375
			c-0.025-0.217-0.043-0.423-0.051-0.621c-0.104-1.828,0.444-3.232,1.642-4.215c0.371-0.303,0.793-0.57,1.268-0.803
			c0.138-0.061,0.284-0.116,0.439-0.168c1.017-0.474,1.939-0.349,2.768,0.375c0.043,0.052,0.082,0.1,0.116,0.143
			c0.362,0.362,0.681,0.736,0.957,1.125L107.263,86.825L107.263,86.825z M112.46,106.44l-0.012,0.013
			c0.033,0.207,0.064,0.41,0.09,0.607c0.026,0.035,0.057,0.121,0.091,0.259c0-0.06-0.005-0.124-0.013-0.194
			c0-0.043-0.009-0.09-0.026-0.142c-0.026-0.095-0.052-0.198-0.077-0.31C112.486,106.588,112.47,106.51,112.46,106.44L112.46,106.44
			z M113.405,117.923v0.013c0.007,0,0.012,0.004,0.012,0.013C113.417,117.939,113.412,117.93,113.405,117.923z M113.767,117.703
			c0.035,0.025,0.061,0.051,0.078,0.078l0.271,0.258c0.008,0.018,0.021,0.039,0.038,0.064c0,0.009,0.005,0.021,0.013,0.039
			l0.233,0.232c0.12,0.112,0.232,0.229,0.336,0.35c-0.009,0-0.017,0-0.026,0c0.043,0.043,0.092,0.086,0.143,0.129l-0.013,0.064
			c0.052,0.043,0.125,0.091,0.22,0.143c0.035,0.043,0.064,0.078,0.091,0.104c0,0.008,0.005,0.013,0.013,0.013l-0.013-0.026
			c-0.026-0.086-0.077-0.207-0.155-0.361c-0.061-0.112-0.112-0.194-0.155-0.246c-0.026-0.025-0.048-0.043-0.065-0.051l0.014-0.014
			c-0.293-0.181-0.568-0.405-0.828-0.672c-0.061-0.025-0.125-0.069-0.193-0.13V117.703L113.767,117.703z M113.896,116.396h-0.013
			c0.095,0.129,0.181,0.298,0.259,0.504c0.018,0.096,0.043,0.174,0.078,0.233c0.008,0.009,0.016,0.017,0.025,0.026
			c0.043,0.068,0.082,0.125,0.116,0.168c0.112,0.095,0.233,0.197,0.362,0.311c-0.129-0.182-0.268-0.38-0.414-0.596
			C114.154,116.768,114.017,116.553,113.896,116.396z M113.417,115.375v0.014c0.01,0.043,0.026,0.077,0.053,0.104h0.013
			C113.448,115.457,113.427,115.419,113.417,115.375z M113.405,113.63c0.033,0.069,0.061,0.134,0.077,0.194
			c0.034,0.043,0.064,0.081,0.091,0.115C113.516,113.833,113.46,113.729,113.405,113.63z M113.327,119.28l0.013-0.013
			c0.009-0.009,0.009-0.013,0-0.013L113.327,119.28z M113.96,119.604c-0.033-0.034-0.061-0.061-0.077-0.077h-0.065
			c0.044,0.025,0.082,0.052,0.117,0.077H113.96z M113.999,119.836c-0.043-0.043-0.086-0.072-0.129-0.09
			c-0.025,0.008-0.052,0.018-0.077,0.025C113.861,119.789,113.931,119.811,113.999,119.836z M113.806,119.189
			c0.008,0.009,0.018,0.014,0.025,0.014c-0.025-0.026-0.047-0.057-0.064-0.091c-0.025-0.009-0.052-0.021-0.077-0.039
			C113.731,119.125,113.771,119.164,113.806,119.189z M113.378,118.737c0,0.009,0,0.021,0,0.039
			c0.035,0.009,0.074,0.021,0.117,0.038L113.378,118.737L113.378,118.737z M113.417,119.177h0.014c0.035,0,0.069,0.005,0.104,0.013
			c-0.01-0.008-0.021-0.025-0.039-0.051C113.478,119.146,113.452,119.16,113.417,119.177z M113.612,119.514l-0.298-0.014
			c-0.009,0.061-0.013,0.117-0.013,0.168l0.451-0.051C113.693,119.582,113.646,119.548,113.612,119.514z M113.224,120.289
			l0.207,0.013c0.336-0.077,0.577-0.13,0.725-0.155c-0.328-0.034-0.625-0.068-0.893-0.104
			C113.254,120.121,113.241,120.203,113.224,120.289z M113.443,120.6c-0.069,0.008-0.151,0.021-0.246,0.038
			c-0.009,0.018-0.013,0.034-0.013,0.052c0.043,0,0.078,0.004,0.104,0.014C113.349,120.66,113.4,120.625,113.443,120.6z
			 M113.03,121.75c0.111,0.009,0.215,0.018,0.31,0.025c0.13-0.017,0.288-0.038,0.479-0.063c-0.38,0-0.62,0-0.724,0
			c-0.018-0.009-0.039-0.014-0.064-0.014C113.03,121.716,113.03,121.732,113.03,121.75z M113.96,121.104
			c-0.077,0.025-0.181,0.068-0.31,0.129c0.198-0.025,0.37-0.051,0.517-0.077C114.056,121.155,113.987,121.138,113.96,121.104z
			 M114.388,120.354c0.008,0.052,0.004,0.068-0.014,0.052c-0.017,0-0.034,0.005-0.051,0.013c0.043,0,0.099-0.004,0.168-0.013
			c-0.026,0-0.053-0.017-0.078-0.052C114.413,120.361,114.405,120.361,114.388,120.354z M114.413,118.932
			c0.025,0.043,0.039,0.09,0.039,0.142c0.008,0,0.018,0.009,0.025,0.026c0.173,0.051,0.311,0.09,0.414,0.116
			C114.753,119.129,114.595,119.034,114.413,118.932z M114.181,118.569c0.018,0.018,0.029,0.034,0.039,0.052
			c0.281,0.189,0.526,0.342,0.736,0.452c-0.012-0.01-0.02-0.022-0.025-0.039c-0.035-0.025-0.069-0.052-0.104-0.077
			c-0.129-0.095-0.293-0.216-0.492-0.362c-0.025-0.017-0.06-0.03-0.104-0.038C114.224,118.564,114.206,118.569,114.181,118.569z
			 M114.426,118.052c-0.025-0.018-0.056-0.03-0.091-0.038c0.078,0.077,0.151,0.146,0.221,0.206
			C114.513,118.16,114.47,118.104,114.426,118.052z M114.698,118.22c0-0.008-0.01-0.017-0.027-0.026
			c0.01,0.026,0.027,0.053,0.053,0.078C114.724,118.254,114.715,118.237,114.698,118.22z M114.116,121.064
			c-0.02,0-0.045-0.004-0.078-0.013c-0.017,0.009-0.029,0.013-0.039,0.013C114.025,121.064,114.064,121.064,114.116,121.064z
			 M113.185,120.961c-0.008,0.009-0.025,0.018-0.051,0.025c-0.018,0.096-0.035,0.19-0.053,0.285c0.043,0,0.078-0.004,0.104-0.013
			c0.328-0.104,0.578-0.181,0.75-0.233c-0.112-0.06-0.25-0.104-0.414-0.129c-0.104,0-0.189,0.004-0.258,0.014
			C113.236,120.918,113.211,120.936,113.185,120.961z M112.913,122.332l-0.014,0.039c0.044-0.035,0.096-0.061,0.156-0.078
			C112.995,122.302,112.948,122.314,112.913,122.332z M113.106,121.982c-0.043,0.018-0.086,0.03-0.129,0.039
			c-0.008,0.026-0.013,0.061-0.013,0.104c0.544-0.155,1.005-0.271,1.384-0.35c-0.182,0.018-0.302,0.03-0.361,0.039
			C113.831,121.832,113.538,121.888,113.106,121.982L113.106,121.982z M112.616,123.625c0.154-0.095,0.301-0.186,0.439-0.271
			c-0.121,0.061-0.237,0.116-0.35,0.168c-0.017,0.017-0.039,0.029-0.064,0.039C112.642,123.577,112.633,123.6,112.616,123.625z
			 M110.716,131.241c-0.027,0.025-0.057,0.056-0.092,0.091l0.039-0.014c0-0.009,0.004-0.009,0.014,0l0.039-0.013V131.241z
			 M110.806,129.664c-0.069,0.068-0.129,0.115-0.182,0.142l-0.025,0.091C110.685,129.811,110.754,129.732,110.806,129.664z
			 M112.008,125.604c0.026-0.043,0.052-0.082,0.078-0.117c-0.026,0.026-0.044,0.039-0.052,0.039
			C112.034,125.543,112.025,125.568,112.008,125.604z M112.383,124.427c0.018-0.018,0.039-0.03,0.065-0.039
			c-0.018,0-0.039,0.005-0.065,0.013V124.427z M112.771,122.953c0,0.033-0.004,0.068-0.012,0.103
			c0.077-0.052,0.163-0.091,0.258-0.116l-0.051-0.039C112.913,122.926,112.849,122.943,112.771,122.953z M110.431,131.564
			c0.068-0.035,0.111-0.073,0.129-0.117c-0.025,0.009-0.068,0.039-0.129,0.092C110.431,131.547,110.431,131.556,110.431,131.564z"/>
	</g>
	<g id="Layer_8_5_">
		<path id="path17_7_" fill="#010101" d="M105.349,85.727c1.078-0.078,1.85,0.396,2.314,1.422c0.457,1.034,0.686,2.077,0.686,3.129
			c0,0.404-0.034,0.802-0.104,1.189c-0.009,0.061-0.013,0.121-0.013,0.182c-0.146,0.681-0.37,1.361-0.673,2.043
			c0.543,1.551,0.789,3.121,0.738,4.706c0.146,0.259,0.244,0.651,0.297,1.177c0.068,1.086-0.164,2.4-0.699,3.944
			c-0.482,1.405-0.762,2.22-0.84,2.443c-0.311,0.673-0.616,1.146-0.918,1.423c-0.043,0.181-0.082,0.361-0.116,0.543
			c0.017,0.189,0.025,0.387,0.025,0.595c0.146,2.405-0.698,5.646-2.535,9.724c-0.292,0.604-1.202,2.056-2.728,4.357
			c0.026,0.035,0.052,0.082,0.078,0.143c0.155,0.302,0.233,0.486,0.233,0.555c0,0.053-0.013,0.061-0.039,0.027
			c0.026,0.077,0.043,0.15,0.052,0.22s0.004,0.112-0.013,0.129c-0.035,0.061-0.099,0.112-0.194,0.155
			c0.008,0.052,0.017,0.107,0.026,0.168l-0.026-0.013c-0.026-0.052-0.069-0.121-0.129-0.207c-0.026,0-0.056-0.018-0.091-0.052
			c0.259,0.422,0.393,0.664,0.401,0.725v0.039l-0.065-0.014l-0.245-0.324c0.104,0.174,0.16,0.276,0.168,0.311
			c0.008,0.044,0.008,0.078,0,0.104c-0.009,0-0.026,0.004-0.052,0.013c-0.026,0-0.051-0.009-0.078-0.025
			c0.035,0.051,0.052,0.086,0.052,0.103c0.009,0.026,0.009,0.038,0,0.038l-0.064,0.053c-0.034-0.026-0.06-0.043-0.078-0.053
			c-0.026-0.043-0.056-0.086-0.091-0.129h-0.025l-0.181-0.168l0.039-0.025c0,0.008,0.009,0.021,0.026,0.038
			c-0.017-0.06-0.052-0.116-0.104-0.168c-0.017-0.026-0.043-0.06-0.077-0.103l-0.013,0.012c0,0.018-0.008,0.039-0.026,0.064
			c0.018,0,0.026,0.01,0.026,0.027c0.129,0.224,0.229,0.409,0.297,0.555l-0.026,0.027c0,0.017,0,0.037,0,0.064
			c0.017,0.008,0.017,0.029,0,0.064c-0.017,0.017-0.034,0.047-0.051,0.09c-0.026-0.043-0.065-0.09-0.117-0.142
			c0.009,0.017,0.009,0.03,0,0.038c0.129,0.155,0.228,0.289,0.297,0.401h-0.039c-0.035-0.061-0.138-0.194-0.311-0.401l-0.039,0.026
			c-0.086-0.086-0.211-0.246-0.375-0.479c-0.018,0.017-0.047,0.03-0.091,0.038c0.052,0.07,0.099,0.135,0.143,0.194
			c0.241,0.268,0.409,0.487,0.504,0.659c-0.034-0.051-0.138-0.154-0.31-0.31c0,0.017-0.018,0.048-0.052,0.091
			c0.069,0.086,0.104,0.168,0.104,0.246c0.008,0.042,0.013,0.068,0.013,0.076l-0.026,0.026l-0.039-0.013
			c-0.009-0.034-0.022-0.064-0.039-0.09c0.008,0.033,0,0.056-0.026,0.063c-0.025,0-0.052,0.005-0.077,0.013
			c-0.208-0.232-0.379-0.431-0.517-0.594c0.077,0.138,0.116,0.224,0.116,0.258c0.009,0.043,0.004,0.069-0.013,0.078l-0.039,0.039
			c0,0.017-0.025,0.025-0.077,0.025l-0.013,0.013c0.293,0.216,0.44,0.341,0.44,0.375c0,0.044-0.013,0.073-0.039,0.091l-0.039,0.039
			c0.103,0.035,0.159,0.051,0.168,0.051c-0.009,0.053-0.017,0.078-0.025,0.078c-0.018,0.018-0.047,0.025-0.091,0.025
			c-0.044-0.014-0.09-0.037-0.136-0.07c0.151,0.118,0.227,0.198,0.227,0.239c0,0.043-0.018,0.064-0.052,0.064l-0.013,0.013
			c-0.233-0.111-0.47-0.267-0.711-0.465c-0.069-0.043-0.16-0.095-0.271-0.155l0.013,0.025c0.051,0.035,0.086,0.069,0.103,0.104
			c0.009,0.009,0.009,0.026,0,0.052c0.052,0.052,0.086,0.091,0.104,0.116c0,0.069-0.004,0.104-0.013,0.104l-0.052,0.013
			l-0.064-0.013c-0.009,0.009-0.031,0.013-0.065,0.013c0.104,0.052,0.155,0.121,0.155,0.207v0.039
			c0.043,0.017,0.082,0.034,0.116,0.052c-0.026,0-0.073,0-0.143,0c-0.017,0.017-0.021,0.029-0.012,0.038l-0.22,0.027
			c0,0.008,0.013,0.016,0.039,0.025l-0.905,0.104l-0.013,0.064l0.53,0.013c0.077-0.017,0.129-0.026,0.154-0.026
			c0.078,0.018,0.125,0.061,0.143,0.129c-0.026,0.027-0.069,0.053-0.129,0.078l-0.996,0.168c-0.008,0.025-0.017,0.052-0.025,0.077
			c0.025,0,0.06-0.008,0.104-0.025c0.5-0.121,0.857-0.189,1.073-0.207v0.078c-0.508,0.172-0.974,0.31-1.396,0.413
			c-0.026,0.053-0.06,0.096-0.103,0.129c0.276,0,0.508,0.022,0.698,0.065c0,0.018-0.112,0.052-0.336,0.104
			c-0.026,0.009-0.189,0.013-0.492,0.013c-0.104,0.129-0.194,0.259-0.271,0.388c-0.008,0.018-0.008,0.044,0,0.078
			c0.035,0.466,0.035,0.789,0,0.97c0.018,0.018-0.064,0.534-0.246,1.551c-0.06,0.285-0.159,0.596-0.297,0.932l-0.983,2.095
			l-0.361,0.285c-0.415,0.457-0.707,0.874-0.88,1.254c-0.043,0.431,0.004,0.819,0.142,1.164c0.293,0.663,0.082,1.276-0.633,1.836
			c0.302,0.897-0.03,1.384-0.996,1.462l-0.09-0.014c-0.155,0.086-0.311,0.121-0.466,0.104c-0.267-0.025-0.504-0.314-0.711-0.867
			c0.009-0.017,0.009-0.029,0-0.039c-0.017,0-0.039,0-0.064,0c-0.371,0.087-0.643,0.006-0.815-0.244
			c-0.043-0.053-0.129-0.238-0.259-0.557c-0.103-0.311-0.25-0.974-0.439-1.991c-0.008,0.026-0.013,0.061-0.013,0.104h-0.026
			c0.009-0.052,0.013-0.116,0.013-0.194c-0.017-0.146-0.039-0.284-0.064-0.414c-0.06,0.13-0.095,0.221-0.104,0.272
			c-0.009-0.112,0.013-0.233,0.064-0.362c-0.034-0.112-0.056-0.229-0.064-0.35l-0.064,0.13l-0.013,0.052
			c-0.017,0-0.03-0.014-0.039-0.039c0.052-0.061,0.082-0.112,0.091-0.156c-0.043-0.24-0.091-0.451-0.143-0.632
			c-0.043,0.068-0.077,0.115-0.104,0.142c0-0.043,0.026-0.095,0.078-0.155c0.018-0.052,0.025-0.095,0.025-0.13
			c0.009-0.008,0.004-0.017-0.013-0.025c0.009-0.035,0.009-0.072,0-0.116l-0.013-0.026c-0.043-0.25,0.025-0.556,0.207-0.918
			c-0.026,0.061-0.044,0.116-0.052,0.168c0.034-0.068,0.073-0.138,0.116-0.207c0.008-0.068,0.013-0.133,0.013-0.193
			c-0.051,0.077-0.133,0.146-0.246,0.207c0.043-0.025,0.138-0.117,0.285-0.271c0.034-0.173,0.077-0.332,0.129-0.479
			c-0.043,0.008-0.064,0.018-0.064,0.025v-0.039c0.017-0.034,0.039-0.06,0.064-0.077c0.043-0.207,0.087-0.405,0.13-0.595
			l0.012-0.013c0.035-0.146,0.065-0.285,0.091-0.414c0.008-0.061,0.017-0.125,0.026-0.194c-0.008,0.018-0.021,0.035-0.039,0.052
			c-0.026,0-0.039-0.017-0.039-0.052c0.017-0.025,0.047-0.047,0.09-0.064c0.224-0.561,0.698-1.095,1.422-1.604
			c0.655-0.447,1.143-1.159,1.461-2.133c-0.008-0.043-0.008-0.082,0-0.117c-0.026-0.336,0-0.659,0.078-0.969
			c0.078-0.363,0.22-0.591,0.427-0.686c0.008-0.303,0.155-0.66,0.439-1.073c0.043-0.043,0.073-0.087,0.091-0.13
			c0-0.025,0-0.043,0-0.051c0-0.07,0.021-0.135,0.064-0.194l0.052,0.013l0.026,0.078c0.052-0.069,0.108-0.13,0.168-0.182
			c0.006-0.025,0.013-0.04,0.02-0.045c-0.075,0.039-0.142,0.072-0.201,0.097l-0.025-0.038c0.215-0.216,0.4-0.418,0.556-0.608
			c0.018-0.103,0.056-0.211,0.117-0.323c-0.225,0.293-0.379,0.461-0.466,0.504c0.017-0.017,0.134-0.189,0.349-0.517l-0.013-0.013
			c-0.069,0.078-0.138,0.159-0.207,0.245c0.069-0.155,0.215-0.401,0.439-0.737c0.008-0.017,0.026-0.047,0.052-0.09
			c0.017-0.096,0.043-0.189,0.078-0.285c-0.181,0.25-0.323,0.414-0.427,0.491c0.189-0.249,0.345-0.495,0.466-0.737
			c0.077-0.302,0.142-0.616,0.194-0.943c0.242-1.232,0.487-2.75,0.737-4.551c0.474-3.527,1.185-5.996,2.133-7.41
			c0.155-0.241,0.293-0.496,0.415-0.763c0.043-0.044,0.077-0.087,0.103-0.13c0.586-1.24,0.909-2.697,0.97-4.37
			c0.043-1.827,0.242-3.974,0.595-6.438c0.052-0.38,0.104-0.759,0.155-1.139c-0.397-1.465-0.483-2.97-0.258-4.513
			c0.068-0.612,0.181-1.228,0.336-1.849c0.474-1.957,1.478-3.211,3.012-3.764C104.064,85.847,104.668,85.743,105.349,85.727z
			 M100.177,123.561h-0.026c0.043,0.095,0.104,0.181,0.182,0.258c0.043,0.061,0.086,0.121,0.129,0.182
			c-0.017-0.025-0.034-0.052-0.051-0.078c-0.069-0.104-0.134-0.215-0.194-0.336C100.198,123.568,100.186,123.561,100.177,123.561z
			 M99.827,124.025l-0.012,0.014c0.025,0.043,0.051,0.086,0.077,0.129C99.866,124.107,99.845,124.061,99.827,124.025z
			 M93.401,126.186l0.012,0.012c0-0.008,0.005-0.012,0.013-0.012C93.418,126.186,93.41,126.186,93.401,126.186z M93.97,125.189
			c-0.043,0.052-0.078,0.1-0.104,0.143c-0.009,0.051-0.018,0.095-0.026,0.129C93.875,125.375,93.918,125.284,93.97,125.189z
			 M93.763,125.28c0-0.035,0.005-0.052,0.013-0.052c0.026-0.069,0.047-0.146,0.064-0.232c-0.06,0.129-0.112,0.267-0.155,0.414
			c0.017-0.018,0.03-0.035,0.039-0.053C93.733,125.314,93.746,125.289,93.763,125.28z M93.711,125.668v-0.013
			c-0.004,0.009-0.009,0.017-0.013,0.025L93.711,125.668z M93.517,125.693c0.009-0.034,0.022-0.06,0.039-0.077
			c-0.008-0.026-0.008-0.052,0-0.077c-0.198,0.189-0.336,0.479-0.414,0.865c0,0.018,0.004,0.212,0.013,0.582
			c0.017-0.068,0.039-0.158,0.064-0.271c-0.009-0.025-0.018-0.047-0.026-0.064C93.168,126.436,93.276,126.116,93.517,125.693z
			 M94.009,125.021c0.034-0.026,0.065-0.043,0.091-0.052c0.008-0.064,0.032-0.125,0.071-0.181c-0.066,0.088-0.12,0.162-0.162,0.22
			V125.021z M94.267,124.479l-0.025,0.025c0.018-0.008,0.034-0.012,0.052-0.012c0.018-0.053,0.043-0.1,0.077-0.144
			c0.009-0.025,0.018-0.038,0.026-0.038c-0.009-0.009-0.018-0.004-0.026,0.014C94.328,124.367,94.293,124.418,94.267,124.479z
			 M94.5,124.025c-0.026,0.035-0.052,0.074-0.078,0.117c0.018-0.009,0.035-0.026,0.052-0.053
			C94.483,124.073,94.492,124.052,94.5,124.025z M98.807,126.379l-0.026-0.025l0.052-0.026c-0.181,0-0.427,0.017-0.737,0.052
			c0,0.025-0.013,0.052-0.039,0.078L98.807,126.379z M98.883,126.186c0.009-0.009,0.018-0.005,0.026,0.012l-0.013-0.038
			L98.883,126.186z M99.297,125.396l-0.052,0.014l-0.013,0.051c0.077,0.043,0.155,0.082,0.233,0.116
			c0.065,0.026,0.124,0.054,0.174,0.084C99.55,125.602,99.436,125.514,99.297,125.396z"/>
	</g>
</g>
</svg>
