<?xml version="1.0" encoding="utf-8"?>
<!-- Generator: Adobe Illustrator 15.0.0, SVG Export Plug-In . SVG Version: 6.00 Build 0)  -->
<svg version="1.2" baseProfile="tiny" id="Layer_1" xmlns="http://www.w3.org/2000/svg" xmlns:xlink="http://www.w3.org/1999/xlink"
	 x="0px" y="0px" width="200px" height="200px" viewBox="0 0 200 200" overflow="inherit" xml:space="preserve">
<path fill="#010101" d="M67.022,108.169c1.295-0.77,3.312-1.382,5.174-0.948c-0.017-0.283,0.268-0.266,0.438-0.363
	c0.096-0.314-0.347-0.092-0.291-0.365c0.456,0.148,0.582-0.043,0.874-0.219c0.853,0.203,1.114,0.35,1.896,0.729
	c0.428,0.617,0.693,1.396,1.457,1.677c0.23,0.034,0.055-0.333,0.219-0.364c0.445,0.514,0.579,1.064,1.238,1.238
	c0.023-0.169-0.011-0.279-0.072-0.363c0.837,0.709,1.783,1.025,2.988,1.457c0-0.146,0-0.291,0-0.438
	c0.538,0.25,1.422,1.39,2.113,0.802c0.232,0.011,0.217,0.27,0.438,0.292c0.175,0.028-0.041-0.332,0.219-0.219
	c1.367,1.226,4.752,1.068,6.34,1.604c-0.264-1.957-0.562-4.153-0.364-6.195c0.081-0.821,0.354-1.571,0.438-2.186
	c0.106-0.787-0.102-1.998-0.146-2.479c0.185-0.471,0.275-1.035,0.438-1.531c-0.654-1.049,0.217-2.014,0.291-3.061
	c0.108-0.086,0.326-0.062,0.291-0.291c-0.327-1.031-0.43-2.494,0.365-3.207c0.079-0.396-0.148-0.484-0.146-0.801
	c0.206-0.213,0.092,0.217,0.365,0.145c0.199-0.214,0.175-0.65,0.291-0.947c0.188-0.029,0.449,0.021,0.511-0.291
	c-0.052,0.244,0.122,0.266,0.291,0.291c0.087-0.301,0.212-0.564,0.364-0.801c-1.059-0.933-2.217-1.768-2.842-3.135
	c-0.195-1.236-0.357-2.863,0.582-3.498c0.229-0.598,0.229-1.424,0.438-2.041c0.315-0.049,0.576-0.152,0.803-0.291
	c0.048-0.267-0.158-0.279-0.146-0.51c0.365-0.183,0.464-0.75,0.511-1.167c0.052-0.472-0.035-1.078,0.073-1.604
	c0.422-0.792,0.4-2.027,1.603-2.041c0.242-0.292,0.442-0.627,0.583-1.02c0.249-0.055,0.093,0.295,0.364,0.218
	c0.323-0.096,0.47-0.569,0.874-0.364c-0.01-0.333,0.174-0.569,0.729-0.51c0.278-0.769,0.976-1.042,1.749-1.457
	c0.076,0.416-0.453,0.227-0.364,0.655c0.636,0.077,0.665-0.451,1.093-0.583c0.18,0.097-0.131,0.221,0.073,0.292
	c0.267,0.048,0.28-0.157,0.511-0.146c0.054,0.25-0.297,0.092-0.219,0.365c0.686,0.418,1.23-0.473,1.967-0.146
	c0.266-0.173,0.438-0.438,0.729-0.583c0.045,0.36-0.415,0.217-0.292,0.656c0.192-0.075,0.448-0.087,0.729-0.073
	c0.729,0.47,2.128,0.63,3.207,0.51c0.079,0.187-0.221,0.348,0,0.438c0.277,0.08,0.455-0.193,0.51,0.072
	c-0.232-0.103-0.184,0.436-0.072,0.438c0.758-0.46,1.371,0.032,2.113-0.292c0.072,0.592-0.83,0.815-1.093,1.312
	c0.255,0.157,0.219,0.504,0.218,0.729c0.744,0.392,1.891,0.149,2.552,0.729c0.063,0.331-0.364,0.171-0.364,0.438
	c-0.059,0.423,0.522,0.206,0.51,0.583c-0.012,0.328-0.451,0.229-0.438,0.583c0.254,0.864,1.661,0.575,1.677,1.676
	c0.47,0.282,0.717,0.79,1.312,0.948c0.087,0.305-0.307,0.129-0.364,0.291c0.493,0.441,0.306,0.842,0.437,1.457
	c-0.445,0.369-0.896-0.117-1.384-0.145c-0.052,0.27,0.124,0.312,0.073,0.582c-0.406,0.253-0.7-0.153-1.167-0.072
	c0.011,0.182-0.114,0.226-0.146,0.363c0.306,0.205,0.997,0.023,1.166,0.365c-0.245,0.168-0.801,0.025-1.166,0.072
	c0.088,0.355-0.29,0.245-0.291,0.511c0.117,0.271,0.555,0.222,0.582,0.583c-0.398,0.137-0.783-0.32-1.238-0.364
	c-0.182,0.229-0.427,0.399-0.583,0.655c-0.076,0.271,0.245,0.143,0.291,0.293c-0.272,0.018-0.468,0.113-0.583,0.291
	c0.738,0.356,0.419,1.431,1.166,1.676c-0.031,0.332-0.395,0.334-0.583,0.51c0.025,0.389,0.214,0.612,0.292,0.947
	c-0.115,0.178-0.391,0.193-0.583,0.292c-0.2,0.209,0.041,0.387,0.072,0.583c-0.447,0.078-0.28,0.329-0.291,0.801
	c0.173,0.241,0.657,0.17,0.947,0.293c0.036,0.332-0.127,0.412,0,0.655c0.253,0.038,0.69-0.108,0.729,0.146
	c-0.307,0.035-0.586,0.096-0.656,0.365c1.198,0.031,2.304,1.055,3.498,1.093c0.09,0.235-0.236,0.056-0.146,0.292
	c0.551,0.541,1.842,0.344,1.822,1.457c0.361,0.076,0.668,0.207,0.729,0.583c1.298,0.08,1.97,0.801,2.259,1.53
	c0.908,0.209,1.438,0.797,2.332,1.021c0.057,0.324-0.097,0.438-0.072,0.729c0.407-0.042,0.562,0.167,0.947,0.146
	c0,0.122,0,0.244,0,0.365c0.733,0.312,1.417,0.672,2.186,0.947c-0.274,0.016-0.656-0.074-0.655,0.219
	c0.531,0.246,1.013,0.541,1.385,0.947c-0.187,0.078-0.348-0.222-0.437,0c-0.131,0.299,0.244,0.305,0.363,0.438
	c0.199,0.223,0.285,0.663,0.729,0.655c0.113,0.397,0.415,0.606,0.729,0.802c0.135,0.475,0.457,0.76,0.875,0.948
	c0.424,0.742,0.979,1.354,1.604,1.895c-0.049,0.194-0.506,0.2-0.219,0.511c-0.044,0.125-0.346-0.006-0.364,0.145
	c0.058,0.891,1.211,0.685,1.385,1.457c-0.601-0.078-0.91-0.449-1.458-0.582c0.132,1.193,1.73,1.845,0.875,3.135
	c0.334,0.777,1.404,1.449,1.166,2.332c0.229,0.354,0.558,0.607,0.583,1.165c-0.224,0.063-0.604-0.687-1.02-0.437
	c0.62,0.881,1.542,2.393,1.093,3.644c0.437,0.974,1.063,2.112,0.875,3.279c0.844,1.397,0.982,2.62,1.748,4.009
	c-0.301,0.058-0.373-0.113-0.656-0.072c-0.246,1.363,0.774,1.461,1.021,2.332c0.033,0.201-0.398-0.058-0.365,0.146
	c0.177,0.601,0.303,1.253,0.947,1.385c-0.232,0.468,0.193,0.731,0.074,1.312c0.508,0.195,0.791,0.617,0.801,1.312
	c-0.562,0.151-0.485-0.341-0.875-0.364c-0.137,0.139,0.043,0.133,0,0.364c-0.463-0.051-0.625,0.2-0.801,0.437
	c-0.008,0.227,0.229,0.209,0.146,0.512c-0.562,0.207-0.812-0.491-1.239-0.656c0.063,0.289,0.063,0.365,0,0.656
	c0.138,0.031,0.439-0.1,0.365,0.145c-0.385-0.244-0.398,0.203-0.365,0.584c-0.365-0.023-0.308-0.471-0.729-0.438
	c-0.086,0.277-0.356,0.373-0.583,0.51c0.167,0.125,0.026,0.557,0.073,0.803c-0.096,0.141-0.386-0.146-0.438,0.145
	c0.279,0.93-0.211,1.057-0.146,2.113c-0.328-0.037-0.245,0.338-0.51,0.365c0.044,0.466,0.297,0.724,0.291,1.238
	c-0.284,0.02-0.291-0.243-0.582-0.219c0.045,0.246,0.209,0.375,0.146,0.729c-0.509,0.099-0.937,0.278-1.239,0.583
	c0,0.219,0,0.438,0,0.656c-0.287,0.116-0.025-0.315-0.219-0.292c-0.318,0.095-0.475,0.351-0.582,0.655
	c-0.312-0.258-0.432,0.295-0.729,0.293c-0.102-0.045-0.011-0.281-0.146-0.293c-0.258,0.034-0.256,0.327-0.584,0.293
	c-0.012-0.109,0.026-0.27-0.072-0.293c-1.707,0.768-3.891-1.26-2.77-2.842c0.312-0.045,0.297,0.238,0.583,0.219
	c0.142-0.127,0.208-0.326,0.365-0.438c0.509-0.119,0.567,0.209,0.874,0.291c0.025-0.217,0.115-0.369,0.219-0.51
	c0.361-0.094,0.357,0.177,0.656,0.146c0.283-1.199,0.259-2.705,0.582-3.863c-0.377,0.049-0.129-0.129-0.291-0.438
	c-1.197,0.164-1.305,1.416-2.551,1.531c-0.639-1.098,0.17-1.359,0.656-2.041c0.211-0.297,0.295-0.759,0.51-1.02
	c0.296-0.359,0.717-0.543,0.583-1.094c0.562-0.428,1.188-0.773,1.021-1.604c-0.051-0.248-0.428-0.418-0.584-0.729
	c-0.533-1.066-0.694-2.762-1.02-3.936c-0.455-0.559-0.248-1.196-0.364-1.822c-0.107-0.576-0.425-1.141-0.583-1.749
	c-0.629-2.413-1.358-4.943-1.239-7.798c-1.401-0.979-2.719-2.043-4.009-3.135c-0.007,0.115,0.01,0.254-0.146,0.219
	c-0.525-0.008-0.327-0.742-0.874-0.729c-0.082,0.307-0.537,0.24-0.656,0.51c0.25,0.764,0.316,2.055,0,2.771
	c0.07,0.999,0.59,1.548,0.583,2.623c-0.181-0.011-0.354-0.014-0.364,0.146c0.069,1.564,0.668,2.886,0.51,4.446
	c-0.109,0.013-0.269-0.026-0.291,0.073c0.082,1.156-0.251,1.936-0.219,3.206c-0.145,0.177-0.311-0.124-0.364,0.146
	c0.142,0.758,0.353,1.444,0.583,2.113c-0.455,0.639-0.291,1.947-0.291,2.844c-0.902,1.258-0.814,3.51-1.822,4.664
	c-0.305,1.443-0.838,2.66-1.24,4.008c-0.085,0.012-0.207-0.013-0.218,0.072c-0.185,0.325-0.081,0.939-0.438,1.094
	c-0.294-0.389,0.246-0.402-0.073-0.656c-0.614,0.453-0.876,1.262-1.529,1.677c-0.016-0.333,0.356-0.661,0.145-0.948
	c-1.151,0.5-1.535,1.768-2.259,2.697c0,0.121,0,0.242,0,0.364c0.438,0.049,0.604,0.368,1.094,0.364
	c-0.007,0.48-0.941,0.031-1.167,0.292c0.482,0.611,2.47-0.282,2.406,0.874c0.266-0.047,0.388,0.049,0.51,0.146
	c0.126,0.562-0.289,0.586-0.364,0.947c0.263,0.242,0.831-0.24,0.437-0.438c0.314-0.197,0.307,0.116,0.656,0.072
	c-0.022,0.221-0.225,0.261-0.146,0.584c0.284-0.086,0.68,0.14,0.946,0.291c0.85,0,2.009-0.438,2.552-0.072
	c-0.209,0.154-0.741-0.013-0.874,0.218c0.198,0.788,1.264,0.366,1.821,0.438c-0.128,0.017-0.166,0.125-0.146,0.291
	c0.961-0.123,1.645-0.131,2.551,0.072c-0.062,0.182-0.096,0.391-0.073,0.656c0.524,0.603,1.177-0.039,1.677-0.291
	c-0.066,0.234,0.237,0.102,0.291,0.218c0.018,0.722-0.604,0.806-0.656,1.458c0.482,0.142,0.363-0.317,0.656-0.364
	c0.127,0.044-0.006,0.345,0.146,0.364c0.66-0.113,0.979,0.024,1.604-0.291c0.062,0.229,0.275,0.307,0.291,0.582
	c-0.178-0.181-0.633-0.209-0.729,0.074c0.123,0.219,0.327,0.018,0.438,0.145c-0.477,0.568-1.153,0.938-1.531,1.604
	c0.844,0.084,1.5-0.633,2.26-0.874c-0.018,0.37-0.312,0.466-0.365,0.802c-0.169-0.047-0.573-0.09-0.583,0.218
	c0.309,0.481,1.058,0.086,1.386-0.073c-0.018,0.555-1.056,0.436-0.803,1.021c0.352-0.209,1.131-0.375,1.604-0.219
	c-0.603,0.295-1.413,0.383-1.967,0.729c0.336,0.48,0.438,1.592,0,2.041c0.045,1.967-0.274,4.322-0.146,6.413
	c0.103,1.685,0.146,2.9-0.729,3.862c-0.17,0-0.341,0-0.51,0c-0.066-0.128-0.164-0.227-0.292-0.291c0.038-0.57-0.177-1.036,0-1.531
	c-0.139-0.152-0.198-0.385-0.511-0.365c-0.338,0.976,0.585,2.062-0.146,2.916c-0.466,0.078-0.639-0.139-0.874-0.291
	c-0.384,0.092-0.433-0.15-0.729-0.146c-0.115-0.735-0.998-1.293-1.167-2.113c-0.114-0.562,0.073-1.147,0.073-1.749
	c0-1.194-0.07-2.456,0.072-3.644c-0.518-0.526-0.979-1.109-1.603-1.531c-0.198,0.045-0.182,0.305-0.438,0.292
	c-0.345-0.19-0.658-0.577-1.093-0.729c-0.107-0.038-0.358,0.106-0.438,0.073c-0.148-0.064-0.256-0.327-0.438-0.438
	c-0.491-0.299-1.511-0.549-1.968-0.365c-0.563-0.285-1.263-0.438-1.968-0.582c-0.094-0.289,0.24-0.148,0.146-0.438
	c-0.341,0.141-0.467-0.306-0.656-0.072c-0.004,0.27,0.453,0.081,0.438,0.363c-0.789-0.111-1.18-0.617-1.75-0.947
	c-1.676-1.045-3.303-2.139-4.883-3.279c-0.424,0.719-0.763,1.521-0.656,2.77c-0.088,0.154-0.273,0.211-0.291,0.438
	c0.112,0.816-0.195,1.213-0.146,1.967c-0.806,0.279-0.542,1.531-0.511,2.479c-0.159,0.193-0.392,0.037-0.51,0.146
	c0.021,1.171,0.515,2.679,0.219,3.79c-0.033,0.123-0.28,0.312-0.291,0.438c-0.002,0.023,0.21,0.26,0.219,0.363
	c0.033,0.452-0.277,0.705-0.365,0.948c-0.182,0.052-0.299-0.321-0.438-0.073c-0.015,0.258,0.342,0.145,0.291,0.438
	c-0.068,0.697,0.301,1.867-0.217,2.187c-0.221-0.29-0.265-0.757-0.584-0.948c-0.218,0.102-0.152,0.528-0.073,0.73
	c-0.121,0.193-0.417,0.213-0.437,0.51c0.082,0.623,0.463,0.945,0.51,1.604c-0.788,0.537-0.037,1.477-0.073,2.332
	c-0.338,0.07-0.099-0.437-0.437-0.365c-0.486,0.412,0.023,1.389,0.219,1.969c-0.24,0.416-0.117,1.193-0.146,1.821
	c-0.756,0.434-0.547,1.833-0.947,2.624c-1.031,0.802,0.129,3.404-0.729,4.299c-1.254,0.739-2.062,1.922-3.936,2.041
	c-1.576,1.15-4.146,1.596-6.413,1.822c-0.255-0.562-0.938-0.289-1.239-0.729c-0.736,0.273-1.079-0.152-1.385-0.656
	c-0.576-0.15-1.115-0.707-0.729-1.385c0.373-0.016,0.488-0.288,0.801-0.364c0-0.122,0-0.243,0-0.364
	c1.479-0.879,3.402-1.311,4.446-2.624c-0.131-0.599-0.53-0.927-0.438-1.749c-0.103-0.134-0.354,0.114-0.511-0.072
	c0.022-0.27,0.321-0.264,0.219-0.656c-0.234-0.195-0.526,0.1-0.655-0.146c0.033-0.33,0.297-0.432,0.291-0.801
	c-0.562-0.723,0.147-1.378,0.292-2.113c0.074-0.379-0.007-0.791,0.072-1.166c0.216-1.02,0.925-1.863,0.875-2.77
	c-0.055-0.115-0.23-0.109-0.219-0.292c0.264-0.477,0.607-1.154,0.219-1.677c0.104-0.921,1.066-1.746,0.656-2.695
	c0.094-1.009,0.973-1.979,0.656-2.916c-0.301-0.057-0.138,0.35-0.438,0.291c0.152-1.094,0.905-1.949,0.801-3.061
	c0.238-0.389,0.956-0.759,0.656-1.238c0.682-1.002,1.473-2.427,1.969-3.863c0.02-0.062,0.069-0.186,0.072-0.219
	c0.097-1.664,0.35-3.391,1.166-4.664c-0.068-1.189,0.818-2.088,1.238-3.134c0.057-0.142,0.141-0.546,0.146-0.729
	c0.045-1.363-0.658-2.79-0.656-4.445c0.002-1.371,0.266-2.653-0.073-4.08c0.249-1.282,0.442-2.619,0.511-4.082
	c-0.085-0.062-0.195-0.096-0.365-0.072c-0.297-2.426,0.205-5.136,0.51-7.58c-0.113-0.008-0.252,0.01-0.217-0.146
	c-0.059-0.373,0.102-0.529,0.072-0.874c0.697-0.42,0.656-1.579,1.312-2.04c-0.217-0.6-0.119-1.397,0-2.041
	c-0.59-0.529-0.367-1.868-1.385-1.969c-0.19-0.125-0.03-0.6-0.365-0.582c-0.353,0.906,0.05,2.171-0.438,2.988
	c-0.174-0.24-0.254-0.572-0.51-0.729c-0.264,0.416-0.842,0.518-0.875,1.166c-0.514,0.17-0.602,0.42-1.312,0.291
	c-0.666,0.801-1.772-0.069-2.624-0.146c-0.868-0.076-1.346,0.36-1.821,1.094c-0.312-0.183-0.511,0.033-0.802,0.073
	c0.011-0.181,0.014-0.354-0.146-0.364c-0.221,0.022-0.26,0.225-0.582,0.145c0.063-0.592,0.96-0.35,1.166-0.801
	c-0.793-0.62-1.716,0.707-2.552,0.51c0.107-0.063,0.282-0.057,0.22-0.291c-0.994-0.154-2.812,0.94-3.279-0.146
	c-0.207-0.012-0.501,0.062-0.512-0.146c0.171-0.218,0.918,0.14,0.875-0.291c-0.206-0.271-1.135-0.156-1.457-0.073
	c-0.145-0.098,0.022-0.508-0.219-0.51c-0.702,0.039-1.121,0.639-1.604,0.291c-0.117,0.102-0.078,0.359-0.219,0.438
	c-0.428-0.033-0.531-0.393-1.094-0.291c0.108-0.167,0.35-0.924-0.072-0.947c-0.14,0.373-0.381,0.198-0.801,0.291
	c-0.17-0.099-0.228-0.308-0.438-0.365c-0.061,0.086-0.096,0.195-0.073,0.365c-0.709-0.657-1.744-0.498-2.77-0.729
	c-0.064-0.506,0.332-1.48,0-1.969c-0.265,0.051-0.123,0.508-0.51,0.438c0.24-0.691,0.232-1.398-0.51-1.603
	c-0.053-0.224,0.127-0.214,0.072-0.438c-0.801-0.31-2.302-0.038-2.914-0.146c0.041,0.648-0.358,0.857-0.584,1.238
	c-2.825,0.188-3.375-2.255-3.498-4.154c0.562-0.543,0.096-2.234,1.166-2.551C67.098,108.287,67.062,108.227,67.022,108.169
	L67.022,108.169z"/>
</svg>
