<?xml version="1.0" encoding="utf-8"?>
<!-- Generator: Adobe Illustrator 15.0.0, SVG Export Plug-In . SVG Version: 6.00 Build 0)  -->
<svg version="1.2" baseProfile="tiny" id="Layer_1" xmlns="http://www.w3.org/2000/svg" xmlns:xlink="http://www.w3.org/1999/xlink"
	 x="0px" y="0px" width="200px" height="200px" viewBox="0 0 200 200" overflow="inherit" xml:space="preserve">
<g>
	<g id="Layer_2_3_">
		<path id="path5_4_" fill="#010101" d="M100.011,38.666c0.292-0.053,0.79-0.203,1.493-0.447c0.435-0.148,0.895-0.316,1.379-0.501
			c0.155-0.05,0.318-0.106,0.487-0.169c0.1-0.047,0.214-0.086,0.343-0.119c0.054-0.023,0.107-0.045,0.159-0.064
			c-0.002-0.014-0.006-0.027-0.009-0.041c-0.007-0.119,0.056-0.184,0.189-0.192l0.84-0.064c0.034-0.007,0.067-0.013,0.1-0.021
			c0.067-0.066,0.193-0.119,0.38-0.158c0.168-0.037,0.568-0.091,1.197-0.163l-0.004-0.011l2.832-0.191
			c0.086,0.017,0.146,0.049,0.178,0.095l0.967-0.069c0.135,0.029,0.205,0.09,0.209,0.18c0.002,0.046-0.014,0.093-0.051,0.14
			c0,0.005,0,0.011,0,0.015l0.656-0.029c0.13,0.018,0.198,0.073,0.205,0.169c0.003,0.023,0.003,0.047,0,0.069
			c0.673,0.181,1.232,0.352,1.676,0.514c0.156,0.057,0.299,0.113,0.428,0.17c0.043,0.02,0.088,0.042,0.135,0.065
			c0.305,0.03,0.644,0.065,1.014,0.11c0.078-0.004,0.122,0.003,0.135,0.02c-0.035-0.004-0.397-0.038-1.084-0.105
			c0.58,0.282,0.879,0.562,0.895,0.842v0.039c0.35,0.124,0.702,0.262,1.06,0.414c0,0.027-0.017,0.045-0.049,0.055
			c-0.349-0.122-0.691-0.24-1.03-0.354c-0.014,0.01-0.033,0.022-0.061,0.039c-0.002-0.017-0.004-0.036-0.004-0.06
			c-0.008-0.003-0.012-0.003-0.016,0c-0.007,0.017-0.01,0.028-0.01,0.036l-0.045,0.014c-0.016-0.033-0.039-0.064-0.069-0.094
			c-0.022-0.007-0.05-0.014-0.079-0.021c0.129,0.123,0.221,0.241,0.277,0.358c1.211,0.488,1.834,0.941,1.87,1.359l-0.049,0.016
			c0.096-0.332-0.489-0.747-1.756-1.246c0.112,0.101,0.205,0.191,0.278,0.274c0.397,0.149,0.659,0.279,0.786,0.39l-0.016,0.024
			c-0.126-0.08-0.366-0.18-0.72-0.3h-0.006c-0.004-0.002-0.004-0.006,0-0.01c-0.047-0.016-0.093-0.033-0.139-0.05
			c0.198,0.155,0.398,0.321,0.601,0.498l-0.024,0.035c-0.129-0.116-0.299-0.249-0.508-0.398c0.073,0.103,0.133,0.206,0.18,0.308
			l-0.025,0.01c0.109,0.07,0.207,0.135,0.293,0.195c0.116,0.061,0.227,0.119,0.329,0.18l0.015,0.029
			c-0.033-0.006-0.07-0.015-0.109-0.025c0.072,0.064,0.131,0.122,0.174,0.175c-0.069-0.056-0.182-0.134-0.338-0.233
			c-0.037-0.01-0.069-0.021-0.1-0.035c0.119,0.103,0.224,0.197,0.313,0.283c0.142,0.112,0.276,0.227,0.402,0.34l-0.021,0.034h0.006
			c0.294,0.305,0.516,0.529,0.661,0.672l-0.005,0.006c0.003,0.003,0.006,0.008,0.01,0.015c0.01,0.014,0.023,0.027,0.04,0.044v0.005
			c0.126,0.117,0.235,0.236,0.328,0.359l-0.015,0.024c0.443,0.39,0.74,0.761,0.889,1.116v0.074h-0.045
			c-0.264-0.408-0.689-0.834-1.271-1.275c-0.061-0.039-0.117-0.081-0.17-0.125c0.051,0.061,0.102,0.12,0.155,0.18
			c0.022,0.023,0.046,0.049,0.068,0.074l-0.015,0.025c-0.02-0.02-0.041-0.037-0.064-0.055c-0.159-0.146-0.34-0.297-0.543-0.453
			c0,0.006,0,0.014,0,0.02c0.074,0.13,0.139,0.256,0.194,0.379c0.089,0.148,0.149,0.283,0.18,0.402
			c0.026,0.031,0.051,0.061,0.073,0.09c0.229,0.279,0.402,0.562,0.518,0.848c-0.073-0.157-0.227-0.355-0.463-0.598
			c0.027,0.075,0.042,0.144,0.045,0.203c0.007,0.043,0,0.083-0.02,0.119c0.013,0.027,0.029,0.053,0.049,0.075
			c0.412,0.531,0.715,1.058,0.91,1.579c-0.027-0.034-0.117-0.176-0.273-0.424c-0.029-0.051-0.062-0.097-0.094-0.14
			c0.086,0.188,0.16,0.383,0.223,0.583l-0.024,0.023c-0.253-0.487-0.595-0.994-1.029-1.522c-0.097-0.12-0.197-0.239-0.303-0.359
			c-0.177-0.198-0.354-0.392-0.532-0.577c0,0.003,0,0.008,0,0.016c0,0.012,0,0.025,0,0.039c0.195,0.242,0.408,0.525,0.636,0.847
			c0.054,0.065,0.106,0.134,0.159,0.204c0.03,0.036,0.059,0.072,0.09,0.109c0.377,0.504,0.674,1.008,0.889,1.508
			c0.133,0.242,0.26,0.504,0.383,0.782l0.01,0.174c0.021,0.076,0.033,0.14,0.04,0.189c-0.003,0.202-0.004,0.353-0.001,0.452
			l-0.039,0.011c-0.057-0.144-0.111-0.282-0.164-0.419c0.01,0.047,0.018,0.086,0.02,0.12c0,0.056,0,0.099,0,0.125l-0.02,0.028
			c0.004,0.027-0.004,0.047-0.02,0.061c-0.306-0.688-0.678-1.402-1.118-2.145c0.003,0.02,0.009,0.035,0.015,0.049l-0.029,0.025
			c-0.004-0.01-0.074-0.115-0.215-0.314c0.295,0.521,0.447,0.864,0.457,1.03c0.004,0.013,0.004,0.035,0,0.065
			c0.07,0.145,0.113,0.258,0.129,0.338c0.285,0.564,0.438,0.969,0.457,1.214c0.004,0.052,0.004,0.087,0,0.11L117.28,47
			c-0.082-0.3-0.222-0.646-0.417-1.041c0.021,0.072,0.035,0.141,0.044,0.203c0.027,0.1,0.043,0.176,0.046,0.229
			c0.009,0.131,0.005,0.268-0.016,0.413l-0.015,0.005c0,0.057,0,0.105-0.001,0.145c0.004,0.011,0.005,0.021,0.005,0.031
			c0.004,0.062,0.004,0.105,0,0.129l-0.045,0.01c0-0.016-0.011-0.066-0.035-0.15c0.004,0.16,0.008,0.288,0.011,0.384l-0.05,0.015
			c-0.006-0.023-0.19-0.513-0.551-1.467c-0.054-0.107-0.113-0.217-0.179-0.33c0.046,0.187,0.089,0.357,0.129,0.514
			c0.312,0.819,0.475,1.32,0.491,1.502c-0.004,0.09-0.003,0.162,0,0.221c0.05,0.155,0.088,0.305,0.114,0.447l-0.046,0.015
			c-0.025-0.096-0.057-0.194-0.094-0.294l-0.024,0.01l0.01,0.149c0.007,0.023,0.012,0.046,0.015,0.07
			c0.126,0.364,0.229,0.703,0.308,1.015c-0.021-0.037-0.088-0.19-0.204-0.463c0.011,0.037,0.019,0.072,0.025,0.104l-0.049,0.011
			c-0.011-0.033-0.08-0.217-0.209-0.554c-0.004,0.06-0.011,0.117-0.02,0.169h-0.041c-0.023-0.089-0.051-0.203-0.084-0.342
			c-0.004,0.016-0.006,0.033-0.01,0.049c-0.01-0.037-0.049-0.199-0.115-0.487c-0.016-0.047-0.029-0.092-0.039-0.134
			c-0.029-0.074-0.059-0.146-0.09-0.215c0.004,0.172,0.012,0.34,0.025,0.502c0.01,0.043,0.02,0.094,0.029,0.149
			c0.441,0.765,0.703,1.245,0.785,1.443c-0.32-0.503-0.562-0.892-0.721-1.165c0.021,0.113,0.043,0.225,0.069,0.334
			c0.042,0.066,0.088,0.137,0.134,0.209c0.418,0.598,0.689,1.064,0.815,1.4c-0.292-0.393-0.578-0.796-0.859-1.211
			c-0.005-0.005-0.009-0.01-0.011-0.012c0.01,0.045,0.02,0.096,0.03,0.15c0.007,0.014,0.013,0.031,0.02,0.055
			c0.282,0.416,0.472,0.703,0.566,0.861c0.086,0.109,0.141,0.188,0.165,0.234l-0.021,0.031c-0.001-0.004-0.214-0.254-0.642-0.748
			c0.006,0.074,0.018,0.143,0.032,0.205h0.058c0.129,0.186,0.232,0.34,0.309,0.467l-0.021,0.03
			c-0.047-0.071-0.153-0.214-0.315-0.429c0.218,0.424,0.344,0.68,0.375,0.762l-0.005,0.07l-0.036,0.01
			c-0.062-0.144-0.158-0.36-0.291-0.648c-0.008-0.005-0.015-0.012-0.021-0.016c0.01,0.058,0.02,0.113,0.03,0.166
			c0.044,0.09,0.081,0.172,0.114,0.244l-0.025,0.01c0.021,0.025,0.039,0.048,0.055,0.069c-0.023-0.019-0.051-0.04-0.077-0.062
			l-0.007,0.003c-0.002-0.004-0.002-0.006-0.003-0.01c-0.005-0.005-0.011-0.01-0.017-0.015c0.007,0.019,0.013,0.034,0.02,0.05
			c0.07,0.117,0.133,0.227,0.188,0.32c0.078,0.072,0.163,0.146,0.254,0.227c-0.069-0.05-0.144-0.107-0.219-0.174
			c0.013,0.02,0.022,0.037,0.029,0.055v0.002c0.138,0.24,0.22,0.393,0.249,0.455c-0.107-0.168-0.206-0.326-0.295-0.471
			c-0.034-0.036-0.082-0.092-0.147-0.166c-0.012-0.009-0.023-0.018-0.035-0.027c0.069,0.133,0.128,0.258,0.177,0.373
			c0.096,0.113,0.195,0.232,0.301,0.357c-0.062-0.047-0.146-0.123-0.252-0.23l0.003,0.006l-0.01,0.005
			c0.017,0.03,0.031,0.058,0.044,0.087c0.316,0.436,0.477,0.66,0.482,0.675c0.014,0.05,0.018,0.073,0.014,0.07l-0.008-0.016
			c-0.135-0.132-0.268-0.272-0.398-0.423c0.039,0.084,0.075,0.166,0.109,0.243c0.054,0.065,0.101,0.122,0.139,0.169
			c-0.035-0.03-0.07-0.063-0.109-0.1c0.014,0.029,0.025,0.059,0.037,0.088c0.077,0.069,0.152,0.137,0.227,0.201l-0.016,0.031
			c-0.047-0.037-0.105-0.084-0.176-0.141l-0.077-0.016c-0.011-0.024-0.022-0.051-0.034-0.076c-0.061-0.049-0.126-0.104-0.197-0.164
			c0.013,0.021,0.026,0.043,0.039,0.064c0.51,0.555,0.79,0.859,0.839,0.918l-0.011,0.025c-0.119-0.076-0.278-0.216-0.477-0.419
			c0.072,0.101,0.137,0.191,0.193,0.274c0.053,0.043,0.1,0.078,0.14,0.105c0.392,0.308,0.716,0.599,0.974,0.871l-0.014,0.024
			c-0.405-0.329-0.729-0.589-0.971-0.777c0.144,0.2,0.277,0.387,0.404,0.562c0.111,0.101,0.186,0.166,0.223,0.199
			c-0.047-0.03-0.096-0.063-0.149-0.099c0.034,0.049,0.068,0.098,0.104,0.144c0.073,0.063,0.141,0.12,0.203,0.169
			c0.001-0.016-0.006-0.035-0.019-0.059c-0.014-0.03-0.033-0.053-0.061-0.064l0.015-0.035c0.062,0.033,0.109,0.098,0.135,0.193
			l-0.02,0.031c-0.062-0.051-0.127-0.096-0.189-0.135c0.425,0.601,0.738,1.069,0.943,1.408c0.631,1.028,1.078,2.006,1.343,2.932
			c0.032,0.119,0.128,0.909,0.286,2.369c0.182,0.883,0.403,2.052,0.664,3.508c0.436,2.535,0.686,3.949,0.748,4.24
			c0.234,1.129,0.387,1.898,0.456,2.31c0.14,0.866,0.211,1.663,0.218,2.394c0,0.117-0.004,0.234-0.011,0.354
			c0.294,0.534,0.573,1.256,0.834,2.165c0.047,0.166,0.067,0.354,0.06,0.567l1.6,5.599c0.004,0.029,0.014,0.062,0.023,0.098
			c0.5,1.123,1.014,2.311,1.54,3.565c0.327,0.783,1.327,2.927,3,6.431c0.511,1.074,0.938,1.984,1.286,2.729
			c0.176,0.335,0.334,0.672,0.473,1.01c0.384,0.844,0.598,1.338,0.641,1.484c0.1,0.355,0.102,0.637,0.009,0.846
			c0.133,0.793,0.177,1.612,0.132,2.458c-0.009,0.148-0.024,0.304-0.045,0.462c-0.013,0.031-0.029,0.062-0.049,0.096
			c0.003,0.086,0,0.165-0.011,0.238c-0.089,0.488-0.693,0.91-1.812,1.268c-2.556,2.891-4.649,4.335-6.277,4.334
			c-0.109,0.029-0.22,0.057-0.329,0.08l-3.061,0.873c-0.617,0.046-1.197,0.047-1.741,0.004c-0.907-0.078-1.486-0.275-1.741-0.595
			c-0.057,0.171-0.116,0.302-0.181,0.399c-0.105,0.175-0.267,0.295-0.481,0.357c-0.398,0.113-0.827-0.36-1.288-1.42
			c-0.142-0.331-0.279-0.701-0.412-1.109l-0.153-0.513c-0.133-0.454-0.217-0.848-0.254-1.18c-0.056-0.435-0.053-0.872,0.007-1.313
			c0.013-0.112,0.034-0.217,0.064-0.313c-0.057-0.053-0.108-0.104-0.154-0.154c-0.163-0.112-0.327-0.231-0.497-0.354
			c-1.366-1.016-2.564-2.086-3.595-3.211c-0.907-0.979-1.53-1.664-1.865-2.057c-0.431-0.506-0.749-0.936-0.954-1.295
			c-0.182-0.328-0.348-0.742-0.496-1.24c-0.1-0.314-0.275-0.939-0.526-1.875c-0.599-2.097-0.94-3.379-1.026-3.843
			c-0.051-0.265-0.253-1.78-0.609-4.544c-0.179-0.434-0.367-0.872-0.566-1.312c-0.662-1.479-1.146-2.752-1.449-3.823
			c-0.105-0.368-0.184-0.649-0.233-0.841c-0.069-0.136-0.135-0.274-0.193-0.413c-0.09-0.232-0.295-0.904-0.616-2.016
			c-0.066-0.238-0.161-0.664-0.287-1.279c-0.188-0.939-0.324-1.808-0.406-2.607c-0.036-0.404-0.061-0.779-0.074-1.125
			c-0.009-0.013-0.02-0.023-0.029-0.029c0.007-0.023,0.016-0.045,0.025-0.064c-0.003-0.053-0.005-0.104-0.005-0.15
			c-0.146-0.271-0.272-0.592-0.377-0.96c-0.294-1.036-0.271-2.363,0.073-3.985c0.326-1.539,0.86-2.993,1.605-4.363
			c0.525-0.984,0.858-1.643,1.001-1.974c0.174-0.397,0.303-0.77,0.389-1.114c0.003-0.008,0.005-0.014,0.005-0.021
			c-0.026-0.047-0.051-0.091-0.073-0.134c0.016-0.074,0.029-0.148,0.04-0.225c0.069-0.488,0.05-0.922-0.06-1.303
			c-0.022-0.084-0.064-0.174-0.124-0.272c-0.031-0.23-0.112-0.472-0.243-0.725c-0.159-0.302-0.35-0.554-0.571-0.757
			c-0.01-0.008-0.021-0.018-0.03-0.027v-0.114l-0.005,0.022c-0.195-0.203-0.402-0.315-0.621-0.338
			c-0.152-0.083-0.313-0.168-0.482-0.255c-0.177-0.076-0.372-0.102-0.588-0.075c0.018,0.053,0.032,0.108,0.045,0.165l-0.024,0.034
			c-0.033-0.043-0.06-0.102-0.079-0.174c-0.001-0.004,0-0.008,0-0.016c-0.034,0.007-0.066,0.013-0.101,0.02
			c-0.01-0.01-0.018-0.021-0.024-0.034c-0.062-0.001-0.124,0.003-0.184,0.01c0,0.073,0,0.145,0,0.214H100.8l-0.015-0.214
			c-0.205,0.003-0.41,0.006-0.612,0.009c-0.013,0.146-0.017,0.26-0.01,0.339l-0.049,0.015c-0.017-0.09-0.021-0.207-0.015-0.354
			c-0.026,0.004-0.05,0.006-0.07,0.006c0,0.01,0,0.021,0,0.035c0.003,0.035-0.008,0.062-0.035,0.079
			c0.003,0.056,0.007,0.116,0.01,0.179l-0.045,0.01L99.95,53.29c-0.04,0.014-0.065,0.026-0.076,0.04
			c-0.103-0.077-0.167-0.133-0.193-0.17c-0.01,0-0.018,0.017-0.024,0.051c0,0.006-0.001,0.016,0,0.029
			c0,0.08,0.003,0.168,0.009,0.264l-0.025,0.029c-0.016-0.045-0.028-0.11-0.035-0.193l-0.005-0.006
			c-0.02-0.032-0.048-0.087-0.085-0.164l-0.009-0.005c-0.043,0-0.085,0-0.125,0c0.003,0.013,0.009,0.028,0.015,0.045
			c0.1,0.239,0.179,0.411,0.238,0.519l-0.06,0.014c-0.054-0.086-0.127-0.229-0.223-0.433c0.003,0.011,0.005,0.021,0.005,0.035
			c0.003-0.001,0.006,0.003,0.009,0.011l-0.01,0.014c0.003,0.047,0.007,0.088,0.01,0.125l-0.05,0.01
			c0-0.027-0.001-0.059-0.005-0.095c-0.02-0.011-0.036-0.023-0.05-0.04c-0.006-0.003-0.02-0.029-0.039-0.08
			c0,0.031-0.015,0.057-0.045,0.08c-0.016-0.017-0.062-0.062-0.139-0.14c-0.01-0.001-0.017,0.013-0.02,0.04
			c-0.01,0.036-0.02,0.066-0.03,0.09c0.123,0.189,0.184,0.286,0.183,0.293c-0.085-0.049-0.171-0.136-0.258-0.258
			c0,0.043,0,0.08,0,0.113l0,0.006c0.012,0.01,0.024,0.02,0.035,0.029l0.005,0.035c-0.107-0.066-0.205-0.162-0.294-0.289
			c-0.02-0.008-0.037-0.018-0.055-0.035c-0.01-0.01-0.017-0.018-0.02-0.025c-0.022,0.008-0.042,0.014-0.059,0.021
			c0.01,0.083,0.018,0.144,0.025,0.185c0.003,0.006,0.008,0.01,0.017,0.01c-0.009,0-0.015-0.002-0.017-0.005
			c0,0.007,0,0.011,0,0.015c0.002,0.01,0.005,0.021,0.005,0.035c0.017,0.036,0.031,0.064,0.045,0.084l-0.005,0.03
			c-0.017-0.03-0.035-0.053-0.055-0.069c-0.013,0.022-0.037,0.041-0.07,0.055c0,0.003,0,0.008,0,0.015l-0.05,0.01
			c0.004-0.007,0.004-0.016,0-0.024c-0.14,0.006-0.246-0.031-0.318-0.109c-0.053-0.055-0.102-0.102-0.144-0.145l-0.005-0.001
			c-0.007,0-0.015,0.003-0.025,0.005c0.102,0.206,0.154,0.324,0.154,0.354l0.005,0.08c-0.003,0-0.008,0.007-0.015,0.02l-0.03-0.004
			c-0.019-0.061-0.081-0.19-0.183-0.389c-0.007,0.029-0.012,0.047-0.016,0.055h-0.01l0.02,0.193
			c-0.007,0.023-0.022,0.045-0.045,0.064c-0.053-0.062-0.092-0.147-0.114-0.254c-0.007-0.043-0.013-0.08-0.02-0.114
			c-0.037,0.001-0.07-0.002-0.099-0.005c-0.007,0.076-0.017,0.13-0.03,0.159c-0.014-0.003-0.023-0.005-0.03-0.005l0.005,0.029
			c-0.01-0.002-0.017-0.002-0.021,0h-0.034v-0.039c-0.109-0.043-0.172-0.1-0.189-0.17c-0.093-0.016-0.181-0.035-0.264-0.055
			c-0.003,0.004-0.005,0.007-0.005,0.01c-0.003-0.004-0.009-0.008-0.019-0.015c-0.01-0.003-0.019-0.005-0.025-0.005
			c-0.004,0.023-0.005,0.039-0.005,0.05c0.003,0.026-0.005,0.05-0.025,0.069l-0.02-0.02c-0.007-0.014-0.012-0.048-0.015-0.104
			c0-0.003,0-0.009,0-0.016c-0.159-0.046-0.312-0.106-0.458-0.179c-0.013,0-0.03,0-0.05,0c0,0.01-0.002,0.014-0.005,0.014
			c-0.01,0.004-0.017-0.016-0.02-0.059c-0.341-0.196-0.642-0.474-0.9-0.832c-0.209-0.292-0.376-0.611-0.502-0.961
			c-0.092-0.255-0.144-0.448-0.153-0.577c-0.004-0.083-0.005-0.162-0.005-0.239c0.007-0.136,0.026-0.265,0.06-0.388
			c-0.017-0.04-0.033-0.077-0.049-0.114c-0.041-0.096-0.095-0.201-0.164-0.314c0.003-0.012,0.005-0.025,0.005-0.039
			c0.043-0.156,0.103-0.258,0.179-0.303c-0.086-0.137-0.136-0.279-0.149-0.428c0-0.027,0.138-0.227,0.414-0.598
			c0.242-0.335,0.437-0.596,0.583-0.781c0.006-0.006,0.011-0.013,0.015-0.02c0.066-0.084,0.18-0.246,0.343-0.492
			c-0.054-0.113-0.083-0.231-0.089-0.354c-0.014-0.172,0.038-0.365,0.154-0.577c0.034-0.079,0.077-0.151,0.13-0.214
			c0.01-0.133,0.023-0.247,0.04-0.344c0.039-0.199,0.168-0.376,0.384-0.531c0.009-0.004,0.016-0.007,0.02-0.01
			c0.003-0.007,0.009-0.014,0.02-0.02c0.053-0.063,0.195-0.195,0.428-0.394c0.029-0.026,0.06-0.048,0.09-0.065
			c0.003-0.016,0.01-0.032,0.02-0.049c0.425-0.766,0.629-1.292,0.613-1.577c-0.024-0.029-0.043-0.064-0.06-0.104
			c-0.112-0.246-0.179-0.446-0.198-0.602c-0.057-0.418-0.096-0.752-0.119-1.002c-0.11-0.158-0.17-0.346-0.185-0.561
			c-0.02-0.311,0.031-0.561,0.15-0.752c0.156-0.256,0.452-0.465,0.886-0.627c0.276-0.143,0.617-0.241,1.024-0.297
			c0.011,0,0.02-0.002,0.026-0.005c0.086-0.053,0.221-0.1,0.403-0.14h0.005c0.013,0,0.026,0,0.04,0
			C99.896,38.681,99.958,38.671,100.011,38.666L100.011,38.666z M98.84,53.324c-0.02-0.023-0.058-0.033-0.115-0.03
			c0.05,0.073,0.102,0.136,0.154,0.188c-0.006-0.029-0.012-0.062-0.02-0.099l-0.009,0.005C98.846,53.349,98.843,53.327,98.84,53.324
			z M98.313,53.293c0.017,0.039,0.046,0.097,0.089,0.173l0.02-0.004c-0.003-0.023-0.003-0.047,0-0.074
			c-0.013-0.01-0.021-0.022-0.025-0.035c-0.023-0.017-0.047-0.037-0.069-0.061C98.324,53.293,98.319,53.292,98.313,53.293
			L98.313,53.293z M112.416,37.58c0.325,0.074,0.56,0.135,0.701,0.186c0.026,0.004,0.055,0.006,0.085,0.01
			c0.097,0.01,0.197,0.021,0.304,0.035c-0.087-0.041-0.181-0.08-0.284-0.119c-0.438-0.18-0.99-0.375-1.66-0.584
			c-0.004,0.007-0.01,0.017-0.016,0.029c0.08,0.018,0.159,0.039,0.238,0.064c0.435,0.11,0.654,0.203,0.657,0.28
			C112.441,37.513,112.434,37.546,112.416,37.58z M112.81,38.107c-0.054-0.016-0.108-0.033-0.164-0.053
			c-0.034-0.004-0.064-0.01-0.09-0.016c0.006,0.003,0.012,0.006,0.015,0.01C112.649,38.064,112.729,38.084,112.81,38.107z
			 M113.122,38.073c-0.016,0.004-0.031,0.006-0.045,0.006c-0.039,0.007-0.084,0.008-0.134,0.005c0.06,0.02,0.118,0.039,0.179,0.061
			c0.127,0.042,0.26,0.09,0.403,0.143c-0.126-0.072-0.255-0.141-0.389-0.203C113.134,38.078,113.13,38.074,113.122,38.073
			L113.122,38.073z M113.327,38.029c0.112,0.029,0.221,0.063,0.328,0.1c0.182,0.033,0.386,0.074,0.612,0.125
			c-0.181-0.029-0.345-0.061-0.493-0.09c0.557,0.199,0.85,0.381,0.875,0.543c0.01,0.004,0.021,0.008,0.029,0.01
			c-0.056-0.275-0.414-0.564-1.079-0.866c-0.006-0.007-0.011-0.009-0.014-0.005c-0.117-0.018-0.239-0.027-0.369-0.031
			c0.034,0.018,0.05,0.031,0.05,0.045c0.004,0.04-0.01,0.083-0.04,0.131C113.261,38,113.294,38.011,113.327,38.029z M113.032,38.552
			c0.062,0.016,0.128,0.034,0.193,0.054c-0.016-0.01-0.032-0.021-0.049-0.03l-0.363-0.095
			C112.888,38.504,112.96,38.528,113.032,38.552z M113.311,38.794c0.076,0.047,0.149,0.094,0.22,0.141
			c0.143,0.062,0.286,0.145,0.432,0.244c0.07,0.02,0.146,0.043,0.23,0.069c-0.124-0.106-0.266-0.213-0.429-0.319
			c-0.03-0.02-0.062-0.039-0.095-0.059c-0.02-0.012-0.036-0.018-0.049-0.02c-0.141-0.045-0.279-0.089-0.419-0.137
			C113.238,38.745,113.274,38.771,113.311,38.794z M114.202,38.542c0.02,0.007,0.041,0.014,0.064,0.025
			c-0.02-0.011-0.035-0.022-0.045-0.035c-0.01,0-0.021-0.001-0.035,0C114.19,38.539,114.194,38.542,114.202,38.542L114.202,38.542z
			 M114.053,38.447c-0.024-0.023-0.052-0.043-0.085-0.06c-0.072-0.036-0.15-0.074-0.234-0.114c0.101,0.057,0.196,0.113,0.289,0.17
			C114.028,38.443,114.039,38.444,114.053,38.447L114.053,38.447z M114.022,38.81c0.072,0.043,0.138,0.087,0.195,0.129
			c0.025,0.011,0.052,0.021,0.078,0.031c-0.082-0.057-0.169-0.109-0.259-0.16H114.022z M114.093,38.806
			c0.139,0.075,0.268,0.152,0.387,0.229c0.034,0.014,0.068,0.027,0.105,0.045c-0.09-0.109-0.209-0.225-0.358-0.344h-0.01
			c-0.026,0-0.038-0.001-0.034-0.005c0-0.007,0.003-0.017,0.01-0.03c-0.01-0.01-0.022-0.018-0.035-0.023
			c-0.25-0.074-0.488-0.145-0.717-0.211c0.07,0.037,0.136,0.072,0.199,0.105c0.007,0.004,0.013,0.006,0.02,0.01
			c0.1,0.047,0.197,0.097,0.293,0.149c0.044,0.017,0.09,0.036,0.14,0.06L114.093,38.806L114.093,38.806z M114.325,39.383
			c-0.036-0.007-0.069-0.017-0.1-0.03c0.074,0.053,0.148,0.104,0.225,0.148c-0.033-0.039-0.068-0.076-0.104-0.109
			C114.339,39.39,114.331,39.386,114.325,39.383L114.325,39.383z M114.346,39.298c0.03,0.01,0.06,0.018,0.089,0.025
			c-0.01-0.008-0.018-0.016-0.025-0.025c-0.062-0.037-0.123-0.076-0.184-0.119C114.267,39.218,114.306,39.259,114.346,39.298z
			 M114.64,39.208c-0.057-0.02-0.111-0.039-0.164-0.06c0.102,0.077,0.195,0.156,0.278,0.239c-0.013-0.043-0.03-0.088-0.051-0.135
			C114.681,39.237,114.659,39.222,114.64,39.208L114.64,39.208z M114.479,39.427c0.05,0.061,0.095,0.123,0.134,0.189h0.005
			c-0.025-0.053-0.057-0.109-0.094-0.169C114.505,39.441,114.489,39.435,114.479,39.427z M114.753,39.523
			c-0.016-0.008-0.032-0.012-0.05-0.016c0.003,0.017,0.006,0.037,0.005,0.06c0.007,0.026,0.01,0.068,0.006,0.125
			c0.119,0.087,0.227,0.174,0.322,0.264c0.043,0.024,0.088,0.048,0.135,0.075c-0.073-0.156-0.203-0.32-0.393-0.494
			C114.769,39.527,114.761,39.523,114.753,39.523L114.753,39.523z M114.788,39.404l-0.01,0.01c0.01,0.016,0.02,0.027,0.029,0.033
			c0.066,0.024,0.127,0.045,0.18,0.061c-0.063-0.061-0.129-0.119-0.199-0.179C114.788,39.355,114.788,39.38,114.788,39.404
			L114.788,39.404z M114.728,40.458c-0.006-0.011-0.015-0.02-0.025-0.03c-0.109-0.063-0.227-0.132-0.352-0.204
			c0.068,0.053,0.139,0.107,0.209,0.165C114.618,40.416,114.675,40.438,114.728,40.458z M115.364,40.573
			c0.004-0.003,0.004-0.008,0-0.015c-0.004-0.039-0.016-0.08-0.039-0.119c-0.057-0.037-0.113-0.07-0.17-0.1
			c0.014,0.023,0.025,0.048,0.035,0.074l0.006,0.039c-0.045-0.062-0.099-0.127-0.164-0.193c-0.043-0.021-0.09-0.041-0.141-0.064
			c0.07,0.076,0.133,0.15,0.189,0.224C115.194,40.478,115.288,40.53,115.364,40.573L115.364,40.573z M114.28,39.99
			c0.021,0.01,0.041,0.02,0.064,0.029c-0.062-0.046-0.129-0.094-0.199-0.144l-0.01-0.005
			C114.179,39.907,114.228,39.947,114.28,39.99z M115.114,41.201c-0.059-0.064-0.121-0.125-0.188-0.186
			c0.014,0.021,0.026,0.042,0.039,0.064c0.02,0.021,0.04,0.041,0.061,0.061C115.056,41.156,115.085,41.176,115.114,41.201z
			 M115.414,40.593c0.047,0.033,0.095,0.068,0.145,0.104c-0.046-0.065-0.098-0.127-0.153-0.184c0.002,0.006,0.002,0.014,0,0.02
			C115.407,40.553,115.41,40.574,115.414,40.593z M116.229,41.15c0.133,0.101,0.252,0.195,0.354,0.285
			c-0.132-0.143-0.275-0.275-0.428-0.398C116.185,41.076,116.21,41.115,116.229,41.15z M116.11,41.25
			c0.014,0.036,0.026,0.067,0.04,0.095c0.029,0.02,0.06,0.043,0.09,0.07c-0.021-0.041-0.044-0.08-0.07-0.115
			C116.147,41.284,116.128,41.267,116.11,41.25z M115.808,41.046c-0.053-0.018-0.104-0.035-0.15-0.055
			c0.034,0.039,0.072,0.084,0.115,0.134c0.043,0.026,0.09,0.054,0.139,0.079c-0.026-0.049-0.057-0.097-0.089-0.145
			C115.815,41.058,115.811,41.052,115.808,41.046L115.808,41.046z M115.413,40.896c-0.032-0.017-0.068-0.029-0.109-0.04
			c0.054,0.023,0.107,0.054,0.164,0.091C115.452,40.93,115.435,40.914,115.413,40.896z M115.672,41.927
			c0.229,0.205,0.442,0.432,0.642,0.677c0.09,0.104,0.172,0.21,0.248,0.323c0.037,0.044,0.07,0.087,0.1,0.13
			c-0.01-0.067-0.036-0.142-0.08-0.225c-0.009-0.026-0.022-0.053-0.039-0.079l-0.039,0.005c0.006-0.01,0.013-0.02,0.02-0.03
			c-0.039-0.068-0.088-0.145-0.145-0.224c-0.213-0.196-0.469-0.419-0.771-0.667C115.627,41.867,115.648,41.896,115.672,41.927z
			 M116.194,41.957l-0.016,0.02c-0.002-0.021-0.006-0.049-0.01-0.078c-0.154-0.197-0.355-0.42-0.602-0.668
			c-0.086-0.047-0.174-0.094-0.264-0.145c0.418,0.408,0.745,0.762,0.98,1.062c0.01-0.014,0.024-0.024,0.045-0.03
			c-0.041-0.057-0.084-0.113-0.13-0.17C116.199,41.951,116.198,41.955,116.194,41.957z M115.961,41.5
			c-0.022-0.018-0.046-0.033-0.069-0.051c0.072,0.08,0.141,0.158,0.203,0.234C116.053,41.617,116.007,41.555,115.961,41.5z
			 M116.319,41.459c0.176,0.12,0.338,0.235,0.488,0.349c0.102,0.076,0.195,0.151,0.282,0.225c-0.093-0.084-0.186-0.165-0.278-0.244
			c-0.162-0.134-0.33-0.261-0.502-0.384L116.319,41.459z M116.31,42.176c0.021,0.023,0.043,0.052,0.059,0.084
			c0.033,0.03,0.066,0.063,0.1,0.101c-0.029-0.057-0.064-0.115-0.104-0.176L116.31,42.176z M116.597,44.162
			c0.089,0.14,0.168,0.271,0.238,0.393c-0.058-0.108-0.115-0.215-0.175-0.318C116.638,44.21,116.616,44.185,116.597,44.162z
			 M117.263,43.695c-0.01-0.003-0.02,0.001-0.029,0.015c-0.018,0.026-0.031,0.043-0.045,0.05c-0.004-0.017-0.001-0.041,0.01-0.074
			c0.007-0.041,0.008-0.08,0.006-0.121c0-0.028-0.006-0.057-0.013-0.086C117.214,43.55,117.237,43.623,117.263,43.695z
			 M117.297,45.492c0.022,0.035,0.043,0.068,0.059,0.099c-0.017-0.033-0.03-0.067-0.044-0.099H117.297L117.297,45.492z
			 M115.61,45.032c0-0.014,0.001-0.025,0.004-0.036c-0.006-0.006-0.012-0.012-0.015-0.019c0.001,0.016-0.001,0.032-0.005,0.05v0.005
			C115.599,45.031,115.603,45.032,115.61,45.032z M116.128,44.947c0.264,0.744,0.459,1.278,0.58,1.604
			c-0.111-0.336-0.277-0.822-0.496-1.458C116.188,45.044,116.16,44.998,116.128,44.947z M115.647,46.873
			c0.004,0.004,0.007,0.009,0.011,0.016l-0.005-0.016H115.647z M116.69,50.581c-0.001,0.003-0.002,0.005-0.002,0.005
			c0.003,0.004,0.008,0.01,0.012,0.016C116.696,50.593,116.693,50.587,116.69,50.581z M116.847,51.115
			c0.021,0.029,0.041,0.059,0.062,0.086c-0.01-0.02-0.02-0.039-0.029-0.061c-0.013-0.012-0.025-0.024-0.039-0.037
			C116.844,51.107,116.846,51.111,116.847,51.115z M116.889,51.623c0.005,0.004,0.011,0.01,0.015,0.014l-0.01,0.006
			c0.009,0.025,0.017,0.051,0.024,0.076c0.07,0.064,0.141,0.127,0.21,0.189c-0.018-0.035-0.035-0.072-0.053-0.109
			c-0.062-0.061-0.127-0.127-0.193-0.197C116.884,51.609,116.888,51.617,116.889,51.623z M116.894,51.412
			c-0.036-0.039-0.074-0.081-0.111-0.124c0.018,0.053,0.033,0.103,0.05,0.151c0.061,0.074,0.118,0.143,0.171,0.207
			C116.968,51.572,116.933,51.494,116.894,51.412z"/>
	</g>
	<g id="Layer_4_4_">
		<path id="path8_4_" fill="#010101" d="M65.881,51.408c0.14-0.061,0.3-0.092,0.483-0.096l0.01-0.023l0.035,0.019
			c0.348-0.013,0.765,0.059,1.249,0.216c0.76,0.246,1.45,0.623,2.07,1.131c0.573,0.469,0.969,0.959,1.188,1.473
			c0.116,0.094,0.214,0.211,0.294,0.35c0.003,0.006,0.008,0.018,0.014,0.03c0.057,0.112,0.096,0.21,0.12,0.294
			c0.374,0.285,0.76,0.756,1.158,1.414c0.016,0.021,0.033,0.047,0.05,0.069c0.208-0.11,0.451-0.22,0.726-0.333
			c0.339-0.133,0.631-0.236,0.876-0.312c0.08-0.186,0.14-0.396,0.179-0.632c0.034-0.223,0.054-0.52,0.061-0.892
			c0.008-0.327,0.022-0.529,0.045-0.607l0.269-0.104c0.219-0.082,0.427-0.151,0.622-0.208c0.146-0.04,0.314,0.097,0.503,0.408
			c0.006,0.017,0.184,0.368,0.531,1.056c0.06,0.112,0.118,0.219,0.173,0.318c-0.026,0.371-0.068,0.742-0.125,1.109
			c-0.134,0.958-0.323,1.648-0.569,2.07c0.033,0.375,0.099,0.661,0.198,0.861c0.276,0.716,0.45,1.176,0.526,1.378
			c0.342,0.353,0.752,0.8,1.233,1.345c0.215,0.096,0.436,0.201,0.662,0.313c0.722,0.368,1.186,0.644,1.393,0.822
			c1.349,1.142,2.164,1.843,2.441,2.102c0.885,0.808,1.57,1.54,2.053,2.2c0.483,0.682,1.394,2.158,2.728,4.432
			c0.458,0.783,0.859,1.488,1.208,2.115c0.169-0.57,0.423-1.18,0.762-1.83c0.781-1.492,1.896-3,3.348-4.525
			c1.106-1.16,2.145-2.07,3.118-2.729c0.161-0.146,0.338-0.296,0.526-0.452c0.907-0.709,1.591-1.252,2.057-1.627
			c0.441-0.355,0.836-0.692,1.188-1.014c-0.073,0.043-0.147,0.086-0.222,0.13c-0.023,0.033-0.048,0.057-0.075,0.069
			c-0.05,0.023-0.075-0.016-0.075-0.119c0-0.076,0.327-0.346,0.978-0.806c-0.208,0.112-0.368,0.198-0.48,0.259l-0.025-0.074
			c0.403-0.273,0.78-0.522,1.131-0.746c-0.191,0.102-0.361,0.184-0.508,0.248l-0.05-0.074c0.232-0.191,0.534-0.408,0.907-0.651
			c0.016-0.024,0.032-0.048,0.047-0.071c-0.859,0.512-1.327,0.794-1.401,0.847c0.036-0.176,0.21-0.394,0.523-0.652
			c-0.093,0.042-0.176,0.077-0.249,0.105c0.052-0.265,0.499-0.65,1.341-1.161c-0.106,0.045-0.189,0.066-0.246,0.067
			c0.093-0.108,0.252-0.249,0.478-0.423c0.016-0.051,0.03-0.102,0.047-0.152c-0.584,0.351-0.983,0.592-1.196,0.723
			c0.114-0.291,0.575-0.695,1.384-1.213c0.025-0.055,0.051-0.108,0.077-0.16c-0.202,0.115-0.374,0.217-0.515,0.305l-0.075-0.049
			c0.271-0.199,0.517-0.373,0.734-0.525c0.075-0.13,0.157-0.254,0.244-0.37c-0.249,0.104-0.417,0.179-0.505,0.224l-0.05-0.049
			c0.279-0.206,0.535-0.383,0.769-0.533c-0.154,0.022-0.294,0.035-0.42,0.035c-0.103,0-0.21-0.01-0.319-0.025l-0.129-0.025
			c0.416-0.174,0.849-0.338,1.298-0.494c0.026-0.031,0.055-0.063,0.084-0.094c-0.241-0.013-0.421-0.023-0.534-0.033
			c0-0.018-0.052-0.042-0.15-0.074c0.081-0.053,0.289-0.097,0.627-0.13c-0.199-0.017-0.407-0.032-0.627-0.045l-0.199-0.149
			l0.101-0.025l1.045,0.002c-0.211-0.078-0.444-0.17-0.696-0.275c0.132-0.026,0.406-0.016,0.82,0.031
			c0.146,0.016,0.281,0.029,0.408,0.041c0.028-0.016,0.056-0.033,0.084-0.051c-0.034-0.014-0.071-0.029-0.109-0.045
			c-0.314-0.133-0.509-0.225-0.581-0.273l0.024-0.05c0.04-0.001,0.18,0.06,0.423,0.179c0.118,0.049,0.241,0.088,0.366,0.117
			c1.091-0.631,2.401-0.805,3.933-0.521c1.656,0.303,3.059,1.041,4.209,2.217c1.275,1.299,1.913,2.844,1.912,4.635
			c0,0.574-0.105,1.074-0.314,1.497c-0.196,0.404-0.521,0.81-0.977,1.214c-0.355,0.318-0.92,0.74-1.693,1.268
			c-1.005,0.68-1.828,1.242-2.469,1.689c-1.192,0.842-2.04,1.799-2.546,2.875c-0.162,0.348-0.337,0.812-0.522,1.396
			c-0.213,0.684-0.37,1.149-0.469,1.398c-0.352,0.883-1.115,1.977-2.287,3.283c-0.332,0.37-0.686,0.744-1.061,1.123
			c-0.14,0.287-0.328,0.667-0.563,1.138c-0.017-0.043-0.04-0.162-0.069-0.357c-0.007-0.045-0.015-0.088-0.025-0.127
			c-0.035,0.033-0.07,0.066-0.105,0.102c-0.268,0.691-0.542,1.266-0.822,1.726l-0.124,0.024c0.181-0.502,0.338-0.938,0.474-1.305
			c-0.171,0.159-0.345,0.318-0.523,0.479c-0.29,0.577-0.489,0.952-0.598,1.123c-0.007,0.021-0.015,0.031-0.025,0.03
			c-0.018,0-0.024-0.052-0.024-0.154c0-0.038,0.104-0.271,0.311-0.697c-0.105,0.092-0.211,0.186-0.318,0.277
			c-0.147,0.318-0.289,0.607-0.427,0.867h-0.075l-0.025-0.148c0.054-0.138,0.105-0.27,0.155-0.396
			c-0.09,0.077-0.178,0.151-0.267,0.226c-0.27,0.547-0.464,0.922-0.585,1.125h-0.075l-0.024-0.109
			c0.056-0.157,0.116-0.319,0.182-0.49c-0.242,0.32-0.485,0.629-0.729,0.925c-0.055,0.208-0.097,0.405-0.126,0.595l-0.05,0.049
			c-0.023-0.013-0.037-0.026-0.044-0.039c-0.003-0.017-0.005-0.082-0.005-0.195c0.001-0.046,0.005-0.1,0.014-0.158
			c-0.354,0.416-0.712,0.807-1.074,1.174c-1.484,1.494-2.925,2.441-4.32,2.843c-0.439,0.126-0.798,0.106-1.075-0.056
			c-0.721,0.344-1.461,0.624-2.22,0.839c-0.299,0.073-0.562,0.142-0.792,0.208c-0.192,0.053-0.371,0.11-0.537,0.169
			c-0.037-0.056-0.093-0.12-0.169-0.193c-0.981-0.356-1.542-1.176-1.68-2.46c-0.59-1.102-1.032-1.811-1.327-2.126
			c-1.591-1.74-2.722-3.015-3.391-3.823l-0.05-0.016c-0.418-0.312-0.767-0.521-1.044-0.628l0.059-0.084
			c0.252,0.141,0.511,0.276,0.777,0.41c-0.196-0.247-0.334-0.431-0.413-0.558c-0.069-0.119-0.141-0.242-0.214-0.369
			c-0.524-0.465-0.993-0.781-1.407-0.951l0.054-0.084l0.483,0.199c0.137,0.127,0.358,0.293,0.666,0.503
			c-0.022-0.054-0.05-0.106-0.083-0.159c-0.531-0.339-0.945-0.576-1.244-0.713l0.03-0.074c0.053,0,0.161,0.033,0.323,0.1
			c0.029,0.014,0.287,0.173,0.771,0.479c-0.086-0.152-0.171-0.306-0.254-0.458c-0.633-0.372-1.255-0.718-1.865-1.036l0.06-0.025
			l1.323,0.529l-0.035-0.045c-0.401-0.213-0.832-0.41-1.293-0.594l0.059-0.085c0.465,0.187,0.813,0.319,1.045,0.399
			c0.097,0.04,0.189,0.07,0.279,0.09c-0.003-0.01-0.01-0.021-0.02-0.03c-0.066-0.032-0.134-0.071-0.204-0.114
			c-0.627-0.318-1.099-0.549-1.417-0.688l0.025-0.07l1.12,0.369c-0.187-0.129-0.411-0.266-0.677-0.408
			c-0.15-0.08-0.357-0.187-0.621-0.318l0.059-0.035c0.378,0.129,0.786,0.239,1.225,0.328c-0.027-0.049-0.056-0.096-0.085-0.139
			c-0.116-0.062-0.254-0.139-0.417-0.229c-0.328-0.189-0.594-0.331-0.796-0.424l0.03-0.06c0.199,0.043,0.366,0.091,0.498,0.145
			l-0.041-0.046c-0.225-0.085-0.517-0.223-0.875-0.408l0.059-0.079c0.136,0.057,0.206,0.076,0.209,0.06
			c-0.169-0.104-0.237-0.193-0.204-0.273l0.761,0.199c0.076,0.023,0.15,0.043,0.224,0.061c-0.047-0.09-0.091-0.182-0.134-0.273
			c-0.014-0.008-0.024-0.013-0.035-0.016c-0.322-0.15-0.567-0.271-0.736-0.363l0.06-0.09l0.502,0.119l0.005-0.014
			c-0.242-0.18-0.631-0.406-1.168-0.678l0.025-0.075c0.103,0.007,0.337,0.053,0.701,0.14c0.057,0.014,0.11,0.021,0.16,0.025
			c-0.047-0.087-0.093-0.181-0.14-0.284l-0.279-0.11c-0.153-0.022-0.345-0.081-0.577-0.174l0.035-0.149
			c0.236,0.05,0.409,0.087,0.522,0.11c0.054,0.01,0.101,0.018,0.14,0.024c-0.014-0.029-0.03-0.063-0.049-0.104
			c-0.207-0.05-0.321-0.078-0.344-0.084c-0.251-0.094-0.414-0.257-0.487-0.489c0.076-0.016,0.228-0.024,0.454-0.023
			c0.029-0.007,0.057-0.013,0.084-0.015c-0.023-0.047-0.047-0.092-0.069-0.135c-0.113-0.033-0.243-0.069-0.393-0.105
			c-0.391-0.105-0.644-0.174-0.756-0.204c0.09-0.309,0.36-0.438,0.811-0.388c-0.02-0.053-0.047-0.107-0.08-0.164
			c-0.524-0.09-0.801-0.144-0.831-0.16l0.025-0.07c0.109-0.023,0.313-0.039,0.612-0.049c0.017,0,0.034-0.003,0.054-0.01
			c-0.032-0.062-0.064-0.129-0.094-0.199c-0.053-0.003-0.108-0.005-0.164-0.005c-0.345-0.011-0.524-0.019-0.538-0.025l-0.145-0.055
			c0.004-0.01,0.005-0.028,0.005-0.055c0.173-0.036,0.414-0.075,0.723-0.12c-0.028-0.039-0.05-0.082-0.07-0.129
			c-0.037-0.076-0.073-0.154-0.109-0.233c-0.205-0.007-0.345-0.023-0.417-0.05c-0.081-0.026-0.094-0.064-0.045-0.115
			c0.059-0.056,0.05-0.1-0.031-0.129c-0.002,0.004-0.026,0.022-0.069,0.059c-0.059,0.004-0.149-0.096-0.268-0.298
			c0.096-0.056,0.259-0.12,0.488-0.192c-0.047-0.11-0.093-0.225-0.139-0.346c-0.375,0.018-0.587,0.023-0.637,0.021l-0.095-0.071
			c0.01-0.019,0.045-0.042,0.105-0.069c0.053-0.025,0.074-0.051,0.065-0.074c-0.127-0.03-0.199-0.047-0.219-0.05
			c-0.073-0.03-0.126-0.08-0.159-0.149c0.106-0.05,0.318-0.09,0.637-0.119c0.019,0,0.037-0.004,0.049-0.01
			c-0.013-0.039-0.031-0.082-0.055-0.125c-0.08,0.004-0.162,0.008-0.248,0.016c-0.329,0.026-0.544,0.037-0.647,0.033
			c-0.034-0.055-0.049-0.137-0.044-0.244c0.102-0.056,0.219-0.08,0.348-0.073l0.349,0.029c0.042-0.003,0.083-0.013,0.12-0.029
			c-0.04-0.089-0.082-0.181-0.124-0.273c-0.266,0.166-0.432,0.236-0.499,0.213c-0.083-0.03-0.093-0.071-0.029-0.124
			c0.069-0.053,0.065-0.093-0.015-0.119c-0.023-0.01-0.1,0.008-0.229,0.055c-0.122,0.039-0.195,0.055-0.219,0.045
			c-0.092-0.037-0.132-0.068-0.119-0.096c0.003-0.006,0.017-0.011,0.039-0.014c0.063-0.156,0.142-0.253,0.235-0.289
			c0.142-0.05,0.237-0.095,0.283-0.135c0.053-0.105,0.105-0.207,0.155-0.303c-0.087,0.033-0.218,0.078-0.393,0.135l-0.219-0.171
			c0.02-0.049,0.044-0.132,0.075-0.248c0.007-0.003,0.015-0.013,0.025-0.029c-0.458-0.138-1.005-0.396-1.642-0.777
			c-0.009-0.007-0.019-0.016-0.029-0.025c-1.506-0.067-2.97-0.669-4.393-1.806c0.004,0.044,0.004,0.09,0,0.14
			c0.033,0.097,0.076,0.188,0.128,0.274c0.235,0.346,0.365,0.541,0.388,0.587c0.053,0.12,0.086,0.3,0.1,0.542
			c0.033,0.499-0.157,0.759-0.568,0.781c-0.308,0.02-0.54-0.113-0.696-0.398c-0.016-0.036-0.084-0.239-0.203-0.607
			c-0.043-0.152-0.131-0.331-0.264-0.537c-0.152-0.213-0.27-0.374-0.353-0.482c0.056,0.318,0.083,0.512,0.08,0.582
			c0.016,0.165,0.009,0.312-0.02,0.442c-0.044,0.122-0.09,0.216-0.141,0.278c-0.049,0.239-0.185,0.363-0.407,0.373
			c-0.395,0.026-0.649-0.143-0.762-0.508c-0.022-0.359-0.034-0.545-0.035-0.557c-0.002-0.037,0.011-0.105,0.041-0.205
			c0.023-0.093,0.034-0.162,0.03-0.209c0-0.046-0.035-0.193-0.104-0.443c-0.059-0.159-0.099-0.278-0.119-0.357
			c-0.01-0.039-0.017-0.072-0.02-0.096c-0.007-0.109-0.005-0.279,0.005-0.512c0.003-0.139,0.012-0.244,0.025-0.313
			c-0.029-0.047-0.056-0.089-0.079-0.13c-0.03-0.072-0.057-0.172-0.08-0.299c-0.01-0.039-0.016-0.07-0.02-0.09
			c-0.116-0.305-0.182-0.598-0.198-0.881c-0.023-0.375-0.048-0.689-0.074-0.944c-0.109-0.202-0.167-0.31-0.174-0.319
			c-0.216-0.49-0.353-0.851-0.412-1.08c-0.013-0.04-0.025-0.074-0.035-0.104c-0.032-0.116-0.045-0.249-0.034-0.397
			c-0.006-0.067-0.013-0.136-0.021-0.209l0.041,0.02c0.017-0.112,0.041-0.234,0.075-0.363c0.109-0.4,0.321-0.908,0.633-1.521
			c-0.218-0.462-0.282-0.871-0.188-1.229c0.153-0.62,0.793-0.863,1.921-0.73l0.064-0.119c-0.027-0.069-0.056-0.162-0.089-0.278
			C65.262,52.007,65.406,51.592,65.881,51.408L65.881,51.408z M100.99,78.075c0.078-0.14,0.15-0.27,0.216-0.392
			c-0.082,0.082-0.166,0.165-0.25,0.248C100.979,77.979,100.99,78.026,100.99,78.075z M78.725,75.794l-0.005-0.01l-0.025-0.011
			C78.705,75.788,78.714,75.794,78.725,75.794L78.725,75.794z M78.004,74.474c-0.086-0.013-0.159-0.02-0.219-0.02
			c0.069,0.033,0.163,0.078,0.283,0.135C78.052,74.556,78.031,74.518,78.004,74.474L78.004,74.474z M74.795,68.292l0.024,0.004
			c0.033,0.004,0.068,0.004,0.104,0.001c0-0.01-0.003-0.021-0.01-0.03C74.864,68.274,74.825,68.283,74.795,68.292L74.795,68.292z
			 M73.885,66.027c-0.003-0.006-0.006-0.014-0.01-0.024c-0.033,0.033-0.063,0.068-0.09,0.104
			C73.816,66.078,73.849,66.05,73.885,66.027z"/>
	</g>
	<g id="Layer_6_3_">
		<path id="path11_3_" fill="#010101" d="M117.872,91.817c0.097-0.484,0.197-0.954,0.301-1.408c0.725-3.139,2.662-4.047,5.808-2.729
			c2.534,1.061,4.696,2.6,6.485,4.618c0.793,0.89,1.398,1.879,1.819,2.968c0.119,0.152,0.255,0.325,0.407,0.518
			c-0.02,0.043-0.078,0.076-0.174,0.1c-0.023-0.137-0.077-0.277-0.159-0.424c0.1,0.293,0.188,0.592,0.269,0.896
			c0.025,0.105,0.053,0.213,0.079,0.319c0.017,0.017,0.033,0.032,0.05,0.049l0.229,0.553l-0.08,0.064
			c-0.036-0.077-0.076-0.159-0.119-0.249c0.02,0.133,0.04,0.266,0.06,0.398c0.011,0.026,0.022,0.049,0.04,0.069l0.263,0.632
			l-0.021,0.02l-0.015,0.025l-0.001-0.002c0.056,0.094,0.112,0.188,0.171,0.281c0.003,0.053-0.05,0.102-0.159,0.145l-0.229-0.562
			c0.01,0.179,0.015,0.358,0.014,0.537c0.179,0.346,0.313,0.588,0.403,0.731c0,0.053-0.054,0.101-0.159,0.144
			c-0.097-0.238-0.18-0.442-0.249-0.611c-0.014,0.152-0.022,0.304-0.03,0.453c0.122,0.324,0.207,0.57,0.253,0.736
			c-0.013,0.033-0.032,0.057-0.055,0.07c-0.044,0.025-0.085-0.01-0.124-0.105c-0.01-0.02-0.05-0.133-0.119-0.339
			c-0.026,0.196-0.061,0.392-0.1,0.587l0.184,0.443l-0.035,0.064c-0.063-0.013-0.143-0.057-0.238-0.129
			c-0.014,0.056-0.029,0.111-0.045,0.169c-0.014,0.026-0.027,0.052-0.04,0.074c0.013,0.03,0.024,0.059,0.034,0.085l-0.084,0.064
			l-0.016-0.035c-0.006,0.018-0.013,0.031-0.02,0.046c0.039,0.151,0.064,0.288,0.074,0.407l-0.069,0.025
			c-0.044,0.003-0.073,0.003-0.09,0c-0.011,0-0.033-0.045-0.069-0.135c-0.156,0.299-0.311,0.618-0.463,0.96
			c-1.316,2.864-3.11,5.47-5.381,7.813c-1.633,1.693-3.096,3.291-4.388,4.793c0.03,0.236,0.042,0.396,0.035,0.482
			c0.003,0.256-0.029,0.472-0.095,0.646l-0.076-0.054c-0.002-0.379-0.017-0.664-0.043-0.856c-0.014,0.018-0.032,0.037-0.055,0.064
			c-0.008,0.094-0.016,0.205-0.025,0.334c-0.023,0.219-0.059,0.398-0.104,0.541c-0.044-0.032-0.075-0.068-0.096-0.104
			c0.03,0.143,0.03,0.335,0,0.576c-0.036,0.307-0.054,0.494-0.05,0.562l-0.104-0.014c-0.013-0.152-0.053-0.391-0.119-0.712
			c-0.04-0.193-0.069-0.353-0.089-0.479c-0.023,0.021-0.044,0.043-0.061,0.069c0,0.1,0.016,0.341,0.045,0.723
			c0.02,0.412,0.011,0.716-0.025,0.915l-0.035-0.044c-0.007-0.104-0.019-0.172-0.035-0.205c-0.006,0.026-0.02,0.062-0.039,0.104
			c-0.014,0.043-0.039,0.075-0.08,0.095c-0.047-0.057-0.081-0.136-0.104-0.24c-0.007-0.032-0.022-0.118-0.049-0.258l-0.025,0.049
			c-0.001,0.496-0.024,0.846-0.071,1.051l-0.104-0.005c-0.066-0.119-0.118-0.294-0.154-0.522h-0.044
			c0.056,0.198,0.018,0.415-0.116,0.646c-0.105,0.18-0.252,0.344-0.438,0.497c-0.027-0.017-0.053-0.056-0.08-0.119
			c-0.025-0.056-0.047-0.083-0.064-0.08c0,0.026,0.006,0.087,0.016,0.18c-0.014,0.076-0.074,0.118-0.18,0.124
			c-0.159-0.004-0.214-0.014-0.164-0.029c0-0.023-0.012-0.049-0.035-0.075c-0.01-0.021-0.02-0.035-0.029-0.046
			c-0.023,0.031-0.073,0.197-0.15,0.504c-0.051,0.209-0.117,0.312-0.204,0.312c-0.106,0-0.181-0.016-0.224-0.049
			c-0.029-0.014-0.062-0.049-0.1-0.105c0.017-0.146-0.008-0.3-0.074-0.463c-0.025,0.03-0.053,0.062-0.08,0.094
			c-0.01,0.197-0.059,0.387-0.145,0.572c-0.102-0.012-0.193-0.041-0.27-0.084c-0.016-0.014-0.031-0.025-0.043-0.035
			c-0.021,0.017-0.042,0.034-0.066,0.055c-0.006,0.411-0.045,0.73-0.115,0.955l-0.173-0.02c-0.057-0.073-0.116-0.221-0.18-0.443
			c-0.006-0.021-0.016-0.039-0.029-0.06c-0.036,0.04-0.077,0.078-0.12,0.114v0.185c0.07,0.166,0.085,0.366,0.045,0.603h-0.164
			c-0.053-0.127-0.143-0.288-0.268-0.483c-0.134,0.103-0.267,0.198-0.398,0.288c-0.011,0.006-0.021,0.015-0.03,0.025
			c-0.024,0.02-0.048,0.036-0.074,0.049c-1.169,0.756-1.751,1.143-1.749,1.158c0,0.023-0.066,0.521-0.199,1.492
			c0.033,0.031,0.416,0.545,1.148,1.544c0.732,0.996,1.612,3.061,2.643,6.192c0.322,0.985,0.599,1.893,0.823,2.723
			c0.007,0.02,0.015,0.036,0.024,0.05c0.076,0.149,0.154,0.317,0.234,0.507c0.132,0.312,0.306,0.738,0.521,1.279
			c0.029,0.076,0.06,0.154,0.089,0.234l-0.074-0.005c-0.023-0.07-0.056-0.146-0.099-0.229c-0.127-0.311-0.297-0.695-0.513-1.15
			c0.05,0.193,0.095,0.381,0.134,0.562c0.082,0.18,0.16,0.377,0.233,0.593c0.044,0.11,0.083,0.222,0.12,0.335
			c0.396,1.193,0.595,2.252,0.594,3.174c0.001,0.109-0.001,0.168-0.005,0.174c0.004,0.004,0,0.006-0.01,0.006
			c0.026,0.145,0.05,0.293,0.069,0.441c0.208,0.602,0.354,1.191,0.437,1.768h-0.069c-0.011-0.036-0.084-0.16-0.22-0.373
			c-0.04-0.062-0.075-0.121-0.108-0.174c0.02,0.062,0.041,0.125,0.063,0.188c1.429,2.591,2.564,4.612,3.409,6.063l0.039,0.084
			c0.117,0.047,0.242,0.123,0.379,0.23c0.158,0.285,0.291,0.557,0.397,0.816c0.474,1.147,0.106,2.184-1.103,3.108
			c-0.621,0.421-1.047,0.714-1.279,0.88c-0.093,0.069-0.172,0.134-0.239,0.193c-0.331,0.183-0.718,0.391-1.16,0.627
			c-1.489,0.791-2.423,1.4-2.797,1.828l-1.549,1.547c-0.001,0.162,0.013,0.373,0.039,0.631c-0.01,0.233-0.103,0.467-0.273,0.703
			l-0.962,0.963c-0.541,0.607-1.081,1.083-1.618,1.428c-0.087,0.206-0.185,0.428-0.294,0.667c-0.559,1.216-1.085,2.136-1.58,2.755
			c0.129,0.263,0.224,0.529,0.283,0.801c0.089,0.432,0.048,0.76-0.125,0.985c-0.262,0.341-0.52,0.416-0.771,0.224
			c-0.223-0.17-0.396-0.436-0.521-0.801c-0.137-0.395-0.191-0.84-0.169-1.334c0.007-0.086,0.014-0.173,0.021-0.26
			c-0.105,0.116-0.215,0.234-0.322,0.354c-0.008,0.011-0.012,0.026-0.012,0.05c-0.02,0.408-0.016,0.828,0.014,1.259
			c0.033,0.365-0.081,0.648-0.344,0.851c-0.047,0.026-0.1,0.06-0.16,0.101c-0.057,0.486-0.301,0.791-0.736,0.914
			c-0.035,0.021-0.077,0.024-0.123,0.015c-0.455-0.186-0.65-0.536-0.588-1.05c0.021-0.199,0.018-0.392-0.009-0.578
			c-0.094-0.527-0.095-1.058-0.003-1.592c0.022-0.192,0.082-0.368,0.178-0.527c0.299-0.623,0.604-1.24,0.913-1.85
			c0.176-0.339,0.333-0.678,0.474-1.016c0.022-0.056,0.048-0.111,0.074-0.164l-0.035-0.084c0.03-0.166,0.182-0.386,0.454-0.657
			l0.005-0.005c0.06-0.08,0.121-0.158,0.184-0.234c-0.033-0.01-0.055-0.023-0.064-0.044l-0.045-0.14
			c0.023-0.022,0.104-0.101,0.24-0.234c0.025-0.029,0.058-0.065,0.094-0.108c0.199-0.212,0.315-0.346,0.35-0.398l-0.051,0.005
			c-0.122,0.033-0.215,0.025-0.278-0.025c-0.05-0.068-0.092-0.113-0.124-0.134l-0.075-0.164c0.12-0.093,0.491-0.354,1.116-0.786
			c0.309-0.215,0.52-0.365,0.637-0.451c0.027-0.034,0.05-0.068,0.07-0.105c-0.113-0.076-0.184-0.139-0.209-0.188
			c-0.004-0.054-0.006-0.083-0.006-0.09l0.593-0.372c0.073-0.152,0.149-0.293,0.229-0.424c-0.192-0.043-0.302-0.062-0.328-0.059
			c0.231-0.146,0.445-0.293,0.643-0.438c0.278-0.378,0.904-1.05,1.877-2.019c0.006-0.014,0.008-0.024,0.004-0.035
			c0.291-1.101,0.09-2.136-0.599-3.104c-0.013,0.035-0.028,0.071-0.045,0.104c-0.04,0-0.077-0.012-0.11-0.035
			c-0.199-0.209-0.371-1.454-0.52-3.732c-0.049-0.127-0.101-0.258-0.154-0.394c-0.248-0.628-0.439-1.165-0.574-1.612
			c-0.064-0.106-0.129-0.208-0.194-0.304l0.005,0.099l-0.145,0.03c-0.069-0.146-0.111-0.235-0.13-0.269
			c-0.056-0.123-0.086-0.228-0.089-0.313c-0.016,0.032-0.029,0.069-0.04,0.108c-0.006,0.034-0.026,0.049-0.06,0.046
			c-0.111-0.113-0.199-0.265-0.258-0.454c-0.076-0.229-0.126-0.365-0.149-0.412c-0.014,0.047-0.026,0.103-0.04,0.168
			c-0.014,0.061-0.058,0.135-0.134,0.225c-0.069-0.172-0.245-0.619-0.527-1.339c-0.231-0.604-0.402-1.028-0.511-1.274
			c-0.004,0.05-0.001,0.141,0.009,0.273c0,0.107-0.003,0.189-0.01,0.249c-0.381-0.484-0.769-1.243-1.163-2.274
			c-0.36-0.93-0.629-1.814-0.803-2.652c-0.026-0.066-0.056-0.137-0.084-0.21c-0.031,0.017-0.066,0.045-0.105,0.085
			c-0.051,0.043-0.096,0.061-0.135,0.055c-0.026-0.113-0.05-0.223-0.07-0.329c-0.145-0.653-0.262-1.196-0.352-1.628
			c-0.357-1.027-0.575-1.698-0.655-2.01c-0.37-1.395-0.854-3.32-1.453-5.779c-0.026-0.165-0.046-0.326-0.059-0.482
			c-0.166-0.475-0.411-1.219-0.735-2.234c-0.029-0.079-0.055-0.166-0.074-0.259c-0.033-0.029-0.053-0.054-0.061-0.069
			c-0.036-0.057-0.119-0.207-0.248-0.453c-0.117-0.239-0.176-0.377-0.184-0.414c-0.036-0.119-0.057-0.23-0.06-0.338
			c-0.026-0.056-0.042-0.105-0.05-0.149c-0.003-0.007-0.008-0.009-0.015-0.01c-0.01-0.054-0.023-0.104-0.04-0.153
			c-0.006-0.058-0.01-0.111-0.01-0.16c0.001-0.105,0.009-0.203,0.025-0.288c0.017-0.106,0.051-0.198,0.1-0.274
			c0.04-0.103,0.09-0.197,0.15-0.283c0.039-0.053,0.079-0.102,0.119-0.144c-0.807-3.196,0.088-6.467,2.685-9.815
			c2.583-3.352,4.737-6.475,6.462-9.365C116.009,98.5,117.202,95.303,117.872,91.817L117.872,91.817z M132.679,100.511
			c0,0.011-0.001,0.022-0.005,0.035c0.011,0,0.019,0.005,0.024,0.016C132.692,100.544,132.686,100.528,132.679,100.511z
			 M110.715,159.081l0.063-0.01c0.061-0.076,0.123-0.146,0.186-0.209C110.884,158.921,110.8,158.995,110.715,159.081z
			 M111.79,157.749c-0.046,0.013-0.096,0.027-0.149,0.043c-0.298,0.087-0.484,0.15-0.558,0.189c-0.086,0.054-0.127,0.086-0.124,0.1
			c0.003,0.01,0.015,0.024,0.034,0.045c0.137,0.033,0.22,0.072,0.249,0.119c0.116-0.066,0.222-0.127,0.318-0.184
			C111.638,157.948,111.714,157.845,111.79,157.749L111.79,157.749z M112.747,156.341c-0.09,0.05-0.184,0.104-0.279,0.158
			c0.023-0.002,0.092-0.025,0.203-0.068C112.698,156.401,112.724,156.371,112.747,156.341z M113.051,155.465l0.044,0.02
			c0.047,0.004,0.084,0.005,0.11,0.001c0.032-0.06,0.067-0.113,0.104-0.16C113.233,155.376,113.147,155.423,113.051,155.465z
			 M114.702,149.789h0.016c-0.018-0.013-0.026-0.022-0.03-0.03C114.691,149.767,114.696,149.776,114.702,149.789z M113.082,143.729
			c0.003,0.01,0.005,0.02,0.007,0.027l-0.004-0.024L113.082,143.729z M110.894,139.864c0.016,0.109,0.051,0.264,0.104,0.463
			c0.008-0.104-0.004-0.216-0.033-0.338C110.937,139.942,110.913,139.901,110.894,139.864z M110.218,138.535
			c-0.04-0.087-0.08-0.173-0.125-0.259c0.061,0.232,0.115,0.441,0.165,0.627l-0.001-0.025
			C110.257,138.806,110.245,138.69,110.218,138.535L110.218,138.535z M111.658,141.273c0.159,0.515,0.338,1.061,0.536,1.638
			l-0.004-0.045c-0.047-0.25-0.1-0.56-0.16-0.932C111.902,141.712,111.778,141.491,111.658,141.273z M112.623,142.945
			c-0.027-0.044-0.057-0.091-0.089-0.145c0.053,0.18,0.104,0.334,0.152,0.463C112.671,143.177,112.649,143.071,112.623,142.945z
			 M120.099,139.815c0.023,0.051,0.045,0.101,0.064,0.15c0.127,0.332,0.236,0.643,0.333,0.931c0.069,0.013,0.135,0.066,0.194,0.159
			c0.059,0.1,0.104,0.158,0.135,0.176c-0.084-0.353-0.191-0.717-0.324-1.091l-0.099,0.015c-0.032-0.062-0.123-0.205-0.269-0.423
			c-0.017-0.022-0.031-0.045-0.045-0.065C120.099,139.72,120.103,139.77,120.099,139.815z M120.198,140.364
			c-0.02-0.04-0.035-0.083-0.045-0.13c0.004,0.08,0.012,0.159,0.024,0.239c0.04,0.083,0.087,0.17,0.14,0.26
			c0.006,0.016,0.016,0.032,0.025,0.049C120.3,140.646,120.251,140.507,120.198,140.364z M120.005,138.896
			c0.007,0.039,0.012,0.075,0.015,0.109c0.011,0.075,0.026,0.228,0.05,0.452l0.357,0.553l0.021-0.014
			c-0.112-0.336-0.249-0.677-0.407-1.021C120.03,138.956,120.019,138.929,120.005,138.896z M119.96,138.538
			c0.078,0.158,0.155,0.326,0.234,0.502c0.006,0.027,0.017,0.054,0.029,0.08c-0.135-0.527-0.237-0.914-0.307-1.16
			c0.006,0.094,0.01,0.183,0.01,0.27C119.939,138.332,119.951,138.435,119.96,138.538L119.96,138.538z M120.12,137.951
			c-0.072-0.303-0.16-0.606-0.263-0.911c-0.003-0.014-0.013-0.028-0.03-0.045c0.018,0.06,0.029,0.121,0.035,0.184
			c0.057,0.141,0.109,0.285,0.158,0.434C120.054,137.719,120.088,137.831,120.12,137.951z M119.882,117.917
			c-0.035,0.054-0.069,0.105-0.1,0.154c0.023,0.144,0.059,0.248,0.105,0.318L119.882,117.917z M120.599,117.142
			c0.008-0.023,0.01-0.047,0.006-0.07c-0.007,0.007-0.021,0.018-0.039,0.031C120.577,117.114,120.589,117.128,120.599,117.142
			L120.599,117.142z M121.078,116.321c0.005,0.225,0.029,0.393,0.069,0.502C121.15,116.646,121.127,116.477,121.078,116.321z"/>
	</g>
	<g id="Layer_5_3_">
		<path id="path14_3_" fill="#010101" d="M101.604,106.165c-0.039-0.004-0.081-0.009-0.124-0.016
			c-0.396,0.236-0.614,0.371-0.657,0.408C101.065,106.421,101.325,106.29,101.604,106.165L101.604,106.165z M102.052,106.22
			c-0.062,0.027-0.13,0.051-0.203,0.074c-0.003,0.007-0.009,0.016-0.015,0.025h0.055c0.079-0.023,0.165-0.051,0.259-0.084
			C102.113,106.231,102.083,106.227,102.052,106.22L102.052,106.22z M102.874,106.34c-0.101-0.021-0.199-0.033-0.3-0.04
			c-0.125,0.072-0.234,0.15-0.328,0.233C102.479,106.46,102.688,106.396,102.874,106.34L102.874,106.34z M99.854,105.958
			l-0.011-0.004c-0.013,0.01-0.024,0.021-0.035,0.035C99.822,105.979,99.837,105.969,99.854,105.958L99.854,105.958z
			 M87.236,105.134c-0.01,0-0.021-0.002-0.03-0.006c-0.029,0.018-0.05,0.037-0.059,0.061
			C87.163,105.175,87.192,105.157,87.236,105.134L87.236,105.134z M92.559,106.501c-0.029,0.026-0.055,0.059-0.075,0.096l0.07-0.025
			c0.047-0.024,0.092-0.045,0.135-0.065C92.642,106.503,92.599,106.501,92.559,106.501L92.559,106.501z M106.77,106.851
			c-0.034-0.01-0.076-0.008-0.13,0.005c-0.07,0.01-0.129,0.038-0.179,0.085l0.05-0.001c0.1-0.029,0.178-0.059,0.233-0.089H106.77
			L106.77,106.851z M103.725,106.445c-0.073-0.007-0.146-0.016-0.219-0.025c-0.116,0.036-0.233,0.065-0.349,0.089
			C103.33,106.52,103.519,106.498,103.725,106.445z M59.458,114.218c-0.006,0.033-0.004,0.061,0.005,0.08
			c0.03-0.027,0.063-0.072,0.101-0.135C59.529,114.184,59.495,114.2,59.458,114.218L59.458,114.218z M64.176,112.912
			c-0.246,0.067-0.481,0.128-0.707,0.185c-0.027,0.023-0.053,0.045-0.08,0.064c-0.207,0.148-0.401,0.284-0.587,0.408
			c0.163-0.057,0.329-0.123,0.497-0.199c-0.043-0.004-0.065-0.008-0.069-0.01c-0.004-0.011-0.007-0.026-0.011-0.051
			c0.197-0.05,0.427-0.133,0.692-0.253c0.103-0.05,0.202-0.097,0.299-0.144L64.176,112.912z M63.755,103.628l0.024-0.005
			c0.073-0.001,0.145-0.003,0.214-0.005c0.093-0.054,0.182-0.107,0.268-0.164C64.041,103.516,63.871,103.575,63.755,103.628
			L63.755,103.628z M62.848,113.26c-0.034,0.014-0.07,0.022-0.11,0.024c-0.004,0.007-0.01,0.014-0.021,0.021
			c-0.229,0.113-0.444,0.212-0.646,0.298c-0.017,0.018-0.035,0.029-0.056,0.039c-0.125,0.087-0.242,0.166-0.348,0.238
			c0.017-0.002,0.031-0.006,0.044-0.008C62.057,113.726,62.436,113.522,62.848,113.26z M60.923,105.646
			c-0.213,0.061-0.422,0.119-0.627,0.178l0.049,0.041c0.013,0.016,0.017,0.034,0.009,0.055l0.15,0.01
			C60.647,105.833,60.786,105.737,60.923,105.646L60.923,105.646z M61.913,104.433l0.573,0.029c0.126-0.05,0.288-0.107,0.487-0.174
			c0.14-0.09,0.274-0.176,0.403-0.262c-0.16,0.01-0.345,0.044-0.558,0.104C62.587,104.192,62.285,104.293,61.913,104.433
			L61.913,104.433z M65.677,102.524c0.072-0.018,0.144-0.033,0.214-0.05c0.047-0.023,0.09-0.046,0.13-0.069
			c-0.286,0.053-0.564,0.084-0.836,0.094L65.677,102.524z M82.41,103.706c-0.173,0.113-0.485,0.343-0.936,0.691
			c0.195-0.07,0.383-0.138,0.563-0.203c0.41-0.15,0.811-0.3,1.199-0.453c-0.14-0.062-0.271-0.127-0.398-0.193L82.41,103.706
			L82.41,103.706z M72.138,98.956l0.363,0.021c0.232-0.109,0.472-0.229,0.716-0.354c-0.59,0.172-0.958,0.276-1.104,0.312
			L72.138,98.956L72.138,98.956z M71.272,99.573c0.104-0.05,0.208-0.104,0.313-0.164c-0.255,0.068-0.466,0.132-0.632,0.188
			C71.05,99.595,71.156,99.585,71.272,99.573z M89.202,91.536c2.578-0.234,5.307-0.386,8.186-0.456
			c2.887-0.058,5.691-0.2,8.414-0.427c2.313-0.201,4.479-0.82,6.501-1.856c0.807-0.425,1.634-0.821,2.484-1.192
			c1.391-0.603,2.543-0.297,3.457,0.918c0.958,1.262,1.57,2.693,1.838,4.297c0.093,0.51,0.152,1.016,0.183,1.518
			c0.156,0.236,0.319,0.5,0.492,0.795c0.735,1.256,1.263,3.298,1.583,6.128c-0.014,0.007-0.025,0.015-0.035,0.024
			c-0.548,0.479-1.132,0.949-1.752,1.417c-0.383,0.298-0.782,0.595-1.201,0.89c-2.572,1.836-4.537,2.854-5.894,3.055
			c-0.166,0.094-0.357,0.174-0.573,0.24c-0.394,0.118-0.815,0.185-1.264,0.197c-0.736,0.145-1.486,0.17-2.254,0.072
			c-0.775-0.096-1.554-0.193-2.333-0.289c-0.08,0.033-0.169,0.061-0.269,0.084c-0.386,0.112-0.651,0.167-0.797,0.163
			c-0.103-0.011-0.178-0.04-0.224-0.09c-0.029-0.032-0.064-0.076-0.104-0.129c0.037-0.062,0.096-0.121,0.18-0.174
			c-0.109-0.017-0.221-0.032-0.334-0.046c-0.043,0.014-0.09,0.029-0.139,0.05c-0.282,0.106-0.474,0.157-0.573,0.155
			c-0.128-0.008-0.225-0.027-0.287-0.055c-0.067-0.045-0.118-0.108-0.155-0.19c0.03-0.014,0.092-0.042,0.185-0.085
			c-0.04-0.006-0.078-0.014-0.114-0.02c-0.199,0.089-0.363,0.148-0.493,0.179l0.006-0.07c0.002,0,0.004-0.001,0.004-0.005
			l-0.135-0.025l0.011-0.074c0.01-0.01,0.017-0.016,0.02-0.02c-0.348,0.093-0.648,0.143-0.9,0.148l-0.005-0.09
			c-0.289,0.051-0.552,0.064-0.791,0.045c-0.017-0.106,0.023-0.199,0.12-0.279l-0.055-0.01c-0.08,0.017-0.208,0.055-0.384,0.115
			c-0.149,0.035-0.272,0.052-0.368,0.049v-0.05c-0.266,0.082-0.57,0.182-0.916,0.298c0.103-0.133,0.228-0.256,0.374-0.367
			c-0.288,0.108-0.61,0.223-0.966,0.342c0.296-0.219,0.673-0.428,1.129-0.625c-0.072-0.005-0.143-0.012-0.212-0.021
			c-0.335,0.152-0.705,0.295-1.11,0.427l0.005-0.063c0.116-0.047,0.264-0.113,0.443-0.199c-0.25,0.105-0.496,0.19-0.742,0.253
			l0.031-0.095c0.256-0.109,0.542-0.236,0.86-0.383c-0.03-0.002-0.055-0.006-0.074-0.01c-0.418,0.227-0.783,0.359-1.095,0.402
			l-0.089-0.02c-0.368,0.189-0.825,0.357-1.369,0.506c-0.438,0.129-0.892,0.233-1.364,0.312c-0.384,0.066-0.618,0.098-0.701,0.094
			c-0.109-0.006-0.167-0.012-0.174-0.014c-0.013-0.004-0.028-0.027-0.045-0.07l0.031-0.164c0.152-0.066,0.28-0.121,0.383-0.164
			c0.205-0.086,0.327-0.153,0.363-0.203l-0.079-0.031c-0.11,0.014-0.266,0.082-0.468,0.204c-0.232,0.144-0.356,0.22-0.374,0.229
			l-0.05-0.06c0.064-0.049,0.228-0.158,0.489-0.328c0.096-0.062,0.179-0.117,0.249-0.164c-0.163,0.06-0.329,0.114-0.498,0.164
			c-0.184,0.08-0.329,0.146-0.438,0.199l-0.11-0.025l-0.005-0.015c-0.226,0.062-0.392,0.106-0.498,0.134
			c-0.061,0.029-0.121,0.061-0.185,0.094c-0.252,0.103-0.57,0.146-0.956,0.129c-0.086-0.007-0.255-0.166-0.507-0.478
			c-0.086-0.003-0.196,0.007-0.329,0.034c-0.136,0.047-0.242,0.066-0.318,0.06c0.066-0.086,0.186-0.196,0.359-0.329h-0.016
			c-0.448,0.14-0.709,0.217-0.787,0.229c-0.012-0.026-0.026-0.035-0.04-0.024c-0.006-0.007-0.006-0.062,0-0.164
			c0-0.047,0.106-0.159,0.318-0.34c-0.026,0.015-0.103,0.047-0.229,0.102c-0.089,0.038-0.167,0.086-0.234,0.143
			c-0.046-0.033-0.078-0.102-0.095-0.203c0.024-0.031,0.069-0.068,0.136-0.115c0.079-0.049,0.122-0.08,0.128-0.09l-0.074-0.029
			c-0.077,0.023-0.188,0.072-0.334,0.148c-0.155,0.087-0.271,0.141-0.348,0.165l-0.518-0.026l-0.055-0.104
			c0.173-0.162,0.271-0.256,0.294-0.279l-0.049-0.004c-0.256,0.069-0.429,0.076-0.522,0.023l0.005-0.099l0.224-0.11l-0.049-0.029
			c-0.097,0.029-0.29,0.076-0.579,0.139c-0.228,0.057-0.389,0.102-0.482,0.135l-0.041-0.131c0.017-0.043,0.044-0.086,0.08-0.129
			c0.037-0.023,0.054-0.043,0.055-0.06c-0.092,0.023-0.275,0.095-0.547,0.214c-0.216,0.092-0.375,0.134-0.478,0.123
			c-0.104-0.004-0.15-0.02-0.14-0.049c0.01-0.017,0.028-0.032,0.054-0.045c0.104-0.209,0.253-0.375,0.449-0.497
			c-0.135-0.021-0.271-0.042-0.407-0.065c-0.22,0.076-0.454,0.148-0.703,0.218c-0.275,0.09-0.811,0.242-1.607,0.457l-0.05-0.139
			c0.1-0.073,0.365-0.234,0.797-0.482c0.156-0.097,0.292-0.192,0.408-0.288c-0.096-0.027-0.194-0.052-0.294-0.074
			c-0.129,0.062-0.262,0.12-0.398,0.174c-0.182,0.068-0.479,0.18-0.891,0.332l-0.149-0.025c0-0.026,0.029-0.08,0.084-0.159
			c0.054-0.075,0.08-0.122,0.08-0.14c-0.269,0.08-0.494,0.105-0.677,0.074c0.086-0.186,0.224-0.323,0.413-0.412
			c0.199-0.066,0.327-0.117,0.383-0.154l-0.044,0.005c-0.077,0.011-0.341,0.076-0.797,0.198c-0.444,0.119-0.735,0.174-0.87,0.164
			c-0.1-0.003-0.155-0.023-0.165-0.06c-0.007-0.024-0.013-0.071-0.02-0.145c0.146-0.149,0.4-0.345,0.762-0.587
			c-0.086-0.03-0.17-0.062-0.253-0.094c-0.097,0.035-0.195,0.072-0.294,0.109c-0.329,0.115-0.823,0.275-1.483,0.48
			c-0.046-0.02-0.078-0.08-0.095-0.18c0.01-0.006,0.394-0.251,1.15-0.734c-0.033-0.014-0.069-0.027-0.109-0.04
			c-0.378,0.143-0.826,0.308-1.344,0.497c-0.259,0.089-0.534,0.186-0.827,0.287c-0.01,0.008-0.015,0.014-0.015,0.02
			c-0.607,0.488-1.981,1.574-4.123,3.262c-2.144,1.687-5.508,3.121-10.094,4.301c-0.638,0.162-1.235,0.318-1.792,0.467
			c-0.149,0.05-0.31,0.103-0.478,0.158c-0.272,0.152-0.6,0.322-0.981,0.508c-0.428,0.211-0.781,0.373-1.06,0.486
			c-0.504-0.021-0.978,0.092-1.419,0.338c-0.275,0.159-0.435,0.246-0.483,0.264c-0.171,0.078-0.345,0.111-0.517,0.098
			c0.116-0.066,0.266-0.156,0.448-0.273c0.017-0.02,0.04-0.042,0.069-0.068c0.02,0,0.042-0.006,0.064-0.016
			c0.119-0.073,0.251-0.157,0.394-0.253c-0.136,0.039-0.264,0.06-0.383,0.059c-0.262,0.243-0.417,0.396-0.463,0.462
			c0.066-0.143,0.171-0.297,0.314-0.462c-0.129-0.003-0.215-0.012-0.259-0.025c-0.01-0.007-0.02-0.013-0.03-0.02
			c-0.414,0.116-0.663,0.187-0.746,0.214c-0.023,0.017-0.052,0.031-0.085,0.045c-0.046,0.083-0.096,0.158-0.149,0.229
			c-0.063,0.036-0.138,0.082-0.224,0.139c-0.176,0.1-0.302,0.204-0.378,0.312c-0.007-0.076-0.016-0.166-0.026-0.273
			c-0.007,0.007-0.014,0.014-0.024,0.021c-0.086,0.075-0.152,0.121-0.199,0.134c0.003-0.006,0.006-0.012,0.01-0.015
			c-0.027,0.013-0.053,0.024-0.08,0.034c-0.066,0.07-0.139,0.141-0.219,0.209l-0.05-0.034c-0.278,0.183-0.585,0.394-0.921,0.631
			c-0.402,0.282-0.764,0.528-1.085,0.741c-0.003,0.006-0.005,0.012-0.005,0.02c-0.115,0.017-0.224,0.047-0.323,0.094
			c-0.023,0.014-0.481,0.169-1.374,0.467c-0.604,0.162-1.124,0.246-1.558,0.254c-0.364-0.346-0.622-0.605-0.771-0.777
			c-0.328-0.379-0.523-0.721-0.586-1.025c0.043-0.419,0.028-0.759-0.045-1.021c0.004-0.003,0.006-0.009,0.006-0.015
			c-0.026-0.435-0.065-0.969-0.118-1.604c-0.125-1.691-0.312-2.799-0.56-3.318l-1.392-3.117c-0.069-0.111-0.13-0.246-0.184-0.402
			l-0.143-1.349c-0.033-0.176-0.06-0.349-0.08-0.519c-0.166-0.125-0.406-0.312-0.72-0.562c-0.644-0.498-0.97-0.748-0.98-0.751
			c-0.037-0.011-0.25,0.093-0.641,0.308c-0.465,0.199-0.919,0.234-1.364,0.108c-0.269-0.077-0.474-0.294-0.616-0.653
			c-0.113-0.275-0.155-0.455-0.129-0.541c0.043-0.16,0.235-0.284,0.577-0.373c0.601-0.162,1.063-0.318,1.389-0.467
			c0.083-0.037,0.158-0.07,0.224-0.1c-0.123-0.152-0.187-0.23-0.194-0.234c-0.053-0.014-0.184-0.002-0.394,0.035
			c-0.208,0.032-0.426,0.018-0.651-0.045c-0.481-0.134-0.768-0.332-0.86-0.594c-0.041-0.115-0.032-0.271,0.024-0.467
			c0.074-0.263,0.33-0.471,0.772-0.627c0.501-0.182,1.068-0.195,1.702-0.038c-0.01-0.054-0.015-0.081-0.015-0.085
			c-0.087,0.004-0.238-0.009-0.454-0.035c-0.234-0.026-0.407-0.057-0.517-0.086c-0.432-0.122-0.705-0.379-0.821-0.771
			c-0.066-0.245-0.074-0.455-0.023-0.632c0.093-0.328,0.463-0.456,1.109-0.382c0.594,0.066,1.226,0.274,1.896,0.623
			c-0.172-0.136-0.403-0.294-0.691-0.473l-0.861-0.549c-0.633-0.428-0.906-0.798-0.819-1.11c0.136-0.477,0.551-0.614,1.244-0.411
			c0.624,0.189,1.337,0.598,2.144,1.225c0.133,0.104,0.261,0.211,0.383,0.32c0.014-0.041,0.035-0.077,0.065-0.11
			c0.278,0.395,1.027,1.348,2.247,2.858c0.022,0.159,0.042,0.314,0.055,0.468c0.043,0.368,0.039,0.688-0.011,0.96
			c0.109,0.104,0.221,0.221,0.333,0.354c0.179,0.219,0.292,0.394,0.338,0.523c0.045,0.166,0.186,0.518,0.422,1.055
			c0.222,0.511,0.359,0.885,0.412,1.12c0.146,0.626,0.467,1.351,0.963,2.17c0.534,0.883,1.155,1.689,1.865,2.42
			c0.176-0.093,0.365-0.194,0.567-0.304c0.109-0.075,0.175-0.123,0.195-0.143l-0.334-0.021c0.033-0.029,0.073-0.059,0.12-0.09
			l0.443,0.021c0.013-0.01,0.028-0.021,0.044-0.03c0.093-0.046,0.188-0.101,0.285-0.164c0.059-0.029,0.113-0.062,0.163-0.095
			c-0.112,0.007-0.275,0.019-0.487,0.035c-0.073,0.01-0.142,0.021-0.204,0.034c0.056-0.05,0.107-0.095,0.154-0.134
			c0.052-0.003,0.107-0.004,0.164-0.006c0.401,0.001,0.681-0.095,0.836-0.287c-0.083-0.05-0.123-0.078-0.119-0.084
			c-0.113-0.031-0.244-0.046-0.393-0.047c0.037-0.028,0.072-0.061,0.104-0.094l0.104,0.035c0.15,0.04,0.277,0.061,0.384,0.061
			c0.096,0.01,0.2-0.012,0.313-0.064c0.089-0.06,0.179-0.119,0.269-0.179c-0.156-0.013-0.361-0.021-0.617-0.021
			c-0.062,0.004-0.141,0.004-0.233,0c0.133-0.084,0.241-0.164,0.323-0.244c0.169-0.01,0.309-0.014,0.418-0.01
			c-0.003-0.043-0.004-0.084-0.005-0.124c0.01,0.003,0.02,0.008,0.03,0.015c0.023,0.01,0.035,0.021,0.035,0.035
			c-0.017,0.007-0.019,0.016-0.006,0.024c0.017,0.017,0.076,0.028,0.18,0.035c0.096,0.003,0.211-0.005,0.344-0.024
			c0.032-0.023,0.064-0.045,0.094-0.064c0.189-0.129,0.37-0.254,0.542-0.373c-0.122,0-0.235,0.005-0.337,0.014
			c-0.408,0.047-0.704,0.157-0.887,0.329c0.003-0.286,0.135-0.441,0.394-0.468c0.378,0.029,0.634,0.025,0.766-0.014
			c0.179-0.515,0.548-0.838,1.105-0.971c0.169-0.039,0.42-0.074,0.752-0.104c0.005,0.004,0.013,0.004,0.02,0
			c0.04-0.029,0.076-0.057,0.109-0.079c-0.027,0.003-0.058,0.007-0.095,0.011c-0.361,0.045-0.628,0.07-0.8,0.073l-0.115-0.03
			l0.011-0.18c0.215-0.046,0.378-0.08,0.487-0.104c0.2-0.03,0.363-0.041,0.493-0.034l-0.055-0.034
			c-0.103-0.008-0.172-0.017-0.209-0.026c-0.062-0.026-0.104-0.073-0.124-0.14l0.03-0.049c0.471-0.192,1.447-0.734,2.927-1.625
			c0.826-0.498,1.508-0.855,2.046-1.073c0.275-0.106,0.508-0.176,0.702-0.208c-0.01-0.001-0.078,0.002-0.204,0.004
			c-0.079,0.004-0.133-0.006-0.159-0.029l-0.025-0.145c0.77-0.291,1.679-0.607,2.728-0.949c0.043-0.012,0.085-0.027,0.124-0.044
			c0.336-0.165,0.706-0.348,1.111-0.546c-0.315,0.045-0.501,0.068-0.557,0.068c-0.126-0.01-0.205-0.02-0.234-0.029
			c-0.03-0.021-0.053-0.066-0.069-0.14l0.024-0.05c0.611-0.179,0.978-0.281,1.1-0.308c0.375-0.093,0.707-0.144,0.996-0.153
			c0.02-0.01,0.036-0.02,0.049-0.029c-0.196-0.011-0.331-0.033-0.402-0.065c0.305-0.188,1.161-0.548,2.568-1.078
			c0.192-0.073,0.373-0.145,0.542-0.214c0.093-0.05,0.182-0.105,0.269-0.168c1.168-0.763,2.164-1.359,2.986-1.789
			c0.378-0.196,0.998-0.447,1.857-0.756c0.113-0.072,0.225-0.143,0.338-0.209c0.01-0.006,0.02-0.014,0.03-0.02
			c0.737-0.649,1.445-0.956,2.125-0.919c0.104,0.001,0.194,0.013,0.273,0.035l0.204,0.05C84.589,92.582,86.624,91.782,89.202,91.536
			L89.202,91.536z"/>
	</g>
	<g id="Layer_7_3_">
		<path id="path17_5_" fill="#010101" d="M152.701-12.606c0.085,0.176,0.12,0.349,0.104,0.518c-0.03,0.271-0.178,0.541-0.443,0.806
			c-0.491,0.375-0.86,0.654-1.104,0.84c-0.12,0.269-0.262,0.538-0.425,0.806c-0.042,0.063-0.084,0.124-0.124,0.185
			c-0.017,0.023-0.029,0.042-0.04,0.059c-0.076,0.123-0.159,0.243-0.249,0.358c-0.083,0.113-0.171,0.224-0.264,0.333
			c-0.063,0.069-0.122,0.134-0.175,0.194c-0.05,0.046-0.098,0.091-0.144,0.134c-0.224,0.332-0.453,0.664-0.688,0.995
			c-0.1,0.335-0.205,0.67-0.314,1.005c-0.21,0.653-0.394,1.181-0.549,1.582c-0.156,0.729-0.236,1.196-0.24,1.398
			c0.051-0.003,0.176-0.058,0.379-0.165c0.226-0.112,0.354-0.19,0.383-0.233c0.11-0.126,0.346-0.474,0.707-1.044
			c0.03-0.036,0.061-0.065,0.09-0.084c0.11-0.235,0.227-0.487,0.35-0.756c0.017-0.01,0.026-0.015,0.029-0.015
			c0-0.013-0.002-0.028-0.004-0.045c0.006-0.062,0.013-0.124,0.02-0.184c0.036-0.309,0.104-0.521,0.204-0.637
			c0.06-0.07,0.125-0.145,0.194-0.224c0.09-0.083,0.183-0.184,0.279-0.304c0.014-0.003,0.021-0.008,0.024-0.014
			c0.116-0.219,0.219-0.407,0.304-0.562c0.07-0.149,0.16-0.323,0.27-0.522c0.047-0.05,0.104-0.103,0.17-0.159
			c0.033-0.04,0.1-0.098,0.199-0.174c0.09-0.129,0.196-0.235,0.323-0.318c0.024-0.03,0.053-0.052,0.09-0.065
			c0.05-0.03,0.102-0.056,0.153-0.08c0.011-0.006,0.021-0.016,0.035-0.03c0.061-0.069,0.123-0.144,0.189-0.223
			c0.027-0.041,0.054-0.078,0.08-0.115c0.226-0.305,0.354-0.479,0.383-0.522c0.104-0.106,0.27-0.229,0.498-0.368
			c0.479-0.275,0.781-0.233,0.91,0.125c0.094,0.255,0.029,0.523-0.189,0.802c-0.003,0.002-0.006,0.009-0.01,0.019
			c-0.037,0.034-0.219,0.193-0.548,0.477c-0.03,0.03-0.06,0.06-0.09,0.09c-0.112,0.106-0.233,0.247-0.362,0.422
			c-0.037,0.057-0.071,0.111-0.105,0.165c-0.037,0.192-0.064,0.341-0.085,0.448c-0.007,0.042-0.015,0.085-0.024,0.129
			c-0.037,0.203-0.078,0.387-0.125,0.552c-0.1,0.388-0.213,0.705-0.339,0.95c-0.017,0.029-0.036,0.06-0.056,0.089
			c-0.066,0.116-0.136,0.214-0.209,0.294c-0.043,0.049-0.088,0.106-0.134,0.169c-0.011,0.013-0.021,0.03-0.03,0.049
			c-0.037,0.057-0.141,0.164-0.309,0.324c0.002,0.003,0.001,0.008-0.006,0.015c-0.248,0.723-0.373,1.096-0.374,1.119
			c-0.22,0.504-0.39,0.853-0.513,1.044c-0.1,0.153-0.308,0.398-0.623,0.736c-0.003,0.01-0.003,0.026,0,0.049
			c0,0.046,0.002,0.095,0.005,0.145c-0.021,0.146-0.028,0.232-0.025,0.259c0.058,0.003,0.289-0.025,0.697-0.084
			c0.099-0.139,0.228-0.298,0.383-0.478c0.127-0.146,0.319-0.297,0.577-0.452c0.135-0.087,0.262-0.163,0.385-0.228
			c0.036-0.041,0.074-0.082,0.114-0.125c0.017-0.023,0.035-0.043,0.055-0.06c0.046-0.062,0.095-0.125,0.145-0.188
			c0.043-0.056,0.086-0.114,0.13-0.174c0.143-0.189,0.273-0.35,0.393-0.482c0.023-0.029,0.053-0.058,0.09-0.084
			c0.007-0.003,0.121-0.14,0.344-0.408c0.26-0.271,0.418-0.425,0.479-0.462c0.083-0.073,0.167-0.125,0.253-0.159
			c0.023,0,0.052,0.005,0.085,0.015c0.109,0.034,0.208,0.083,0.293,0.15c0.193,0.023,0.371,0.179,0.533,0.467
			c0.285,0.509,0.336,0.854,0.152,1.035c-0.234,0.077-0.36,0.117-0.377,0.12c-0.027,0.006-0.087-0.003-0.18-0.03
			c-0.079-0.018-0.134-0.019-0.164-0.005c-0.033,0-0.11,0.067-0.234,0.199c-0.066,0.077-0.119,0.133-0.159,0.169
			c-0.034,0.042-0.058,0.071-0.075,0.084c-0.072,0.06-0.195,0.139-0.368,0.238c-0.112,0.063-0.197,0.106-0.254,0.129
			c-0.003,0.046-0.017,0.089-0.04,0.129c-0.026,0.066-0.079,0.141-0.159,0.224c-0.009,0.01-0.018,0.02-0.024,0.03
			c-0.006,0.017-0.014,0.03-0.02,0.04c0,0.003-0.002,0.003-0.006,0c-0.066,0.12-0.14,0.229-0.219,0.328
			c-0.086,0.129-0.178,0.247-0.273,0.353c-0.166,0.179-0.314,0.34-0.443,0.483c-0.183,0.206-0.33,0.373-0.439,0.502
			c-0.112,0.143-0.354,0.511-0.727,1.104c-0.246,0.378-0.457,0.68-0.633,0.904c-0.062,0.173-0.143,0.359-0.239,0.558
			c-0.083,0.165-0.487,0.845-1.211,2.039c-0.033,0.066-0.32,0.633-0.862,1.699c0.14,0.018,0.217,0.047,0.229,0.087
			c-0.109,0.021-0.211,0.041-0.306,0.06c-0.084,0.165-0.168,0.319-0.251,0.462l0.557,0.001c0.001,0.009,0.004,0.021,0.01,0.034
			c0.014,0.03,0.035,0.06,0.064,0.09l-0.049,0.124c-0.302,0.1-0.597,0.179-0.889,0.238c-0.068,0.099-0.135,0.19-0.201,0.273
			c0.308-0.049,0.629-0.079,0.965-0.088l0.1,0.149c-0.104,0.125-0.438,0.241-1.001,0.345l-0.069,0.196
			c0.42-0.121,0.777-0.16,1.07-0.118l0.021,0.134c-0.023-0.006-0.09-0.01-0.195-0.01c-0.254,0-0.596,0.085-1.024,0.256
			c0.009,0.004,0.016,0.007,0.022,0.012c0.057,0.017,0.158,0.005,0.304-0.035c0.081-0.013,0.176,0.012,0.284,0.075
			c0.448-0.225,0.736-0.344,0.861-0.358c-0.113,0.146-0.458,0.388-1.036,0.726c-0.046,0.026-0.091,0.051-0.134,0.075
			c0.008,0.001,0.014,0.003,0.02,0.005c0.109-0.056,0.213-0.101,0.307-0.134c0.299-0.158,0.572-0.266,0.818-0.323
			c0.148,0.034,0.235,0.067,0.258,0.1c-0.334,0.11-0.664,0.25-0.984,0.42c-0.036,0.037-0.076,0.076-0.117,0.117
			c0.041,0.066,0.062,0.125,0.062,0.179c-0.087,0.059-0.273,0.164-0.562,0.312c-0.061,0.033-0.119,0.064-0.176,0.092
			c-0.006,0.007-0.012,0.012-0.019,0.018c-0.011,0.008-0.019,0.015-0.027,0.022c0.006,0.046,0.011,0.087,0.017,0.127
			c0.014-0.004,0.028-0.012,0.045-0.025c0.292-0.143,0.494-0.223,0.607-0.239c0.002,0.02,0.002,0.039,0,0.057
			c0.196-0.138,0.403-0.283,0.623-0.435c-0.025,0.044-0.053,0.089-0.085,0.137c0.069-0.029,0.131-0.042,0.184-0.037
			c-0.179,0.187-0.353,0.374-0.518,0.562c0.305-0.288,0.511-0.493,0.618-0.611c-0.037,0.042-0.198,0.25-0.484,0.621
			c-0.209,0.266-0.396,0.48-0.562,0.646l-0.05,0.05c0.306-0.123,0.668-0.379,1.09-0.771c0.216-0.201,0.454-0.434,0.712-0.695
			l0.05,0.224c-0.613,0.496-1.165,0.95-1.655,1.362c0.024-0.003,0.046-0.004,0.067-0.005c0.001,0.021,0.002,0.04,0.003,0.06
			c0.041-0.016,0.074-0.029,0.098-0.037c0.08-0.06,0.156-0.114,0.225-0.163c0.016-0.051,0.025-0.101,0.033-0.147l0.074,0
			c0.021,0.017,0.04,0.025,0.061,0.028c0.163-0.112,0.284-0.188,0.363-0.227l0.05-0.02c0.022,0.007,0.037,0.035,0.044,0.084
			c0.019-0.03,0.037-0.06,0.055-0.089c0.289,0.017,0.441,0.042,0.459,0.075c-0.299,0.225-0.563,0.5-0.793,0.826
			c-0.031,0.046-0.072,0.107-0.122,0.186l0.032,0.118c-0.07,0.124-0.15,0.247-0.238,0.368l-0.09,0.13
			c-0.002,0.002-0.011,0.01-0.027,0.022c-0.048,0.059-0.098,0.118-0.15,0.177c-0.066,0.114-0.137,0.225-0.209,0.331
			c0.198-0.111,0.34-0.183,0.427-0.217l0.059,0.04c-0.016,0.03-0.222,0.226-0.616,0.586c0.002,0.018,0.002,0.035,0.004,0.052
			c0.297-0.28,0.55-0.514,0.76-0.701c0.343-0.521,0.52-0.969,0.531-1.345l0.1-0.025c-0.021,0.06-0.047,0.172-0.08,0.338
			c-0.026,0.139-0.059,0.25-0.096,0.333c0.123-0.083,0.263-0.224,0.419-0.422c0.176-0.223,0.272-0.405,0.288-0.547l0.075,0
			l0.064-0.019c0.04,0.01,0.06,0.066,0.061,0.169c0,0.038-0.062,0.146-0.185,0.323c-0.083,0.225-0.197,0.479-0.347,0.761
			c0.051,0.02,0.087,0.039,0.106,0.06c-0.059,0.058-0.158,0.152-0.299,0.283c-0.143,0.249-0.308,0.515-0.494,0.801
			c0.004,0.003,0.008,0.006,0.012,0.01c-0.018,0.017-0.038,0.038-0.062,0.065c-0.229,0.333-0.432,0.63-0.61,0.896
			c0.167-0.099,0.284-0.157,0.349-0.174c0.008,0.029,0.015,0.058,0.02,0.086c0.004-0.002,0.01-0.005,0.016-0.007
			c0.519-0.663,1.041-1.283,1.568-1.859c-0.43,0.678-0.796,1.241-1.096,1.691c0.246-0.06,0.525-0.089,0.836-0.089
			c0.103,0,0.16,0.013,0.174,0.04c0.006,0.011,0.002,0.021-0.016,0.035l0.026,0.075c-0.046,0.033-0.123,0.075-0.231,0.128
			c-0.239,0.42-0.568,0.868-0.984,1.343c-0.092,0.104-0.186,0.207-0.281,0.308c-0.125,0.231-0.221,0.423-0.287,0.577l0.021,0.02
			l0.358-0.383l0.1,0.05c-0.094,0.172-0.234,0.406-0.425,0.702c-0.006,0.006-0.013,0.012-0.02,0.019
			c0.003,0.109,0.013,0.216,0.025,0.318c0.05-0.06,0.105-0.118,0.169-0.174l0.532-0.577c0.067,0.046,0.056,0.163-0.034,0.348
			c0.017,0.006,0.065-0.052,0.148-0.174l0.086,0.04c-0.134,0.229-0.254,0.427-0.361,0.592c0.221-0.164,0.408-0.265,0.56-0.303
			c-0.089,0.137-0.288,0.361-0.593,0.674c-0.058,0.102-0.119,0.211-0.185,0.331c-0.085,0.166-0.163,0.309-0.229,0.428
			c0,0.053,0.002,0.106,0.006,0.158c0.325-0.307,0.608-0.616,0.851-0.923l0.08-0.011c-0.156,0.262-0.276,0.463-0.358,0.602
			c-0.146,0.262-0.265,0.497-0.354,0.707l0.746-0.9l0.065,0.024c-0.196,0.289-0.474,0.74-0.833,1.353
			c-0.036,0.077-0.074,0.143-0.114,0.199c-0.003,0.017-0.001,0.029,0.005,0.036c0.057-0.063,0.118-0.139,0.184-0.224
			c0.157-0.192,0.378-0.489,0.663-0.89l0.1,0.034c-0.288,0.401-0.546,0.799-0.772,1.194l-0.01,0.05l0.842-1.14l0.064-0.014
			c-0.348,0.59-0.691,1.213-1.025,1.87c0.004,0.068,0.008,0.135,0.012,0.202c0.115-0.128,0.234-0.26,0.36-0.398
			c0.03-0.057,0.049-0.09,0.056-0.096c0.103-0.144,0.178-0.229,0.224-0.26l0.055,0.041c-0.03,0.047-0.06,0.098-0.092,0.153
			l0.042,0.085c-0.002,0.002-0.003,0.003-0.006,0.005l0.09,0.045c-0.258,0.368-0.486,0.885-0.683,1.552
			c0.001,0.055,0.003,0.109,0.005,0.162c0.384-0.561,0.785-1.049,1.201-1.465c-0.488,0.925-0.896,1.695-1.224,2.31
			c-0.005,0.034-0.008,0.067-0.013,0.103c0.153-0.242,0.299-0.495,0.438-0.756l0.091,0.05c-0.173,0.239-0.354,0.599-0.543,1.08
			l-0.031,0.049c-0.024,0.188-0.054,0.396-0.089,0.625c0.203-0.311,0.461-0.702,0.771-1.177c0.432-0.652,0.673-1.049,0.723-1.188
			h0.074l0.025,0.15c-0.087,0.494-0.314,1.056-0.683,1.686c-0.216,0.372-0.557,0.877-1.02,1.517
			c-0.021,0.037-0.043,0.075-0.064,0.112c-0.146,0.899-0.335,2.001-0.567,3.306c-0.078,0.428-0.071,1.266,0.018,2.513
			c0.566,1.165,0.527,2.156-0.117,2.975c-0.063,0.25-0.043,0.381,0.06,0.395c0.033,0.01-0.19,0.438-0.673,1.287h0.016
			c-0.116,0.365-0.29,0.856-0.52,1.474c-0.026,0.065-0.051,0.134-0.074,0.204c-0.314,0.314-0.605,0.613-0.871,0.898
			c-0.598,0.646-1.385,1.574-2.356,2.785c0.272-0.039,0.55-0.067,0.832-0.084l0.024,0.075c-0.283,0.063-0.664,0.185-1.143,0.364
			c-0.069,0.088-0.141,0.176-0.211,0.266c-0.176,0.219-0.357,0.439-0.546,0.665c0.147-0.041,0.299-0.083,0.456-0.126
			c0.148,0.031,0.23,0.074,0.249,0.123c-0.157,0.045-0.493,0.165-1.009,0.361c-0.359,0.416-0.742,0.843-1.15,1.282
			c0.156-0.036,0.294-0.061,0.416-0.077c0.148,0.033,0.231,0.075,0.248,0.125c-0.42,0.162-0.792,0.305-1.113,0.43
			c-0.381,0.401-0.783,0.811-1.205,1.23c0.241-0.086,0.499-0.175,0.775-0.268c0.148,0.033,0.231,0.065,0.248,0.1
			c-0.269,0.07-0.705,0.223-1.312,0.456c-1.733,1.706-3.788,3.562-6.162,5.563c-0.697,0.58-1.879,1.555-3.546,2.924
			c-0.066,0.092-0.137,0.187-0.209,0.283c-0.312,0.459-0.605,0.892-0.877,1.298c0.256,0.126,0.457,0.243,0.603,0.349l0.024,0.04
			c-0.007,0.022-0.062,0.034-0.164,0.034c-0.062,0-0.261-0.074-0.594-0.225c-0.158,0.236-0.307,0.464-0.449,0.682
			c0.256,0.05,0.492,0.129,0.709,0.239c-0.146,0.001-0.396-0.042-0.752-0.124c-0.008-0.003-0.018-0.006-0.026-0.008
			c-0.112,0.172-0.22,0.34-0.321,0.5c0.017,0.013,0.031,0.027,0.045,0.039c-0.074,0.109-0.15,0.221-0.227,0.334
			c0.178,0.1,0.282,0.16,0.311,0.178c0,0.019-0.004,0.033-0.008,0.048c0.455,0.087,0.98,0.163,1.574,0.228
			c-0.368,0.004-0.955-0.041-1.76-0.135c-0.113-0.015-0.216-0.028-0.312-0.041c-0.064,0.092-0.128,0.183-0.191,0.27
			c0.168,0.061,0.32,0.12,0.457,0.176c0.453,0.074,0.955,0.15,1.508,0.229c-0.1,0.017-0.231,0.025-0.398,0.024
			c-0.102,0-0.215-0.004-0.338-0.013c-0.05,0.009-0.136,0.013-0.259,0.012c-0.271,0.001-0.659-0.037-1.161-0.112
			c-0.02,0.034-0.039,0.065-0.059,0.097c0.172,0.086,0.296,0.157,0.375,0.215l0.023,0.075c-0.119-0.03-0.275-0.087-0.467-0.172
			c-0.055,0.095-0.107,0.187-0.158,0.276c0.338,0.023,0.713,0.047,1.123,0.069c-0.113-0.013-0.224-0.028-0.334-0.045
			c-0.225-0.04-0.338-0.075-0.338-0.104l0.672,0.025c0.033,0.027,0.066,0.035,0.1,0.024c0.017,0.007,0.025,0.061,0.025,0.159
			c-0.001,0.104-0.009,0.149-0.025,0.141l-0.025-0.051c-0.404-0.029-0.769-0.059-1.09-0.086c0.325,0.218,0.621,0.379,0.891,0.484
			l0.025,0.074c-0.003,0.014-0.014,0.025-0.027,0.037c0.042,0.006,0.084,0.01,0.126,0.014v0.148c-0.021,0-0.078,0.008-0.175,0.024
			c-0.096,0.017-0.191,0.024-0.288,0.024c-0.104,0-0.293-0.032-0.567-0.097c0.229,0.246,0.42,0.479,0.57,0.696
			c0.527,0.308,0.904,0.531,1.131,0.67l0.025,0.074c-0.353-0.18-0.689-0.354-1.01-0.52c0,0.001,0.001,0.003,0.002,0.004
			c0.07,0.06,0.142,0.115,0.212,0.168l-0.025,0.049c-0.033-0.018-0.065-0.037-0.097-0.057c0.025,0.053,0.05,0.105,0.072,0.156
			l-0.065,0.115c-0.026,0.043-0.055,0.079-0.085,0.109c-0.051-0.113-0.156-0.26-0.314-0.441l-0.008,0.018
			c-0.215-0.134-0.578-0.352-1.088-0.652c-0.027,0.07-0.059,0.145-0.092,0.224c0.588,0.503,1.121,0.895,1.602,1.175
			c-0.004,0.051-0.014,0.086-0.029,0.105c-0.023,0.029-0.089,0.045-0.193,0.045c-0.172,0-0.426-0.095-0.765-0.281
			c0.052,0.095,0.102,0.188,0.146,0.277c0.273,0.263,0.462,0.455,0.567,0.576c-0.154-0.105-0.305-0.211-0.453-0.317
			c0.099,0.246,0.158,0.472,0.178,0.675l-0.015,0.078c0.064,0.062,0.128,0.125,0.189,0.186c-0.064-0.033-0.132-0.07-0.204-0.109
			l-0.02,0.109h-0.075c-0.012-0.062-0.028-0.125-0.047-0.191c-0.165-0.096-0.349-0.207-0.548-0.334
			c0.326,0.407,0.656,0.848,0.992,1.322c0,0.049-0.033,0.082-0.1,0.1c-0.394-0.461-0.918-0.955-1.57-1.482
			c0.234,0.463,0.376,0.795,0.429,0.994c0.313,0.436,0.47,0.746,0.47,0.936c0,0.093-0.004,0.145-0.011,0.153
			c-0.009,0.014-0.015,0.04-0.015,0.079c-0.017,0-0.039,0.016-0.064,0.047c-0.037,0.039-0.064,0.065-0.085,0.078
			c-0.013-0.013-0.015-0.026-0.005-0.039c0.02-0.037,0.03-0.102,0.03-0.194c0-0.078-0.114-0.27-0.343-0.575
			c-0.018,0.069-0.043,0.17-0.08,0.301c-0.049-0.199-0.129-0.436-0.238-0.709c-0.143-0.178-0.309-0.377-0.497-0.6
			c-0.045-0.053-0.089-0.104-0.132-0.154c0.147,0.418,0.288,0.82,0.42,1.207c0.148,0.303,0.273,0.589,0.372,0.863
			c-0.045-0.055-0.093-0.111-0.139-0.17c0.013,0.041,0.026,0.08,0.04,0.12v0.074c0.01,0.014,0.01,0.026-0.001,0.04
			c-0.022,0.023-0.085,0.035-0.188,0.035c-0.14-0.001-0.342-0.333-0.606-0.998c-0.063-0.039-0.16-0.138-0.291-0.295
			c0.306,0.574,0.644,1.254,1.011,2.039l-0.024,0.149l-0.075-0.001c-0.194-0.405-0.548-1.006-1.061-1.799
			c-0.014,0.035-0.026,0.07-0.04,0.107c0.098,0.168,0.21,0.354,0.335,0.562c0.195,0.32,0.294,0.504,0.294,0.547
			c-0.001,0.096-0.004,0.16-0.011,0.195c-0.01,0.031-0.015,0.055-0.015,0.063l-0.1,0.024c-0.202-0.338-0.399-0.668-0.589-0.992
			c0.154,0.396,0.316,0.786,0.49,1.167c-0.004-0.001-0.006-0.003-0.008-0.005c0.075,0.168,0.145,0.335,0.205,0.502l-0.074,0.149
			c-0.033,0.05-0.075,0.075-0.125,0.075c0-0.01,0.01-0.018,0.025-0.025c0.017-0.01,0.025-0.062,0.024-0.159
			c0-0.163-0.253-0.585-0.763-1.269c-0.06,0.151-0.13,0.309-0.209,0.473c0.288,0.492,0.521,0.951,0.697,1.379
			c-0.089-0.135-0.359-0.52-0.812-1.15c-0.038,0.073-0.077,0.147-0.119,0.224c0.123,0.323,0.186,0.554,0.187,0.691
			c0,0.106-0.006,0.184-0.016,0.233c-0.007,0.027-0.019,0.06-0.034,0.101l-0.075-0.001c-0.05-0.226-0.12-0.479-0.211-0.761
			c-0.256,0.436-0.567,0.904-0.934,1.407c-0.734,1.005-1.175,1.504-1.319,1.496c-2.854-0.062-5.355-0.843-7.508-2.345
			c-0.272-0.191-0.525-0.387-0.762-0.582c-0.914-0.187-1.492-0.742-1.734-1.669c-0.053-0.201-0.088-0.418-0.104-0.651
			c-0.021-0.08-0.028-0.152-0.025-0.219c0-0.047,0.005-0.091,0.016-0.135c-0.31-0.036-0.51-0.209-0.602-0.517
			c-0.027-0.107-0.04-0.229-0.04-0.364c0.003-0.119,0.005-0.187,0.005-0.2c0.008-0.328,0.22-0.99,0.639-1.988
			c0.418-1.002,0.632-1.699,0.639-2.09c0.041-1.775,1.068-3.499,3.084-5.173c1.055-0.876,2.307-1.69,3.756-2.442l-0.002-0.014
			c0.043-0.078,0.174-0.283,0.393-0.61c0.197-0.292,0.307-0.475,0.33-0.548h0.074c0.033,0.027,0.079,0.051,0.139,0.07
			c0.027,0.022,0.046,0.062,0.055,0.117c0.002-0.006,0.004-0.009,0.006-0.013c0.039-0.073,0.135-0.274,0.284-0.603
			c0.144-0.288,0.247-0.436,0.313-0.441c-0.098,0.238-0.218,0.49-0.359,0.756c0.201-0.33,0.32-0.55,0.359-0.657l0.024,0.149
			c-0.064,0.148-0.153,0.33-0.267,0.547h0.043c0.014,0.018,0.02,0.027,0.02,0.03c0.002,0.003,0.004,0.057,0.004,0.159
			c0,0.102-0.033,0.24-0.1,0.416c0.084-0.037,0.166-0.075,0.25-0.111c0.048-0.246,0.083-0.529,0.104-0.852
			c0.014-0.223,0.028-0.535,0.046-0.936h0.074c0.057,0.069,0.093,0.139,0.109,0.209c0.01,0.047,0.015,0.139,0.016,0.279
			c-0.001,0.23-0.064,0.6-0.19,1.102c0.077-0.148,0.167-0.312,0.265-0.496l0.023,0.115c-0.032,0.12-0.08,0.268-0.144,0.443
			c0.046-0.021,0.092-0.041,0.139-0.062c0.05-0.228,0.044-0.426-0.02-0.594c0.017-0.016,0.046-0.025,0.091-0.025
			c0.001-0.025,0.002-0.053,0.004-0.08c0.03-0.302,0.098-0.531,0.205-0.69c-0.08,0.188-0.134,0.445-0.16,0.771
			c-0.002,0.016-0.002,0.033-0.002,0.05c0.037,0.055,0.076,0.124,0.116,0.204c0.019,0.047,0.036,0.086,0.05,0.119
			c0.078-0.349,0.151-0.764,0.219-1.244h0.075c-0.055,0.48-0.116,0.889-0.182,1.223c0.007-0.016,0.015-0.031,0.022-0.048
			c0.033-0.054,0.086-0.079,0.159-0.079c-0.019,0.06-0.038,0.118-0.056,0.176c0.016-0.006,0.03-0.012,0.045-0.02
			c0.171-0.471,0.307-0.796,0.409-0.979c0.017,0.027,0.032,0.037,0.045,0.031c0.003,0.004,0.005,0.056,0.005,0.158
			c0,0.138-0.045,0.357-0.136,0.66c0.054-0.02,0.108-0.041,0.163-0.062c0.149-0.48,0.256-0.842,0.316-1.084
			c0.162-0.651,0.239-1.209,0.229-1.678h0.075c0.016,0.101,0.025,0.262,0.024,0.482c0,0.344-0.079,0.82-0.24,1.434
			c0.206-0.468,0.441-0.947,0.705-1.438c0.008-0.271-0.015-0.529-0.065-0.775l0.074-0.001c0.074,0.137,0.123,0.305,0.141,0.506
			c0.261-0.47,0.548-0.95,0.859-1.44c1.602-2.533,3.614-4.968,6.037-7.305c1.328-1.272,2.555-2.312,3.68-3.117
			c0.498-0.619,1.234-1.379,2.207-2.277c0.67-0.606,1.368-1.207,2.096-1.805c0.623-0.504,0.992-0.778,1.105-0.825
			c-0.318-0.507-0.471-1.086-0.457-1.737c0.035-1.625,0.322-3.752,0.865-6.379c0.146-0.716,0.372-1.795,0.675-3.238
			c0.257-1.257,0.45-2.34,0.579-3.249c0.287-2.007,0.727-3.934,1.319-5.78c0.142-0.448,0.292-0.873,0.448-1.274
			c0.144-0.985,0.28-1.779,0.41-2.383c-0.04-0.205-0.134-0.687-0.283-1.443c-0.035-0.335-0.239-0.792-0.61-1.374
			c-0.397-0.626-0.636-1.116-0.716-1.468c-0.02-0.086-0.036-0.174-0.049-0.264c-0.285-0.581-0.488-1.246-0.605-1.996
			c-0.158-0.893-0.126-1.525,0.101-1.896c0.106-0.202,0.286-0.21,0.537-0.024c0.693,0.488,1.101,1.02,1.223,1.593
			c-0.014,0.487-0.021,0.761-0.024,0.821c-0.018,0.256,0.121,0.67,0.416,1.245c0.053,0.106,0.108,0.204,0.164,0.294
			c0.1,0.401,0.232,0.707,0.398,0.916c0.056-0.016,0.108-0.025,0.158-0.025c0.176-0.01,0.287-0.044,0.334-0.104
			c0.136-0.146,0.191-0.807,0.165-1.985c-0.019-0.766,0.053-1.37,0.216-1.812c-0.02-0.079-0.037-0.182-0.05-0.308
			c-0.026-0.279,0.038-0.539,0.189-0.782c0.054-0.086,0.136-0.208,0.249-0.363c-0.065-0.48-0.1-1.041-0.103-1.682
			c0.02-0.116,0.079-0.549,0.18-1.303c0.04-0.295,0.081-0.552,0.12-0.771c0.037-0.196,0.073-0.365,0.11-0.507
			c0.003-0.01,0.007-0.023,0.011-0.04c0.092-0.179,0.295-0.589,0.607-1.229c0.253-0.574,0.479-0.98,0.677-1.219
			c0.276-0.348,0.556-0.722,0.843-1.124c0.086-0.109,0.182-0.222,0.288-0.338c0.166-0.172,0.354-0.346,0.563-0.522
			c0.086-0.059,0.172-0.086,0.259-0.079c0.09-0.009,0.163,0.017,0.224,0.08c0.209,0.295,0.133,0.655-0.23,1.08
			c-0.112,0.146-0.217,0.273-0.313,0.383c-0.04,0.149-0.108,0.348-0.204,0.597c-0.189,0.421-0.306,0.699-0.35,0.835
			c-0.01,0.034-0.016,0.059-0.02,0.075c-0.054,0.199-0.197,0.474-0.434,0.826c-0.177,0.275-0.284,0.5-0.323,0.676
			c0.003,0.036,0.006,0.072,0.01,0.109c0.022,0.109,0.04,0.253,0.054,0.433c0.023,0.348,0.025,0.817,0.004,1.408
			c-0.03,1.005-0.115,1.583-0.255,1.736c-0.021,0.009-0.035,0.022-0.045,0.035c0.004,0.029,0,0.055-0.011,0.074
			c0.054,0.024,0.108,0.053,0.165,0.09c0.245,0.143,0.45,0.191,0.612,0.145c0.036-0.136,0.119-0.343,0.248-0.622
			c0.127-0.266,0.217-0.497,0.27-0.692c0.084-0.289,0.205-0.748,0.365-1.378c0.072-0.258,0.145-0.494,0.215-0.706
			c0.185-0.259,0.355-0.478,0.512-0.657c0.017-0.026,0.133-0.186,0.349-0.478c0.047-0.056,0.093-0.121,0.14-0.193
			c0.303-0.408,0.744-1.007,1.325-1.796c0.106-0.139,0.209-0.275,0.309-0.407c0.296-0.322,0.56-0.601,0.792-0.835
			c0.554-0.558,0.922-0.878,1.1-0.965c0.283-0.139,0.455-0.215,0.518-0.229c0.184-0.043,0.329-0.018,0.439,0.075
			c0.046,0.04,0.088,0.089,0.123,0.149C152.663-12.698,152.685-12.649,152.701-12.606L152.701-12.606z M146.942,7.908
			c0.111-0.041,0.22-0.077,0.323-0.109c-0.153,0.043-0.271,0.074-0.353,0.091C146.923,7.896,146.933,7.902,146.942,7.908z
			 M146.947,8.518c0.016,0,0.032,0,0.049,0.002c0.007-0.003,0.015-0.007,0.021-0.012c-0.023-0.007-0.047-0.014-0.069-0.021
			C146.946,8.498,146.947,8.508,146.947,8.518z M147.108,8.754c-0.041,0.023-0.08,0.045-0.117,0.067
			c0.002,0.011,0.004,0.021,0.005,0.033c0.054-0.037,0.105-0.07,0.157-0.103C147.139,8.751,147.124,8.752,147.108,8.754z
			 M147.351,11.516c0.004,0.022,0.007,0.044,0.01,0.065c0.045-0.06,0.092-0.123,0.143-0.186c0.137-0.176,0.276-0.353,0.418-0.53
			c-0.002,0.001-0.004,0.002-0.006,0.004c-0.116,0.147-0.261,0.316-0.434,0.505C147.437,11.424,147.394,11.471,147.351,11.516z
			 M148.228,12.3c-0.031,0.03-0.062,0.061-0.097,0.092c0.011,0.003,0.021,0.005,0.032,0.008
			C148.185,12.367,148.206,12.333,148.228,12.3z M148.884,11.316c0.023-0.039,0.049-0.074,0.07-0.11
			c-0.025,0.035-0.053,0.07-0.08,0.106L148.884,11.316L148.884,11.316z M148.302,13.883c-0.012,0.031-0.025,0.062-0.037,0.091
			l0.002,0.003c-0.003,0.004-0.006,0.008-0.008,0.013c-0.106,0.245-0.258,0.463-0.456,0.654l0.001,0.025
			c0.079-0.057,0.35-0.325,0.811-0.806c0.092-0.095,0.178-0.179,0.257-0.251c-0.081,0.034-0.171,0.069-0.267,0.106
			c-0.103,0.04-0.199,0.081-0.289,0.121C148.311,13.855,148.306,13.869,148.302,13.883z M148.159,17.714
			c-0.057,0.043-0.115,0.093-0.174,0.15c-0.004,0.049-0.004,0.096,0,0.139C148.054,17.89,148.113,17.794,148.159,17.714z
			 M148.453,19.769c-0.1,0.193-0.209,0.415-0.326,0.663c0,0.06,0.002,0.119,0.005,0.178c0.153-0.341,0.254-0.604,0.304-0.786
			l0.304-0.423C148.645,19.521,148.549,19.645,148.453,19.769L148.453,19.769z M118.079,49.402l-0.025,0.051
			c0.08-0.066,0.146-0.14,0.2-0.219c0.043-0.063,0.067-0.115,0.074-0.155l-0.024,0.024
			C118.154,49.253,118.079,49.353,118.079,49.402z M118.847,48.753c-0.068,0.129-0.143,0.27-0.225,0.421
			c-0.06,0.105-0.115,0.204-0.17,0.298c0.05-0.023,0.101-0.047,0.15-0.068C118.744,49.123,118.825,48.906,118.847,48.753z
			 M125.274,58.662c0.075,0.041,0.152,0.079,0.232,0.116c-0.066-0.048-0.136-0.103-0.207-0.161
			C125.291,58.63,125.283,58.646,125.274,58.662z M125.893,57.582c0.146,0.024,0.296,0.049,0.452,0.074
			c-0.145-0.041-0.285-0.082-0.422-0.121C125.913,57.55,125.903,57.566,125.893,57.582z M125.474,59.638
			c-0.18-0.094-0.353-0.185-0.52-0.274c-0.01,0.026-0.02,0.05-0.03,0.075c0.401,0.245,0.718,0.447,0.95,0.605
			C125.761,59.923,125.628,59.788,125.474,59.638z M124.773,60.664c0.286,0.453,0.54,0.797,0.761,1.03
			c-0.102-0.231-0.236-0.483-0.406-0.757C125.009,60.846,124.891,60.755,124.773,60.664z"/>
	</g>
	<g id="Layer_3_4_">
		<path id="path20_3_" fill="#010101" d="M117.882,156.843c0.169-0.468,0.268-0.947,0.295-1.438
			c-0.076-0.306-0.113-0.494-0.109-0.568c0.014-0.312,0.069-0.562,0.17-0.75c0.189-0.293,0.384-1.914,0.586-4.867
			c3.337,0.962,4.242,2.412,2.718,4.352l0.044,0.064c-0.298,0.567-0.512,1.028-0.641,1.383c-0.193,0.523-0.327,0.826-0.4,0.906
			c-0.226,0.265-0.354,0.57-0.385,0.914c-0.049,0.561-0.082,0.848-0.1,0.861c-0.022,0.127-0.141,0.473-0.354,1.039
			c-0.183,0.494-0.274,0.771-0.274,0.831c-0.003,0.007,0.03,0.124,0.104,0.354c0.059,0.242,0.09,0.394,0.094,0.454
			c-0.01,0.002-0.038,0.201-0.085,0.596c-0.176,0.379-0.543,0.557-1.1,0.532c-0.812-0.021-1.218-0.253-1.214-0.697
			c0.014-0.376,0.078-0.765,0.195-1.17c0.109-0.411,0.16-0.627,0.154-0.646C117.612,158.02,117.712,157.304,117.882,156.843z"/>
	</g>
	<g id="Layer_8_2_">
		<path id="path23_4_" fill="#010101" d="M45.808,108.047c-0.542-0.62-0.842-0.961-0.895-1.021c-0.02-0.027-0.042-0.048-0.064-0.064
			c-0.049-0.303-0.021-0.56,0.085-0.771c0.315-0.577,0.735-0.695,1.259-0.353c0.527,0.335,1.018,0.673,1.473,1.012
			c0.44,0.336,0.677,0.509,0.706,0.522c0.458,0.209,0.863,0.409,1.219,0.598c0.278,0.133,0.517,0.263,0.716,0.389
			c0.094,0.064,0.179,0.125,0.259,0.186c0.382,0.328,0.791,0.574,1.229,0.741c0.05,0.013,0.096,0.025,0.14,0.035l0.512,0.254
			c0.286,0.144,0.899,0.302,1.841,0.475c0.106,0.003,0.219,0.013,0.338,0.025c0.693-0.03,1.539-0.082,2.538-0.157
			c-0.494,3.436-1.802,4.533-3.924,3.291l-0.07,0.055c-0.613-0.219-1.102-0.365-1.468-0.434c0-0.004-0.001-0.006-0.005-0.006
			c-0.085-0.026-0.172-0.057-0.258-0.09c-0.378-0.209-0.607-0.35-0.688-0.424c-0.211-0.234-0.439-0.395-0.68-0.478
			c-0.084-0.065-0.177-0.13-0.279-0.188c-0.104-0.066-0.299-0.172-0.587-0.315c-0.213-0.239-0.438-0.464-0.676-0.677
			c-0.269-0.242-0.509-0.425-0.721-0.548c-0.013-0.029-0.024-0.058-0.035-0.085c-0.036-0.082-0.076-0.155-0.12-0.219
			c-0.146-0.195-0.318-0.304-0.517-0.323c-0.003,0-0.007,0.001-0.01,0.005c-0.076-0.137-0.2-0.282-0.373-0.438
			C46.495,108.798,46.18,108.465,45.808,108.047L45.808,108.047z"/>
	</g>
</g>
</svg>
